<?xml version="1.0" encoding="UTF-8"?>
<svg xmlns="http://www.w3.org/2000/svg"
     xmlns:xlink="http://www.w3.org/1999/xlink"
     xmlns:gadfly="http://www.gadflyjl.org/ns"
     version="1.2"
     width="254mm" height="76.2mm" viewBox="0 0 254 76.2"
     stroke="none"
     fill="#000000"
     stroke-width="0.3"
     font-size="3.88"
>
<defs>
  <marker id="arrow" markerWidth="15" markerHeight="7" refX="5" refY="3.5" orient="auto" markerUnits="strokeWidth">
    <path d="M0,0 L15,3.5 L0,7 z" stroke="context-stroke" fill="context-stroke"/>
  </marker>
</defs>
<g class="plotroot xscalable yscalable" id="img-38c6170a-1">
  <g font-size="3.18" font-family="'PT Sans','Helvetica Neue','Helvetica',sans-serif" fill="#202020" stroke="#000000" stroke-opacity="0.000" id="img-38c6170a-2">
    <g transform="translate(135.66,69.54)">
      <g class="primitive">
        <text text-anchor="middle" dy="0.6em">Energy (eV)</text>
      </g>
    </g>
  </g>
  <g class="guide xlabels" font-size="2.82" font-family="'PT Sans Caption','Helvetica Neue','Helvetica',sans-serif" fill="#6C606B" id="img-38c6170a-3">
    <g transform="translate(20.03,62.87)">
      <g class="primitive">
        <text text-anchor="middle" dy="0.6em">0</text>
      </g>
    </g>
    <g transform="translate(77.84,62.87)">
      <g class="primitive">
        <text text-anchor="middle" dy="0.6em">2000</text>
      </g>
    </g>
    <g transform="translate(135.66,62.87)">
      <g class="primitive">
        <text text-anchor="middle" dy="0.6em">4000</text>
      </g>
    </g>
    <g transform="translate(193.48,62.87)">
      <g class="primitive">
        <text text-anchor="middle" dy="0.6em">6000</text>
      </g>
    </g>
    <g transform="translate(251.29,62.87)">
      <g class="primitive">
        <text text-anchor="middle" dy="0.6em">8000</text>
      </g>
    </g>
  </g>
  <g clip-path="url(#img-38c6170a-4)">
    <g id="img-38c6170a-5">
      <g pointer-events="visible" stroke-width="0.3" fill="#FDFDF1" stroke="#202020" class="guide background" id="img-38c6170a-6">
        <g transform="translate(135.66,31.29)" id="img-38c6170a-7">
          <path d="M-117.63,-30.58 L117.63,-30.58 117.63,30.58 -117.63,30.58  z" class="primitive"/>
        </g>
      </g>
      <g class="guide ygridlines xfixed" stroke-dasharray="none" stroke-width="0.2" stroke="#FFDFDF" id="img-38c6170a-8">
        <g transform="translate(135.66,59.87)" id="img-38c6170a-9">
          <path fill="none" d="M-117.63,0 L117.63,0 " class="primitive"/>
        </g>
        <g transform="translate(135.66,42.2)" id="img-38c6170a-10">
          <path fill="none" d="M-117.63,0 L117.63,0 " class="primitive"/>
        </g>
        <g transform="translate(135.66,24.53)" id="img-38c6170a-11">
          <path fill="none" d="M-117.63,0 L117.63,0 " class="primitive"/>
        </g>
        <g transform="translate(135.66,6.86)" id="img-38c6170a-12">
          <path fill="none" d="M-117.63,0 L117.63,0 " class="primitive"/>
        </g>
      </g>
      <g class="guide xgridlines yfixed" stroke-dasharray="none" stroke-width="0.2" stroke="#FFDFDF" id="img-38c6170a-13">
        <g transform="translate(20.03,31.29)" id="img-38c6170a-14">
          <path fill="none" d="M0,-30.58 L0,30.58 " class="primitive"/>
        </g>
        <g transform="translate(77.84,31.29)" id="img-38c6170a-15">
          <path fill="none" d="M0,-30.58 L0,30.58 " class="primitive"/>
        </g>
        <g transform="translate(135.66,31.29)" id="img-38c6170a-16">
          <path fill="none" d="M0,-30.58 L0,30.58 " class="primitive"/>
        </g>
        <g transform="translate(193.48,31.29)" id="img-38c6170a-17">
          <path fill="none" d="M0,-30.58 L0,30.58 " class="primitive"/>
        </g>
        <g transform="translate(251.29,31.29)" id="img-38c6170a-18">
          <path fill="none" d="M0,-30.58 L0,30.58 " class="primitive"/>
        </g>
      </g>
      <g class="plotpanel" id="img-38c6170a-19">
        <metadata>
          <boundingbox value="18.027222222222242mm 0.7055555555555555mm 235.26722222222224mm 61.16055555555556mm"/>
          <unitbox value="-69.18403674441063 33484.42479915249 8138.368073488822 -34616.40959830498"/>
        </metadata>
        <g stroke-width="0.3" fill="#000000" fill-opacity="0.000" class="geometry" id="img-38c6170a-20">
          <g class="color_RGB{N0f8}(0.718,0.0,0.008)" stroke-dasharray="none" stroke-opacity="1" stroke="#B70002" id="img-38c6170a-21">
            <g transform="translate(135.62,40.98)" id="img-38c6170a-22">
              <path fill="none" d="M-115.54,18.88 L-115.26,18.88 -115.26,18.88 -114.97,18.88 -114.97,18.88 -114.68,18.88 -114.68,18.88 -114.39,18.88 -114.39,18.88 -114.1,18.88 -114.1,18.88 -113.81,18.88 -113.81,18.88 -113.52,18.88 -113.52,18.88 -113.23,18.88 -113.23,18.88 -112.94,18.88 -112.94,18.88 -112.65,18.88 -112.65,18.88 -112.37,18.88 -112.37,18.88 -112.08,18.88 -112.08,18.88 -111.79,18.88 -111.79,18.88 -111.5,18.88 -111.5,18.88 -111.21,18.88 -111.21,18.88 -110.92,18.88 -110.92,18.88 -110.63,18.88 -110.63,18.88 -110.34,18.88 -110.34,18.88 -110.05,18.88 -110.05,18.88 -109.76,18.88 -109.76,18.88 -109.47,18.88 -109.47,18.88 -109.19,18.88 -109.19,18.88 -108.9,18.88 -108.9,18.88 -108.61,18.88 -108.61,18.87 -108.32,18.87 -108.32,18.85 -108.03,18.85 -108.03,18.79 -107.74,18.79 -107.74,18.63 -107.45,18.63 -107.45,18.28 -107.16,18.28 -107.16,17.6 -106.87,17.6 -106.87,16.45 -106.58,16.45 -106.58,14.73 -106.3,14.73 -106.3,12.47 -106.01,12.47 -106.01,9.85 -105.72,9.85 -105.72,7.13 -105.43,7.13 -105.43,4.6 -105.14,4.6 -105.14,2.48 -104.85,2.48 -104.85,0.9 -104.56,0.9 -104.56,-0.13 -104.27,-0.13 -104.27,-0.69 -103.98,-0.69 -103.98,-0.92 -103.69,-0.92 -103.69,-1.05 -103.4,-1.05 -103.4,-1.29 -103.12,-1.29 -103.12,-1.8 -102.83,-1.8 -102.83,-2.63 -102.54,-2.63 -102.54,-3.73 -102.25,-3.73 -102.25,-4.97 -101.96,-4.97 -101.96,-6.14 -101.67,-6.14 -101.67,-7.03 -101.38,-7.03 -101.38,-7.35 -101.09,-7.35 -101.09,-6.88 -100.8,-6.88 -100.8,-5.49 -100.51,-5.49 -100.51,-3.33 -100.23,-3.33 -100.23,-0.77 -99.94,-0.77 -99.94,1.65 -99.65,1.65 -99.65,3.42 -99.36,3.42 -99.36,4.27 -99.07,4.27 -99.07,4.25 -98.78,4.25 -98.78,3.6 -98.49,3.6 -98.49,2.67 -98.2,2.67 -98.2,1.68 -97.91,1.68 -97.91,0.78 -97.62,0.78 -97.62,-0 -97.33,-0 -97.33,-0.66 -97.05,-0.66 -97.05,-1.2 -96.76,-1.2 -96.76,-1.58 -96.47,-1.58 -96.47,-1.77 -96.18,-1.77 -96.18,-1.7 -95.89,-1.7 -95.89,-1.38 -95.6,-1.38 -95.6,-0.85 -95.31,-0.85 -95.31,-0.22 -95.02,-0.22 -95.02,0.39 -94.73,0.39 -94.73,0.85 -94.44,0.85 -94.44,1.09 -94.16,1.09 -94.16,1.09 -93.87,1.09 -93.87,0.89 -93.58,0.89 -93.58,0.54 -93.29,0.54 -93.29,0.1 -93,0.1 -93,-0.38 -92.71,-0.38 -92.71,-0.89 -92.42,-0.89 -92.42,-1.41 -92.13,-1.41 -92.13,-1.93 -91.84,-1.93 -91.84,-2.46 -91.55,-2.46 -91.55,-2.99 -91.27,-2.99 -91.27,-3.51 -90.98,-3.51 -90.98,-4.04 -90.69,-4.04 -90.69,-4.57 -90.4,-4.57 -90.4,-5.1 -90.11,-5.1 -90.11,-5.64 -89.82,-5.64 -89.82,-6.17 -89.53,-6.17 -89.53,-6.69 -89.24,-6.69 -89.24,-7.22 -88.95,-7.22 -88.95,-7.75 -88.66,-7.75 -88.66,-8.27 -88.37,-8.27 -88.37,-8.8 -88.09,-8.8 -88.09,-9.32 -87.8,-9.32 -87.8,-9.84 -87.51,-9.84 -87.51,-10.36 -87.22,-10.36 -87.22,-10.87 -86.93,-10.87 -86.93,-11.39 -86.64,-11.39 -86.64,-11.91 -86.35,-11.91 -86.35,-12.42 -86.06,-12.42 -86.06,-12.93 -85.77,-12.93 -85.77,-13.44 -85.48,-13.44 -85.48,-13.94 -85.2,-13.94 -85.2,-14.43 -84.91,-14.43 -84.91,-14.91 -84.62,-14.91 -84.62,-15.39 -84.33,-15.39 -84.33,-15.86 -84.04,-15.86 -84.04,-16.31 -83.75,-16.31 -83.75,-16.76 -83.46,-16.76 -83.46,-17.19 -83.17,-17.19 -83.17,-17.62 -82.88,-17.62 -82.88,-18.03 -82.59,-18.03 -82.59,-18.44 -82.3,-18.44 -82.3,-18.84 -82.02,-18.84 -82.02,-19.23 -81.73,-19.23 -81.73,-19.6 -81.44,-19.6 -81.44,-19.97 -81.15,-19.97 -81.15,-20.32 -80.86,-20.32 -80.86,-20.66 -80.57,-20.66 -80.57,-20.99 -80.28,-20.99 -80.28,-21.31 -79.99,-21.31 -79.99,-21.62 -79.7,-21.62 -79.7,-21.92 -79.41,-21.92 -79.41,-22.21 -79.13,-22.21 -79.13,-22.48 -78.84,-22.48 -78.84,-22.75 -78.55,-22.75 -78.55,-23.01 -78.26,-23.01 -78.26,-23.25 -77.97,-23.25 -77.97,-23.49 -77.68,-23.49 -77.68,-23.71 -77.39,-23.71 -77.39,-23.93 -77.1,-23.93 -77.1,-24.14 -76.81,-24.14 -76.81,-24.33 -76.52,-24.33 -76.52,-24.52 -76.23,-24.52 -76.23,-24.7 -75.95,-24.7 -75.95,-24.87 -75.66,-24.87 -75.66,-25.03 -75.37,-25.03 -75.37,-25.19 -75.08,-25.19 -75.08,-25.33 -74.79,-25.33 -74.79,-25.46 -74.5,-25.46 -74.5,-25.59 -74.21,-25.59 -74.21,-25.7 -73.92,-25.7 -73.92,-25.81 -73.63,-25.81 -73.63,-25.91 -73.34,-25.91 -73.34,-26 -73.06,-26 -73.06,-26.08 -72.77,-26.08 -72.77,-26.13 -72.48,-26.13 -72.48,-26.17 -72.19,-26.17 -72.19,-26.17 -71.9,-26.17 -71.9,-26.13 -71.61,-26.13 -71.61,-26.05 -71.32,-26.05 -71.32,-25.94 -71.03,-25.94 -71.03,-25.8 -70.74,-25.8 -70.74,-25.64 -70.45,-25.64 -70.45,-25.49 -70.16,-25.49 -70.16,-25.35 -69.88,-25.35 -69.88,-25.25 -69.59,-25.25 -69.59,-25.19 -69.3,-25.19 -69.3,-25.16 -69.01,-25.16 -69.01,-25.15 -68.72,-25.15 -68.72,-25.16 -68.43,-25.16 -68.43,-25.17 -68.14,-25.17 -68.14,-25.19 -67.85,-25.19 -67.85,-25.2 -67.56,-25.2 -67.56,-25.21 -67.27,-25.21 -67.27,-25.21 -66.99,-25.21 -66.99,-25.2 -66.7,-25.2 -66.7,-25.19 -66.41,-25.19 -66.41,-25.18 -66.12,-25.18 -66.12,-25.16 -65.83,-25.16 -65.83,-25.14 -65.54,-25.14 -65.54,-25.1 -65.25,-25.1 -65.25,-25.04 -64.96,-25.04 -64.96,-24.94 -64.67,-24.94 -64.67,-24.77 -64.38,-24.77 -64.38,-24.49 -64.1,-24.49 -64.1,-24.04 -63.81,-24.04 -63.81,-23.36 -63.52,-23.36 -63.52,-22.4 -63.23,-22.4 -63.23,-21.1 -62.94,-21.1 -62.94,-19.49 -62.65,-19.49 -62.65,-17.6 -62.36,-17.6 -62.36,-15.55 -62.07,-15.55 -62.07,-13.48 -61.78,-13.48 -61.78,-11.53 -61.49,-11.53 -61.49,-9.82 -61.2,-9.82 -61.2,-8.43 -60.92,-8.43 -60.92,-7.38 -60.63,-7.38 -60.63,-6.66 -60.34,-6.66 -60.34,-6.2 -60.05,-6.2 -60.05,-5.94 -59.76,-5.94 -59.76,-5.82 -59.47,-5.82 -59.47,-5.79 -59.18,-5.79 -59.18,-5.8 -58.89,-5.8 -58.89,-5.85 -58.6,-5.85 -58.6,-5.91 -58.31,-5.91 -58.31,-5.97 -58.03,-5.97 -58.03,-6.04 -57.74,-6.04 -57.74,-6.11 -57.45,-6.11 -57.45,-6.18 -57.16,-6.18 -57.16,-6.25 -56.87,-6.25 -56.87,-6.31 -56.58,-6.31 -56.58,-6.38 -56.29,-6.38 -56.29,-6.44 -56,-6.44 -56,-6.5 -55.71,-6.5 -55.71,-6.56 -55.42,-6.56 -55.42,-6.62 -55.13,-6.62 -55.13,-6.68 -54.85,-6.68 -54.85,-6.74 -54.56,-6.74 -54.56,-6.8 -54.27,-6.8 -54.27,-6.85 -53.98,-6.85 -53.98,-6.91 -53.69,-6.91 -53.69,-6.96 -53.4,-6.96 -53.4,-7.01 -53.11,-7.01 -53.11,-7.06 -52.82,-7.06 -52.82,-7.11 -52.53,-7.11 -52.53,-7.15 -52.24,-7.15 -52.24,-7.2 -51.96,-7.2 -51.96,-7.24 -51.67,-7.24 -51.67,-7.28 -51.38,-7.28 -51.38,-7.32 -51.09,-7.32 -51.09,-7.36 -50.8,-7.36 -50.8,-7.39 -50.51,-7.39 -50.51,-7.42 -50.22,-7.42 -50.22,-7.46 -49.93,-7.46 -49.93,-7.49 -49.64,-7.49 -49.64,-7.52 -49.35,-7.52 -49.35,-7.54 -49.06,-7.54 -49.06,-7.57 -48.78,-7.57 -48.78,-7.59 -48.49,-7.59 -48.49,-7.61 -48.2,-7.61 -48.2,-7.63 -47.91,-7.63 -47.91,-7.65 -47.62,-7.65 -47.62,-7.67 -47.33,-7.67 -47.33,-7.68 -47.04,-7.68 -47.04,-7.7 -46.75,-7.7 -46.75,-7.71 -46.46,-7.71 -46.46,-7.72 -46.17,-7.72 -46.17,-7.72 -45.89,-7.72 -45.89,-7.73 -45.6,-7.73 -45.6,-7.73 -45.31,-7.73 -45.31,-7.74 -45.02,-7.74 -45.02,-7.74 -44.73,-7.74 -44.73,-7.74 -44.44,-7.74 -44.44,-7.73 -44.15,-7.73 -44.15,-7.73 -43.86,-7.73 -43.86,-7.73 -43.57,-7.73 -43.57,-7.72 -43.28,-7.72 -43.28,-7.71 -43,-7.71 -43,-7.71 -42.71,-7.71 -42.71,-7.7 -42.42,-7.7 -42.42,-7.69 -42.13,-7.69 -42.13,-7.67 -41.84,-7.67 -41.84,-7.66 -41.55,-7.66 -41.55,-7.65 -41.26,-7.65 -41.26,-7.63 -40.97,-7.63 -40.97,-7.62 -40.68,-7.62 -40.68,-7.6 -40.39,-7.6 -40.39,-7.58 -40.1,-7.58 -40.1,-7.56 -39.82,-7.56 -39.82,-7.54 -39.53,-7.54 -39.53,-7.52 -39.24,-7.52 -39.24,-7.5 -38.95,-7.5 -38.95,-7.47 -38.66,-7.47 -38.66,-7.45 -38.37,-7.45 -38.37,-7.43 -38.08,-7.43 -38.08,-7.4 -37.79,-7.4 -37.79,-7.37 -37.5,-7.37 -37.5,-7.35 -37.21,-7.35 -37.21,-7.32 -36.93,-7.32 -36.93,-7.29 -36.64,-7.29 -36.64,-7.26 -36.35,-7.26 -36.35,-7.23 -36.06,-7.23 -36.06,-7.2 -35.77,-7.2 -35.77,-7.17 -35.48,-7.17 -35.48,-7.13 -35.19,-7.13 -35.19,-7.1 -34.9,-7.1 -34.9,-7.07 -34.61,-7.07 -34.61,-7.03 -34.32,-7.03 -34.32,-7 -34.03,-7 -34.03,-6.96 -33.75,-6.96 -33.75,-6.92 -33.46,-6.92 -33.46,-6.89 -33.17,-6.89 -33.17,-6.85 -32.88,-6.85 -32.88,-6.81 -32.59,-6.81 -32.59,-6.77 -32.3,-6.77 -32.3,-6.74 -32.01,-6.74 -32.01,-6.7 -31.72,-6.7 -31.72,-6.66 -31.43,-6.66 -31.43,-6.62 -31.14,-6.62 -31.14,-6.58 -30.86,-6.58 -30.86,-6.54 -30.57,-6.54 -30.57,-6.49 -30.28,-6.49 -30.28,-6.45 -29.99,-6.45 -29.99,-6.41 -29.7,-6.41 -29.7,-6.37 -29.41,-6.37 -29.41,-6.33 -29.12,-6.33 -29.12,-6.28 -28.83,-6.28 -28.83,-6.24 -28.54,-6.24 -28.54,-6.2 -28.25,-6.2 -28.25,-6.15 -27.96,-6.15 -27.96,-6.11 -27.68,-6.11 -27.68,-6.06 -27.39,-6.06 -27.39,-6.02 -27.1,-6.02 -27.1,-5.97 -26.81,-5.97 -26.81,-5.93 -26.52,-5.93 -26.52,-5.88 -26.23,-5.88 -26.23,-5.83 -25.94,-5.83 -25.94,-5.79 -25.65,-5.79 -25.65,-5.74 -25.36,-5.74 -25.36,-5.69 -25.07,-5.69 -25.07,-5.65 -24.79,-5.65 -24.79,-5.6 -24.5,-5.6 -24.5,-5.55 -24.21,-5.55 -24.21,-5.5 -23.92,-5.5 -23.92,-5.45 -23.63,-5.45 -23.63,-5.41 -23.34,-5.41 -23.34,-5.36 -23.05,-5.36 -23.05,-5.31 -22.76,-5.31 -22.76,-5.26 -22.47,-5.26 -22.47,-5.21 -22.18,-5.21 -22.18,-5.16 -21.89,-5.16 -21.89,-5.11 -21.61,-5.11 -21.61,-5.06 -21.32,-5.06 -21.32,-5.01 -21.03,-5.01 -21.03,-4.96 -20.74,-4.96 -20.74,-4.91 -20.45,-4.91 -20.45,-4.86 -20.16,-4.86 -20.16,-4.81 -19.87,-4.81 -19.87,-4.76 -19.58,-4.76 -19.58,-4.7 -19.29,-4.7 -19.29,-4.65 -19,-4.65 -19,-4.6 -18.72,-4.6 -18.72,-4.55 -18.43,-4.55 -18.43,-4.5 -18.14,-4.5 -18.14,-4.44 -17.85,-4.44 -17.85,-4.39 -17.56,-4.39 -17.56,-4.34 -17.27,-4.34 -17.27,-4.29 -16.98,-4.29 -16.98,-4.23 -16.69,-4.23 -16.69,-4.18 -16.4,-4.18 -16.4,-4.13 -16.11,-4.13 -16.11,-4.08 -15.83,-4.08 -15.83,-4.02 -15.54,-4.02 -15.54,-3.97 -15.25,-3.97 -15.25,-3.92 -14.96,-3.92 -14.96,-3.86 -14.67,-3.86 -14.67,-3.81 -14.38,-3.81 -14.38,-3.76 -14.09,-3.76 -14.09,-3.7 -13.8,-3.7 -13.8,-3.65 -13.51,-3.65 -13.51,-3.6 -13.22,-3.6 -13.22,-3.54 -12.93,-3.54 -12.93,-3.49 -12.65,-3.49 -12.65,-3.44 -12.36,-3.44 -12.36,-3.38 -12.07,-3.38 -12.07,-3.33 -11.78,-3.33 -11.78,-3.28 -11.49,-3.28 -11.49,-3.22 -11.2,-3.22 -11.2,-3.17 -10.91,-3.17 -10.91,-3.12 -10.62,-3.12 -10.62,-3.06 -10.33,-3.06 -10.33,-3.01 -10.04,-3.01 -10.04,-2.96 -9.76,-2.96 -9.76,-2.9 -9.47,-2.9 -9.47,-2.85 -9.18,-2.85 -9.18,-2.8 -8.89,-2.8 -8.89,-2.74 -8.6,-2.74 -8.6,-2.69 -8.31,-2.69 -8.31,-2.63 -8.02,-2.63 -8.02,-2.58 -7.73,-2.58 -7.73,-2.53 -7.44,-2.53 -7.44,-2.47 -7.15,-2.47 -7.15,-2.42 -6.86,-2.42 -6.86,-2.37 -6.58,-2.37 -6.58,-2.31 -6.29,-2.31 -6.29,-2.26 -6,-2.26 -6,-2.21 -5.71,-2.21 -5.71,-2.15 -5.42,-2.15 -5.42,-2.1 -5.13,-2.1 -5.13,-2.05 -4.84,-2.05 -4.84,-2 -4.55,-2 -4.55,-1.94 -4.26,-1.94 -4.26,-1.89 -3.97,-1.89 -3.97,-1.84 -3.69,-1.84 -3.69,-1.78 -3.4,-1.78 -3.4,-1.73 -3.11,-1.73 -3.11,-1.68 -2.82,-1.68 -2.82,-1.63 -2.53,-1.63 -2.53,-1.57 -2.24,-1.57 -2.24,-1.52 -1.95,-1.52 -1.95,-1.47 -1.66,-1.47 -1.66,-1.42 -1.37,-1.42 -1.37,-1.36 -1.08,-1.36 -1.08,-1.31 -0.79,-1.31 -0.79,-1.26 -0.51,-1.26 -0.51,-1.21 -0.22,-1.21 -0.22,-1.16 0.07,-1.16 0.07,-1.1 0.36,-1.1 0.36,-1.05 0.65,-1.05 0.65,-1 0.94,-1 0.94,-0.95 1.23,-0.95 1.23,-0.9 1.52,-0.9 1.52,-0.84 1.81,-0.84 1.81,-0.79 2.1,-0.79 2.1,-0.74 2.38,-0.74 2.38,-0.69 2.67,-0.69 2.67,-0.64 2.96,-0.64 2.96,-0.59 3.25,-0.59 3.25,-0.54 3.54,-0.54 3.54,-0.48 3.83,-0.48 3.83,-0.43 4.12,-0.43 4.12,-0.38 4.41,-0.38 4.41,-0.33 4.7,-0.33 4.7,-0.28 4.99,-0.28 4.99,-0.23 5.28,-0.23 5.28,-0.18 5.56,-0.18 5.56,-0.13 5.85,-0.13 5.85,-0.08 6.14,-0.08 6.14,-0.03 6.43,-0.03 6.43,0.02 6.72,0.02 6.72,0.07 7.01,0.07 7.01,0.12 7.3,0.12 7.3,0.17 7.59,0.17 7.59,0.22 7.88,0.22 7.88,0.27 8.17,0.27 8.17,0.32 8.45,0.32 8.45,0.37 8.74,0.37 8.74,0.42 9.03,0.42 9.03,0.47 9.32,0.47 9.32,0.52 9.61,0.52 9.61,0.57 9.9,0.57 9.9,0.62 10.19,0.62 10.19,0.67 10.48,0.67 10.48,0.72 10.77,0.72 10.77,0.77 11.06,0.77 11.06,0.81 11.34,0.81 11.34,0.86 11.63,0.86 11.63,0.91 11.92,0.91 11.92,0.96 12.21,0.96 12.21,1.01 12.5,1.01 12.5,1.06 12.79,1.06 12.79,1.1 13.08,1.1 13.08,1.15 13.37,1.15 13.37,1.2 13.66,1.2 13.66,1.25 13.95,1.25 13.95,1.3 14.24,1.3 14.24,1.34 14.52,1.34 14.52,1.39 14.81,1.39 14.81,1.44 15.1,1.44 15.1,1.49 15.39,1.49 15.39,1.53 15.68,1.53 15.68,1.58 15.97,1.58 15.97,1.63 16.26,1.63 16.26,1.67 16.55,1.67 16.55,1.72 16.84,1.72 16.84,1.77 17.13,1.77 17.13,1.81 17.41,1.81 17.41,1.86 17.7,1.86 17.7,1.9 17.99,1.9 17.99,1.95 18.28,1.95 18.28,2 18.57,2 18.57,2.04 18.86,2.04 18.86,2.09 19.15,2.09 19.15,2.13 19.44,2.13 19.44,2.18 19.73,2.18 19.73,2.23 20.02,2.23 20.02,2.27 20.31,2.27 20.31,2.32 20.59,2.32 20.59,2.36 20.88,2.36 20.88,2.41 21.17,2.41 21.17,2.45 21.46,2.45 21.46,2.49 21.75,2.49 21.75,2.54 22.04,2.54 22.04,2.58 22.33,2.58 22.33,2.63 22.62,2.63 22.62,2.67 22.91,2.67 22.91,2.72 23.2,2.72 23.2,2.76 23.48,2.76 23.48,2.8 23.77,2.8 23.77,2.85 24.06,2.85 24.06,2.89 24.35,2.89 24.35,2.94 24.64,2.94 24.64,2.98 24.93,2.98 24.93,3.02 25.22,3.02 25.22,3.07 25.51,3.07 25.51,3.11 25.8,3.11 25.8,3.15 26.09,3.15 26.09,3.19 26.38,3.19 26.38,3.24 26.66,3.24 26.66,3.28 26.95,3.28 26.95,3.32 27.24,3.32 27.24,3.36 27.53,3.36 27.53,3.41 27.82,3.41 27.82,3.45 28.11,3.45 28.11,3.49 28.4,3.49 28.4,3.53 28.69,3.53 28.69,3.57 28.98,3.57 28.98,3.62 29.27,3.62 29.27,3.66 29.55,3.66 29.55,3.7 29.84,3.7 29.84,3.74 30.13,3.74 30.13,3.78 30.42,3.78 30.42,3.82 30.71,3.82 30.71,3.86 31,3.86 31,3.9 31.29,3.9 31.29,3.95 31.58,3.95 31.58,3.99 31.87,3.99 31.87,4.03 32.16,4.03 32.16,4.07 32.45,4.07 32.45,4.11 32.73,4.11 32.73,4.15 33.02,4.15 33.02,4.19 33.31,4.19 33.31,4.23 33.6,4.23 33.6,4.27 33.89,4.27 33.89,4.31 34.18,4.31 34.18,4.35 34.47,4.35 34.47,4.39 34.76,4.39 34.76,4.43 35.05,4.43 35.05,4.46 35.34,4.46 35.34,4.5 35.62,4.5 35.62,4.54 35.91,4.54 35.91,4.58 36.2,4.58 36.2,4.62 36.49,4.62 36.49,4.66 36.78,4.66 36.78,4.7 37.07,4.7 37.07,4.74 37.36,4.74 37.36,4.78 37.65,4.78 37.65,4.81 37.94,4.81 37.94,4.85 38.23,4.85 38.23,4.89 38.51,4.89 38.51,4.93 38.8,4.93 38.8,4.97 39.09,4.97 39.09,5 39.38,5 39.38,5.04 39.67,5.04 39.67,5.08 39.96,5.08 39.96,5.12 40.25,5.12 40.25,5.15 40.54,5.15 40.54,5.19 40.83,5.19 40.83,5.23 41.12,5.23 41.12,5.26 41.41,5.26 41.41,5.3 41.69,5.3 41.69,5.34 41.98,5.34 41.98,5.37 42.27,5.37 42.27,5.41 42.56,5.41 42.56,5.45 42.85,5.45 42.85,5.48 43.14,5.48 43.14,5.52 43.43,5.52 43.43,5.56 43.72,5.56 43.72,5.59 44.01,5.59 44.01,5.63 44.3,5.63 44.3,5.66 44.58,5.66 44.58,5.7 44.87,5.7 44.87,5.74 45.16,5.74 45.16,5.77 45.45,5.77 45.45,5.81 45.74,5.81 45.74,5.84 46.03,5.84 46.03,5.88 46.32,5.88 46.32,5.91 46.61,5.91 46.61,5.95 46.9,5.95 46.9,5.98 47.19,5.98 47.19,6.02 47.48,6.02 47.48,6.05 47.76,6.05 47.76,6.09 48.05,6.09 48.05,6.12 48.34,6.12 48.34,6.15 48.63,6.15 48.63,6.19 48.92,6.19 48.92,6.22 49.21,6.22 49.21,6.26 49.5,6.26 49.5,6.29 49.79,6.29 49.79,6.33 50.08,6.33 50.08,6.36 50.37,6.36 50.37,6.39 50.65,6.39 50.65,6.43 50.94,6.43 50.94,6.46 51.23,6.46 51.23,6.49 51.52,6.49 51.52,6.53 51.81,6.53 51.81,6.56 52.1,6.56 52.1,6.59 52.39,6.59 52.39,6.63 52.68,6.63 52.68,6.66 52.97,6.66 52.97,6.69 53.26,6.69 53.26,6.72 53.55,6.72 53.55,6.76 53.83,6.76 53.83,6.79 54.12,6.79 54.12,6.82 54.41,6.82 54.41,6.85 54.7,6.85 54.7,6.89 54.99,6.89 54.99,6.92 55.28,6.92 55.28,6.95 55.57,6.95 55.57,6.98 55.86,6.98 55.86,7.01 56.15,7.01 56.15,7.05 56.44,7.05 56.44,7.08 56.72,7.08 56.72,7.11 57.01,7.11 57.01,7.14 57.3,7.14 57.3,7.17 57.59,7.17 57.59,7.2 57.88,7.2 57.88,7.23 58.17,7.23 58.17,7.27 58.46,7.27 58.46,7.3 58.75,7.3 58.75,7.33 59.04,7.33 59.04,7.36 59.33,7.36 59.33,7.39 59.62,7.39 59.62,7.42 59.9,7.42 59.9,7.45 60.19,7.45 60.19,7.48 60.48,7.48 60.48,7.51 60.77,7.51 60.77,7.54 61.06,7.54 61.06,7.57 61.35,7.57 61.35,7.6 61.64,7.6 61.64,7.63 61.93,7.63 61.93,7.66 62.22,7.66 62.22,7.69 62.51,7.69 62.51,7.72 62.79,7.72 62.79,7.75 63.08,7.75 63.08,7.78 63.37,7.78 63.37,7.81 63.66,7.81 63.66,7.84 63.95,7.84 63.95,7.87 64.24,7.87 64.24,7.9 64.53,7.9 64.53,7.93 64.82,7.93 64.82,7.96 65.11,7.96 65.11,7.99 65.4,7.99 65.4,8.01 65.68,8.01 65.68,8.04 65.97,8.04 65.97,8.07 66.26,8.07 66.26,8.1 66.55,8.1 66.55,8.13 66.84,8.13 66.84,8.16 67.13,8.16 67.13,8.19 67.42,8.19 67.42,8.21 67.71,8.21 67.71,8.24 68,8.24 68,8.27 68.29,8.27 68.29,8.3 68.58,8.3 68.58,8.33 68.86,8.33 68.86,8.36 69.15,8.36 69.15,8.38 69.44,8.38 69.44,8.41 69.73,8.41 69.73,8.44 70.02,8.44 70.02,8.47 70.31,8.47 70.31,8.49 70.6,8.49 70.6,8.52 70.89,8.52 70.89,8.55 71.18,8.55 71.18,8.58 71.47,8.58 71.47,8.6 71.75,8.6 71.75,8.63 72.04,8.63 72.04,8.66 72.33,8.66 72.33,8.68 72.62,8.68 72.62,8.71 72.91,8.71 72.91,8.74 73.2,8.74 73.2,8.76 73.49,8.76 73.49,8.79 73.78,8.79 73.78,8.82 74.07,8.82 74.07,8.84 74.36,8.84 74.36,8.87 74.65,8.87 74.65,8.9 74.93,8.9 74.93,8.92 75.22,8.92 75.22,8.95 75.51,8.95 75.51,8.98 75.8,8.98 75.8,9 76.09,9 76.09,9.03 76.38,9.03 76.38,9.05 76.67,9.05 76.67,9.08 76.96,9.08 76.96,9.11 77.25,9.11 77.25,9.13 77.54,9.13 77.54,9.16 77.82,9.16 77.82,9.18 78.11,9.18 78.11,9.21 78.4,9.21 78.4,9.23 78.69,9.23 78.69,9.26 78.98,9.26 78.98,9.28 79.27,9.28 79.27,9.31 79.56,9.31 79.56,9.33 79.85,9.33 79.85,9.36 80.14,9.36 80.14,9.39 80.43,9.39 80.43,9.41 80.72,9.41 80.72,9.43 81,9.43 81,9.46 81.29,9.46 81.29,9.48 81.58,9.48 81.58,9.51 81.87,9.51 81.87,9.53 82.16,9.53 82.16,9.56 82.45,9.56 82.45,9.58 82.74,9.58 82.74,9.61 83.03,9.61 83.03,9.63 83.32,9.63 83.32,9.66 83.61,9.66 83.61,9.68 83.89,9.68 83.89,9.7 84.18,9.7 84.18,9.73 84.47,9.73 84.47,9.75 84.76,9.75 84.76,9.78 85.05,9.78 85.05,9.8 85.34,9.8 85.34,9.82 85.63,9.82 85.63,9.85 85.92,9.85 85.92,9.87 86.21,9.87 86.21,9.89 86.5,9.89 86.5,9.92 86.79,9.92 86.79,9.94 87.07,9.94 87.07,9.96 87.36,9.96 87.36,9.99 87.65,9.99 87.65,10.01 87.94,10.01 87.94,10.03 88.23,10.03 88.23,10.06 88.52,10.06 88.52,10.08 88.81,10.08 88.81,10.1 89.1,10.1 89.1,10.13 89.39,10.13 89.39,10.15 89.68,10.15 89.68,10.17 89.96,10.17 89.96,10.2 90.25,10.2 90.25,10.22 90.54,10.22 90.54,10.24 90.83,10.24 90.83,10.26 91.12,10.26 91.12,10.29 91.41,10.29 91.41,10.31 91.7,10.31 91.7,10.33 91.99,10.33 91.99,10.35 92.28,10.35 92.28,10.38 92.57,10.38 92.57,10.4 92.85,10.4 92.85,10.42 93.14,10.42 93.14,10.44 93.43,10.44 93.43,10.46 93.72,10.46 93.72,10.49 94.01,10.49 94.01,10.51 94.3,10.51 94.3,10.53 94.59,10.53 94.59,10.55 94.88,10.55 94.88,10.57 95.17,10.57 95.17,10.59 95.46,10.59 95.46,10.62 95.75,10.62 95.75,10.64 96.03,10.64 96.03,10.66 96.32,10.66 96.32,10.68 96.61,10.68 96.61,10.7 96.9,10.7 96.9,10.72 97.19,10.72 97.19,10.75 97.48,10.75 97.48,10.77 97.77,10.77 97.77,10.79 98.06,10.79 98.06,10.81 98.35,10.81 98.35,10.83 98.64,10.83 98.64,10.85 98.92,10.85 98.92,10.87 99.21,10.87 99.21,10.89 99.5,10.89 99.5,10.91 99.79,10.91 99.79,10.93 100.08,10.93 100.08,10.96 100.37,10.96 100.37,10.98 100.66,10.98 100.66,11 100.95,11 100.95,11.02 101.24,11.02 101.24,11.04 101.53,11.04 101.53,11.06 101.82,11.06 101.82,11.08 102.1,11.08 102.1,11.1 102.39,11.1 102.39,11.12 102.68,11.12 102.68,11.14 102.97,11.14 102.97,11.16 103.26,11.16 103.26,11.18 103.55,11.18 103.55,11.2 103.84,11.2 103.84,11.22 104.13,11.22 104.13,11.24 104.42,11.24 104.42,11.26 104.71,11.26 104.71,11.28 104.99,11.28 104.99,11.3 105.28,11.3 105.28,11.32 105.57,11.32 105.57,11.34 105.86,11.34 105.86,11.36 106.15,11.36 106.15,11.38 106.44,11.38 106.44,11.4 106.73,11.4 106.73,11.42 107.02,11.42 107.02,11.44 107.31,11.44 107.31,11.46 107.6,11.46 107.6,11.48 107.89,11.48 107.89,11.5 108.17,11.5 108.17,11.52 108.46,11.52 108.46,11.53 108.75,11.53 108.75,11.55 109.04,11.55 109.04,11.57 109.33,11.57 109.33,11.59 109.62,11.59 109.62,11.61 109.91,11.61 109.91,11.63 110.2,11.63 110.2,11.65 110.49,11.65 110.49,11.67 110.78,11.67 110.78,11.69 111.06,11.69 111.06,11.71 111.35,11.71 111.35,11.73 111.64,11.73 111.64,11.74 111.93,11.74 111.93,11.76 112.22,11.76 112.22,11.78 112.51,11.78 112.51,11.8 112.8,11.8 112.8,11.82 113.09,11.82 113.09,11.84 113.38,11.84 113.38,11.86 113.67,11.86 113.67,11.87 113.96,11.87 113.96,11.89 114.24,11.89 114.24,11.91 114.53,11.91 114.53,11.93 114.82,11.93 114.82,11.95 115.11,11.95 115.11,11.97 115.4,11.97 115.4,11.98 " class="primitive"/>
            </g>
          </g>
        </g>
        <g stroke-width="0.3" fill="#000000" fill-opacity="0.000" class="geometry" id="img-38c6170a-23">
          <g class="color_RGB{N0f8}(0.063,0.306,0.545)" stroke-dasharray="none" stroke-opacity="1" stroke="#104E8B" id="img-38c6170a-24">
            <g transform="translate(135.62,-40.26)" id="img-38c6170a-25">
              <path fill="none" d="M-115.54,100.1 L-115.26,100.1 -115.26,100.1 -114.97,100.1 -114.97,100.09 -114.68,100.09 -114.68,100.1 -114.39,100.1 -114.39,100.1 -114.1,100.1 -114.1,100.12 -113.81,100.12 -113.81,100.12 -113.52,100.12 -113.52,100.11 -113.23,100.11 -113.23,100.12 -112.94,100.12 -112.94,100.12 -112.65,100.12 -112.65,100.12 -112.37,100.12 -112.37,100.12 -112.08,100.12 -112.08,100.1 -111.79,100.1 -111.79,100.07 -111.5,100.07 -111.5,100.06 -111.21,100.06 -111.21,100 -110.92,100 -110.92,99.9 -110.63,99.9 -110.63,99.67 -110.34,99.67 -110.34,99.34 -110.05,99.34 -110.05,98.74 -109.76,98.74 -109.76,97.58 -109.47,97.58 -109.47,95.18 -109.19,95.18 -109.19,90.89 -108.9,90.89 -108.9,84.1 -108.61,84.1 -108.61,73.86 -108.32,73.86 -108.32,62.96 -108.03,62.96 -108.03,52.88 -107.74,52.88 -107.74,49.87 -107.45,49.87 -107.45,54.01 -107.16,54.01 -107.16,62.3 -106.87,62.3 -106.87,72.72 -106.58,72.72 -106.58,80.65 -106.3,80.65 -106.3,85.64 -106.01,85.64 -106.01,87.58 -105.72,87.58 -105.72,87.73 -105.43,87.73 -105.43,87.03 -105.14,87.03 -105.14,86.17 -104.85,86.17 -104.85,84.64 -104.56,84.64 -104.56,82.68 -104.27,82.68 -104.27,80.98 -103.98,80.98 -103.98,77.96 -103.69,77.96 -103.69,73.38 -103.4,73.38 -103.4,65.16 -103.12,65.16 -103.12,50.37 -102.83,50.37 -102.83,21.02 -102.54,21.02 -102.54,-36.98 -102.25,-36.98 -102.25,-143.67 -101.96,-143.67 -101.96,-324.87 -101.67,-324.87 -101.67,-599.41 -101.38,-599.41 -101.38,-950.96 -101.09,-950.96 -101.09,-1309.11 -100.8,-1309.11 -100.8,-1568.77 -100.51,-1568.77 -100.51,-1627.86 -100.23,-1627.86 -100.23,-1455.15 -99.94,-1455.15 -99.94,-1123.78 -99.65,-1123.78 -99.65,-737.48 -99.36,-737.48 -99.36,-402.7 -99.07,-402.7 -99.07,-168.94 -98.78,-168.94 -98.78,-31.92 -98.49,-31.92 -98.49,36.34 -98.2,36.34 -98.2,66.71 -97.91,66.71 -97.91,78.53 -97.62,78.53 -97.62,83.16 -97.33,83.16 -97.33,84.66 -97.05,84.66 -97.05,84.21 -96.76,84.21 -96.76,83.61 -96.47,83.61 -96.47,82.62 -96.18,82.62 -96.18,82.33 -95.89,82.33 -95.89,81.13 -95.6,81.13 -95.6,80.95 -95.31,80.95 -95.31,80.66 -95.02,80.66 -95.02,80.48 -94.73,80.48 -94.73,80.42 -94.44,80.42 -94.44,80.61 -94.16,80.61 -94.16,80.84 -93.87,80.84 -93.87,80.64 -93.58,80.64 -93.58,80.42 -93.29,80.42 -93.29,79.73 -93,79.73 -93,78.95 -92.71,78.95 -92.71,78.45 -92.42,78.45 -92.42,77.49 -92.13,77.49 -92.13,76.96 -91.84,76.96 -91.84,76.33 -91.55,76.33 -91.55,75.82 -91.27,75.82 -91.27,74.7 -90.98,74.7 -90.98,74.42 -90.69,74.42 -90.69,73.65 -90.4,73.65 -90.4,73.5 -90.11,73.5 -90.11,72.41 -89.82,72.41 -89.82,72.17 -89.53,72.17 -89.53,72.29 -89.24,72.29 -89.24,71.22 -88.95,71.22 -88.95,70.39 -88.66,70.39 -88.66,69.76 -88.37,69.76 -88.37,68.78 -88.09,68.78 -88.09,68.88 -87.8,68.88 -87.8,67.87 -87.51,67.87 -87.51,67.47 -87.22,67.47 -87.22,66.36 -86.93,66.36 -86.93,65.43 -86.64,65.43 -86.64,64.39 -86.35,64.39 -86.35,63.46 -86.06,63.46 -86.06,62.51 -85.77,62.51 -85.77,61.06 -85.48,61.06 -85.48,61.41 -85.2,61.41 -85.2,60.47 -84.91,60.47 -84.91,60.58 -84.62,60.58 -84.62,60.42 -84.33,60.42 -84.33,60.85 -84.04,60.85 -84.04,60.11 -83.75,60.11 -83.75,60.13 -83.46,60.13 -83.46,59.24 -83.17,59.24 -83.17,59.13 -82.88,59.13 -82.88,58.5 -82.59,58.5 -82.59,58.22 -82.3,58.22 -82.3,57.37 -82.02,57.37 -82.02,57.22 -81.73,57.22 -81.73,56.48 -81.44,56.48 -81.44,55.93 -81.15,55.93 -81.15,55.25 -80.86,55.25 -80.86,55.22 -80.57,55.22 -80.57,54.6 -80.28,54.6 -80.28,54.44 -79.99,54.44 -79.99,52.9 -79.7,52.9 -79.7,53.01 -79.41,53.01 -79.41,52.51 -79.13,52.51 -79.13,51.72 -78.84,51.72 -78.84,51.93 -78.55,51.93 -78.55,50.69 -78.26,50.69 -78.26,50.76 -77.97,50.76 -77.97,49.96 -77.68,49.96 -77.68,49.41 -77.39,49.41 -77.39,49.11 -77.1,49.11 -77.1,48.7 -76.81,48.7 -76.81,47.56 -76.52,47.56 -76.52,47.72 -76.23,47.72 -76.23,46.78 -75.95,46.78 -75.95,46.23 -75.66,46.23 -75.66,45.72 -75.37,45.72 -75.37,44.13 -75.08,44.13 -75.08,43.49 -74.79,43.49 -74.79,42.27 -74.5,42.27 -74.5,41.07 -74.21,41.07 -74.21,39.57 -73.92,39.57 -73.92,37.47 -73.63,37.47 -73.63,35.94 -73.34,35.94 -73.34,33.39 -73.06,33.39 -73.06,31.27 -72.77,31.27 -72.77,29.95 -72.48,29.95 -72.48,27.91 -72.19,27.91 -72.19,26.8 -71.9,26.8 -71.9,26.83 -71.61,26.83 -71.61,26.57 -71.32,26.57 -71.32,26.52 -71.03,26.52 -71.03,26.79 -70.74,26.79 -70.74,26.05 -70.45,26.05 -70.45,26.02 -70.16,26.02 -70.16,25.5 -69.88,25.5 -69.88,25.8 -69.59,25.8 -69.59,24.89 -69.3,24.89 -69.3,22.64 -69.01,22.64 -69.01,19.58 -68.72,19.58 -68.72,9.41 -68.43,9.41 -68.43,-14.12 -68.14,-14.12 -68.14,-66.41 -67.85,-66.41 -67.85,-172.59 -67.56,-172.59 -67.56,-373.48 -67.27,-373.48 -67.27,-714.92 -66.99,-714.92 -66.99,-1245.11 -66.7,-1245.11 -66.7,-1976.11 -66.41,-1976.11 -66.41,-2893.59 -66.12,-2893.59 -66.12,-3877.47 -65.83,-3877.47 -65.83,-4773.67 -65.54,-4773.67 -65.54,-5404.7 -65.25,-5404.7 -65.25,-5615.93 -64.96,-5615.93 -64.96,-5378.97 -64.67,-5378.97 -64.67,-4748.94 -64.38,-4748.94 -64.38,-3873.5 -64.1,-3873.5 -64.1,-2923.67 -63.81,-2923.67 -63.81,-2061.64 -63.52,-2061.64 -63.52,-1377.99 -63.23,-1377.99 -63.23,-886.17 -62.94,-886.17 -62.94,-563.74 -62.65,-563.74 -62.65,-364.71 -62.36,-364.71 -62.36,-240.73 -62.07,-240.73 -62.07,-158.33 -61.78,-158.33 -61.78,-97.25 -61.49,-97.25 -61.49,-48.92 -61.2,-48.92 -61.2,-10.82 -60.92,-10.82 -60.92,17.86 -60.63,17.86 -60.63,39.24 -60.34,39.24 -60.34,53.7 -60.05,53.7 -60.05,62.78 -59.76,62.78 -59.76,68.36 -59.47,68.36 -59.47,72.19 -59.18,72.19 -59.18,73.68 -58.89,73.68 -58.89,74.32 -58.6,74.32 -58.6,74.67 -58.31,74.67 -58.31,74.61 -58.03,74.61 -58.03,74.86 -57.74,74.86 -57.74,74.62 -57.45,74.62 -57.45,75.01 -57.16,75.01 -57.16,74.73 -56.87,74.73 -56.87,75.3 -56.58,75.3 -56.58,74.7 -56.29,74.7 -56.29,75.09 -56,75.09 -56,74.89 -55.71,74.89 -55.71,75 -55.42,75 -55.42,74.88 -55.13,74.88 -55.13,74.96 -54.85,74.96 -54.85,75.14 -54.56,75.14 -54.56,74.45 -54.27,74.45 -54.27,74.56 -53.98,74.56 -53.98,74.13 -53.69,74.13 -53.69,74.07 -53.4,74.07 -53.4,74.18 -53.11,74.18 -53.11,73.33 -52.82,73.33 -52.82,72.9 -52.53,72.9 -52.53,72.21 -52.24,72.21 -52.24,71.11 -51.96,71.11 -51.96,69.39 -51.67,69.39 -51.67,67.51 -51.38,67.51 -51.38,65.33 -51.09,65.33 -51.09,64.11 -50.8,64.11 -50.8,61.82 -50.51,61.82 -50.51,60.48 -50.22,60.48 -50.22,60.22 -49.93,60.22 -49.93,60.35 -49.64,60.35 -49.64,62.31 -49.35,62.31 -49.35,63.99 -49.06,63.99 -49.06,65.74 -48.78,65.74 -48.78,67.51 -48.49,67.51 -48.49,69.3 -48.2,69.3 -48.2,70.68 -47.91,70.68 -47.91,71.48 -47.62,71.48 -47.62,72.36 -47.33,72.36 -47.33,72.85 -47.04,72.85 -47.04,73.08 -46.75,73.08 -46.75,73.04 -46.46,73.04 -46.46,72.98 -46.17,72.98 -46.17,73.44 -45.89,73.44 -45.89,72.99 -45.6,72.99 -45.6,73.49 -45.31,73.49 -45.31,73.31 -45.02,73.31 -45.02,73.24 -44.73,73.24 -44.73,73.36 -44.44,73.36 -44.44,73.45 -44.15,73.45 -44.15,73.4 -43.86,73.4 -43.86,73.28 -43.57,73.28 -43.57,73.8 -43.28,73.8 -43.28,73.69 -43,73.69 -43,73.29 -42.71,73.29 -42.71,73.5 -42.42,73.5 -42.42,73.25 -42.13,73.25 -42.13,73.42 -41.84,73.42 -41.84,73.08 -41.55,73.08 -41.55,73.49 -41.26,73.49 -41.26,73.48 -40.97,73.48 -40.97,73.09 -40.68,73.09 -40.68,73.36 -40.39,73.36 -40.39,73.65 -40.1,73.65 -40.1,73.28 -39.82,73.28 -39.82,73.5 -39.53,73.5 -39.53,73.63 -39.24,73.63 -39.24,73.96 -38.95,73.96 -38.95,73.39 -38.66,73.39 -38.66,73.62 -38.37,73.62 -38.37,73.43 -38.08,73.43 -38.08,73.17 -37.79,73.17 -37.79,73.16 -37.5,73.16 -37.5,73.64 -37.21,73.64 -37.21,73.48 -36.93,73.48 -36.93,73.57 -36.64,73.57 -36.64,73.82 -36.35,73.82 -36.35,73.7 -36.06,73.7 -36.06,73.48 -35.77,73.48 -35.77,74.09 -35.48,74.09 -35.48,74.05 -35.19,74.05 -35.19,73.65 -34.9,73.65 -34.9,74.1 -34.61,74.1 -34.61,73.62 -34.32,73.62 -34.32,73.81 -34.03,73.81 -34.03,73.56 -33.75,73.56 -33.75,73.63 -33.46,73.63 -33.46,74.01 -33.17,74.01 -33.17,73.82 -32.88,73.82 -32.88,73.78 -32.59,73.78 -32.59,73.96 -32.3,73.96 -32.3,73.83 -32.01,73.83 -32.01,73.91 -31.72,73.91 -31.72,74.02 -31.43,74.02 -31.43,74.35 -31.14,74.35 -31.14,73.96 -30.86,73.96 -30.86,73.84 -30.57,73.84 -30.57,73.9 -30.28,73.9 -30.28,74.23 -29.99,74.23 -29.99,74.05 -29.7,74.05 -29.7,74.11 -29.41,74.11 -29.41,74.08 -29.12,74.08 -29.12,74.13 -28.83,74.13 -28.83,74.43 -28.54,74.43 -28.54,74.18 -28.25,74.18 -28.25,74.76 -27.96,74.76 -27.96,74.56 -27.68,74.56 -27.68,74.39 -27.39,74.39 -27.39,74.95 -27.1,74.95 -27.1,74.88 -26.81,74.88 -26.81,74.83 -26.52,74.83 -26.52,74.61 -26.23,74.61 -26.23,74.83 -25.94,74.83 -25.94,75.13 -25.65,75.13 -25.65,75.31 -25.36,75.31 -25.36,74.37 -25.07,74.37 -25.07,74.72 -24.79,74.72 -24.79,75.09 -24.5,75.09 -24.5,75.2 -24.21,75.2 -24.21,74.96 -23.92,74.96 -23.92,75.25 -23.63,75.25 -23.63,75.01 -23.34,75.01 -23.34,75.08 -23.05,75.08 -23.05,74.92 -22.76,74.92 -22.76,75.38 -22.47,75.38 -22.47,75.11 -22.18,75.11 -22.18,75.33 -21.89,75.33 -21.89,75.58 -21.61,75.58 -21.61,75.31 -21.32,75.31 -21.32,75.27 -21.03,75.27 -21.03,75.55 -20.74,75.55 -20.74,75.74 -20.45,75.74 -20.45,75.7 -20.16,75.7 -20.16,75.95 -19.87,75.95 -19.87,75.82 -19.58,75.82 -19.58,76.03 -19.29,76.03 -19.29,75.98 -19,75.98 -19,75.61 -18.72,75.61 -18.72,76.13 -18.43,76.13 -18.43,75.66 -18.14,75.66 -18.14,75.61 -17.85,75.61 -17.85,75.11 -17.56,75.11 -17.56,74.62 -17.27,74.62 -17.27,74.31 -16.98,74.31 -16.98,73.49 -16.69,73.49 -16.69,71.38 -16.4,71.38 -16.4,70.23 -16.11,70.23 -16.11,68.43 -15.83,68.43 -15.83,66.75 -15.54,66.75 -15.54,64.79 -15.25,64.79 -15.25,63.67 -14.96,63.67 -14.96,63.51 -14.67,63.51 -14.67,63.3 -14.38,63.3 -14.38,64.48 -14.09,64.48 -14.09,65.83 -13.8,65.83 -13.8,66.95 -13.51,66.95 -13.51,69.25 -13.22,69.25 -13.22,70.25 -12.93,70.25 -12.93,71.66 -12.65,71.66 -12.65,73.2 -12.36,73.2 -12.36,74.22 -12.07,74.22 -12.07,74.89 -11.78,74.89 -11.78,75.72 -11.49,75.72 -11.49,76.16 -11.2,76.16 -11.2,76.36 -10.91,76.36 -10.91,76.63 -10.62,76.63 -10.62,77.34 -10.33,77.34 -10.33,77.81 -10.04,77.81 -10.04,77.77 -9.76,77.77 -9.76,77.92 -9.47,77.92 -9.47,77.99 -9.18,77.99 -9.18,77.54 -8.89,77.54 -8.89,78.26 -8.6,78.26 -8.6,78.15 -8.31,78.15 -8.31,77.84 -8.02,77.84 -8.02,78.36 -7.73,78.36 -7.73,78.66 -7.44,78.66 -7.44,78.51 -7.15,78.51 -7.15,78.88 -6.86,78.88 -6.86,78.37 -6.58,78.37 -6.58,78.7 -6.29,78.7 -6.29,78.99 -6,78.99 -6,78.84 -5.71,78.84 -5.71,78.84 -5.42,78.84 -5.42,78.86 -5.13,78.86 -5.13,79.08 -4.84,79.08 -4.84,79.29 -4.55,79.29 -4.55,79 -4.26,79 -4.26,79.1 -3.97,79.1 -3.97,79.53 -3.69,79.53 -3.69,79.41 -3.4,79.41 -3.4,79.33 -3.11,79.33 -3.11,79.18 -2.82,79.18 -2.82,79.28 -2.53,79.28 -2.53,79.27 -2.24,79.27 -2.24,79.73 -1.95,79.73 -1.95,79.67 -1.66,79.67 -1.66,79.92 -1.37,79.92 -1.37,79.23 -1.08,79.23 -1.08,79.87 -0.79,79.87 -0.79,79.87 -0.51,79.87 -0.51,79.75 -0.22,79.75 -0.22,79.89 0.07,79.89 0.07,79.92 0.36,79.92 0.36,79.95 0.65,79.95 0.65,80.18 0.94,80.18 0.94,80.11 1.23,80.11 1.23,80.2 1.52,80.2 1.52,80.29 1.81,80.29 1.81,80.13 2.1,80.13 2.1,80.27 2.38,80.27 2.38,80.66 2.67,80.66 2.67,80.6 2.96,80.6 2.96,80.64 3.25,80.64 3.25,80.57 3.54,80.57 3.54,80.52 3.83,80.52 3.83,80.74 4.12,80.74 4.12,80.9 4.41,80.9 4.41,80.84 4.7,80.84 4.7,80.73 4.99,80.73 4.99,80.78 5.28,80.78 5.28,80.63 5.56,80.63 5.56,81.1 5.85,81.1 5.85,81.01 6.14,81.01 6.14,81.01 6.43,81.01 6.43,81.41 6.72,81.41 6.72,81.57 7.01,81.57 7.01,81.03 7.3,81.03 7.3,81.53 7.59,81.53 7.59,81.68 7.88,81.68 7.88,81.47 8.17,81.47 8.17,81.34 8.45,81.34 8.45,81.39 8.74,81.39 8.74,81.93 9.03,81.93 9.03,81.65 9.32,81.65 9.32,82.1 9.61,82.1 9.61,81.58 9.9,81.58 9.9,82.11 10.19,82.11 10.19,81.66 10.48,81.66 10.48,81.85 10.77,81.85 10.77,81.47 11.06,81.47 11.06,82.05 11.34,82.05 11.34,82.37 11.63,82.37 11.63,81.97 11.92,81.97 11.92,82.28 12.21,82.28 12.21,82.33 12.5,82.33 12.5,82.22 12.79,82.22 12.79,82.22 13.08,82.22 13.08,82.19 13.37,82.19 13.37,82.32 13.66,82.32 13.66,82.56 13.95,82.56 13.95,82.35 14.24,82.35 14.24,82.44 14.52,82.44 14.52,82.32 14.81,82.32 14.81,82.83 15.1,82.83 15.1,83.05 15.39,83.05 15.39,82.82 15.68,82.82 15.68,83.07 15.97,83.07 15.97,82.83 16.26,82.83 16.26,83 16.55,83 16.55,82.84 16.84,82.84 16.84,83.25 17.13,83.25 17.13,83.21 17.41,83.21 17.41,83.12 17.7,83.12 17.7,83.1 17.99,83.1 17.99,82.86 18.28,82.86 18.28,83.18 18.57,83.18 18.57,82.9 18.86,82.9 18.86,83.44 19.15,83.44 19.15,83.57 19.44,83.57 19.44,83.51 19.73,83.51 19.73,83.16 20.02,83.16 20.02,83.45 20.31,83.45 20.31,83.58 20.59,83.58 20.59,83.63 20.88,83.63 20.88,83.81 21.17,83.81 21.17,83.69 21.46,83.69 21.46,83.77 21.75,83.77 21.75,84.08 22.04,84.08 22.04,83.74 22.33,83.74 22.33,83.77 22.62,83.77 22.62,84.08 22.91,84.08 22.91,84.23 23.2,84.23 23.2,83.7 23.48,83.7 23.48,83.97 23.77,83.97 23.77,84.17 24.06,84.17 24.06,84.3 24.35,84.3 24.35,84.45 24.64,84.45 24.64,84.13 24.93,84.13 24.93,84.26 25.22,84.26 25.22,84.19 25.51,84.19 25.51,84.3 25.8,84.3 25.8,84.67 26.09,84.67 26.09,84.31 26.38,84.31 26.38,84.54 26.66,84.54 26.66,84.39 26.95,84.39 26.95,84.45 27.24,84.45 27.24,84.71 27.53,84.71 27.53,84.75 27.82,84.75 27.82,84.76 28.11,84.76 28.11,85 28.4,85 28.4,84.78 28.69,84.78 28.69,84.74 28.98,84.74 28.98,84.96 29.27,84.96 29.27,84.94 29.55,84.94 29.55,84.99 29.84,84.99 29.84,85.42 30.13,85.42 30.13,85.18 30.42,85.18 30.42,85.39 30.71,85.39 30.71,85.39 31,85.39 31,85.24 31.29,85.24 31.29,85.3 31.58,85.3 31.58,85.19 31.87,85.19 31.87,85.22 32.16,85.22 32.16,85.17 32.45,85.17 32.45,85.31 32.73,85.31 32.73,85.14 33.02,85.14 33.02,85.25 33.31,85.25 33.31,85.4 33.6,85.4 33.6,85.85 33.89,85.85 33.89,85.47 34.18,85.47 34.18,85.75 34.47,85.75 34.47,85.58 34.76,85.58 34.76,85.53 35.05,85.53 35.05,85.66 35.34,85.66 35.34,85.69 35.62,85.69 35.62,85.9 35.91,85.9 35.91,85.83 36.2,85.83 36.2,85.74 36.49,85.74 36.49,86 36.78,86 36.78,86.15 37.07,86.15 37.07,85.98 37.36,85.98 37.36,86.02 37.65,86.02 37.65,86.25 37.94,86.25 37.94,86.19 38.23,86.19 38.23,86.07 38.51,86.07 38.51,86.29 38.8,86.29 38.8,85.93 39.09,85.93 39.09,86.17 39.38,86.17 39.38,86.23 39.67,86.23 39.67,85.91 39.96,85.91 39.96,86.31 40.25,86.31 40.25,86.41 40.54,86.41 40.54,86.23 40.83,86.23 40.83,86.35 41.12,86.35 41.12,86.1 41.41,86.1 41.41,86.63 41.69,86.63 41.69,85.95 41.98,85.95 41.98,86.08 42.27,86.08 42.27,86.46 42.56,86.46 42.56,86.59 42.85,86.59 42.85,86.58 43.14,86.58 43.14,86.65 43.43,86.65 43.43,86.8 43.72,86.8 43.72,86.93 44.01,86.93 44.01,86.76 44.3,86.76 44.3,86.94 44.58,86.94 44.58,86.83 44.87,86.83 44.87,87.19 45.16,87.19 45.16,86.84 45.45,86.84 45.45,87.08 45.74,87.08 45.74,87.22 46.03,87.22 46.03,86.86 46.32,86.86 46.32,87.13 46.61,87.13 46.61,87.22 46.9,87.22 46.9,87.25 47.19,87.25 47.19,87 47.48,87 47.48,87.24 47.76,87.24 47.76,87.46 48.05,87.46 48.05,87.55 48.34,87.55 48.34,87.49 48.63,87.49 48.63,87.48 48.92,87.48 48.92,87.53 49.21,87.53 49.21,87.51 49.5,87.51 49.5,87.49 49.79,87.49 49.79,87.87 50.08,87.87 50.08,87.5 50.37,87.5 50.37,87.68 50.65,87.68 50.65,87.77 50.94,87.77 50.94,87.78 51.23,87.78 51.23,87.54 51.52,87.54 51.52,87.87 51.81,87.87 51.81,87.9 52.1,87.9 52.1,87.83 52.39,87.83 52.39,87.59 52.68,87.59 52.68,88.04 52.97,88.04 52.97,87.91 53.26,87.91 53.26,87.98 53.55,87.98 53.55,88.11 53.83,88.11 53.83,87.94 54.12,87.94 54.12,87.97 54.41,87.97 54.41,88.46 54.7,88.46 54.7,88.3 54.99,88.3 54.99,88.33 55.28,88.33 55.28,87.91 55.57,87.91 55.57,88.27 55.86,88.27 55.86,88.25 56.15,88.25 56.15,88.59 56.44,88.59 56.44,87.82 56.72,87.82 56.72,88.27 57.01,88.27 57.01,88.26 57.3,88.26 57.3,88.61 57.59,88.61 57.59,88.52 57.88,88.52 57.88,88.5 58.17,88.5 58.17,88.5 58.46,88.5 58.46,88.64 58.75,88.64 58.75,88.57 59.04,88.57 59.04,88.46 59.33,88.46 59.33,88.4 59.62,88.4 59.62,88.52 59.9,88.52 59.9,88.83 60.19,88.83 60.19,88.78 60.48,88.78 60.48,88.77 60.77,88.77 60.77,88.67 61.06,88.67 61.06,88.99 61.35,88.99 61.35,88.93 61.64,88.93 61.64,88.86 61.93,88.86 61.93,88.86 62.22,88.86 62.22,89.19 62.51,89.19 62.51,88.96 62.79,88.96 62.79,88.9 63.08,88.9 63.08,89.14 63.37,89.14 63.37,89.15 63.66,89.15 63.66,89.25 63.95,89.25 63.95,88.78 64.24,88.78 64.24,89.24 64.53,89.24 64.53,89.35 64.82,89.35 64.82,89.21 65.11,89.21 65.11,89.36 65.4,89.36 65.4,89.45 65.68,89.45 65.68,89.21 65.97,89.21 65.97,89.36 66.26,89.36 66.26,89.39 66.55,89.39 66.55,89.31 66.84,89.31 66.84,88.89 67.13,88.89 67.13,89.14 67.42,89.14 67.42,89.1 67.71,89.1 67.71,89.16 68,89.16 68,88.76 68.29,88.76 68.29,88.69 68.58,88.69 68.58,88.66 68.86,88.66 68.86,88.68 69.15,88.68 69.15,88.74 69.44,88.74 69.44,88.83 69.73,88.83 69.73,88.85 70.02,88.85 70.02,88.6 70.31,88.6 70.31,88.97 70.6,88.97 70.6,89.22 70.89,89.22 70.89,89.04 71.18,89.04 71.18,89.07 71.47,89.07 71.47,89.52 71.75,89.52 71.75,89.55 72.04,89.55 72.04,89.67 72.33,89.67 72.33,89.69 72.62,89.69 72.62,89.87 72.91,89.87 72.91,89.68 73.2,89.68 73.2,89.98 73.49,89.98 73.49,90.09 73.78,90.09 73.78,90.06 74.07,90.06 74.07,89.85 74.36,89.85 74.36,90.28 74.65,90.28 74.65,90.08 74.93,90.08 74.93,90.33 75.22,90.33 75.22,90.02 75.51,90.02 75.51,90.21 75.8,90.21 75.8,90.45 76.09,90.45 76.09,90.6 76.38,90.6 76.38,90.27 76.67,90.27 76.67,89.95 76.96,89.95 76.96,90.49 77.25,90.49 77.25,90.46 77.54,90.46 77.54,90.26 77.82,90.26 77.82,90.19 78.11,90.19 78.11,90.52 78.4,90.52 78.4,90.36 78.69,90.36 78.69,90.44 78.98,90.44 78.98,90.78 79.27,90.78 79.27,90.67 79.56,90.67 79.56,90.28 79.85,90.28 79.85,90.56 80.14,90.56 80.14,90.42 80.43,90.42 80.43,90.71 80.72,90.71 80.72,90.67 81,90.67 81,90.71 81.29,90.71 81.29,90.78 81.58,90.78 81.58,90.72 81.87,90.72 81.87,90.63 82.16,90.63 82.16,90.76 82.45,90.76 82.45,90.75 82.74,90.75 82.74,90.74 83.03,90.74 83.03,90.84 83.32,90.84 83.32,90.83 83.61,90.83 83.61,90.89 83.89,90.89 83.89,91.03 84.18,91.03 84.18,90.76 84.47,90.76 84.47,91.03 84.76,91.03 84.76,91.08 85.05,91.08 85.05,91.07 85.34,91.07 85.34,90.91 85.63,90.91 85.63,91.1 85.92,91.1 85.92,91.1 86.21,91.1 86.21,91.02 86.5,91.02 86.5,91.11 86.79,91.11 86.79,91.08 87.07,91.08 87.07,90.98 87.36,90.98 87.36,91.16 87.65,91.16 87.65,91.16 87.94,91.16 87.94,91.07 88.23,91.07 88.23,91.19 88.52,91.19 88.52,91.21 88.81,91.21 88.81,91.24 89.1,91.24 89.1,91.23 89.39,91.23 89.39,91.23 89.68,91.23 89.68,91.45 89.96,91.45 89.96,91.59 90.25,91.59 90.25,91.55 90.54,91.55 90.54,91.42 90.83,91.42 90.83,91.45 91.12,91.45 91.12,91.3 91.41,91.3 91.41,91.55 91.7,91.55 91.7,91.58 91.99,91.58 91.99,91.47 92.28,91.47 92.28,91.79 92.57,91.79 92.57,91.71 92.85,91.71 92.85,91.7 93.14,91.7 93.14,91.66 93.43,91.66 93.43,91.79 93.72,91.79 93.72,91.85 94.01,91.85 94.01,91.77 94.3,91.77 94.3,91.99 94.59,91.99 94.59,91.68 94.88,91.68 94.88,91.73 95.17,91.73 95.17,91.75 95.46,91.75 95.46,91.82 95.75,91.82 95.75,92 96.03,92 96.03,91.78 96.32,91.78 96.32,92.02 96.61,92.02 96.61,91.97 96.9,91.97 96.9,92.15 97.19,92.15 97.19,92.03 97.48,92.03 97.48,92.11 97.77,92.11 97.77,91.71 98.06,91.71 98.06,92.16 98.35,92.16 98.35,91.9 98.64,91.9 98.64,91.67 98.92,91.67 98.92,91.91 99.21,91.91 99.21,91.87 99.5,91.87 99.5,91.73 99.79,91.73 99.79,91.98 100.08,91.98 100.08,91.84 100.37,91.84 100.37,92.02 100.66,92.02 100.66,91.95 100.95,91.95 100.95,91.9 101.24,91.9 101.24,92.11 101.53,92.11 101.53,92.08 101.82,92.08 101.82,92.21 102.1,92.21 102.1,91.92 102.39,91.92 102.39,92.06 102.68,92.06 102.68,92.14 102.97,92.14 102.97,92.11 103.26,92.11 103.26,92.46 103.55,92.46 103.55,92.59 103.84,92.59 103.84,92.18 104.13,92.18 104.13,92.34 104.42,92.34 104.42,92.49 104.71,92.49 104.71,92.46 104.99,92.46 104.99,92.44 105.28,92.44 105.28,92.34 105.57,92.34 105.57,92.58 105.86,92.58 105.86,92.46 106.15,92.46 106.15,92.61 106.44,92.61 106.44,92.51 106.73,92.51 106.73,92.49 107.02,92.49 107.02,92.66 107.31,92.66 107.31,92.62 107.6,92.62 107.6,92.74 107.89,92.74 107.89,92.72 108.17,92.72 108.17,92.77 108.46,92.77 108.46,92.59 108.75,92.59 108.75,92.86 109.04,92.86 109.04,92.66 109.33,92.66 109.33,92.65 109.62,92.65 109.62,92.77 109.91,92.77 109.91,92.74 110.2,92.74 110.2,92.87 110.49,92.87 110.49,92.95 110.78,92.95 110.78,92.96 111.06,92.96 111.06,92.83 111.35,92.83 111.35,93.01 111.64,93.01 111.64,92.99 111.93,92.99 111.93,92.95 112.22,92.95 112.22,92.96 112.51,92.96 112.51,92.92 112.8,92.92 112.8,93.06 113.09,93.06 113.09,93.01 113.38,93.01 113.38,92.98 113.67,92.98 113.67,93.2 113.96,93.2 113.96,93.12 114.24,93.12 114.24,93.07 114.53,93.07 114.53,92.97 114.82,92.97 114.82,93.12 115.11,93.12 115.11,93.07 115.4,93.07 115.4,93.2 " class="primitive"/>
            </g>
          </g>
        </g>
      </g>
      <g class="guide colorkey" id="img-38c6170a-26">
        <g fill="#4C404B" font-size="2.82" font-family="'PT Sans','Helvetica Neue','Helvetica',sans-serif" id="img-38c6170a-27">
          <g transform="translate(210.87,31.7)" id="img-38c6170a-28">
            <g class="primitive">
              <text dy="0.35em">SiO2 std</text>
            </g>
          </g>
          <g transform="translate(210.87,35.33)" id="img-38c6170a-29">
            <g class="primitive">
              <text dy="0.35em">Brem[Global][SiO2 std]</text>
            </g>
          </g>
        </g>
        <g stroke-width="0.3" id="img-38c6170a-30">
          <g stroke="#FFFFFF" fill-opacity="1" fill="#B70002" id="img-38c6170a-31">
            <g transform="translate(208.05,35.33)" id="img-38c6170a-32">
              <circle cx="0" cy="0" r="0.9" class="primitive"/>
            </g>
          </g>
          <g stroke="#FFFFFF" fill-opacity="1" fill="#104E8B" id="img-38c6170a-33">
            <g transform="translate(208.05,31.7)" id="img-38c6170a-34">
              <circle cx="0" cy="0" r="0.9" class="primitive"/>
            </g>
          </g>
        </g>
        <g fill="#362A35" font-size="3.18" font-family="'PT Sans','Helvetica Neue','Helvetica',sans-serif" stroke="#000000" stroke-opacity="0.000" id="img-38c6170a-35">
          <g transform="translate(207.24,28.39)" id="img-38c6170a-36">
            <g class="primitive">
              <text dy="-0em">Spectra</text>
            </g>
          </g>
        </g>
      </g>
    </g>
  </g>
  <g class="guide ylabels" font-size="2.82" font-family="'PT Sans Caption','Helvetica Neue','Helvetica',sans-serif" fill="#6C606B" id="img-38c6170a-37">
    <g transform="translate(17.03,59.87)" id="img-38c6170a-38">
      <g class="primitive">
        <text text-anchor="end" dy="0.35em">0</text>
      </g>
    </g>
    <g transform="translate(17.03,42.2)" id="img-38c6170a-39">
      <g class="primitive">
        <text text-anchor="end" dy="0.35em">10000</text>
      </g>
    </g>
    <g transform="translate(17.03,24.53)" id="img-38c6170a-40">
      <g class="primitive">
        <text text-anchor="end" dy="0.35em">20000</text>
      </g>
    </g>
    <g transform="translate(17.03,6.86)" id="img-38c6170a-41">
      <g class="primitive">
        <text text-anchor="end" dy="0.35em">30000</text>
      </g>
    </g>
  </g>
  <g font-size="3.18" font-family="'PT Sans','Helvetica Neue','Helvetica',sans-serif" fill="#202020" stroke="#000000" stroke-opacity="0.000" id="img-38c6170a-42">
    <g transform="translate(4.18,29.29)" id="img-38c6170a-43">
      <g class="primitive">
        <text text-anchor="middle" dy="0.35em" transform="rotate(-90,0, 2)">Counts</text>
      </g>
    </g>
  </g>
</g>
<defs>
  <clipPath id="img-38c6170a-4">
    <path d="M18.03,0.71 L253.29,0.71 253.29,61.87 18.03,61.87 " />
  </clipPath>
</defs>
</svg>
