<?xml version="1.0" encoding="UTF-8"?>
<svg xmlns="http://www.w3.org/2000/svg"
     xmlns:xlink="http://www.w3.org/1999/xlink"
     xmlns:gadfly="http://www.gadflyjl.org/ns"
     version="1.2"
     width="254mm" height="76.2mm" viewBox="0 0 254 76.2"
     stroke="none"
     fill="#000000"
     stroke-width="0.3"
     font-size="3.88"
>
<defs>
  <marker id="arrow" markerWidth="15" markerHeight="7" refX="5" refY="3.5" orient="auto" markerUnits="strokeWidth">
    <path d="M0,0 L15,3.5 L0,7 z" stroke="context-stroke" fill="context-stroke"/>
  </marker>
</defs>
<g class="plotroot xscalable yscalable" id="img-e72faf7e-1">
  <g font-size="3.18" font-family="'PT Sans','Helvetica Neue','Helvetica',sans-serif" fill="#202020" stroke="#000000" stroke-opacity="0.000" id="img-e72faf7e-2">
    <g transform="translate(135.66,69.54)">
      <g class="primitive">
        <text text-anchor="middle" dy="0.6em">Energy (eV)</text>
      </g>
    </g>
  </g>
  <g class="guide xlabels" font-size="2.82" font-family="'PT Sans Caption','Helvetica Neue','Helvetica',sans-serif" fill="#6C606B" id="img-e72faf7e-3">
    <g transform="translate(20.03,62.87)">
      <g class="primitive">
        <text text-anchor="middle" dy="0.6em">0</text>
      </g>
    </g>
    <g transform="translate(77.84,62.87)">
      <g class="primitive">
        <text text-anchor="middle" dy="0.6em">2000</text>
      </g>
    </g>
    <g transform="translate(135.66,62.87)">
      <g class="primitive">
        <text text-anchor="middle" dy="0.6em">4000</text>
      </g>
    </g>
    <g transform="translate(193.48,62.87)">
      <g class="primitive">
        <text text-anchor="middle" dy="0.6em">6000</text>
      </g>
    </g>
    <g transform="translate(251.29,62.87)">
      <g class="primitive">
        <text text-anchor="middle" dy="0.6em">8000</text>
      </g>
    </g>
  </g>
  <g clip-path="url(#img-e72faf7e-4)">
    <g id="img-e72faf7e-5">
      <g pointer-events="visible" stroke-width="0.3" fill="#FDFDF1" stroke="#202020" class="guide background" id="img-e72faf7e-6">
        <g transform="translate(135.66,31.29)" id="img-e72faf7e-7">
          <path d="M-117.63,-30.58 L117.63,-30.58 117.63,30.58 -117.63,30.58  z" class="primitive"/>
        </g>
      </g>
      <g class="guide ygridlines xfixed" stroke-dasharray="none" stroke-width="0.2" stroke="#FFDFDF" id="img-e72faf7e-8">
        <g transform="translate(135.66,59.87)" id="img-e72faf7e-9">
          <path fill="none" d="M-117.63,0 L117.63,0 " class="primitive"/>
        </g>
        <g transform="translate(135.66,30.01)" id="img-e72faf7e-10">
          <path fill="none" d="M-117.63,0 L117.63,0 " class="primitive"/>
        </g>
      </g>
      <g class="guide xgridlines yfixed" stroke-dasharray="none" stroke-width="0.2" stroke="#FFDFDF" id="img-e72faf7e-11">
        <g transform="translate(20.03,31.29)" id="img-e72faf7e-12">
          <path fill="none" d="M0,-30.58 L0,30.58 " class="primitive"/>
        </g>
        <g transform="translate(77.84,31.29)" id="img-e72faf7e-13">
          <path fill="none" d="M0,-30.58 L0,30.58 " class="primitive"/>
        </g>
        <g transform="translate(135.66,31.29)" id="img-e72faf7e-14">
          <path fill="none" d="M0,-30.58 L0,30.58 " class="primitive"/>
        </g>
        <g transform="translate(193.48,31.29)" id="img-e72faf7e-15">
          <path fill="none" d="M0,-30.58 L0,30.58 " class="primitive"/>
        </g>
        <g transform="translate(251.29,31.29)" id="img-e72faf7e-16">
          <path fill="none" d="M0,-30.58 L0,30.58 " class="primitive"/>
        </g>
      </g>
      <g class="plotpanel" id="img-e72faf7e-17">
        <metadata>
          <boundingbox value="18.027222222222242mm 0.7055555555555555mm 235.26722222222224mm 61.16055555555556mm"/>
          <unitbox value="-69.18403674441063 99068.12770072602 8138.368073488822 -102417.25540145206"/>
        </metadata>
        <g stroke-width="0.3" fill="#000000" fill-opacity="0.000" class="geometry" id="img-e72faf7e-18">
          <g class="color_RGB{N0f8}(0.718,0.0,0.008)" stroke-dasharray="none" stroke-opacity="1" stroke="#B70002" id="img-e72faf7e-19">
            <g transform="translate(135.62,51.33)" id="img-e72faf7e-20">
              <path fill="none" d="M-115.54,8.53 L-115.26,8.53 -115.26,8.53 -114.97,8.53 -114.97,8.53 -114.68,8.53 -114.68,8.53 -114.39,8.53 -114.39,8.53 -114.1,8.53 -114.1,8.53 -113.81,8.53 -113.81,8.53 -113.52,8.53 -113.52,8.53 -113.23,8.53 -113.23,8.53 -112.94,8.53 -112.94,8.53 -112.65,8.53 -112.65,8.53 -112.37,8.53 -112.37,8.53 -112.08,8.53 -112.08,8.53 -111.79,8.53 -111.79,8.51 -111.5,8.51 -111.5,8.46 -111.21,8.46 -111.21,8.32 -110.92,8.32 -110.92,8 -110.63,8 -110.63,7.33 -110.34,7.33 -110.34,6.14 -110.05,6.14 -110.05,4.31 -109.76,4.31 -109.76,1.85 -109.47,1.85 -109.47,-1.04 -109.19,-1.04 -109.19,-4.03 -108.9,-4.03 -108.9,-6.71 -108.61,-6.71 -108.61,-8.71 -108.32,-8.71 -108.32,-9.75 -108.03,-9.75 -108.03,-9.7 -107.74,-9.7 -107.74,-8.64 -107.45,-8.64 -107.45,-6.84 -107.16,-6.84 -107.16,-4.72 -106.87,-4.72 -106.87,-2.66 -106.58,-2.66 -106.58,-0.87 -106.3,-0.87 -106.3,0.63 -106.01,0.63 -106.01,1.97 -105.72,1.97 -105.72,3.3 -105.43,3.3 -105.43,4.62 -105.14,4.62 -105.14,5.85 -104.85,5.85 -104.85,6.87 -104.56,6.87 -104.56,7.61 -104.27,7.61 -104.27,8.08 -103.98,8.08 -103.98,8.34 -103.69,8.34 -103.69,8.46 -103.4,8.46 -103.4,8.5 -103.12,8.5 -103.12,8.5 -102.83,8.5 -102.83,8.45 -102.54,8.45 -102.54,8.34 -102.25,8.34 -102.25,8.12 -101.96,8.12 -101.96,7.72 -101.67,7.72 -101.67,7.12 -101.38,7.12 -101.38,6.29 -101.09,6.29 -101.09,5.3 -100.8,5.3 -100.8,4.24 -100.51,4.24 -100.51,3.22 -100.23,3.22 -100.23,2.34 -99.94,2.34 -99.94,1.61 -99.65,1.61 -99.65,1.02 -99.36,1.02 -99.36,0.53 -99.07,0.53 -99.07,0.1 -98.78,0.1 -98.78,-0.28 -98.49,-0.28 -98.49,-0.62 -98.2,-0.62 -98.2,-0.89 -97.91,-0.89 -97.91,-1.05 -97.62,-1.05 -97.62,-1.09 -97.33,-1.09 -97.33,-0.96 -97.05,-0.96 -97.05,-0.69 -96.76,-0.69 -96.76,-0.3 -96.47,-0.3 -96.47,0.14 -96.18,0.14 -96.18,0.56 -95.89,0.56 -95.89,0.9 -95.6,0.9 -95.6,1.13 -95.31,1.13 -95.31,1.25 -95.02,1.25 -95.02,1.28 -94.73,1.28 -94.73,1.23 -94.44,1.23 -94.44,1.13 -94.16,1.13 -94.16,1 -93.87,1 -93.87,0.84 -93.58,0.84 -93.58,0.68 -93.29,0.68 -93.29,0.51 -93,0.51 -93,0.34 -92.71,0.34 -92.71,0.17 -92.42,0.17 -92.42,0.02 -92.13,0.02 -92.13,-0.11 -91.84,-0.11 -91.84,-0.2 -91.55,-0.2 -91.55,-0.23 -91.27,-0.23 -91.27,-0.19 -90.98,-0.19 -90.98,-0.05 -90.69,-0.05 -90.69,0.17 -90.4,0.17 -90.4,0.43 -90.11,0.43 -90.11,0.69 -89.82,0.69 -89.82,0.91 -89.53,0.91 -89.53,1.05 -89.24,1.05 -89.24,1.09 -88.95,1.09 -88.95,1.05 -88.66,1.05 -88.66,0.95 -88.37,0.95 -88.37,0.81 -88.09,0.81 -88.09,0.66 -87.8,0.66 -87.8,0.49 -87.51,0.49 -87.51,0.32 -87.22,0.32 -87.22,0.15 -86.93,0.15 -86.93,-0.02 -86.64,-0.02 -86.64,-0.19 -86.35,-0.19 -86.35,-0.37 -86.06,-0.37 -86.06,-0.54 -85.77,-0.54 -85.77,-0.71 -85.48,-0.71 -85.48,-0.89 -85.2,-0.89 -85.2,-1.06 -84.91,-1.06 -84.91,-1.23 -84.62,-1.23 -84.62,-1.4 -84.33,-1.4 -84.33,-1.57 -84.04,-1.57 -84.04,-1.73 -83.75,-1.73 -83.75,-1.9 -83.46,-1.9 -83.46,-2.07 -83.17,-2.07 -83.17,-2.23 -82.88,-2.23 -82.88,-2.39 -82.59,-2.39 -82.59,-2.56 -82.3,-2.56 -82.3,-2.72 -82.02,-2.72 -82.02,-2.88 -81.73,-2.88 -81.73,-3.04 -81.44,-3.04 -81.44,-3.19 -81.15,-3.19 -81.15,-3.35 -80.86,-3.35 -80.86,-3.5 -80.57,-3.5 -80.57,-3.65 -80.28,-3.65 -80.28,-3.8 -79.99,-3.8 -79.99,-3.95 -79.7,-3.95 -79.7,-4.09 -79.41,-4.09 -79.41,-4.23 -79.13,-4.23 -79.13,-4.37 -78.84,-4.37 -78.84,-4.51 -78.55,-4.51 -78.55,-4.64 -78.26,-4.64 -78.26,-4.77 -77.97,-4.77 -77.97,-4.9 -77.68,-4.9 -77.68,-5.03 -77.39,-5.03 -77.39,-5.15 -77.1,-5.15 -77.1,-5.28 -76.81,-5.28 -76.81,-5.4 -76.52,-5.4 -76.52,-5.51 -76.23,-5.51 -76.23,-5.63 -75.95,-5.63 -75.95,-5.74 -75.66,-5.74 -75.66,-5.85 -75.37,-5.85 -75.37,-5.95 -75.08,-5.95 -75.08,-6.06 -74.79,-6.06 -74.79,-6.16 -74.5,-6.16 -74.5,-6.26 -74.21,-6.26 -74.21,-6.36 -73.92,-6.36 -73.92,-6.45 -73.63,-6.45 -73.63,-6.54 -73.34,-6.54 -73.34,-6.63 -73.06,-6.63 -73.06,-6.71 -72.77,-6.71 -72.77,-6.79 -72.48,-6.79 -72.48,-6.85 -72.19,-6.85 -72.19,-6.91 -71.9,-6.91 -71.9,-6.95 -71.61,-6.95 -71.61,-6.98 -71.32,-6.98 -71.32,-6.99 -71.03,-6.99 -71.03,-7 -70.74,-7 -70.74,-6.99 -70.45,-6.99 -70.45,-6.99 -70.16,-6.99 -70.16,-7 -69.88,-7 -69.88,-7.02 -69.59,-7.02 -69.59,-7.04 -69.3,-7.04 -69.3,-7.08 -69.01,-7.08 -69.01,-7.13 -68.72,-7.13 -68.72,-7.18 -68.43,-7.18 -68.43,-7.23 -68.14,-7.23 -68.14,-7.29 -67.85,-7.29 -67.85,-7.34 -67.56,-7.34 -67.56,-7.39 -67.27,-7.39 -67.27,-7.43 -66.99,-7.43 -66.99,-7.48 -66.7,-7.48 -66.7,-7.52 -66.41,-7.52 -66.41,-7.56 -66.12,-7.56 -66.12,-7.6 -65.83,-7.6 -65.83,-7.64 -65.54,-7.64 -65.54,-7.67 -65.25,-7.67 -65.25,-7.7 -64.96,-7.7 -64.96,-7.73 -64.67,-7.73 -64.67,-7.76 -64.38,-7.76 -64.38,-7.78 -64.1,-7.78 -64.1,-7.8 -63.81,-7.8 -63.81,-7.81 -63.52,-7.81 -63.52,-7.81 -63.23,-7.81 -63.23,-7.81 -62.94,-7.81 -62.94,-7.79 -62.65,-7.79 -62.65,-7.78 -62.36,-7.78 -62.36,-7.75 -62.07,-7.75 -62.07,-7.73 -61.78,-7.73 -61.78,-7.71 -61.49,-7.71 -61.49,-7.69 -61.2,-7.69 -61.2,-7.68 -60.92,-7.68 -60.92,-7.67 -60.63,-7.67 -60.63,-7.66 -60.34,-7.66 -60.34,-7.66 -60.05,-7.66 -60.05,-7.67 -59.76,-7.67 -59.76,-7.67 -59.47,-7.67 -59.47,-7.67 -59.18,-7.67 -59.18,-7.68 -58.89,-7.68 -58.89,-7.68 -58.6,-7.68 -58.6,-7.68 -58.31,-7.68 -58.31,-7.68 -58.03,-7.68 -58.03,-7.69 -57.74,-7.69 -57.74,-7.68 -57.45,-7.68 -57.45,-7.68 -57.16,-7.68 -57.16,-7.68 -56.87,-7.68 -56.87,-7.67 -56.58,-7.67 -56.58,-7.67 -56.29,-7.67 -56.29,-7.66 -56,-7.66 -56,-7.66 -55.71,-7.66 -55.71,-7.65 -55.42,-7.65 -55.42,-7.64 -55.13,-7.64 -55.13,-7.63 -54.85,-7.63 -54.85,-7.62 -54.56,-7.62 -54.56,-7.6 -54.27,-7.6 -54.27,-7.59 -53.98,-7.59 -53.98,-7.58 -53.69,-7.58 -53.69,-7.56 -53.4,-7.56 -53.4,-7.55 -53.11,-7.55 -53.11,-7.53 -52.82,-7.53 -52.82,-7.51 -52.53,-7.51 -52.53,-7.49 -52.24,-7.49 -52.24,-7.47 -51.96,-7.47 -51.96,-7.46 -51.67,-7.46 -51.67,-7.44 -51.38,-7.44 -51.38,-7.41 -51.09,-7.41 -51.09,-7.39 -50.8,-7.39 -50.8,-7.37 -50.51,-7.37 -50.51,-7.35 -50.22,-7.35 -50.22,-7.32 -49.93,-7.32 -49.93,-7.3 -49.64,-7.3 -49.64,-7.28 -49.35,-7.28 -49.35,-7.25 -49.06,-7.25 -49.06,-7.22 -48.78,-7.22 -48.78,-7.2 -48.49,-7.2 -48.49,-7.17 -48.2,-7.17 -48.2,-7.14 -47.91,-7.14 -47.91,-7.12 -47.62,-7.12 -47.62,-7.09 -47.33,-7.09 -47.33,-7.06 -47.04,-7.06 -47.04,-7.03 -46.75,-7.03 -46.75,-7 -46.46,-7 -46.46,-6.97 -46.17,-6.97 -46.17,-6.94 -45.89,-6.94 -45.89,-6.91 -45.6,-6.91 -45.6,-6.88 -45.31,-6.88 -45.31,-6.85 -45.02,-6.85 -45.02,-6.82 -44.73,-6.82 -44.73,-6.78 -44.44,-6.78 -44.44,-6.75 -44.15,-6.75 -44.15,-6.72 -43.86,-6.72 -43.86,-6.68 -43.57,-6.68 -43.57,-6.65 -43.28,-6.65 -43.28,-6.62 -43,-6.62 -43,-6.58 -42.71,-6.58 -42.71,-6.55 -42.42,-6.55 -42.42,-6.51 -42.13,-6.51 -42.13,-6.48 -41.84,-6.48 -41.84,-6.45 -41.55,-6.45 -41.55,-6.41 -41.26,-6.41 -41.26,-6.37 -40.97,-6.37 -40.97,-6.34 -40.68,-6.34 -40.68,-6.3 -40.39,-6.3 -40.39,-6.27 -40.1,-6.27 -40.1,-6.23 -39.82,-6.23 -39.82,-6.2 -39.53,-6.2 -39.53,-6.16 -39.24,-6.16 -39.24,-6.12 -38.95,-6.12 -38.95,-6.09 -38.66,-6.09 -38.66,-6.05 -38.37,-6.05 -38.37,-6.01 -38.08,-6.01 -38.08,-5.97 -37.79,-5.97 -37.79,-5.94 -37.5,-5.94 -37.5,-5.9 -37.21,-5.9 -37.21,-5.86 -36.93,-5.86 -36.93,-5.83 -36.64,-5.83 -36.64,-5.79 -36.35,-5.79 -36.35,-5.75 -36.06,-5.75 -36.06,-5.71 -35.77,-5.71 -35.77,-5.68 -35.48,-5.68 -35.48,-5.64 -35.19,-5.64 -35.19,-5.6 -34.9,-5.6 -34.9,-5.56 -34.61,-5.56 -34.61,-5.52 -34.32,-5.52 -34.32,-5.49 -34.03,-5.49 -34.03,-5.45 -33.75,-5.45 -33.75,-5.41 -33.46,-5.41 -33.46,-5.37 -33.17,-5.37 -33.17,-5.33 -32.88,-5.33 -32.88,-5.3 -32.59,-5.3 -32.59,-5.26 -32.3,-5.26 -32.3,-5.22 -32.01,-5.22 -32.01,-5.18 -31.72,-5.18 -31.72,-5.15 -31.43,-5.15 -31.43,-5.11 -31.14,-5.11 -31.14,-5.07 -30.86,-5.07 -30.86,-5.03 -30.57,-5.03 -30.57,-4.99 -30.28,-4.99 -30.28,-4.96 -29.99,-4.96 -29.99,-4.92 -29.7,-4.92 -29.7,-4.88 -29.41,-4.88 -29.41,-4.84 -29.12,-4.84 -29.12,-4.81 -28.83,-4.81 -28.83,-4.77 -28.54,-4.77 -28.54,-4.73 -28.25,-4.73 -28.25,-4.69 -27.96,-4.69 -27.96,-4.66 -27.68,-4.66 -27.68,-4.62 -27.39,-4.62 -27.39,-4.58 -27.1,-4.58 -27.1,-4.54 -26.81,-4.54 -26.81,-4.51 -26.52,-4.51 -26.52,-4.47 -26.23,-4.47 -26.23,-4.43 -25.94,-4.43 -25.94,-4.4 -25.65,-4.4 -25.65,-4.36 -25.36,-4.36 -25.36,-4.32 -25.07,-4.32 -25.07,-4.28 -24.79,-4.28 -24.79,-4.25 -24.5,-4.25 -24.5,-4.21 -24.21,-4.21 -24.21,-4.17 -23.92,-4.17 -23.92,-4.14 -23.63,-4.14 -23.63,-4.1 -23.34,-4.1 -23.34,-4.06 -23.05,-4.06 -23.05,-4.03 -22.76,-4.03 -22.76,-3.99 -22.47,-3.99 -22.47,-3.95 -22.18,-3.95 -22.18,-3.92 -21.89,-3.92 -21.89,-3.88 -21.61,-3.88 -21.61,-3.85 -21.32,-3.85 -21.32,-3.81 -21.03,-3.81 -21.03,-3.77 -20.74,-3.77 -20.74,-3.74 -20.45,-3.74 -20.45,-3.7 -20.16,-3.7 -20.16,-3.67 -19.87,-3.67 -19.87,-3.63 -19.58,-3.63 -19.58,-3.59 -19.29,-3.59 -19.29,-3.56 -19,-3.56 -19,-3.52 -18.72,-3.52 -18.72,-3.49 -18.43,-3.49 -18.43,-3.45 -18.14,-3.45 -18.14,-3.42 -17.85,-3.42 -17.85,-3.38 -17.56,-3.38 -17.56,-3.34 -17.27,-3.34 -17.27,-3.31 -16.98,-3.31 -16.98,-3.27 -16.69,-3.27 -16.69,-3.24 -16.4,-3.24 -16.4,-3.2 -16.11,-3.2 -16.11,-3.17 -15.83,-3.17 -15.83,-3.13 -15.54,-3.13 -15.54,-3.1 -15.25,-3.1 -15.25,-3.06 -14.96,-3.06 -14.96,-3.03 -14.67,-3.03 -14.67,-2.99 -14.38,-2.99 -14.38,-2.96 -14.09,-2.96 -14.09,-2.93 -13.8,-2.93 -13.8,-2.89 -13.51,-2.89 -13.51,-2.86 -13.22,-2.86 -13.22,-2.82 -12.93,-2.82 -12.93,-2.79 -12.65,-2.79 -12.65,-2.75 -12.36,-2.75 -12.36,-2.72 -12.07,-2.72 -12.07,-2.69 -11.78,-2.69 -11.78,-2.65 -11.49,-2.65 -11.49,-2.62 -11.2,-2.62 -11.2,-2.59 -10.91,-2.59 -10.91,-2.55 -10.62,-2.55 -10.62,-2.52 -10.33,-2.52 -10.33,-2.49 -10.04,-2.49 -10.04,-2.45 -9.76,-2.45 -9.76,-2.42 -9.47,-2.42 -9.47,-2.39 -9.18,-2.39 -9.18,-2.35 -8.89,-2.35 -8.89,-2.32 -8.6,-2.32 -8.6,-2.29 -8.31,-2.29 -8.31,-2.26 -8.02,-2.26 -8.02,-2.22 -7.73,-2.22 -7.73,-2.19 -7.44,-2.19 -7.44,-2.16 -7.15,-2.16 -7.15,-2.13 -6.86,-2.13 -6.86,-2.09 -6.58,-2.09 -6.58,-2.06 -6.29,-2.06 -6.29,-2.03 -6,-2.03 -6,-2 -5.71,-2 -5.71,-1.97 -5.42,-1.97 -5.42,-1.93 -5.13,-1.93 -5.13,-1.9 -4.84,-1.9 -4.84,-1.87 -4.55,-1.87 -4.55,-1.84 -4.26,-1.84 -4.26,-1.81 -3.97,-1.81 -3.97,-1.78 -3.69,-1.78 -3.69,-1.75 -3.4,-1.75 -3.4,-1.71 -3.11,-1.71 -3.11,-1.68 -2.82,-1.68 -2.82,-1.65 -2.53,-1.65 -2.53,-1.62 -2.24,-1.62 -2.24,-1.58 -1.95,-1.58 -1.95,-1.55 -1.66,-1.55 -1.66,-1.5 -1.37,-1.5 -1.37,-1.46 -1.08,-1.46 -1.08,-1.4 -0.79,-1.4 -0.79,-1.33 -0.51,-1.33 -0.51,-1.25 -0.22,-1.25 -0.22,-1.15 0.07,-1.15 0.07,-1.03 0.36,-1.03 0.36,-0.9 0.65,-0.9 0.65,-0.75 0.94,-0.75 0.94,-0.58 1.23,-0.58 1.23,-0.41 1.52,-0.41 1.52,-0.23 1.81,-0.23 1.81,-0.06 2.1,-0.06 2.1,0.11 2.38,0.11 2.38,0.26 2.67,0.26 2.67,0.39 2.96,0.39 2.96,0.5 3.25,0.5 3.25,0.59 3.54,0.59 3.54,0.66 3.83,0.66 3.83,0.72 4.12,0.72 4.12,0.76 4.41,0.76 4.41,0.8 4.7,0.8 4.7,0.82 4.99,0.82 4.99,0.85 5.28,0.85 5.28,0.86 5.56,0.86 5.56,0.88 5.85,0.88 5.85,0.89 6.14,0.89 6.14,0.91 6.43,0.91 6.43,0.92 6.72,0.92 6.72,0.94 7.01,0.94 7.01,0.95 7.3,0.95 7.3,0.96 7.59,0.96 7.59,0.98 7.88,0.98 7.88,0.99 8.17,0.99 8.17,1 8.45,1 8.45,1.02 8.74,1.02 8.74,1.03 9.03,1.03 9.03,1.04 9.32,1.04 9.32,1.06 9.61,1.06 9.61,1.07 9.9,1.07 9.9,1.09 10.19,1.09 10.19,1.1 10.48,1.1 10.48,1.11 10.77,1.11 10.77,1.13 11.06,1.13 11.06,1.14 11.34,1.14 11.34,1.16 11.63,1.16 11.63,1.17 11.92,1.17 11.92,1.18 12.21,1.18 12.21,1.2 12.5,1.2 12.5,1.21 12.79,1.21 12.79,1.23 13.08,1.23 13.08,1.24 13.37,1.24 13.37,1.26 13.66,1.26 13.66,1.27 13.95,1.27 13.95,1.28 14.24,1.28 14.24,1.3 14.52,1.3 14.52,1.31 14.81,1.31 14.81,1.33 15.1,1.33 15.1,1.34 15.39,1.34 15.39,1.36 15.68,1.36 15.68,1.37 15.97,1.37 15.97,1.39 16.26,1.39 16.26,1.4 16.55,1.4 16.55,1.41 16.84,1.41 16.84,1.43 17.13,1.43 17.13,1.44 17.41,1.44 17.41,1.46 17.7,1.46 17.7,1.47 17.99,1.47 17.99,1.49 18.28,1.49 18.28,1.5 18.57,1.5 18.57,1.52 18.86,1.52 18.86,1.53 19.15,1.53 19.15,1.54 19.44,1.54 19.44,1.56 19.73,1.56 19.73,1.57 20.02,1.57 20.02,1.59 20.31,1.59 20.31,1.6 20.59,1.6 20.59,1.62 20.88,1.62 20.88,1.63 21.17,1.63 21.17,1.65 21.46,1.65 21.46,1.66 21.75,1.66 21.75,1.68 22.04,1.68 22.04,1.69 22.33,1.69 22.33,1.71 22.62,1.71 22.62,1.72 22.91,1.72 22.91,1.73 23.2,1.73 23.2,1.75 23.48,1.75 23.48,1.76 23.77,1.76 23.77,1.78 24.06,1.78 24.06,1.79 24.35,1.79 24.35,1.81 24.64,1.81 24.64,1.82 24.93,1.82 24.93,1.84 25.22,1.84 25.22,1.85 25.51,1.85 25.51,1.87 25.8,1.87 25.8,1.88 26.09,1.88 26.09,1.89 26.38,1.89 26.38,1.91 26.66,1.91 26.66,1.92 26.95,1.92 26.95,1.94 27.24,1.94 27.24,1.95 27.53,1.95 27.53,1.97 27.82,1.97 27.82,1.98 28.11,1.98 28.11,2 28.4,2 28.4,2.01 28.69,2.01 28.69,2.02 28.98,2.02 28.98,2.04 29.27,2.04 29.27,2.05 29.55,2.05 29.55,2.07 29.84,2.07 29.84,2.08 30.13,2.08 30.13,2.1 30.42,2.1 30.42,2.11 30.71,2.11 30.71,2.12 31,2.12 31,2.14 31.29,2.14 31.29,2.15 31.58,2.15 31.58,2.17 31.87,2.17 31.87,2.18 32.16,2.18 32.16,2.2 32.45,2.2 32.45,2.21 32.73,2.21 32.73,2.22 33.02,2.22 33.02,2.24 33.31,2.24 33.31,2.25 33.6,2.25 33.6,2.27 33.89,2.27 33.89,2.28 34.18,2.28 34.18,2.29 34.47,2.29 34.47,2.31 34.76,2.31 34.76,2.32 35.05,2.32 35.05,2.34 35.34,2.34 35.34,2.35 35.62,2.35 35.62,2.36 35.91,2.36 35.91,2.38 36.2,2.38 36.2,2.39 36.49,2.39 36.49,2.41 36.78,2.41 36.78,2.42 37.07,2.42 37.07,2.43 37.36,2.43 37.36,2.45 37.65,2.45 37.65,2.46 37.94,2.46 37.94,2.47 38.23,2.47 38.23,2.49 38.51,2.49 38.51,2.5 38.8,2.5 38.8,2.52 39.09,2.52 39.09,2.53 39.38,2.53 39.38,2.54 39.67,2.54 39.67,2.56 39.96,2.56 39.96,2.57 40.25,2.57 40.25,2.58 40.54,2.58 40.54,2.6 40.83,2.6 40.83,2.61 41.12,2.61 41.12,2.62 41.41,2.62 41.41,2.64 41.69,2.64 41.69,2.65 41.98,2.65 41.98,2.66 42.27,2.66 42.27,2.68 42.56,2.68 42.56,2.69 42.85,2.69 42.85,2.7 43.14,2.7 43.14,2.72 43.43,2.72 43.43,2.73 43.72,2.73 43.72,2.74 44.01,2.74 44.01,2.76 44.3,2.76 44.3,2.77 44.58,2.77 44.58,2.78 44.87,2.78 44.87,2.8 45.16,2.8 45.16,2.81 45.45,2.81 45.45,2.82 45.74,2.82 45.74,2.84 46.03,2.84 46.03,2.85 46.32,2.85 46.32,2.86 46.61,2.86 46.61,2.88 46.9,2.88 46.9,2.89 47.19,2.89 47.19,2.9 47.48,2.9 47.48,2.91 47.76,2.91 47.76,2.93 48.05,2.93 48.05,2.94 48.34,2.94 48.34,2.95 48.63,2.95 48.63,2.97 48.92,2.97 48.92,2.98 49.21,2.98 49.21,2.99 49.5,2.99 49.5,3 49.79,3 49.79,3.02 50.08,3.02 50.08,3.03 50.37,3.03 50.37,3.04 50.65,3.04 50.65,3.06 50.94,3.06 50.94,3.07 51.23,3.07 51.23,3.08 51.52,3.08 51.52,3.09 51.81,3.09 51.81,3.11 52.1,3.11 52.1,3.12 52.39,3.12 52.39,3.13 52.68,3.13 52.68,3.14 52.97,3.14 52.97,3.16 53.26,3.16 53.26,3.17 53.55,3.17 53.55,3.18 53.83,3.18 53.83,3.19 54.12,3.19 54.12,3.21 54.41,3.21 54.41,3.22 54.7,3.22 54.7,3.23 54.99,3.23 54.99,3.24 55.28,3.24 55.28,3.26 55.57,3.26 55.57,3.27 55.86,3.27 55.86,3.28 56.15,3.28 56.15,3.29 56.44,3.29 56.44,3.3 56.72,3.3 56.72,3.32 57.01,3.32 57.01,3.33 57.3,3.33 57.3,3.34 57.59,3.34 57.59,3.35 57.88,3.35 57.88,3.37 58.17,3.37 58.17,3.38 58.46,3.38 58.46,3.39 58.75,3.39 58.75,3.4 59.04,3.4 59.04,3.41 59.33,3.41 59.33,3.43 59.62,3.43 59.62,3.44 59.9,3.44 59.9,3.45 60.19,3.45 60.19,3.46 60.48,3.46 60.48,3.47 60.77,3.47 60.77,3.48 61.06,3.48 61.06,3.5 61.35,3.5 61.35,3.51 61.64,3.51 61.64,3.52 61.93,3.52 61.93,3.53 62.22,3.53 62.22,3.54 62.51,3.54 62.51,3.56 62.79,3.56 62.79,3.57 63.08,3.57 63.08,3.58 63.37,3.58 63.37,3.59 63.66,3.59 63.66,3.6 63.95,3.6 63.95,3.61 64.24,3.61 64.24,3.63 64.53,3.63 64.53,3.64 64.82,3.64 64.82,3.65 65.11,3.65 65.11,3.66 65.4,3.66 65.4,3.67 65.68,3.67 65.68,3.68 65.97,3.68 65.97,3.69 66.26,3.69 66.26,3.71 66.55,3.71 66.55,3.72 66.84,3.72 66.84,3.73 67.13,3.73 67.13,3.74 67.42,3.74 67.42,3.75 67.71,3.75 67.71,3.76 68,3.76 68,3.77 68.29,3.77 68.29,3.78 68.58,3.78 68.58,3.8 68.86,3.8 68.86,3.81 69.15,3.81 69.15,3.82 69.44,3.82 69.44,3.83 69.73,3.83 69.73,3.84 70.02,3.84 70.02,3.85 70.31,3.85 70.31,3.86 70.6,3.86 70.6,3.87 70.89,3.87 70.89,3.88 71.18,3.88 71.18,3.9 71.47,3.9 71.47,3.91 71.75,3.91 71.75,3.92 72.04,3.92 72.04,3.93 72.33,3.93 72.33,3.94 72.62,3.94 72.62,3.95 72.91,3.95 72.91,3.96 73.2,3.96 73.2,3.97 73.49,3.97 73.49,3.98 73.78,3.98 73.78,3.99 74.07,3.99 74.07,4 74.36,4 74.36,4.01 74.65,4.01 74.65,4.02 74.93,4.02 74.93,4.04 75.22,4.04 75.22,4.05 75.51,4.05 75.51,4.06 75.8,4.06 75.8,4.07 76.09,4.07 76.09,4.08 76.38,4.08 76.38,4.09 76.67,4.09 76.67,4.1 76.96,4.1 76.96,4.11 77.25,4.11 77.25,4.12 77.54,4.12 77.54,4.13 77.82,4.13 77.82,4.14 78.11,4.14 78.11,4.15 78.4,4.15 78.4,4.16 78.69,4.16 78.69,4.17 78.98,4.17 78.98,4.18 79.27,4.18 79.27,4.19 79.56,4.19 79.56,4.2 79.85,4.2 79.85,4.21 80.14,4.21 80.14,4.22 80.43,4.22 80.43,4.23 80.72,4.23 80.72,4.24 81,4.24 81,4.25 81.29,4.25 81.29,4.26 81.58,4.26 81.58,4.27 81.87,4.27 81.87,4.28 82.16,4.28 82.16,4.29 82.45,4.29 82.45,4.3 82.74,4.3 82.74,4.31 83.03,4.31 83.03,4.32 83.32,4.32 83.32,4.33 83.61,4.33 83.61,4.34 83.89,4.34 83.89,4.35 84.18,4.35 84.18,4.36 84.47,4.36 84.47,4.37 84.76,4.37 84.76,4.38 85.05,4.38 85.05,4.39 85.34,4.39 85.34,4.4 85.63,4.4 85.63,4.41 85.92,4.41 85.92,4.42 86.21,4.42 86.21,4.43 86.5,4.43 86.5,4.44 86.79,4.44 86.79,4.45 87.07,4.45 87.07,4.46 87.36,4.46 87.36,4.47 87.65,4.47 87.65,4.48 87.94,4.48 87.94,4.49 88.23,4.49 88.23,4.5 88.52,4.5 88.52,4.51 88.81,4.51 88.81,4.52 89.1,4.52 89.1,4.53 89.39,4.53 89.39,4.54 89.68,4.54 89.68,4.55 89.96,4.55 89.96,4.56 90.25,4.56 90.25,4.57 90.54,4.57 90.54,4.58 90.83,4.58 90.83,4.59 91.12,4.59 91.12,4.6 91.41,4.6 91.41,4.61 91.7,4.61 91.7,4.62 91.99,4.62 91.99,4.62 92.28,4.62 92.28,4.63 92.57,4.63 92.57,4.64 92.85,4.64 92.85,4.65 93.14,4.65 93.14,4.66 93.43,4.66 93.43,4.67 93.72,4.67 93.72,4.68 94.01,4.68 94.01,4.69 94.3,4.69 94.3,4.7 94.59,4.7 94.59,4.71 94.88,4.71 94.88,4.72 95.17,4.72 95.17,4.73 95.46,4.73 95.46,4.74 95.75,4.74 95.75,4.74 96.03,4.74 96.03,4.75 96.32,4.75 96.32,4.76 96.61,4.76 96.61,4.77 96.9,4.77 96.9,4.78 97.19,4.78 97.19,4.79 97.48,4.79 97.48,4.8 97.77,4.8 97.77,4.81 98.06,4.81 98.06,4.82 98.35,4.82 98.35,4.83 98.64,4.83 98.64,4.83 98.92,4.83 98.92,4.84 99.21,4.84 99.21,4.85 99.5,4.85 99.5,4.86 99.79,4.86 99.79,4.87 100.08,4.87 100.08,4.88 100.37,4.88 100.37,4.89 100.66,4.89 100.66,4.9 100.95,4.9 100.95,4.9 101.24,4.9 101.24,4.91 101.53,4.91 101.53,4.92 101.82,4.92 101.82,4.93 102.1,4.93 102.1,4.94 102.39,4.94 102.39,4.95 102.68,4.95 102.68,4.96 102.97,4.96 102.97,4.97 103.26,4.97 103.26,4.97 103.55,4.97 103.55,4.98 103.84,4.98 103.84,4.99 104.13,4.99 104.13,5 104.42,5 104.42,5.01 104.71,5.01 104.71,5.02 104.99,5.02 104.99,5.03 105.28,5.03 105.28,5.03 105.57,5.03 105.57,5.04 105.86,5.04 105.86,5.05 106.15,5.05 106.15,5.06 106.44,5.06 106.44,5.07 106.73,5.07 106.73,5.08 107.02,5.08 107.02,5.08 107.31,5.08 107.31,5.09 107.6,5.09 107.6,5.1 107.89,5.1 107.89,5.11 108.17,5.11 108.17,5.12 108.46,5.12 108.46,5.13 108.75,5.13 108.75,5.13 109.04,5.13 109.04,5.14 109.33,5.14 109.33,5.15 109.62,5.15 109.62,5.16 109.91,5.16 109.91,5.17 110.2,5.17 110.2,5.18 110.49,5.18 110.49,5.18 110.78,5.18 110.78,5.19 111.06,5.19 111.06,5.2 111.35,5.2 111.35,5.21 111.64,5.21 111.64,5.22 111.93,5.22 111.93,5.22 112.22,5.22 112.22,5.23 112.51,5.23 112.51,5.24 112.8,5.24 112.8,5.25 113.09,5.25 113.09,5.26 113.38,5.26 113.38,5.26 113.67,5.26 113.67,5.27 113.96,5.27 113.96,5.28 114.24,5.28 114.24,5.29 114.53,5.29 114.53,5.3 114.82,5.3 114.82,5.3 115.11,5.3 115.11,5.31 115.4,5.31 115.4,5.32 " class="primitive"/>
            </g>
          </g>
        </g>
        <g stroke-width="0.3" fill="#000000" fill-opacity="0.000" class="geometry" id="img-e72faf7e-21">
          <g class="color_RGB{N0f8}(0.063,0.306,0.545)" stroke-dasharray="none" stroke-opacity="1" stroke="#104E8B" id="img-e72faf7e-22">
            <g transform="translate(135.62,28.44)" id="img-e72faf7e-23">
              <path fill="none" d="M-115.54,31.41 L-115.26,31.41 -115.26,31.41 -114.97,31.41 -114.97,31.42 -114.68,31.42 -114.68,31.42 -114.39,31.42 -114.39,31.42 -114.1,31.42 -114.1,31.42 -113.81,31.42 -113.81,31.42 -113.52,31.42 -113.52,31.43 -113.23,31.43 -113.23,31.43 -112.94,31.43 -112.94,31.43 -112.65,31.43 -112.65,31.43 -112.37,31.43 -112.37,31.42 -112.08,31.42 -112.08,31.42 -111.79,31.42 -111.79,31.42 -111.5,31.42 -111.5,31.4 -111.21,31.4 -111.21,31.37 -110.92,31.37 -110.92,31.31 -110.63,31.31 -110.63,31.2 -110.34,31.2 -110.34,30.98 -110.05,30.98 -110.05,30.6 -109.76,30.6 -109.76,29.92 -109.47,29.92 -109.47,28.46 -109.19,28.46 -109.19,25.66 -108.9,25.66 -108.9,21.3 -108.61,21.3 -108.61,14.75 -108.32,14.75 -108.32,7.53 -108.03,7.53 -108.03,1.12 -107.74,1.12 -107.74,-1.84 -107.45,-1.84 -107.45,-0.82 -107.16,-0.82 -107.16,3.99 -106.87,3.99 -106.87,9.56 -106.58,9.56 -106.58,14.43 -106.3,14.43 -106.3,17.52 -106.01,17.52 -106.01,19.46 -105.72,19.46 -105.72,20.89 -105.43,20.89 -105.43,21.61 -105.14,21.61 -105.14,22.56 -104.85,22.56 -104.85,23.2 -104.56,23.2 -104.56,23.67 -104.27,23.67 -104.27,24.26 -103.98,24.26 -103.98,25.04 -103.69,25.04 -103.69,25.77 -103.4,25.77 -103.4,26.38 -103.12,26.38 -103.12,26.71 -102.83,26.71 -102.83,26.84 -102.54,26.84 -102.54,26.83 -102.25,26.83 -102.25,26.51 -101.96,26.51 -101.96,26.01 -101.67,26.01 -101.67,25.2 -101.38,25.2 -101.38,24.12 -101.09,24.12 -101.09,23.11 -100.8,23.11 -100.8,22.34 -100.51,22.34 -100.51,22.08 -100.23,22.08 -100.23,22.11 -99.94,22.11 -99.94,22.48 -99.65,22.48 -99.65,22.7 -99.36,22.7 -99.36,22.25 -99.07,22.25 -99.07,21.21 -98.78,21.21 -98.78,18.56 -98.49,18.56 -98.49,13.62 -98.2,13.62 -98.2,3.55 -97.91,3.55 -97.91,-15.34 -97.62,-15.34 -97.62,-48.3 -97.33,-48.3 -97.33,-100.24 -97.05,-100.24 -97.05,-170.89 -96.76,-170.89 -96.76,-249.51 -96.47,-249.51 -96.47,-318.32 -96.18,-318.32 -96.18,-353.91 -95.89,-353.91 -95.89,-343.77 -95.6,-343.77 -95.6,-289.87 -95.31,-289.87 -95.31,-210.93 -95.02,-210.93 -95.02,-131.13 -94.73,-131.13 -94.73,-66.99 -94.44,-66.99 -94.44,-22.76 -94.16,-22.76 -94.16,2.26 -93.87,2.26 -93.87,15.18 -93.58,15.18 -93.58,21 -93.29,21 -93.29,23.53 -93,23.53 -93,24.33 -92.71,24.33 -92.71,24.61 -92.42,24.61 -92.42,24.74 -92.13,24.74 -92.13,24.56 -91.84,24.56 -91.84,24.56 -91.55,24.56 -91.55,24.23 -91.27,24.23 -91.27,24.05 -90.98,24.05 -90.98,23.82 -90.69,23.82 -90.69,23.6 -90.4,23.6 -90.4,23.46 -90.11,23.46 -90.11,23.51 -89.82,23.51 -89.82,23.37 -89.53,23.37 -89.53,23.09 -89.24,23.09 -89.24,23.08 -88.95,23.08 -88.95,22.94 -88.66,22.94 -88.66,22.69 -88.37,22.69 -88.37,22.88 -88.09,22.88 -88.09,22.52 -87.8,22.52 -87.8,22.41 -87.51,22.41 -87.51,22.34 -87.22,22.34 -87.22,22.15 -86.93,22.15 -86.93,21.87 -86.64,21.87 -86.64,21.89 -86.35,21.89 -86.35,21.71 -86.06,21.71 -86.06,21.38 -85.77,21.38 -85.77,21.25 -85.48,21.25 -85.48,21.06 -85.2,21.06 -85.2,20.96 -84.91,20.96 -84.91,20.66 -84.62,20.66 -84.62,20.48 -84.33,20.48 -84.33,20.45 -84.04,20.45 -84.04,20.28 -83.75,20.28 -83.75,20.02 -83.46,20.02 -83.46,19.81 -83.17,19.81 -83.17,19.6 -82.88,19.6 -82.88,19.36 -82.59,19.36 -82.59,19.09 -82.3,19.09 -82.3,18.9 -82.02,18.9 -82.02,18.81 -81.73,18.81 -81.73,18.38 -81.44,18.38 -81.44,18.44 -81.15,18.44 -81.15,18.14 -80.86,18.14 -80.86,17.92 -80.57,17.92 -80.57,17.73 -80.28,17.73 -80.28,17.6 -79.99,17.6 -79.99,17.12 -79.7,17.12 -79.7,17.09 -79.41,17.09 -79.41,16.68 -79.13,16.68 -79.13,16.7 -78.84,16.7 -78.84,16.42 -78.55,16.42 -78.55,16.24 -78.26,16.24 -78.26,16.32 -77.97,16.32 -77.97,16.02 -77.68,16.02 -77.68,15.95 -77.39,15.95 -77.39,15.7 -77.1,15.7 -77.1,15.47 -76.81,15.47 -76.81,15.3 -76.52,15.3 -76.52,15.12 -76.23,15.12 -76.23,15.19 -75.95,15.19 -75.95,15.1 -75.66,15.1 -75.66,15.24 -75.37,15.24 -75.37,15.08 -75.08,15.08 -75.08,15.1 -74.79,15.1 -74.79,14.88 -74.5,14.88 -74.5,14.86 -74.21,14.86 -74.21,14.58 -73.92,14.58 -73.92,14.36 -73.63,14.36 -73.63,14.28 -73.34,14.28 -73.34,14.01 -73.06,14.01 -73.06,13.7 -72.77,13.7 -72.77,13.84 -72.48,13.84 -72.48,13.77 -72.19,13.77 -72.19,13.67 -71.9,13.67 -71.9,13.77 -71.61,13.77 -71.61,13.76 -71.32,13.76 -71.32,13.94 -71.03,13.94 -71.03,14.07 -70.74,14.07 -70.74,14.09 -70.45,14.09 -70.45,14.35 -70.16,14.35 -70.16,14.33 -69.88,14.33 -69.88,14.48 -69.59,14.48 -69.59,14.46 -69.3,14.46 -69.3,14.47 -69.01,14.47 -69.01,14.52 -68.72,14.52 -68.72,14.41 -68.43,14.41 -68.43,14.39 -68.14,14.39 -68.14,14.26 -67.85,14.26 -67.85,14.06 -67.56,14.06 -67.56,14.14 -67.27,14.14 -67.27,13.88 -66.99,13.88 -66.99,13.81 -66.7,13.81 -66.7,13.85 -66.41,13.85 -66.41,13.43 -66.12,13.43 -66.12,13.1 -65.83,13.1 -65.83,12.87 -65.54,12.87 -65.54,12.88 -65.25,12.88 -65.25,12.59 -64.96,12.59 -64.96,12.62 -64.67,12.62 -64.67,12.45 -64.38,12.45 -64.38,12.42 -64.1,12.42 -64.1,12.5 -63.81,12.5 -63.81,12.75 -63.52,12.75 -63.52,12.56 -63.23,12.56 -63.23,12.73 -62.94,12.73 -62.94,12.51 -62.65,12.51 -62.65,12.55 -62.36,12.55 -62.36,12.69 -62.07,12.69 -62.07,12.74 -61.78,12.74 -61.78,12.69 -61.49,12.69 -61.49,12.04 -61.2,12.04 -61.2,11.24 -60.92,11.24 -60.92,10.06 -60.63,10.06 -60.63,8.27 -60.34,8.27 -60.34,6.45 -60.05,6.45 -60.05,4.19 -59.76,4.19 -59.76,2.61 -59.47,2.61 -59.47,1.57 -59.18,1.57 -59.18,1.08 -58.89,1.08 -58.89,1.66 -58.6,1.66 -58.6,3.13 -58.31,3.13 -58.31,5.01 -58.03,5.01 -58.03,7.44 -57.74,7.44 -57.74,9.35 -57.45,9.35 -57.45,10.97 -57.16,10.97 -57.16,12.03 -56.87,12.03 -56.87,12.66 -56.58,12.66 -56.58,13.26 -56.29,13.26 -56.29,13.46 -56,13.46 -56,13.78 -55.71,13.78 -55.71,13.9 -55.42,13.9 -55.42,13.64 -55.13,13.64 -55.13,13.95 -54.85,13.95 -54.85,13.78 -54.56,13.78 -54.56,13.98 -54.27,13.98 -54.27,13.88 -53.98,13.88 -53.98,13.97 -53.69,13.97 -53.69,14 -53.4,14 -53.4,14 -53.11,14 -53.11,13.81 -52.82,13.81 -52.82,13.93 -52.53,13.93 -52.53,13.92 -52.24,13.92 -52.24,13.85 -51.96,13.85 -51.96,14 -51.67,14 -51.67,13.71 -51.38,13.71 -51.38,13.51 -51.09,13.51 -51.09,13.44 -50.8,13.44 -50.8,13.07 -50.51,13.07 -50.51,12.98 -50.22,12.98 -50.22,12.95 -49.93,12.95 -49.93,13.03 -49.64,13.03 -49.64,13.07 -49.35,13.07 -49.35,13.06 -49.06,13.06 -49.06,13.44 -48.78,13.44 -48.78,13.73 -48.49,13.73 -48.49,13.83 -48.2,13.83 -48.2,14.18 -47.91,14.18 -47.91,14.4 -47.62,14.4 -47.62,14.31 -47.33,14.31 -47.33,14.45 -47.04,14.45 -47.04,14.53 -46.75,14.53 -46.75,14.55 -46.46,14.55 -46.46,14.76 -46.17,14.76 -46.17,14.98 -45.89,14.98 -45.89,14.75 -45.6,14.75 -45.6,14.84 -45.31,14.84 -45.31,14.87 -45.02,14.87 -45.02,14.89 -44.73,14.89 -44.73,14.95 -44.44,14.95 -44.44,14.85 -44.15,14.85 -44.15,15.09 -43.86,15.09 -43.86,14.9 -43.57,14.9 -43.57,15.13 -43.28,15.13 -43.28,14.9 -43,14.9 -43,15.19 -42.71,15.19 -42.71,15.2 -42.42,15.2 -42.42,14.9 -42.13,14.9 -42.13,15.17 -41.84,15.17 -41.84,15.26 -41.55,15.26 -41.55,15.38 -41.26,15.38 -41.26,15.3 -40.97,15.3 -40.97,15.5 -40.68,15.5 -40.68,15.47 -40.39,15.47 -40.39,15.6 -40.1,15.6 -40.1,15.42 -39.82,15.42 -39.82,15.47 -39.53,15.47 -39.53,15.44 -39.24,15.44 -39.24,15.54 -38.95,15.54 -38.95,15.7 -38.66,15.7 -38.66,15.63 -38.37,15.63 -38.37,15.8 -38.08,15.8 -38.08,15.68 -37.79,15.68 -37.79,15.9 -37.5,15.9 -37.5,15.8 -37.21,15.8 -37.21,15.84 -36.93,15.84 -36.93,15.92 -36.64,15.92 -36.64,15.76 -36.35,15.76 -36.35,15.76 -36.06,15.76 -36.06,15.95 -35.77,15.95 -35.77,16.05 -35.48,16.05 -35.48,15.96 -35.19,15.96 -35.19,16.08 -34.9,16.08 -34.9,16.22 -34.61,16.22 -34.61,16.15 -34.32,16.15 -34.32,16.15 -34.03,16.15 -34.03,16.18 -33.75,16.18 -33.75,16.33 -33.46,16.33 -33.46,16.25 -33.17,16.25 -33.17,16.46 -32.88,16.46 -32.88,16.41 -32.59,16.41 -32.59,16.33 -32.3,16.33 -32.3,16.35 -32.01,16.35 -32.01,16.43 -31.72,16.43 -31.72,16.56 -31.43,16.56 -31.43,16.44 -31.14,16.44 -31.14,16.41 -30.86,16.41 -30.86,16.5 -30.57,16.5 -30.57,16.45 -30.28,16.45 -30.28,16.5 -29.99,16.5 -29.99,16.49 -29.7,16.49 -29.7,16.44 -29.41,16.44 -29.41,16.56 -29.12,16.56 -29.12,16.61 -28.83,16.61 -28.83,16.71 -28.54,16.71 -28.54,16.58 -28.25,16.58 -28.25,16.55 -27.96,16.55 -27.96,16.76 -27.68,16.76 -27.68,16.83 -27.39,16.83 -27.39,16.7 -27.1,16.7 -27.1,16.79 -26.81,16.79 -26.81,16.8 -26.52,16.8 -26.52,16.72 -26.23,16.72 -26.23,16.84 -25.94,16.84 -25.94,16.76 -25.65,16.76 -25.65,16.9 -25.36,16.9 -25.36,17.01 -25.07,17.01 -25.07,16.81 -24.79,16.81 -24.79,16.83 -24.5,16.83 -24.5,16.74 -24.21,16.74 -24.21,16.94 -23.92,16.94 -23.92,16.99 -23.63,16.99 -23.63,16.77 -23.34,16.77 -23.34,16.88 -23.05,16.88 -23.05,17.01 -22.76,17.01 -22.76,16.98 -22.47,16.98 -22.47,17.03 -22.18,17.03 -22.18,16.93 -21.89,16.93 -21.89,17.25 -21.61,17.25 -21.61,17.16 -21.32,17.16 -21.32,17.28 -21.03,17.28 -21.03,17.57 -20.74,17.57 -20.74,17.58 -20.45,17.58 -20.45,17.56 -20.16,17.56 -20.16,17.81 -19.87,17.81 -19.87,17.77 -19.58,17.77 -19.58,17.91 -19.29,17.91 -19.29,17.88 -19,17.88 -19,18.12 -18.72,18.12 -18.72,18.09 -18.43,18.09 -18.43,18.07 -18.14,18.07 -18.14,18.28 -17.85,18.28 -17.85,18.16 -17.56,18.16 -17.56,18.15 -17.27,18.15 -17.27,18.34 -16.98,18.34 -16.98,18.03 -16.69,18.03 -16.69,18.06 -16.4,18.06 -16.4,17.66 -16.11,17.66 -16.11,17.68 -15.83,17.68 -15.83,17.58 -15.54,17.58 -15.54,17.22 -15.25,17.22 -15.25,16.83 -14.96,16.83 -14.96,16.39 -14.67,16.39 -14.67,15.56 -14.38,15.56 -14.38,14.73 -14.09,14.73 -14.09,13.67 -13.8,13.67 -13.8,12.34 -13.51,12.34 -13.51,10.19 -13.22,10.19 -13.22,6.89 -12.93,6.89 -12.93,1.81 -12.65,1.81 -12.65,-6.5 -12.36,-6.5 -12.36,-20.33 -12.07,-20.33 -12.07,-41.96 -11.78,-41.96 -11.78,-75.75 -11.49,-75.75 -11.49,-126.3 -11.2,-126.3 -11.2,-196.66 -10.91,-196.66 -10.91,-291.12 -10.62,-291.12 -10.62,-409.63 -10.33,-409.63 -10.33,-546.68 -10.04,-546.68 -10.04,-695.74 -9.76,-695.74 -9.76,-842.55 -9.47,-842.55 -9.47,-971.03 -9.18,-971.03 -9.18,-1064.96 -8.89,-1064.96 -8.89,-1111.78 -8.6,-1111.78 -8.6,-1102.86 -8.31,-1102.86 -8.31,-1044.41 -8.02,-1044.41 -8.02,-941.04 -7.73,-941.04 -7.73,-805.75 -7.44,-805.75 -7.44,-657.87 -7.15,-657.87 -7.15,-510.73 -6.86,-510.73 -6.86,-376.85 -6.58,-376.85 -6.58,-263.87 -6.29,-263.87 -6.29,-174 -6,-174 -6,-107.64 -5.71,-107.64 -5.71,-61.22 -5.42,-61.22 -5.42,-29.8 -5.13,-29.8 -5.13,-10.07 -4.84,-10.07 -4.84,1.48 -4.55,1.48 -4.55,8.36 -4.26,8.36 -4.26,11.96 -3.97,11.96 -3.97,13.13 -3.69,13.13 -3.69,13.76 -3.4,13.76 -3.4,12.84 -3.11,12.84 -3.11,11.1 -2.82,11.1 -2.82,8.39 -2.53,8.39 -2.53,4.11 -2.24,4.11 -2.24,-1.62 -1.95,-1.62 -1.95,-10.2 -1.66,-10.2 -1.66,-21.25 -1.37,-21.25 -1.37,-34.1 -1.08,-34.1 -1.08,-49.96 -0.79,-49.96 -0.79,-65.88 -0.51,-65.88 -0.51,-82.06 -0.22,-82.06 -0.22,-96.24 0.07,-96.24 0.07,-108.29 0.36,-108.29 0.36,-114 0.65,-114 0.65,-114.68 0.94,-114.68 0.94,-109.23 1.23,-109.23 1.23,-99.43 1.52,-99.43 1.52,-84.82 1.81,-84.82 1.81,-68.2 2.1,-68.2 2.1,-50.4 2.38,-50.4 2.38,-34.06 2.67,-34.06 2.67,-19.48 2.96,-19.48 2.96,-7.33 3.25,-7.33 3.25,2.56 3.54,2.56 3.54,9.7 3.83,9.7 3.83,14.81 4.12,14.81 4.12,18.24 4.41,18.24 4.41,20.48 4.7,20.48 4.7,22.01 4.99,22.01 4.99,23.05 5.28,23.05 5.28,23.46 5.56,23.46 5.56,23.81 5.85,23.81 5.85,23.94 6.14,23.94 6.14,24.06 6.43,24.06 6.43,24.02 6.72,24.02 6.72,24.09 7.01,24.09 7.01,24.15 7.3,24.15 7.3,24.08 7.59,24.08 7.59,24.03 7.88,24.03 7.88,24.03 8.17,24.03 8.17,23.94 8.45,23.94 8.45,23.62 8.74,23.62 8.74,23.6 9.03,23.6 9.03,23.38 9.32,23.38 9.32,23.34 9.61,23.34 9.61,23.07 9.9,23.07 9.9,23.03 10.19,23.03 10.19,22.87 10.48,22.87 10.48,22.78 10.77,22.78 10.77,22.93 11.06,22.93 11.06,22.92 11.34,22.92 11.34,22.96 11.63,22.96 11.63,23.13 11.92,23.13 11.92,23.23 12.21,23.23 12.21,23.44 12.5,23.44 12.5,23.65 12.79,23.65 12.79,23.84 13.08,23.84 13.08,24.02 13.37,24.02 13.37,24.12 13.66,24.12 13.66,24.28 13.95,24.28 13.95,24.26 14.24,24.26 14.24,24.33 14.52,24.33 14.52,24.54 14.81,24.54 14.81,24.32 15.1,24.32 15.1,24.45 15.39,24.45 15.39,24.52 15.68,24.52 15.68,24.49 15.97,24.49 15.97,24.58 16.26,24.58 16.26,24.57 16.55,24.57 16.55,24.54 16.84,24.54 16.84,24.58 17.13,24.58 17.13,24.53 17.41,24.53 17.41,24.45 17.7,24.45 17.7,24.4 17.99,24.4 17.99,24.57 18.28,24.57 18.28,24.55 18.57,24.55 18.57,24.46 18.86,24.46 18.86,24.61 19.15,24.61 19.15,24.55 19.44,24.55 19.44,24.47 19.73,24.47 19.73,24.46 20.02,24.46 20.02,24.39 20.31,24.39 20.31,24.57 20.59,24.57 20.59,24.53 20.88,24.53 20.88,24.44 21.17,24.44 21.17,24.52 21.46,24.52 21.46,24.53 21.75,24.53 21.75,24.58 22.04,24.58 22.04,24.74 22.33,24.74 22.33,24.79 22.62,24.79 22.62,24.79 22.91,24.79 22.91,24.81 23.2,24.81 23.2,24.84 23.48,24.84 23.48,24.69 23.77,24.69 23.77,24.82 24.06,24.82 24.06,24.84 24.35,24.84 24.35,24.79 24.64,24.79 24.64,24.76 24.93,24.76 24.93,24.84 25.22,24.84 25.22,24.84 25.51,24.84 25.51,24.82 25.8,24.82 25.8,24.77 26.09,24.77 26.09,24.79 26.38,24.79 26.38,24.78 26.66,24.78 26.66,24.97 26.95,24.97 26.95,24.97 27.24,24.97 27.24,24.95 27.53,24.95 27.53,24.86 27.82,24.86 27.82,24.91 28.11,24.91 28.11,24.89 28.4,24.89 28.4,24.98 28.69,24.98 28.69,25.05 28.98,25.05 28.98,24.97 29.27,24.97 29.27,25.02 29.55,25.02 29.55,25.08 29.84,25.08 29.84,24.98 30.13,24.98 30.13,25.04 30.42,25.04 30.42,24.99 30.71,24.99 30.71,25 31,25 31,25.08 31.29,25.08 31.29,24.97 31.58,24.97 31.58,25.07 31.87,25.07 31.87,25.16 32.16,25.16 32.16,25.14 32.45,25.14 32.45,25.14 32.73,25.14 32.73,25.12 33.02,25.12 33.02,25.18 33.31,25.18 33.31,25.19 33.6,25.19 33.6,25.15 33.89,25.15 33.89,25.19 34.18,25.19 34.18,25.32 34.47,25.32 34.47,25.16 34.76,25.16 34.76,25.4 35.05,25.4 35.05,25.26 35.34,25.26 35.34,25.26 35.62,25.26 35.62,25.21 35.91,25.21 35.91,25.24 36.2,25.24 36.2,25.36 36.49,25.36 36.49,25.21 36.78,25.21 36.78,25.31 37.07,25.31 37.07,25.24 37.36,25.24 37.36,25.25 37.65,25.25 37.65,25.37 37.94,25.37 37.94,25.33 38.23,25.33 38.23,25.25 38.51,25.25 38.51,25.37 38.8,25.37 38.8,25.25 39.09,25.25 39.09,25.3 39.38,25.3 39.38,25.39 39.67,25.39 39.67,25.39 39.96,25.39 39.96,25.35 40.25,25.35 40.25,25.37 40.54,25.37 40.54,25.39 40.83,25.39 40.83,25.33 41.12,25.33 41.12,25.34 41.41,25.34 41.41,25.3 41.69,25.3 41.69,25.4 41.98,25.4 41.98,25.34 42.27,25.34 42.27,25.5 42.56,25.5 42.56,25.46 42.85,25.46 42.85,25.42 43.14,25.42 43.14,25.47 43.43,25.47 43.43,25.62 43.72,25.62 43.72,25.64 44.01,25.64 44.01,25.53 44.3,25.53 44.3,25.78 44.58,25.78 44.58,25.66 44.87,25.66 44.87,25.64 45.16,25.64 45.16,25.63 45.45,25.63 45.45,25.66 45.74,25.66 45.74,25.75 46.03,25.75 46.03,25.69 46.32,25.69 46.32,25.7 46.61,25.7 46.61,25.74 46.9,25.74 46.9,25.72 47.19,25.72 47.19,25.79 47.48,25.79 47.48,25.72 47.76,25.72 47.76,25.83 48.05,25.83 48.05,25.72 48.34,25.72 48.34,25.7 48.63,25.7 48.63,25.77 48.92,25.77 48.92,25.79 49.21,25.79 49.21,25.87 49.5,25.87 49.5,25.76 49.79,25.76 49.79,25.84 50.08,25.84 50.08,25.82 50.37,25.82 50.37,25.87 50.65,25.87 50.65,25.8 50.94,25.8 50.94,25.94 51.23,25.94 51.23,26.02 51.52,26.02 51.52,25.97 51.81,25.97 51.81,25.89 52.1,25.89 52.1,26.05 52.39,26.05 52.39,25.95 52.68,25.95 52.68,25.81 52.97,25.81 52.97,26.03 53.26,26.03 53.26,26 53.55,26 53.55,25.95 53.83,25.95 53.83,26.08 54.12,26.08 54.12,26.09 54.41,26.09 54.41,25.97 54.7,25.97 54.7,26.14 54.99,26.14 54.99,26 55.28,26 55.28,26.05 55.57,26.05 55.57,26.13 55.86,26.13 55.86,26.06 56.15,26.06 56.15,26.2 56.44,26.2 56.44,26.17 56.72,26.17 56.72,26.08 57.01,26.08 57.01,26.12 57.3,26.12 57.3,26.17 57.59,26.17 57.59,26.07 57.88,26.07 57.88,26.21 58.17,26.21 58.17,26.2 58.46,26.2 58.46,26.17 58.75,26.17 58.75,26.29 59.04,26.29 59.04,26.17 59.33,26.17 59.33,26.29 59.62,26.29 59.62,26.22 59.9,26.22 59.9,26.27 60.19,26.27 60.19,26.27 60.48,26.27 60.48,26.32 60.77,26.32 60.77,26.26 61.06,26.26 61.06,26.33 61.35,26.33 61.35,26.32 61.64,26.32 61.64,26.37 61.93,26.37 61.93,26.43 62.22,26.43 62.22,26.4 62.51,26.4 62.51,26.41 62.79,26.41 62.79,26.37 63.08,26.37 63.08,26.4 63.37,26.4 63.37,26.41 63.66,26.41 63.66,26.43 63.95,26.43 63.95,26.38 64.24,26.38 64.24,26.45 64.53,26.45 64.53,26.37 64.82,26.37 64.82,26.4 65.11,26.4 65.11,26.59 65.4,26.59 65.4,26.44 65.68,26.44 65.68,26.33 65.97,26.33 65.97,26.49 66.26,26.49 66.26,26.4 66.55,26.4 66.55,26.39 66.84,26.39 66.84,26.37 67.13,26.37 67.13,26.47 67.42,26.47 67.42,26.44 67.71,26.44 67.71,26.4 68,26.4 68,26.45 68.29,26.45 68.29,26.3 68.58,26.3 68.58,26.27 68.86,26.27 68.86,26.35 69.15,26.35 69.15,26.22 69.44,26.22 69.44,26.35 69.73,26.35 69.73,26.25 70.02,26.25 70.02,26.36 70.31,26.36 70.31,26.4 70.6,26.4 70.6,26.45 70.89,26.45 70.89,26.49 71.18,26.49 71.18,26.41 71.47,26.41 71.47,26.53 71.75,26.53 71.75,26.61 72.04,26.61 72.04,26.66 72.33,26.66 72.33,26.67 72.62,26.67 72.62,26.78 72.91,26.78 72.91,26.79 73.2,26.79 73.2,26.79 73.49,26.79 73.49,26.81 73.78,26.81 73.78,26.75 74.07,26.75 74.07,26.66 74.36,26.66 74.36,26.86 74.65,26.86 74.65,26.85 74.93,26.85 74.93,26.86 75.22,26.86 75.22,26.79 75.51,26.79 75.51,26.91 75.8,26.91 75.8,26.85 76.09,26.85 76.09,26.92 76.38,26.92 76.38,26.85 76.67,26.85 76.67,26.92 76.96,26.92 76.96,26.83 77.25,26.83 77.25,26.78 77.54,26.78 77.54,26.99 77.82,26.99 77.82,26.97 78.11,26.97 78.11,26.95 78.4,26.95 78.4,26.99 78.69,26.99 78.69,26.98 78.98,26.98 78.98,26.93 79.27,26.93 79.27,26.99 79.56,26.99 79.56,26.93 79.85,26.93 79.85,27.05 80.14,27.05 80.14,27 80.43,27 80.43,27.09 80.72,27.09 80.72,27.11 81,27.11 81,27.01 81.29,27.01 81.29,27.05 81.58,27.05 81.58,26.94 81.87,26.94 81.87,27.12 82.16,27.12 82.16,27.04 82.45,27.04 82.45,27.07 82.74,27.07 82.74,26.98 83.03,26.98 83.03,27.07 83.32,27.07 83.32,27.18 83.61,27.18 83.61,27.14 83.89,27.14 83.89,27.07 84.18,27.07 84.18,27.16 84.47,27.16 84.47,27.18 84.76,27.18 84.76,27.18 85.05,27.18 85.05,27.17 85.34,27.17 85.34,27.13 85.63,27.13 85.63,27.2 85.92,27.2 85.92,27.24 86.21,27.24 86.21,27.22 86.5,27.22 86.5,27.27 86.79,27.27 86.79,27.26 87.07,27.26 87.07,27.23 87.36,27.23 87.36,27.19 87.65,27.19 87.65,27.28 87.94,27.28 87.94,27.25 88.23,27.25 88.23,27.32 88.52,27.32 88.52,27.31 88.81,27.31 88.81,27.18 89.1,27.18 89.1,27.31 89.39,27.31 89.39,27.28 89.68,27.28 89.68,27.34 89.96,27.34 89.96,27.28 90.25,27.28 90.25,27.31 90.54,27.31 90.54,27.37 90.83,27.37 90.83,27.35 91.12,27.35 91.12,27.39 91.41,27.39 91.41,27.43 91.7,27.43 91.7,27.45 91.99,27.45 91.99,27.4 92.28,27.4 92.28,27.33 92.57,27.33 92.57,27.45 92.85,27.45 92.85,27.42 93.14,27.42 93.14,27.42 93.43,27.42 93.43,27.37 93.72,27.37 93.72,27.42 94.01,27.42 94.01,27.29 94.3,27.29 94.3,27.26 94.59,27.26 94.59,27.21 94.88,27.21 94.88,27.05 95.17,27.05 95.17,27.06 95.46,27.06 95.46,26.89 95.75,26.89 95.75,26.76 96.03,26.76 96.03,26.63 96.32,26.63 96.32,26.47 96.61,26.47 96.61,26.28 96.9,26.28 96.9,25.98 97.19,25.98 97.19,25.95 97.48,25.95 97.48,25.89 97.77,25.89 97.77,25.79 98.06,25.79 98.06,25.86 98.35,25.86 98.35,25.75 98.64,25.75 98.64,25.79 98.92,25.79 98.92,25.93 99.21,25.93 99.21,26.03 99.5,26.03 99.5,26.28 99.79,26.28 99.79,26.47 100.08,26.47 100.08,26.63 100.37,26.63 100.37,26.77 100.66,26.77 100.66,26.98 100.95,26.98 100.95,27.11 101.24,27.11 101.24,27.25 101.53,27.25 101.53,27.3 101.82,27.3 101.82,27.42 102.1,27.42 102.1,27.49 102.39,27.49 102.39,27.62 102.68,27.62 102.68,27.63 102.97,27.63 102.97,27.67 103.26,27.67 103.26,27.67 103.55,27.67 103.55,27.59 103.84,27.59 103.84,27.55 104.13,27.55 104.13,27.63 104.42,27.63 104.42,27.6 104.71,27.6 104.71,27.57 104.99,27.57 104.99,27.6 105.28,27.6 105.28,27.6 105.57,27.6 105.57,27.61 105.86,27.61 105.86,27.59 106.15,27.59 106.15,27.54 106.44,27.54 106.44,27.42 106.73,27.42 106.73,27.44 107.02,27.44 107.02,27.45 107.31,27.45 107.31,27.53 107.6,27.53 107.6,27.53 107.89,27.53 107.89,27.49 108.17,27.49 108.17,27.54 108.46,27.54 108.46,27.44 108.75,27.44 108.75,27.62 109.04,27.62 109.04,27.61 109.33,27.61 109.33,27.6 109.62,27.6 109.62,27.78 109.91,27.78 109.91,27.77 110.2,27.77 110.2,27.87 110.49,27.87 110.49,27.78 110.78,27.78 110.78,27.81 111.06,27.81 111.06,27.92 111.35,27.92 111.35,27.99 111.64,27.99 111.64,28 111.93,28 111.93,27.97 112.22,27.97 112.22,28.03 112.51,28.03 112.51,28 112.8,28 112.8,28.03 113.09,28.03 113.09,28.01 113.38,28.01 113.38,27.95 113.67,27.95 113.67,28.07 113.96,28.07 113.96,28.05 114.24,28.05 114.24,28.05 114.53,28.05 114.53,28.07 114.82,28.07 114.82,28.13 115.11,28.13 115.11,28.07 115.4,28.07 115.4,28 " class="primitive"/>
            </g>
          </g>
        </g>
      </g>
      <g class="guide colorkey" id="img-e72faf7e-24">
        <g fill="#4C404B" font-size="2.82" font-family="'PT Sans','Helvetica Neue','Helvetica',sans-serif" id="img-e72faf7e-25">
          <g transform="translate(210.87,31.7)" id="img-e72faf7e-26">
            <g class="primitive">
              <text dy="0.35em">CaF2 std</text>
            </g>
          </g>
          <g transform="translate(210.87,35.33)" id="img-e72faf7e-27">
            <g class="primitive">
              <text dy="0.35em">Brem[Global][CaF2 std]</text>
            </g>
          </g>
        </g>
        <g stroke-width="0.3" id="img-e72faf7e-28">
          <g stroke="#FFFFFF" fill-opacity="1" fill="#B70002" id="img-e72faf7e-29">
            <g transform="translate(208.05,35.33)" id="img-e72faf7e-30">
              <circle cx="0" cy="0" r="0.9" class="primitive"/>
            </g>
          </g>
          <g stroke="#FFFFFF" fill-opacity="1" fill="#104E8B" id="img-e72faf7e-31">
            <g transform="translate(208.05,31.7)" id="img-e72faf7e-32">
              <circle cx="0" cy="0" r="0.9" class="primitive"/>
            </g>
          </g>
        </g>
        <g fill="#362A35" font-size="3.18" font-family="'PT Sans','Helvetica Neue','Helvetica',sans-serif" stroke="#000000" stroke-opacity="0.000" id="img-e72faf7e-33">
          <g transform="translate(207.24,28.39)" id="img-e72faf7e-34">
            <g class="primitive">
              <text dy="-0em">Spectra</text>
            </g>
          </g>
        </g>
      </g>
    </g>
  </g>
  <g class="guide ylabels" font-size="2.82" font-family="'PT Sans Caption','Helvetica Neue','Helvetica',sans-serif" fill="#6C606B" id="img-e72faf7e-35">
    <g transform="translate(17.03,59.87)" id="img-e72faf7e-36">
      <g class="primitive">
        <text text-anchor="end" dy="0.35em">0</text>
      </g>
    </g>
    <g transform="translate(17.03,30.01)" id="img-e72faf7e-37">
      <g class="primitive">
        <text text-anchor="end" dy="0.35em">50000</text>
      </g>
    </g>
  </g>
  <g font-size="3.18" font-family="'PT Sans','Helvetica Neue','Helvetica',sans-serif" fill="#202020" stroke="#000000" stroke-opacity="0.000" id="img-e72faf7e-38">
    <g transform="translate(4.18,29.29)" id="img-e72faf7e-39">
      <g class="primitive">
        <text text-anchor="middle" dy="0.35em" transform="rotate(-90,0, 2)">Counts</text>
      </g>
    </g>
  </g>
</g>
<defs>
  <clipPath id="img-e72faf7e-4">
    <path d="M18.03,0.71 L253.29,0.71 253.29,61.87 18.03,61.87 " />
  </clipPath>
</defs>
</svg>
