<?xml version="1.0" encoding="UTF-8"?>
<svg xmlns="http://www.w3.org/2000/svg"
     xmlns:xlink="http://www.w3.org/1999/xlink"
     xmlns:gadfly="http://www.gadflyjl.org/ns"
     version="1.2"
     width="254mm" height="76.2mm" viewBox="0 0 254 76.2"
     stroke="none"
     fill="#000000"
     stroke-width="0.3"
     font-size="3.88"
>
<defs>
  <marker id="arrow" markerWidth="15" markerHeight="7" refX="5" refY="3.5" orient="auto" markerUnits="strokeWidth">
    <path d="M0,0 L15,3.5 L0,7 z" stroke="context-stroke" fill="context-stroke"/>
  </marker>
</defs>
<g class="plotroot xscalable yscalable" id="img-bd0db3e8-1">
  <g font-size="3.18" font-family="'PT Sans','Helvetica Neue','Helvetica',sans-serif" fill="#202020" stroke="#000000" stroke-opacity="0.000" id="img-bd0db3e8-2">
    <g transform="translate(137.53,69.54)">
      <g class="primitive">
        <text text-anchor="middle" dy="0.6em">Channels</text>
      </g>
    </g>
  </g>
  <g class="guide xlabels" font-size="2.82" font-family="'PT Sans Caption','Helvetica Neue','Helvetica',sans-serif" fill="#6C606B" id="img-bd0db3e8-3">
    <g transform="translate(123.36,62.87)">
      <g class="primitive">
        <text text-anchor="middle" dy="0.6em">500</text>
      </g>
    </g>
    <g transform="translate(223.15,62.87)">
      <g class="primitive">
        <text text-anchor="middle" dy="0.6em">1000</text>
      </g>
    </g>
  </g>
  <g clip-path="url(#img-bd0db3e8-4)">
    <g id="img-bd0db3e8-5">
      <g pointer-events="visible" stroke-width="0.3" fill="#FDFDF1" stroke="#202020" class="guide background" id="img-bd0db3e8-6">
        <g transform="translate(137.53,33.76)" id="img-bd0db3e8-7">
          <path d="M-115.76,-28.1 L115.76,-28.1 115.76,28.1 -115.76,28.1  z" class="primitive"/>
        </g>
      </g>
      <g class="guide ygridlines xfixed" stroke-dasharray="none" stroke-width="0.2" stroke="#FFDFDF" id="img-bd0db3e8-8">
        <g transform="translate(137.53,59.87)" id="img-bd0db3e8-9">
          <path fill="none" d="M-115.76,0 L115.76,0 " class="primitive"/>
        </g>
        <g transform="translate(137.53,39.51)" id="img-bd0db3e8-10">
          <path fill="none" d="M-115.76,0 L115.76,0 " class="primitive"/>
        </g>
        <g transform="translate(137.53,19.15)" id="img-bd0db3e8-11">
          <path fill="none" d="M-115.76,0 L115.76,0 " class="primitive"/>
        </g>
      </g>
      <g class="guide xgridlines yfixed" stroke-dasharray="none" stroke-width="0.2" stroke="#FFDFDF" id="img-bd0db3e8-12">
        <g transform="translate(123.36,33.76)" id="img-bd0db3e8-13">
          <path fill="none" d="M0,-28.1 L0,28.1 " class="primitive"/>
        </g>
        <g transform="translate(223.15,33.76)" id="img-bd0db3e8-14">
          <path fill="none" d="M0,-28.1 L0,28.1 " class="primitive"/>
        </g>
      </g>
      <g class="plotpanel" id="img-bd0db3e8-15">
        <metadata>
          <boundingbox value="21.773888888888912mm 5.660555555555554mm 231.52055555555557mm 56.20555555555556mm"/>
          <unitbox value="-9.021072577080947 26623.31646477332 1160.0421451541617 -27605.625978693417"/>
        </metadata>
        <g class="geometry" stroke="#000000" stroke-opacity="0.000" fill="#4C404B" font-size="2.82" font-family="'PT Sans Caption','Helvetica Neue','Helvetica',sans-serif" id="img-bd0db3e8-16">
          <g class="marker" id="img-bd0db3e8-17">
            <g transform="translate(164.48,33.76)" id="img-bd0db3e8-18">
              <g class="primitive">
                <text text-anchor="middle" dy="-0em" transform="translate(0,-1.9)">0.0667</text>
              </g>
            </g>
          </g>
        </g>
        <g class="geometry" stroke="#000000" stroke-opacity="0.000" fill="#4C404B" font-size="2.82" font-family="'PT Sans Caption','Helvetica Neue','Helvetica',sans-serif" id="img-bd0db3e8-19">
          <g class="marker" id="img-bd0db3e8-20">
            <g transform="translate(159.29,33.76)" id="img-bd0db3e8-21">
              <g class="primitive">
                <text dy="0.35em" transform="translate(1.9,0)"></text>
              </g>
            </g>
            <g transform="translate(169.67,33.76)" id="img-bd0db3e8-22">
              <g class="primitive">
                <text dy="0.35em" transform="translate(1.9,0)">Fe K-M3 + 3 others</text>
              </g>
            </g>
          </g>
        </g>
        <g class="geometry" stroke-width="0.3" id="img-bd0db3e8-23">
          <g class="color_RGBA{Float32}(0.5019608f0,0.5019608f0,0.5019608f0,1.0f0)" id="img-bd0db3e8-24">
            <g fill-opacity="1" stroke="#FFFFFF" fill="#808080" class="marker" id="img-bd0db3e8-25">
              <g transform="translate(169.67,33.76)" id="img-bd0db3e8-26">
                <circle cx="0" cy="0" r="0.9" class="primitive"/>
              </g>
            </g>
            <g fill-opacity="0" ilabel="2RGBA{Float32}(0.5019608f0,0.5019608f0,0.5019608f0,1.0f0)" class="datatip" id="img-bd0db3e8-27">
              <g transform="translate(169.67,33.76)" id="img-bd0db3e8-28">
                <g class="primitive">
                  <text dy="-1.2em">732<tspan x="0" dy="1.1000em">12820.503475426613</tspan></text>
                </g>
              </g>
            </g>
          </g>
          <g class="color_RGBA{Float32}(0.5019608f0,0.5019608f0,0.5019608f0,1.0f0)" id="img-bd0db3e8-29">
            <g fill-opacity="1" stroke="#FFFFFF" fill="#808080" class="marker" id="img-bd0db3e8-30">
              <g transform="translate(159.29,33.76)" id="img-bd0db3e8-31">
                <circle cx="0" cy="0" r="0.9" class="primitive"/>
              </g>
            </g>
            <g fill-opacity="0" ilabel="1RGBA{Float32}(0.5019608f0,0.5019608f0,0.5019608f0,1.0f0)" class="datatip" id="img-bd0db3e8-32">
              <g transform="translate(159.29,33.76)" id="img-bd0db3e8-33">
                <g class="primitive">
                  <text dy="-1.2em">680<tspan x="0" dy="1.1000em">12820.503475426613</tspan></text>
                </g>
              </g>
            </g>
          </g>
        </g>
        <g stroke-width="0.3" fill="#000000" fill-opacity="0.000" class="geometry" id="img-bd0db3e8-34">
          <g class="color_RGB{N0f8}(0.502,0.502,0.502)" stroke-dasharray="none" stroke-opacity="1" stroke="#808080" id="img-bd0db3e8-35">
            <g transform="translate(164.48,33.76)" id="img-bd0db3e8-36">
              <path fill="none" d="M-5.19,0 L5.19,0 " class="primitive"/>
            </g>
          </g>
        </g>
        <g class="geometry" stroke="#000000" stroke-opacity="0.000" fill="#4C404B" font-size="2.82" font-family="'PT Sans Caption','Helvetica Neue','Helvetica',sans-serif" id="img-bd0db3e8-37">
          <g class="marker" id="img-bd0db3e8-38">
            <g transform="translate(151.5,38.98)" id="img-bd0db3e8-39">
              <g class="primitive">
                <text text-anchor="middle" dy="-0em" transform="translate(0,-1.9)">0.0668</text>
              </g>
            </g>
          </g>
        </g>
        <g class="geometry" stroke="#000000" stroke-opacity="0.000" fill="#4C404B" font-size="2.82" font-family="'PT Sans Caption','Helvetica Neue','Helvetica',sans-serif" id="img-bd0db3e8-40">
          <g class="marker" id="img-bd0db3e8-41">
            <g transform="translate(145.92,38.98)" id="img-bd0db3e8-42">
              <g class="primitive">
                <text dy="0.35em" transform="translate(1.9,0)"></text>
              </g>
            </g>
            <g transform="translate(157.09,38.98)" id="img-bd0db3e8-43">
              <g class="primitive">
                <text dy="0.35em" transform="translate(1.9,0)">Fe K-L3 + 1 other</text>
              </g>
            </g>
          </g>
        </g>
        <g class="geometry" stroke-width="0.3" id="img-bd0db3e8-44">
          <g class="color_RGBA{Float32}(0.5019608f0,0.5019608f0,0.5019608f0,1.0f0)" id="img-bd0db3e8-45">
            <g fill-opacity="1" stroke="#FFFFFF" fill="#808080" class="marker" id="img-bd0db3e8-46">
              <g transform="translate(157.09,38.98)" id="img-bd0db3e8-47">
                <circle cx="0" cy="0" r="0.9" class="primitive"/>
              </g>
            </g>
            <g fill-opacity="0" ilabel="2RGBA{Float32}(0.5019608f0,0.5019608f0,0.5019608f0,1.0f0)" class="datatip" id="img-bd0db3e8-48">
              <g transform="translate(157.09,38.98)" id="img-bd0db3e8-49">
                <g class="primitive">
                  <text dy="-1.2em">669<tspan x="0" dy="1.1000em">10256.40278034129</tspan></text>
                </g>
              </g>
            </g>
          </g>
          <g class="color_RGBA{Float32}(0.5019608f0,0.5019608f0,0.5019608f0,1.0f0)" id="img-bd0db3e8-50">
            <g fill-opacity="1" stroke="#FFFFFF" fill="#808080" class="marker" id="img-bd0db3e8-51">
              <g transform="translate(145.92,38.98)" id="img-bd0db3e8-52">
                <circle cx="0" cy="0" r="0.9" class="primitive"/>
              </g>
            </g>
            <g fill-opacity="0" ilabel="1RGBA{Float32}(0.5019608f0,0.5019608f0,0.5019608f0,1.0f0)" class="datatip" id="img-bd0db3e8-53">
              <g transform="translate(145.92,38.98)" id="img-bd0db3e8-54">
                <g class="primitive">
                  <text dy="-1.2em">613<tspan x="0" dy="1.1000em">10256.40278034129</tspan></text>
                </g>
              </g>
            </g>
          </g>
        </g>
        <g stroke-width="0.3" fill="#000000" fill-opacity="0.000" class="geometry" id="img-bd0db3e8-55">
          <g class="color_RGB{N0f8}(0.502,0.502,0.502)" stroke-dasharray="none" stroke-opacity="1" stroke="#808080" id="img-bd0db3e8-56">
            <g transform="translate(151.5,38.98)" id="img-bd0db3e8-57">
              <path fill="none" d="M-5.59,0 L5.59,0 " class="primitive"/>
            </g>
          </g>
        </g>
        <g class="geometry" stroke="#000000" stroke-opacity="0.000" fill="#4C404B" font-size="2.82" font-family="'PT Sans Caption','Helvetica Neue','Helvetica',sans-serif" id="img-bd0db3e8-58">
          <g class="marker" id="img-bd0db3e8-59">
            <g transform="translate(100.31,38.98)" id="img-bd0db3e8-60">
              <g class="primitive">
                <text text-anchor="middle" dy="-0em" transform="translate(0,-1.9)">0.1922</text>
              </g>
            </g>
          </g>
        </g>
        <g class="geometry" stroke="#000000" stroke-opacity="0.000" fill="#4C404B" font-size="2.82" font-family="'PT Sans Caption','Helvetica Neue','Helvetica',sans-serif" id="img-bd0db3e8-61">
          <g class="marker" id="img-bd0db3e8-62">
            <g transform="translate(92.83,38.98)" id="img-bd0db3e8-63">
              <g class="primitive">
                <text dy="0.35em" transform="translate(1.9,0)"></text>
              </g>
            </g>
            <g transform="translate(107.8,38.98)" id="img-bd0db3e8-64">
              <g class="primitive">
                <text dy="0.35em" transform="translate(1.9,0)">Ca K-L3 + 3 others</text>
              </g>
            </g>
          </g>
        </g>
        <g class="geometry" stroke-width="0.3" id="img-bd0db3e8-65">
          <g class="color_RGBA{Float32}(0.5019608f0,0.5019608f0,0.5019608f0,1.0f0)" id="img-bd0db3e8-66">
            <g fill-opacity="1" stroke="#FFFFFF" fill="#808080" class="marker" id="img-bd0db3e8-67">
              <g transform="translate(107.8,38.98)" id="img-bd0db3e8-68">
                <circle cx="0" cy="0" r="0.9" class="primitive"/>
              </g>
            </g>
            <g fill-opacity="0" ilabel="2RGBA{Float32}(0.5019608f0,0.5019608f0,0.5019608f0,1.0f0)" class="datatip" id="img-bd0db3e8-69">
              <g transform="translate(107.8,38.98)" id="img-bd0db3e8-70">
                <g class="primitive">
                  <text dy="-1.2em">422<tspan x="0" dy="1.1000em">10256.40278034129</tspan></text>
                </g>
              </g>
            </g>
          </g>
          <g class="color_RGBA{Float32}(0.5019608f0,0.5019608f0,0.5019608f0,1.0f0)" id="img-bd0db3e8-71">
            <g fill-opacity="1" stroke="#FFFFFF" fill="#808080" class="marker" id="img-bd0db3e8-72">
              <g transform="translate(92.83,38.98)" id="img-bd0db3e8-73">
                <circle cx="0" cy="0" r="0.9" class="primitive"/>
              </g>
            </g>
            <g fill-opacity="0" ilabel="1RGBA{Float32}(0.5019608f0,0.5019608f0,0.5019608f0,1.0f0)" class="datatip" id="img-bd0db3e8-74">
              <g transform="translate(92.83,38.98)" id="img-bd0db3e8-75">
                <g class="primitive">
                  <text dy="-1.2em">347<tspan x="0" dy="1.1000em">10256.40278034129</tspan></text>
                </g>
              </g>
            </g>
          </g>
        </g>
        <g stroke-width="0.3" fill="#000000" fill-opacity="0.000" class="geometry" id="img-bd0db3e8-76">
          <g class="color_RGB{N0f8}(0.502,0.502,0.502)" stroke-dasharray="none" stroke-opacity="1" stroke="#808080" id="img-bd0db3e8-77">
            <g transform="translate(100.31,38.98)" id="img-bd0db3e8-78">
              <path fill="none" d="M-7.48,0 L7.48,0 " class="primitive"/>
            </g>
          </g>
        </g>
        <g class="geometry" stroke="#000000" stroke-opacity="0.000" fill="#4C404B" font-size="2.82" font-family="'PT Sans Caption','Helvetica Neue','Helvetica',sans-serif" id="img-bd0db3e8-79">
          <g class="marker" id="img-bd0db3e8-80">
            <g transform="translate(59,18.1)" id="img-bd0db3e8-81">
              <g class="primitive">
                <text text-anchor="middle" dy="-0em" transform="translate(0,-1.9)">0.3508</text>
              </g>
            </g>
          </g>
        </g>
        <g class="geometry" stroke="#000000" stroke-opacity="0.000" fill="#4C404B" font-size="2.82" font-family="'PT Sans Caption','Helvetica Neue','Helvetica',sans-serif" id="img-bd0db3e8-82">
          <g class="marker" id="img-bd0db3e8-83">
            <g transform="translate(54.91,18.1)" id="img-bd0db3e8-84">
              <g class="primitive">
                <text dy="0.35em" transform="translate(1.9,0)"></text>
              </g>
            </g>
            <g transform="translate(63.09,18.1)" id="img-bd0db3e8-85">
              <g class="primitive">
                <text dy="0.35em" transform="translate(1.9,0)">Si K-L3 + 3 others</text>
              </g>
            </g>
          </g>
        </g>
        <g class="geometry" stroke-width="0.3" id="img-bd0db3e8-86">
          <g class="color_RGBA{Float32}(0.5019608f0,0.5019608f0,0.5019608f0,1.0f0)" id="img-bd0db3e8-87">
            <g fill-opacity="1" stroke="#FFFFFF" fill="#808080" class="marker" id="img-bd0db3e8-88">
              <g transform="translate(63.09,18.1)" id="img-bd0db3e8-89">
                <circle cx="0" cy="0" r="0.9" class="primitive"/>
              </g>
            </g>
            <g fill-opacity="0" ilabel="2RGBA{Float32}(0.5019608f0,0.5019608f0,0.5019608f0,1.0f0)" class="datatip" id="img-bd0db3e8-90">
              <g transform="translate(63.09,18.1)" id="img-bd0db3e8-91">
                <g class="primitive">
                  <text dy="-1.2em">198<tspan x="0" dy="1.1000em">20512.80556068258</tspan></text>
                </g>
              </g>
            </g>
          </g>
          <g class="color_RGBA{Float32}(0.5019608f0,0.5019608f0,0.5019608f0,1.0f0)" id="img-bd0db3e8-92">
            <g fill-opacity="1" stroke="#FFFFFF" fill="#808080" class="marker" id="img-bd0db3e8-93">
              <g transform="translate(54.91,18.1)" id="img-bd0db3e8-94">
                <circle cx="0" cy="0" r="0.9" class="primitive"/>
              </g>
            </g>
            <g fill-opacity="0" ilabel="1RGBA{Float32}(0.5019608f0,0.5019608f0,0.5019608f0,1.0f0)" class="datatip" id="img-bd0db3e8-95">
              <g transform="translate(54.91,18.1)" id="img-bd0db3e8-96">
                <g class="primitive">
                  <text dy="-1.2em">157<tspan x="0" dy="1.1000em">20512.80556068258</tspan></text>
                </g>
              </g>
            </g>
          </g>
        </g>
        <g stroke-width="0.3" fill="#000000" fill-opacity="0.000" class="geometry" id="img-bd0db3e8-97">
          <g class="color_RGB{N0f8}(0.502,0.502,0.502)" stroke-dasharray="none" stroke-opacity="1" stroke="#808080" id="img-bd0db3e8-98">
            <g transform="translate(59,18.1)" id="img-bd0db3e8-99">
              <path fill="none" d="M-4.09,0 L4.09,0 " class="primitive"/>
            </g>
          </g>
        </g>
        <g class="geometry" stroke="#000000" stroke-opacity="0.000" fill="#4C404B" font-size="2.82" font-family="'PT Sans Caption','Helvetica Neue','Helvetica',sans-serif" id="img-bd0db3e8-100">
          <g class="marker" id="img-bd0db3e8-101">
            <g transform="translate(53.61,23.32)" id="img-bd0db3e8-102">
              <g class="primitive">
                <text text-anchor="middle" dy="-0em" transform="translate(0,-1.9)">0.0669</text>
              </g>
            </g>
          </g>
        </g>
        <g class="geometry" stroke="#000000" stroke-opacity="0.000" fill="#4C404B" font-size="2.82" font-family="'PT Sans Caption','Helvetica Neue','Helvetica',sans-serif" id="img-bd0db3e8-103">
          <g class="marker" id="img-bd0db3e8-104">
            <g transform="translate(49.92,23.32)" id="img-bd0db3e8-105">
              <g class="primitive">
                <text dy="0.35em" transform="translate(1.9,0)"></text>
              </g>
            </g>
            <g transform="translate(57.3,23.32)" id="img-bd0db3e8-106">
              <g class="primitive">
                <text dy="0.35em" transform="translate(1.9,0)">Al K-L3 + 3 others</text>
              </g>
            </g>
          </g>
        </g>
        <g class="geometry" stroke-width="0.3" id="img-bd0db3e8-107">
          <g class="color_RGBA{Float32}(0.5019608f0,0.5019608f0,0.5019608f0,1.0f0)" id="img-bd0db3e8-108">
            <g fill-opacity="1" stroke="#FFFFFF" fill="#808080" class="marker" id="img-bd0db3e8-109">
              <g transform="translate(57.3,23.32)" id="img-bd0db3e8-110">
                <circle cx="0" cy="0" r="0.9" class="primitive"/>
              </g>
            </g>
            <g fill-opacity="0" ilabel="2RGBA{Float32}(0.5019608f0,0.5019608f0,0.5019608f0,1.0f0)" class="datatip" id="img-bd0db3e8-111">
              <g transform="translate(57.3,23.32)" id="img-bd0db3e8-112">
                <g class="primitive">
                  <text dy="-1.2em">169<tspan x="0" dy="1.1000em">17948.704865597258</tspan></text>
                </g>
              </g>
            </g>
          </g>
          <g class="color_RGBA{Float32}(0.5019608f0,0.5019608f0,0.5019608f0,1.0f0)" id="img-bd0db3e8-113">
            <g fill-opacity="1" stroke="#FFFFFF" fill="#808080" class="marker" id="img-bd0db3e8-114">
              <g transform="translate(49.92,23.32)" id="img-bd0db3e8-115">
                <circle cx="0" cy="0" r="0.9" class="primitive"/>
              </g>
            </g>
            <g fill-opacity="0" ilabel="1RGBA{Float32}(0.5019608f0,0.5019608f0,0.5019608f0,1.0f0)" class="datatip" id="img-bd0db3e8-116">
              <g transform="translate(49.92,23.32)" id="img-bd0db3e8-117">
                <g class="primitive">
                  <text dy="-1.2em">132<tspan x="0" dy="1.1000em">17948.704865597258</tspan></text>
                </g>
              </g>
            </g>
          </g>
        </g>
        <g stroke-width="0.3" fill="#000000" fill-opacity="0.000" class="geometry" id="img-bd0db3e8-118">
          <g class="color_RGB{N0f8}(0.502,0.502,0.502)" stroke-dasharray="none" stroke-opacity="1" stroke="#808080" id="img-bd0db3e8-119">
            <g transform="translate(53.61,23.32)" id="img-bd0db3e8-120">
              <path fill="none" d="M-3.69,0 L3.69,0 " class="primitive"/>
            </g>
          </g>
        </g>
        <g class="geometry" stroke="#000000" stroke-opacity="0.000" fill="#4C404B" font-size="2.82" font-family="'PT Sans Caption','Helvetica Neue','Helvetica',sans-serif" id="img-bd0db3e8-121">
          <g class="marker" id="img-bd0db3e8-122">
            <g transform="translate(48.72,28.54)" id="img-bd0db3e8-123">
              <g class="primitive">
                <text text-anchor="middle" dy="-0em" transform="translate(0,-1.9)">0.1473</text>
              </g>
            </g>
          </g>
        </g>
        <g class="geometry" stroke="#000000" stroke-opacity="0.000" fill="#4C404B" font-size="2.82" font-family="'PT Sans Caption','Helvetica Neue','Helvetica',sans-serif" id="img-bd0db3e8-124">
          <g class="marker" id="img-bd0db3e8-125">
            <g transform="translate(45.53,28.54)" id="img-bd0db3e8-126">
              <g class="primitive">
                <text dy="0.35em" transform="translate(1.9,0)"></text>
              </g>
            </g>
            <g transform="translate(51.91,28.54)" id="img-bd0db3e8-127">
              <g class="primitive">
                <text dy="0.35em" transform="translate(1.9,0)">Mg K-L3 + 1 other</text>
              </g>
            </g>
          </g>
        </g>
        <g class="geometry" stroke-width="0.3" id="img-bd0db3e8-128">
          <g class="color_RGBA{Float32}(0.5019608f0,0.5019608f0,0.5019608f0,1.0f0)" id="img-bd0db3e8-129">
            <g fill-opacity="1" stroke="#FFFFFF" fill="#808080" class="marker" id="img-bd0db3e8-130">
              <g transform="translate(51.91,28.54)" id="img-bd0db3e8-131">
                <circle cx="0" cy="0" r="0.9" class="primitive"/>
              </g>
            </g>
            <g fill-opacity="0" ilabel="2RGBA{Float32}(0.5019608f0,0.5019608f0,0.5019608f0,1.0f0)" class="datatip" id="img-bd0db3e8-132">
              <g transform="translate(51.91,28.54)" id="img-bd0db3e8-133">
                <g class="primitive">
                  <text dy="-1.2em">142<tspan x="0" dy="1.1000em">15384.604170511937</tspan></text>
                </g>
              </g>
            </g>
          </g>
          <g class="color_RGBA{Float32}(0.5019608f0,0.5019608f0,0.5019608f0,1.0f0)" id="img-bd0db3e8-134">
            <g fill-opacity="1" stroke="#FFFFFF" fill="#808080" class="marker" id="img-bd0db3e8-135">
              <g transform="translate(45.53,28.54)" id="img-bd0db3e8-136">
                <circle cx="0" cy="0" r="0.9" class="primitive"/>
              </g>
            </g>
            <g fill-opacity="0" ilabel="1RGBA{Float32}(0.5019608f0,0.5019608f0,0.5019608f0,1.0f0)" class="datatip" id="img-bd0db3e8-137">
              <g transform="translate(45.53,28.54)" id="img-bd0db3e8-138">
                <g class="primitive">
                  <text dy="-1.2em">110<tspan x="0" dy="1.1000em">15384.604170511937</tspan></text>
                </g>
              </g>
            </g>
          </g>
        </g>
        <g stroke-width="0.3" fill="#000000" fill-opacity="0.000" class="geometry" id="img-bd0db3e8-139">
          <g class="color_RGB{N0f8}(0.502,0.502,0.502)" stroke-dasharray="none" stroke-opacity="1" stroke="#808080" id="img-bd0db3e8-140">
            <g transform="translate(48.72,28.54)" id="img-bd0db3e8-141">
              <path fill="none" d="M-3.19,0 L3.19,0 " class="primitive"/>
            </g>
          </g>
        </g>
        <g class="geometry" stroke="#000000" stroke-opacity="0.000" fill="#4C404B" font-size="2.82" font-family="'PT Sans Caption','Helvetica Neue','Helvetica',sans-serif" id="img-bd0db3e8-142">
          <g class="marker" id="img-bd0db3e8-143">
            <g transform="translate(37.74,33.76)" id="img-bd0db3e8-144">
              <g class="primitive">
                <text text-anchor="middle" dy="-0em" transform="translate(0,-1.9)">0.0425</text>
              </g>
            </g>
          </g>
        </g>
        <g class="geometry" stroke="#000000" stroke-opacity="0.000" fill="#4C404B" font-size="2.82" font-family="'PT Sans Caption','Helvetica Neue','Helvetica',sans-serif" id="img-bd0db3e8-145">
          <g class="marker" id="img-bd0db3e8-146">
            <g transform="translate(33.55,33.76)" id="img-bd0db3e8-147">
              <g class="primitive">
                <text dy="0.35em" transform="translate(1.9,0)"></text>
              </g>
            </g>
            <g transform="translate(41.94,33.76)" id="img-bd0db3e8-148">
              <g class="primitive">
                <text dy="0.35em" transform="translate(1.9,0)">Fe L3-M5 + 13 others</text>
              </g>
            </g>
          </g>
        </g>
        <g class="geometry" stroke-width="0.3" id="img-bd0db3e8-149">
          <g class="color_RGBA{Float32}(0.5019608f0,0.5019608f0,0.5019608f0,1.0f0)" id="img-bd0db3e8-150">
            <g fill-opacity="1" stroke="#FFFFFF" fill="#808080" class="marker" id="img-bd0db3e8-151">
              <g transform="translate(41.94,33.76)" id="img-bd0db3e8-152">
                <circle cx="0" cy="0" r="0.9" class="primitive"/>
              </g>
            </g>
            <g fill-opacity="0" ilabel="2RGBA{Float32}(0.5019608f0,0.5019608f0,0.5019608f0,1.0f0)" class="datatip" id="img-bd0db3e8-153">
              <g transform="translate(41.94,33.76)" id="img-bd0db3e8-154">
                <g class="primitive">
                  <text dy="-1.2em">92<tspan x="0" dy="1.1000em">12820.503475426613</tspan></text>
                </g>
              </g>
            </g>
          </g>
          <g class="color_RGBA{Float32}(0.5019608f0,0.5019608f0,0.5019608f0,1.0f0)" id="img-bd0db3e8-155">
            <g fill-opacity="1" stroke="#FFFFFF" fill="#808080" class="marker" id="img-bd0db3e8-156">
              <g transform="translate(33.55,33.76)" id="img-bd0db3e8-157">
                <circle cx="0" cy="0" r="0.9" class="primitive"/>
              </g>
            </g>
            <g fill-opacity="0" ilabel="1RGBA{Float32}(0.5019608f0,0.5019608f0,0.5019608f0,1.0f0)" class="datatip" id="img-bd0db3e8-158">
              <g transform="translate(33.55,33.76)" id="img-bd0db3e8-159">
                <g class="primitive">
                  <text dy="-1.2em">50<tspan x="0" dy="1.1000em">12820.503475426613</tspan></text>
                </g>
              </g>
            </g>
          </g>
        </g>
        <g stroke-width="0.3" fill="#000000" fill-opacity="0.000" class="geometry" id="img-bd0db3e8-160">
          <g class="color_RGB{N0f8}(0.502,0.502,0.502)" stroke-dasharray="none" stroke-opacity="1" stroke="#808080" id="img-bd0db3e8-161">
            <g transform="translate(37.74,33.76)" id="img-bd0db3e8-162">
              <path fill="none" d="M-4.19,0 L4.19,0 " class="primitive"/>
            </g>
          </g>
        </g>
        <g class="geometry" stroke="#000000" stroke-opacity="0.000" fill="#4C404B" font-size="2.82" font-family="'PT Sans Caption','Helvetica Neue','Helvetica',sans-serif" id="img-bd0db3e8-163">
          <g class="marker" id="img-bd0db3e8-164">
            <g transform="translate(34.05,38.98)" id="img-bd0db3e8-165">
              <g class="primitive">
                <text text-anchor="middle" dy="-0em" transform="translate(0,-1.9)">0.6460</text>
              </g>
            </g>
          </g>
        </g>
        <g class="geometry" stroke="#000000" stroke-opacity="0.000" fill="#4C404B" font-size="2.82" font-family="'PT Sans Caption','Helvetica Neue','Helvetica',sans-serif" id="img-bd0db3e8-166">
          <g class="marker" id="img-bd0db3e8-167">
            <g transform="translate(31.36,38.98)" id="img-bd0db3e8-168">
              <g class="primitive">
                <text dy="0.35em" transform="translate(1.9,0)"></text>
              </g>
            </g>
            <g transform="translate(36.75,38.98)" id="img-bd0db3e8-169">
              <g class="primitive">
                <text dy="0.35em" transform="translate(1.9,0)">O K-L3 + 1 other</text>
              </g>
            </g>
          </g>
        </g>
        <g class="geometry" stroke-width="0.3" id="img-bd0db3e8-170">
          <g class="color_RGBA{Float32}(0.5019608f0,0.5019608f0,0.5019608f0,1.0f0)" id="img-bd0db3e8-171">
            <g fill-opacity="1" stroke="#FFFFFF" fill="#808080" class="marker" id="img-bd0db3e8-172">
              <g transform="translate(36.75,38.98)" id="img-bd0db3e8-173">
                <circle cx="0" cy="0" r="0.9" class="primitive"/>
              </g>
            </g>
            <g fill-opacity="0" ilabel="2RGBA{Float32}(0.5019608f0,0.5019608f0,0.5019608f0,1.0f0)" class="datatip" id="img-bd0db3e8-174">
              <g transform="translate(36.75,38.98)" id="img-bd0db3e8-175">
                <g class="primitive">
                  <text dy="-1.2em">66<tspan x="0" dy="1.1000em">10256.40278034129</tspan></text>
                </g>
              </g>
            </g>
          </g>
          <g class="color_RGBA{Float32}(0.5019608f0,0.5019608f0,0.5019608f0,1.0f0)" id="img-bd0db3e8-176">
            <g fill-opacity="1" stroke="#FFFFFF" fill="#808080" class="marker" id="img-bd0db3e8-177">
              <g transform="translate(31.36,38.98)" id="img-bd0db3e8-178">
                <circle cx="0" cy="0" r="0.9" class="primitive"/>
              </g>
            </g>
            <g fill-opacity="0" ilabel="1RGBA{Float32}(0.5019608f0,0.5019608f0,0.5019608f0,1.0f0)" class="datatip" id="img-bd0db3e8-179">
              <g transform="translate(31.36,38.98)" id="img-bd0db3e8-180">
                <g class="primitive">
                  <text dy="-1.2em">39<tspan x="0" dy="1.1000em">10256.40278034129</tspan></text>
                </g>
              </g>
            </g>
          </g>
        </g>
        <g stroke-width="0.3" fill="#000000" fill-opacity="0.000" class="geometry" id="img-bd0db3e8-181">
          <g class="color_RGB{N0f8}(0.502,0.502,0.502)" stroke-dasharray="none" stroke-opacity="1" stroke="#808080" id="img-bd0db3e8-182">
            <g transform="translate(34.05,38.98)" id="img-bd0db3e8-183">
              <path fill="none" d="M-2.69,0 L2.69,0 " class="primitive"/>
            </g>
          </g>
        </g>
        <g stroke-width="0.3" fill="#000000" fill-opacity="0.000" class="geometry" id="img-bd0db3e8-184">
          <g class="color_RGB{N0f8}(0.063,0.306,0.545)" stroke-dasharray="none" stroke-opacity="1" stroke="#104E8B" id="img-bd0db3e8-185">
            <g transform="translate(137.58,45.63)" id="img-bd0db3e8-186">
              <path fill="none" d="M-113.81,14.23 L-113.61,14.23 -113.61,14.23 -113.41,14.23 -113.41,14.22 -113.21,14.22 -113.21,14.23 -113.01,14.23 -113.01,14.23 -112.81,14.23 -112.81,14.23 -112.61,14.23 -112.61,14.23 -112.41,14.23 -112.41,14.23 -112.21,14.23 -112.21,14.23 -112.01,14.23 -112.01,14.23 -111.81,14.23 -111.81,14.23 -111.61,14.23 -111.61,14.23 -111.42,14.23 -111.42,14.23 -111.22,14.23 -111.22,14.22 -111.02,14.22 -111.02,14.22 -110.82,14.22 -110.82,14.21 -110.62,14.21 -110.62,14.18 -110.42,14.18 -110.42,14.13 -110.22,14.13 -110.22,14.06 -110.02,14.06 -110.02,13.89 -109.82,13.89 -109.82,13.62 -109.62,13.62 -109.62,13.07 -109.42,13.07 -109.42,12.01 -109.22,12.01 -109.22,10.19 -109.02,10.19 -109.02,7.37 -108.82,7.37 -108.82,4.52 -108.62,4.52 -108.62,1.97 -108.42,1.97 -108.42,0.88 -108.22,0.88 -108.22,1.85 -108.02,1.85 -108.02,4.16 -107.82,4.16 -107.82,6.91 -107.62,6.91 -107.62,8.71 -107.42,8.71 -107.42,10.16 -107.22,10.16 -107.22,10.75 -107.02,10.75 -107.02,10.85 -106.82,10.85 -106.82,10.89 -106.63,10.89 -106.63,10.78 -106.43,10.78 -106.43,10.85 -106.23,10.85 -106.23,10.4 -106.03,10.4 -106.03,10.28 -105.83,10.28 -105.83,9.79 -105.63,9.79 -105.63,9.2 -105.43,9.2 -105.43,8 -105.23,8 -105.23,5.97 -105.03,5.97 -105.03,1.33 -104.83,1.33 -104.83,-7.39 -104.63,-7.39 -104.63,-22.97 -104.43,-22.97 -104.43,-49.8 -104.23,-49.8 -104.23,-91.06 -104.03,-91.06 -104.03,-142.47 -103.83,-142.47 -103.83,-196.37 -103.63,-196.37 -103.63,-235.37 -103.43,-235.37 -103.43,-243.05 -103.23,-243.05 -103.23,-218.62 -103.03,-218.62 -103.03,-170.34 -102.83,-170.34 -102.83,-113.3 -102.63,-113.3 -102.63,-63.75 -102.43,-63.75 -102.43,-28.06 -102.23,-28.06 -102.23,-8.31 -102.03,-8.31 -102.03,1.7 -101.84,1.7 -101.84,6.29 -101.64,6.29 -101.64,7.73 -101.44,7.73 -101.44,8.31 -101.24,8.31 -101.24,8.55 -101.04,8.55 -101.04,7.93 -100.84,7.93 -100.84,7.12 -100.64,7.12 -100.64,5.67 -100.44,5.67 -100.44,3.37 -100.24,3.37 -100.24,0.77 -100.04,0.77 -100.04,-1.91 -99.84,-1.91 -99.84,-3.37 -99.64,-3.37 -99.64,-3.47 -99.44,-3.47 -99.44,-2.38 -99.24,-2.38 -99.24,0.29 -99.04,0.29 -99.04,2.9 -98.84,2.9 -98.84,4.98 -98.64,4.98 -98.64,6.67 -98.44,6.67 -98.44,7.85 -98.24,7.85 -98.24,8.16 -98.04,8.16 -98.04,8.24 -97.84,8.24 -97.84,8.45 -97.64,8.45 -97.64,8.52 -97.44,8.52 -97.44,8.52 -97.25,8.52 -97.25,8.19 -97.05,8.19 -97.05,8.25 -96.85,8.25 -96.85,8.01 -96.65,8.01 -96.65,7.74 -96.45,7.74 -96.45,7.92 -96.25,7.92 -96.25,7.76 -96.05,7.76 -96.05,7.44 -95.85,7.44 -95.85,7.46 -95.65,7.46 -95.65,7.53 -95.45,7.53 -95.45,7.23 -95.25,7.23 -95.25,7.06 -95.05,7.06 -95.05,6.77 -94.85,6.77 -94.85,6.74 -94.65,6.74 -94.65,6.18 -94.45,6.18 -94.45,6.39 -94.25,6.39 -94.25,6.07 -94.05,6.07 -94.05,5.66 -93.85,5.66 -93.85,5.46 -93.65,5.46 -93.65,4.93 -93.45,4.93 -93.45,4.48 -93.25,4.48 -93.25,4.42 -93.05,4.42 -93.05,4.39 -92.85,4.39 -92.85,4.29 -92.65,4.29 -92.65,3.76 -92.46,3.76 -92.46,3.76 -92.26,3.76 -92.26,3.51 -92.06,3.51 -92.06,3.78 -91.86,3.78 -91.86,3.31 -91.66,3.31 -91.66,3.05 -91.46,3.05 -91.46,2.97 -91.26,2.97 -91.26,2.61 -91.06,2.61 -91.06,1.66 -90.86,1.66 -90.86,0.64 -90.66,0.64 -90.66,-1.73 -90.46,-1.73 -90.46,-6.65 -90.26,-6.65 -90.26,-16.09 -90.06,-16.09 -90.06,-31.72 -89.86,-31.72 -89.86,-58.1 -89.66,-58.1 -89.66,-94.46 -89.46,-94.46 -89.46,-140.08 -89.26,-140.08 -89.26,-185.65 -89.06,-185.65 -89.06,-222.26 -88.86,-222.26 -88.86,-241.02 -88.66,-241.02 -88.66,-236.13 -88.46,-236.13 -88.46,-210.52 -88.26,-210.52 -88.26,-169.55 -88.06,-169.55 -88.06,-124.12 -87.86,-124.12 -87.86,-82.7 -87.67,-82.7 -87.67,-50.74 -87.47,-50.74 -87.47,-27.3 -87.27,-27.3 -87.27,-13.47 -87.07,-13.47 -87.07,-4.88 -86.87,-4.88 -86.87,-0.92 -86.67,-0.92 -86.67,1.23 -86.47,1.23 -86.47,1.69 -86.27,1.69 -86.27,2.07 -86.07,2.07 -86.07,1.19 -85.87,1.19 -85.87,-0.57 -85.67,-0.57 -85.67,-3.85 -85.47,-3.85 -85.47,-10.5 -85.27,-10.5 -85.27,-20.73 -85.07,-20.73 -85.07,-35.34 -84.87,-35.34 -84.87,-52.88 -84.67,-52.88 -84.67,-71.97 -84.47,-71.97 -84.47,-87.93 -84.27,-87.93 -84.27,-97.77 -84.07,-97.77 -84.07,-99.37 -83.87,-99.37 -83.87,-92.58 -83.67,-92.58 -83.67,-77.27 -83.47,-77.27 -83.47,-60.09 -83.27,-60.09 -83.27,-42.33 -83.07,-42.33 -83.07,-27.86 -82.88,-27.86 -82.88,-16.35 -82.68,-16.35 -82.68,-9.75 -82.48,-9.75 -82.48,-4.7 -82.28,-4.7 -82.28,-1.65 -82.08,-1.65 -82.08,-0.42 -81.88,-0.42 -81.88,0.75 -81.68,0.75 -81.68,1.42 -81.48,1.42 -81.48,0.33 -81.28,0.33 -81.28,-1.22 -81.08,-1.22 -81.08,-5.47 -80.88,-5.47 -80.88,-13.99 -80.68,-13.99 -80.68,-29.77 -80.48,-29.77 -80.48,-58.96 -80.28,-58.96 -80.28,-101.17 -80.08,-101.17 -80.08,-161.37 -79.88,-161.37 -79.88,-236.16 -79.68,-236.16 -79.68,-315.94 -79.48,-315.94 -79.48,-386.43 -79.28,-386.43 -79.28,-442.81 -79.08,-442.81 -79.08,-459.47 -78.88,-459.47 -78.88,-438.93 -78.68,-438.93 -78.68,-386.18 -78.48,-386.18 -78.48,-314.3 -78.29,-314.3 -78.29,-238.86 -78.09,-238.86 -78.09,-169.57 -77.89,-169.57 -77.89,-114.19 -77.69,-114.19 -77.69,-73.5 -77.49,-73.5 -77.49,-46.95 -77.29,-46.95 -77.29,-30.88 -77.09,-30.88 -77.09,-21.15 -76.89,-21.15 -76.89,-14.43 -76.69,-14.43 -76.69,-9.21 -76.49,-9.21 -76.49,-4.77 -76.29,-4.77 -76.29,-1.53 -76.09,-1.53 -76.09,1.09 -75.89,1.09 -75.89,2.68 -75.69,2.68 -75.69,3.36 -75.49,3.36 -75.49,3.85 -75.29,3.85 -75.29,4.58 -75.09,4.58 -75.09,4.9 -74.89,4.9 -74.89,4.75 -74.69,4.75 -74.69,4.96 -74.49,4.96 -74.49,5.21 -74.29,5.21 -74.29,5.41 -74.09,5.41 -74.09,5.42 -73.89,5.42 -73.89,5.73 -73.69,5.73 -73.69,6.06 -73.5,6.06 -73.5,5.96 -73.3,5.96 -73.3,6.42 -73.1,6.42 -73.1,6.47 -72.9,6.47 -72.9,6.45 -72.7,6.45 -72.7,6.37 -72.5,6.37 -72.5,6.5 -72.3,6.5 -72.3,6.61 -72.1,6.61 -72.1,6.36 -71.9,6.36 -71.9,6.36 -71.7,6.36 -71.7,6.46 -71.5,6.46 -71.5,6.44 -71.3,6.44 -71.3,6.75 -71.1,6.75 -71.1,6.19 -70.9,6.19 -70.9,6.42 -70.7,6.42 -70.7,6.24 -70.5,6.24 -70.5,6.46 -70.3,6.46 -70.3,6.47 -70.1,6.47 -70.1,6.12 -69.9,6.12 -69.9,6.03 -69.7,6.03 -69.7,5.86 -69.5,5.86 -69.5,5.8 -69.3,5.8 -69.3,5.7 -69.1,5.7 -69.1,5.6 -68.9,5.6 -68.9,5.54 -68.71,5.54 -68.71,5.62 -68.51,5.62 -68.51,5.48 -68.31,5.48 -68.31,5.39 -68.11,5.39 -68.11,5.79 -67.91,5.79 -67.91,5.92 -67.71,5.92 -67.71,6.02 -67.51,6.02 -67.51,5.94 -67.31,5.94 -67.31,6.03 -67.11,6.03 -67.11,6.11 -66.91,6.11 -66.91,6.03 -66.71,6.03 -66.71,6.31 -66.51,6.31 -66.51,6.28 -66.31,6.28 -66.31,6.31 -66.11,6.31 -66.11,6.3 -65.91,6.3 -65.91,6.32 -65.71,6.32 -65.71,6.35 -65.51,6.35 -65.51,6.43 -65.31,6.43 -65.31,6.11 -65.11,6.11 -65.11,6.37 -64.91,6.37 -64.91,6.35 -64.71,6.35 -64.71,6.09 -64.51,6.09 -64.51,6.27 -64.31,6.27 -64.31,6.27 -64.11,6.27 -64.11,6.2 -63.92,6.2 -63.92,6.4 -63.72,6.4 -63.72,6.21 -63.52,6.21 -63.52,6.31 -63.32,6.31 -63.32,6 -63.12,6 -63.12,6.42 -62.92,6.42 -62.92,6.19 -62.72,6.19 -62.72,6.08 -62.52,6.08 -62.52,6.75 -62.32,6.75 -62.32,6.23 -62.12,6.23 -62.12,6.46 -61.92,6.46 -61.92,6.32 -61.72,6.32 -61.72,6.42 -61.52,6.42 -61.52,6.41 -61.32,6.41 -61.32,6.25 -61.12,6.25 -61.12,6.52 -60.92,6.52 -60.92,6.4 -60.72,6.4 -60.72,6.42 -60.52,6.42 -60.52,6.43 -60.32,6.43 -60.32,6.56 -60.12,6.56 -60.12,6.44 -59.92,6.44 -59.92,6.55 -59.72,6.55 -59.72,6.57 -59.52,6.57 -59.52,6.26 -59.32,6.26 -59.32,6.54 -59.13,6.54 -59.13,6.53 -58.93,6.53 -58.93,6.56 -58.73,6.56 -58.73,6.69 -58.53,6.69 -58.53,6.51 -58.33,6.51 -58.33,6.44 -58.13,6.44 -58.13,6.81 -57.93,6.81 -57.93,6.72 -57.73,6.72 -57.73,6.72 -57.53,6.72 -57.53,6.64 -57.33,6.64 -57.33,6.54 -57.13,6.54 -57.13,6.61 -56.93,6.61 -56.93,6.84 -56.73,6.84 -56.73,6.73 -56.53,6.73 -56.53,6.5 -56.33,6.5 -56.33,6.77 -56.13,6.77 -56.13,6.58 -55.93,6.58 -55.93,6.51 -55.73,6.51 -55.73,6.48 -55.53,6.48 -55.53,6.56 -55.33,6.56 -55.33,6.76 -55.13,6.76 -55.13,6.52 -54.93,6.52 -54.93,6.43 -54.73,6.43 -54.73,6.25 -54.54,6.25 -54.54,6.28 -54.34,6.28 -54.34,6.31 -54.14,6.31 -54.14,6.34 -53.94,6.34 -53.94,6.5 -53.74,6.5 -53.74,6.46 -53.54,6.46 -53.54,6.66 -53.34,6.66 -53.34,6.65 -53.14,6.65 -53.14,6.67 -52.94,6.67 -52.94,6.92 -52.74,6.92 -52.74,6.73 -52.54,6.73 -52.54,6.88 -52.34,6.88 -52.34,6.94 -52.14,6.94 -52.14,6.96 -51.94,6.96 -51.94,6.93 -51.74,6.93 -51.74,7.12 -51.54,7.12 -51.54,7.15 -51.34,7.15 -51.34,6.89 -51.14,6.89 -51.14,7.07 -50.94,7.07 -50.94,6.93 -50.74,6.93 -50.74,6.78 -50.54,6.78 -50.54,6.91 -50.34,6.91 -50.34,6.92 -50.14,6.92 -50.14,6.94 -49.94,6.94 -49.94,7.08 -49.75,7.08 -49.75,6.92 -49.55,6.92 -49.55,6.81 -49.35,6.81 -49.35,7.12 -49.15,7.12 -49.15,6.97 -48.95,6.97 -48.95,6.71 -48.75,6.71 -48.75,7.3 -48.55,7.3 -48.55,6.97 -48.35,6.97 -48.35,7.25 -48.15,7.25 -48.15,7.09 -47.95,7.09 -47.95,7.06 -47.75,7.06 -47.75,7.1 -47.55,7.1 -47.55,7.32 -47.35,7.32 -47.35,7.56 -47.15,7.56 -47.15,7.49 -46.95,7.49 -46.95,7.38 -46.75,7.38 -46.75,7.26 -46.55,7.26 -46.55,7.3 -46.35,7.3 -46.35,7.43 -46.15,7.43 -46.15,7.56 -45.95,7.56 -45.95,7.27 -45.75,7.27 -45.75,7.49 -45.55,7.49 -45.55,7.57 -45.35,7.57 -45.35,7.44 -45.15,7.44 -45.15,7.24 -44.96,7.24 -44.96,7.12 -44.76,7.12 -44.76,7.27 -44.56,7.27 -44.56,7.2 -44.36,7.2 -44.36,7.08 -44.16,7.08 -44.16,6.88 -43.96,6.88 -43.96,7.01 -43.76,7.01 -43.76,6.6 -43.56,6.6 -43.56,6.5 -43.36,6.5 -43.36,6.37 -43.16,6.37 -43.16,6.07 -42.96,6.07 -42.96,5.35 -42.76,5.35 -42.76,4.32 -42.56,4.32 -42.56,2.86 -42.36,2.86 -42.36,-0.38 -42.16,-0.38 -42.16,-4.61 -41.96,-4.61 -41.96,-10.95 -41.76,-10.95 -41.76,-20.44 -41.56,-20.44 -41.56,-32.68 -41.36,-32.68 -41.36,-48.65 -41.16,-48.65 -41.16,-67.08 -40.96,-67.08 -40.96,-86.84 -40.76,-86.84 -40.76,-105.09 -40.56,-105.09 -40.56,-122.98 -40.36,-122.98 -40.36,-135.03 -40.17,-135.03 -40.17,-139.97 -39.97,-139.97 -39.97,-139.99 -39.77,-139.99 -39.77,-131.4 -39.57,-131.4 -39.57,-117.34 -39.37,-117.34 -39.37,-101.1 -39.17,-101.1 -39.17,-80.59 -38.97,-80.59 -38.97,-61.86 -38.77,-61.86 -38.77,-42.98 -38.57,-42.98 -38.57,-28.58 -38.37,-28.58 -38.37,-16.94 -38.17,-16.94 -38.17,-8.33 -37.97,-8.33 -37.97,-2.49 -37.77,-2.49 -37.77,1.82 -37.57,1.82 -37.57,4.49 -37.37,4.49 -37.37,5.65 -37.17,5.65 -37.17,7.04 -36.97,7.04 -36.97,7.23 -36.77,7.23 -36.77,7.64 -36.57,7.64 -36.57,7.6 -36.37,7.6 -36.37,7.6 -36.17,7.6 -36.17,7.18 -35.97,7.18 -35.97,7.18 -35.77,7.18 -35.77,6.34 -35.58,6.34 -35.58,5.67 -35.38,5.67 -35.38,4.57 -35.18,4.57 -35.18,2.81 -34.98,2.81 -34.98,1.27 -34.78,1.27 -34.78,-0.83 -34.58,-0.83 -34.58,-3.19 -34.38,-3.19 -34.38,-5.14 -34.18,-5.14 -34.18,-7.09 -33.98,-7.09 -33.98,-7.99 -33.78,-7.99 -33.78,-9.31 -33.58,-9.31 -33.58,-9.17 -33.38,-9.17 -33.38,-8.44 -33.18,-8.44 -33.18,-7.17 -32.98,-7.17 -32.98,-5.4 -32.78,-5.4 -32.78,-3.22 -32.58,-3.22 -32.58,-0.75 -32.38,-0.75 -32.38,1.5 -32.18,1.5 -32.18,3.34 -31.98,3.34 -31.98,5.11 -31.78,5.11 -31.78,6.29 -31.58,6.29 -31.58,7.25 -31.38,7.25 -31.38,7.74 -31.18,7.74 -31.18,8.35 -30.98,8.35 -30.98,8.92 -30.79,8.92 -30.79,8.72 -30.59,8.72 -30.59,8.86 -30.39,8.86 -30.39,8.79 -30.19,8.79 -30.19,9.06 -29.99,9.06 -29.99,9.09 -29.79,9.09 -29.79,9.01 -29.59,9.01 -29.59,9.09 -29.39,9.09 -29.39,8.98 -29.19,8.98 -29.19,9.14 -28.99,9.14 -28.99,9.1 -28.79,9.1 -28.79,9.28 -28.59,9.28 -28.59,9.06 -28.39,9.06 -28.39,9.45 -28.19,9.45 -28.19,9.39 -27.99,9.39 -27.99,9.36 -27.79,9.36 -27.79,9.33 -27.59,9.33 -27.59,9.35 -27.39,9.35 -27.39,9.27 -27.19,9.27 -27.19,9.6 -26.99,9.6 -26.99,9.32 -26.79,9.32 -26.79,9.46 -26.59,9.46 -26.59,9.5 -26.39,9.5 -26.39,9.33 -26.19,9.33 -26.19,9.47 -26,9.47 -26,9.67 -25.8,9.67 -25.8,9.45 -25.6,9.45 -25.6,9.4 -25.4,9.4 -25.4,9.64 -25.2,9.64 -25.2,9.45 -25,9.45 -25,9.48 -24.8,9.48 -24.8,9.73 -24.6,9.73 -24.6,9.57 -24.4,9.57 -24.4,9.57 -24.2,9.57 -24.2,9.6 -24,9.6 -24,9.49 -23.8,9.49 -23.8,9.62 -23.6,9.62 -23.6,9.43 -23.4,9.43 -23.4,9.7 -23.2,9.7 -23.2,9.67 -23,9.67 -23,9.72 -22.8,9.72 -22.8,9.62 -22.6,9.62 -22.6,9.8 -22.4,9.8 -22.4,9.59 -22.2,9.59 -22.2,9.63 -22,9.63 -22,9.71 -21.8,9.71 -21.8,9.54 -21.6,9.54 -21.6,9.41 -21.4,9.41 -21.4,9.66 -21.21,9.66 -21.21,9.69 -21.01,9.69 -21.01,9.53 -20.81,9.53 -20.81,9.77 -20.61,9.77 -20.61,9.88 -20.41,9.88 -20.41,9.78 -20.21,9.78 -20.21,9.71 -20.01,9.71 -20.01,9.74 -19.81,9.74 -19.81,9.6 -19.61,9.6 -19.61,9.78 -19.41,9.78 -19.41,9.77 -19.21,9.77 -19.21,9.97 -19.01,9.97 -19.01,9.96 -18.81,9.96 -18.81,9.93 -18.61,9.93 -18.61,9.96 -18.41,9.96 -18.41,9.94 -18.21,9.94 -18.21,9.83 -18.01,9.83 -18.01,10.02 -17.81,10.02 -17.81,10.05 -17.61,10.05 -17.61,10.05 -17.41,10.05 -17.41,10.23 -17.21,10.23 -17.21,9.96 -17.01,9.96 -17.01,9.91 -16.81,9.91 -16.81,9.98 -16.61,9.98 -16.61,10.12 -16.42,10.12 -16.42,10.02 -16.22,10.02 -16.22,9.9 -16.02,9.9 -16.02,10.03 -15.82,10.03 -15.82,9.91 -15.62,9.91 -15.62,9.96 -15.42,9.96 -15.42,9.99 -15.22,9.99 -15.22,10.01 -15.02,10.01 -15.02,9.91 -14.82,9.91 -14.82,10.12 -14.62,10.12 -14.62,10.01 -14.42,10.01 -14.42,9.96 -14.22,9.96 -14.22,9.95 -14.02,9.95 -14.02,10 -13.82,10 -13.82,10 -13.62,10 -13.62,10.26 -13.42,10.26 -13.42,10.24 -13.22,10.24 -13.22,10.16 -13.02,10.16 -13.02,10.26 -12.82,10.26 -12.82,10.19 -12.62,10.19 -12.62,10.4 -12.42,10.4 -12.42,10.19 -12.22,10.19 -12.22,10.21 -12.02,10.21 -12.02,10.12 -11.83,10.12 -11.83,10.22 -11.63,10.22 -11.63,10.25 -11.43,10.25 -11.43,10.24 -11.23,10.24 -11.23,10.27 -11.03,10.27 -11.03,10.38 -10.83,10.38 -10.83,10.33 -10.63,10.33 -10.63,10.17 -10.43,10.17 -10.43,10.25 -10.23,10.25 -10.23,10.15 -10.03,10.15 -10.03,10.26 -9.83,10.26 -9.83,10.32 -9.63,10.32 -9.63,10.3 -9.43,10.3 -9.43,10.33 -9.23,10.33 -9.23,10.22 -9.03,10.22 -9.03,10.39 -8.83,10.39 -8.83,10.31 -8.63,10.31 -8.63,10.35 -8.43,10.35 -8.43,10.3 -8.23,10.3 -8.23,10.48 -8.03,10.48 -8.03,10.41 -7.83,10.41 -7.83,10.24 -7.63,10.24 -7.63,10.4 -7.43,10.4 -7.43,10.51 -7.23,10.51 -7.23,10.48 -7.04,10.48 -7.04,10.34 -6.84,10.34 -6.84,10.36 -6.64,10.36 -6.64,10.3 -6.44,10.3 -6.44,10.25 -6.24,10.25 -6.24,10.08 -6.04,10.08 -6.04,10.18 -5.84,10.18 -5.84,10.15 -5.64,10.15 -5.64,10.29 -5.44,10.29 -5.44,10.27 -5.24,10.27 -5.24,10.28 -5.04,10.28 -5.04,10.24 -4.84,10.24 -4.84,10.28 -4.64,10.28 -4.64,10.28 -4.44,10.28 -4.44,10.25 -4.24,10.25 -4.24,10.54 -4.04,10.54 -4.04,10.54 -3.84,10.54 -3.84,10.46 -3.64,10.46 -3.64,10.5 -3.44,10.5 -3.44,10.62 -3.24,10.62 -3.24,10.56 -3.04,10.56 -3.04,10.67 -2.84,10.67 -2.84,10.61 -2.64,10.61 -2.64,10.53 -2.44,10.53 -2.44,10.61 -2.25,10.61 -2.25,10.72 -2.05,10.72 -2.05,10.65 -1.85,10.65 -1.85,10.68 -1.65,10.68 -1.65,10.66 -1.45,10.66 -1.45,10.65 -1.25,10.65 -1.25,10.91 -1.05,10.91 -1.05,10.77 -0.85,10.77 -0.85,10.86 -0.65,10.86 -0.65,10.86 -0.45,10.86 -0.45,10.76 -0.25,10.76 -0.25,10.84 -0.05,10.84 -0.05,10.72 0.15,10.72 0.15,10.75 0.35,10.75 0.35,10.89 0.55,10.89 0.55,10.69 0.75,10.69 0.75,10.9 0.95,10.9 0.95,10.68 1.15,10.68 1.15,10.92 1.35,10.92 1.35,10.89 1.55,10.89 1.55,10.88 1.75,10.88 1.75,10.78 1.95,10.78 1.95,10.84 2.15,10.84 2.15,10.67 2.35,10.67 2.35,10.75 2.54,10.75 2.54,10.72 2.74,10.72 2.74,10.57 2.94,10.57 2.94,10.68 3.14,10.68 3.14,10.7 3.34,10.7 3.34,10.45 3.54,10.45 3.54,10.55 3.74,10.55 3.74,10.63 3.94,10.63 3.94,10.5 4.14,10.5 4.14,10.67 4.34,10.67 4.34,10.67 4.54,10.67 4.54,10.69 4.74,10.69 4.74,10.78 4.94,10.78 4.94,10.87 5.14,10.87 5.14,10.86 5.34,10.86 5.34,10.8 5.54,10.8 5.54,10.85 5.74,10.85 5.74,11.11 5.94,11.11 5.94,10.9 6.14,10.9 6.14,11.03 6.34,11.03 6.34,11.04 6.54,11.04 6.54,11.02 6.74,11.02 6.74,10.95 6.94,10.95 6.94,11.02 7.13,11.02 7.13,11.03 7.33,11.03 7.33,11.2 7.53,11.2 7.53,11.08 7.73,11.08 7.73,11.14 7.93,11.14 7.93,11.16 8.13,11.16 8.13,11.1 8.33,11.1 8.33,11.13 8.53,11.13 8.53,10.99 8.73,10.99 8.73,11.32 8.93,11.32 8.93,11.15 9.13,11.15 9.13,11.16 9.33,11.16 9.33,10.96 9.53,10.96 9.53,10.93 9.73,10.93 9.73,10.98 9.93,10.98 9.93,11.1 10.13,11.1 10.13,11.09 10.33,11.09 10.33,10.7 10.53,10.7 10.53,10.63 10.73,10.63 10.73,10.26 10.93,10.26 10.93,9.78 11.13,9.78 11.13,9.1 11.33,9.1 11.33,8.4 11.53,8.4 11.53,6.9 11.73,6.9 11.73,4.91 11.92,4.91 11.92,2.88 12.12,2.88 12.12,0.18 12.32,0.18 12.32,-3.12 12.52,-3.12 12.52,-6.83 12.72,-6.83 12.72,-10.43 12.92,-10.43 12.92,-14.65 13.12,-14.65 13.12,-18.87 13.32,-18.87 13.32,-22.1 13.52,-22.1 13.52,-24.51 13.72,-24.51 13.72,-26.7 13.92,-26.7 13.92,-27.13 14.12,-27.13 14.12,-26 14.32,-26 14.32,-24.84 14.52,-24.84 14.52,-21.58 14.72,-21.58 14.72,-17.61 14.92,-17.61 14.92,-14.84 15.12,-14.84 15.12,-10.65 15.32,-10.65 15.32,-6.93 15.52,-6.93 15.52,-2.67 15.72,-2.67 15.72,0.25 15.92,0.25 15.92,2.95 16.12,2.95 16.12,5.25 16.32,5.25 16.32,7.13 16.52,7.13 16.52,8.5 16.71,8.5 16.71,9.42 16.91,9.42 16.91,10.16 17.11,10.16 17.11,10.69 17.31,10.69 17.31,10.9 17.51,10.9 17.51,11.08 17.71,11.08 17.71,11.2 17.91,11.2 17.91,11.41 18.11,11.41 18.11,11.3 18.31,11.3 18.31,11.51 18.51,11.51 18.51,11.59 18.71,11.59 18.71,11.51 18.91,11.51 18.91,11.44 19.11,11.44 19.11,11.45 19.31,11.45 19.31,11.36 19.51,11.36 19.51,11.54 19.71,11.54 19.71,11.58 19.91,11.58 19.91,11.6 20.11,11.6 20.11,11.46 20.31,11.46 20.31,11.61 20.51,11.61 20.51,11.46 20.71,11.46 20.71,11.53 20.91,11.53 20.91,11.42 21.11,11.42 21.11,11.65 21.31,11.65 21.31,11.61 21.5,11.61 21.5,11.63 21.7,11.63 21.7,11.69 21.9,11.69 21.9,11.61 22.1,11.61 22.1,11.6 22.3,11.6 22.3,11.64 22.5,11.64 22.5,11.58 22.7,11.58 22.7,11.65 22.9,11.65 22.9,11.52 23.1,11.52 23.1,11.61 23.3,11.61 23.3,11.41 23.5,11.41 23.5,11.44 23.7,11.44 23.7,11.38 23.9,11.38 23.9,11.34 24.1,11.34 24.1,11.29 24.3,11.29 24.3,11.02 24.5,11.02 24.5,10.91 24.7,10.91 24.7,10.9 24.9,10.9 24.9,10.42 25.1,10.42 25.1,10.27 25.3,10.27 25.3,9.75 25.5,9.75 25.5,9.56 25.7,9.56 25.7,8.9 25.9,8.9 25.9,8.64 26.1,8.64 26.1,8.04 26.29,8.04 26.29,7.72 26.49,7.72 26.49,7.29 26.69,7.29 26.69,7.01 26.89,7.01 26.89,7.01 27.09,7.01 27.09,6.81 27.29,6.81 27.29,7.11 27.49,7.11 27.49,7.42 27.69,7.42 27.69,7.73 27.89,7.73 27.89,8.1 28.09,8.1 28.09,8.59 28.29,8.59 28.29,9.22 28.49,9.22 28.49,9.6 28.69,9.6 28.69,10.12 28.89,10.12 28.89,10.5 29.09,10.5 29.09,10.8 29.29,10.8 29.29,11.06 29.49,11.06 29.49,11.28 29.69,11.28 29.69,11.49 29.89,11.49 29.89,11.7 30.09,11.7 30.09,11.76 30.29,11.76 30.29,11.69 30.49,11.69 30.49,11.9 30.69,11.9 30.69,11.98 30.88,11.98 30.88,11.94 31.08,11.94 31.08,11.98 31.28,11.98 31.28,11.85 31.48,11.85 31.48,12.05 31.68,12.05 31.68,11.92 31.88,11.92 31.88,12.01 32.08,12.01 32.08,11.96 32.28,11.96 32.28,11.97 32.48,11.97 32.48,12.03 32.68,12.03 32.68,11.85 32.88,11.85 32.88,11.98 33.08,11.98 33.08,12.09 33.28,12.09 33.28,11.99 33.48,11.99 33.48,11.92 33.68,11.92 33.68,11.85 33.88,11.85 33.88,11.98 34.08,11.98 34.08,12.05 34.28,12.05 34.28,11.92 34.48,11.92 34.48,12 34.68,12 34.68,11.9 34.88,11.9 34.88,12.09 35.08,12.09 35.08,12.04 35.28,12.04 35.28,12.03 35.48,12.03 35.48,11.91 35.67,11.91 35.67,12.02 35.87,12.02 35.87,11.98 36.07,11.98 36.07,11.98 36.27,11.98 36.27,12 36.47,12 36.47,12.08 36.67,12.08 36.67,12.08 36.87,12.08 36.87,12.04 37.07,12.04 37.07,12.03 37.27,12.03 37.27,12.14 37.47,12.14 37.47,12.06 37.67,12.06 37.67,12.13 37.87,12.13 37.87,12.1 38.07,12.1 38.07,12.21 38.27,12.21 38.27,12.08 38.47,12.08 38.47,12.03 38.67,12.03 38.67,12.16 38.87,12.16 38.87,12.13 39.07,12.13 39.07,12.2 39.27,12.2 39.27,12.08 39.47,12.08 39.47,12.19 39.67,12.19 39.67,12.11 39.87,12.11 39.87,12.07 40.07,12.07 40.07,12.1 40.27,12.1 40.27,12.24 40.46,12.24 40.46,12.14 40.66,12.14 40.66,12.17 40.86,12.17 40.86,12.21 41.06,12.21 41.06,12.26 41.26,12.26 41.26,12.24 41.46,12.24 41.46,12.24 41.66,12.24 41.66,12.1 41.86,12.1 41.86,12.16 42.06,12.16 42.06,12.2 42.26,12.2 42.26,12.29 42.46,12.29 42.46,12.24 42.66,12.24 42.66,12.22 42.86,12.22 42.86,12.2 43.06,12.2 43.06,12.3 43.26,12.3 43.26,12.19 43.46,12.19 43.46,12.33 43.66,12.33 43.66,12.25 43.86,12.25 43.86,12.24 44.06,12.24 44.06,12.24 44.26,12.24 44.26,12.28 44.46,12.28 44.46,12.26 44.66,12.26 44.66,12.35 44.86,12.35 44.86,12.26 45.06,12.26 45.06,12.28 45.25,12.28 45.25,12.43 45.45,12.43 45.45,12.29 45.65,12.29 45.65,12.29 45.85,12.29 45.85,12.26 46.05,12.26 46.05,12.28 46.25,12.28 46.25,12.31 46.45,12.31 46.45,12.31 46.65,12.31 46.65,12.2 46.85,12.2 46.85,12.36 47.05,12.36 47.05,12.21 47.25,12.21 47.25,12.27 47.45,12.27 47.45,12.35 47.65,12.35 47.65,12.3 47.85,12.3 47.85,12.27 48.05,12.27 48.05,12.28 48.25,12.28 48.25,12.42 48.45,12.42 48.45,12.32 48.65,12.32 48.65,12.32 48.85,12.32 48.85,12.37 49.05,12.37 49.05,12.36 49.25,12.36 49.25,12.41 49.45,12.41 49.45,12.4 49.65,12.4 49.65,12.54 49.84,12.54 49.84,12.12 50.04,12.12 50.04,12.42 50.24,12.42 50.24,12.3 50.44,12.3 50.44,12.31 50.64,12.31 50.64,12.4 50.84,12.4 50.84,12.34 51.04,12.34 51.04,12.44 51.24,12.44 51.24,12.47 51.44,12.47 51.44,12.49 51.64,12.49 51.64,12.42 51.84,12.42 51.84,12.47 52.04,12.47 52.04,12.43 52.24,12.43 52.24,12.4 52.44,12.4 52.44,12.55 52.64,12.55 52.64,12.48 52.84,12.48 52.84,12.41 53.04,12.41 53.04,12.47 53.24,12.47 53.24,12.47 53.44,12.47 53.44,12.53 53.64,12.53 53.64,12.48 53.84,12.48 53.84,12.53 54.04,12.53 54.04,12.39 54.24,12.39 54.24,12.55 54.44,12.55 54.44,12.44 54.63,12.44 54.63,12.63 54.83,12.63 54.83,12.65 55.03,12.65 55.03,12.5 55.23,12.5 55.23,12.52 55.43,12.52 55.43,12.64 55.63,12.64 55.63,12.55 55.83,12.55 55.83,12.55 56.03,12.55 56.03,12.52 56.23,12.52 56.23,12.69 56.43,12.69 56.43,12.6 56.63,12.6 56.63,12.6 56.83,12.6 56.83,12.49 57.03,12.49 57.03,12.64 57.23,12.64 57.23,12.73 57.43,12.73 57.43,12.54 57.63,12.54 57.63,12.58 57.83,12.58 57.83,12.56 58.03,12.56 58.03,12.53 58.23,12.53 58.23,12.66 58.43,12.66 58.43,12.56 58.63,12.56 58.63,12.61 58.83,12.61 58.83,12.52 59.03,12.52 59.03,12.6 59.23,12.6 59.23,12.65 59.42,12.65 59.42,12.57 59.62,12.57 59.62,12.59 59.82,12.59 59.82,12.67 60.02,12.67 60.02,12.55 60.22,12.55 60.22,12.55 60.42,12.55 60.42,12.65 60.62,12.65 60.62,12.69 60.82,12.69 60.82,12.6 61.02,12.6 61.02,12.72 61.22,12.72 61.22,12.59 61.42,12.59 61.42,12.67 61.62,12.67 61.62,12.69 61.82,12.69 61.82,12.71 62.02,12.71 62.02,12.56 62.22,12.56 62.22,12.59 62.42,12.59 62.42,12.74 62.62,12.74 62.62,12.62 62.82,12.62 62.82,12.64 63.02,12.64 63.02,12.7 63.22,12.7 63.22,12.69 63.42,12.69 63.42,12.67 63.62,12.67 63.62,12.69 63.82,12.69 63.82,12.64 64.02,12.64 64.02,12.75 64.21,12.75 64.21,12.65 64.41,12.65 64.41,12.69 64.61,12.69 64.61,12.71 64.81,12.71 64.81,12.68 65.01,12.68 65.01,12.63 65.21,12.63 65.21,12.69 65.41,12.69 65.41,12.82 65.61,12.82 65.61,12.68 65.81,12.68 65.81,12.64 66.01,12.64 66.01,12.68 66.21,12.68 66.21,12.7 66.41,12.7 66.41,12.7 66.61,12.7 66.61,12.72 66.81,12.72 66.81,12.74 67.01,12.74 67.01,12.74 67.21,12.74 67.21,12.71 67.41,12.71 67.41,12.75 67.61,12.75 67.61,12.7 67.81,12.7 67.81,12.78 68.01,12.78 68.01,12.86 68.21,12.86 68.21,12.87 68.41,12.87 68.41,12.77 68.61,12.77 68.61,12.76 68.81,12.76 68.81,12.72 69,12.72 69,12.71 69.2,12.71 69.2,12.78 69.4,12.78 69.4,12.68 69.6,12.68 69.6,12.88 69.8,12.88 69.8,12.89 70,12.89 70,12.8 70.2,12.8 70.2,12.83 70.4,12.83 70.4,12.78 70.6,12.78 70.6,12.8 70.8,12.8 70.8,12.9 71,12.9 71,12.91 71.2,12.91 71.2,12.75 71.4,12.75 71.4,12.76 71.6,12.76 71.6,12.89 71.8,12.89 71.8,12.79 72,12.79 72,12.87 72.2,12.87 72.2,12.81 72.4,12.81 72.4,12.76 72.6,12.76 72.6,12.83 72.8,12.83 72.8,12.85 73,12.85 73,12.85 73.2,12.85 73.2,12.87 73.4,12.87 73.4,12.78 73.59,12.78 73.59,12.91 73.79,12.91 73.79,12.87 73.99,12.87 73.99,12.88 74.19,12.88 74.19,12.97 74.39,12.97 74.39,12.95 74.59,12.95 74.59,12.9 74.79,12.9 74.79,12.9 74.99,12.9 74.99,12.93 75.19,12.93 75.19,12.95 75.39,12.95 75.39,12.81 75.59,12.81 75.59,12.9 75.79,12.9 75.79,12.88 75.99,12.88 75.99,12.95 76.19,12.95 76.19,12.83 76.39,12.83 76.39,12.87 76.59,12.87 76.59,12.92 76.79,12.92 76.79,12.95 76.99,12.95 76.99,12.79 77.19,12.79 77.19,12.83 77.39,12.83 77.39,13.02 77.59,13.02 77.59,12.97 77.79,12.97 77.79,13 77.99,13 77.99,12.84 78.19,12.84 78.19,12.98 78.38,12.98 78.38,12.93 78.58,12.93 78.58,12.98 78.78,12.98 78.78,13.01 78.98,13.01 78.98,12.9 79.18,12.9 79.18,13.08 79.38,13.08 79.38,12.98 79.58,12.98 79.58,12.95 79.78,12.95 79.78,12.91 79.98,12.91 79.98,12.94 80.18,12.94 80.18,13 80.38,13 80.38,13.05 80.58,13.05 80.58,12.98 80.78,12.98 80.78,12.91 80.98,12.91 80.98,13.04 81.18,13.04 81.18,12.95 81.38,12.95 81.38,12.98 81.58,12.98 81.58,12.96 81.78,12.96 81.78,13.02 81.98,13.02 81.98,13.03 82.18,13.03 82.18,13.01 82.38,13.01 82.38,13.02 82.58,13.02 82.58,13.03 82.78,13.03 82.78,12.96 82.98,12.96 82.98,13.06 83.17,13.06 83.17,13 83.37,13 83.37,12.99 83.57,12.99 83.57,12.99 83.77,12.99 83.77,13.03 83.97,13.03 83.97,12.97 84.17,12.97 84.17,13.04 84.37,13.04 84.37,12.95 84.57,12.95 84.57,13.02 84.77,13.02 84.77,13.07 84.97,13.07 84.97,13.1 85.17,13.1 85.17,13.14 85.37,13.14 85.37,12.97 85.57,12.97 85.57,13.06 85.77,13.06 85.77,13.13 85.97,13.13 85.97,13.06 86.17,13.06 86.17,13.06 86.37,13.06 86.37,13.09 86.57,13.09 86.57,13.08 86.77,13.08 86.77,13.03 86.97,13.03 86.97,13.14 87.17,13.14 87.17,13.07 87.37,13.07 87.37,13.1 87.57,13.1 87.57,13.02 87.77,13.02 87.77,12.99 87.96,12.99 87.96,13.06 88.16,13.06 88.16,13.1 88.36,13.1 88.36,13.07 88.56,13.07 88.56,13.04 88.76,13.04 88.76,13.09 88.96,13.09 88.96,13.06 89.16,13.06 89.16,13.08 89.36,13.08 89.36,13.22 89.56,13.22 89.56,13.09 89.76,13.09 89.76,13.11 89.96,13.11 89.96,13.21 90.16,13.21 90.16,13.11 90.36,13.11 90.36,13.11 90.56,13.11 90.56,13.07 90.76,13.07 90.76,13.16 90.96,13.16 90.96,13.08 91.16,13.08 91.16,13.19 91.36,13.19 91.36,13.08 91.56,13.08 91.56,13.17 91.76,13.17 91.76,13.11 91.96,13.11 91.96,13.11 92.16,13.11 92.16,13.06 92.36,13.06 92.36,13.13 92.55,13.13 92.55,13.14 92.75,13.14 92.75,13.2 92.95,13.2 92.95,13.2 93.15,13.2 93.15,13.12 93.35,13.12 93.35,13.15 93.55,13.15 93.55,13.13 93.75,13.13 93.75,13.17 93.95,13.17 93.95,13.18 94.15,13.18 94.15,13.22 94.35,13.22 94.35,13.17 94.55,13.17 94.55,13.07 94.75,13.07 94.75,13.09 94.95,13.09 94.95,13.21 95.15,13.21 95.15,13.13 95.35,13.13 95.35,13.22 95.55,13.22 95.55,13.17 95.75,13.17 95.75,13.2 95.95,13.2 95.95,13.28 96.15,13.28 96.15,13.16 96.35,13.16 96.35,13.13 96.55,13.13 96.55,13.16 96.75,13.16 96.75,13.19 96.95,13.19 96.95,13.12 97.15,13.12 97.15,13.24 97.34,13.24 97.34,13.13 97.54,13.13 97.54,13.16 97.74,13.16 97.74,13.25 97.94,13.25 97.94,13.19 98.14,13.19 98.14,13.2 98.34,13.2 98.34,13.25 98.54,13.25 98.54,13.16 98.74,13.16 98.74,13.21 98.94,13.21 98.94,13.25 99.14,13.25 99.14,13.28 99.34,13.28 99.34,13.24 99.54,13.24 99.54,13.25 99.74,13.25 99.74,13.29 99.94,13.29 99.94,13.26 100.14,13.26 100.14,13.29 100.34,13.29 100.34,13.25 100.54,13.25 100.54,13.31 100.74,13.31 100.74,13.26 100.94,13.26 100.94,13.31 101.14,13.31 101.14,13.25 101.34,13.25 101.34,13.23 101.54,13.23 101.54,13.28 101.74,13.28 101.74,13.28 101.94,13.28 101.94,13.35 102.13,13.35 102.13,13.24 102.33,13.24 102.33,13.35 102.53,13.35 102.53,13.2 102.73,13.2 102.73,13.35 102.93,13.35 102.93,13.36 103.13,13.36 103.13,13.25 103.33,13.25 103.33,13.32 103.53,13.32 103.53,13.32 103.73,13.32 103.73,13.28 103.93,13.28 103.93,13.32 104.13,13.32 104.13,13.31 104.33,13.31 104.33,13.33 104.53,13.33 104.53,13.36 104.73,13.36 104.73,13.34 104.93,13.34 104.93,13.25 105.13,13.25 105.13,13.41 105.33,13.41 105.33,13.31 105.53,13.31 105.53,13.34 105.73,13.34 105.73,13.35 105.93,13.35 105.93,13.31 106.13,13.31 106.13,13.32 106.33,13.32 106.33,13.37 106.53,13.37 106.53,13.3 106.73,13.3 106.73,13.31 106.92,13.31 106.92,13.33 107.12,13.33 107.12,13.3 107.32,13.3 107.32,13.37 107.52,13.37 107.52,13.38 107.72,13.38 107.72,13.42 107.92,13.42 107.92,13.35 108.12,13.35 108.12,13.35 108.32,13.35 108.32,13.4 108.52,13.4 108.52,13.39 108.72,13.39 108.72,13.4 108.92,13.4 108.92,13.38 109.12,13.38 109.12,13.35 109.32,13.35 109.32,13.35 109.52,13.35 109.52,13.3 109.72,13.3 109.72,13.4 109.92,13.4 109.92,13.37 110.12,13.37 110.12,13.44 110.32,13.44 110.32,13.38 110.52,13.38 110.52,13.39 110.72,13.39 110.72,13.42 110.92,13.42 110.92,13.36 111.12,13.36 111.12,13.44 111.32,13.44 111.32,13.33 111.52,13.33 111.52,13.35 111.71,13.35 111.71,13.4 111.91,13.4 111.91,13.45 112.11,13.45 112.11,13.45 112.31,13.45 112.31,13.39 112.51,13.39 112.51,13.47 112.71,13.47 112.71,13.4 112.91,13.4 112.91,13.41 113.11,13.41 113.11,13.42 113.31,13.42 113.31,13.4 113.51,13.4 113.51,13.47 113.71,13.47 113.71,13.43 " class="primitive"/>
            </g>
          </g>
        </g>
        <g stroke-width="0.3" fill="#000000" fill-opacity="0.000" class="geometry" id="img-bd0db3e8-187">
          <g class="color_RGB{N0f8}(0.718,0.0,0.008)" stroke-dasharray="none" stroke-opacity="1" stroke="#B70002" id="img-bd0db3e8-188">
            <g transform="translate(137.58,55.59)" id="img-bd0db3e8-189">
              <path fill="none" d="M-113.81,4.27 L-113.61,4.27 -113.61,4.27 -113.41,4.27 -113.41,4.27 -113.21,4.27 -113.21,4.27 -113.01,4.27 -113.01,4.28 -112.81,4.28 -112.81,4.27 -112.61,4.27 -112.61,4.28 -112.41,4.28 -112.41,4.28 -112.21,4.28 -112.21,4.28 -112.01,4.28 -112.01,4.27 -111.81,4.27 -111.81,4.28 -111.61,4.28 -111.61,4.27 -111.42,4.27 -111.42,4.27 -111.22,4.27 -111.22,4.27 -111.02,4.27 -111.02,4.26 -110.82,4.26 -110.82,4.25 -110.62,4.25 -110.62,4.22 -110.42,4.22 -110.42,4.17 -110.22,4.17 -110.22,4.11 -110.02,4.11 -110.02,3.94 -109.82,3.94 -109.82,3.67 -109.62,3.67 -109.62,3.11 -109.42,3.11 -109.42,2.06 -109.22,2.06 -109.22,0.24 -109.02,0.24 -109.02,-2.58 -108.82,-2.58 -108.82,-5.44 -108.62,-5.44 -108.62,-7.98 -108.42,-7.98 -108.42,-9.07 -108.22,-9.07 -108.22,-8.1 -108.02,-8.1 -108.02,-5.79 -107.82,-5.79 -107.82,-3.05 -107.62,-3.05 -107.62,-1.24 -107.42,-1.24 -107.42,0.2 -107.22,0.2 -107.22,0.79 -107.02,0.79 -107.02,0.89 -106.82,0.89 -106.82,0.93 -106.63,0.93 -106.63,0.82 -106.43,0.82 -106.43,0.9 -106.23,0.9 -106.23,0.65 -106.03,0.65 -106.03,0.33 -105.83,0.33 -105.83,-0.17 -105.63,-0.17 -105.63,-0.53 -105.43,-0.53 -105.43,-0.96 -105.23,-0.96 -105.23,-1.23 -105.03,-1.23 -105.03,-1.93 -104.83,-1.93 -104.83,-2.42 -104.63,-2.42 -104.63,-2.46 -104.43,-2.46 -104.43,-2.58 -104.23,-2.58 -104.23,-3.15 -104.03,-3.15 -104.03,-2.3 -103.83,-2.3 -103.83,-2.88 -103.63,-2.88 -103.63,-3.34 -103.43,-3.34 -103.43,-2.53 -103.23,-2.53 -103.23,-1.67 -103.03,-1.67 -103.03,0.36 -102.83,0.36 -102.83,-0.18 -102.63,-0.18 -102.63,-0.26 -102.43,-0.26 -102.43,1.19 -102.23,1.19 -102.23,1.43 -102.03,1.43 -102.03,2.32 -101.84,2.32 -101.84,3.34 -101.64,3.34 -101.64,3.6 -101.44,3.6 -101.44,3.68 -101.24,3.68 -101.24,3.64 -101.04,3.64 -101.04,3.16 -100.84,3.16 -100.84,3.07 -100.64,3.07 -100.64,2.85 -100.44,2.85 -100.44,2.72 -100.24,2.72 -100.24,2.52 -100.04,2.52 -100.04,1.72 -99.84,1.72 -99.84,0.86 -99.64,0.86 -99.64,-0.29 -99.44,-0.29 -99.44,-1.49 -99.24,-1.49 -99.24,-1.75 -99.04,-1.75 -99.04,-1.88 -98.84,-1.88 -98.84,-1.96 -98.64,-1.96 -98.64,-1.68 -98.44,-1.68 -98.44,-1.33 -98.24,-1.33 -98.24,-1.45 -98.04,-1.45 -98.04,-1.58 -97.84,-1.58 -97.84,-1.47 -97.64,-1.47 -97.64,-1.45 -97.44,-1.45 -97.44,-1.49 -97.25,-1.49 -97.25,-1.83 -97.05,-1.83 -97.05,-1.78 -96.85,-1.78 -96.85,-2.02 -96.65,-2.02 -96.65,-2.28 -96.45,-2.28 -96.45,-2.1 -96.25,-2.1 -96.25,-2.24 -96.05,-2.24 -96.05,-2.56 -95.85,-2.56 -95.85,-2.52 -95.65,-2.52 -95.65,-2.44 -95.45,-2.44 -95.45,-2.72 -95.25,-2.72 -95.25,-2.89 -95.05,-2.89 -95.05,-3.19 -94.85,-3.19 -94.85,-3.22 -94.65,-3.22 -94.65,-3.77 -94.45,-3.77 -94.45,-3.56 -94.25,-3.56 -94.25,-3.89 -94.05,-3.89 -94.05,-4.3 -93.85,-4.3 -93.85,-4.49 -93.65,-4.49 -93.65,-5.03 -93.45,-5.03 -93.45,-5.47 -93.25,-5.47 -93.25,-5.54 -93.05,-5.54 -93.05,-5.57 -92.85,-5.57 -92.85,-5.66 -92.65,-5.66 -92.65,-6.2 -92.46,-6.2 -92.46,-6.2 -92.26,-6.2 -92.26,-6.45 -92.06,-6.45 -92.06,-6.14 -91.86,-6.14 -91.86,-6.66 -91.66,-6.66 -91.66,-6.89 -91.46,-6.89 -91.46,-6.92 -91.26,-6.92 -91.26,-7.12 -91.06,-7.12 -91.06,-7.65 -90.86,-7.65 -90.86,-7.76 -90.66,-7.76 -90.66,-8.09 -90.46,-8.09 -90.46,-8.48 -90.26,-8.48 -90.26,-8.93 -90.06,-8.93 -90.06,-8.49 -89.86,-8.49 -89.86,-8.99 -89.66,-8.99 -89.66,-8.77 -89.46,-8.77 -89.46,-9.98 -89.26,-9.98 -89.26,-9.85 -89.06,-9.85 -89.06,-9.67 -88.86,-9.67 -88.86,-10.22 -88.66,-10.22 -88.66,-10.44 -88.46,-10.44 -88.46,-12.14 -88.26,-12.14 -88.26,-12.42 -88.06,-12.42 -88.06,-13.12 -87.86,-13.12 -87.86,-11.07 -87.67,-11.07 -87.67,-9.2 -87.47,-9.2 -87.47,-8.15 -87.27,-8.15 -87.27,-8.22 -87.07,-8.22 -87.07,-7.46 -86.87,-7.46 -86.87,-7.56 -86.67,-7.56 -86.67,-7.35 -86.47,-7.35 -86.47,-7.61 -86.27,-7.61 -86.27,-7.2 -86.07,-7.2 -86.07,-7.34 -85.87,-7.34 -85.87,-7.2 -85.67,-7.2 -85.67,-6.73 -85.47,-6.73 -85.47,-7.04 -85.27,-7.04 -85.27,-7.06 -85.07,-7.06 -85.07,-7.42 -84.87,-7.42 -84.87,-7.24 -84.67,-7.24 -84.67,-7.83 -84.47,-7.83 -84.47,-7.68 -84.27,-7.68 -84.27,-7.75 -84.07,-7.75 -84.07,-7.99 -83.87,-7.99 -83.87,-9.1 -83.67,-9.1 -83.67,-8.31 -83.47,-8.31 -83.47,-8.89 -83.27,-8.89 -83.27,-8.7 -83.07,-8.7 -83.07,-9.17 -82.88,-9.17 -82.88,-8.91 -82.68,-8.91 -82.68,-9 -82.48,-9 -82.48,-7.77 -82.28,-7.77 -82.28,-7.64 -82.08,-7.64 -82.08,-8.07 -81.88,-8.07 -81.88,-7.75 -81.68,-7.75 -81.68,-7.46 -81.48,-7.46 -81.48,-8.11 -81.28,-8.11 -81.28,-7.99 -81.08,-7.99 -81.08,-8.15 -80.88,-8.15 -80.88,-8.12 -80.68,-8.12 -80.68,-7.61 -80.48,-7.61 -80.48,-9.06 -80.28,-9.06 -80.28,-8.14 -80.08,-8.14 -80.08,-8.88 -79.88,-8.88 -79.88,-9.02 -79.68,-9.02 -79.68,-8.76 -79.48,-8.76 -79.48,-6.34 -79.28,-6.34 -79.28,-11.39 -79.08,-11.39 -79.08,-10.9 -78.88,-10.9 -78.88,-9.69 -78.68,-9.69 -78.68,-8.27 -78.48,-8.27 -78.48,-7.71 -78.29,-7.71 -78.29,-9.63 -78.09,-9.63 -78.09,-10.56 -77.89,-10.56 -77.89,-10.87 -77.69,-10.87 -77.69,-10.27 -77.49,-10.27 -77.49,-10.02 -77.29,-10.02 -77.29,-10.19 -77.09,-10.19 -77.09,-8.48 -76.89,-8.48 -76.89,-6.24 -76.69,-6.24 -76.69,-5.92 -76.49,-5.92 -76.49,-5.34 -76.29,-5.34 -76.29,-5.13 -76.09,-5.13 -76.09,-4.78 -75.89,-4.78 -75.89,-4.86 -75.69,-4.86 -75.69,-5.28 -75.49,-5.28 -75.49,-5.46 -75.29,-5.46 -75.29,-5.11 -75.09,-5.11 -75.09,-5.03 -74.89,-5.03 -74.89,-5.24 -74.69,-5.24 -74.69,-5.01 -74.49,-5.01 -74.49,-4.72 -74.29,-4.72 -74.29,-4.54 -74.09,-4.54 -74.09,-4.53 -73.89,-4.53 -73.89,-4.23 -73.69,-4.23 -73.69,-3.89 -73.5,-3.89 -73.5,-4 -73.3,-4 -73.3,-3.54 -73.1,-3.54 -73.1,-3.49 -72.9,-3.49 -72.9,-3.51 -72.7,-3.51 -72.7,-3.58 -72.5,-3.58 -72.5,-3.46 -72.3,-3.46 -72.3,-3.34 -72.1,-3.34 -72.1,-3.6 -71.9,-3.6 -71.9,-3.59 -71.7,-3.59 -71.7,-3.5 -71.5,-3.5 -71.5,-3.52 -71.3,-3.52 -71.3,-3.21 -71.1,-3.21 -71.1,-3.77 -70.9,-3.77 -70.9,-3.54 -70.7,-3.54 -70.7,-3.72 -70.5,-3.72 -70.5,-3.5 -70.3,-3.5 -70.3,-3.48 -70.1,-3.48 -70.1,-3.83 -69.9,-3.83 -69.9,-3.93 -69.7,-3.93 -69.7,-4.1 -69.5,-4.1 -69.5,-4.16 -69.3,-4.16 -69.3,-4.25 -69.1,-4.25 -69.1,-4.36 -68.9,-4.36 -68.9,-4.42 -68.71,-4.42 -68.71,-4.33 -68.51,-4.33 -68.51,-4.48 -68.31,-4.48 -68.31,-4.56 -68.11,-4.56 -68.11,-4.17 -67.91,-4.17 -67.91,-4.03 -67.71,-4.03 -67.71,-3.94 -67.51,-3.94 -67.51,-4.02 -67.31,-4.02 -67.31,-3.93 -67.11,-3.93 -67.11,-3.85 -66.91,-3.85 -66.91,-3.92 -66.71,-3.92 -66.71,-3.64 -66.51,-3.64 -66.51,-3.67 -66.31,-3.67 -66.31,-3.65 -66.11,-3.65 -66.11,-3.65 -65.91,-3.65 -65.91,-3.63 -65.71,-3.63 -65.71,-3.61 -65.51,-3.61 -65.51,-3.53 -65.31,-3.53 -65.31,-3.85 -65.11,-3.85 -65.11,-3.58 -64.91,-3.58 -64.91,-3.61 -64.71,-3.61 -64.71,-3.87 -64.51,-3.87 -64.51,-3.68 -64.31,-3.68 -64.31,-3.68 -64.11,-3.68 -64.11,-3.76 -63.92,-3.76 -63.92,-3.56 -63.72,-3.56 -63.72,-3.74 -63.52,-3.74 -63.52,-3.65 -63.32,-3.65 -63.32,-3.95 -63.12,-3.95 -63.12,-3.54 -62.92,-3.54 -62.92,-3.77 -62.72,-3.77 -62.72,-3.87 -62.52,-3.87 -62.52,-3.21 -62.32,-3.21 -62.32,-3.73 -62.12,-3.73 -62.12,-3.49 -61.92,-3.49 -61.92,-3.64 -61.72,-3.64 -61.72,-3.53 -61.52,-3.53 -61.52,-3.54 -61.32,-3.54 -61.32,-3.71 -61.12,-3.71 -61.12,-3.44 -60.92,-3.44 -60.92,-3.55 -60.72,-3.55 -60.72,-3.53 -60.52,-3.53 -60.52,-3.52 -60.32,-3.52 -60.32,-3.4 -60.12,-3.4 -60.12,-3.52 -59.92,-3.52 -59.92,-3.41 -59.72,-3.41 -59.72,-3.38 -59.52,-3.38 -59.52,-3.69 -59.32,-3.69 -59.32,-3.42 -59.13,-3.42 -59.13,-3.42 -58.93,-3.42 -58.93,-3.39 -58.73,-3.39 -58.73,-3.26 -58.53,-3.26 -58.53,-3.44 -58.33,-3.44 -58.33,-3.52 -58.13,-3.52 -58.13,-3.14 -57.93,-3.14 -57.93,-3.23 -57.73,-3.23 -57.73,-3.24 -57.53,-3.24 -57.53,-3.32 -57.33,-3.32 -57.33,-3.42 -57.13,-3.42 -57.13,-3.34 -56.93,-3.34 -56.93,-3.12 -56.73,-3.12 -56.73,-3.22 -56.53,-3.22 -56.53,-3.46 -56.33,-3.46 -56.33,-3.18 -56.13,-3.18 -56.13,-3.37 -55.93,-3.37 -55.93,-3.44 -55.73,-3.44 -55.73,-3.48 -55.53,-3.48 -55.53,-3.4 -55.33,-3.4 -55.33,-3.19 -55.13,-3.19 -55.13,-3.44 -54.93,-3.44 -54.93,-3.52 -54.73,-3.52 -54.73,-3.71 -54.54,-3.71 -54.54,-3.68 -54.34,-3.68 -54.34,-3.65 -54.14,-3.65 -54.14,-3.62 -53.94,-3.62 -53.94,-3.45 -53.74,-3.45 -53.74,-3.5 -53.54,-3.5 -53.54,-3.3 -53.34,-3.3 -53.34,-3.31 -53.14,-3.31 -53.14,-3.28 -52.94,-3.28 -52.94,-3.04 -52.74,-3.04 -52.74,-3.22 -52.54,-3.22 -52.54,-3.08 -52.34,-3.08 -52.34,-3.01 -52.14,-3.01 -52.14,-2.99 -51.94,-2.99 -51.94,-3.02 -51.74,-3.02 -51.74,-2.83 -51.54,-2.83 -51.54,-2.8 -51.34,-2.8 -51.34,-3.07 -51.14,-3.07 -51.14,-2.89 -50.94,-2.89 -50.94,-3.03 -50.74,-3.03 -50.74,-3.17 -50.54,-3.17 -50.54,-3.04 -50.34,-3.04 -50.34,-3.04 -50.14,-3.04 -50.14,-3.01 -49.94,-3.01 -49.94,-2.87 -49.75,-2.87 -49.75,-3.04 -49.55,-3.04 -49.55,-3.14 -49.35,-3.14 -49.35,-2.84 -49.15,-2.84 -49.15,-2.98 -48.95,-2.98 -48.95,-3.25 -48.75,-3.25 -48.75,-2.65 -48.55,-2.65 -48.55,-2.99 -48.35,-2.99 -48.35,-2.7 -48.15,-2.7 -48.15,-2.86 -47.95,-2.86 -47.95,-2.9 -47.75,-2.9 -47.75,-2.85 -47.55,-2.85 -47.55,-2.64 -47.35,-2.64 -47.35,-2.4 -47.15,-2.4 -47.15,-2.46 -46.95,-2.46 -46.95,-2.58 -46.75,-2.58 -46.75,-2.69 -46.55,-2.69 -46.55,-2.66 -46.35,-2.66 -46.35,-2.53 -46.15,-2.53 -46.15,-2.4 -45.95,-2.4 -45.95,-2.68 -45.75,-2.68 -45.75,-2.46 -45.55,-2.46 -45.55,-2.39 -45.35,-2.39 -45.35,-2.52 -45.15,-2.52 -45.15,-2.71 -44.96,-2.71 -44.96,-2.83 -44.76,-2.83 -44.76,-2.68 -44.56,-2.68 -44.56,-2.69 -44.36,-2.69 -44.36,-2.74 -44.16,-2.74 -44.16,-2.82 -43.96,-2.82 -43.96,-2.57 -43.76,-2.57 -43.76,-2.83 -43.56,-2.83 -43.56,-2.74 -43.36,-2.74 -43.36,-2.58 -43.16,-2.58 -43.16,-2.43 -42.96,-2.43 -42.96,-2.47 -42.76,-2.47 -42.76,-2.39 -42.56,-2.39 -42.56,-2.02 -42.36,-2.02 -42.36,-2.41 -42.16,-2.41 -42.16,-2.17 -41.96,-2.17 -41.96,-1.85 -41.76,-1.85 -41.76,-2.06 -41.56,-2.06 -41.56,-1.87 -41.36,-1.87 -41.36,-2.22 -41.16,-2.22 -41.16,-2.6 -40.96,-2.6 -40.96,-2.73 -40.76,-2.73 -40.76,-1.64 -40.56,-1.64 -40.56,-2.61 -40.36,-2.61 -40.36,-2.29 -40.17,-2.29 -40.17,-1.05 -39.97,-1.05 -39.97,-2.24 -39.77,-2.24 -39.77,-1.32 -39.57,-1.32 -39.57,-0.86 -39.37,-0.86 -39.37,-2.42 -39.17,-2.42 -39.17,-1.35 -38.97,-1.35 -38.97,-1.98 -38.77,-1.98 -38.77,-0.72 -38.57,-0.72 -38.57,-1.17 -38.37,-1.17 -38.37,-1.35 -38.17,-1.35 -38.17,-1.46 -37.97,-1.46 -37.97,-1.71 -37.77,-1.71 -37.77,-1.53 -37.57,-1.53 -37.57,-1.45 -37.37,-1.45 -37.37,-1.79 -37.17,-1.79 -37.17,-1.29 -36.97,-1.29 -36.97,-1.57 -36.77,-1.57 -36.77,-1.3 -36.57,-1.3 -36.57,-1.41 -36.37,-1.41 -36.37,-1.28 -36.17,-1.28 -36.17,-1.46 -35.97,-1.46 -35.97,-1.09 -35.77,-1.09 -35.77,-1.35 -35.58,-1.35 -35.58,-1.26 -35.38,-1.26 -35.38,-1.22 -35.18,-1.22 -35.18,-1.51 -34.98,-1.51 -34.98,-1.35 -34.78,-1.35 -34.78,-1.35 -34.58,-1.35 -34.58,-1.6 -34.38,-1.6 -34.38,-1.41 -34.18,-1.41 -34.18,-1.48 -33.98,-1.48 -33.98,-0.78 -33.78,-0.78 -33.78,-1.34 -33.58,-1.34 -33.58,-1.1 -33.38,-1.1 -33.38,-1.07 -33.18,-1.07 -33.18,-1.08 -32.98,-1.08 -32.98,-1.22 -32.78,-1.22 -32.78,-1.22 -32.58,-1.22 -32.58,-1.08 -32.38,-1.08 -32.38,-0.97 -32.18,-0.97 -32.18,-1.03 -31.98,-1.03 -31.98,-0.85 -31.78,-0.85 -31.78,-0.96 -31.58,-0.96 -31.58,-0.93 -31.38,-0.93 -31.38,-1.1 -31.18,-1.1 -31.18,-0.93 -30.98,-0.93 -30.98,-0.65 -30.79,-0.65 -30.79,-1.03 -30.59,-1.03 -30.59,-1.02 -30.39,-1.02 -30.39,-1.13 -30.19,-1.13 -30.19,-0.89 -29.99,-0.89 -29.99,-0.87 -29.79,-0.87 -29.79,-0.96 -29.59,-0.96 -29.59,-0.87 -29.39,-0.87 -29.39,-0.97 -29.19,-0.97 -29.19,-0.81 -28.99,-0.81 -28.99,-0.86 -28.79,-0.86 -28.79,-0.68 -28.59,-0.68 -28.59,-0.9 -28.39,-0.9 -28.39,-0.51 -28.19,-0.51 -28.19,-0.57 -27.99,-0.57 -27.99,-0.6 -27.79,-0.6 -27.79,-0.63 -27.59,-0.63 -27.59,-0.6 -27.39,-0.6 -27.39,-0.68 -27.19,-0.68 -27.19,-0.36 -26.99,-0.36 -26.99,-0.64 -26.79,-0.64 -26.79,-0.5 -26.59,-0.5 -26.59,-0.45 -26.39,-0.45 -26.39,-0.62 -26.19,-0.62 -26.19,-0.49 -26,-0.49 -26,-0.29 -25.8,-0.29 -25.8,-0.5 -25.6,-0.5 -25.6,-0.55 -25.4,-0.55 -25.4,-0.32 -25.2,-0.32 -25.2,-0.51 -25,-0.51 -25,-0.47 -24.8,-0.47 -24.8,-0.22 -24.6,-0.22 -24.6,-0.38 -24.4,-0.38 -24.4,-0.39 -24.2,-0.39 -24.2,-0.35 -24,-0.35 -24,-0.47 -23.8,-0.47 -23.8,-0.34 -23.6,-0.34 -23.6,-0.53 -23.4,-0.53 -23.4,-0.26 -23.2,-0.26 -23.2,-0.29 -23,-0.29 -23,-0.24 -22.8,-0.24 -22.8,-0.33 -22.6,-0.33 -22.6,-0.16 -22.4,-0.16 -22.4,-0.37 -22.2,-0.37 -22.2,-0.33 -22,-0.33 -22,-0.25 -21.8,-0.25 -21.8,-0.41 -21.6,-0.41 -21.6,-0.55 -21.4,-0.55 -21.4,-0.29 -21.21,-0.29 -21.21,-0.27 -21.01,-0.27 -21.01,-0.43 -20.81,-0.43 -20.81,-0.19 -20.61,-0.19 -20.61,-0.08 -20.41,-0.08 -20.41,-0.17 -20.21,-0.17 -20.21,-0.24 -20.01,-0.24 -20.01,-0.21 -19.81,-0.21 -19.81,-0.36 -19.61,-0.36 -19.61,-0.18 -19.41,-0.18 -19.41,-0.19 -19.21,-0.19 -19.21,0.02 -19.01,0.02 -19.01,0 -18.81,0 -18.81,-0.03 -18.61,-0.03 -18.61,0.01 -18.41,0.01 -18.41,-0.02 -18.21,-0.02 -18.21,-0.12 -18.01,-0.12 -18.01,0.07 -17.81,0.07 -17.81,0.09 -17.61,0.09 -17.61,0.09 -17.41,0.09 -17.41,0.28 -17.21,0.28 -17.21,0 -17.01,0 -17.01,-0.04 -16.81,-0.04 -16.81,0.02 -16.61,0.02 -16.61,0.16 -16.42,0.16 -16.42,0.07 -16.22,0.07 -16.22,-0.06 -16.02,-0.06 -16.02,0.07 -15.82,0.07 -15.82,-0.05 -15.62,-0.05 -15.62,0.01 -15.42,0.01 -15.42,0.04 -15.22,0.04 -15.22,0.06 -15.02,0.06 -15.02,-0.05 -14.82,-0.05 -14.82,0.17 -14.62,0.17 -14.62,0.06 -14.42,0.06 -14.42,0.01 -14.22,0.01 -14.22,-0 -14.02,-0 -14.02,0.05 -13.82,0.05 -13.82,0.04 -13.62,0.04 -13.62,0.3 -13.42,0.3 -13.42,0.29 -13.22,0.29 -13.22,0.2 -13.02,0.2 -13.02,0.3 -12.82,0.3 -12.82,0.23 -12.62,0.23 -12.62,0.44 -12.42,0.44 -12.42,0.23 -12.22,0.23 -12.22,0.26 -12.02,0.26 -12.02,0.16 -11.83,0.16 -11.83,0.27 -11.63,0.27 -11.63,0.29 -11.43,0.29 -11.43,0.28 -11.23,0.28 -11.23,0.32 -11.03,0.32 -11.03,0.42 -10.83,0.42 -10.83,0.38 -10.63,0.38 -10.63,0.22 -10.43,0.22 -10.43,0.29 -10.23,0.29 -10.23,0.2 -10.03,0.2 -10.03,0.3 -9.83,0.3 -9.83,0.36 -9.63,0.36 -9.63,0.34 -9.43,0.34 -9.43,0.37 -9.23,0.37 -9.23,0.27 -9.03,0.27 -9.03,0.43 -8.83,0.43 -8.83,0.35 -8.63,0.35 -8.63,0.4 -8.43,0.4 -8.43,0.34 -8.23,0.34 -8.23,0.52 -8.03,0.52 -8.03,0.45 -7.83,0.45 -7.83,0.29 -7.63,0.29 -7.63,0.45 -7.43,0.45 -7.43,0.56 -7.23,0.56 -7.23,0.52 -7.04,0.52 -7.04,0.39 -6.84,0.39 -6.84,0.41 -6.64,0.41 -6.64,0.34 -6.44,0.34 -6.44,0.29 -6.24,0.29 -6.24,0.13 -6.04,0.13 -6.04,0.22 -5.84,0.22 -5.84,0.2 -5.64,0.2 -5.64,0.33 -5.44,0.33 -5.44,0.31 -5.24,0.31 -5.24,0.32 -5.04,0.32 -5.04,0.29 -4.84,0.29 -4.84,0.32 -4.64,0.32 -4.64,0.33 -4.44,0.33 -4.44,0.3 -4.24,0.3 -4.24,0.59 -4.04,0.59 -4.04,0.59 -3.84,0.59 -3.84,0.51 -3.64,0.51 -3.64,0.55 -3.44,0.55 -3.44,0.67 -3.24,0.67 -3.24,0.61 -3.04,0.61 -3.04,0.72 -2.84,0.72 -2.84,0.66 -2.64,0.66 -2.64,0.57 -2.44,0.57 -2.44,0.66 -2.25,0.66 -2.25,0.76 -2.05,0.76 -2.05,0.69 -1.85,0.69 -1.85,0.73 -1.65,0.73 -1.65,0.7 -1.45,0.7 -1.45,0.69 -1.25,0.69 -1.25,0.96 -1.05,0.96 -1.05,0.81 -0.85,0.81 -0.85,0.91 -0.65,0.91 -0.65,0.91 -0.45,0.91 -0.45,0.8 -0.25,0.8 -0.25,0.88 -0.05,0.88 -0.05,0.76 0.15,0.76 0.15,0.8 0.35,0.8 0.35,0.94 0.55,0.94 0.55,0.74 0.75,0.74 0.75,0.95 0.95,0.95 0.95,0.73 1.15,0.73 1.15,0.97 1.35,0.97 1.35,0.93 1.55,0.93 1.55,0.92 1.75,0.92 1.75,0.83 1.95,0.83 1.95,0.89 2.15,0.89 2.15,0.72 2.35,0.72 2.35,0.8 2.54,0.8 2.54,0.76 2.74,0.76 2.74,0.61 2.94,0.61 2.94,0.72 3.14,0.72 3.14,0.74 3.34,0.74 3.34,0.49 3.54,0.49 3.54,0.59 3.74,0.59 3.74,0.67 3.94,0.67 3.94,0.55 4.14,0.55 4.14,0.71 4.34,0.71 4.34,0.72 4.54,0.72 4.54,0.73 4.74,0.73 4.74,0.82 4.94,0.82 4.94,0.91 5.14,0.91 5.14,0.9 5.34,0.9 5.34,0.84 5.54,0.84 5.54,0.89 5.74,0.89 5.74,1.16 5.94,1.16 5.94,0.94 6.14,0.94 6.14,1.08 6.34,1.08 6.34,1.09 6.54,1.09 6.54,1.07 6.74,1.07 6.74,0.99 6.94,0.99 6.94,1.06 7.13,1.06 7.13,1.08 7.33,1.08 7.33,1.24 7.53,1.24 7.53,1.13 7.73,1.13 7.73,1.19 7.93,1.19 7.93,1.21 8.13,1.21 8.13,1.14 8.33,1.14 8.33,1.18 8.53,1.18 8.53,1.04 8.73,1.04 8.73,1.38 8.93,1.38 8.93,1.23 9.13,1.23 9.13,1.25 9.33,1.25 9.33,1.07 9.53,1.07 9.53,1.07 9.73,1.07 9.73,1.15 9.93,1.15 9.93,1.33 10.13,1.33 10.13,1.4 10.33,1.4 10.33,1.14 10.53,1.14 10.53,1.29 10.73,1.29 10.73,1.23 10.93,1.23 10.93,1.24 11.13,1.24 11.13,1.24 11.33,1.24 11.33,1.52 11.53,1.52 11.53,1.34 11.73,1.34 11.73,1.17 11.92,1.17 11.92,1.38 12.12,1.38 12.12,1.44 12.32,1.44 12.32,1.43 12.52,1.43 12.52,1.37 12.72,1.37 12.72,1.72 12.92,1.72 12.92,1.5 13.12,1.5 13.12,1.08 13.32,1.08 13.32,1.26 13.52,1.26 13.52,1.47 13.72,1.47 13.72,0.95 13.92,0.95 13.92,1.09 14.12,1.09 14.12,1.64 14.32,1.64 14.32,1.16 14.52,1.16 14.52,1.79 14.72,1.79 14.72,2.43 14.92,2.43 14.92,1.45 15.12,1.45 15.12,1.63 15.32,1.63 15.32,1.43 15.52,1.43 15.52,2 15.72,2 15.72,1.66 15.92,1.66 15.92,1.55 16.12,1.55 16.12,1.61 16.32,1.61 16.32,1.67 16.52,1.67 16.52,1.66 16.71,1.66 16.71,1.58 16.91,1.58 16.91,1.6 17.11,1.6 17.11,1.63 17.31,1.63 17.31,1.53 17.51,1.53 17.51,1.47 17.71,1.47 17.71,1.46 17.91,1.46 17.91,1.58 18.11,1.58 18.11,1.42 18.31,1.42 18.31,1.6 18.51,1.6 18.51,1.66 18.71,1.66 18.71,1.57 18.91,1.57 18.91,1.49 19.11,1.49 19.11,1.49 19.31,1.49 19.31,1.4 19.51,1.4 19.51,1.58 19.71,1.58 19.71,1.62 19.91,1.62 19.91,1.64 20.11,1.64 20.11,1.51 20.31,1.51 20.31,1.66 20.51,1.66 20.51,1.51 20.71,1.51 20.71,1.57 20.91,1.57 20.91,1.47 21.11,1.47 21.11,1.7 21.31,1.7 21.31,1.66 21.5,1.66 21.5,1.68 21.7,1.68 21.7,1.74 21.9,1.74 21.9,1.66 22.1,1.66 22.1,1.66 22.3,1.66 22.3,1.72 22.5,1.72 22.5,1.66 22.7,1.66 22.7,1.75 22.9,1.75 22.9,1.63 23.1,1.63 23.1,1.75 23.3,1.75 23.3,1.58 23.5,1.58 23.5,1.65 23.7,1.65 23.7,1.64 23.9,1.64 23.9,1.68 24.1,1.68 24.1,1.72 24.3,1.72 24.3,1.58 24.5,1.58 24.5,1.64 24.7,1.64 24.7,1.84 24.9,1.84 24.9,1.64 25.1,1.64 25.1,1.83 25.3,1.83 25.3,1.69 25.5,1.69 25.5,1.91 25.7,1.91 25.7,1.73 25.9,1.73 25.9,1.94 26.1,1.94 26.1,1.8 26.29,1.8 26.29,1.87 26.49,1.87 26.49,1.81 26.69,1.81 26.69,1.77 26.89,1.77 26.89,1.9 27.09,1.9 27.09,1.68 27.29,1.68 27.29,1.9 27.49,1.9 27.49,1.94 27.69,1.94 27.69,1.91 27.89,1.91 27.89,1.87 28.09,1.87 28.09,1.9 28.29,1.9 28.29,2.06 28.49,2.06 28.49,1.96 28.69,1.96 28.69,2.05 28.89,2.05 28.89,2.04 29.09,2.04 29.09,1.98 29.29,1.98 29.29,1.97 29.49,1.97 29.49,1.95 29.69,1.95 29.69,1.98 29.89,1.98 29.89,2.06 30.09,2.06 30.09,2.01 30.29,2.01 30.29,1.87 30.49,1.87 30.49,2.03 30.69,2.03 30.69,2.07 30.88,2.07 30.88,2 31.08,2 31.08,2.03 31.28,2.03 31.28,1.89 31.48,1.89 31.48,2.09 31.68,2.09 31.68,1.96 31.88,1.96 31.88,2.05 32.08,2.05 32.08,2 32.28,2 32.28,2.01 32.48,2.01 32.48,2.08 32.68,2.08 32.68,1.89 32.88,1.89 32.88,2.03 33.08,2.03 33.08,2.14 33.28,2.14 33.28,2.03 33.48,2.03 33.48,1.97 33.68,1.97 33.68,1.9 33.88,1.9 33.88,2.02 34.08,2.02 34.08,2.1 34.28,2.1 34.28,1.97 34.48,1.97 34.48,2.04 34.68,2.04 34.68,1.94 34.88,1.94 34.88,2.13 35.08,2.13 35.08,2.09 35.28,2.09 35.28,2.07 35.48,2.07 35.48,1.96 35.67,1.96 35.67,2.07 35.87,2.07 35.87,2.03 36.07,2.03 36.07,2.03 36.27,2.03 36.27,2.05 36.47,2.05 36.47,2.13 36.67,2.13 36.67,2.13 36.87,2.13 36.87,2.09 37.07,2.09 37.07,2.07 37.27,2.07 37.27,2.19 37.47,2.19 37.47,2.11 37.67,2.11 37.67,2.17 37.87,2.17 37.87,2.14 38.07,2.14 38.07,2.26 38.27,2.26 38.27,2.13 38.47,2.13 38.47,2.07 38.67,2.07 38.67,2.21 38.87,2.21 38.87,2.18 39.07,2.18 39.07,2.24 39.27,2.24 39.27,2.12 39.47,2.12 39.47,2.24 39.67,2.24 39.67,2.15 39.87,2.15 39.87,2.11 40.07,2.11 40.07,2.15 40.27,2.15 40.27,2.29 40.46,2.29 40.46,2.19 40.66,2.19 40.66,2.22 40.86,2.22 40.86,2.25 41.06,2.25 41.06,2.31 41.26,2.31 41.26,2.28 41.46,2.28 41.46,2.29 41.66,2.29 41.66,2.15 41.86,2.15 41.86,2.21 42.06,2.21 42.06,2.24 42.26,2.24 42.26,2.33 42.46,2.33 42.46,2.28 42.66,2.28 42.66,2.27 42.86,2.27 42.86,2.24 43.06,2.24 43.06,2.35 43.26,2.35 43.26,2.23 43.46,2.23 43.46,2.38 43.66,2.38 43.66,2.29 43.86,2.29 43.86,2.29 44.06,2.29 44.06,2.29 44.26,2.29 44.26,2.33 44.46,2.33 44.46,2.3 44.66,2.3 44.66,2.4 44.86,2.4 44.86,2.31 45.06,2.31 45.06,2.32 45.25,2.32 45.25,2.47 45.45,2.47 45.45,2.34 45.65,2.34 45.65,2.33 45.85,2.33 45.85,2.3 46.05,2.3 46.05,2.33 46.25,2.33 46.25,2.35 46.45,2.35 46.45,2.35 46.65,2.35 46.65,2.25 46.85,2.25 46.85,2.4 47.05,2.4 47.05,2.25 47.25,2.25 47.25,2.31 47.45,2.31 47.45,2.4 47.65,2.4 47.65,2.34 47.85,2.34 47.85,2.31 48.05,2.31 48.05,2.33 48.25,2.33 48.25,2.46 48.45,2.46 48.45,2.36 48.65,2.36 48.65,2.37 48.85,2.37 48.85,2.41 49.05,2.41 49.05,2.4 49.25,2.4 49.25,2.46 49.45,2.46 49.45,2.45 49.65,2.45 49.65,2.58 49.84,2.58 49.84,2.16 50.04,2.16 50.04,2.46 50.24,2.46 50.24,2.35 50.44,2.35 50.44,2.36 50.64,2.36 50.64,2.45 50.84,2.45 50.84,2.38 51.04,2.38 51.04,2.49 51.24,2.49 51.24,2.51 51.44,2.51 51.44,2.53 51.64,2.53 51.64,2.46 51.84,2.46 51.84,2.51 52.04,2.51 52.04,2.48 52.24,2.48 52.24,2.44 52.44,2.44 52.44,2.6 52.64,2.6 52.64,2.52 52.84,2.52 52.84,2.46 53.04,2.46 53.04,2.52 53.24,2.52 53.24,2.52 53.44,2.52 53.44,2.57 53.64,2.57 53.64,2.52 53.84,2.52 53.84,2.58 54.04,2.58 54.04,2.44 54.24,2.44 54.24,2.59 54.44,2.59 54.44,2.49 54.63,2.49 54.63,2.67 54.83,2.67 54.83,2.69 55.03,2.69 55.03,2.55 55.23,2.55 55.23,2.56 55.43,2.56 55.43,2.68 55.63,2.68 55.63,2.59 55.83,2.59 55.83,2.59 56.03,2.59 56.03,2.56 56.23,2.56 56.23,2.73 56.43,2.73 56.43,2.64 56.63,2.64 56.63,2.65 56.83,2.65 56.83,2.53 57.03,2.53 57.03,2.69 57.23,2.69 57.23,2.77 57.43,2.77 57.43,2.58 57.63,2.58 57.63,2.62 57.83,2.62 57.83,2.6 58.03,2.6 58.03,2.57 58.23,2.57 58.23,2.71 58.43,2.71 58.43,2.6 58.63,2.6 58.63,2.66 58.83,2.66 58.83,2.56 59.03,2.56 59.03,2.64 59.23,2.64 59.23,2.69 59.42,2.69 59.42,2.61 59.62,2.61 59.62,2.64 59.82,2.64 59.82,2.72 60.02,2.72 60.02,2.59 60.22,2.59 60.22,2.59 60.42,2.59 60.42,2.7 60.62,2.7 60.62,2.73 60.82,2.73 60.82,2.65 61.02,2.65 61.02,2.77 61.22,2.77 61.22,2.63 61.42,2.63 61.42,2.71 61.62,2.71 61.62,2.73 61.82,2.73 61.82,2.75 62.02,2.75 62.02,2.6 62.22,2.6 62.22,2.64 62.42,2.64 62.42,2.78 62.62,2.78 62.62,2.66 62.82,2.66 62.82,2.69 63.02,2.69 63.02,2.75 63.22,2.75 63.22,2.74 63.42,2.74 63.42,2.71 63.62,2.71 63.62,2.73 63.82,2.73 63.82,2.68 64.02,2.68 64.02,2.79 64.21,2.79 64.21,2.69 64.41,2.69 64.41,2.74 64.61,2.74 64.61,2.75 64.81,2.75 64.81,2.73 65.01,2.73 65.01,2.67 65.21,2.67 65.21,2.73 65.41,2.73 65.41,2.87 65.61,2.87 65.61,2.72 65.81,2.72 65.81,2.68 66.01,2.68 66.01,2.73 66.21,2.73 66.21,2.74 66.41,2.74 66.41,2.75 66.61,2.75 66.61,2.76 66.81,2.76 66.81,2.79 67.01,2.79 67.01,2.78 67.21,2.78 67.21,2.76 67.41,2.76 67.41,2.79 67.61,2.79 67.61,2.74 67.81,2.74 67.81,2.83 68.01,2.83 68.01,2.9 68.21,2.9 68.21,2.91 68.41,2.91 68.41,2.81 68.61,2.81 68.61,2.8 68.81,2.8 68.81,2.77 69,2.77 69,2.76 69.2,2.76 69.2,2.82 69.4,2.82 69.4,2.72 69.6,2.72 69.6,2.92 69.8,2.92 69.8,2.94 70,2.94 70,2.84 70.2,2.84 70.2,2.88 70.4,2.88 70.4,2.82 70.6,2.82 70.6,2.84 70.8,2.84 70.8,2.94 71,2.94 71,2.96 71.2,2.96 71.2,2.79 71.4,2.79 71.4,2.8 71.6,2.8 71.6,2.94 71.8,2.94 71.8,2.84 72,2.84 72,2.91 72.2,2.91 72.2,2.86 72.4,2.86 72.4,2.8 72.6,2.8 72.6,2.87 72.8,2.87 72.8,2.9 73,2.9 73,2.9 73.2,2.9 73.2,2.91 73.4,2.91 73.4,2.83 73.59,2.83 73.59,2.95 73.79,2.95 73.79,2.91 73.99,2.91 73.99,2.92 74.19,2.92 74.19,3.02 74.39,3.02 74.39,3 74.59,3 74.59,2.94 74.79,2.94 74.79,2.94 74.99,2.94 74.99,2.97 75.19,2.97 75.19,2.99 75.39,2.99 75.39,2.86 75.59,2.86 75.59,2.94 75.79,2.94 75.79,2.93 75.99,2.93 75.99,3 76.19,3 76.19,2.87 76.39,2.87 76.39,2.91 76.59,2.91 76.59,2.96 76.79,2.96 76.79,3 76.99,3 76.99,2.84 77.19,2.84 77.19,2.87 77.39,2.87 77.39,3.06 77.59,3.06 77.59,3.01 77.79,3.01 77.79,3.05 77.99,3.05 77.99,2.89 78.19,2.89 78.19,3.02 78.38,3.02 78.38,2.97 78.58,2.97 78.58,3.02 78.78,3.02 78.78,3.05 78.98,3.05 78.98,2.94 79.18,2.94 79.18,3.12 79.38,3.12 79.38,3.02 79.58,3.02 79.58,3 79.78,3 79.78,2.95 79.98,2.95 79.98,2.99 80.18,2.99 80.18,3.04 80.38,3.04 80.38,3.1 80.58,3.1 80.58,3.02 80.78,3.02 80.78,2.96 80.98,2.96 80.98,3.08 81.18,3.08 81.18,3 81.38,3 81.38,3.02 81.58,3.02 81.58,3.01 81.78,3.01 81.78,3.06 81.98,3.06 81.98,3.08 82.18,3.08 82.18,3.05 82.38,3.05 82.38,3.06 82.58,3.06 82.58,3.07 82.78,3.07 82.78,3.01 82.98,3.01 82.98,3.1 83.17,3.1 83.17,3.04 83.37,3.04 83.37,3.04 83.57,3.04 83.57,3.03 83.77,3.03 83.77,3.08 83.97,3.08 83.97,3.02 84.17,3.02 84.17,3.09 84.37,3.09 84.37,3 84.57,3 84.57,3.07 84.77,3.07 84.77,3.12 84.97,3.12 84.97,3.14 85.17,3.14 85.17,3.18 85.37,3.18 85.37,3.01 85.57,3.01 85.57,3.1 85.77,3.1 85.77,3.18 85.97,3.18 85.97,3.11 86.17,3.11 86.17,3.1 86.37,3.1 86.37,3.14 86.57,3.14 86.57,3.12 86.77,3.12 86.77,3.07 86.97,3.07 86.97,3.19 87.17,3.19 87.17,3.11 87.37,3.11 87.37,3.15 87.57,3.15 87.57,3.07 87.77,3.07 87.77,3.04 87.96,3.04 87.96,3.1 88.16,3.1 88.16,3.15 88.36,3.15 88.36,3.11 88.56,3.11 88.56,3.09 88.76,3.09 88.76,3.13 88.96,3.13 88.96,3.11 89.16,3.11 89.16,3.12 89.36,3.12 89.36,3.26 89.56,3.26 89.56,3.14 89.76,3.14 89.76,3.16 89.96,3.16 89.96,3.26 90.16,3.26 90.16,3.16 90.36,3.16 90.36,3.15 90.56,3.15 90.56,3.12 90.76,3.12 90.76,3.2 90.96,3.2 90.96,3.13 91.16,3.13 91.16,3.24 91.36,3.24 91.36,3.13 91.56,3.13 91.56,3.22 91.76,3.22 91.76,3.15 91.96,3.15 91.96,3.16 92.16,3.16 92.16,3.11 92.36,3.11 92.36,3.17 92.55,3.17 92.55,3.18 92.75,3.18 92.75,3.24 92.95,3.24 92.95,3.25 93.15,3.25 93.15,3.16 93.35,3.16 93.35,3.2 93.55,3.2 93.55,3.17 93.75,3.17 93.75,3.22 93.95,3.22 93.95,3.22 94.15,3.22 94.15,3.27 94.35,3.27 94.35,3.22 94.55,3.22 94.55,3.11 94.75,3.11 94.75,3.14 94.95,3.14 94.95,3.25 95.15,3.25 95.15,3.18 95.35,3.18 95.35,3.26 95.55,3.26 95.55,3.22 95.75,3.22 95.75,3.24 95.95,3.24 95.95,3.33 96.15,3.33 96.15,3.21 96.35,3.21 96.35,3.17 96.55,3.17 96.55,3.21 96.75,3.21 96.75,3.24 96.95,3.24 96.95,3.16 97.15,3.16 97.15,3.28 97.34,3.28 97.34,3.17 97.54,3.17 97.54,3.21 97.74,3.21 97.74,3.29 97.94,3.29 97.94,3.24 98.14,3.24 98.14,3.24 98.34,3.24 98.34,3.3 98.54,3.3 98.54,3.21 98.74,3.21 98.74,3.25 98.94,3.25 98.94,3.29 99.14,3.29 99.14,3.32 99.34,3.32 99.34,3.29 99.54,3.29 99.54,3.29 99.74,3.29 99.74,3.33 99.94,3.33 99.94,3.3 100.14,3.3 100.14,3.34 100.34,3.34 100.34,3.29 100.54,3.29 100.54,3.35 100.74,3.35 100.74,3.3 100.94,3.3 100.94,3.36 101.14,3.36 101.14,3.3 101.34,3.3 101.34,3.27 101.54,3.27 101.54,3.33 101.74,3.33 101.74,3.33 101.94,3.33 101.94,3.4 102.13,3.4 102.13,3.29 102.33,3.29 102.33,3.39 102.53,3.39 102.53,3.24 102.73,3.24 102.73,3.39 102.93,3.39 102.93,3.4 103.13,3.4 103.13,3.29 103.33,3.29 103.33,3.36 103.53,3.36 103.53,3.37 103.73,3.37 103.73,3.33 103.93,3.33 103.93,3.37 104.13,3.37 104.13,3.35 104.33,3.35 104.33,3.37 104.53,3.37 104.53,3.41 104.73,3.41 104.73,3.39 104.93,3.39 104.93,3.29 105.13,3.29 105.13,3.46 105.33,3.46 105.33,3.36 105.53,3.36 105.53,3.38 105.73,3.38 105.73,3.39 105.93,3.39 105.93,3.35 106.13,3.35 106.13,3.37 106.33,3.37 106.33,3.42 106.53,3.42 106.53,3.34 106.73,3.34 106.73,3.36 106.92,3.36 106.92,3.37 107.12,3.37 107.12,3.35 107.32,3.35 107.32,3.41 107.52,3.41 107.52,3.42 107.72,3.42 107.72,3.46 107.92,3.46 107.92,3.39 108.12,3.39 108.12,3.39 108.32,3.39 108.32,3.44 108.52,3.44 108.52,3.44 108.72,3.44 108.72,3.45 108.92,3.45 108.92,3.42 109.12,3.42 109.12,3.4 109.32,3.4 109.32,3.39 109.52,3.39 109.52,3.35 109.72,3.35 109.72,3.45 109.92,3.45 109.92,3.41 110.12,3.41 110.12,3.48 110.32,3.48 110.32,3.43 110.52,3.43 110.52,3.44 110.72,3.44 110.72,3.46 110.92,3.46 110.92,3.4 111.12,3.4 111.12,3.49 111.32,3.49 111.32,3.37 111.52,3.37 111.52,3.39 111.71,3.39 111.71,3.44 111.91,3.44 111.91,3.49 112.11,3.49 112.11,3.49 112.31,3.49 112.31,3.44 112.51,3.44 112.51,3.51 112.71,3.51 112.71,3.45 112.91,3.45 112.91,3.46 113.11,3.46 113.11,3.46 113.31,3.46 113.31,3.45 113.51,3.45 113.51,3.51 113.71,3.51 113.71,3.47 " class="primitive"/>
            </g>
          </g>
        </g>
      </g>
    </g>
  </g>
  <g class="guide ylabels" font-size="2.82" font-family="'PT Sans Caption','Helvetica Neue','Helvetica',sans-serif" fill="#6C606B" id="img-bd0db3e8-190">
    <g transform="translate(20.77,59.87)" id="img-bd0db3e8-191">
      <g class="primitive">
        <text text-anchor="end" dy="0.35em">0</text>
      </g>
    </g>
    <g transform="translate(20.77,39.51)" id="img-bd0db3e8-192">
      <g class="primitive">
        <text text-anchor="end" dy="0.35em">1.010</text>
      </g>
    </g>
    <g transform="translate(20.77,19.15)" id="img-bd0db3e8-193">
      <g class="primitive">
        <text text-anchor="end" dy="0.35em">2.010</text>
      </g>
    </g>
  </g>
  <g font-size="3.18" font-family="'PT Sans','Helvetica Neue','Helvetica',sans-serif" fill="#202020" stroke="#000000" stroke-opacity="0.000" id="img-bd0db3e8-194">
    <g transform="translate(4.18,31.76)" id="img-bd0db3e8-195">
      <g class="primitive">
        <text text-anchor="middle" dy="0.35em" transform="rotate(-90,0, 2)">Counts</text>
      </g>
    </g>
  </g>
  <g font-size="3.18" font-family="'PT Sans','Helvetica Neue','Helvetica',sans-serif" fill="#202020" stroke="#000000" stroke-opacity="0.000" id="img-bd0db3e8-196">
    <g transform="translate(137.53,0.71)" id="img-bd0db3e8-197">
      <g class="primitive">
        <text text-anchor="middle" dy="0.6em">III-E K412[0][all]</text>
      </g>
    </g>
  </g>
</g>
<defs>
  <clipPath id="img-bd0db3e8-4">
    <path d="M21.77,5.66 L253.29,5.66 253.29,61.87 21.77,61.87 " />
  </clipPath>
</defs>
</svg>
