<?xml version="1.0" encoding="UTF-8"?>
<svg xmlns="http://www.w3.org/2000/svg"
     xmlns:xlink="http://www.w3.org/1999/xlink"
     xmlns:gadfly="http://www.gadflyjl.org/ns"
     version="1.2"
     width="254mm" height="76.2mm" viewBox="0 0 254 76.2"
     stroke="none"
     fill="#000000"
     stroke-width="0.3"
     font-size="3.88"
>
<defs>
  <marker id="arrow" markerWidth="15" markerHeight="7" refX="5" refY="3.5" orient="auto" markerUnits="strokeWidth">
    <path d="M0,0 L15,3.5 L0,7 z" stroke="context-stroke" fill="context-stroke"/>
  </marker>
</defs>
<g class="plotroot xscalable yscalable" id="img-4829ce4a-1">
  <g font-size="3.18" font-family="'PT Sans','Helvetica Neue','Helvetica',sans-serif" fill="#202020" stroke="#000000" stroke-opacity="0.000" id="img-4829ce4a-2">
    <g transform="translate(135.66,69.54)">
      <g class="primitive">
        <text text-anchor="middle" dy="0.6em">Energy (eV)</text>
      </g>
    </g>
  </g>
  <g class="guide xlabels" font-size="2.82" font-family="'PT Sans Caption','Helvetica Neue','Helvetica',sans-serif" fill="#6C606B" id="img-4829ce4a-3">
    <g transform="translate(20.03,62.87)">
      <g class="primitive">
        <text text-anchor="middle" dy="0.6em">0</text>
      </g>
    </g>
    <g transform="translate(77.84,62.87)">
      <g class="primitive">
        <text text-anchor="middle" dy="0.6em">2000</text>
      </g>
    </g>
    <g transform="translate(135.66,62.87)">
      <g class="primitive">
        <text text-anchor="middle" dy="0.6em">4000</text>
      </g>
    </g>
    <g transform="translate(193.48,62.87)">
      <g class="primitive">
        <text text-anchor="middle" dy="0.6em">6000</text>
      </g>
    </g>
    <g transform="translate(251.29,62.87)">
      <g class="primitive">
        <text text-anchor="middle" dy="0.6em">8000</text>
      </g>
    </g>
  </g>
  <g clip-path="url(#img-4829ce4a-4)">
    <g id="img-4829ce4a-5">
      <g pointer-events="visible" stroke-width="0.3" fill="#FDFDF1" stroke="#202020" class="guide background" id="img-4829ce4a-6">
        <g transform="translate(135.66,31.29)" id="img-4829ce4a-7">
          <path d="M-117.63,-30.58 L117.63,-30.58 117.63,30.58 -117.63,30.58  z" class="primitive"/>
        </g>
      </g>
      <g class="guide ygridlines xfixed" stroke-dasharray="none" stroke-width="0.2" stroke="#FFDFDF" id="img-4829ce4a-8">
        <g transform="translate(135.66,59.87)" id="img-4829ce4a-9">
          <path fill="none" d="M-117.63,0 L117.63,0 " class="primitive"/>
        </g>
        <g transform="translate(135.66,43.65)" id="img-4829ce4a-10">
          <path fill="none" d="M-117.63,0 L117.63,0 " class="primitive"/>
        </g>
        <g transform="translate(135.66,27.43)" id="img-4829ce4a-11">
          <path fill="none" d="M-117.63,0 L117.63,0 " class="primitive"/>
        </g>
        <g transform="translate(135.66,11.21)" id="img-4829ce4a-12">
          <path fill="none" d="M-117.63,0 L117.63,0 " class="primitive"/>
        </g>
      </g>
      <g class="guide xgridlines yfixed" stroke-dasharray="none" stroke-width="0.2" stroke="#FFDFDF" id="img-4829ce4a-13">
        <g transform="translate(20.03,31.29)" id="img-4829ce4a-14">
          <path fill="none" d="M0,-30.58 L0,30.58 " class="primitive"/>
        </g>
        <g transform="translate(77.84,31.29)" id="img-4829ce4a-15">
          <path fill="none" d="M0,-30.58 L0,30.58 " class="primitive"/>
        </g>
        <g transform="translate(135.66,31.29)" id="img-4829ce4a-16">
          <path fill="none" d="M0,-30.58 L0,30.58 " class="primitive"/>
        </g>
        <g transform="translate(193.48,31.29)" id="img-4829ce4a-17">
          <path fill="none" d="M0,-30.58 L0,30.58 " class="primitive"/>
        </g>
        <g transform="translate(251.29,31.29)" id="img-4829ce4a-18">
          <path fill="none" d="M0,-30.58 L0,30.58 " class="primitive"/>
        </g>
      </g>
      <g class="plotpanel" id="img-4829ce4a-19">
        <metadata>
          <boundingbox value="18.027222222222242mm 0.7055555555555555mm 235.26722222222224mm 61.16055555555556mm"/>
          <unitbox value="-69.18403674441063 72953.3328873835 8138.368073488822 -75419.615774767"/>
        </metadata>
        <g stroke-width="0.3" fill="#000000" fill-opacity="0.000" class="geometry" id="img-4829ce4a-20">
          <g class="color_RGB{N0f8}(0.718,0.0,0.008)" stroke-dasharray="none" stroke-opacity="1" stroke="#B70002" id="img-4829ce4a-21">
            <g transform="translate(135.62,28.9)" id="img-4829ce4a-22">
              <path fill="none" d="M-115.54,30.95 L-115.26,30.95 -115.26,30.94 -114.97,30.94 -114.97,30.95 -114.68,30.95 -114.68,30.95 -114.39,30.95 -114.39,30.96 -114.1,30.96 -114.1,30.96 -113.81,30.96 -113.81,30.96 -113.52,30.96 -113.52,30.96 -113.23,30.96 -113.23,30.97 -112.94,30.97 -112.94,30.97 -112.65,30.97 -112.65,30.97 -112.37,30.97 -112.37,30.96 -112.08,30.96 -112.08,30.95 -111.79,30.95 -111.79,30.93 -111.5,30.93 -111.5,30.91 -111.21,30.91 -111.21,30.87 -110.92,30.87 -110.92,30.78 -110.63,30.78 -110.63,30.63 -110.34,30.63 -110.34,30.37 -110.05,30.37 -110.05,29.92 -109.76,29.92 -109.76,29.08 -109.47,29.08 -109.47,27.69 -109.19,27.69 -109.19,25.46 -108.9,25.46 -108.9,21.82 -108.61,21.82 -108.61,17.34 -108.32,17.34 -108.32,12.6 -108.03,12.6 -108.03,9.38 -107.74,9.38 -107.74,10.11 -107.45,10.11 -107.45,14.98 -107.16,14.98 -107.16,22.08 -106.87,22.08 -106.87,29.28 -106.58,29.28 -106.58,34.48 -106.3,34.48 -106.3,37.79 -106.01,37.79 -106.01,40.03 -105.72,40.03 -105.72,41.28 -105.43,41.28 -105.43,42.4 -105.14,42.4 -105.14,43.25 -104.85,43.25 -104.85,44.27 -104.56,44.27 -104.56,45.17 -104.27,45.17 -104.27,45.87 -103.98,45.87 -103.98,46.85 -103.69,46.85 -103.69,47.3 -103.4,47.3 -103.4,47.2 -103.12,47.2 -103.12,46.97 -102.83,46.97 -102.83,45.89 -102.54,45.89 -102.54,44.52 -102.25,44.52 -102.25,42.94 -101.96,42.94 -101.96,40.75 -101.67,40.75 -101.67,38.06 -101.38,38.06 -101.38,35.46 -101.09,35.46 -101.09,32.11 -100.8,32.11 -100.8,29.86 -100.51,29.86 -100.51,27.08 -100.23,27.08 -100.23,24.49 -99.94,24.49 -99.94,18.72 -99.65,18.72 -99.65,8.4 -99.36,8.4 -99.36,-11.53 -99.07,-11.53 -99.07,-42.85 -98.78,-42.85 -98.78,-84.26 -98.49,-84.26 -98.49,-129.84 -98.2,-129.84 -98.2,-169.15 -97.91,-169.15 -97.91,-190.67 -97.62,-190.67 -97.62,-193.52 -97.33,-193.52 -97.33,-185.16 -97.05,-185.16 -97.05,-182.84 -96.76,-182.84 -96.76,-207.62 -96.47,-207.62 -96.47,-272.25 -96.18,-272.25 -96.18,-374.51 -95.89,-374.51 -95.89,-489.12 -95.6,-489.12 -95.6,-581.76 -95.31,-581.76 -95.31,-616.03 -95.02,-616.03 -95.02,-574.15 -94.73,-574.15 -94.73,-474.79 -94.44,-474.79 -94.44,-344.56 -94.16,-344.56 -94.16,-221.94 -93.87,-221.94 -93.87,-124.38 -93.58,-124.38 -93.58,-59.66 -93.29,-59.66 -93.29,-20.87 -93,-20.87 -93,0.46 -92.71,0.46 -92.71,12.09 -92.42,12.09 -92.42,18.99 -92.13,18.99 -92.13,23.98 -91.84,23.98 -91.84,27.77 -91.55,27.77 -91.55,30.48 -91.27,30.48 -91.27,32.3 -90.98,32.3 -90.98,33.61 -90.69,33.61 -90.69,34.27 -90.4,34.27 -90.4,34.66 -90.11,34.66 -90.11,34.67 -89.82,34.67 -89.82,34.79 -89.53,34.79 -89.53,34.85 -89.24,34.85 -89.24,34.71 -88.95,34.71 -88.95,34.78 -88.66,34.78 -88.66,34.65 -88.37,34.65 -88.37,34.66 -88.09,34.66 -88.09,34.83 -87.8,34.83 -87.8,34.99 -87.51,34.99 -87.51,34.8 -87.22,34.8 -87.22,35.08 -86.93,35.08 -86.93,35.01 -86.64,35.01 -86.64,35.16 -86.35,35.16 -86.35,35.14 -86.06,35.14 -86.06,35.05 -85.77,35.05 -85.77,35.12 -85.48,35.12 -85.48,35.19 -85.2,35.19 -85.2,35.33 -84.91,35.33 -84.91,35.26 -84.62,35.26 -84.62,35.26 -84.33,35.26 -84.33,35.29 -84.04,35.29 -84.04,35.25 -83.75,35.25 -83.75,35.36 -83.46,35.36 -83.46,35.46 -83.17,35.46 -83.17,35.09 -82.88,35.09 -82.88,35.14 -82.59,35.14 -82.59,35.22 -82.3,35.22 -82.3,35.31 -82.02,35.31 -82.02,35.17 -81.73,35.17 -81.73,35.01 -81.44,35.01 -81.44,35.05 -81.15,35.05 -81.15,35.16 -80.86,35.16 -80.86,34.64 -80.57,34.64 -80.57,34.45 -80.28,34.45 -80.28,34.06 -79.99,34.06 -79.99,33.65 -79.7,33.65 -79.7,33.27 -79.41,33.27 -79.41,32.34 -79.13,32.34 -79.13,31.68 -78.84,31.68 -78.84,31 -78.55,31 -78.55,30.57 -78.26,30.57 -78.26,30.1 -77.97,30.1 -77.97,29.76 -77.68,29.76 -77.68,29.72 -77.39,29.72 -77.39,29.34 -77.1,29.34 -77.1,29.39 -76.81,29.39 -76.81,29.02 -76.52,29.02 -76.52,29 -76.23,29 -76.23,29.02 -75.95,29.02 -75.95,29.02 -75.66,29.02 -75.66,29.22 -75.37,29.22 -75.37,28.95 -75.08,28.95 -75.08,29.11 -74.79,29.11 -74.79,29.24 -74.5,29.24 -74.5,29.54 -74.21,29.54 -74.21,29.49 -73.92,29.49 -73.92,29.55 -73.63,29.55 -73.63,29.25 -73.34,29.25 -73.34,29.36 -73.06,29.36 -73.06,29.04 -72.77,29.04 -72.77,29.24 -72.48,29.24 -72.48,28.98 -72.19,28.98 -72.19,29.4 -71.9,29.4 -71.9,29.56 -71.61,29.56 -71.61,30.19 -71.32,30.19 -71.32,30.2 -71.03,30.2 -71.03,30.69 -70.74,30.69 -70.74,30.91 -70.45,30.91 -70.45,31.18 -70.16,31.18 -70.16,31.27 -69.88,31.27 -69.88,31.64 -69.59,31.64 -69.59,31.53 -69.3,31.53 -69.3,31.74 -69.01,31.74 -69.01,31.74 -68.72,31.74 -68.72,31.96 -68.43,31.96 -68.43,31.77 -68.14,31.77 -68.14,31.73 -67.85,31.73 -67.85,31.69 -67.56,31.69 -67.56,31.46 -67.27,31.46 -67.27,31.19 -66.99,31.19 -66.99,30.92 -66.7,30.92 -66.7,30.26 -66.41,30.26 -66.41,29.63 -66.12,29.63 -66.12,28.72 -65.83,28.72 -65.83,27.75 -65.54,27.75 -65.54,27.32 -65.25,27.32 -65.25,26.96 -64.96,26.96 -64.96,26.97 -64.67,26.97 -64.67,27.23 -64.38,27.23 -64.38,27.67 -64.1,27.67 -64.1,28.61 -63.81,28.61 -63.81,29.22 -63.52,29.22 -63.52,29.79 -63.23,29.79 -63.23,30.22 -62.94,30.22 -62.94,30.3 -62.65,30.3 -62.65,30.9 -62.36,30.9 -62.36,31.25 -62.07,31.25 -62.07,31.55 -61.78,31.55 -61.78,32.14 -61.49,32.14 -61.49,32.24 -61.2,32.24 -61.2,32.16 -60.92,32.16 -60.92,32.5 -60.63,32.5 -60.63,32.65 -60.34,32.65 -60.34,32.43 -60.05,32.43 -60.05,32.28 -59.76,32.28 -59.76,32.71 -59.47,32.71 -59.47,32.16 -59.18,32.16 -59.18,32.52 -58.89,32.52 -58.89,32.54 -58.6,32.54 -58.6,32.24 -58.31,32.24 -58.31,32.14 -58.03,32.14 -58.03,32.27 -57.74,32.27 -57.74,31.95 -57.45,31.95 -57.45,32.06 -57.16,32.06 -57.16,31.76 -56.87,31.76 -56.87,32.04 -56.58,32.04 -56.58,31.96 -56.29,31.96 -56.29,31.96 -56,31.96 -56,32.05 -55.71,32.05 -55.71,31.98 -55.42,31.98 -55.42,32.15 -55.13,32.15 -55.13,31.94 -54.85,31.94 -54.85,32.08 -54.56,32.08 -54.56,32.17 -54.27,32.17 -54.27,32.19 -53.98,32.19 -53.98,31.96 -53.69,31.96 -53.69,31.73 -53.4,31.73 -53.4,31.98 -53.11,31.98 -53.11,32.03 -52.82,32.03 -52.82,31.84 -52.53,31.84 -52.53,31.74 -52.24,31.74 -52.24,32.12 -51.96,32.12 -51.96,31.96 -51.67,31.96 -51.67,31.93 -51.38,31.93 -51.38,32.06 -51.09,32.06 -51.09,31.87 -50.8,31.87 -50.8,32.2 -50.51,32.2 -50.51,31.78 -50.22,31.78 -50.22,31.75 -49.93,31.75 -49.93,31.98 -49.64,31.98 -49.64,32.03 -49.35,32.03 -49.35,31.6 -49.06,31.6 -49.06,31.79 -48.78,31.79 -48.78,32.03 -48.49,32.03 -48.49,31.46 -48.2,31.46 -48.2,31.8 -47.91,31.8 -47.91,31.51 -47.62,31.51 -47.62,32.18 -47.33,32.18 -47.33,31.74 -47.04,31.74 -47.04,32.05 -46.75,32.05 -46.75,31.93 -46.46,31.93 -46.46,31.64 -46.17,31.64 -46.17,31.95 -45.89,31.95 -45.89,31.67 -45.6,31.67 -45.6,31.98 -45.31,31.98 -45.31,31.89 -45.02,31.89 -45.02,31.71 -44.73,31.71 -44.73,31.93 -44.44,31.93 -44.44,31.9 -44.15,31.9 -44.15,32.01 -43.86,32.01 -43.86,31.53 -43.57,31.53 -43.57,32 -43.28,32 -43.28,32.13 -43,32.13 -43,31.5 -42.71,31.5 -42.71,31.82 -42.42,31.82 -42.42,31.46 -42.13,31.46 -42.13,31.71 -41.84,31.71 -41.84,31.58 -41.55,31.58 -41.55,31.92 -41.26,31.92 -41.26,31.84 -40.97,31.84 -40.97,31.75 -40.68,31.75 -40.68,31.55 -40.39,31.55 -40.39,31.85 -40.1,31.85 -40.1,31.58 -39.82,31.58 -39.82,31.76 -39.53,31.76 -39.53,31.59 -39.24,31.59 -39.24,31.46 -38.95,31.46 -38.95,31.63 -38.66,31.63 -38.66,31.63 -38.37,31.63 -38.37,31.54 -38.08,31.54 -38.08,31.91 -37.79,31.91 -37.79,31.82 -37.5,31.82 -37.5,31.59 -37.21,31.59 -37.21,31.38 -36.93,31.38 -36.93,31.67 -36.64,31.67 -36.64,31.49 -36.35,31.49 -36.35,31.6 -36.06,31.6 -36.06,31.61 -35.77,31.61 -35.77,31.69 -35.48,31.69 -35.48,31.54 -35.19,31.54 -35.19,31.69 -34.9,31.69 -34.9,31.74 -34.61,31.74 -34.61,31.51 -34.32,31.51 -34.32,31.73 -34.03,31.73 -34.03,31.53 -33.75,31.53 -33.75,31.95 -33.46,31.95 -33.46,31.4 -33.17,31.4 -33.17,31.62 -32.88,31.62 -32.88,31.57 -32.59,31.57 -32.59,31.5 -32.3,31.5 -32.3,31.7 -32.01,31.7 -32.01,31.43 -31.72,31.43 -31.72,31.35 -31.43,31.35 -31.43,31.59 -31.14,31.59 -31.14,31.72 -30.86,31.72 -30.86,31.55 -30.57,31.55 -30.57,31.56 -30.28,31.56 -30.28,31.35 -29.99,31.35 -29.99,31.68 -29.7,31.68 -29.7,31.83 -29.41,31.83 -29.41,31.61 -29.12,31.61 -29.12,31.58 -28.83,31.58 -28.83,31.48 -28.54,31.48 -28.54,31.51 -28.25,31.51 -28.25,31.58 -27.96,31.58 -27.96,31.48 -27.68,31.48 -27.68,31.53 -27.39,31.53 -27.39,31.78 -27.1,31.78 -27.1,31.59 -26.81,31.59 -26.81,31.65 -26.52,31.65 -26.52,31.51 -26.23,31.51 -26.23,31.71 -25.94,31.71 -25.94,31.64 -25.65,31.64 -25.65,31.61 -25.36,31.61 -25.36,31.61 -25.07,31.61 -25.07,31.6 -24.79,31.6 -24.79,31.55 -24.5,31.55 -24.5,31.48 -24.21,31.48 -24.21,31.48 -23.92,31.48 -23.92,31.76 -23.63,31.76 -23.63,31.67 -23.34,31.67 -23.34,31.51 -23.05,31.51 -23.05,31.74 -22.76,31.74 -22.76,31.72 -22.47,31.72 -22.47,31.32 -22.18,31.32 -22.18,31.64 -21.89,31.64 -21.89,31.76 -21.61,31.76 -21.61,31.71 -21.32,31.71 -21.32,31.56 -21.03,31.56 -21.03,31.53 -20.74,31.53 -20.74,31.57 -20.45,31.57 -20.45,31.43 -20.16,31.43 -20.16,31.4 -19.87,31.4 -19.87,31.51 -19.58,31.51 -19.58,31.42 -19.29,31.42 -19.29,31.54 -19,31.54 -19,31.63 -18.72,31.63 -18.72,32.02 -18.43,32.02 -18.43,31.67 -18.14,31.67 -18.14,31.65 -17.85,31.65 -17.85,31.52 -17.56,31.52 -17.56,31.78 -17.27,31.78 -17.27,31.56 -16.98,31.56 -16.98,31.53 -16.69,31.53 -16.69,31.84 -16.4,31.84 -16.4,31.61 -16.11,31.61 -16.11,31.72 -15.83,31.72 -15.83,31.59 -15.54,31.59 -15.54,31.7 -15.25,31.7 -15.25,31.78 -14.96,31.78 -14.96,31.43 -14.67,31.43 -14.67,31.78 -14.38,31.78 -14.38,31.99 -14.09,31.99 -14.09,31.78 -13.8,31.78 -13.8,31.79 -13.51,31.79 -13.51,32.06 -13.22,32.06 -13.22,31.75 -12.93,31.75 -12.93,31.66 -12.65,31.66 -12.65,31.64 -12.36,31.64 -12.36,31.67 -12.07,31.67 -12.07,31.5 -11.78,31.5 -11.78,31.45 -11.49,31.45 -11.49,31.6 -11.2,31.6 -11.2,31.79 -10.91,31.79 -10.91,31.48 -10.62,31.48 -10.62,31.5 -10.33,31.5 -10.33,31.71 -10.04,31.71 -10.04,31.75 -9.76,31.75 -9.76,31.34 -9.47,31.34 -9.47,31.73 -9.18,31.73 -9.18,31.65 -8.89,31.65 -8.89,31.67 -8.6,31.67 -8.6,31.3 -8.31,31.3 -8.31,31.6 -8.02,31.6 -8.02,31.65 -7.73,31.65 -7.73,31.55 -7.44,31.55 -7.44,31.79 -7.15,31.79 -7.15,31.5 -6.86,31.5 -6.86,31.62 -6.58,31.62 -6.58,31.68 -6.29,31.68 -6.29,31.71 -6,31.71 -6,31.74 -5.71,31.74 -5.71,31.72 -5.42,31.72 -5.42,31.86 -5.13,31.86 -5.13,31.7 -4.84,31.7 -4.84,31.86 -4.55,31.86 -4.55,31.61 -4.26,31.61 -4.26,31.61 -3.97,31.61 -3.97,31.83 -3.69,31.83 -3.69,31.51 -3.4,31.51 -3.4,31.83 -3.11,31.83 -3.11,31.7 -2.82,31.7 -2.82,31.64 -2.53,31.64 -2.53,31.73 -2.24,31.73 -2.24,31.43 -1.95,31.43 -1.95,31.59 -1.66,31.59 -1.66,32.08 -1.37,32.08 -1.37,31.9 -1.08,31.9 -1.08,31.82 -0.79,31.82 -0.79,31.46 -0.51,31.46 -0.51,31.74 -0.22,31.74 -0.22,31.76 0.07,31.76 0.07,31.79 0.36,31.79 0.36,31.7 0.65,31.7 0.65,31.86 0.94,31.86 0.94,31.48 1.23,31.48 1.23,31.75 1.52,31.75 1.52,31.67 1.81,31.67 1.81,31.57 2.1,31.57 2.1,31.4 2.38,31.4 2.38,31.78 2.67,31.78 2.67,31.71 2.96,31.71 2.96,31.64 3.25,31.64 3.25,31.79 3.54,31.79 3.54,31.95 3.83,31.95 3.83,31.72 4.12,31.72 4.12,31.68 4.41,31.68 4.41,31.82 4.7,31.82 4.7,31.66 4.99,31.66 4.99,32.06 5.28,32.06 5.28,31.73 5.56,31.73 5.56,31.63 5.85,31.63 5.85,31.62 6.14,31.62 6.14,31.53 6.43,31.53 6.43,31.58 6.72,31.58 6.72,31.62 7.01,31.62 7.01,31.68 7.3,31.68 7.3,31.66 7.59,31.66 7.59,31.63 7.88,31.63 7.88,31.49 8.17,31.49 8.17,31.65 8.45,31.65 8.45,31.51 8.74,31.51 8.74,31.68 9.03,31.68 9.03,31.67 9.32,31.67 9.32,31.26 9.61,31.26 9.61,31.75 9.9,31.75 9.9,31.57 10.19,31.57 10.19,31.61 10.48,31.61 10.48,31.69 10.77,31.69 10.77,31.44 11.06,31.44 11.06,31.43 11.34,31.43 11.34,31.51 11.63,31.51 11.63,31.43 11.92,31.43 11.92,31.42 12.21,31.42 12.21,31.75 12.5,31.75 12.5,31.5 12.79,31.5 12.79,31.78 13.08,31.78 13.08,31.48 13.37,31.48 13.37,31.43 13.66,31.43 13.66,31.56 13.95,31.56 13.95,31.42 14.24,31.42 14.24,31.5 14.52,31.5 14.52,31.55 14.81,31.55 14.81,31.38 15.1,31.38 15.1,31.03 15.39,31.03 15.39,31.19 15.68,31.19 15.68,31.1 15.97,31.1 15.97,30.98 16.26,30.98 16.26,30.35 16.55,30.35 16.55,30.23 16.84,30.23 16.84,29.58 17.13,29.58 17.13,29.48 17.41,29.48 17.41,29.22 17.7,29.22 17.7,28.75 17.99,28.75 17.99,28.1 18.28,28.1 18.28,27.78 18.57,27.78 18.57,27.37 18.86,27.37 18.86,27.28 19.15,27.28 19.15,27.3 19.44,27.3 19.44,27.38 19.73,27.38 19.73,27.89 20.02,27.89 20.02,27.94 20.31,27.94 20.31,28.65 20.59,28.65 20.59,29.32 20.88,29.32 20.88,29.83 21.17,29.83 21.17,30.06 21.46,30.06 21.46,30.33 21.75,30.33 21.75,30.36 22.04,30.36 22.04,31.07 22.33,31.07 22.33,31.17 22.62,31.17 22.62,31.24 22.91,31.24 22.91,31.33 23.2,31.33 23.2,31.46 23.48,31.46 23.48,31.3 23.77,31.3 23.77,31.34 24.06,31.34 24.06,31.33 24.35,31.33 24.35,31.38 24.64,31.38 24.64,31.57 24.93,31.57 24.93,31.57 25.22,31.57 25.22,31.39 25.51,31.39 25.51,31.52 25.8,31.52 25.8,31.23 26.09,31.23 26.09,31.53 26.38,31.53 26.38,31.56 26.66,31.56 26.66,31.4 26.95,31.4 26.95,31.53 27.24,31.53 27.24,31.4 27.53,31.4 27.53,31.76 27.82,31.76 27.82,31.28 28.11,31.28 28.11,31.14 28.4,31.14 28.4,31.3 28.69,31.3 28.69,31.64 28.98,31.64 28.98,31.41 29.27,31.41 29.27,31.16 29.55,31.16 29.55,31.54 29.84,31.54 29.84,31.61 30.13,31.61 30.13,31.42 30.42,31.42 30.42,31.34 30.71,31.34 30.71,31.42 31,31.42 31,31.52 31.29,31.52 31.29,31.17 31.58,31.17 31.58,31.51 31.87,31.51 31.87,31.25 32.16,31.25 32.16,31.33 32.45,31.33 32.45,31.19 32.73,31.19 32.73,31.16 33.02,31.16 33.02,31.3 33.31,31.3 33.31,31.17 33.6,31.17 33.6,31.19 33.89,31.19 33.89,31.12 34.18,31.12 34.18,31.07 34.47,31.07 34.47,31.19 34.76,31.19 34.76,31.2 35.05,31.2 35.05,31.36 35.34,31.36 35.34,31.22 35.62,31.22 35.62,31.25 35.91,31.25 35.91,31.02 36.2,31.02 36.2,30.91 36.49,30.91 36.49,30.91 36.78,30.91 36.78,30.54 37.07,30.54 37.07,30.71 37.36,30.71 37.36,30.73 37.65,30.73 37.65,30.85 37.94,30.85 37.94,30.57 38.23,30.57 38.23,30.7 38.51,30.7 38.51,30.58 38.8,30.58 38.8,30.61 39.09,30.61 39.09,30.56 39.38,30.56 39.38,30.61 39.67,30.61 39.67,30.91 39.96,30.91 39.96,30.44 40.25,30.44 40.25,30.69 40.54,30.69 40.54,30.34 40.83,30.34 40.83,30.6 41.12,30.6 41.12,30.74 41.41,30.74 41.41,30.54 41.69,30.54 41.69,30.6 41.98,30.6 41.98,30.63 42.27,30.63 42.27,30.79 42.56,30.79 42.56,30.71 42.85,30.71 42.85,30.87 43.14,30.87 43.14,30.75 43.43,30.75 43.43,30.78 43.72,30.78 43.72,31.05 44.01,31.05 44.01,30.92 44.3,30.92 44.3,30.93 44.58,30.93 44.58,30.85 44.87,30.85 44.87,30.85 45.16,30.85 45.16,31.05 45.45,31.05 45.45,30.87 45.74,30.87 45.74,31.01 46.03,31.01 46.03,30.9 46.32,30.9 46.32,30.96 46.61,30.96 46.61,30.93 46.9,30.93 46.9,31.06 47.19,31.06 47.19,30.98 47.48,30.98 47.48,31.04 47.76,31.04 47.76,30.98 48.05,30.98 48.05,31.08 48.34,31.08 48.34,31.21 48.63,31.21 48.63,31.02 48.92,31.02 48.92,31.26 49.21,31.26 49.21,31.15 49.5,31.15 49.5,31.11 49.79,31.11 49.79,31.12 50.08,31.12 50.08,31.12 50.37,31.12 50.37,31.07 50.65,31.07 50.65,31.22 50.94,31.22 50.94,31.33 51.23,31.33 51.23,31.16 51.52,31.16 51.52,31.04 51.81,31.04 51.81,31.03 52.1,31.03 52.1,31.06 52.39,31.06 52.39,30.85 52.68,30.85 52.68,30.99 52.97,30.99 52.97,30.93 53.26,30.93 53.26,31.05 53.55,31.05 53.55,30.95 53.83,30.95 53.83,31.01 54.12,31.01 54.12,30.79 54.41,30.79 54.41,30.87 54.7,30.87 54.7,30.75 54.99,30.75 54.99,30.71 55.28,30.71 55.28,30.66 55.57,30.66 55.57,30.61 55.86,30.61 55.86,30.81 56.15,30.81 56.15,30.61 56.44,30.61 56.44,30.38 56.72,30.38 56.72,30.51 57.01,30.51 57.01,30.46 57.3,30.46 57.3,30.4 57.59,30.4 57.59,30.42 57.88,30.42 57.88,30.3 58.17,30.3 58.17,30.29 58.46,30.29 58.46,30.13 58.75,30.13 58.75,30.09 59.04,30.09 59.04,29.95 59.33,29.95 59.33,29.86 59.62,29.86 59.62,29.79 59.9,29.79 59.9,29.59 60.19,29.59 60.19,29.44 60.48,29.44 60.48,29.33 60.77,29.33 60.77,29 61.06,29 61.06,29.02 61.35,29.02 61.35,28.57 61.64,28.57 61.64,28.44 61.93,28.44 61.93,28.07 62.22,28.07 62.22,27.78 62.51,27.78 62.51,27.35 62.79,27.35 62.79,26.8 63.08,26.8 63.08,26 63.37,26 63.37,25.01 63.66,25.01 63.66,23.29 63.95,23.29 63.95,20.93 64.24,20.93 64.24,17.1 64.53,17.1 64.53,10.72 64.82,10.72 64.82,1.43 65.11,1.43 65.11,-12.92 65.4,-12.92 65.4,-33.03 65.68,-33.03 65.68,-61.99 65.97,-61.99 65.97,-101.12 66.26,-101.12 66.26,-154.62 66.55,-154.62 66.55,-220.93 66.84,-220.93 66.84,-302.6 67.13,-302.6 67.13,-399.66 67.42,-399.66 67.42,-507.58 67.71,-507.58 67.71,-624.21 68,-624.21 68,-742.26 68.29,-742.26 68.29,-854.75 68.58,-854.75 68.58,-955.32 68.86,-955.32 68.86,-1033.07 69.15,-1033.07 69.15,-1082.09 69.44,-1082.09 69.44,-1099.1 69.73,-1099.1 69.73,-1081.77 70.02,-1081.77 70.02,-1033.42 70.31,-1033.42 70.31,-955.52 70.6,-955.52 70.6,-857.45 70.89,-857.45 70.89,-746.69 71.18,-746.69 71.18,-627.87 71.47,-627.87 71.47,-511.9 71.75,-511.9 71.75,-403.12 72.04,-403.12 72.04,-306.72 72.33,-306.72 72.33,-223.57 72.62,-223.57 72.62,-157.15 72.91,-157.15 72.91,-103.58 73.2,-103.58 73.2,-62.63 73.49,-62.63 73.49,-32.97 73.78,-32.97 73.78,-11.98 74.07,-11.98 74.07,2.71 74.36,2.71 74.36,12.34 74.65,12.34 74.65,18.93 74.93,18.93 74.93,23.04 75.22,23.04 75.22,25.66 75.51,25.66 75.51,27.36 75.8,27.36 75.8,28.09 76.09,28.09 76.09,28.69 76.38,28.69 76.38,28.96 76.67,28.96 76.67,29.26 76.96,29.26 76.96,29.52 77.25,29.52 77.25,29.61 77.54,29.61 77.54,29.57 77.82,29.57 77.82,29.72 78.11,29.72 78.11,29.59 78.4,29.59 78.4,29.61 78.69,29.61 78.69,29.75 78.98,29.75 78.98,29.75 79.27,29.75 79.27,29.31 79.56,29.31 79.56,29.4 79.85,29.4 79.85,29.42 80.14,29.42 80.14,29.43 80.43,29.43 80.43,29.17 80.72,29.17 80.72,29.26 81,29.26 81,28.9 81.29,28.9 81.29,28.76 81.58,28.76 81.58,28.24 81.87,28.24 81.87,28.36 82.16,28.36 82.16,27.73 82.45,27.73 82.45,27.36 82.74,27.36 82.74,26.81 83.03,26.81 83.03,25.96 83.32,25.96 83.32,24.88 83.61,24.88 83.61,23.32 83.89,23.32 83.89,21.17 84.18,21.17 84.18,18.48 84.47,18.48 84.47,14.72 84.76,14.72 84.76,9.74 85.05,9.74 85.05,3.36 85.34,3.36 85.34,-4.51 85.63,-4.51 85.63,-14.48 85.92,-14.48 85.92,-25.89 86.21,-25.89 86.21,-38.11 86.5,-38.11 86.5,-51.92 86.79,-51.92 86.79,-66.2 87.07,-66.2 87.07,-79.41 87.36,-79.41 87.36,-91.22 87.65,-91.22 87.65,-101.9 87.94,-101.9 87.94,-109.12 88.23,-109.12 88.23,-112.86 88.52,-112.86 88.52,-112.29 88.81,-112.29 88.81,-109.87 89.1,-109.87 89.1,-101.8 89.39,-101.8 89.39,-91.71 89.68,-91.71 89.68,-79.5 89.96,-79.5 89.96,-65.87 90.25,-65.87 90.25,-52.29 90.54,-52.29 90.54,-38.09 90.83,-38.09 90.83,-25.15 91.12,-25.15 91.12,-13.6 91.41,-13.6 91.41,-3.27 91.7,-3.27 91.7,4.91 91.99,4.91 91.99,11.87 92.28,11.87 92.28,17.4 92.57,17.4 92.57,21.42 92.85,21.42 92.85,24.6 93.14,24.6 93.14,26.82 93.43,26.82 93.43,28.2 93.72,28.2 93.72,29.27 94.01,29.27 94.01,30.18 94.3,30.18 94.3,30.68 94.59,30.68 94.59,30.78 94.88,30.78 94.88,31 95.17,31 95.17,31.32 95.46,31.32 95.46,31.16 95.75,31.16 95.75,31.36 96.03,31.36 96.03,31.23 96.32,31.23 96.32,31.35 96.61,31.35 96.61,31.23 96.9,31.23 96.9,31.45 97.19,31.45 97.19,31.25 97.48,31.25 97.48,31.34 97.77,31.34 97.77,31.07 98.06,31.07 98.06,31.31 98.35,31.31 98.35,31.16 98.64,31.16 98.64,31.13 98.92,31.13 98.92,31.19 99.21,31.19 99.21,31.13 99.5,31.13 99.5,31.07 99.79,31.07 99.79,30.99 100.08,30.99 100.08,31.02 100.37,31.02 100.37,30.96 100.66,30.96 100.66,30.96 100.95,30.96 100.95,30.94 101.24,30.94 101.24,30.98 101.53,30.98 101.53,30.98 101.82,30.98 101.82,31 102.1,31 102.1,31.15 102.39,31.15 102.39,31.03 102.68,31.03 102.68,31.03 102.97,31.03 102.97,30.99 103.26,30.99 103.26,31.01 103.55,31.01 103.55,31.04 103.84,31.04 103.84,31.27 104.13,31.27 104.13,31.17 104.42,31.17 104.42,31 104.71,31 104.71,31.06 104.99,31.06 104.99,30.95 105.28,30.95 105.28,30.97 105.57,30.97 105.57,30.99 105.86,30.99 105.86,30.82 106.15,30.82 106.15,30.83 106.44,30.83 106.44,30.88 106.73,30.88 106.73,30.87 107.02,30.87 107.02,30.94 107.31,30.94 107.31,30.92 107.6,30.92 107.6,30.86 107.89,30.86 107.89,30.76 108.17,30.76 108.17,30.86 108.46,30.86 108.46,30.77 108.75,30.77 108.75,30.89 109.04,30.89 109.04,30.68 109.33,30.68 109.33,30.85 109.62,30.85 109.62,30.8 109.91,30.8 109.91,30.82 110.2,30.82 110.2,30.67 110.49,30.67 110.49,30.88 110.78,30.88 110.78,30.97 111.06,30.97 111.06,30.94 111.35,30.94 111.35,31.06 111.64,31.06 111.64,31.02 111.93,31.02 111.93,31.09 112.22,31.09 112.22,31 112.51,31 112.51,31.13 112.8,31.13 112.8,31.02 113.09,31.02 113.09,31.03 113.38,31.03 113.38,31.08 113.67,31.08 113.67,31.02 113.96,31.02 113.96,31.13 114.24,31.13 114.24,31.04 114.53,31.04 114.53,31.03 114.82,31.03 114.82,31.09 115.11,31.09 115.11,31.16 115.4,31.16 115.4,31.02 " class="primitive"/>
            </g>
          </g>
        </g>
        <g stroke-width="0.3" fill="#000000" fill-opacity="0.000" class="geometry" id="img-4829ce4a-23">
          <g class="color_RGB{N0f8}(0.063,0.306,0.545)" stroke-dasharray="none" stroke-opacity="1" stroke="#104E8B" id="img-4829ce4a-24">
            <g transform="translate(135.62,8.52)" id="img-4829ce4a-25">
              <path fill="none" d="M-115.54,51.32 L-115.26,51.32 -115.26,51.32 -114.97,51.32 -114.97,51.33 -114.68,51.33 -114.68,51.33 -114.39,51.33 -114.39,51.33 -114.1,51.33 -114.1,51.33 -113.81,51.33 -113.81,51.34 -113.52,51.34 -113.52,51.34 -113.23,51.34 -113.23,51.34 -112.94,51.34 -112.94,51.34 -112.65,51.34 -112.65,51.34 -112.37,51.34 -112.37,51.33 -112.08,51.33 -112.08,51.33 -111.79,51.33 -111.79,51.3 -111.5,51.3 -111.5,51.28 -111.21,51.28 -111.21,51.24 -110.92,51.24 -110.92,51.15 -110.63,51.15 -110.63,51 -110.34,51 -110.34,50.72 -110.05,50.72 -110.05,50.22 -109.76,50.22 -109.76,49.23 -109.47,49.23 -109.47,47.46 -109.19,47.46 -109.19,44.41 -108.9,44.41 -108.9,39.23 -108.61,39.23 -108.61,32.36 -108.32,32.36 -108.32,24.43 -108.03,24.43 -108.03,17.68 -107.74,17.68 -107.74,15.23 -107.45,15.23 -107.45,17.91 -107.16,17.91 -107.16,23.99 -106.87,23.99 -106.87,31.05 -106.58,31.05 -106.58,36.41 -106.3,36.41 -106.3,39.6 -106.01,39.6 -106.01,41.18 -105.72,41.18 -105.72,41.23 -105.43,41.23 -105.43,40.8 -105.14,40.8 -105.14,39.95 -104.85,39.95 -104.85,39.25 -104.56,39.25 -104.56,38.49 -104.27,38.49 -104.27,37.58 -103.98,37.58 -103.98,37.04 -103.69,37.04 -103.69,36.07 -103.4,36.07 -103.4,34.74 -103.12,34.74 -103.12,33.49 -102.83,33.49 -102.83,31.62 -102.54,31.62 -102.54,29.59 -102.25,29.59 -102.25,27.37 -101.96,27.37 -101.96,24.47 -101.67,24.47 -101.67,21.02 -101.38,21.02 -101.38,17.68 -101.09,17.68 -101.09,13.7 -100.8,13.7 -100.8,10.96 -100.51,10.96 -100.51,7.78 -100.23,7.78 -100.23,4.73 -99.94,4.73 -99.94,-1.7 -99.65,-1.7 -99.65,-12.98 -99.36,-12.98 -99.36,-34.15 -99.07,-34.15 -99.07,-66.91 -98.78,-66.91 -98.78,-109.87 -98.49,-109.87 -98.49,-157.01 -98.2,-157.01 -98.2,-197.82 -97.91,-197.82 -97.91,-220.75 -97.62,-220.75 -97.62,-224.89 -97.33,-224.89 -97.33,-217.64 -97.05,-217.64 -97.05,-216.1 -96.76,-216.1 -96.76,-241.1 -96.47,-241.1 -96.47,-305.05 -96.18,-305.05 -96.18,-405.31 -95.89,-405.31 -95.89,-516.25 -95.6,-516.25 -95.6,-603.48 -95.31,-603.48 -95.31,-630.88 -95.02,-630.88 -95.02,-581.36 -94.73,-581.36 -94.73,-474.49 -94.44,-474.49 -94.44,-337.71 -94.16,-337.71 -94.16,-210.06 -93.87,-210.06 -93.87,-109.19 -93.58,-109.19 -93.58,-42.76 -93.29,-42.76 -93.29,-3.61 -93,-3.61 -93,17.06 -92.71,17.06 -92.71,27.3 -92.42,27.3 -92.42,32.37 -92.13,32.37 -92.13,35.39 -91.84,35.39 -91.84,37.32 -91.55,37.32 -91.55,38.48 -91.27,38.48 -91.27,39.18 -90.98,39.18 -90.98,39.78 -90.69,39.78 -90.69,40.07 -90.4,40.07 -90.4,40.32 -90.11,40.32 -90.11,40.29 -89.82,40.29 -89.82,40.38 -89.53,40.38 -89.53,40.37 -89.24,40.37 -89.24,40.1 -88.95,40.1 -88.95,39.99 -88.66,39.99 -88.66,39.66 -88.37,39.66 -88.37,39.42 -88.09,39.42 -88.09,39.33 -87.8,39.33 -87.8,39.23 -87.51,39.23 -87.51,38.78 -87.22,38.78 -87.22,38.8 -86.93,38.8 -86.93,38.45 -86.64,38.45 -86.64,38.34 -86.35,38.34 -86.35,38.04 -86.06,38.04 -86.06,37.67 -85.77,37.67 -85.77,37.47 -85.48,37.47 -85.48,37.26 -85.2,37.26 -85.2,37.12 -84.91,37.12 -84.91,36.79 -84.62,36.79 -84.62,36.51 -84.33,36.51 -84.33,36.27 -84.04,36.27 -84.04,35.96 -83.75,35.96 -83.75,35.79 -83.46,35.79 -83.46,35.63 -83.17,35.63 -83.17,34.98 -82.88,34.98 -82.88,34.77 -82.59,34.77 -82.59,34.59 -82.3,34.59 -82.3,34.41 -82.02,34.41 -82.02,34.01 -81.73,34.01 -81.73,33.6 -81.44,33.6 -81.44,33.42 -81.15,33.42 -81.15,33.35 -80.86,33.35 -80.86,32.71 -80.57,32.71 -80.57,32.48 -80.28,32.48 -80.28,32.16 -79.99,32.16 -79.99,31.93 -79.7,31.93 -79.7,31.83 -79.41,31.83 -79.41,31.23 -79.13,31.23 -79.13,30.91 -78.84,30.91 -78.84,30.52 -78.55,30.52 -78.55,30.3 -78.26,30.3 -78.26,29.93 -77.97,29.93 -77.97,29.59 -77.68,29.59 -77.68,29.48 -77.39,29.48 -77.39,28.96 -77.1,28.96 -77.1,28.82 -76.81,28.82 -76.81,28.24 -76.52,28.24 -76.52,28 -76.23,28 -76.23,27.79 -75.95,27.79 -75.95,27.56 -75.66,27.56 -75.66,27.52 -75.37,27.52 -75.37,27.01 -75.08,27.01 -75.08,26.93 -74.79,26.93 -74.79,26.83 -74.5,26.83 -74.5,26.9 -74.21,26.9 -74.21,26.62 -73.92,26.62 -73.92,26.45 -73.63,26.45 -73.63,25.92 -73.34,25.92 -73.34,25.81 -73.06,25.81 -73.06,25.28 -72.77,25.28 -72.77,25.28 -72.48,25.28 -72.48,24.83 -72.19,24.83 -72.19,25.07 -71.9,25.07 -71.9,25.07 -71.61,25.07 -71.61,25.58 -71.32,25.58 -71.32,25.47 -71.03,25.47 -71.03,25.86 -70.74,25.86 -70.74,26 -70.45,26 -70.45,26.18 -70.16,26.18 -70.16,26.17 -69.88,26.17 -69.88,26.41 -69.59,26.41 -69.59,26.16 -69.3,26.16 -69.3,26.22 -69.01,26.22 -69.01,26.04 -68.72,26.04 -68.72,26.09 -68.43,26.09 -68.43,25.71 -68.14,25.71 -68.14,25.49 -67.85,25.49 -67.85,25.28 -67.56,25.28 -67.56,24.87 -67.27,24.87 -67.27,24.42 -66.99,24.42 -66.99,23.98 -66.7,23.98 -66.7,23.15 -66.41,23.15 -66.41,22.36 -66.12,22.36 -66.12,21.29 -65.83,21.29 -65.83,20.17 -65.54,20.17 -65.54,19.58 -65.25,19.58 -65.25,19.07 -64.96,19.07 -64.96,18.94 -64.67,18.94 -64.67,19.05 -64.38,19.05 -64.38,19.36 -64.1,19.36 -64.1,20.18 -63.81,20.18 -63.81,20.68 -63.52,20.68 -63.52,21.16 -63.23,21.16 -63.23,21.5 -62.94,21.5 -62.94,21.51 -62.65,21.51 -62.65,22.06 -62.36,22.06 -62.36,22.36 -62.07,22.36 -62.07,22.61 -61.78,22.61 -61.78,23.14 -61.49,23.14 -61.49,23.19 -61.2,23.19 -61.2,23.04 -60.92,23.04 -60.92,23.31 -60.63,23.31 -60.63,23.38 -60.34,23.38 -60.34,23.08 -60.05,23.08 -60.05,22.83 -59.76,22.83 -59.76,23.17 -59.47,23.17 -59.47,22.53 -59.18,22.53 -59.18,22.79 -58.89,22.79 -58.89,22.73 -58.6,22.73 -58.6,22.33 -58.31,22.33 -58.31,22.15 -58.03,22.15 -58.03,22.19 -57.74,22.19 -57.74,21.79 -57.45,21.79 -57.45,21.82 -57.16,21.82 -57.16,21.44 -56.87,21.44 -56.87,21.65 -56.58,21.65 -56.58,21.5 -56.29,21.5 -56.29,21.44 -56,21.44 -56,21.46 -55.71,21.46 -55.71,21.32 -55.42,21.32 -55.42,21.44 -55.13,21.44 -55.13,21.16 -54.85,21.16 -54.85,21.24 -54.56,21.24 -54.56,21.29 -54.27,21.29 -54.27,21.25 -53.98,21.25 -53.98,20.97 -53.69,20.97 -53.69,20.7 -53.4,20.7 -53.4,20.9 -53.11,20.9 -53.11,20.91 -52.82,20.91 -52.82,20.68 -52.53,20.68 -52.53,20.54 -52.24,20.54 -52.24,20.89 -51.96,20.89 -51.96,20.69 -51.67,20.69 -51.67,20.63 -51.38,20.63 -51.38,20.73 -51.09,20.73 -51.09,20.51 -50.8,20.51 -50.8,20.82 -50.51,20.82 -50.51,20.37 -50.22,20.37 -50.22,20.31 -49.93,20.31 -49.93,20.53 -49.64,20.53 -49.64,20.56 -49.35,20.56 -49.35,20.12 -49.06,20.12 -49.06,20.29 -48.78,20.29 -48.78,20.52 -48.49,20.52 -48.49,19.94 -48.2,19.94 -48.2,20.26 -47.91,20.26 -47.91,19.97 -47.62,19.97 -47.62,20.63 -47.33,20.63 -47.33,20.19 -47.04,20.19 -47.04,20.49 -46.75,20.49 -46.75,20.38 -46.46,20.38 -46.46,20.09 -46.17,20.09 -46.17,20.4 -45.89,20.4 -45.89,20.11 -45.6,20.11 -45.6,20.43 -45.31,20.43 -45.31,20.35 -45.02,20.35 -45.02,20.18 -44.73,20.18 -44.73,20.41 -44.44,20.41 -44.44,20.39 -44.15,20.39 -44.15,20.51 -43.86,20.51 -43.86,20.04 -43.57,20.04 -43.57,20.52 -43.28,20.52 -43.28,20.67 -43,20.67 -43,20.06 -42.71,20.06 -42.71,20.4 -42.42,20.4 -42.42,20.05 -42.13,20.05 -42.13,20.32 -41.84,20.32 -41.84,20.22 -41.55,20.22 -41.55,20.58 -41.26,20.58 -41.26,20.52 -40.97,20.52 -40.97,20.45 -40.68,20.45 -40.68,20.28 -40.39,20.28 -40.39,20.61 -40.1,20.61 -40.1,20.36 -39.82,20.36 -39.82,20.57 -39.53,20.57 -39.53,20.43 -39.24,20.43 -39.24,20.33 -38.95,20.33 -38.95,20.54 -38.66,20.54 -38.66,20.56 -38.37,20.56 -38.37,20.51 -38.08,20.51 -38.08,20.91 -37.79,20.91 -37.79,20.85 -37.5,20.85 -37.5,20.66 -37.21,20.66 -37.21,20.49 -36.93,20.49 -36.93,20.81 -36.64,20.81 -36.64,20.67 -36.35,20.67 -36.35,20.82 -36.06,20.82 -36.06,20.86 -35.77,20.86 -35.77,20.99 -35.48,20.99 -35.48,20.88 -35.19,20.88 -35.19,21.07 -34.9,21.07 -34.9,21.15 -34.61,21.15 -34.61,20.97 -34.32,20.97 -34.32,21.24 -34.03,21.24 -34.03,21.07 -33.75,21.07 -33.75,21.54 -33.46,21.54 -33.46,21.03 -33.17,21.03 -33.17,21.3 -32.88,21.3 -32.88,21.29 -32.59,21.29 -32.59,21.27 -32.3,21.27 -32.3,21.51 -32.01,21.51 -32.01,21.29 -31.72,21.29 -31.72,21.25 -31.43,21.25 -31.43,21.54 -31.14,21.54 -31.14,21.71 -30.86,21.71 -30.86,21.59 -30.57,21.59 -30.57,21.65 -30.28,21.65 -30.28,21.49 -29.99,21.49 -29.99,21.86 -29.7,21.86 -29.7,22.06 -29.41,22.06 -29.41,21.89 -29.12,21.89 -29.12,21.9 -28.83,21.9 -28.83,21.85 -28.54,21.85 -28.54,21.93 -28.25,21.93 -28.25,22.05 -27.96,22.05 -27.96,22.01 -27.68,22.01 -27.68,22.11 -27.39,22.11 -27.39,22.4 -27.1,22.4 -27.1,22.26 -26.81,22.26 -26.81,22.37 -26.52,22.37 -26.52,22.28 -26.23,22.28 -26.23,22.53 -25.94,22.53 -25.94,22.51 -25.65,22.51 -25.65,22.54 -25.36,22.54 -25.36,22.59 -25.07,22.59 -25.07,22.63 -24.79,22.63 -24.79,22.63 -24.5,22.63 -24.5,22.62 -24.21,22.62 -24.21,22.67 -23.92,22.67 -23.92,23 -23.63,23 -23.63,22.96 -23.34,22.96 -23.34,22.86 -23.05,22.86 -23.05,23.14 -22.76,23.14 -22.76,23.17 -22.47,23.17 -22.47,22.84 -22.18,22.84 -22.18,23.21 -21.89,23.21 -21.89,23.39 -21.61,23.39 -21.61,23.38 -21.32,23.38 -21.32,23.29 -21.03,23.29 -21.03,23.32 -20.74,23.32 -20.74,23.41 -20.45,23.41 -20.45,23.33 -20.16,23.33 -20.16,23.36 -19.87,23.36 -19.87,23.52 -19.58,23.52 -19.58,23.49 -19.29,23.49 -19.29,23.67 -19,23.67 -19,23.81 -18.72,23.81 -18.72,24.26 -18.43,24.26 -18.43,23.97 -18.14,23.97 -18.14,24 -17.85,24 -17.85,23.93 -17.56,23.93 -17.56,24.24 -17.27,24.24 -17.27,24.08 -16.98,24.08 -16.98,24.11 -16.69,24.11 -16.69,24.48 -16.4,24.48 -16.4,24.31 -16.11,24.31 -16.11,24.47 -15.83,24.47 -15.83,24.4 -15.54,24.4 -15.54,24.57 -15.25,24.57 -15.25,24.71 -14.96,24.71 -14.96,24.42 -14.67,24.42 -14.67,24.83 -14.38,24.83 -14.38,25.1 -14.09,25.1 -14.09,24.94 -13.8,24.94 -13.8,25.01 -13.51,25.01 -13.51,25.34 -13.22,25.34 -13.22,25.09 -12.93,25.09 -12.93,25.06 -12.65,25.06 -12.65,25.1 -12.36,25.1 -12.36,25.19 -12.07,25.19 -12.07,25.08 -11.78,25.08 -11.78,25.09 -11.49,25.09 -11.49,25.3 -11.2,25.3 -11.2,25.55 -10.91,25.55 -10.91,25.3 -10.62,25.3 -10.62,25.38 -10.33,25.38 -10.33,25.65 -10.04,25.65 -10.04,25.75 -9.76,25.75 -9.76,25.39 -9.47,25.39 -9.47,25.84 -9.18,25.84 -9.18,25.83 -8.89,25.83 -8.89,25.9 -8.6,25.9 -8.6,25.59 -8.31,25.59 -8.31,25.96 -8.02,25.96 -8.02,26.06 -7.73,26.06 -7.73,26.02 -7.44,26.02 -7.44,26.33 -7.15,26.33 -7.15,26.09 -6.86,26.09 -6.86,26.27 -6.58,26.27 -6.58,26.4 -6.29,26.4 -6.29,26.48 -6,26.48 -6,26.57 -5.71,26.57 -5.71,26.61 -5.42,26.61 -5.42,26.81 -5.13,26.81 -5.13,26.71 -4.84,26.71 -4.84,26.93 -4.55,26.93 -4.55,26.74 -4.26,26.74 -4.26,26.8 -3.97,26.8 -3.97,27.08 -3.69,27.08 -3.69,26.82 -3.4,26.82 -3.4,27.2 -3.11,27.2 -3.11,27.13 -2.82,27.13 -2.82,27.12 -2.53,27.12 -2.53,27.27 -2.24,27.27 -2.24,27.03 -1.95,27.03 -1.95,27.25 -1.66,27.25 -1.66,27.8 -1.37,27.8 -1.37,27.68 -1.08,27.68 -1.08,27.66 -0.79,27.66 -0.79,27.35 -0.51,27.35 -0.51,27.7 -0.22,27.7 -0.22,27.77 0.07,27.77 0.07,27.86 0.36,27.86 0.36,27.83 0.65,27.83 0.65,28.05 0.94,28.05 0.94,27.72 1.23,27.72 1.23,28.06 1.52,28.06 1.52,28.03 1.81,28.03 1.81,27.99 2.1,27.99 2.1,27.87 2.38,27.87 2.38,28.32 2.67,28.32 2.67,28.3 2.96,28.3 2.96,28.3 3.25,28.3 3.25,28.5 3.54,28.5 3.54,28.72 3.83,28.72 3.83,28.55 4.12,28.55 4.12,28.56 4.41,28.56 4.41,28.76 4.7,28.76 4.7,28.65 4.99,28.65 4.99,29.12 5.28,29.12 5.28,28.84 5.56,28.84 5.56,28.8 5.85,28.8 5.85,28.85 6.14,28.85 6.14,28.81 6.43,28.81 6.43,28.92 6.72,28.92 6.72,29.02 7.01,29.02 7.01,29.13 7.3,29.13 7.3,29.17 7.59,29.17 7.59,29.19 7.88,29.19 7.88,29.11 8.17,29.11 8.17,29.32 8.45,29.32 8.45,29.25 8.74,29.25 8.74,29.46 9.03,29.46 9.03,29.51 9.32,29.51 9.32,29.15 9.61,29.15 9.61,29.7 9.9,29.7 9.9,29.57 10.19,29.57 10.19,29.67 10.48,29.67 10.48,29.81 10.77,29.81 10.77,29.61 11.06,29.61 11.06,29.66 11.34,29.66 11.34,29.79 11.63,29.79 11.63,29.77 11.92,29.77 11.92,29.82 12.21,29.82 12.21,30.2 12.5,30.2 12.5,30 12.79,30 12.79,30.34 13.08,30.34 13.08,30.09 13.37,30.09 13.37,30.09 13.66,30.09 13.66,30.27 13.95,30.27 13.95,30.19 14.24,30.19 14.24,30.33 14.52,30.33 14.52,30.42 14.81,30.42 14.81,30.31 15.1,30.31 15.1,30.02 15.39,30.02 15.39,30.23 15.68,30.23 15.68,30.19 15.97,30.19 15.97,30.12 16.26,30.12 16.26,29.55 16.55,29.55 16.55,29.47 16.84,29.47 16.84,28.88 17.13,28.88 17.13,28.84 17.41,28.84 17.41,28.63 17.7,28.63 17.7,28.2 17.99,28.2 17.99,27.61 18.28,27.61 18.28,27.34 18.57,27.34 18.57,26.98 18.86,26.98 18.86,26.95 19.15,26.95 19.15,27.01 19.44,27.01 19.44,27.14 19.73,27.14 19.73,27.71 20.02,27.71 20.02,27.81 20.31,27.81 20.31,28.57 20.59,28.57 20.59,29.29 20.88,29.29 20.88,29.85 21.17,29.85 21.17,30.13 21.46,30.13 21.46,30.45 21.75,30.45 21.75,30.53 22.04,30.53 22.04,31.29 22.33,31.29 22.33,31.44 22.62,31.44 22.62,31.56 22.91,31.56 22.91,31.71 23.2,31.71 23.2,31.88 23.48,31.88 23.48,31.77 23.77,31.77 23.77,31.86 24.06,31.86 24.06,31.9 24.35,31.9 24.35,32 24.64,32 24.64,32.24 24.93,32.24 24.93,32.29 25.22,32.29 25.22,32.15 25.51,32.15 25.51,32.34 25.8,32.34 25.8,32.09 26.09,32.09 26.09,32.44 26.38,32.44 26.38,32.52 26.66,32.52 26.66,32.4 26.95,32.4 26.95,32.59 27.24,32.59 27.24,32.5 27.53,32.5 27.53,32.91 27.82,32.91 27.82,32.48 28.11,32.48 28.11,32.38 28.4,32.38 28.4,32.59 28.69,32.59 28.69,32.98 28.98,32.98 28.98,32.8 29.27,32.8 29.27,32.59 29.55,32.59 29.55,33.02 29.84,33.02 29.84,33.13 30.13,33.13 30.13,32.99 30.42,32.99 30.42,32.96 30.71,32.96 30.71,33.08 31,33.08 31,33.23 31.29,33.23 31.29,32.93 31.58,32.93 31.58,33.31 31.87,33.31 31.87,33.1 32.16,33.1 32.16,33.23 32.45,33.23 32.45,33.13 32.73,33.13 32.73,33.15 33.02,33.15 33.02,33.34 33.31,33.34 33.31,33.25 33.6,33.25 33.6,33.31 33.89,33.31 33.89,33.28 34.18,33.28 34.18,33.29 34.47,33.29 34.47,33.45 34.76,33.45 34.76,33.5 35.05,33.5 35.05,33.7 35.34,33.7 35.34,33.61 35.62,33.61 35.62,33.69 35.91,33.69 35.91,33.5 36.2,33.5 36.2,33.44 36.49,33.44 36.49,33.48 36.78,33.48 36.78,33.16 37.07,33.16 37.07,33.37 37.36,33.37 37.36,33.43 37.65,33.43 37.65,33.59 37.94,33.59 37.94,33.35 38.23,33.35 38.23,33.53 38.51,33.53 38.51,33.45 38.8,33.45 38.8,33.52 39.09,33.52 39.09,33.52 39.38,33.52 39.38,33.61 39.67,33.61 39.67,33.95 39.96,33.95 39.96,33.53 40.25,33.53 40.25,33.81 40.54,33.81 40.54,33.51 40.83,33.51 40.83,33.81 41.12,33.81 41.12,33.99 41.41,33.99 41.41,33.83 41.69,33.83 41.69,33.94 41.98,33.94 41.98,34.01 42.27,34.01 42.27,34.21 42.56,34.21 42.56,34.17 42.85,34.17 42.85,34.37 43.14,34.37 43.14,34.3 43.43,34.3 43.43,34.36 43.72,34.36 43.72,34.68 44.01,34.68 44.01,34.59 44.3,34.59 44.3,34.63 44.58,34.63 44.58,34.6 44.87,34.6 44.87,34.64 45.16,34.64 45.16,34.88 45.45,34.88 45.45,34.74 45.74,34.74 45.74,34.91 46.03,34.91 46.03,34.85 46.32,34.85 46.32,34.95 46.61,34.95 46.61,34.96 46.9,34.96 46.9,35.13 47.19,35.13 47.19,35.09 47.48,35.09 47.48,35.19 47.76,35.19 47.76,35.17 48.05,35.17 48.05,35.31 48.34,35.31 48.34,35.47 48.63,35.47 48.63,35.32 48.92,35.32 48.92,35.6 49.21,35.6 49.21,35.53 49.5,35.53 49.5,35.53 49.79,35.53 49.79,35.57 50.08,35.57 50.08,35.61 50.37,35.61 50.37,35.61 50.65,35.61 50.65,35.79 50.94,35.79 50.94,35.94 51.23,35.94 51.23,35.81 51.52,35.81 51.52,35.73 51.81,35.73 51.81,35.75 52.1,35.75 52.1,35.82 52.39,35.82 52.39,35.65 52.68,35.65 52.68,35.82 52.97,35.82 52.97,35.81 53.26,35.81 53.26,35.97 53.55,35.97 53.55,35.9 53.83,35.9 53.83,36 54.12,36 54.12,35.81 54.41,35.81 54.41,35.93 54.7,35.93 54.7,35.85 54.99,35.85 54.99,35.84 55.28,35.84 55.28,35.83 55.57,35.83 55.57,35.81 55.86,35.81 55.86,36.05 56.15,36.05 56.15,35.9 56.44,35.9 56.44,35.71 56.72,35.71 56.72,35.89 57.01,35.89 57.01,35.89 57.3,35.89 57.3,35.87 57.59,35.87 57.59,35.94 57.88,35.94 57.88,35.86 58.17,35.86 58.17,35.89 58.46,35.89 58.46,35.78 58.75,35.78 58.75,35.78 59.04,35.78 59.04,35.68 59.33,35.68 59.33,35.64 59.62,35.64 59.62,35.62 59.9,35.62 59.9,35.45 60.19,35.45 60.19,35.35 60.48,35.35 60.48,35.28 60.77,35.28 60.77,35 61.06,35 61.06,35.06 61.35,35.06 61.35,34.65 61.64,34.65 61.64,34.56 61.93,34.56 61.93,34.24 62.22,34.24 62.22,33.99 62.51,33.99 62.51,33.61 62.79,33.61 62.79,33.09 63.08,33.09 63.08,32.34 63.37,32.34 63.37,31.39 63.66,31.39 63.66,29.71 63.95,29.71 63.95,27.39 64.24,27.39 64.24,23.61 64.53,23.61 64.53,17.26 64.82,17.26 64.82,8.02 65.11,8.02 65.11,-6.3 65.4,-6.3 65.4,-26.36 65.68,-26.36 65.68,-55.28 65.97,-55.28 65.97,-94.37 66.26,-94.37 66.26,-147.83 66.55,-147.83 66.55,-214.1 66.84,-214.1 66.84,-295.73 67.13,-295.73 67.13,-392.75 67.42,-392.75 67.42,-500.63 67.71,-500.63 67.71,-617.22 68,-617.22 68,-735.23 68.29,-735.23 68.29,-847.68 68.58,-847.68 68.58,-948.21 68.86,-948.21 68.86,-1025.92 69.15,-1025.92 69.15,-1074.91 69.44,-1074.91 69.44,-1091.87 69.73,-1091.87 69.73,-1074.51 70.02,-1074.51 70.02,-1026.11 70.31,-1026.11 70.31,-948.17 70.6,-948.17 70.6,-850.07 70.89,-850.07 70.89,-739.26 71.18,-739.26 71.18,-620.41 71.47,-620.41 71.47,-504.4 71.75,-504.4 71.75,-395.58 72.04,-395.58 72.04,-299.15 72.33,-299.15 72.33,-215.96 72.62,-215.96 72.62,-149.5 72.91,-149.5 72.91,-95.89 73.2,-95.89 73.2,-54.9 73.49,-54.9 73.49,-25.2 73.78,-25.2 73.78,-4.18 74.07,-4.18 74.07,10.55 74.36,10.55 74.36,20.21 74.65,20.21 74.65,26.85 74.93,26.85 74.93,30.99 75.22,30.99 75.22,33.65 75.51,33.65 75.51,35.39 75.8,35.39 75.8,36.15 76.09,36.15 76.09,36.78 76.38,36.78 76.38,37.1 76.67,37.1 76.67,37.43 76.96,37.43 76.96,37.72 77.25,37.72 77.25,37.86 77.54,37.86 77.54,37.85 77.82,37.85 77.82,38.03 78.11,38.03 78.11,37.94 78.4,37.94 78.4,37.99 78.69,37.99 78.69,38.16 78.98,38.16 78.98,38.21 79.27,38.21 79.27,37.8 79.56,37.8 79.56,37.92 79.85,37.92 79.85,37.98 80.14,37.98 80.14,38.03 80.43,38.03 80.43,37.8 80.72,37.8 80.72,37.92 81,37.92 81,37.59 81.29,37.59 81.29,37.5 81.58,37.5 81.58,37.01 81.87,37.01 81.87,37.16 82.16,37.16 82.16,36.57 82.45,36.57 82.45,36.23 82.74,36.23 82.74,35.72 83.03,35.72 83.03,34.9 83.32,34.9 83.32,33.85 83.61,33.85 83.61,32.32 83.89,32.32 83.89,30.21 84.18,30.21 84.18,27.56 84.47,27.56 84.47,23.83 84.76,23.83 84.76,18.88 85.05,18.88 85.05,12.54 85.34,12.54 85.34,4.7 85.63,4.7 85.63,-5.24 85.92,-5.24 85.92,-16.61 86.21,-16.61 86.21,-28.79 86.5,-28.79 86.5,-42.56 86.79,-42.56 86.79,-56.81 87.07,-56.81 87.07,-69.97 87.36,-69.97 87.36,-81.73 87.65,-81.73 87.65,-92.36 87.94,-92.36 87.94,-99.52 88.23,-99.52 88.23,-103.2 88.52,-103.2 88.52,-102.54 88.81,-102.54 88.81,-100.04 89.1,-100.04 89.1,-91.88 89.39,-91.88 89.39,-81.69 89.68,-81.69 89.68,-69.37 89.96,-69.37 89.96,-55.62 90.25,-55.62 90.25,-41.92 90.54,-41.92 90.54,-27.61 90.83,-27.61 90.83,-14.54 91.12,-14.54 91.12,-2.87 91.41,-2.87 91.41,7.57 91.7,7.57 91.7,15.86 91.99,15.86 91.99,22.92 92.28,22.92 92.28,28.54 92.57,28.54 92.57,32.63 92.85,32.63 92.85,35.88 93.14,35.88 93.14,38.16 93.43,38.16 93.43,39.6 93.72,39.6 93.72,40.71 94.01,40.71 94.01,41.67 94.3,41.67 94.3,42.19 94.59,42.19 94.59,42.32 94.88,42.32 94.88,42.58 95.17,42.58 95.17,42.92 95.46,42.92 95.46,42.78 95.75,42.78 95.75,43 96.03,43 96.03,42.9 96.32,42.9 96.32,43.04 96.61,43.04 96.61,42.93 96.9,42.93 96.9,43.18 97.19,43.18 97.19,43 97.48,43 97.48,43.11 97.77,43.11 97.77,42.86 98.06,42.86 98.06,43.12 98.35,43.12 98.35,42.99 98.64,42.99 98.64,42.99 98.92,42.99 98.92,43.06 99.21,43.06 99.21,43.03 99.5,43.03 99.5,42.98 99.79,42.98 99.79,42.92 100.08,42.92 100.08,42.97 100.37,42.97 100.37,42.94 100.66,42.94 100.66,42.96 100.95,42.96 100.95,42.95 101.24,42.95 101.24,43.02 101.53,43.02 101.53,43.03 101.82,43.03 101.82,43.06 102.1,43.06 102.1,43.22 102.39,43.22 102.39,43.12 102.68,43.12 102.68,43.13 102.97,43.13 102.97,43.1 103.26,43.1 103.26,43.14 103.55,43.14 103.55,43.18 103.84,43.18 103.84,43.41 104.13,43.41 104.13,43.33 104.42,43.33 104.42,43.18 104.71,43.18 104.71,43.24 104.99,43.24 104.99,43.15 105.28,43.15 105.28,43.18 105.57,43.18 105.57,43.21 105.86,43.21 105.86,43.05 106.15,43.05 106.15,43.07 106.44,43.07 106.44,43.14 106.73,43.14 106.73,43.15 107.02,43.15 107.02,43.22 107.31,43.22 107.31,43.22 107.6,43.22 107.6,43.17 107.89,43.17 107.89,43.08 108.17,43.08 108.17,43.2 108.46,43.2 108.46,43.12 108.75,43.12 108.75,43.24 109.04,43.24 109.04,43.05 109.33,43.05 109.33,43.24 109.62,43.24 109.62,43.19 109.91,43.19 109.91,43.23 110.2,43.23 110.2,43.09 110.49,43.09 110.49,43.32 110.78,43.32 110.78,43.41 111.06,43.41 111.06,43.39 111.35,43.39 111.35,43.53 111.64,43.53 111.64,43.5 111.93,43.5 111.93,43.59 112.22,43.59 112.22,43.51 112.51,43.51 112.51,43.65 112.8,43.65 112.8,43.56 113.09,43.56 113.09,43.57 113.38,43.57 113.38,43.63 113.67,43.63 113.67,43.59 113.96,43.59 113.96,43.71 114.24,43.71 114.24,43.64 114.53,43.64 114.53,43.64 114.82,43.64 114.82,43.71 115.11,43.71 115.11,43.79 115.4,43.79 115.4,43.67 " class="primitive"/>
            </g>
          </g>
        </g>
      </g>
      <g class="guide colorkey" id="img-4829ce4a-26">
        <g fill="#4C404B" font-size="2.82" font-family="'PT Sans','Helvetica Neue','Helvetica',sans-serif" id="img-4829ce4a-27">
          <g transform="translate(210.87,31.7)" id="img-4829ce4a-28">
            <g class="primitive">
              <text dy="0.35em">Fe std</text>
            </g>
          </g>
          <g transform="translate(210.87,35.33)" id="img-4829ce4a-29">
            <g class="primitive">
              <text dy="0.35em">CharOnly[Fe std]</text>
            </g>
          </g>
        </g>
        <g stroke-width="0.3" id="img-4829ce4a-30">
          <g stroke="#FFFFFF" fill-opacity="1" fill="#B70002" id="img-4829ce4a-31">
            <g transform="translate(208.05,35.33)" id="img-4829ce4a-32">
              <circle cx="0" cy="0" r="0.9" class="primitive"/>
            </g>
          </g>
          <g stroke="#FFFFFF" fill-opacity="1" fill="#104E8B" id="img-4829ce4a-33">
            <g transform="translate(208.05,31.7)" id="img-4829ce4a-34">
              <circle cx="0" cy="0" r="0.9" class="primitive"/>
            </g>
          </g>
        </g>
        <g fill="#362A35" font-size="3.18" font-family="'PT Sans','Helvetica Neue','Helvetica',sans-serif" stroke="#000000" stroke-opacity="0.000" id="img-4829ce4a-35">
          <g transform="translate(207.24,28.39)" id="img-4829ce4a-36">
            <g class="primitive">
              <text dy="-0em">Spectra</text>
            </g>
          </g>
        </g>
      </g>
    </g>
  </g>
  <g class="guide ylabels" font-size="2.82" font-family="'PT Sans Caption','Helvetica Neue','Helvetica',sans-serif" fill="#6C606B" id="img-4829ce4a-37">
    <g transform="translate(17.03,59.87)" id="img-4829ce4a-38">
      <g class="primitive">
        <text text-anchor="end" dy="0.35em">0</text>
      </g>
    </g>
    <g transform="translate(17.03,43.65)" id="img-4829ce4a-39">
      <g class="primitive">
        <text text-anchor="end" dy="0.35em">20000</text>
      </g>
    </g>
    <g transform="translate(17.03,27.43)" id="img-4829ce4a-40">
      <g class="primitive">
        <text text-anchor="end" dy="0.35em">40000</text>
      </g>
    </g>
    <g transform="translate(17.03,11.21)" id="img-4829ce4a-41">
      <g class="primitive">
        <text text-anchor="end" dy="0.35em">60000</text>
      </g>
    </g>
  </g>
  <g font-size="3.18" font-family="'PT Sans','Helvetica Neue','Helvetica',sans-serif" fill="#202020" stroke="#000000" stroke-opacity="0.000" id="img-4829ce4a-42">
    <g transform="translate(4.18,29.29)" id="img-4829ce4a-43">
      <g class="primitive">
        <text text-anchor="middle" dy="0.35em" transform="rotate(-90,0, 2)">Counts</text>
      </g>
    </g>
  </g>
</g>
<defs>
  <clipPath id="img-4829ce4a-4">
    <path d="M18.03,0.71 L253.29,0.71 253.29,61.87 18.03,61.87 " />
  </clipPath>
</defs>
</svg>
