<?xml version="1.0" encoding="UTF-8"?>
<svg xmlns="http://www.w3.org/2000/svg"
     xmlns:xlink="http://www.w3.org/1999/xlink"
     xmlns:gadfly="http://www.gadflyjl.org/ns"
     version="1.2"
     width="254mm" height="76.2mm" viewBox="0 0 254 76.2"
     stroke="none"
     fill="#000000"
     stroke-width="0.3"
     font-size="3.88"
>
<defs>
  <marker id="arrow" markerWidth="15" markerHeight="7" refX="5" refY="3.5" orient="auto" markerUnits="strokeWidth">
    <path d="M0,0 L15,3.5 L0,7 z" stroke="context-stroke" fill="context-stroke"/>
  </marker>
</defs>
<g class="plotroot xscalable yscalable" id="img-40e80d9b-1">
  <g font-size="3.18" font-family="'PT Sans','Helvetica Neue','Helvetica',sans-serif" fill="#202020" stroke="#000000" stroke-opacity="0.000" id="img-40e80d9b-2">
    <g transform="translate(135.66,69.54)">
      <g class="primitive">
        <text text-anchor="middle" dy="0.6em">Energy (eV)</text>
      </g>
    </g>
  </g>
  <g class="guide xlabels" font-size="2.82" font-family="'PT Sans Caption','Helvetica Neue','Helvetica',sans-serif" fill="#6C606B" id="img-40e80d9b-3">
    <g transform="translate(20.03,62.87)">
      <g class="primitive">
        <text text-anchor="middle" dy="0.6em">0</text>
      </g>
    </g>
    <g transform="translate(58.57,62.87)">
      <g class="primitive">
        <text text-anchor="middle" dy="0.6em">2000</text>
      </g>
    </g>
    <g transform="translate(97.12,62.87)">
      <g class="primitive">
        <text text-anchor="middle" dy="0.6em">4000</text>
      </g>
    </g>
    <g transform="translate(135.66,62.87)">
      <g class="primitive">
        <text text-anchor="middle" dy="0.6em">6000</text>
      </g>
    </g>
    <g transform="translate(174.21,62.87)">
      <g class="primitive">
        <text text-anchor="middle" dy="0.6em">8000</text>
      </g>
    </g>
    <g transform="translate(212.75,62.87)">
      <g class="primitive">
        <text text-anchor="middle" dy="0.6em">10000</text>
      </g>
    </g>
    <g transform="translate(251.29,62.87)">
      <g class="primitive">
        <text text-anchor="middle" dy="0.6em">12000</text>
      </g>
    </g>
  </g>
  <g clip-path="url(#img-40e80d9b-4)">
    <g id="img-40e80d9b-5">
      <g pointer-events="visible" stroke-width="0.3" fill="#FDFDF1" stroke="#202020" class="guide background" id="img-40e80d9b-6">
        <g transform="translate(135.66,31.29)" id="img-40e80d9b-7">
          <path d="M-117.63,-30.58 L117.63,-30.58 117.63,30.58 -117.63,30.58  z" class="primitive"/>
        </g>
      </g>
      <g class="guide ygridlines xfixed" stroke-dasharray="none" stroke-width="0.2" stroke="#FFDFDF" id="img-40e80d9b-8">
        <g transform="translate(135.66,59.87)" id="img-40e80d9b-9">
          <path fill="none" d="M-117.63,0 L117.63,0 " class="primitive"/>
        </g>
        <g transform="translate(135.66,35.3)" id="img-40e80d9b-10">
          <path fill="none" d="M-117.63,0 L117.63,0 " class="primitive"/>
        </g>
        <g transform="translate(135.66,10.73)" id="img-40e80d9b-11">
          <path fill="none" d="M-117.63,0 L117.63,0 " class="primitive"/>
        </g>
      </g>
      <g class="guide xgridlines yfixed" stroke-dasharray="none" stroke-width="0.2" stroke="#FFDFDF" id="img-40e80d9b-12">
        <g transform="translate(20.03,31.29)" id="img-40e80d9b-13">
          <path fill="none" d="M0,-30.58 L0,30.58 " class="primitive"/>
        </g>
        <g transform="translate(58.57,31.29)" id="img-40e80d9b-14">
          <path fill="none" d="M0,-30.58 L0,30.58 " class="primitive"/>
        </g>
        <g transform="translate(97.12,31.29)" id="img-40e80d9b-15">
          <path fill="none" d="M0,-30.58 L0,30.58 " class="primitive"/>
        </g>
        <g transform="translate(135.66,31.29)" id="img-40e80d9b-16">
          <path fill="none" d="M0,-30.58 L0,30.58 " class="primitive"/>
        </g>
        <g transform="translate(174.21,31.29)" id="img-40e80d9b-17">
          <path fill="none" d="M0,-30.58 L0,30.58 " class="primitive"/>
        </g>
        <g transform="translate(212.75,31.29)" id="img-40e80d9b-18">
          <path fill="none" d="M0,-30.58 L0,30.58 " class="primitive"/>
        </g>
        <g transform="translate(251.29,31.29)" id="img-40e80d9b-19">
          <path fill="none" d="M0,-30.58 L0,30.58 " class="primitive"/>
        </g>
      </g>
      <g class="plotpanel" id="img-40e80d9b-20">
        <metadata>
          <boundingbox value="18.027222222222242mm 0.7055555555555555mm 235.26722222222224mm 61.16055555555556mm"/>
          <unitbox value="-103.77605511661594 12040.184182468487 12207.552110233233 -12447.218364936973"/>
        </metadata>
        <g stroke-width="0.3" fill="#000000" fill-opacity="0.000" class="geometry" id="img-40e80d9b-21">
          <g class="color_RGB{N0f8}(0.718,0.0,0.008)" stroke-dasharray="none" stroke-opacity="1" stroke="#B70002" id="img-40e80d9b-22">
            <g transform="translate(135.72,50.79)" id="img-40e80d9b-23">
              <path fill="none" d="M-115.67,9.08 L-115.47,9.08 -115.47,9.08 -115.28,9.08 -115.28,9.08 -115.09,9.08 -115.09,9.08 -114.89,9.08 -114.89,9.08 -114.7,9.08 -114.7,9.08 -114.51,9.08 -114.51,9.08 -114.32,9.08 -114.32,9.08 -114.12,9.08 -114.12,9.08 -113.93,9.08 -113.93,9.08 -113.74,9.08 -113.74,9.08 -113.55,9.08 -113.55,9.08 -113.35,9.08 -113.35,9.08 -113.16,9.08 -113.16,9.08 -112.97,9.08 -112.97,9.08 -112.77,9.08 -112.77,9.08 -112.58,9.08 -112.58,9.08 -112.39,9.08 -112.39,9.08 -112.2,9.08 -112.2,9.08 -112,9.08 -112,9.08 -111.81,9.08 -111.81,9.07 -111.62,9.07 -111.62,9.07 -111.43,9.07 -111.43,9.06 -111.23,9.06 -111.23,9.02 -111.04,9.02 -111.04,8.94 -110.85,8.94 -110.85,8.74 -110.66,8.74 -110.66,8.37 -110.46,8.37 -110.46,7.74 -110.27,7.74 -110.27,6.83 -110.08,6.83 -110.08,5.68 -109.88,5.68 -109.88,4.43 -109.69,4.43 -109.69,3.25 -109.5,3.25 -109.5,2.31 -109.31,2.31 -109.31,1.63 -109.11,1.63 -109.11,1.14 -108.92,1.14 -108.92,0.69 -108.73,0.69 -108.73,0.12 -108.54,0.12 -108.54,-0.62 -108.34,-0.62 -108.34,-1.53 -108.15,-1.53 -108.15,-2.51 -107.96,-2.51 -107.96,-3.5 -107.76,-3.5 -107.76,-4.45 -107.57,-4.45 -107.57,-5.29 -107.38,-5.29 -107.38,-5.97 -107.19,-5.97 -107.19,-6.42 -106.99,-6.42 -106.99,-6.61 -106.8,-6.61 -106.8,-6.54 -106.61,-6.54 -106.61,-6.27 -106.42,-6.27 -106.42,-5.86 -106.22,-5.86 -106.22,-5.35 -106.03,-5.35 -106.03,-4.72 -105.84,-4.72 -105.84,-3.95 -105.64,-3.95 -105.64,-3.1 -105.45,-3.1 -105.45,-2.25 -105.26,-2.25 -105.26,-1.58 -105.07,-1.58 -105.07,-1.2 -104.87,-1.2 -104.87,-1.17 -104.68,-1.17 -104.68,-1.44 -104.49,-1.44 -104.49,-1.89 -104.3,-1.89 -104.3,-2.41 -104.1,-2.41 -104.1,-2.94 -103.91,-2.94 -103.91,-3.45 -103.72,-3.45 -103.72,-3.91 -103.53,-3.91 -103.53,-4.33 -103.33,-4.33 -103.33,-4.7 -103.14,-4.7 -103.14,-5.02 -102.95,-5.02 -102.95,-5.25 -102.75,-5.25 -102.75,-5.4 -102.56,-5.4 -102.56,-5.46 -102.37,-5.46 -102.37,-5.45 -102.18,-5.45 -102.18,-5.37 -101.98,-5.37 -101.98,-5.22 -101.79,-5.22 -101.79,-5 -101.6,-5 -101.6,-4.69 -101.41,-4.69 -101.41,-4.31 -101.21,-4.31 -101.21,-3.89 -101.02,-3.89 -101.02,-3.49 -100.83,-3.49 -100.83,-3.18 -100.63,-3.18 -100.63,-3.01 -100.44,-3.01 -100.44,-2.98 -100.25,-2.98 -100.25,-3.07 -100.06,-3.07 -100.06,-3.24 -99.86,-3.24 -99.86,-3.47 -99.67,-3.47 -99.67,-3.73 -99.48,-3.73 -99.48,-3.99 -99.29,-3.99 -99.29,-4.26 -99.09,-4.26 -99.09,-4.54 -98.9,-4.54 -98.9,-4.82 -98.71,-4.82 -98.71,-5.11 -98.52,-5.11 -98.52,-5.41 -98.32,-5.41 -98.32,-5.71 -98.13,-5.71 -98.13,-6.02 -97.94,-6.02 -97.94,-6.33 -97.74,-6.33 -97.74,-6.65 -97.55,-6.65 -97.55,-6.96 -97.36,-6.96 -97.36,-7.28 -97.17,-7.28 -97.17,-7.59 -96.97,-7.59 -96.97,-7.9 -96.78,-7.9 -96.78,-8.22 -96.59,-8.22 -96.59,-8.53 -96.4,-8.53 -96.4,-8.84 -96.2,-8.84 -96.2,-9.16 -96.01,-9.16 -96.01,-9.47 -95.82,-9.47 -95.82,-9.78 -95.62,-9.78 -95.62,-10.09 -95.43,-10.09 -95.43,-10.4 -95.24,-10.4 -95.24,-10.7 -95.05,-10.7 -95.05,-10.99 -94.85,-10.99 -94.85,-11.28 -94.66,-11.28 -94.66,-11.57 -94.47,-11.57 -94.47,-11.85 -94.28,-11.85 -94.28,-12.13 -94.08,-12.13 -94.08,-12.4 -93.89,-12.4 -93.89,-12.67 -93.7,-12.67 -93.7,-12.93 -93.51,-12.93 -93.51,-13.19 -93.31,-13.19 -93.31,-13.44 -93.12,-13.44 -93.12,-13.69 -92.93,-13.69 -92.93,-13.93 -92.73,-13.93 -92.73,-14.16 -92.54,-14.16 -92.54,-14.39 -92.35,-14.39 -92.35,-14.61 -92.16,-14.61 -92.16,-14.81 -91.96,-14.81 -91.96,-14.99 -91.77,-14.99 -91.77,-15.13 -91.58,-15.13 -91.58,-15.22 -91.39,-15.22 -91.39,-15.23 -91.19,-15.23 -91.19,-15.15 -91,-15.15 -91,-14.96 -90.81,-14.96 -90.81,-14.68 -90.61,-14.68 -90.61,-14.33 -90.42,-14.33 -90.42,-13.94 -90.23,-13.94 -90.23,-13.57 -90.04,-13.57 -90.04,-13.25 -89.84,-13.25 -89.84,-13.01 -89.65,-13.01 -89.65,-12.87 -89.46,-12.87 -89.46,-12.8 -89.27,-12.8 -89.27,-12.81 -89.07,-12.81 -89.07,-12.86 -88.88,-12.86 -88.88,-12.95 -88.69,-12.95 -88.69,-13.05 -88.5,-13.05 -88.5,-13.16 -88.3,-13.16 -88.3,-13.27 -88.11,-13.27 -88.11,-13.39 -87.92,-13.39 -87.92,-13.51 -87.72,-13.51 -87.72,-13.62 -87.53,-13.62 -87.53,-13.73 -87.34,-13.73 -87.34,-13.84 -87.15,-13.84 -87.15,-13.93 -86.95,-13.93 -86.95,-14 -86.76,-14 -86.76,-14.05 -86.57,-14.05 -86.57,-14.06 -86.38,-14.06 -86.38,-14.02 -86.18,-14.02 -86.18,-13.94 -85.99,-13.94 -85.99,-13.82 -85.8,-13.82 -85.8,-13.66 -85.6,-13.66 -85.6,-13.49 -85.41,-13.49 -85.41,-13.32 -85.22,-13.32 -85.22,-13.18 -85.03,-13.18 -85.03,-13.07 -84.83,-13.07 -84.83,-13.01 -84.64,-13.01 -84.64,-13 -84.45,-13 -84.45,-13.02 -84.26,-13.02 -84.26,-13.06 -84.06,-13.06 -84.06,-13.12 -83.87,-13.12 -83.87,-13.19 -83.68,-13.19 -83.68,-13.26 -83.49,-13.26 -83.49,-13.33 -83.29,-13.33 -83.29,-13.4 -83.1,-13.4 -83.1,-13.47 -82.91,-13.47 -82.91,-13.53 -82.71,-13.53 -82.71,-13.59 -82.52,-13.59 -82.52,-13.65 -82.33,-13.65 -82.33,-13.7 -82.14,-13.7 -82.14,-13.75 -81.94,-13.75 -81.94,-13.78 -81.75,-13.78 -81.75,-13.8 -81.56,-13.8 -81.56,-13.77 -81.37,-13.77 -81.37,-13.7 -81.17,-13.7 -81.17,-13.57 -80.98,-13.57 -80.98,-13.34 -80.79,-13.34 -80.79,-13.03 -80.59,-13.03 -80.59,-12.61 -80.4,-12.61 -80.4,-12.12 -80.21,-12.12 -80.21,-11.58 -80.02,-11.58 -80.02,-11.02 -79.82,-11.02 -79.82,-10.5 -79.63,-10.5 -79.63,-10.05 -79.44,-10.05 -79.44,-9.68 -79.25,-9.68 -79.25,-9.41 -79.05,-9.41 -79.05,-9.23 -78.86,-9.23 -78.86,-9.12 -78.67,-9.12 -78.67,-9.08 -78.47,-9.08 -78.47,-9.07 -78.28,-9.07 -78.28,-9.08 -78.09,-9.08 -78.09,-9.11 -77.9,-9.11 -77.9,-9.15 -77.7,-9.15 -77.7,-9.19 -77.51,-9.19 -77.51,-9.23 -77.32,-9.23 -77.32,-9.27 -77.13,-9.27 -77.13,-9.31 -76.93,-9.31 -76.93,-9.35 -76.74,-9.35 -76.74,-9.39 -76.55,-9.39 -76.55,-9.43 -76.36,-9.43 -76.36,-9.46 -76.16,-9.46 -76.16,-9.5 -75.97,-9.5 -75.97,-9.53 -75.78,-9.53 -75.78,-9.56 -75.58,-9.56 -75.58,-9.59 -75.39,-9.59 -75.39,-9.62 -75.2,-9.62 -75.2,-9.65 -75.01,-9.65 -75.01,-9.68 -74.81,-9.68 -74.81,-9.7 -74.62,-9.7 -74.62,-9.73 -74.43,-9.73 -74.43,-9.75 -74.24,-9.75 -74.24,-9.77 -74.04,-9.77 -74.04,-9.79 -73.85,-9.79 -73.85,-9.81 -73.66,-9.81 -73.66,-9.83 -73.46,-9.83 -73.46,-9.85 -73.27,-9.85 -73.27,-9.86 -73.08,-9.86 -73.08,-9.88 -72.89,-9.88 -72.89,-9.89 -72.69,-9.89 -72.69,-9.9 -72.5,-9.9 -72.5,-9.92 -72.31,-9.92 -72.31,-9.93 -72.12,-9.93 -72.12,-9.93 -71.92,-9.93 -71.92,-9.94 -71.73,-9.94 -71.73,-9.95 -71.54,-9.95 -71.54,-9.95 -71.35,-9.95 -71.35,-9.96 -71.15,-9.96 -71.15,-9.96 -70.96,-9.96 -70.96,-9.96 -70.77,-9.96 -70.77,-9.97 -70.57,-9.97 -70.57,-9.97 -70.38,-9.97 -70.38,-9.96 -70.19,-9.96 -70.19,-9.96 -70,-9.96 -70,-9.96 -69.8,-9.96 -69.8,-9.95 -69.61,-9.95 -69.61,-9.95 -69.42,-9.95 -69.42,-9.94 -69.23,-9.94 -69.23,-9.94 -69.03,-9.94 -69.03,-9.93 -68.84,-9.93 -68.84,-9.92 -68.65,-9.92 -68.65,-9.91 -68.45,-9.91 -68.45,-9.9 -68.26,-9.9 -68.26,-9.89 -68.07,-9.89 -68.07,-9.87 -67.88,-9.87 -67.88,-9.86 -67.68,-9.86 -67.68,-9.85 -67.49,-9.85 -67.49,-9.83 -67.3,-9.83 -67.3,-9.82 -67.11,-9.82 -67.11,-9.8 -66.91,-9.8 -66.91,-9.78 -66.72,-9.78 -66.72,-9.76 -66.53,-9.76 -66.53,-9.75 -66.34,-9.75 -66.34,-9.73 -66.14,-9.73 -66.14,-9.71 -65.95,-9.71 -65.95,-9.69 -65.76,-9.69 -65.76,-9.67 -65.56,-9.67 -65.56,-9.65 -65.37,-9.65 -65.37,-9.62 -65.18,-9.62 -65.18,-9.6 -64.99,-9.6 -64.99,-9.58 -64.79,-9.58 -64.79,-9.55 -64.6,-9.55 -64.6,-9.53 -64.41,-9.53 -64.41,-9.51 -64.22,-9.51 -64.22,-9.48 -64.02,-9.48 -64.02,-9.45 -63.83,-9.45 -63.83,-9.43 -63.64,-9.43 -63.64,-9.4 -63.44,-9.4 -63.44,-9.37 -63.25,-9.37 -63.25,-9.35 -63.06,-9.35 -63.06,-9.32 -62.87,-9.32 -62.87,-9.29 -62.67,-9.29 -62.67,-9.26 -62.48,-9.26 -62.48,-9.23 -62.29,-9.23 -62.29,-9.2 -62.1,-9.2 -62.1,-9.17 -61.9,-9.17 -61.9,-9.14 -61.71,-9.14 -61.71,-9.11 -61.52,-9.11 -61.52,-9.08 -61.33,-9.08 -61.33,-9.05 -61.13,-9.05 -61.13,-9.02 -60.94,-9.02 -60.94,-8.99 -60.75,-8.99 -60.75,-8.96 -60.55,-8.96 -60.55,-8.92 -60.36,-8.92 -60.36,-8.89 -60.17,-8.89 -60.17,-8.86 -59.98,-8.86 -59.98,-8.82 -59.78,-8.82 -59.78,-8.79 -59.59,-8.79 -59.59,-8.76 -59.4,-8.76 -59.4,-8.72 -59.21,-8.72 -59.21,-8.69 -59.01,-8.69 -59.01,-8.66 -58.82,-8.66 -58.82,-8.62 -58.63,-8.62 -58.63,-8.59 -58.43,-8.59 -58.43,-8.55 -58.24,-8.55 -58.24,-8.52 -58.05,-8.52 -58.05,-8.48 -57.86,-8.48 -57.86,-8.45 -57.66,-8.45 -57.66,-8.41 -57.47,-8.41 -57.47,-8.38 -57.28,-8.38 -57.28,-8.34 -57.09,-8.34 -57.09,-8.31 -56.89,-8.31 -56.89,-8.27 -56.7,-8.27 -56.7,-8.23 -56.51,-8.23 -56.51,-8.2 -56.32,-8.2 -56.32,-8.16 -56.12,-8.16 -56.12,-8.12 -55.93,-8.12 -55.93,-8.09 -55.74,-8.09 -55.74,-8.05 -55.54,-8.05 -55.54,-8.01 -55.35,-8.01 -55.35,-7.98 -55.16,-7.98 -55.16,-7.94 -54.97,-7.94 -54.97,-7.9 -54.77,-7.9 -54.77,-7.87 -54.58,-7.87 -54.58,-7.83 -54.39,-7.83 -54.39,-7.79 -54.2,-7.79 -54.2,-7.75 -54,-7.75 -54,-7.72 -53.81,-7.72 -53.81,-7.68 -53.62,-7.68 -53.62,-7.64 -53.42,-7.64 -53.42,-7.6 -53.23,-7.6 -53.23,-7.56 -53.04,-7.56 -53.04,-7.53 -52.85,-7.53 -52.85,-7.49 -52.65,-7.49 -52.65,-7.45 -52.46,-7.45 -52.46,-7.41 -52.27,-7.41 -52.27,-7.37 -52.08,-7.37 -52.08,-7.33 -51.88,-7.33 -51.88,-7.29 -51.69,-7.29 -51.69,-7.26 -51.5,-7.26 -51.5,-7.22 -51.31,-7.22 -51.31,-7.18 -51.11,-7.18 -51.11,-7.14 -50.92,-7.14 -50.92,-7.1 -50.73,-7.1 -50.73,-7.06 -50.53,-7.06 -50.53,-7.02 -50.34,-7.02 -50.34,-6.98 -50.15,-6.98 -50.15,-6.94 -49.96,-6.94 -49.96,-6.91 -49.76,-6.91 -49.76,-6.87 -49.57,-6.87 -49.57,-6.83 -49.38,-6.83 -49.38,-6.79 -49.19,-6.79 -49.19,-6.75 -48.99,-6.75 -48.99,-6.71 -48.8,-6.71 -48.8,-6.67 -48.61,-6.67 -48.61,-6.63 -48.41,-6.63 -48.41,-6.59 -48.22,-6.59 -48.22,-6.55 -48.03,-6.55 -48.03,-6.51 -47.84,-6.51 -47.84,-6.47 -47.64,-6.47 -47.64,-6.43 -47.45,-6.43 -47.45,-6.39 -47.26,-6.39 -47.26,-6.35 -47.07,-6.35 -47.07,-6.32 -46.87,-6.32 -46.87,-6.28 -46.68,-6.28 -46.68,-6.24 -46.49,-6.24 -46.49,-6.2 -46.29,-6.2 -46.29,-6.16 -46.1,-6.16 -46.1,-6.12 -45.91,-6.12 -45.91,-6.08 -45.72,-6.08 -45.72,-6.04 -45.52,-6.04 -45.52,-6 -45.33,-6 -45.33,-5.96 -45.14,-5.96 -45.14,-5.92 -44.95,-5.92 -44.95,-5.89 -44.75,-5.89 -44.75,-5.85 -44.56,-5.85 -44.56,-5.81 -44.37,-5.81 -44.37,-5.77 -44.18,-5.77 -44.18,-5.73 -43.98,-5.73 -43.98,-5.69 -43.79,-5.69 -43.79,-5.65 -43.6,-5.65 -43.6,-5.61 -43.4,-5.61 -43.4,-5.57 -43.21,-5.57 -43.21,-5.54 -43.02,-5.54 -43.02,-5.5 -42.83,-5.5 -42.83,-5.46 -42.63,-5.46 -42.63,-5.42 -42.44,-5.42 -42.44,-5.38 -42.25,-5.38 -42.25,-5.34 -42.06,-5.34 -42.06,-5.31 -41.86,-5.31 -41.86,-5.27 -41.67,-5.27 -41.67,-5.23 -41.48,-5.23 -41.48,-5.19 -41.28,-5.19 -41.28,-5.15 -41.09,-5.15 -41.09,-5.11 -40.9,-5.11 -40.9,-5.08 -40.71,-5.08 -40.71,-5.04 -40.51,-5.04 -40.51,-5 -40.32,-5 -40.32,-4.96 -40.13,-4.96 -40.13,-4.92 -39.94,-4.92 -39.94,-4.88 -39.74,-4.88 -39.74,-4.84 -39.55,-4.84 -39.55,-4.8 -39.36,-4.8 -39.36,-4.75 -39.17,-4.75 -39.17,-4.7 -38.97,-4.7 -38.97,-4.65 -38.78,-4.65 -38.78,-4.59 -38.59,-4.59 -38.59,-4.52 -38.39,-4.52 -38.39,-4.45 -38.2,-4.45 -38.2,-4.37 -38.01,-4.37 -38.01,-4.29 -37.82,-4.29 -37.82,-4.21 -37.62,-4.21 -37.62,-4.12 -37.43,-4.12 -37.43,-4.04 -37.24,-4.04 -37.24,-3.96 -37.05,-3.96 -37.05,-3.88 -36.85,-3.88 -36.85,-3.81 -36.66,-3.81 -36.66,-3.74 -36.47,-3.74 -36.47,-3.69 -36.27,-3.69 -36.27,-3.64 -36.08,-3.64 -36.08,-3.59 -35.89,-3.59 -35.89,-3.55 -35.7,-3.55 -35.7,-3.51 -35.5,-3.51 -35.5,-3.48 -35.31,-3.48 -35.31,-3.44 -35.12,-3.44 -35.12,-3.41 -34.93,-3.41 -34.93,-3.38 -34.73,-3.38 -34.73,-3.35 -34.54,-3.35 -34.54,-3.32 -34.35,-3.32 -34.35,-3.29 -34.16,-3.29 -34.16,-3.26 -33.96,-3.26 -33.96,-3.22 -33.77,-3.22 -33.77,-3.19 -33.58,-3.19 -33.58,-3.16 -33.38,-3.16 -33.38,-3.13 -33.19,-3.13 -33.19,-3.1 -33,-3.1 -33,-3.07 -32.81,-3.07 -32.81,-3.04 -32.61,-3.04 -32.61,-3.01 -32.42,-3.01 -32.42,-2.98 -32.23,-2.98 -32.23,-2.95 -32.04,-2.95 -32.04,-2.92 -31.84,-2.92 -31.84,-2.89 -31.65,-2.89 -31.65,-2.86 -31.46,-2.86 -31.46,-2.83 -31.26,-2.83 -31.26,-2.8 -31.07,-2.8 -31.07,-2.77 -30.88,-2.77 -30.88,-2.74 -30.69,-2.74 -30.69,-2.71 -30.49,-2.71 -30.49,-2.68 -30.3,-2.68 -30.3,-2.65 -30.11,-2.65 -30.11,-2.62 -29.92,-2.62 -29.92,-2.59 -29.72,-2.59 -29.72,-2.56 -29.53,-2.56 -29.53,-2.53 -29.34,-2.53 -29.34,-2.5 -29.15,-2.5 -29.15,-2.47 -28.95,-2.47 -28.95,-2.44 -28.76,-2.44 -28.76,-2.41 -28.57,-2.41 -28.57,-2.39 -28.37,-2.39 -28.37,-2.36 -28.18,-2.36 -28.18,-2.33 -27.99,-2.33 -27.99,-2.3 -27.8,-2.3 -27.8,-2.27 -27.6,-2.27 -27.6,-2.24 -27.41,-2.24 -27.41,-2.21 -27.22,-2.21 -27.22,-2.18 -27.03,-2.18 -27.03,-2.15 -26.83,-2.15 -26.83,-2.12 -26.64,-2.12 -26.64,-2.1 -26.45,-2.1 -26.45,-2.07 -26.25,-2.07 -26.25,-2.04 -26.06,-2.04 -26.06,-2.01 -25.87,-2.01 -25.87,-1.98 -25.68,-1.98 -25.68,-1.95 -25.48,-1.95 -25.48,-1.92 -25.29,-1.92 -25.29,-1.89 -25.1,-1.89 -25.1,-1.87 -24.91,-1.87 -24.91,-1.84 -24.71,-1.84 -24.71,-1.81 -24.52,-1.81 -24.52,-1.78 -24.33,-1.78 -24.33,-1.75 -24.14,-1.75 -24.14,-1.73 -23.94,-1.73 -23.94,-1.7 -23.75,-1.7 -23.75,-1.67 -23.56,-1.67 -23.56,-1.64 -23.36,-1.64 -23.36,-1.61 -23.17,-1.61 -23.17,-1.59 -22.98,-1.59 -22.98,-1.56 -22.79,-1.56 -22.79,-1.53 -22.59,-1.53 -22.59,-1.5 -22.4,-1.5 -22.4,-1.48 -22.21,-1.48 -22.21,-1.45 -22.02,-1.45 -22.02,-1.42 -21.82,-1.42 -21.82,-1.39 -21.63,-1.39 -21.63,-1.37 -21.44,-1.37 -21.44,-1.34 -21.24,-1.34 -21.24,-1.31 -21.05,-1.31 -21.05,-1.29 -20.86,-1.29 -20.86,-1.26 -20.67,-1.26 -20.67,-1.23 -20.47,-1.23 -20.47,-1.2 -20.28,-1.2 -20.28,-1.18 -20.09,-1.18 -20.09,-1.15 -19.9,-1.15 -19.9,-1.12 -19.7,-1.12 -19.7,-1.1 -19.51,-1.1 -19.51,-1.07 -19.32,-1.07 -19.32,-1.04 -19.12,-1.04 -19.12,-1.02 -18.93,-1.02 -18.93,-0.99 -18.74,-0.99 -18.74,-0.97 -18.55,-0.97 -18.55,-0.94 -18.35,-0.94 -18.35,-0.91 -18.16,-0.91 -18.16,-0.89 -17.97,-0.89 -17.97,-0.86 -17.78,-0.86 -17.78,-0.84 -17.58,-0.84 -17.58,-0.81 -17.39,-0.81 -17.39,-0.78 -17.2,-0.78 -17.2,-0.76 -17.01,-0.76 -17.01,-0.73 -16.81,-0.73 -16.81,-0.71 -16.62,-0.71 -16.62,-0.68 -16.43,-0.68 -16.43,-0.66 -16.23,-0.66 -16.23,-0.63 -16.04,-0.63 -16.04,-0.61 -15.85,-0.61 -15.85,-0.58 -15.66,-0.58 -15.66,-0.55 -15.46,-0.55 -15.46,-0.53 -15.27,-0.53 -15.27,-0.5 -15.08,-0.5 -15.08,-0.48 -14.89,-0.48 -14.89,-0.45 -14.69,-0.45 -14.69,-0.43 -14.5,-0.43 -14.5,-0.4 -14.31,-0.4 -14.31,-0.38 -14.11,-0.38 -14.11,-0.36 -13.92,-0.36 -13.92,-0.33 -13.73,-0.33 -13.73,-0.31 -13.54,-0.31 -13.54,-0.28 -13.34,-0.28 -13.34,-0.26 -13.15,-0.26 -13.15,-0.23 -12.96,-0.23 -12.96,-0.21 -12.77,-0.21 -12.77,-0.18 -12.57,-0.18 -12.57,-0.16 -12.38,-0.16 -12.38,-0.14 -12.19,-0.14 -12.19,-0.11 -12,-0.11 -12,-0.09 -11.8,-0.09 -11.8,-0.06 -11.61,-0.06 -11.61,-0.04 -11.42,-0.04 -11.42,-0.02 -11.22,-0.02 -11.22,0.01 -11.03,0.01 -11.03,0.03 -10.84,0.03 -10.84,0.05 -10.65,0.05 -10.65,0.08 -10.45,0.08 -10.45,0.1 -10.26,0.1 -10.26,0.12 -10.07,0.12 -10.07,0.15 -9.88,0.15 -9.88,0.17 -9.68,0.17 -9.68,0.19 -9.49,0.19 -9.49,0.22 -9.3,0.22 -9.3,0.24 -9.1,0.24 -9.1,0.26 -8.91,0.26 -8.91,0.29 -8.72,0.29 -8.72,0.31 -8.53,0.31 -8.53,0.33 -8.33,0.33 -8.33,0.36 -8.14,0.36 -8.14,0.38 -7.95,0.38 -7.95,0.4 -7.76,0.4 -7.76,0.42 -7.56,0.42 -7.56,0.45 -7.37,0.45 -7.37,0.47 -7.18,0.47 -7.18,0.49 -6.99,0.49 -6.99,0.51 -6.79,0.51 -6.79,0.54 -6.6,0.54 -6.6,0.56 -6.41,0.56 -6.41,0.58 -6.21,0.58 -6.21,0.6 -6.02,0.6 -6.02,0.62 -5.83,0.62 -5.83,0.65 -5.64,0.65 -5.64,0.67 -5.44,0.67 -5.44,0.69 -5.25,0.69 -5.25,0.71 -5.06,0.71 -5.06,0.73 -4.87,0.73 -4.87,0.75 -4.67,0.75 -4.67,0.78 -4.48,0.78 -4.48,0.8 -4.29,0.8 -4.29,0.82 -4.09,0.82 -4.09,0.84 -3.9,0.84 -3.9,0.86 -3.71,0.86 -3.71,0.88 -3.52,0.88 -3.52,0.9 -3.32,0.9 -3.32,0.93 -3.13,0.93 -3.13,0.95 -2.94,0.95 -2.94,0.97 -2.75,0.97 -2.75,0.99 -2.55,0.99 -2.55,1.01 -2.36,1.01 -2.36,1.03 -2.17,1.03 -2.17,1.05 -1.98,1.05 -1.98,1.07 -1.78,1.07 -1.78,1.09 -1.59,1.09 -1.59,1.11 -1.4,1.11 -1.4,1.13 -1.2,1.13 -1.2,1.16 -1.01,1.16 -1.01,1.18 -0.82,1.18 -0.82,1.2 -0.63,1.2 -0.63,1.22 -0.43,1.22 -0.43,1.24 -0.24,1.24 -0.24,1.26 -0.05,1.26 -0.05,1.28 0.14,1.28 0.14,1.3 0.34,1.3 0.34,1.32 0.53,1.32 0.53,1.34 0.72,1.34 0.72,1.36 0.92,1.36 0.92,1.38 1.11,1.38 1.11,1.4 1.3,1.4 1.3,1.42 1.49,1.42 1.49,1.44 1.69,1.44 1.69,1.46 1.88,1.46 1.88,1.48 2.07,1.48 2.07,1.5 2.26,1.5 2.26,1.52 2.46,1.52 2.46,1.54 2.65,1.54 2.65,1.56 2.84,1.56 2.84,1.57 3.03,1.57 3.03,1.59 3.23,1.59 3.23,1.61 3.42,1.61 3.42,1.63 3.61,1.63 3.61,1.65 3.81,1.65 3.81,1.67 4,1.67 4,1.69 4.19,1.69 4.19,1.71 4.38,1.71 4.38,1.73 4.58,1.73 4.58,1.75 4.77,1.75 4.77,1.77 4.96,1.77 4.96,1.78 5.15,1.78 5.15,1.8 5.35,1.8 5.35,1.82 5.54,1.82 5.54,1.84 5.73,1.84 5.73,1.86 5.93,1.86 5.93,1.88 6.12,1.88 6.12,1.9 6.31,1.9 6.31,1.92 6.5,1.92 6.5,1.93 6.7,1.93 6.7,1.95 6.89,1.95 6.89,1.97 7.08,1.97 7.08,1.99 7.27,1.99 7.27,2.01 7.47,2.01 7.47,2.02 7.66,2.02 7.66,2.04 7.85,2.04 7.85,2.06 8.05,2.06 8.05,2.08 8.24,2.08 8.24,2.1 8.43,2.1 8.43,2.12 8.62,2.12 8.62,2.13 8.82,2.13 8.82,2.15 9.01,2.15 9.01,2.17 9.2,2.17 9.2,2.19 9.39,2.19 9.39,2.2 9.59,2.2 9.59,2.22 9.78,2.22 9.78,2.24 9.97,2.24 9.97,2.26 10.16,2.26 10.16,2.27 10.36,2.27 10.36,2.29 10.55,2.29 10.55,2.31 10.74,2.31 10.74,2.33 10.94,2.33 10.94,2.34 11.13,2.34 11.13,2.36 11.32,2.36 11.32,2.38 11.51,2.38 11.51,2.4 11.71,2.4 11.71,2.41 11.9,2.41 11.9,2.43 12.09,2.43 12.09,2.45 12.28,2.45 12.28,2.46 12.48,2.46 12.48,2.48 12.67,2.48 12.67,2.5 12.86,2.5 12.86,2.51 13.06,2.51 13.06,2.53 13.25,2.53 13.25,2.55 13.44,2.55 13.44,2.56 13.63,2.56 13.63,2.58 13.83,2.58 13.83,2.6 14.02,2.6 14.02,2.61 14.21,2.61 14.21,2.63 14.4,2.63 14.4,2.65 14.6,2.65 14.6,2.66 14.79,2.66 14.79,2.68 14.98,2.68 14.98,2.7 15.17,2.7 15.17,2.71 15.37,2.71 15.37,2.73 15.56,2.73 15.56,2.75 15.75,2.75 15.75,2.76 15.95,2.76 15.95,2.78 16.14,2.78 16.14,2.79 16.33,2.79 16.33,2.81 16.52,2.81 16.52,2.83 16.72,2.83 16.72,2.84 16.91,2.84 16.91,2.86 17.1,2.86 17.1,2.87 17.29,2.87 17.29,2.89 17.49,2.89 17.49,2.91 17.68,2.91 17.68,2.92 17.87,2.92 17.87,2.94 18.07,2.94 18.07,2.95 18.26,2.95 18.26,2.97 18.45,2.97 18.45,2.98 18.64,2.98 18.64,3 18.84,3 18.84,3.02 19.03,3.02 19.03,3.03 19.22,3.03 19.22,3.05 19.41,3.05 19.41,3.06 19.61,3.06 19.61,3.08 19.8,3.08 19.8,3.09 19.99,3.09 19.99,3.11 20.18,3.11 20.18,3.13 20.38,3.13 20.38,3.15 20.57,3.15 20.57,3.16 20.76,3.16 20.76,3.18 20.96,3.18 20.96,3.2 21.15,3.2 21.15,3.22 21.34,3.22 21.34,3.24 21.53,3.24 21.53,3.26 21.73,3.26 21.73,3.28 21.92,3.28 21.92,3.29 22.11,3.29 22.11,3.31 22.3,3.31 22.3,3.33 22.5,3.33 22.5,3.35 22.69,3.35 22.69,3.37 22.88,3.37 22.88,3.39 23.08,3.39 23.08,3.4 23.27,3.4 23.27,3.42 23.46,3.42 23.46,3.44 23.65,3.44 23.65,3.45 23.85,3.45 23.85,3.47 24.04,3.47 24.04,3.48 24.23,3.48 24.23,3.5 24.42,3.5 24.42,3.51 24.62,3.51 24.62,3.53 24.81,3.53 24.81,3.54 25,3.54 25,3.55 25.19,3.55 25.19,3.57 25.39,3.57 25.39,3.58 25.58,3.58 25.58,3.59 25.77,3.59 25.77,3.61 25.97,3.61 25.97,3.62 26.16,3.62 26.16,3.64 26.35,3.64 26.35,3.65 26.54,3.65 26.54,3.66 26.74,3.66 26.74,3.68 26.93,3.68 26.93,3.69 27.12,3.69 27.12,3.7 27.31,3.7 27.31,3.72 27.51,3.72 27.51,3.73 27.7,3.73 27.7,3.74 27.89,3.74 27.89,3.76 28.09,3.76 28.09,3.77 28.28,3.77 28.28,3.78 28.47,3.78 28.47,3.8 28.66,3.8 28.66,3.81 28.86,3.81 28.86,3.82 29.05,3.82 29.05,3.84 29.24,3.84 29.24,3.85 29.43,3.85 29.43,3.86 29.63,3.86 29.63,3.88 29.82,3.88 29.82,3.89 30.01,3.89 30.01,3.9 30.2,3.9 30.2,3.92 30.4,3.92 30.4,3.93 30.59,3.93 30.59,3.94 30.78,3.94 30.78,3.95 30.98,3.95 30.98,3.97 31.17,3.97 31.17,3.98 31.36,3.98 31.36,3.99 31.55,3.99 31.55,4.01 31.75,4.01 31.75,4.02 31.94,4.02 31.94,4.03 32.13,4.03 32.13,4.04 32.32,4.04 32.32,4.06 32.52,4.06 32.52,4.07 32.71,4.07 32.71,4.08 32.9,4.08 32.9,4.09 33.1,4.09 33.1,4.11 33.29,4.11 33.29,4.12 33.48,4.12 33.48,4.13 33.67,4.13 33.67,4.14 33.87,4.14 33.87,4.16 34.06,4.16 34.06,4.17 34.25,4.17 34.25,4.18 34.44,4.18 34.44,4.19 34.64,4.19 34.64,4.21 34.83,4.21 34.83,4.22 35.02,4.22 35.02,4.23 35.22,4.23 35.22,4.24 35.41,4.24 35.41,4.25 35.6,4.25 35.6,4.27 35.79,4.27 35.79,4.28 35.99,4.28 35.99,4.29 36.18,4.29 36.18,4.3 36.37,4.3 36.37,4.32 36.56,4.32 36.56,4.33 36.76,4.33 36.76,4.34 36.95,4.34 36.95,4.35 37.14,4.35 37.14,4.36 37.33,4.36 37.33,4.38 37.53,4.38 37.53,4.39 37.72,4.39 37.72,4.4 37.91,4.4 37.91,4.41 38.11,4.41 38.11,4.42 38.3,4.42 38.3,4.44 38.49,4.44 38.49,4.45 38.68,4.45 38.68,4.46 38.88,4.46 38.88,4.47 39.07,4.47 39.07,4.48 39.26,4.48 39.26,4.49 39.45,4.49 39.45,4.51 39.65,4.51 39.65,4.52 39.84,4.52 39.84,4.53 40.03,4.53 40.03,4.54 40.23,4.54 40.23,4.55 40.42,4.55 40.42,4.56 40.61,4.56 40.61,4.58 40.8,4.58 40.8,4.59 41,4.59 41,4.6 41.19,4.6 41.19,4.61 41.38,4.61 41.38,4.62 41.57,4.62 41.57,4.63 41.77,4.63 41.77,4.64 41.96,4.64 41.96,4.66 42.15,4.66 42.15,4.67 42.34,4.67 42.34,4.68 42.54,4.68 42.54,4.69 42.73,4.69 42.73,4.7 42.92,4.7 42.92,4.71 43.12,4.71 43.12,4.72 43.31,4.72 43.31,4.73 43.5,4.73 43.5,4.75 43.69,4.75 43.69,4.76 43.89,4.76 43.89,4.77 44.08,4.77 44.08,4.78 44.27,4.78 44.27,4.79 44.46,4.79 44.46,4.8 44.66,4.8 44.66,4.81 44.85,4.81 44.85,4.82 45.04,4.82 45.04,4.83 45.24,4.83 45.24,4.84 45.43,4.84 45.43,4.86 45.62,4.86 45.62,4.87 45.81,4.87 45.81,4.88 46.01,4.88 46.01,4.89 46.2,4.89 46.2,4.9 46.39,4.9 46.39,4.91 46.58,4.91 46.58,4.92 46.78,4.92 46.78,4.93 46.97,4.93 46.97,4.94 47.16,4.94 47.16,4.95 47.35,4.95 47.35,4.96 47.55,4.96 47.55,4.97 47.74,4.97 47.74,4.98 47.93,4.98 47.93,5 48.13,5 48.13,5.01 48.32,5.01 48.32,5.02 48.51,5.02 48.51,5.03 48.7,5.03 48.7,5.04 48.9,5.04 48.9,5.05 49.09,5.05 49.09,5.06 49.28,5.06 49.28,5.07 49.47,5.07 49.47,5.08 49.67,5.08 49.67,5.09 49.86,5.09 49.86,5.1 50.05,5.1 50.05,5.11 50.25,5.11 50.25,5.12 50.44,5.12 50.44,5.13 50.63,5.13 50.63,5.14 50.82,5.14 50.82,5.15 51.02,5.15 51.02,5.16 51.21,5.16 51.21,5.17 51.4,5.17 51.4,5.18 51.59,5.18 51.59,5.19 51.79,5.19 51.79,5.2 51.98,5.2 51.98,5.21 52.17,5.21 52.17,5.22 52.36,5.22 52.36,5.23 52.56,5.23 52.56,5.24 52.75,5.24 52.75,5.25 52.94,5.25 52.94,5.26 53.14,5.26 53.14,5.27 53.33,5.27 53.33,5.28 53.52,5.28 53.52,5.29 53.71,5.29 53.71,5.3 53.91,5.3 53.91,5.31 54.1,5.31 54.1,5.32 54.29,5.32 54.29,5.33 54.48,5.33 54.48,5.34 54.68,5.34 54.68,5.35 54.87,5.35 54.87,5.36 55.06,5.36 55.06,5.37 55.26,5.37 55.26,5.38 55.45,5.38 55.45,5.39 55.64,5.39 55.64,5.4 55.83,5.4 55.83,5.41 56.03,5.41 56.03,5.42 56.22,5.42 56.22,5.43 56.41,5.43 56.41,5.44 56.6,5.44 56.6,5.45 56.8,5.45 56.8,5.46 56.99,5.46 56.99,5.47 57.18,5.47 57.18,5.48 57.37,5.48 57.37,5.49 57.57,5.49 57.57,5.5 57.76,5.5 57.76,5.51 57.95,5.51 57.95,5.52 58.15,5.52 58.15,5.53 58.34,5.53 58.34,5.54 58.53,5.54 58.53,5.55 58.72,5.55 58.72,5.56 58.92,5.56 58.92,5.57 59.11,5.57 59.11,5.58 59.3,5.58 59.3,5.59 59.49,5.59 59.49,5.6 59.69,5.6 59.69,5.61 59.88,5.61 59.88,5.62 60.07,5.62 60.07,5.62 60.27,5.62 60.27,5.63 60.46,5.63 60.46,5.64 60.65,5.64 60.65,5.65 60.84,5.65 60.84,5.66 61.04,5.66 61.04,5.67 61.23,5.67 61.23,5.68 61.42,5.68 61.42,5.69 61.61,5.69 61.61,5.7 61.81,5.7 61.81,5.71 62,5.71 62,5.72 62.19,5.72 62.19,5.73 62.39,5.73 62.39,5.74 62.58,5.74 62.58,5.75 62.77,5.75 62.77,5.75 62.96,5.75 62.96,5.76 63.16,5.76 63.16,5.77 63.35,5.77 63.35,5.78 63.54,5.78 63.54,5.79 63.73,5.79 63.73,5.8 63.93,5.8 63.93,5.81 64.12,5.81 64.12,5.82 64.31,5.82 64.31,5.83 64.5,5.83 64.5,5.84 64.7,5.84 64.7,5.85 64.89,5.85 64.89,5.85 65.08,5.85 65.08,5.86 65.28,5.86 65.28,5.87 65.47,5.87 65.47,5.88 65.66,5.88 65.66,5.89 65.85,5.89 65.85,5.9 66.05,5.9 66.05,5.91 66.24,5.91 66.24,5.92 66.43,5.92 66.43,5.93 66.62,5.93 66.62,5.93 66.82,5.93 66.82,5.94 67.01,5.94 67.01,5.95 67.2,5.95 67.2,5.96 67.4,5.96 67.4,5.97 67.59,5.97 67.59,5.98 67.78,5.98 67.78,5.99 67.97,5.99 67.97,5.99 68.17,5.99 68.17,6 68.36,6 68.36,6.01 68.55,6.01 68.55,6.02 68.74,6.02 68.74,6.03 68.94,6.03 68.94,6.04 69.13,6.04 69.13,6.05 69.32,6.05 69.32,6.06 69.51,6.06 69.51,6.06 69.71,6.06 69.71,6.07 69.9,6.07 69.9,6.08 70.09,6.08 70.09,6.09 70.29,6.09 70.29,6.1 70.48,6.1 70.48,6.11 70.67,6.11 70.67,6.11 70.86,6.11 70.86,6.12 71.06,6.12 71.06,6.13 71.25,6.13 71.25,6.14 71.44,6.14 71.44,6.15 71.63,6.15 71.63,6.16 71.83,6.16 71.83,6.17 72.02,6.17 72.02,6.17 72.21,6.17 72.21,6.18 72.41,6.18 72.41,6.19 72.6,6.19 72.6,6.2 72.79,6.2 72.79,6.21 72.98,6.21 72.98,6.21 73.18,6.21 73.18,6.22 73.37,6.22 73.37,6.23 73.56,6.23 73.56,6.24 73.75,6.24 73.75,6.25 73.95,6.25 73.95,6.26 74.14,6.26 74.14,6.26 74.33,6.26 74.33,6.27 74.52,6.27 74.52,6.28 74.72,6.28 74.72,6.29 74.91,6.29 74.91,6.3 75.1,6.3 75.1,6.3 75.3,6.3 75.3,6.31 75.49,6.31 75.49,6.32 75.68,6.32 75.68,6.33 75.87,6.33 75.87,6.34 76.07,6.34 76.07,6.34 76.26,6.34 76.26,6.35 76.45,6.35 76.45,6.36 76.64,6.36 76.64,6.37 76.84,6.37 76.84,6.38 77.03,6.38 77.03,6.38 77.22,6.38 77.22,6.39 77.42,6.39 77.42,6.4 77.61,6.4 77.61,6.41 77.8,6.41 77.8,6.42 77.99,6.42 77.99,6.42 78.19,6.42 78.19,6.43 78.38,6.43 78.38,6.44 78.57,6.44 78.57,6.45 78.76,6.45 78.76,6.45 78.96,6.45 78.96,6.46 79.15,6.46 79.15,6.47 79.34,6.47 79.34,6.48 79.53,6.48 79.53,6.49 79.73,6.49 79.73,6.49 79.92,6.49 79.92,6.5 80.11,6.5 80.11,6.51 80.31,6.51 80.31,6.52 80.5,6.52 80.5,6.52 80.69,6.52 80.69,6.53 80.88,6.53 80.88,6.54 81.08,6.54 81.08,6.55 81.27,6.55 81.27,6.55 81.46,6.55 81.46,6.56 81.65,6.56 81.65,6.57 81.85,6.57 81.85,6.58 82.04,6.58 82.04,6.58 82.23,6.58 82.23,6.59 82.43,6.59 82.43,6.6 82.62,6.6 82.62,6.61 82.81,6.61 82.81,6.61 83,6.61 83,6.62 83.2,6.62 83.2,6.63 83.39,6.63 83.39,6.64 83.58,6.64 83.58,6.64 83.77,6.64 83.77,6.65 83.97,6.65 83.97,6.66 84.16,6.66 84.16,6.67 84.35,6.67 84.35,6.67 84.54,6.67 84.54,6.68 84.74,6.68 84.74,6.69 84.93,6.69 84.93,6.69 85.12,6.69 85.12,6.7 85.32,6.7 85.32,6.71 85.51,6.71 85.51,6.72 85.7,6.72 85.7,6.72 85.89,6.72 85.89,6.73 86.09,6.73 86.09,6.74 86.28,6.74 86.28,6.75 86.47,6.75 86.47,6.75 86.66,6.75 86.66,6.76 86.86,6.76 86.86,6.77 87.05,6.77 87.05,6.77 87.24,6.77 87.24,6.78 87.44,6.78 87.44,6.79 87.63,6.79 87.63,6.79 87.82,6.79 87.82,6.8 88.01,6.8 88.01,6.81 88.21,6.81 88.21,6.82 88.4,6.82 88.4,6.82 88.59,6.82 88.59,6.83 88.78,6.83 88.78,6.84 88.98,6.84 88.98,6.84 89.17,6.84 89.17,6.85 89.36,6.85 89.36,6.86 89.55,6.86 89.55,6.86 89.75,6.86 89.75,6.87 89.94,6.87 89.94,6.88 90.13,6.88 90.13,6.89 90.33,6.89 90.33,6.89 90.52,6.89 90.52,6.9 90.71,6.9 90.71,6.91 90.9,6.91 90.9,6.91 91.1,6.91 91.1,6.92 91.29,6.92 91.29,6.93 91.48,6.93 91.48,6.93 91.67,6.93 91.67,6.94 91.87,6.94 91.87,6.95 92.06,6.95 92.06,6.95 92.25,6.95 92.25,6.96 92.45,6.96 92.45,6.97 92.64,6.97 92.64,6.97 92.83,6.97 92.83,6.98 93.02,6.98 93.02,6.99 93.22,6.99 93.22,6.99 93.41,6.99 93.41,7 93.6,7 93.6,7.01 93.79,7.01 93.79,7.01 93.99,7.01 93.99,7.02 94.18,7.02 94.18,7.03 94.37,7.03 94.37,7.03 94.57,7.03 94.57,7.04 94.76,7.04 94.76,7.04 94.95,7.04 94.95,7.05 95.14,7.05 95.14,7.06 95.34,7.06 95.34,7.06 95.53,7.06 95.53,7.07 95.72,7.07 95.72,7.08 95.91,7.08 95.91,7.08 96.11,7.08 96.11,7.09 96.3,7.09 96.3,7.1 96.49,7.1 96.49,7.1 96.68,7.1 96.68,7.11 96.88,7.11 96.88,7.12 97.07,7.12 97.07,7.12 97.26,7.12 97.26,7.13 97.46,7.13 97.46,7.13 97.65,7.13 97.65,7.14 97.84,7.14 97.84,7.15 98.03,7.15 98.03,7.15 98.23,7.15 98.23,7.16 98.42,7.16 98.42,7.17 98.61,7.17 98.61,7.17 98.8,7.17 98.8,7.18 99,7.18 99,7.18 99.19,7.18 99.19,7.19 99.38,7.19 99.38,7.2 99.58,7.2 99.58,7.2 99.77,7.2 99.77,7.21 99.96,7.21 99.96,7.21 100.15,7.21 100.15,7.22 100.35,7.22 100.35,7.23 100.54,7.23 100.54,7.23 100.73,7.23 100.73,7.24 100.92,7.24 100.92,7.24 101.12,7.24 101.12,7.25 101.31,7.25 101.31,7.26 101.5,7.26 101.5,7.26 101.69,7.26 101.69,7.27 101.89,7.27 101.89,7.27 102.08,7.27 102.08,7.28 102.27,7.28 102.27,7.29 102.47,7.29 102.47,7.29 102.66,7.29 102.66,7.3 102.85,7.3 102.85,7.3 103.04,7.3 103.04,7.31 103.24,7.31 103.24,7.32 103.43,7.32 103.43,7.32 103.62,7.32 103.62,7.33 103.81,7.33 103.81,7.33 104.01,7.33 104.01,7.34 104.2,7.34 104.2,7.34 104.39,7.34 104.39,7.35 104.59,7.35 104.59,7.36 104.78,7.36 104.78,7.36 104.97,7.36 104.97,7.37 105.16,7.37 105.16,7.37 105.36,7.37 105.36,7.38 105.55,7.38 105.55,7.38 105.74,7.38 105.74,7.39 105.93,7.39 105.93,7.4 106.13,7.4 106.13,7.4 106.32,7.4 106.32,7.41 106.51,7.41 106.51,7.41 106.7,7.41 106.7,7.42 106.9,7.42 106.9,7.42 107.09,7.42 107.09,7.43 107.28,7.43 107.28,7.43 107.48,7.43 107.48,7.44 107.67,7.44 107.67,7.45 107.86,7.45 107.86,7.45 108.05,7.45 108.05,7.46 108.25,7.46 108.25,7.46 108.44,7.46 108.44,7.47 108.63,7.47 108.63,7.47 108.82,7.47 108.82,7.48 109.02,7.48 109.02,7.48 109.21,7.48 109.21,7.49 109.4,7.49 109.4,7.49 109.6,7.49 109.6,7.5 109.79,7.5 109.79,7.51 109.98,7.51 109.98,7.51 110.17,7.51 110.17,7.52 110.37,7.52 110.37,7.52 110.56,7.52 110.56,7.53 110.75,7.53 110.75,7.53 110.94,7.53 110.94,7.54 111.14,7.54 111.14,7.54 111.33,7.54 111.33,7.55 111.52,7.55 111.52,7.55 111.71,7.55 111.71,7.56 111.91,7.56 111.91,7.56 112.1,7.56 112.1,7.57 112.29,7.57 112.29,7.57 112.49,7.57 112.49,7.58 112.68,7.58 112.68,7.58 112.87,7.58 112.87,7.59 113.06,7.59 113.06,7.59 113.26,7.59 113.26,7.6 113.45,7.6 113.45,7.61 113.64,7.61 113.64,7.61 113.83,7.61 113.83,7.62 114.03,7.62 114.03,7.62 114.22,7.62 114.22,7.63 114.41,7.63 114.41,7.63 114.61,7.63 114.61,7.64 114.8,7.64 114.8,7.64 114.99,7.64 114.99,7.65 115.18,7.65 115.18,7.65 115.38,7.65 115.38,7.66 115.57,7.66 115.57,7.66 " class="primitive"/>
            </g>
          </g>
        </g>
        <g stroke-width="0.3" fill="#000000" fill-opacity="0.000" class="geometry" id="img-40e80d9b-24">
          <g class="color_RGB{N0f8}(0.063,0.306,0.545)" stroke-dasharray="none" stroke-opacity="1" stroke="#104E8B" id="img-40e80d9b-25">
            <g transform="translate(135.72,27.14)" id="img-40e80d9b-26">
              <path fill="none" d="M-115.67,32.7 L-115.47,32.7 -115.47,32.7 -115.28,32.7 -115.28,32.69 -115.09,32.69 -115.09,32.71 -114.89,32.71 -114.89,32.72 -114.7,32.72 -114.7,32.71 -114.51,32.71 -114.51,32.72 -114.32,32.72 -114.32,32.72 -114.12,32.72 -114.12,32.72 -113.93,32.72 -113.93,32.71 -113.74,32.71 -113.74,32.72 -113.55,32.72 -113.55,32.7 -113.35,32.7 -113.35,32.7 -113.16,32.7 -113.16,32.7 -112.97,32.7 -112.97,32.68 -112.77,32.68 -112.77,32.65 -112.58,32.65 -112.58,32.59 -112.39,32.59 -112.39,32.47 -112.2,32.47 -112.2,32.31 -112,32.31 -112,31.9 -111.81,31.9 -111.81,31.24 -111.62,31.24 -111.62,29.91 -111.43,29.91 -111.43,27.36 -111.23,27.36 -111.23,22.97 -111.04,22.97 -111.04,16.16 -110.85,16.16 -110.85,9.28 -110.66,9.28 -110.66,3.13 -110.46,3.13 -110.46,0.51 -110.27,0.51 -110.27,2.85 -110.08,2.85 -110.08,8.42 -109.88,8.42 -109.88,15.05 -109.69,15.05 -109.69,19.4 -109.5,19.4 -109.5,22.89 -109.31,22.89 -109.31,24.31 -109.11,24.31 -109.11,24.55 -108.92,24.55 -108.92,24.65 -108.73,24.65 -108.73,24.38 -108.54,24.38 -108.54,24.57 -108.34,24.57 -108.34,23.48 -108.15,23.48 -108.15,23.19 -107.96,23.19 -107.96,21.99 -107.76,21.99 -107.76,20.59 -107.57,20.59 -107.57,17.68 -107.38,17.68 -107.38,12.78 -107.19,12.78 -107.19,1.58 -106.99,1.58 -106.99,-19.46 -106.8,-19.46 -106.8,-57.06 -106.61,-57.06 -106.61,-121.8 -106.42,-121.8 -106.42,-221.38 -106.22,-221.38 -106.22,-345.45 -106.03,-345.45 -106.03,-475.54 -105.84,-475.54 -105.84,-569.65 -105.64,-569.65 -105.64,-588.18 -105.45,-588.18 -105.45,-529.23 -105.26,-529.23 -105.26,-412.71 -105.07,-412.71 -105.07,-275.06 -104.87,-275.06 -104.87,-155.48 -104.68,-155.48 -104.68,-69.34 -104.49,-69.34 -104.49,-21.67 -104.3,-21.67 -104.3,2.47 -104.1,2.47 -104.1,13.55 -103.91,13.55 -103.91,17.03 -103.72,17.03 -103.72,18.43 -103.53,18.43 -103.53,19.01 -103.33,19.01 -103.33,17.51 -103.14,17.51 -103.14,15.55 -102.95,15.55 -102.95,12.06 -102.75,12.06 -102.75,6.51 -102.56,6.51 -102.56,0.24 -102.37,0.24 -102.37,-6.25 -102.18,-6.25 -102.18,-9.77 -101.98,-9.77 -101.98,-10 -101.79,-10 -101.79,-7.36 -101.6,-7.36 -101.6,-0.91 -101.41,-0.91 -101.41,5.36 -101.21,5.36 -101.21,10.38 -101.02,10.38 -101.02,14.47 -100.83,14.47 -100.83,17.31 -100.63,17.31 -100.63,18.07 -100.44,18.07 -100.44,18.26 -100.25,18.26 -100.25,18.77 -100.06,18.77 -100.06,18.95 -99.86,18.95 -99.86,18.93 -99.67,18.93 -99.67,18.14 -99.48,18.14 -99.48,18.27 -99.29,18.27 -99.29,17.69 -99.09,17.69 -99.09,17.05 -98.9,17.05 -98.9,17.49 -98.71,17.49 -98.71,17.1 -98.52,17.1 -98.52,16.32 -98.32,16.32 -98.32,16.38 -98.13,16.38 -98.13,16.54 -97.94,16.54 -97.94,15.83 -97.74,15.83 -97.74,15.41 -97.55,15.41 -97.55,14.7 -97.36,14.7 -97.36,14.64 -97.17,14.64 -97.17,13.3 -96.97,13.3 -96.97,13.8 -96.78,13.8 -96.78,13.01 -96.59,13.01 -96.59,12.03 -96.4,12.03 -96.4,11.56 -96.2,11.56 -96.2,10.27 -96.01,10.27 -96.01,9.19 -95.82,9.19 -95.82,9.03 -95.62,9.03 -95.62,8.96 -95.43,8.96 -95.43,8.74 -95.24,8.74 -95.24,7.44 -95.05,7.44 -95.05,7.45 -94.85,7.45 -94.85,6.84 -94.66,6.84 -94.66,7.49 -94.47,7.49 -94.47,6.35 -94.28,6.35 -94.28,5.73 -94.08,5.73 -94.08,5.54 -93.89,5.54 -93.89,4.67 -93.7,4.67 -93.7,2.37 -93.51,2.37 -93.51,-0.08 -93.31,-0.08 -93.31,-5.81 -93.12,-5.81 -93.12,-17.68 -92.93,-17.68 -92.93,-40.46 -92.73,-40.46 -92.73,-78.18 -92.54,-78.18 -92.54,-141.85 -92.35,-141.85 -92.35,-229.59 -92.16,-229.59 -92.16,-339.7 -91.96,-339.7 -91.96,-449.66 -91.77,-449.66 -91.77,-538.01 -91.58,-538.01 -91.58,-583.28 -91.39,-583.28 -91.39,-571.5 -91.19,-571.5 -91.19,-509.69 -91,-509.69 -91,-410.8 -90.81,-410.8 -90.81,-301.17 -90.61,-301.17 -90.61,-201.2 -90.42,-201.2 -90.42,-124.07 -90.23,-124.07 -90.23,-67.5 -90.04,-67.5 -90.04,-34.14 -89.84,-34.14 -89.84,-13.41 -89.65,-13.41 -89.65,-3.85 -89.46,-3.85 -89.46,1.34 -89.27,1.34 -89.27,2.45 -89.07,2.45 -89.07,3.36 -88.88,3.36 -88.88,1.24 -88.69,1.24 -88.69,-3.01 -88.5,-3.01 -88.5,-10.92 -88.3,-10.92 -88.3,-26.97 -88.11,-26.97 -88.11,-51.65 -87.92,-51.65 -87.92,-86.9 -87.72,-86.9 -87.72,-129.24 -87.53,-129.24 -87.53,-175.31 -87.34,-175.31 -87.34,-213.82 -87.15,-213.82 -87.15,-237.58 -86.95,-237.58 -86.95,-241.44 -86.76,-241.44 -86.76,-225.04 -86.57,-225.04 -86.57,-188.1 -86.38,-188.1 -86.38,-146.63 -86.18,-146.63 -86.18,-103.79 -85.99,-103.79 -85.99,-68.86 -85.8,-68.86 -85.8,-41.07 -85.6,-41.07 -85.6,-25.15 -85.41,-25.15 -85.41,-12.97 -85.22,-12.97 -85.22,-5.6 -85.03,-5.6 -85.03,-2.64 -84.83,-2.64 -84.83,0.18 -84.64,0.18 -84.64,1.8 -84.45,1.8 -84.45,-0.83 -84.26,-0.83 -84.26,-4.58 -84.06,-4.58 -84.06,-14.82 -83.87,-14.82 -83.87,-35.38 -83.68,-35.38 -83.68,-73.48 -83.49,-73.48 -83.49,-143.93 -83.29,-143.93 -83.29,-245.78 -83.1,-245.78 -83.1,-391.06 -82.91,-391.06 -82.91,-571.55 -82.71,-571.55 -82.71,-764.1 -82.52,-764.1 -82.52,-934.22 -82.33,-934.22 -82.33,-1070.28 -82.14,-1070.28 -82.14,-1110.49 -81.94,-1110.49 -81.94,-1060.91 -81.75,-1060.91 -81.75,-933.61 -81.56,-933.61 -81.56,-760.14 -81.37,-760.14 -81.37,-578.08 -81.17,-578.08 -81.17,-410.85 -80.98,-410.85 -80.98,-277.2 -80.79,-277.2 -80.79,-179.02 -80.59,-179.02 -80.59,-114.94 -80.4,-114.94 -80.4,-76.15 -80.21,-76.15 -80.21,-52.67 -80.02,-52.67 -80.02,-36.46 -79.82,-36.46 -79.82,-23.86 -79.63,-23.86 -79.63,-13.14 -79.44,-13.14 -79.44,-5.31 -79.25,-5.31 -79.25,1.01 -79.05,1.01 -79.05,4.84 -78.86,4.84 -78.86,6.48 -78.67,6.48 -78.67,7.66 -78.47,7.66 -78.47,9.44 -78.28,9.44 -78.28,10.2 -78.09,10.2 -78.09,9.83 -77.9,9.83 -77.9,10.34 -77.7,10.34 -77.7,10.94 -77.51,10.94 -77.51,11.43 -77.32,11.43 -77.32,11.46 -77.13,11.46 -77.13,12.2 -76.93,12.2 -76.93,13 -76.74,13 -76.74,12.74 -76.55,12.74 -76.55,13.87 -76.36,13.87 -76.36,13.98 -76.16,13.98 -76.16,13.93 -75.97,13.93 -75.97,13.75 -75.78,13.75 -75.78,14.05 -75.58,14.05 -75.58,14.33 -75.39,14.33 -75.39,13.72 -75.2,13.72 -75.2,13.73 -75.01,13.73 -75.01,13.96 -74.81,13.96 -74.81,13.9 -74.62,13.9 -74.62,14.65 -74.43,14.65 -74.43,13.31 -74.24,13.31 -74.24,13.86 -74.04,13.86 -74.04,13.43 -73.85,13.43 -73.85,13.96 -73.66,13.96 -73.66,13.99 -73.46,13.99 -73.46,13.15 -73.27,13.15 -73.27,12.93 -73.08,12.93 -73.08,12.51 -72.89,12.51 -72.89,12.37 -72.69,12.37 -72.69,12.14 -72.5,12.14 -72.5,11.88 -72.31,11.88 -72.31,11.74 -72.12,11.74 -72.12,11.94 -71.92,11.94 -71.92,11.59 -71.73,11.59 -71.73,11.39 -71.54,11.39 -71.54,12.34 -71.35,12.34 -71.35,12.67 -71.15,12.67 -71.15,12.89 -70.96,12.89 -70.96,12.7 -70.77,12.7 -70.77,12.92 -70.57,12.92 -70.57,13.11 -70.38,13.11 -70.38,12.93 -70.19,12.93 -70.19,13.61 -70,13.61 -70,13.54 -69.8,13.54 -69.8,13.59 -69.61,13.59 -69.61,13.59 -69.42,13.59 -69.42,13.63 -69.23,13.63 -69.23,13.69 -69.03,13.69 -69.03,13.89 -68.84,13.89 -68.84,13.11 -68.65,13.11 -68.65,13.75 -68.45,13.75 -68.45,13.69 -68.26,13.69 -68.26,13.06 -68.07,13.06 -68.07,13.52 -67.88,13.52 -67.88,13.51 -67.68,13.51 -67.68,13.32 -67.49,13.32 -67.49,13.81 -67.3,13.81 -67.3,13.36 -67.11,13.36 -67.11,13.6 -66.91,13.6 -66.91,12.86 -66.72,12.86 -66.72,13.86 -66.53,13.86 -66.53,13.31 -66.34,13.31 -66.34,13.05 -66.14,13.05 -66.14,14.66 -65.95,14.66 -65.95,13.4 -65.76,13.4 -65.76,13.97 -65.56,13.97 -65.56,13.62 -65.37,13.62 -65.37,13.87 -65.18,13.87 -65.18,13.85 -64.99,13.85 -64.99,13.45 -64.79,13.45 -64.79,14.1 -64.6,14.1 -64.6,13.82 -64.41,13.82 -64.41,13.88 -64.22,13.88 -64.22,13.9 -64.02,13.9 -64.02,14.2 -63.83,14.2 -63.83,13.91 -63.64,13.91 -63.64,14.17 -63.44,14.17 -63.44,14.24 -63.25,14.24 -63.25,13.49 -63.06,13.49 -63.06,14.15 -62.87,14.15 -62.87,14.14 -62.67,14.14 -62.67,14.21 -62.48,14.21 -62.48,14.52 -62.29,14.52 -62.29,14.09 -62.1,14.09 -62.1,13.9 -61.9,13.9 -61.9,14.82 -61.71,14.82 -61.71,14.59 -61.52,14.59 -61.52,14.58 -61.33,14.58 -61.33,14.39 -61.13,14.39 -61.13,14.16 -60.94,14.16 -60.94,14.33 -60.75,14.33 -60.75,14.88 -60.55,14.88 -60.55,14.62 -60.36,14.62 -60.36,14.05 -60.17,14.05 -60.17,14.72 -59.98,14.72 -59.98,14.26 -59.78,14.26 -59.78,14.09 -59.59,14.09 -59.59,14.01 -59.4,14.01 -59.4,14.2 -59.21,14.2 -59.21,14.7 -59.01,14.7 -59.01,14.1 -58.82,14.1 -58.82,13.89 -58.63,13.89 -58.63,13.45 -58.43,13.45 -58.43,13.52 -58.24,13.52 -58.24,13.59 -58.05,13.59 -58.05,13.66 -57.86,13.66 -57.86,14.07 -57.66,14.07 -57.66,13.95 -57.47,13.95 -57.47,14.44 -57.28,14.44 -57.28,14.41 -57.09,14.41 -57.09,14.47 -56.89,14.47 -56.89,15.07 -56.7,15.07 -56.7,14.63 -56.51,14.63 -56.51,14.97 -56.32,14.97 -56.32,15.13 -56.12,15.13 -56.12,15.17 -55.93,15.17 -55.93,15.1 -55.74,15.1 -55.74,15.57 -55.54,15.57 -55.54,15.63 -55.35,15.63 -55.35,15 -55.16,15 -55.16,15.43 -54.97,15.43 -54.97,15.09 -54.77,15.09 -54.77,14.74 -54.58,14.74 -54.58,15.06 -54.39,15.06 -54.39,15.07 -54.2,15.07 -54.2,15.13 -54,15.13 -54,15.46 -53.81,15.46 -53.81,15.06 -53.62,15.06 -53.62,14.81 -53.42,14.81 -53.42,15.55 -53.23,15.55 -53.23,15.2 -53.04,15.2 -53.04,14.57 -52.85,14.57 -52.85,16 -52.65,16 -52.65,15.19 -52.46,15.19 -52.46,15.88 -52.27,15.88 -52.27,15.49 -52.08,15.49 -52.08,15.41 -51.88,15.41 -51.88,15.52 -51.69,15.52 -51.69,16.03 -51.5,16.03 -51.5,16.62 -51.31,16.62 -51.31,16.45 -51.11,16.45 -51.11,16.18 -50.92,16.18 -50.92,15.9 -50.73,15.9 -50.73,15.99 -50.53,15.99 -50.53,16.29 -50.34,16.29 -50.34,16.61 -50.15,16.61 -50.15,15.92 -49.96,15.92 -49.96,16.45 -49.76,16.45 -49.76,16.63 -49.57,16.63 -49.57,16.32 -49.38,16.32 -49.38,15.85 -49.19,15.85 -49.19,15.57 -48.99,15.57 -48.99,15.92 -48.8,15.92 -48.8,15.75 -48.61,15.75 -48.61,15.46 -48.41,15.46 -48.41,14.99 -48.22,14.99 -48.22,15.29 -48.03,15.29 -48.03,14.31 -47.84,14.31 -47.84,14.07 -47.64,14.07 -47.64,13.74 -47.45,13.74 -47.45,13.02 -47.26,13.02 -47.26,11.29 -47.07,11.29 -47.07,8.8 -46.87,8.8 -46.87,5.27 -46.68,5.27 -46.68,-2.55 -46.49,-2.55 -46.49,-12.75 -46.29,-12.75 -46.29,-28.05 -46.1,-28.05 -46.1,-50.95 -45.91,-50.95 -45.91,-80.51 -45.72,-80.51 -45.72,-119.04 -45.52,-119.04 -45.52,-163.52 -45.33,-163.52 -45.33,-211.21 -45.14,-211.21 -45.14,-255.24 -44.95,-255.24 -44.95,-298.42 -44.75,-298.42 -44.75,-327.49 -44.56,-327.49 -44.56,-339.42 -44.37,-339.42 -44.37,-339.47 -44.18,-339.47 -44.18,-318.73 -43.98,-318.73 -43.98,-284.81 -43.79,-284.81 -43.79,-245.63 -43.6,-245.63 -43.6,-196.11 -43.4,-196.11 -43.4,-150.91 -43.21,-150.91 -43.21,-105.36 -43.02,-105.36 -43.02,-70.59 -42.83,-70.59 -42.83,-42.52 -42.63,-42.52 -42.63,-21.72 -42.44,-21.72 -42.44,-7.63 -42.25,-7.63 -42.25,2.76 -42.06,2.76 -42.06,9.2 -41.86,9.2 -41.86,12.01 -41.67,12.01 -41.67,15.37 -41.48,15.37 -41.48,15.82 -41.28,15.82 -41.28,16.82 -41.09,16.82 -41.09,16.72 -40.9,16.72 -40.9,16.72 -40.71,16.72 -40.71,15.69 -40.51,15.69 -40.51,15.69 -40.32,15.69 -40.32,13.68 -40.13,13.68 -40.13,12.05 -39.94,12.05 -39.94,9.4 -39.74,9.4 -39.74,5.16 -39.55,5.16 -39.55,1.43 -39.36,1.43 -39.36,-3.62 -39.17,-3.62 -39.17,-9.33 -38.97,-9.33 -38.97,-14.02 -38.78,-14.02 -38.78,-18.75 -38.59,-18.75 -38.59,-20.9 -38.39,-20.9 -38.39,-24.09 -38.2,-24.09 -38.2,-23.76 -38.01,-23.76 -38.01,-21.99 -37.82,-21.99 -37.82,-18.93 -37.62,-18.93 -37.62,-14.66 -37.43,-14.66 -37.43,-9.39 -37.24,-9.39 -37.24,-3.44 -37.05,-3.44 -37.05,1.98 -36.85,1.98 -36.85,6.45 -36.66,6.45 -36.66,10.7 -36.47,10.7 -36.47,13.56 -36.27,13.56 -36.27,15.87 -36.08,15.87 -36.08,17.04 -35.89,17.04 -35.89,18.53 -35.7,18.53 -35.7,19.89 -35.5,19.89 -35.5,19.42 -35.31,19.42 -35.31,19.75 -35.12,19.75 -35.12,19.59 -34.93,19.59 -34.93,20.24 -34.73,20.24 -34.73,20.31 -34.54,20.31 -34.54,20.11 -34.35,20.11 -34.35,20.3 -34.16,20.3 -34.16,20.06 -33.96,20.06 -33.96,20.43 -33.77,20.43 -33.77,20.33 -33.58,20.33 -33.58,20.76 -33.38,20.76 -33.38,20.24 -33.19,20.24 -33.19,21.18 -33,21.18 -33,21.03 -32.81,21.03 -32.81,20.96 -32.61,20.96 -32.61,20.89 -32.42,20.89 -32.42,20.94 -32.23,20.94 -32.23,20.75 -32.04,20.75 -32.04,21.53 -31.84,21.53 -31.84,20.86 -31.65,20.86 -31.65,21.2 -31.46,21.2 -31.46,21.31 -31.26,21.31 -31.26,20.9 -31.07,20.9 -31.07,21.22 -30.88,21.22 -30.88,21.71 -30.69,21.71 -30.69,21.19 -30.49,21.19 -30.49,21.06 -30.3,21.06 -30.3,21.63 -30.11,21.63 -30.11,21.17 -29.92,21.17 -29.92,21.26 -29.72,21.26 -29.72,21.86 -29.53,21.86 -29.53,21.48 -29.34,21.48 -29.34,21.46 -29.15,21.46 -29.15,21.55 -28.95,21.55 -28.95,21.27 -28.76,21.27 -28.76,21.59 -28.57,21.59 -28.57,21.13 -28.37,21.13 -28.37,21.77 -28.18,21.77 -28.18,21.71 -27.99,21.71 -27.99,21.83 -27.8,21.83 -27.8,21.59 -27.6,21.59 -27.6,22.01 -27.41,22.01 -27.41,21.52 -27.22,21.52 -27.22,21.61 -27.03,21.61 -27.03,21.8 -26.83,21.8 -26.83,21.41 -26.64,21.41 -26.64,21.08 -26.45,21.08 -26.45,21.69 -26.25,21.69 -26.25,21.75 -26.06,21.75 -26.06,21.37 -25.87,21.37 -25.87,21.94 -25.68,21.94 -25.68,22.21 -25.48,22.21 -25.48,21.98 -25.29,21.98 -25.29,21.81 -25.1,21.81 -25.1,21.88 -24.91,21.88 -24.91,21.54 -24.71,21.54 -24.71,21.97 -24.52,21.97 -24.52,21.95 -24.33,21.95 -24.33,22.44 -24.14,22.44 -24.14,22.4 -23.94,22.4 -23.94,22.33 -23.75,22.33 -23.75,22.41 -23.56,22.41 -23.56,22.35 -23.36,22.35 -23.36,22.11 -23.17,22.11 -23.17,22.56 -22.98,22.56 -22.98,22.62 -22.79,22.62 -22.79,22.63 -22.59,22.63 -22.59,23.07 -22.4,23.07 -22.4,22.41 -22.21,22.41 -22.21,22.3 -22.02,22.3 -22.02,22.45 -21.82,22.45 -21.82,22.79 -21.63,22.79 -21.63,22.56 -21.44,22.56 -21.44,22.26 -21.24,22.26 -21.24,22.57 -21.05,22.57 -21.05,22.29 -20.86,22.29 -20.86,22.42 -20.67,22.42 -20.67,22.49 -20.47,22.49 -20.47,22.54 -20.28,22.54 -20.28,22.29 -20.09,22.29 -20.09,22.8 -19.9,22.8 -19.9,22.53 -19.7,22.53 -19.7,22.41 -19.51,22.41 -19.51,22.39 -19.32,22.39 -19.32,22.52 -19.12,22.52 -19.12,22.5 -18.93,22.5 -18.93,23.13 -18.74,23.13 -18.74,23.1 -18.55,23.1 -18.55,22.89 -18.35,22.89 -18.35,23.13 -18.16,23.13 -18.16,22.97 -17.97,22.97 -17.97,23.47 -17.78,23.47 -17.78,22.96 -17.58,22.96 -17.58,23.02 -17.39,23.02 -17.39,22.79 -17.2,22.79 -17.2,23.05 -17.01,23.05 -17.01,23.1 -16.81,23.1 -16.81,23.08 -16.62,23.08 -16.62,23.17 -16.43,23.17 -16.43,23.42 -16.23,23.42 -16.23,23.31 -16.04,23.31 -16.04,22.93 -15.85,22.93 -15.85,23.1 -15.66,23.1 -15.66,22.87 -15.46,22.87 -15.46,23.13 -15.27,23.13 -15.27,23.27 -15.08,23.27 -15.08,23.22 -14.89,23.22 -14.89,23.29 -14.69,23.29 -14.69,23.04 -14.5,23.04 -14.5,23.44 -14.31,23.44 -14.31,23.25 -14.11,23.25 -14.11,23.35 -13.92,23.35 -13.92,23.23 -13.73,23.23 -13.73,23.65 -13.54,23.65 -13.54,23.5 -13.34,23.5 -13.34,23.09 -13.15,23.09 -13.15,23.48 -12.96,23.48 -12.96,23.74 -12.77,23.74 -12.77,23.66 -12.57,23.66 -12.57,23.33 -12.38,23.33 -12.38,23.38 -12.19,23.38 -12.19,23.22 -12,23.22 -12,23.1 -11.8,23.1 -11.8,22.71 -11.61,22.71 -11.61,22.93 -11.42,22.93 -11.42,22.87 -11.22,22.87 -11.22,23.2 -11.03,23.2 -11.03,23.16 -10.84,23.16 -10.84,23.18 -10.65,23.18 -10.65,23.1 -10.45,23.1 -10.45,23.17 -10.26,23.17 -10.26,23.19 -10.07,23.19 -10.07,23.11 -9.88,23.11 -9.88,23.82 -9.68,23.82 -9.68,23.82 -9.49,23.82 -9.49,23.63 -9.3,23.63 -9.3,23.72 -9.1,23.72 -9.1,24.01 -8.91,24.01 -8.91,23.86 -8.72,23.86 -8.72,24.13 -8.53,24.13 -8.53,23.98 -8.33,23.98 -8.33,23.79 -8.14,23.79 -8.14,23.99 -7.95,23.99 -7.95,24.24 -7.76,24.24 -7.76,24.07 -7.56,24.07 -7.56,24.15 -7.37,24.15 -7.37,24.1 -7.18,24.1 -7.18,24.08 -6.99,24.08 -6.99,24.71 -6.79,24.71 -6.79,24.36 -6.6,24.36 -6.6,24.59 -6.41,24.59 -6.41,24.59 -6.21,24.59 -6.21,24.34 -6.02,24.34 -6.02,24.53 -5.83,24.53 -5.83,24.24 -5.64,24.24 -5.64,24.32 -5.44,24.32 -5.44,24.66 -5.25,24.66 -5.25,24.18 -5.06,24.18 -5.06,24.68 -4.87,24.68 -4.87,24.16 -4.67,24.16 -4.67,24.73 -4.48,24.73 -4.48,24.66 -4.29,24.66 -4.29,24.63 -4.09,24.63 -4.09,24.4 -3.9,24.4 -3.9,24.54 -3.71,24.54 -3.71,24.13 -3.52,24.13 -3.52,24.32 -3.32,24.32 -3.32,24.24 -3.13,24.24 -3.13,23.88 -2.94,23.88 -2.94,24.14 -2.75,24.14 -2.75,24.19 -2.55,24.19 -2.55,23.59 -2.36,23.59 -2.36,23.83 -2.17,23.83 -2.17,24.03 -1.98,24.03 -1.98,23.72 -1.78,23.72 -1.78,24.11 -1.59,24.11 -1.59,24.12 -1.4,24.12 -1.4,24.16 -1.2,24.16 -1.2,24.38 -1.01,24.38 -1.01,24.6 -0.82,24.6 -0.82,24.58 -0.63,24.58 -0.63,24.43 -0.43,24.43 -0.43,24.56 -0.24,24.56 -0.24,25.2 -0.05,25.2 -0.05,24.67 0.14,24.67 0.14,25 0.34,25 0.34,25.02 0.53,25.02 0.53,24.97 0.72,24.97 0.72,24.79 0.92,24.79 0.92,24.96 1.11,24.96 1.11,25 1.3,25 1.3,25.4 1.49,25.4 1.49,25.12 1.69,25.12 1.69,25.26 1.88,25.26 1.88,25.31 2.07,25.31 2.07,25.16 2.26,25.16 2.26,25.25 2.46,25.25 2.46,24.89 2.65,24.89 2.65,25.68 2.84,25.68 2.84,25.29 3.03,25.29 3.03,25.29 3.23,25.29 3.23,24.82 3.42,24.82 3.42,24.75 3.61,24.75 3.61,24.86 3.81,24.86 3.81,25.16 4,25.16 4,25.13 4.19,25.13 4.19,24.2 4.38,24.2 4.38,24.03 4.58,24.03 4.58,23.13 4.77,23.13 4.77,21.98 4.96,21.98 4.96,20.34 5.15,20.34 5.15,18.65 5.35,18.65 5.35,15.02 5.54,15.02 5.54,10.23 5.73,10.23 5.73,5.34 5.93,5.34 5.93,-1.2 6.12,-1.2 6.12,-9.16 6.31,-9.16 6.31,-18.11 6.5,-18.11 6.5,-26.79 6.7,-26.79 6.7,-36.98 6.89,-36.98 6.89,-47.16 7.08,-47.16 7.08,-54.95 7.27,-54.95 7.27,-60.79 7.47,-60.79 7.47,-66.06 7.66,-66.06 7.66,-67.1 7.85,-67.1 7.85,-64.37 8.05,-64.37 8.05,-61.58 8.24,-61.58 8.24,-53.71 8.43,-53.71 8.43,-44.13 8.62,-44.13 8.62,-37.45 8.82,-37.45 8.82,-27.33 9.01,-27.33 9.01,-18.35 9.2,-18.35 9.2,-8.07 9.39,-8.07 9.39,-1.03 9.59,-1.03 9.59,5.5 9.78,5.5 9.78,11.05 9.97,11.05 9.97,15.59 10.16,15.59 10.16,18.89 10.36,18.89 10.36,21.12 10.55,21.12 10.55,22.9 10.74,22.9 10.74,24.17 10.94,24.17 10.94,24.69 11.13,24.69 11.13,25.1 11.32,25.1 11.32,25.39 11.51,25.39 11.51,25.91 11.71,25.91 11.71,25.65 11.9,25.65 11.9,26.14 12.09,26.14 12.09,26.34 12.28,26.34 12.28,26.15 12.48,26.15 12.48,25.98 12.67,25.98 12.67,26 12.86,26 12.86,25.79 13.06,25.79 13.06,26.22 13.25,26.22 13.25,26.31 13.44,26.31 13.44,26.37 13.63,26.37 13.63,26.04 13.83,26.04 13.83,26.39 14.02,26.39 14.02,26.03 14.21,26.03 14.21,26.2 14.4,26.2 14.4,25.94 14.6,25.94 14.6,26.49 14.79,26.49 14.79,26.39 14.98,26.39 14.98,26.45 15.17,26.45 15.17,26.6 15.37,26.6 15.37,26.39 15.56,26.39 15.56,26.38 15.75,26.38 15.75,26.47 15.95,26.47 15.95,26.32 16.14,26.32 16.14,26.49 16.33,26.49 16.33,26.16 16.52,26.16 16.52,26.39 16.72,26.39 16.72,25.91 16.91,25.91 16.91,25.99 17.1,25.99 17.1,25.84 17.29,25.84 17.29,25.74 17.49,25.74 17.49,25.62 17.68,25.62 17.68,24.97 17.87,24.97 17.87,24.69 18.07,24.69 18.07,24.67 18.26,24.67 18.26,23.53 18.45,23.53 18.45,23.17 18.64,23.17 18.64,21.89 18.84,21.89 18.84,21.44 19.03,21.44 19.03,19.86 19.22,19.86 19.22,19.22 19.41,19.22 19.41,17.79 19.61,17.79 19.61,17 19.8,17 19.8,15.97 19.99,15.97 19.99,15.3 20.18,15.3 20.18,15.3 20.38,15.3 20.38,14.8 20.57,14.8 20.57,15.54 20.76,15.54 20.76,16.28 20.96,16.28 20.96,17.03 21.15,17.03 21.15,17.93 21.34,17.93 21.34,19.11 21.53,19.11 21.53,20.63 21.73,20.63 21.73,21.53 21.92,21.53 21.92,22.8 22.11,22.8 22.11,23.72 22.3,23.72 22.3,24.43 22.5,24.43 22.5,25.06 22.69,25.06 22.69,25.58 22.88,25.58 22.88,26.1 23.08,26.1 23.08,26.62 23.27,26.62 23.27,26.76 23.46,26.76 23.46,26.59 23.65,26.59 23.65,27.09 23.85,27.09 23.85,27.28 24.04,27.28 24.04,27.19 24.23,27.19 24.23,27.27 24.42,27.27 24.42,26.96 24.62,26.96 24.62,27.46 24.81,27.46 24.81,27.15 25,27.15 25,27.35 25.19,27.35 25.19,27.24 25.39,27.24 25.39,27.26 25.58,27.26 25.58,27.41 25.77,27.41 25.77,26.97 25.97,26.97 25.97,27.29 26.16,27.29 26.16,27.56 26.35,27.56 26.35,27.31 26.54,27.31 26.54,27.14 26.74,27.14 26.74,26.97 26.93,26.97 26.93,27.27 27.12,27.27 27.12,27.46 27.31,27.46 27.31,27.14 27.51,27.14 27.51,27.33 27.7,27.33 27.7,27.09 27.89,27.09 27.89,27.54 28.09,27.54 28.09,27.44 28.28,27.44 28.28,27.4 28.47,27.4 28.47,27.13 28.66,27.13 28.66,27.39 28.86,27.39 28.86,27.29 29.05,27.29 29.05,27.29 29.24,27.29 29.24,27.34 29.43,27.34 29.43,27.53 29.63,27.53 29.63,27.53 29.82,27.53 29.82,27.43 30.01,27.43 30.01,27.4 30.2,27.4 30.2,27.68 30.4,27.68 30.4,27.49 30.59,27.49 30.59,27.64 30.78,27.64 30.78,27.56 30.98,27.56 30.98,27.84 31.17,27.84 31.17,27.53 31.36,27.53 31.36,27.4 31.55,27.4 31.55,27.73 31.75,27.73 31.75,27.65 31.94,27.65 31.94,27.81 32.13,27.81 32.13,27.52 32.32,27.52 32.32,27.8 32.52,27.8 32.52,27.59 32.71,27.59 32.71,27.5 32.9,27.5 32.9,27.58 33.1,27.58 33.1,27.92 33.29,27.92 33.29,27.68 33.48,27.68 33.48,27.75 33.67,27.75 33.67,27.84 33.87,27.84 33.87,27.96 34.06,27.96 34.06,27.91 34.25,27.91 34.25,27.92 34.44,27.92 34.44,27.58 34.64,27.58 34.64,27.73 34.83,27.73 34.83,27.81 35.02,27.81 35.02,28.03 35.22,28.03 35.22,27.91 35.41,27.91 35.41,27.87 35.6,27.87 35.6,27.81 35.79,27.81 35.79,28.07 35.99,28.07 35.99,27.78 36.18,27.78 36.18,28.14 36.37,28.14 36.37,27.93 36.56,27.93 36.56,27.92 36.76,27.92 36.76,27.92 36.95,27.92 36.95,28.02 37.14,28.02 37.14,27.95 37.33,27.95 37.33,28.19 37.53,28.19 37.53,27.97 37.72,27.97 37.72,28 37.91,28 37.91,28.36 38.11,28.36 38.11,28.04 38.3,28.04 38.3,28.03 38.49,28.03 38.49,27.96 38.68,27.96 38.68,28.01 38.88,28.01 38.88,28.08 39.07,28.08 39.07,28.08 39.26,28.08 39.26,27.82 39.45,27.82 39.45,28.19 39.65,28.19 39.65,27.83 39.84,27.83 39.84,27.98 40.03,27.98 40.03,28.18 40.23,28.18 40.23,28.06 40.42,28.06 40.42,27.98 40.61,27.98 40.61,28.01 40.8,28.01 40.8,28.35 41,28.35 41,28.09 41.19,28.09 41.19,28.11 41.38,28.11 41.38,28.22 41.57,28.22 41.57,28.2 41.77,28.2 41.77,28.33 41.96,28.33 41.96,28.3 42.15,28.3 42.15,28.63 42.34,28.63 42.34,27.62 42.54,27.62 42.54,28.34 42.73,28.34 42.73,28.07 42.92,28.07 42.92,28.09 43.12,28.09 43.12,28.3 43.31,28.3 43.31,28.15 43.5,28.15 43.5,28.4 43.69,28.4 43.69,28.46 43.89,28.46 43.89,28.51 44.08,28.51 44.08,28.35 44.27,28.35 44.27,28.46 44.46,28.46 44.46,28.38 44.66,28.38 44.66,28.29 44.85,28.29 44.85,28.67 45.04,28.67 45.04,28.49 45.24,28.49 45.24,28.33 45.43,28.33 45.43,28.48 45.62,28.48 45.62,28.47 45.81,28.47 45.81,28.61 46.01,28.61 46.01,28.49 46.2,28.49 46.2,28.62 46.39,28.62 46.39,28.28 46.58,28.28 46.58,28.66 46.78,28.66 46.78,28.4 46.97,28.4 46.97,28.84 47.16,28.84 47.16,28.9 47.35,28.9 47.35,28.54 47.55,28.54 47.55,28.58 47.74,28.58 47.74,28.87 47.93,28.87 47.93,28.66 48.13,28.66 48.13,28.66 48.32,28.66 48.32,28.58 48.51,28.58 48.51,28.99 48.7,28.99 48.7,28.77 48.9,28.77 48.9,28.78 49.09,28.78 49.09,28.51 49.28,28.51 49.28,28.89 49.47,28.89 49.47,29.09 49.67,29.09 49.67,28.63 49.86,28.63 49.86,28.72 50.05,28.72 50.05,28.67 50.25,28.67 50.25,28.6 50.44,28.6 50.44,28.94 50.63,28.94 50.63,28.68 50.82,28.68 50.82,28.81 51.02,28.81 51.02,28.58 51.21,28.58 51.21,28.77 51.4,28.77 51.4,28.9 51.59,28.9 51.59,28.7 51.79,28.7 51.79,28.76 51.98,28.76 51.98,28.96 52.17,28.96 52.17,28.66 52.36,28.66 52.36,28.66 52.56,28.66 52.56,28.91 52.75,28.91 52.75,28.99 52.94,28.99 52.94,28.79 53.14,28.79 53.14,29.08 53.33,29.08 53.33,28.75 53.52,28.75 53.52,28.95 53.71,28.95 53.71,29 53.91,29 53.91,29.04 54.1,29.04 54.1,28.67 54.29,28.67 54.29,28.76 54.48,28.76 54.48,29.11 54.68,29.11 54.68,28.82 54.87,28.82 54.87,28.88 55.06,28.88 55.06,29.03 55.26,29.03 55.26,29.01 55.45,29.01 55.45,28.95 55.64,28.95 55.64,28.99 55.83,28.99 55.83,28.87 56.03,28.87 56.03,29.13 56.22,29.13 56.22,28.9 56.41,28.9 56.41,29 56.6,29 56.6,29.04 56.8,29.04 56.8,28.98 56.99,28.98 56.99,28.85 57.18,28.85 57.18,29 57.37,29 57.37,29.32 57.57,29.32 57.57,28.97 57.76,28.97 57.76,28.87 57.95,28.87 57.95,28.98 58.15,28.98 58.15,29.02 58.34,29.02 58.34,29.03 58.53,29.03 58.53,29.06 58.72,29.06 58.72,29.13 58.92,29.13 58.92,29.11 59.11,29.11 59.11,29.05 59.3,29.05 59.3,29.14 59.49,29.14 59.49,29.02 59.69,29.02 59.69,29.22 59.88,29.22 59.88,29.4 60.07,29.4 60.07,29.43 60.27,29.43 60.27,29.18 60.46,29.18 60.46,29.16 60.65,29.16 60.65,29.08 60.84,29.08 60.84,29.06 61.04,29.06 61.04,29.21 61.23,29.21 61.23,28.97 61.42,28.97 61.42,29.46 61.61,29.46 61.61,29.49 61.81,29.49 61.81,29.26 62,29.26 62,29.34 62.19,29.34 62.19,29.21 62.39,29.21 62.39,29.26 62.58,29.26 62.58,29.51 62.77,29.51 62.77,29.53 62.96,29.53 62.96,29.13 63.16,29.13 63.16,29.16 63.35,29.16 63.35,29.49 63.54,29.49 63.54,29.24 63.73,29.24 63.73,29.43 63.93,29.43 63.93,29.3 64.12,29.3 64.12,29.16 64.31,29.16 64.31,29.33 64.5,29.33 64.5,29.39 64.7,29.39 64.7,29.39 64.89,29.39 64.89,29.43 65.08,29.43 65.08,29.22 65.28,29.22 65.28,29.53 65.47,29.53 65.47,29.42 65.66,29.42 65.66,29.46 65.85,29.46 65.85,29.68 66.05,29.68 66.05,29.64 66.24,29.64 66.24,29.5 66.43,29.5 66.43,29.51 66.62,29.51 66.62,29.57 66.82,29.57 66.82,29.62 67.01,29.62 67.01,29.29 67.2,29.29 67.2,29.5 67.4,29.5 67.4,29.47 67.59,29.47 67.59,29.64 67.78,29.64 67.78,29.33 67.97,29.33 67.97,29.43 68.17,29.43 68.17,29.54 68.36,29.54 68.36,29.64 68.55,29.64 68.55,29.24 68.74,29.24 68.74,29.33 68.94,29.33 68.94,29.8 69.13,29.8 69.13,29.67 69.32,29.67 69.32,29.76 69.51,29.76 69.51,29.37 69.71,29.37 69.71,29.7 69.9,29.7 69.9,29.57 70.09,29.57 70.09,29.69 70.29,29.69 70.29,29.77 70.48,29.77 70.48,29.5 70.67,29.5 70.67,29.93 70.86,29.93 70.86,29.69 71.06,29.69 71.06,29.63 71.25,29.63 71.25,29.52 71.44,29.52 71.44,29.61 71.63,29.61 71.63,29.74 71.83,29.74 71.83,29.87 72.02,29.87 72.02,29.69 72.21,29.69 72.21,29.54 72.41,29.54 72.41,29.84 72.6,29.84 72.6,29.63 72.79,29.63 72.79,29.69 72.98,29.69 72.98,29.65 73.18,29.65 73.18,29.79 73.37,29.79 73.37,29.82 73.56,29.82 73.56,29.77 73.75,29.77 73.75,29.79 73.95,29.79 73.95,29.81 74.14,29.81 74.14,29.65 74.33,29.65 74.33,29.89 74.52,29.89 74.52,29.75 74.72,29.75 74.72,29.73 74.91,29.73 74.91,29.72 75.1,29.72 75.1,29.82 75.3,29.82 75.3,29.68 75.49,29.68 75.49,29.85 75.68,29.85 75.68,29.63 75.87,29.63 75.87,29.8 76.07,29.8 76.07,29.92 76.26,29.92 76.26,29.99 76.45,29.99 76.45,30.08 76.64,30.08 76.64,29.67 76.84,29.67 76.84,29.88 77.03,29.88 77.03,30.07 77.22,30.07 77.22,29.9 77.42,29.9 77.42,29.88 77.61,29.88 77.61,29.97 77.8,29.97 77.8,29.93 77.99,29.93 77.99,29.82 78.19,29.82 78.19,30.09 78.38,30.09 78.38,29.91 78.57,29.91 78.57,29.99 78.76,29.99 78.76,29.8 78.96,29.8 78.96,29.73 79.15,29.73 79.15,29.89 79.34,29.89 79.34,29.99 79.53,29.99 79.53,29.91 79.73,29.91 79.73,29.85 79.92,29.85 79.92,29.96 80.11,29.96 80.11,29.9 80.31,29.9 80.31,29.94 80.5,29.94 80.5,30.27 80.69,30.27 80.69,29.97 80.88,29.97 80.88,30.02 81.08,30.02 81.08,30.26 81.27,30.26 81.27,30.02 81.46,30.02 81.46,30.01 81.65,30.01 81.65,29.92 81.85,29.92 81.85,30.12 82.04,30.12 82.04,29.94 82.23,29.94 82.23,30.21 82.43,30.21 82.43,29.95 82.62,29.95 82.62,30.16 82.81,30.16 82.81,30.01 83,30.01 83,30.02 83.2,30.02 83.2,29.9 83.39,29.9 83.39,30.05 83.58,30.05 83.58,30.08 83.77,30.08 83.77,30.23 83.97,30.23 83.97,30.23 84.16,30.23 84.16,30.03 84.35,30.03 84.35,30.11 84.54,30.11 84.54,30.05 84.74,30.05 84.74,30.17 84.93,30.17 84.93,30.17 85.12,30.17 85.12,30.28 85.32,30.28 85.32,30.16 85.51,30.16 85.51,29.91 85.7,29.91 85.7,29.97 85.89,29.97 85.89,30.24 86.09,30.24 86.09,30.07 86.28,30.07 86.28,30.27 86.47,30.27 86.47,30.17 86.66,30.17 86.66,30.22 86.86,30.22 86.86,30.43 87.05,30.43 87.05,30.14 87.24,30.14 87.24,30.05 87.44,30.05 87.44,30.14 87.63,30.14 87.63,30.21 87.82,30.21 87.82,30.03 88.01,30.03 88.01,30.33 88.21,30.33 88.21,30.05 88.4,30.05 88.4,30.14 88.59,30.14 88.59,30.35 88.78,30.35 88.78,30.21 88.98,30.21 88.98,30.22 89.17,30.22 89.17,30.36 89.36,30.36 89.36,30.14 89.55,30.14 89.55,30.25 89.75,30.25 89.75,30.35 89.94,30.35 89.94,30.41 90.13,30.41 90.13,30.33 90.33,30.33 90.33,30.35 90.52,30.35 90.52,30.44 90.71,30.44 90.71,30.37 90.9,30.37 90.9,30.45 91.1,30.45 91.1,30.34 91.29,30.34 91.29,30.49 91.48,30.49 91.48,30.37 91.67,30.37 91.67,30.5 91.87,30.5 91.87,30.36 92.06,30.36 92.06,30.29 92.25,30.29 92.25,30.42 92.45,30.42 92.45,30.43 92.64,30.43 92.64,30.6 92.83,30.6 92.83,30.34 93.02,30.34 93.02,30.59 93.22,30.59 93.22,30.23 93.41,30.23 93.41,30.59 93.6,30.59 93.6,30.62 93.79,30.62 93.79,30.34 93.99,30.34 93.99,30.52 94.18,30.52 94.18,30.52 94.37,30.52 94.37,30.43 94.57,30.43 94.57,30.52 94.76,30.52 94.76,30.48 94.95,30.48 94.95,30.54 95.14,30.54 95.14,30.63 95.34,30.63 95.34,30.57 95.53,30.57 95.53,30.35 95.72,30.35 95.72,30.74 95.91,30.74 95.91,30.5 96.11,30.5 96.11,30.57 96.3,30.57 96.3,30.59 96.49,30.59 96.49,30.49 96.68,30.49 96.68,30.52 96.88,30.52 96.88,30.65 97.07,30.65 97.07,30.46 97.26,30.46 97.26,30.5 97.46,30.5 97.46,30.53 97.65,30.53 97.65,30.47 97.84,30.47 97.84,30.64 98.03,30.64 98.03,30.65 98.23,30.65 98.23,30.76 98.42,30.76 98.42,30.59 98.61,30.59 98.61,30.58 98.8,30.58 98.8,30.71 99,30.71 99,30.69 99.19,30.69 99.19,30.72 99.38,30.72 99.38,30.65 99.58,30.65 99.58,30.6 99.77,30.6 99.77,30.58 99.96,30.58 99.96,30.47 100.15,30.47 100.15,30.72 100.35,30.72 100.35,30.64 100.54,30.64 100.54,30.8 100.73,30.8 100.73,30.67 100.92,30.67 100.92,30.69 101.12,30.69 101.12,30.75 101.31,30.75 101.31,30.61 101.5,30.61 101.5,30.82 101.69,30.82 101.69,30.54 101.89,30.54 101.89,30.59 102.08,30.59 102.08,30.7 102.27,30.7 102.27,30.83 102.47,30.83 102.47,30.82 102.66,30.82 102.66,30.69 102.85,30.69 102.85,30.88 103.04,30.88 103.04,30.71 103.24,30.71 103.24,30.74 103.43,30.74 103.43,30.75 103.62,30.75 103.62,30.72 103.81,30.72 103.81,30.88 104.01,30.88 104.01,30.78 104.2,30.78 104.2,30.7 104.39,30.7 104.39,30.73 104.59,30.73 104.59,30.79 104.78,30.79 104.78,30.78 104.97,30.78 104.97,30.84 105.16,30.84 105.16,30.79 105.36,30.79 105.36,30.78 105.55,30.78 105.55,30.65 105.74,30.65 105.74,30.65 105.93,30.65 105.93,30.89 106.13,30.89 106.13,30.74 106.32,30.74 106.32,30.78 106.51,30.78 106.51,30.88 106.7,30.88 106.7,30.72 106.9,30.72 106.9,30.92 107.09,30.92 107.09,30.86 107.28,30.86 107.28,30.95 107.48,30.95 107.48,30.9 107.67,30.9 107.67,30.95 107.86,30.95 107.86,30.75 108.05,30.75 108.05,30.92 108.25,30.92 108.25,30.93 108.44,30.93 108.44,30.95 108.63,30.95 108.63,30.91 108.82,30.91 108.82,30.91 109.02,30.91 109.02,30.84 109.21,30.84 109.21,30.77 109.4,30.77 109.4,30.84 109.6,30.84 109.6,31.06 109.79,31.06 109.79,30.98 109.98,30.98 109.98,30.95 110.17,30.95 110.17,30.95 110.37,30.95 110.37,30.96 110.56,30.96 110.56,30.98 110.75,30.98 110.75,30.99 110.94,30.99 110.94,31.08 111.14,31.08 111.14,30.79 111.33,30.79 111.33,30.96 111.52,30.96 111.52,30.8 111.71,30.8 111.71,30.83 111.91,30.83 111.91,31.04 112.1,31.04 112.1,31.03 112.29,31.03 112.29,30.93 112.49,30.93 112.49,30.96 112.68,30.96 112.68,31.12 112.87,31.12 112.87,31.09 113.06,31.09 113.06,31.03 113.26,31.03 113.26,31.07 113.45,31.07 113.45,31.1 113.64,31.1 113.64,31.11 113.83,31.11 113.83,31.09 114.03,31.09 114.03,31.07 114.22,31.07 114.22,31.08 114.41,31.08 114.41,31 114.61,31 114.61,30.93 114.8,30.93 114.8,31.08 114.99,31.08 114.99,31.15 115.18,31.15 115.18,31.03 115.38,31.03 115.38,30.93 115.57,30.93 115.57,31.19 " class="primitive"/>
            </g>
          </g>
        </g>
      </g>
      <g class="guide colorkey" id="img-40e80d9b-27">
        <g fill="#4C404B" font-size="2.82" font-family="'PT Sans','Helvetica Neue','Helvetica',sans-serif" id="img-40e80d9b-28">
          <g transform="translate(210.87,31.7)" id="img-40e80d9b-29">
            <g class="primitive">
              <text dy="0.35em">III-E K412[0][all]</text>
            </g>
          </g>
          <g transform="translate(210.87,35.33)" id="img-40e80d9b-30">
            <g class="primitive">
              <text dy="0.35em">Brem[Global][III-E K412[0][all]]</text>
            </g>
          </g>
        </g>
        <g stroke-width="0.3" id="img-40e80d9b-31">
          <g stroke="#FFFFFF" fill-opacity="1" fill="#B70002" id="img-40e80d9b-32">
            <g transform="translate(208.05,35.33)" id="img-40e80d9b-33">
              <circle cx="0" cy="0" r="0.9" class="primitive"/>
            </g>
          </g>
          <g stroke="#FFFFFF" fill-opacity="1" fill="#104E8B" id="img-40e80d9b-34">
            <g transform="translate(208.05,31.7)" id="img-40e80d9b-35">
              <circle cx="0" cy="0" r="0.9" class="primitive"/>
            </g>
          </g>
        </g>
        <g fill="#362A35" font-size="3.18" font-family="'PT Sans','Helvetica Neue','Helvetica',sans-serif" stroke="#000000" stroke-opacity="0.000" id="img-40e80d9b-36">
          <g transform="translate(207.24,28.39)" id="img-40e80d9b-37">
            <g class="primitive">
              <text dy="-0em">Spectra</text>
            </g>
          </g>
        </g>
      </g>
    </g>
  </g>
  <g class="guide ylabels" font-size="2.82" font-family="'PT Sans Caption','Helvetica Neue','Helvetica',sans-serif" fill="#6C606B" id="img-40e80d9b-38">
    <g transform="translate(17.03,59.87)" id="img-40e80d9b-39">
      <g class="primitive">
        <text text-anchor="end" dy="0.35em">0</text>
      </g>
    </g>
    <g transform="translate(17.03,35.3)" id="img-40e80d9b-40">
      <g class="primitive">
        <text text-anchor="end" dy="0.35em">5000</text>
      </g>
    </g>
    <g transform="translate(17.03,10.73)" id="img-40e80d9b-41">
      <g class="primitive">
        <text text-anchor="end" dy="0.35em">10000</text>
      </g>
    </g>
  </g>
  <g font-size="3.18" font-family="'PT Sans','Helvetica Neue','Helvetica',sans-serif" fill="#202020" stroke="#000000" stroke-opacity="0.000" id="img-40e80d9b-42">
    <g transform="translate(4.18,29.29)" id="img-40e80d9b-43">
      <g class="primitive">
        <text text-anchor="middle" dy="0.35em" transform="rotate(-90,0, 2)">Counts</text>
      </g>
    </g>
  </g>
</g>
<defs>
  <clipPath id="img-40e80d9b-4">
    <path d="M18.03,0.71 L253.29,0.71 253.29,61.87 18.03,61.87 " />
  </clipPath>
</defs>
</svg>
