<?xml version="1.0" encoding="UTF-8"?>
<svg xmlns="http://www.w3.org/2000/svg"
     xmlns:xlink="http://www.w3.org/1999/xlink"
     xmlns:gadfly="http://www.gadflyjl.org/ns"
     version="1.2"
     width="254mm" height="76.2mm" viewBox="0 0 254 76.2"
     stroke="none"
     fill="#000000"
     stroke-width="0.3"
     font-size="3.88"
>
<defs>
  <marker id="arrow" markerWidth="15" markerHeight="7" refX="5" refY="3.5" orient="auto" markerUnits="strokeWidth">
    <path d="M0,0 L15,3.5 L0,7 z" stroke="context-stroke" fill="context-stroke"/>
  </marker>
</defs>
<g class="plotroot xscalable yscalable" id="img-94582c7f-1">
  <g font-size="3.18" font-family="'PT Sans','Helvetica Neue','Helvetica',sans-serif" fill="#202020" stroke="#000000" stroke-opacity="0.000" id="img-94582c7f-2">
    <g transform="translate(118.59,69.54)">
      <g class="primitive">
        <text text-anchor="middle" dy="0.6em">Energy (eV)</text>
      </g>
    </g>
  </g>
  <g class="guide xlabels" font-size="2.82" font-family="'PT Sans Caption','Helvetica Neue','Helvetica',sans-serif" fill="#6C606B" id="img-94582c7f-3">
    <g transform="translate(20.03,62.87)">
      <g class="primitive">
        <text text-anchor="middle" dy="0.6em">0</text>
      </g>
    </g>
    <g transform="translate(69.31,62.87)">
      <g class="primitive">
        <text text-anchor="middle" dy="0.6em">2000</text>
      </g>
    </g>
    <g transform="translate(118.59,62.87)">
      <g class="primitive">
        <text text-anchor="middle" dy="0.6em">4000</text>
      </g>
    </g>
    <g transform="translate(167.88,62.87)">
      <g class="primitive">
        <text text-anchor="middle" dy="0.6em">6000</text>
      </g>
    </g>
    <g transform="translate(217.16,62.87)">
      <g class="primitive">
        <text text-anchor="middle" dy="0.6em">8000</text>
      </g>
    </g>
  </g>
  <g class="guide colorkey" id="img-94582c7f-4">
    <g fill="#4C404B" font-size="2.82" font-family="'PT Sans','Helvetica Neue','Helvetica',sans-serif" id="img-94582c7f-5">
      <g transform="translate(223.79,31.7)" id="img-94582c7f-6">
        <g class="primitive">
          <text dy="0.35em">Al2O3 std</text>
        </g>
      </g>
      <g transform="translate(223.79,35.33)" id="img-94582c7f-7">
        <g class="primitive">
          <text dy="0.35em">Brem[Global][Al2O3 std]</text>
        </g>
      </g>
    </g>
    <g stroke-width="0.3" id="img-94582c7f-8">
      <g stroke="#FFFFFF" fill-opacity="1" fill="#B70002" id="img-94582c7f-9">
        <g transform="translate(220.97,35.33)" id="img-94582c7f-10">
          <circle cx="0" cy="0" r="0.9" class="primitive"/>
        </g>
      </g>
      <g stroke="#FFFFFF" fill-opacity="1" fill="#104E8B" id="img-94582c7f-11">
        <g transform="translate(220.97,31.7)" id="img-94582c7f-12">
          <circle cx="0" cy="0" r="0.9" class="primitive"/>
        </g>
      </g>
    </g>
    <g fill="#362A35" font-size="3.18" font-family="'PT Sans','Helvetica Neue','Helvetica',sans-serif" stroke="#000000" stroke-opacity="0.000" id="img-94582c7f-13">
      <g transform="translate(220.16,28.39)" id="img-94582c7f-14">
        <g class="primitive">
          <text dy="-0em">Spectra</text>
        </g>
      </g>
    </g>
  </g>
  <g clip-path="url(#img-94582c7f-15)">
    <g id="img-94582c7f-16">
      <g pointer-events="visible" stroke-width="0.3" fill="#FDFDF1" stroke="#202020" class="guide background" id="img-94582c7f-17">
        <g transform="translate(118.59,31.29)" id="img-94582c7f-18">
          <path d="M-100.57,-30.58 L100.57,-30.58 100.57,30.58 -100.57,30.58  z" class="primitive"/>
        </g>
      </g>
      <g class="guide ygridlines xfixed" stroke-dasharray="none" stroke-width="0.2" stroke="#FFDFDF" id="img-94582c7f-19">
        <g transform="translate(118.59,59.87)" id="img-94582c7f-20">
          <path fill="none" d="M-100.57,0 L100.57,0 " class="primitive"/>
        </g>
        <g transform="translate(118.59,44.7)" id="img-94582c7f-21">
          <path fill="none" d="M-100.57,0 L100.57,0 " class="primitive"/>
        </g>
        <g transform="translate(118.59,29.54)" id="img-94582c7f-22">
          <path fill="none" d="M-100.57,0 L100.57,0 " class="primitive"/>
        </g>
        <g transform="translate(118.59,14.38)" id="img-94582c7f-23">
          <path fill="none" d="M-100.57,0 L100.57,0 " class="primitive"/>
        </g>
      </g>
      <g class="guide xgridlines yfixed" stroke-dasharray="none" stroke-width="0.2" stroke="#FFDFDF" id="img-94582c7f-24">
        <g transform="translate(20.03,31.29)" id="img-94582c7f-25">
          <path fill="none" d="M0,-30.58 L0,30.58 " class="primitive"/>
        </g>
        <g transform="translate(69.31,31.29)" id="img-94582c7f-26">
          <path fill="none" d="M0,-30.58 L0,30.58 " class="primitive"/>
        </g>
        <g transform="translate(118.59,31.29)" id="img-94582c7f-27">
          <path fill="none" d="M0,-30.58 L0,30.58 " class="primitive"/>
        </g>
        <g transform="translate(167.88,31.29)" id="img-94582c7f-28">
          <path fill="none" d="M0,-30.58 L0,30.58 " class="primitive"/>
        </g>
        <g transform="translate(217.16,31.29)" id="img-94582c7f-29">
          <path fill="none" d="M0,-30.58 L0,30.58 " class="primitive"/>
        </g>
      </g>
      <g class="plotpanel" id="img-94582c7f-30">
        <metadata>
          <boundingbox value="18.027222222222242mm 0.7055555555555555mm 201.1338888888889mm 61.16055555555556mm"/>
          <unitbox value="-81.16311249263755 39016.679923315416 8162.326224985275 -40335.689846630834"/>
        </metadata>
        <g stroke-width="0.3" fill="#000000" fill-opacity="0.000" class="geometry" id="img-94582c7f-31">
          <g class="color_RGB{N0f8}(0.718,0.0,0.008)" stroke-dasharray="none" stroke="#B70002" id="img-94582c7f-32">
            <g transform="translate(118.56,43.72)" id="img-94582c7f-33">
              <path fill="none" d="M-98.49,16.15 L-98.24,16.15 -98.24,16.15 -98,16.15 -98,16.15 -97.75,16.15 -97.75,16.15 -97.51,16.15 -97.51,16.15 -97.26,16.15 -97.26,16.15 -97.01,16.15 -97.01,16.15 -96.77,16.15 -96.77,16.15 -96.52,16.15 -96.52,16.15 -96.27,16.15 -96.27,16.15 -96.03,16.15 -96.03,16.15 -95.78,16.15 -95.78,16.15 -95.53,16.15 -95.53,16.15 -95.29,16.15 -95.29,16.15 -95.04,16.15 -95.04,16.15 -94.8,16.15 -94.8,16.15 -94.55,16.15 -94.55,16.15 -94.3,16.15 -94.3,16.15 -94.06,16.15 -94.06,16.15 -93.81,16.15 -93.81,16.15 -93.56,16.15 -93.56,16.15 -93.32,16.15 -93.32,16.15 -93.07,16.15 -93.07,16.14 -92.82,16.14 -92.82,16.1 -92.58,16.1 -92.58,15.99 -92.33,15.99 -92.33,15.65 -92.09,15.65 -92.09,14.84 -91.84,14.84 -91.84,13.33 -91.59,13.33 -91.59,11.65 -91.35,11.65 -91.35,10.93 -91.1,10.93 -91.1,11.42 -90.85,11.42 -90.85,10.76 -90.61,10.76 -90.61,8.06 -90.36,8.06 -90.36,5.43 -90.11,5.43 -90.11,2.86 -89.87,2.86 -89.87,1.26 -89.62,1.26 -89.62,0.36 -89.37,0.36 -89.37,-0.4 -89.13,-0.4 -89.13,-0.99 -88.88,-0.99 -88.88,-0.91 -88.64,-0.91 -88.64,0.47 -88.39,0.47 -88.39,0.28 -88.14,0.28 -88.14,-1.81 -87.9,-1.81 -87.9,-3.28 -87.65,-3.28 -87.65,-4.53 -87.4,-4.53 -87.4,-5.94 -87.16,-5.94 -87.16,-7.44 -86.91,-7.44 -86.91,-8.84 -86.66,-8.84 -86.66,-10.12 -86.42,-10.12 -86.42,-11.17 -86.17,-11.17 -86.17,-11.78 -85.93,-11.78 -85.93,-11.74 -85.68,-11.74 -85.68,-8.52 -85.43,-8.52 -85.43,-3.79 -85.19,-3.79 -85.19,-2.3 -84.94,-2.3 -84.94,-2.16 -84.69,-2.16 -84.69,-1.41 -84.45,-1.41 -84.45,-0.81 -84.2,-0.81 -84.2,-0.58 -83.95,-0.58 -83.95,-0.72 -83.71,-0.72 -83.71,-1.05 -83.46,-1.05 -83.46,-1.4 -83.22,-1.4 -83.22,-1.66 -82.97,-1.66 -82.97,-1.78 -82.72,-1.78 -82.72,-1.71 -82.48,-1.71 -82.48,-1.4 -82.23,-1.4 -82.23,-0.91 -81.98,-0.91 -81.98,-0.36 -81.74,-0.36 -81.74,0.13 -81.49,0.13 -81.49,0.5 -81.24,0.5 -81.24,0.66 -81,0.66 -81,0.56 -80.75,0.56 -80.75,0.29 -80.51,0.29 -80.51,-0.1 -80.26,-0.1 -80.26,-0.55 -80.01,-0.55 -80.01,-1.02 -79.77,-1.02 -79.77,-1.52 -79.52,-1.52 -79.52,-2.02 -79.27,-2.02 -79.27,-2.48 -79.03,-2.48 -79.03,-2.93 -78.78,-2.93 -78.78,-3.41 -78.53,-3.41 -78.53,-3.91 -78.29,-3.91 -78.29,-4.41 -78.04,-4.41 -78.04,-4.91 -77.8,-4.91 -77.8,-5.38 -77.55,-5.38 -77.55,-5.87 -77.3,-5.87 -77.3,-6.36 -77.06,-6.36 -77.06,-6.85 -76.81,-6.85 -76.81,-7.31 -76.56,-7.31 -76.56,-7.79 -76.32,-7.79 -76.32,-8.27 -76.07,-8.27 -76.07,-8.78 -75.82,-8.78 -75.82,-9.26 -75.58,-9.26 -75.58,-9.7 -75.33,-9.7 -75.33,-10.17 -75.08,-10.17 -75.08,-10.63 -74.84,-10.63 -74.84,-11.1 -74.59,-11.1 -74.59,-11.56 -74.35,-11.56 -74.35,-12.01 -74.1,-12.01 -74.1,-12.47 -73.85,-12.47 -73.85,-12.93 -73.61,-12.93 -73.61,-13.38 -73.36,-13.38 -73.36,-13.83 -73.11,-13.83 -73.11,-14.26 -72.87,-14.26 -72.87,-14.71 -72.62,-14.71 -72.62,-15.14 -72.37,-15.14 -72.37,-15.55 -72.13,-15.55 -72.13,-15.96 -71.88,-15.96 -71.88,-16.36 -71.64,-16.36 -71.64,-16.75 -71.39,-16.75 -71.39,-17.12 -71.14,-17.12 -71.14,-17.47 -70.9,-17.47 -70.9,-17.82 -70.65,-17.82 -70.65,-18.18 -70.4,-18.18 -70.4,-18.53 -70.16,-18.53 -70.16,-18.87 -69.91,-18.87 -69.91,-19.18 -69.66,-19.18 -69.66,-19.49 -69.42,-19.49 -69.42,-19.8 -69.17,-19.8 -69.17,-20.09 -68.93,-20.09 -68.93,-20.37 -68.68,-20.37 -68.68,-20.63 -68.43,-20.63 -68.43,-20.87 -68.19,-20.87 -68.19,-21.13 -67.94,-21.13 -67.94,-21.37 -67.69,-21.37 -67.69,-21.58 -67.45,-21.58 -67.45,-21.79 -67.2,-21.79 -67.2,-22.02 -66.95,-22.02 -66.95,-22.23 -66.71,-22.23 -66.71,-22.41 -66.46,-22.41 -66.46,-22.59 -66.22,-22.59 -66.22,-22.75 -65.97,-22.75 -65.97,-22.91 -65.72,-22.91 -65.72,-23.07 -65.48,-23.07 -65.48,-23.22 -65.23,-23.22 -65.23,-23.36 -64.98,-23.36 -64.98,-23.49 -64.74,-23.49 -64.74,-23.62 -64.49,-23.62 -64.49,-23.74 -64.24,-23.74 -64.24,-23.85 -64,-23.85 -64,-23.93 -63.75,-23.93 -63.75,-24.01 -63.5,-24.01 -63.5,-24.11 -63.26,-24.11 -63.26,-24.19 -63.01,-24.19 -63.01,-24.25 -62.77,-24.25 -62.77,-24.3 -62.52,-24.3 -62.52,-24.35 -62.27,-24.35 -62.27,-24.34 -62.03,-24.34 -62.03,-24.28 -61.78,-24.28 -61.78,-24.13 -61.53,-24.13 -61.53,-23.81 -61.29,-23.81 -61.29,-23.21 -61.04,-23.21 -61.04,-22.28 -60.79,-22.28 -60.79,-20.96 -60.55,-20.96 -60.55,-19.14 -60.3,-19.14 -60.3,-16.41 -60.06,-16.41 -60.06,-13.5 -59.81,-13.5 -59.81,-11.29 -59.56,-11.29 -59.56,-9.34 -59.32,-9.34 -59.32,-7.52 -59.07,-7.52 -59.07,-6.12 -58.82,-6.12 -58.82,-5.12 -58.58,-5.12 -58.58,-4.4 -58.33,-4.4 -58.33,-3.93 -58.08,-3.93 -58.08,-3.71 -57.84,-3.71 -57.84,-3.65 -57.59,-3.65 -57.59,-3.67 -57.35,-3.67 -57.35,-3.69 -57.1,-3.69 -57.1,-3.75 -56.85,-3.75 -56.85,-3.83 -56.61,-3.83 -56.61,-3.93 -56.36,-3.93 -56.36,-4.04 -56.11,-4.04 -56.11,-4.15 -55.87,-4.15 -55.87,-4.25 -55.62,-4.25 -55.62,-4.35 -55.37,-4.35 -55.37,-4.45 -55.13,-4.45 -55.13,-4.56 -54.88,-4.56 -54.88,-4.67 -54.64,-4.67 -54.64,-4.78 -54.39,-4.78 -54.39,-4.88 -54.14,-4.88 -54.14,-4.98 -53.9,-4.98 -53.9,-5.09 -53.65,-5.09 -53.65,-5.2 -53.4,-5.2 -53.4,-5.25 -53.16,-5.25 -53.16,-5.11 -52.91,-5.11 -52.91,-5.02 -52.66,-5.02 -52.66,-5.11 -52.42,-5.11 -52.42,-5.21 -52.17,-5.21 -52.17,-5.3 -51.92,-5.3 -51.92,-5.38 -51.68,-5.38 -51.68,-5.47 -51.43,-5.47 -51.43,-5.56 -51.19,-5.56 -51.19,-5.65 -50.94,-5.65 -50.94,-5.74 -50.69,-5.74 -50.69,-5.83 -50.45,-5.83 -50.45,-5.91 -50.2,-5.91 -50.2,-5.99 -49.95,-5.99 -49.95,-6.07 -49.71,-6.07 -49.71,-6.15 -49.46,-6.15 -49.46,-6.22 -49.21,-6.22 -49.21,-6.3 -48.97,-6.3 -48.97,-6.37 -48.72,-6.37 -48.72,-6.43 -48.48,-6.43 -48.48,-6.5 -48.23,-6.5 -48.23,-6.56 -47.98,-6.56 -47.98,-6.62 -47.74,-6.62 -47.74,-6.68 -47.49,-6.68 -47.49,-6.74 -47.24,-6.74 -47.24,-6.79 -47,-6.79 -47,-6.84 -46.75,-6.84 -46.75,-6.89 -46.5,-6.89 -46.5,-6.93 -46.26,-6.93 -46.26,-6.98 -46.01,-6.98 -46.01,-7.02 -45.77,-7.02 -45.77,-7.06 -45.52,-7.06 -45.52,-7.09 -45.27,-7.09 -45.27,-7.13 -45.03,-7.13 -45.03,-7.16 -44.78,-7.16 -44.78,-7.2 -44.53,-7.2 -44.53,-7.23 -44.29,-7.23 -44.29,-7.25 -44.04,-7.25 -44.04,-7.28 -43.79,-7.28 -43.79,-7.31 -43.55,-7.31 -43.55,-7.33 -43.3,-7.33 -43.3,-7.35 -43.06,-7.35 -43.06,-7.37 -42.81,-7.37 -42.81,-7.39 -42.56,-7.39 -42.56,-7.4 -42.32,-7.4 -42.32,-7.42 -42.07,-7.42 -42.07,-7.43 -41.82,-7.43 -41.82,-7.45 -41.58,-7.45 -41.58,-7.46 -41.33,-7.46 -41.33,-7.47 -41.08,-7.47 -41.08,-7.47 -40.84,-7.47 -40.84,-7.48 -40.59,-7.48 -40.59,-7.48 -40.34,-7.48 -40.34,-7.49 -40.1,-7.49 -40.1,-7.49 -39.85,-7.49 -39.85,-7.49 -39.61,-7.49 -39.61,-7.49 -39.36,-7.49 -39.36,-7.49 -39.11,-7.49 -39.11,-7.49 -38.87,-7.49 -38.87,-7.48 -38.62,-7.48 -38.62,-7.48 -38.37,-7.48 -38.37,-7.47 -38.13,-7.47 -38.13,-7.46 -37.88,-7.46 -37.88,-7.46 -37.63,-7.46 -37.63,-7.45 -37.39,-7.45 -37.39,-7.44 -37.14,-7.44 -37.14,-7.42 -36.9,-7.42 -36.9,-7.41 -36.65,-7.41 -36.65,-7.4 -36.4,-7.4 -36.4,-7.38 -36.16,-7.38 -36.16,-7.37 -35.91,-7.37 -35.91,-7.35 -35.66,-7.35 -35.66,-7.33 -35.42,-7.33 -35.42,-7.32 -35.17,-7.32 -35.17,-7.3 -34.92,-7.3 -34.92,-7.28 -34.68,-7.28 -34.68,-7.26 -34.43,-7.26 -34.43,-7.23 -34.19,-7.23 -34.19,-7.21 -33.94,-7.21 -33.94,-7.19 -33.69,-7.19 -33.69,-7.16 -33.45,-7.16 -33.45,-7.14 -33.2,-7.14 -33.2,-7.11 -32.95,-7.11 -32.95,-7.09 -32.71,-7.09 -32.71,-7.06 -32.46,-7.06 -32.46,-7.03 -32.21,-7.03 -32.21,-7.01 -31.97,-7.01 -31.97,-6.98 -31.72,-6.98 -31.72,-6.95 -31.48,-6.95 -31.48,-6.92 -31.23,-6.92 -31.23,-6.89 -30.98,-6.89 -30.98,-6.86 -30.74,-6.86 -30.74,-6.82 -30.49,-6.82 -30.49,-6.79 -30.24,-6.79 -30.24,-6.76 -30,-6.76 -30,-6.73 -29.75,-6.73 -29.75,-6.69 -29.5,-6.69 -29.5,-6.66 -29.26,-6.66 -29.26,-6.62 -29.01,-6.62 -29.01,-6.59 -28.77,-6.59 -28.77,-6.55 -28.52,-6.55 -28.52,-6.51 -28.27,-6.51 -28.27,-6.48 -28.03,-6.48 -28.03,-6.44 -27.78,-6.44 -27.78,-6.4 -27.53,-6.4 -27.53,-6.37 -27.29,-6.37 -27.29,-6.33 -27.04,-6.33 -27.04,-6.29 -26.79,-6.29 -26.79,-6.25 -26.55,-6.25 -26.55,-6.21 -26.3,-6.21 -26.3,-6.17 -26.05,-6.17 -26.05,-6.13 -25.81,-6.13 -25.81,-6.09 -25.56,-6.09 -25.56,-6.05 -25.32,-6.05 -25.32,-6.01 -25.07,-6.01 -25.07,-5.97 -24.82,-5.97 -24.82,-5.93 -24.58,-5.93 -24.58,-5.89 -24.33,-5.89 -24.33,-5.85 -24.08,-5.85 -24.08,-5.81 -23.84,-5.81 -23.84,-5.76 -23.59,-5.76 -23.59,-5.72 -23.34,-5.72 -23.34,-5.68 -23.1,-5.68 -23.1,-5.63 -22.85,-5.63 -22.85,-5.59 -22.61,-5.59 -22.61,-5.55 -22.36,-5.55 -22.36,-5.51 -22.11,-5.51 -22.11,-5.46 -21.87,-5.46 -21.87,-5.42 -21.62,-5.42 -21.62,-5.37 -21.37,-5.37 -21.37,-5.33 -21.13,-5.33 -21.13,-5.29 -20.88,-5.29 -20.88,-5.24 -20.63,-5.24 -20.63,-5.2 -20.39,-5.2 -20.39,-5.16 -20.14,-5.16 -20.14,-5.11 -19.9,-5.11 -19.9,-5.07 -19.65,-5.07 -19.65,-5.02 -19.4,-5.02 -19.4,-4.98 -19.16,-4.98 -19.16,-4.93 -18.91,-4.93 -18.91,-4.89 -18.66,-4.89 -18.66,-4.84 -18.42,-4.84 -18.42,-4.8 -18.17,-4.8 -18.17,-4.75 -17.92,-4.75 -17.92,-4.71 -17.68,-4.71 -17.68,-4.66 -17.43,-4.66 -17.43,-4.61 -17.19,-4.61 -17.19,-4.57 -16.94,-4.57 -16.94,-4.52 -16.69,-4.52 -16.69,-4.47 -16.45,-4.47 -16.45,-4.43 -16.2,-4.43 -16.2,-4.38 -15.95,-4.38 -15.95,-4.33 -15.71,-4.33 -15.71,-4.29 -15.46,-4.29 -15.46,-4.24 -15.21,-4.24 -15.21,-4.19 -14.97,-4.19 -14.97,-4.15 -14.72,-4.15 -14.72,-4.1 -14.47,-4.1 -14.47,-4.05 -14.23,-4.05 -14.23,-4 -13.98,-4 -13.98,-3.96 -13.74,-3.96 -13.74,-3.91 -13.49,-3.91 -13.49,-3.86 -13.24,-3.86 -13.24,-3.81 -13,-3.81 -13,-3.76 -12.75,-3.76 -12.75,-3.72 -12.5,-3.72 -12.5,-3.67 -12.26,-3.67 -12.26,-3.62 -12.01,-3.62 -12.01,-3.57 -11.76,-3.57 -11.76,-3.52 -11.52,-3.52 -11.52,-3.48 -11.27,-3.48 -11.27,-3.43 -11.03,-3.43 -11.03,-3.38 -10.78,-3.38 -10.78,-3.33 -10.53,-3.33 -10.53,-3.28 -10.29,-3.28 -10.29,-3.23 -10.04,-3.23 -10.04,-3.19 -9.79,-3.19 -9.79,-3.14 -9.55,-3.14 -9.55,-3.09 -9.3,-3.09 -9.3,-3.04 -9.05,-3.04 -9.05,-2.99 -8.81,-2.99 -8.81,-2.94 -8.56,-2.94 -8.56,-2.9 -8.32,-2.9 -8.32,-2.85 -8.07,-2.85 -8.07,-2.8 -7.82,-2.8 -7.82,-2.75 -7.58,-2.75 -7.58,-2.7 -7.33,-2.7 -7.33,-2.66 -7.08,-2.66 -7.08,-2.61 -6.84,-2.61 -6.84,-2.56 -6.59,-2.56 -6.59,-2.51 -6.34,-2.51 -6.34,-2.46 -6.1,-2.46 -6.1,-2.41 -5.85,-2.41 -5.85,-2.37 -5.61,-2.37 -5.61,-2.32 -5.36,-2.32 -5.36,-2.27 -5.11,-2.27 -5.11,-2.22 -4.87,-2.22 -4.87,-2.17 -4.62,-2.17 -4.62,-2.13 -4.37,-2.13 -4.37,-2.08 -4.13,-2.08 -4.13,-2.03 -3.88,-2.03 -3.88,-1.98 -3.63,-1.98 -3.63,-1.94 -3.39,-1.94 -3.39,-1.89 -3.14,-1.89 -3.14,-1.84 -2.89,-1.84 -2.89,-1.79 -2.65,-1.79 -2.65,-1.75 -2.4,-1.75 -2.4,-1.7 -2.16,-1.7 -2.16,-1.65 -1.91,-1.65 -1.91,-1.6 -1.66,-1.6 -1.66,-1.56 -1.42,-1.56 -1.42,-1.51 -1.17,-1.51 -1.17,-1.46 -0.92,-1.46 -0.92,-1.42 -0.68,-1.42 -0.68,-1.37 -0.43,-1.37 -0.43,-1.32 -0.18,-1.32 -0.18,-1.27 0.06,-1.27 0.06,-1.23 0.31,-1.23 0.31,-1.18 0.55,-1.18 0.55,-1.13 0.8,-1.13 0.8,-1.09 1.05,-1.09 1.05,-1.04 1.29,-1.04 1.29,-1 1.54,-1 1.54,-0.95 1.79,-0.95 1.79,-0.9 2.03,-0.9 2.03,-0.86 2.28,-0.86 2.28,-0.81 2.53,-0.81 2.53,-0.77 2.77,-0.77 2.77,-0.72 3.02,-0.72 3.02,-0.67 3.26,-0.67 3.26,-0.63 3.51,-0.63 3.51,-0.58 3.76,-0.58 3.76,-0.54 4,-0.54 4,-0.49 4.25,-0.49 4.25,-0.45 4.5,-0.45 4.5,-0.4 4.74,-0.4 4.74,-0.36 4.99,-0.36 4.99,-0.31 5.24,-0.31 5.24,-0.27 5.48,-0.27 5.48,-0.22 5.73,-0.22 5.73,-0.18 5.97,-0.18 5.97,-0.13 6.22,-0.13 6.22,-0.09 6.47,-0.09 6.47,-0.04 6.71,-0.04 6.71,0 6.96,0 6.96,0.04 7.21,0.04 7.21,0.09 7.45,0.09 7.45,0.13 7.7,0.13 7.7,0.18 7.95,0.18 7.95,0.22 8.19,0.22 8.19,0.26 8.44,0.26 8.44,0.31 8.68,0.31 8.68,0.35 8.93,0.35 8.93,0.39 9.18,0.39 9.18,0.44 9.42,0.44 9.42,0.48 9.67,0.48 9.67,0.52 9.92,0.52 9.92,0.57 10.16,0.57 10.16,0.61 10.41,0.61 10.41,0.65 10.66,0.65 10.66,0.7 10.9,0.7 10.9,0.74 11.15,0.74 11.15,0.78 11.4,0.78 11.4,0.82 11.64,0.82 11.64,0.87 11.89,0.87 11.89,0.91 12.13,0.91 12.13,0.95 12.38,0.95 12.38,0.99 12.63,0.99 12.63,1.03 12.87,1.03 12.87,1.08 13.12,1.08 13.12,1.12 13.37,1.12 13.37,1.16 13.61,1.16 13.61,1.2 13.86,1.2 13.86,1.24 14.11,1.24 14.11,1.28 14.35,1.28 14.35,1.32 14.6,1.32 14.6,1.36 14.84,1.36 14.84,1.4 15.09,1.4 15.09,1.45 15.34,1.45 15.34,1.49 15.58,1.49 15.58,1.53 15.83,1.53 15.83,1.57 16.08,1.57 16.08,1.61 16.32,1.61 16.32,1.65 16.57,1.65 16.57,1.69 16.82,1.69 16.82,1.73 17.06,1.73 17.06,1.77 17.31,1.77 17.31,1.81 17.55,1.81 17.55,1.85 17.8,1.85 17.8,1.89 18.05,1.89 18.05,1.93 18.29,1.93 18.29,1.97 18.54,1.97 18.54,2 18.79,2 18.79,2.04 19.03,2.04 19.03,2.08 19.28,2.08 19.28,2.12 19.53,2.12 19.53,2.16 19.77,2.16 19.77,2.2 20.02,2.2 20.02,2.24 20.26,2.24 20.26,2.28 20.51,2.28 20.51,2.31 20.76,2.31 20.76,2.35 21,2.35 21,2.39 21.25,2.39 21.25,2.43 21.5,2.43 21.5,2.47 21.74,2.47 21.74,2.5 21.99,2.5 21.99,2.54 22.24,2.54 22.24,2.58 22.48,2.58 22.48,2.62 22.73,2.62 22.73,2.65 22.98,2.65 22.98,2.69 23.22,2.69 23.22,2.73 23.47,2.73 23.47,2.77 23.71,2.77 23.71,2.8 23.96,2.8 23.96,2.84 24.21,2.84 24.21,2.88 24.45,2.88 24.45,2.91 24.7,2.91 24.7,2.95 24.95,2.95 24.95,2.99 25.19,2.99 25.19,3.02 25.44,3.02 25.44,3.06 25.69,3.06 25.69,3.09 25.93,3.09 25.93,3.13 26.18,3.13 26.18,3.17 26.42,3.17 26.42,3.2 26.67,3.2 26.67,3.24 26.92,3.24 26.92,3.27 27.16,3.27 27.16,3.31 27.41,3.31 27.41,3.34 27.66,3.34 27.66,3.38 27.9,3.38 27.9,3.42 28.15,3.42 28.15,3.45 28.4,3.45 28.4,3.49 28.64,3.49 28.64,3.52 28.89,3.52 28.89,3.55 29.13,3.55 29.13,3.59 29.38,3.59 29.38,3.62 29.63,3.62 29.63,3.66 29.87,3.66 29.87,3.69 30.12,3.69 30.12,3.73 30.37,3.73 30.37,3.76 30.61,3.76 30.61,3.8 30.86,3.8 30.86,3.83 31.11,3.83 31.11,3.86 31.35,3.86 31.35,3.9 31.6,3.9 31.6,3.93 31.84,3.93 31.84,3.96 32.09,3.96 32.09,4 32.34,4 32.34,4.03 32.58,4.03 32.58,4.06 32.83,4.06 32.83,4.1 33.08,4.1 33.08,4.13 33.32,4.13 33.32,4.16 33.57,4.16 33.57,4.2 33.82,4.2 33.82,4.23 34.06,4.23 34.06,4.26 34.31,4.26 34.31,4.29 34.56,4.29 34.56,4.33 34.8,4.33 34.8,4.36 35.05,4.36 35.05,4.39 35.29,4.39 35.29,4.42 35.54,4.42 35.54,4.46 35.79,4.46 35.79,4.49 36.03,4.49 36.03,4.52 36.28,4.52 36.28,4.55 36.53,4.55 36.53,4.58 36.77,4.58 36.77,4.61 37.02,4.61 37.02,4.65 37.27,4.65 37.27,4.68 37.51,4.68 37.51,4.71 37.76,4.71 37.76,4.74 38,4.74 38,4.77 38.25,4.77 38.25,4.8 38.5,4.8 38.5,4.83 38.74,4.83 38.74,4.86 38.99,4.86 38.99,4.89 39.24,4.89 39.24,4.92 39.48,4.92 39.48,4.96 39.73,4.96 39.73,4.99 39.98,4.99 39.98,5.02 40.22,5.02 40.22,5.05 40.47,5.05 40.47,5.08 40.71,5.08 40.71,5.11 40.96,5.11 40.96,5.14 41.21,5.14 41.21,5.17 41.45,5.17 41.45,5.2 41.7,5.2 41.7,5.23 41.95,5.23 41.95,5.26 42.19,5.26 42.19,5.29 42.44,5.29 42.44,5.32 42.69,5.32 42.69,5.34 42.93,5.34 42.93,5.37 43.18,5.37 43.18,5.4 43.42,5.4 43.42,5.43 43.67,5.43 43.67,5.46 43.92,5.46 43.92,5.49 44.16,5.49 44.16,5.52 44.41,5.52 44.41,5.55 44.66,5.55 44.66,5.58 44.9,5.58 44.9,5.61 45.15,5.61 45.15,5.63 45.4,5.63 45.4,5.66 45.64,5.66 45.64,5.69 45.89,5.69 45.89,5.72 46.14,5.72 46.14,5.75 46.38,5.75 46.38,5.78 46.63,5.78 46.63,5.8 46.87,5.8 46.87,5.83 47.12,5.83 47.12,5.86 47.37,5.86 47.37,5.89 47.61,5.89 47.61,5.91 47.86,5.91 47.86,5.94 48.11,5.94 48.11,5.97 48.35,5.97 48.35,6 48.6,6 48.6,6.02 48.85,6.02 48.85,6.05 49.09,6.05 49.09,6.08 49.34,6.08 49.34,6.11 49.58,6.11 49.58,6.13 49.83,6.13 49.83,6.16 50.08,6.16 50.08,6.19 50.32,6.19 50.32,6.21 50.57,6.21 50.57,6.24 50.82,6.24 50.82,6.27 51.06,6.27 51.06,6.29 51.31,6.29 51.31,6.32 51.56,6.32 51.56,6.35 51.8,6.35 51.8,6.37 52.05,6.37 52.05,6.4 52.29,6.4 52.29,6.43 52.54,6.43 52.54,6.45 52.79,6.45 52.79,6.48 53.03,6.48 53.03,6.5 53.28,6.5 53.28,6.53 53.53,6.53 53.53,6.55 53.77,6.55 53.77,6.58 54.02,6.58 54.02,6.61 54.27,6.61 54.27,6.63 54.51,6.63 54.51,6.66 54.76,6.66 54.76,6.68 55,6.68 55,6.71 55.25,6.71 55.25,6.73 55.5,6.73 55.5,6.76 55.74,6.76 55.74,6.78 55.99,6.78 55.99,6.81 56.24,6.81 56.24,6.83 56.48,6.83 56.48,6.86 56.73,6.86 56.73,6.88 56.98,6.88 56.98,6.91 57.22,6.91 57.22,6.93 57.47,6.93 57.47,6.96 57.71,6.96 57.71,6.98 57.96,6.98 57.96,7.01 58.21,7.01 58.21,7.03 58.45,7.03 58.45,7.05 58.7,7.05 58.7,7.08 58.95,7.08 58.95,7.1 59.19,7.1 59.19,7.13 59.44,7.13 59.44,7.15 59.69,7.15 59.69,7.17 59.93,7.17 59.93,7.2 60.18,7.2 60.18,7.22 60.43,7.22 60.43,7.25 60.67,7.25 60.67,7.27 60.92,7.27 60.92,7.29 61.16,7.29 61.16,7.32 61.41,7.32 61.41,7.34 61.66,7.34 61.66,7.36 61.9,7.36 61.9,7.39 62.15,7.39 62.15,7.41 62.4,7.41 62.4,7.43 62.64,7.43 62.64,7.46 62.89,7.46 62.89,7.48 63.14,7.48 63.14,7.5 63.38,7.5 63.38,7.53 63.63,7.53 63.63,7.55 63.87,7.55 63.87,7.57 64.12,7.57 64.12,7.59 64.37,7.59 64.37,7.62 64.61,7.62 64.61,7.64 64.86,7.64 64.86,7.66 65.11,7.66 65.11,7.68 65.35,7.68 65.35,7.71 65.6,7.71 65.6,7.73 65.85,7.73 65.85,7.75 66.09,7.75 66.09,7.77 66.34,7.77 66.34,7.8 66.58,7.8 66.58,7.82 66.83,7.82 66.83,7.84 67.08,7.84 67.08,7.86 67.32,7.86 67.32,7.88 67.57,7.88 67.57,7.91 67.82,7.91 67.82,7.93 68.06,7.93 68.06,7.95 68.31,7.95 68.31,7.97 68.56,7.97 68.56,7.99 68.8,7.99 68.8,8.01 69.05,8.01 69.05,8.03 69.29,8.03 69.29,8.06 69.54,8.06 69.54,8.08 69.79,8.08 69.79,8.1 70.03,8.1 70.03,8.12 70.28,8.12 70.28,8.14 70.53,8.14 70.53,8.16 70.77,8.16 70.77,8.18 71.02,8.18 71.02,8.2 71.27,8.2 71.27,8.23 71.51,8.23 71.51,8.25 71.76,8.25 71.76,8.27 72.01,8.27 72.01,8.29 72.25,8.29 72.25,8.31 72.5,8.31 72.5,8.33 72.74,8.33 72.74,8.35 72.99,8.35 72.99,8.37 73.24,8.37 73.24,8.39 73.48,8.39 73.48,8.41 73.73,8.41 73.73,8.43 73.98,8.43 73.98,8.45 74.22,8.45 74.22,8.47 74.47,8.47 74.47,8.49 74.72,8.49 74.72,8.51 74.96,8.51 74.96,8.53 75.21,8.53 75.21,8.55 75.45,8.55 75.45,8.57 75.7,8.57 75.7,8.59 75.95,8.59 75.95,8.61 76.19,8.61 76.19,8.63 76.44,8.63 76.44,8.65 76.69,8.65 76.69,8.67 76.93,8.67 76.93,8.69 77.18,8.69 77.18,8.71 77.43,8.71 77.43,8.73 77.67,8.73 77.67,8.75 77.92,8.75 77.92,8.77 78.16,8.77 78.16,8.79 78.41,8.79 78.41,8.81 78.66,8.81 78.66,8.83 78.9,8.83 78.9,8.85 79.15,8.85 79.15,8.86 79.4,8.86 79.4,8.88 79.64,8.88 79.64,8.9 79.89,8.9 79.89,8.92 80.14,8.92 80.14,8.94 80.38,8.94 80.38,8.96 80.63,8.96 80.63,8.98 80.87,8.98 80.87,9 81.12,9 81.12,9.02 81.37,9.02 81.37,9.03 81.61,9.03 81.61,9.05 81.86,9.05 81.86,9.07 82.11,9.07 82.11,9.09 82.35,9.09 82.35,9.11 82.6,9.11 82.6,9.13 82.85,9.13 82.85,9.15 83.09,9.15 83.09,9.16 83.34,9.16 83.34,9.18 83.59,9.18 83.59,9.2 83.83,9.2 83.83,9.22 84.08,9.22 84.08,9.24 84.32,9.24 84.32,9.26 84.57,9.26 84.57,9.27 84.82,9.27 84.82,9.29 85.06,9.29 85.06,9.31 85.31,9.31 85.31,9.33 85.56,9.33 85.56,9.35 85.8,9.35 85.8,9.36 86.05,9.36 86.05,9.38 86.3,9.38 86.3,9.4 86.54,9.4 86.54,9.42 86.79,9.42 86.79,9.43 87.03,9.43 87.03,9.45 87.28,9.45 87.28,9.47 87.53,9.47 87.53,9.49 87.77,9.49 87.77,9.5 88.02,9.5 88.02,9.52 88.27,9.52 88.27,9.54 88.51,9.54 88.51,9.56 88.76,9.56 88.76,9.57 89.01,9.57 89.01,9.59 89.25,9.59 89.25,9.61 89.5,9.61 89.5,9.63 89.74,9.63 89.74,9.64 89.99,9.64 89.99,9.66 90.24,9.66 90.24,9.68 90.48,9.68 90.48,9.69 90.73,9.69 90.73,9.71 90.98,9.71 90.98,9.73 91.22,9.73 91.22,9.74 91.47,9.74 91.47,9.76 91.72,9.76 91.72,9.78 91.96,9.78 91.96,9.79 92.21,9.79 92.21,9.81 92.45,9.81 92.45,9.83 92.7,9.83 92.7,9.84 92.95,9.84 92.95,9.86 93.19,9.86 93.19,9.88 93.44,9.88 93.44,9.89 93.69,9.89 93.69,9.91 93.93,9.91 93.93,9.93 94.18,9.93 94.18,9.94 94.43,9.94 94.43,9.96 94.67,9.96 94.67,9.98 94.92,9.98 94.92,9.99 95.17,9.99 95.17,10.01 95.41,10.01 95.41,10.02 95.66,10.02 95.66,10.04 95.9,10.04 95.9,10.06 96.15,10.06 96.15,10.07 96.4,10.07 96.4,10.09 96.64,10.09 96.64,10.1 96.89,10.1 96.89,10.12 97.14,10.12 97.14,10.14 97.38,10.14 97.38,10.15 97.63,10.15 97.63,10.17 97.88,10.17 97.88,10.18 98.12,10.18 98.12,10.2 98.37,10.2 98.37,10.22 " class="primitive"/>
            </g>
          </g>
        </g>
        <g stroke-width="0.3" fill="#000000" fill-opacity="0.000" class="geometry" id="img-94582c7f-34">
          <g class="color_RGB{N0f8}(0.063,0.306,0.545)" stroke-dasharray="none" stroke="#104E8B" id="img-94582c7f-35">
            <g transform="translate(118.56,-31.94)" id="img-94582c7f-36">
              <path fill="none" d="M-98.49,91.78 L-98.24,91.78 -98.24,91.78 -98,91.78 -98,91.77 -97.75,91.77 -97.75,91.78 -97.51,91.78 -97.51,91.79 -97.26,91.79 -97.26,91.8 -97.01,91.8 -97.01,91.8 -96.77,91.8 -96.77,91.8 -96.52,91.8 -96.52,91.81 -96.27,91.81 -96.27,91.81 -96.03,91.81 -96.03,91.8 -95.78,91.8 -95.78,91.8 -95.53,91.8 -95.53,91.78 -95.29,91.78 -95.29,91.76 -95.04,91.76 -95.04,91.74 -94.8,91.74 -94.8,91.67 -94.55,91.67 -94.55,91.58 -94.3,91.58 -94.3,91.44 -94.06,91.44 -94.06,91.14 -93.81,91.14 -93.81,90.59 -93.56,90.59 -93.56,89.56 -93.32,89.56 -93.32,87.7 -93.07,87.7 -93.07,84.33 -92.82,84.33 -92.82,78.89 -92.58,78.89 -92.58,70.82 -92.33,70.82 -92.33,61.95 -92.09,61.95 -92.09,54.52 -91.84,54.52 -91.84,51.51 -91.59,51.51 -91.59,54.83 -91.35,54.83 -91.35,61.42 -91.1,61.42 -91.1,68.95 -90.85,68.95 -90.85,75.57 -90.61,75.57 -90.61,79.06 -90.36,79.06 -90.36,80.54 -90.11,80.54 -90.11,80.64 -89.87,80.64 -89.87,80 -89.62,80 -89.62,78.91 -89.37,78.91 -89.37,77.91 -89.13,77.91 -89.13,76.59 -88.88,76.59 -88.88,74.73 -88.64,74.73 -88.64,72.2 -88.39,72.2 -88.39,68.09 -88.14,68.09 -88.14,60.77 -87.9,60.77 -87.9,47.65 -87.65,47.65 -87.65,21.52 -87.4,21.52 -87.4,-29.37 -87.16,-29.37 -87.16,-123.75 -86.91,-123.75 -86.91,-285.42 -86.66,-285.42 -86.66,-529.96 -86.42,-529.96 -86.42,-836.58 -86.17,-836.58 -86.17,-1157.88 -85.93,-1157.88 -85.93,-1383.16 -85.68,-1383.16 -85.68,-1433.71 -85.43,-1433.71 -85.43,-1287.12 -85.19,-1287.12 -85.19,-991.36 -84.94,-991.36 -84.94,-651.12 -84.69,-651.12 -84.69,-352.46 -84.45,-352.46 -84.45,-147.18 -84.2,-147.18 -84.2,-25.69 -83.95,-25.69 -83.95,36.04 -83.71,36.04 -83.71,62.49 -83.46,62.49 -83.46,73.01 -83.22,73.01 -83.22,76.82 -82.97,76.82 -82.97,77.74 -82.72,77.74 -82.72,77.92 -82.48,77.92 -82.48,77.57 -82.23,77.57 -82.23,76.99 -81.98,76.99 -81.98,76.21 -81.74,76.21 -81.74,75.79 -81.49,75.79 -81.49,75.09 -81.24,75.09 -81.24,74.7 -81,74.7 -81,74.38 -80.75,74.38 -80.75,73.71 -80.51,73.71 -80.51,74.1 -80.26,74.1 -80.26,73.78 -80.01,73.78 -80.01,73.16 -79.77,73.16 -79.77,73.17 -79.52,73.17 -79.52,72.64 -79.27,72.64 -79.27,72.31 -79.03,72.31 -79.03,71.14 -78.78,71.14 -78.78,71.12 -78.53,71.12 -78.53,70.18 -78.29,70.18 -78.29,69.5 -78.04,69.5 -78.04,68.95 -77.8,68.95 -77.8,68.36 -77.55,68.36 -77.55,67.35 -77.3,67.35 -77.3,66.94 -77.06,66.94 -77.06,66.4 -76.81,66.4 -76.81,66.06 -76.56,66.06 -76.56,64.96 -76.32,64.96 -76.32,64.9 -76.07,64.9 -76.07,64.16 -75.82,64.16 -75.82,63.36 -75.58,63.36 -75.58,63.11 -75.33,63.11 -75.33,62.45 -75.08,62.45 -75.08,61.52 -74.84,61.52 -74.84,61.21 -74.59,61.21 -74.59,60.4 -74.35,60.4 -74.35,59.63 -74.1,59.63 -74.1,58.71 -73.85,58.71 -73.85,58.01 -73.61,58.01 -73.61,57.27 -73.36,57.27 -73.36,56.35 -73.11,56.35 -73.11,54.95 -72.87,54.95 -72.87,54.04 -72.62,54.04 -72.62,53.52 -72.37,53.52 -72.37,53.53 -72.13,53.53 -72.13,53.63 -71.88,53.63 -71.88,53.08 -71.64,53.08 -71.64,52.98 -71.39,52.98 -71.39,52.44 -71.14,52.44 -71.14,51.67 -70.9,51.67 -70.9,51.11 -70.65,51.11 -70.65,50.46 -70.4,50.46 -70.4,49.75 -70.16,49.75 -70.16,48.76 -69.91,48.76 -69.91,47.73 -69.66,47.73 -69.66,46.87 -69.42,46.87 -69.42,45.97 -69.17,45.97 -69.17,45.09 -68.93,45.09 -68.93,43.47 -68.68,43.47 -68.68,42.19 -68.43,42.19 -68.43,40.7 -68.19,40.7 -68.19,38.91 -67.94,38.91 -67.94,37.2 -67.69,37.2 -67.69,36.09 -67.45,36.09 -67.45,34.47 -67.2,34.47 -67.2,32.04 -66.95,32.04 -66.95,29.71 -66.71,29.71 -66.71,27.11 -66.46,27.11 -66.46,25.24 -66.22,25.24 -66.22,22.63 -65.97,22.63 -65.97,19.5 -65.72,19.5 -65.72,17.24 -65.48,17.24 -65.48,14.03 -65.23,14.03 -65.23,9.99 -64.98,9.99 -64.98,5.21 -64.74,5.21 -64.74,-6.52 -64.49,-6.52 -64.49,-29.53 -64.24,-29.53 -64.24,-79.56 -64,-79.56 -64,-186.59 -63.75,-186.59 -63.75,-392.31 -63.5,-392.31 -63.5,-749.02 -63.26,-749.02 -63.26,-1315.54 -63.01,-1315.54 -63.01,-2105.24 -62.77,-2105.24 -62.77,-3086.63 -62.52,-3086.63 -62.52,-4111.6 -62.27,-4111.6 -62.27,-5003.66 -62.03,-5003.66 -62.03,-5546.46 -61.78,-5546.46 -61.78,-5624.25 -61.53,-5624.25 -61.53,-5190.66 -61.29,-5190.66 -61.29,-4391.62 -61.04,-4391.62 -61.04,-3413.49 -60.79,-3413.49 -60.79,-2445.88 -60.55,-2445.88 -60.55,-1623.2 -60.3,-1623.2 -60.3,-1004.82 -60.06,-1004.82 -60.06,-585.93 -59.81,-585.93 -59.81,-320.56 -59.56,-320.56 -59.56,-161.38 -59.32,-161.38 -59.32,-67.66 -59.07,-67.66 -59.07,-11.67 -58.82,-11.67 -58.82,22.02 -58.58,22.02 -58.58,42.22 -58.33,42.22 -58.33,54.25 -58.08,54.25 -58.08,62.43 -57.84,62.43 -57.84,66.42 -57.59,66.42 -57.59,68.66 -57.35,68.66 -57.35,70.27 -57.1,70.27 -57.1,71.1 -56.85,71.1 -56.85,70.9 -56.61,70.9 -56.61,71.05 -56.36,71.05 -56.36,70.83 -56.11,70.83 -56.11,70.47 -55.87,70.47 -55.87,70.15 -55.62,70.15 -55.62,70.41 -55.37,70.41 -55.37,70.18 -55.13,70.18 -55.13,69.76 -54.88,69.76 -54.88,69.84 -54.64,69.84 -54.64,69.76 -54.39,69.76 -54.39,69.67 -54.14,69.67 -54.14,69.74 -53.9,69.74 -53.9,70.01 -53.65,70.01 -53.65,70.34 -53.4,70.34 -53.4,70.07 -53.16,70.07 -53.16,70.05 -52.91,70.05 -52.91,70.43 -52.66,70.43 -52.66,70.59 -52.42,70.59 -52.42,70.33 -52.17,70.33 -52.17,70.39 -51.92,70.39 -51.92,70.62 -51.68,70.62 -51.68,69.87 -51.43,69.87 -51.43,69.75 -51.19,69.75 -51.19,68.94 -50.94,68.94 -50.94,68.05 -50.69,68.05 -50.69,66.61 -50.45,66.61 -50.45,64.92 -50.2,64.92 -50.2,63.09 -49.95,63.09 -49.95,60.6 -49.71,60.6 -49.71,58.78 -49.46,58.78 -49.46,57.18 -49.21,57.18 -49.21,55.83 -48.97,55.83 -48.97,55.61 -48.72,55.61 -48.72,56.37 -48.48,56.37 -48.48,58.2 -48.23,58.2 -48.23,60.09 -47.98,60.09 -47.98,62.1 -47.74,62.1 -47.74,64.45 -47.49,64.45 -47.49,66.21 -47.24,66.21 -47.24,67.26 -47,67.26 -47,67.65 -46.75,67.65 -46.75,68.58 -46.5,68.58 -46.5,68.42 -46.26,68.42 -46.26,68.85 -46.01,68.85 -46.01,68.74 -45.77,68.74 -45.77,69.12 -45.52,69.12 -45.52,68.79 -45.27,68.79 -45.27,68.96 -45.03,68.96 -45.03,68.88 -44.78,68.88 -44.78,68.87 -44.53,68.87 -44.53,68.34 -44.29,68.34 -44.29,68.42 -44.04,68.42 -44.04,68.68 -43.79,68.68 -43.79,68.55 -43.55,68.55 -43.55,68.79 -43.3,68.79 -43.3,68.58 -43.06,68.58 -43.06,68.45 -42.81,68.45 -42.81,68.57 -42.56,68.57 -42.56,68.53 -42.32,68.53 -42.32,68.15 -42.07,68.15 -42.07,68.42 -41.82,68.42 -41.82,68.24 -41.58,68.24 -41.58,68.12 -41.33,68.12 -41.33,68.52 -41.08,68.52 -41.08,68.46 -40.84,68.46 -40.84,68.19 -40.59,68.19 -40.59,68.3 -40.34,68.3 -40.34,68.37 -40.1,68.37 -40.1,68.38 -39.85,68.38 -39.85,68.14 -39.61,68.14 -39.61,68.04 -39.36,68.04 -39.36,67.65 -39.11,67.65 -39.11,68.3 -38.87,68.3 -38.87,68.07 -38.62,68.07 -38.62,68.19 -38.37,68.19 -38.37,67.84 -38.13,67.84 -38.13,67.94 -37.88,67.94 -37.88,68.18 -37.63,68.18 -37.63,67.95 -37.39,67.95 -37.39,67.69 -37.14,67.69 -37.14,68.25 -36.9,68.25 -36.9,68.51 -36.65,68.51 -36.65,68.07 -36.4,68.07 -36.4,68.06 -36.16,68.06 -36.16,67.84 -35.91,67.84 -35.91,68.32 -35.66,68.32 -35.66,68.23 -35.42,68.23 -35.42,68.36 -35.17,68.36 -35.17,67.54 -34.92,67.54 -34.92,67.86 -34.68,67.86 -34.68,68.14 -34.43,68.14 -34.43,67.98 -34.19,67.98 -34.19,67.97 -33.94,67.97 -33.94,68.21 -33.69,68.21 -33.69,68.34 -33.45,68.34 -33.45,68.03 -33.2,68.03 -33.2,67.85 -32.95,67.85 -32.95,68.08 -32.71,68.08 -32.71,68.17 -32.46,68.17 -32.46,68.19 -32.21,68.19 -32.21,68.5 -31.97,68.5 -31.97,68.07 -31.72,68.07 -31.72,68.15 -31.48,68.15 -31.48,68.01 -31.23,68.01 -31.23,68.17 -30.98,68.17 -30.98,68.29 -30.74,68.29 -30.74,68.46 -30.49,68.46 -30.49,68.54 -30.24,68.54 -30.24,68.4 -30,68.4 -30,68.32 -29.75,68.32 -29.75,68.58 -29.5,68.58 -29.5,68.41 -29.26,68.41 -29.26,68.3 -29.01,68.3 -29.01,68.77 -28.77,68.77 -28.77,68.22 -28.52,68.22 -28.52,68.1 -28.27,68.1 -28.27,68.05 -28.03,68.05 -28.03,68.26 -27.78,68.26 -27.78,67.77 -27.53,67.77 -27.53,67.64 -27.29,67.64 -27.29,66.89 -27.04,66.89 -27.04,65.87 -26.79,65.87 -26.79,64.6 -26.55,64.6 -26.55,62.57 -26.3,62.57 -26.3,60.71 -26.05,60.71 -26.05,58.31 -25.81,58.31 -25.81,56.18 -25.56,56.18 -25.56,54.82 -25.32,54.82 -25.32,53.58 -25.07,53.58 -25.07,53.39 -24.82,53.39 -24.82,54.77 -24.58,54.77 -24.58,55.46 -24.33,55.46 -24.33,57.54 -24.08,57.54 -24.08,59.19 -23.84,59.19 -23.84,61.68 -23.59,61.68 -23.59,63.75 -23.34,63.75 -23.34,65.39 -23.1,65.39 -23.1,66.76 -22.85,66.76 -22.85,67.5 -22.61,67.5 -22.61,68.08 -22.36,68.08 -22.36,69.07 -22.11,69.07 -22.11,69.11 -21.87,69.11 -21.87,69.51 -21.62,69.51 -21.62,69.54 -21.37,69.54 -21.37,69.77 -21.13,69.77 -21.13,69.97 -20.88,69.97 -20.88,70.14 -20.63,70.14 -20.63,69.74 -20.39,69.74 -20.39,70.08 -20.14,70.08 -20.14,70.23 -19.9,70.23 -19.9,70.12 -19.65,70.12 -19.65,70.5 -19.4,70.5 -19.4,70.26 -19.16,70.26 -19.16,70.44 -18.91,70.44 -18.91,70.58 -18.66,70.58 -18.66,70.33 -18.42,70.33 -18.42,70.37 -18.17,70.37 -18.17,70.51 -17.92,70.51 -17.92,70.37 -17.68,70.37 -17.68,70.95 -17.43,70.95 -17.43,70.95 -17.19,70.95 -17.19,70.86 -16.94,70.86 -16.94,70.83 -16.69,70.83 -16.69,70.89 -16.45,70.89 -16.45,70.85 -16.2,70.85 -16.2,70.81 -15.95,70.81 -15.95,70.68 -15.71,70.68 -15.71,71.11 -15.46,71.11 -15.46,71.25 -15.21,71.25 -15.21,71.13 -14.97,71.13 -14.97,71.34 -14.72,71.34 -14.72,71.06 -14.47,71.06 -14.47,71.37 -14.23,71.37 -14.23,71.55 -13.98,71.55 -13.98,71.71 -13.74,71.71 -13.74,71.6 -13.49,71.6 -13.49,71.58 -13.24,71.58 -13.24,71.61 -13,71.61 -13,71.6 -12.75,71.6 -12.75,71.8 -12.5,71.8 -12.5,71.74 -12.26,71.74 -12.26,71.9 -12.01,71.9 -12.01,71.79 -11.76,71.79 -11.76,72.01 -11.52,72.01 -11.52,71.57 -11.27,71.57 -11.27,72.06 -11.03,72.06 -11.03,72.05 -10.78,72.05 -10.78,72.41 -10.53,72.41 -10.53,71.75 -10.29,71.75 -10.29,72.27 -10.04,72.27 -10.04,72.13 -9.79,72.13 -9.79,72.11 -9.55,72.11 -9.55,72.6 -9.3,72.6 -9.3,72.42 -9.05,72.42 -9.05,72.25 -8.81,72.25 -8.81,72.46 -8.56,72.46 -8.56,72.38 -8.32,72.38 -8.32,72.58 -8.07,72.58 -8.07,72.84 -7.82,72.84 -7.82,72.74 -7.58,72.74 -7.58,72.5 -7.33,72.5 -7.33,72.96 -7.08,72.96 -7.08,72.75 -6.84,72.75 -6.84,72.76 -6.59,72.76 -6.59,72.83 -6.34,72.83 -6.34,73.08 -6.1,73.08 -6.1,72.79 -5.85,72.79 -5.85,73.11 -5.61,73.11 -5.61,73.07 -5.36,73.07 -5.36,73.24 -5.11,73.24 -5.11,73.31 -4.87,73.31 -4.87,73.8 -4.62,73.8 -4.62,73.32 -4.37,73.32 -4.37,73.67 -4.13,73.67 -4.13,73.73 -3.88,73.73 -3.88,73.32 -3.63,73.32 -3.63,73.73 -3.39,73.73 -3.39,73.44 -3.14,73.44 -3.14,73.41 -2.89,73.41 -2.89,73.61 -2.65,73.61 -2.65,73.92 -2.4,73.92 -2.4,73.67 -2.16,73.67 -2.16,74.07 -1.91,74.07 -1.91,73.83 -1.66,73.83 -1.66,74.01 -1.42,74.01 -1.42,74.12 -1.17,74.12 -1.17,74.09 -0.92,74.09 -0.92,74.29 -0.68,74.29 -0.68,74.17 -0.43,74.17 -0.43,74 -0.18,74 -0.18,74.19 0.06,74.19 0.06,74.39 0.31,74.39 0.31,74.19 0.55,74.19 0.55,74.41 0.8,74.41 0.8,74.53 1.05,74.53 1.05,74.41 1.29,74.41 1.29,74.54 1.54,74.54 1.54,74.42 1.79,74.42 1.79,74.84 2.03,74.84 2.03,74.71 2.28,74.71 2.28,74.62 2.53,74.62 2.53,74.97 2.77,74.97 2.77,74.77 3.02,74.77 3.02,75.29 3.26,75.29 3.26,74.68 3.51,74.68 3.51,75.09 3.76,75.09 3.76,74.91 4,74.91 4,75.11 4.25,75.11 4.25,75.23 4.5,75.23 4.5,75.2 4.74,75.2 4.74,75.18 4.99,75.18 4.99,75.42 5.24,75.42 5.24,75.33 5.48,75.33 5.48,75.43 5.73,75.43 5.73,75.32 5.97,75.32 5.97,75.1 6.22,75.1 6.22,75.61 6.47,75.61 6.47,75.58 6.71,75.58 6.71,75.72 6.96,75.72 6.96,75.77 7.21,75.77 7.21,76 7.45,76 7.45,75.54 7.7,75.54 7.7,75.84 7.95,75.84 7.95,75.57 8.19,75.57 8.19,75.87 8.44,75.87 8.44,76.08 8.68,76.08 8.68,75.91 8.93,75.91 8.93,75.98 9.18,75.98 9.18,76.19 9.42,76.19 9.42,75.98 9.67,75.98 9.67,76.32 9.92,76.32 9.92,76.28 10.16,76.28 10.16,76.39 10.41,76.39 10.41,76.28 10.66,76.28 10.66,76.48 10.9,76.48 10.9,76.64 11.15,76.64 11.15,76.42 11.4,76.42 11.4,76.48 11.64,76.48 11.64,76.53 11.89,76.53 11.89,76.76 12.13,76.76 12.13,76.43 12.38,76.43 12.38,76.69 12.63,76.69 12.63,76.64 12.87,76.64 12.87,76.87 13.12,76.87 13.12,76.71 13.37,76.71 13.37,76.71 13.61,76.71 13.61,76.86 13.86,76.86 13.86,76.59 14.11,76.59 14.11,76.78 14.35,76.78 14.35,76.96 14.6,76.96 14.6,76.77 14.84,76.77 14.84,77.08 15.09,77.08 15.09,76.87 15.34,76.87 15.34,76.89 15.58,76.89 15.58,77.25 15.83,77.25 15.83,77.1 16.08,77.1 16.08,76.91 16.32,76.91 16.32,77.15 16.57,77.15 16.57,77.32 16.82,77.32 16.82,77.21 17.06,77.21 17.06,77.38 17.31,77.38 17.31,77.5 17.55,77.5 17.55,77.82 17.8,77.82 17.8,77.66 18.05,77.66 18.05,77.66 18.29,77.66 18.29,77.81 18.54,77.81 18.54,77.82 18.79,77.82 18.79,77.66 19.03,77.66 19.03,78.02 19.28,78.02 19.28,77.9 19.53,77.9 19.53,77.88 19.77,77.88 19.77,77.9 20.02,77.9 20.02,78.16 20.26,78.16 20.26,77.91 20.51,77.91 20.51,77.83 20.76,77.83 20.76,78.28 21,78.28 21,78.07 21.25,78.07 21.25,77.81 21.5,77.81 21.5,78 21.74,78 21.74,78.24 21.99,78.24 21.99,78.26 22.24,78.26 22.24,78.37 22.48,78.37 22.48,78.45 22.73,78.45 22.73,78.28 22.98,78.28 22.98,78.31 23.22,78.31 23.22,78.56 23.47,78.56 23.47,78.45 23.71,78.45 23.71,78.49 23.96,78.49 23.96,78.59 24.21,78.59 24.21,78.53 24.45,78.53 24.45,78.52 24.7,78.52 24.7,78.58 24.95,78.58 24.95,78.77 25.19,78.77 25.19,78.83 25.44,78.83 25.44,78.9 25.69,78.9 25.69,78.65 25.93,78.65 25.93,78.69 26.18,78.69 26.18,78.73 26.42,78.73 26.42,78.9 26.67,78.9 26.67,78.91 26.92,78.91 26.92,78.84 27.16,78.84 27.16,78.9 27.41,78.9 27.41,78.98 27.66,78.98 27.66,79.14 27.9,79.14 27.9,79.06 28.15,79.06 28.15,78.98 28.4,78.98 28.4,78.88 28.64,78.88 28.64,79.31 28.89,79.31 28.89,78.84 29.13,78.84 29.13,79.14 29.38,79.14 29.38,79.4 29.63,79.4 29.63,79.36 29.87,79.36 29.87,79.06 30.12,79.06 30.12,79.54 30.37,79.54 30.37,79.25 30.61,79.25 30.61,79.33 30.86,79.33 30.86,79.5 31.11,79.5 31.11,79.52 31.35,79.52 31.35,79.71 31.6,79.71 31.6,79.89 31.84,79.89 31.84,79.56 32.09,79.56 32.09,79.61 32.34,79.61 32.34,79.7 32.58,79.7 32.58,79.68 32.83,79.68 32.83,79.51 33.08,79.51 33.08,79.92 33.32,79.92 33.32,79.7 33.57,79.7 33.57,79.81 33.82,79.81 33.82,79.82 34.06,79.82 34.06,79.73 34.31,79.73 34.31,79.82 34.56,79.82 34.56,79.87 34.8,79.87 34.8,79.7 35.05,79.7 35.05,80.13 35.29,80.13 35.29,80.1 35.54,80.1 35.54,80.07 35.79,80.07 35.79,79.86 36.03,79.86 36.03,79.93 36.28,79.93 36.28,80.28 36.53,80.28 36.53,80.42 36.77,80.42 36.77,80.12 37.02,80.12 37.02,80.3 37.27,80.3 37.27,80.26 37.51,80.26 37.51,80.4 37.76,80.4 37.76,80.78 38,80.78 38,80.45 38.25,80.45 38.25,80.48 38.5,80.48 38.5,80.3 38.74,80.3 38.74,80.72 38.99,80.72 38.99,80.52 39.24,80.52 39.24,80.53 39.48,80.53 39.48,80.61 39.73,80.61 39.73,80.42 39.98,80.42 39.98,80.86 40.22,80.86 40.22,80.77 40.47,80.77 40.47,80.82 40.71,80.82 40.71,80.69 40.96,80.69 40.96,80.84 41.21,80.84 41.21,80.94 41.45,80.94 41.45,80.85 41.7,80.85 41.7,81.02 41.95,81.02 41.95,81.24 42.19,81.24 42.19,80.97 42.44,80.97 42.44,80.88 42.69,80.88 42.69,81.09 42.93,81.09 42.93,81.03 43.18,81.03 43.18,81.28 43.42,81.28 43.42,81.24 43.67,81.24 43.67,81.3 43.92,81.3 43.92,81.37 44.16,81.37 44.16,81.38 44.41,81.38 44.41,81.11 44.66,81.11 44.66,81.31 44.9,81.31 44.9,81.33 45.15,81.33 45.15,81.36 45.4,81.36 45.4,81.51 45.64,81.51 45.64,81.31 45.89,81.31 45.89,81.26 46.14,81.26 46.14,81.53 46.38,81.53 46.38,81.41 46.63,81.41 46.63,81.66 46.87,81.66 46.87,81.54 47.12,81.54 47.12,81.4 47.37,81.4 47.37,81.35 47.61,81.35 47.61,81.58 47.86,81.58 47.86,81.66 48.11,81.66 48.11,81.66 48.35,81.66 48.35,81.78 48.6,81.78 48.6,81.86 48.85,81.86 48.85,81.73 49.09,81.73 49.09,81.85 49.34,81.85 49.34,81.74 49.58,81.74 49.58,82.06 49.83,82.06 49.83,82 50.08,82 50.08,81.77 50.32,81.77 50.32,81.87 50.57,81.87 50.57,81.87 50.82,81.87 50.82,81.82 51.06,81.82 51.06,81.95 51.31,81.95 51.31,82.12 51.56,82.12 51.56,82.13 51.8,82.13 51.8,82.02 52.05,82.02 52.05,82.19 52.29,82.19 52.29,82.3 52.54,82.3 52.54,82.33 52.79,82.33 52.79,82.34 53.03,82.34 53.03,82.37 53.28,82.37 53.28,82.36 53.53,82.36 53.53,82.13 53.77,82.13 53.77,82.02 54.02,82.02 54.02,82.32 54.27,82.32 54.27,82.35 54.51,82.35 54.51,82.51 54.76,82.51 54.76,82.39 55,82.39 55,82.47 55.25,82.47 55.25,82.44 55.5,82.44 55.5,82.55 55.74,82.55 55.74,82.5 55.99,82.5 55.99,82.6 56.24,82.6 56.24,82.44 56.48,82.44 56.48,82.39 56.73,82.39 56.73,82.37 56.98,82.37 56.98,82.39 57.22,82.39 57.22,82.1 57.47,82.1 57.47,82.67 57.71,82.67 57.71,82.27 57.96,82.27 57.96,82.03 58.21,82.03 58.21,82.31 58.45,82.31 58.45,82.03 58.7,82.03 58.7,81.75 58.95,81.75 58.95,82.03 59.19,82.03 59.19,82.26 59.44,82.26 59.44,82.03 59.69,82.03 59.69,82.26 59.93,82.26 59.93,82.13 60.18,82.13 60.18,82.29 60.43,82.29 60.43,82.32 60.67,82.32 60.67,82.62 60.92,82.62 60.92,82.64 61.16,82.64 61.16,82.79 61.41,82.79 61.41,82.81 61.66,82.81 61.66,82.93 61.9,82.93 61.9,82.86 62.15,82.86 62.15,83 62.4,83 62.4,82.98 62.64,82.98 62.64,83.27 62.89,83.27 62.89,83.48 63.14,83.48 63.14,83.46 63.38,83.46 63.38,83.14 63.63,83.14 63.63,83.3 63.87,83.3 63.87,83.39 64.12,83.39 64.12,83.43 64.37,83.43 64.37,83.66 64.61,83.66 64.61,83.21 64.86,83.21 64.86,83.5 65.11,83.5 65.11,83.51 65.35,83.51 65.35,83.5 65.6,83.5 65.6,83.52 65.85,83.52 65.85,83.38 66.09,83.38 66.09,83.5 66.34,83.5 66.34,83.49 66.58,83.49 66.58,83.48 66.83,83.48 66.83,83.59 67.08,83.59 67.08,83.53 67.32,83.53 67.32,83.48 67.57,83.48 67.57,83.8 67.82,83.8 67.82,83.58 68.06,83.58 68.06,83.55 68.31,83.55 68.31,83.81 68.56,83.81 68.56,83.89 68.8,83.89 68.8,83.6 69.05,83.6 69.05,83.75 69.29,83.75 69.29,83.74 69.54,83.74 69.54,83.84 69.79,83.84 69.79,83.74 70.03,83.74 70.03,83.71 70.28,83.71 70.28,83.66 70.53,83.66 70.53,83.93 70.77,83.93 70.77,84 71.02,84 71.02,83.9 71.27,83.9 71.27,84.01 71.51,84.01 71.51,83.99 71.76,83.99 71.76,83.81 72.01,83.81 72.01,83.85 72.25,83.85 72.25,84 72.5,84 72.5,83.95 72.74,83.95 72.74,84.01 72.99,84.01 72.99,84.17 73.24,84.17 73.24,83.77 73.48,83.77 73.48,84.07 73.73,84.07 73.73,83.92 73.98,83.92 73.98,84.01 74.22,84.01 74.22,84.2 74.47,84.2 74.47,84.22 74.72,84.22 74.72,84.14 74.96,84.14 74.96,84.09 75.21,84.09 75.21,83.98 75.45,83.98 75.45,84.27 75.7,84.27 75.7,84.04 75.95,84.04 75.95,84.18 76.19,84.18 76.19,84.31 76.44,84.31 76.44,84.28 76.69,84.28 76.69,84.29 76.93,84.29 76.93,84.32 77.18,84.32 77.18,84.5 77.43,84.5 77.43,84.5 77.67,84.5 77.67,84.33 77.92,84.33 77.92,84.56 78.16,84.56 78.16,84.34 78.41,84.34 78.41,84.39 78.66,84.39 78.66,84.48 78.9,84.48 78.9,84.6 79.15,84.6 79.15,84.53 79.4,84.53 79.4,84.55 79.64,84.55 79.64,84.47 79.89,84.47 79.89,84.73 80.14,84.73 80.14,84.56 80.38,84.56 80.38,84.59 80.63,84.59 80.63,84.68 80.87,84.68 80.87,84.78 81.12,84.78 81.12,84.56 81.37,84.56 81.37,84.65 81.61,84.65 81.61,84.74 81.86,84.74 81.86,84.59 82.11,84.59 82.11,84.69 82.35,84.69 82.35,84.64 82.6,84.64 82.6,84.71 82.85,84.71 82.85,84.87 83.09,84.87 83.09,84.99 83.34,84.99 83.34,84.7 83.59,84.7 83.59,84.8 83.83,84.8 83.83,84.82 84.08,84.82 84.08,84.85 84.32,84.85 84.32,84.9 84.57,84.9 84.57,84.86 84.82,84.86 84.82,84.79 85.06,84.79 85.06,85 85.31,85 85.31,84.77 85.56,84.77 85.56,84.99 85.8,84.99 85.8,84.89 86.05,84.89 86.05,84.61 86.3,84.61 86.3,84.86 86.54,84.86 86.54,85.07 86.79,85.07 86.79,84.96 87.03,84.96 87.03,84.93 87.28,84.93 87.28,85.13 87.53,85.13 87.53,85.04 87.77,85.04 87.77,85 88.02,85 88.02,85 88.27,85 88.27,85.1 88.51,85.1 88.51,85.29 88.76,85.29 88.76,85.33 89.01,85.33 89.01,85.25 89.25,85.25 89.25,85.29 89.5,85.29 89.5,85.04 89.74,85.04 89.74,85.24 89.99,85.24 89.99,85.23 90.24,85.23 90.24,85.23 90.48,85.23 90.48,85.41 90.73,85.41 90.73,85.34 90.98,85.34 90.98,85.42 91.22,85.42 91.22,85.3 91.47,85.3 91.47,85.42 91.72,85.42 91.72,85.41 91.96,85.41 91.96,85.49 92.21,85.49 92.21,85.55 92.45,85.55 92.45,85.27 92.7,85.27 92.7,85.68 92.95,85.68 92.95,85.55 93.19,85.55 93.19,85.69 93.44,85.69 93.44,85.6 93.69,85.6 93.69,85.66 93.93,85.66 93.93,85.79 94.18,85.79 94.18,85.76 94.43,85.76 94.43,85.46 94.67,85.46 94.67,85.79 94.92,85.79 94.92,85.52 95.17,85.52 95.17,85.74 95.41,85.74 95.41,85.56 95.66,85.56 95.66,85.7 95.9,85.7 95.9,85.48 96.15,85.48 96.15,85.86 96.4,85.86 96.4,85.67 96.64,85.67 96.64,85.66 96.89,85.66 96.89,85.65 97.14,85.65 97.14,85.73 97.38,85.73 97.38,85.8 97.63,85.8 97.63,85.51 97.88,85.51 97.88,85.74 98.12,85.74 98.12,85.75 98.37,85.75 98.37,85.71 " class="primitive"/>
            </g>
          </g>
        </g>
      </g>
    </g>
  </g>
  <g class="guide ylabels" font-size="2.82" font-family="'PT Sans Caption','Helvetica Neue','Helvetica',sans-serif" fill="#6C606B" id="img-94582c7f-37">
    <g transform="translate(17.03,59.87)" id="img-94582c7f-38">
      <g class="primitive">
        <text text-anchor="end" dy="0.35em">0</text>
      </g>
    </g>
    <g transform="translate(17.03,44.7)" id="img-94582c7f-39">
      <g class="primitive">
        <text text-anchor="end" dy="0.35em">10000</text>
      </g>
    </g>
    <g transform="translate(17.03,29.54)" id="img-94582c7f-40">
      <g class="primitive">
        <text text-anchor="end" dy="0.35em">20000</text>
      </g>
    </g>
    <g transform="translate(17.03,14.38)" id="img-94582c7f-41">
      <g class="primitive">
        <text text-anchor="end" dy="0.35em">30000</text>
      </g>
    </g>
  </g>
  <g font-size="3.18" font-family="'PT Sans','Helvetica Neue','Helvetica',sans-serif" fill="#202020" stroke="#000000" stroke-opacity="0.000" id="img-94582c7f-42">
    <g transform="translate(4.18,29.29)" id="img-94582c7f-43">
      <g class="primitive">
        <text text-anchor="middle" dy="0.35em" transform="rotate(-90,0, 2)">Counts</text>
      </g>
    </g>
  </g>
</g>
<defs>
  <clipPath id="img-94582c7f-15">
    <path d="M18.03,0.71 L219.16,0.71 219.16,61.87 18.03,61.87 " />
  </clipPath>
</defs>
</svg>
