<?xml version="1.0" encoding="UTF-8"?>
<svg xmlns="http://www.w3.org/2000/svg"
     xmlns:xlink="http://www.w3.org/1999/xlink"
     xmlns:gadfly="http://www.gadflyjl.org/ns"
     version="1.2"
     width="254mm" height="101.6mm" viewBox="0 0 254 101.6"
     stroke="none"
     fill="#000000"
     stroke-width="0.3"
     font-size="3.88"
>
<defs>
  <marker id="arrow" markerWidth="15" markerHeight="7" refX="5" refY="3.5" orient="auto" markerUnits="strokeWidth">
    <path d="M0,0 L15,3.5 L0,7 z" stroke="context-stroke" fill="context-stroke"/>
  </marker>
</defs>
<g class="plotroot xscalable yscalable" id="img-6a47d91c-1">
  <g font-size="3.88" font-family="'PT Sans','Helvetica Neue','Helvetica',sans-serif" fill="#564A55" stroke="#000000" stroke-opacity="0.000" id="img-6a47d91c-2">
    <g transform="translate(134.28,89.99)">
      <g class="primitive">
        <text text-anchor="middle" dy="0.6em">x</text>
      </g>
    </g>
  </g>
  <g class="guide xlabels" font-size="2.82" font-family="'PT Sans Caption','Helvetica Neue','Helvetica',sans-serif" fill="#6C606B" id="img-6a47d91c-3">
    <g transform="translate(30.4,83.32)">
      <g class="primitive">
        <text text-anchor="middle" dy="0.6em">0</text>
      </g>
    </g>
    <g transform="translate(99.65,83.32)">
      <g class="primitive">
        <text text-anchor="middle" dy="0.6em">5.00×10³</text>
      </g>
    </g>
    <g transform="translate(168.91,83.32)">
      <g class="primitive">
        <text text-anchor="middle" dy="0.6em">1.00×10⁴</text>
      </g>
    </g>
    <g transform="translate(238.16,83.32)">
      <g class="primitive">
        <text text-anchor="middle" dy="0.6em">1.50×10⁴</text>
      </g>
    </g>
  </g>
  <g class="guide colorkey" id="img-6a47d91c-4">
    <g fill="#4C404B" font-size="2.82" font-family="'PT Sans','Helvetica Neue','Helvetica',sans-serif" id="img-6a47d91c-5">
      <g transform="translate(244.63,43.66)" id="img-6a47d91c-6" class="color_f1">
        <g class="primitive">
          <text dy="0.35em">f<tspan dy="0.4em" font-size="83%">1</tspan></text>
        </g>
      </g>
      <g transform="translate(244.63,48.6)" id="img-6a47d91c-7" class="color_f2">
        <g class="primitive">
          <text dy="0.35em">f<tspan dy="0.4em" font-size="83%">2</tspan></text>
        </g>
      </g>
    </g>
    <g fill-opacity="1" id="img-6a47d91c-8">
      <g transform="translate(242.4,43.66)" id="img-6a47d91c-9" fill="#00BFFF" class="color_f1" stroke="#FFFFFF">
        <path d="M-1.24,-1.24 L1.24,-1.24 1.24,1.24 -1.24,1.24  z" class="primitive"/>
      </g>
      <g transform="translate(242.4,48.6)" id="img-6a47d91c-10" fill="#D4CA3A" class="color_f2" stroke="#FFFFFF">
        <path d="M-1.24,-1.24 L1.24,-1.24 1.24,1.24 -1.24,1.24  z" class="primitive"/>
      </g>
    </g>
    <g fill="#362A35" font-size="3.88" font-family="'PT Sans','Helvetica Neue','Helvetica',sans-serif" stroke="#000000" stroke-opacity="0.000" id="img-6a47d91c-11">
      <g transform="translate(241.16,38.52)" id="img-6a47d91c-12">
        <g class="primitive">
          <text dy="-0em">Color</text>
        </g>
      </g>
    </g>
  </g>
  <g clip-path="url(#img-6a47d91c-13)">
    <g id="img-6a47d91c-14">
      <g pointer-events="visible" stroke-width="0.3" fill="#000000" fill-opacity="0.000" stroke="#000000" stroke-opacity="0.000" class="guide background" id="img-6a47d91c-15">
        <g transform="translate(134.28,43.66)" id="img-6a47d91c-16">
          <path d="M-105.88,-38.66 L105.88,-38.66 105.88,38.66 -105.88,38.66  z" class="primitive"/>
        </g>
      </g>
      <g class="guide ygridlines xfixed" stroke-dasharray="0.5,0.5" stroke-width="0.2" stroke="#D0D0E0" id="img-6a47d91c-17">
        <g transform="translate(134.28,80.31)" id="img-6a47d91c-18">
          <path fill="none" d="M-105.88,0 L105.88,0 " class="primitive"/>
        </g>
        <g transform="translate(134.28,61.99)" id="img-6a47d91c-19">
          <path fill="none" d="M-105.88,0 L105.88,0 " class="primitive"/>
        </g>
        <g transform="translate(134.28,43.66)" id="img-6a47d91c-20">
          <path fill="none" d="M-105.88,0 L105.88,0 " class="primitive"/>
        </g>
        <g transform="translate(134.28,25.33)" id="img-6a47d91c-21">
          <path fill="none" d="M-105.88,0 L105.88,0 " class="primitive"/>
        </g>
        <g transform="translate(134.28,7)" id="img-6a47d91c-22">
          <path fill="none" d="M-105.88,0 L105.88,0 " class="primitive"/>
        </g>
      </g>
      <g class="guide xgridlines yfixed" stroke-dasharray="0.5,0.5" stroke-width="0.2" stroke="#D0D0E0" id="img-6a47d91c-23">
        <g transform="translate(30.4,43.66)" id="img-6a47d91c-24">
          <path fill="none" d="M0,-38.66 L0,38.66 " class="primitive"/>
        </g>
        <g transform="translate(99.65,43.66)" id="img-6a47d91c-25">
          <path fill="none" d="M0,-38.66 L0,38.66 " class="primitive"/>
        </g>
        <g transform="translate(168.91,43.66)" id="img-6a47d91c-26">
          <path fill="none" d="M0,-38.66 L0,38.66 " class="primitive"/>
        </g>
        <g transform="translate(238.16,43.66)" id="img-6a47d91c-27">
          <path fill="none" d="M0,-38.66 L0,38.66 " class="primitive"/>
        </g>
      </g>
      <g class="plotpanel" id="img-6a47d91c-28">
        <metadata>
          <boundingbox value="28.39833333333334mm 5.0mm 211.765mm 77.315mm"/>
          <unitbox value="-144.39390657714245 20545.590943190342 15288.787813154284 -21091.181886380688"/>
        </metadata>
        <g stroke-width="0.3" fill="#000000" fill-opacity="0.000" class="geometry" id="img-6a47d91c-29">
          <g transform="translate(134.97,78.83)" id="img-6a47d91c-30" stroke-dasharray="none" class="color_f1" stroke="#00BFFF">
            <path fill="none" d="M-103.19,1.49 L-102.36,1.49 -101.53,-4.99 -100.7,-6.2 -99.87,-5.06 -99.05,-6.2 -98.22,-7.14 -97.39,-7.84 -96.56,-5.16 -95.73,-4.78 -94.9,-4.92 -94.07,-1.17 -93.24,-1.45 -92.42,-1.27 -91.59,-0.74 -90.76,-0.95 -89.93,-1.14 -89.1,-1.34 -88.27,-1.52 -87.44,-1.69 -86.61,-1.84 -85.78,-1.98 -84.96,-2.1 -84.13,-2.2 -83.3,-2.28 -82.47,-2.35 -81.64,-2.4 -80.81,-2.43 -79.98,-2.45 -79.15,-2.46 -78.32,-2.46 -77.5,-2.45 -76.67,-2.43 -75.84,-2.41 -75.01,-2.38 -74.18,-2.34 -73.35,-2.3 -72.52,-2.26 -71.69,-2.21 -70.87,-2.16 -70.04,-2.11 -69.21,-2.06 -68.38,-2 -67.55,-1.95 -66.72,-1.89 -65.89,-1.84 -65.06,-1.79 -64.23,-1.73 -63.41,-1.68 -62.58,-1.63 -61.75,-1.57 -60.92,-1.52 -60.09,-1.47 -59.26,-1.42 -58.43,-1.37 -57.6,-1.32 -56.78,-1.27 -55.95,-1.23 -55.12,-1.18 -54.29,-1.13 -53.46,-1.09 -52.63,-1.04 -51.8,-1 -50.97,-0.95 -50.14,-0.91 -49.32,-0.87 -48.49,-0.83 -47.66,-0.79 -46.83,-0.75 -46,-0.71 -45.17,-0.67 -44.34,-0.64 -43.51,-0.6 -42.68,-0.57 -41.86,-0.53 -41.03,-0.5 -40.2,-0.46 -39.37,-0.43 -38.54,-0.4 -37.71,-0.37 -36.88,-0.34 -36.05,-0.31 -35.23,-0.28 -34.4,-0.25 -33.57,-0.22 -32.74,-0.19 -31.91,-0.16 -31.08,-0.14 -30.25,-0.11 -29.42,-0.08 -28.59,-0.06 -27.77,-0.03 -26.94,-0.01 -26.11,0.02 -25.28,0.04 -24.45,0.06 -23.62,0.08 -22.79,0.11 -21.96,0.13 -21.14,0.17 -20.31,0.19 -19.48,0.21 -18.65,0.23 -17.82,0.25 -16.99,0.27 -16.16,0.29 -15.33,0.31 -14.5,0.32 -13.68,0.34 -12.85,0.36 -12.02,0.38 -11.19,0.39 -10.36,0.41 -9.53,0.43 -8.7,0.44 -7.87,0.46 -7.05,0.48 -6.22,0.49 -5.39,0.56 -4.56,0.58 -3.73,0.59 -2.9,0.6 -2.07,0.61 -1.24,0.63 -0.41,0.64 0.41,0.65 1.24,0.66 2.07,0.67 2.9,0.69 3.73,0.7 4.56,0.71 5.39,0.72 6.22,0.73 7.05,0.74 7.87,0.75 8.7,0.76 9.53,0.77 10.36,0.78 11.19,0.8 12.02,0.81 12.85,0.82 13.68,0.83 14.5,0.84 15.33,0.85 16.16,0.86 16.99,0.87 17.82,0.88 18.65,0.89 19.48,0.89 20.31,0.9 21.14,0.91 21.96,0.92 22.79,0.93 23.62,0.94 24.45,0.95 25.28,0.96 26.11,0.97 26.94,0.97 27.77,0.98 28.59,0.99 29.42,1 30.25,1.01 31.08,1.01 31.91,1.02 32.74,1.03 33.57,1.04 34.4,1.05 35.23,1.05 36.05,1.06 36.88,1.07 37.71,1.08 38.54,1.08 39.37,1.09 40.2,1.1 41.03,1.1 41.86,1.11 42.68,1.12 43.51,1.13 44.34,1.13 45.17,1.14 46,1.15 46.83,1.15 47.66,1.16 48.49,1.17 49.32,1.17 50.14,1.18 50.97,1.19 51.8,1.19 52.63,1.2 53.46,1.2 54.29,1.21 55.12,1.21 55.95,1.22 56.78,1.22 57.6,1.23 58.43,1.24 59.26,1.24 60.09,1.25 60.92,1.25 61.75,1.26 62.58,1.27 63.41,1.27 64.23,1.28 65.06,1.28 65.89,1.29 66.72,1.29 67.55,1.3 68.38,1.3 69.21,1.31 70.04,1.31 70.87,1.32 71.69,1.32 72.52,1.33 73.35,1.33 74.18,1.34 75.01,1.34 75.84,1.35 76.67,1.35 77.5,1.36 78.32,1.36 79.15,1.37 79.98,1.37 80.81,1.38 81.64,1.38 82.47,1.39 83.3,1.39 84.13,1.39 84.96,1.4 85.78,1.4 86.61,1.41 87.44,1.41 88.27,1.42 89.1,1.42 89.93,1.42 90.76,1.43 91.59,1.43 92.42,1.44 93.24,1.44 94.07,1.44 94.9,1.45 95.73,1.45 96.56,1.46 97.39,1.46 98.22,1.46 99.05,1.47 99.87,1.49 100.7,1.49 101.53,1.49 102.36,1.49 103.19,1.49 " class="primitive"/>
          </g>
          <g transform="translate(134.97,77.01)" id="img-6a47d91c-31" stroke-dasharray="none" class="color_f2" stroke="#D4CA3A">
            <path fill="none" d="M-103.19,-53.66 L-102.36,-50.92 -101.53,-42.17 -100.7,-35.06 -99.87,-29.64 -99.05,-25.45 -98.22,-22.16 -97.39,-19.51 -96.56,-17.33 -95.73,-15.52 -94.9,-13.98 -94.07,-12.67 -93.24,-11.53 -92.42,-10.53 -91.59,-9.65 -90.76,-8.87 -89.93,-8.17 -89.1,-7.55 -88.27,-6.98 -87.44,-6.46 -86.61,-5.99 -85.78,-5.56 -84.96,-5.17 -84.13,-4.8 -83.3,-4.46 -82.47,-4.15 -81.64,-3.86 -80.81,-3.59 -79.98,-3.33 -79.15,-3.09 -78.32,-2.87 -77.5,-2.66 -76.67,-2.46 -75.84,-2.28 -75.01,-2.1 -74.18,-1.93 -73.35,-1.77 -72.52,-1.62 -71.69,-1.48 -70.87,-1.34 -70.04,-1.21 -69.21,-1.09 -68.38,-0.97 -67.55,-0.85 -66.72,-0.74 -65.89,-0.64 -65.06,-0.54 -64.23,-0.44 -63.41,-0.35 -62.58,-0.26 -61.75,-0.18 -60.92,-0.1 -60.09,-0.02 -59.26,0.06 -58.43,0.13 -57.6,0.2 -56.78,0.27 -55.95,0.34 -55.12,0.4 -54.29,0.46 -53.46,0.52 -52.63,0.58 -51.8,0.64 -50.97,0.69 -50.14,0.75 -49.32,0.8 -48.49,0.85 -47.66,0.9 -46.83,0.94 -46,0.99 -45.17,1.03 -44.34,1.08 -43.51,1.12 -42.68,1.16 -41.86,1.2 -41.03,1.24 -40.2,1.28 -39.37,1.31 -38.54,1.35 -37.71,1.38 -36.88,1.42 -36.05,1.45 -35.23,1.49 -34.4,1.52 -33.57,1.55 -32.74,1.58 -31.91,1.61 -31.08,1.64 -30.25,1.67 -29.42,1.69 -28.59,1.72 -27.77,1.75 -26.94,1.77 -26.11,1.8 -25.28,1.83 -24.45,1.85 -23.62,1.87 -22.79,1.9 -21.96,1.92 -21.14,1.94 -20.31,1.97 -19.48,1.99 -18.65,2.01 -17.82,2.03 -16.99,2.05 -16.16,2.07 -15.33,2.09 -14.5,2.11 -13.68,2.13 -12.85,2.15 -12.02,2.17 -11.19,2.18 -10.36,2.2 -9.53,2.22 -8.7,2.24 -7.87,2.25 -7.05,2.27 -6.22,2.29 -5.39,2.3 -4.56,2.32 -3.73,2.33 -2.9,2.35 -2.07,2.36 -1.24,2.38 -0.41,2.39 0.41,2.41 1.24,2.42 2.07,2.44 2.9,2.45 3.73,2.46 4.56,2.48 5.39,2.49 6.22,2.5 7.05,2.51 7.87,2.53 8.7,2.54 9.53,2.55 10.36,2.56 11.19,2.58 12.02,2.59 12.85,2.6 13.68,2.61 14.5,2.62 15.33,2.63 16.16,2.64 16.99,2.65 17.82,2.66 18.65,2.67 19.48,2.68 20.31,2.7 21.14,2.71 21.96,2.71 22.79,2.72 23.62,2.73 24.45,2.74 25.28,2.75 26.11,2.76 26.94,2.77 27.77,2.78 28.59,2.79 29.42,2.8 30.25,2.81 31.08,2.82 31.91,2.82 32.74,2.83 33.57,2.84 34.4,2.85 35.23,2.86 36.05,2.87 36.88,2.87 37.71,2.88 38.54,2.89 39.37,2.9 40.2,2.9 41.03,2.91 41.86,2.92 42.68,2.93 43.51,2.93 44.34,2.94 45.17,2.95 46,2.95 46.83,2.96 47.66,2.97 48.49,2.97 49.32,2.98 50.14,2.99 50.97,2.99 51.8,3 52.63,3.01 53.46,3.01 54.29,3.02 55.12,3.03 55.95,3.03 56.78,3.04 57.6,3.04 58.43,3.05 59.26,3.06 60.09,3.06 60.92,3.07 61.75,3.07 62.58,3.08 63.41,3.09 64.23,3.09 65.06,3.1 65.89,3.1 66.72,3.11 67.55,3.11 68.38,3.12 69.21,3.12 70.04,3.13 70.87,3.13 71.69,3.14 72.52,3.14 73.35,3.15 74.18,3.15 75.01,3.16 75.84,3.16 76.67,3.17 77.5,3.17 78.32,3.18 79.15,3.18 79.98,3.19 80.81,3.19 81.64,3.2 82.47,3.2 83.3,3.21 84.13,3.21 84.96,3.21 85.78,3.22 86.61,3.22 87.44,3.23 88.27,3.23 89.1,3.24 89.93,3.24 90.76,3.24 91.59,3.25 92.42,3.25 93.24,3.26 94.07,3.26 94.9,3.26 95.73,3.27 96.56,3.27 97.39,3.28 98.22,3.28 99.05,3.28 99.87,3.29 100.7,3.29 101.53,3.3 102.36,3.3 103.19,3.3 " class="primitive"/>
          </g>
        </g>
      </g>
    </g>
  </g>
  <g class="guide ylabels" font-size="2.82" font-family="'PT Sans Caption','Helvetica Neue','Helvetica',sans-serif" fill="#6C606B" id="img-6a47d91c-32">
    <g transform="translate(27.4,80.31)" id="img-6a47d91c-33">
      <g class="primitive">
        <text text-anchor="end" dy="0.35em">0</text>
      </g>
    </g>
    <g transform="translate(27.4,61.99)" id="img-6a47d91c-34">
      <g class="primitive">
        <text text-anchor="end" dy="0.35em">5.00×10³</text>
      </g>
    </g>
    <g transform="translate(27.4,43.66)" id="img-6a47d91c-35">
      <g class="primitive">
        <text text-anchor="end" dy="0.35em">1.00×10⁴</text>
      </g>
    </g>
    <g transform="translate(27.4,25.33)" id="img-6a47d91c-36">
      <g class="primitive">
        <text text-anchor="end" dy="0.35em">1.50×10⁴</text>
      </g>
    </g>
    <g transform="translate(27.4,7)" id="img-6a47d91c-37">
      <g class="primitive">
        <text text-anchor="end" dy="0.35em">2.00×10⁴</text>
      </g>
    </g>
  </g>
  <g font-size="3.88" font-family="'PT Sans','Helvetica Neue','Helvetica',sans-serif" fill="#564A55" stroke="#000000" stroke-opacity="0.000" id="img-6a47d91c-38">
    <g transform="translate(8.81,41.66)" id="img-6a47d91c-39">
      <g class="primitive">
        <text text-anchor="middle" dy="0.35em" transform="rotate(-90,0, 2)">f(x)</text>
      </g>
    </g>
  </g>
</g>
<defs>
  <clipPath id="img-6a47d91c-13">
    <path d="M28.4,5 L240.16,5 240.16,82.32 28.4,82.32 " />
  </clipPath>
</defs>
</svg>
