<?xml version="1.0" encoding="UTF-8"?>
<svg xmlns="http://www.w3.org/2000/svg"
     xmlns:xlink="http://www.w3.org/1999/xlink"
     xmlns:gadfly="http://www.gadflyjl.org/ns"
     version="1.2"
     width="254mm" height="76.2mm" viewBox="0 0 254 76.2"
     stroke="none"
     fill="#000000"
     stroke-width="0.3"
     font-size="3.88"
>
<defs>
  <marker id="arrow" markerWidth="15" markerHeight="7" refX="5" refY="3.5" orient="auto" markerUnits="strokeWidth">
    <path d="M0,0 L15,3.5 L0,7 z" stroke="context-stroke" fill="context-stroke"/>
  </marker>
</defs>
<g class="plotroot xscalable yscalable" id="img-600935cc-1">
  <g font-size="3.18" font-family="'PT Sans','Helvetica Neue','Helvetica',sans-serif" fill="#202020" stroke="#000000" stroke-opacity="0.000" id="img-600935cc-2">
    <g transform="translate(122.69,69.54)">
      <g class="primitive">
        <text text-anchor="middle" dy="0.6em">Energy (eV)</text>
      </g>
    </g>
  </g>
  <g class="guide xlabels" font-size="2.82" font-family="'PT Sans Caption','Helvetica Neue','Helvetica',sans-serif" fill="#6C606B" id="img-600935cc-3">
    <g transform="translate(21.7,62.87)">
      <g class="primitive">
        <text text-anchor="middle" dy="0.6em">0</text>
      </g>
    </g>
    <g transform="translate(72.19,62.87)">
      <g class="primitive">
        <text text-anchor="middle" dy="0.6em">2000</text>
      </g>
    </g>
    <g transform="translate(122.69,62.87)">
      <g class="primitive">
        <text text-anchor="middle" dy="0.6em">4000</text>
      </g>
    </g>
    <g transform="translate(173.18,62.87)">
      <g class="primitive">
        <text text-anchor="middle" dy="0.6em">6000</text>
      </g>
    </g>
    <g transform="translate(223.67,62.87)">
      <g class="primitive">
        <text text-anchor="middle" dy="0.6em">8000</text>
      </g>
    </g>
  </g>
  <g class="guide colorkey" id="img-600935cc-4">
    <g fill="#4C404B" font-size="2.82" font-family="'PT Sans','Helvetica Neue','Helvetica',sans-serif" id="img-600935cc-5">
      <g transform="translate(230.3,31.7)" id="img-600935cc-6">
        <g class="primitive">
          <text dy="0.35em">SiO2 std</text>
        </g>
      </g>
      <g transform="translate(230.3,35.33)" id="img-600935cc-7">
        <g class="primitive">
          <text dy="0.35em">CharOnly[SiO2 std]</text>
        </g>
      </g>
    </g>
    <g stroke-width="0.3" id="img-600935cc-8">
      <g stroke="#FFFFFF" fill-opacity="1" fill="#B70002" id="img-600935cc-9">
        <g transform="translate(227.49,35.33)" id="img-600935cc-10">
          <circle cx="0" cy="0" r="0.9" class="primitive"/>
        </g>
      </g>
      <g stroke="#FFFFFF" fill-opacity="1" fill="#104E8B" id="img-600935cc-11">
        <g transform="translate(227.49,31.7)" id="img-600935cc-12">
          <circle cx="0" cy="0" r="0.9" class="primitive"/>
        </g>
      </g>
    </g>
    <g fill="#362A35" font-size="3.18" font-family="'PT Sans','Helvetica Neue','Helvetica',sans-serif" stroke="#000000" stroke-opacity="0.000" id="img-600935cc-13">
      <g transform="translate(226.67,28.39)" id="img-600935cc-14">
        <g class="primitive">
          <text dy="-0em">Spectra</text>
        </g>
      </g>
    </g>
  </g>
  <g clip-path="url(#img-600935cc-15)">
    <g id="img-600935cc-16">
      <g pointer-events="visible" stroke-width="0.3" fill="#FDFDF1" stroke="#202020" class="guide background" id="img-600935cc-17">
        <g transform="translate(122.69,31.29)" id="img-600935cc-18">
          <path d="M-102.99,-30.58 L102.99,-30.58 102.99,30.58 -102.99,30.58  z" class="primitive"/>
        </g>
      </g>
      <g class="guide ygridlines xfixed" stroke-dasharray="none" stroke-width="0.2" stroke="#FFDFDF" id="img-600935cc-19">
        <g transform="translate(122.69,59.87)" id="img-600935cc-20">
          <path fill="none" d="M-102.99,0 L102.99,0 " class="primitive"/>
        </g>
        <g transform="translate(122.69,42.2)" id="img-600935cc-21">
          <path fill="none" d="M-102.99,0 L102.99,0 " class="primitive"/>
        </g>
        <g transform="translate(122.69,24.53)" id="img-600935cc-22">
          <path fill="none" d="M-102.99,0 L102.99,0 " class="primitive"/>
        </g>
        <g transform="translate(122.69,6.86)" id="img-600935cc-23">
          <path fill="none" d="M-102.99,0 L102.99,0 " class="primitive"/>
        </g>
      </g>
      <g class="guide xgridlines yfixed" stroke-dasharray="none" stroke-width="0.2" stroke="#FFDFDF" id="img-600935cc-24">
        <g transform="translate(21.7,31.29)" id="img-600935cc-25">
          <path fill="none" d="M0,-30.58 L0,30.58 " class="primitive"/>
        </g>
        <g transform="translate(72.19,31.29)" id="img-600935cc-26">
          <path fill="none" d="M0,-30.58 L0,30.58 " class="primitive"/>
        </g>
        <g transform="translate(122.69,31.29)" id="img-600935cc-27">
          <path fill="none" d="M0,-30.58 L0,30.58 " class="primitive"/>
        </g>
        <g transform="translate(173.18,31.29)" id="img-600935cc-28">
          <path fill="none" d="M0,-30.58 L0,30.58 " class="primitive"/>
        </g>
        <g transform="translate(223.67,31.29)" id="img-600935cc-29">
          <path fill="none" d="M0,-30.58 L0,30.58 " class="primitive"/>
        </g>
      </g>
      <g class="plotpanel" id="img-600935cc-30">
        <metadata>
          <boundingbox value="19.70055555555556mm 0.7055555555555555mm 205.9738888888889mm 61.16055555555556mm"/>
          <unitbox value="-79.21816076335499 167422.12399576243 8158.436321526709 -173082.0479915249"/>
        </metadata>
        <g stroke-width="0.3" fill="#000000" fill-opacity="0.000" class="geometry" id="img-600935cc-31">
          <g class="color_RGB{N0f8}(0.718,0.0,0.008)" stroke-dasharray="none" stroke="#B70002" id="img-600935cc-32">
            <g transform="translate(122.65,43.79)" id="img-600935cc-33">
              <path fill="none" d="M-100.91,16.07 L-100.66,16.07 -100.66,16.07 -100.4,16.07 -100.4,16.07 -100.15,16.07 -100.15,16.07 -99.9,16.07 -99.9,16.07 -99.65,16.07 -99.65,16.07 -99.39,16.07 -99.39,16.07 -99.14,16.07 -99.14,16.07 -98.89,16.07 -98.89,16.07 -98.64,16.07 -98.64,16.07 -98.38,16.07 -98.38,16.07 -98.13,16.07 -98.13,16.07 -97.88,16.07 -97.88,16.07 -97.63,16.07 -97.63,16.06 -97.38,16.06 -97.38,16.06 -97.12,16.06 -97.12,16.05 -96.87,16.05 -96.87,16.03 -96.62,16.03 -96.62,15.98 -96.37,15.98 -96.37,15.91 -96.11,15.91 -96.11,15.79 -95.86,15.79 -95.86,15.56 -95.61,15.56 -95.61,15.08 -95.36,15.08 -95.36,14.22 -95.1,14.22 -95.1,12.87 -94.85,12.87 -94.85,10.82 -94.6,10.82 -94.6,8.65 -94.35,8.65 -94.35,6.66 -94.09,6.66 -94.09,6.12 -93.84,6.12 -93.84,7.06 -93.59,7.06 -93.59,8.83 -93.34,8.83 -93.34,10.97 -93.08,10.97 -93.08,12.72 -92.83,12.72 -92.83,14.18 -92.58,14.18 -92.58,15.15 -92.33,15.15 -92.33,15.88 -92.07,15.88 -92.07,16.34 -91.82,16.34 -91.82,16.64 -91.57,16.64 -91.57,16.77 -91.32,16.77 -91.32,16.72 -91.06,16.72 -91.06,16.5 -90.81,16.5 -90.81,15.58 -90.56,15.58 -90.56,14.66 -90.31,14.66 -90.31,13.39 -90.05,13.39 -90.05,10.62 -89.8,10.62 -89.8,4.88 -89.55,4.88 -89.55,-6.52 -89.3,-6.52 -89.3,-27.6 -89.04,-27.6 -89.04,-63.59 -88.79,-63.59 -88.79,-118.27 -88.54,-118.27 -88.54,-188.43 -88.29,-188.43 -88.29,-260.05 -88.04,-260.05 -88.04,-312.16 -87.78,-312.16 -87.78,-324.81 -87.53,-324.81 -87.53,-291.35 -87.28,-291.35 -87.28,-225.48 -87.03,-225.48 -87.03,-148.31 -86.77,-148.31 -86.77,-81.44 -86.52,-81.44 -86.52,-34.67 -86.27,-34.67 -86.27,-7.13 -86.02,-7.13 -86.02,6.73 -85.76,6.73 -85.76,13.02 -85.51,13.02 -85.51,15.58 -85.26,15.58 -85.26,16.66 -85.01,16.66 -85.01,17.1 -84.75,17.1 -84.75,17.13 -84.5,17.13 -84.5,17.1 -84.25,17.1 -84.25,16.95 -84,16.95 -84,16.88 -83.74,16.88 -83.74,16.58 -83.49,16.58 -83.49,16.43 -83.24,16.43 -83.24,16.22 -82.99,16.22 -82.99,16.06 -82.73,16.06 -82.73,15.95 -82.48,15.95 -82.48,15.94 -82.23,15.94 -82.23,15.98 -81.98,15.98 -81.98,15.98 -81.72,15.98 -81.72,16.01 -81.47,16.01 -81.47,15.97 -81.22,15.97 -81.22,15.9 -80.97,15.9 -80.97,15.9 -80.71,15.9 -80.71,15.82 -80.46,15.82 -80.46,15.82 -80.21,15.82 -80.21,15.81 -79.96,15.81 -79.96,15.82 -79.71,15.82 -79.71,15.71 -79.45,15.71 -79.45,15.76 -79.2,15.76 -79.2,15.72 -78.95,15.72 -78.95,15.81 -78.7,15.81 -78.7,15.7 -78.44,15.7 -78.44,15.76 -78.19,15.76 -78.19,15.9 -77.94,15.9 -77.94,15.8 -77.69,15.8 -77.69,15.75 -77.43,15.75 -77.43,15.73 -77.18,15.73 -77.18,15.64 -76.93,15.64 -76.93,15.77 -76.68,15.77 -76.68,15.68 -76.42,15.68 -76.42,15.71 -76.17,15.71 -76.17,15.6 -75.92,15.6 -75.92,15.52 -75.67,15.52 -75.67,15.42 -75.41,15.42 -75.41,15.34 -75.16,15.34 -75.16,15.26 -74.91,15.26 -74.91,15.08 -74.66,15.08 -74.66,15.26 -74.4,15.26 -74.4,15.18 -74.15,15.18 -74.15,15.3 -73.9,15.3 -73.9,15.37 -73.65,15.37 -73.65,15.55 -73.39,15.55 -73.39,15.5 -73.14,15.5 -73.14,15.6 -72.89,15.6 -72.89,15.51 -72.64,15.51 -72.64,15.57 -72.38,15.57 -72.38,15.54 -72.13,15.54 -72.13,15.57 -71.88,15.57 -71.88,15.49 -71.63,15.49 -71.63,15.54 -71.37,15.54 -71.37,15.47 -71.12,15.47 -71.12,15.44 -70.87,15.44 -70.87,15.38 -70.62,15.38 -70.62,15.44 -70.37,15.44 -70.37,15.39 -70.11,15.39 -70.11,15.42 -69.86,15.42 -69.86,15.18 -69.61,15.18 -69.61,15.27 -69.36,15.27 -69.36,15.23 -69.1,15.23 -69.1,15.12 -68.85,15.12 -68.85,15.23 -68.6,15.23 -68.6,15.04 -68.35,15.04 -68.35,15.1 -68.09,15.1 -68.09,14.99 -67.84,14.99 -67.84,14.93 -67.59,14.93 -67.59,14.91 -67.34,14.91 -67.34,14.87 -67.08,14.87 -67.08,14.69 -66.83,14.69 -66.83,14.76 -66.58,14.76 -66.58,14.61 -66.33,14.61 -66.33,14.54 -66.07,14.54 -66.07,14.47 -65.82,14.47 -65.82,14.19 -65.57,14.19 -65.57,14.08 -65.32,14.08 -65.32,13.87 -65.06,13.87 -65.06,13.65 -64.81,13.65 -64.81,13.38 -64.56,13.38 -64.56,12.98 -64.31,12.98 -64.31,12.7 -64.05,12.7 -64.05,12.21 -63.8,12.21 -63.8,11.8 -63.55,11.8 -63.55,11.55 -63.3,11.55 -63.3,11.17 -63.04,11.17 -63.04,10.96 -62.79,10.96 -62.79,10.98 -62.54,10.98 -62.54,10.94 -62.29,10.94 -62.29,10.94 -62.03,10.94 -62.03,10.98 -61.78,10.98 -61.78,10.65 -61.53,10.65 -61.53,10.43 -61.28,10.43 -61.28,10.34 -61.03,10.34 -61.03,10.46 -60.77,10.46 -60.77,10.28 -60.52,10.28 -60.52,9.85 -60.27,9.85 -60.27,9.28 -60.02,9.28 -60.02,7.24 -59.76,7.24 -59.76,2.52 -59.51,2.52 -59.51,-7.93 -59.26,-7.93 -59.26,-29.15 -59.01,-29.15 -59.01,-69.32 -58.75,-69.32 -58.75,-137.62 -58.5,-137.62 -58.5,-243.67 -58.25,-243.67 -58.25,-389.87 -58,-389.87 -58,-573.36 -57.74,-573.36 -57.74,-770.14 -57.49,-770.14 -57.49,-949.38 -57.24,-949.38 -57.24,-1075.6 -56.99,-1075.6 -56.99,-1117.86 -56.73,-1117.86 -56.73,-1070.49 -56.48,-1070.49 -56.48,-944.51 -56.23,-944.51 -56.23,-769.48 -55.98,-769.48 -55.98,-579.6 -55.72,-579.6 -55.72,-407.33 -55.47,-407.33 -55.47,-270.8 -55.22,-270.8 -55.22,-172.7 -54.97,-172.7 -54.97,-108.54 -54.71,-108.54 -54.71,-69.14 -54.46,-69.14 -54.46,-44.84 -54.21,-44.84 -54.21,-28.84 -53.96,-28.84 -53.96,-17.02 -53.7,-17.02 -53.7,-7.7 -53.45,-7.7 -53.45,-0.36 -53.2,-0.36 -53.2,5.16 -52.95,5.16 -52.95,9.29 -52.69,9.29 -52.69,12.09 -52.44,12.09 -52.44,13.85 -52.19,13.85 -52.19,14.94 -51.94,14.94 -51.94,15.7 -51.69,15.7 -51.69,16 -51.43,16 -51.43,16.13 -51.18,16.13 -51.18,16.22 -50.93,16.22 -50.93,16.22 -50.68,16.22 -50.68,16.28 -50.42,16.28 -50.42,16.25 -50.17,16.25 -50.17,16.34 -49.92,16.34 -49.92,16.3 -49.67,16.3 -49.67,16.43 -49.41,16.43 -49.41,16.32 -49.16,16.32 -49.16,16.41 -48.91,16.41 -48.91,16.39 -48.66,16.39 -48.66,16.42 -48.4,16.42 -48.4,16.41 -48.15,16.41 -48.15,16.44 -47.9,16.44 -47.9,16.49 -47.65,16.49 -47.65,16.36 -47.39,16.36 -47.39,16.39 -47.14,16.39 -47.14,16.32 -46.89,16.32 -46.89,16.32 -46.64,16.32 -46.64,16.35 -46.38,16.35 -46.38,16.19 -46.13,16.19 -46.13,16.07 -45.88,16.07 -45.88,16.07 -45.63,16.07 -45.63,16.07 -45.37,16.07 -45.37,16.07 -45.12,16.07 -45.12,16.07 -44.87,16.07 -44.87,16.07 -44.62,16.07 -44.62,16.07 -44.36,16.07 -44.36,16.07 -44.11,16.07 -44.11,16.07 -43.86,16.07 -43.86,16.07 -43.61,16.07 -43.61,16.07 -43.35,16.07 -43.35,16.07 -43.1,16.07 -43.1,16.07 -42.85,16.07 -42.85,16.07 -42.6,16.07 -42.6,16.07 -42.35,16.07 -42.35,16.07 -42.09,16.07 -42.09,16.07 -41.84,16.07 -41.84,16.07 -41.59,16.07 -41.59,16.07 -41.34,16.07 -41.34,16.07 -41.08,16.07 -41.08,16.07 -40.83,16.07 -40.83,16.07 -40.58,16.07 -40.58,16.07 -40.33,16.07 -40.33,16.07 -40.07,16.07 -40.07,16.07 -39.82,16.07 -39.82,16.07 -39.57,16.07 -39.57,16.07 -39.32,16.07 -39.32,16.07 -39.06,16.07 -39.06,16.07 -38.81,16.07 -38.81,16.07 -38.56,16.07 -38.56,16.07 -38.31,16.07 -38.31,16.07 -38.05,16.07 -38.05,16.07 -37.8,16.07 -37.8,16.07 -37.55,16.07 -37.55,16.07 -37.3,16.07 -37.3,16.07 -37.04,16.07 -37.04,16.07 -36.79,16.07 -36.79,16.07 -36.54,16.07 -36.54,16.07 -36.29,16.07 -36.29,16.07 -36.03,16.07 -36.03,16.07 -35.78,16.07 -35.78,16.07 -35.53,16.07 -35.53,16.07 -35.28,16.07 -35.28,16.07 -35.02,16.07 -35.02,16.07 -34.77,16.07 -34.77,16.07 -34.52,16.07 -34.52,16.07 -34.27,16.07 -34.27,16.07 -34.02,16.07 -34.02,16.07 -33.76,16.07 -33.76,16.07 -33.51,16.07 -33.51,16.07 -33.26,16.07 -33.26,16.07 -33.01,16.07 -33.01,16.07 -32.75,16.07 -32.75,16.07 -32.5,16.07 -32.5,16.07 -32.25,16.07 -32.25,16.07 -32,16.07 -32,16.07 -31.74,16.07 -31.74,16.07 -31.49,16.07 -31.49,16.07 -31.24,16.07 -31.24,16.07 -30.99,16.07 -30.99,16.07 -30.73,16.07 -30.73,16.07 -30.48,16.07 -30.48,16.07 -30.23,16.07 -30.23,16.07 -29.98,16.07 -29.98,16.07 -29.72,16.07 -29.72,16.07 -29.47,16.07 -29.47,16.07 -29.22,16.07 -29.22,16.07 -28.97,16.07 -28.97,16.07 -28.71,16.07 -28.71,16.07 -28.46,16.07 -28.46,16.07 -28.21,16.07 -28.21,16.07 -27.96,16.07 -27.96,16.07 -27.7,16.07 -27.7,16.07 -27.45,16.07 -27.45,16.07 -27.2,16.07 -27.2,16.07 -26.95,16.07 -26.95,16.07 -26.69,16.07 -26.69,16.07 -26.44,16.07 -26.44,16.07 -26.19,16.07 -26.19,16.07 -25.94,16.07 -25.94,16.07 -25.68,16.07 -25.68,16.07 -25.43,16.07 -25.43,16.07 -25.18,16.07 -25.18,16.07 -24.93,16.07 -24.93,16.07 -24.68,16.07 -24.68,16.07 -24.42,16.07 -24.42,16.07 -24.17,16.07 -24.17,16.07 -23.92,16.07 -23.92,16.07 -23.67,16.07 -23.67,16.07 -23.41,16.07 -23.41,16.07 -23.16,16.07 -23.16,16.07 -22.91,16.07 -22.91,16.07 -22.66,16.07 -22.66,16.07 -22.4,16.07 -22.4,16.07 -22.15,16.07 -22.15,16.07 -21.9,16.07 -21.9,16.07 -21.65,16.07 -21.65,16.07 -21.39,16.07 -21.39,16.07 -21.14,16.07 -21.14,16.07 -20.89,16.07 -20.89,16.07 -20.64,16.07 -20.64,16.07 -20.38,16.07 -20.38,16.07 -20.13,16.07 -20.13,16.07 -19.88,16.07 -19.88,16.07 -19.63,16.07 -19.63,16.07 -19.37,16.07 -19.37,16.07 -19.12,16.07 -19.12,16.07 -18.87,16.07 -18.87,16.07 -18.62,16.07 -18.62,16.07 -18.36,16.07 -18.36,16.07 -18.11,16.07 -18.11,16.07 -17.86,16.07 -17.86,16.07 -17.61,16.07 -17.61,16.07 -17.35,16.07 -17.35,16.07 -17.1,16.07 -17.1,16.07 -16.85,16.07 -16.85,16.07 -16.6,16.07 -16.6,16.07 -16.34,16.07 -16.34,16.07 -16.09,16.07 -16.09,16.07 -15.84,16.07 -15.84,16.07 -15.59,16.07 -15.59,16.07 -15.34,16.07 -15.34,16.07 -15.08,16.07 -15.08,16.07 -14.83,16.07 -14.83,16.07 -14.58,16.07 -14.58,16.07 -14.33,16.07 -14.33,16.07 -14.07,16.07 -14.07,16.07 -13.82,16.07 -13.82,16.07 -13.57,16.07 -13.57,16.07 -13.32,16.07 -13.32,16.07 -13.06,16.07 -13.06,16.07 -12.81,16.07 -12.81,16.07 -12.56,16.07 -12.56,16.07 -12.31,16.07 -12.31,16.07 -12.05,16.07 -12.05,16.07 -11.8,16.07 -11.8,16.07 -11.55,16.07 -11.55,16.07 -11.3,16.07 -11.3,16.07 -11.04,16.07 -11.04,16.07 -10.79,16.07 -10.79,16.07 -10.54,16.07 -10.54,16.07 -10.29,16.07 -10.29,16.07 -10.03,16.07 -10.03,16.07 -9.78,16.07 -9.78,16.07 -9.53,16.07 -9.53,16.07 -9.28,16.07 -9.28,16.07 -9.02,16.07 -9.02,16.07 -8.77,16.07 -8.77,16.07 -8.52,16.07 -8.52,16.07 -8.27,16.07 -8.27,16.07 -8.01,16.07 -8.01,16.07 -7.76,16.07 -7.76,16.07 -7.51,16.07 -7.51,16.07 -7.26,16.07 -7.26,16.07 -7,16.07 -7,16.07 -6.75,16.07 -6.75,16.07 -6.5,16.07 -6.5,16.07 -6.25,16.07 -6.25,16.07 -6,16.07 -6,16.07 -5.74,16.07 -5.74,16.07 -5.49,16.07 -5.49,16.07 -5.24,16.07 -5.24,16.07 -4.99,16.07 -4.99,16.07 -4.73,16.07 -4.73,16.07 -4.48,16.07 -4.48,16.07 -4.23,16.07 -4.23,16.07 -3.98,16.07 -3.98,16.07 -3.72,16.07 -3.72,16.07 -3.47,16.07 -3.47,16.07 -3.22,16.07 -3.22,16.07 -2.97,16.07 -2.97,16.07 -2.71,16.07 -2.71,16.07 -2.46,16.07 -2.46,16.07 -2.21,16.07 -2.21,16.07 -1.96,16.07 -1.96,16.07 -1.7,16.07 -1.7,16.07 -1.45,16.07 -1.45,16.07 -1.2,16.07 -1.2,16.07 -0.95,16.07 -0.95,16.07 -0.69,16.07 -0.69,16.07 -0.44,16.07 -0.44,16.07 -0.19,16.07 -0.19,16.07 0.06,16.07 0.06,16.07 0.32,16.07 0.32,16.07 0.57,16.07 0.57,16.07 0.82,16.07 0.82,16.07 1.07,16.07 1.07,16.07 1.33,16.07 1.33,16.07 1.58,16.07 1.58,16.07 1.83,16.07 1.83,16.07 2.08,16.07 2.08,16.07 2.34,16.07 2.34,16.07 2.59,16.07 2.59,16.07 2.84,16.07 2.84,16.07 3.09,16.07 3.09,16.07 3.34,16.07 3.34,16.07 3.6,16.07 3.6,16.07 3.85,16.07 3.85,16.07 4.1,16.07 4.1,16.07 4.35,16.07 4.35,16.07 4.61,16.07 4.61,16.07 4.86,16.07 4.86,16.07 5.11,16.07 5.11,16.07 5.36,16.07 5.36,16.07 5.62,16.07 5.62,16.07 5.87,16.07 5.87,16.07 6.12,16.07 6.12,16.07 6.37,16.07 6.37,16.07 6.63,16.07 6.63,16.07 6.88,16.07 6.88,16.07 7.13,16.07 7.13,16.07 7.38,16.07 7.38,16.07 7.64,16.07 7.64,16.07 7.89,16.07 7.89,16.07 8.14,16.07 8.14,16.07 8.39,16.07 8.39,16.07 8.65,16.07 8.65,16.07 8.9,16.07 8.9,16.07 9.15,16.07 9.15,16.07 9.4,16.07 9.4,16.07 9.66,16.07 9.66,16.07 9.91,16.07 9.91,16.07 10.16,16.07 10.16,16.07 10.41,16.07 10.41,16.07 10.67,16.07 10.67,16.07 10.92,16.07 10.92,16.07 11.17,16.07 11.17,16.07 11.42,16.07 11.42,16.07 11.67,16.07 11.67,16.07 11.93,16.07 11.93,16.07 12.18,16.07 12.18,16.07 12.43,16.07 12.43,16.07 12.68,16.07 12.68,16.07 12.94,16.07 12.94,16.07 13.19,16.07 13.19,16.07 13.44,16.07 13.44,16.07 13.69,16.07 13.69,16.07 13.95,16.07 13.95,16.07 14.2,16.07 14.2,16.07 14.45,16.07 14.45,16.07 14.7,16.07 14.7,16.07 14.96,16.07 14.96,16.07 15.21,16.07 15.21,16.07 15.46,16.07 15.46,16.07 15.71,16.07 15.71,16.07 15.97,16.07 15.97,16.07 16.22,16.07 16.22,16.07 16.47,16.07 16.47,16.07 16.72,16.07 16.72,16.07 16.98,16.07 16.98,16.07 17.23,16.07 17.23,16.07 17.48,16.07 17.48,16.07 17.73,16.07 17.73,16.07 17.99,16.07 17.99,16.07 18.24,16.07 18.24,16.07 18.49,16.07 18.49,16.07 18.74,16.07 18.74,16.07 19,16.07 19,16.07 19.25,16.07 19.25,16.07 19.5,16.07 19.5,16.07 19.75,16.07 19.75,16.07 20.01,16.07 20.01,16.07 20.26,16.07 20.26,16.07 20.51,16.07 20.51,16.07 20.76,16.07 20.76,16.07 21.01,16.07 21.01,16.07 21.27,16.07 21.27,16.07 21.52,16.07 21.52,16.07 21.77,16.07 21.77,16.07 22.02,16.07 22.02,16.07 22.28,16.07 22.28,16.07 22.53,16.07 22.53,16.07 22.78,16.07 22.78,16.07 23.03,16.07 23.03,16.07 23.29,16.07 23.29,16.07 23.54,16.07 23.54,16.07 23.79,16.07 23.79,16.07 24.04,16.07 24.04,16.07 24.3,16.07 24.3,16.07 24.55,16.07 24.55,16.07 24.8,16.07 24.8,16.07 25.05,16.07 25.05,16.07 25.31,16.07 25.31,16.07 25.56,16.07 25.56,16.07 25.81,16.07 25.81,16.07 26.06,16.07 26.06,16.07 26.32,16.07 26.32,16.07 26.57,16.07 26.57,16.07 26.82,16.07 26.82,16.07 27.07,16.07 27.07,16.07 27.33,16.07 27.33,16.07 27.58,16.07 27.58,16.07 27.83,16.07 27.83,16.07 28.08,16.07 28.08,16.07 28.34,16.07 28.34,16.07 28.59,16.07 28.59,16.07 28.84,16.07 28.84,16.07 29.09,16.07 29.09,16.07 29.35,16.07 29.35,16.07 29.6,16.07 29.6,16.07 29.85,16.07 29.85,16.07 30.1,16.07 30.1,16.07 30.35,16.07 30.35,16.07 30.61,16.07 30.61,16.07 30.86,16.07 30.86,16.07 31.11,16.07 31.11,16.07 31.36,16.07 31.36,16.07 31.62,16.07 31.62,16.07 31.87,16.07 31.87,16.07 32.12,16.07 32.12,16.07 32.37,16.07 32.37,16.07 32.63,16.07 32.63,16.07 32.88,16.07 32.88,16.07 33.13,16.07 33.13,16.07 33.38,16.07 33.38,16.07 33.64,16.07 33.64,16.07 33.89,16.07 33.89,16.07 34.14,16.07 34.14,16.07 34.39,16.07 34.39,16.07 34.65,16.07 34.65,16.07 34.9,16.07 34.9,16.07 35.15,16.07 35.15,16.07 35.4,16.07 35.4,16.07 35.66,16.07 35.66,16.07 35.91,16.07 35.91,16.07 36.16,16.07 36.16,16.07 36.41,16.07 36.41,16.07 36.67,16.07 36.67,16.07 36.92,16.07 36.92,16.07 37.17,16.07 37.17,16.07 37.42,16.07 37.42,16.07 37.68,16.07 37.68,16.07 37.93,16.07 37.93,16.07 38.18,16.07 38.18,16.07 38.43,16.07 38.43,16.07 38.69,16.07 38.69,16.07 38.94,16.07 38.94,16.07 39.19,16.07 39.19,16.07 39.44,16.07 39.44,16.07 39.69,16.07 39.69,16.07 39.95,16.07 39.95,16.07 40.2,16.07 40.2,16.07 40.45,16.07 40.45,16.07 40.7,16.07 40.7,16.07 40.96,16.07 40.96,16.07 41.21,16.07 41.21,16.07 41.46,16.07 41.46,16.07 41.71,16.07 41.71,16.07 41.97,16.07 41.97,16.07 42.22,16.07 42.22,16.07 42.47,16.07 42.47,16.07 42.72,16.07 42.72,16.07 42.98,16.07 42.98,16.07 43.23,16.07 43.23,16.07 43.48,16.07 43.48,16.07 43.73,16.07 43.73,16.07 43.99,16.07 43.99,16.07 44.24,16.07 44.24,16.07 44.49,16.07 44.49,16.07 44.74,16.07 44.74,16.07 45,16.07 45,16.07 45.25,16.07 45.25,16.07 45.5,16.07 45.5,16.07 45.75,16.07 45.75,16.07 46.01,16.07 46.01,16.07 46.26,16.07 46.26,16.07 46.51,16.07 46.51,16.07 46.76,16.07 46.76,16.07 47.02,16.07 47.02,16.07 47.27,16.07 47.27,16.07 47.52,16.07 47.52,16.07 47.77,16.07 47.77,16.07 48.03,16.07 48.03,16.07 48.28,16.07 48.28,16.07 48.53,16.07 48.53,16.07 48.78,16.07 48.78,16.07 49.03,16.07 49.03,16.07 49.29,16.07 49.29,16.07 49.54,16.07 49.54,16.07 49.79,16.07 49.79,16.07 50.04,16.07 50.04,16.07 50.3,16.07 50.3,16.07 50.55,16.07 50.55,16.07 50.8,16.07 50.8,16.07 51.05,16.07 51.05,16.07 51.31,16.07 51.31,16.07 51.56,16.07 51.56,16.07 51.81,16.07 51.81,16.07 52.06,16.07 52.06,16.07 52.32,16.07 52.32,16.07 52.57,16.07 52.57,16.07 52.82,16.07 52.82,16.07 53.07,16.07 53.07,16.07 53.33,16.07 53.33,16.07 53.58,16.07 53.58,16.07 53.83,16.07 53.83,16.07 54.08,16.07 54.08,16.07 54.34,16.07 54.34,16.07 54.59,16.07 54.59,16.07 54.84,16.07 54.84,16.07 55.09,16.07 55.09,16.07 55.35,16.07 55.35,16.07 55.6,16.07 55.6,16.07 55.85,16.07 55.85,16.07 56.1,16.07 56.1,16.07 56.36,16.07 56.36,16.07 56.61,16.07 56.61,16.07 56.86,16.07 56.86,16.07 57.11,16.07 57.11,16.07 57.36,16.07 57.36,16.07 57.62,16.07 57.62,16.07 57.87,16.07 57.87,16.07 58.12,16.07 58.12,16.07 58.37,16.07 58.37,16.07 58.63,16.07 58.63,16.07 58.88,16.07 58.88,16.07 59.13,16.07 59.13,16.07 59.38,16.07 59.38,16.07 59.64,16.07 59.64,16.07 59.89,16.07 59.89,16.07 60.14,16.07 60.14,16.07 60.39,16.07 60.39,16.07 60.65,16.07 60.65,16.07 60.9,16.07 60.9,16.07 61.15,16.07 61.15,16.07 61.4,16.07 61.4,16.07 61.66,16.07 61.66,16.07 61.91,16.07 61.91,16.07 62.16,16.07 62.16,16.07 62.41,16.07 62.41,16.07 62.67,16.07 62.67,16.07 62.92,16.07 62.92,16.07 63.17,16.07 63.17,16.07 63.42,16.07 63.42,16.07 63.68,16.07 63.68,16.07 63.93,16.07 63.93,16.07 64.18,16.07 64.18,16.07 64.43,16.07 64.43,16.07 64.69,16.07 64.69,16.07 64.94,16.07 64.94,16.07 65.19,16.07 65.19,16.07 65.44,16.07 65.44,16.07 65.7,16.07 65.7,16.07 65.95,16.07 65.95,16.07 66.2,16.07 66.2,16.07 66.45,16.07 66.45,16.07 66.7,16.07 66.7,16.07 66.96,16.07 66.96,16.07 67.21,16.07 67.21,16.07 67.46,16.07 67.46,16.07 67.71,16.07 67.71,16.07 67.97,16.07 67.97,16.07 68.22,16.07 68.22,16.07 68.47,16.07 68.47,16.07 68.72,16.07 68.72,16.07 68.98,16.07 68.98,16.07 69.23,16.07 69.23,16.07 69.48,16.07 69.48,16.07 69.73,16.07 69.73,16.07 69.99,16.07 69.99,16.07 70.24,16.07 70.24,16.07 70.49,16.07 70.49,16.07 70.74,16.07 70.74,16.07 71,16.07 71,16.07 71.25,16.07 71.25,16.07 71.5,16.07 71.5,16.07 71.75,16.07 71.75,16.07 72.01,16.07 72.01,16.07 72.26,16.07 72.26,16.07 72.51,16.07 72.51,16.07 72.76,16.07 72.76,16.07 73.02,16.07 73.02,16.07 73.27,16.07 73.27,16.07 73.52,16.07 73.52,16.07 73.77,16.07 73.77,16.07 74.03,16.07 74.03,16.07 74.28,16.07 74.28,16.07 74.53,16.07 74.53,16.07 74.78,16.07 74.78,16.07 75.04,16.07 75.04,16.07 75.29,16.07 75.29,16.07 75.54,16.07 75.54,16.07 75.79,16.07 75.79,16.07 76.04,16.07 76.04,16.07 76.3,16.07 76.3,16.07 76.55,16.07 76.55,16.07 76.8,16.07 76.8,16.07 77.05,16.07 77.05,16.07 77.31,16.07 77.31,16.07 77.56,16.07 77.56,16.07 77.81,16.07 77.81,16.07 78.06,16.07 78.06,16.07 78.32,16.07 78.32,16.07 78.57,16.07 78.57,16.07 78.82,16.07 78.82,16.07 79.07,16.07 79.07,16.07 79.33,16.07 79.33,16.07 79.58,16.07 79.58,16.07 79.83,16.07 79.83,16.07 80.08,16.07 80.08,16.07 80.34,16.07 80.34,16.07 80.59,16.07 80.59,16.07 80.84,16.07 80.84,16.07 81.09,16.07 81.09,16.07 81.35,16.07 81.35,16.07 81.6,16.07 81.6,16.07 81.85,16.07 81.85,16.07 82.1,16.07 82.1,16.07 82.36,16.07 82.36,16.07 82.61,16.07 82.61,16.07 82.86,16.07 82.86,16.07 83.11,16.07 83.11,16.07 83.37,16.07 83.37,16.07 83.62,16.07 83.62,16.07 83.87,16.07 83.87,16.07 84.12,16.07 84.12,16.07 84.38,16.07 84.38,16.07 84.63,16.07 84.63,16.07 84.88,16.07 84.88,16.07 85.13,16.07 85.13,16.07 85.38,16.07 85.38,16.07 85.64,16.07 85.64,16.07 85.89,16.07 85.89,16.07 86.14,16.07 86.14,16.07 86.39,16.07 86.39,16.07 86.65,16.07 86.65,16.07 86.9,16.07 86.9,16.07 87.15,16.07 87.15,16.07 87.4,16.07 87.4,16.07 87.66,16.07 87.66,16.07 87.91,16.07 87.91,16.07 88.16,16.07 88.16,16.07 88.41,16.07 88.41,16.07 88.67,16.07 88.67,16.07 88.92,16.07 88.92,16.07 89.17,16.07 89.17,16.07 89.42,16.07 89.42,16.07 89.68,16.07 89.68,16.07 89.93,16.07 89.93,16.07 90.18,16.07 90.18,16.07 90.43,16.07 90.43,16.07 90.69,16.07 90.69,16.07 90.94,16.07 90.94,16.07 91.19,16.07 91.19,16.07 91.44,16.07 91.44,16.07 91.7,16.07 91.7,16.07 91.95,16.07 91.95,16.07 92.2,16.07 92.2,16.07 92.45,16.07 92.45,16.07 92.71,16.07 92.71,16.07 92.96,16.07 92.96,16.07 93.21,16.07 93.21,16.07 93.46,16.07 93.46,16.07 93.72,16.07 93.72,16.07 93.97,16.07 93.97,16.07 94.22,16.07 94.22,16.07 94.47,16.07 94.47,16.07 94.72,16.07 94.72,16.07 94.98,16.07 94.98,16.07 95.23,16.07 95.23,16.07 95.48,16.07 95.48,16.07 95.73,16.07 95.73,16.07 95.99,16.07 95.99,16.07 96.24,16.07 96.24,16.07 96.49,16.07 96.49,16.07 96.74,16.07 96.74,16.07 97,16.07 97,16.07 97.25,16.07 97.25,16.07 97.5,16.07 97.5,16.07 97.75,16.07 97.75,16.07 98.01,16.07 98.01,16.07 98.26,16.07 98.26,16.07 98.51,16.07 98.51,16.07 98.76,16.07 98.76,16.07 99.02,16.07 99.02,16.07 99.27,16.07 99.27,16.07 99.52,16.07 99.52,16.07 99.77,16.07 99.77,16.07 100.03,16.07 100.03,16.07 100.28,16.07 100.28,16.07 100.53,16.07 100.53,16.07 100.78,16.07 100.78,16.07 " class="primitive"/>
            </g>
          </g>
        </g>
        <g stroke-width="0.3" fill="#000000" fill-opacity="0.000" class="geometry" id="img-600935cc-34">
          <g class="color_RGB{N0f8}(0.063,0.306,0.545)" stroke-dasharray="none" stroke="#104E8B" id="img-600935cc-35">
            <g transform="translate(122.65,39.84)" id="img-600935cc-36">
              <path fill="none" d="M-100.91,20.02 L-100.66,20.02 -100.66,20.02 -100.4,20.02 -100.4,20.02 -100.15,20.02 -100.15,20.02 -99.9,20.02 -99.9,20.02 -99.65,20.02 -99.65,20.02 -99.39,20.02 -99.39,20.02 -99.14,20.02 -99.14,20.02 -98.89,20.02 -98.89,20.02 -98.64,20.02 -98.64,20.02 -98.38,20.02 -98.38,20.02 -98.13,20.02 -98.13,20.02 -97.88,20.02 -97.88,20.02 -97.63,20.02 -97.63,20.01 -97.38,20.01 -97.38,20.01 -97.12,20.01 -97.12,20 -96.87,20 -96.87,19.98 -96.62,19.98 -96.62,19.93 -96.37,19.93 -96.37,19.87 -96.11,19.87 -96.11,19.75 -95.86,19.75 -95.86,19.52 -95.61,19.52 -95.61,19.04 -95.36,19.04 -95.36,18.18 -95.1,18.18 -95.1,16.82 -94.85,16.82 -94.85,14.77 -94.6,14.77 -94.6,12.59 -94.35,12.59 -94.35,10.58 -94.09,10.58 -94.09,9.97 -93.84,9.97 -93.84,10.8 -93.59,10.8 -93.59,12.46 -93.34,12.46 -93.34,14.54 -93.08,14.54 -93.08,16.13 -92.83,16.13 -92.83,17.13 -92.58,17.13 -92.58,17.52 -92.33,17.52 -92.33,17.55 -92.07,17.55 -92.07,17.41 -91.82,17.41 -91.82,17.23 -91.57,17.23 -91.57,16.93 -91.32,16.93 -91.32,16.54 -91.06,16.54 -91.06,16.2 -90.81,16.2 -90.81,15.59 -90.56,15.59 -90.56,14.68 -90.31,14.68 -90.31,13.03 -90.05,13.03 -90.05,10.07 -89.8,10.07 -89.8,4.2 -89.55,4.2 -89.55,-7.4 -89.3,-7.4 -89.3,-28.73 -89.04,-28.73 -89.04,-64.97 -88.79,-64.97 -88.79,-119.88 -88.54,-119.88 -88.54,-190.19 -88.29,-190.19 -88.29,-261.82 -88.04,-261.82 -88.04,-313.75 -87.78,-313.75 -87.78,-325.57 -87.53,-325.57 -87.53,-291.03 -87.28,-291.03 -87.28,-224.76 -87.03,-224.76 -87.03,-147.5 -86.77,-147.5 -86.77,-80.54 -86.52,-80.54 -86.52,-33.79 -86.27,-33.79 -86.27,-6.38 -86.02,-6.38 -86.02,7.27 -85.76,7.27 -85.76,13.34 -85.51,13.34 -85.51,15.71 -85.26,15.71 -85.26,16.63 -85.01,16.63 -85.01,16.93 -84.75,16.93 -84.75,16.84 -84.5,16.84 -84.5,16.72 -84.25,16.72 -84.25,16.52 -84,16.52 -84,16.47 -83.74,16.47 -83.74,16.23 -83.49,16.23 -83.49,16.19 -83.24,16.19 -83.24,16.13 -82.99,16.13 -82.99,16.1 -82.73,16.1 -82.73,16.08 -82.48,16.08 -82.48,16.12 -82.23,16.12 -82.23,16.17 -81.98,16.17 -81.98,16.13 -81.72,16.13 -81.72,16.08 -81.47,16.08 -81.47,15.95 -81.22,15.95 -81.22,15.79 -80.97,15.79 -80.97,15.69 -80.71,15.69 -80.71,15.5 -80.46,15.5 -80.46,15.39 -80.21,15.39 -80.21,15.27 -79.96,15.27 -79.96,15.16 -79.71,15.16 -79.71,14.94 -79.45,14.94 -79.45,14.88 -79.2,14.88 -79.2,14.73 -78.95,14.73 -78.95,14.7 -78.7,14.7 -78.7,14.48 -78.44,14.48 -78.44,14.43 -78.19,14.43 -78.19,14.46 -77.94,14.46 -77.94,14.24 -77.69,14.24 -77.69,14.08 -77.43,14.08 -77.43,13.95 -77.18,13.95 -77.18,13.76 -76.93,13.76 -76.93,13.78 -76.68,13.78 -76.68,13.57 -76.42,13.57 -76.42,13.49 -76.17,13.49 -76.17,13.27 -75.92,13.27 -75.92,13.09 -75.67,13.09 -75.67,12.88 -75.41,12.88 -75.41,12.69 -75.16,12.69 -75.16,12.5 -74.91,12.5 -74.91,12.21 -74.66,12.21 -74.66,12.28 -74.4,12.28 -74.4,12.09 -74.15,12.09 -74.15,12.12 -73.9,12.12 -73.9,12.08 -73.65,12.08 -73.65,12.17 -73.39,12.17 -73.39,12.02 -73.14,12.02 -73.14,12.03 -72.89,12.03 -72.89,11.85 -72.64,11.85 -72.64,11.83 -72.38,11.83 -72.38,11.7 -72.13,11.7 -72.13,11.64 -71.88,11.64 -71.88,11.47 -71.63,11.47 -71.63,11.44 -71.37,11.44 -71.37,11.3 -71.12,11.3 -71.12,11.19 -70.87,11.19 -70.87,11.05 -70.62,11.05 -70.62,11.04 -70.37,11.04 -70.37,10.92 -70.11,10.92 -70.11,10.89 -69.86,10.89 -69.86,10.58 -69.61,10.58 -69.61,10.6 -69.36,10.6 -69.36,10.5 -69.1,10.5 -69.1,10.34 -68.85,10.34 -68.85,10.39 -68.6,10.39 -68.6,10.14 -68.35,10.14 -68.35,10.15 -68.09,10.15 -68.09,9.99 -67.84,9.99 -67.84,9.88 -67.59,9.88 -67.59,9.82 -67.34,9.82 -67.34,9.74 -67.08,9.74 -67.08,9.51 -66.83,9.51 -66.83,9.54 -66.58,9.54 -66.58,9.36 -66.33,9.36 -66.33,9.25 -66.07,9.25 -66.07,9.14 -65.82,9.14 -65.82,8.83 -65.57,8.83 -65.57,8.7 -65.32,8.7 -65.32,8.45 -65.06,8.45 -65.06,8.21 -64.81,8.21 -64.81,7.91 -64.56,7.91 -64.56,7.49 -64.31,7.49 -64.31,7.19 -64.05,7.19 -64.05,6.68 -63.8,6.68 -63.8,6.25 -63.55,6.25 -63.55,5.99 -63.3,5.99 -63.3,5.58 -63.04,5.58 -63.04,5.36 -62.79,5.36 -62.79,5.37 -62.54,5.37 -62.54,5.31 -62.29,5.31 -62.29,5.3 -62.03,5.3 -62.03,5.36 -61.78,5.36 -61.78,5.21 -61.53,5.21 -61.53,5.2 -61.28,5.2 -61.28,5.1 -61.03,5.1 -61.03,5.16 -60.77,5.16 -60.77,4.98 -60.52,4.98 -60.52,4.53 -60.27,4.53 -60.27,3.92 -60.02,3.92 -60.02,1.88 -59.76,1.88 -59.76,-2.82 -59.51,-2.82 -59.51,-13.28 -59.26,-13.28 -59.26,-34.52 -59.01,-34.52 -59.01,-74.7 -58.75,-74.7 -58.75,-142.98 -58.5,-142.98 -58.5,-249.02 -58.25,-249.02 -58.25,-395.22 -58,-395.22 -58,-578.72 -57.74,-578.72 -57.74,-775.49 -57.49,-775.49 -57.49,-954.73 -57.24,-954.73 -57.24,-1080.94 -56.99,-1080.94 -56.99,-1123.19 -56.73,-1123.19 -56.73,-1075.79 -56.48,-1075.79 -56.48,-949.79 -56.23,-949.79 -56.23,-774.7 -55.98,-774.7 -55.98,-584.73 -55.72,-584.73 -55.72,-412.33 -55.47,-412.33 -55.47,-275.6 -55.22,-275.6 -55.22,-177.23 -54.97,-177.23 -54.97,-112.75 -54.71,-112.75 -54.71,-72.94 -54.46,-72.94 -54.46,-48.15 -54.21,-48.15 -54.21,-31.67 -53.96,-31.67 -53.96,-19.45 -53.7,-19.45 -53.7,-9.78 -53.45,-9.78 -53.45,-2.16 -53.2,-2.16 -53.2,3.57 -52.95,3.57 -52.95,7.85 -52.69,7.85 -52.69,10.74 -52.44,10.74 -52.44,12.56 -52.19,12.56 -52.19,13.67 -51.94,13.67 -51.94,14.44 -51.69,14.44 -51.69,14.74 -51.43,14.74 -51.43,14.86 -51.18,14.86 -51.18,14.93 -50.93,14.93 -50.93,14.92 -50.68,14.92 -50.68,14.97 -50.42,14.97 -50.42,14.92 -50.17,14.92 -50.17,15 -49.92,15 -49.92,14.95 -49.67,14.95 -49.67,15.06 -49.41,15.06 -49.41,14.94 -49.16,14.94 -49.16,15.02 -48.91,15.02 -48.91,14.98 -48.66,14.98 -48.66,15 -48.4,15 -48.4,14.98 -48.15,14.98 -48.15,14.99 -47.9,14.99 -47.9,15.03 -47.65,15.03 -47.65,14.89 -47.39,14.89 -47.39,14.91 -47.14,14.91 -47.14,14.83 -46.89,14.83 -46.89,14.81 -46.64,14.81 -46.64,14.84 -46.38,14.84 -46.38,14.67 -46.13,14.67 -46.13,14.58 -45.88,14.58 -45.88,14.44 -45.63,14.44 -45.63,14.22 -45.37,14.22 -45.37,13.88 -45.12,13.88 -45.12,13.5 -44.87,13.5 -44.87,13.07 -44.62,13.07 -44.62,12.82 -44.36,12.82 -44.36,12.36 -44.11,12.36 -44.11,12.1 -43.86,12.1 -43.86,12.04 -43.61,12.04 -43.61,12.07 -43.35,12.07 -43.35,12.46 -43.1,12.46 -43.1,12.8 -42.85,12.8 -42.85,13.15 -42.6,13.15 -42.6,13.5 -42.35,13.5 -42.35,13.86 -42.09,13.86 -42.09,14.14 -41.84,14.14 -41.84,14.3 -41.59,14.3 -41.59,14.47 -41.34,14.47 -41.34,14.57 -41.08,14.57 -41.08,14.62 -40.83,14.62 -40.83,14.61 -40.58,14.61 -40.58,14.6 -40.33,14.6 -40.33,14.69 -40.07,14.69 -40.07,14.6 -39.82,14.6 -39.82,14.7 -39.57,14.7 -39.57,14.66 -39.32,14.66 -39.32,14.65 -39.06,14.65 -39.06,14.67 -38.81,14.67 -38.81,14.69 -38.56,14.69 -38.56,14.68 -38.31,14.68 -38.31,14.66 -38.05,14.66 -38.05,14.76 -37.8,14.76 -37.8,14.74 -37.55,14.74 -37.55,14.66 -37.3,14.66 -37.3,14.7 -37.04,14.7 -37.04,14.65 -36.79,14.65 -36.79,14.68 -36.54,14.68 -36.54,14.62 -36.29,14.62 -36.29,14.7 -36.03,14.7 -36.03,14.7 -35.78,14.7 -35.78,14.62 -35.53,14.62 -35.53,14.67 -35.28,14.67 -35.28,14.73 -35.02,14.73 -35.02,14.66 -34.77,14.66 -34.77,14.7 -34.52,14.7 -34.52,14.73 -34.27,14.73 -34.27,14.79 -34.02,14.79 -34.02,14.68 -33.76,14.68 -33.76,14.72 -33.51,14.72 -33.51,14.69 -33.26,14.69 -33.26,14.63 -33.01,14.63 -33.01,14.63 -32.75,14.63 -32.75,14.73 -32.5,14.73 -32.5,14.7 -32.25,14.7 -32.25,14.71 -32,14.71 -32,14.76 -31.74,14.76 -31.74,14.74 -31.49,14.74 -31.49,14.7 -31.24,14.7 -31.24,14.82 -30.99,14.82 -30.99,14.81 -30.73,14.81 -30.73,14.73 -30.48,14.73 -30.48,14.82 -30.23,14.82 -30.23,14.72 -29.98,14.72 -29.98,14.76 -29.72,14.76 -29.72,14.71 -29.47,14.71 -29.47,14.73 -29.22,14.73 -29.22,14.8 -28.97,14.8 -28.97,14.76 -28.71,14.76 -28.71,14.76 -28.46,14.76 -28.46,14.79 -28.21,14.79 -28.21,14.77 -27.96,14.77 -27.96,14.78 -27.7,14.78 -27.7,14.8 -27.45,14.8 -27.45,14.87 -27.2,14.87 -27.2,14.79 -26.95,14.79 -26.95,14.77 -26.69,14.77 -26.69,14.78 -26.44,14.78 -26.44,14.85 -26.19,14.85 -26.19,14.81 -25.94,14.81 -25.94,14.82 -25.68,14.82 -25.68,14.82 -25.43,14.82 -25.43,14.83 -25.18,14.83 -25.18,14.89 -24.93,14.89 -24.93,14.84 -24.68,14.84 -24.68,14.95 -24.42,14.95 -24.42,14.91 -24.17,14.91 -24.17,14.88 -23.92,14.88 -23.92,14.99 -23.67,14.99 -23.67,14.98 -23.41,14.98 -23.41,14.97 -23.16,14.97 -23.16,14.92 -22.91,14.92 -22.91,14.97 -22.66,14.97 -22.66,15.03 -22.4,15.03 -22.4,15.06 -22.15,15.06 -22.15,14.87 -21.9,14.87 -21.9,14.94 -21.65,14.94 -21.65,15.02 -21.39,15.02 -21.39,15.04 -21.14,15.04 -21.14,14.99 -20.89,14.99 -20.89,15.05 -20.64,15.05 -20.64,15 -20.38,15 -20.38,15.02 -20.13,15.02 -20.13,14.98 -19.88,14.98 -19.88,15.08 -19.63,15.08 -19.63,15.02 -19.37,15.02 -19.37,15.07 -19.12,15.07 -19.12,15.12 -18.87,15.12 -18.87,15.06 -18.62,15.06 -18.62,15.05 -18.36,15.05 -18.36,15.11 -18.11,15.11 -18.11,15.15 -17.86,15.15 -17.86,15.14 -17.61,15.14 -17.61,15.19 -17.35,15.19 -17.35,15.16 -17.1,15.16 -17.1,15.21 -16.85,15.21 -16.85,15.2 -16.6,15.2 -16.6,15.12 -16.34,15.12 -16.34,15.23 -16.09,15.23 -16.09,15.13 -15.84,15.13 -15.84,15.12 -15.59,15.12 -15.59,15.02 -15.34,15.02 -15.34,14.92 -15.08,14.92 -15.08,14.86 -14.83,14.86 -14.83,14.7 -14.58,14.7 -14.58,14.28 -14.33,14.28 -14.33,14.05 -14.07,14.05 -14.07,13.69 -13.82,13.69 -13.82,13.35 -13.57,13.35 -13.57,12.96 -13.32,12.96 -13.32,12.73 -13.06,12.73 -13.06,12.7 -12.81,12.7 -12.81,12.66 -12.56,12.66 -12.56,12.9 -12.31,12.9 -12.31,13.17 -12.05,13.17 -12.05,13.39 -11.8,13.39 -11.8,13.85 -11.55,13.85 -11.55,14.05 -11.3,14.05 -11.3,14.33 -11.04,14.33 -11.04,14.64 -10.79,14.64 -10.79,14.84 -10.54,14.84 -10.54,14.98 -10.29,14.98 -10.29,15.14 -10.03,15.14 -10.03,15.23 -9.78,15.23 -9.78,15.27 -9.53,15.27 -9.53,15.33 -9.28,15.33 -9.28,15.47 -9.02,15.47 -9.02,15.56 -8.77,15.56 -8.77,15.55 -8.52,15.55 -8.52,15.58 -8.27,15.58 -8.27,15.6 -8.01,15.6 -8.01,15.51 -7.76,15.51 -7.76,15.65 -7.51,15.65 -7.51,15.63 -7.26,15.63 -7.26,15.57 -7,15.57 -7,15.67 -6.75,15.67 -6.75,15.73 -6.5,15.73 -6.5,15.7 -6.25,15.7 -6.25,15.78 -6,15.78 -6,15.67 -5.74,15.67 -5.74,15.74 -5.49,15.74 -5.49,15.8 -5.24,15.8 -5.24,15.77 -4.99,15.77 -4.99,15.77 -4.73,15.77 -4.73,15.77 -4.48,15.77 -4.48,15.82 -4.23,15.82 -4.23,15.86 -3.98,15.86 -3.98,15.8 -3.72,15.8 -3.72,15.82 -3.47,15.82 -3.47,15.91 -3.22,15.91 -3.22,15.88 -2.97,15.88 -2.97,15.87 -2.71,15.87 -2.71,15.84 -2.46,15.84 -2.46,15.86 -2.21,15.86 -2.21,15.85 -1.96,15.85 -1.96,15.95 -1.7,15.95 -1.7,15.93 -1.45,15.93 -1.45,15.98 -1.2,15.98 -1.2,15.85 -0.95,15.85 -0.95,15.97 -0.69,15.97 -0.69,15.97 -0.44,15.97 -0.44,15.95 -0.19,15.95 -0.19,15.98 0.06,15.98 0.06,15.98 0.32,15.98 0.32,15.99 0.57,15.99 0.57,16.04 0.82,16.04 0.82,16.02 1.07,16.02 1.07,16.04 1.33,16.04 1.33,16.06 1.58,16.06 1.58,16.03 1.83,16.03 1.83,16.05 2.08,16.05 2.08,16.13 2.34,16.13 2.34,16.12 2.59,16.12 2.59,16.13 2.84,16.13 2.84,16.11 3.09,16.11 3.09,16.1 3.34,16.1 3.34,16.15 3.6,16.15 3.6,16.18 3.85,16.18 3.85,16.17 4.1,16.17 4.1,16.15 4.35,16.15 4.35,16.16 4.61,16.16 4.61,16.13 4.86,16.13 4.86,16.22 5.11,16.22 5.11,16.2 5.36,16.2 5.36,16.2 5.62,16.2 5.62,16.28 5.87,16.28 5.87,16.31 6.12,16.31 6.12,16.21 6.37,16.21 6.37,16.31 6.63,16.31 6.63,16.34 6.88,16.34 6.88,16.29 7.13,16.29 7.13,16.27 7.38,16.27 7.38,16.28 7.64,16.28 7.64,16.39 7.89,16.39 7.89,16.33 8.14,16.33 8.14,16.42 8.39,16.42 8.39,16.32 8.65,16.32 8.65,16.42 8.9,16.42 8.9,16.33 9.15,16.33 9.15,16.37 9.4,16.37 9.4,16.29 9.66,16.29 9.66,16.41 9.91,16.41 9.91,16.47 10.16,16.47 10.16,16.39 10.41,16.39 10.41,16.46 10.67,16.46 10.67,16.47 10.92,16.47 10.92,16.44 11.17,16.44 11.17,16.44 11.42,16.44 11.42,16.44 11.67,16.44 11.67,16.46 11.93,16.46 11.93,16.51 12.18,16.51 12.18,16.47 12.43,16.47 12.43,16.49 12.68,16.49 12.68,16.46 12.94,16.46 12.94,16.57 13.19,16.57 13.19,16.61 13.44,16.61 13.44,16.56 13.69,16.56 13.69,16.61 13.95,16.61 13.95,16.57 14.2,16.57 14.2,16.6 14.45,16.6 14.45,16.57 14.7,16.57 14.7,16.65 14.96,16.65 14.96,16.64 15.21,16.64 15.21,16.62 15.46,16.62 15.46,16.62 15.71,16.62 15.71,16.57 15.97,16.57 15.97,16.64 16.22,16.64 16.22,16.58 16.47,16.58 16.47,16.69 16.72,16.69 16.72,16.71 16.98,16.71 16.98,16.7 17.23,16.7 17.23,16.63 17.48,16.63 17.48,16.69 17.73,16.69 17.73,16.72 17.99,16.72 17.99,16.73 18.24,16.73 18.24,16.76 18.49,16.76 18.49,16.74 18.74,16.74 18.74,16.75 19,16.75 19,16.82 19.25,16.82 19.25,16.75 19.5,16.75 19.5,16.75 19.75,16.75 19.75,16.82 20.01,16.82 20.01,16.85 20.26,16.85 20.26,16.74 20.51,16.74 20.51,16.79 20.76,16.79 20.76,16.83 21.01,16.83 21.01,16.86 21.27,16.86 21.27,16.89 21.52,16.89 21.52,16.83 21.77,16.83 21.77,16.85 22.02,16.85 22.02,16.84 22.28,16.84 22.28,16.86 22.53,16.86 22.53,16.93 22.78,16.93 22.78,16.86 23.03,16.86 23.03,16.91 23.29,16.91 23.29,16.88 23.54,16.88 23.54,16.89 23.79,16.89 23.79,16.94 24.04,16.94 24.04,16.95 24.3,16.95 24.3,16.95 24.55,16.95 24.55,17 24.8,17 24.8,16.96 25.05,16.96 25.05,16.95 25.31,16.95 25.31,16.99 25.56,16.99 25.56,16.99 25.81,16.99 25.81,17 26.06,17 26.06,17.08 26.32,17.08 26.32,17.04 26.57,17.04 26.57,17.08 26.82,17.08 26.82,17.08 27.07,17.08 27.07,17.05 27.33,17.05 27.33,17.06 27.58,17.06 27.58,17.04 27.83,17.04 27.83,17.04 28.08,17.04 28.08,17.03 28.34,17.03 28.34,17.06 28.59,17.06 28.59,17.03 28.84,17.03 28.84,17.05 29.09,17.05 29.09,17.08 29.35,17.08 29.35,17.17 29.6,17.17 29.6,17.09 29.85,17.09 29.85,17.15 30.1,17.15 30.1,17.12 30.35,17.12 30.35,17.11 30.61,17.11 30.61,17.13 30.86,17.13 30.86,17.14 31.11,17.14 31.11,17.18 31.36,17.18 31.36,17.17 31.62,17.17 31.62,17.15 31.87,17.15 31.87,17.2 32.12,17.2 32.12,17.23 32.37,17.23 32.37,17.2 32.63,17.2 32.63,17.2 32.88,17.2 32.88,17.25 33.13,17.25 33.13,17.24 33.38,17.24 33.38,17.21 33.64,17.21 33.64,17.26 33.89,17.26 33.89,17.19 34.14,17.19 34.14,17.23 34.39,17.23 34.39,17.25 34.65,17.25 34.65,17.18 34.9,17.18 34.9,17.26 35.15,17.26 35.15,17.28 35.4,17.28 35.4,17.25 35.66,17.25 35.66,17.27 35.91,17.27 35.91,17.22 36.16,17.22 36.16,17.33 36.41,17.33 36.41,17.19 36.67,17.19 36.67,17.22 36.92,17.22 36.92,17.29 37.17,17.29 37.17,17.32 37.42,17.32 37.42,17.32 37.68,17.32 37.68,17.33 37.93,17.33 37.93,17.36 38.18,17.36 38.18,17.39 38.43,17.39 38.43,17.35 38.69,17.35 38.69,17.39 38.94,17.39 38.94,17.37 39.19,17.37 39.19,17.44 39.44,17.44 39.44,17.37 39.69,17.37 39.69,17.42 39.95,17.42 39.95,17.44 40.2,17.44 40.2,17.37 40.45,17.37 40.45,17.43 40.7,17.43 40.7,17.44 40.96,17.44 40.96,17.45 41.21,17.45 41.21,17.4 41.46,17.4 41.46,17.45 41.71,17.45 41.71,17.49 41.97,17.49 41.97,17.51 42.22,17.51 42.22,17.5 42.47,17.5 42.47,17.5 42.72,17.5 42.72,17.51 42.98,17.51 42.98,17.5 43.23,17.5 43.23,17.5 43.48,17.5 43.48,17.57 43.73,17.57 43.73,17.5 43.99,17.5 43.99,17.54 44.24,17.54 44.24,17.55 44.49,17.55 44.49,17.56 44.74,17.56 44.74,17.51 45,17.51 45,17.57 45.25,17.57 45.25,17.58 45.5,17.58 45.5,17.57 45.75,17.57 45.75,17.52 46.01,17.52 46.01,17.61 46.26,17.61 46.26,17.58 46.51,17.58 46.51,17.6 46.76,17.6 46.76,17.62 47.02,17.62 47.02,17.59 47.27,17.59 47.27,17.59 47.52,17.59 47.52,17.69 47.77,17.69 47.77,17.66 48.03,17.66 48.03,17.67 48.28,17.67 48.28,17.58 48.53,17.58 48.53,17.65 48.78,17.65 48.78,17.65 49.03,17.65 49.03,17.72 49.29,17.72 49.29,17.56 49.54,17.56 49.54,17.65 49.79,17.65 49.79,17.65 50.04,17.65 50.04,17.72 50.3,17.72 50.3,17.7 50.55,17.7 50.55,17.7 50.8,17.7 50.8,17.7 51.05,17.7 51.05,17.73 51.31,17.73 51.31,17.71 51.56,17.71 51.56,17.69 51.81,17.69 51.81,17.68 52.06,17.68 52.06,17.7 52.32,17.7 52.32,17.77 52.57,17.77 52.57,17.76 52.82,17.76 52.82,17.75 53.07,17.75 53.07,17.73 53.33,17.73 53.33,17.8 53.58,17.8 53.58,17.79 53.83,17.79 53.83,17.77 54.08,17.77 54.08,17.77 54.34,17.77 54.34,17.84 54.59,17.84 54.59,17.79 54.84,17.79 54.84,17.78 55.09,17.78 55.09,17.83 55.35,17.83 55.35,17.83 55.6,17.83 55.6,17.85 55.85,17.85 55.85,17.76 56.1,17.76 56.1,17.85 56.36,17.85 56.36,17.87 56.61,17.87 56.61,17.84 56.86,17.84 56.86,17.87 57.11,17.87 57.11,17.89 57.36,17.89 57.36,17.84 57.62,17.84 57.62,17.87 57.87,17.87 57.87,17.88 58.12,17.88 58.12,17.86 58.37,17.86 58.37,17.78 58.63,17.78 58.63,17.83 58.88,17.83 58.88,17.82 59.13,17.82 59.13,17.83 59.38,17.83 59.38,17.75 59.64,17.75 59.64,17.74 59.89,17.74 59.89,17.73 60.14,17.73 60.14,17.74 60.39,17.74 60.39,17.75 60.65,17.75 60.65,17.77 60.9,17.77 60.9,17.77 61.15,17.77 61.15,17.72 61.4,17.72 61.4,17.79 61.66,17.79 61.66,17.84 61.91,17.84 61.91,17.81 62.16,17.81 62.16,17.81 62.41,17.81 62.41,17.9 62.67,17.9 62.67,17.91 62.92,17.91 62.92,17.93 63.17,17.93 63.17,17.94 63.42,17.94 63.42,17.97 63.68,17.97 63.68,17.94 63.93,17.94 63.93,18 64.18,18 64.18,18.02 64.43,18.02 64.43,18.01 64.69,18.01 64.69,17.97 64.94,17.97 64.94,18.06 65.19,18.06 65.19,18.02 65.44,18.02 65.44,18.07 65.7,18.07 65.7,18 65.95,18 65.95,18.04 66.2,18.04 66.2,18.09 66.45,18.09 66.45,18.12 66.7,18.12 66.7,18.05 66.96,18.05 66.96,17.99 67.21,17.99 67.21,18.1 67.46,18.1 67.46,18.09 67.71,18.09 67.71,18.05 67.97,18.05 67.97,18.04 68.22,18.04 68.22,18.1 68.47,18.1 68.47,18.07 68.72,18.07 68.72,18.09 68.98,18.09 68.98,18.16 69.23,18.16 69.23,18.13 69.48,18.13 69.48,18.06 69.73,18.06 69.73,18.11 69.99,18.11 69.99,18.08 70.24,18.08 70.24,18.14 70.49,18.14 70.49,18.13 70.74,18.13 70.74,18.14 71,18.14 71,18.16 71.25,18.16 71.25,18.14 71.5,18.14 71.5,18.13 71.75,18.13 71.75,18.15 72.01,18.15 72.01,18.15 72.26,18.15 72.26,18.15 72.51,18.15 72.51,18.17 72.76,18.17 72.76,18.17 73.02,18.17 73.02,18.18 73.27,18.18 73.27,18.21 73.52,18.21 73.52,18.15 73.77,18.15 73.77,18.21 74.03,18.21 74.03,18.22 74.28,18.22 74.28,18.21 74.53,18.21 74.53,18.18 74.78,18.18 74.78,18.22 75.04,18.22 75.04,18.22 75.29,18.22 75.29,18.2 75.54,18.2 75.54,18.22 75.79,18.22 75.79,18.22 76.04,18.22 76.04,18.2 76.3,18.2 76.3,18.23 76.55,18.23 76.55,18.23 76.8,18.23 76.8,18.21 77.05,18.21 77.05,18.24 77.31,18.24 77.31,18.24 77.56,18.24 77.56,18.25 77.81,18.25 77.81,18.25 78.06,18.25 78.06,18.25 78.32,18.25 78.32,18.29 78.57,18.29 78.57,18.32 78.82,18.32 78.82,18.31 79.07,18.31 79.07,18.28 79.33,18.28 79.33,18.29 79.58,18.29 79.58,18.26 79.83,18.26 79.83,18.31 80.08,18.31 80.08,18.32 80.34,18.32 80.34,18.29 80.59,18.29 80.59,18.36 80.84,18.36 80.84,18.34 81.09,18.34 81.09,18.34 81.35,18.34 81.35,18.33 81.6,18.33 81.6,18.36 81.85,18.36 81.85,18.37 82.1,18.37 82.1,18.35 82.36,18.35 82.36,18.4 82.61,18.4 82.61,18.34 82.86,18.34 82.86,18.35 83.11,18.35 83.11,18.35 83.37,18.35 83.37,18.36 83.62,18.36 83.62,18.4 83.87,18.4 83.87,18.36 84.12,18.36 84.12,18.4 84.38,18.4 84.38,18.39 84.63,18.39 84.63,18.43 84.88,18.43 84.88,18.41 85.13,18.41 85.13,18.42 85.38,18.42 85.38,18.34 85.64,18.34 85.64,18.43 85.89,18.43 85.89,18.38 86.14,18.38 86.14,18.33 86.39,18.33 86.39,18.38 86.65,18.38 86.65,18.37 86.9,18.37 86.9,18.35 87.15,18.35 87.15,18.4 87.4,18.4 87.4,18.37 87.66,18.37 87.66,18.4 87.91,18.4 87.91,18.39 88.16,18.39 88.16,18.38 88.41,18.38 88.41,18.42 88.67,18.42 88.67,18.42 88.92,18.42 88.92,18.44 89.17,18.44 89.17,18.38 89.42,18.38 89.42,18.41 89.68,18.41 89.68,18.43 89.93,18.43 89.93,18.42 90.18,18.42 90.18,18.49 90.43,18.49 90.43,18.52 90.69,18.52 90.69,18.44 90.94,18.44 90.94,18.47 91.19,18.47 91.19,18.5 91.44,18.5 91.44,18.49 91.7,18.49 91.7,18.49 91.95,18.49 91.95,18.47 92.2,18.47 92.2,18.52 92.45,18.52 92.45,18.49 92.71,18.49 92.71,18.52 92.96,18.52 92.96,18.5 93.21,18.5 93.21,18.5 93.46,18.5 93.46,18.53 93.72,18.53 93.72,18.52 93.97,18.52 93.97,18.55 94.22,18.55 94.22,18.54 94.47,18.54 94.47,18.55 94.72,18.55 94.72,18.52 94.98,18.52 94.98,18.57 95.23,18.57 95.23,18.53 95.48,18.53 95.48,18.53 95.73,18.53 95.73,18.55 95.99,18.55 95.99,18.55 96.24,18.55 96.24,18.57 96.49,18.57 96.49,18.59 96.74,18.59 96.74,18.59 97,18.59 97,18.57 97.25,18.57 97.25,18.6 97.5,18.6 97.5,18.6 97.75,18.6 97.75,18.59 98.01,18.59 98.01,18.59 98.26,18.59 98.26,18.58 98.51,18.58 98.51,18.61 98.76,18.61 98.76,18.6 99.02,18.6 99.02,18.6 99.27,18.6 99.27,18.64 99.52,18.64 99.52,18.62 99.77,18.62 99.77,18.61 100.03,18.61 100.03,18.59 100.28,18.59 100.28,18.62 100.53,18.62 100.53,18.61 100.78,18.61 100.78,18.64 " class="primitive"/>
            </g>
          </g>
        </g>
      </g>
    </g>
  </g>
  <g class="guide ylabels" font-size="2.82" font-family="'PT Sans Caption','Helvetica Neue','Helvetica',sans-serif" fill="#6C606B" id="img-600935cc-37">
    <g transform="translate(18.7,59.87)" id="img-600935cc-38">
      <g class="primitive">
        <text text-anchor="end" dy="0.35em">0</text>
      </g>
    </g>
    <g transform="translate(18.7,42.2)" id="img-600935cc-39">
      <g class="primitive">
        <text text-anchor="end" dy="0.35em">50000</text>
      </g>
    </g>
    <g transform="translate(18.7,24.53)" id="img-600935cc-40">
      <g class="primitive">
        <text text-anchor="end" dy="0.35em">100000</text>
      </g>
    </g>
    <g transform="translate(18.7,6.86)" id="img-600935cc-41">
      <g class="primitive">
        <text text-anchor="end" dy="0.35em">150000</text>
      </g>
    </g>
  </g>
  <g font-size="3.18" font-family="'PT Sans','Helvetica Neue','Helvetica',sans-serif" fill="#202020" stroke="#000000" stroke-opacity="0.000" id="img-600935cc-42">
    <g transform="translate(4.18,29.29)" id="img-600935cc-43">
      <g class="primitive">
        <text text-anchor="middle" dy="0.35em" transform="rotate(-90,0, 2)">Counts</text>
      </g>
    </g>
  </g>
</g>
<defs>
  <clipPath id="img-600935cc-15">
    <path d="M19.7,0.71 L225.67,0.71 225.67,61.87 19.7,61.87 " />
  </clipPath>
</defs>
</svg>
