<?xml version="1.0" encoding="UTF-8"?>
<svg xmlns="http://www.w3.org/2000/svg"
     xmlns:xlink="http://www.w3.org/1999/xlink"
     xmlns:gadfly="http://www.gadflyjl.org/ns"
     version="1.2"
     width="254mm" height="76.2mm" viewBox="0 0 254 76.2"
     stroke="none"
     fill="#000000"
     stroke-width="0.3"
     font-size="3.88"
>
<defs>
  <marker id="arrow" markerWidth="15" markerHeight="7" refX="5" refY="3.5" orient="auto" markerUnits="strokeWidth">
    <path d="M0,0 L15,3.5 L0,7 z" stroke="context-stroke" fill="context-stroke"/>
  </marker>
</defs>
<g class="plotroot xscalable yscalable" id="img-b81be3b4-1">
  <g font-size="3.18" font-family="'PT Sans','Helvetica Neue','Helvetica',sans-serif" fill="#202020" stroke="#000000" stroke-opacity="0.000" id="img-b81be3b4-2">
    <g transform="translate(135.66,69.54)">
      <g class="primitive">
        <text text-anchor="middle" dy="0.6em">Energy (eV)</text>
      </g>
    </g>
  </g>
  <g class="guide xlabels" font-size="2.82" font-family="'PT Sans Caption','Helvetica Neue','Helvetica',sans-serif" fill="#6C606B" id="img-b81be3b4-3">
    <g transform="translate(20.03,62.87)">
      <g class="primitive">
        <text text-anchor="middle" dy="0.6em">0</text>
      </g>
    </g>
    <g transform="translate(77.84,62.87)">
      <g class="primitive">
        <text text-anchor="middle" dy="0.6em">2000</text>
      </g>
    </g>
    <g transform="translate(135.66,62.87)">
      <g class="primitive">
        <text text-anchor="middle" dy="0.6em">4000</text>
      </g>
    </g>
    <g transform="translate(193.48,62.87)">
      <g class="primitive">
        <text text-anchor="middle" dy="0.6em">6000</text>
      </g>
    </g>
    <g transform="translate(251.29,62.87)">
      <g class="primitive">
        <text text-anchor="middle" dy="0.6em">8000</text>
      </g>
    </g>
  </g>
  <g clip-path="url(#img-b81be3b4-4)">
    <g id="img-b81be3b4-5">
      <g pointer-events="visible" stroke-width="0.3" fill="#FDFDF1" stroke="#202020" class="guide background" id="img-b81be3b4-6">
        <g transform="translate(135.66,31.29)" id="img-b81be3b4-7">
          <path d="M-117.63,-30.58 L117.63,-30.58 117.63,30.58 -117.63,30.58  z" class="primitive"/>
        </g>
      </g>
      <g class="guide ygridlines xfixed" stroke-dasharray="none" stroke-width="0.2" stroke="#FFDFDF" id="img-b81be3b4-8">
        <g transform="translate(135.66,59.87)" id="img-b81be3b4-9">
          <path fill="none" d="M-117.63,0 L117.63,0 " class="primitive"/>
        </g>
        <g transform="translate(135.66,30.01)" id="img-b81be3b4-10">
          <path fill="none" d="M-117.63,0 L117.63,0 " class="primitive"/>
        </g>
      </g>
      <g class="guide xgridlines yfixed" stroke-dasharray="none" stroke-width="0.2" stroke="#FFDFDF" id="img-b81be3b4-11">
        <g transform="translate(20.03,31.29)" id="img-b81be3b4-12">
          <path fill="none" d="M0,-30.58 L0,30.58 " class="primitive"/>
        </g>
        <g transform="translate(77.84,31.29)" id="img-b81be3b4-13">
          <path fill="none" d="M0,-30.58 L0,30.58 " class="primitive"/>
        </g>
        <g transform="translate(135.66,31.29)" id="img-b81be3b4-14">
          <path fill="none" d="M0,-30.58 L0,30.58 " class="primitive"/>
        </g>
        <g transform="translate(193.48,31.29)" id="img-b81be3b4-15">
          <path fill="none" d="M0,-30.58 L0,30.58 " class="primitive"/>
        </g>
        <g transform="translate(251.29,31.29)" id="img-b81be3b4-16">
          <path fill="none" d="M0,-30.58 L0,30.58 " class="primitive"/>
        </g>
      </g>
      <g class="plotpanel" id="img-b81be3b4-17">
        <metadata>
          <boundingbox value="18.027222222222242mm 0.7055555555555555mm 235.26722222222224mm 61.16055555555556mm"/>
          <unitbox value="-69.18403674441063 99068.12770072602 8138.368073488822 -102417.25540145206"/>
        </metadata>
        <g stroke-width="0.3" fill="#000000" fill-opacity="0.000" class="geometry" id="img-b81be3b4-18">
          <g class="color_RGB{N0f8}(0.718,0.0,0.008)" stroke-dasharray="none" stroke-opacity="1" stroke="#B70002" id="img-b81be3b4-19">
            <g transform="translate(135.62,37.77)" id="img-b81be3b4-20">
              <path fill="none" d="M-115.54,22.08 L-115.26,22.08 -115.26,22.08 -114.97,22.08 -114.97,22.09 -114.68,22.09 -114.68,22.08 -114.39,22.08 -114.39,22.09 -114.1,22.09 -114.1,22.09 -113.81,22.09 -113.81,22.09 -113.52,22.09 -113.52,22.09 -113.23,22.09 -113.23,22.1 -112.94,22.1 -112.94,22.1 -112.65,22.1 -112.65,22.09 -112.37,22.09 -112.37,22.09 -112.08,22.09 -112.08,22.1 -111.79,22.1 -111.79,22.11 -111.5,22.11 -111.5,22.15 -111.21,22.15 -111.21,22.26 -110.92,22.26 -110.92,22.57 -110.63,22.57 -110.63,23.2 -110.34,23.2 -110.34,24.29 -110.05,24.29 -110.05,25.94 -109.76,25.94 -109.76,27.97 -109.47,27.97 -109.47,29.71 -109.19,29.71 -109.19,30.22 -108.9,30.22 -108.9,28.82 -108.61,28.82 -108.61,24.48 -108.32,24.48 -108.32,18.41 -108.03,18.41 -108.03,11.94 -107.74,11.94 -107.74,7.81 -107.45,7.81 -107.45,6.85 -107.16,6.85 -107.16,9.31 -106.87,9.31 -106.87,12.6 -106.58,12.6 -106.58,15.5 -106.3,15.5 -106.3,16.93 -106.01,16.93 -106.01,17.38 -105.72,17.38 -105.72,17.34 -105.43,17.34 -105.43,16.6 -105.14,16.6 -105.14,16.2 -104.85,16.2 -104.85,15.7 -104.56,15.7 -104.56,15.35 -104.27,15.35 -104.27,15.42 -103.98,15.42 -103.98,15.93 -103.69,15.93 -103.69,16.52 -103.4,16.52 -103.4,17.08 -103.12,17.08 -103.12,17.42 -102.83,17.42 -102.83,17.6 -102.54,17.6 -102.54,17.71 -102.25,17.71 -102.25,17.63 -101.96,17.63 -101.96,17.57 -101.67,17.57 -101.67,17.43 -101.38,17.43 -101.38,17.27 -101.09,17.27 -101.09,17.36 -100.8,17.36 -100.8,17.75 -100.51,17.75 -100.51,18.62 -100.23,18.62 -100.23,19.63 -99.94,19.63 -99.94,20.81 -99.65,20.81 -99.65,21.67 -99.36,21.67 -99.36,21.76 -99.07,21.76 -99.07,21.2 -98.78,21.2 -98.78,18.98 -98.49,18.98 -98.49,14.4 -98.2,14.4 -98.2,4.63 -97.91,4.63 -97.91,-14.07 -97.62,-14.07 -97.62,-46.99 -97.33,-46.99 -97.33,-99.08 -97.05,-99.08 -97.05,-170.03 -96.76,-170.03 -96.76,-249.08 -96.47,-249.08 -96.47,-318.38 -96.18,-318.38 -96.18,-354.43 -95.89,-354.43 -95.89,-344.66 -95.6,-344.66 -95.6,-291.02 -95.31,-291.02 -95.31,-212.21 -95.02,-212.21 -95.02,-132.44 -94.73,-132.44 -94.73,-68.25 -94.44,-68.25 -94.44,-23.91 -94.16,-23.91 -94.16,1.26 -93.87,1.26 -93.87,14.35 -93.58,14.35 -93.58,20.36 -93.29,20.36 -93.29,23.07 -93,23.07 -93,24.05 -92.71,24.05 -92.71,24.51 -92.42,24.51 -92.42,24.81 -92.13,24.81 -92.13,24.78 -91.84,24.78 -91.84,24.88 -91.55,24.88 -91.55,24.59 -91.27,24.59 -91.27,24.36 -90.98,24.36 -90.98,23.97 -90.69,23.97 -90.69,23.52 -90.4,23.52 -90.4,23.09 -90.11,23.09 -90.11,22.84 -89.82,22.84 -89.82,22.47 -89.53,22.47 -89.53,22.03 -89.24,22.03 -89.24,21.98 -88.95,21.98 -88.95,21.88 -88.66,21.88 -88.66,21.74 -88.37,21.74 -88.37,22.08 -88.09,22.08 -88.09,21.89 -87.8,21.89 -87.8,21.97 -87.51,21.97 -87.51,22.08 -87.22,22.08 -87.22,22.09 -86.93,22.09 -86.93,22 -86.64,22 -86.64,22.21 -86.35,22.21 -86.35,22.21 -86.06,22.21 -86.06,22.07 -85.77,22.07 -85.77,22.14 -85.48,22.14 -85.48,22.13 -85.2,22.13 -85.2,22.23 -84.91,22.23 -84.91,22.12 -84.62,22.12 -84.62,22.13 -84.33,22.13 -84.33,22.29 -84.04,22.29 -84.04,22.3 -83.75,22.3 -83.75,22.22 -83.46,22.22 -83.46,22.19 -83.17,22.19 -83.17,22.17 -82.88,22.17 -82.88,22.1 -82.59,22.1 -82.59,22.01 -82.3,22.01 -82.3,22 -82.02,22 -82.02,22.09 -81.73,22.09 -81.73,21.83 -81.44,21.83 -81.44,22.07 -81.15,22.07 -81.15,21.94 -80.86,21.94 -80.86,21.89 -80.57,21.89 -80.57,21.87 -80.28,21.87 -80.28,21.9 -79.99,21.9 -79.99,21.58 -79.7,21.58 -79.7,21.71 -79.41,21.71 -79.41,21.46 -79.13,21.46 -79.13,21.63 -78.84,21.63 -78.84,21.5 -78.55,21.5 -78.55,21.47 -78.26,21.47 -78.26,21.7 -77.97,21.7 -77.97,21.54 -77.68,21.54 -77.68,21.61 -77.39,21.61 -77.39,21.5 -77.1,21.5 -77.1,21.41 -76.81,21.41 -76.81,21.37 -76.52,21.37 -76.52,21.32 -76.23,21.32 -76.23,21.51 -75.95,21.51 -75.95,21.54 -75.66,21.54 -75.66,21.81 -75.37,21.81 -75.37,21.77 -75.08,21.77 -75.08,21.89 -74.79,21.89 -74.79,21.79 -74.5,21.79 -74.5,21.89 -74.21,21.89 -74.21,21.71 -73.92,21.71 -73.92,21.59 -73.63,21.59 -73.63,21.61 -73.34,21.61 -73.34,21.44 -73.06,21.44 -73.06,21.22 -72.77,21.22 -72.77,21.45 -72.48,21.45 -72.48,21.45 -72.19,21.45 -72.19,21.41 -71.9,21.41 -71.9,21.57 -71.61,21.57 -71.61,21.59 -71.32,21.59 -71.32,21.78 -71.03,21.78 -71.03,21.92 -70.74,21.92 -70.74,21.95 -70.45,21.95 -70.45,22.21 -70.16,22.21 -70.16,22.19 -69.88,22.19 -69.88,22.36 -69.59,22.36 -69.59,22.38 -69.3,22.38 -69.3,22.43 -69.01,22.43 -69.01,22.54 -68.72,22.54 -68.72,22.49 -68.43,22.49 -68.43,22.53 -68.14,22.53 -68.14,22.46 -67.85,22.46 -67.85,22.32 -67.56,22.32 -67.56,22.46 -67.27,22.46 -67.27,22.26 -66.99,22.26 -66.99,22.25 -66.7,22.25 -66.7,22.33 -66.41,22.33 -66.41,21.96 -66.12,21.96 -66.12,21.67 -65.83,21.67 -65.83,21.49 -65.54,21.49 -65.54,21.54 -65.25,21.54 -65.25,21.29 -64.96,21.29 -64.96,21.36 -64.67,21.36 -64.67,21.22 -64.38,21.22 -64.38,21.21 -64.1,21.21 -64.1,21.31 -63.81,21.31 -63.81,21.58 -63.52,21.58 -63.52,21.4 -63.23,21.4 -63.23,21.57 -62.94,21.57 -62.94,21.34 -62.65,21.34 -62.65,21.35 -62.36,21.35 -62.36,21.48 -62.07,21.48 -62.07,21.51 -61.78,21.51 -61.78,21.43 -61.49,21.43 -61.49,20.76 -61.2,20.76 -61.2,19.96 -60.92,19.96 -60.92,18.77 -60.63,18.77 -60.63,16.98 -60.34,16.98 -60.34,15.16 -60.05,15.16 -60.05,12.91 -59.76,12.91 -59.76,11.34 -59.47,11.34 -59.47,10.3 -59.18,10.3 -59.18,9.82 -58.89,9.82 -58.89,10.4 -58.6,10.4 -58.6,11.88 -58.31,11.88 -58.31,13.77 -58.03,13.77 -58.03,16.2 -57.74,16.2 -57.74,18.11 -57.45,18.11 -57.45,19.74 -57.16,19.74 -57.16,20.8 -56.87,20.8 -56.87,21.42 -56.58,21.42 -56.58,22.02 -56.29,22.02 -56.29,22.21 -56,22.21 -56,22.54 -55.71,22.54 -55.71,22.65 -55.42,22.65 -55.42,22.37 -55.13,22.37 -55.13,22.68 -54.85,22.68 -54.85,22.5 -54.56,22.5 -54.56,22.69 -54.27,22.69 -54.27,22.57 -53.98,22.57 -53.98,22.66 -53.69,22.66 -53.69,22.67 -53.4,22.67 -53.4,22.65 -53.11,22.65 -53.11,22.45 -52.82,22.45 -52.82,22.56 -52.53,22.56 -52.53,22.53 -52.24,22.53 -52.24,22.44 -51.96,22.44 -51.96,22.57 -51.67,22.57 -51.67,22.26 -51.38,22.26 -51.38,22.05 -51.09,22.05 -51.09,21.96 -50.8,21.96 -50.8,21.56 -50.51,21.56 -50.51,21.45 -50.22,21.45 -50.22,21.39 -49.93,21.39 -49.93,21.45 -49.64,21.45 -49.64,21.46 -49.35,21.46 -49.35,21.44 -49.06,21.44 -49.06,21.79 -48.78,21.79 -48.78,22.05 -48.49,22.05 -48.49,22.12 -48.2,22.12 -48.2,22.44 -47.91,22.44 -47.91,22.63 -47.62,22.63 -47.62,22.52 -47.33,22.52 -47.33,22.62 -47.04,22.62 -47.04,22.68 -46.75,22.68 -46.75,22.67 -46.46,22.67 -46.46,22.85 -46.17,22.85 -46.17,23.04 -45.89,23.04 -45.89,22.78 -45.6,22.78 -45.6,22.84 -45.31,22.84 -45.31,22.83 -45.02,22.83 -45.02,22.82 -44.73,22.82 -44.73,22.85 -44.44,22.85 -44.44,22.71 -44.15,22.71 -44.15,22.92 -43.86,22.92 -43.86,22.69 -43.57,22.69 -43.57,22.89 -43.28,22.89 -43.28,22.62 -43,22.62 -43,22.88 -42.71,22.88 -42.71,22.86 -42.42,22.86 -42.42,22.52 -42.13,22.52 -42.13,22.75 -41.84,22.75 -41.84,22.81 -41.55,22.81 -41.55,22.89 -41.26,22.89 -41.26,22.77 -40.97,22.77 -40.97,22.94 -40.68,22.94 -40.68,22.87 -40.39,22.87 -40.39,22.97 -40.1,22.97 -40.1,22.75 -39.82,22.75 -39.82,22.76 -39.53,22.76 -39.53,22.69 -39.24,22.69 -39.24,22.75 -38.95,22.75 -38.95,22.87 -38.66,22.87 -38.66,22.76 -38.37,22.76 -38.37,22.89 -38.08,22.89 -38.08,22.74 -37.79,22.74 -37.79,22.91 -37.5,22.91 -37.5,22.78 -37.21,22.78 -37.21,22.77 -36.93,22.77 -36.93,22.81 -36.64,22.81 -36.64,22.62 -36.35,22.62 -36.35,22.57 -36.06,22.57 -36.06,22.73 -35.77,22.73 -35.77,22.79 -35.48,22.79 -35.48,22.66 -35.19,22.66 -35.19,22.73 -34.9,22.73 -34.9,22.84 -34.61,22.84 -34.61,22.73 -34.32,22.73 -34.32,22.69 -34.03,22.69 -34.03,22.68 -33.75,22.68 -33.75,22.78 -33.46,22.78 -33.46,22.67 -33.17,22.67 -33.17,22.84 -32.88,22.84 -32.88,22.75 -32.59,22.75 -32.59,22.63 -32.3,22.63 -32.3,22.61 -32.01,22.61 -32.01,22.65 -31.72,22.65 -31.72,22.74 -31.43,22.74 -31.43,22.58 -31.14,22.58 -31.14,22.51 -30.86,22.51 -30.86,22.56 -30.57,22.56 -30.57,22.46 -30.28,22.46 -30.28,22.48 -29.99,22.48 -29.99,22.43 -29.7,22.43 -29.7,22.34 -29.41,22.34 -29.41,22.41 -29.12,22.41 -29.12,22.42 -28.83,22.42 -28.83,22.49 -28.54,22.49 -28.54,22.31 -28.25,22.31 -28.25,22.25 -27.96,22.25 -27.96,22.41 -27.68,22.41 -27.68,22.44 -27.39,22.44 -27.39,22.27 -27.1,22.27 -27.1,22.33 -26.81,22.33 -26.81,22.3 -26.52,22.3 -26.52,22.18 -26.23,22.18 -26.23,22.25 -25.94,22.25 -25.94,22.14 -25.65,22.14 -25.65,22.24 -25.36,22.24 -25.36,22.31 -25.07,22.31 -25.07,22.07 -24.79,22.07 -24.79,22.05 -24.5,22.05 -24.5,21.93 -24.21,21.93 -24.21,22.08 -23.92,22.08 -23.92,22.09 -23.63,22.09 -23.63,21.84 -23.34,21.84 -23.34,21.9 -23.05,21.9 -23.05,22 -22.76,22 -22.76,21.93 -22.47,21.93 -22.47,21.93 -22.18,21.93 -22.18,21.8 -21.89,21.8 -21.89,22.08 -21.61,22.08 -21.61,21.95 -21.32,21.95 -21.32,22.03 -21.03,22.03 -21.03,22.26 -20.74,22.26 -20.74,22.21 -20.45,22.21 -20.45,22.15 -20.16,22.15 -20.16,22.34 -19.87,22.34 -19.87,22.25 -19.58,22.25 -19.58,22.32 -19.29,22.32 -19.29,22.24 -19,22.24 -19,22.42 -18.72,22.42 -18.72,22.34 -18.43,22.34 -18.43,22.27 -18.14,22.27 -18.14,22.41 -17.85,22.41 -17.85,22.24 -17.56,22.24 -17.56,22.17 -17.27,22.17 -17.27,22.31 -16.98,22.31 -16.98,21.95 -16.69,21.95 -16.69,21.92 -16.4,21.92 -16.4,21.47 -16.11,21.47 -16.11,21.44 -15.83,21.44 -15.83,21.28 -15.54,21.28 -15.54,20.87 -15.25,20.87 -15.25,20.42 -14.96,20.42 -14.96,19.93 -14.67,19.93 -14.67,19.05 -14.38,19.05 -14.38,18.17 -14.09,18.17 -14.09,17.06 -13.8,17.06 -13.8,15.68 -13.51,15.68 -13.51,13.47 -13.22,13.47 -13.22,10.12 -12.93,10.12 -12.93,4.99 -12.65,4.99 -12.65,-3.37 -12.36,-3.37 -12.36,-17.26 -12.07,-17.26 -12.07,-38.94 -11.78,-38.94 -11.78,-72.78 -11.49,-72.78 -11.49,-123.38 -11.2,-123.38 -11.2,-193.79 -10.91,-193.79 -10.91,-288.3 -10.62,-288.3 -10.62,-406.86 -10.33,-406.86 -10.33,-543.96 -10.04,-543.96 -10.04,-693.07 -9.76,-693.07 -9.76,-839.93 -9.47,-839.93 -9.47,-968.46 -9.18,-968.46 -9.18,-1062.44 -8.89,-1062.44 -8.89,-1109.31 -8.6,-1109.31 -8.6,-1100.44 -8.31,-1100.44 -8.31,-1042.04 -8.02,-1042.04 -8.02,-938.72 -7.73,-938.72 -7.73,-803.48 -7.44,-803.48 -7.44,-655.65 -7.15,-655.65 -7.15,-508.55 -6.86,-508.55 -6.86,-374.72 -6.58,-374.72 -6.58,-261.79 -6.29,-261.79 -6.29,-171.97 -6,-171.97 -6,-105.66 -5.71,-105.66 -5.71,-59.28 -5.42,-59.28 -5.42,-27.91 -5.13,-27.91 -5.13,-8.22 -4.84,-8.22 -4.84,3.28 -4.55,3.28 -4.55,10.11 -4.26,10.11 -4.26,13.67 -3.97,13.67 -3.97,14.79 -3.69,14.79 -3.69,15.37 -3.4,15.37 -3.4,14.41 -3.11,14.41 -3.11,12.62 -2.82,12.62 -2.82,9.87 -2.53,9.87 -2.53,5.54 -2.24,5.54 -2.24,-0.25 -1.95,-0.25 -1.95,-8.88 -1.66,-8.88 -1.66,-19.99 -1.37,-19.99 -1.37,-32.9 -1.08,-32.9 -1.08,-48.82 -0.79,-48.82 -0.79,-64.83 -0.51,-64.83 -0.51,-81.11 -0.22,-81.11 -0.22,-95.41 0.07,-95.41 0.07,-107.59 0.36,-107.59 0.36,-113.46 0.65,-113.46 0.65,-114.31 0.94,-114.31 0.94,-109.04 1.23,-109.04 1.23,-99.43 1.52,-99.43 1.52,-85.01 1.81,-85.01 1.81,-68.59 2.1,-68.59 2.1,-50.97 2.38,-50.97 2.38,-34.8 2.67,-34.8 2.67,-20.36 2.96,-20.36 2.96,-8.33 3.25,-8.33 3.25,1.44 3.54,1.44 3.54,8.5 3.83,8.5 3.83,13.55 4.12,13.55 4.12,16.92 4.41,16.92 4.41,19.12 4.7,19.12 4.7,20.61 4.99,20.61 4.99,21.62 5.28,21.62 5.28,21.99 5.56,21.99 5.56,22.32 5.85,22.32 5.85,22.43 6.14,22.43 6.14,22.52 6.43,22.52 6.43,22.46 6.72,22.46 6.72,22.5 7.01,22.5 7.01,22.54 7.3,22.54 7.3,22.45 7.59,22.45 7.59,22.38 7.88,22.38 7.88,22.35 8.17,22.35 8.17,22.24 8.45,22.24 8.45,21.9 8.74,21.9 8.74,21.86 9.03,21.86 9.03,21.61 9.32,21.61 9.32,21.55 9.61,21.55 9.61,21.25 9.9,21.25 9.9,21.19 10.19,21.19 10.19,21.01 10.48,21.01 10.48,20.89 10.77,20.89 10.77,21.02 11.06,21.02 11.06,20.98 11.34,20.98 11.34,21 11.63,21 11.63,21.14 11.92,21.14 11.92,21.23 12.21,21.23 12.21,21.43 12.5,21.43 12.5,21.62 12.79,21.62 12.79,21.8 13.08,21.8 13.08,21.97 13.37,21.97 13.37,22.06 13.66,22.06 13.66,22.21 13.95,22.21 13.95,22.17 14.24,22.17 14.24,22.24 14.52,22.24 14.52,22.43 14.81,22.43 14.81,22.2 15.1,22.2 15.1,22.32 15.39,22.32 15.39,22.38 15.68,22.38 15.68,22.33 15.97,22.33 15.97,22.41 16.26,22.41 16.26,22.39 16.55,22.39 16.55,22.35 16.84,22.35 16.84,22.37 17.13,22.37 17.13,22.31 17.41,22.31 17.41,22.23 17.7,22.23 17.7,22.16 17.99,22.16 17.99,22.32 18.28,22.32 18.28,22.29 18.57,22.29 18.57,22.19 18.86,22.19 18.86,22.33 19.15,22.33 19.15,22.26 19.44,22.26 19.44,22.16 19.73,22.16 19.73,22.13 20.02,22.13 20.02,22.05 20.31,22.05 20.31,22.23 20.59,22.23 20.59,22.17 20.88,22.17 20.88,22.07 21.17,22.07 21.17,22.13 21.46,22.13 21.46,22.14 21.75,22.14 21.75,22.17 22.04,22.17 22.04,22.32 22.33,22.32 22.33,22.36 22.62,22.36 22.62,22.34 22.91,22.34 22.91,22.36 23.2,22.36 23.2,22.37 23.48,22.37 23.48,22.21 23.77,22.21 23.77,22.33 24.06,22.33 24.06,22.33 24.35,22.33 24.35,22.27 24.64,22.27 24.64,22.23 24.93,22.23 24.93,22.3 25.22,22.3 25.22,22.28 25.51,22.28 25.51,22.26 25.8,22.26 25.8,22.19 26.09,22.19 26.09,22.2 26.38,22.2 26.38,22.18 26.66,22.18 26.66,22.35 26.95,22.35 26.95,22.34 27.24,22.34 27.24,22.31 27.53,22.31 27.53,22.21 27.82,22.21 27.82,22.25 28.11,22.25 28.11,22.21 28.4,22.21 28.4,22.29 28.69,22.29 28.69,22.35 28.98,22.35 28.98,22.25 29.27,22.25 29.27,22.29 29.55,22.29 29.55,22.34 29.84,22.34 29.84,22.23 30.13,22.23 30.13,22.28 30.42,22.28 30.42,22.22 30.71,22.22 30.71,22.22 31,22.22 31,22.28 31.29,22.28 31.29,22.16 31.58,22.16 31.58,22.25 31.87,22.25 31.87,22.33 32.16,22.33 32.16,22.29 32.45,22.29 32.45,22.28 32.73,22.28 32.73,22.25 33.02,22.25 33.02,22.3 33.31,22.3 33.31,22.29 33.6,22.29 33.6,22.24 33.89,22.24 33.89,22.27 34.18,22.27 34.18,22.39 34.47,22.39 34.47,22.21 34.76,22.21 34.76,22.45 35.05,22.45 35.05,22.29 35.34,22.29 35.34,22.28 35.62,22.28 35.62,22.22 35.91,22.22 35.91,22.24 36.2,22.24 36.2,22.34 36.49,22.34 36.49,22.18 36.78,22.18 36.78,22.27 37.07,22.27 37.07,22.19 37.36,22.19 37.36,22.18 37.65,22.18 37.65,22.29 37.94,22.29 37.94,22.24 38.23,22.24 38.23,22.15 38.51,22.15 38.51,22.26 38.8,22.26 38.8,22.13 39.09,22.13 39.09,22.17 39.38,22.17 39.38,22.24 39.67,22.24 39.67,22.23 39.96,22.23 39.96,22.18 40.25,22.18 40.25,22.19 40.54,22.19 40.54,22.2 40.83,22.2 40.83,22.12 41.12,22.12 41.12,22.12 41.41,22.12 41.41,22.07 41.69,22.07 41.69,22.16 41.98,22.16 41.98,22.09 42.27,22.09 42.27,22.23 42.56,22.23 42.56,22.19 42.85,22.19 42.85,22.13 43.14,22.13 43.14,22.17 43.43,22.17 43.43,22.3 43.72,22.3 43.72,22.31 44.01,22.31 44.01,22.2 44.3,22.2 44.3,22.43 44.58,22.43 44.58,22.3 44.87,22.3 44.87,22.27 45.16,22.27 45.16,22.25 45.45,22.25 45.45,22.27 45.74,22.27 45.74,22.35 46.03,22.35 46.03,22.27 46.32,22.27 46.32,22.27 46.61,22.27 46.61,22.3 46.9,22.3 46.9,22.27 47.19,22.27 47.19,22.33 47.48,22.33 47.48,22.25 47.76,22.25 47.76,22.34 48.05,22.34 48.05,22.23 48.34,22.23 48.34,22.2 48.63,22.2 48.63,22.25 48.92,22.25 48.92,22.26 49.21,22.26 49.21,22.33 49.5,22.33 49.5,22.2 49.79,22.2 49.79,22.28 50.08,22.28 50.08,22.25 50.37,22.25 50.37,22.29 50.65,22.29 50.65,22.2 50.94,22.2 50.94,22.33 51.23,22.33 51.23,22.4 51.52,22.4 51.52,22.34 51.81,22.34 51.81,22.24 52.1,22.24 52.1,22.4 52.39,22.4 52.39,22.29 52.68,22.29 52.68,22.14 52.97,22.14 52.97,22.34 53.26,22.34 53.26,22.3 53.55,22.3 53.55,22.24 53.83,22.24 53.83,22.36 54.12,22.36 54.12,22.36 54.41,22.36 54.41,22.23 54.7,22.23 54.7,22.39 54.99,22.39 54.99,22.23 55.28,22.23 55.28,22.27 55.57,22.27 55.57,22.34 55.86,22.34 55.86,22.26 56.15,22.26 56.15,22.39 56.44,22.39 56.44,22.35 56.72,22.35 56.72,22.25 57.01,22.25 57.01,22.28 57.3,22.28 57.3,22.31 57.59,22.31 57.59,22.21 57.88,22.21 57.88,22.34 58.17,22.34 58.17,22.31 58.46,22.31 58.46,22.28 58.75,22.28 58.75,22.38 59.04,22.38 59.04,22.26 59.33,22.26 59.33,22.36 59.62,22.36 59.62,22.28 59.9,22.28 59.9,22.32 60.19,22.32 60.19,22.31 60.48,22.31 60.48,22.35 60.77,22.35 60.77,22.28 61.06,22.28 61.06,22.34 61.35,22.34 61.35,22.32 61.64,22.32 61.64,22.36 61.93,22.36 61.93,22.4 62.22,22.4 62.22,22.36 62.51,22.36 62.51,22.36 62.79,22.36 62.79,22.32 63.08,22.32 63.08,22.34 63.37,22.34 63.37,22.33 63.66,22.33 63.66,22.34 63.95,22.34 63.95,22.29 64.24,22.29 64.24,22.34 64.53,22.34 64.53,22.25 64.82,22.25 64.82,22.27 65.11,22.27 65.11,22.45 65.4,22.45 65.4,22.29 65.68,22.29 65.68,22.17 65.97,22.17 65.97,22.32 66.26,22.32 66.26,22.22 66.55,22.22 66.55,22.2 66.84,22.2 66.84,22.17 67.13,22.17 67.13,22.25 67.42,22.25 67.42,22.22 67.71,22.22 67.71,22.17 68,22.17 68,22.2 68.29,22.2 68.29,22.05 68.58,22.05 68.58,22 68.86,22 68.86,22.07 69.15,22.07 69.15,21.94 69.44,21.94 69.44,22.06 69.73,22.06 69.73,21.95 70.02,21.95 70.02,22.05 70.31,22.05 70.31,22.08 70.6,22.08 70.6,22.12 70.89,22.12 70.89,22.14 71.18,22.14 71.18,22.06 71.47,22.06 71.47,22.16 71.75,22.16 71.75,22.24 72.04,22.24 72.04,22.27 72.33,22.27 72.33,22.27 72.62,22.27 72.62,22.38 72.91,22.38 72.91,22.38 73.2,22.38 73.2,22.37 73.49,22.37 73.49,22.37 73.78,22.37 73.78,22.31 74.07,22.31 74.07,22.21 74.36,22.21 74.36,22.4 74.65,22.4 74.65,22.38 74.93,22.38 74.93,22.37 75.22,22.37 75.22,22.29 75.51,22.29 75.51,22.4 75.8,22.4 75.8,22.34 76.09,22.34 76.09,22.4 76.38,22.4 76.38,22.31 76.67,22.31 76.67,22.38 76.96,22.38 76.96,22.28 77.25,22.28 77.25,22.22 77.54,22.22 77.54,22.42 77.82,22.42 77.82,22.39 78.11,22.39 78.11,22.36 78.4,22.36 78.4,22.39 78.69,22.39 78.69,22.37 78.98,22.37 78.98,22.31 79.27,22.31 79.27,22.36 79.56,22.36 79.56,22.29 79.85,22.29 79.85,22.4 80.14,22.4 80.14,22.34 80.43,22.34 80.43,22.43 80.72,22.43 80.72,22.43 81,22.43 81,22.33 81.29,22.33 81.29,22.35 81.58,22.35 81.58,22.24 81.87,22.24 81.87,22.4 82.16,22.4 82.16,22.32 82.45,22.32 82.45,22.34 82.74,22.34 82.74,22.24 83.03,22.24 83.03,22.32 83.32,22.32 83.32,22.42 83.61,22.42 83.61,22.36 83.89,22.36 83.89,22.29 84.18,22.29 84.18,22.37 84.47,22.37 84.47,22.38 84.76,22.38 84.76,22.37 85.05,22.37 85.05,22.35 85.34,22.35 85.34,22.3 85.63,22.3 85.63,22.37 85.92,22.37 85.92,22.4 86.21,22.4 86.21,22.37 86.5,22.37 86.5,22.41 86.79,22.41 86.79,22.38 87.07,22.38 87.07,22.34 87.36,22.34 87.36,22.3 87.65,22.3 87.65,22.38 87.94,22.38 87.94,22.34 88.23,22.34 88.23,22.4 88.52,22.4 88.52,22.38 88.81,22.38 88.81,22.24 89.1,22.24 89.1,22.37 89.39,22.37 89.39,22.33 89.68,22.33 89.68,22.38 89.96,22.38 89.96,22.31 90.25,22.31 90.25,22.33 90.54,22.33 90.54,22.38 90.83,22.38 90.83,22.36 91.12,22.36 91.12,22.38 91.41,22.38 91.41,22.42 91.7,22.42 91.7,22.43 91.99,22.43 91.99,22.37 92.28,22.37 92.28,22.29 92.57,22.29 92.57,22.39 92.85,22.39 92.85,22.36 93.14,22.36 93.14,22.36 93.43,22.36 93.43,22.29 93.72,22.29 93.72,22.33 94.01,22.33 94.01,22.2 94.3,22.2 94.3,22.16 94.59,22.16 94.59,22.09 94.88,22.09 94.88,21.93 95.17,21.93 95.17,21.93 95.46,21.93 95.46,21.75 95.75,21.75 95.75,21.61 96.03,21.61 96.03,21.48 96.32,21.48 96.32,21.3 96.61,21.3 96.61,21.1 96.9,21.1 96.9,20.79 97.19,20.79 97.19,20.76 97.48,20.76 97.48,20.69 97.77,20.69 97.77,20.58 98.06,20.58 98.06,20.64 98.35,20.64 98.35,20.53 98.64,20.53 98.64,20.56 98.92,20.56 98.92,20.69 99.21,20.69 99.21,20.78 99.5,20.78 99.5,21.02 99.79,21.02 99.79,21.21 100.08,21.21 100.08,21.35 100.37,21.35 100.37,21.48 100.66,21.48 100.66,21.69 100.95,21.69 100.95,21.81 101.24,21.81 101.24,21.94 101.53,21.94 101.53,21.99 101.82,21.99 101.82,22.09 102.1,22.09 102.1,22.15 102.39,22.15 102.39,22.28 102.68,22.28 102.68,22.28 102.97,22.28 102.97,22.31 103.26,22.31 103.26,22.3 103.55,22.3 103.55,22.21 103.84,22.21 103.84,22.17 104.13,22.17 104.13,22.24 104.42,22.24 104.42,22.2 104.71,22.2 104.71,22.16 104.99,22.16 104.99,22.18 105.28,22.18 105.28,22.17 105.57,22.17 105.57,22.18 105.86,22.18 105.86,22.15 106.15,22.15 106.15,22.1 106.44,22.1 106.44,21.97 106.73,21.97 106.73,21.98 107.02,21.98 107.02,21.98 107.31,21.98 107.31,22.05 107.6,22.05 107.6,22.04 107.89,22.04 107.89,21.99 108.17,21.99 108.17,22.03 108.46,22.03 108.46,21.92 108.75,21.92 108.75,22.1 109.04,22.1 109.04,22.08 109.33,22.08 109.33,22.06 109.62,22.06 109.62,22.24 109.91,22.24 109.91,22.21 110.2,22.21 110.2,22.31 110.49,22.31 110.49,22.21 110.78,22.21 110.78,22.24 111.06,22.24 111.06,22.34 111.35,22.34 111.35,22.39 111.64,22.39 111.64,22.4 111.93,22.4 111.93,22.36 112.22,22.36 112.22,22.42 112.51,22.42 112.51,22.38 112.8,22.38 112.8,22.4 113.09,22.4 113.09,22.38 113.38,22.38 113.38,22.3 113.67,22.3 113.67,22.41 113.96,22.41 113.96,22.39 114.24,22.39 114.24,22.37 114.53,22.37 114.53,22.39 114.82,22.39 114.82,22.44 115.11,22.44 115.11,22.37 115.4,22.37 115.4,22.3 " class="primitive"/>
            </g>
          </g>
        </g>
        <g stroke-width="0.3" fill="#000000" fill-opacity="0.000" class="geometry" id="img-b81be3b4-21">
          <g class="color_RGB{N0f8}(0.063,0.306,0.545)" stroke-dasharray="none" stroke-opacity="1" stroke="#104E8B" id="img-b81be3b4-22">
            <g transform="translate(135.62,28.44)" id="img-b81be3b4-23">
              <path fill="none" d="M-115.54,31.41 L-115.26,31.41 -115.26,31.41 -114.97,31.41 -114.97,31.42 -114.68,31.42 -114.68,31.42 -114.39,31.42 -114.39,31.42 -114.1,31.42 -114.1,31.42 -113.81,31.42 -113.81,31.42 -113.52,31.42 -113.52,31.43 -113.23,31.43 -113.23,31.43 -112.94,31.43 -112.94,31.43 -112.65,31.43 -112.65,31.43 -112.37,31.43 -112.37,31.42 -112.08,31.42 -112.08,31.42 -111.79,31.42 -111.79,31.42 -111.5,31.42 -111.5,31.4 -111.21,31.4 -111.21,31.37 -110.92,31.37 -110.92,31.31 -110.63,31.31 -110.63,31.2 -110.34,31.2 -110.34,30.98 -110.05,30.98 -110.05,30.6 -109.76,30.6 -109.76,29.92 -109.47,29.92 -109.47,28.46 -109.19,28.46 -109.19,25.66 -108.9,25.66 -108.9,21.3 -108.61,21.3 -108.61,14.75 -108.32,14.75 -108.32,7.53 -108.03,7.53 -108.03,1.12 -107.74,1.12 -107.74,-1.84 -107.45,-1.84 -107.45,-0.82 -107.16,-0.82 -107.16,3.99 -106.87,3.99 -106.87,9.56 -106.58,9.56 -106.58,14.43 -106.3,14.43 -106.3,17.52 -106.01,17.52 -106.01,19.46 -105.72,19.46 -105.72,20.89 -105.43,20.89 -105.43,21.61 -105.14,21.61 -105.14,22.56 -104.85,22.56 -104.85,23.2 -104.56,23.2 -104.56,23.67 -104.27,23.67 -104.27,24.26 -103.98,24.26 -103.98,25.04 -103.69,25.04 -103.69,25.77 -103.4,25.77 -103.4,26.38 -103.12,26.38 -103.12,26.71 -102.83,26.71 -102.83,26.84 -102.54,26.84 -102.54,26.83 -102.25,26.83 -102.25,26.51 -101.96,26.51 -101.96,26.01 -101.67,26.01 -101.67,25.2 -101.38,25.2 -101.38,24.12 -101.09,24.12 -101.09,23.11 -100.8,23.11 -100.8,22.34 -100.51,22.34 -100.51,22.08 -100.23,22.08 -100.23,22.11 -99.94,22.11 -99.94,22.48 -99.65,22.48 -99.65,22.7 -99.36,22.7 -99.36,22.25 -99.07,22.25 -99.07,21.21 -98.78,21.21 -98.78,18.56 -98.49,18.56 -98.49,13.62 -98.2,13.62 -98.2,3.55 -97.91,3.55 -97.91,-15.34 -97.62,-15.34 -97.62,-48.3 -97.33,-48.3 -97.33,-100.24 -97.05,-100.24 -97.05,-170.89 -96.76,-170.89 -96.76,-249.51 -96.47,-249.51 -96.47,-318.32 -96.18,-318.32 -96.18,-353.91 -95.89,-353.91 -95.89,-343.77 -95.6,-343.77 -95.6,-289.87 -95.31,-289.87 -95.31,-210.93 -95.02,-210.93 -95.02,-131.13 -94.73,-131.13 -94.73,-66.99 -94.44,-66.99 -94.44,-22.76 -94.16,-22.76 -94.16,2.26 -93.87,2.26 -93.87,15.18 -93.58,15.18 -93.58,21 -93.29,21 -93.29,23.53 -93,23.53 -93,24.33 -92.71,24.33 -92.71,24.61 -92.42,24.61 -92.42,24.74 -92.13,24.74 -92.13,24.56 -91.84,24.56 -91.84,24.56 -91.55,24.56 -91.55,24.23 -91.27,24.23 -91.27,24.05 -90.98,24.05 -90.98,23.82 -90.69,23.82 -90.69,23.6 -90.4,23.6 -90.4,23.46 -90.11,23.46 -90.11,23.51 -89.82,23.51 -89.82,23.37 -89.53,23.37 -89.53,23.09 -89.24,23.09 -89.24,23.08 -88.95,23.08 -88.95,22.94 -88.66,22.94 -88.66,22.69 -88.37,22.69 -88.37,22.88 -88.09,22.88 -88.09,22.52 -87.8,22.52 -87.8,22.41 -87.51,22.41 -87.51,22.34 -87.22,22.34 -87.22,22.15 -86.93,22.15 -86.93,21.87 -86.64,21.87 -86.64,21.89 -86.35,21.89 -86.35,21.71 -86.06,21.71 -86.06,21.38 -85.77,21.38 -85.77,21.25 -85.48,21.25 -85.48,21.06 -85.2,21.06 -85.2,20.96 -84.91,20.96 -84.91,20.66 -84.62,20.66 -84.62,20.48 -84.33,20.48 -84.33,20.45 -84.04,20.45 -84.04,20.28 -83.75,20.28 -83.75,20.02 -83.46,20.02 -83.46,19.81 -83.17,19.81 -83.17,19.6 -82.88,19.6 -82.88,19.36 -82.59,19.36 -82.59,19.09 -82.3,19.09 -82.3,18.9 -82.02,18.9 -82.02,18.81 -81.73,18.81 -81.73,18.38 -81.44,18.38 -81.44,18.44 -81.15,18.44 -81.15,18.14 -80.86,18.14 -80.86,17.92 -80.57,17.92 -80.57,17.73 -80.28,17.73 -80.28,17.6 -79.99,17.6 -79.99,17.12 -79.7,17.12 -79.7,17.09 -79.41,17.09 -79.41,16.68 -79.13,16.68 -79.13,16.7 -78.84,16.7 -78.84,16.42 -78.55,16.42 -78.55,16.24 -78.26,16.24 -78.26,16.32 -77.97,16.32 -77.97,16.02 -77.68,16.02 -77.68,15.95 -77.39,15.95 -77.39,15.7 -77.1,15.7 -77.1,15.47 -76.81,15.47 -76.81,15.3 -76.52,15.3 -76.52,15.12 -76.23,15.12 -76.23,15.19 -75.95,15.19 -75.95,15.1 -75.66,15.1 -75.66,15.24 -75.37,15.24 -75.37,15.08 -75.08,15.08 -75.08,15.1 -74.79,15.1 -74.79,14.88 -74.5,14.88 -74.5,14.86 -74.21,14.86 -74.21,14.58 -73.92,14.58 -73.92,14.36 -73.63,14.36 -73.63,14.28 -73.34,14.28 -73.34,14.01 -73.06,14.01 -73.06,13.7 -72.77,13.7 -72.77,13.84 -72.48,13.84 -72.48,13.77 -72.19,13.77 -72.19,13.67 -71.9,13.67 -71.9,13.77 -71.61,13.77 -71.61,13.76 -71.32,13.76 -71.32,13.94 -71.03,13.94 -71.03,14.07 -70.74,14.07 -70.74,14.09 -70.45,14.09 -70.45,14.35 -70.16,14.35 -70.16,14.33 -69.88,14.33 -69.88,14.48 -69.59,14.48 -69.59,14.46 -69.3,14.46 -69.3,14.47 -69.01,14.47 -69.01,14.52 -68.72,14.52 -68.72,14.41 -68.43,14.41 -68.43,14.39 -68.14,14.39 -68.14,14.26 -67.85,14.26 -67.85,14.06 -67.56,14.06 -67.56,14.14 -67.27,14.14 -67.27,13.88 -66.99,13.88 -66.99,13.81 -66.7,13.81 -66.7,13.85 -66.41,13.85 -66.41,13.43 -66.12,13.43 -66.12,13.1 -65.83,13.1 -65.83,12.87 -65.54,12.87 -65.54,12.88 -65.25,12.88 -65.25,12.59 -64.96,12.59 -64.96,12.62 -64.67,12.62 -64.67,12.45 -64.38,12.45 -64.38,12.42 -64.1,12.42 -64.1,12.5 -63.81,12.5 -63.81,12.75 -63.52,12.75 -63.52,12.56 -63.23,12.56 -63.23,12.73 -62.94,12.73 -62.94,12.51 -62.65,12.51 -62.65,12.55 -62.36,12.55 -62.36,12.69 -62.07,12.69 -62.07,12.74 -61.78,12.74 -61.78,12.69 -61.49,12.69 -61.49,12.04 -61.2,12.04 -61.2,11.24 -60.92,11.24 -60.92,10.06 -60.63,10.06 -60.63,8.27 -60.34,8.27 -60.34,6.45 -60.05,6.45 -60.05,4.19 -59.76,4.19 -59.76,2.61 -59.47,2.61 -59.47,1.57 -59.18,1.57 -59.18,1.08 -58.89,1.08 -58.89,1.66 -58.6,1.66 -58.6,3.13 -58.31,3.13 -58.31,5.01 -58.03,5.01 -58.03,7.44 -57.74,7.44 -57.74,9.35 -57.45,9.35 -57.45,10.97 -57.16,10.97 -57.16,12.03 -56.87,12.03 -56.87,12.66 -56.58,12.66 -56.58,13.26 -56.29,13.26 -56.29,13.46 -56,13.46 -56,13.78 -55.71,13.78 -55.71,13.9 -55.42,13.9 -55.42,13.64 -55.13,13.64 -55.13,13.95 -54.85,13.95 -54.85,13.78 -54.56,13.78 -54.56,13.98 -54.27,13.98 -54.27,13.88 -53.98,13.88 -53.98,13.97 -53.69,13.97 -53.69,14 -53.4,14 -53.4,14 -53.11,14 -53.11,13.81 -52.82,13.81 -52.82,13.93 -52.53,13.93 -52.53,13.92 -52.24,13.92 -52.24,13.85 -51.96,13.85 -51.96,14 -51.67,14 -51.67,13.71 -51.38,13.71 -51.38,13.51 -51.09,13.51 -51.09,13.44 -50.8,13.44 -50.8,13.07 -50.51,13.07 -50.51,12.98 -50.22,12.98 -50.22,12.95 -49.93,12.95 -49.93,13.03 -49.64,13.03 -49.64,13.07 -49.35,13.07 -49.35,13.06 -49.06,13.06 -49.06,13.44 -48.78,13.44 -48.78,13.73 -48.49,13.73 -48.49,13.83 -48.2,13.83 -48.2,14.18 -47.91,14.18 -47.91,14.4 -47.62,14.4 -47.62,14.31 -47.33,14.31 -47.33,14.45 -47.04,14.45 -47.04,14.53 -46.75,14.53 -46.75,14.55 -46.46,14.55 -46.46,14.76 -46.17,14.76 -46.17,14.98 -45.89,14.98 -45.89,14.75 -45.6,14.75 -45.6,14.84 -45.31,14.84 -45.31,14.87 -45.02,14.87 -45.02,14.89 -44.73,14.89 -44.73,14.95 -44.44,14.95 -44.44,14.85 -44.15,14.85 -44.15,15.09 -43.86,15.09 -43.86,14.9 -43.57,14.9 -43.57,15.13 -43.28,15.13 -43.28,14.9 -43,14.9 -43,15.19 -42.71,15.19 -42.71,15.2 -42.42,15.2 -42.42,14.9 -42.13,14.9 -42.13,15.17 -41.84,15.17 -41.84,15.26 -41.55,15.26 -41.55,15.38 -41.26,15.38 -41.26,15.3 -40.97,15.3 -40.97,15.5 -40.68,15.5 -40.68,15.47 -40.39,15.47 -40.39,15.6 -40.1,15.6 -40.1,15.42 -39.82,15.42 -39.82,15.47 -39.53,15.47 -39.53,15.44 -39.24,15.44 -39.24,15.54 -38.95,15.54 -38.95,15.7 -38.66,15.7 -38.66,15.63 -38.37,15.63 -38.37,15.8 -38.08,15.8 -38.08,15.68 -37.79,15.68 -37.79,15.9 -37.5,15.9 -37.5,15.8 -37.21,15.8 -37.21,15.84 -36.93,15.84 -36.93,15.92 -36.64,15.92 -36.64,15.76 -36.35,15.76 -36.35,15.76 -36.06,15.76 -36.06,15.95 -35.77,15.95 -35.77,16.05 -35.48,16.05 -35.48,15.96 -35.19,15.96 -35.19,16.08 -34.9,16.08 -34.9,16.22 -34.61,16.22 -34.61,16.15 -34.32,16.15 -34.32,16.15 -34.03,16.15 -34.03,16.18 -33.75,16.18 -33.75,16.33 -33.46,16.33 -33.46,16.25 -33.17,16.25 -33.17,16.46 -32.88,16.46 -32.88,16.41 -32.59,16.41 -32.59,16.33 -32.3,16.33 -32.3,16.35 -32.01,16.35 -32.01,16.43 -31.72,16.43 -31.72,16.56 -31.43,16.56 -31.43,16.44 -31.14,16.44 -31.14,16.41 -30.86,16.41 -30.86,16.5 -30.57,16.5 -30.57,16.45 -30.28,16.45 -30.28,16.5 -29.99,16.5 -29.99,16.49 -29.7,16.49 -29.7,16.44 -29.41,16.44 -29.41,16.56 -29.12,16.56 -29.12,16.61 -28.83,16.61 -28.83,16.71 -28.54,16.71 -28.54,16.58 -28.25,16.58 -28.25,16.55 -27.96,16.55 -27.96,16.76 -27.68,16.76 -27.68,16.83 -27.39,16.83 -27.39,16.7 -27.1,16.7 -27.1,16.79 -26.81,16.79 -26.81,16.8 -26.52,16.8 -26.52,16.72 -26.23,16.72 -26.23,16.84 -25.94,16.84 -25.94,16.76 -25.65,16.76 -25.65,16.9 -25.36,16.9 -25.36,17.01 -25.07,17.01 -25.07,16.81 -24.79,16.81 -24.79,16.83 -24.5,16.83 -24.5,16.74 -24.21,16.74 -24.21,16.94 -23.92,16.94 -23.92,16.99 -23.63,16.99 -23.63,16.77 -23.34,16.77 -23.34,16.88 -23.05,16.88 -23.05,17.01 -22.76,17.01 -22.76,16.98 -22.47,16.98 -22.47,17.03 -22.18,17.03 -22.18,16.93 -21.89,16.93 -21.89,17.25 -21.61,17.25 -21.61,17.16 -21.32,17.16 -21.32,17.28 -21.03,17.28 -21.03,17.57 -20.74,17.57 -20.74,17.58 -20.45,17.58 -20.45,17.56 -20.16,17.56 -20.16,17.81 -19.87,17.81 -19.87,17.77 -19.58,17.77 -19.58,17.91 -19.29,17.91 -19.29,17.88 -19,17.88 -19,18.12 -18.72,18.12 -18.72,18.09 -18.43,18.09 -18.43,18.07 -18.14,18.07 -18.14,18.28 -17.85,18.28 -17.85,18.16 -17.56,18.16 -17.56,18.15 -17.27,18.15 -17.27,18.34 -16.98,18.34 -16.98,18.03 -16.69,18.03 -16.69,18.06 -16.4,18.06 -16.4,17.66 -16.11,17.66 -16.11,17.68 -15.83,17.68 -15.83,17.58 -15.54,17.58 -15.54,17.22 -15.25,17.22 -15.25,16.83 -14.96,16.83 -14.96,16.39 -14.67,16.39 -14.67,15.56 -14.38,15.56 -14.38,14.73 -14.09,14.73 -14.09,13.67 -13.8,13.67 -13.8,12.34 -13.51,12.34 -13.51,10.19 -13.22,10.19 -13.22,6.89 -12.93,6.89 -12.93,1.81 -12.65,1.81 -12.65,-6.5 -12.36,-6.5 -12.36,-20.33 -12.07,-20.33 -12.07,-41.96 -11.78,-41.96 -11.78,-75.75 -11.49,-75.75 -11.49,-126.3 -11.2,-126.3 -11.2,-196.66 -10.91,-196.66 -10.91,-291.12 -10.62,-291.12 -10.62,-409.63 -10.33,-409.63 -10.33,-546.68 -10.04,-546.68 -10.04,-695.74 -9.76,-695.74 -9.76,-842.55 -9.47,-842.55 -9.47,-971.03 -9.18,-971.03 -9.18,-1064.96 -8.89,-1064.96 -8.89,-1111.78 -8.6,-1111.78 -8.6,-1102.86 -8.31,-1102.86 -8.31,-1044.41 -8.02,-1044.41 -8.02,-941.04 -7.73,-941.04 -7.73,-805.75 -7.44,-805.75 -7.44,-657.87 -7.15,-657.87 -7.15,-510.73 -6.86,-510.73 -6.86,-376.85 -6.58,-376.85 -6.58,-263.87 -6.29,-263.87 -6.29,-174 -6,-174 -6,-107.64 -5.71,-107.64 -5.71,-61.22 -5.42,-61.22 -5.42,-29.8 -5.13,-29.8 -5.13,-10.07 -4.84,-10.07 -4.84,1.48 -4.55,1.48 -4.55,8.36 -4.26,8.36 -4.26,11.96 -3.97,11.96 -3.97,13.13 -3.69,13.13 -3.69,13.76 -3.4,13.76 -3.4,12.84 -3.11,12.84 -3.11,11.1 -2.82,11.1 -2.82,8.39 -2.53,8.39 -2.53,4.11 -2.24,4.11 -2.24,-1.62 -1.95,-1.62 -1.95,-10.2 -1.66,-10.2 -1.66,-21.25 -1.37,-21.25 -1.37,-34.1 -1.08,-34.1 -1.08,-49.96 -0.79,-49.96 -0.79,-65.88 -0.51,-65.88 -0.51,-82.06 -0.22,-82.06 -0.22,-96.24 0.07,-96.24 0.07,-108.29 0.36,-108.29 0.36,-114 0.65,-114 0.65,-114.68 0.94,-114.68 0.94,-109.23 1.23,-109.23 1.23,-99.43 1.52,-99.43 1.52,-84.82 1.81,-84.82 1.81,-68.2 2.1,-68.2 2.1,-50.4 2.38,-50.4 2.38,-34.06 2.67,-34.06 2.67,-19.48 2.96,-19.48 2.96,-7.33 3.25,-7.33 3.25,2.56 3.54,2.56 3.54,9.7 3.83,9.7 3.83,14.81 4.12,14.81 4.12,18.24 4.41,18.24 4.41,20.48 4.7,20.48 4.7,22.01 4.99,22.01 4.99,23.05 5.28,23.05 5.28,23.46 5.56,23.46 5.56,23.81 5.85,23.81 5.85,23.94 6.14,23.94 6.14,24.06 6.43,24.06 6.43,24.02 6.72,24.02 6.72,24.09 7.01,24.09 7.01,24.15 7.3,24.15 7.3,24.08 7.59,24.08 7.59,24.03 7.88,24.03 7.88,24.03 8.17,24.03 8.17,23.94 8.45,23.94 8.45,23.62 8.74,23.62 8.74,23.6 9.03,23.6 9.03,23.38 9.32,23.38 9.32,23.34 9.61,23.34 9.61,23.07 9.9,23.07 9.9,23.03 10.19,23.03 10.19,22.87 10.48,22.87 10.48,22.78 10.77,22.78 10.77,22.93 11.06,22.93 11.06,22.92 11.34,22.92 11.34,22.96 11.63,22.96 11.63,23.13 11.92,23.13 11.92,23.23 12.21,23.23 12.21,23.44 12.5,23.44 12.5,23.65 12.79,23.65 12.79,23.84 13.08,23.84 13.08,24.02 13.37,24.02 13.37,24.12 13.66,24.12 13.66,24.28 13.95,24.28 13.95,24.26 14.24,24.26 14.24,24.33 14.52,24.33 14.52,24.54 14.81,24.54 14.81,24.32 15.1,24.32 15.1,24.45 15.39,24.45 15.39,24.52 15.68,24.52 15.68,24.49 15.97,24.49 15.97,24.58 16.26,24.58 16.26,24.57 16.55,24.57 16.55,24.54 16.84,24.54 16.84,24.58 17.13,24.58 17.13,24.53 17.41,24.53 17.41,24.45 17.7,24.45 17.7,24.4 17.99,24.4 17.99,24.57 18.28,24.57 18.28,24.55 18.57,24.55 18.57,24.46 18.86,24.46 18.86,24.61 19.15,24.61 19.15,24.55 19.44,24.55 19.44,24.47 19.73,24.47 19.73,24.46 20.02,24.46 20.02,24.39 20.31,24.39 20.31,24.57 20.59,24.57 20.59,24.53 20.88,24.53 20.88,24.44 21.17,24.44 21.17,24.52 21.46,24.52 21.46,24.53 21.75,24.53 21.75,24.58 22.04,24.58 22.04,24.74 22.33,24.74 22.33,24.79 22.62,24.79 22.62,24.79 22.91,24.79 22.91,24.81 23.2,24.81 23.2,24.84 23.48,24.84 23.48,24.69 23.77,24.69 23.77,24.82 24.06,24.82 24.06,24.84 24.35,24.84 24.35,24.79 24.64,24.79 24.64,24.76 24.93,24.76 24.93,24.84 25.22,24.84 25.22,24.84 25.51,24.84 25.51,24.82 25.8,24.82 25.8,24.77 26.09,24.77 26.09,24.79 26.38,24.79 26.38,24.78 26.66,24.78 26.66,24.97 26.95,24.97 26.95,24.97 27.24,24.97 27.24,24.95 27.53,24.95 27.53,24.86 27.82,24.86 27.82,24.91 28.11,24.91 28.11,24.89 28.4,24.89 28.4,24.98 28.69,24.98 28.69,25.05 28.98,25.05 28.98,24.97 29.27,24.97 29.27,25.02 29.55,25.02 29.55,25.08 29.84,25.08 29.84,24.98 30.13,24.98 30.13,25.04 30.42,25.04 30.42,24.99 30.71,24.99 30.71,25 31,25 31,25.08 31.29,25.08 31.29,24.97 31.58,24.97 31.58,25.07 31.87,25.07 31.87,25.16 32.16,25.16 32.16,25.14 32.45,25.14 32.45,25.14 32.73,25.14 32.73,25.12 33.02,25.12 33.02,25.18 33.31,25.18 33.31,25.19 33.6,25.19 33.6,25.15 33.89,25.15 33.89,25.19 34.18,25.19 34.18,25.32 34.47,25.32 34.47,25.16 34.76,25.16 34.76,25.4 35.05,25.4 35.05,25.26 35.34,25.26 35.34,25.26 35.62,25.26 35.62,25.21 35.91,25.21 35.91,25.24 36.2,25.24 36.2,25.36 36.49,25.36 36.49,25.21 36.78,25.21 36.78,25.31 37.07,25.31 37.07,25.24 37.36,25.24 37.36,25.25 37.65,25.25 37.65,25.37 37.94,25.37 37.94,25.33 38.23,25.33 38.23,25.25 38.51,25.25 38.51,25.37 38.8,25.37 38.8,25.25 39.09,25.25 39.09,25.3 39.38,25.3 39.38,25.39 39.67,25.39 39.67,25.39 39.96,25.39 39.96,25.35 40.25,25.35 40.25,25.37 40.54,25.37 40.54,25.39 40.83,25.39 40.83,25.33 41.12,25.33 41.12,25.34 41.41,25.34 41.41,25.3 41.69,25.3 41.69,25.4 41.98,25.4 41.98,25.34 42.27,25.34 42.27,25.5 42.56,25.5 42.56,25.46 42.85,25.46 42.85,25.42 43.14,25.42 43.14,25.47 43.43,25.47 43.43,25.62 43.72,25.62 43.72,25.64 44.01,25.64 44.01,25.53 44.3,25.53 44.3,25.78 44.58,25.78 44.58,25.66 44.87,25.66 44.87,25.64 45.16,25.64 45.16,25.63 45.45,25.63 45.45,25.66 45.74,25.66 45.74,25.75 46.03,25.75 46.03,25.69 46.32,25.69 46.32,25.7 46.61,25.7 46.61,25.74 46.9,25.74 46.9,25.72 47.19,25.72 47.19,25.79 47.48,25.79 47.48,25.72 47.76,25.72 47.76,25.83 48.05,25.83 48.05,25.72 48.34,25.72 48.34,25.7 48.63,25.7 48.63,25.77 48.92,25.77 48.92,25.79 49.21,25.79 49.21,25.87 49.5,25.87 49.5,25.76 49.79,25.76 49.79,25.84 50.08,25.84 50.08,25.82 50.37,25.82 50.37,25.87 50.65,25.87 50.65,25.8 50.94,25.8 50.94,25.94 51.23,25.94 51.23,26.02 51.52,26.02 51.52,25.97 51.81,25.97 51.81,25.89 52.1,25.89 52.1,26.05 52.39,26.05 52.39,25.95 52.68,25.95 52.68,25.81 52.97,25.81 52.97,26.03 53.26,26.03 53.26,26 53.55,26 53.55,25.95 53.83,25.95 53.83,26.08 54.12,26.08 54.12,26.09 54.41,26.09 54.41,25.97 54.7,25.97 54.7,26.14 54.99,26.14 54.99,26 55.28,26 55.28,26.05 55.57,26.05 55.57,26.13 55.86,26.13 55.86,26.06 56.15,26.06 56.15,26.2 56.44,26.2 56.44,26.17 56.72,26.17 56.72,26.08 57.01,26.08 57.01,26.12 57.3,26.12 57.3,26.17 57.59,26.17 57.59,26.07 57.88,26.07 57.88,26.21 58.17,26.21 58.17,26.2 58.46,26.2 58.46,26.17 58.75,26.17 58.75,26.29 59.04,26.29 59.04,26.17 59.33,26.17 59.33,26.29 59.62,26.29 59.62,26.22 59.9,26.22 59.9,26.27 60.19,26.27 60.19,26.27 60.48,26.27 60.48,26.32 60.77,26.32 60.77,26.26 61.06,26.26 61.06,26.33 61.35,26.33 61.35,26.32 61.64,26.32 61.64,26.37 61.93,26.37 61.93,26.43 62.22,26.43 62.22,26.4 62.51,26.4 62.51,26.41 62.79,26.41 62.79,26.37 63.08,26.37 63.08,26.4 63.37,26.4 63.37,26.41 63.66,26.41 63.66,26.43 63.95,26.43 63.95,26.38 64.24,26.38 64.24,26.45 64.53,26.45 64.53,26.37 64.82,26.37 64.82,26.4 65.11,26.4 65.11,26.59 65.4,26.59 65.4,26.44 65.68,26.44 65.68,26.33 65.97,26.33 65.97,26.49 66.26,26.49 66.26,26.4 66.55,26.4 66.55,26.39 66.84,26.39 66.84,26.37 67.13,26.37 67.13,26.47 67.42,26.47 67.42,26.44 67.71,26.44 67.71,26.4 68,26.4 68,26.45 68.29,26.45 68.29,26.3 68.58,26.3 68.58,26.27 68.86,26.27 68.86,26.35 69.15,26.35 69.15,26.22 69.44,26.22 69.44,26.35 69.73,26.35 69.73,26.25 70.02,26.25 70.02,26.36 70.31,26.36 70.31,26.4 70.6,26.4 70.6,26.45 70.89,26.45 70.89,26.49 71.18,26.49 71.18,26.41 71.47,26.41 71.47,26.53 71.75,26.53 71.75,26.61 72.04,26.61 72.04,26.66 72.33,26.66 72.33,26.67 72.62,26.67 72.62,26.78 72.91,26.78 72.91,26.79 73.2,26.79 73.2,26.79 73.49,26.79 73.49,26.81 73.78,26.81 73.78,26.75 74.07,26.75 74.07,26.66 74.36,26.66 74.36,26.86 74.65,26.86 74.65,26.85 74.93,26.85 74.93,26.86 75.22,26.86 75.22,26.79 75.51,26.79 75.51,26.91 75.8,26.91 75.8,26.85 76.09,26.85 76.09,26.92 76.38,26.92 76.38,26.85 76.67,26.85 76.67,26.92 76.96,26.92 76.96,26.83 77.25,26.83 77.25,26.78 77.54,26.78 77.54,26.99 77.82,26.99 77.82,26.97 78.11,26.97 78.11,26.95 78.4,26.95 78.4,26.99 78.69,26.99 78.69,26.98 78.98,26.98 78.98,26.93 79.27,26.93 79.27,26.99 79.56,26.99 79.56,26.93 79.85,26.93 79.85,27.05 80.14,27.05 80.14,27 80.43,27 80.43,27.09 80.72,27.09 80.72,27.11 81,27.11 81,27.01 81.29,27.01 81.29,27.05 81.58,27.05 81.58,26.94 81.87,26.94 81.87,27.12 82.16,27.12 82.16,27.04 82.45,27.04 82.45,27.07 82.74,27.07 82.74,26.98 83.03,26.98 83.03,27.07 83.32,27.07 83.32,27.18 83.61,27.18 83.61,27.14 83.89,27.14 83.89,27.07 84.18,27.07 84.18,27.16 84.47,27.16 84.47,27.18 84.76,27.18 84.76,27.18 85.05,27.18 85.05,27.17 85.34,27.17 85.34,27.13 85.63,27.13 85.63,27.2 85.92,27.2 85.92,27.24 86.21,27.24 86.21,27.22 86.5,27.22 86.5,27.27 86.79,27.27 86.79,27.26 87.07,27.26 87.07,27.23 87.36,27.23 87.36,27.19 87.65,27.19 87.65,27.28 87.94,27.28 87.94,27.25 88.23,27.25 88.23,27.32 88.52,27.32 88.52,27.31 88.81,27.31 88.81,27.18 89.1,27.18 89.1,27.31 89.39,27.31 89.39,27.28 89.68,27.28 89.68,27.34 89.96,27.34 89.96,27.28 90.25,27.28 90.25,27.31 90.54,27.31 90.54,27.37 90.83,27.37 90.83,27.35 91.12,27.35 91.12,27.39 91.41,27.39 91.41,27.43 91.7,27.43 91.7,27.45 91.99,27.45 91.99,27.4 92.28,27.4 92.28,27.33 92.57,27.33 92.57,27.45 92.85,27.45 92.85,27.42 93.14,27.42 93.14,27.42 93.43,27.42 93.43,27.37 93.72,27.37 93.72,27.42 94.01,27.42 94.01,27.29 94.3,27.29 94.3,27.26 94.59,27.26 94.59,27.21 94.88,27.21 94.88,27.05 95.17,27.05 95.17,27.06 95.46,27.06 95.46,26.89 95.75,26.89 95.75,26.76 96.03,26.76 96.03,26.63 96.32,26.63 96.32,26.47 96.61,26.47 96.61,26.28 96.9,26.28 96.9,25.98 97.19,25.98 97.19,25.95 97.48,25.95 97.48,25.89 97.77,25.89 97.77,25.79 98.06,25.79 98.06,25.86 98.35,25.86 98.35,25.75 98.64,25.75 98.64,25.79 98.92,25.79 98.92,25.93 99.21,25.93 99.21,26.03 99.5,26.03 99.5,26.28 99.79,26.28 99.79,26.47 100.08,26.47 100.08,26.63 100.37,26.63 100.37,26.77 100.66,26.77 100.66,26.98 100.95,26.98 100.95,27.11 101.24,27.11 101.24,27.25 101.53,27.25 101.53,27.3 101.82,27.3 101.82,27.42 102.1,27.42 102.1,27.49 102.39,27.49 102.39,27.62 102.68,27.62 102.68,27.63 102.97,27.63 102.97,27.67 103.26,27.67 103.26,27.67 103.55,27.67 103.55,27.59 103.84,27.59 103.84,27.55 104.13,27.55 104.13,27.63 104.42,27.63 104.42,27.6 104.71,27.6 104.71,27.57 104.99,27.57 104.99,27.6 105.28,27.6 105.28,27.6 105.57,27.6 105.57,27.61 105.86,27.61 105.86,27.59 106.15,27.59 106.15,27.54 106.44,27.54 106.44,27.42 106.73,27.42 106.73,27.44 107.02,27.44 107.02,27.45 107.31,27.45 107.31,27.53 107.6,27.53 107.6,27.53 107.89,27.53 107.89,27.49 108.17,27.49 108.17,27.54 108.46,27.54 108.46,27.44 108.75,27.44 108.75,27.62 109.04,27.62 109.04,27.61 109.33,27.61 109.33,27.6 109.62,27.6 109.62,27.78 109.91,27.78 109.91,27.77 110.2,27.77 110.2,27.87 110.49,27.87 110.49,27.78 110.78,27.78 110.78,27.81 111.06,27.81 111.06,27.92 111.35,27.92 111.35,27.99 111.64,27.99 111.64,28 111.93,28 111.93,27.97 112.22,27.97 112.22,28.03 112.51,28.03 112.51,28 112.8,28 112.8,28.03 113.09,28.03 113.09,28.01 113.38,28.01 113.38,27.95 113.67,27.95 113.67,28.07 113.96,28.07 113.96,28.05 114.24,28.05 114.24,28.05 114.53,28.05 114.53,28.07 114.82,28.07 114.82,28.13 115.11,28.13 115.11,28.07 115.4,28.07 115.4,28 " class="primitive"/>
            </g>
          </g>
        </g>
      </g>
      <g class="guide colorkey" id="img-b81be3b4-24">
        <g fill="#4C404B" font-size="2.82" font-family="'PT Sans','Helvetica Neue','Helvetica',sans-serif" id="img-b81be3b4-25">
          <g transform="translate(210.87,31.7)" id="img-b81be3b4-26">
            <g class="primitive">
              <text dy="0.35em">CaF2 std</text>
            </g>
          </g>
          <g transform="translate(210.87,35.33)" id="img-b81be3b4-27">
            <g class="primitive">
              <text dy="0.35em">CharOnly[CaF2 std]</text>
            </g>
          </g>
        </g>
        <g stroke-width="0.3" id="img-b81be3b4-28">
          <g stroke="#FFFFFF" fill-opacity="1" fill="#B70002" id="img-b81be3b4-29">
            <g transform="translate(208.05,35.33)" id="img-b81be3b4-30">
              <circle cx="0" cy="0" r="0.9" class="primitive"/>
            </g>
          </g>
          <g stroke="#FFFFFF" fill-opacity="1" fill="#104E8B" id="img-b81be3b4-31">
            <g transform="translate(208.05,31.7)" id="img-b81be3b4-32">
              <circle cx="0" cy="0" r="0.9" class="primitive"/>
            </g>
          </g>
        </g>
        <g fill="#362A35" font-size="3.18" font-family="'PT Sans','Helvetica Neue','Helvetica',sans-serif" stroke="#000000" stroke-opacity="0.000" id="img-b81be3b4-33">
          <g transform="translate(207.24,28.39)" id="img-b81be3b4-34">
            <g class="primitive">
              <text dy="-0em">Spectra</text>
            </g>
          </g>
        </g>
      </g>
    </g>
  </g>
  <g class="guide ylabels" font-size="2.82" font-family="'PT Sans Caption','Helvetica Neue','Helvetica',sans-serif" fill="#6C606B" id="img-b81be3b4-35">
    <g transform="translate(17.03,59.87)" id="img-b81be3b4-36">
      <g class="primitive">
        <text text-anchor="end" dy="0.35em">0</text>
      </g>
    </g>
    <g transform="translate(17.03,30.01)" id="img-b81be3b4-37">
      <g class="primitive">
        <text text-anchor="end" dy="0.35em">50000</text>
      </g>
    </g>
  </g>
  <g font-size="3.18" font-family="'PT Sans','Helvetica Neue','Helvetica',sans-serif" fill="#202020" stroke="#000000" stroke-opacity="0.000" id="img-b81be3b4-38">
    <g transform="translate(4.18,29.29)" id="img-b81be3b4-39">
      <g class="primitive">
        <text text-anchor="middle" dy="0.35em" transform="rotate(-90,0, 2)">Counts</text>
      </g>
    </g>
  </g>
</g>
<defs>
  <clipPath id="img-b81be3b4-4">
    <path d="M18.03,0.71 L253.29,0.71 253.29,61.87 18.03,61.87 " />
  </clipPath>
</defs>
</svg>
