<?xml version="1.0" encoding="UTF-8"?>
<svg xmlns="http://www.w3.org/2000/svg"
     xmlns:xlink="http://www.w3.org/1999/xlink"
     xmlns:gadfly="http://www.gadflyjl.org/ns"
     version="1.2"
     width="254mm" height="76.2mm" viewBox="0 0 254 76.2"
     stroke="none"
     fill="#000000"
     stroke-width="0.3"
     font-size="3.88"
>
<defs>
  <marker id="arrow" markerWidth="15" markerHeight="7" refX="5" refY="3.5" orient="auto" markerUnits="strokeWidth">
    <path d="M0,0 L15,3.5 L0,7 z" stroke="context-stroke" fill="context-stroke"/>
  </marker>
</defs>
<g class="plotroot xscalable yscalable" id="img-157b8dd3-1">
  <g font-size="3.18" font-family="'PT Sans','Helvetica Neue','Helvetica',sans-serif" fill="#202020" stroke="#000000" stroke-opacity="0.000" id="img-157b8dd3-2">
    <g transform="translate(136.5,69.54)">
      <g class="primitive">
        <text text-anchor="middle" dy="0.6em">Energy (eV)</text>
      </g>
    </g>
  </g>
  <g class="guide xlabels" font-size="2.82" font-family="'PT Sans Caption','Helvetica Neue','Helvetica',sans-serif" fill="#6C606B" id="img-157b8dd3-3">
    <g transform="translate(21.7,62.87)">
      <g class="primitive">
        <text text-anchor="middle" dy="0.6em">0</text>
      </g>
    </g>
    <g transform="translate(79.1,62.87)">
      <g class="primitive">
        <text text-anchor="middle" dy="0.6em">2000</text>
      </g>
    </g>
    <g transform="translate(136.5,62.87)">
      <g class="primitive">
        <text text-anchor="middle" dy="0.6em">4000</text>
      </g>
    </g>
    <g transform="translate(193.9,62.87)">
      <g class="primitive">
        <text text-anchor="middle" dy="0.6em">6000</text>
      </g>
    </g>
    <g transform="translate(251.29,62.87)">
      <g class="primitive">
        <text text-anchor="middle" dy="0.6em">8000</text>
      </g>
    </g>
  </g>
  <g clip-path="url(#img-157b8dd3-4)">
    <g id="img-157b8dd3-5">
      <g pointer-events="visible" stroke-width="0.3" fill="#FDFDF1" stroke="#202020" class="guide background" id="img-157b8dd3-6">
        <g transform="translate(136.5,31.29)" id="img-157b8dd3-7">
          <path d="M-116.8,-30.58 L116.8,-30.58 116.8,30.58 -116.8,30.58  z" class="primitive"/>
        </g>
      </g>
      <g class="guide ygridlines xfixed" stroke-dasharray="none" stroke-width="0.2" stroke="#FFDFDF" id="img-157b8dd3-8">
        <g transform="translate(136.5,59.87)" id="img-157b8dd3-9">
          <path fill="none" d="M-116.8,0 L116.8,0 " class="primitive"/>
        </g>
        <g transform="translate(136.5,44.7)" id="img-157b8dd3-10">
          <path fill="none" d="M-116.8,0 L116.8,0 " class="primitive"/>
        </g>
        <g transform="translate(136.5,29.54)" id="img-157b8dd3-11">
          <path fill="none" d="M-116.8,0 L116.8,0 " class="primitive"/>
        </g>
        <g transform="translate(136.5,14.38)" id="img-157b8dd3-12">
          <path fill="none" d="M-116.8,0 L116.8,0 " class="primitive"/>
        </g>
      </g>
      <g class="guide xgridlines yfixed" stroke-dasharray="none" stroke-width="0.2" stroke="#FFDFDF" id="img-157b8dd3-13">
        <g transform="translate(21.7,31.29)" id="img-157b8dd3-14">
          <path fill="none" d="M0,-30.58 L0,30.58 " class="primitive"/>
        </g>
        <g transform="translate(79.1,31.29)" id="img-157b8dd3-15">
          <path fill="none" d="M0,-30.58 L0,30.58 " class="primitive"/>
        </g>
        <g transform="translate(136.5,31.29)" id="img-157b8dd3-16">
          <path fill="none" d="M0,-30.58 L0,30.58 " class="primitive"/>
        </g>
        <g transform="translate(193.9,31.29)" id="img-157b8dd3-17">
          <path fill="none" d="M0,-30.58 L0,30.58 " class="primitive"/>
        </g>
        <g transform="translate(251.29,31.29)" id="img-157b8dd3-18">
          <path fill="none" d="M0,-30.58 L0,30.58 " class="primitive"/>
        </g>
      </g>
      <g class="plotpanel" id="img-157b8dd3-19">
        <metadata>
          <boundingbox value="19.70055555555556mm 0.7055555555555555mm 233.5938888888889mm 61.16055555555556mm"/>
          <unitbox value="-69.68826599623972 195083.39961657708 8139.376531992479 -201678.44923315418"/>
        </metadata>
        <g stroke-width="0.3" fill="#000000" fill-opacity="0.000" class="geometry" id="img-157b8dd3-20">
          <g class="color_RGB{N0f8}(0.718,0.0,0.008)" stroke-dasharray="none" stroke-opacity="1" stroke="#B70002" id="img-157b8dd3-21">
            <g transform="translate(136.46,45.73)" id="img-157b8dd3-22">
              <path fill="none" d="M-114.71,14.13 L-114.42,14.13 -114.42,14.12 -114.13,14.12 -114.13,14.12 -113.85,14.12 -113.85,14.13 -113.56,14.13 -113.56,14.13 -113.27,14.13 -113.27,14.13 -112.99,14.13 -112.99,14.13 -112.7,14.13 -112.7,14.13 -112.41,14.13 -112.41,14.13 -112.13,14.13 -112.13,14.13 -111.84,14.13 -111.84,14.13 -111.55,14.13 -111.55,14.13 -111.27,14.13 -111.27,14.13 -110.98,14.13 -110.98,14.12 -110.69,14.12 -110.69,14.12 -110.4,14.12 -110.4,14.1 -110.12,14.1 -110.12,14.09 -109.83,14.09 -109.83,14.06 -109.54,14.06 -109.54,14 -109.26,14 -109.26,13.89 -108.97,13.89 -108.97,13.68 -108.68,13.68 -108.68,13.31 -108.4,13.31 -108.4,12.64 -108.11,12.64 -108.11,11.55 -107.82,11.55 -107.82,9.95 -107.53,9.95 -107.53,8.21 -107.25,8.21 -107.25,6.8 -106.96,6.8 -106.96,6.34 -106.67,6.34 -106.67,7.24 -106.39,7.24 -106.39,8.91 -106.1,8.91 -106.1,10.87 -105.81,10.87 -105.81,12.72 -105.53,12.72 -105.53,13.98 -105.24,13.98 -105.24,14.8 -104.95,14.8 -104.95,15.28 -104.67,15.28 -104.67,15.51 -104.38,15.51 -104.38,15.54 -104.09,15.54 -104.09,15.48 -103.8,15.48 -103.8,15.28 -103.52,15.28 -103.52,14.94 -103.23,14.94 -103.23,14.48 -102.94,14.48 -102.94,13.78 -102.66,13.78 -102.66,12.53 -102.37,12.53 -102.37,10.2 -102.08,10.2 -102.08,5.32 -101.8,5.32 -101.8,-4.48 -101.51,-4.48 -101.51,-22.98 -101.22,-22.98 -101.22,-54.97 -100.93,-54.97 -100.93,-103.61 -100.65,-103.61 -100.65,-164.78 -100.36,-164.78 -100.36,-229.04 -100.07,-229.04 -100.07,-274.28 -99.79,-274.28 -99.79,-284.75 -99.5,-284.75 -99.5,-255.91 -99.21,-255.91 -99.21,-197.26 -98.93,-197.26 -98.93,-129.66 -98.64,-129.66 -98.64,-70.25 -98.35,-70.25 -98.35,-29.38 -98.07,-29.38 -98.07,-5.14 -97.78,-5.14 -97.78,7.25 -97.49,7.25 -97.49,12.63 -97.2,12.63 -97.2,14.83 -96.92,14.83 -96.92,15.67 -96.63,15.67 -96.63,15.89 -96.34,15.89 -96.34,15.9 -96.06,15.9 -96.06,15.74 -95.77,15.74 -95.77,15.5 -95.48,15.5 -95.48,15.2 -95.2,15.2 -95.2,14.99 -94.91,14.99 -94.91,14.77 -94.62,14.77 -94.62,14.67 -94.34,14.67 -94.34,14.63 -94.05,14.63 -94.05,14.57 -93.76,14.57 -93.76,14.74 -93.47,14.74 -93.47,14.79 -93.19,14.79 -93.19,14.79 -92.9,14.79 -92.9,14.92 -92.61,14.92 -92.61,14.94 -92.33,14.94 -92.33,15 -92.04,15 -92.04,14.89 -91.75,14.89 -91.75,15.01 -91.47,15.01 -91.47,14.95 -91.18,14.95 -91.18,14.94 -90.89,14.94 -90.89,14.95 -90.6,14.95 -90.6,14.96 -90.32,14.96 -90.32,14.88 -90.03,14.88 -90.03,14.92 -89.74,14.92 -89.74,14.94 -89.46,14.94 -89.46,14.99 -89.17,14.99 -89.17,14.9 -88.88,14.9 -88.88,15.01 -88.6,15.01 -88.6,14.98 -88.31,14.98 -88.31,14.94 -88.02,14.94 -88.02,15.01 -87.74,15.01 -87.74,15 -87.45,15 -87.45,14.93 -87.16,14.93 -87.16,14.99 -86.87,14.99 -86.87,14.94 -86.59,14.94 -86.59,14.91 -86.3,14.91 -86.3,14.84 -86.01,14.84 -86.01,14.81 -85.73,14.81 -85.73,14.78 -85.44,14.78 -85.44,14.71 -85.15,14.71 -85.15,14.54 -84.87,14.54 -84.87,14.47 -84.58,14.47 -84.58,14.48 -84.29,14.48 -84.29,14.59 -84,14.59 -84,14.71 -83.72,14.71 -83.72,14.7 -83.43,14.7 -83.43,14.78 -83.14,14.78 -83.14,14.77 -82.86,14.77 -82.86,14.71 -82.57,14.71 -82.57,14.69 -82.28,14.69 -82.28,14.64 -82,14.64 -82,14.59 -81.71,14.59 -81.71,14.48 -81.42,14.48 -81.42,14.35 -81.14,14.35 -81.14,14.26 -80.85,14.26 -80.85,14.16 -80.56,14.16 -80.56,14.05 -80.27,14.05 -80.27,13.8 -79.99,13.8 -79.99,13.61 -79.7,13.61 -79.7,13.38 -79.41,13.38 -79.41,13.09 -79.13,13.09 -79.13,12.8 -78.84,12.8 -78.84,12.64 -78.55,12.64 -78.55,12.37 -78.27,12.37 -78.27,11.94 -77.98,11.94 -77.98,11.52 -77.69,11.52 -77.69,11.05 -77.4,11.05 -77.4,10.72 -77.12,10.72 -77.12,10.24 -76.83,10.24 -76.83,9.66 -76.54,9.66 -76.54,9.25 -76.26,9.25 -76.26,8.64 -75.97,8.64 -75.97,7.87 -75.68,7.87 -75.68,6.95 -75.4,6.95 -75.4,4.63 -75.11,4.63 -75.11,0.06 -74.82,0.06 -74.82,-9.92 -74.54,-9.92 -74.54,-31.3 -74.25,-31.3 -74.25,-72.42 -73.96,-72.42 -73.96,-143.74 -73.67,-143.74 -73.67,-257.03 -73.39,-257.03 -73.39,-414.95 -73.1,-414.95 -73.1,-611.21 -72.81,-611.21 -72.81,-816.2 -72.53,-816.2 -72.53,-994.62 -72.24,-994.62 -72.24,-1103.2 -71.95,-1103.2 -71.95,-1118.81 -71.67,-1118.81 -71.67,-1032.19 -71.38,-1032.19 -71.38,-872.55 -71.09,-872.55 -71.09,-677.19 -70.81,-677.19 -70.81,-484.03 -70.52,-484.03 -70.52,-319.96 -70.23,-319.96 -70.23,-196.84 -69.94,-196.84 -69.94,-113.66 -69.66,-113.66 -69.66,-61.2 -69.37,-61.2 -69.37,-29.93 -69.08,-29.93 -69.08,-11.68 -68.8,-11.68 -68.8,-0.86 -68.51,-0.86 -68.51,5.59 -68.22,5.59 -68.22,9.45 -67.94,9.45 -67.94,11.75 -67.65,11.75 -67.65,13.33 -67.36,13.33 -67.36,14.11 -67.07,14.11 -67.07,14.56 -66.79,14.56 -66.79,14.89 -66.5,14.89 -66.5,15.08 -66.21,15.08 -66.21,15.06 -65.93,15.06 -65.93,15.12 -65.64,15.12 -65.64,15.1 -65.35,15.1 -65.35,15.05 -65.07,15.05 -65.07,15.01 -64.78,15.01 -64.78,15.09 -64.49,15.09 -64.49,15.07 -64.21,15.07 -64.21,15.02 -63.92,15.02 -63.92,15.06 -63.63,15.06 -63.63,15.07 -63.34,15.07 -63.34,15.07 -63.06,15.07 -63.06,15.1 -62.77,15.1 -62.77,15.18 -62.48,15.18 -62.48,15.26 -62.2,15.26 -62.2,15.22 -61.91,15.22 -61.91,15.23 -61.62,15.23 -61.62,15.31 -61.34,15.31 -61.34,15.36 -61.05,15.36 -61.05,15.32 -60.76,15.32 -60.76,15.35 -60.47,15.35 -60.47,15.41 -60.19,15.41 -60.19,15.28 -59.9,15.28 -59.9,15.28 -59.61,15.28 -59.61,15.14 -59.33,15.14 -59.33,14.98 -59.04,14.98 -59.04,14.72 -58.75,14.72 -58.75,14.4 -58.47,14.4 -58.47,14.06 -58.18,14.06 -58.18,13.58 -57.89,13.58 -57.89,13.24 -57.61,13.24 -57.61,12.94 -57.32,12.94 -57.32,12.69 -57.03,12.69 -57.03,12.66 -56.74,12.66 -56.74,12.83 -56.46,12.83 -56.46,13.22 -56.17,13.22 -56.17,13.61 -55.88,13.61 -55.88,14.03 -55.6,14.03 -55.6,14.52 -55.31,14.52 -55.31,14.88 -55.02,14.88 -55.02,15.11 -54.74,15.11 -54.74,15.2 -54.45,15.2 -54.45,15.4 -54.16,15.4 -54.16,15.38 -53.88,15.38 -53.88,15.48 -53.59,15.48 -53.59,15.46 -53.3,15.46 -53.3,15.55 -53.01,15.55 -53.01,15.5 -52.73,15.5 -52.73,15.54 -52.44,15.54 -52.44,15.53 -52.15,15.53 -52.15,15.54 -51.87,15.54 -51.87,15.44 -51.58,15.44 -51.58,15.47 -51.29,15.47 -51.29,15.53 -51.01,15.53 -51.01,15.51 -50.72,15.51 -50.72,15.56 -50.43,15.56 -50.43,15.53 -50.14,15.53 -50.14,15.51 -49.86,15.51 -49.86,15.54 -49.57,15.54 -49.57,15.54 -49.28,15.54 -49.28,15.46 -49,15.46 -49,15.52 -48.71,15.52 -48.71,15.49 -48.42,15.49 -48.42,15.47 -48.14,15.47 -48.14,15.55 -47.85,15.55 -47.85,15.54 -47.56,15.54 -47.56,15.49 -47.28,15.49 -47.28,15.52 -46.99,15.52 -46.99,15.53 -46.7,15.53 -46.7,15.54 -46.41,15.54 -46.41,15.49 -46.13,15.49 -46.13,15.47 -45.84,15.47 -45.84,15.39 -45.55,15.39 -45.55,15.52 -45.27,15.52 -45.27,15.48 -44.98,15.48 -44.98,15.5 -44.69,15.5 -44.69,15.43 -44.41,15.43 -44.41,15.45 -44.12,15.45 -44.12,15.5 -43.83,15.5 -43.83,15.45 -43.54,15.45 -43.54,15.39 -43.26,15.39 -43.26,15.51 -42.97,15.51 -42.97,15.55 -42.68,15.55 -42.68,15.46 -42.4,15.46 -42.4,15.46 -42.11,15.46 -42.11,15.41 -41.82,15.41 -41.82,15.5 -41.54,15.5 -41.54,15.48 -41.25,15.48 -41.25,15.5 -40.96,15.5 -40.96,15.34 -40.68,15.34 -40.68,15.4 -40.39,15.4 -40.39,15.45 -40.1,15.45 -40.1,15.41 -39.81,15.41 -39.81,15.4 -39.53,15.4 -39.53,15.45 -39.24,15.45 -39.24,15.47 -38.95,15.47 -38.95,15.4 -38.67,15.4 -38.67,15.36 -38.38,15.36 -38.38,15.4 -38.09,15.4 -38.09,15.41 -37.81,15.41 -37.81,15.41 -37.52,15.41 -37.52,15.47 -37.23,15.47 -37.23,15.37 -36.94,15.37 -36.94,15.38 -36.66,15.38 -36.66,15.35 -36.37,15.35 -36.37,15.37 -36.08,15.37 -36.08,15.39 -35.8,15.39 -35.8,15.42 -35.51,15.42 -35.51,15.42 -35.22,15.42 -35.22,15.39 -34.94,15.39 -34.94,15.36 -34.65,15.36 -34.65,15.41 -34.36,15.41 -34.36,15.37 -34.08,15.37 -34.08,15.34 -33.79,15.34 -33.79,15.42 -33.5,15.42 -33.5,15.3 -33.21,15.3 -33.21,15.27 -32.93,15.27 -32.93,15.25 -32.64,15.25 -32.64,15.29 -32.35,15.29 -32.35,15.18 -32.07,15.18 -32.07,15.15 -31.78,15.15 -31.78,14.99 -31.49,14.99 -31.49,14.77 -31.21,14.77 -31.21,14.51 -30.92,14.51 -30.92,14.09 -30.63,14.09 -30.63,13.71 -30.35,13.71 -30.35,13.22 -30.06,13.22 -30.06,12.79 -29.77,12.79 -29.77,12.51 -29.48,12.51 -29.48,12.25 -29.2,12.25 -29.2,12.2 -28.91,12.2 -28.91,12.47 -28.62,12.47 -28.62,12.59 -28.34,12.59 -28.34,13 -28.05,13 -28.05,13.32 -27.76,13.32 -27.76,13.81 -27.48,13.81 -27.48,14.21 -27.19,14.21 -27.19,14.53 -26.9,14.53 -26.9,14.79 -26.61,14.79 -26.61,14.93 -26.33,14.93 -26.33,15.04 -26.04,15.04 -26.04,15.23 -25.75,15.23 -25.75,15.22 -25.47,15.22 -25.47,15.29 -25.18,15.29 -25.18,15.29 -24.89,15.29 -24.89,15.32 -24.61,15.32 -24.61,15.35 -24.32,15.35 -24.32,15.38 -24.03,15.38 -24.03,15.28 -23.75,15.28 -23.75,15.34 -23.46,15.34 -23.46,15.36 -23.17,15.36 -23.17,15.33 -22.88,15.33 -22.88,15.39 -22.6,15.39 -22.6,15.34 -22.31,15.34 -22.31,15.36 -22.02,15.36 -22.02,15.38 -21.74,15.38 -21.74,15.32 -21.45,15.32 -21.45,15.31 -21.16,15.31 -21.16,15.33 -20.88,15.33 -20.88,15.29 -20.59,15.29 -20.59,15.4 -20.3,15.4 -20.3,15.39 -20.01,15.39 -20.01,15.36 -19.73,15.36 -19.73,15.34 -19.44,15.34 -19.44,15.34 -19.15,15.34 -19.15,15.32 -18.87,15.32 -18.87,15.3 -18.58,15.3 -18.58,15.26 -18.29,15.26 -18.29,15.34 -18.01,15.34 -18.01,15.35 -17.72,15.35 -17.72,15.32 -17.43,15.32 -17.43,15.35 -17.15,15.35 -17.15,15.28 -16.86,15.28 -16.86,15.33 -16.57,15.33 -16.57,15.36 -16.28,15.36 -16.28,15.38 -16,15.38 -16,15.34 -15.71,15.34 -15.71,15.33 -15.42,15.33 -15.42,15.32 -15.14,15.32 -15.14,15.31 -14.85,15.31 -14.85,15.34 -14.56,15.34 -14.56,15.31 -14.28,15.31 -14.28,15.33 -13.99,15.33 -13.99,15.3 -13.7,15.3 -13.7,15.33 -13.41,15.33 -13.41,15.23 -13.13,15.23 -13.13,15.32 -12.84,15.32 -12.84,15.3 -12.55,15.3 -12.55,15.36 -12.27,15.36 -12.27,15.22 -11.98,15.22 -11.98,15.31 -11.69,15.31 -11.69,15.27 -11.41,15.27 -11.41,15.26 -11.12,15.26 -11.12,15.34 -10.83,15.34 -10.83,15.29 -10.55,15.29 -10.55,15.25 -10.26,15.25 -10.26,15.28 -9.97,15.28 -9.97,15.25 -9.68,15.25 -9.68,15.28 -9.4,15.28 -9.4,15.32 -9.11,15.32 -9.11,15.29 -8.82,15.29 -8.82,15.23 -8.54,15.23 -8.54,15.31 -8.25,15.31 -8.25,15.25 -7.96,15.25 -7.96,15.24 -7.68,15.24 -7.68,15.25 -7.39,15.25 -7.39,15.28 -7.1,15.28 -7.1,15.21 -6.82,15.21 -6.82,15.26 -6.53,15.26 -6.53,15.25 -6.24,15.25 -6.24,15.27 -5.95,15.27 -5.95,15.27 -5.67,15.27 -5.67,15.36 -5.38,15.36 -5.38,15.25 -5.09,15.25 -5.09,15.31 -4.81,15.31 -4.81,15.31 -4.52,15.31 -4.52,15.21 -4.23,15.21 -4.23,15.28 -3.95,15.28 -3.95,15.21 -3.66,15.21 -3.66,15.19 -3.37,15.19 -3.37,15.22 -3.08,15.22 -3.08,15.27 -2.8,15.27 -2.8,15.21 -2.51,15.21 -2.51,15.28 -2.22,15.28 -2.22,15.22 -1.94,15.22 -1.94,15.24 -1.65,15.24 -1.65,15.25 -1.36,15.25 -1.36,15.24 -1.08,15.24 -1.08,15.26 -0.79,15.26 -0.79,15.23 -0.5,15.23 -0.5,15.18 -0.22,15.18 -0.22,15.21 0.07,15.21 0.07,15.24 0.36,15.24 0.36,15.19 0.65,15.19 0.65,15.22 0.93,15.22 0.93,15.23 1.22,15.23 1.22,15.2 1.51,15.2 1.51,15.21 1.79,15.21 1.79,15.17 2.08,15.17 2.08,15.25 2.37,15.25 2.37,15.21 2.65,15.21 2.65,15.18 2.94,15.18 2.94,15.24 3.23,15.24 3.23,15.19 3.52,15.19 3.52,15.28 3.8,15.28 3.8,15.15 4.09,15.15 4.09,15.22 4.38,15.22 4.38,15.17 4.66,15.17 4.66,15.2 4.95,15.2 4.95,15.21 5.24,15.21 5.24,15.19 5.52,15.19 5.52,15.18 5.81,15.18 5.81,15.21 6.1,15.21 6.1,15.18 6.38,15.18 6.38,15.19 6.67,15.19 6.67,15.16 6.96,15.16 6.96,15.11 7.25,15.11 7.25,15.2 7.53,15.2 7.53,15.18 7.82,15.18 7.82,15.2 8.11,15.2 8.11,15.2 8.39,15.2 8.39,15.23 8.68,15.23 8.68,15.13 8.97,15.13 8.97,15.18 9.25,15.18 9.25,15.11 9.54,15.11 9.54,15.16 9.83,15.16 9.83,15.19 10.12,15.19 10.12,15.15 10.4,15.15 10.4,15.15 10.69,15.15 10.69,15.18 10.98,15.18 10.98,15.13 11.26,15.13 11.26,15.19 11.55,15.19 11.55,15.17 11.84,15.17 11.84,15.18 12.12,15.18 12.12,15.14 12.41,15.14 12.41,15.17 12.7,15.17 12.7,15.2 12.98,15.2 12.98,15.14 13.27,15.14 13.27,15.14 13.56,15.14 13.56,15.14 13.85,15.14 13.85,15.18 14.13,15.18 14.13,15.1 14.42,15.1 14.42,15.14 14.71,15.14 14.71,15.12 14.99,15.12 14.99,15.16 15.28,15.16 15.28,15.11 15.57,15.11 15.57,15.11 15.85,15.11 15.85,15.12 16.14,15.12 16.14,15.06 16.43,15.06 16.43,15.09 16.71,15.09 16.71,15.11 17,15.11 17,15.06 17.29,15.06 17.29,15.12 17.58,15.12 17.58,15.06 17.86,15.06 17.86,15.06 18.15,15.06 18.15,15.12 18.44,15.12 18.44,15.08 18.72,15.08 18.72,15.03 19.01,15.03 19.01,15.07 19.3,15.07 19.3,15.09 19.58,15.09 19.58,15.06 19.87,15.06 19.87,15.08 20.16,15.08 20.16,15.1 20.45,15.1 20.45,15.15 20.73,15.15 20.73,15.11 21.02,15.11 21.02,15.1 21.31,15.1 21.31,15.12 21.59,15.12 21.59,15.11 21.88,15.11 21.88,15.07 22.17,15.07 22.17,15.13 22.45,15.13 22.45,15.1 22.74,15.1 22.74,15.09 23.03,15.09 23.03,15.08 23.31,15.08 23.31,15.12 23.6,15.12 23.6,15.06 23.89,15.06 23.89,15.04 24.18,15.04 24.18,15.12 24.46,15.12 24.46,15.07 24.75,15.07 24.75,15 25.04,15 25.04,15.03 25.32,15.03 25.32,15.07 25.61,15.07 25.61,15.07 25.9,15.07 25.9,15.08 26.18,15.08 26.18,15.08 26.47,15.08 26.47,15.04 26.76,15.04 26.76,15.04 27.05,15.04 27.05,15.08 27.33,15.08 27.33,15.05 27.62,15.05 27.62,15.04 27.91,15.04 27.91,15.05 28.19,15.05 28.19,15.03 28.48,15.03 28.48,15.02 28.77,15.02 28.77,15.02 29.05,15.02 29.05,15.05 29.34,15.05 29.34,15.06 29.63,15.06 29.63,15.06 29.91,15.06 29.91,15 30.2,15 30.2,15 30.49,15 30.49,15 30.78,15 30.78,15.02 31.06,15.02 31.06,15.02 31.35,15.02 31.35,14.99 31.64,14.99 31.64,15 31.92,15 31.92,15.01 32.21,15.01 32.21,15.03 32.5,15.03 32.5,15 32.78,15 32.78,14.98 33.07,14.98 33.07,14.95 33.36,14.95 33.36,15.03 33.65,15.03 33.65,14.92 33.93,14.92 33.93,14.97 34.22,14.97 34.22,15.02 34.51,15.02 34.51,15 34.79,15 34.79,14.93 35.08,14.93 35.08,15.02 35.37,15.02 35.37,14.95 35.65,14.95 35.65,14.96 35.94,14.96 35.94,14.99 36.23,14.99 36.23,14.98 36.51,14.98 36.51,15.01 36.8,15.01 36.8,15.04 37.09,15.04 37.09,14.96 37.38,14.96 37.38,14.96 37.66,14.96 37.66,14.98 37.95,14.98 37.95,14.96 38.24,14.96 38.24,14.92 38.52,14.92 38.52,14.99 38.81,14.99 38.81,14.94 39.1,14.94 39.1,14.96 39.38,14.96 39.38,14.95 39.67,14.95 39.67,14.92 39.96,14.92 39.96,14.93 40.24,14.93 40.24,14.93 40.53,14.93 40.53,14.89 40.82,14.89 40.82,14.97 41.11,14.97 41.11,14.95 41.39,14.95 41.39,14.94 41.68,14.94 41.68,14.89 41.97,14.89 41.97,14.9 42.25,14.9 42.25,14.96 42.54,14.96 42.54,14.98 42.83,14.98 42.83,14.91 43.11,14.91 43.11,14.94 43.4,14.94 43.4,14.92 43.69,14.92 43.69,14.94 43.98,14.94 43.98,15.01 44.26,15.01 44.26,14.94 44.55,14.94 44.55,14.93 44.84,14.93 44.84,14.89 45.12,14.89 45.12,14.97 45.41,14.97 45.41,14.92 45.7,14.92 45.7,14.91 45.98,14.91 45.98,14.92 46.27,14.92 46.27,14.87 46.56,14.87 46.56,14.95 46.84,14.95 46.84,14.93 47.13,14.93 47.13,14.93 47.42,14.93 47.42,14.9 47.71,14.9 47.71,14.92 47.99,14.92 47.99,14.93 48.28,14.93 48.28,14.91 48.57,14.91 48.57,14.93 48.85,14.93 48.85,14.97 49.14,14.97 49.14,14.91 49.43,14.91 49.43,14.88 49.71,14.88 49.71,14.92 50,14.92 50,14.9 50.29,14.9 50.29,14.94 50.58,14.94 50.58,14.93 50.86,14.93 50.86,14.93 51.15,14.93 51.15,14.94 51.44,14.94 51.44,14.93 51.72,14.93 51.72,14.87 52.01,14.87 52.01,14.9 52.3,14.9 52.3,14.9 52.58,14.9 52.58,14.9 52.87,14.9 52.87,14.92 53.16,14.92 53.16,14.87 53.44,14.87 53.44,14.85 53.73,14.85 53.73,14.9 54.02,14.9 54.02,14.87 54.31,14.87 54.31,14.91 54.59,14.91 54.59,14.88 54.88,14.88 54.88,14.85 55.17,14.85 55.17,14.83 55.45,14.83 55.45,14.87 55.74,14.87 55.74,14.88 56.03,14.88 56.03,14.87 56.31,14.87 56.31,14.89 56.6,14.89 56.6,14.9 56.89,14.9 56.89,14.86 57.18,14.86 57.18,14.88 57.46,14.88 57.46,14.85 57.75,14.85 57.75,14.91 58.04,14.91 58.04,14.89 58.32,14.89 58.32,14.84 58.61,14.84 58.61,14.85 58.9,14.85 58.9,14.84 59.18,14.84 59.18,14.83 59.47,14.83 59.47,14.84 59.76,14.84 59.76,14.87 60.04,14.87 60.04,14.87 60.33,14.87 60.33,14.84 60.62,14.84 60.62,14.87 60.91,14.87 60.91,14.88 61.19,14.88 61.19,14.88 61.48,14.88 61.48,14.88 61.77,14.88 61.77,14.88 62.05,14.88 62.05,14.87 62.34,14.87 62.34,14.81 62.63,14.81 62.63,14.78 62.91,14.78 62.91,14.84 63.2,14.84 63.2,14.84 63.49,14.84 63.49,14.86 63.77,14.86 63.77,14.83 64.06,14.83 64.06,14.84 64.35,14.84 64.35,14.83 64.64,14.83 64.64,14.85 64.92,14.85 64.92,14.83 65.21,14.83 65.21,14.84 65.5,14.84 65.5,14.8 65.78,14.8 65.78,14.79 66.07,14.79 66.07,14.78 66.36,14.78 66.36,14.77 66.64,14.77 66.64,14.71 66.93,14.71 66.93,14.82 67.22,14.82 67.22,14.73 67.51,14.73 67.51,14.68 67.79,14.68 67.79,14.73 68.08,14.73 68.08,14.66 68.37,14.66 68.37,14.6 68.65,14.6 68.65,14.65 68.94,14.65 68.94,14.69 69.23,14.69 69.23,14.64 69.51,14.64 69.51,14.68 69.8,14.68 69.8,14.65 70.09,14.65 70.09,14.67 70.37,14.67 70.37,14.67 70.66,14.67 70.66,14.73 70.95,14.73 70.95,14.73 71.24,14.73 71.24,14.75 71.52,14.75 71.52,14.75 71.81,14.75 71.81,14.77 72.1,14.77 72.1,14.74 72.38,14.74 72.38,14.77 72.67,14.77 72.67,14.76 72.96,14.76 72.96,14.81 73.24,14.81 73.24,14.84 73.53,14.84 73.53,14.83 73.82,14.83 73.82,14.76 74.11,14.76 74.11,14.79 74.39,14.79 74.39,14.8 74.68,14.8 74.68,14.81 74.97,14.81 74.97,14.84 75.25,14.84 75.25,14.75 75.54,14.75 75.54,14.8 75.83,14.8 75.83,14.8 76.11,14.8 76.11,14.79 76.4,14.79 76.4,14.79 76.69,14.79 76.69,14.75 76.97,14.75 76.97,14.77 77.26,14.77 77.26,14.76 77.55,14.76 77.55,14.76 77.84,14.76 77.84,14.77 78.12,14.77 78.12,14.76 78.41,14.76 78.41,14.74 78.7,14.74 78.7,14.8 78.98,14.8 78.98,14.75 79.27,14.75 79.27,14.74 79.56,14.74 79.56,14.78 79.84,14.78 79.84,14.79 80.13,14.79 80.13,14.73 80.42,14.73 80.42,14.75 80.71,14.75 80.71,14.75 80.99,14.75 80.99,14.76 81.28,14.76 81.28,14.74 81.57,14.74 81.57,14.72 81.85,14.72 81.85,14.71 82.14,14.71 82.14,14.76 82.43,14.76 82.43,14.77 82.71,14.77 82.71,14.74 83,14.74 83,14.76 83.29,14.76 83.29,14.75 83.57,14.75 83.57,14.71 83.86,14.71 83.86,14.71 84.15,14.71 84.15,14.73 84.44,14.73 84.44,14.72 84.72,14.72 84.72,14.72 85.01,14.72 85.01,14.75 85.3,14.75 85.3,14.67 85.58,14.67 85.58,14.72 85.87,14.72 85.87,14.68 86.16,14.68 86.16,14.7 86.44,14.7 86.44,14.73 86.73,14.73 86.73,14.73 87.02,14.73 87.02,14.71 87.3,14.71 87.3,14.69 87.59,14.69 87.59,14.66 87.88,14.66 87.88,14.72 88.17,14.72 88.17,14.67 88.45,14.67 88.45,14.69 88.74,14.69 88.74,14.71 89.03,14.71 89.03,14.7 89.31,14.7 89.31,14.7 89.6,14.7 89.6,14.7 89.89,14.7 89.89,14.73 90.17,14.73 90.17,14.72 90.46,14.72 90.46,14.68 90.75,14.68 90.75,14.73 91.04,14.73 91.04,14.68 91.32,14.68 91.32,14.68 91.61,14.68 91.61,14.69 91.9,14.69 91.9,14.71 92.18,14.71 92.18,14.69 92.47,14.69 92.47,14.69 92.76,14.69 92.76,14.67 93.04,14.67 93.04,14.72 93.33,14.72 93.33,14.68 93.62,14.68 93.62,14.68 93.9,14.68 93.9,14.69 94.19,14.69 94.19,14.71 94.48,14.71 94.48,14.66 94.77,14.66 94.77,14.67 95.05,14.67 95.05,14.69 95.34,14.69 95.34,14.65 95.63,14.65 95.63,14.67 95.91,14.67 95.91,14.65 96.2,14.65 96.2,14.66 96.49,14.66 96.49,14.69 96.77,14.69 96.77,14.71 97.06,14.71 97.06,14.64 97.35,14.64 97.35,14.66 97.64,14.66 97.64,14.66 97.92,14.66 97.92,14.66 98.21,14.66 98.21,14.67 98.5,14.67 98.5,14.65 98.78,14.65 98.78,14.63 99.07,14.63 99.07,14.67 99.36,14.67 99.36,14.62 99.64,14.62 99.64,14.66 99.93,14.66 99.93,14.63 100.22,14.63 100.22,14.57 100.5,14.57 100.5,14.62 100.79,14.62 100.79,14.66 101.08,14.66 101.08,14.63 101.37,14.63 101.37,14.62 101.65,14.62 101.65,14.65 101.94,14.65 101.94,14.63 102.23,14.63 102.23,14.62 102.51,14.62 102.51,14.62 102.8,14.62 102.8,14.63 103.09,14.63 103.09,14.66 103.37,14.66 103.37,14.67 103.66,14.67 103.66,14.65 103.95,14.65 103.95,14.65 104.24,14.65 104.24,14.6 104.52,14.6 104.52,14.63 104.81,14.63 104.81,14.63 105.1,14.63 105.1,14.62 105.38,14.62 105.38,14.65 105.67,14.65 105.67,14.63 105.96,14.63 105.96,14.65 106.24,14.65 106.24,14.62 106.53,14.62 106.53,14.64 106.82,14.64 106.82,14.63 107.1,14.63 107.1,14.64 107.39,14.64 107.39,14.65 107.68,14.65 107.68,14.59 107.97,14.59 107.97,14.67 108.25,14.67 108.25,14.64 108.54,14.64 108.54,14.66 108.83,14.66 108.83,14.64 109.11,14.64 109.11,14.64 109.4,14.64 109.4,14.67 109.69,14.67 109.69,14.66 109.97,14.66 109.97,14.59 110.26,14.59 110.26,14.65 110.55,14.65 110.55,14.6 110.83,14.6 110.83,14.64 111.12,14.64 111.12,14.59 111.41,14.59 111.41,14.62 111.7,14.62 111.7,14.57 111.98,14.57 111.98,14.64 112.27,14.64 112.27,14.6 112.56,14.6 112.56,14.59 112.84,14.59 112.84,14.59 113.13,14.59 113.13,14.6 113.42,14.6 113.42,14.61 113.7,14.61 113.7,14.55 113.99,14.55 113.99,14.59 114.28,14.59 114.28,14.59 114.57,14.59 114.57,14.57 " class="primitive"/>
            </g>
          </g>
        </g>
        <g stroke-width="0.3" fill="#000000" fill-opacity="0.000" class="geometry" id="img-157b8dd3-23">
          <g class="color_RGB{N0f8}(0.063,0.306,0.545)" stroke-dasharray="none" stroke-opacity="1" stroke="#104E8B" id="img-157b8dd3-24">
            <g transform="translate(136.46,41.5)" id="img-157b8dd3-25">
              <path fill="none" d="M-114.71,18.36 L-114.42,18.36 -114.42,18.36 -114.13,18.36 -114.13,18.35 -113.85,18.35 -113.85,18.36 -113.56,18.36 -113.56,18.36 -113.27,18.36 -113.27,18.36 -112.99,18.36 -112.99,18.36 -112.7,18.36 -112.7,18.36 -112.41,18.36 -112.41,18.36 -112.13,18.36 -112.13,18.36 -111.84,18.36 -111.84,18.36 -111.55,18.36 -111.55,18.36 -111.27,18.36 -111.27,18.36 -110.98,18.36 -110.98,18.35 -110.69,18.35 -110.69,18.35 -110.4,18.35 -110.4,18.33 -110.12,18.33 -110.12,18.32 -109.83,18.32 -109.83,18.29 -109.54,18.29 -109.54,18.23 -109.26,18.23 -109.26,18.12 -108.97,18.12 -108.97,17.91 -108.68,17.91 -108.68,17.54 -108.4,17.54 -108.4,16.87 -108.11,16.87 -108.11,15.78 -107.82,15.78 -107.82,14.16 -107.53,14.16 -107.53,12.39 -107.25,12.39 -107.25,10.9 -106.96,10.9 -106.96,10.3 -106.67,10.3 -106.67,10.97 -106.39,10.97 -106.39,12.28 -106.1,12.28 -106.1,13.79 -105.81,13.79 -105.81,15.11 -105.53,15.11 -105.53,15.81 -105.24,15.81 -105.24,16.11 -104.95,16.11 -104.95,16.13 -104.67,16.13 -104.67,16 -104.38,16 -104.38,15.78 -104.09,15.78 -104.09,15.58 -103.8,15.58 -103.8,15.32 -103.52,15.32 -103.52,14.95 -103.23,14.95 -103.23,14.44 -102.94,14.44 -102.94,13.62 -102.66,13.62 -102.66,12.15 -102.37,12.15 -102.37,9.53 -102.08,9.53 -102.08,4.3 -101.8,4.3 -101.8,-5.87 -101.51,-5.87 -101.51,-24.75 -101.22,-24.75 -101.22,-57.08 -100.93,-57.08 -100.93,-105.99 -100.65,-105.99 -100.65,-167.32 -100.36,-167.32 -100.36,-231.58 -100.07,-231.58 -100.07,-276.63 -99.79,-276.63 -99.79,-286.74 -99.5,-286.74 -99.5,-257.42 -99.21,-257.42 -99.21,-198.27 -98.93,-198.27 -98.93,-130.22 -98.64,-130.22 -98.64,-70.49 -98.35,-70.49 -98.35,-29.44 -98.07,-29.44 -98.07,-5.14 -97.78,-5.14 -97.78,7.21 -97.49,7.21 -97.49,12.5 -97.2,12.5 -97.2,14.6 -96.92,14.6 -96.92,15.36 -96.63,15.36 -96.63,15.55 -96.34,15.55 -96.34,15.58 -96.06,15.58 -96.06,15.51 -95.77,15.51 -95.77,15.4 -95.48,15.4 -95.48,15.24 -95.2,15.24 -95.2,15.16 -94.91,15.16 -94.91,15.02 -94.62,15.02 -94.62,14.94 -94.34,14.94 -94.34,14.88 -94.05,14.88 -94.05,14.74 -93.76,14.74 -93.76,14.82 -93.47,14.82 -93.47,14.76 -93.19,14.76 -93.19,14.63 -92.9,14.63 -92.9,14.63 -92.61,14.63 -92.61,14.53 -92.33,14.53 -92.33,14.46 -92.04,14.46 -92.04,14.23 -91.75,14.23 -91.75,14.22 -91.47,14.22 -91.47,14.04 -91.18,14.04 -91.18,13.9 -90.89,13.9 -90.89,13.79 -90.6,13.79 -90.6,13.67 -90.32,13.67 -90.32,13.47 -90.03,13.47 -90.03,13.39 -89.74,13.39 -89.74,13.28 -89.46,13.28 -89.46,13.21 -89.17,13.21 -89.17,12.99 -88.88,12.99 -88.88,12.98 -88.6,12.98 -88.6,12.83 -88.31,12.83 -88.31,12.67 -88.02,12.67 -88.02,12.62 -87.74,12.62 -87.74,12.49 -87.45,12.49 -87.45,12.3 -87.16,12.3 -87.16,12.24 -86.87,12.24 -86.87,12.08 -86.59,12.08 -86.59,11.93 -86.3,11.93 -86.3,11.74 -86.01,11.74 -86.01,11.6 -85.73,11.6 -85.73,11.45 -85.44,11.45 -85.44,11.27 -85.15,11.27 -85.15,10.99 -84.87,10.99 -84.87,10.81 -84.58,10.81 -84.58,10.7 -84.29,10.7 -84.29,10.71 -84,10.71 -84,10.73 -83.72,10.73 -83.72,10.62 -83.43,10.62 -83.43,10.6 -83.14,10.6 -83.14,10.49 -82.86,10.49 -82.86,10.33 -82.57,10.33 -82.57,10.22 -82.28,10.22 -82.28,10.09 -82,10.09 -82,9.95 -81.71,9.95 -81.71,9.75 -81.42,9.75 -81.42,9.55 -81.14,9.55 -81.14,9.37 -80.85,9.37 -80.85,9.19 -80.56,9.19 -80.56,9.02 -80.27,9.02 -80.27,8.69 -79.99,8.69 -79.99,8.44 -79.7,8.44 -79.7,8.14 -79.41,8.14 -79.41,7.78 -79.13,7.78 -79.13,7.44 -78.84,7.44 -78.84,7.22 -78.55,7.22 -78.55,6.89 -78.27,6.89 -78.27,6.41 -77.98,6.41 -77.98,5.94 -77.69,5.94 -77.69,5.42 -77.4,5.42 -77.4,5.05 -77.12,5.05 -77.12,4.53 -76.83,4.53 -76.83,3.9 -76.54,3.9 -76.54,3.45 -76.26,3.45 -76.26,2.81 -75.97,2.81 -75.97,2 -75.68,2 -75.68,1.04 -75.4,1.04 -75.4,-1.3 -75.11,-1.3 -75.11,-5.91 -74.82,-5.91 -74.82,-15.91 -74.54,-15.91 -74.54,-37.32 -74.25,-37.32 -74.25,-78.46 -73.96,-78.46 -73.96,-149.8 -73.67,-149.8 -73.67,-263.11 -73.39,-263.11 -73.39,-421.05 -73.1,-421.05 -73.1,-617.33 -72.81,-617.33 -72.81,-822.32 -72.53,-822.32 -72.53,-1000.73 -72.24,-1000.73 -72.24,-1109.29 -71.95,-1109.29 -71.95,-1124.85 -71.67,-1124.85 -71.67,-1038.13 -71.38,-1038.13 -71.38,-878.32 -71.09,-878.32 -71.09,-682.7 -70.81,-682.7 -70.81,-489.18 -70.52,-489.18 -70.52,-324.64 -70.23,-324.64 -70.23,-200.96 -69.94,-200.96 -69.94,-117.19 -69.66,-117.19 -69.66,-64.11 -69.37,-64.11 -69.37,-32.28 -69.08,-32.28 -69.08,-13.53 -68.8,-13.53 -68.8,-2.33 -68.51,-2.33 -68.51,4.4 -68.22,4.4 -68.22,8.44 -67.94,8.44 -67.94,10.85 -67.65,10.85 -67.65,12.49 -67.36,12.49 -67.36,13.28 -67.07,13.28 -67.07,13.73 -66.79,13.73 -66.79,14.05 -66.5,14.05 -66.5,14.22 -66.21,14.22 -66.21,14.18 -65.93,14.18 -65.93,14.21 -65.64,14.21 -65.64,14.17 -65.35,14.17 -65.35,14.09 -65.07,14.09 -65.07,14.03 -64.78,14.03 -64.78,14.08 -64.49,14.08 -64.49,14.04 -64.21,14.04 -64.21,13.95 -63.92,13.95 -63.92,13.97 -63.63,13.97 -63.63,13.95 -63.34,13.95 -63.34,13.93 -63.06,13.93 -63.06,13.95 -62.77,13.95 -62.77,14 -62.48,14 -62.48,14.07 -62.2,14.07 -62.2,14.01 -61.91,14.01 -61.91,14.01 -61.62,14.01 -61.62,14.09 -61.34,14.09 -61.34,14.12 -61.05,14.12 -61.05,14.07 -60.76,14.07 -60.76,14.08 -60.47,14.08 -60.47,14.12 -60.19,14.12 -60.19,13.97 -59.9,13.97 -59.9,13.95 -59.61,13.95 -59.61,13.79 -59.33,13.79 -59.33,13.61 -59.04,13.61 -59.04,13.32 -58.75,13.32 -58.75,12.98 -58.47,12.98 -58.47,12.62 -58.18,12.62 -58.18,12.12 -57.89,12.12 -57.89,11.76 -57.61,11.76 -57.61,11.44 -57.32,11.44 -57.32,11.17 -57.03,11.17 -57.03,11.12 -56.74,11.12 -56.74,11.27 -56.46,11.27 -56.46,11.64 -56.17,11.64 -56.17,12.02 -55.88,12.02 -55.88,12.42 -55.6,12.42 -55.6,12.89 -55.31,12.89 -55.31,13.24 -55.02,13.24 -55.02,13.45 -54.74,13.45 -54.74,13.53 -54.45,13.53 -54.45,13.72 -54.16,13.72 -54.16,13.68 -53.88,13.68 -53.88,13.77 -53.59,13.77 -53.59,13.75 -53.3,13.75 -53.3,13.82 -53.01,13.82 -53.01,13.76 -52.73,13.76 -52.73,13.79 -52.44,13.79 -52.44,13.78 -52.15,13.78 -52.15,13.77 -51.87,13.77 -51.87,13.67 -51.58,13.67 -51.58,13.68 -51.29,13.68 -51.29,13.74 -51.01,13.74 -51.01,13.71 -50.72,13.71 -50.72,13.76 -50.43,13.76 -50.43,13.72 -50.14,13.72 -50.14,13.69 -49.86,13.69 -49.86,13.71 -49.57,13.71 -49.57,13.71 -49.28,13.71 -49.28,13.63 -49,13.63 -49,13.68 -48.71,13.68 -48.71,13.65 -48.42,13.65 -48.42,13.62 -48.14,13.62 -48.14,13.7 -47.85,13.7 -47.85,13.69 -47.56,13.69 -47.56,13.64 -47.28,13.64 -47.28,13.66 -46.99,13.66 -46.99,13.67 -46.7,13.67 -46.7,13.68 -46.41,13.68 -46.41,13.63 -46.13,13.63 -46.13,13.61 -45.84,13.61 -45.84,13.53 -45.55,13.53 -45.55,13.66 -45.27,13.66 -45.27,13.61 -44.98,13.61 -44.98,13.64 -44.69,13.64 -44.69,13.57 -44.41,13.57 -44.41,13.59 -44.12,13.59 -44.12,13.64 -43.83,13.64 -43.83,13.59 -43.54,13.59 -43.54,13.54 -43.26,13.54 -43.26,13.65 -42.97,13.65 -42.97,13.7 -42.68,13.7 -42.68,13.61 -42.4,13.61 -42.4,13.61 -42.11,13.61 -42.11,13.57 -41.82,13.57 -41.82,13.66 -41.54,13.66 -41.54,13.65 -41.25,13.65 -41.25,13.67 -40.96,13.67 -40.96,13.51 -40.68,13.51 -40.68,13.57 -40.39,13.57 -40.39,13.63 -40.1,13.63 -40.1,13.6 -39.81,13.6 -39.81,13.59 -39.53,13.59 -39.53,13.64 -39.24,13.64 -39.24,13.67 -38.95,13.67 -38.95,13.61 -38.67,13.61 -38.67,13.57 -38.38,13.57 -38.38,13.62 -38.09,13.62 -38.09,13.63 -37.81,13.63 -37.81,13.64 -37.52,13.64 -37.52,13.7 -37.23,13.7 -37.23,13.61 -36.94,13.61 -36.94,13.63 -36.66,13.63 -36.66,13.6 -36.37,13.6 -36.37,13.63 -36.08,13.63 -36.08,13.66 -35.8,13.66 -35.8,13.69 -35.51,13.69 -35.51,13.71 -35.22,13.71 -35.22,13.68 -34.94,13.68 -34.94,13.66 -34.65,13.66 -34.65,13.72 -34.36,13.72 -34.36,13.68 -34.08,13.68 -34.08,13.66 -33.79,13.66 -33.79,13.75 -33.5,13.75 -33.5,13.64 -33.21,13.64 -33.21,13.62 -32.93,13.62 -32.93,13.61 -32.64,13.61 -32.64,13.65 -32.35,13.65 -32.35,13.55 -32.07,13.55 -32.07,13.53 -31.78,13.53 -31.78,13.38 -31.49,13.38 -31.49,13.17 -31.21,13.17 -31.21,12.92 -30.92,12.92 -30.92,12.51 -30.63,12.51 -30.63,12.14 -30.35,12.14 -30.35,11.66 -30.06,11.66 -30.06,11.24 -29.77,11.24 -29.77,10.96 -29.48,10.96 -29.48,10.72 -29.2,10.72 -29.2,10.68 -28.91,10.68 -28.91,10.95 -28.62,10.95 -28.62,11.09 -28.34,11.09 -28.34,11.51 -28.05,11.51 -28.05,11.84 -27.76,11.84 -27.76,12.34 -27.48,12.34 -27.48,12.75 -27.19,12.75 -27.19,13.08 -26.9,13.08 -26.9,13.35 -26.61,13.35 -26.61,13.5 -26.33,13.5 -26.33,13.62 -26.04,13.62 -26.04,13.81 -25.75,13.81 -25.75,13.82 -25.47,13.82 -25.47,13.9 -25.18,13.9 -25.18,13.91 -24.89,13.91 -24.89,13.95 -24.61,13.95 -24.61,13.99 -24.32,13.99 -24.32,14.03 -24.03,14.03 -24.03,13.95 -23.75,13.95 -23.75,14.02 -23.46,14.02 -23.46,14.05 -23.17,14.05 -23.17,14.02 -22.88,14.02 -22.88,14.1 -22.6,14.1 -22.6,14.05 -22.31,14.05 -22.31,14.09 -22.02,14.09 -22.02,14.12 -21.74,14.12 -21.74,14.07 -21.45,14.07 -21.45,14.07 -21.16,14.07 -21.16,14.1 -20.88,14.1 -20.88,14.07 -20.59,14.07 -20.59,14.19 -20.3,14.19 -20.3,14.19 -20.01,14.19 -20.01,14.17 -19.73,14.17 -19.73,14.17 -19.44,14.17 -19.44,14.18 -19.15,14.18 -19.15,14.17 -18.87,14.17 -18.87,14.16 -18.58,14.16 -18.58,14.14 -18.29,14.14 -18.29,14.22 -18.01,14.22 -18.01,14.25 -17.72,14.25 -17.72,14.23 -17.43,14.23 -17.43,14.27 -17.15,14.27 -17.15,14.21 -16.86,14.21 -16.86,14.27 -16.57,14.27 -16.57,14.31 -16.28,14.31 -16.28,14.34 -16,14.34 -16,14.32 -15.71,14.32 -15.71,14.32 -15.42,14.32 -15.42,14.32 -15.14,14.32 -15.14,14.32 -14.85,14.32 -14.85,14.36 -14.56,14.36 -14.56,14.35 -14.28,14.35 -14.28,14.38 -13.99,14.38 -13.99,14.36 -13.7,14.36 -13.7,14.4 -13.41,14.4 -13.41,14.31 -13.13,14.31 -13.13,14.41 -12.84,14.41 -12.84,14.41 -12.55,14.41 -12.55,14.48 -12.27,14.48 -12.27,14.35 -11.98,14.35 -11.98,14.45 -11.69,14.45 -11.69,14.43 -11.41,14.43 -11.41,14.42 -11.12,14.42 -11.12,14.52 -10.83,14.52 -10.83,14.48 -10.55,14.48 -10.55,14.45 -10.26,14.45 -10.26,14.49 -9.97,14.49 -9.97,14.48 -9.68,14.48 -9.68,14.52 -9.4,14.52 -9.4,14.57 -9.11,14.57 -9.11,14.55 -8.82,14.55 -8.82,14.5 -8.54,14.5 -8.54,14.59 -8.25,14.59 -8.25,14.55 -7.96,14.55 -7.96,14.55 -7.68,14.55 -7.68,14.57 -7.39,14.57 -7.39,14.62 -7.1,14.62 -7.1,14.56 -6.82,14.56 -6.82,14.62 -6.53,14.62 -6.53,14.61 -6.24,14.61 -6.24,14.65 -5.95,14.65 -5.95,14.66 -5.67,14.66 -5.67,14.76 -5.38,14.76 -5.38,14.66 -5.09,14.66 -5.09,14.73 -4.81,14.73 -4.81,14.75 -4.52,14.75 -4.52,14.66 -4.23,14.66 -4.23,14.75 -3.95,14.75 -3.95,14.69 -3.66,14.69 -3.66,14.68 -3.37,14.68 -3.37,14.72 -3.08,14.72 -3.08,14.78 -2.8,14.78 -2.8,14.73 -2.51,14.73 -2.51,14.81 -2.22,14.81 -2.22,14.77 -1.94,14.77 -1.94,14.8 -1.65,14.8 -1.65,14.82 -1.36,14.82 -1.36,14.82 -1.08,14.82 -1.08,14.86 -0.79,14.86 -0.79,14.83 -0.5,14.83 -0.5,14.8 -0.22,14.8 -0.22,14.84 0.07,14.84 0.07,14.88 0.36,14.88 0.36,14.84 0.65,14.84 0.65,14.88 0.93,14.88 0.93,14.91 1.22,14.91 1.22,14.88 1.51,14.88 1.51,14.91 1.79,14.91 1.79,14.88 2.08,14.88 2.08,14.97 2.37,14.97 2.37,14.94 2.65,14.94 2.65,14.92 2.94,14.92 2.94,14.99 3.23,14.99 3.23,14.95 3.52,14.95 3.52,15.06 3.8,15.06 3.8,14.94 4.09,14.94 4.09,15.02 4.38,15.02 4.38,14.98 4.66,14.98 4.66,15.02 4.95,15.02 4.95,15.05 5.24,15.05 5.24,15.04 5.52,15.04 5.52,15.04 5.81,15.04 5.81,15.08 6.1,15.08 6.1,15.07 6.38,15.07 6.38,15.09 6.67,15.09 6.67,15.06 6.96,15.06 6.96,15.02 7.25,15.02 7.25,15.12 7.53,15.12 7.53,15.12 7.82,15.12 7.82,15.14 8.11,15.14 8.11,15.15 8.39,15.15 8.39,15.2 8.68,15.2 8.68,15.11 8.97,15.11 8.97,15.17 9.25,15.17 9.25,15.11 9.54,15.11 9.54,15.17 9.83,15.17 9.83,15.22 10.12,15.22 10.12,15.18 10.4,15.18 10.4,15.2 10.69,15.2 10.69,15.24 10.98,15.24 10.98,15.2 11.26,15.2 11.26,15.26 11.55,15.26 11.55,15.26 11.84,15.26 11.84,15.28 12.12,15.28 12.12,15.26 12.41,15.26 12.41,15.3 12.7,15.3 12.7,15.33 12.98,15.33 12.98,15.28 13.27,15.28 13.27,15.3 13.56,15.3 13.56,15.31 13.85,15.31 13.85,15.35 14.13,15.35 14.13,15.29 14.42,15.29 14.42,15.34 14.71,15.34 14.71,15.33 14.99,15.33 14.99,15.37 15.28,15.37 15.28,15.34 15.57,15.34 15.57,15.34 15.85,15.34 15.85,15.37 16.14,15.37 16.14,15.32 16.43,15.32 16.43,15.36 16.71,15.36 16.71,15.39 17,15.39 17,15.35 17.29,15.35 17.29,15.42 17.58,15.42 17.58,15.37 17.86,15.37 17.86,15.38 18.15,15.38 18.15,15.45 18.44,15.45 18.44,15.42 18.72,15.42 18.72,15.38 19.01,15.38 19.01,15.43 19.3,15.43 19.3,15.46 19.58,15.46 19.58,15.44 19.87,15.44 19.87,15.48 20.16,15.48 20.16,15.5 20.45,15.5 20.45,15.56 20.73,15.56 20.73,15.53 21.02,15.53 21.02,15.53 21.31,15.53 21.31,15.56 21.59,15.56 21.59,15.56 21.88,15.56 21.88,15.53 22.17,15.53 22.17,15.6 22.45,15.6 22.45,15.58 22.74,15.58 22.74,15.58 23.03,15.58 23.03,15.58 23.31,15.58 23.31,15.63 23.6,15.63 23.6,15.58 23.89,15.58 23.89,15.57 24.18,15.57 24.18,15.66 24.46,15.66 24.46,15.61 24.75,15.61 24.75,15.56 25.04,15.56 25.04,15.6 25.32,15.6 25.32,15.65 25.61,15.65 25.61,15.65 25.9,15.65 25.9,15.67 26.18,15.67 26.18,15.69 26.47,15.69 26.47,15.66 26.76,15.66 26.76,15.66 27.05,15.66 27.05,15.71 27.33,15.71 27.33,15.69 27.62,15.69 27.62,15.7 27.91,15.7 27.91,15.72 28.19,15.72 28.19,15.71 28.48,15.71 28.48,15.7 28.77,15.7 28.77,15.72 29.05,15.72 29.05,15.75 29.34,15.75 29.34,15.77 29.63,15.77 29.63,15.78 29.91,15.78 29.91,15.73 30.2,15.73 30.2,15.74 30.49,15.74 30.49,15.75 30.78,15.75 30.78,15.78 31.06,15.78 31.06,15.78 31.35,15.78 31.35,15.77 31.64,15.77 31.64,15.78 31.92,15.78 31.92,15.8 32.21,15.8 32.21,15.83 32.5,15.83 32.5,15.81 32.78,15.81 32.78,15.8 33.07,15.8 33.07,15.78 33.36,15.78 33.36,15.86 33.65,15.86 33.65,15.77 33.93,15.77 33.93,15.83 34.22,15.83 34.22,15.88 34.51,15.88 34.51,15.87 34.79,15.87 34.79,15.81 35.08,15.81 35.08,15.91 35.37,15.91 35.37,15.85 35.65,15.85 35.65,15.87 35.94,15.87 35.94,15.9 36.23,15.9 36.23,15.9 36.51,15.9 36.51,15.94 36.8,15.94 36.8,15.98 37.09,15.98 37.09,15.91 37.38,15.91 37.38,15.92 37.66,15.92 37.66,15.94 37.95,15.94 37.95,15.94 38.24,15.94 38.24,15.9 38.52,15.9 38.52,15.98 38.81,15.98 38.81,15.94 39.1,15.94 39.1,15.96 39.38,15.96 39.38,15.96 39.67,15.96 39.67,15.95 39.96,15.95 39.96,15.96 40.24,15.96 40.24,15.97 40.53,15.97 40.53,15.94 40.82,15.94 40.82,16.03 41.11,16.03 41.11,16.02 41.39,16.02 41.39,16.01 41.68,16.01 41.68,15.97 41.97,15.97 41.97,15.99 42.25,15.99 42.25,16.06 42.54,16.06 42.54,16.08 42.83,16.08 42.83,16.02 43.11,16.02 43.11,16.06 43.4,16.06 43.4,16.05 43.69,16.05 43.69,16.08 43.98,16.08 43.98,16.16 44.26,16.16 44.26,16.09 44.55,16.09 44.55,16.1 44.84,16.1 44.84,16.06 45.12,16.06 45.12,16.14 45.41,16.14 45.41,16.1 45.7,16.1 45.7,16.11 45.98,16.11 45.98,16.12 46.27,16.12 46.27,16.08 46.56,16.08 46.56,16.17 46.84,16.17 46.84,16.15 47.13,16.15 47.13,16.16 47.42,16.16 47.42,16.14 47.71,16.14 47.71,16.17 47.99,16.17 47.99,16.19 48.28,16.19 48.28,16.17 48.57,16.17 48.57,16.2 48.85,16.2 48.85,16.25 49.14,16.25 49.14,16.19 49.43,16.19 49.43,16.18 49.71,16.18 49.71,16.22 50,16.22 50,16.21 50.29,16.21 50.29,16.26 50.58,16.26 50.58,16.25 50.86,16.25 50.86,16.26 51.15,16.26 51.15,16.27 51.44,16.27 51.44,16.28 51.72,16.28 51.72,16.22 52.01,16.22 52.01,16.26 52.3,16.26 52.3,16.27 52.58,16.27 52.58,16.27 52.87,16.27 52.87,16.3 53.16,16.3 53.16,16.26 53.44,16.26 53.44,16.25 53.73,16.25 53.73,16.31 54.02,16.31 54.02,16.28 54.31,16.28 54.31,16.33 54.59,16.33 54.59,16.31 54.88,16.31 54.88,16.28 55.17,16.28 55.17,16.27 55.45,16.27 55.45,16.32 55.74,16.32 55.74,16.33 56.03,16.33 56.03,16.33 56.31,16.33 56.31,16.36 56.6,16.36 56.6,16.37 56.89,16.37 56.89,16.35 57.18,16.35 57.18,16.37 57.46,16.37 57.46,16.35 57.75,16.35 57.75,16.41 58.04,16.41 58.04,16.4 58.32,16.4 58.32,16.35 58.61,16.35 58.61,16.37 58.9,16.37 58.9,16.37 59.18,16.37 59.18,16.36 59.47,16.36 59.47,16.39 59.76,16.39 59.76,16.42 60.04,16.42 60.04,16.43 60.33,16.43 60.33,16.4 60.62,16.4 60.62,16.44 60.91,16.44 60.91,16.46 61.19,16.46 61.19,16.47 61.48,16.47 61.48,16.47 61.77,16.47 61.77,16.47 62.05,16.47 62.05,16.47 62.34,16.47 62.34,16.43 62.63,16.43 62.63,16.4 62.91,16.4 62.91,16.46 63.2,16.46 63.2,16.47 63.49,16.47 63.49,16.5 63.77,16.5 63.77,16.48 64.06,16.48 64.06,16.49 64.35,16.49 64.35,16.49 64.64,16.49 64.64,16.51 64.92,16.51 64.92,16.5 65.21,16.5 65.21,16.52 65.5,16.52 65.5,16.49 65.78,16.49 65.78,16.48 66.07,16.48 66.07,16.47 66.36,16.47 66.36,16.48 66.64,16.48 66.64,16.42 66.93,16.42 66.93,16.53 67.22,16.53 67.22,16.45 67.51,16.45 67.51,16.41 67.79,16.41 67.79,16.46 68.08,16.46 68.08,16.41 68.37,16.41 68.37,16.35 68.65,16.35 68.65,16.41 68.94,16.41 68.94,16.45 69.23,16.45 69.23,16.41 69.51,16.41 69.51,16.45 69.8,16.45 69.8,16.43 70.09,16.43 70.09,16.46 70.37,16.46 70.37,16.46 70.66,16.46 70.66,16.52 70.95,16.52 70.95,16.53 71.24,16.53 71.24,16.56 71.52,16.56 71.52,16.56 71.81,16.56 71.81,16.59 72.1,16.59 72.1,16.57 72.38,16.57 72.38,16.6 72.67,16.6 72.67,16.6 72.96,16.6 72.96,16.65 73.24,16.65 73.24,16.7 73.53,16.7 73.53,16.69 73.82,16.69 73.82,16.63 74.11,16.63 74.11,16.66 74.39,16.66 74.39,16.68 74.68,16.68 74.68,16.69 74.97,16.69 74.97,16.73 75.25,16.73 75.25,16.64 75.54,16.64 75.54,16.7 75.83,16.7 75.83,16.7 76.11,16.7 76.11,16.7 76.4,16.7 76.4,16.7 76.69,16.7 76.69,16.68 76.97,16.68 76.97,16.7 77.26,16.7 77.26,16.7 77.55,16.7 77.55,16.7 77.84,16.7 77.84,16.72 78.12,16.72 78.12,16.71 78.41,16.71 78.41,16.7 78.7,16.7 78.7,16.76 78.98,16.76 78.98,16.72 79.27,16.72 79.27,16.71 79.56,16.71 79.56,16.76 79.84,16.76 79.84,16.78 80.13,16.78 80.13,16.72 80.42,16.72 80.42,16.75 80.71,16.75 80.71,16.75 80.99,16.75 80.99,16.77 81.28,16.77 81.28,16.75 81.57,16.75 81.57,16.74 81.85,16.74 81.85,16.73 82.14,16.73 82.14,16.79 82.43,16.79 82.43,16.8 82.71,16.8 82.71,16.78 83,16.78 83,16.8 83.29,16.8 83.29,16.8 83.57,16.8 83.57,16.76 83.86,16.76 83.86,16.77 84.15,16.77 84.15,16.8 84.44,16.8 84.44,16.79 84.72,16.79 84.72,16.8 85.01,16.8 85.01,16.83 85.3,16.83 85.3,16.75 85.58,16.75 85.58,16.81 85.87,16.81 85.87,16.78 86.16,16.78 86.16,16.8 86.44,16.8 86.44,16.84 86.73,16.84 86.73,16.84 87.02,16.84 87.02,16.83 87.3,16.83 87.3,16.82 87.59,16.82 87.59,16.8 87.88,16.8 87.88,16.85 88.17,16.85 88.17,16.81 88.45,16.81 88.45,16.84 88.74,16.84 88.74,16.86 89.03,16.86 89.03,16.86 89.31,16.86 89.31,16.86 89.6,16.86 89.6,16.86 89.89,16.86 89.89,16.9 90.17,16.9 90.17,16.9 90.46,16.9 90.46,16.87 90.75,16.87 90.75,16.91 91.04,16.91 91.04,16.87 91.32,16.87 91.32,16.88 91.61,16.88 91.61,16.9 91.9,16.9 91.9,16.92 92.18,16.92 92.18,16.91 92.47,16.91 92.47,16.91 92.76,16.91 92.76,16.89 93.04,16.89 93.04,16.95 93.33,16.95 93.33,16.91 93.62,16.91 93.62,16.92 93.9,16.92 93.9,16.94 94.19,16.94 94.19,16.96 94.48,16.96 94.48,16.91 94.77,16.91 94.77,16.93 95.05,16.93 95.05,16.95 95.34,16.95 95.34,16.92 95.63,16.92 95.63,16.94 95.91,16.94 95.91,16.93 96.2,16.93 96.2,16.94 96.49,16.94 96.49,16.97 96.77,16.97 96.77,17 97.06,17 97.06,16.94 97.35,16.94 97.35,16.96 97.64,16.96 97.64,16.96 97.92,16.96 97.92,16.97 98.21,16.97 98.21,16.98 98.5,16.98 98.5,16.97 98.78,16.97 98.78,16.96 99.07,16.96 99.07,17 99.36,17 99.36,16.95 99.64,16.95 99.64,17 99.93,17 99.93,16.98 100.22,16.98 100.22,16.92 100.5,16.92 100.5,16.97 100.79,16.97 100.79,17.01 101.08,17.01 101.08,16.99 101.37,16.99 101.37,16.99 101.65,16.99 101.65,17.03 101.94,17.03 101.94,17.01 102.23,17.01 102.23,17 102.51,17 102.51,17 102.8,17 102.8,17.02 103.09,17.02 103.09,17.06 103.37,17.06 103.37,17.07 103.66,17.07 103.66,17.05 103.95,17.05 103.95,17.06 104.24,17.06 104.24,17.01 104.52,17.01 104.52,17.05 104.81,17.05 104.81,17.05 105.1,17.05 105.1,17.05 105.38,17.05 105.38,17.08 105.67,17.08 105.67,17.07 105.96,17.07 105.96,17.08 106.24,17.08 106.24,17.06 106.53,17.06 106.53,17.08 106.82,17.08 106.82,17.08 107.1,17.08 107.1,17.1 107.39,17.1 107.39,17.11 107.68,17.11 107.68,17.05 107.97,17.05 107.97,17.14 108.25,17.14 108.25,17.11 108.54,17.11 108.54,17.14 108.83,17.14 108.83,17.12 109.11,17.12 109.11,17.13 109.4,17.13 109.4,17.16 109.69,17.16 109.69,17.15 109.97,17.15 109.97,17.09 110.26,17.09 110.26,17.16 110.55,17.16 110.55,17.1 110.83,17.1 110.83,17.15 111.12,17.15 111.12,17.11 111.41,17.11 111.41,17.14 111.7,17.14 111.7,17.1 111.98,17.1 111.98,17.17 112.27,17.17 112.27,17.13 112.56,17.13 112.56,17.13 112.84,17.13 112.84,17.13 113.13,17.13 113.13,17.15 113.42,17.15 113.42,17.16 113.7,17.16 113.7,17.1 113.99,17.1 113.99,17.15 114.28,17.15 114.28,17.15 114.57,17.15 114.57,17.14 " class="primitive"/>
            </g>
          </g>
        </g>
      </g>
      <g class="guide colorkey" id="img-157b8dd3-26">
        <g fill="#4C404B" font-size="2.82" font-family="'PT Sans','Helvetica Neue','Helvetica',sans-serif" id="img-157b8dd3-27">
          <g transform="translate(211.2,31.7)" id="img-157b8dd3-28">
            <g class="primitive">
              <text dy="0.35em">Al2O3 std</text>
            </g>
          </g>
          <g transform="translate(211.2,35.33)" id="img-157b8dd3-29">
            <g class="primitive">
              <text dy="0.35em">CharOnly[Al2O3 std]</text>
            </g>
          </g>
        </g>
        <g stroke-width="0.3" id="img-157b8dd3-30">
          <g stroke="#FFFFFF" fill-opacity="1" fill="#B70002" id="img-157b8dd3-31">
            <g transform="translate(208.39,35.33)" id="img-157b8dd3-32">
              <circle cx="0" cy="0" r="0.9" class="primitive"/>
            </g>
          </g>
          <g stroke="#FFFFFF" fill-opacity="1" fill="#104E8B" id="img-157b8dd3-33">
            <g transform="translate(208.39,31.7)" id="img-157b8dd3-34">
              <circle cx="0" cy="0" r="0.9" class="primitive"/>
            </g>
          </g>
        </g>
        <g fill="#362A35" font-size="3.18" font-family="'PT Sans','Helvetica Neue','Helvetica',sans-serif" stroke="#000000" stroke-opacity="0.000" id="img-157b8dd3-35">
          <g transform="translate(207.58,28.39)" id="img-157b8dd3-36">
            <g class="primitive">
              <text dy="-0em">Spectra</text>
            </g>
          </g>
        </g>
      </g>
    </g>
  </g>
  <g class="guide ylabels" font-size="2.82" font-family="'PT Sans Caption','Helvetica Neue','Helvetica',sans-serif" fill="#6C606B" id="img-157b8dd3-37">
    <g transform="translate(18.7,59.87)" id="img-157b8dd3-38">
      <g class="primitive">
        <text text-anchor="end" dy="0.35em">0</text>
      </g>
    </g>
    <g transform="translate(18.7,44.7)" id="img-157b8dd3-39">
      <g class="primitive">
        <text text-anchor="end" dy="0.35em">50000</text>
      </g>
    </g>
    <g transform="translate(18.7,29.54)" id="img-157b8dd3-40">
      <g class="primitive">
        <text text-anchor="end" dy="0.35em">100000</text>
      </g>
    </g>
    <g transform="translate(18.7,14.38)" id="img-157b8dd3-41">
      <g class="primitive">
        <text text-anchor="end" dy="0.35em">150000</text>
      </g>
    </g>
  </g>
  <g font-size="3.18" font-family="'PT Sans','Helvetica Neue','Helvetica',sans-serif" fill="#202020" stroke="#000000" stroke-opacity="0.000" id="img-157b8dd3-42">
    <g transform="translate(4.18,29.29)" id="img-157b8dd3-43">
      <g class="primitive">
        <text text-anchor="middle" dy="0.35em" transform="rotate(-90,0, 2)">Counts</text>
      </g>
    </g>
  </g>
</g>
<defs>
  <clipPath id="img-157b8dd3-4">
    <path d="M19.7,0.71 L253.29,0.71 253.29,61.87 19.7,61.87 " />
  </clipPath>
</defs>
</svg>
