<?xml version="1.0" encoding="UTF-8"?>
<svg xmlns="http://www.w3.org/2000/svg"
     xmlns:xlink="http://www.w3.org/1999/xlink"
     xmlns:gadfly="http://www.gadflyjl.org/ns"
     version="1.2"
     width="254mm" height="76.2mm" viewBox="0 0 254 76.2"
     stroke="none"
     fill="#000000"
     stroke-width="0.3"
     font-size="3.88"
>
<defs>
  <marker id="arrow" markerWidth="15" markerHeight="7" refX="5" refY="3.5" orient="auto" markerUnits="strokeWidth">
    <path d="M0,0 L15,3.5 L0,7 z" stroke="context-stroke" fill="context-stroke"/>
  </marker>
</defs>
<g class="plotroot xscalable yscalable" id="img-f00a7b3a-1">
  <g font-size="3.18" font-family="'PT Sans','Helvetica Neue','Helvetica',sans-serif" fill="#202020" stroke="#000000" stroke-opacity="0.000" id="img-f00a7b3a-2">
    <g transform="translate(137.53,69.54)">
      <g class="primitive">
        <text text-anchor="middle" dy="0.6em">Channels</text>
      </g>
    </g>
  </g>
  <g class="guide xlabels" font-size="2.82" font-family="'PT Sans Caption','Helvetica Neue','Helvetica',sans-serif" fill="#6C606B" id="img-f00a7b3a-3">
    <g transform="translate(123.36,62.87)">
      <g class="primitive">
        <text text-anchor="middle" dy="0.6em">500</text>
      </g>
    </g>
    <g transform="translate(223.15,62.87)">
      <g class="primitive">
        <text text-anchor="middle" dy="0.6em">1000</text>
      </g>
    </g>
  </g>
  <g clip-path="url(#img-f00a7b3a-4)">
    <g id="img-f00a7b3a-5">
      <g pointer-events="visible" stroke-width="0.3" fill="#FDFDF1" stroke="#202020" class="guide background" id="img-f00a7b3a-6">
        <g transform="translate(137.53,33.76)" id="img-f00a7b3a-7">
          <path d="M-115.76,-28.1 L115.76,-28.1 115.76,28.1 -115.76,28.1  z" class="primitive"/>
        </g>
      </g>
      <g class="guide ygridlines xfixed" stroke-dasharray="none" stroke-width="0.2" stroke="#FFDFDF" id="img-f00a7b3a-8">
        <g transform="translate(137.53,59.87)" id="img-f00a7b3a-9">
          <path fill="none" d="M-115.76,0 L115.76,0 " class="primitive"/>
        </g>
        <g transform="translate(137.53,39.26)" id="img-f00a7b3a-10">
          <path fill="none" d="M-115.76,0 L115.76,0 " class="primitive"/>
        </g>
        <g transform="translate(137.53,18.66)" id="img-f00a7b3a-11">
          <path fill="none" d="M-115.76,0 L115.76,0 " class="primitive"/>
        </g>
      </g>
      <g class="guide xgridlines yfixed" stroke-dasharray="none" stroke-width="0.2" stroke="#FFDFDF" id="img-f00a7b3a-12">
        <g transform="translate(123.36,33.76)" id="img-f00a7b3a-13">
          <path fill="none" d="M0,-28.1 L0,28.1 " class="primitive"/>
        </g>
        <g transform="translate(223.15,33.76)" id="img-f00a7b3a-14">
          <path fill="none" d="M0,-28.1 L0,28.1 " class="primitive"/>
        </g>
      </g>
      <g class="plotpanel" id="img-f00a7b3a-15">
        <metadata>
          <boundingbox value="21.773888888888912mm 5.660555555555554mm 231.52055555555557mm 56.20555555555556mm"/>
          <unitbox value="-9.021072577080947 26307.167737868782 1160.0421451541617 -27277.812442760936"/>
        </metadata>
        <g class="geometry" stroke="#000000" stroke-opacity="0.000" fill="#4C404B" font-size="2.82" font-family="'PT Sans Caption','Helvetica Neue','Helvetica',sans-serif" id="img-f00a7b3a-16">
          <g class="marker" id="img-f00a7b3a-17">
            <g transform="translate(164.48,33.76)" id="img-f00a7b3a-18">
              <g class="primitive">
                <text text-anchor="middle" dy="-0em" transform="translate(0,-1.9)">0.0668</text>
              </g>
            </g>
          </g>
        </g>
        <g class="geometry" stroke="#000000" stroke-opacity="0.000" fill="#4C404B" font-size="2.82" font-family="'PT Sans Caption','Helvetica Neue','Helvetica',sans-serif" id="img-f00a7b3a-19">
          <g class="marker" id="img-f00a7b3a-20">
            <g transform="translate(159.29,33.76)" id="img-f00a7b3a-21">
              <g class="primitive">
                <text dy="0.35em" transform="translate(1.9,0)"></text>
              </g>
            </g>
            <g transform="translate(169.67,33.76)" id="img-f00a7b3a-22">
              <g class="primitive">
                <text dy="0.35em" transform="translate(1.9,0)">Fe K-M3 + 3 others</text>
              </g>
            </g>
          </g>
        </g>
        <g class="geometry" id="img-f00a7b3a-23">
          <g stroke-width="0.3" id="img-f00a7b3a-24">
            <g class="color_RGBA{Float32}(0.5019608f0,0.5019608f0,0.5019608f0,1.0f0)" fill-opacity="1" stroke="#FFFFFF" fill="#808080" id="img-f00a7b3a-25">
              <g class="marker" id="img-f00a7b3a-26">
                <g transform="translate(169.67,33.76)" id="img-f00a7b3a-27">
                  <circle cx="0" cy="0" r="0.9" class="primitive"/>
                </g>
              </g>
            </g>
            <g class="color_RGBA{Float32}(0.5019608f0,0.5019608f0,0.5019608f0,1.0f0)" fill-opacity="1" stroke="#FFFFFF" fill="#808080" id="img-f00a7b3a-28">
              <g class="marker" id="img-f00a7b3a-29">
                <g transform="translate(159.29,33.76)" id="img-f00a7b3a-30">
                  <circle cx="0" cy="0" r="0.9" class="primitive"/>
                </g>
              </g>
            </g>
          </g>
        </g>
        <g stroke-width="0.3" fill="#000000" fill-opacity="0.000" class="geometry" id="img-f00a7b3a-31">
          <g class="color_RGB{N0f8}(0.502,0.502,0.502)" stroke-dasharray="none" stroke="#808080" id="img-f00a7b3a-32">
            <g transform="translate(164.48,33.76)" id="img-f00a7b3a-33">
              <path fill="none" d="M-5.19,0 L5.19,0 " class="primitive"/>
            </g>
          </g>
        </g>
        <g class="geometry" stroke="#000000" stroke-opacity="0.000" fill="#4C404B" font-size="2.82" font-family="'PT Sans Caption','Helvetica Neue','Helvetica',sans-serif" id="img-f00a7b3a-34">
          <g class="marker" id="img-f00a7b3a-35">
            <g transform="translate(151.5,38.98)" id="img-f00a7b3a-36">
              <g class="primitive">
                <text text-anchor="middle" dy="-0em" transform="translate(0,-1.9)">0.0668</text>
              </g>
            </g>
          </g>
        </g>
        <g class="geometry" stroke="#000000" stroke-opacity="0.000" fill="#4C404B" font-size="2.82" font-family="'PT Sans Caption','Helvetica Neue','Helvetica',sans-serif" id="img-f00a7b3a-37">
          <g class="marker" id="img-f00a7b3a-38">
            <g transform="translate(145.92,38.98)" id="img-f00a7b3a-39">
              <g class="primitive">
                <text dy="0.35em" transform="translate(1.9,0)"></text>
              </g>
            </g>
            <g transform="translate(157.09,38.98)" id="img-f00a7b3a-40">
              <g class="primitive">
                <text dy="0.35em" transform="translate(1.9,0)">Fe K-L3 + 1 other</text>
              </g>
            </g>
          </g>
        </g>
        <g class="geometry" id="img-f00a7b3a-41">
          <g stroke-width="0.3" id="img-f00a7b3a-42">
            <g class="color_RGBA{Float32}(0.5019608f0,0.5019608f0,0.5019608f0,1.0f0)" fill-opacity="1" stroke="#FFFFFF" fill="#808080" id="img-f00a7b3a-43">
              <g class="marker" id="img-f00a7b3a-44">
                <g transform="translate(157.09,38.98)" id="img-f00a7b3a-45">
                  <circle cx="0" cy="0" r="0.9" class="primitive"/>
                </g>
              </g>
            </g>
            <g class="color_RGBA{Float32}(0.5019608f0,0.5019608f0,0.5019608f0,1.0f0)" fill-opacity="1" stroke="#FFFFFF" fill="#808080" id="img-f00a7b3a-46">
              <g class="marker" id="img-f00a7b3a-47">
                <g transform="translate(145.92,38.98)" id="img-f00a7b3a-48">
                  <circle cx="0" cy="0" r="0.9" class="primitive"/>
                </g>
              </g>
            </g>
          </g>
        </g>
        <g stroke-width="0.3" fill="#000000" fill-opacity="0.000" class="geometry" id="img-f00a7b3a-49">
          <g class="color_RGB{N0f8}(0.502,0.502,0.502)" stroke-dasharray="none" stroke="#808080" id="img-f00a7b3a-50">
            <g transform="translate(151.5,38.98)" id="img-f00a7b3a-51">
              <path fill="none" d="M-5.59,0 L5.59,0 " class="primitive"/>
            </g>
          </g>
        </g>
        <g class="geometry" stroke="#000000" stroke-opacity="0.000" fill="#4C404B" font-size="2.82" font-family="'PT Sans Caption','Helvetica Neue','Helvetica',sans-serif" id="img-f00a7b3a-52">
          <g class="marker" id="img-f00a7b3a-53">
            <g transform="translate(100.31,38.98)" id="img-f00a7b3a-54">
              <g class="primitive">
                <text text-anchor="middle" dy="-0em" transform="translate(0,-1.9)">0.1922</text>
              </g>
            </g>
          </g>
        </g>
        <g class="geometry" stroke="#000000" stroke-opacity="0.000" fill="#4C404B" font-size="2.82" font-family="'PT Sans Caption','Helvetica Neue','Helvetica',sans-serif" id="img-f00a7b3a-55">
          <g class="marker" id="img-f00a7b3a-56">
            <g transform="translate(92.83,38.98)" id="img-f00a7b3a-57">
              <g class="primitive">
                <text dy="0.35em" transform="translate(1.9,0)"></text>
              </g>
            </g>
            <g transform="translate(107.8,38.98)" id="img-f00a7b3a-58">
              <g class="primitive">
                <text dy="0.35em" transform="translate(1.9,0)">Ca K-L3 + 3 others</text>
              </g>
            </g>
          </g>
        </g>
        <g class="geometry" id="img-f00a7b3a-59">
          <g stroke-width="0.3" id="img-f00a7b3a-60">
            <g class="color_RGBA{Float32}(0.5019608f0,0.5019608f0,0.5019608f0,1.0f0)" fill-opacity="1" stroke="#FFFFFF" fill="#808080" id="img-f00a7b3a-61">
              <g class="marker" id="img-f00a7b3a-62">
                <g transform="translate(107.8,38.98)" id="img-f00a7b3a-63">
                  <circle cx="0" cy="0" r="0.9" class="primitive"/>
                </g>
              </g>
            </g>
            <g class="color_RGBA{Float32}(0.5019608f0,0.5019608f0,0.5019608f0,1.0f0)" fill-opacity="1" stroke="#FFFFFF" fill="#808080" id="img-f00a7b3a-64">
              <g class="marker" id="img-f00a7b3a-65">
                <g transform="translate(92.83,38.98)" id="img-f00a7b3a-66">
                  <circle cx="0" cy="0" r="0.9" class="primitive"/>
                </g>
              </g>
            </g>
          </g>
        </g>
        <g stroke-width="0.3" fill="#000000" fill-opacity="0.000" class="geometry" id="img-f00a7b3a-67">
          <g class="color_RGB{N0f8}(0.502,0.502,0.502)" stroke-dasharray="none" stroke="#808080" id="img-f00a7b3a-68">
            <g transform="translate(100.31,38.98)" id="img-f00a7b3a-69">
              <path fill="none" d="M-7.48,0 L7.48,0 " class="primitive"/>
            </g>
          </g>
        </g>
        <g class="geometry" stroke="#000000" stroke-opacity="0.000" fill="#4C404B" font-size="2.82" font-family="'PT Sans Caption','Helvetica Neue','Helvetica',sans-serif" id="img-f00a7b3a-70">
          <g class="marker" id="img-f00a7b3a-71">
            <g transform="translate(58.9,18.1)" id="img-f00a7b3a-72">
              <g class="primitive">
                <text text-anchor="middle" dy="-0em" transform="translate(0,-1.9)">0.3510</text>
              </g>
            </g>
          </g>
        </g>
        <g class="geometry" stroke="#000000" stroke-opacity="0.000" fill="#4C404B" font-size="2.82" font-family="'PT Sans Caption','Helvetica Neue','Helvetica',sans-serif" id="img-f00a7b3a-73">
          <g class="marker" id="img-f00a7b3a-74">
            <g transform="translate(54.91,18.1)" id="img-f00a7b3a-75">
              <g class="primitive">
                <text dy="0.35em" transform="translate(1.9,0)"></text>
              </g>
            </g>
            <g transform="translate(62.89,18.1)" id="img-f00a7b3a-76">
              <g class="primitive">
                <text dy="0.35em" transform="translate(1.9,0)">Si K-L3 + 2 others</text>
              </g>
            </g>
          </g>
        </g>
        <g class="geometry" id="img-f00a7b3a-77">
          <g stroke-width="0.3" id="img-f00a7b3a-78">
            <g class="color_RGBA{Float32}(0.5019608f0,0.5019608f0,0.5019608f0,1.0f0)" fill-opacity="1" stroke="#FFFFFF" fill="#808080" id="img-f00a7b3a-79">
              <g class="marker" id="img-f00a7b3a-80">
                <g transform="translate(62.89,18.1)" id="img-f00a7b3a-81">
                  <circle cx="0" cy="0" r="0.9" class="primitive"/>
                </g>
              </g>
            </g>
            <g class="color_RGBA{Float32}(0.5019608f0,0.5019608f0,0.5019608f0,1.0f0)" fill-opacity="1" stroke="#FFFFFF" fill="#808080" id="img-f00a7b3a-82">
              <g class="marker" id="img-f00a7b3a-83">
                <g transform="translate(54.91,18.1)" id="img-f00a7b3a-84">
                  <circle cx="0" cy="0" r="0.9" class="primitive"/>
                </g>
              </g>
            </g>
          </g>
        </g>
        <g stroke-width="0.3" fill="#000000" fill-opacity="0.000" class="geometry" id="img-f00a7b3a-85">
          <g class="color_RGB{N0f8}(0.502,0.502,0.502)" stroke-dasharray="none" stroke="#808080" id="img-f00a7b3a-86">
            <g transform="translate(58.9,18.1)" id="img-f00a7b3a-87">
              <path fill="none" d="M-3.99,0 L3.99,0 " class="primitive"/>
            </g>
          </g>
        </g>
        <g class="geometry" stroke="#000000" stroke-opacity="0.000" fill="#4C404B" font-size="2.82" font-family="'PT Sans Caption','Helvetica Neue','Helvetica',sans-serif" id="img-f00a7b3a-88">
          <g class="marker" id="img-f00a7b3a-89">
            <g transform="translate(53.31,23.32)" id="img-f00a7b3a-90">
              <g class="primitive">
                <text text-anchor="middle" dy="-0em" transform="translate(0,-1.9)">0.0670</text>
              </g>
            </g>
          </g>
        </g>
        <g class="geometry" stroke="#000000" stroke-opacity="0.000" fill="#4C404B" font-size="2.82" font-family="'PT Sans Caption','Helvetica Neue','Helvetica',sans-serif" id="img-f00a7b3a-91">
          <g class="marker" id="img-f00a7b3a-92">
            <g transform="translate(49.92,23.32)" id="img-f00a7b3a-93">
              <g class="primitive">
                <text dy="0.35em" transform="translate(1.9,0)"></text>
              </g>
            </g>
            <g transform="translate(56.7,23.32)" id="img-f00a7b3a-94">
              <g class="primitive">
                <text dy="0.35em" transform="translate(1.9,0)">Al K-L3 + 1 other</text>
              </g>
            </g>
          </g>
        </g>
        <g class="geometry" id="img-f00a7b3a-95">
          <g stroke-width="0.3" id="img-f00a7b3a-96">
            <g class="color_RGBA{Float32}(0.5019608f0,0.5019608f0,0.5019608f0,1.0f0)" fill-opacity="1" stroke="#FFFFFF" fill="#808080" id="img-f00a7b3a-97">
              <g class="marker" id="img-f00a7b3a-98">
                <g transform="translate(56.7,23.32)" id="img-f00a7b3a-99">
                  <circle cx="0" cy="0" r="0.9" class="primitive"/>
                </g>
              </g>
            </g>
            <g class="color_RGBA{Float32}(0.5019608f0,0.5019608f0,0.5019608f0,1.0f0)" fill-opacity="1" stroke="#FFFFFF" fill="#808080" id="img-f00a7b3a-100">
              <g class="marker" id="img-f00a7b3a-101">
                <g transform="translate(49.92,23.32)" id="img-f00a7b3a-102">
                  <circle cx="0" cy="0" r="0.9" class="primitive"/>
                </g>
              </g>
            </g>
          </g>
        </g>
        <g stroke-width="0.3" fill="#000000" fill-opacity="0.000" class="geometry" id="img-f00a7b3a-103">
          <g class="color_RGB{N0f8}(0.502,0.502,0.502)" stroke-dasharray="none" stroke="#808080" id="img-f00a7b3a-104">
            <g transform="translate(53.31,23.32)" id="img-f00a7b3a-105">
              <path fill="none" d="M-3.39,0 L3.39,0 " class="primitive"/>
            </g>
          </g>
        </g>
        <g class="geometry" stroke="#000000" stroke-opacity="0.000" fill="#4C404B" font-size="2.82" font-family="'PT Sans Caption','Helvetica Neue','Helvetica',sans-serif" id="img-f00a7b3a-106">
          <g class="marker" id="img-f00a7b3a-107">
            <g transform="translate(48.72,28.54)" id="img-f00a7b3a-108">
              <g class="primitive">
                <text text-anchor="middle" dy="-0em" transform="translate(0,-1.9)">0.1476</text>
              </g>
            </g>
          </g>
        </g>
        <g class="geometry" stroke="#000000" stroke-opacity="0.000" fill="#4C404B" font-size="2.82" font-family="'PT Sans Caption','Helvetica Neue','Helvetica',sans-serif" id="img-f00a7b3a-109">
          <g class="marker" id="img-f00a7b3a-110">
            <g transform="translate(45.53,28.54)" id="img-f00a7b3a-111">
              <g class="primitive">
                <text dy="0.35em" transform="translate(1.9,0)"></text>
              </g>
            </g>
            <g transform="translate(51.91,28.54)" id="img-f00a7b3a-112">
              <g class="primitive">
                <text dy="0.35em" transform="translate(1.9,0)">Mg K-L3 + 1 other</text>
              </g>
            </g>
          </g>
        </g>
        <g class="geometry" id="img-f00a7b3a-113">
          <g stroke-width="0.3" id="img-f00a7b3a-114">
            <g class="color_RGBA{Float32}(0.5019608f0,0.5019608f0,0.5019608f0,1.0f0)" fill-opacity="1" stroke="#FFFFFF" fill="#808080" id="img-f00a7b3a-115">
              <g class="marker" id="img-f00a7b3a-116">
                <g transform="translate(51.91,28.54)" id="img-f00a7b3a-117">
                  <circle cx="0" cy="0" r="0.9" class="primitive"/>
                </g>
              </g>
            </g>
            <g class="color_RGBA{Float32}(0.5019608f0,0.5019608f0,0.5019608f0,1.0f0)" fill-opacity="1" stroke="#FFFFFF" fill="#808080" id="img-f00a7b3a-118">
              <g class="marker" id="img-f00a7b3a-119">
                <g transform="translate(45.53,28.54)" id="img-f00a7b3a-120">
                  <circle cx="0" cy="0" r="0.9" class="primitive"/>
                </g>
              </g>
            </g>
          </g>
        </g>
        <g stroke-width="0.3" fill="#000000" fill-opacity="0.000" class="geometry" id="img-f00a7b3a-121">
          <g class="color_RGB{N0f8}(0.502,0.502,0.502)" stroke-dasharray="none" stroke="#808080" id="img-f00a7b3a-122">
            <g transform="translate(48.72,28.54)" id="img-f00a7b3a-123">
              <path fill="none" d="M-3.19,0 L3.19,0 " class="primitive"/>
            </g>
          </g>
        </g>
        <g class="geometry" stroke="#000000" stroke-opacity="0.000" fill="#4C404B" font-size="2.82" font-family="'PT Sans Caption','Helvetica Neue','Helvetica',sans-serif" id="img-f00a7b3a-124">
          <g class="marker" id="img-f00a7b3a-125">
            <g transform="translate(37.74,33.76)" id="img-f00a7b3a-126">
              <g class="primitive">
                <text text-anchor="middle" dy="-0em" transform="translate(0,-1.9)">0.0419</text>
              </g>
            </g>
          </g>
        </g>
        <g class="geometry" stroke="#000000" stroke-opacity="0.000" fill="#4C404B" font-size="2.82" font-family="'PT Sans Caption','Helvetica Neue','Helvetica',sans-serif" id="img-f00a7b3a-127">
          <g class="marker" id="img-f00a7b3a-128">
            <g transform="translate(33.35,33.76)" id="img-f00a7b3a-129">
              <g class="primitive">
                <text dy="0.35em" transform="translate(1.9,0)"></text>
              </g>
            </g>
            <g transform="translate(42.14,33.76)" id="img-f00a7b3a-130">
              <g class="primitive">
                <text dy="0.35em" transform="translate(1.9,0)">Fe L3-M5 + 11 others</text>
              </g>
            </g>
          </g>
        </g>
        <g class="geometry" id="img-f00a7b3a-131">
          <g stroke-width="0.3" id="img-f00a7b3a-132">
            <g class="color_RGBA{Float32}(0.5019608f0,0.5019608f0,0.5019608f0,1.0f0)" fill-opacity="1" stroke="#FFFFFF" fill="#808080" id="img-f00a7b3a-133">
              <g class="marker" id="img-f00a7b3a-134">
                <g transform="translate(42.14,33.76)" id="img-f00a7b3a-135">
                  <circle cx="0" cy="0" r="0.9" class="primitive"/>
                </g>
              </g>
            </g>
            <g class="color_RGBA{Float32}(0.5019608f0,0.5019608f0,0.5019608f0,1.0f0)" fill-opacity="1" stroke="#FFFFFF" fill="#808080" id="img-f00a7b3a-136">
              <g class="marker" id="img-f00a7b3a-137">
                <g transform="translate(33.35,33.76)" id="img-f00a7b3a-138">
                  <circle cx="0" cy="0" r="0.9" class="primitive"/>
                </g>
              </g>
            </g>
          </g>
        </g>
        <g stroke-width="0.3" fill="#000000" fill-opacity="0.000" class="geometry" id="img-f00a7b3a-139">
          <g class="color_RGB{N0f8}(0.502,0.502,0.502)" stroke-dasharray="none" stroke="#808080" id="img-f00a7b3a-140">
            <g transform="translate(37.74,33.76)" id="img-f00a7b3a-141">
              <path fill="none" d="M-4.39,0 L4.39,0 " class="primitive"/>
            </g>
          </g>
        </g>
        <g class="geometry" stroke="#000000" stroke-opacity="0.000" fill="#4C404B" font-size="2.82" font-family="'PT Sans Caption','Helvetica Neue','Helvetica',sans-serif" id="img-f00a7b3a-142">
          <g class="marker" id="img-f00a7b3a-143">
            <g transform="translate(34.15,38.98)" id="img-f00a7b3a-144">
              <g class="primitive">
                <text text-anchor="middle" dy="-0em" transform="translate(0,-1.9)">0.6556</text>
              </g>
            </g>
          </g>
        </g>
        <g class="geometry" stroke="#000000" stroke-opacity="0.000" fill="#4C404B" font-size="2.82" font-family="'PT Sans Caption','Helvetica Neue','Helvetica',sans-serif" id="img-f00a7b3a-145">
          <g class="marker" id="img-f00a7b3a-146">
            <g transform="translate(31.56,38.98)" id="img-f00a7b3a-147">
              <g class="primitive">
                <text dy="0.35em" transform="translate(1.9,0)"></text>
              </g>
            </g>
            <g transform="translate(36.75,38.98)" id="img-f00a7b3a-148">
              <g class="primitive">
                <text dy="0.35em" transform="translate(1.9,0)">O K-L3 + 1 other</text>
              </g>
            </g>
          </g>
        </g>
        <g class="geometry" id="img-f00a7b3a-149">
          <g stroke-width="0.3" id="img-f00a7b3a-150">
            <g class="color_RGBA{Float32}(0.5019608f0,0.5019608f0,0.5019608f0,1.0f0)" fill-opacity="1" stroke="#FFFFFF" fill="#808080" id="img-f00a7b3a-151">
              <g class="marker" id="img-f00a7b3a-152">
                <g transform="translate(36.75,38.98)" id="img-f00a7b3a-153">
                  <circle cx="0" cy="0" r="0.9" class="primitive"/>
                </g>
              </g>
            </g>
            <g class="color_RGBA{Float32}(0.5019608f0,0.5019608f0,0.5019608f0,1.0f0)" fill-opacity="1" stroke="#FFFFFF" fill="#808080" id="img-f00a7b3a-154">
              <g class="marker" id="img-f00a7b3a-155">
                <g transform="translate(31.56,38.98)" id="img-f00a7b3a-156">
                  <circle cx="0" cy="0" r="0.9" class="primitive"/>
                </g>
              </g>
            </g>
          </g>
        </g>
        <g stroke-width="0.3" fill="#000000" fill-opacity="0.000" class="geometry" id="img-f00a7b3a-157">
          <g class="color_RGB{N0f8}(0.502,0.502,0.502)" stroke-dasharray="none" stroke="#808080" id="img-f00a7b3a-158">
            <g transform="translate(34.15,38.98)" id="img-f00a7b3a-159">
              <path fill="none" d="M-2.59,0 L2.59,0 " class="primitive"/>
            </g>
          </g>
        </g>
        <g stroke-width="0.3" fill="#000000" fill-opacity="0.000" class="geometry" id="img-f00a7b3a-160">
          <g class="color_RGB{N0f8}(0.063,0.306,0.545)" stroke-dasharray="none" stroke="#104E8B" id="img-f00a7b3a-161">
            <g transform="translate(137.58,45.46)" id="img-f00a7b3a-162">
              <path fill="none" d="M-113.81,14.4 L-113.61,14.4 -113.61,14.4 -113.41,14.4 -113.41,14.39 -113.21,14.39 -113.21,14.4 -113.01,14.4 -113.01,14.4 -112.81,14.4 -112.81,14.4 -112.61,14.4 -112.61,14.4 -112.41,14.4 -112.41,14.4 -112.21,14.4 -112.21,14.4 -112.01,14.4 -112.01,14.4 -111.81,14.4 -111.81,14.4 -111.61,14.4 -111.61,14.4 -111.42,14.4 -111.42,14.4 -111.22,14.4 -111.22,14.39 -111.02,14.39 -111.02,14.39 -110.82,14.39 -110.82,14.38 -110.62,14.38 -110.62,14.35 -110.42,14.35 -110.42,14.3 -110.22,14.3 -110.22,14.23 -110.02,14.23 -110.02,14.06 -109.82,14.06 -109.82,13.78 -109.62,13.78 -109.62,13.22 -109.42,13.22 -109.42,12.16 -109.22,12.16 -109.22,10.32 -109.02,10.32 -109.02,7.46 -108.82,7.46 -108.82,4.57 -108.62,4.57 -108.62,2 -108.42,2 -108.42,0.89 -108.22,0.89 -108.22,1.88 -108.02,1.88 -108.02,4.21 -107.82,4.21 -107.82,6.99 -107.62,6.99 -107.62,8.82 -107.42,8.82 -107.42,10.28 -107.22,10.28 -107.22,10.87 -107.02,10.87 -107.02,10.98 -106.82,10.98 -106.82,11.02 -106.63,11.02 -106.63,10.91 -106.43,10.91 -106.43,10.98 -106.23,10.98 -106.23,10.53 -106.03,10.53 -106.03,10.41 -105.83,10.41 -105.83,9.9 -105.63,9.9 -105.63,9.32 -105.43,9.32 -105.43,8.1 -105.23,8.1 -105.23,6.04 -105.03,6.04 -105.03,1.35 -104.83,1.35 -104.83,-7.48 -104.63,-7.48 -104.63,-23.25 -104.43,-23.25 -104.43,-50.4 -104.23,-50.4 -104.23,-92.15 -104.03,-92.15 -104.03,-144.18 -103.83,-144.18 -103.83,-198.73 -103.63,-198.73 -103.63,-238.2 -103.43,-238.2 -103.43,-245.97 -103.23,-245.97 -103.23,-221.25 -103.03,-221.25 -103.03,-172.38 -102.83,-172.38 -102.83,-114.66 -102.63,-114.66 -102.63,-64.52 -102.43,-64.52 -102.43,-28.4 -102.23,-28.4 -102.23,-8.4 -102.03,-8.4 -102.03,1.72 -101.84,1.72 -101.84,6.36 -101.64,6.36 -101.64,7.83 -101.44,7.83 -101.44,8.41 -101.24,8.41 -101.24,8.66 -101.04,8.66 -101.04,8.02 -100.84,8.02 -100.84,7.2 -100.64,7.2 -100.64,5.74 -100.44,5.74 -100.44,3.41 -100.24,3.41 -100.24,0.78 -100.04,0.78 -100.04,-1.94 -99.84,-1.94 -99.84,-3.41 -99.64,-3.41 -99.64,-3.51 -99.44,-3.51 -99.44,-2.4 -99.24,-2.4 -99.24,0.3 -99.04,0.3 -99.04,2.93 -98.84,2.93 -98.84,5.04 -98.64,5.04 -98.64,6.75 -98.44,6.75 -98.44,7.94 -98.24,7.94 -98.24,8.26 -98.04,8.26 -98.04,8.34 -97.84,8.34 -97.84,8.55 -97.64,8.55 -97.64,8.63 -97.44,8.63 -97.44,8.62 -97.25,8.62 -97.25,8.29 -97.05,8.29 -97.05,8.34 -96.85,8.34 -96.85,8.1 -96.65,8.1 -96.65,7.83 -96.45,7.83 -96.45,8.02 -96.25,8.02 -96.25,7.85 -96.05,7.85 -96.05,7.52 -95.85,7.52 -95.85,7.55 -95.65,7.55 -95.65,7.62 -95.45,7.62 -95.45,7.32 -95.25,7.32 -95.25,7.15 -95.05,7.15 -95.05,6.85 -94.85,6.85 -94.85,6.82 -94.65,6.82 -94.65,6.26 -94.45,6.26 -94.45,6.47 -94.25,6.47 -94.25,6.14 -94.05,6.14 -94.05,5.73 -93.85,5.73 -93.85,5.53 -93.65,5.53 -93.65,4.99 -93.45,4.99 -93.45,4.54 -93.25,4.54 -93.25,4.47 -93.05,4.47 -93.05,4.44 -92.85,4.44 -92.85,4.35 -92.65,4.35 -92.65,3.8 -92.46,3.8 -92.46,3.81 -92.26,3.81 -92.26,3.55 -92.06,3.55 -92.06,3.82 -91.86,3.82 -91.86,3.35 -91.66,3.35 -91.66,3.09 -91.46,3.09 -91.46,3 -91.26,3 -91.26,2.64 -91.06,2.64 -91.06,1.67 -90.86,1.67 -90.86,0.65 -90.66,0.65 -90.66,-1.75 -90.46,-1.75 -90.46,-6.73 -90.26,-6.73 -90.26,-16.28 -90.06,-16.28 -90.06,-32.1 -89.86,-32.1 -89.86,-58.8 -89.66,-58.8 -89.66,-95.59 -89.46,-95.59 -89.46,-141.77 -89.26,-141.77 -89.26,-187.88 -89.06,-187.88 -89.06,-224.93 -88.86,-224.93 -88.86,-243.91 -88.66,-243.91 -88.66,-238.97 -88.46,-238.97 -88.46,-213.05 -88.26,-213.05 -88.26,-171.58 -88.06,-171.58 -88.06,-125.61 -87.86,-125.61 -87.86,-83.69 -87.67,-83.69 -87.67,-51.35 -87.47,-51.35 -87.47,-27.62 -87.27,-27.62 -87.27,-13.63 -87.07,-13.63 -87.07,-4.94 -86.87,-4.94 -86.87,-0.93 -86.67,-0.93 -86.67,1.24 -86.47,1.24 -86.47,1.71 -86.27,1.71 -86.27,2.09 -86.07,2.09 -86.07,1.2 -85.87,1.2 -85.87,-0.58 -85.67,-0.58 -85.67,-3.9 -85.47,-3.9 -85.47,-10.63 -85.27,-10.63 -85.27,-20.98 -85.07,-20.98 -85.07,-35.76 -84.87,-35.76 -84.87,-53.52 -84.67,-53.52 -84.67,-72.83 -84.47,-72.83 -84.47,-88.98 -84.27,-88.98 -84.27,-98.95 -84.07,-98.95 -84.07,-100.56 -83.87,-100.56 -83.87,-93.69 -83.67,-93.69 -83.67,-78.2 -83.47,-78.2 -83.47,-60.81 -83.27,-60.81 -83.27,-42.84 -83.07,-42.84 -83.07,-28.19 -82.88,-28.19 -82.88,-16.54 -82.68,-16.54 -82.68,-9.86 -82.48,-9.86 -82.48,-4.76 -82.28,-4.76 -82.28,-1.67 -82.08,-1.67 -82.08,-0.43 -81.88,-0.43 -81.88,0.76 -81.68,0.76 -81.68,1.44 -81.48,1.44 -81.48,0.34 -81.28,0.34 -81.28,-1.24 -81.08,-1.24 -81.08,-5.53 -80.88,-5.53 -80.88,-14.16 -80.68,-14.16 -80.68,-30.13 -80.48,-30.13 -80.48,-59.67 -80.28,-59.67 -80.28,-102.38 -80.08,-102.38 -80.08,-163.31 -79.88,-163.31 -79.88,-238.99 -79.68,-238.99 -79.68,-319.74 -79.48,-319.74 -79.48,-391.08 -79.28,-391.08 -79.28,-448.14 -79.08,-448.14 -79.08,-464.99 -78.88,-464.99 -78.88,-444.21 -78.68,-444.21 -78.68,-390.82 -78.48,-390.82 -78.48,-318.08 -78.29,-318.08 -78.29,-241.73 -78.09,-241.73 -78.09,-171.61 -77.89,-171.61 -77.89,-115.56 -77.69,-115.56 -77.69,-74.39 -77.49,-74.39 -77.49,-47.52 -77.29,-47.52 -77.29,-31.25 -77.09,-31.25 -77.09,-21.41 -76.89,-21.41 -76.89,-14.61 -76.69,-14.61 -76.69,-9.32 -76.49,-9.32 -76.49,-4.83 -76.29,-4.83 -76.29,-1.55 -76.09,-1.55 -76.09,1.1 -75.89,1.1 -75.89,2.71 -75.69,2.71 -75.69,3.4 -75.49,3.4 -75.49,3.89 -75.29,3.89 -75.29,4.64 -75.09,4.64 -75.09,4.96 -74.89,4.96 -74.89,4.8 -74.69,4.8 -74.69,5.02 -74.49,5.02 -74.49,5.27 -74.29,5.27 -74.29,5.48 -74.09,5.48 -74.09,5.49 -73.89,5.49 -73.89,5.8 -73.69,5.8 -73.69,6.13 -73.5,6.13 -73.5,6.03 -73.3,6.03 -73.3,6.5 -73.1,6.5 -73.1,6.55 -72.9,6.55 -72.9,6.52 -72.7,6.52 -72.7,6.45 -72.5,6.45 -72.5,6.57 -72.3,6.57 -72.3,6.69 -72.1,6.69 -72.1,6.43 -71.9,6.43 -71.9,6.44 -71.7,6.44 -71.7,6.54 -71.5,6.54 -71.5,6.51 -71.3,6.51 -71.3,6.83 -71.1,6.83 -71.1,6.26 -70.9,6.26 -70.9,6.49 -70.7,6.49 -70.7,6.32 -70.5,6.32 -70.5,6.54 -70.3,6.54 -70.3,6.55 -70.1,6.55 -70.1,6.2 -69.9,6.2 -69.9,6.1 -69.7,6.1 -69.7,5.93 -69.5,5.93 -69.5,5.87 -69.3,5.87 -69.3,5.77 -69.1,5.77 -69.1,5.67 -68.9,5.67 -68.9,5.61 -68.71,5.61 -68.71,5.69 -68.51,5.69 -68.51,5.54 -68.31,5.54 -68.31,5.46 -68.11,5.46 -68.11,5.86 -67.91,5.86 -67.91,5.99 -67.71,5.99 -67.71,6.09 -67.51,6.09 -67.51,6.01 -67.31,6.01 -67.31,6.1 -67.11,6.1 -67.11,6.18 -66.91,6.18 -66.91,6.1 -66.71,6.1 -66.71,6.39 -66.51,6.39 -66.51,6.36 -66.31,6.36 -66.31,6.38 -66.11,6.38 -66.11,6.38 -65.91,6.38 -65.91,6.4 -65.71,6.4 -65.71,6.42 -65.51,6.42 -65.51,6.51 -65.31,6.51 -65.31,6.18 -65.11,6.18 -65.11,6.45 -64.91,6.45 -64.91,6.42 -64.71,6.42 -64.71,6.16 -64.51,6.16 -64.51,6.35 -64.31,6.35 -64.31,6.35 -64.11,6.35 -64.11,6.27 -63.92,6.27 -63.92,6.47 -63.72,6.47 -63.72,6.29 -63.52,6.29 -63.52,6.39 -63.32,6.39 -63.32,6.07 -63.12,6.07 -63.12,6.49 -62.92,6.49 -62.92,6.26 -62.72,6.26 -62.72,6.15 -62.52,6.15 -62.52,6.83 -62.32,6.83 -62.32,6.3 -62.12,6.3 -62.12,6.54 -61.92,6.54 -61.92,6.4 -61.72,6.4 -61.72,6.5 -61.52,6.5 -61.52,6.49 -61.32,6.49 -61.32,6.32 -61.12,6.32 -61.12,6.59 -60.92,6.59 -60.92,6.48 -60.72,6.48 -60.72,6.5 -60.52,6.5 -60.52,6.51 -60.32,6.51 -60.32,6.64 -60.12,6.64 -60.12,6.52 -59.92,6.52 -59.92,6.63 -59.72,6.63 -59.72,6.65 -59.52,6.65 -59.52,6.34 -59.32,6.34 -59.32,6.62 -59.13,6.62 -59.13,6.61 -58.93,6.61 -58.93,6.64 -58.73,6.64 -58.73,6.77 -58.53,6.77 -58.53,6.59 -58.33,6.59 -58.33,6.51 -58.13,6.51 -58.13,6.9 -57.93,6.9 -57.93,6.8 -57.73,6.8 -57.73,6.8 -57.53,6.8 -57.53,6.71 -57.33,6.71 -57.33,6.62 -57.13,6.62 -57.13,6.69 -56.93,6.69 -56.93,6.92 -56.73,6.92 -56.73,6.81 -56.53,6.81 -56.53,6.57 -56.33,6.57 -56.33,6.85 -56.13,6.85 -56.13,6.66 -55.93,6.66 -55.93,6.59 -55.73,6.59 -55.73,6.56 -55.53,6.56 -55.53,6.64 -55.33,6.64 -55.33,6.84 -55.13,6.84 -55.13,6.6 -54.93,6.6 -54.93,6.51 -54.73,6.51 -54.73,6.32 -54.54,6.32 -54.54,6.35 -54.34,6.35 -54.34,6.38 -54.14,6.38 -54.14,6.41 -53.94,6.41 -53.94,6.58 -53.74,6.58 -53.74,6.53 -53.54,6.53 -53.54,6.74 -53.34,6.74 -53.34,6.73 -53.14,6.73 -53.14,6.75 -52.94,6.75 -52.94,7 -52.74,7 -52.74,6.82 -52.54,6.82 -52.54,6.96 -52.34,6.96 -52.34,7.03 -52.14,7.03 -52.14,7.04 -51.94,7.04 -51.94,7.02 -51.74,7.02 -51.74,7.21 -51.54,7.21 -51.54,7.24 -51.34,7.24 -51.34,6.97 -51.14,6.97 -51.14,7.15 -50.94,7.15 -50.94,7.01 -50.74,7.01 -50.74,6.87 -50.54,6.87 -50.54,7 -50.34,7 -50.34,7 -50.14,7 -50.14,7.03 -49.94,7.03 -49.94,7.17 -49.75,7.17 -49.75,7 -49.55,7 -49.55,6.89 -49.35,6.89 -49.35,7.2 -49.15,7.2 -49.15,7.06 -48.95,7.06 -48.95,6.79 -48.75,6.79 -48.75,7.39 -48.55,7.39 -48.55,7.05 -48.35,7.05 -48.35,7.34 -48.15,7.34 -48.15,7.18 -47.95,7.18 -47.95,7.14 -47.75,7.14 -47.75,7.19 -47.55,7.19 -47.55,7.4 -47.35,7.4 -47.35,7.65 -47.15,7.65 -47.15,7.58 -46.95,7.58 -46.95,7.47 -46.75,7.47 -46.75,7.35 -46.55,7.35 -46.55,7.39 -46.35,7.39 -46.35,7.51 -46.15,7.51 -46.15,7.65 -45.95,7.65 -45.95,7.36 -45.75,7.36 -45.75,7.58 -45.55,7.58 -45.55,7.66 -45.35,7.66 -45.35,7.52 -45.15,7.52 -45.15,7.33 -44.96,7.33 -44.96,7.21 -44.76,7.21 -44.76,7.36 -44.56,7.36 -44.56,7.29 -44.36,7.29 -44.36,7.17 -44.16,7.17 -44.16,6.97 -43.96,6.97 -43.96,7.09 -43.76,7.09 -43.76,6.68 -43.56,6.68 -43.56,6.58 -43.36,6.58 -43.36,6.44 -43.16,6.44 -43.16,6.14 -42.96,6.14 -42.96,5.42 -42.76,5.42 -42.76,4.37 -42.56,4.37 -42.56,2.89 -42.36,2.89 -42.36,-0.39 -42.16,-0.39 -42.16,-4.66 -41.96,-4.66 -41.96,-11.08 -41.76,-11.08 -41.76,-20.68 -41.56,-20.68 -41.56,-33.08 -41.36,-33.08 -41.36,-49.24 -41.16,-49.24 -41.16,-67.89 -40.96,-67.89 -40.96,-87.89 -40.76,-87.89 -40.76,-106.35 -40.56,-106.35 -40.56,-124.46 -40.36,-124.46 -40.36,-136.65 -40.17,-136.65 -40.17,-141.65 -39.97,-141.65 -39.97,-141.67 -39.77,-141.67 -39.77,-132.98 -39.57,-132.98 -39.57,-118.75 -39.37,-118.75 -39.37,-102.32 -39.17,-102.32 -39.17,-81.55 -38.97,-81.55 -38.97,-62.6 -38.77,-62.6 -38.77,-43.5 -38.57,-43.5 -38.57,-28.92 -38.37,-28.92 -38.37,-17.15 -38.17,-17.15 -38.17,-8.43 -37.97,-8.43 -37.97,-2.52 -37.77,-2.52 -37.77,1.84 -37.57,1.84 -37.57,4.54 -37.37,4.54 -37.37,5.72 -37.17,5.72 -37.17,7.13 -36.97,7.13 -36.97,7.31 -36.77,7.31 -36.77,7.73 -36.57,7.73 -36.57,7.69 -36.37,7.69 -36.37,7.69 -36.17,7.69 -36.17,7.26 -35.97,7.26 -35.97,7.26 -35.77,7.26 -35.77,6.42 -35.58,6.42 -35.58,5.73 -35.38,5.73 -35.38,4.63 -35.18,4.63 -35.18,2.85 -34.98,2.85 -34.98,1.28 -34.78,1.28 -34.78,-0.84 -34.58,-0.84 -34.58,-3.23 -34.38,-3.23 -34.38,-5.2 -34.18,-5.2 -34.18,-7.18 -33.98,-7.18 -33.98,-8.08 -33.78,-8.08 -33.78,-9.42 -33.58,-9.42 -33.58,-9.28 -33.38,-9.28 -33.38,-8.54 -33.18,-8.54 -33.18,-7.26 -32.98,-7.26 -32.98,-5.47 -32.78,-5.47 -32.78,-3.26 -32.58,-3.26 -32.58,-0.76 -32.38,-0.76 -32.38,1.51 -32.18,1.51 -32.18,3.39 -31.98,3.39 -31.98,5.17 -31.78,5.17 -31.78,6.37 -31.58,6.37 -31.58,7.34 -31.38,7.34 -31.38,7.83 -31.18,7.83 -31.18,8.45 -30.98,8.45 -30.98,9.02 -30.79,9.02 -30.79,8.82 -30.59,8.82 -30.59,8.96 -30.39,8.96 -30.39,8.9 -30.19,8.9 -30.19,9.17 -29.99,9.17 -29.99,9.2 -29.79,9.2 -29.79,9.12 -29.59,9.12 -29.59,9.2 -29.39,9.2 -29.39,9.09 -29.19,9.09 -29.19,9.25 -28.99,9.25 -28.99,9.21 -28.79,9.21 -28.79,9.39 -28.59,9.39 -28.59,9.17 -28.39,9.17 -28.39,9.56 -28.19,9.56 -28.19,9.5 -27.99,9.5 -27.99,9.47 -27.79,9.47 -27.79,9.44 -27.59,9.44 -27.59,9.46 -27.39,9.46 -27.39,9.38 -27.19,9.38 -27.19,9.71 -26.99,9.71 -26.99,9.43 -26.79,9.43 -26.79,9.57 -26.59,9.57 -26.59,9.62 -26.39,9.62 -26.39,9.45 -26.19,9.45 -26.19,9.58 -26,9.58 -26,9.78 -25.8,9.78 -25.8,9.57 -25.6,9.57 -25.6,9.52 -25.4,9.52 -25.4,9.75 -25.2,9.75 -25.2,9.56 -25,9.56 -25,9.6 -24.8,9.6 -24.8,9.85 -24.6,9.85 -24.6,9.69 -24.4,9.69 -24.4,9.68 -24.2,9.68 -24.2,9.72 -24,9.72 -24,9.6 -23.8,9.6 -23.8,9.74 -23.6,9.74 -23.6,9.54 -23.4,9.54 -23.4,9.81 -23.2,9.81 -23.2,9.78 -23,9.78 -23,9.84 -22.8,9.84 -22.8,9.74 -22.6,9.74 -22.6,9.91 -22.4,9.91 -22.4,9.7 -22.2,9.7 -22.2,9.75 -22,9.75 -22,9.82 -21.8,9.82 -21.8,9.66 -21.6,9.66 -21.6,9.52 -21.4,9.52 -21.4,9.78 -21.21,9.78 -21.21,9.8 -21.01,9.8 -21.01,9.64 -20.81,9.64 -20.81,9.88 -20.61,9.88 -20.61,10 -20.41,10 -20.41,9.9 -20.21,9.9 -20.21,9.83 -20.01,9.83 -20.01,9.86 -19.81,9.86 -19.81,9.71 -19.61,9.71 -19.61,9.9 -19.41,9.9 -19.41,9.89 -19.21,9.89 -19.21,10.09 -19.01,10.09 -19.01,10.08 -18.81,10.08 -18.81,10.04 -18.61,10.04 -18.61,10.08 -18.41,10.08 -18.41,10.05 -18.21,10.05 -18.21,9.95 -18.01,9.95 -18.01,10.14 -17.81,10.14 -17.81,10.17 -17.61,10.17 -17.61,10.17 -17.41,10.17 -17.41,10.36 -17.21,10.36 -17.21,10.08 -17.01,10.08 -17.01,10.03 -16.81,10.03 -16.81,10.1 -16.61,10.1 -16.61,10.24 -16.42,10.24 -16.42,10.14 -16.22,10.14 -16.22,10.02 -16.02,10.02 -16.02,10.15 -15.82,10.15 -15.82,10.03 -15.62,10.03 -15.62,10.08 -15.42,10.08 -15.42,10.11 -15.22,10.11 -15.22,10.14 -15.02,10.14 -15.02,10.03 -14.82,10.03 -14.82,10.24 -14.62,10.24 -14.62,10.13 -14.42,10.13 -14.42,10.08 -14.22,10.08 -14.22,10.07 -14.02,10.07 -14.02,10.12 -13.82,10.12 -13.82,10.12 -13.62,10.12 -13.62,10.38 -13.42,10.38 -13.42,10.37 -13.22,10.37 -13.22,10.28 -13.02,10.28 -13.02,10.38 -12.82,10.38 -12.82,10.31 -12.62,10.31 -12.62,10.52 -12.42,10.52 -12.42,10.31 -12.22,10.31 -12.22,10.34 -12.02,10.34 -12.02,10.24 -11.83,10.24 -11.83,10.35 -11.63,10.35 -11.63,10.37 -11.43,10.37 -11.43,10.36 -11.23,10.36 -11.23,10.4 -11.03,10.4 -11.03,10.5 -10.83,10.5 -10.83,10.46 -10.63,10.46 -10.63,10.3 -10.43,10.3 -10.43,10.37 -10.23,10.37 -10.23,10.27 -10.03,10.27 -10.03,10.38 -9.83,10.38 -9.83,10.44 -9.63,10.44 -9.63,10.42 -9.43,10.42 -9.43,10.45 -9.23,10.45 -9.23,10.35 -9.03,10.35 -9.03,10.51 -8.83,10.51 -8.83,10.43 -8.63,10.43 -8.63,10.48 -8.43,10.48 -8.43,10.42 -8.23,10.42 -8.23,10.6 -8.03,10.6 -8.03,10.54 -7.83,10.54 -7.83,10.36 -7.63,10.36 -7.63,10.53 -7.43,10.53 -7.43,10.64 -7.23,10.64 -7.23,10.6 -7.04,10.6 -7.04,10.47 -6.84,10.47 -6.84,10.49 -6.64,10.49 -6.64,10.42 -6.44,10.42 -6.44,10.37 -6.24,10.37 -6.24,10.21 -6.04,10.21 -6.04,10.3 -5.84,10.3 -5.84,10.27 -5.64,10.27 -5.64,10.41 -5.44,10.41 -5.44,10.39 -5.24,10.39 -5.24,10.4 -5.04,10.4 -5.04,10.37 -4.84,10.37 -4.84,10.4 -4.64,10.4 -4.64,10.41 -4.44,10.41 -4.44,10.37 -4.24,10.37 -4.24,10.67 -4.04,10.67 -4.04,10.67 -3.84,10.67 -3.84,10.59 -3.64,10.59 -3.64,10.63 -3.44,10.63 -3.44,10.75 -3.24,10.75 -3.24,10.69 -3.04,10.69 -3.04,10.8 -2.84,10.8 -2.84,10.74 -2.64,10.74 -2.64,10.66 -2.44,10.66 -2.44,10.74 -2.25,10.74 -2.25,10.85 -2.05,10.85 -2.05,10.77 -1.85,10.77 -1.85,10.81 -1.65,10.81 -1.65,10.79 -1.45,10.79 -1.45,10.78 -1.25,10.78 -1.25,11.04 -1.05,11.04 -1.05,10.9 -0.85,10.9 -0.85,10.99 -0.65,10.99 -0.65,10.99 -0.45,10.99 -0.45,10.89 -0.25,10.89 -0.25,10.97 -0.05,10.97 -0.05,10.85 0.15,10.85 0.15,10.88 0.35,10.88 0.35,11.02 0.55,11.02 0.55,10.82 0.75,10.82 0.75,11.03 0.95,11.03 0.95,10.81 1.15,10.81 1.15,11.05 1.35,11.05 1.35,11.02 1.55,11.02 1.55,11.01 1.75,11.01 1.75,10.91 1.95,10.91 1.95,10.97 2.15,10.97 2.15,10.8 2.35,10.8 2.35,10.88 2.54,10.88 2.54,10.85 2.74,10.85 2.74,10.7 2.94,10.7 2.94,10.81 3.14,10.81 3.14,10.83 3.34,10.83 3.34,10.57 3.54,10.57 3.54,10.68 3.74,10.68 3.74,10.76 3.94,10.76 3.94,10.63 4.14,10.63 4.14,10.79 4.34,10.79 4.34,10.8 4.54,10.8 4.54,10.82 4.74,10.82 4.74,10.91 4.94,10.91 4.94,11 5.14,11 5.14,10.99 5.34,10.99 5.34,10.93 5.54,10.93 5.54,10.98 5.74,10.98 5.74,11.25 5.94,11.25 5.94,11.03 6.14,11.03 6.14,11.17 6.34,11.17 6.34,11.17 6.54,11.17 6.54,11.15 6.74,11.15 6.74,11.08 6.94,11.08 6.94,11.15 7.13,11.15 7.13,11.17 7.33,11.17 7.33,11.33 7.53,11.33 7.53,11.21 7.73,11.21 7.73,11.27 7.93,11.27 7.93,11.3 8.13,11.3 8.13,11.23 8.33,11.23 8.33,11.27 8.53,11.27 8.53,11.12 8.73,11.12 8.73,11.45 8.93,11.45 8.93,11.29 9.13,11.29 9.13,11.29 9.33,11.29 9.33,11.09 9.53,11.09 9.53,11.06 9.73,11.06 9.73,11.11 9.93,11.11 9.93,11.23 10.13,11.23 10.13,11.22 10.33,11.22 10.33,10.83 10.53,10.83 10.53,10.76 10.73,10.76 10.73,10.38 10.93,10.38 10.93,9.9 11.13,9.9 11.13,9.21 11.33,9.21 11.33,8.5 11.53,8.5 11.53,6.98 11.73,6.98 11.73,4.97 11.92,4.97 11.92,2.92 12.12,2.92 12.12,0.18 12.32,0.18 12.32,-3.16 12.52,-3.16 12.52,-6.91 12.72,-6.91 12.72,-10.55 12.92,-10.55 12.92,-14.82 13.12,-14.82 13.12,-19.09 13.32,-19.09 13.32,-22.36 13.52,-22.36 13.52,-24.81 13.72,-24.81 13.72,-27.02 13.92,-27.02 13.92,-27.45 14.12,-27.45 14.12,-26.31 14.32,-26.31 14.32,-25.14 14.52,-25.14 14.52,-21.84 14.72,-21.84 14.72,-17.83 14.92,-17.83 14.92,-15.02 15.12,-15.02 15.12,-10.78 15.32,-10.78 15.32,-7.01 15.52,-7.01 15.52,-2.7 15.72,-2.7 15.72,0.25 15.92,0.25 15.92,2.99 16.12,2.99 16.12,5.32 16.32,5.32 16.32,7.22 16.52,7.22 16.52,8.6 16.71,8.6 16.71,9.54 16.91,9.54 16.91,10.28 17.11,10.28 17.11,10.82 17.31,10.82 17.31,11.04 17.51,11.04 17.51,11.21 17.71,11.21 17.71,11.33 17.91,11.33 17.91,11.55 18.11,11.55 18.11,11.44 18.31,11.44 18.31,11.64 18.51,11.64 18.51,11.73 18.71,11.73 18.71,11.65 18.91,11.65 18.91,11.58 19.11,11.58 19.11,11.58 19.31,11.58 19.31,11.5 19.51,11.5 19.51,11.68 19.71,11.68 19.71,11.72 19.91,11.72 19.91,11.74 20.11,11.74 20.11,11.6 20.31,11.6 20.31,11.75 20.51,11.75 20.51,11.6 20.71,11.6 20.71,11.67 20.91,11.67 20.91,11.56 21.11,11.56 21.11,11.79 21.31,11.79 21.31,11.75 21.5,11.75 21.5,11.77 21.7,11.77 21.7,11.84 21.9,11.84 21.9,11.75 22.1,11.75 22.1,11.74 22.3,11.74 22.3,11.78 22.5,11.78 22.5,11.72 22.7,11.72 22.7,11.79 22.9,11.79 22.9,11.65 23.1,11.65 23.1,11.75 23.3,11.75 23.3,11.55 23.5,11.55 23.5,11.58 23.7,11.58 23.7,11.52 23.9,11.52 23.9,11.47 24.1,11.47 24.1,11.43 24.3,11.43 24.3,11.16 24.5,11.16 24.5,11.04 24.7,11.04 24.7,11.03 24.9,11.03 24.9,10.55 25.1,10.55 25.1,10.4 25.3,10.4 25.3,9.86 25.5,9.86 25.5,9.67 25.7,9.67 25.7,9.01 25.9,9.01 25.9,8.74 26.1,8.74 26.1,8.14 26.29,8.14 26.29,7.81 26.49,7.81 26.49,7.38 26.69,7.38 26.69,7.1 26.89,7.1 26.89,7.1 27.09,7.1 27.09,6.89 27.29,6.89 27.29,7.2 27.49,7.2 27.49,7.51 27.69,7.51 27.69,7.82 27.89,7.82 27.89,8.2 28.09,8.2 28.09,8.7 28.29,8.7 28.29,9.33 28.49,9.33 28.49,9.71 28.69,9.71 28.69,10.24 28.89,10.24 28.89,10.63 29.09,10.63 29.09,10.93 29.29,10.93 29.29,11.19 29.49,11.19 29.49,11.41 29.69,11.41 29.69,11.63 29.89,11.63 29.89,11.84 30.09,11.84 30.09,11.91 30.29,11.91 30.29,11.83 30.49,11.83 30.49,12.04 30.69,12.04 30.69,12.12 30.88,12.12 30.88,12.08 31.08,12.08 31.08,12.12 31.28,12.12 31.28,11.99 31.48,11.99 31.48,12.2 31.68,12.2 31.68,12.07 31.88,12.07 31.88,12.15 32.08,12.15 32.08,12.1 32.28,12.1 32.28,12.11 32.48,12.11 32.48,12.18 32.68,12.18 32.68,11.99 32.88,11.99 32.88,12.13 33.08,12.13 33.08,12.24 33.28,12.24 33.28,12.13 33.48,12.13 33.48,12.06 33.68,12.06 33.68,11.99 33.88,11.99 33.88,12.12 34.08,12.12 34.08,12.2 34.28,12.2 34.28,12.06 34.48,12.06 34.48,12.14 34.68,12.14 34.68,12.04 34.88,12.04 34.88,12.23 35.08,12.23 35.08,12.19 35.28,12.19 35.28,12.17 35.48,12.17 35.48,12.06 35.67,12.06 35.67,12.17 35.87,12.17 35.87,12.13 36.07,12.13 36.07,12.13 36.27,12.13 36.27,12.15 36.47,12.15 36.47,12.23 36.67,12.23 36.67,12.23 36.87,12.23 36.87,12.19 37.07,12.19 37.07,12.17 37.27,12.17 37.27,12.29 37.47,12.29 37.47,12.21 37.67,12.21 37.67,12.27 37.87,12.27 37.87,12.24 38.07,12.24 38.07,12.36 38.27,12.36 38.27,12.23 38.47,12.23 38.47,12.17 38.67,12.17 38.67,12.31 38.87,12.31 38.87,12.28 39.07,12.28 39.07,12.34 39.27,12.34 39.27,12.22 39.47,12.22 39.47,12.34 39.67,12.34 39.67,12.25 39.87,12.25 39.87,12.21 40.07,12.21 40.07,12.25 40.27,12.25 40.27,12.39 40.46,12.39 40.46,12.29 40.66,12.29 40.66,12.32 40.86,12.32 40.86,12.36 41.06,12.36 41.06,12.41 41.26,12.41 41.26,12.39 41.46,12.39 41.46,12.39 41.66,12.39 41.66,12.25 41.86,12.25 41.86,12.31 42.06,12.31 42.06,12.34 42.26,12.34 42.26,12.43 42.46,12.43 42.46,12.39 42.66,12.39 42.66,12.37 42.86,12.37 42.86,12.34 43.06,12.34 43.06,12.45 43.26,12.45 43.26,12.33 43.46,12.33 43.46,12.48 43.66,12.48 43.66,12.39 43.86,12.39 43.86,12.39 44.06,12.39 44.06,12.39 44.26,12.39 44.26,12.43 44.46,12.43 44.46,12.4 44.66,12.4 44.66,12.5 44.86,12.5 44.86,12.41 45.06,12.41 45.06,12.42 45.25,12.42 45.25,12.57 45.45,12.57 45.45,12.44 45.65,12.44 45.65,12.44 45.85,12.44 45.85,12.41 46.05,12.41 46.05,12.43 46.25,12.43 46.25,12.46 46.45,12.46 46.45,12.46 46.65,12.46 46.65,12.35 46.85,12.35 46.85,12.5 47.05,12.5 47.05,12.35 47.25,12.35 47.25,12.42 47.45,12.42 47.45,12.5 47.65,12.5 47.65,12.45 47.85,12.45 47.85,12.42 48.05,12.42 48.05,12.43 48.25,12.43 48.25,12.57 48.45,12.57 48.45,12.46 48.65,12.46 48.65,12.47 48.85,12.47 48.85,12.52 49.05,12.52 49.05,12.51 49.25,12.51 49.25,12.56 49.45,12.56 49.45,12.55 49.65,12.55 49.65,12.69 49.84,12.69 49.84,12.27 50.04,12.27 50.04,12.56 50.24,12.56 50.24,12.45 50.44,12.45 50.44,12.46 50.64,12.46 50.64,12.55 50.84,12.55 50.84,12.49 51.04,12.49 51.04,12.59 51.24,12.59 51.24,12.62 51.44,12.62 51.44,12.64 51.64,12.64 51.64,12.57 51.84,12.57 51.84,12.62 52.04,12.62 52.04,12.58 52.24,12.58 52.24,12.54 52.44,12.54 52.44,12.7 52.64,12.7 52.64,12.63 52.84,12.63 52.84,12.56 53.04,12.56 53.04,12.62 53.24,12.62 53.24,12.62 53.44,12.62 53.44,12.68 53.64,12.68 53.64,12.63 53.84,12.63 53.84,12.68 54.04,12.68 54.04,12.54 54.24,12.54 54.24,12.7 54.44,12.7 54.44,12.59 54.63,12.59 54.63,12.78 54.83,12.78 54.83,12.8 55.03,12.8 55.03,12.65 55.23,12.65 55.23,12.67 55.43,12.67 55.43,12.79 55.63,12.79 55.63,12.7 55.83,12.7 55.83,12.7 56.03,12.7 56.03,12.67 56.23,12.67 56.23,12.84 56.43,12.84 56.43,12.75 56.63,12.75 56.63,12.75 56.83,12.75 56.83,12.64 57.03,12.64 57.03,12.8 57.23,12.8 57.23,12.88 57.43,12.88 57.43,12.69 57.63,12.69 57.63,12.73 57.83,12.73 57.83,12.71 58.03,12.71 58.03,12.68 58.23,12.68 58.23,12.82 58.43,12.82 58.43,12.71 58.63,12.71 58.63,12.76 58.83,12.76 58.83,12.67 59.03,12.67 59.03,12.75 59.23,12.75 59.23,12.8 59.42,12.8 59.42,12.72 59.62,12.72 59.62,12.74 59.82,12.74 59.82,12.83 60.02,12.83 60.02,12.7 60.22,12.7 60.22,12.7 60.42,12.7 60.42,12.81 60.62,12.81 60.62,12.84 60.82,12.84 60.82,12.75 61.02,12.75 61.02,12.88 61.22,12.88 61.22,12.74 61.42,12.74 61.42,12.82 61.62,12.82 61.62,12.84 61.82,12.84 61.82,12.86 62.02,12.86 62.02,12.71 62.22,12.71 62.22,12.74 62.42,12.74 62.42,12.89 62.62,12.89 62.62,12.77 62.82,12.77 62.82,12.79 63.02,12.79 63.02,12.86 63.22,12.86 63.22,12.85 63.42,12.85 63.42,12.82 63.62,12.82 63.62,12.84 63.82,12.84 63.82,12.79 64.02,12.79 64.02,12.9 64.21,12.9 64.21,12.8 64.41,12.8 64.41,12.84 64.61,12.84 64.61,12.86 64.81,12.86 64.81,12.84 65.01,12.84 65.01,12.78 65.21,12.78 65.21,12.84 65.41,12.84 65.41,12.98 65.61,12.98 65.61,12.83 65.81,12.83 65.81,12.79 66.01,12.79 66.01,12.84 66.21,12.84 66.21,12.85 66.41,12.85 66.41,12.86 66.61,12.86 66.61,12.87 66.81,12.87 66.81,12.9 67.01,12.9 67.01,12.89 67.21,12.89 67.21,12.87 67.41,12.87 67.41,12.9 67.61,12.9 67.61,12.85 67.81,12.85 67.81,12.94 68.01,12.94 68.01,13.01 68.21,13.01 68.21,13.02 68.41,13.02 68.41,12.92 68.61,12.92 68.61,12.91 68.81,12.91 68.81,12.88 69,12.88 69,12.87 69.2,12.87 69.2,12.93 69.4,12.93 69.4,12.83 69.6,12.83 69.6,13.03 69.8,13.03 69.8,13.05 70,13.05 70,12.95 70.2,12.95 70.2,12.99 70.4,12.99 70.4,12.93 70.6,12.93 70.6,12.95 70.8,12.95 70.8,13.05 71,13.05 71,13.07 71.2,13.07 71.2,12.9 71.4,12.9 71.4,12.91 71.6,12.91 71.6,13.05 71.8,13.05 71.8,12.95 72,12.95 72,13.02 72.2,13.02 72.2,12.97 72.4,12.97 72.4,12.91 72.6,12.91 72.6,12.98 72.8,12.98 72.8,13.01 73,13.01 73,13.01 73.2,13.01 73.2,13.02 73.4,13.02 73.4,12.94 73.59,12.94 73.59,13.07 73.79,13.07 73.79,13.02 73.99,13.02 73.99,13.03 74.19,13.03 74.19,13.13 74.39,13.13 74.39,13.11 74.59,13.11 74.59,13.05 74.79,13.05 74.79,13.05 74.99,13.05 74.99,13.08 75.19,13.08 75.19,13.1 75.39,13.1 75.39,12.97 75.59,12.97 75.59,13.05 75.79,13.05 75.79,13.04 75.99,13.04 75.99,13.11 76.19,13.11 76.19,12.98 76.39,12.98 76.39,13.02 76.59,13.02 76.59,13.07 76.79,13.07 76.79,13.11 76.99,13.11 76.99,12.95 77.19,12.95 77.19,12.98 77.39,12.98 77.39,13.18 77.59,13.18 77.59,13.12 77.79,13.12 77.79,13.16 77.99,13.16 77.99,13 78.19,13 78.19,13.14 78.38,13.14 78.38,13.08 78.58,13.08 78.58,13.13 78.78,13.13 78.78,13.16 78.98,13.16 78.98,13.05 79.18,13.05 79.18,13.23 79.38,13.23 79.38,13.13 79.58,13.13 79.58,13.11 79.78,13.11 79.78,13.06 79.98,13.06 79.98,13.1 80.18,13.1 80.18,13.15 80.38,13.15 80.38,13.21 80.58,13.21 80.58,13.13 80.78,13.13 80.78,13.07 80.98,13.07 80.98,13.2 81.18,13.2 81.18,13.11 81.38,13.11 81.38,13.13 81.58,13.13 81.58,13.12 81.78,13.12 81.78,13.17 81.98,13.17 81.98,13.19 82.18,13.19 82.18,13.17 82.38,13.17 82.38,13.17 82.58,13.17 82.58,13.18 82.78,13.18 82.78,13.12 82.98,13.12 82.98,13.22 83.17,13.22 83.17,13.16 83.37,13.16 83.37,13.15 83.57,13.15 83.57,13.14 83.77,13.14 83.77,13.19 83.97,13.19 83.97,13.13 84.17,13.13 84.17,13.2 84.37,13.2 84.37,13.11 84.57,13.11 84.57,13.18 84.77,13.18 84.77,13.23 84.97,13.23 84.97,13.26 85.17,13.26 85.17,13.29 85.37,13.29 85.37,13.13 85.57,13.13 85.57,13.21 85.77,13.21 85.77,13.29 85.97,13.29 85.97,13.22 86.17,13.22 86.17,13.21 86.37,13.21 86.37,13.25 86.57,13.25 86.57,13.23 86.77,13.23 86.77,13.19 86.97,13.19 86.97,13.3 87.17,13.3 87.17,13.23 87.37,13.23 87.37,13.26 87.57,13.26 87.57,13.18 87.77,13.18 87.77,13.15 87.96,13.15 87.96,13.22 88.16,13.22 88.16,13.26 88.36,13.26 88.36,13.23 88.56,13.23 88.56,13.2 88.76,13.2 88.76,13.25 88.96,13.25 88.96,13.22 89.16,13.22 89.16,13.24 89.36,13.24 89.36,13.38 89.56,13.38 89.56,13.25 89.76,13.25 89.76,13.27 89.96,13.27 89.96,13.37 90.16,13.37 90.16,13.27 90.36,13.27 90.36,13.27 90.56,13.27 90.56,13.23 90.76,13.23 90.76,13.31 90.96,13.31 90.96,13.24 91.16,13.24 91.16,13.35 91.36,13.35 91.36,13.24 91.56,13.24 91.56,13.33 91.76,13.33 91.76,13.27 91.96,13.27 91.96,13.27 92.16,13.27 92.16,13.22 92.36,13.22 92.36,13.28 92.55,13.28 92.55,13.29 92.75,13.29 92.75,13.36 92.95,13.36 92.95,13.36 93.15,13.36 93.15,13.28 93.35,13.28 93.35,13.31 93.55,13.31 93.55,13.28 93.75,13.28 93.75,13.33 93.95,13.33 93.95,13.34 94.15,13.34 94.15,13.38 94.35,13.38 94.35,13.33 94.55,13.33 94.55,13.22 94.75,13.22 94.75,13.25 94.95,13.25 94.95,13.36 95.15,13.36 95.15,13.29 95.35,13.29 95.35,13.38 95.55,13.38 95.55,13.33 95.75,13.33 95.75,13.36 95.95,13.36 95.95,13.44 96.15,13.44 96.15,13.32 96.35,13.32 96.35,13.28 96.55,13.28 96.55,13.32 96.75,13.32 96.75,13.35 96.95,13.35 96.95,13.28 97.15,13.28 97.15,13.4 97.34,13.4 97.34,13.28 97.54,13.28 97.54,13.32 97.74,13.32 97.74,13.41 97.94,13.41 97.94,13.35 98.14,13.35 98.14,13.35 98.34,13.35 98.34,13.41 98.54,13.41 98.54,13.32 98.74,13.32 98.74,13.37 98.94,13.37 98.94,13.41 99.14,13.41 99.14,13.44 99.34,13.44 99.34,13.4 99.54,13.4 99.54,13.41 99.74,13.41 99.74,13.45 99.94,13.45 99.94,13.42 100.14,13.42 100.14,13.45 100.34,13.45 100.34,13.41 100.54,13.41 100.54,13.47 100.74,13.47 100.74,13.42 100.94,13.42 100.94,13.47 101.14,13.47 101.14,13.41 101.34,13.41 101.34,13.38 101.54,13.38 101.54,13.44 101.74,13.44 101.74,13.44 101.94,13.44 101.94,13.51 102.13,13.51 102.13,13.4 102.33,13.4 102.33,13.51 102.53,13.51 102.53,13.36 102.73,13.36 102.73,13.51 102.93,13.51 102.93,13.52 103.13,13.52 103.13,13.41 103.33,13.41 103.33,13.48 103.53,13.48 103.53,13.48 103.73,13.48 103.73,13.44 103.93,13.44 103.93,13.48 104.13,13.48 104.13,13.47 104.33,13.47 104.33,13.49 104.53,13.49 104.53,13.52 104.73,13.52 104.73,13.5 104.93,13.5 104.93,13.41 105.13,13.41 105.13,13.57 105.33,13.57 105.33,13.47 105.53,13.47 105.53,13.5 105.73,13.5 105.73,13.51 105.93,13.51 105.93,13.47 106.13,13.47 106.13,13.48 106.33,13.48 106.33,13.53 106.53,13.53 106.53,13.46 106.73,13.46 106.73,13.47 106.92,13.47 106.92,13.49 107.12,13.49 107.12,13.46 107.32,13.46 107.32,13.53 107.52,13.53 107.52,13.54 107.72,13.54 107.72,13.58 107.92,13.58 107.92,13.51 108.12,13.51 108.12,13.51 108.32,13.51 108.32,13.56 108.52,13.56 108.52,13.55 108.72,13.55 108.72,13.57 108.92,13.57 108.92,13.54 109.12,13.54 109.12,13.51 109.32,13.51 109.32,13.51 109.52,13.51 109.52,13.46 109.72,13.46 109.72,13.56 109.92,13.56 109.92,13.53 110.12,13.53 110.12,13.6 110.32,13.6 110.32,13.54 110.52,13.54 110.52,13.55 110.72,13.55 110.72,13.58 110.92,13.58 110.92,13.52 111.12,13.52 111.12,13.61 111.32,13.61 111.32,13.49 111.52,13.49 111.52,13.51 111.71,13.51 111.71,13.56 111.91,13.56 111.91,13.61 112.11,13.61 112.11,13.61 112.31,13.61 112.31,13.55 112.51,13.55 112.51,13.63 112.71,13.63 112.71,13.56 112.91,13.56 112.91,13.57 113.11,13.57 113.11,13.58 113.31,13.58 113.31,13.57 113.51,13.57 113.51,13.63 113.71,13.63 113.71,13.59 " class="primitive"/>
            </g>
          </g>
        </g>
        <g stroke-width="0.3" fill="#000000" fill-opacity="0.000" class="geometry" id="img-f00a7b3a-163">
          <g class="color_RGB{N0f8}(0.718,0.0,0.008)" stroke-dasharray="none" stroke="#B70002" id="img-f00a7b3a-164">
            <g transform="translate(137.58,55.54)" id="img-f00a7b3a-165">
              <path fill="none" d="M-113.81,4.32 L-113.61,4.32 -113.61,4.32 -113.41,4.32 -113.41,4.32 -113.21,4.32 -113.21,4.32 -113.01,4.32 -113.01,4.33 -112.81,4.33 -112.81,4.32 -112.61,4.32 -112.61,4.33 -112.41,4.33 -112.41,4.33 -112.21,4.33 -112.21,4.33 -112.01,4.33 -112.01,4.32 -111.81,4.32 -111.81,4.33 -111.61,4.33 -111.61,4.32 -111.42,4.32 -111.42,4.32 -111.22,4.32 -111.22,4.32 -111.02,4.32 -111.02,4.31 -110.82,4.31 -110.82,4.3 -110.62,4.3 -110.62,4.27 -110.42,4.27 -110.42,4.22 -110.22,4.22 -110.22,4.15 -110.02,4.15 -110.02,3.98 -109.82,3.98 -109.82,3.71 -109.62,3.71 -109.62,3.15 -109.42,3.15 -109.42,2.08 -109.22,2.08 -109.22,0.24 -109.02,0.24 -109.02,-2.62 -108.82,-2.62 -108.82,-5.5 -108.62,-5.5 -108.62,-8.08 -108.42,-8.08 -108.42,-9.18 -108.22,-9.18 -108.22,-8.2 -108.02,-8.2 -108.02,-5.86 -107.82,-5.86 -107.82,-3.08 -107.62,-3.08 -107.62,-1.26 -107.42,-1.26 -107.42,0.2 -107.22,0.2 -107.22,0.8 -107.02,0.8 -107.02,0.9 -106.82,0.9 -106.82,0.94 -106.63,0.94 -106.63,0.83 -106.43,0.83 -106.43,0.91 -106.23,0.91 -106.23,0.45 -106.03,0.45 -106.03,0.63 -105.83,0.63 -105.83,-0.2 -105.63,-0.2 -105.63,-0.89 -105.43,-0.89 -105.43,-1.64 -105.23,-1.64 -105.23,-2.21 -105.03,-2.21 -105.03,-3.19 -104.83,-3.19 -104.83,-3.88 -104.63,-3.88 -104.63,-4.02 -104.43,-4.02 -104.43,-4.06 -104.23,-4.06 -104.23,-4.35 -104.03,-4.35 -104.03,-2.96 -103.83,-2.96 -103.83,-3.07 -103.63,-3.07 -103.63,-3.28 -103.43,-3.28 -103.43,-2.67 -103.23,-2.67 -103.23,-0.51 -103.03,-0.51 -103.03,3.13 -102.83,3.13 -102.83,1.71 -102.63,1.71 -102.63,0.87 -102.43,0.87 -102.43,1.8 -102.23,1.8 -102.23,1.72 -102.03,1.72 -102.03,2.45 -101.84,2.45 -101.84,3.4 -101.64,3.4 -101.64,3.63 -101.44,3.63 -101.44,3.7 -101.24,3.7 -101.24,3.66 -101.04,3.66 -101.04,3.17 -100.84,3.17 -100.84,3.07 -100.64,3.07 -100.64,2.83 -100.44,2.83 -100.44,2.66 -100.24,2.66 -100.24,2.43 -100.04,2.43 -100.04,1.59 -99.84,1.59 -99.84,0.71 -99.64,0.71 -99.64,-0.44 -99.44,-0.44 -99.44,-1.62 -99.24,-1.62 -99.24,-1.85 -99.04,-1.85 -99.04,-1.95 -98.84,-1.95 -98.84,-2 -98.64,-2 -98.64,-1.7 -98.44,-1.7 -98.44,-1.34 -98.24,-1.34 -98.24,-1.46 -98.04,-1.46 -98.04,-1.59 -97.84,-1.59 -97.84,-1.48 -97.64,-1.48 -97.64,-1.46 -97.44,-1.46 -97.44,-1.5 -97.25,-1.5 -97.25,-1.84 -97.05,-1.84 -97.05,-1.8 -96.85,-1.8 -96.85,-2.04 -96.65,-2.04 -96.65,-2.31 -96.45,-2.31 -96.45,-2.12 -96.25,-2.12 -96.25,-2.27 -96.05,-2.27 -96.05,-2.6 -95.85,-2.6 -95.85,-2.56 -95.65,-2.56 -95.65,-2.48 -95.45,-2.48 -95.45,-2.77 -95.25,-2.77 -95.25,-2.93 -95.05,-2.93 -95.05,-3.23 -94.85,-3.23 -94.85,-3.26 -94.65,-3.26 -94.65,-3.82 -94.45,-3.82 -94.45,-3.61 -94.25,-3.61 -94.25,-3.94 -94.05,-3.94 -94.05,-4.35 -93.85,-4.35 -93.85,-4.55 -93.65,-4.55 -93.65,-5.09 -93.45,-5.09 -93.45,-5.54 -93.25,-5.54 -93.25,-5.61 -93.05,-5.61 -93.05,-5.64 -92.85,-5.64 -92.85,-5.73 -92.65,-5.73 -92.65,-6.27 -92.46,-6.27 -92.46,-6.27 -92.26,-6.27 -92.26,-6.53 -92.06,-6.53 -92.06,-6.22 -91.86,-6.22 -91.86,-6.74 -91.66,-6.74 -91.66,-6.97 -91.46,-6.97 -91.46,-7.01 -91.26,-7.01 -91.26,-7.21 -91.06,-7.21 -91.06,-7.74 -90.86,-7.74 -90.86,-7.85 -90.66,-7.85 -90.66,-8.19 -90.46,-8.19 -90.46,-8.57 -90.26,-8.57 -90.26,-9 -90.06,-9 -90.06,-8.54 -89.86,-8.54 -89.86,-9 -89.66,-9 -89.66,-8.71 -89.46,-8.71 -89.46,-9.86 -89.26,-9.86 -89.26,-9.65 -89.06,-9.65 -89.06,-9.4 -88.86,-9.4 -88.86,-9.93 -88.66,-9.93 -88.66,-10.16 -88.46,-10.16 -88.46,-11.93 -88.26,-11.93 -88.26,-12.28 -88.06,-12.28 -88.06,-13.07 -87.86,-13.07 -87.86,-11.06 -87.67,-11.06 -87.67,-9.22 -87.47,-9.22 -87.47,-8.2 -87.27,-8.2 -87.27,-8.3 -87.07,-8.3 -87.07,-7.54 -86.87,-7.54 -86.87,-7.65 -86.67,-7.65 -86.67,-7.43 -86.47,-7.43 -86.47,-7.7 -86.27,-7.7 -86.27,-7.28 -86.07,-7.28 -86.07,-7.43 -85.87,-7.43 -85.87,-7.28 -85.67,-7.28 -85.67,-6.8 -85.47,-6.8 -85.47,-7.1 -85.27,-7.1 -85.27,-7.1 -85.07,-7.1 -85.07,-7.44 -84.87,-7.44 -84.87,-7.23 -84.67,-7.23 -84.67,-7.78 -84.47,-7.78 -84.47,-7.6 -84.27,-7.6 -84.27,-7.65 -84.07,-7.65 -84.07,-7.89 -83.87,-7.89 -83.87,-9.03 -83.67,-9.03 -83.67,-8.26 -83.47,-8.26 -83.47,-8.88 -83.27,-8.88 -83.27,-8.73 -83.07,-8.73 -83.07,-9.23 -82.88,-9.23 -82.88,-8.59 -82.68,-8.59 -82.68,-9.01 -82.48,-9.01 -82.48,-8.65 -82.28,-8.65 -82.28,-8.43 -82.08,-8.43 -82.08,-8.76 -81.88,-8.76 -81.88,-8.34 -81.68,-8.34 -81.68,-7.95 -81.48,-7.95 -81.48,-8.5 -81.28,-8.5 -81.28,-8.28 -81.08,-8.28 -81.08,-8.34 -80.88,-8.34 -80.88,-8.2 -80.68,-8.2 -80.68,-7.69 -80.48,-7.69 -80.48,-9.13 -80.28,-9.13 -80.28,-8.18 -80.08,-8.18 -80.08,-8.89 -79.88,-8.89 -79.88,-8.99 -79.68,-8.99 -79.68,-8.67 -79.48,-8.67 -79.48,-6.18 -79.28,-6.18 -79.28,-11.26 -79.08,-11.26 -79.08,-10.75 -78.88,-10.75 -78.88,-9.54 -78.68,-9.54 -78.68,-8.14 -78.48,-8.14 -78.48,-7.61 -78.29,-7.61 -78.29,-9.6 -78.09,-9.6 -78.09,-10.58 -77.89,-10.58 -77.89,-10.94 -77.69,-10.94 -77.69,-10.35 -77.49,-10.35 -77.49,-10.11 -77.29,-10.11 -77.29,-8.59 -77.09,-8.59 -77.09,-7.08 -76.89,-7.08 -76.89,-6.94 -76.69,-6.94 -76.69,-6.55 -76.49,-6.55 -76.49,-5.91 -76.29,-5.91 -76.29,-5.63 -76.09,-5.63 -76.09,-5.21 -75.89,-5.21 -75.89,-5.24 -75.69,-5.24 -75.69,-5.61 -75.49,-5.61 -75.49,-5.73 -75.29,-5.73 -75.29,-5.3 -75.09,-5.3 -75.09,-5.17 -74.89,-5.17 -74.89,-5.31 -74.69,-5.31 -74.69,-5.01 -74.49,-5.01 -74.49,-4.81 -74.29,-4.81 -74.29,-4.6 -74.09,-4.6 -74.09,-4.59 -73.89,-4.59 -73.89,-4.28 -73.69,-4.28 -73.69,-3.94 -73.5,-3.94 -73.5,-4.05 -73.3,-4.05 -73.3,-3.58 -73.1,-3.58 -73.1,-3.53 -72.9,-3.53 -72.9,-3.55 -72.7,-3.55 -72.7,-3.63 -72.5,-3.63 -72.5,-3.5 -72.3,-3.5 -72.3,-3.38 -72.1,-3.38 -72.1,-3.64 -71.9,-3.64 -71.9,-3.64 -71.7,-3.64 -71.7,-3.54 -71.5,-3.54 -71.5,-3.56 -71.3,-3.56 -71.3,-3.25 -71.1,-3.25 -71.1,-3.82 -70.9,-3.82 -70.9,-3.58 -70.7,-3.58 -70.7,-3.76 -70.5,-3.76 -70.5,-3.54 -70.3,-3.54 -70.3,-3.53 -70.1,-3.53 -70.1,-3.88 -69.9,-3.88 -69.9,-3.97 -69.7,-3.97 -69.7,-4.15 -69.5,-4.15 -69.5,-4.21 -69.3,-4.21 -69.3,-4.31 -69.1,-4.31 -69.1,-4.41 -68.9,-4.41 -68.9,-4.47 -68.71,-4.47 -68.71,-4.39 -68.51,-4.39 -68.51,-4.53 -68.31,-4.53 -68.31,-4.62 -68.11,-4.62 -68.11,-4.22 -67.91,-4.22 -67.91,-4.08 -67.71,-4.08 -67.71,-3.99 -67.51,-3.99 -67.51,-4.07 -67.31,-4.07 -67.31,-3.98 -67.11,-3.98 -67.11,-3.9 -66.91,-3.9 -66.91,-3.97 -66.71,-3.97 -66.71,-3.69 -66.51,-3.69 -66.51,-3.72 -66.31,-3.72 -66.31,-3.7 -66.11,-3.7 -66.11,-3.7 -65.91,-3.7 -65.91,-3.68 -65.71,-3.68 -65.71,-3.65 -65.51,-3.65 -65.51,-3.57 -65.31,-3.57 -65.31,-3.9 -65.11,-3.9 -65.11,-3.63 -64.91,-3.63 -64.91,-3.65 -64.71,-3.65 -64.71,-3.92 -64.51,-3.92 -64.51,-3.73 -64.31,-3.73 -64.31,-3.73 -64.11,-3.73 -64.11,-3.81 -63.92,-3.81 -63.92,-3.6 -63.72,-3.6 -63.72,-3.79 -63.52,-3.79 -63.52,-3.69 -63.32,-3.69 -63.32,-4 -63.12,-4 -63.12,-3.58 -62.92,-3.58 -62.92,-3.82 -62.72,-3.82 -62.72,-3.92 -62.52,-3.92 -62.52,-3.25 -62.32,-3.25 -62.32,-3.77 -62.12,-3.77 -62.12,-3.54 -61.92,-3.54 -61.92,-3.68 -61.72,-3.68 -61.72,-3.58 -61.52,-3.58 -61.52,-3.59 -61.32,-3.59 -61.32,-3.75 -61.12,-3.75 -61.12,-3.48 -60.92,-3.48 -60.92,-3.6 -60.72,-3.6 -60.72,-3.58 -60.52,-3.58 -60.52,-3.57 -60.32,-3.57 -60.32,-3.44 -60.12,-3.44 -60.12,-3.56 -59.92,-3.56 -59.92,-3.45 -59.72,-3.45 -59.72,-3.42 -59.52,-3.42 -59.52,-3.74 -59.32,-3.74 -59.32,-3.46 -59.13,-3.46 -59.13,-3.47 -58.93,-3.47 -58.93,-3.44 -58.73,-3.44 -58.73,-3.3 -58.53,-3.3 -58.53,-3.49 -58.33,-3.49 -58.33,-3.56 -58.13,-3.56 -58.13,-3.18 -57.93,-3.18 -57.93,-3.28 -57.73,-3.28 -57.73,-3.28 -57.53,-3.28 -57.53,-3.36 -57.33,-3.36 -57.33,-3.46 -57.13,-3.46 -57.13,-3.39 -56.93,-3.39 -56.93,-3.16 -56.73,-3.16 -56.73,-3.26 -56.53,-3.26 -56.53,-3.5 -56.33,-3.5 -56.33,-3.22 -56.13,-3.22 -56.13,-3.41 -55.93,-3.41 -55.93,-3.49 -55.73,-3.49 -55.73,-3.52 -55.53,-3.52 -55.53,-3.44 -55.33,-3.44 -55.33,-3.23 -55.13,-3.23 -55.13,-3.48 -54.93,-3.48 -54.93,-3.57 -54.73,-3.57 -54.73,-3.76 -54.54,-3.76 -54.54,-3.72 -54.34,-3.72 -54.34,-3.7 -54.14,-3.7 -54.14,-3.66 -53.94,-3.66 -53.94,-3.5 -53.74,-3.5 -53.74,-3.54 -53.54,-3.54 -53.54,-3.34 -53.34,-3.34 -53.34,-3.35 -53.14,-3.35 -53.14,-3.32 -52.94,-3.32 -52.94,-3.07 -52.74,-3.07 -52.74,-3.26 -52.54,-3.26 -52.54,-3.12 -52.34,-3.12 -52.34,-3.05 -52.14,-3.05 -52.14,-3.03 -51.94,-3.03 -51.94,-3.06 -51.74,-3.06 -51.74,-2.87 -51.54,-2.87 -51.54,-2.84 -51.34,-2.84 -51.34,-3.11 -51.14,-3.11 -51.14,-2.92 -50.94,-2.92 -50.94,-3.07 -50.74,-3.07 -50.74,-3.21 -50.54,-3.21 -50.54,-3.08 -50.34,-3.08 -50.34,-3.07 -50.14,-3.07 -50.14,-3.05 -49.94,-3.05 -49.94,-2.91 -49.75,-2.91 -49.75,-3.08 -49.55,-3.08 -49.55,-3.18 -49.35,-3.18 -49.35,-2.88 -49.15,-2.88 -49.15,-3.02 -48.95,-3.02 -48.95,-3.29 -48.75,-3.29 -48.75,-2.68 -48.55,-2.68 -48.55,-3.03 -48.35,-3.03 -48.35,-2.74 -48.15,-2.74 -48.15,-2.9 -47.95,-2.9 -47.95,-2.93 -47.75,-2.93 -47.75,-2.89 -47.55,-2.89 -47.55,-2.67 -47.35,-2.67 -47.35,-2.43 -47.15,-2.43 -47.15,-2.49 -46.95,-2.49 -46.95,-2.61 -46.75,-2.61 -46.75,-2.73 -46.55,-2.73 -46.55,-2.69 -46.35,-2.69 -46.35,-2.56 -46.15,-2.56 -46.15,-2.43 -45.95,-2.43 -45.95,-2.72 -45.75,-2.72 -45.75,-2.49 -45.55,-2.49 -45.55,-2.42 -45.35,-2.42 -45.35,-2.55 -45.15,-2.55 -45.15,-2.75 -44.96,-2.75 -44.96,-2.87 -44.76,-2.87 -44.76,-2.72 -44.56,-2.72 -44.56,-2.72 -44.36,-2.72 -44.36,-2.78 -44.16,-2.78 -44.16,-2.85 -43.96,-2.85 -43.96,-2.6 -43.76,-2.6 -43.76,-2.86 -43.56,-2.86 -43.56,-2.77 -43.36,-2.77 -43.36,-2.61 -43.16,-2.61 -43.16,-2.46 -42.96,-2.46 -42.96,-2.5 -42.76,-2.5 -42.76,-2.42 -42.56,-2.42 -42.56,-2.05 -42.36,-2.05 -42.36,-2.44 -42.16,-2.44 -42.16,-2.2 -41.96,-2.2 -41.96,-1.87 -41.76,-1.87 -41.76,-2.09 -41.56,-2.09 -41.56,-1.89 -41.36,-1.89 -41.36,-2.24 -41.16,-2.24 -41.16,-2.63 -40.96,-2.63 -40.96,-2.76 -40.76,-2.76 -40.76,-1.65 -40.56,-1.65 -40.56,-2.63 -40.36,-2.63 -40.36,-2.3 -40.17,-2.3 -40.17,-1.05 -39.97,-1.05 -39.97,-2.25 -39.77,-2.25 -39.77,-1.33 -39.57,-1.33 -39.57,-0.86 -39.37,-0.86 -39.37,-2.44 -39.17,-2.44 -39.17,-1.36 -38.97,-1.36 -38.97,-2 -38.77,-2 -38.77,-0.72 -38.57,-0.72 -38.57,-1.18 -38.37,-1.18 -38.37,-1.36 -38.17,-1.36 -38.17,-1.47 -37.97,-1.47 -37.97,-1.73 -37.77,-1.73 -37.77,-1.55 -37.57,-1.55 -37.57,-1.47 -37.37,-1.47 -37.37,-1.82 -37.17,-1.82 -37.17,-1.31 -36.97,-1.31 -36.97,-1.59 -36.77,-1.59 -36.77,-1.31 -36.57,-1.31 -36.57,-1.43 -36.37,-1.43 -36.37,-1.3 -36.17,-1.3 -36.17,-1.48 -35.97,-1.48 -35.97,-1.11 -35.77,-1.11 -35.77,-1.37 -35.58,-1.37 -35.58,-1.28 -35.38,-1.28 -35.38,-1.23 -35.18,-1.23 -35.18,-1.53 -34.98,-1.53 -34.98,-1.37 -34.78,-1.37 -34.78,-1.36 -34.58,-1.36 -34.58,-1.62 -34.38,-1.62 -34.38,-1.42 -34.18,-1.42 -34.18,-1.5 -33.98,-1.5 -33.98,-0.79 -33.78,-0.79 -33.78,-1.35 -33.58,-1.35 -33.58,-1.11 -33.38,-1.11 -33.38,-1.09 -33.18,-1.09 -33.18,-1.09 -32.98,-1.09 -32.98,-1.24 -32.78,-1.24 -32.78,-1.23 -32.58,-1.23 -32.58,-1.09 -32.38,-1.09 -32.38,-0.98 -32.18,-0.98 -32.18,-1.04 -31.98,-1.04 -31.98,-0.87 -31.78,-0.87 -31.78,-0.97 -31.58,-0.97 -31.58,-0.94 -31.38,-0.94 -31.38,-1.12 -31.18,-1.12 -31.18,-0.94 -30.98,-0.94 -30.98,-0.66 -30.79,-0.66 -30.79,-1.05 -30.59,-1.05 -30.59,-1.03 -30.39,-1.03 -30.39,-1.14 -30.19,-1.14 -30.19,-0.91 -29.99,-0.91 -29.99,-0.88 -29.79,-0.88 -29.79,-0.97 -29.59,-0.97 -29.59,-0.88 -29.39,-0.88 -29.39,-0.98 -29.19,-0.98 -29.19,-0.83 -28.99,-0.83 -28.99,-0.87 -28.79,-0.87 -28.79,-0.69 -28.59,-0.69 -28.59,-0.91 -28.39,-0.91 -28.39,-0.51 -28.19,-0.51 -28.19,-0.57 -27.99,-0.57 -27.99,-0.61 -27.79,-0.61 -27.79,-0.64 -27.59,-0.64 -27.59,-0.61 -27.39,-0.61 -27.39,-0.69 -27.19,-0.69 -27.19,-0.37 -26.99,-0.37 -26.99,-0.65 -26.79,-0.65 -26.79,-0.5 -26.59,-0.5 -26.59,-0.46 -26.39,-0.46 -26.39,-0.63 -26.19,-0.63 -26.19,-0.5 -26,-0.5 -26,-0.29 -25.8,-0.29 -25.8,-0.51 -25.6,-0.51 -25.6,-0.56 -25.4,-0.56 -25.4,-0.32 -25.2,-0.32 -25.2,-0.52 -25,-0.52 -25,-0.48 -24.8,-0.48 -24.8,-0.23 -24.6,-0.23 -24.6,-0.39 -24.4,-0.39 -24.4,-0.39 -24.2,-0.39 -24.2,-0.36 -24,-0.36 -24,-0.48 -23.8,-0.48 -23.8,-0.34 -23.6,-0.34 -23.6,-0.53 -23.4,-0.53 -23.4,-0.26 -23.2,-0.26 -23.2,-0.29 -23,-0.29 -23,-0.24 -22.8,-0.24 -22.8,-0.34 -22.6,-0.34 -22.6,-0.16 -22.4,-0.16 -22.4,-0.37 -22.2,-0.37 -22.2,-0.33 -22,-0.33 -22,-0.25 -21.8,-0.25 -21.8,-0.42 -21.6,-0.42 -21.6,-0.55 -21.4,-0.55 -21.4,-0.3 -21.21,-0.3 -21.21,-0.27 -21.01,-0.27 -21.01,-0.43 -20.81,-0.43 -20.81,-0.19 -20.61,-0.19 -20.61,-0.08 -20.41,-0.08 -20.41,-0.18 -20.21,-0.18 -20.21,-0.25 -20.01,-0.25 -20.01,-0.22 -19.81,-0.22 -19.81,-0.36 -19.61,-0.36 -19.61,-0.18 -19.41,-0.18 -19.41,-0.19 -19.21,-0.19 -19.21,0.02 -19.01,0.02 -19.01,0 -18.81,0 -18.81,-0.03 -18.61,-0.03 -18.61,0.01 -18.41,0.01 -18.41,-0.02 -18.21,-0.02 -18.21,-0.12 -18.01,-0.12 -18.01,0.06 -17.81,0.06 -17.81,0.09 -17.61,0.09 -17.61,0.09 -17.41,0.09 -17.41,0.28 -17.21,0.28 -17.21,0 -17.01,0 -17.01,-0.04 -16.81,-0.04 -16.81,0.02 -16.61,0.02 -16.61,0.16 -16.42,0.16 -16.42,0.06 -16.22,0.06 -16.22,-0.06 -16.02,-0.06 -16.02,0.07 -15.82,0.07 -15.82,-0.05 -15.62,-0.05 -15.62,0.01 -15.42,0.01 -15.42,0.04 -15.22,0.04 -15.22,0.06 -15.02,0.06 -15.02,-0.05 -14.82,-0.05 -14.82,0.17 -14.62,0.17 -14.62,0.05 -14.42,0.05 -14.42,0.01 -14.22,0.01 -14.22,-0.01 -14.02,-0.01 -14.02,0.05 -13.82,0.05 -13.82,0.04 -13.62,0.04 -13.62,0.3 -13.42,0.3 -13.42,0.29 -13.22,0.29 -13.22,0.2 -13.02,0.2 -13.02,0.3 -12.82,0.3 -12.82,0.24 -12.62,0.24 -12.62,0.45 -12.42,0.45 -12.42,0.23 -12.22,0.23 -12.22,0.26 -12.02,0.26 -12.02,0.16 -11.83,0.16 -11.83,0.27 -11.63,0.27 -11.63,0.29 -11.43,0.29 -11.43,0.28 -11.23,0.28 -11.23,0.32 -11.03,0.32 -11.03,0.43 -10.83,0.43 -10.83,0.38 -10.63,0.38 -10.63,0.22 -10.43,0.22 -10.43,0.29 -10.23,0.29 -10.23,0.2 -10.03,0.2 -10.03,0.3 -9.83,0.3 -9.83,0.36 -9.63,0.36 -9.63,0.34 -9.43,0.34 -9.43,0.37 -9.23,0.37 -9.23,0.27 -9.03,0.27 -9.03,0.43 -8.83,0.43 -8.83,0.36 -8.63,0.36 -8.63,0.4 -8.43,0.4 -8.43,0.34 -8.23,0.34 -8.23,0.52 -8.03,0.52 -8.03,0.46 -7.83,0.46 -7.83,0.29 -7.63,0.29 -7.63,0.45 -7.43,0.45 -7.43,0.56 -7.23,0.56 -7.23,0.53 -7.04,0.53 -7.04,0.39 -6.84,0.39 -6.84,0.41 -6.64,0.41 -6.64,0.34 -6.44,0.34 -6.44,0.29 -6.24,0.29 -6.24,0.13 -6.04,0.13 -6.04,0.22 -5.84,0.22 -5.84,0.2 -5.64,0.2 -5.64,0.33 -5.44,0.33 -5.44,0.32 -5.24,0.32 -5.24,0.32 -5.04,0.32 -5.04,0.29 -4.84,0.29 -4.84,0.32 -4.64,0.32 -4.64,0.33 -4.44,0.33 -4.44,0.3 -4.24,0.3 -4.24,0.59 -4.04,0.59 -4.04,0.59 -3.84,0.59 -3.84,0.51 -3.64,0.51 -3.64,0.55 -3.44,0.55 -3.44,0.67 -3.24,0.67 -3.24,0.61 -3.04,0.61 -3.04,0.73 -2.84,0.73 -2.84,0.66 -2.64,0.66 -2.64,0.58 -2.44,0.58 -2.44,0.66 -2.25,0.66 -2.25,0.77 -2.05,0.77 -2.05,0.7 -1.85,0.7 -1.85,0.73 -1.65,0.73 -1.65,0.71 -1.45,0.71 -1.45,0.7 -1.25,0.7 -1.25,0.97 -1.05,0.97 -1.05,0.82 -0.85,0.82 -0.85,0.92 -0.65,0.92 -0.65,0.92 -0.45,0.92 -0.45,0.81 -0.25,0.81 -0.25,0.89 -0.05,0.89 -0.05,0.77 0.15,0.77 0.15,0.8 0.35,0.8 0.35,0.95 0.55,0.95 0.55,0.75 0.75,0.75 0.75,0.95 0.95,0.95 0.95,0.74 1.15,0.74 1.15,0.98 1.35,0.98 1.35,0.94 1.55,0.94 1.55,0.93 1.75,0.93 1.75,0.84 1.95,0.84 1.95,0.9 2.15,0.9 2.15,0.72 2.35,0.72 2.35,0.8 2.54,0.8 2.54,0.77 2.74,0.77 2.74,0.62 2.94,0.62 2.94,0.73 3.14,0.73 3.14,0.75 3.34,0.75 3.34,0.5 3.54,0.5 3.54,0.6 3.74,0.6 3.74,0.68 3.94,0.68 3.94,0.55 4.14,0.55 4.14,0.72 4.34,0.72 4.34,0.72 4.54,0.72 4.54,0.74 4.74,0.74 4.74,0.83 4.94,0.83 4.94,0.92 5.14,0.92 5.14,0.91 5.34,0.91 5.34,0.85 5.54,0.85 5.54,0.9 5.74,0.9 5.74,1.17 5.94,1.17 5.94,0.95 6.14,0.95 6.14,1.09 6.34,1.09 6.34,1.1 6.54,1.1 6.54,1.08 6.74,1.08 6.74,1 6.94,1 6.94,1.07 7.13,1.07 7.13,1.09 7.33,1.09 7.33,1.26 7.53,1.26 7.53,1.14 7.73,1.14 7.73,1.2 7.93,1.2 7.93,1.22 8.13,1.22 8.13,1.15 8.33,1.15 8.33,1.2 8.53,1.2 8.53,1.05 8.73,1.05 8.73,1.4 8.93,1.4 8.93,1.24 9.13,1.24 9.13,1.26 9.33,1.26 9.33,1.08 9.53,1.08 9.53,1.08 9.73,1.08 9.73,1.16 9.93,1.16 9.93,1.34 10.13,1.34 10.13,1.41 10.33,1.41 10.33,1.15 10.53,1.15 10.53,1.3 10.73,1.3 10.73,1.24 10.93,1.24 10.93,1.25 11.13,1.25 11.13,1.25 11.33,1.25 11.33,1.54 11.53,1.54 11.53,1.36 11.73,1.36 11.73,1.18 11.92,1.18 11.92,1.4 12.12,1.4 12.12,1.46 12.32,1.46 12.32,1.44 12.52,1.44 12.52,1.38 12.72,1.38 12.72,1.74 12.92,1.74 12.92,1.51 13.12,1.51 13.12,1.09 13.32,1.09 13.32,1.27 13.52,1.27 13.52,1.49 13.72,1.49 13.72,0.95 13.92,0.95 13.92,1.1 14.12,1.1 14.12,1.65 14.32,1.65 14.32,1.17 14.52,1.17 14.52,1.8 14.72,1.8 14.72,2.46 14.92,2.46 14.92,1.47 15.12,1.47 15.12,1.64 15.32,1.64 15.32,1.44 15.52,1.44 15.52,2.02 15.72,2.02 15.72,1.68 15.92,1.68 15.92,1.57 16.12,1.57 16.12,1.62 16.32,1.62 16.32,1.69 16.52,1.69 16.52,1.67 16.71,1.67 16.71,1.59 16.91,1.59 16.91,1.62 17.11,1.62 17.11,1.65 17.31,1.65 17.31,1.54 17.51,1.54 17.51,1.49 17.71,1.49 17.71,1.47 17.91,1.47 17.91,1.6 18.11,1.6 18.11,1.43 18.31,1.43 18.31,1.61 18.51,1.61 18.51,1.68 18.71,1.68 18.71,1.59 18.91,1.59 18.91,1.51 19.11,1.51 19.11,1.51 19.31,1.51 19.31,1.42 19.51,1.42 19.51,1.6 19.71,1.6 19.71,1.64 19.91,1.64 19.91,1.66 20.11,1.66 20.11,1.53 20.31,1.53 20.31,1.67 20.51,1.67 20.51,1.52 20.71,1.52 20.71,1.59 20.91,1.59 20.91,1.48 21.11,1.48 21.11,1.72 21.31,1.72 21.31,1.67 21.5,1.67 21.5,1.7 21.7,1.7 21.7,1.75 21.9,1.75 21.9,1.68 22.1,1.68 22.1,1.68 22.3,1.68 22.3,1.74 22.5,1.74 22.5,1.68 22.7,1.68 22.7,1.77 22.9,1.77 22.9,1.65 23.1,1.65 23.1,1.77 23.3,1.77 23.3,1.6 23.5,1.6 23.5,1.67 23.7,1.67 23.7,1.66 23.9,1.66 23.9,1.69 24.1,1.69 24.1,1.74 24.3,1.74 24.3,1.6 24.5,1.6 24.5,1.66 24.7,1.66 24.7,1.87 24.9,1.87 24.9,1.66 25.1,1.66 25.1,1.85 25.3,1.85 25.3,1.71 25.5,1.71 25.5,1.94 25.7,1.94 25.7,1.75 25.9,1.75 25.9,1.97 26.1,1.97 26.1,1.83 26.29,1.83 26.29,1.9 26.49,1.9 26.49,1.84 26.69,1.84 26.69,1.81 26.89,1.81 26.89,1.94 27.09,1.94 27.09,1.71 27.29,1.71 27.29,1.93 27.49,1.93 27.49,1.97 27.69,1.97 27.69,1.94 27.89,1.94 27.89,1.9 28.09,1.9 28.09,1.93 28.29,1.93 28.29,2.1 28.49,2.1 28.49,1.99 28.69,1.99 28.69,2.08 28.89,2.08 28.89,2.07 29.09,2.07 29.09,2.01 29.29,2.01 29.29,1.99 29.49,1.99 29.49,1.97 29.69,1.97 29.69,2 29.89,2 29.89,2.08 30.09,2.08 30.09,2.03 30.29,2.03 30.29,1.89 30.49,1.89 30.49,2.05 30.69,2.05 30.69,2.09 30.88,2.09 30.88,2.03 31.08,2.03 31.08,2.05 31.28,2.05 31.28,1.92 31.48,1.92 31.48,2.12 31.68,2.12 31.68,1.98 31.88,1.98 31.88,2.07 32.08,2.07 32.08,2.02 32.28,2.02 32.28,2.04 32.48,2.04 32.48,2.1 32.68,2.1 32.68,1.92 32.88,1.92 32.88,2.05 33.08,2.05 33.08,2.16 33.28,2.16 33.28,2.06 33.48,2.06 33.48,1.99 33.68,1.99 33.68,1.92 33.88,1.92 33.88,2.04 34.08,2.04 34.08,2.12 34.28,2.12 34.28,1.99 34.48,1.99 34.48,2.07 34.68,2.07 34.68,1.97 34.88,1.97 34.88,2.15 35.08,2.15 35.08,2.11 35.28,2.11 35.28,2.09 35.48,2.09 35.48,1.98 35.67,1.98 35.67,2.09 35.87,2.09 35.87,2.05 36.07,2.05 36.07,2.05 36.27,2.05 36.27,2.07 36.47,2.07 36.47,2.15 36.67,2.15 36.67,2.15 36.87,2.15 36.87,2.11 37.07,2.11 37.07,2.1 37.27,2.1 37.27,2.21 37.47,2.21 37.47,2.13 37.67,2.13 37.67,2.2 37.87,2.2 37.87,2.16 38.07,2.16 38.07,2.28 38.27,2.28 38.27,2.15 38.47,2.15 38.47,2.09 38.67,2.09 38.67,2.23 38.87,2.23 38.87,2.2 39.07,2.2 39.07,2.27 39.27,2.27 39.27,2.15 39.47,2.15 39.47,2.26 39.67,2.26 39.67,2.17 39.87,2.17 39.87,2.14 40.07,2.14 40.07,2.17 40.27,2.17 40.27,2.31 40.46,2.31 40.46,2.21 40.66,2.21 40.66,2.24 40.86,2.24 40.86,2.28 41.06,2.28 41.06,2.33 41.26,2.33 41.26,2.31 41.46,2.31 41.46,2.31 41.66,2.31 41.66,2.17 41.86,2.17 41.86,2.23 42.06,2.23 42.06,2.27 42.26,2.27 42.26,2.36 42.46,2.36 42.46,2.31 42.66,2.31 42.66,2.29 42.86,2.29 42.86,2.27 43.06,2.27 43.06,2.37 43.26,2.37 43.26,2.26 43.46,2.26 43.46,2.41 43.66,2.41 43.66,2.32 43.86,2.32 43.86,2.31 44.06,2.31 44.06,2.31 44.26,2.31 44.26,2.35 44.46,2.35 44.46,2.33 44.66,2.33 44.66,2.43 44.86,2.43 44.86,2.33 45.06,2.33 45.06,2.35 45.25,2.35 45.25,2.5 45.45,2.5 45.45,2.36 45.65,2.36 45.65,2.36 45.85,2.36 45.85,2.33 46.05,2.33 46.05,2.35 46.25,2.35 46.25,2.38 46.45,2.38 46.45,2.38 46.65,2.38 46.65,2.27 46.85,2.27 46.85,2.43 47.05,2.43 47.05,2.28 47.25,2.28 47.25,2.34 47.45,2.34 47.45,2.42 47.65,2.42 47.65,2.37 47.85,2.37 47.85,2.34 48.05,2.34 48.05,2.35 48.25,2.35 48.25,2.49 48.45,2.49 48.45,2.39 48.65,2.39 48.65,2.4 48.85,2.4 48.85,2.44 49.05,2.44 49.05,2.43 49.25,2.43 49.25,2.49 49.45,2.49 49.45,2.47 49.65,2.47 49.65,2.61 49.84,2.61 49.84,2.19 50.04,2.19 50.04,2.49 50.24,2.49 50.24,2.37 50.44,2.37 50.44,2.38 50.64,2.38 50.64,2.47 50.84,2.47 50.84,2.41 51.04,2.41 51.04,2.52 51.24,2.52 51.24,2.54 51.44,2.54 51.44,2.56 51.64,2.56 51.64,2.49 51.84,2.49 51.84,2.54 52.04,2.54 52.04,2.5 52.24,2.5 52.24,2.47 52.44,2.47 52.44,2.63 52.64,2.63 52.64,2.55 52.84,2.55 52.84,2.49 53.04,2.49 53.04,2.55 53.24,2.55 53.24,2.55 53.44,2.55 53.44,2.6 53.64,2.6 53.64,2.55 53.84,2.55 53.84,2.61 54.04,2.61 54.04,2.47 54.24,2.47 54.24,2.62 54.44,2.62 54.44,2.52 54.63,2.52 54.63,2.7 54.83,2.7 54.83,2.72 55.03,2.72 55.03,2.57 55.23,2.57 55.23,2.59 55.43,2.59 55.43,2.71 55.63,2.71 55.63,2.62 55.83,2.62 55.83,2.62 56.03,2.62 56.03,2.59 56.23,2.59 56.23,2.76 56.43,2.76 56.43,2.67 56.63,2.67 56.63,2.68 56.83,2.68 56.83,2.56 57.03,2.56 57.03,2.72 57.23,2.72 57.23,2.81 57.43,2.81 57.43,2.61 57.63,2.61 57.63,2.65 57.83,2.65 57.83,2.63 58.03,2.63 58.03,2.6 58.23,2.6 58.23,2.74 58.43,2.74 58.43,2.63 58.63,2.63 58.63,2.69 58.83,2.69 58.83,2.59 59.03,2.59 59.03,2.67 59.23,2.67 59.23,2.72 59.42,2.72 59.42,2.64 59.62,2.64 59.62,2.67 59.82,2.67 59.82,2.75 60.02,2.75 60.02,2.62 60.22,2.62 60.22,2.62 60.42,2.62 60.42,2.73 60.62,2.73 60.62,2.76 60.82,2.76 60.82,2.68 61.02,2.68 61.02,2.8 61.22,2.8 61.22,2.66 61.42,2.66 61.42,2.75 61.62,2.75 61.62,2.77 61.82,2.77 61.82,2.78 62.02,2.78 62.02,2.63 62.22,2.63 62.22,2.67 62.42,2.67 62.42,2.81 62.62,2.81 62.62,2.69 62.82,2.69 62.82,2.72 63.02,2.72 63.02,2.78 63.22,2.78 63.22,2.77 63.42,2.77 63.42,2.75 63.62,2.75 63.62,2.76 63.82,2.76 63.82,2.71 64.02,2.71 64.02,2.82 64.21,2.82 64.21,2.72 64.41,2.72 64.41,2.77 64.61,2.77 64.61,2.78 64.81,2.78 64.81,2.76 65.01,2.76 65.01,2.7 65.21,2.7 65.21,2.77 65.41,2.77 65.41,2.9 65.61,2.9 65.61,2.76 65.81,2.76 65.81,2.71 66.01,2.71 66.01,2.76 66.21,2.76 66.21,2.77 66.41,2.77 66.41,2.78 66.61,2.78 66.61,2.79 66.81,2.79 66.81,2.82 67.01,2.82 67.01,2.81 67.21,2.81 67.21,2.79 67.41,2.79 67.41,2.82 67.61,2.82 67.61,2.78 67.81,2.78 67.81,2.86 68.01,2.86 68.01,2.94 68.21,2.94 68.21,2.95 68.41,2.95 68.41,2.84 68.61,2.84 68.61,2.83 68.81,2.83 68.81,2.8 69,2.8 69,2.79 69.2,2.79 69.2,2.85 69.4,2.85 69.4,2.76 69.6,2.76 69.6,2.96 69.8,2.96 69.8,2.97 70,2.97 70,2.88 70.2,2.88 70.2,2.91 70.4,2.91 70.4,2.85 70.6,2.85 70.6,2.88 70.8,2.88 70.8,2.98 71,2.98 71,2.99 71.2,2.99 71.2,2.82 71.4,2.82 71.4,2.83 71.6,2.83 71.6,2.97 71.8,2.97 71.8,2.87 72,2.87 72,2.95 72.2,2.95 72.2,2.89 72.4,2.89 72.4,2.83 72.6,2.83 72.6,2.9 72.8,2.9 72.8,2.93 73,2.93 73,2.93 73.2,2.93 73.2,2.95 73.4,2.95 73.4,2.86 73.59,2.86 73.59,2.99 73.79,2.99 73.79,2.94 73.99,2.94 73.99,2.96 74.19,2.96 74.19,3.05 74.39,3.05 74.39,3.03 74.59,3.03 74.59,2.98 74.79,2.98 74.79,2.98 74.99,2.98 74.99,3.01 75.19,3.01 75.19,3.03 75.39,3.03 75.39,2.89 75.59,2.89 75.59,2.98 75.79,2.98 75.79,2.96 75.99,2.96 75.99,3.03 76.19,3.03 76.19,2.91 76.39,2.91 76.39,2.95 76.59,2.95 76.59,2.99 76.79,2.99 76.79,3.03 76.99,3.03 76.99,2.87 77.19,2.87 77.19,2.91 77.39,2.91 77.39,3.1 77.59,3.1 77.59,3.05 77.79,3.05 77.79,3.08 77.99,3.08 77.99,2.92 78.19,2.92 78.19,3.06 78.38,3.06 78.38,3.01 78.58,3.01 78.58,3.05 78.78,3.05 78.78,3.09 78.98,3.09 78.98,2.97 79.18,2.97 79.18,3.16 79.38,3.16 79.38,3.06 79.58,3.06 79.58,3.03 79.78,3.03 79.78,2.98 79.98,2.98 79.98,3.02 80.18,3.02 80.18,3.08 80.38,3.08 80.38,3.13 80.58,3.13 80.58,3.06 80.78,3.06 80.78,2.99 80.98,2.99 80.98,3.12 81.18,3.12 81.18,3.03 81.38,3.03 81.38,3.05 81.58,3.05 81.58,3.04 81.78,3.04 81.78,3.1 81.98,3.1 81.98,3.11 82.18,3.11 82.18,3.09 82.38,3.09 82.38,3.1 82.58,3.1 82.58,3.11 82.78,3.11 82.78,3.04 82.98,3.04 82.98,3.14 83.17,3.14 83.17,3.08 83.37,3.08 83.37,3.07 83.57,3.07 83.57,3.07 83.77,3.07 83.77,3.11 83.97,3.11 83.97,3.05 84.17,3.05 84.17,3.12 84.37,3.12 84.37,3.03 84.57,3.03 84.57,3.1 84.77,3.1 84.77,3.15 84.97,3.15 84.97,3.18 85.17,3.18 85.17,3.22 85.37,3.22 85.37,3.05 85.57,3.05 85.57,3.14 85.77,3.14 85.77,3.21 85.97,3.21 85.97,3.14 86.17,3.14 86.17,3.14 86.37,3.14 86.37,3.17 86.57,3.17 86.57,3.16 86.77,3.16 86.77,3.11 86.97,3.11 86.97,3.22 87.17,3.22 87.17,3.15 87.37,3.15 87.37,3.18 87.57,3.18 87.57,3.1 87.77,3.1 87.77,3.07 87.96,3.07 87.96,3.14 88.16,3.14 88.16,3.18 88.36,3.18 88.36,3.15 88.56,3.15 88.56,3.12 88.76,3.12 88.76,3.17 88.96,3.17 88.96,3.15 89.16,3.15 89.16,3.16 89.36,3.16 89.36,3.3 89.56,3.3 89.56,3.17 89.76,3.17 89.76,3.19 89.96,3.19 89.96,3.3 90.16,3.3 90.16,3.19 90.36,3.19 90.36,3.19 90.56,3.19 90.56,3.15 90.76,3.15 90.76,3.24 90.96,3.24 90.96,3.16 91.16,3.16 91.16,3.27 91.36,3.27 91.36,3.16 91.56,3.16 91.56,3.25 91.76,3.25 91.76,3.19 91.96,3.19 91.96,3.19 92.16,3.19 92.16,3.15 92.36,3.15 92.36,3.21 92.55,3.21 92.55,3.22 92.75,3.22 92.75,3.28 92.95,3.28 92.95,3.28 93.15,3.28 93.15,3.2 93.35,3.2 93.35,3.23 93.55,3.23 93.55,3.21 93.75,3.21 93.75,3.26 93.95,3.26 93.95,3.26 94.15,3.26 94.15,3.3 94.35,3.3 94.35,3.25 94.55,3.25 94.55,3.15 94.75,3.15 94.75,3.17 94.95,3.17 94.95,3.29 95.15,3.29 95.15,3.21 95.35,3.21 95.35,3.3 95.55,3.3 95.55,3.26 95.75,3.26 95.75,3.28 95.95,3.28 95.95,3.37 96.15,3.37 96.15,3.25 96.35,3.25 96.35,3.21 96.55,3.21 96.55,3.24 96.75,3.24 96.75,3.27 96.95,3.27 96.95,3.2 97.15,3.2 97.15,3.32 97.34,3.32 97.34,3.21 97.54,3.21 97.54,3.24 97.74,3.24 97.74,3.33 97.94,3.33 97.94,3.27 98.14,3.27 98.14,3.28 98.34,3.28 98.34,3.34 98.54,3.34 98.54,3.25 98.74,3.25 98.74,3.29 98.94,3.29 98.94,3.33 99.14,3.33 99.14,3.36 99.34,3.36 99.34,3.32 99.54,3.32 99.54,3.33 99.74,3.33 99.74,3.37 99.94,3.37 99.94,3.34 100.14,3.34 100.14,3.37 100.34,3.37 100.34,3.33 100.54,3.33 100.54,3.39 100.74,3.39 100.74,3.34 100.94,3.34 100.94,3.39 101.14,3.39 101.14,3.34 101.34,3.34 101.34,3.31 101.54,3.31 101.54,3.36 101.74,3.36 101.74,3.37 101.94,3.37 101.94,3.44 102.13,3.44 102.13,3.33 102.33,3.33 102.33,3.43 102.53,3.43 102.53,3.28 102.73,3.28 102.73,3.43 102.93,3.43 102.93,3.44 103.13,3.44 103.13,3.33 103.33,3.33 103.33,3.4 103.53,3.4 103.53,3.4 103.73,3.4 103.73,3.37 103.93,3.37 103.93,3.4 104.13,3.4 104.13,3.39 104.33,3.39 104.33,3.41 104.53,3.41 104.53,3.45 104.73,3.45 104.73,3.43 104.93,3.43 104.93,3.33 105.13,3.33 105.13,3.5 105.33,3.5 105.33,3.39 105.53,3.39 105.53,3.42 105.73,3.42 105.73,3.43 105.93,3.43 105.93,3.39 106.13,3.39 106.13,3.4 106.33,3.4 106.33,3.46 106.53,3.46 106.53,3.38 106.73,3.38 106.73,3.4 106.92,3.4 106.92,3.41 107.12,3.41 107.12,3.38 107.32,3.38 107.32,3.45 107.52,3.45 107.52,3.46 107.72,3.46 107.72,3.5 107.92,3.5 107.92,3.43 108.12,3.43 108.12,3.43 108.32,3.43 108.32,3.48 108.52,3.48 108.52,3.48 108.72,3.48 108.72,3.49 108.92,3.49 108.92,3.46 109.12,3.46 109.12,3.44 109.32,3.44 109.32,3.43 109.52,3.43 109.52,3.38 109.72,3.38 109.72,3.49 109.92,3.49 109.92,3.45 110.12,3.45 110.12,3.52 110.32,3.52 110.32,3.47 110.52,3.47 110.52,3.48 110.72,3.48 110.72,3.5 110.92,3.5 110.92,3.44 111.12,3.44 111.12,3.53 111.32,3.53 111.32,3.41 111.52,3.41 111.52,3.43 111.71,3.43 111.71,3.48 111.91,3.48 111.91,3.53 112.11,3.53 112.11,3.53 112.31,3.53 112.31,3.47 112.51,3.47 112.51,3.56 112.71,3.56 112.71,3.49 112.91,3.49 112.91,3.5 113.11,3.5 113.11,3.5 113.31,3.5 113.31,3.49 113.51,3.49 113.51,3.56 113.71,3.56 113.71,3.51 " class="primitive"/>
            </g>
          </g>
        </g>
      </g>
    </g>
  </g>
  <g class="guide ylabels" font-size="2.82" font-family="'PT Sans Caption','Helvetica Neue','Helvetica',sans-serif" fill="#6C606B" id="img-f00a7b3a-166">
    <g transform="translate(20.77,59.87)" id="img-f00a7b3a-167">
      <g class="primitive">
        <text text-anchor="end" dy="0.35em">0</text>
      </g>
    </g>
    <g transform="translate(20.77,39.26)" id="img-f00a7b3a-168">
      <g class="primitive">
        <text text-anchor="end" dy="0.35em">1.010</text>
      </g>
    </g>
    <g transform="translate(20.77,18.66)" id="img-f00a7b3a-169">
      <g class="primitive">
        <text text-anchor="end" dy="0.35em">2.010</text>
      </g>
    </g>
  </g>
  <g font-size="3.18" font-family="'PT Sans','Helvetica Neue','Helvetica',sans-serif" fill="#202020" stroke="#000000" stroke-opacity="0.000" id="img-f00a7b3a-170">
    <g transform="translate(4.18,31.76)" id="img-f00a7b3a-171">
      <g class="primitive">
        <text text-anchor="middle" dy="0.35em" transform="rotate(-90,0, 2)">Counts</text>
      </g>
    </g>
  </g>
  <g font-size="3.18" font-family="'PT Sans','Helvetica Neue','Helvetica',sans-serif" fill="#202020" stroke="#000000" stroke-opacity="0.000" id="img-f00a7b3a-172">
    <g transform="translate(137.53,0.71)" id="img-f00a7b3a-173">
      <g class="primitive">
        <text text-anchor="middle" dy="0.6em">III-E K412[0][all]</text>
      </g>
    </g>
  </g>
</g>
<defs>
  <clipPath id="img-f00a7b3a-4">
    <path d="M21.77,5.66 L253.29,5.66 253.29,61.87 21.77,61.87 " />
  </clipPath>
</defs>
</svg>
