<?xml version="1.0" encoding="UTF-8"?>
<svg xmlns="http://www.w3.org/2000/svg"
     xmlns:xlink="http://www.w3.org/1999/xlink"
     xmlns:gadfly="http://www.gadflyjl.org/ns"
     version="1.2"
     width="254mm" height="76.2mm" viewBox="0 0 254 76.2"
     stroke="none"
     fill="#000000"
     stroke-width="0.3"
     font-size="3.88"
>
<defs>
  <marker id="arrow" markerWidth="15" markerHeight="7" refX="5" refY="3.5" orient="auto" markerUnits="strokeWidth">
    <path d="M0,0 L15,3.5 L0,7 z" stroke="context-stroke" fill="context-stroke"/>
  </marker>
</defs>
<g class="plotroot xscalable yscalable" id="img-cc46d8fa-1">
  <g font-size="3.88" font-family="'PT Sans','Helvetica Neue','Helvetica',sans-serif" fill="#564A55" stroke="#000000" stroke-opacity="0.000" id="img-cc46d8fa-2">
    <g transform="translate(121.6,64.59)">
      <g class="primitive">
        <text text-anchor="middle" dy="0.6em">Channel</text>
      </g>
    </g>
  </g>
  <g class="guide xlabels" font-size="2.82" font-family="'PT Sans Caption','Helvetica Neue','Helvetica',sans-serif" fill="#6C606B" id="img-cc46d8fa-3">
    <g transform="translate(33.89,57.91)">
      <g class="primitive">
        <text text-anchor="middle" dy="0.6em">0</text>
      </g>
    </g>
    <g transform="translate(77.74,57.91)">
      <g class="primitive">
        <text text-anchor="middle" dy="0.6em">200</text>
      </g>
    </g>
    <g transform="translate(121.6,57.91)">
      <g class="primitive">
        <text text-anchor="middle" dy="0.6em">400</text>
      </g>
    </g>
    <g transform="translate(165.46,57.91)">
      <g class="primitive">
        <text text-anchor="middle" dy="0.6em">600</text>
      </g>
    </g>
    <g transform="translate(209.31,57.91)">
      <g class="primitive">
        <text text-anchor="middle" dy="0.6em">800</text>
      </g>
    </g>
  </g>
  <g class="guide colorkey" id="img-cc46d8fa-4">
    <g fill="#4C404B" font-size="2.82" font-family="'PT Sans','Helvetica Neue','Helvetica',sans-serif" id="img-cc46d8fa-5">
      <g transform="translate(215.94,20.82)" id="img-cc46d8fa-6">
        <g class="primitive">
          <text dy="0.35em">k[Al K-L3 + 1 other, Al2O3]</text>
        </g>
      </g>
      <g transform="translate(215.94,24.45)" id="img-cc46d8fa-7">
        <g class="primitive">
          <text dy="0.35em">k[Mg K-L3 + 1 other, MgO]</text>
        </g>
      </g>
      <g transform="translate(215.94,28.07)" id="img-cc46d8fa-8">
        <g class="primitive">
          <text dy="0.35em">k[Fe L3-M5 + 11 others, Fe]</text>
        </g>
      </g>
      <g transform="translate(215.94,31.7)" id="img-cc46d8fa-9">
        <g class="primitive">
          <text dy="0.35em">k[Fe K-L3 + 1 other, Fe]</text>
        </g>
      </g>
      <g transform="translate(215.94,35.33)" id="img-cc46d8fa-10">
        <g class="primitive">
          <text dy="0.35em">k[Fe K-M3 + 3 others, Fe]</text>
        </g>
      </g>
      <g transform="translate(215.94,38.95)" id="img-cc46d8fa-11">
        <g class="primitive">
          <text dy="0.35em">k[Si K-L3 + 2 others, SiO2]</text>
        </g>
      </g>
      <g transform="translate(215.94,42.58)" id="img-cc46d8fa-12">
        <g class="primitive">
          <text dy="0.35em">k[O K-L3 + 1 other, SiO2]</text>
        </g>
      </g>
      <g transform="translate(215.94,46.21)" id="img-cc46d8fa-13">
        <g class="primitive">
          <text dy="0.35em">k[Ca K-L3 + 3 others, CaF2]</text>
        </g>
      </g>
    </g>
    <g stroke-width="0.3" id="img-cc46d8fa-14">
      <g stroke="#FFFFFF" fill-opacity="1" fill="#9C9C9C" id="img-cc46d8fa-15">
        <g transform="translate(213.13,46.21)" id="img-cc46d8fa-16">
          <circle cx="0" cy="0" r="0.9" class="primitive"/>
        </g>
      </g>
      <g stroke="#FFFFFF" fill-opacity="1" fill="#5C0000" id="img-cc46d8fa-17">
        <g transform="translate(213.13,42.58)" id="img-cc46d8fa-18">
          <circle cx="0" cy="0" r="0.9" class="primitive"/>
        </g>
      </g>
      <g stroke="#FFFFFF" fill-opacity="1" fill="#00F6FF" id="img-cc46d8fa-19">
        <g transform="translate(213.13,38.95)" id="img-cc46d8fa-20">
          <circle cx="0" cy="0" r="0.9" class="primitive"/>
        </g>
      </g>
      <g stroke="#FFFFFF" fill-opacity="1" fill="#576969" id="img-cc46d8fa-21">
        <g transform="translate(213.13,35.33)" id="img-cc46d8fa-22">
          <circle cx="0" cy="0" r="0.9" class="primitive"/>
        </g>
      </g>
      <g stroke="#FFFFFF" fill-opacity="1" fill="#FFD000" id="img-cc46d8fa-23">
        <g transform="translate(213.13,31.7)" id="img-cc46d8fa-24">
          <circle cx="0" cy="0" r="0.9" class="primitive"/>
        </g>
      </g>
      <g stroke="#FFFFFF" fill-opacity="1" fill="#00008A" id="img-cc46d8fa-25">
        <g transform="translate(213.13,28.07)" id="img-cc46d8fa-26">
          <circle cx="0" cy="0" r="0.9" class="primitive"/>
        </g>
      </g>
      <g stroke="#FFFFFF" fill-opacity="1" fill="#0071FF" id="img-cc46d8fa-27">
        <g transform="translate(213.13,24.45)" id="img-cc46d8fa-28">
          <circle cx="0" cy="0" r="0.9" class="primitive"/>
        </g>
      </g>
      <g stroke="#FFFFFF" fill-opacity="1" fill="#00A82D" id="img-cc46d8fa-29">
        <g transform="translate(213.13,20.82)" id="img-cc46d8fa-30">
          <circle cx="0" cy="0" r="0.9" class="primitive"/>
        </g>
      </g>
    </g>
    <g fill="#362A35" font-size="3.88" font-family="'PT Sans','Helvetica Neue','Helvetica',sans-serif" stroke="#000000" stroke-opacity="0.000" id="img-cc46d8fa-31">
      <g transform="translate(212.31,17.51)" id="img-cc46d8fa-32">
        <g class="primitive">
          <text dy="-0em">Vector</text>
        </g>
      </g>
    </g>
  </g>
  <g clip-path="url(#img-cc46d8fa-33)">
    <g id="img-cc46d8fa-34">
      <g pointer-events="visible" stroke-width="0.3" fill="#000000" fill-opacity="0.000" stroke="#000000" stroke-opacity="0.000" class="guide background" id="img-cc46d8fa-35">
        <g transform="translate(121.6,30.96)" id="img-cc46d8fa-36">
          <path d="M-89.71,-25.96 L89.71,-25.96 89.71,25.96 -89.71,25.96  z" class="primitive"/>
        </g>
      </g>
      <g class="guide ygridlines xfixed" stroke-dasharray="0.5,0.5" stroke-width="0.2" stroke="#D0D0E0" id="img-cc46d8fa-37">
        <g transform="translate(121.6,54.91)" id="img-cc46d8fa-38">
          <path fill="none" d="M-89.71,0 L89.71,0 " class="primitive"/>
        </g>
        <g transform="translate(121.6,38.94)" id="img-cc46d8fa-39">
          <path fill="none" d="M-89.71,0 L89.71,0 " class="primitive"/>
        </g>
        <g transform="translate(121.6,22.97)" id="img-cc46d8fa-40">
          <path fill="none" d="M-89.71,0 L89.71,0 " class="primitive"/>
        </g>
        <g transform="translate(121.6,7)" id="img-cc46d8fa-41">
          <path fill="none" d="M-89.71,0 L89.71,0 " class="primitive"/>
        </g>
      </g>
      <g class="guide xgridlines yfixed" stroke-dasharray="0.5,0.5" stroke-width="0.2" stroke="#D0D0E0" id="img-cc46d8fa-42">
        <g transform="translate(33.89,30.96)" id="img-cc46d8fa-43">
          <path fill="none" d="M0,-25.96 L0,25.96 " class="primitive"/>
        </g>
        <g transform="translate(77.74,30.96)" id="img-cc46d8fa-44">
          <path fill="none" d="M0,-25.96 L0,25.96 " class="primitive"/>
        </g>
        <g transform="translate(121.6,30.96)" id="img-cc46d8fa-45">
          <path fill="none" d="M0,-25.96 L0,25.96 " class="primitive"/>
        </g>
        <g transform="translate(165.46,30.96)" id="img-cc46d8fa-46">
          <path fill="none" d="M0,-25.96 L0,25.96 " class="primitive"/>
        </g>
        <g transform="translate(209.31,30.96)" id="img-cc46d8fa-47">
          <path fill="none" d="M0,-25.96 L0,25.96 " class="primitive"/>
        </g>
      </g>
      <g class="plotpanel" id="img-cc46d8fa-48">
        <metadata>
          <boundingbox value="31.88500000000002mm 5.0mm 179.42833333333334mm 51.91499999999999mm"/>
          <unitbox value="-9.120533551212745 1.0626108734216843e-6 818.2410671024255 -1.6252217468433687e-6"/>
        </metadata>
        <g stroke-width="0.3" fill="#000000" fill-opacity="0.000" class="geometry" id="img-cc46d8fa-49">
          <g class="color_RGB{Float64}(0.611005493077889,0.611005535205774,0.611005495496397)" stroke-dasharray="none" stroke="#9C9C9C" id="img-cc46d8fa-50">
            <g transform="translate(121.71,38.94)" id="img-cc46d8fa-51">
              <path fill="none" d="M-87.6,0 L-87.39,0 -87.17,0 -86.95,0 -86.73,0 -86.51,0 -86.29,0 -86.07,0 -85.85,0 -85.63,0 -85.41,0 -85.19,0 -84.97,0 -84.75,0 -84.53,0 -84.32,0 -84.1,0 -83.88,0 -83.66,0 -83.44,0 -83.22,0 -83,0 -82.78,0 -82.56,0 -82.34,0 -82.12,0 -81.9,0 -81.68,0 -81.46,0 -81.25,0 -81.03,0 -80.81,0 -80.59,0 -80.37,0 -80.15,0 -79.93,0 -79.71,0 -79.49,0 -79.27,0 -79.05,0 -78.83,0 -78.61,0 -78.39,0 -78.18,0 -77.96,0 -77.74,0 -77.52,0 -77.3,0 -77.08,0 -76.86,0 -76.64,0 -76.42,0 -76.2,0 -75.98,0 -75.76,0 -75.54,0 -75.32,0 -75.11,0 -74.89,0 -74.67,0 -74.45,0 -74.23,0 -74.01,0 -73.79,0 -73.57,0 -73.35,0 -73.13,0 -72.91,0 -72.69,0 -72.47,0 -72.25,0 -72.04,0 -71.82,0 -71.6,0 -71.38,0 -71.16,0 -70.94,0 -70.72,0 -70.5,0 -70.28,0 -70.06,0 -69.84,0 -69.62,0 -69.4,0 -69.18,0 -68.97,0 -68.75,0 -68.53,0 -68.31,0 -68.09,0 -67.87,0 -67.65,0 -67.43,0 -67.21,0 -66.99,0 -66.77,0 -66.55,0 -66.33,0 -66.11,0 -65.9,0 -65.68,0 -65.46,0 -65.24,0 -65.02,0 -64.8,0 -64.58,0 -64.36,0 -64.14,0 -63.92,0 -63.7,0 -63.48,0 -63.26,0 -63.04,0 -62.83,0 -62.61,0 -62.39,0 -62.17,0 -61.95,0 -61.73,0 -61.51,0 -61.29,0 -61.07,0 -60.85,0 -60.63,0 -60.41,0 -60.19,0 -59.97,0 -59.76,0 -59.54,0 -59.32,0 -59.1,0 -58.88,0 -58.66,0 -58.44,0 -58.22,0 -58,0 -57.78,0 -57.56,0 -57.34,0 -57.12,0 -56.9,0 -56.69,0 -56.47,0 -56.25,0 -56.03,0 -55.81,0 -55.59,0 -55.37,0 -55.15,0 -54.93,0 -54.71,0 -54.49,0 -54.27,0 -54.05,0 -53.83,0 -53.62,0 -53.4,0 -53.18,0 -52.96,0 -52.74,0 -52.52,0 -52.3,0 -52.08,0 -51.86,0 -51.64,0 -51.42,0 -51.2,0 -50.98,0 -50.76,0 -50.55,0 -50.33,0 -50.11,0 -49.89,0 -49.67,0 -49.45,0 -49.23,0 -49.01,0 -48.79,0 -48.57,0 -48.35,0 -48.13,0 -47.91,0 -47.69,0 -47.48,0 -47.26,0 -47.04,0 -46.82,0 -46.6,0 -46.38,0 -46.16,0 -45.94,0 -45.72,0 -45.5,0 -45.28,0 -45.06,0 -44.84,0 -44.62,0 -44.41,0 -44.19,0 -43.97,0 -43.75,0 -43.53,0 -43.31,0 -43.09,0 -42.87,0 -42.65,0 -42.43,0 -42.21,0 -41.99,0 -41.77,0 -41.55,0 -41.34,0 -41.12,0 -40.9,0 -40.68,0 -40.46,0 -40.24,0 -40.02,0 -39.8,0 -39.58,0 -39.36,0 -39.14,0 -38.92,0 -38.7,0 -38.48,0 -38.27,0 -38.05,0 -37.83,0 -37.61,0 -37.39,0 -37.17,0 -36.95,0 -36.73,0 -36.51,0 -36.29,0 -36.07,0 -35.85,0 -35.63,0 -35.41,0 -35.2,0 -34.98,0 -34.76,0 -34.54,0 -34.32,0 -34.1,0 -33.88,0 -33.66,0 -33.44,0 -33.22,0 -33,0 -32.78,0 -32.56,0 -32.34,0 -32.13,0 -31.91,0 -31.69,0 -31.47,0 -31.25,0 -31.03,0 -30.81,0 -30.59,0 -30.37,0 -30.15,0 -29.93,0 -29.71,0 -29.49,0 -29.27,0 -29.06,0 -28.84,0 -28.62,0 -28.4,0 -28.18,0 -27.96,0 -27.74,0 -27.52,0 -27.3,0 -27.08,0 -26.86,0 -26.64,0 -26.42,0 -26.2,0 -25.99,0 -25.77,0 -25.55,0 -25.33,0 -25.11,0 -24.89,0 -24.67,0 -24.45,0 -24.23,0 -24.01,0 -23.79,0 -23.57,0 -23.35,0 -23.13,0 -22.92,0 -22.7,0 -22.48,0 -22.26,0 -22.04,0 -21.82,0 -21.6,0 -21.38,0 -21.16,0 -20.94,0 -20.72,0 -20.5,0 -20.28,0 -20.06,0 -19.85,0 -19.63,0 -19.41,0 -19.19,0 -18.97,0 -18.75,0 -18.53,0 -18.31,0 -18.09,-0 -17.87,-0 -17.65,-0 -17.43,-0 -17.21,-0 -16.99,-0 -16.78,-0 -16.56,-0 -16.34,-0 -16.12,-0 -15.9,-0 -15.68,-0 -15.46,-0.01 -15.24,-0.01 -15.02,-0.02 -14.8,-0.03 -14.58,-0.04 -14.36,-0.06 -14.14,-0.08 -13.92,-0.11 -13.71,-0.14 -13.49,-0.18 -13.27,-0.22 -13.05,-0.26 -12.83,-0.3 -12.61,-0.33 -12.39,-0.34 -12.17,-0.33 -11.95,-0.29 -11.73,-0.22 -11.51,-0.11 -11.29,0.04 -11.07,0.22 -10.85,0.43 -10.64,0.66 -10.42,0.89 -10.2,1.12 -9.98,1.31 -9.76,1.45 -9.54,1.53 -9.32,1.52 -9.1,1.42 -8.88,1.22 -8.66,0.94 -8.44,0.57 -8.22,0.13 -8,-0.34 -7.78,-0.83 -7.57,-1.29 -7.35,-1.7 -7.13,-2.04 -6.91,-2.27 -6.69,-2.38 -6.47,-2.37 -6.25,-2.23 -6.03,-1.98 -5.81,-1.63 -5.59,-1.21 -5.37,-0.75 -5.15,-0.27 -4.93,0.2 -4.71,0.63 -4.5,0.99 -4.28,1.28 -4.06,1.48 -3.84,1.59 -3.62,1.61 -3.4,1.56 -3.18,1.44 -2.96,1.27 -2.74,1.07 -2.52,0.85 -2.3,0.63 -2.08,0.41 -1.86,0.21 -1.64,0.02 -1.43,-0.13 -1.21,-0.26 -0.99,-0.36 -0.77,-0.43 -0.55,-0.48 -0.33,-0.51 -0.11,-0.52 0.11,-0.51 0.33,-0.48 0.55,-0.45 0.77,-0.4 0.99,-0.34 1.21,-0.28 1.43,-0.21 1.64,-0.14 1.86,-0.08 2.08,-0.02 2.3,0.04 2.52,0.09 2.74,0.13 2.96,0.16 3.18,0.17 3.4,0.18 3.62,0.18 3.84,0.17 4.06,0.15 4.28,0.13 4.5,0.1 4.71,0.08 4.93,0.05 5.15,0.03 5.37,0.01 5.59,-0.01 5.81,-0.02 6.03,-0.03 6.25,-0.04 6.47,-0.04 6.69,-0.04 6.91,-0.04 7.13,-0.04 7.35,-0.03 7.57,-0.03 7.78,-0.02 8,-0.02 8.22,-0.01 8.44,-0.01 8.66,-0.01 8.88,-0.01 9.1,-0 9.32,-0 9.54,-0 9.76,-0 9.98,-0 10.2,-0 10.42,-0 10.64,-0 10.85,-0 11.07,-0 11.29,-0 11.51,-0 11.73,-0 11.95,-0 12.17,-0 12.39,-0 12.61,0 12.83,0 13.05,0 13.27,0 13.49,0 13.71,0 13.92,0 14.14,0 14.36,0 14.58,0 14.8,0 15.02,0 15.24,0 15.46,0 15.68,0 15.9,0 16.12,0 16.34,0 16.56,0 16.78,0 16.99,0 17.21,0 17.43,0 17.65,0 17.87,0 18.09,0 18.31,0 18.53,0 18.75,0 18.97,0 19.19,0 19.41,0 19.63,0 19.85,0 20.06,0 20.28,0 20.5,0 20.72,0 20.94,0 21.16,0 21.38,0 21.6,0 21.82,0 22.04,0 22.26,0 22.48,0 22.7,0 22.92,0 23.13,0 23.35,0 23.57,0 23.79,0 24.01,0 24.23,0 24.45,0 24.67,0 24.89,0 25.11,0 25.33,0 25.55,0 25.77,0 25.99,0 26.2,0 26.42,0 26.64,0 26.86,0 27.08,0 27.3,0 27.52,0 27.74,0 27.96,0 28.18,0 28.4,0 28.62,0 28.84,0 29.06,0 29.27,0 29.49,0 29.71,0 29.93,0 30.15,0 30.37,0 30.59,0 30.81,0 31.03,0 31.25,0 31.47,0 31.69,0 31.91,0 32.13,0 32.34,0 32.56,0 32.78,0 33,0 33.22,0 33.44,0 33.66,0 33.88,0 34.1,0 34.32,0 34.54,0 34.76,0 34.98,0 35.2,0 35.41,0 35.63,0 35.85,0 36.07,0 36.29,0 36.51,0 36.73,0 36.95,0 37.17,0 37.39,0 37.61,0 37.83,0 38.05,0 38.27,0 38.48,0 38.7,0 38.92,0 39.14,0 39.36,0 39.58,0 39.8,0 40.02,0 40.24,0 40.46,0 40.68,0 40.9,0 41.12,0 41.34,0 41.55,0 41.77,0 41.99,0 42.21,0 42.43,0 42.65,0 42.87,0 43.09,0 43.31,0 43.53,0 43.75,0 43.97,0 44.19,0 44.41,0 44.62,0 44.84,0 45.06,0 45.28,0 45.5,0 45.72,0 45.94,0 46.16,0 46.38,0 46.6,0 46.82,0 47.04,0 47.26,0 47.48,0 47.69,0 47.91,0 48.13,0 48.35,0 48.57,0 48.79,0 49.01,0 49.23,0 49.45,0 49.67,0 49.89,0 50.11,0 50.33,0 50.55,0 50.76,0 50.98,0 51.2,0 51.42,0 51.64,0 51.86,0 52.08,0 52.3,0 52.52,0 52.74,0 52.96,0 53.18,0 53.4,0 53.62,0 53.83,0 54.05,0 54.27,0 54.49,0 54.71,0 54.93,0 55.15,0 55.37,0 55.59,0 55.81,0 56.03,0 56.25,0 56.47,0 56.69,0 56.9,0 57.12,0 57.34,0 57.56,0 57.78,0 58,0 58.22,0 58.44,0 58.66,0 58.88,0 59.1,0 59.32,0 59.54,0 59.76,0 59.97,0 60.19,0 60.41,0 60.63,0 60.85,0 61.07,0 61.29,0 61.51,0 61.73,0 61.95,0 62.17,0 62.39,0 62.61,0 62.83,0 63.04,0 63.26,0 63.48,0 63.7,0 63.92,0 64.14,0 64.36,0 64.58,0 64.8,0 65.02,0 65.24,0 65.46,0 65.68,0 65.9,0 66.11,0 66.33,0 66.55,0 66.77,0 66.99,0 67.21,0 67.43,0 67.65,0 67.87,0 68.09,0 68.31,0 68.53,0 68.75,0 68.97,0 69.18,0 69.4,0 69.62,0 69.84,0 70.06,0 70.28,0 70.5,0 70.72,0 70.94,0 71.16,0 71.38,0 71.6,0 71.82,0 72.04,0 72.25,0 72.47,0 72.69,0 72.91,0 73.13,0 73.35,0 73.57,0 73.79,0 74.01,0 74.23,0 74.45,0 74.67,0 74.89,0 75.11,0 75.32,0 75.54,0 75.76,0 75.98,0 76.2,0 76.42,0 76.64,0 76.86,0 77.08,0 77.3,0 77.52,0 77.74,0 77.96,0 78.18,0 78.39,0 78.61,0 78.83,0 79.05,0 79.27,0 79.49,0 79.71,0 79.93,0 80.15,0 80.37,0 80.59,0 80.81,0 81.03,0 81.25,0 81.46,0 81.68,0 81.9,0 82.12,0 82.34,0 82.56,0 82.78,0 83,0 83.22,0 83.44,0 83.66,0 83.88,0 84.1,0 84.32,0 84.53,0 84.75,0 84.97,0 85.19,0 85.41,0 85.63,0 85.85,0 86.07,0 86.29,0 86.51,0 86.73,0 86.95,0 87.17,0 87.39,0 87.6,0 " class="primitive"/>
            </g>
          </g>
        </g>
        <g stroke-width="0.3" fill="#000000" fill-opacity="0.000" class="geometry" id="img-cc46d8fa-52">
          <g class="color_RGB{Float64}(0.36072361084712,1.8219952808935574e-7,0.0)" stroke-dasharray="none" stroke="#5C0000" id="img-cc46d8fa-53">
            <g transform="translate(121.71,38.94)" id="img-cc46d8fa-54">
              <path fill="none" d="M-87.6,0 L-87.39,0 -87.17,0 -86.95,0 -86.73,0 -86.51,0 -86.29,0 -86.07,0 -85.85,0 -85.63,0 -85.41,0 -85.19,0 -84.97,0 -84.75,0 -84.53,0 -84.32,0 -84.1,0 -83.88,0 -83.66,0 -83.44,0 -83.22,0 -83,-0 -82.78,-0 -82.56,-0 -82.34,-0 -82.12,-0 -81.9,-0 -81.68,-0.01 -81.46,-0.02 -81.25,-0.05 -81.03,-0.1 -80.81,-0.2 -80.59,-0.35 -80.37,-0.56 -80.15,-0.81 -79.93,-1.03 -79.71,-1.15 -79.49,-1.06 -79.27,-0.66 -79.05,0.1 -78.83,1.2 -78.61,2.53 -78.39,3.84 -78.18,4.84 -77.96,5.23 -77.74,4.78 -77.52,3.41 -77.3,1.22 -77.08,-1.47 -76.86,-4.2 -76.64,-6.48 -76.42,-7.88 -76.2,-8.11 -75.98,-7.14 -75.76,-5.18 -75.54,-2.59 -75.32,0.15 -75.11,2.59 -74.89,4.38 -74.67,5.34 -74.45,5.44 -74.23,4.83 -74.01,3.74 -73.79,2.43 -73.57,1.12 -73.35,0 -73.13,-0.85 -72.91,-1.39 -72.69,-1.64 -72.47,-1.66 -72.25,-1.51 -72.04,-1.24 -71.82,-0.91 -71.6,-0.56 -71.38,-0.23 -71.16,0.06 -70.94,0.27 -70.72,0.41 -70.5,0.46 -70.28,0.45 -70.06,0.38 -69.84,0.28 -69.62,0.17 -69.4,0.06 -69.18,-0.02 -68.97,-0.07 -68.75,-0.1 -68.53,-0.11 -68.31,-0.1 -68.09,-0.08 -67.87,-0.07 -67.65,-0.05 -67.43,-0.03 -67.21,-0.02 -66.99,-0.01 -66.77,-0.01 -66.55,-0 -66.33,-0 -66.11,-0 -65.9,-0 -65.68,-0 -65.46,-0 -65.24,-0 -65.02,-0 -64.8,-0 -64.58,-0 -64.36,-0 -64.14,-0 -63.92,-0 -63.7,-0 -63.48,0 -63.26,0 -63.04,0 -62.83,0 -62.61,0 -62.39,0 -62.17,0 -61.95,0 -61.73,0 -61.51,0 -61.29,0 -61.07,-0 -60.85,-0 -60.63,-0 -60.41,-0 -60.19,-0 -59.97,-0 -59.76,-0 -59.54,-0 -59.32,-0 -59.1,-0 -58.88,0 -58.66,0 -58.44,0 -58.22,0 -58,0 -57.78,0 -57.56,0 -57.34,0 -57.12,0 -56.9,0 -56.69,-0 -56.47,-0 -56.25,-0 -56.03,-0 -55.81,-0 -55.59,-0 -55.37,-0 -55.15,0 -54.93,0 -54.71,0 -54.49,0 -54.27,0 -54.05,0 -53.83,-0 -53.62,-0 -53.4,-0 -53.18,-0 -52.96,-0 -52.74,-0 -52.52,-0 -52.3,-0 -52.08,-0 -51.86,-0 -51.64,-0 -51.42,0 -51.2,0 -50.98,0 -50.76,0 -50.55,0 -50.33,0 -50.11,0 -49.89,0 -49.67,-0 -49.45,-0 -49.23,-0 -49.01,-0 -48.79,-0 -48.57,-0 -48.35,0 -48.13,0 -47.91,0 -47.69,0 -47.48,0 -47.26,0 -47.04,0 -46.82,0 -46.6,0 -46.38,0 -46.16,0 -45.94,0 -45.72,0 -45.5,0 -45.28,0 -45.06,0 -44.84,0 -44.62,0 -44.41,0 -44.19,0 -43.97,0 -43.75,0 -43.53,0 -43.31,0 -43.09,0 -42.87,0 -42.65,0 -42.43,0 -42.21,0 -41.99,0 -41.77,0 -41.55,0 -41.34,0 -41.12,0 -40.9,0 -40.68,0 -40.46,0 -40.24,0 -40.02,0 -39.8,0 -39.58,0 -39.36,0 -39.14,0 -38.92,0 -38.7,0 -38.48,0 -38.27,0 -38.05,0 -37.83,0 -37.61,0 -37.39,0 -37.17,0 -36.95,0 -36.73,0 -36.51,0 -36.29,0 -36.07,0 -35.85,0 -35.63,0 -35.41,0 -35.2,0 -34.98,0 -34.76,0 -34.54,0 -34.32,0 -34.1,0 -33.88,0 -33.66,0 -33.44,0 -33.22,0 -33,0 -32.78,0 -32.56,0 -32.34,0 -32.13,0 -31.91,0 -31.69,0 -31.47,0 -31.25,0 -31.03,0 -30.81,0 -30.59,0 -30.37,0 -30.15,0 -29.93,0 -29.71,0 -29.49,0 -29.27,0 -29.06,0 -28.84,0 -28.62,0 -28.4,0 -28.18,0 -27.96,0 -27.74,0 -27.52,0 -27.3,0 -27.08,0 -26.86,0 -26.64,0 -26.42,0 -26.2,0 -25.99,0 -25.77,0 -25.55,0 -25.33,0 -25.11,0 -24.89,0 -24.67,0 -24.45,0 -24.23,0 -24.01,0 -23.79,0 -23.57,0 -23.35,0 -23.13,0 -22.92,0 -22.7,0 -22.48,0 -22.26,0 -22.04,0 -21.82,0 -21.6,0 -21.38,0 -21.16,0 -20.94,0 -20.72,0 -20.5,0 -20.28,0 -20.06,0 -19.85,0 -19.63,0 -19.41,0 -19.19,0 -18.97,0 -18.75,0 -18.53,0 -18.31,0 -18.09,0 -17.87,0 -17.65,0 -17.43,0 -17.21,0 -16.99,0 -16.78,0 -16.56,0 -16.34,0 -16.12,0 -15.9,0 -15.68,0 -15.46,0 -15.24,0 -15.02,0 -14.8,0 -14.58,0 -14.36,0 -14.14,0 -13.92,0 -13.71,0 -13.49,0 -13.27,0 -13.05,0 -12.83,0 -12.61,0 -12.39,0 -12.17,0 -11.95,0 -11.73,0 -11.51,0 -11.29,0 -11.07,0 -10.85,0 -10.64,0 -10.42,0 -10.2,0 -9.98,0 -9.76,0 -9.54,0 -9.32,0 -9.1,0 -8.88,0 -8.66,0 -8.44,0 -8.22,0 -8,0 -7.78,0 -7.57,0 -7.35,0 -7.13,0 -6.91,0 -6.69,0 -6.47,0 -6.25,0 -6.03,0 -5.81,0 -5.59,0 -5.37,0 -5.15,0 -4.93,0 -4.71,0 -4.5,0 -4.28,0 -4.06,0 -3.84,0 -3.62,0 -3.4,0 -3.18,0 -2.96,0 -2.74,0 -2.52,0 -2.3,0 -2.08,0 -1.86,0 -1.64,0 -1.43,0 -1.21,0 -0.99,0 -0.77,0 -0.55,0 -0.33,0 -0.11,0 0.11,0 0.33,0 0.55,0 0.77,0 0.99,0 1.21,0 1.43,0 1.64,0 1.86,0 2.08,0 2.3,0 2.52,0 2.74,0 2.96,0 3.18,0 3.4,0 3.62,0 3.84,0 4.06,0 4.28,0 4.5,0 4.71,0 4.93,0 5.15,0 5.37,0 5.59,0 5.81,0 6.03,0 6.25,0 6.47,0 6.69,0 6.91,0 7.13,0 7.35,0 7.57,0 7.78,0 8,0 8.22,0 8.44,0 8.66,0 8.88,0 9.1,0 9.32,0 9.54,0 9.76,0 9.98,0 10.2,0 10.42,0 10.64,0 10.85,0 11.07,0 11.29,0 11.51,0 11.73,0 11.95,0 12.17,0 12.39,0 12.61,0 12.83,0 13.05,0 13.27,0 13.49,0 13.71,0 13.92,0 14.14,0 14.36,0 14.58,0 14.8,0 15.02,0 15.24,0 15.46,0 15.68,0 15.9,0 16.12,0 16.34,0 16.56,0 16.78,0 16.99,0 17.21,0 17.43,0 17.65,0 17.87,0 18.09,0 18.31,0 18.53,0 18.75,0 18.97,0 19.19,0 19.41,0 19.63,0 19.85,0 20.06,0 20.28,0 20.5,0 20.72,0 20.94,0 21.16,0 21.38,0 21.6,0 21.82,0 22.04,0 22.26,0 22.48,0 22.7,0 22.92,0 23.13,0 23.35,0 23.57,0 23.79,0 24.01,0 24.23,0 24.45,0 24.67,0 24.89,0 25.11,0 25.33,0 25.55,0 25.77,0 25.99,0 26.2,0 26.42,0 26.64,0 26.86,0 27.08,0 27.3,0 27.52,0 27.74,0 27.96,0 28.18,0 28.4,0 28.62,0 28.84,0 29.06,0 29.27,0 29.49,0 29.71,0 29.93,0 30.15,0 30.37,0 30.59,0 30.81,0 31.03,0 31.25,0 31.47,0 31.69,0 31.91,0 32.13,0 32.34,0 32.56,0 32.78,0 33,0 33.22,0 33.44,0 33.66,0 33.88,0 34.1,0 34.32,0 34.54,0 34.76,0 34.98,0 35.2,0 35.41,0 35.63,0 35.85,0 36.07,0 36.29,0 36.51,0 36.73,0 36.95,0 37.17,0 37.39,0 37.61,0 37.83,0 38.05,0 38.27,0 38.48,0 38.7,0 38.92,0 39.14,0 39.36,0 39.58,0 39.8,0 40.02,0 40.24,0 40.46,0 40.68,0 40.9,0 41.12,0 41.34,0 41.55,0 41.77,0 41.99,0 42.21,0 42.43,0 42.65,0 42.87,0 43.09,0 43.31,0 43.53,0 43.75,0 43.97,0 44.19,0 44.41,0 44.62,0 44.84,0 45.06,0 45.28,0 45.5,0 45.72,0 45.94,0 46.16,0 46.38,0 46.6,0 46.82,0 47.04,0 47.26,0 47.48,0 47.69,0 47.91,0 48.13,0 48.35,0 48.57,0 48.79,0 49.01,0 49.23,0 49.45,0 49.67,0 49.89,0 50.11,0 50.33,0 50.55,0 50.76,0 50.98,0 51.2,0 51.42,0 51.64,0 51.86,0 52.08,0 52.3,0 52.52,0 52.74,0 52.96,0 53.18,0 53.4,0 53.62,0 53.83,0 54.05,0 54.27,0 54.49,0 54.71,0 54.93,0 55.15,0 55.37,0 55.59,0 55.81,0 56.03,0 56.25,0 56.47,0 56.69,0 56.9,0 57.12,0 57.34,0 57.56,0 57.78,0 58,0 58.22,0 58.44,0 58.66,0 58.88,0 59.1,0 59.32,0 59.54,0 59.76,0 59.97,0 60.19,0 60.41,0 60.63,0 60.85,0 61.07,0 61.29,0 61.51,0 61.73,0 61.95,0 62.17,0 62.39,0 62.61,0 62.83,0 63.04,0 63.26,0 63.48,0 63.7,0 63.92,0 64.14,0 64.36,0 64.58,0 64.8,0 65.02,0 65.24,0 65.46,0 65.68,0 65.9,0 66.11,0 66.33,0 66.55,0 66.77,0 66.99,0 67.21,0 67.43,0 67.65,0 67.87,0 68.09,0 68.31,0 68.53,0 68.75,0 68.97,0 69.18,0 69.4,0 69.62,0 69.84,0 70.06,0 70.28,0 70.5,0 70.72,0 70.94,0 71.16,0 71.38,0 71.6,0 71.82,0 72.04,0 72.25,0 72.47,0 72.69,0 72.91,0 73.13,0 73.35,0 73.57,0 73.79,0 74.01,0 74.23,0 74.45,0 74.67,0 74.89,0 75.11,0 75.32,0 75.54,0 75.76,0 75.98,0 76.2,0 76.42,0 76.64,0 76.86,0 77.08,0 77.3,0 77.52,0 77.74,0 77.96,0 78.18,0 78.39,0 78.61,0 78.83,0 79.05,0 79.27,0 79.49,0 79.71,0 79.93,0 80.15,0 80.37,0 80.59,0 80.81,0 81.03,0 81.25,0 81.46,0 81.68,0 81.9,0 82.12,0 82.34,0 82.56,0 82.78,0 83,0 83.22,0 83.44,0 83.66,0 83.88,0 84.1,0 84.32,0 84.53,0 84.75,0 84.97,0 85.19,0 85.41,0 85.63,0 85.85,0 86.07,0 86.29,0 86.51,0 86.73,0 86.95,0 87.17,0 87.39,0 87.6,0 " class="primitive"/>
            </g>
          </g>
        </g>
        <g stroke-width="0.3" fill="#000000" fill-opacity="0.000" class="geometry" id="img-cc46d8fa-55">
          <g class="color_RGB{Float64}(1.129788599842918e-6,0.9656744892062866,0.9999999983677886)" stroke-dasharray="none" stroke="#00F6FF" id="img-cc46d8fa-56">
            <g transform="translate(121.71,38.94)" id="img-cc46d8fa-57">
              <path fill="none" d="M-87.6,0 L-87.39,0 -87.17,0 -86.95,0 -86.73,0 -86.51,0 -86.29,0 -86.07,0 -85.85,0 -85.63,0 -85.41,0 -85.19,0 -84.97,0 -84.75,0 -84.53,0 -84.32,0 -84.1,0 -83.88,0 -83.66,0 -83.44,0 -83.22,0 -83,0 -82.78,0 -82.56,0 -82.34,0 -82.12,0 -81.9,0 -81.68,0 -81.46,0 -81.25,0 -81.03,0 -80.81,0 -80.59,0 -80.37,0 -80.15,0 -79.93,0 -79.71,0 -79.49,0 -79.27,0 -79.05,0 -78.83,0 -78.61,0 -78.39,0 -78.18,0 -77.96,0 -77.74,0 -77.52,0 -77.3,0 -77.08,0 -76.86,0 -76.64,0 -76.42,0 -76.2,0 -75.98,0 -75.76,0 -75.54,0 -75.32,0 -75.11,0 -74.89,0 -74.67,0 -74.45,0 -74.23,0 -74.01,0 -73.79,0 -73.57,0 -73.35,0 -73.13,-0 -72.91,-0 -72.69,-0 -72.47,-0 -72.25,-0 -72.04,-0 -71.82,-0 -71.6,-0 -71.38,-0 -71.16,0 -70.94,0 -70.72,0 -70.5,0 -70.28,0 -70.06,0 -69.84,0 -69.62,0 -69.4,0 -69.18,0 -68.97,-0 -68.75,-0 -68.53,-0 -68.31,-0 -68.09,-0 -67.87,-0 -67.65,-0 -67.43,-0 -67.21,-0 -66.99,-0 -66.77,-0 -66.55,-0 -66.33,-0 -66.11,-0 -65.9,-0 -65.68,-0 -65.46,-0 -65.24,-0 -65.02,-0 -64.8,-0 -64.58,-0 -64.36,-0 -64.14,-0 -63.92,-0 -63.7,-0 -63.48,-0 -63.26,0 -63.04,0.01 -62.83,0.01 -62.61,0.01 -62.39,0.01 -62.17,0.01 -61.95,0.01 -61.73,0.01 -61.51,0.01 -61.29,0 -61.07,-0 -60.85,-0.01 -60.63,-0.01 -60.41,-0.01 -60.19,-0.01 -59.97,-0 -59.76,0 -59.54,0.01 -59.32,0.02 -59.1,0.03 -58.88,0.03 -58.66,0.02 -58.44,0.01 -58.22,-0.01 -58,-0.04 -57.78,-0.07 -57.56,-0.09 -57.34,-0.11 -57.12,-0.12 -56.9,-0.12 -56.69,-0.1 -56.47,-0.07 -56.25,-0.03 -56.03,0.02 -55.81,0.06 -55.59,0.1 -55.37,0.12 -55.15,0.11 -54.93,0.08 -54.71,0.02 -54.49,-0.06 -54.27,-0.15 -54.05,-0.23 -53.83,-0.29 -53.62,-0.31 -53.4,-0.27 -53.18,-0.17 -52.96,0 -52.74,0.23 -52.52,0.49 -52.3,0.76 -52.08,1 -51.86,1.18 -51.64,1.26 -51.42,1.21 -51.2,1.03 -50.98,0.71 -50.76,0.29 -50.55,-0.2 -50.33,-0.72 -50.11,-1.19 -49.89,-1.58 -49.67,-1.83 -49.45,-1.92 -49.23,-1.84 -49.01,-1.6 -48.79,-1.23 -48.57,-0.78 -48.35,-0.29 -48.13,0.19 -47.91,0.6 -47.69,0.92 -47.48,1.12 -47.26,1.2 -47.04,1.17 -46.82,1.06 -46.6,0.88 -46.38,0.66 -46.16,0.44 -45.94,0.23 -45.72,0.06 -45.5,-0.08 -45.28,-0.17 -45.06,-0.22 -44.84,-0.24 -44.62,-0.23 -44.41,-0.21 -44.19,-0.18 -43.97,-0.15 -43.75,-0.11 -43.53,-0.09 -43.31,-0.06 -43.09,-0.05 -42.87,-0.03 -42.65,-0.02 -42.43,-0.02 -42.21,-0.01 -41.99,-0.01 -41.77,-0.01 -41.55,-0 -41.34,-0 -41.12,-0 -40.9,-0 -40.68,-0 -40.46,-0 -40.24,-0 -40.02,-0 -39.8,-0 -39.58,-0 -39.36,-0 -39.14,-0 -38.92,-0 -38.7,-0 -38.48,0 -38.27,0 -38.05,0 -37.83,0 -37.61,0 -37.39,0 -37.17,0 -36.95,0 -36.73,0 -36.51,0 -36.29,0 -36.07,0 -35.85,0 -35.63,0 -35.41,0 -35.2,0 -34.98,0 -34.76,0 -34.54,0 -34.32,0 -34.1,0 -33.88,0 -33.66,0 -33.44,0 -33.22,0 -33,0 -32.78,0 -32.56,0 -32.34,0 -32.13,0 -31.91,0 -31.69,0 -31.47,0 -31.25,0 -31.03,0 -30.81,0 -30.59,0 -30.37,0 -30.15,0 -29.93,0 -29.71,0 -29.49,0 -29.27,0 -29.06,0 -28.84,0 -28.62,0 -28.4,0 -28.18,0 -27.96,0 -27.74,0 -27.52,0 -27.3,0 -27.08,0 -26.86,0 -26.64,0 -26.42,0 -26.2,0 -25.99,0 -25.77,0 -25.55,0 -25.33,0 -25.11,0 -24.89,0 -24.67,0 -24.45,0 -24.23,0 -24.01,0 -23.79,0 -23.57,0 -23.35,0 -23.13,0 -22.92,0 -22.7,0 -22.48,0 -22.26,0 -22.04,0 -21.82,0 -21.6,0 -21.38,0 -21.16,0 -20.94,0 -20.72,0 -20.5,0 -20.28,0 -20.06,0 -19.85,0 -19.63,0 -19.41,0 -19.19,0 -18.97,0 -18.75,0 -18.53,0 -18.31,0 -18.09,0 -17.87,0 -17.65,0 -17.43,0 -17.21,0 -16.99,0 -16.78,0 -16.56,0 -16.34,0 -16.12,0 -15.9,0 -15.68,0 -15.46,0 -15.24,0 -15.02,0 -14.8,0 -14.58,0 -14.36,0 -14.14,0 -13.92,0 -13.71,0 -13.49,0 -13.27,0 -13.05,0 -12.83,0 -12.61,0 -12.39,0 -12.17,0 -11.95,0 -11.73,0 -11.51,0 -11.29,0 -11.07,0 -10.85,0 -10.64,0 -10.42,0 -10.2,0 -9.98,0 -9.76,0 -9.54,0 -9.32,0 -9.1,0 -8.88,0 -8.66,0 -8.44,0 -8.22,0 -8,0 -7.78,0 -7.57,0 -7.35,0 -7.13,0 -6.91,0 -6.69,0 -6.47,0 -6.25,0 -6.03,0 -5.81,0 -5.59,0 -5.37,0 -5.15,0 -4.93,0 -4.71,0 -4.5,0 -4.28,0 -4.06,0 -3.84,0 -3.62,0 -3.4,0 -3.18,0 -2.96,0 -2.74,0 -2.52,0 -2.3,0 -2.08,0 -1.86,0 -1.64,0 -1.43,0 -1.21,0 -0.99,0 -0.77,0 -0.55,0 -0.33,0 -0.11,0 0.11,0 0.33,0 0.55,0 0.77,0 0.99,0 1.21,0 1.43,0 1.64,0 1.86,0 2.08,0 2.3,0 2.52,0 2.74,0 2.96,0 3.18,0 3.4,0 3.62,0 3.84,0 4.06,0 4.28,0 4.5,0 4.71,0 4.93,0 5.15,0 5.37,0 5.59,0 5.81,0 6.03,0 6.25,0 6.47,0 6.69,0 6.91,0 7.13,0 7.35,0 7.57,0 7.78,0 8,0 8.22,0 8.44,0 8.66,0 8.88,0 9.1,0 9.32,0 9.54,0 9.76,0 9.98,0 10.2,0 10.42,0 10.64,0 10.85,0 11.07,0 11.29,0 11.51,0 11.73,0 11.95,0 12.17,0 12.39,0 12.61,0 12.83,0 13.05,0 13.27,0 13.49,0 13.71,0 13.92,0 14.14,0 14.36,0 14.58,0 14.8,0 15.02,0 15.24,0 15.46,0 15.68,0 15.9,0 16.12,0 16.34,0 16.56,0 16.78,0 16.99,0 17.21,0 17.43,0 17.65,0 17.87,0 18.09,0 18.31,0 18.53,0 18.75,0 18.97,0 19.19,0 19.41,0 19.63,0 19.85,0 20.06,0 20.28,0 20.5,0 20.72,0 20.94,0 21.16,0 21.38,0 21.6,0 21.82,0 22.04,0 22.26,0 22.48,0 22.7,0 22.92,0 23.13,0 23.35,0 23.57,0 23.79,0 24.01,0 24.23,0 24.45,0 24.67,0 24.89,0 25.11,0 25.33,0 25.55,0 25.77,0 25.99,0 26.2,0 26.42,0 26.64,0 26.86,0 27.08,0 27.3,0 27.52,0 27.74,0 27.96,0 28.18,0 28.4,0 28.62,0 28.84,0 29.06,0 29.27,0 29.49,0 29.71,0 29.93,0 30.15,0 30.37,0 30.59,0 30.81,0 31.03,0 31.25,0 31.47,0 31.69,0 31.91,0 32.13,0 32.34,0 32.56,0 32.78,0 33,0 33.22,0 33.44,0 33.66,0 33.88,0 34.1,0 34.32,0 34.54,0 34.76,0 34.98,0 35.2,0 35.41,0 35.63,0 35.85,0 36.07,0 36.29,0 36.51,0 36.73,0 36.95,0 37.17,0 37.39,0 37.61,0 37.83,0 38.05,0 38.27,0 38.48,0 38.7,0 38.92,0 39.14,0 39.36,0 39.58,0 39.8,0 40.02,0 40.24,0 40.46,0 40.68,0 40.9,0 41.12,0 41.34,0 41.55,0 41.77,0 41.99,0 42.21,0 42.43,0 42.65,0 42.87,0 43.09,0 43.31,0 43.53,0 43.75,0 43.97,0 44.19,0 44.41,0 44.62,0 44.84,0 45.06,0 45.28,0 45.5,0 45.72,0 45.94,0 46.16,0 46.38,0 46.6,0 46.82,0 47.04,0 47.26,0 47.48,0 47.69,0 47.91,0 48.13,0 48.35,0 48.57,0 48.79,0 49.01,0 49.23,0 49.45,0 49.67,0 49.89,0 50.11,0 50.33,0 50.55,0 50.76,0 50.98,0 51.2,0 51.42,0 51.64,0 51.86,0 52.08,0 52.3,0 52.52,0 52.74,0 52.96,0 53.18,0 53.4,0 53.62,0 53.83,0 54.05,0 54.27,0 54.49,0 54.71,0 54.93,0 55.15,0 55.37,0 55.59,0 55.81,0 56.03,0 56.25,0 56.47,0 56.69,0 56.9,0 57.12,0 57.34,0 57.56,0 57.78,0 58,0 58.22,0 58.44,0 58.66,0 58.88,0 59.1,0 59.32,0 59.54,0 59.76,0 59.97,0 60.19,0 60.41,0 60.63,0 60.85,0 61.07,0 61.29,0 61.51,0 61.73,0 61.95,0 62.17,0 62.39,0 62.61,0 62.83,0 63.04,0 63.26,0 63.48,0 63.7,0 63.92,0 64.14,0 64.36,0 64.58,0 64.8,0 65.02,0 65.24,0 65.46,0 65.68,0 65.9,0 66.11,0 66.33,0 66.55,0 66.77,0 66.99,0 67.21,0 67.43,0 67.65,0 67.87,0 68.09,0 68.31,0 68.53,0 68.75,0 68.97,0 69.18,0 69.4,0 69.62,0 69.84,0 70.06,0 70.28,0 70.5,0 70.72,0 70.94,0 71.16,0 71.38,0 71.6,0 71.82,0 72.04,0 72.25,0 72.47,0 72.69,0 72.91,0 73.13,0 73.35,0 73.57,0 73.79,0 74.01,0 74.23,0 74.45,0 74.67,0 74.89,0 75.11,0 75.32,0 75.54,0 75.76,0 75.98,0 76.2,0 76.42,0 76.64,0 76.86,0 77.08,0 77.3,0 77.52,0 77.74,0 77.96,0 78.18,0 78.39,0 78.61,0 78.83,0 79.05,0 79.27,0 79.49,0 79.71,0 79.93,0 80.15,0 80.37,0 80.59,0 80.81,0 81.03,0 81.25,0 81.46,0 81.68,0 81.9,0 82.12,0 82.34,0 82.56,0 82.78,0 83,0 83.22,0 83.44,0 83.66,0 83.88,0 84.1,0 84.32,0 84.53,0 84.75,0 84.97,0 85.19,0 85.41,0 85.63,0 85.85,0 86.07,0 86.29,0 86.51,0 86.73,0 86.95,0 87.17,0 87.39,0 87.6,0 " class="primitive"/>
            </g>
          </g>
        </g>
        <g stroke-width="0.3" fill="#000000" fill-opacity="0.000" class="geometry" id="img-cc46d8fa-58">
          <g class="color_RGB{Float64}(0.33966099277017664,0.410613827048125,0.4101742974306824)" stroke-dasharray="none" stroke="#576969" id="img-cc46d8fa-59">
            <g transform="translate(121.71,38.94)" id="img-cc46d8fa-60">
              <path fill="none" d="M-87.6,0 L-87.39,0 -87.17,0 -86.95,0 -86.73,0 -86.51,0 -86.29,0 -86.07,0 -85.85,0 -85.63,0 -85.41,0 -85.19,0 -84.97,0 -84.75,0 -84.53,0 -84.32,0 -84.1,0 -83.88,0 -83.66,0 -83.44,0 -83.22,0 -83,0 -82.78,0 -82.56,0 -82.34,0 -82.12,0 -81.9,0 -81.68,0 -81.46,0 -81.25,0 -81.03,0 -80.81,0 -80.59,0 -80.37,0 -80.15,0 -79.93,0 -79.71,0 -79.49,0 -79.27,0 -79.05,0 -78.83,0 -78.61,0 -78.39,0 -78.18,0 -77.96,0 -77.74,0 -77.52,0 -77.3,0 -77.08,0 -76.86,0 -76.64,0 -76.42,0 -76.2,0 -75.98,0 -75.76,0 -75.54,0 -75.32,0 -75.11,0 -74.89,0 -74.67,0 -74.45,0 -74.23,0 -74.01,0 -73.79,0 -73.57,0 -73.35,0 -73.13,0 -72.91,0 -72.69,0 -72.47,0 -72.25,0 -72.04,0 -71.82,0 -71.6,0 -71.38,0 -71.16,0 -70.94,0 -70.72,0 -70.5,0 -70.28,0 -70.06,0 -69.84,0 -69.62,0 -69.4,0 -69.18,0 -68.97,0 -68.75,0 -68.53,0 -68.31,0 -68.09,0 -67.87,0 -67.65,0 -67.43,0 -67.21,0 -66.99,0 -66.77,0 -66.55,0 -66.33,0 -66.11,0 -65.9,0 -65.68,0 -65.46,0 -65.24,0 -65.02,0 -64.8,0 -64.58,0 -64.36,0 -64.14,0 -63.92,0 -63.7,0 -63.48,0 -63.26,0 -63.04,0 -62.83,0 -62.61,0 -62.39,0 -62.17,0 -61.95,0 -61.73,0 -61.51,0 -61.29,0 -61.07,0 -60.85,0 -60.63,0 -60.41,0 -60.19,0 -59.97,0 -59.76,0 -59.54,0 -59.32,0 -59.1,0 -58.88,0 -58.66,0 -58.44,0 -58.22,0 -58,0 -57.78,0 -57.56,0 -57.34,0 -57.12,0 -56.9,0 -56.69,0 -56.47,0 -56.25,0 -56.03,0 -55.81,0 -55.59,0 -55.37,0 -55.15,0 -54.93,0 -54.71,0 -54.49,0 -54.27,0 -54.05,0 -53.83,0 -53.62,0 -53.4,0 -53.18,0 -52.96,0 -52.74,0 -52.52,0 -52.3,0 -52.08,0 -51.86,0 -51.64,0 -51.42,0 -51.2,0 -50.98,0 -50.76,0 -50.55,0 -50.33,0 -50.11,0 -49.89,0 -49.67,0 -49.45,0 -49.23,0 -49.01,0 -48.79,0 -48.57,0 -48.35,0 -48.13,0 -47.91,0 -47.69,0 -47.48,0 -47.26,0 -47.04,0 -46.82,0 -46.6,0 -46.38,0 -46.16,0 -45.94,0 -45.72,0 -45.5,0 -45.28,0 -45.06,0 -44.84,0 -44.62,0 -44.41,0 -44.19,0 -43.97,0 -43.75,0 -43.53,0 -43.31,0 -43.09,0 -42.87,0 -42.65,0 -42.43,0 -42.21,0 -41.99,0 -41.77,0 -41.55,0 -41.34,0 -41.12,0 -40.9,0 -40.68,0 -40.46,0 -40.24,0 -40.02,0 -39.8,0 -39.58,0 -39.36,0 -39.14,0 -38.92,0 -38.7,0 -38.48,0 -38.27,0 -38.05,0 -37.83,0 -37.61,0 -37.39,0 -37.17,0 -36.95,0 -36.73,0 -36.51,0 -36.29,0 -36.07,0 -35.85,0 -35.63,0 -35.41,0 -35.2,0 -34.98,0 -34.76,0 -34.54,0 -34.32,0 -34.1,0 -33.88,0 -33.66,0 -33.44,0 -33.22,0 -33,0 -32.78,0 -32.56,0 -32.34,0 -32.13,0 -31.91,0 -31.69,0 -31.47,0 -31.25,0 -31.03,0 -30.81,0 -30.59,0 -30.37,0 -30.15,0 -29.93,0 -29.71,0 -29.49,0 -29.27,0 -29.06,0 -28.84,0 -28.62,0 -28.4,0 -28.18,0 -27.96,0 -27.74,0 -27.52,0 -27.3,0 -27.08,0 -26.86,0 -26.64,0 -26.42,0 -26.2,0 -25.99,0 -25.77,0 -25.55,0 -25.33,0 -25.11,0 -24.89,0 -24.67,0 -24.45,0 -24.23,0 -24.01,0 -23.79,0 -23.57,0 -23.35,0 -23.13,0 -22.92,0 -22.7,0 -22.48,0 -22.26,0 -22.04,0 -21.82,0 -21.6,0 -21.38,0 -21.16,0 -20.94,0 -20.72,0 -20.5,0 -20.28,0 -20.06,0 -19.85,0 -19.63,0 -19.41,0 -19.19,0 -18.97,0 -18.75,0 -18.53,0 -18.31,0 -18.09,0 -17.87,0 -17.65,0 -17.43,0 -17.21,0 -16.99,0 -16.78,0 -16.56,0 -16.34,0 -16.12,0 -15.9,0 -15.68,0 -15.46,0 -15.24,0 -15.02,0 -14.8,0 -14.58,0 -14.36,0 -14.14,0 -13.92,0 -13.71,0 -13.49,0 -13.27,0 -13.05,0 -12.83,0 -12.61,0 -12.39,0 -12.17,0 -11.95,0 -11.73,0 -11.51,0 -11.29,0 -11.07,0 -10.85,0 -10.64,0 -10.42,0 -10.2,0 -9.98,0 -9.76,0 -9.54,0 -9.32,0 -9.1,0 -8.88,0 -8.66,0 -8.44,0 -8.22,0 -8,0 -7.78,0 -7.57,0 -7.35,0 -7.13,0 -6.91,0 -6.69,0 -6.47,0 -6.25,0 -6.03,0 -5.81,0 -5.59,0 -5.37,0 -5.15,0 -4.93,0 -4.71,0 -4.5,0 -4.28,0 -4.06,0 -3.84,0 -3.62,0 -3.4,0 -3.18,0 -2.96,0 -2.74,0 -2.52,0 -2.3,0 -2.08,0 -1.86,0 -1.64,0 -1.43,0 -1.21,0 -0.99,0 -0.77,0 -0.55,0 -0.33,0 -0.11,0 0.11,0 0.33,0 0.55,0 0.77,0 0.99,0 1.21,0 1.43,0 1.64,0 1.86,0 2.08,0 2.3,0 2.52,0 2.74,0 2.96,0 3.18,0 3.4,0 3.62,0 3.84,0 4.06,0 4.28,0 4.5,0 4.71,0 4.93,0 5.15,0 5.37,0 5.59,0 5.81,0 6.03,0 6.25,0 6.47,0 6.69,0 6.91,0 7.13,0 7.35,0 7.57,0 7.78,0 8,0 8.22,0 8.44,0 8.66,0 8.88,0 9.1,0 9.32,0 9.54,0 9.76,0 9.98,0 10.2,0 10.42,0 10.64,0 10.85,0 11.07,0 11.29,0 11.51,0 11.73,0 11.95,0 12.17,0 12.39,0 12.61,0 12.83,0 13.05,0 13.27,0 13.49,0 13.71,0 13.92,0 14.14,0 14.36,0 14.58,0 14.8,0 15.02,0 15.24,0 15.46,0 15.68,0 15.9,0 16.12,0 16.34,0 16.56,0 16.78,0 16.99,0 17.21,0 17.43,0 17.65,0 17.87,0 18.09,0 18.31,0 18.53,0 18.75,0 18.97,0 19.19,0 19.41,0 19.63,0 19.85,0 20.06,0 20.28,0 20.5,0 20.72,0 20.94,0 21.16,0 21.38,0 21.6,0 21.82,0 22.04,0 22.26,0 22.48,0 22.7,0 22.92,0 23.13,0 23.35,0 23.57,0 23.79,0 24.01,0 24.23,0 24.45,0 24.67,0 24.89,0 25.11,0 25.33,0 25.55,0 25.77,0 25.99,0 26.2,0 26.42,0 26.64,0 26.86,0 27.08,0 27.3,0 27.52,0 27.74,0 27.96,0 28.18,0 28.4,0 28.62,0 28.84,0 29.06,0 29.27,0 29.49,0 29.71,0 29.93,0 30.15,0 30.37,0 30.59,0 30.81,0 31.03,0 31.25,0 31.47,0 31.69,0 31.91,0 32.13,0 32.34,0 32.56,0 32.78,0 33,0 33.22,0 33.44,0 33.66,0 33.88,0 34.1,0 34.32,0 34.54,0 34.76,0 34.98,0 35.2,0 35.41,0 35.63,0 35.85,0 36.07,0 36.29,0 36.51,0 36.73,0 36.95,0 37.17,0 37.39,0 37.61,0 37.83,0 38.05,0 38.27,0 38.48,0 38.7,0 38.92,0 39.14,0 39.36,0 39.58,0 39.8,0 40.02,0 40.24,0 40.46,0 40.68,0 40.9,0 41.12,0 41.34,0 41.55,0 41.77,0 41.99,0 42.21,0 42.43,0 42.65,0 42.87,0 43.09,0 43.31,0 43.53,0 43.75,0 43.97,0 44.19,0 44.41,0 44.62,0 44.84,0 45.06,0 45.28,0 45.5,0 45.72,0 45.94,0 46.16,0 46.38,0 46.6,0 46.82,-0 47.04,-0 47.26,-0 47.48,-0 47.69,-0 47.91,-0 48.13,-0 48.35,-0 48.57,-0 48.79,-0 49.01,-0 49.23,-0 49.45,-0 49.67,-0 49.89,-0 50.11,-0 50.33,-0 50.55,-0 50.76,-0 50.98,0 51.2,0 51.42,0 51.64,0 51.86,0.01 52.08,0.01 52.3,0.01 52.52,0.01 52.74,0.01 52.96,0.01 53.18,0.01 53.4,0.01 53.62,0 53.83,0 54.05,0 54.27,-0 54.49,-0.01 54.71,-0.01 54.93,-0.02 55.15,-0.03 55.37,-0.05 55.59,-0.07 55.81,-0.1 56.03,-0.14 56.25,-0.19 56.47,-0.26 56.69,-0.35 56.9,-0.46 57.12,-0.6 57.34,-0.76 57.56,-0.95 57.78,-1.17 58,-1.41 58.22,-1.66 58.44,-1.92 58.66,-2.18 58.88,-2.41 59.1,-2.6 59.32,-2.74 59.54,-2.79 59.76,-2.73 59.97,-2.54 60.19,-2.2 60.41,-1.68 60.63,-0.99 60.85,-0.12 61.07,0.93 61.29,2.15 61.51,3.5 61.73,4.94 61.95,6.44 62.17,7.93 62.39,9.35 62.61,10.62 62.83,11.68 63.04,12.45 63.26,12.88 63.48,12.9 63.7,12.47 63.92,11.58 64.14,10.21 64.36,8.39 64.58,6.14 64.8,3.54 65.02,0.66 65.24,-2.4 65.46,-5.53 65.68,-8.62 65.9,-11.55 66.11,-14.21 66.33,-16.48 66.55,-18.28 66.77,-19.52 66.99,-20.16 67.21,-20.17 67.43,-19.56 67.65,-18.34 67.87,-16.57 68.09,-14.32 68.31,-11.68 68.53,-8.77 68.75,-5.7 68.97,-2.57 69.18,0.49 69.4,3.39 69.62,6.01 69.84,8.3 70.06,10.18 70.28,11.62 70.5,12.59 70.72,13.1 70.94,13.17 71.16,12.84 71.38,12.15 71.6,11.17 71.82,9.96 72.04,8.59 72.25,7.12 72.47,5.63 72.69,4.16 72.91,2.76 73.13,1.49 73.35,0.35 73.57,-0.62 73.79,-1.41 74.01,-2.02 74.23,-2.47 74.45,-2.75 74.67,-2.9 74.89,-2.93 75.11,-2.86 75.32,-2.71 75.54,-2.5 75.76,-2.27 75.98,-2.01 76.2,-1.74 76.42,-1.49 76.64,-1.25 76.86,-1.02 77.08,-0.83 77.3,-0.66 77.52,-0.51 77.74,-0.39 77.96,-0.29 78.18,-0.22 78.39,-0.16 78.61,-0.11 78.83,-0.08 79.05,-0.05 79.27,-0.03 79.49,-0.02 79.71,-0.01 79.93,-0.01 80.15,-0 80.37,-0 80.59,-0 80.81,-0 81.03,-0 81.25,-0 81.46,0 81.68,0 81.9,0 82.12,0 82.34,0 82.56,0 82.78,0 83,0 83.22,0 83.44,0 83.66,0 83.88,0 84.1,0 84.32,0 84.53,0 84.75,0 84.97,0 85.19,0 85.41,0 85.63,0 85.85,0 86.07,0 86.29,0 86.51,0 86.73,0 86.95,0 87.17,0 87.39,0 87.6,0 " class="primitive"/>
            </g>
          </g>
        </g>
        <g stroke-width="0.3" fill="#000000" fill-opacity="0.000" class="geometry" id="img-cc46d8fa-61">
          <g class="color_RGB{Float64}(0.9999999299185004,0.8169524107513291,0.0)" stroke-dasharray="none" stroke="#FFD000" id="img-cc46d8fa-62">
            <g transform="translate(121.71,38.94)" id="img-cc46d8fa-63">
              <path fill="none" d="M-87.6,0 L-87.39,0 -87.17,0 -86.95,0 -86.73,0 -86.51,0 -86.29,0 -86.07,0 -85.85,0 -85.63,0 -85.41,0 -85.19,0 -84.97,0 -84.75,0 -84.53,0 -84.32,0 -84.1,0 -83.88,0 -83.66,0 -83.44,0 -83.22,0 -83,0 -82.78,0 -82.56,0 -82.34,0 -82.12,0 -81.9,0 -81.68,0 -81.46,0 -81.25,0 -81.03,0 -80.81,0 -80.59,0 -80.37,0 -80.15,0 -79.93,0 -79.71,0 -79.49,0 -79.27,0 -79.05,0 -78.83,0 -78.61,0 -78.39,0 -78.18,0 -77.96,0 -77.74,0 -77.52,0 -77.3,0 -77.08,0 -76.86,0 -76.64,0 -76.42,0 -76.2,0 -75.98,0 -75.76,0 -75.54,0 -75.32,0 -75.11,0 -74.89,0 -74.67,0 -74.45,0 -74.23,0 -74.01,0 -73.79,0 -73.57,0 -73.35,0 -73.13,0 -72.91,0 -72.69,0 -72.47,0 -72.25,0 -72.04,0 -71.82,0 -71.6,0 -71.38,0 -71.16,0 -70.94,0 -70.72,0 -70.5,0 -70.28,0 -70.06,0 -69.84,0 -69.62,0 -69.4,0 -69.18,0 -68.97,0 -68.75,0 -68.53,0 -68.31,0 -68.09,0 -67.87,0 -67.65,0 -67.43,0 -67.21,0 -66.99,0 -66.77,0 -66.55,0 -66.33,0 -66.11,0 -65.9,0 -65.68,0 -65.46,0 -65.24,0 -65.02,0 -64.8,0 -64.58,0 -64.36,0 -64.14,0 -63.92,0 -63.7,0 -63.48,0 -63.26,0 -63.04,0 -62.83,0 -62.61,0 -62.39,0 -62.17,0 -61.95,0 -61.73,0 -61.51,0 -61.29,0 -61.07,0 -60.85,0 -60.63,0 -60.41,0 -60.19,0 -59.97,0 -59.76,0 -59.54,0 -59.32,0 -59.1,0 -58.88,0 -58.66,0 -58.44,0 -58.22,0 -58,0 -57.78,0 -57.56,0 -57.34,0 -57.12,0 -56.9,0 -56.69,0 -56.47,0 -56.25,0 -56.03,0 -55.81,0 -55.59,0 -55.37,0 -55.15,0 -54.93,0 -54.71,0 -54.49,0 -54.27,0 -54.05,0 -53.83,0 -53.62,0 -53.4,0 -53.18,0 -52.96,0 -52.74,0 -52.52,0 -52.3,0 -52.08,0 -51.86,0 -51.64,0 -51.42,0 -51.2,0 -50.98,0 -50.76,0 -50.55,0 -50.33,0 -50.11,0 -49.89,0 -49.67,0 -49.45,0 -49.23,0 -49.01,0 -48.79,0 -48.57,0 -48.35,0 -48.13,0 -47.91,0 -47.69,0 -47.48,0 -47.26,0 -47.04,0 -46.82,0 -46.6,0 -46.38,0 -46.16,0 -45.94,0 -45.72,0 -45.5,0 -45.28,0 -45.06,0 -44.84,0 -44.62,0 -44.41,0 -44.19,0 -43.97,0 -43.75,0 -43.53,0 -43.31,0 -43.09,0 -42.87,0 -42.65,0 -42.43,0 -42.21,0 -41.99,0 -41.77,0 -41.55,0 -41.34,0 -41.12,0 -40.9,0 -40.68,0 -40.46,0 -40.24,0 -40.02,0 -39.8,0 -39.58,0 -39.36,0 -39.14,0 -38.92,0 -38.7,0 -38.48,0 -38.27,0 -38.05,0 -37.83,0 -37.61,0 -37.39,0 -37.17,0 -36.95,0 -36.73,0 -36.51,0 -36.29,0 -36.07,0 -35.85,0 -35.63,0 -35.41,0 -35.2,0 -34.98,0 -34.76,0 -34.54,0 -34.32,0 -34.1,0 -33.88,0 -33.66,0 -33.44,0 -33.22,0 -33,0 -32.78,0 -32.56,0 -32.34,0 -32.13,0 -31.91,0 -31.69,0 -31.47,0 -31.25,0 -31.03,0 -30.81,0 -30.59,0 -30.37,0 -30.15,0 -29.93,0 -29.71,0 -29.49,0 -29.27,0 -29.06,0 -28.84,0 -28.62,0 -28.4,0 -28.18,0 -27.96,0 -27.74,0 -27.52,0 -27.3,0 -27.08,0 -26.86,0 -26.64,0 -26.42,0 -26.2,0 -25.99,0 -25.77,0 -25.55,0 -25.33,0 -25.11,0 -24.89,0 -24.67,0 -24.45,0 -24.23,0 -24.01,0 -23.79,0 -23.57,0 -23.35,0 -23.13,0 -22.92,0 -22.7,0 -22.48,0 -22.26,0 -22.04,0 -21.82,0 -21.6,0 -21.38,0 -21.16,0 -20.94,0 -20.72,0 -20.5,0 -20.28,0 -20.06,0 -19.85,0 -19.63,0 -19.41,0 -19.19,0 -18.97,0 -18.75,0 -18.53,0 -18.31,0 -18.09,0 -17.87,0 -17.65,0 -17.43,0 -17.21,0 -16.99,0 -16.78,0 -16.56,0 -16.34,0 -16.12,0 -15.9,0 -15.68,0 -15.46,0 -15.24,0 -15.02,0 -14.8,0 -14.58,0 -14.36,0 -14.14,0 -13.92,0 -13.71,0 -13.49,0 -13.27,0 -13.05,0 -12.83,0 -12.61,0 -12.39,0 -12.17,0 -11.95,0 -11.73,0 -11.51,0 -11.29,0 -11.07,0 -10.85,0 -10.64,0 -10.42,0 -10.2,0 -9.98,0 -9.76,0 -9.54,0 -9.32,0 -9.1,0 -8.88,0 -8.66,0 -8.44,0 -8.22,0 -8,0 -7.78,0 -7.57,0 -7.35,0 -7.13,0 -6.91,0 -6.69,0 -6.47,0 -6.25,0 -6.03,0 -5.81,0 -5.59,0 -5.37,0 -5.15,0 -4.93,0 -4.71,0 -4.5,0 -4.28,0 -4.06,0 -3.84,0 -3.62,0 -3.4,0 -3.18,0 -2.96,0 -2.74,0 -2.52,0 -2.3,0 -2.08,0 -1.86,0 -1.64,0 -1.43,0 -1.21,0 -0.99,0 -0.77,0 -0.55,0 -0.33,0 -0.11,0 0.11,0 0.33,0 0.55,0 0.77,0 0.99,0 1.21,0 1.43,0 1.64,0 1.86,0 2.08,0 2.3,0 2.52,0 2.74,0 2.96,0 3.18,0 3.4,0 3.62,0 3.84,0 4.06,0 4.28,0 4.5,0 4.71,0 4.93,0 5.15,0 5.37,0 5.59,0 5.81,0 6.03,0 6.25,0 6.47,0 6.69,0 6.91,0 7.13,0 7.35,0 7.57,0 7.78,0 8,0 8.22,0 8.44,0 8.66,0 8.88,0 9.1,0 9.32,0 9.54,0 9.76,0 9.98,0 10.2,0 10.42,0 10.64,0 10.85,0 11.07,0 11.29,0 11.51,0 11.73,0 11.95,0 12.17,0 12.39,0 12.61,0 12.83,0 13.05,0 13.27,0 13.49,0 13.71,0 13.92,0 14.14,0 14.36,0 14.58,0 14.8,0 15.02,0 15.24,0 15.46,0 15.68,0 15.9,0 16.12,0 16.34,0 16.56,0 16.78,0 16.99,0 17.21,0 17.43,0 17.65,0 17.87,0 18.09,0 18.31,0 18.53,0 18.75,0 18.97,0 19.19,0 19.41,0 19.63,0 19.85,0 20.06,0 20.28,0 20.5,0 20.72,0 20.94,0 21.16,0 21.38,0 21.6,0 21.82,0 22.04,0 22.26,0 22.48,0 22.7,0 22.92,0 23.13,0 23.35,0 23.57,0 23.79,0 24.01,0 24.23,0 24.45,0 24.67,0 24.89,0 25.11,0 25.33,0 25.55,0 25.77,0 25.99,0 26.2,0 26.42,0 26.64,0 26.86,0 27.08,0 27.3,0 27.52,0 27.74,0 27.96,0 28.18,0 28.4,0 28.62,0 28.84,0 29.06,0 29.27,0 29.49,0 29.71,0 29.93,0 30.15,0 30.37,0 30.59,0 30.81,0 31.03,0 31.25,0 31.47,0 31.69,0 31.91,0 32.13,0 32.34,0 32.56,0 32.78,0 33,0 33.22,0 33.44,0 33.66,0 33.88,0 34.1,0 34.32,0 34.54,0 34.76,0 34.98,0 35.2,0 35.41,0 35.63,0 35.85,0 36.07,0 36.29,0 36.51,0 36.73,0 36.95,0 37.17,0 37.39,0 37.61,0 37.83,-0 38.05,-0 38.27,-0 38.48,-0 38.7,-0 38.92,-0 39.14,-0 39.36,-0 39.58,-0 39.8,-0 40.02,-0 40.24,-0 40.46,-0 40.68,-0 40.9,-0 41.12,-0 41.34,-0 41.55,-0.01 41.77,-0.01 41.99,-0.01 42.21,-0.02 42.43,-0.03 42.65,-0.04 42.87,-0.05 43.09,-0.07 43.31,-0.09 43.53,-0.12 43.75,-0.15 43.97,-0.18 44.19,-0.22 44.41,-0.25 44.62,-0.29 44.84,-0.33 45.06,-0.36 45.28,-0.38 45.5,-0.39 45.72,-0.38 45.94,-0.35 46.16,-0.3 46.38,-0.23 46.6,-0.13 46.82,0 47.04,0.16 47.26,0.34 47.48,0.54 47.69,0.75 47.91,0.96 48.13,1.17 48.35,1.36 48.57,1.52 48.79,1.65 49.01,1.73 49.23,1.75 49.45,1.7 49.67,1.59 49.89,1.4 50.11,1.15 50.33,0.84 50.55,0.47 50.76,0.07 50.98,-0.36 51.2,-0.8 51.42,-1.23 51.64,-1.63 51.86,-1.99 52.08,-2.28 52.3,-2.5 52.52,-2.64 52.74,-2.69 52.96,-2.64 53.18,-2.51 53.4,-2.29 53.62,-2 53.83,-1.64 54.05,-1.25 54.27,-0.82 54.49,-0.39 54.71,0.03 54.93,0.43 55.15,0.8 55.37,1.11 55.59,1.36 55.81,1.55 56.03,1.67 56.25,1.73 56.47,1.72 56.69,1.66 56.9,1.55 57.12,1.4 57.34,1.22 57.56,1.02 57.78,0.82 58,0.61 58.22,0.42 58.44,0.24 58.66,0.08 58.88,-0.06 59.1,-0.17 59.32,-0.26 59.54,-0.32 59.76,-0.36 59.97,-0.38 60.19,-0.38 60.41,-0.37 60.63,-0.35 60.85,-0.32 61.07,-0.28 61.29,-0.25 61.51,-0.21 61.73,-0.18 61.95,-0.15 62.17,-0.12 62.39,-0.09 62.61,-0.07 62.83,-0.06 63.04,-0.04 63.26,-0.03 63.48,-0.02 63.7,-0.02 63.92,-0.01 64.14,-0.01 64.36,-0 64.58,-0 64.8,-0 65.02,-0 65.24,-0 65.46,-0 65.68,0 65.9,0 66.11,0 66.33,0 66.55,0 66.77,0 66.99,0 67.21,0 67.43,0 67.65,0 67.87,0 68.09,0 68.31,0 68.53,0 68.75,0 68.97,0 69.18,-0 69.4,-0 69.62,-0 69.84,-0 70.06,-0 70.28,-0 70.5,-0 70.72,-0 70.94,-0 71.16,-0 71.38,-0 71.6,-0 71.82,-0 72.04,-0 72.25,-0 72.47,-0 72.69,-0 72.91,-0 73.13,-0 73.35,-0 73.57,0 73.79,0 74.01,0 74.23,0 74.45,0 74.67,0 74.89,0 75.11,0 75.32,0 75.54,0 75.76,0 75.98,0 76.2,0 76.42,0 76.64,0 76.86,0 77.08,0 77.3,0 77.52,0 77.74,0 77.96,0 78.18,0 78.39,0 78.61,0 78.83,0 79.05,0 79.27,0 79.49,0 79.71,0 79.93,0 80.15,0 80.37,0 80.59,0 80.81,0 81.03,0 81.25,0 81.46,-0 81.68,-0 81.9,-0 82.12,-0 82.34,-0 82.56,0 82.78,0 83,0 83.22,0 83.44,0 83.66,0 83.88,0 84.1,0 84.32,0 84.53,0 84.75,0 84.97,0 85.19,0 85.41,0 85.63,0 85.85,0 86.07,0 86.29,0 86.51,0 86.73,0 86.95,0 87.17,0 87.39,0 87.6,0 " class="primitive"/>
            </g>
          </g>
        </g>
        <g stroke-width="0.3" fill="#000000" fill-opacity="0.000" class="geometry" id="img-cc46d8fa-64">
          <g class="color_RGB{Float64}(1.641689488274256e-7,0.0,0.5407779017411706)" stroke-dasharray="none" stroke="#00008A" id="img-cc46d8fa-65">
            <g transform="translate(121.71,38.94)" id="img-cc46d8fa-66">
              <path fill="none" d="M-87.6,0 L-87.39,0 -87.17,0 -86.95,0 -86.73,0 -86.51,0 -86.29,0 -86.07,0 -85.85,0 -85.63,0 -85.41,0 -85.19,0 -84.97,0 -84.75,0 -84.53,0 -84.32,0 -84.1,0 -83.88,0 -83.66,0 -83.44,0 -83.22,0 -83,-0 -82.78,-0 -82.56,-0 -82.34,-0 -82.12,-0 -81.9,-0 -81.68,-0 -81.46,-0 -81.25,-0.01 -81.03,-0.01 -80.81,-0.02 -80.59,-0.04 -80.37,-0.06 -80.15,-0.09 -79.93,-0.12 -79.71,-0.14 -79.49,-0.13 -79.27,-0.1 -79.05,-0.04 -78.83,0.04 -78.61,0.11 -78.39,0.15 -78.18,0.14 -77.96,0.05 -77.74,-0.1 -77.52,-0.28 -77.3,-0.45 -77.08,-0.55 -76.86,-0.54 -76.64,-0.43 -76.42,-0.24 -76.2,-0.01 -75.98,0.19 -75.76,0.36 -75.54,0.51 -75.32,0.73 -75.11,1.12 -74.89,1.74 -74.67,2.59 -74.45,3.53 -74.23,4.34 -74.01,4.73 -73.79,4.38 -73.57,3.1 -73.35,0.9 -73.13,-2 -72.91,-5.17 -72.69,-8.07 -72.47,-10.11 -72.25,-10.86 -72.04,-10.13 -71.82,-7.99 -71.6,-4.81 -71.38,-1.12 -71.16,2.49 -70.94,5.46 -70.72,7.41 -70.5,8.18 -70.28,7.83 -70.06,6.6 -69.84,4.85 -69.62,2.91 -69.4,1.13 -69.18,-0.3 -68.97,-1.27 -68.75,-1.79 -68.53,-1.92 -68.31,-1.78 -68.09,-1.48 -67.87,-1.14 -67.65,-0.82 -67.43,-0.55 -67.21,-0.35 -66.99,-0.21 -66.77,-0.13 -66.55,-0.08 -66.33,-0.05 -66.11,-0.03 -65.9,-0.02 -65.68,-0.01 -65.46,-0.01 -65.24,-0.01 -65.02,-0 -64.8,-0 -64.58,-0 -64.36,-0 -64.14,-0 -63.92,-0 -63.7,-0 -63.48,0 -63.26,0 -63.04,0 -62.83,0 -62.61,0 -62.39,0 -62.17,0 -61.95,0 -61.73,0 -61.51,0 -61.29,0 -61.07,-0 -60.85,-0 -60.63,-0 -60.41,-0 -60.19,-0 -59.97,-0 -59.76,-0 -59.54,-0 -59.32,-0 -59.1,-0 -58.88,0 -58.66,0 -58.44,0 -58.22,0 -58,0 -57.78,0 -57.56,0 -57.34,0 -57.12,0 -56.9,0 -56.69,-0 -56.47,-0 -56.25,-0 -56.03,-0 -55.81,-0 -55.59,-0 -55.37,-0 -55.15,0 -54.93,0 -54.71,0 -54.49,0 -54.27,0 -54.05,0 -53.83,-0 -53.62,-0 -53.4,-0 -53.18,-0 -52.96,-0 -52.74,-0 -52.52,-0 -52.3,-0 -52.08,-0 -51.86,-0 -51.64,-0 -51.42,0 -51.2,0 -50.98,0 -50.76,0 -50.55,0 -50.33,0 -50.11,0 -49.89,0 -49.67,-0 -49.45,-0 -49.23,-0 -49.01,-0 -48.79,-0 -48.57,-0 -48.35,-0 -48.13,0 -47.91,0 -47.69,0 -47.48,0 -47.26,0 -47.04,0 -46.82,0 -46.6,0 -46.38,0 -46.16,0 -45.94,0 -45.72,0 -45.5,-0 -45.28,-0 -45.06,-0 -44.84,-0 -44.62,-0 -44.41,-0 -44.19,-0 -43.97,-0 -43.75,-0 -43.53,-0 -43.31,-0 -43.09,-0 -42.87,-0 -42.65,0 -42.43,0 -42.21,0 -41.99,0 -41.77,0 -41.55,0 -41.34,0 -41.12,0 -40.9,0 -40.68,0 -40.46,0 -40.24,0 -40.02,0 -39.8,0 -39.58,0 -39.36,0 -39.14,0 -38.92,0 -38.7,0 -38.48,0 -38.27,0 -38.05,0 -37.83,0 -37.61,0 -37.39,0 -37.17,0 -36.95,0 -36.73,0 -36.51,0 -36.29,0 -36.07,0 -35.85,0 -35.63,0 -35.41,0 -35.2,0 -34.98,0 -34.76,0 -34.54,0 -34.32,0 -34.1,0 -33.88,0 -33.66,0 -33.44,0 -33.22,0 -33,0 -32.78,0 -32.56,0 -32.34,0 -32.13,0 -31.91,0 -31.69,0 -31.47,0 -31.25,0 -31.03,0 -30.81,0 -30.59,0 -30.37,0 -30.15,0 -29.93,0 -29.71,0 -29.49,0 -29.27,0 -29.06,0 -28.84,0 -28.62,0 -28.4,0 -28.18,0 -27.96,0 -27.74,0 -27.52,0 -27.3,0 -27.08,0 -26.86,0 -26.64,0 -26.42,0 -26.2,0 -25.99,0 -25.77,0 -25.55,0 -25.33,0 -25.11,0 -24.89,0 -24.67,0 -24.45,0 -24.23,0 -24.01,0 -23.79,0 -23.57,0 -23.35,0 -23.13,0 -22.92,0 -22.7,0 -22.48,0 -22.26,0 -22.04,0 -21.82,0 -21.6,0 -21.38,0 -21.16,0 -20.94,0 -20.72,0 -20.5,0 -20.28,0 -20.06,0 -19.85,0 -19.63,0 -19.41,0 -19.19,0 -18.97,0 -18.75,0 -18.53,0 -18.31,0 -18.09,0 -17.87,0 -17.65,0 -17.43,0 -17.21,0 -16.99,0 -16.78,0 -16.56,0 -16.34,0 -16.12,0 -15.9,0 -15.68,0 -15.46,0 -15.24,0 -15.02,0 -14.8,0 -14.58,0 -14.36,0 -14.14,0 -13.92,0 -13.71,0 -13.49,0 -13.27,0 -13.05,0 -12.83,0 -12.61,0 -12.39,0 -12.17,0 -11.95,0 -11.73,0 -11.51,0 -11.29,0 -11.07,0 -10.85,0 -10.64,0 -10.42,0 -10.2,0 -9.98,0 -9.76,0 -9.54,0 -9.32,0 -9.1,0 -8.88,0 -8.66,0 -8.44,0 -8.22,0 -8,0 -7.78,0 -7.57,0 -7.35,0 -7.13,0 -6.91,0 -6.69,0 -6.47,0 -6.25,0 -6.03,0 -5.81,0 -5.59,0 -5.37,0 -5.15,0 -4.93,0 -4.71,0 -4.5,0 -4.28,0 -4.06,0 -3.84,0 -3.62,0 -3.4,0 -3.18,0 -2.96,0 -2.74,0 -2.52,0 -2.3,0 -2.08,0 -1.86,0 -1.64,0 -1.43,0 -1.21,0 -0.99,0 -0.77,0 -0.55,0 -0.33,0 -0.11,0 0.11,0 0.33,0 0.55,0 0.77,0 0.99,0 1.21,0 1.43,0 1.64,0 1.86,0 2.08,0 2.3,0 2.52,0 2.74,0 2.96,0 3.18,0 3.4,0 3.62,0 3.84,0 4.06,0 4.28,0 4.5,0 4.71,0 4.93,0 5.15,0 5.37,0 5.59,0 5.81,0 6.03,0 6.25,0 6.47,0 6.69,0 6.91,0 7.13,0 7.35,0 7.57,0 7.78,0 8,0 8.22,0 8.44,0 8.66,0 8.88,0 9.1,0 9.32,0 9.54,0 9.76,0 9.98,0 10.2,0 10.42,0 10.64,0 10.85,0 11.07,0 11.29,0 11.51,0 11.73,0 11.95,0 12.17,0 12.39,0 12.61,0 12.83,0 13.05,0 13.27,0 13.49,0 13.71,0 13.92,0 14.14,0 14.36,0 14.58,0 14.8,0 15.02,0 15.24,0 15.46,0 15.68,0 15.9,0 16.12,0 16.34,0 16.56,0 16.78,0 16.99,0 17.21,0 17.43,0 17.65,0 17.87,0 18.09,0 18.31,0 18.53,0 18.75,0 18.97,0 19.19,0 19.41,0 19.63,0 19.85,0 20.06,0 20.28,0 20.5,0 20.72,0 20.94,0 21.16,0 21.38,0 21.6,0 21.82,0 22.04,0 22.26,0 22.48,0 22.7,0 22.92,0 23.13,0 23.35,0 23.57,0 23.79,0 24.01,0 24.23,0 24.45,0 24.67,0 24.89,0 25.11,0 25.33,0 25.55,0 25.77,0 25.99,0 26.2,0 26.42,0 26.64,0 26.86,0 27.08,0 27.3,0 27.52,0 27.74,0 27.96,0 28.18,0 28.4,0 28.62,0 28.84,0 29.06,0 29.27,0 29.49,0 29.71,0 29.93,0 30.15,0 30.37,0 30.59,0 30.81,0 31.03,0 31.25,0 31.47,0 31.69,0 31.91,0 32.13,0 32.34,0 32.56,0 32.78,0 33,0 33.22,0 33.44,0 33.66,0 33.88,0 34.1,0 34.32,0 34.54,0 34.76,0 34.98,0 35.2,0 35.41,0 35.63,0 35.85,0 36.07,0 36.29,0 36.51,0 36.73,0 36.95,0 37.17,0 37.39,0 37.61,0 37.83,0 38.05,0 38.27,0 38.48,0 38.7,0 38.92,0 39.14,0 39.36,0 39.58,0 39.8,0 40.02,0 40.24,0 40.46,0 40.68,0 40.9,0 41.12,0 41.34,0 41.55,0 41.77,0 41.99,0 42.21,0 42.43,0 42.65,0 42.87,0 43.09,0 43.31,0 43.53,0 43.75,0 43.97,0 44.19,0 44.41,0 44.62,0 44.84,0 45.06,0 45.28,0 45.5,0 45.72,0 45.94,0 46.16,0 46.38,0 46.6,0 46.82,0 47.04,0 47.26,0 47.48,0 47.69,0 47.91,0 48.13,0 48.35,0 48.57,0 48.79,0 49.01,0 49.23,0 49.45,0 49.67,0 49.89,0 50.11,0 50.33,0 50.55,0 50.76,0 50.98,0 51.2,0 51.42,0 51.64,0 51.86,0 52.08,0 52.3,0 52.52,0 52.74,0 52.96,0 53.18,0 53.4,0 53.62,0 53.83,0 54.05,0 54.27,0 54.49,0 54.71,0 54.93,0 55.15,0 55.37,0 55.59,0 55.81,0 56.03,0 56.25,0 56.47,0 56.69,0 56.9,0 57.12,0 57.34,0 57.56,0 57.78,0 58,0 58.22,0 58.44,0 58.66,0 58.88,0 59.1,0 59.32,0 59.54,0 59.76,0 59.97,0 60.19,0 60.41,0 60.63,0 60.85,0 61.07,0 61.29,0 61.51,0 61.73,0 61.95,0 62.17,0 62.39,0 62.61,0 62.83,0 63.04,0 63.26,0 63.48,0 63.7,0 63.92,0 64.14,0 64.36,0 64.58,0 64.8,0 65.02,0 65.24,0 65.46,0 65.68,0 65.9,0 66.11,0 66.33,0 66.55,0 66.77,0 66.99,0 67.21,0 67.43,0 67.65,0 67.87,0 68.09,0 68.31,0 68.53,0 68.75,0 68.97,0 69.18,0 69.4,0 69.62,0 69.84,0 70.06,0 70.28,0 70.5,0 70.72,0 70.94,0 71.16,0 71.38,0 71.6,0 71.82,0 72.04,0 72.25,0 72.47,0 72.69,0 72.91,0 73.13,0 73.35,0 73.57,0 73.79,0 74.01,0 74.23,0 74.45,0 74.67,0 74.89,0 75.11,0 75.32,0 75.54,0 75.76,0 75.98,0 76.2,0 76.42,0 76.64,0 76.86,0 77.08,0 77.3,0 77.52,0 77.74,0 77.96,0 78.18,0 78.39,0 78.61,0 78.83,0 79.05,0 79.27,0 79.49,0 79.71,0 79.93,0 80.15,0 80.37,0 80.59,0 80.81,0 81.03,0 81.25,0 81.46,0 81.68,0 81.9,0 82.12,0 82.34,0 82.56,0 82.78,0 83,0 83.22,0 83.44,0 83.66,0 83.88,0 84.1,0 84.32,0 84.53,0 84.75,0 84.97,0 85.19,0 85.41,0 85.63,0 85.85,0 86.07,0 86.29,0 86.51,0 86.73,0 86.95,0 87.17,0 87.39,0 87.6,0 " class="primitive"/>
            </g>
          </g>
        </g>
        <g stroke-width="0.3" fill="#000000" fill-opacity="0.000" class="geometry" id="img-cc46d8fa-67">
          <g class="color_RGB{Float64}(7.336715728811782e-7,0.44403268331118134,1.0)" stroke-dasharray="none" stroke="#0071FF" id="img-cc46d8fa-68">
            <g transform="translate(121.71,38.94)" id="img-cc46d8fa-69">
              <path fill="none" d="M-87.6,0 L-87.39,0 -87.17,0 -86.95,0 -86.73,0 -86.51,0 -86.29,0 -86.07,0 -85.85,0 -85.63,0 -85.41,0 -85.19,0 -84.97,0 -84.75,0 -84.53,0 -84.32,0 -84.1,0 -83.88,0 -83.66,0 -83.44,0 -83.22,0 -83,0 -82.78,0 -82.56,0 -82.34,0 -82.12,0 -81.9,0 -81.68,0 -81.46,0 -81.25,0 -81.03,-0 -80.81,-0 -80.59,-0 -80.37,-0 -80.15,-0 -79.93,-0 -79.71,-0 -79.49,-0 -79.27,-0 -79.05,-0 -78.83,0 -78.61,0 -78.39,0 -78.18,0 -77.96,0 -77.74,-0 -77.52,-0 -77.3,-0 -77.08,-0 -76.86,-0 -76.64,-0 -76.42,-0 -76.2,-0 -75.98,0 -75.76,0 -75.54,0 -75.32,0 -75.11,0 -74.89,0 -74.67,0 -74.45,0 -74.23,0 -74.01,0 -73.79,0 -73.57,0 -73.35,0 -73.13,-0 -72.91,-0 -72.69,-0 -72.47,-0 -72.25,-0 -72.04,-0 -71.82,-0 -71.6,-0 -71.38,-0 -71.16,0 -70.94,0 -70.72,0 -70.5,0 -70.28,0 -70.06,0 -69.84,0 -69.62,0 -69.4,0 -69.18,-0 -68.97,-0 -68.75,-0 -68.53,-0 -68.31,-0 -68.09,-0 -67.87,-0 -67.65,-0 -67.43,-0 -67.21,-0 -66.99,-0 -66.77,-0 -66.55,-0 -66.33,-0 -66.11,-0.01 -65.9,-0.02 -65.68,-0.03 -65.46,-0.05 -65.24,-0.08 -65.02,-0.12 -64.8,-0.16 -64.58,-0.2 -64.36,-0.23 -64.14,-0.24 -63.92,-0.22 -63.7,-0.14 -63.48,-0.01 -63.26,0.17 -63.04,0.38 -62.83,0.62 -62.61,0.84 -62.39,1 -62.17,1.08 -61.95,1.03 -61.73,0.85 -61.51,0.55 -61.29,0.14 -61.07,-0.33 -60.85,-0.8 -60.63,-1.21 -60.41,-1.5 -60.19,-1.63 -59.97,-1.6 -59.76,-1.39 -59.54,-1.05 -59.32,-0.61 -59.1,-0.15 -58.88,0.29 -58.66,0.65 -58.44,0.89 -58.22,1.01 -58,1 -57.78,0.89 -57.56,0.7 -57.34,0.48 -57.12,0.26 -56.9,0.06 -56.69,-0.09 -56.47,-0.18 -56.25,-0.21 -56.03,-0.2 -55.81,-0.15 -55.59,-0.08 -55.37,-0.02 -55.15,0.04 -54.93,0.08 -54.71,0.1 -54.49,0.09 -54.27,0.07 -54.05,0.03 -53.83,-0.01 -53.62,-0.05 -53.4,-0.08 -53.18,-0.11 -52.96,-0.12 -52.74,-0.11 -52.52,-0.1 -52.3,-0.08 -52.08,-0.06 -51.86,-0.03 -51.64,-0.01 -51.42,0.01 -51.2,0.02 -50.98,0.03 -50.76,0.03 -50.55,0.02 -50.33,0.02 -50.11,0.01 -49.89,0 -49.67,-0 -49.45,-0.01 -49.23,-0.01 -49.01,-0.01 -48.79,-0.01 -48.57,-0.01 -48.35,-0 -48.13,0 -47.91,0.01 -47.69,0.01 -47.48,0.01 -47.26,0.01 -47.04,0.01 -46.82,0.01 -46.6,0.01 -46.38,0.01 -46.16,0 -45.94,0 -45.72,0 -45.5,-0 -45.28,-0 -45.06,-0 -44.84,-0 -44.62,-0 -44.41,-0 -44.19,-0 -43.97,-0 -43.75,-0 -43.53,-0 -43.31,-0 -43.09,-0 -42.87,-0 -42.65,-0 -42.43,-0 -42.21,-0 -41.99,-0 -41.77,-0 -41.55,-0 -41.34,-0 -41.12,-0 -40.9,-0 -40.68,-0 -40.46,-0 -40.24,-0 -40.02,-0 -39.8,-0 -39.58,-0 -39.36,-0 -39.14,-0 -38.92,-0 -38.7,-0 -38.48,0 -38.27,0 -38.05,0 -37.83,0 -37.61,0 -37.39,0 -37.17,0 -36.95,0 -36.73,0 -36.51,0 -36.29,0 -36.07,0 -35.85,0 -35.63,0 -35.41,0 -35.2,0 -34.98,0 -34.76,0 -34.54,0 -34.32,0 -34.1,0 -33.88,0 -33.66,0 -33.44,0 -33.22,0 -33,0 -32.78,0 -32.56,0 -32.34,0 -32.13,0 -31.91,0 -31.69,0 -31.47,0 -31.25,0 -31.03,0 -30.81,0 -30.59,0 -30.37,0 -30.15,0 -29.93,0 -29.71,0 -29.49,0 -29.27,0 -29.06,0 -28.84,0 -28.62,0 -28.4,0 -28.18,0 -27.96,0 -27.74,0 -27.52,0 -27.3,0 -27.08,0 -26.86,0 -26.64,0 -26.42,0 -26.2,0 -25.99,0 -25.77,0 -25.55,0 -25.33,0 -25.11,0 -24.89,0 -24.67,0 -24.45,0 -24.23,0 -24.01,0 -23.79,0 -23.57,0 -23.35,0 -23.13,0 -22.92,0 -22.7,0 -22.48,0 -22.26,0 -22.04,0 -21.82,0 -21.6,0 -21.38,0 -21.16,0 -20.94,0 -20.72,0 -20.5,0 -20.28,0 -20.06,0 -19.85,0 -19.63,0 -19.41,0 -19.19,0 -18.97,0 -18.75,0 -18.53,0 -18.31,0 -18.09,0 -17.87,0 -17.65,0 -17.43,0 -17.21,0 -16.99,0 -16.78,0 -16.56,0 -16.34,0 -16.12,0 -15.9,0 -15.68,0 -15.46,0 -15.24,0 -15.02,0 -14.8,0 -14.58,0 -14.36,0 -14.14,0 -13.92,0 -13.71,0 -13.49,0 -13.27,0 -13.05,0 -12.83,0 -12.61,0 -12.39,0 -12.17,0 -11.95,0 -11.73,0 -11.51,0 -11.29,0 -11.07,0 -10.85,0 -10.64,0 -10.42,0 -10.2,0 -9.98,0 -9.76,0 -9.54,0 -9.32,0 -9.1,0 -8.88,0 -8.66,0 -8.44,0 -8.22,0 -8,0 -7.78,0 -7.57,0 -7.35,0 -7.13,0 -6.91,0 -6.69,0 -6.47,0 -6.25,0 -6.03,0 -5.81,0 -5.59,0 -5.37,0 -5.15,0 -4.93,0 -4.71,0 -4.5,0 -4.28,0 -4.06,0 -3.84,0 -3.62,0 -3.4,0 -3.18,0 -2.96,0 -2.74,0 -2.52,0 -2.3,0 -2.08,0 -1.86,0 -1.64,0 -1.43,0 -1.21,0 -0.99,0 -0.77,0 -0.55,0 -0.33,0 -0.11,0 0.11,0 0.33,0 0.55,0 0.77,0 0.99,0 1.21,0 1.43,0 1.64,0 1.86,0 2.08,0 2.3,0 2.52,0 2.74,0 2.96,0 3.18,0 3.4,0 3.62,0 3.84,0 4.06,0 4.28,0 4.5,0 4.71,0 4.93,0 5.15,0 5.37,0 5.59,0 5.81,0 6.03,0 6.25,0 6.47,0 6.69,0 6.91,0 7.13,0 7.35,0 7.57,0 7.78,0 8,0 8.22,0 8.44,0 8.66,0 8.88,0 9.1,0 9.32,0 9.54,0 9.76,0 9.98,0 10.2,0 10.42,0 10.64,0 10.85,0 11.07,0 11.29,0 11.51,0 11.73,0 11.95,0 12.17,0 12.39,0 12.61,0 12.83,0 13.05,0 13.27,0 13.49,0 13.71,0 13.92,0 14.14,0 14.36,0 14.58,0 14.8,0 15.02,0 15.24,0 15.46,0 15.68,0 15.9,0 16.12,0 16.34,0 16.56,0 16.78,0 16.99,0 17.21,0 17.43,0 17.65,0 17.87,0 18.09,0 18.31,0 18.53,0 18.75,0 18.97,0 19.19,0 19.41,0 19.63,0 19.85,0 20.06,0 20.28,0 20.5,0 20.72,0 20.94,0 21.16,0 21.38,0 21.6,0 21.82,0 22.04,0 22.26,0 22.48,0 22.7,0 22.92,0 23.13,0 23.35,0 23.57,0 23.79,0 24.01,0 24.23,0 24.45,0 24.67,0 24.89,0 25.11,0 25.33,0 25.55,0 25.77,0 25.99,0 26.2,0 26.42,0 26.64,0 26.86,0 27.08,0 27.3,0 27.52,0 27.74,0 27.96,0 28.18,0 28.4,0 28.62,0 28.84,0 29.06,0 29.27,0 29.49,0 29.71,0 29.93,0 30.15,0 30.37,0 30.59,0 30.81,0 31.03,0 31.25,0 31.47,0 31.69,0 31.91,0 32.13,0 32.34,0 32.56,0 32.78,0 33,0 33.22,0 33.44,0 33.66,0 33.88,0 34.1,0 34.32,0 34.54,0 34.76,0 34.98,0 35.2,0 35.41,0 35.63,0 35.85,0 36.07,0 36.29,0 36.51,0 36.73,0 36.95,0 37.17,0 37.39,0 37.61,0 37.83,0 38.05,0 38.27,0 38.48,0 38.7,0 38.92,0 39.14,0 39.36,0 39.58,0 39.8,0 40.02,0 40.24,0 40.46,0 40.68,0 40.9,0 41.12,0 41.34,0 41.55,0 41.77,0 41.99,0 42.21,0 42.43,0 42.65,0 42.87,0 43.09,0 43.31,0 43.53,0 43.75,0 43.97,0 44.19,0 44.41,0 44.62,0 44.84,0 45.06,0 45.28,0 45.5,0 45.72,0 45.94,0 46.16,0 46.38,0 46.6,0 46.82,0 47.04,0 47.26,0 47.48,0 47.69,0 47.91,0 48.13,0 48.35,0 48.57,0 48.79,0 49.01,0 49.23,0 49.45,0 49.67,0 49.89,0 50.11,0 50.33,0 50.55,0 50.76,0 50.98,0 51.2,0 51.42,0 51.64,0 51.86,0 52.08,0 52.3,0 52.52,0 52.74,0 52.96,0 53.18,0 53.4,0 53.62,0 53.83,0 54.05,0 54.27,0 54.49,0 54.71,0 54.93,0 55.15,0 55.37,0 55.59,0 55.81,0 56.03,0 56.25,0 56.47,0 56.69,0 56.9,0 57.12,0 57.34,0 57.56,0 57.78,0 58,0 58.22,0 58.44,0 58.66,0 58.88,0 59.1,0 59.32,0 59.54,0 59.76,0 59.97,0 60.19,0 60.41,0 60.63,0 60.85,0 61.07,0 61.29,0 61.51,0 61.73,0 61.95,0 62.17,0 62.39,0 62.61,0 62.83,0 63.04,0 63.26,0 63.48,0 63.7,0 63.92,0 64.14,0 64.36,0 64.58,0 64.8,0 65.02,0 65.24,0 65.46,0 65.68,0 65.9,0 66.11,0 66.33,0 66.55,0 66.77,0 66.99,0 67.21,0 67.43,0 67.65,0 67.87,0 68.09,0 68.31,0 68.53,0 68.75,0 68.97,0 69.18,0 69.4,0 69.62,0 69.84,0 70.06,0 70.28,0 70.5,0 70.72,0 70.94,0 71.16,0 71.38,0 71.6,0 71.82,0 72.04,0 72.25,0 72.47,0 72.69,0 72.91,0 73.13,0 73.35,0 73.57,0 73.79,0 74.01,0 74.23,0 74.45,0 74.67,0 74.89,0 75.11,0 75.32,0 75.54,0 75.76,0 75.98,0 76.2,0 76.42,0 76.64,0 76.86,0 77.08,0 77.3,0 77.52,0 77.74,0 77.96,0 78.18,0 78.39,0 78.61,0 78.83,0 79.05,0 79.27,0 79.49,0 79.71,0 79.93,0 80.15,0 80.37,0 80.59,0 80.81,0 81.03,0 81.25,0 81.46,0 81.68,0 81.9,0 82.12,0 82.34,0 82.56,0 82.78,0 83,0 83.22,0 83.44,0 83.66,0 83.88,0 84.1,0 84.32,0 84.53,0 84.75,0 84.97,0 85.19,0 85.41,0 85.63,0 85.85,0 86.07,0 86.29,0 86.51,0 86.73,0 86.95,0 87.17,0 87.39,0 87.6,0 " class="primitive"/>
            </g>
          </g>
        </g>
        <g stroke-width="0.3" fill="#000000" fill-opacity="0.000" class="geometry" id="img-cc46d8fa-70">
          <g class="color_RGB{Float64}(0.0,0.6588235294117647,0.17647058823529413)" stroke-dasharray="none" stroke="#00A82D" id="img-cc46d8fa-71">
            <g transform="translate(121.71,38.94)" id="img-cc46d8fa-72">
              <path fill="none" d="M-87.6,0 L-87.39,0 -87.17,0 -86.95,0 -86.73,0 -86.51,0 -86.29,0 -86.07,0 -85.85,0 -85.63,0 -85.41,0 -85.19,0 -84.97,0 -84.75,0 -84.53,0 -84.32,0 -84.1,0 -83.88,0 -83.66,0 -83.44,0 -83.22,0 -83,0 -82.78,0 -82.56,0 -82.34,0 -82.12,0 -81.9,0 -81.68,0 -81.46,0 -81.25,0 -81.03,0 -80.81,0 -80.59,0 -80.37,0 -80.15,0 -79.93,0 -79.71,0 -79.49,0 -79.27,0 -79.05,0 -78.83,0 -78.61,-0 -78.39,-0 -78.18,-0 -77.96,0 -77.74,0 -77.52,0 -77.3,0 -77.08,0 -76.86,0 -76.64,0 -76.42,0 -76.2,0 -75.98,-0 -75.76,-0 -75.54,-0 -75.32,-0 -75.11,-0 -74.89,-0 -74.67,-0 -74.45,-0 -74.23,-0 -74.01,-0 -73.79,-0 -73.57,-0 -73.35,-0 -73.13,0 -72.91,0 -72.69,0 -72.47,0 -72.25,0 -72.04,0 -71.82,0 -71.6,0 -71.38,0 -71.16,-0 -70.94,-0 -70.72,-0 -70.5,-0 -70.28,-0 -70.06,-0 -69.84,-0 -69.62,-0 -69.4,-0 -69.18,0 -68.97,0 -68.75,0 -68.53,0 -68.31,0 -68.09,0 -67.87,0 -67.65,0 -67.43,0 -67.21,0 -66.99,0 -66.77,0 -66.55,0 -66.33,0 -66.11,0 -65.9,0 -65.68,0 -65.46,0.01 -65.24,0.01 -65.02,0.01 -64.8,0.02 -64.58,0.02 -64.36,0.03 -64.14,0.03 -63.92,0.03 -63.7,0.02 -63.48,0 -63.26,-0.02 -63.04,-0.05 -62.83,-0.08 -62.61,-0.1 -62.39,-0.12 -62.17,-0.13 -61.95,-0.13 -61.73,-0.11 -61.51,-0.07 -61.29,-0.02 -61.07,0.02 -60.85,0.07 -60.63,0.1 -60.41,0.11 -60.19,0.09 -59.97,0.04 -59.76,-0.03 -59.54,-0.1 -59.32,-0.18 -59.1,-0.23 -58.88,-0.23 -58.66,-0.18 -58.44,-0.06 -58.22,0.12 -58,0.34 -57.78,0.59 -57.56,0.82 -57.34,1 -57.12,1.09 -56.9,1.06 -56.69,0.9 -56.47,0.61 -56.25,0.22 -56.03,-0.24 -55.81,-0.71 -55.59,-1.14 -55.37,-1.48 -55.15,-1.67 -54.93,-1.7 -54.71,-1.57 -54.49,-1.28 -54.27,-0.89 -54.05,-0.43 -53.83,0.03 -53.62,0.44 -53.4,0.77 -53.18,0.99 -52.96,1.08 -52.74,1.06 -52.52,0.94 -52.3,0.75 -52.08,0.52 -51.86,0.29 -51.64,0.09 -51.42,-0.08 -51.2,-0.19 -50.98,-0.24 -50.76,-0.25 -50.55,-0.22 -50.33,-0.16 -50.11,-0.09 -49.89,-0.02 -49.67,0.04 -49.45,0.08 -49.23,0.1 -49.01,0.1 -48.79,0.08 -48.57,0.05 -48.35,0.02 -48.13,-0.02 -47.91,-0.05 -47.69,-0.08 -47.48,-0.1 -47.26,-0.1 -47.04,-0.1 -46.82,-0.09 -46.6,-0.08 -46.38,-0.06 -46.16,-0.04 -45.94,-0.02 -45.72,-0.01 -45.5,0.01 -45.28,0.01 -45.06,0.02 -44.84,0.02 -44.62,0.02 -44.41,0.02 -44.19,0.02 -43.97,0.01 -43.75,0.01 -43.53,0.01 -43.31,0.01 -43.09,0 -42.87,0 -42.65,0 -42.43,0 -42.21,0 -41.99,0 -41.77,0 -41.55,0 -41.34,0 -41.12,0 -40.9,0 -40.68,0 -40.46,0 -40.24,0 -40.02,0 -39.8,0 -39.58,0 -39.36,0 -39.14,0 -38.92,0 -38.7,0 -38.48,0 -38.27,0 -38.05,0 -37.83,0 -37.61,0 -37.39,0 -37.17,0 -36.95,0 -36.73,0 -36.51,0 -36.29,0 -36.07,0 -35.85,0 -35.63,0 -35.41,0 -35.2,0 -34.98,0 -34.76,0 -34.54,0 -34.32,0 -34.1,0 -33.88,0 -33.66,0 -33.44,0 -33.22,0 -33,0 -32.78,0 -32.56,0 -32.34,0 -32.13,0 -31.91,0 -31.69,0 -31.47,0 -31.25,0 -31.03,0 -30.81,0 -30.59,0 -30.37,0 -30.15,0 -29.93,0 -29.71,0 -29.49,0 -29.27,0 -29.06,0 -28.84,0 -28.62,0 -28.4,0 -28.18,0 -27.96,0 -27.74,0 -27.52,0 -27.3,0 -27.08,0 -26.86,0 -26.64,0 -26.42,0 -26.2,0 -25.99,0 -25.77,0 -25.55,0 -25.33,0 -25.11,0 -24.89,0 -24.67,0 -24.45,0 -24.23,0 -24.01,0 -23.79,0 -23.57,0 -23.35,0 -23.13,0 -22.92,0 -22.7,0 -22.48,0 -22.26,0 -22.04,0 -21.82,0 -21.6,0 -21.38,0 -21.16,0 -20.94,0 -20.72,0 -20.5,0 -20.28,0 -20.06,0 -19.85,0 -19.63,0 -19.41,0 -19.19,0 -18.97,0 -18.75,0 -18.53,0 -18.31,0 -18.09,0 -17.87,0 -17.65,0 -17.43,0 -17.21,0 -16.99,0 -16.78,0 -16.56,0 -16.34,0 -16.12,0 -15.9,0 -15.68,0 -15.46,0 -15.24,0 -15.02,0 -14.8,0 -14.58,0 -14.36,0 -14.14,0 -13.92,0 -13.71,0 -13.49,0 -13.27,0 -13.05,0 -12.83,0 -12.61,0 -12.39,0 -12.17,0 -11.95,0 -11.73,0 -11.51,0 -11.29,0 -11.07,0 -10.85,0 -10.64,0 -10.42,0 -10.2,0 -9.98,0 -9.76,0 -9.54,0 -9.32,0 -9.1,0 -8.88,0 -8.66,0 -8.44,0 -8.22,0 -8,0 -7.78,0 -7.57,0 -7.35,0 -7.13,0 -6.91,0 -6.69,0 -6.47,0 -6.25,0 -6.03,0 -5.81,0 -5.59,0 -5.37,0 -5.15,0 -4.93,0 -4.71,0 -4.5,0 -4.28,0 -4.06,0 -3.84,0 -3.62,0 -3.4,0 -3.18,0 -2.96,0 -2.74,0 -2.52,0 -2.3,0 -2.08,0 -1.86,0 -1.64,0 -1.43,0 -1.21,0 -0.99,0 -0.77,0 -0.55,0 -0.33,0 -0.11,0 0.11,0 0.33,0 0.55,0 0.77,0 0.99,0 1.21,0 1.43,0 1.64,0 1.86,0 2.08,0 2.3,0 2.52,0 2.74,0 2.96,0 3.18,0 3.4,0 3.62,0 3.84,0 4.06,0 4.28,0 4.5,0 4.71,0 4.93,0 5.15,0 5.37,0 5.59,0 5.81,0 6.03,0 6.25,0 6.47,0 6.69,0 6.91,0 7.13,0 7.35,0 7.57,0 7.78,0 8,0 8.22,0 8.44,0 8.66,0 8.88,0 9.1,0 9.32,0 9.54,0 9.76,0 9.98,0 10.2,0 10.42,0 10.64,0 10.85,0 11.07,0 11.29,0 11.51,0 11.73,0 11.95,0 12.17,0 12.39,0 12.61,0 12.83,0 13.05,0 13.27,0 13.49,0 13.71,0 13.92,0 14.14,0 14.36,0 14.58,0 14.8,0 15.02,0 15.24,0 15.46,0 15.68,0 15.9,0 16.12,0 16.34,0 16.56,0 16.78,0 16.99,0 17.21,0 17.43,0 17.65,0 17.87,0 18.09,0 18.31,0 18.53,0 18.75,0 18.97,0 19.19,0 19.41,0 19.63,0 19.85,0 20.06,0 20.28,0 20.5,0 20.72,0 20.94,0 21.16,0 21.38,0 21.6,0 21.82,0 22.04,0 22.26,0 22.48,0 22.7,0 22.92,0 23.13,0 23.35,0 23.57,0 23.79,0 24.01,0 24.23,0 24.45,0 24.67,0 24.89,0 25.11,0 25.33,0 25.55,0 25.77,0 25.99,0 26.2,0 26.42,0 26.64,0 26.86,0 27.08,0 27.3,0 27.52,0 27.74,0 27.96,0 28.18,0 28.4,0 28.62,0 28.84,0 29.06,0 29.27,0 29.49,0 29.71,0 29.93,0 30.15,0 30.37,0 30.59,0 30.81,0 31.03,0 31.25,0 31.47,0 31.69,0 31.91,0 32.13,0 32.34,0 32.56,0 32.78,0 33,0 33.22,0 33.44,0 33.66,0 33.88,0 34.1,0 34.32,0 34.54,0 34.76,0 34.98,0 35.2,0 35.41,0 35.63,0 35.85,0 36.07,0 36.29,0 36.51,0 36.73,0 36.95,0 37.17,0 37.39,0 37.61,0 37.83,0 38.05,0 38.27,0 38.48,0 38.7,0 38.92,0 39.14,0 39.36,0 39.58,0 39.8,0 40.02,0 40.24,0 40.46,0 40.68,0 40.9,0 41.12,0 41.34,0 41.55,0 41.77,0 41.99,0 42.21,0 42.43,0 42.65,0 42.87,0 43.09,0 43.31,0 43.53,0 43.75,0 43.97,0 44.19,0 44.41,0 44.62,0 44.84,0 45.06,0 45.28,0 45.5,0 45.72,0 45.94,0 46.16,0 46.38,0 46.6,0 46.82,0 47.04,0 47.26,0 47.48,0 47.69,0 47.91,0 48.13,0 48.35,0 48.57,0 48.79,0 49.01,0 49.23,0 49.45,0 49.67,0 49.89,0 50.11,0 50.33,0 50.55,0 50.76,0 50.98,0 51.2,0 51.42,0 51.64,0 51.86,0 52.08,0 52.3,0 52.52,0 52.74,0 52.96,0 53.18,0 53.4,0 53.62,0 53.83,0 54.05,0 54.27,0 54.49,0 54.71,0 54.93,0 55.15,0 55.37,0 55.59,0 55.81,0 56.03,0 56.25,0 56.47,0 56.69,0 56.9,0 57.12,0 57.34,0 57.56,0 57.78,0 58,0 58.22,0 58.44,0 58.66,0 58.88,0 59.1,0 59.32,0 59.54,0 59.76,0 59.97,0 60.19,0 60.41,0 60.63,0 60.85,0 61.07,0 61.29,0 61.51,0 61.73,0 61.95,0 62.17,0 62.39,0 62.61,0 62.83,0 63.04,0 63.26,0 63.48,0 63.7,0 63.92,0 64.14,0 64.36,0 64.58,0 64.8,0 65.02,0 65.24,0 65.46,0 65.68,0 65.9,0 66.11,0 66.33,0 66.55,0 66.77,0 66.99,0 67.21,0 67.43,0 67.65,0 67.87,0 68.09,0 68.31,0 68.53,0 68.75,0 68.97,0 69.18,0 69.4,0 69.62,0 69.84,0 70.06,0 70.28,0 70.5,0 70.72,0 70.94,0 71.16,0 71.38,0 71.6,0 71.82,0 72.04,0 72.25,0 72.47,0 72.69,0 72.91,0 73.13,0 73.35,0 73.57,0 73.79,0 74.01,0 74.23,0 74.45,0 74.67,0 74.89,0 75.11,0 75.32,0 75.54,0 75.76,0 75.98,0 76.2,0 76.42,0 76.64,0 76.86,0 77.08,0 77.3,0 77.52,0 77.74,0 77.96,0 78.18,0 78.39,0 78.61,0 78.83,0 79.05,0 79.27,0 79.49,0 79.71,0 79.93,0 80.15,0 80.37,0 80.59,0 80.81,0 81.03,0 81.25,0 81.46,0 81.68,0 81.9,0 82.12,0 82.34,0 82.56,0 82.78,0 83,0 83.22,0 83.44,0 83.66,0 83.88,0 84.1,0 84.32,0 84.53,0 84.75,0 84.97,0 85.19,0 85.41,0 85.63,0 85.85,0 86.07,0 86.29,0 86.51,0 86.73,0 86.95,0 87.17,0 87.39,0 87.6,0 " class="primitive"/>
            </g>
          </g>
        </g>
      </g>
    </g>
  </g>
  <g class="guide ylabels" font-size="2.82" font-family="'PT Sans Caption','Helvetica Neue','Helvetica',sans-serif" fill="#6C606B" id="img-cc46d8fa-73">
    <g transform="translate(30.88,54.91)" id="img-cc46d8fa-74">
      <g class="primitive">
        <text text-anchor="end" dy="0.35em">-5.0010</text>
      </g>
    </g>
    <g transform="translate(30.88,38.94)" id="img-cc46d8fa-75">
      <g class="primitive">
        <text text-anchor="end" dy="0.35em">0</text>
      </g>
    </g>
    <g transform="translate(30.88,22.97)" id="img-cc46d8fa-76">
      <g class="primitive">
        <text text-anchor="end" dy="0.35em">5.0010</text>
      </g>
    </g>
    <g transform="translate(30.88,7)" id="img-cc46d8fa-77">
      <g class="primitive">
        <text text-anchor="end" dy="0.35em">1.0010</text>
      </g>
    </g>
  </g>
  <g font-size="3.88" font-family="'PT Sans','Helvetica Neue','Helvetica',sans-serif" fill="#564A55" stroke="#000000" stroke-opacity="0.000" id="img-cc46d8fa-78">
    <g transform="translate(8.81,28.96)" id="img-cc46d8fa-79">
      <g class="primitive">
        <text text-anchor="middle" dy="0.35em" transform="rotate(-90,0, 2)">Filtered</text>
      </g>
    </g>
  </g>
</g>
<defs>
  <clipPath id="img-cc46d8fa-33">
    <path d="M31.89,5 L211.31,5 211.31,56.91 31.89,56.91 " />
  </clipPath>
</defs>
</svg>
