<?xml version="1.0" encoding="UTF-8"?>
<svg xmlns="http://www.w3.org/2000/svg"
     xmlns:xlink="http://www.w3.org/1999/xlink"
     xmlns:gadfly="http://www.gadflyjl.org/ns"
     version="1.2"
     width="254mm" height="76.2mm" viewBox="0 0 254 76.2"
     stroke="none"
     fill="#000000"
     stroke-width="0.3"
     font-size="3.88"
>
<defs>
  <marker id="arrow" markerWidth="15" markerHeight="7" refX="5" refY="3.5" orient="auto" markerUnits="strokeWidth">
    <path d="M0,0 L15,3.5 L0,7 z" stroke="context-stroke" fill="context-stroke"/>
  </marker>
</defs>
<g class="plotroot xscalable yscalable" id="img-2b7c60cb-1">
  <g font-size="3.18" font-family="'PT Sans','Helvetica Neue','Helvetica',sans-serif" fill="#202020" stroke="#000000" stroke-opacity="0.000" id="img-2b7c60cb-2">
    <g transform="translate(137.53,69.54)">
      <g class="primitive">
        <text text-anchor="middle" dy="0.6em">Channels</text>
      </g>
    </g>
  </g>
  <g class="guide xlabels" font-size="2.82" font-family="'PT Sans Caption','Helvetica Neue','Helvetica',sans-serif" fill="#6C606B" id="img-2b7c60cb-3">
    <g transform="translate(123.36,62.87)">
      <g class="primitive">
        <text text-anchor="middle" dy="0.6em">500</text>
      </g>
    </g>
    <g transform="translate(223.15,62.87)">
      <g class="primitive">
        <text text-anchor="middle" dy="0.6em">1000</text>
      </g>
    </g>
  </g>
  <g clip-path="url(#img-2b7c60cb-4)">
    <g id="img-2b7c60cb-5">
      <g pointer-events="visible" stroke-width="0.3" fill="#FDFDF1" stroke="#202020" class="guide background" id="img-2b7c60cb-6">
        <g transform="translate(137.53,33.76)" id="img-2b7c60cb-7">
          <path d="M-115.76,-28.1 L115.76,-28.1 115.76,28.1 -115.76,28.1  z" class="primitive"/>
        </g>
      </g>
      <g class="guide ygridlines xfixed" stroke-dasharray="none" stroke-width="0.2" stroke="#FFDFDF" id="img-2b7c60cb-8">
        <g transform="translate(137.53,59.87)" id="img-2b7c60cb-9">
          <path fill="none" d="M-115.76,0 L115.76,0 " class="primitive"/>
        </g>
        <g transform="translate(137.53,39.25)" id="img-2b7c60cb-10">
          <path fill="none" d="M-115.76,0 L115.76,0 " class="primitive"/>
        </g>
        <g transform="translate(137.53,18.64)" id="img-2b7c60cb-11">
          <path fill="none" d="M-115.76,0 L115.76,0 " class="primitive"/>
        </g>
      </g>
      <g class="guide xgridlines yfixed" stroke-dasharray="none" stroke-width="0.2" stroke="#FFDFDF" id="img-2b7c60cb-12">
        <g transform="translate(123.36,33.76)" id="img-2b7c60cb-13">
          <path fill="none" d="M0,-28.1 L0,28.1 " class="primitive"/>
        </g>
        <g transform="translate(223.15,33.76)" id="img-2b7c60cb-14">
          <path fill="none" d="M0,-28.1 L0,28.1 " class="primitive"/>
        </g>
      </g>
      <g class="plotpanel" id="img-2b7c60cb-15">
        <metadata>
          <boundingbox value="21.773888888888912mm 5.660555555555554mm 231.52055555555557mm 56.20555555555556mm"/>
          <unitbox value="-9.021072577080947 26296.40823894811 1160.0421451541617 -27266.655955051552"/>
        </metadata>
        <g class="geometry" stroke="#000000" stroke-opacity="0.000" fill="#4C404B" font-size="2.82" font-family="'PT Sans Caption','Helvetica Neue','Helvetica',sans-serif" id="img-2b7c60cb-16">
          <g class="marker" id="img-2b7c60cb-17">
            <g transform="translate(164.48,33.76)" id="img-2b7c60cb-18">
              <g class="primitive">
                <text text-anchor="middle" dy="-0em" transform="translate(0,-1.9)">0.0668</text>
              </g>
            </g>
          </g>
        </g>
        <g class="geometry" stroke="#000000" stroke-opacity="0.000" fill="#4C404B" font-size="2.82" font-family="'PT Sans Caption','Helvetica Neue','Helvetica',sans-serif" id="img-2b7c60cb-19">
          <g class="marker" id="img-2b7c60cb-20">
            <g transform="translate(159.29,33.76)" id="img-2b7c60cb-21">
              <g class="primitive">
                <text dy="0.35em" transform="translate(1.9,0)"></text>
              </g>
            </g>
            <g transform="translate(169.67,33.76)" id="img-2b7c60cb-22">
              <g class="primitive">
                <text dy="0.35em" transform="translate(1.9,0)">Fe K-M3 + 3 others</text>
              </g>
            </g>
          </g>
        </g>
        <g class="geometry" stroke-width="0.3" id="img-2b7c60cb-23">
          <g class="color_RGBA{Float32}(0.5019608f0,0.5019608f0,0.5019608f0,1.0f0)" id="img-2b7c60cb-24">
            <g fill-opacity="1" stroke="#FFFFFF" fill="#808080" class="marker" id="img-2b7c60cb-25">
              <g transform="translate(169.67,33.76)" id="img-2b7c60cb-26">
                <circle cx="0" cy="0" r="0.9" class="primitive"/>
              </g>
            </g>
            <g fill-opacity="0" ilabel="2RGBA{Float32}(0.5019608f0,0.5019608f0,0.5019608f0,1.0f0)" class="datatip" id="img-2b7c60cb-27">
              <g transform="translate(169.67,33.76)" id="img-2b7c60cb-28">
                <g class="primitive">
                  <text dy="-1.2em">732<tspan x="0" dy="1.1000em">12663.080261422332</tspan></text>
                </g>
              </g>
            </g>
          </g>
          <g class="color_RGBA{Float32}(0.5019608f0,0.5019608f0,0.5019608f0,1.0f0)" id="img-2b7c60cb-29">
            <g fill-opacity="1" stroke="#FFFFFF" fill="#808080" class="marker" id="img-2b7c60cb-30">
              <g transform="translate(159.29,33.76)" id="img-2b7c60cb-31">
                <circle cx="0" cy="0" r="0.9" class="primitive"/>
              </g>
            </g>
            <g fill-opacity="0" ilabel="1RGBA{Float32}(0.5019608f0,0.5019608f0,0.5019608f0,1.0f0)" class="datatip" id="img-2b7c60cb-32">
              <g transform="translate(159.29,33.76)" id="img-2b7c60cb-33">
                <g class="primitive">
                  <text dy="-1.2em">680<tspan x="0" dy="1.1000em">12663.080261422332</tspan></text>
                </g>
              </g>
            </g>
          </g>
        </g>
        <g stroke-width="0.3" fill="#000000" fill-opacity="0.000" class="geometry" id="img-2b7c60cb-34">
          <g class="color_RGB{N0f8}(0.502,0.502,0.502)" stroke-dasharray="none" stroke-opacity="1" stroke="#808080" id="img-2b7c60cb-35">
            <g transform="translate(164.48,33.76)" id="img-2b7c60cb-36">
              <path fill="none" d="M-5.19,0 L5.19,0 " class="primitive"/>
            </g>
          </g>
        </g>
        <g class="geometry" stroke="#000000" stroke-opacity="0.000" fill="#4C404B" font-size="2.82" font-family="'PT Sans Caption','Helvetica Neue','Helvetica',sans-serif" id="img-2b7c60cb-37">
          <g class="marker" id="img-2b7c60cb-38">
            <g transform="translate(151.5,38.98)" id="img-2b7c60cb-39">
              <g class="primitive">
                <text text-anchor="middle" dy="-0em" transform="translate(0,-1.9)">0.0668</text>
              </g>
            </g>
          </g>
        </g>
        <g class="geometry" stroke="#000000" stroke-opacity="0.000" fill="#4C404B" font-size="2.82" font-family="'PT Sans Caption','Helvetica Neue','Helvetica',sans-serif" id="img-2b7c60cb-40">
          <g class="marker" id="img-2b7c60cb-41">
            <g transform="translate(145.92,38.98)" id="img-2b7c60cb-42">
              <g class="primitive">
                <text dy="0.35em" transform="translate(1.9,0)"></text>
              </g>
            </g>
            <g transform="translate(157.09,38.98)" id="img-2b7c60cb-43">
              <g class="primitive">
                <text dy="0.35em" transform="translate(1.9,0)">Fe K-L3 + 1 other</text>
              </g>
            </g>
          </g>
        </g>
        <g class="geometry" stroke-width="0.3" id="img-2b7c60cb-44">
          <g class="color_RGBA{Float32}(0.5019608f0,0.5019608f0,0.5019608f0,1.0f0)" id="img-2b7c60cb-45">
            <g fill-opacity="1" stroke="#FFFFFF" fill="#808080" class="marker" id="img-2b7c60cb-46">
              <g transform="translate(157.09,38.98)" id="img-2b7c60cb-47">
                <circle cx="0" cy="0" r="0.9" class="primitive"/>
              </g>
            </g>
            <g fill-opacity="0" ilabel="2RGBA{Float32}(0.5019608f0,0.5019608f0,0.5019608f0,1.0f0)" class="datatip" id="img-2b7c60cb-48">
              <g transform="translate(157.09,38.98)" id="img-2b7c60cb-49">
                <g class="primitive">
                  <text dy="-1.2em">669<tspan x="0" dy="1.1000em">10130.464209137866</tspan></text>
                </g>
              </g>
            </g>
          </g>
          <g class="color_RGBA{Float32}(0.5019608f0,0.5019608f0,0.5019608f0,1.0f0)" id="img-2b7c60cb-50">
            <g fill-opacity="1" stroke="#FFFFFF" fill="#808080" class="marker" id="img-2b7c60cb-51">
              <g transform="translate(145.92,38.98)" id="img-2b7c60cb-52">
                <circle cx="0" cy="0" r="0.9" class="primitive"/>
              </g>
            </g>
            <g fill-opacity="0" ilabel="1RGBA{Float32}(0.5019608f0,0.5019608f0,0.5019608f0,1.0f0)" class="datatip" id="img-2b7c60cb-53">
              <g transform="translate(145.92,38.98)" id="img-2b7c60cb-54">
                <g class="primitive">
                  <text dy="-1.2em">613<tspan x="0" dy="1.1000em">10130.464209137866</tspan></text>
                </g>
              </g>
            </g>
          </g>
        </g>
        <g stroke-width="0.3" fill="#000000" fill-opacity="0.000" class="geometry" id="img-2b7c60cb-55">
          <g class="color_RGB{N0f8}(0.502,0.502,0.502)" stroke-dasharray="none" stroke-opacity="1" stroke="#808080" id="img-2b7c60cb-56">
            <g transform="translate(151.5,38.98)" id="img-2b7c60cb-57">
              <path fill="none" d="M-5.59,0 L5.59,0 " class="primitive"/>
            </g>
          </g>
        </g>
        <g class="geometry" stroke="#000000" stroke-opacity="0.000" fill="#4C404B" font-size="2.82" font-family="'PT Sans Caption','Helvetica Neue','Helvetica',sans-serif" id="img-2b7c60cb-58">
          <g class="marker" id="img-2b7c60cb-59">
            <g transform="translate(100.31,38.98)" id="img-2b7c60cb-60">
              <g class="primitive">
                <text text-anchor="middle" dy="-0em" transform="translate(0,-1.9)">0.1922</text>
              </g>
            </g>
          </g>
        </g>
        <g class="geometry" stroke="#000000" stroke-opacity="0.000" fill="#4C404B" font-size="2.82" font-family="'PT Sans Caption','Helvetica Neue','Helvetica',sans-serif" id="img-2b7c60cb-61">
          <g class="marker" id="img-2b7c60cb-62">
            <g transform="translate(92.83,38.98)" id="img-2b7c60cb-63">
              <g class="primitive">
                <text dy="0.35em" transform="translate(1.9,0)"></text>
              </g>
            </g>
            <g transform="translate(107.8,38.98)" id="img-2b7c60cb-64">
              <g class="primitive">
                <text dy="0.35em" transform="translate(1.9,0)">Ca K-L3 + 3 others</text>
              </g>
            </g>
          </g>
        </g>
        <g class="geometry" stroke-width="0.3" id="img-2b7c60cb-65">
          <g class="color_RGBA{Float32}(0.5019608f0,0.5019608f0,0.5019608f0,1.0f0)" id="img-2b7c60cb-66">
            <g fill-opacity="1" stroke="#FFFFFF" fill="#808080" class="marker" id="img-2b7c60cb-67">
              <g transform="translate(107.8,38.98)" id="img-2b7c60cb-68">
                <circle cx="0" cy="0" r="0.9" class="primitive"/>
              </g>
            </g>
            <g fill-opacity="0" ilabel="2RGBA{Float32}(0.5019608f0,0.5019608f0,0.5019608f0,1.0f0)" class="datatip" id="img-2b7c60cb-69">
              <g transform="translate(107.8,38.98)" id="img-2b7c60cb-70">
                <g class="primitive">
                  <text dy="-1.2em">422<tspan x="0" dy="1.1000em">10130.464209137866</tspan></text>
                </g>
              </g>
            </g>
          </g>
          <g class="color_RGBA{Float32}(0.5019608f0,0.5019608f0,0.5019608f0,1.0f0)" id="img-2b7c60cb-71">
            <g fill-opacity="1" stroke="#FFFFFF" fill="#808080" class="marker" id="img-2b7c60cb-72">
              <g transform="translate(92.83,38.98)" id="img-2b7c60cb-73">
                <circle cx="0" cy="0" r="0.9" class="primitive"/>
              </g>
            </g>
            <g fill-opacity="0" ilabel="1RGBA{Float32}(0.5019608f0,0.5019608f0,0.5019608f0,1.0f0)" class="datatip" id="img-2b7c60cb-74">
              <g transform="translate(92.83,38.98)" id="img-2b7c60cb-75">
                <g class="primitive">
                  <text dy="-1.2em">347<tspan x="0" dy="1.1000em">10130.464209137866</tspan></text>
                </g>
              </g>
            </g>
          </g>
        </g>
        <g stroke-width="0.3" fill="#000000" fill-opacity="0.000" class="geometry" id="img-2b7c60cb-76">
          <g class="color_RGB{N0f8}(0.502,0.502,0.502)" stroke-dasharray="none" stroke-opacity="1" stroke="#808080" id="img-2b7c60cb-77">
            <g transform="translate(100.31,38.98)" id="img-2b7c60cb-78">
              <path fill="none" d="M-7.48,0 L7.48,0 " class="primitive"/>
            </g>
          </g>
        </g>
        <g class="geometry" stroke="#000000" stroke-opacity="0.000" fill="#4C404B" font-size="2.82" font-family="'PT Sans Caption','Helvetica Neue','Helvetica',sans-serif" id="img-2b7c60cb-79">
          <g class="marker" id="img-2b7c60cb-80">
            <g transform="translate(59,18.1)" id="img-2b7c60cb-81">
              <g class="primitive">
                <text text-anchor="middle" dy="-0em" transform="translate(0,-1.9)">0.3507</text>
              </g>
            </g>
          </g>
        </g>
        <g class="geometry" stroke="#000000" stroke-opacity="0.000" fill="#4C404B" font-size="2.82" font-family="'PT Sans Caption','Helvetica Neue','Helvetica',sans-serif" id="img-2b7c60cb-82">
          <g class="marker" id="img-2b7c60cb-83">
            <g transform="translate(54.91,18.1)" id="img-2b7c60cb-84">
              <g class="primitive">
                <text dy="0.35em" transform="translate(1.9,0)"></text>
              </g>
            </g>
            <g transform="translate(63.09,18.1)" id="img-2b7c60cb-85">
              <g class="primitive">
                <text dy="0.35em" transform="translate(1.9,0)">Si K-L3 + 3 others</text>
              </g>
            </g>
          </g>
        </g>
        <g class="geometry" stroke-width="0.3" id="img-2b7c60cb-86">
          <g class="color_RGBA{Float32}(0.5019608f0,0.5019608f0,0.5019608f0,1.0f0)" id="img-2b7c60cb-87">
            <g fill-opacity="1" stroke="#FFFFFF" fill="#808080" class="marker" id="img-2b7c60cb-88">
              <g transform="translate(63.09,18.1)" id="img-2b7c60cb-89">
                <circle cx="0" cy="0" r="0.9" class="primitive"/>
              </g>
            </g>
            <g fill-opacity="0" ilabel="2RGBA{Float32}(0.5019608f0,0.5019608f0,0.5019608f0,1.0f0)" class="datatip" id="img-2b7c60cb-90">
              <g transform="translate(63.09,18.1)" id="img-2b7c60cb-91">
                <g class="primitive">
                  <text dy="-1.2em">198<tspan x="0" dy="1.1000em">20260.928418275733</tspan></text>
                </g>
              </g>
            </g>
          </g>
          <g class="color_RGBA{Float32}(0.5019608f0,0.5019608f0,0.5019608f0,1.0f0)" id="img-2b7c60cb-92">
            <g fill-opacity="1" stroke="#FFFFFF" fill="#808080" class="marker" id="img-2b7c60cb-93">
              <g transform="translate(54.91,18.1)" id="img-2b7c60cb-94">
                <circle cx="0" cy="0" r="0.9" class="primitive"/>
              </g>
            </g>
            <g fill-opacity="0" ilabel="1RGBA{Float32}(0.5019608f0,0.5019608f0,0.5019608f0,1.0f0)" class="datatip" id="img-2b7c60cb-95">
              <g transform="translate(54.91,18.1)" id="img-2b7c60cb-96">
                <g class="primitive">
                  <text dy="-1.2em">157<tspan x="0" dy="1.1000em">20260.928418275733</tspan></text>
                </g>
              </g>
            </g>
          </g>
        </g>
        <g stroke-width="0.3" fill="#000000" fill-opacity="0.000" class="geometry" id="img-2b7c60cb-97">
          <g class="color_RGB{N0f8}(0.502,0.502,0.502)" stroke-dasharray="none" stroke-opacity="1" stroke="#808080" id="img-2b7c60cb-98">
            <g transform="translate(59,18.1)" id="img-2b7c60cb-99">
              <path fill="none" d="M-4.09,0 L4.09,0 " class="primitive"/>
            </g>
          </g>
        </g>
        <g class="geometry" stroke="#000000" stroke-opacity="0.000" fill="#4C404B" font-size="2.82" font-family="'PT Sans Caption','Helvetica Neue','Helvetica',sans-serif" id="img-2b7c60cb-100">
          <g class="marker" id="img-2b7c60cb-101">
            <g transform="translate(53.61,23.32)" id="img-2b7c60cb-102">
              <g class="primitive">
                <text text-anchor="middle" dy="-0em" transform="translate(0,-1.9)">0.0670</text>
              </g>
            </g>
          </g>
        </g>
        <g class="geometry" stroke="#000000" stroke-opacity="0.000" fill="#4C404B" font-size="2.82" font-family="'PT Sans Caption','Helvetica Neue','Helvetica',sans-serif" id="img-2b7c60cb-103">
          <g class="marker" id="img-2b7c60cb-104">
            <g transform="translate(49.92,23.32)" id="img-2b7c60cb-105">
              <g class="primitive">
                <text dy="0.35em" transform="translate(1.9,0)"></text>
              </g>
            </g>
            <g transform="translate(57.3,23.32)" id="img-2b7c60cb-106">
              <g class="primitive">
                <text dy="0.35em" transform="translate(1.9,0)">Al K-L3 + 3 others</text>
              </g>
            </g>
          </g>
        </g>
        <g class="geometry" stroke-width="0.3" id="img-2b7c60cb-107">
          <g class="color_RGBA{Float32}(0.5019608f0,0.5019608f0,0.5019608f0,1.0f0)" id="img-2b7c60cb-108">
            <g fill-opacity="1" stroke="#FFFFFF" fill="#808080" class="marker" id="img-2b7c60cb-109">
              <g transform="translate(57.3,23.32)" id="img-2b7c60cb-110">
                <circle cx="0" cy="0" r="0.9" class="primitive"/>
              </g>
            </g>
            <g fill-opacity="0" ilabel="2RGBA{Float32}(0.5019608f0,0.5019608f0,0.5019608f0,1.0f0)" class="datatip" id="img-2b7c60cb-111">
              <g transform="translate(57.3,23.32)" id="img-2b7c60cb-112">
                <g class="primitive">
                  <text dy="-1.2em">169<tspan x="0" dy="1.1000em">17728.312365991267</tspan></text>
                </g>
              </g>
            </g>
          </g>
          <g class="color_RGBA{Float32}(0.5019608f0,0.5019608f0,0.5019608f0,1.0f0)" id="img-2b7c60cb-113">
            <g fill-opacity="1" stroke="#FFFFFF" fill="#808080" class="marker" id="img-2b7c60cb-114">
              <g transform="translate(49.92,23.32)" id="img-2b7c60cb-115">
                <circle cx="0" cy="0" r="0.9" class="primitive"/>
              </g>
            </g>
            <g fill-opacity="0" ilabel="1RGBA{Float32}(0.5019608f0,0.5019608f0,0.5019608f0,1.0f0)" class="datatip" id="img-2b7c60cb-116">
              <g transform="translate(49.92,23.32)" id="img-2b7c60cb-117">
                <g class="primitive">
                  <text dy="-1.2em">132<tspan x="0" dy="1.1000em">17728.312365991267</tspan></text>
                </g>
              </g>
            </g>
          </g>
        </g>
        <g stroke-width="0.3" fill="#000000" fill-opacity="0.000" class="geometry" id="img-2b7c60cb-118">
          <g class="color_RGB{N0f8}(0.502,0.502,0.502)" stroke-dasharray="none" stroke-opacity="1" stroke="#808080" id="img-2b7c60cb-119">
            <g transform="translate(53.61,23.32)" id="img-2b7c60cb-120">
              <path fill="none" d="M-3.69,0 L3.69,0 " class="primitive"/>
            </g>
          </g>
        </g>
        <g class="geometry" stroke="#000000" stroke-opacity="0.000" fill="#4C404B" font-size="2.82" font-family="'PT Sans Caption','Helvetica Neue','Helvetica',sans-serif" id="img-2b7c60cb-121">
          <g class="marker" id="img-2b7c60cb-122">
            <g transform="translate(48.72,28.54)" id="img-2b7c60cb-123">
              <g class="primitive">
                <text text-anchor="middle" dy="-0em" transform="translate(0,-1.9)">0.1476</text>
              </g>
            </g>
          </g>
        </g>
        <g class="geometry" stroke="#000000" stroke-opacity="0.000" fill="#4C404B" font-size="2.82" font-family="'PT Sans Caption','Helvetica Neue','Helvetica',sans-serif" id="img-2b7c60cb-124">
          <g class="marker" id="img-2b7c60cb-125">
            <g transform="translate(45.53,28.54)" id="img-2b7c60cb-126">
              <g class="primitive">
                <text dy="0.35em" transform="translate(1.9,0)"></text>
              </g>
            </g>
            <g transform="translate(51.91,28.54)" id="img-2b7c60cb-127">
              <g class="primitive">
                <text dy="0.35em" transform="translate(1.9,0)">Mg K-L3 + 1 other</text>
              </g>
            </g>
          </g>
        </g>
        <g class="geometry" stroke-width="0.3" id="img-2b7c60cb-128">
          <g class="color_RGBA{Float32}(0.5019608f0,0.5019608f0,0.5019608f0,1.0f0)" id="img-2b7c60cb-129">
            <g fill-opacity="1" stroke="#FFFFFF" fill="#808080" class="marker" id="img-2b7c60cb-130">
              <g transform="translate(51.91,28.54)" id="img-2b7c60cb-131">
                <circle cx="0" cy="0" r="0.9" class="primitive"/>
              </g>
            </g>
            <g fill-opacity="0" ilabel="2RGBA{Float32}(0.5019608f0,0.5019608f0,0.5019608f0,1.0f0)" class="datatip" id="img-2b7c60cb-132">
              <g transform="translate(51.91,28.54)" id="img-2b7c60cb-133">
                <g class="primitive">
                  <text dy="-1.2em">142<tspan x="0" dy="1.1000em">15195.696313706801</tspan></text>
                </g>
              </g>
            </g>
          </g>
          <g class="color_RGBA{Float32}(0.5019608f0,0.5019608f0,0.5019608f0,1.0f0)" id="img-2b7c60cb-134">
            <g fill-opacity="1" stroke="#FFFFFF" fill="#808080" class="marker" id="img-2b7c60cb-135">
              <g transform="translate(45.53,28.54)" id="img-2b7c60cb-136">
                <circle cx="0" cy="0" r="0.9" class="primitive"/>
              </g>
            </g>
            <g fill-opacity="0" ilabel="1RGBA{Float32}(0.5019608f0,0.5019608f0,0.5019608f0,1.0f0)" class="datatip" id="img-2b7c60cb-137">
              <g transform="translate(45.53,28.54)" id="img-2b7c60cb-138">
                <g class="primitive">
                  <text dy="-1.2em">110<tspan x="0" dy="1.1000em">15195.696313706801</tspan></text>
                </g>
              </g>
            </g>
          </g>
        </g>
        <g stroke-width="0.3" fill="#000000" fill-opacity="0.000" class="geometry" id="img-2b7c60cb-139">
          <g class="color_RGB{N0f8}(0.502,0.502,0.502)" stroke-dasharray="none" stroke-opacity="1" stroke="#808080" id="img-2b7c60cb-140">
            <g transform="translate(48.72,28.54)" id="img-2b7c60cb-141">
              <path fill="none" d="M-3.19,0 L3.19,0 " class="primitive"/>
            </g>
          </g>
        </g>
        <g class="geometry" stroke="#000000" stroke-opacity="0.000" fill="#4C404B" font-size="2.82" font-family="'PT Sans Caption','Helvetica Neue','Helvetica',sans-serif" id="img-2b7c60cb-142">
          <g class="marker" id="img-2b7c60cb-143">
            <g transform="translate(37.74,33.76)" id="img-2b7c60cb-144">
              <g class="primitive">
                <text text-anchor="middle" dy="-0em" transform="translate(0,-1.9)">0.0419</text>
              </g>
            </g>
          </g>
        </g>
        <g class="geometry" stroke="#000000" stroke-opacity="0.000" fill="#4C404B" font-size="2.82" font-family="'PT Sans Caption','Helvetica Neue','Helvetica',sans-serif" id="img-2b7c60cb-145">
          <g class="marker" id="img-2b7c60cb-146">
            <g transform="translate(33.55,33.76)" id="img-2b7c60cb-147">
              <g class="primitive">
                <text dy="0.35em" transform="translate(1.9,0)"></text>
              </g>
            </g>
            <g transform="translate(41.94,33.76)" id="img-2b7c60cb-148">
              <g class="primitive">
                <text dy="0.35em" transform="translate(1.9,0)">Fe L3-M5 + 13 others</text>
              </g>
            </g>
          </g>
        </g>
        <g class="geometry" stroke-width="0.3" id="img-2b7c60cb-149">
          <g class="color_RGBA{Float32}(0.5019608f0,0.5019608f0,0.5019608f0,1.0f0)" id="img-2b7c60cb-150">
            <g fill-opacity="1" stroke="#FFFFFF" fill="#808080" class="marker" id="img-2b7c60cb-151">
              <g transform="translate(41.94,33.76)" id="img-2b7c60cb-152">
                <circle cx="0" cy="0" r="0.9" class="primitive"/>
              </g>
            </g>
            <g fill-opacity="0" ilabel="2RGBA{Float32}(0.5019608f0,0.5019608f0,0.5019608f0,1.0f0)" class="datatip" id="img-2b7c60cb-153">
              <g transform="translate(41.94,33.76)" id="img-2b7c60cb-154">
                <g class="primitive">
                  <text dy="-1.2em">92<tspan x="0" dy="1.1000em">12663.080261422332</tspan></text>
                </g>
              </g>
            </g>
          </g>
          <g class="color_RGBA{Float32}(0.5019608f0,0.5019608f0,0.5019608f0,1.0f0)" id="img-2b7c60cb-155">
            <g fill-opacity="1" stroke="#FFFFFF" fill="#808080" class="marker" id="img-2b7c60cb-156">
              <g transform="translate(33.55,33.76)" id="img-2b7c60cb-157">
                <circle cx="0" cy="0" r="0.9" class="primitive"/>
              </g>
            </g>
            <g fill-opacity="0" ilabel="1RGBA{Float32}(0.5019608f0,0.5019608f0,0.5019608f0,1.0f0)" class="datatip" id="img-2b7c60cb-158">
              <g transform="translate(33.55,33.76)" id="img-2b7c60cb-159">
                <g class="primitive">
                  <text dy="-1.2em">50<tspan x="0" dy="1.1000em">12663.080261422332</tspan></text>
                </g>
              </g>
            </g>
          </g>
        </g>
        <g stroke-width="0.3" fill="#000000" fill-opacity="0.000" class="geometry" id="img-2b7c60cb-160">
          <g class="color_RGB{N0f8}(0.502,0.502,0.502)" stroke-dasharray="none" stroke-opacity="1" stroke="#808080" id="img-2b7c60cb-161">
            <g transform="translate(37.74,33.76)" id="img-2b7c60cb-162">
              <path fill="none" d="M-4.19,0 L4.19,0 " class="primitive"/>
            </g>
          </g>
        </g>
        <g class="geometry" stroke="#000000" stroke-opacity="0.000" fill="#4C404B" font-size="2.82" font-family="'PT Sans Caption','Helvetica Neue','Helvetica',sans-serif" id="img-2b7c60cb-163">
          <g class="marker" id="img-2b7c60cb-164">
            <g transform="translate(34.05,38.98)" id="img-2b7c60cb-165">
              <g class="primitive">
                <text text-anchor="middle" dy="-0em" transform="translate(0,-1.9)">0.6536</text>
              </g>
            </g>
          </g>
        </g>
        <g class="geometry" stroke="#000000" stroke-opacity="0.000" fill="#4C404B" font-size="2.82" font-family="'PT Sans Caption','Helvetica Neue','Helvetica',sans-serif" id="img-2b7c60cb-166">
          <g class="marker" id="img-2b7c60cb-167">
            <g transform="translate(31.36,38.98)" id="img-2b7c60cb-168">
              <g class="primitive">
                <text dy="0.35em" transform="translate(1.9,0)"></text>
              </g>
            </g>
            <g transform="translate(36.75,38.98)" id="img-2b7c60cb-169">
              <g class="primitive">
                <text dy="0.35em" transform="translate(1.9,0)">O K-L3 + 1 other</text>
              </g>
            </g>
          </g>
        </g>
        <g class="geometry" stroke-width="0.3" id="img-2b7c60cb-170">
          <g class="color_RGBA{Float32}(0.5019608f0,0.5019608f0,0.5019608f0,1.0f0)" id="img-2b7c60cb-171">
            <g fill-opacity="1" stroke="#FFFFFF" fill="#808080" class="marker" id="img-2b7c60cb-172">
              <g transform="translate(36.75,38.98)" id="img-2b7c60cb-173">
                <circle cx="0" cy="0" r="0.9" class="primitive"/>
              </g>
            </g>
            <g fill-opacity="0" ilabel="2RGBA{Float32}(0.5019608f0,0.5019608f0,0.5019608f0,1.0f0)" class="datatip" id="img-2b7c60cb-174">
              <g transform="translate(36.75,38.98)" id="img-2b7c60cb-175">
                <g class="primitive">
                  <text dy="-1.2em">66<tspan x="0" dy="1.1000em">10130.464209137866</tspan></text>
                </g>
              </g>
            </g>
          </g>
          <g class="color_RGBA{Float32}(0.5019608f0,0.5019608f0,0.5019608f0,1.0f0)" id="img-2b7c60cb-176">
            <g fill-opacity="1" stroke="#FFFFFF" fill="#808080" class="marker" id="img-2b7c60cb-177">
              <g transform="translate(31.36,38.98)" id="img-2b7c60cb-178">
                <circle cx="0" cy="0" r="0.9" class="primitive"/>
              </g>
            </g>
            <g fill-opacity="0" ilabel="1RGBA{Float32}(0.5019608f0,0.5019608f0,0.5019608f0,1.0f0)" class="datatip" id="img-2b7c60cb-179">
              <g transform="translate(31.36,38.98)" id="img-2b7c60cb-180">
                <g class="primitive">
                  <text dy="-1.2em">39<tspan x="0" dy="1.1000em">10130.464209137866</tspan></text>
                </g>
              </g>
            </g>
          </g>
        </g>
        <g stroke-width="0.3" fill="#000000" fill-opacity="0.000" class="geometry" id="img-2b7c60cb-181">
          <g class="color_RGB{N0f8}(0.502,0.502,0.502)" stroke-dasharray="none" stroke-opacity="1" stroke="#808080" id="img-2b7c60cb-182">
            <g transform="translate(34.05,38.98)" id="img-2b7c60cb-183">
              <path fill="none" d="M-2.69,0 L2.69,0 " class="primitive"/>
            </g>
          </g>
        </g>
        <g stroke-width="0.3" fill="#000000" fill-opacity="0.000" class="geometry" id="img-2b7c60cb-184">
          <g class="color_RGB{N0f8}(0.063,0.306,0.545)" stroke-dasharray="none" stroke-opacity="1" stroke="#104E8B" id="img-2b7c60cb-185">
            <g transform="translate(137.58,45.46)" id="img-2b7c60cb-186">
              <path fill="none" d="M-113.81,14.4 L-113.61,14.4 -113.61,14.4 -113.41,14.4 -113.41,14.4 -113.21,14.4 -113.21,14.41 -113.01,14.41 -113.01,14.41 -112.81,14.41 -112.81,14.4 -112.61,14.4 -112.61,14.41 -112.41,14.41 -112.41,14.41 -112.21,14.41 -112.21,14.41 -112.01,14.41 -112.01,14.41 -111.81,14.41 -111.81,14.41 -111.61,14.41 -111.61,14.4 -111.42,14.4 -111.42,14.4 -111.22,14.4 -111.22,14.4 -111.02,14.4 -111.02,14.39 -110.82,14.39 -110.82,14.38 -110.62,14.38 -110.62,14.35 -110.42,14.35 -110.42,14.31 -110.22,14.31 -110.22,14.24 -110.02,14.24 -110.02,14.06 -109.82,14.06 -109.82,13.79 -109.62,13.79 -109.62,13.23 -109.42,13.23 -109.42,12.16 -109.22,12.16 -109.22,10.32 -109.02,10.32 -109.02,7.46 -108.82,7.46 -108.82,4.57 -108.62,4.57 -108.62,2 -108.42,2 -108.42,0.89 -108.22,0.89 -108.22,1.88 -108.02,1.88 -108.02,4.22 -107.82,4.22 -107.82,7 -107.62,7 -107.62,8.82 -107.42,8.82 -107.42,10.28 -107.22,10.28 -107.22,10.88 -107.02,10.88 -107.02,10.98 -106.82,10.98 -106.82,11.02 -106.63,11.02 -106.63,10.91 -106.43,10.91 -106.43,10.99 -106.23,10.99 -106.23,10.53 -106.03,10.53 -106.03,10.41 -105.83,10.41 -105.83,9.91 -105.63,9.91 -105.63,9.32 -105.43,9.32 -105.43,8.1 -105.23,8.1 -105.23,6.04 -105.03,6.04 -105.03,1.35 -104.83,1.35 -104.83,-7.48 -104.63,-7.48 -104.63,-23.26 -104.43,-23.26 -104.43,-50.42 -104.23,-50.42 -104.23,-92.19 -104.03,-92.19 -104.03,-144.24 -103.83,-144.24 -103.83,-198.82 -103.63,-198.82 -103.63,-238.29 -103.43,-238.29 -103.43,-246.07 -103.23,-246.07 -103.23,-221.34 -103.03,-221.34 -103.03,-172.46 -102.83,-172.46 -102.83,-114.71 -102.63,-114.71 -102.63,-64.54 -102.43,-64.54 -102.43,-28.41 -102.23,-28.41 -102.23,-8.41 -102.03,-8.41 -102.03,1.72 -101.84,1.72 -101.84,6.37 -101.64,6.37 -101.64,7.83 -101.44,7.83 -101.44,8.42 -101.24,8.42 -101.24,8.66 -101.04,8.66 -101.04,8.03 -100.84,8.03 -100.84,7.2 -100.64,7.2 -100.64,5.74 -100.44,5.74 -100.44,3.41 -100.24,3.41 -100.24,0.78 -100.04,0.78 -100.04,-1.94 -99.84,-1.94 -99.84,-3.42 -99.64,-3.42 -99.64,-3.51 -99.44,-3.51 -99.44,-2.41 -99.24,-2.41 -99.24,0.3 -99.04,0.3 -99.04,2.93 -98.84,2.93 -98.84,5.04 -98.64,5.04 -98.64,6.75 -98.44,6.75 -98.44,7.95 -98.24,7.95 -98.24,8.26 -98.04,8.26 -98.04,8.34 -97.84,8.34 -97.84,8.56 -97.64,8.56 -97.64,8.63 -97.44,8.63 -97.44,8.62 -97.25,8.62 -97.25,8.29 -97.05,8.29 -97.05,8.35 -96.85,8.35 -96.85,8.1 -96.65,8.1 -96.65,7.84 -96.45,7.84 -96.45,8.02 -96.25,8.02 -96.25,7.86 -96.05,7.86 -96.05,7.53 -95.85,7.53 -95.85,7.55 -95.65,7.55 -95.65,7.62 -95.45,7.62 -95.45,7.32 -95.25,7.32 -95.25,7.15 -95.05,7.15 -95.05,6.85 -94.85,6.85 -94.85,6.82 -94.65,6.82 -94.65,6.26 -94.45,6.26 -94.45,6.47 -94.25,6.47 -94.25,6.14 -94.05,6.14 -94.05,5.73 -93.85,5.73 -93.85,5.53 -93.65,5.53 -93.65,4.99 -93.45,4.99 -93.45,4.54 -93.25,4.54 -93.25,4.47 -93.05,4.47 -93.05,4.44 -92.85,4.44 -92.85,4.35 -92.65,4.35 -92.65,3.8 -92.46,3.8 -92.46,3.81 -92.26,3.81 -92.26,3.55 -92.06,3.55 -92.06,3.83 -91.86,3.83 -91.86,3.35 -91.66,3.35 -91.66,3.09 -91.46,3.09 -91.46,3.01 -91.26,3.01 -91.26,2.64 -91.06,2.64 -91.06,1.68 -90.86,1.68 -90.86,0.65 -90.66,0.65 -90.66,-1.75 -90.46,-1.75 -90.46,-6.73 -90.26,-6.73 -90.26,-16.29 -90.06,-16.29 -90.06,-32.11 -89.86,-32.11 -89.86,-58.82 -89.66,-58.82 -89.66,-95.63 -89.46,-95.63 -89.46,-141.83 -89.26,-141.83 -89.26,-187.96 -89.06,-187.96 -89.06,-225.02 -88.86,-225.02 -88.86,-244.01 -88.66,-244.01 -88.66,-239.07 -88.46,-239.07 -88.46,-213.14 -88.26,-213.14 -88.26,-171.65 -88.06,-171.65 -88.06,-125.67 -87.86,-125.67 -87.86,-83.72 -87.67,-83.72 -87.67,-51.37 -87.47,-51.37 -87.47,-27.63 -87.27,-27.63 -87.27,-13.64 -87.07,-13.64 -87.07,-4.94 -86.87,-4.94 -86.87,-0.93 -86.67,-0.93 -86.67,1.24 -86.47,1.24 -86.47,1.71 -86.27,1.71 -86.27,2.09 -86.07,2.09 -86.07,1.2 -85.87,1.2 -85.87,-0.58 -85.67,-0.58 -85.67,-3.9 -85.47,-3.9 -85.47,-10.63 -85.27,-10.63 -85.27,-20.99 -85.07,-20.99 -85.07,-35.77 -84.87,-35.77 -84.87,-53.54 -84.67,-53.54 -84.67,-72.86 -84.47,-72.86 -84.47,-89.02 -84.27,-89.02 -84.27,-98.99 -84.07,-98.99 -84.07,-100.6 -83.87,-100.6 -83.87,-93.73 -83.67,-93.73 -83.67,-78.23 -83.47,-78.23 -83.47,-60.83 -83.27,-60.83 -83.27,-42.86 -83.07,-42.86 -83.07,-28.2 -82.88,-28.2 -82.88,-16.55 -82.68,-16.55 -82.68,-9.87 -82.48,-9.87 -82.48,-4.76 -82.28,-4.76 -82.28,-1.67 -82.08,-1.67 -82.08,-0.43 -81.88,-0.43 -81.88,0.76 -81.68,0.76 -81.68,1.44 -81.48,1.44 -81.48,0.34 -81.28,0.34 -81.28,-1.24 -81.08,-1.24 -81.08,-5.53 -80.88,-5.53 -80.88,-14.16 -80.68,-14.16 -80.68,-30.14 -80.48,-30.14 -80.48,-59.7 -80.28,-59.7 -80.28,-102.43 -80.08,-102.43 -80.08,-163.37 -79.88,-163.37 -79.88,-239.09 -79.68,-239.09 -79.68,-319.87 -79.48,-319.87 -79.48,-391.24 -79.28,-391.24 -79.28,-448.32 -79.08,-448.32 -79.08,-465.18 -78.88,-465.18 -78.88,-444.39 -78.68,-444.39 -78.68,-390.98 -78.48,-390.98 -78.48,-318.21 -78.29,-318.21 -78.29,-241.83 -78.09,-241.83 -78.09,-171.68 -77.89,-171.68 -77.89,-115.61 -77.69,-115.61 -77.69,-74.42 -77.49,-74.42 -77.49,-47.54 -77.29,-47.54 -77.29,-31.26 -77.09,-31.26 -77.09,-21.42 -76.89,-21.42 -76.89,-14.61 -76.69,-14.61 -76.69,-9.33 -76.49,-9.33 -76.49,-4.83 -76.29,-4.83 -76.29,-1.55 -76.09,-1.55 -76.09,1.1 -75.89,1.1 -75.89,2.71 -75.69,2.71 -75.69,3.4 -75.49,3.4 -75.49,3.9 -75.29,3.9 -75.29,4.64 -75.09,4.64 -75.09,4.96 -74.89,4.96 -74.89,4.8 -74.69,4.8 -74.69,5.02 -74.49,5.02 -74.49,5.27 -74.29,5.27 -74.29,5.48 -74.09,5.48 -74.09,5.49 -73.89,5.49 -73.89,5.8 -73.69,5.8 -73.69,6.14 -73.5,6.14 -73.5,6.03 -73.3,6.03 -73.3,6.5 -73.1,6.5 -73.1,6.55 -72.9,6.55 -72.9,6.53 -72.7,6.53 -72.7,6.45 -72.5,6.45 -72.5,6.58 -72.3,6.58 -72.3,6.69 -72.1,6.69 -72.1,6.44 -71.9,6.44 -71.9,6.44 -71.7,6.44 -71.7,6.54 -71.5,6.54 -71.5,6.52 -71.3,6.52 -71.3,6.83 -71.1,6.83 -71.1,6.26 -70.9,6.26 -70.9,6.5 -70.7,6.5 -70.7,6.32 -70.5,6.32 -70.5,6.54 -70.3,6.54 -70.3,6.55 -70.1,6.55 -70.1,6.2 -69.9,6.2 -69.9,6.11 -69.7,6.11 -69.7,5.93 -69.5,5.93 -69.5,5.87 -69.3,5.87 -69.3,5.77 -69.1,5.77 -69.1,5.67 -68.9,5.67 -68.9,5.61 -68.71,5.61 -68.71,5.69 -68.51,5.69 -68.51,5.54 -68.31,5.54 -68.31,5.46 -68.11,5.46 -68.11,5.86 -67.91,5.86 -67.91,6 -67.71,6 -67.71,6.09 -67.51,6.09 -67.51,6.01 -67.31,6.01 -67.31,6.1 -67.11,6.1 -67.11,6.18 -66.91,6.18 -66.91,6.11 -66.71,6.11 -66.71,6.39 -66.51,6.39 -66.51,6.36 -66.31,6.36 -66.31,6.38 -66.11,6.38 -66.11,6.38 -65.91,6.38 -65.91,6.4 -65.71,6.4 -65.71,6.43 -65.51,6.43 -65.51,6.51 -65.31,6.51 -65.31,6.18 -65.11,6.18 -65.11,6.45 -64.91,6.45 -64.91,6.43 -64.71,6.43 -64.71,6.16 -64.51,6.16 -64.51,6.35 -64.31,6.35 -64.31,6.35 -64.11,6.35 -64.11,6.27 -63.92,6.27 -63.92,6.48 -63.72,6.48 -63.72,6.29 -63.52,6.29 -63.52,6.39 -63.32,6.39 -63.32,6.08 -63.12,6.08 -63.12,6.49 -62.92,6.49 -62.92,6.26 -62.72,6.26 -62.72,6.16 -62.52,6.16 -62.52,6.83 -62.32,6.83 -62.32,6.31 -62.12,6.31 -62.12,6.54 -61.92,6.54 -61.92,6.4 -61.72,6.4 -61.72,6.5 -61.52,6.5 -61.52,6.49 -61.32,6.49 -61.32,6.33 -61.12,6.33 -61.12,6.6 -60.92,6.6 -60.92,6.48 -60.72,6.48 -60.72,6.5 -60.52,6.5 -60.52,6.51 -60.32,6.51 -60.32,6.64 -60.12,6.64 -60.12,6.52 -59.92,6.52 -59.92,6.63 -59.72,6.63 -59.72,6.66 -59.52,6.66 -59.52,6.34 -59.32,6.34 -59.32,6.62 -59.13,6.62 -59.13,6.61 -58.93,6.61 -58.93,6.64 -58.73,6.64 -58.73,6.78 -58.53,6.78 -58.53,6.59 -58.33,6.59 -58.33,6.52 -58.13,6.52 -58.13,6.9 -57.93,6.9 -57.93,6.8 -57.73,6.8 -57.73,6.8 -57.53,6.8 -57.53,6.72 -57.33,6.72 -57.33,6.62 -57.13,6.62 -57.13,6.69 -56.93,6.69 -56.93,6.92 -56.73,6.92 -56.73,6.82 -56.53,6.82 -56.53,6.58 -56.33,6.58 -56.33,6.86 -56.13,6.86 -56.13,6.67 -55.93,6.67 -55.93,6.59 -55.73,6.59 -55.73,6.56 -55.53,6.56 -55.53,6.64 -55.33,6.64 -55.33,6.85 -55.13,6.85 -55.13,6.6 -54.93,6.6 -54.93,6.51 -54.73,6.51 -54.73,6.32 -54.54,6.32 -54.54,6.35 -54.34,6.35 -54.34,6.38 -54.14,6.38 -54.14,6.41 -53.94,6.41 -53.94,6.58 -53.74,6.58 -53.74,6.54 -53.54,6.54 -53.54,6.74 -53.34,6.74 -53.34,6.73 -53.14,6.73 -53.14,6.75 -52.94,6.75 -52.94,7.01 -52.74,7.01 -52.74,6.82 -52.54,6.82 -52.54,6.96 -52.34,6.96 -52.34,7.03 -52.14,7.03 -52.14,7.05 -51.94,7.05 -51.94,7.02 -51.74,7.02 -51.74,7.21 -51.54,7.21 -51.54,7.24 -51.34,7.24 -51.34,6.97 -51.14,6.97 -51.14,7.16 -50.94,7.16 -50.94,7.01 -50.74,7.01 -50.74,6.87 -50.54,6.87 -50.54,7 -50.34,7 -50.34,7.01 -50.14,7.01 -50.14,7.03 -49.94,7.03 -49.94,7.17 -49.75,7.17 -49.75,7 -49.55,7 -49.55,6.9 -49.35,6.9 -49.35,7.2 -49.15,7.2 -49.15,7.06 -48.95,7.06 -48.95,6.79 -48.75,6.79 -48.75,7.4 -48.55,7.4 -48.55,7.05 -48.35,7.05 -48.35,7.34 -48.15,7.34 -48.15,7.18 -47.95,7.18 -47.95,7.15 -47.75,7.15 -47.75,7.19 -47.55,7.19 -47.55,7.41 -47.35,7.41 -47.35,7.65 -47.15,7.65 -47.15,7.59 -46.95,7.59 -46.95,7.47 -46.75,7.47 -46.75,7.35 -46.55,7.35 -46.55,7.39 -46.35,7.39 -46.35,7.52 -46.15,7.52 -46.15,7.65 -45.95,7.65 -45.95,7.36 -45.75,7.36 -45.75,7.59 -45.55,7.59 -45.55,7.66 -45.35,7.66 -45.35,7.53 -45.15,7.53 -45.15,7.33 -44.96,7.33 -44.96,7.21 -44.76,7.21 -44.76,7.36 -44.56,7.36 -44.56,7.29 -44.36,7.29 -44.36,7.17 -44.16,7.17 -44.16,6.97 -43.96,6.97 -43.96,7.1 -43.76,7.1 -43.76,6.68 -43.56,6.68 -43.56,6.58 -43.36,6.58 -43.36,6.45 -43.16,6.45 -43.16,6.15 -42.96,6.15 -42.96,5.42 -42.76,5.42 -42.76,4.37 -42.56,4.37 -42.56,2.89 -42.36,2.89 -42.36,-0.39 -42.16,-0.39 -42.16,-4.67 -41.96,-4.67 -41.96,-11.09 -41.76,-11.09 -41.76,-20.69 -41.56,-20.69 -41.56,-33.09 -41.36,-33.09 -41.36,-49.26 -41.16,-49.26 -41.16,-67.92 -40.96,-67.92 -40.96,-87.92 -40.76,-87.92 -40.76,-106.39 -40.56,-106.39 -40.56,-124.51 -40.36,-124.51 -40.36,-136.71 -40.17,-136.71 -40.17,-141.71 -39.97,-141.71 -39.97,-141.73 -39.77,-141.73 -39.77,-133.03 -39.57,-133.03 -39.57,-118.8 -39.37,-118.8 -39.37,-102.36 -39.17,-102.36 -39.17,-81.59 -38.97,-81.59 -38.97,-62.63 -38.77,-62.63 -38.77,-43.52 -38.57,-43.52 -38.57,-28.93 -38.37,-28.93 -38.37,-17.15 -38.17,-17.15 -38.17,-8.43 -37.97,-8.43 -37.97,-2.52 -37.77,-2.52 -37.77,1.84 -37.57,1.84 -37.57,4.54 -37.37,4.54 -37.37,5.72 -37.17,5.72 -37.17,7.13 -36.97,7.13 -36.97,7.32 -36.77,7.32 -36.77,7.74 -36.57,7.74 -36.57,7.69 -36.37,7.69 -36.37,7.69 -36.17,7.69 -36.17,7.27 -35.97,7.27 -35.97,7.27 -35.77,7.27 -35.77,6.42 -35.58,6.42 -35.58,5.74 -35.38,5.74 -35.38,4.63 -35.18,4.63 -35.18,2.85 -34.98,2.85 -34.98,1.28 -34.78,1.28 -34.78,-0.84 -34.58,-0.84 -34.58,-3.23 -34.38,-3.23 -34.38,-5.2 -34.18,-5.2 -34.18,-7.18 -33.98,-7.18 -33.98,-8.09 -33.78,-8.09 -33.78,-9.42 -33.58,-9.42 -33.58,-9.29 -33.38,-9.29 -33.38,-8.54 -33.18,-8.54 -33.18,-7.26 -32.98,-7.26 -32.98,-5.47 -32.78,-5.47 -32.78,-3.26 -32.58,-3.26 -32.58,-0.76 -32.38,-0.76 -32.38,1.51 -32.18,1.51 -32.18,3.39 -31.98,3.39 -31.98,5.17 -31.78,5.17 -31.78,6.37 -31.58,6.37 -31.58,7.34 -31.38,7.34 -31.38,7.83 -31.18,7.83 -31.18,8.46 -30.98,8.46 -30.98,9.03 -30.79,9.03 -30.79,8.83 -30.59,8.83 -30.59,8.97 -30.39,8.97 -30.39,8.9 -30.19,8.9 -30.19,9.17 -29.99,9.17 -29.99,9.2 -29.79,9.2 -29.79,9.12 -29.59,9.12 -29.59,9.2 -29.39,9.2 -29.39,9.1 -29.19,9.1 -29.19,9.26 -28.99,9.26 -28.99,9.21 -28.79,9.21 -28.79,9.39 -28.59,9.39 -28.59,9.17 -28.39,9.17 -28.39,9.57 -28.19,9.57 -28.19,9.51 -27.99,9.51 -27.99,9.47 -27.79,9.47 -27.79,9.44 -27.59,9.44 -27.59,9.47 -27.39,9.47 -27.39,9.39 -27.19,9.39 -27.19,9.71 -26.99,9.71 -26.99,9.43 -26.79,9.43 -26.79,9.58 -26.59,9.58 -26.59,9.62 -26.39,9.62 -26.39,9.45 -26.19,9.45 -26.19,9.58 -26,9.58 -26,9.79 -25.8,9.79 -25.8,9.57 -25.6,9.57 -25.6,9.52 -25.4,9.52 -25.4,9.76 -25.2,9.76 -25.2,9.56 -25,9.56 -25,9.6 -24.8,9.6 -24.8,9.85 -24.6,9.85 -24.6,9.69 -24.4,9.69 -24.4,9.69 -24.2,9.69 -24.2,9.72 -24,9.72 -24,9.61 -23.8,9.61 -23.8,9.74 -23.6,9.74 -23.6,9.55 -23.4,9.55 -23.4,9.82 -23.2,9.82 -23.2,9.79 -23,9.79 -23,9.84 -22.8,9.84 -22.8,9.74 -22.6,9.74 -22.6,9.92 -22.4,9.92 -22.4,9.71 -22.2,9.71 -22.2,9.75 -22,9.75 -22,9.83 -21.8,9.83 -21.8,9.66 -21.6,9.66 -21.6,9.53 -21.4,9.53 -21.4,9.78 -21.21,9.78 -21.21,9.81 -21.01,9.81 -21.01,9.65 -20.81,9.65 -20.81,9.89 -20.61,9.89 -20.61,10 -20.41,10 -20.41,9.9 -20.21,9.9 -20.21,9.83 -20.01,9.83 -20.01,9.86 -19.81,9.86 -19.81,9.72 -19.61,9.72 -19.61,9.9 -19.41,9.9 -19.41,9.89 -19.21,9.89 -19.21,10.1 -19.01,10.1 -19.01,10.08 -18.81,10.08 -18.81,10.05 -18.61,10.05 -18.61,10.09 -18.41,10.09 -18.41,10.06 -18.21,10.06 -18.21,9.96 -18.01,9.96 -18.01,10.15 -17.81,10.15 -17.81,10.17 -17.61,10.17 -17.61,10.17 -17.41,10.17 -17.41,10.36 -17.21,10.36 -17.21,10.08 -17.01,10.08 -17.01,10.04 -16.81,10.04 -16.81,10.1 -16.61,10.1 -16.61,10.24 -16.42,10.24 -16.42,10.15 -16.22,10.15 -16.22,10.02 -16.02,10.02 -16.02,10.15 -15.82,10.15 -15.82,10.03 -15.62,10.03 -15.62,10.09 -15.42,10.09 -15.42,10.12 -15.22,10.12 -15.22,10.14 -15.02,10.14 -15.02,10.03 -14.82,10.03 -14.82,10.25 -14.62,10.25 -14.62,10.14 -14.42,10.14 -14.42,10.09 -14.22,10.09 -14.22,10.08 -14.02,10.08 -14.02,10.13 -13.82,10.13 -13.82,10.12 -13.62,10.12 -13.62,10.38 -13.42,10.38 -13.42,10.37 -13.22,10.37 -13.22,10.29 -13.02,10.29 -13.02,10.38 -12.82,10.38 -12.82,10.32 -12.62,10.32 -12.62,10.53 -12.42,10.53 -12.42,10.31 -12.22,10.31 -12.22,10.34 -12.02,10.34 -12.02,10.24 -11.83,10.24 -11.83,10.35 -11.63,10.35 -11.63,10.37 -11.43,10.37 -11.43,10.36 -11.23,10.36 -11.23,10.4 -11.03,10.4 -11.03,10.51 -10.83,10.51 -10.83,10.46 -10.63,10.46 -10.63,10.3 -10.43,10.3 -10.43,10.37 -10.23,10.37 -10.23,10.28 -10.03,10.28 -10.03,10.38 -9.83,10.38 -9.83,10.44 -9.63,10.44 -9.63,10.42 -9.43,10.42 -9.43,10.45 -9.23,10.45 -9.23,10.35 -9.03,10.35 -9.03,10.51 -8.83,10.51 -8.83,10.44 -8.63,10.44 -8.63,10.48 -8.43,10.48 -8.43,10.43 -8.23,10.43 -8.23,10.61 -8.03,10.61 -8.03,10.54 -7.83,10.54 -7.83,10.37 -7.63,10.37 -7.63,10.53 -7.43,10.53 -7.43,10.64 -7.23,10.64 -7.23,10.61 -7.04,10.61 -7.04,10.47 -6.84,10.47 -6.84,10.49 -6.64,10.49 -6.64,10.42 -6.44,10.42 -6.44,10.37 -6.24,10.37 -6.24,10.21 -6.04,10.21 -6.04,10.3 -5.84,10.3 -5.84,10.28 -5.64,10.28 -5.64,10.42 -5.44,10.42 -5.44,10.4 -5.24,10.4 -5.24,10.41 -5.04,10.41 -5.04,10.37 -4.84,10.37 -4.84,10.4 -4.64,10.4 -4.64,10.41 -4.44,10.41 -4.44,10.38 -4.24,10.38 -4.24,10.67 -4.04,10.67 -4.04,10.67 -3.84,10.67 -3.84,10.59 -3.64,10.59 -3.64,10.63 -3.44,10.63 -3.44,10.75 -3.24,10.75 -3.24,10.69 -3.04,10.69 -3.04,10.81 -2.84,10.81 -2.84,10.74 -2.64,10.74 -2.64,10.66 -2.44,10.66 -2.44,10.75 -2.25,10.75 -2.25,10.85 -2.05,10.85 -2.05,10.78 -1.85,10.78 -1.85,10.82 -1.65,10.82 -1.65,10.79 -1.45,10.79 -1.45,10.78 -1.25,10.78 -1.25,11.05 -1.05,11.05 -1.05,10.9 -0.85,10.9 -0.85,11 -0.65,11 -0.65,11 -0.45,11 -0.45,10.89 -0.25,10.89 -0.25,10.97 -0.05,10.97 -0.05,10.85 0.15,10.85 0.15,10.89 0.35,10.89 0.35,11.03 0.55,11.03 0.55,10.83 0.75,10.83 0.75,11.04 0.95,11.04 0.95,10.82 1.15,10.82 1.15,11.06 1.35,11.06 1.35,11.03 1.55,11.03 1.55,11.01 1.75,11.01 1.75,10.92 1.95,10.92 1.95,10.98 2.15,10.98 2.15,10.81 2.35,10.81 2.35,10.89 2.54,10.89 2.54,10.85 2.74,10.85 2.74,10.7 2.94,10.7 2.94,10.81 3.14,10.81 3.14,10.83 3.34,10.83 3.34,10.58 3.54,10.58 3.54,10.68 3.74,10.68 3.74,10.76 3.94,10.76 3.94,10.63 4.14,10.63 4.14,10.8 4.34,10.8 4.34,10.8 4.54,10.8 4.54,10.82 4.74,10.82 4.74,10.91 4.94,10.91 4.94,11 5.14,11 5.14,10.99 5.34,10.99 5.34,10.93 5.54,10.93 5.54,10.98 5.74,10.98 5.74,11.25 5.94,11.25 5.94,11.03 6.14,11.03 6.14,11.17 6.34,11.17 6.34,11.18 6.54,11.18 6.54,11.16 6.74,11.16 6.74,11.08 6.94,11.08 6.94,11.15 7.13,11.15 7.13,11.17 7.33,11.17 7.33,11.34 7.53,11.34 7.53,11.22 7.73,11.22 7.73,11.28 7.93,11.28 7.93,11.3 8.13,11.3 8.13,11.24 8.33,11.24 8.33,11.27 8.53,11.27 8.53,11.12 8.73,11.12 8.73,11.46 8.93,11.46 8.93,11.29 9.13,11.29 9.13,11.29 9.33,11.29 9.33,11.09 9.53,11.09 9.53,11.07 9.73,11.07 9.73,11.11 9.93,11.11 9.93,11.24 10.13,11.24 10.13,11.23 10.33,11.23 10.33,10.83 10.53,10.83 10.53,10.76 10.73,10.76 10.73,10.38 10.93,10.38 10.93,9.9 11.13,9.9 11.13,9.22 11.33,9.22 11.33,8.51 11.53,8.51 11.53,6.99 11.73,6.99 11.73,4.97 11.92,4.97 11.92,2.92 12.12,2.92 12.12,0.18 12.32,0.18 12.32,-3.16 12.52,-3.16 12.52,-6.92 12.72,-6.92 12.72,-10.56 12.92,-10.56 12.92,-14.83 13.12,-14.83 13.12,-19.1 13.32,-19.1 13.32,-22.37 13.52,-22.37 13.52,-24.82 13.72,-24.82 13.72,-27.03 13.92,-27.03 13.92,-27.47 14.12,-27.47 14.12,-26.32 14.32,-26.32 14.32,-25.15 14.52,-25.15 14.52,-21.85 14.72,-21.85 14.72,-17.83 14.92,-17.83 14.92,-15.03 15.12,-15.03 15.12,-10.78 15.32,-10.78 15.32,-7.01 15.52,-7.01 15.52,-2.7 15.72,-2.7 15.72,0.25 15.92,0.25 15.92,2.99 16.12,2.99 16.12,5.32 16.32,5.32 16.32,7.22 16.52,7.22 16.52,8.61 16.71,8.61 16.71,9.54 16.91,9.54 16.91,10.29 17.11,10.29 17.11,10.82 17.31,10.82 17.31,11.04 17.51,11.04 17.51,11.21 17.71,11.21 17.71,11.33 17.91,11.33 17.91,11.55 18.11,11.55 18.11,11.44 18.31,11.44 18.31,11.65 18.51,11.65 18.51,11.73 18.71,11.73 18.71,11.65 18.91,11.65 18.91,11.58 19.11,11.58 19.11,11.59 19.31,11.59 19.31,11.5 19.51,11.5 19.51,11.68 19.71,11.68 19.71,11.72 19.91,11.72 19.91,11.74 20.11,11.74 20.11,11.61 20.31,11.61 20.31,11.76 20.51,11.76 20.51,11.6 20.71,11.6 20.71,11.67 20.91,11.67 20.91,11.56 21.11,11.56 21.11,11.8 21.31,11.8 21.31,11.76 21.5,11.76 21.5,11.78 21.7,11.78 21.7,11.84 21.9,11.84 21.9,11.75 22.1,11.75 22.1,11.75 22.3,11.75 22.3,11.79 22.5,11.79 22.5,11.72 22.7,11.72 22.7,11.79 22.9,11.79 22.9,11.66 23.1,11.66 23.1,11.75 23.3,11.75 23.3,11.55 23.5,11.55 23.5,11.58 23.7,11.58 23.7,11.52 23.9,11.52 23.9,11.48 24.1,11.48 24.1,11.43 24.3,11.43 24.3,11.16 24.5,11.16 24.5,11.04 24.7,11.04 24.7,11.03 24.9,11.03 24.9,10.55 25.1,10.55 25.1,10.4 25.3,10.4 25.3,9.87 25.5,9.87 25.5,9.68 25.7,9.68 25.7,9.01 25.9,9.01 25.9,8.74 26.1,8.74 26.1,8.14 26.29,8.14 26.29,7.81 26.49,7.81 26.49,7.38 26.69,7.38 26.69,7.1 26.89,7.1 26.89,7.1 27.09,7.1 27.09,6.89 27.29,6.89 27.29,7.2 27.49,7.2 27.49,7.51 27.69,7.51 27.69,7.83 27.89,7.83 27.89,8.2 28.09,8.2 28.09,8.7 28.29,8.7 28.29,9.34 28.49,9.34 28.49,9.71 28.69,9.71 28.69,10.25 28.89,10.25 28.89,10.63 29.09,10.63 29.09,10.93 29.29,10.93 29.29,11.19 29.49,11.19 29.49,11.42 29.69,11.42 29.69,11.63 29.89,11.63 29.89,11.85 30.09,11.85 30.09,11.91 30.29,11.91 30.29,11.84 30.49,11.84 30.49,12.05 30.69,12.05 30.69,12.13 30.88,12.13 30.88,12.09 31.08,12.09 31.08,12.12 31.28,12.12 31.28,11.99 31.48,11.99 31.48,12.2 31.68,12.2 31.68,12.07 31.88,12.07 31.88,12.16 32.08,12.16 32.08,12.11 32.28,12.11 32.28,12.12 32.48,12.12 32.48,12.18 32.68,12.18 32.68,12 32.88,12 32.88,12.13 33.08,12.13 33.08,12.24 33.28,12.24 33.28,12.14 33.48,12.14 33.48,12.07 33.68,12.07 33.68,12 33.88,12 33.88,12.12 34.08,12.12 34.08,12.2 34.28,12.2 34.28,12.07 34.48,12.07 34.48,12.15 34.68,12.15 34.68,12.05 34.88,12.05 34.88,12.24 35.08,12.24 35.08,12.19 35.28,12.19 35.28,12.18 35.48,12.18 35.48,12.06 35.67,12.06 35.67,12.17 35.87,12.17 35.87,12.13 36.07,12.13 36.07,12.13 36.27,12.13 36.27,12.15 36.47,12.15 36.47,12.23 36.67,12.23 36.67,12.23 36.87,12.23 36.87,12.19 37.07,12.19 37.07,12.18 37.27,12.18 37.27,12.3 37.47,12.3 37.47,12.21 37.67,12.21 37.67,12.28 37.87,12.28 37.87,12.25 38.07,12.25 38.07,12.36 38.27,12.36 38.27,12.23 38.47,12.23 38.47,12.18 38.67,12.18 38.67,12.31 38.87,12.31 38.87,12.28 39.07,12.28 39.07,12.35 39.27,12.35 39.27,12.23 39.47,12.23 39.47,12.34 39.67,12.34 39.67,12.26 39.87,12.26 39.87,12.22 40.07,12.22 40.07,12.25 40.27,12.25 40.27,12.4 40.46,12.4 40.46,12.29 40.66,12.29 40.66,12.32 40.86,12.32 40.86,12.36 41.06,12.36 41.06,12.41 41.26,12.41 41.26,12.39 41.46,12.39 41.46,12.39 41.66,12.39 41.66,12.25 41.86,12.25 41.86,12.31 42.06,12.31 42.06,12.35 42.26,12.35 42.26,12.44 42.46,12.44 42.46,12.39 42.66,12.39 42.66,12.37 42.86,12.37 42.86,12.35 43.06,12.35 43.06,12.46 43.26,12.46 43.26,12.34 43.46,12.34 43.46,12.49 43.66,12.49 43.66,12.4 43.86,12.4 43.86,12.4 44.06,12.4 44.06,12.4 44.26,12.4 44.26,12.44 44.46,12.44 44.46,12.41 44.66,12.41 44.66,12.51 44.86,12.51 44.86,12.42 45.06,12.42 45.06,12.43 45.25,12.43 45.25,12.58 45.45,12.58 45.45,12.44 45.65,12.44 45.65,12.44 45.85,12.44 45.85,12.41 46.05,12.41 46.05,12.43 46.25,12.43 46.25,12.46 46.45,12.46 46.45,12.46 46.65,12.46 46.65,12.36 46.85,12.36 46.85,12.51 47.05,12.51 47.05,12.36 47.25,12.36 47.25,12.42 47.45,12.42 47.45,12.51 47.65,12.51 47.65,12.45 47.85,12.45 47.85,12.42 48.05,12.42 48.05,12.43 48.25,12.43 48.25,12.57 48.45,12.57 48.45,12.47 48.65,12.47 48.65,12.48 48.85,12.48 48.85,12.52 49.05,12.52 49.05,12.51 49.25,12.51 49.25,12.57 49.45,12.57 49.45,12.56 49.65,12.56 49.65,12.69 49.84,12.69 49.84,12.27 50.04,12.27 50.04,12.57 50.24,12.57 50.24,12.46 50.44,12.46 50.44,12.47 50.64,12.47 50.64,12.56 50.84,12.56 50.84,12.49 51.04,12.49 51.04,12.6 51.24,12.6 51.24,12.62 51.44,12.62 51.44,12.64 51.64,12.64 51.64,12.57 51.84,12.57 51.84,12.62 52.04,12.62 52.04,12.59 52.24,12.59 52.24,12.55 52.44,12.55 52.44,12.71 52.64,12.71 52.64,12.63 52.84,12.63 52.84,12.57 53.04,12.57 53.04,12.63 53.24,12.63 53.24,12.63 53.44,12.63 53.44,12.69 53.64,12.69 53.64,12.63 53.84,12.63 53.84,12.69 54.04,12.69 54.04,12.55 54.24,12.55 54.24,12.7 54.44,12.7 54.44,12.6 54.63,12.6 54.63,12.78 54.83,12.78 54.83,12.8 55.03,12.8 55.03,12.66 55.23,12.66 55.23,12.67 55.43,12.67 55.43,12.79 55.63,12.79 55.63,12.71 55.83,12.71 55.83,12.7 56.03,12.7 56.03,12.67 56.23,12.67 56.23,12.85 56.43,12.85 56.43,12.75 56.63,12.75 56.63,12.76 56.83,12.76 56.83,12.64 57.03,12.64 57.03,12.8 57.23,12.8 57.23,12.89 57.43,12.89 57.43,12.69 57.63,12.69 57.63,12.73 57.83,12.73 57.83,12.71 58.03,12.71 58.03,12.68 58.23,12.68 58.23,12.82 58.43,12.82 58.43,12.71 58.63,12.71 58.63,12.77 58.83,12.77 58.83,12.67 59.03,12.67 59.03,12.75 59.23,12.75 59.23,12.81 59.42,12.81 59.42,12.72 59.62,12.72 59.62,12.75 59.82,12.75 59.82,12.83 60.02,12.83 60.02,12.71 60.22,12.71 60.22,12.7 60.42,12.7 60.42,12.81 60.62,12.81 60.62,12.84 60.82,12.84 60.82,12.76 61.02,12.76 61.02,12.88 61.22,12.88 61.22,12.74 61.42,12.74 61.42,12.83 61.62,12.83 61.62,12.85 61.82,12.85 61.82,12.86 62.02,12.86 62.02,12.71 62.22,12.71 62.22,12.75 62.42,12.75 62.42,12.9 62.62,12.9 62.62,12.77 62.82,12.77 62.82,12.8 63.02,12.8 63.02,12.86 63.22,12.86 63.22,12.85 63.42,12.85 63.42,12.83 63.62,12.83 63.62,12.85 63.82,12.85 63.82,12.79 64.02,12.79 64.02,12.9 64.21,12.9 64.21,12.81 64.41,12.81 64.41,12.85 64.61,12.85 64.61,12.86 64.81,12.86 64.81,12.84 65.01,12.84 65.01,12.78 65.21,12.78 65.21,12.85 65.41,12.85 65.41,12.98 65.61,12.98 65.61,12.84 65.81,12.84 65.81,12.79 66.01,12.79 66.01,12.84 66.21,12.84 66.21,12.86 66.41,12.86 66.41,12.86 66.61,12.86 66.61,12.87 66.81,12.87 66.81,12.9 67.01,12.9 67.01,12.89 67.21,12.89 67.21,12.87 67.41,12.87 67.41,12.91 67.61,12.91 67.61,12.86 67.81,12.86 67.81,12.94 68.01,12.94 68.01,13.02 68.21,13.02 68.21,13.03 68.41,13.03 68.41,12.92 68.61,12.92 68.61,12.91 68.81,12.91 68.81,12.88 69,12.88 69,12.87 69.2,12.87 69.2,12.93 69.4,12.93 69.4,12.84 69.6,12.84 69.6,13.04 69.8,13.04 69.8,13.05 70,13.05 70,12.96 70.2,12.96 70.2,12.99 70.4,12.99 70.4,12.93 70.6,12.93 70.6,12.96 70.8,12.96 70.8,13.06 71,13.06 71,13.07 71.2,13.07 71.2,12.9 71.4,12.9 71.4,12.92 71.6,12.92 71.6,13.05 71.8,13.05 71.8,12.95 72,12.95 72,13.03 72.2,13.03 72.2,12.97 72.4,12.97 72.4,12.92 72.6,12.92 72.6,12.99 72.8,12.99 72.8,13.01 73,13.01 73,13.01 73.2,13.01 73.2,13.03 73.4,13.03 73.4,12.94 73.59,12.94 73.59,13.07 73.79,13.07 73.79,13.03 73.99,13.03 73.99,13.04 74.19,13.04 74.19,13.13 74.39,13.13 74.39,13.12 74.59,13.12 74.59,13.06 74.79,13.06 74.79,13.06 74.99,13.06 74.99,13.09 75.19,13.09 75.19,13.11 75.39,13.11 75.39,12.97 75.59,12.97 75.59,13.06 75.79,13.06 75.79,13.04 75.99,13.04 75.99,13.12 76.19,13.12 76.19,12.99 76.39,12.99 76.39,13.03 76.59,13.03 76.59,13.08 76.79,13.08 76.79,13.12 76.99,13.12 76.99,12.95 77.19,12.95 77.19,12.99 77.39,12.99 77.39,13.18 77.59,13.18 77.59,13.13 77.79,13.13 77.79,13.17 77.99,13.17 77.99,13 78.19,13 78.19,13.14 78.38,13.14 78.38,13.09 78.58,13.09 78.58,13.14 78.78,13.14 78.78,13.17 78.98,13.17 78.98,13.06 79.18,13.06 79.18,13.24 79.38,13.24 79.38,13.14 79.58,13.14 79.58,13.11 79.78,13.11 79.78,13.07 79.98,13.07 79.98,13.1 80.18,13.1 80.18,13.16 80.38,13.16 80.38,13.21 80.58,13.21 80.58,13.14 80.78,13.14 80.78,13.07 80.98,13.07 80.98,13.2 81.18,13.2 81.18,13.11 81.38,13.11 81.38,13.14 81.58,13.14 81.58,13.12 81.78,13.12 81.78,13.18 81.98,13.18 81.98,13.19 82.18,13.19 82.18,13.17 82.38,13.17 82.38,13.18 82.58,13.18 82.58,13.19 82.78,13.19 82.78,13.12 82.98,13.12 82.98,13.22 83.17,13.22 83.17,13.16 83.37,13.16 83.37,13.15 83.57,13.15 83.57,13.15 83.77,13.15 83.77,13.19 83.97,13.19 83.97,13.13 84.17,13.13 84.17,13.21 84.37,13.21 84.37,13.11 84.57,13.11 84.57,13.18 84.77,13.18 84.77,13.23 84.97,13.23 84.97,13.26 85.17,13.26 85.17,13.3 85.37,13.3 85.37,13.13 85.57,13.13 85.57,13.22 85.77,13.22 85.77,13.3 85.97,13.3 85.97,13.23 86.17,13.23 86.17,13.22 86.37,13.22 86.37,13.26 86.57,13.26 86.57,13.24 86.77,13.24 86.77,13.19 86.97,13.19 86.97,13.31 87.17,13.31 87.17,13.23 87.37,13.23 87.37,13.26 87.57,13.26 87.57,13.18 87.77,13.18 87.77,13.15 87.96,13.15 87.96,13.22 88.16,13.22 88.16,13.26 88.36,13.26 88.36,13.23 88.56,13.23 88.56,13.2 88.76,13.2 88.76,13.25 88.96,13.25 88.96,13.23 89.16,13.23 89.16,13.24 89.36,13.24 89.36,13.38 89.56,13.38 89.56,13.25 89.76,13.25 89.76,13.28 89.96,13.28 89.96,13.38 90.16,13.38 90.16,13.27 90.36,13.27 90.36,13.27 90.56,13.27 90.56,13.24 90.76,13.24 90.76,13.32 90.96,13.32 90.96,13.24 91.16,13.24 91.16,13.36 91.36,13.36 91.36,13.25 91.56,13.25 91.56,13.34 91.76,13.34 91.76,13.27 91.96,13.27 91.96,13.28 92.16,13.28 92.16,13.23 92.36,13.23 92.36,13.29 92.55,13.29 92.55,13.3 92.75,13.3 92.75,13.36 92.95,13.36 92.95,13.37 93.15,13.37 93.15,13.28 93.35,13.28 93.35,13.32 93.55,13.32 93.55,13.29 93.75,13.29 93.75,13.34 93.95,13.34 93.95,13.34 94.15,13.34 94.15,13.39 94.35,13.39 94.35,13.34 94.55,13.34 94.55,13.23 94.75,13.23 94.75,13.25 94.95,13.25 94.95,13.37 95.15,13.37 95.15,13.3 95.35,13.3 95.35,13.38 95.55,13.38 95.55,13.34 95.75,13.34 95.75,13.36 95.95,13.36 95.95,13.45 96.15,13.45 96.15,13.33 96.35,13.33 96.35,13.29 96.55,13.29 96.55,13.33 96.75,13.33 96.75,13.36 96.95,13.36 96.95,13.28 97.15,13.28 97.15,13.4 97.34,13.4 97.34,13.29 97.54,13.29 97.54,13.33 97.74,13.33 97.74,13.41 97.94,13.41 97.94,13.36 98.14,13.36 98.14,13.36 98.34,13.36 98.34,13.42 98.54,13.42 98.54,13.33 98.74,13.33 98.74,13.37 98.94,13.37 98.94,13.41 99.14,13.41 99.14,13.44 99.34,13.44 99.34,13.41 99.54,13.41 99.54,13.41 99.74,13.41 99.74,13.45 99.94,13.45 99.94,13.42 100.14,13.42 100.14,13.46 100.34,13.46 100.34,13.41 100.54,13.41 100.54,13.47 100.74,13.47 100.74,13.43 100.94,13.43 100.94,13.48 101.14,13.48 101.14,13.42 101.34,13.42 101.34,13.39 101.54,13.39 101.54,13.45 101.74,13.45 101.74,13.45 101.94,13.45 101.94,13.52 102.13,13.52 102.13,13.41 102.33,13.41 102.33,13.52 102.53,13.52 102.53,13.36 102.73,13.36 102.73,13.51 102.93,13.51 102.93,13.53 103.13,13.53 103.13,13.41 103.33,13.41 103.33,13.48 103.53,13.48 103.53,13.49 103.73,13.49 103.73,13.45 103.93,13.45 103.93,13.49 104.13,13.49 104.13,13.47 104.33,13.47 104.33,13.49 104.53,13.49 104.53,13.53 104.73,13.53 104.73,13.51 104.93,13.51 104.93,13.41 105.13,13.41 105.13,13.58 105.33,13.58 105.33,13.48 105.53,13.48 105.53,13.51 105.73,13.51 105.73,13.51 105.93,13.51 105.93,13.47 106.13,13.47 106.13,13.49 106.33,13.49 106.33,13.54 106.53,13.54 106.53,13.46 106.73,13.46 106.73,13.48 106.92,13.48 106.92,13.49 107.12,13.49 107.12,13.47 107.32,13.47 107.32,13.54 107.52,13.54 107.52,13.54 107.72,13.54 107.72,13.59 107.92,13.59 107.92,13.51 108.12,13.51 108.12,13.51 108.32,13.51 108.32,13.57 108.52,13.57 108.52,13.56 108.72,13.56 108.72,13.57 108.92,13.57 108.92,13.54 109.12,13.54 109.12,13.52 109.32,13.52 109.32,13.51 109.52,13.51 109.52,13.47 109.72,13.47 109.72,13.57 109.92,13.57 109.92,13.53 110.12,13.53 110.12,13.6 110.32,13.6 110.32,13.55 110.52,13.55 110.52,13.56 110.72,13.56 110.72,13.58 110.92,13.58 110.92,13.52 111.12,13.52 111.12,13.61 111.32,13.61 111.32,13.5 111.52,13.5 111.52,13.52 111.71,13.52 111.71,13.56 111.91,13.56 111.91,13.62 112.11,13.62 112.11,13.61 112.31,13.61 112.31,13.56 112.51,13.56 112.51,13.64 112.71,13.64 112.71,13.57 112.91,13.57 112.91,13.58 113.11,13.58 113.11,13.58 113.31,13.58 113.31,13.57 113.51,13.57 113.51,13.64 113.71,13.64 113.71,13.6 " class="primitive"/>
            </g>
          </g>
        </g>
        <g stroke-width="0.3" fill="#000000" fill-opacity="0.000" class="geometry" id="img-2b7c60cb-187">
          <g class="color_RGB{N0f8}(0.718,0.0,0.008)" stroke-dasharray="none" stroke-opacity="1" stroke="#B70002" id="img-2b7c60cb-188">
            <g transform="translate(137.58,55.55)" id="img-2b7c60cb-189">
              <path fill="none" d="M-113.81,4.3 L-113.61,4.3 -113.61,4.3 -113.41,4.3 -113.41,4.3 -113.21,4.3 -113.21,4.31 -113.01,4.31 -113.01,4.31 -112.81,4.31 -112.81,4.31 -112.61,4.31 -112.61,4.31 -112.41,4.31 -112.41,4.31 -112.21,4.31 -112.21,4.31 -112.01,4.31 -112.01,4.31 -111.81,4.31 -111.81,4.31 -111.61,4.31 -111.61,4.3 -111.42,4.3 -111.42,4.3 -111.22,4.3 -111.22,4.3 -111.02,4.3 -111.02,4.3 -110.82,4.3 -110.82,4.28 -110.62,4.28 -110.62,4.25 -110.42,4.25 -110.42,4.21 -110.22,4.21 -110.22,4.14 -110.02,4.14 -110.02,3.97 -109.82,3.97 -109.82,3.69 -109.62,3.69 -109.62,3.13 -109.42,3.13 -109.42,2.06 -109.22,2.06 -109.22,0.22 -109.02,0.22 -109.02,-2.64 -108.82,-2.64 -108.82,-5.53 -108.62,-5.53 -108.62,-8.1 -108.42,-8.1 -108.42,-9.2 -108.22,-9.2 -108.22,-8.22 -108.02,-8.22 -108.02,-5.88 -107.82,-5.88 -107.82,-3.1 -107.62,-3.1 -107.62,-1.28 -107.42,-1.28 -107.42,0.18 -107.22,0.18 -107.22,0.78 -107.02,0.78 -107.02,0.88 -106.82,0.88 -106.82,0.92 -106.63,0.92 -106.63,0.81 -106.43,0.81 -106.43,0.89 -106.23,0.89 -106.23,0.64 -106.03,0.64 -106.03,0.31 -105.83,0.31 -105.83,-0.2 -105.63,-0.2 -105.63,-0.55 -105.43,-0.55 -105.43,-0.98 -105.23,-0.98 -105.23,-1.23 -105.03,-1.23 -105.03,-1.9 -104.83,-1.9 -104.83,-2.29 -104.63,-2.29 -104.63,-2.15 -104.43,-2.15 -104.43,-1.95 -104.23,-1.95 -104.23,-2.04 -104.03,-2.04 -104.03,-0.56 -103.83,-0.56 -103.83,-0.51 -103.63,-0.51 -103.63,-0.52 -103.43,-0.52 -103.43,0.39 -103.23,0.39 -103.23,0.99 -103.03,0.99 -103.03,2.48 -102.83,2.48 -102.83,1.25 -102.63,1.25 -102.63,0.56 -102.43,0.56 -102.43,1.61 -102.23,1.61 -102.23,1.59 -102.03,1.59 -102.03,2.35 -101.84,2.35 -101.84,3.32 -101.64,3.32 -101.64,3.56 -101.44,3.56 -101.44,3.63 -101.24,3.63 -101.24,3.6 -101.04,3.6 -101.04,3.1 -100.84,3.1 -100.84,3.01 -100.64,3.01 -100.64,2.77 -100.44,2.77 -100.44,2.61 -100.24,2.61 -100.24,2.37 -100.04,2.37 -100.04,1.54 -99.84,1.54 -99.84,0.66 -99.64,0.66 -99.64,-0.49 -99.44,-0.49 -99.44,-1.67 -99.24,-1.67 -99.24,-1.89 -99.04,-1.89 -99.04,-1.99 -98.84,-1.99 -98.84,-2.04 -98.64,-2.04 -98.64,-1.74 -98.44,-1.74 -98.44,-1.38 -98.24,-1.38 -98.24,-1.49 -98.04,-1.49 -98.04,-1.62 -97.84,-1.62 -97.84,-1.51 -97.64,-1.51 -97.64,-1.49 -97.44,-1.49 -97.44,-1.53 -97.25,-1.53 -97.25,-1.87 -97.05,-1.87 -97.05,-1.82 -96.85,-1.82 -96.85,-2.06 -96.65,-2.06 -96.65,-2.33 -96.45,-2.33 -96.45,-2.14 -96.25,-2.14 -96.25,-2.29 -96.05,-2.29 -96.05,-2.61 -95.85,-2.61 -95.85,-2.57 -95.65,-2.57 -95.65,-2.49 -95.45,-2.49 -95.45,-2.78 -95.25,-2.78 -95.25,-2.95 -95.05,-2.95 -95.05,-3.25 -94.85,-3.25 -94.85,-3.28 -94.65,-3.28 -94.65,-3.84 -94.45,-3.84 -94.45,-3.63 -94.25,-3.63 -94.25,-3.96 -94.05,-3.96 -94.05,-4.37 -93.85,-4.37 -93.85,-4.57 -93.65,-4.57 -93.65,-5.11 -93.45,-5.11 -93.45,-5.56 -93.25,-5.56 -93.25,-5.63 -93.05,-5.63 -93.05,-5.66 -92.85,-5.66 -92.85,-5.75 -92.65,-5.75 -92.65,-6.29 -92.46,-6.29 -92.46,-6.29 -92.26,-6.29 -92.26,-6.55 -92.06,-6.55 -92.06,-6.24 -91.86,-6.24 -91.86,-6.76 -91.66,-6.76 -91.66,-6.99 -91.46,-6.99 -91.46,-7.03 -91.26,-7.03 -91.26,-7.23 -91.06,-7.23 -91.06,-7.76 -90.86,-7.76 -90.86,-7.87 -90.66,-7.87 -90.66,-8.21 -90.46,-8.21 -90.46,-8.59 -90.26,-8.59 -90.26,-9.03 -90.06,-9.03 -90.06,-8.56 -89.86,-8.56 -89.86,-9.02 -89.66,-9.02 -89.66,-8.73 -89.46,-8.73 -89.46,-9.87 -89.26,-9.87 -89.26,-9.66 -89.06,-9.66 -89.06,-9.41 -88.86,-9.41 -88.86,-9.94 -88.66,-9.94 -88.66,-10.16 -88.46,-10.16 -88.46,-11.94 -88.26,-11.94 -88.26,-12.3 -88.06,-12.3 -88.06,-13.09 -87.86,-13.09 -87.86,-11.08 -87.67,-11.08 -87.67,-9.24 -87.47,-9.24 -87.47,-8.22 -87.27,-8.22 -87.27,-8.32 -87.07,-8.32 -87.07,-7.56 -86.87,-7.56 -86.87,-7.67 -86.67,-7.67 -86.67,-7.46 -86.47,-7.46 -86.47,-7.72 -86.27,-7.72 -86.27,-7.31 -86.07,-7.31 -86.07,-7.45 -85.87,-7.45 -85.87,-7.3 -85.67,-7.3 -85.67,-6.83 -85.47,-6.83 -85.47,-7.13 -85.27,-7.13 -85.27,-7.14 -85.07,-7.14 -85.07,-7.48 -84.87,-7.48 -84.87,-7.28 -84.67,-7.28 -84.67,-7.85 -84.47,-7.85 -84.47,-7.68 -84.27,-7.68 -84.27,-7.74 -84.07,-7.74 -84.07,-7.98 -83.87,-7.98 -83.87,-9.11 -83.67,-9.11 -83.67,-8.33 -83.47,-8.33 -83.47,-8.94 -83.27,-8.94 -83.27,-8.78 -83.07,-8.78 -83.07,-9.27 -82.88,-9.27 -82.88,-9.02 -82.68,-9.02 -82.68,-9.12 -82.48,-9.12 -82.48,-7.88 -82.28,-7.88 -82.28,-7.75 -82.08,-7.75 -82.08,-8.18 -81.88,-8.18 -81.88,-7.86 -81.68,-7.86 -81.68,-7.57 -81.48,-7.57 -81.48,-8.23 -81.28,-8.23 -81.28,-8.11 -81.08,-8.11 -81.08,-8.27 -80.88,-8.27 -80.88,-8.24 -80.68,-8.24 -80.68,-7.74 -80.48,-7.74 -80.48,-9.21 -80.28,-9.21 -80.28,-8.29 -80.08,-8.29 -80.08,-9.05 -79.88,-9.05 -79.88,-9.22 -79.68,-9.22 -79.68,-8.98 -79.48,-8.98 -79.48,-6.54 -79.28,-6.54 -79.28,-11.67 -79.08,-11.67 -79.08,-11.18 -78.88,-11.18 -78.88,-9.95 -78.68,-9.95 -78.68,-8.5 -78.48,-8.5 -78.48,-7.91 -78.29,-7.91 -78.29,-9.84 -78.09,-9.84 -78.09,-10.75 -77.89,-10.75 -77.89,-11.06 -77.69,-11.06 -77.69,-10.44 -77.49,-10.44 -77.49,-10.17 -77.29,-10.17 -77.29,-10.34 -77.09,-10.34 -77.09,-8.61 -76.89,-8.61 -76.89,-6.35 -76.69,-6.35 -76.69,-6.02 -76.49,-6.02 -76.49,-5.43 -76.29,-5.43 -76.29,-5.22 -76.09,-5.22 -76.09,-4.86 -75.89,-4.86 -75.89,-4.94 -75.69,-4.94 -75.69,-5.37 -75.49,-5.37 -75.49,-5.55 -75.29,-5.55 -75.29,-5.19 -75.09,-5.19 -75.09,-5.12 -74.89,-5.12 -74.89,-5.32 -74.69,-5.32 -74.69,-5.09 -74.49,-5.09 -74.49,-4.8 -74.29,-4.8 -74.29,-4.62 -74.09,-4.62 -74.09,-4.61 -73.89,-4.61 -73.89,-4.3 -73.69,-4.3 -73.69,-3.96 -73.5,-3.96 -73.5,-4.07 -73.3,-4.07 -73.3,-3.6 -73.1,-3.6 -73.1,-3.55 -72.9,-3.55 -72.9,-3.57 -72.7,-3.57 -72.7,-3.65 -72.5,-3.65 -72.5,-3.52 -72.3,-3.52 -72.3,-3.4 -72.1,-3.4 -72.1,-3.66 -71.9,-3.66 -71.9,-3.66 -71.7,-3.66 -71.7,-3.56 -71.5,-3.56 -71.5,-3.58 -71.3,-3.58 -71.3,-3.27 -71.1,-3.27 -71.1,-3.83 -70.9,-3.83 -70.9,-3.6 -70.7,-3.6 -70.7,-3.78 -70.5,-3.78 -70.5,-3.56 -70.3,-3.56 -70.3,-3.55 -70.1,-3.55 -70.1,-3.9 -69.9,-3.9 -69.9,-3.99 -69.7,-3.99 -69.7,-4.17 -69.5,-4.17 -69.5,-4.23 -69.3,-4.23 -69.3,-4.33 -69.1,-4.33 -69.1,-4.43 -68.9,-4.43 -68.9,-4.49 -68.71,-4.49 -68.71,-4.41 -68.51,-4.41 -68.51,-4.55 -68.31,-4.55 -68.31,-4.64 -68.11,-4.64 -68.11,-4.24 -67.91,-4.24 -67.91,-4.1 -67.71,-4.1 -67.71,-4.01 -67.51,-4.01 -67.51,-4.09 -67.31,-4.09 -67.31,-4 -67.11,-4 -67.11,-3.92 -66.91,-3.92 -66.91,-3.99 -66.71,-3.99 -66.71,-3.71 -66.51,-3.71 -66.51,-3.74 -66.31,-3.74 -66.31,-3.72 -66.11,-3.72 -66.11,-3.72 -65.91,-3.72 -65.91,-3.7 -65.71,-3.7 -65.71,-3.67 -65.51,-3.67 -65.51,-3.59 -65.31,-3.59 -65.31,-3.92 -65.11,-3.92 -65.11,-3.65 -64.91,-3.65 -64.91,-3.67 -64.71,-3.67 -64.71,-3.94 -64.51,-3.94 -64.51,-3.75 -64.31,-3.75 -64.31,-3.75 -64.11,-3.75 -64.11,-3.83 -63.92,-3.83 -63.92,-3.62 -63.72,-3.62 -63.72,-3.81 -63.52,-3.81 -63.52,-3.71 -63.32,-3.71 -63.32,-4.02 -63.12,-4.02 -63.12,-3.6 -62.92,-3.6 -62.92,-3.83 -62.72,-3.83 -62.72,-3.94 -62.52,-3.94 -62.52,-3.27 -62.32,-3.27 -62.32,-3.79 -62.12,-3.79 -62.12,-3.56 -61.92,-3.56 -61.92,-3.7 -61.72,-3.7 -61.72,-3.6 -61.52,-3.6 -61.52,-3.61 -61.32,-3.61 -61.32,-3.77 -61.12,-3.77 -61.12,-3.5 -60.92,-3.5 -60.92,-3.62 -60.72,-3.62 -60.72,-3.6 -60.52,-3.6 -60.52,-3.59 -60.32,-3.59 -60.32,-3.46 -60.12,-3.46 -60.12,-3.58 -59.92,-3.58 -59.92,-3.47 -59.72,-3.47 -59.72,-3.44 -59.52,-3.44 -59.52,-3.76 -59.32,-3.76 -59.32,-3.48 -59.13,-3.48 -59.13,-3.49 -58.93,-3.49 -58.93,-3.46 -58.73,-3.46 -58.73,-3.32 -58.53,-3.32 -58.53,-3.5 -58.33,-3.5 -58.33,-3.58 -58.13,-3.58 -58.13,-3.2 -57.93,-3.2 -57.93,-3.29 -57.73,-3.29 -57.73,-3.3 -57.53,-3.3 -57.53,-3.38 -57.33,-3.38 -57.33,-3.48 -57.13,-3.48 -57.13,-3.41 -56.93,-3.41 -56.93,-3.18 -56.73,-3.18 -56.73,-3.28 -56.53,-3.28 -56.53,-3.52 -56.33,-3.52 -56.33,-3.24 -56.13,-3.24 -56.13,-3.43 -55.93,-3.43 -55.93,-3.5 -55.73,-3.5 -55.73,-3.54 -55.53,-3.54 -55.53,-3.46 -55.33,-3.46 -55.33,-3.25 -55.13,-3.25 -55.13,-3.5 -54.93,-3.5 -54.93,-3.59 -54.73,-3.59 -54.73,-3.77 -54.54,-3.77 -54.54,-3.74 -54.34,-3.74 -54.34,-3.72 -54.14,-3.72 -54.14,-3.68 -53.94,-3.68 -53.94,-3.52 -53.74,-3.52 -53.74,-3.56 -53.54,-3.56 -53.54,-3.36 -53.34,-3.36 -53.34,-3.37 -53.14,-3.37 -53.14,-3.34 -52.94,-3.34 -52.94,-3.09 -52.74,-3.09 -52.74,-3.28 -52.54,-3.28 -52.54,-3.14 -52.34,-3.14 -52.34,-3.07 -52.14,-3.07 -52.14,-3.05 -51.94,-3.05 -51.94,-3.08 -51.74,-3.08 -51.74,-2.89 -51.54,-2.89 -51.54,-2.86 -51.34,-2.86 -51.34,-3.13 -51.14,-3.13 -51.14,-2.94 -50.94,-2.94 -50.94,-3.09 -50.74,-3.09 -50.74,-3.23 -50.54,-3.23 -50.54,-3.1 -50.34,-3.1 -50.34,-3.09 -50.14,-3.09 -50.14,-3.07 -49.94,-3.07 -49.94,-2.93 -49.75,-2.93 -49.75,-3.1 -49.55,-3.1 -49.55,-3.2 -49.35,-3.2 -49.35,-2.89 -49.15,-2.89 -49.15,-3.04 -48.95,-3.04 -48.95,-3.3 -48.75,-3.3 -48.75,-2.7 -48.55,-2.7 -48.55,-3.05 -48.35,-3.05 -48.35,-2.75 -48.15,-2.75 -48.15,-2.92 -47.95,-2.92 -47.95,-2.95 -47.75,-2.95 -47.75,-2.91 -47.55,-2.91 -47.55,-2.69 -47.35,-2.69 -47.35,-2.45 -47.15,-2.45 -47.15,-2.51 -46.95,-2.51 -46.95,-2.63 -46.75,-2.63 -46.75,-2.74 -46.55,-2.74 -46.55,-2.71 -46.35,-2.71 -46.35,-2.58 -46.15,-2.58 -46.15,-2.45 -45.95,-2.45 -45.95,-2.74 -45.75,-2.74 -45.75,-2.51 -45.55,-2.51 -45.55,-2.44 -45.35,-2.44 -45.35,-2.57 -45.15,-2.57 -45.15,-2.77 -44.96,-2.77 -44.96,-2.89 -44.76,-2.89 -44.76,-2.74 -44.56,-2.74 -44.56,-2.74 -44.36,-2.74 -44.36,-2.79 -44.16,-2.79 -44.16,-2.87 -43.96,-2.87 -43.96,-2.62 -43.76,-2.62 -43.76,-2.88 -43.56,-2.88 -43.56,-2.79 -43.36,-2.79 -43.36,-2.63 -43.16,-2.63 -43.16,-2.48 -42.96,-2.48 -42.96,-2.52 -42.76,-2.52 -42.76,-2.44 -42.56,-2.44 -42.56,-2.07 -42.36,-2.07 -42.36,-2.45 -42.16,-2.45 -42.16,-2.22 -41.96,-2.22 -41.96,-1.89 -41.76,-1.89 -41.76,-2.11 -41.56,-2.11 -41.56,-1.9 -41.36,-1.9 -41.36,-2.26 -41.16,-2.26 -41.16,-2.65 -40.96,-2.65 -40.96,-2.78 -40.76,-2.78 -40.76,-1.67 -40.56,-1.67 -40.56,-2.65 -40.36,-2.65 -40.36,-2.32 -40.17,-2.32 -40.17,-1.07 -39.97,-1.07 -39.97,-2.27 -39.77,-2.27 -39.77,-1.35 -39.57,-1.35 -39.57,-0.88 -39.37,-0.88 -39.37,-2.46 -39.17,-2.46 -39.17,-1.38 -38.97,-1.38 -38.97,-2.02 -38.77,-2.02 -38.77,-0.74 -38.57,-0.74 -38.57,-1.2 -38.37,-1.2 -38.37,-1.38 -38.17,-1.38 -38.17,-1.49 -37.97,-1.49 -37.97,-1.75 -37.77,-1.75 -37.77,-1.57 -37.57,-1.57 -37.57,-1.49 -37.37,-1.49 -37.37,-1.84 -37.17,-1.84 -37.17,-1.33 -36.97,-1.33 -36.97,-1.61 -36.77,-1.61 -36.77,-1.33 -36.57,-1.33 -36.57,-1.45 -36.37,-1.45 -36.37,-1.31 -36.17,-1.31 -36.17,-1.5 -35.97,-1.5 -35.97,-1.13 -35.77,-1.13 -35.77,-1.39 -35.58,-1.39 -35.58,-1.3 -35.38,-1.3 -35.38,-1.25 -35.18,-1.25 -35.18,-1.54 -34.98,-1.54 -34.98,-1.39 -34.78,-1.39 -34.78,-1.38 -34.58,-1.38 -34.58,-1.64 -34.38,-1.64 -34.38,-1.44 -34.18,-1.44 -34.18,-1.52 -33.98,-1.52 -33.98,-0.81 -33.78,-0.81 -33.78,-1.37 -33.58,-1.37 -33.58,-1.13 -33.38,-1.13 -33.38,-1.1 -33.18,-1.1 -33.18,-1.11 -32.98,-1.11 -32.98,-1.26 -32.78,-1.26 -32.78,-1.25 -32.58,-1.25 -32.58,-1.11 -32.38,-1.11 -32.38,-1 -32.18,-1 -32.18,-1.06 -31.98,-1.06 -31.98,-0.88 -31.78,-0.88 -31.78,-0.99 -31.58,-0.99 -31.58,-0.96 -31.38,-0.96 -31.38,-1.14 -31.18,-1.14 -31.18,-0.96 -30.98,-0.96 -30.98,-0.68 -30.79,-0.68 -30.79,-1.07 -30.59,-1.07 -30.59,-1.05 -30.39,-1.05 -30.39,-1.16 -30.19,-1.16 -30.19,-0.92 -29.99,-0.92 -29.99,-0.9 -29.79,-0.9 -29.79,-0.99 -29.59,-0.99 -29.59,-0.9 -29.39,-0.9 -29.39,-1 -29.19,-1 -29.19,-0.84 -28.99,-0.84 -28.99,-0.89 -28.79,-0.89 -28.79,-0.71 -28.59,-0.71 -28.59,-0.93 -28.39,-0.93 -28.39,-0.53 -28.19,-0.53 -28.19,-0.59 -27.99,-0.59 -27.99,-0.63 -27.79,-0.63 -27.79,-0.65 -27.59,-0.65 -27.59,-0.63 -27.39,-0.63 -27.39,-0.71 -27.19,-0.71 -27.19,-0.38 -26.99,-0.38 -26.99,-0.67 -26.79,-0.67 -26.79,-0.52 -26.59,-0.52 -26.59,-0.48 -26.39,-0.48 -26.39,-0.65 -26.19,-0.65 -26.19,-0.51 -26,-0.51 -26,-0.31 -25.8,-0.31 -25.8,-0.53 -25.6,-0.53 -25.6,-0.58 -25.4,-0.58 -25.4,-0.34 -25.2,-0.34 -25.2,-0.53 -25,-0.53 -25,-0.5 -24.8,-0.5 -24.8,-0.25 -24.6,-0.25 -24.6,-0.41 -24.4,-0.41 -24.4,-0.41 -24.2,-0.41 -24.2,-0.38 -24,-0.38 -24,-0.49 -23.8,-0.49 -23.8,-0.36 -23.6,-0.36 -23.6,-0.55 -23.4,-0.55 -23.4,-0.28 -23.2,-0.28 -23.2,-0.31 -23,-0.31 -23,-0.26 -22.8,-0.26 -22.8,-0.36 -22.6,-0.36 -22.6,-0.18 -22.4,-0.18 -22.4,-0.39 -22.2,-0.39 -22.2,-0.35 -22,-0.35 -22,-0.27 -21.8,-0.27 -21.8,-0.44 -21.6,-0.44 -21.6,-0.57 -21.4,-0.57 -21.4,-0.32 -21.21,-0.32 -21.21,-0.29 -21.01,-0.29 -21.01,-0.45 -20.81,-0.45 -20.81,-0.21 -20.61,-0.21 -20.61,-0.1 -20.41,-0.1 -20.41,-0.2 -20.21,-0.2 -20.21,-0.27 -20.01,-0.27 -20.01,-0.24 -19.81,-0.24 -19.81,-0.38 -19.61,-0.38 -19.61,-0.2 -19.41,-0.2 -19.41,-0.21 -19.21,-0.21 -19.21,-0 -19.01,-0 -19.01,-0.02 -18.81,-0.02 -18.81,-0.05 -18.61,-0.05 -18.61,-0.01 -18.41,-0.01 -18.41,-0.04 -18.21,-0.04 -18.21,-0.14 -18.01,-0.14 -18.01,0.05 -17.81,0.05 -17.81,0.07 -17.61,0.07 -17.61,0.08 -17.41,0.08 -17.41,0.26 -17.21,0.26 -17.21,-0.02 -17.01,-0.02 -17.01,-0.06 -16.81,-0.06 -16.81,0 -16.61,0 -16.61,0.14 -16.42,0.14 -16.42,0.05 -16.22,0.05 -16.22,-0.08 -16.02,-0.08 -16.02,0.05 -15.82,0.05 -15.82,-0.07 -15.62,-0.07 -15.62,-0.01 -15.42,-0.01 -15.42,0.02 -15.22,0.02 -15.22,0.04 -15.02,0.04 -15.02,-0.07 -14.82,-0.07 -14.82,0.15 -14.62,0.15 -14.62,0.04 -14.42,0.04 -14.42,-0.01 -14.22,-0.01 -14.22,-0.02 -14.02,-0.02 -14.02,0.03 -13.82,0.03 -13.82,0.02 -13.62,0.02 -13.62,0.29 -13.42,0.29 -13.42,0.27 -13.22,0.27 -13.22,0.19 -13.02,0.19 -13.02,0.29 -12.82,0.29 -12.82,0.22 -12.62,0.22 -12.62,0.43 -12.42,0.43 -12.42,0.22 -12.22,0.22 -12.22,0.24 -12.02,0.24 -12.02,0.14 -11.83,0.14 -11.83,0.25 -11.63,0.25 -11.63,0.28 -11.43,0.28 -11.43,0.27 -11.23,0.27 -11.23,0.3 -11.03,0.3 -11.03,0.41 -10.83,0.41 -10.83,0.36 -10.63,0.36 -10.63,0.2 -10.43,0.2 -10.43,0.28 -10.23,0.28 -10.23,0.18 -10.03,0.18 -10.03,0.29 -9.83,0.29 -9.83,0.35 -9.63,0.35 -9.63,0.33 -9.43,0.33 -9.43,0.36 -9.23,0.36 -9.23,0.25 -9.03,0.25 -9.03,0.42 -8.83,0.42 -8.83,0.34 -8.63,0.34 -8.63,0.38 -8.43,0.38 -8.43,0.33 -8.23,0.33 -8.23,0.51 -8.03,0.51 -8.03,0.44 -7.83,0.44 -7.83,0.27 -7.63,0.27 -7.63,0.43 -7.43,0.43 -7.43,0.54 -7.23,0.54 -7.23,0.51 -7.04,0.51 -7.04,0.37 -6.84,0.37 -6.84,0.39 -6.64,0.39 -6.64,0.33 -6.44,0.33 -6.44,0.28 -6.24,0.28 -6.24,0.11 -6.04,0.11 -6.04,0.2 -5.84,0.2 -5.84,0.18 -5.64,0.18 -5.64,0.32 -5.44,0.32 -5.44,0.3 -5.24,0.3 -5.24,0.31 -5.04,0.31 -5.04,0.27 -4.84,0.27 -4.84,0.3 -4.64,0.3 -4.64,0.31 -4.44,0.31 -4.44,0.28 -4.24,0.28 -4.24,0.57 -4.04,0.57 -4.04,0.57 -3.84,0.57 -3.84,0.5 -3.64,0.5 -3.64,0.54 -3.44,0.54 -3.44,0.65 -3.24,0.65 -3.24,0.6 -3.04,0.6 -3.04,0.71 -2.84,0.71 -2.84,0.64 -2.64,0.64 -2.64,0.56 -2.44,0.56 -2.44,0.65 -2.25,0.65 -2.25,0.75 -2.05,0.75 -2.05,0.68 -1.85,0.68 -1.85,0.72 -1.65,0.72 -1.65,0.69 -1.45,0.69 -1.45,0.68 -1.25,0.68 -1.25,0.95 -1.05,0.95 -1.05,0.8 -0.85,0.8 -0.85,0.9 -0.65,0.9 -0.65,0.9 -0.45,0.9 -0.45,0.8 -0.25,0.8 -0.25,0.87 -0.05,0.87 -0.05,0.75 0.15,0.75 0.15,0.79 0.35,0.79 0.35,0.93 0.55,0.93 0.55,0.73 0.75,0.73 0.75,0.94 0.95,0.94 0.95,0.72 1.15,0.72 1.15,0.96 1.35,0.96 1.35,0.93 1.55,0.93 1.55,0.91 1.75,0.91 1.75,0.82 1.95,0.82 1.95,0.88 2.15,0.88 2.15,0.71 2.35,0.71 2.35,0.79 2.54,0.79 2.54,0.75 2.74,0.75 2.74,0.6 2.94,0.6 2.94,0.71 3.14,0.71 3.14,0.73 3.34,0.73 3.34,0.48 3.54,0.48 3.54,0.58 3.74,0.58 3.74,0.66 3.94,0.66 3.94,0.53 4.14,0.53 4.14,0.7 4.34,0.7 4.34,0.7 4.54,0.7 4.54,0.72 4.74,0.72 4.74,0.81 4.94,0.81 4.94,0.9 5.14,0.9 5.14,0.89 5.34,0.89 5.34,0.83 5.54,0.83 5.54,0.89 5.74,0.89 5.74,1.15 5.94,1.15 5.94,0.93 6.14,0.93 6.14,1.07 6.34,1.07 6.34,1.08 6.54,1.08 6.54,1.06 6.74,1.06 6.74,0.98 6.94,0.98 6.94,1.05 7.13,1.05 7.13,1.07 7.33,1.07 7.33,1.24 7.53,1.24 7.53,1.12 7.73,1.12 7.73,1.18 7.93,1.18 7.93,1.2 8.13,1.2 8.13,1.14 8.33,1.14 8.33,1.18 8.53,1.18 8.53,1.03 8.73,1.03 8.73,1.38 8.93,1.38 8.93,1.22 9.13,1.22 9.13,1.24 9.33,1.24 9.33,1.06 9.53,1.06 9.53,1.06 9.73,1.06 9.73,1.14 9.93,1.14 9.93,1.33 10.13,1.33 10.13,1.4 10.33,1.4 10.33,1.14 10.53,1.14 10.53,1.29 10.73,1.29 10.73,1.22 10.93,1.22 10.93,1.23 11.13,1.23 11.13,1.24 11.33,1.24 11.33,1.52 11.53,1.52 11.53,1.34 11.73,1.34 11.73,1.16 11.92,1.16 11.92,1.38 12.12,1.38 12.12,1.44 12.32,1.44 12.32,1.42 12.52,1.42 12.52,1.37 12.72,1.37 12.72,1.72 12.92,1.72 12.92,1.49 13.12,1.49 13.12,1.07 13.32,1.07 13.32,1.25 13.52,1.25 13.52,1.47 13.72,1.47 13.72,0.94 13.92,0.94 13.92,1.08 14.12,1.08 14.12,1.63 14.32,1.63 14.32,1.15 14.52,1.15 14.52,1.78 14.72,1.78 14.72,2.44 14.92,2.44 14.92,1.45 15.12,1.45 15.12,1.63 15.32,1.63 15.32,1.42 15.52,1.42 15.52,2.01 15.72,2.01 15.72,1.66 15.92,1.66 15.92,1.55 16.12,1.55 16.12,1.61 16.32,1.61 16.32,1.68 16.52,1.68 16.52,1.66 16.71,1.66 16.71,1.58 16.91,1.58 16.91,1.6 17.11,1.6 17.11,1.64 17.31,1.64 17.31,1.52 17.51,1.52 17.51,1.47 17.71,1.47 17.71,1.45 17.91,1.45 17.91,1.58 18.11,1.58 18.11,1.42 18.31,1.42 18.31,1.6 18.51,1.6 18.51,1.66 18.71,1.66 18.71,1.57 18.91,1.57 18.91,1.49 19.11,1.49 19.11,1.49 19.31,1.49 19.31,1.4 19.51,1.4 19.51,1.58 19.71,1.58 19.71,1.62 19.91,1.62 19.91,1.64 20.11,1.64 20.11,1.51 20.31,1.51 20.31,1.66 20.51,1.66 20.51,1.5 20.71,1.5 20.71,1.57 20.91,1.57 20.91,1.46 21.11,1.46 21.11,1.7 21.31,1.7 21.31,1.66 21.5,1.66 21.5,1.68 21.7,1.68 21.7,1.74 21.9,1.74 21.9,1.66 22.1,1.66 22.1,1.67 22.3,1.67 22.3,1.72 22.5,1.72 22.5,1.66 22.7,1.66 22.7,1.75 22.9,1.75 22.9,1.63 23.1,1.63 23.1,1.75 23.3,1.75 23.3,1.58 23.5,1.58 23.5,1.65 23.7,1.65 23.7,1.64 23.9,1.64 23.9,1.68 24.1,1.68 24.1,1.72 24.3,1.72 24.3,1.58 24.5,1.58 24.5,1.64 24.7,1.64 24.7,1.85 24.9,1.85 24.9,1.64 25.1,1.64 25.1,1.83 25.3,1.83 25.3,1.69 25.5,1.69 25.5,1.92 25.7,1.92 25.7,1.74 25.9,1.74 25.9,1.96 26.1,1.96 26.1,1.81 26.29,1.81 26.29,1.89 26.49,1.89 26.49,1.82 26.69,1.82 26.69,1.79 26.89,1.79 26.89,1.92 27.09,1.92 27.09,1.69 27.29,1.69 27.29,1.92 27.49,1.92 27.49,1.95 27.69,1.95 27.69,1.92 27.89,1.92 27.89,1.88 28.09,1.88 28.09,1.91 28.29,1.91 28.29,2.08 28.49,2.08 28.49,1.97 28.69,1.97 28.69,2.06 28.89,2.06 28.89,2.05 29.09,2.05 29.09,1.99 29.29,1.99 29.29,1.97 29.49,1.97 29.49,1.96 29.69,1.96 29.69,1.98 29.89,1.98 29.89,2.06 30.09,2.06 30.09,2.02 30.29,2.02 30.29,1.87 30.49,1.87 30.49,2.03 30.69,2.03 30.69,2.08 30.88,2.08 30.88,2.01 31.08,2.01 31.08,2.03 31.28,2.03 31.28,1.9 31.48,1.9 31.48,2.1 31.68,2.1 31.68,1.96 31.88,1.96 31.88,2.06 32.08,2.06 32.08,2 32.28,2 32.28,2.02 32.48,2.02 32.48,2.08 32.68,2.08 32.68,1.9 32.88,1.9 32.88,2.03 33.08,2.03 33.08,2.15 33.28,2.15 33.28,2.04 33.48,2.04 33.48,1.97 33.68,1.97 33.68,1.9 33.88,1.9 33.88,2.03 34.08,2.03 34.08,2.1 34.28,2.1 34.28,1.97 34.48,1.97 34.48,2.05 34.68,2.05 34.68,1.95 34.88,1.95 34.88,2.14 35.08,2.14 35.08,2.1 35.28,2.1 35.28,2.08 35.48,2.08 35.48,1.96 35.67,1.96 35.67,2.07 35.87,2.07 35.87,2.03 36.07,2.03 36.07,2.03 36.27,2.03 36.27,2.05 36.47,2.05 36.47,2.13 36.67,2.13 36.67,2.13 36.87,2.13 36.87,2.09 37.07,2.09 37.07,2.08 37.27,2.08 37.27,2.2 37.47,2.2 37.47,2.11 37.67,2.11 37.67,2.18 37.87,2.18 37.87,2.15 38.07,2.15 38.07,2.26 38.27,2.26 38.27,2.13 38.47,2.13 38.47,2.08 38.67,2.08 38.67,2.22 38.87,2.22 38.87,2.18 39.07,2.18 39.07,2.25 39.27,2.25 39.27,2.13 39.47,2.13 39.47,2.24 39.67,2.24 39.67,2.16 39.87,2.16 39.87,2.12 40.07,2.12 40.07,2.16 40.27,2.16 40.27,2.3 40.46,2.3 40.46,2.19 40.66,2.19 40.66,2.23 40.86,2.23 40.86,2.26 41.06,2.26 41.06,2.31 41.26,2.31 41.26,2.29 41.46,2.29 41.46,2.3 41.66,2.3 41.66,2.15 41.86,2.15 41.86,2.22 42.06,2.22 42.06,2.25 42.26,2.25 42.26,2.34 42.46,2.34 42.46,2.29 42.66,2.29 42.66,2.28 42.86,2.28 42.86,2.25 43.06,2.25 43.06,2.36 43.26,2.36 43.26,2.24 43.46,2.24 43.46,2.39 43.66,2.39 43.66,2.3 43.86,2.3 43.86,2.3 44.06,2.3 44.06,2.3 44.26,2.3 44.26,2.34 44.46,2.34 44.46,2.31 44.66,2.31 44.66,2.41 44.86,2.41 44.86,2.32 45.06,2.32 45.06,2.33 45.25,2.33 45.25,2.48 45.45,2.48 45.45,2.35 45.65,2.35 45.65,2.34 45.85,2.34 45.85,2.31 46.05,2.31 46.05,2.33 46.25,2.33 46.25,2.36 46.45,2.36 46.45,2.36 46.65,2.36 46.65,2.26 46.85,2.26 46.85,2.41 47.05,2.41 47.05,2.26 47.25,2.26 47.25,2.32 47.45,2.32 47.45,2.41 47.65,2.41 47.65,2.35 47.85,2.35 47.85,2.32 48.05,2.32 48.05,2.33 48.25,2.33 48.25,2.48 48.45,2.48 48.45,2.37 48.65,2.37 48.65,2.38 48.85,2.38 48.85,2.42 49.05,2.42 49.05,2.42 49.25,2.42 49.25,2.47 49.45,2.47 49.45,2.46 49.65,2.46 49.65,2.59 49.84,2.59 49.84,2.17 50.04,2.17 50.04,2.47 50.24,2.47 50.24,2.36 50.44,2.36 50.44,2.37 50.64,2.37 50.64,2.46 50.84,2.46 50.84,2.39 51.04,2.39 51.04,2.5 51.24,2.5 51.24,2.52 51.44,2.52 51.44,2.54 51.64,2.54 51.64,2.48 51.84,2.48 51.84,2.52 52.04,2.52 52.04,2.49 52.24,2.49 52.24,2.45 52.44,2.45 52.44,2.61 52.64,2.61 52.64,2.53 52.84,2.53 52.84,2.47 53.04,2.47 53.04,2.53 53.24,2.53 53.24,2.53 53.44,2.53 53.44,2.59 53.64,2.59 53.64,2.53 53.84,2.53 53.84,2.59 54.04,2.59 54.04,2.45 54.24,2.45 54.24,2.6 54.44,2.6 54.44,2.5 54.63,2.5 54.63,2.68 54.83,2.68 54.83,2.71 55.03,2.71 55.03,2.56 55.23,2.56 55.23,2.57 55.43,2.57 55.43,2.69 55.63,2.69 55.63,2.61 55.83,2.61 55.83,2.6 56.03,2.6 56.03,2.57 56.23,2.57 56.23,2.75 56.43,2.75 56.43,2.65 56.63,2.65 56.63,2.66 56.83,2.66 56.83,2.54 57.03,2.54 57.03,2.7 57.23,2.7 57.23,2.79 57.43,2.79 57.43,2.59 57.63,2.59 57.63,2.63 57.83,2.63 57.83,2.61 58.03,2.61 58.03,2.58 58.23,2.58 58.23,2.72 58.43,2.72 58.43,2.62 58.63,2.62 58.63,2.67 58.83,2.67 58.83,2.57 59.03,2.57 59.03,2.65 59.23,2.65 59.23,2.71 59.42,2.71 59.42,2.63 59.62,2.63 59.62,2.65 59.82,2.65 59.82,2.73 60.02,2.73 60.02,2.61 60.22,2.61 60.22,2.6 60.42,2.6 60.42,2.71 60.62,2.71 60.62,2.75 60.82,2.75 60.82,2.66 61.02,2.66 61.02,2.78 61.22,2.78 61.22,2.65 61.42,2.65 61.42,2.73 61.62,2.73 61.62,2.75 61.82,2.75 61.82,2.77 62.02,2.77 62.02,2.61 62.22,2.61 62.22,2.65 62.42,2.65 62.42,2.8 62.62,2.8 62.62,2.67 62.82,2.67 62.82,2.7 63.02,2.7 63.02,2.76 63.22,2.76 63.22,2.75 63.42,2.75 63.42,2.73 63.62,2.73 63.62,2.75 63.82,2.75 63.82,2.7 64.02,2.7 64.02,2.8 64.21,2.8 64.21,2.71 64.41,2.71 64.41,2.75 64.61,2.75 64.61,2.77 64.81,2.77 64.81,2.74 65.01,2.74 65.01,2.69 65.21,2.69 65.21,2.75 65.41,2.75 65.41,2.89 65.61,2.89 65.61,2.74 65.81,2.74 65.81,2.7 66.01,2.7 66.01,2.74 66.21,2.74 66.21,2.76 66.41,2.76 66.41,2.76 66.61,2.76 66.61,2.78 66.81,2.78 66.81,2.8 67.01,2.8 67.01,2.79 67.21,2.79 67.21,2.77 67.41,2.77 67.41,2.81 67.61,2.81 67.61,2.76 67.81,2.76 67.81,2.84 68.01,2.84 68.01,2.92 68.21,2.92 68.21,2.93 68.41,2.93 68.41,2.83 68.61,2.83 68.61,2.82 68.81,2.82 68.81,2.78 69,2.78 69,2.77 69.2,2.77 69.2,2.84 69.4,2.84 69.4,2.74 69.6,2.74 69.6,2.94 69.8,2.94 69.8,2.95 70,2.95 70,2.86 70.2,2.86 70.2,2.89 70.4,2.89 70.4,2.84 70.6,2.84 70.6,2.86 70.8,2.86 70.8,2.96 71,2.96 71,2.97 71.2,2.97 71.2,2.8 71.4,2.8 71.4,2.82 71.6,2.82 71.6,2.96 71.8,2.96 71.8,2.85 72,2.85 72,2.93 72.2,2.93 72.2,2.87 72.4,2.87 72.4,2.82 72.6,2.82 72.6,2.89 72.8,2.89 72.8,2.91 73,2.91 73,2.91 73.2,2.91 73.2,2.93 73.4,2.93 73.4,2.84 73.59,2.84 73.59,2.97 73.79,2.97 73.79,2.93 73.99,2.93 73.99,2.94 74.19,2.94 74.19,3.03 74.39,3.03 74.39,3.02 74.59,3.02 74.59,2.96 74.79,2.96 74.79,2.96 74.99,2.96 74.99,2.99 75.19,2.99 75.19,3.01 75.39,3.01 75.39,2.87 75.59,2.87 75.59,2.96 75.79,2.96 75.79,2.94 75.99,2.94 75.99,3.02 76.19,3.02 76.19,2.89 76.39,2.89 76.39,2.93 76.59,2.93 76.59,2.98 76.79,2.98 76.79,3.02 76.99,3.02 76.99,2.85 77.19,2.85 77.19,2.89 77.39,2.89 77.39,3.08 77.59,3.08 77.59,3.03 77.79,3.03 77.79,3.07 77.99,3.07 77.99,2.9 78.19,2.9 78.19,3.04 78.38,3.04 78.38,2.99 78.58,2.99 78.58,3.04 78.78,3.04 78.78,3.07 78.98,3.07 78.98,2.96 79.18,2.96 79.18,3.14 79.38,3.14 79.38,3.04 79.58,3.04 79.58,3.02 79.78,3.02 79.78,2.97 79.98,2.97 79.98,3 80.18,3 80.18,3.06 80.38,3.06 80.38,3.12 80.58,3.12 80.58,3.04 80.78,3.04 80.78,2.98 80.98,2.98 80.98,3.1 81.18,3.1 81.18,3.02 81.38,3.02 81.38,3.04 81.58,3.04 81.58,3.02 81.78,3.02 81.78,3.08 81.98,3.08 81.98,3.1 82.18,3.1 82.18,3.07 82.38,3.07 82.38,3.08 82.58,3.08 82.58,3.09 82.78,3.09 82.78,3.02 82.98,3.02 82.98,3.12 83.17,3.12 83.17,3.06 83.37,3.06 83.37,3.05 83.57,3.05 83.57,3.05 83.77,3.05 83.77,3.1 83.97,3.1 83.97,3.03 84.17,3.03 84.17,3.11 84.37,3.11 84.37,3.02 84.57,3.02 84.57,3.09 84.77,3.09 84.77,3.13 84.97,3.13 84.97,3.16 85.17,3.16 85.17,3.2 85.37,3.2 85.37,3.03 85.57,3.03 85.57,3.12 85.77,3.12 85.77,3.2 85.97,3.2 85.97,3.13 86.17,3.13 86.17,3.12 86.37,3.12 86.37,3.16 86.57,3.16 86.57,3.14 86.77,3.14 86.77,3.09 86.97,3.09 86.97,3.21 87.17,3.21 87.17,3.13 87.37,3.13 87.37,3.17 87.57,3.17 87.57,3.09 87.77,3.09 87.77,3.05 87.96,3.05 87.96,3.12 88.16,3.12 88.16,3.17 88.36,3.17 88.36,3.13 88.56,3.13 88.56,3.11 88.76,3.11 88.76,3.15 88.96,3.15 88.96,3.13 89.16,3.13 89.16,3.14 89.36,3.14 89.36,3.28 89.56,3.28 89.56,3.16 89.76,3.16 89.76,3.18 89.96,3.18 89.96,3.28 90.16,3.28 90.16,3.18 90.36,3.18 90.36,3.17 90.56,3.17 90.56,3.14 90.76,3.14 90.76,3.22 90.96,3.22 90.96,3.14 91.16,3.14 91.16,3.26 91.36,3.26 91.36,3.15 91.56,3.15 91.56,3.24 91.76,3.24 91.76,3.17 91.96,3.17 91.96,3.18 92.16,3.18 92.16,3.13 92.36,3.13 92.36,3.19 92.55,3.19 92.55,3.2 92.75,3.2 92.75,3.26 92.95,3.26 92.95,3.27 93.15,3.27 93.15,3.18 93.35,3.18 93.35,3.22 93.55,3.22 93.55,3.19 93.75,3.19 93.75,3.24 93.95,3.24 93.95,3.24 94.15,3.24 94.15,3.29 94.35,3.29 94.35,3.24 94.55,3.24 94.55,3.13 94.75,3.13 94.75,3.16 94.95,3.16 94.95,3.27 95.15,3.27 95.15,3.2 95.35,3.2 95.35,3.28 95.55,3.28 95.55,3.24 95.75,3.24 95.75,3.26 95.95,3.26 95.95,3.35 96.15,3.35 96.15,3.23 96.35,3.23 96.35,3.19 96.55,3.19 96.55,3.23 96.75,3.23 96.75,3.26 96.95,3.26 96.95,3.18 97.15,3.18 97.15,3.31 97.34,3.31 97.34,3.19 97.54,3.19 97.54,3.23 97.74,3.23 97.74,3.31 97.94,3.31 97.94,3.26 98.14,3.26 98.14,3.26 98.34,3.26 98.34,3.32 98.54,3.32 98.54,3.23 98.74,3.23 98.74,3.27 98.94,3.27 98.94,3.31 99.14,3.31 99.14,3.34 99.34,3.34 99.34,3.31 99.54,3.31 99.54,3.32 99.74,3.32 99.74,3.36 99.94,3.36 99.94,3.32 100.14,3.32 100.14,3.36 100.34,3.36 100.34,3.31 100.54,3.31 100.54,3.37 100.74,3.37 100.74,3.33 100.94,3.33 100.94,3.38 101.14,3.38 101.14,3.32 101.34,3.32 101.34,3.29 101.54,3.29 101.54,3.35 101.74,3.35 101.74,3.35 101.94,3.35 101.94,3.42 102.13,3.42 102.13,3.31 102.33,3.31 102.33,3.42 102.53,3.42 102.53,3.26 102.73,3.26 102.73,3.41 102.93,3.41 102.93,3.43 103.13,3.43 103.13,3.31 103.33,3.31 103.33,3.39 103.53,3.39 103.53,3.39 103.73,3.39 103.73,3.35 103.93,3.35 103.93,3.39 104.13,3.39 104.13,3.37 104.33,3.37 104.33,3.39 104.53,3.39 104.53,3.43 104.73,3.43 104.73,3.41 104.93,3.41 104.93,3.31 105.13,3.31 105.13,3.48 105.33,3.48 105.33,3.38 105.53,3.38 105.53,3.41 105.73,3.41 105.73,3.41 105.93,3.41 105.93,3.37 106.13,3.37 106.13,3.39 106.33,3.39 106.33,3.44 106.53,3.44 106.53,3.36 106.73,3.36 106.73,3.38 106.92,3.38 106.92,3.39 107.12,3.39 107.12,3.37 107.32,3.37 107.32,3.44 107.52,3.44 107.52,3.44 107.72,3.44 107.72,3.49 107.92,3.49 107.92,3.41 108.12,3.41 108.12,3.41 108.32,3.41 108.32,3.47 108.52,3.47 108.52,3.46 108.72,3.46 108.72,3.47 108.92,3.47 108.92,3.44 109.12,3.44 109.12,3.42 109.32,3.42 109.32,3.41 109.52,3.41 109.52,3.37 109.72,3.37 109.72,3.47 109.92,3.47 109.92,3.44 110.12,3.44 110.12,3.51 110.32,3.51 110.32,3.45 110.52,3.45 110.52,3.46 110.72,3.46 110.72,3.49 110.92,3.49 110.92,3.42 111.12,3.42 111.12,3.51 111.32,3.51 111.32,3.4 111.52,3.4 111.52,3.42 111.71,3.42 111.71,3.46 111.91,3.46 111.91,3.52 112.11,3.52 112.11,3.51 112.31,3.51 112.31,3.46 112.51,3.46 112.51,3.54 112.71,3.54 112.71,3.47 112.91,3.47 112.91,3.48 113.11,3.48 113.11,3.48 113.31,3.48 113.31,3.47 113.51,3.47 113.51,3.54 113.71,3.54 113.71,3.5 " class="primitive"/>
            </g>
          </g>
        </g>
      </g>
    </g>
  </g>
  <g class="guide ylabels" font-size="2.82" font-family="'PT Sans Caption','Helvetica Neue','Helvetica',sans-serif" fill="#6C606B" id="img-2b7c60cb-190">
    <g transform="translate(20.77,59.87)" id="img-2b7c60cb-191">
      <g class="primitive">
        <text text-anchor="end" dy="0.35em">0</text>
      </g>
    </g>
    <g transform="translate(20.77,39.25)" id="img-2b7c60cb-192">
      <g class="primitive">
        <text text-anchor="end" dy="0.35em">1.010</text>
      </g>
    </g>
    <g transform="translate(20.77,18.64)" id="img-2b7c60cb-193">
      <g class="primitive">
        <text text-anchor="end" dy="0.35em">2.010</text>
      </g>
    </g>
  </g>
  <g font-size="3.18" font-family="'PT Sans','Helvetica Neue','Helvetica',sans-serif" fill="#202020" stroke="#000000" stroke-opacity="0.000" id="img-2b7c60cb-194">
    <g transform="translate(4.18,31.76)" id="img-2b7c60cb-195">
      <g class="primitive">
        <text text-anchor="middle" dy="0.35em" transform="rotate(-90,0, 2)">Counts</text>
      </g>
    </g>
  </g>
  <g font-size="3.18" font-family="'PT Sans','Helvetica Neue','Helvetica',sans-serif" fill="#202020" stroke="#000000" stroke-opacity="0.000" id="img-2b7c60cb-196">
    <g transform="translate(137.53,0.71)" id="img-2b7c60cb-197">
      <g class="primitive">
        <text text-anchor="middle" dy="0.6em">III-E K412[0][all]</text>
      </g>
    </g>
  </g>
</g>
<defs>
  <clipPath id="img-2b7c60cb-4">
    <path d="M21.77,5.66 L253.29,5.66 253.29,61.87 21.77,61.87 " />
  </clipPath>
</defs>
</svg>
