<?xml version="1.0" encoding="UTF-8"?>
<svg xmlns="http://www.w3.org/2000/svg"
     xmlns:xlink="http://www.w3.org/1999/xlink"
     xmlns:gadfly="http://www.gadflyjl.org/ns"
     version="1.2"
     width="254mm" height="76.2mm" viewBox="0 0 254 76.2"
     stroke="none"
     fill="#000000"
     stroke-width="0.3"
     font-size="3.88"
>
<defs>
  <marker id="arrow" markerWidth="15" markerHeight="7" refX="5" refY="3.5" orient="auto" markerUnits="strokeWidth">
    <path d="M0,0 L15,3.5 L0,7 z" stroke="context-stroke" fill="context-stroke"/>
  </marker>
</defs>
<g class="plotroot xscalable yscalable" id="img-e206e699-1">
  <g font-size="3.18" font-family="'PT Sans','Helvetica Neue','Helvetica',sans-serif" fill="#202020" stroke="#000000" stroke-opacity="0.000" id="img-e206e699-2">
    <g transform="translate(137.53,69.54)">
      <g class="primitive">
        <text text-anchor="middle" dy="0.6em">Channels</text>
      </g>
    </g>
  </g>
  <g class="guide xlabels" font-size="2.82" font-family="'PT Sans Caption','Helvetica Neue','Helvetica',sans-serif" fill="#6C606B" id="img-e206e699-3">
    <g transform="translate(122.35,62.87)">
      <g class="primitive">
        <text text-anchor="middle" dy="0.6em">500</text>
      </g>
    </g>
    <g transform="translate(222.93,62.87)">
      <g class="primitive">
        <text text-anchor="middle" dy="0.6em">1000</text>
      </g>
    </g>
  </g>
  <g clip-path="url(#img-e206e699-4)">
    <g id="img-e206e699-5">
      <g pointer-events="visible" stroke-width="0.3" fill="#FDFDF1" stroke="#202020" class="guide background" id="img-e206e699-6">
        <g transform="translate(137.53,33.76)" id="img-e206e699-7">
          <path d="M-115.76,-28.1 L115.76,-28.1 115.76,28.1 -115.76,28.1  z" class="primitive"/>
        </g>
      </g>
      <g class="guide ygridlines xfixed" stroke-dasharray="none" stroke-width="0.2" stroke="#FFDFDF" id="img-e206e699-8">
        <g transform="translate(137.53,59.87)" id="img-e206e699-9">
          <path fill="none" d="M-115.76,0 L115.76,0 " class="primitive"/>
        </g>
        <g transform="translate(137.53,39.38)" id="img-e206e699-10">
          <path fill="none" d="M-115.76,0 L115.76,0 " class="primitive"/>
        </g>
        <g transform="translate(137.53,18.89)" id="img-e206e699-11">
          <path fill="none" d="M-115.76,0 L115.76,0 " class="primitive"/>
        </g>
      </g>
      <g class="guide xgridlines yfixed" stroke-dasharray="none" stroke-width="0.2" stroke="#FFDFDF" id="img-e206e699-12">
        <g transform="translate(122.35,33.76)" id="img-e206e699-13">
          <path fill="none" d="M0,-28.1 L0,28.1 " class="primitive"/>
        </g>
        <g transform="translate(222.93,33.76)" id="img-e206e699-14">
          <path fill="none" d="M0,-28.1 L0,28.1 " class="primitive"/>
        </g>
      </g>
      <g class="plotpanel" id="img-e206e699-15">
        <metadata>
          <boundingbox value="21.773888888888912mm 5.660555555555554mm 231.52055555555557mm 56.20555555555556mm"/>
          <unitbox value="0.058041153790744815 26457.406568990427 1150.8839176924184 -27433.59457399571"/>
        </metadata>
        <g class="geometry" stroke="#000000" stroke-opacity="0.000" fill="#4C404B" font-size="2.82" font-family="'PT Sans Caption','Helvetica Neue','Helvetica',sans-serif" id="img-e206e699-16">
          <g class="marker" id="img-e206e699-17">
            <g transform="translate(163.79,33.76)" id="img-e206e699-18">
              <g class="primitive">
                <text text-anchor="middle" dy="-0em" transform="translate(0,-1.9)">0.0668</text>
              </g>
            </g>
          </g>
        </g>
        <g class="geometry" stroke="#000000" stroke-opacity="0.000" fill="#4C404B" font-size="2.82" font-family="'PT Sans Caption','Helvetica Neue','Helvetica',sans-serif" id="img-e206e699-19">
          <g class="marker" id="img-e206e699-20">
            <g transform="translate(158.56,33.76)" id="img-e206e699-21">
              <g class="primitive">
                <text dy="0.35em" transform="translate(1.9,0)"></text>
              </g>
            </g>
            <g transform="translate(169.02,33.76)" id="img-e206e699-22">
              <g class="primitive">
                <text dy="0.35em" transform="translate(1.9,0)">Fe K-M3 + 3 others</text>
              </g>
            </g>
          </g>
        </g>
        <g class="geometry" id="img-e206e699-23">
          <g stroke-width="0.3" id="img-e206e699-24">
            <g class="color_RGBA{Float32}(0.5019608f0,0.5019608f0,0.5019608f0,1.0f0)" fill-opacity="1" stroke="#FFFFFF" fill="#808080" id="img-e206e699-25">
              <g class="marker" id="img-e206e699-26">
                <g transform="translate(169.02,33.76)" id="img-e206e699-27">
                  <circle cx="0" cy="0" r="0.9" class="primitive"/>
                </g>
              </g>
            </g>
            <g class="color_RGBA{Float32}(0.5019608f0,0.5019608f0,0.5019608f0,1.0f0)" fill-opacity="1" stroke="#FFFFFF" fill="#808080" id="img-e206e699-28">
              <g class="marker" id="img-e206e699-29">
                <g transform="translate(158.56,33.76)" id="img-e206e699-30">
                  <circle cx="0" cy="0" r="0.9" class="primitive"/>
                </g>
              </g>
            </g>
          </g>
        </g>
        <g stroke-width="0.3" fill="#000000" fill-opacity="0.000" class="geometry" id="img-e206e699-31">
          <g class="color_RGB{N0f8}(0.502,0.502,0.502)" stroke-dasharray="none" stroke="#808080" id="img-e206e699-32">
            <g transform="translate(163.79,33.76)" id="img-e206e699-33">
              <path fill="none" d="M-5.23,0 L5.23,0 " class="primitive"/>
            </g>
          </g>
        </g>
        <g class="geometry" stroke="#000000" stroke-opacity="0.000" fill="#4C404B" font-size="2.82" font-family="'PT Sans Caption','Helvetica Neue','Helvetica',sans-serif" id="img-e206e699-34">
          <g class="marker" id="img-e206e699-35">
            <g transform="translate(150.71,38.98)" id="img-e206e699-36">
              <g class="primitive">
                <text text-anchor="middle" dy="-0em" transform="translate(0,-1.9)">0.0668</text>
              </g>
            </g>
          </g>
        </g>
        <g class="geometry" stroke="#000000" stroke-opacity="0.000" fill="#4C404B" font-size="2.82" font-family="'PT Sans Caption','Helvetica Neue','Helvetica',sans-serif" id="img-e206e699-37">
          <g class="marker" id="img-e206e699-38">
            <g transform="translate(145.08,38.98)" id="img-e206e699-39">
              <g class="primitive">
                <text dy="0.35em" transform="translate(1.9,0)"></text>
              </g>
            </g>
            <g transform="translate(156.34,38.98)" id="img-e206e699-40">
              <g class="primitive">
                <text dy="0.35em" transform="translate(1.9,0)">Fe K-L3 + 1 other</text>
              </g>
            </g>
          </g>
        </g>
        <g class="geometry" id="img-e206e699-41">
          <g stroke-width="0.3" id="img-e206e699-42">
            <g class="color_RGBA{Float32}(0.5019608f0,0.5019608f0,0.5019608f0,1.0f0)" fill-opacity="1" stroke="#FFFFFF" fill="#808080" id="img-e206e699-43">
              <g class="marker" id="img-e206e699-44">
                <g transform="translate(156.34,38.98)" id="img-e206e699-45">
                  <circle cx="0" cy="0" r="0.9" class="primitive"/>
                </g>
              </g>
            </g>
            <g class="color_RGBA{Float32}(0.5019608f0,0.5019608f0,0.5019608f0,1.0f0)" fill-opacity="1" stroke="#FFFFFF" fill="#808080" id="img-e206e699-46">
              <g class="marker" id="img-e206e699-47">
                <g transform="translate(145.08,38.98)" id="img-e206e699-48">
                  <circle cx="0" cy="0" r="0.9" class="primitive"/>
                </g>
              </g>
            </g>
          </g>
        </g>
        <g stroke-width="0.3" fill="#000000" fill-opacity="0.000" class="geometry" id="img-e206e699-49">
          <g class="color_RGB{N0f8}(0.502,0.502,0.502)" stroke-dasharray="none" stroke="#808080" id="img-e206e699-50">
            <g transform="translate(150.71,38.98)" id="img-e206e699-51">
              <path fill="none" d="M-5.63,0 L5.63,0 " class="primitive"/>
            </g>
          </g>
        </g>
        <g class="geometry" stroke="#000000" stroke-opacity="0.000" fill="#4C404B" font-size="2.82" font-family="'PT Sans Caption','Helvetica Neue','Helvetica',sans-serif" id="img-e206e699-52">
          <g class="marker" id="img-e206e699-53">
            <g transform="translate(129.39,28.54)" id="img-e206e699-54">
              <g class="primitive">
                <text text-anchor="middle" dy="-0em" transform="translate(0,-1.9)">0.3935</text>
              </g>
            </g>
          </g>
        </g>
        <g class="geometry" stroke="#000000" stroke-opacity="0.000" fill="#4C404B" font-size="2.82" font-family="'PT Sans Caption','Helvetica Neue','Helvetica',sans-serif" id="img-e206e699-55">
          <g class="marker" id="img-e206e699-56">
            <g transform="translate(125.56,28.54)" id="img-e206e699-57">
              <g class="primitive">
                <text dy="0.35em" transform="translate(1.9,0)"></text>
              </g>
            </g>
            <g transform="translate(133.21,28.54)" id="img-e206e699-58">
              <g class="primitive">
                <text dy="0.35em" transform="translate(1.9,0)">Esc[Fe K-M2,Fe K-M3,Fe K-M4,Fe K-M5]</text>
              </g>
            </g>
          </g>
        </g>
        <g class="geometry" id="img-e206e699-59">
          <g stroke-width="0.3" id="img-e206e699-60">
            <g class="color_RGBA{Float32}(0.5019608f0,0.5019608f0,0.5019608f0,1.0f0)" fill-opacity="1" stroke="#FFFFFF" fill="#808080" id="img-e206e699-61">
              <g class="marker" id="img-e206e699-62">
                <g transform="translate(133.21,28.54)" id="img-e206e699-63">
                  <circle cx="0" cy="0" r="0.9" class="primitive"/>
                </g>
              </g>
            </g>
            <g class="color_RGBA{Float32}(0.5019608f0,0.5019608f0,0.5019608f0,1.0f0)" fill-opacity="1" stroke="#FFFFFF" fill="#808080" id="img-e206e699-64">
              <g class="marker" id="img-e206e699-65">
                <g transform="translate(125.56,28.54)" id="img-e206e699-66">
                  <circle cx="0" cy="0" r="0.9" class="primitive"/>
                </g>
              </g>
            </g>
          </g>
        </g>
        <g stroke-width="0.3" fill="#000000" fill-opacity="0.000" class="geometry" id="img-e206e699-67">
          <g class="color_RGB{N0f8}(0.502,0.502,0.502)" stroke-dasharray="none" stroke="#808080" id="img-e206e699-68">
            <g transform="translate(129.39,28.54)" id="img-e206e699-69">
              <path fill="none" d="M-3.82,0 L3.82,0 " class="primitive"/>
            </g>
          </g>
        </g>
        <g class="geometry" stroke="#000000" stroke-opacity="0.000" fill="#4C404B" font-size="2.82" font-family="'PT Sans Caption','Helvetica Neue','Helvetica',sans-serif" id="img-e206e699-70">
          <g class="marker" id="img-e206e699-71">
            <g transform="translate(115.51,33.76)" id="img-e206e699-72">
              <g class="primitive">
                <text text-anchor="middle" dy="-0em" transform="translate(0,-1.9)">0.0907</text>
              </g>
            </g>
          </g>
        </g>
        <g class="geometry" stroke="#000000" stroke-opacity="0.000" fill="#4C404B" font-size="2.82" font-family="'PT Sans Caption','Helvetica Neue','Helvetica',sans-serif" id="img-e206e699-73">
          <g class="marker" id="img-e206e699-74">
            <g transform="translate(112.29,33.76)" id="img-e206e699-75">
              <g class="primitive">
                <text dy="0.35em" transform="translate(1.9,0)"></text>
              </g>
            </g>
            <g transform="translate(118.72,33.76)" id="img-e206e699-76">
              <g class="primitive">
                <text dy="0.35em" transform="translate(1.9,0)">Esc[Fe K-L2,Fe K-L3]</text>
              </g>
            </g>
          </g>
        </g>
        <g class="geometry" id="img-e206e699-77">
          <g stroke-width="0.3" id="img-e206e699-78">
            <g class="color_RGBA{Float32}(0.5019608f0,0.5019608f0,0.5019608f0,1.0f0)" fill-opacity="1" stroke="#FFFFFF" fill="#808080" id="img-e206e699-79">
              <g class="marker" id="img-e206e699-80">
                <g transform="translate(118.72,33.76)" id="img-e206e699-81">
                  <circle cx="0" cy="0" r="0.9" class="primitive"/>
                </g>
              </g>
            </g>
            <g class="color_RGBA{Float32}(0.5019608f0,0.5019608f0,0.5019608f0,1.0f0)" fill-opacity="1" stroke="#FFFFFF" fill="#808080" id="img-e206e699-82">
              <g class="marker" id="img-e206e699-83">
                <g transform="translate(112.29,33.76)" id="img-e206e699-84">
                  <circle cx="0" cy="0" r="0.9" class="primitive"/>
                </g>
              </g>
            </g>
          </g>
        </g>
        <g stroke-width="0.3" fill="#000000" fill-opacity="0.000" class="geometry" id="img-e206e699-85">
          <g class="color_RGB{N0f8}(0.502,0.502,0.502)" stroke-dasharray="none" stroke="#808080" id="img-e206e699-86">
            <g transform="translate(115.51,33.76)" id="img-e206e699-87">
              <path fill="none" d="M-3.22,0 L3.22,0 " class="primitive"/>
            </g>
          </g>
        </g>
        <g class="geometry" stroke="#000000" stroke-opacity="0.000" fill="#4C404B" font-size="2.82" font-family="'PT Sans Caption','Helvetica Neue','Helvetica',sans-serif" id="img-e206e699-88">
          <g class="marker" id="img-e206e699-89">
            <g transform="translate(99.11,38.98)" id="img-e206e699-90">
              <g class="primitive">
                <text text-anchor="middle" dy="-0em" transform="translate(0,-1.9)">0.1922</text>
              </g>
            </g>
          </g>
        </g>
        <g class="geometry" stroke="#000000" stroke-opacity="0.000" fill="#4C404B" font-size="2.82" font-family="'PT Sans Caption','Helvetica Neue','Helvetica',sans-serif" id="img-e206e699-91">
          <g class="marker" id="img-e206e699-92">
            <g transform="translate(91.57,38.98)" id="img-e206e699-93">
              <g class="primitive">
                <text dy="0.35em" transform="translate(1.9,0)"></text>
              </g>
            </g>
            <g transform="translate(106.65,38.98)" id="img-e206e699-94">
              <g class="primitive">
                <text dy="0.35em" transform="translate(1.9,0)">Ca K-L3 + 3 others</text>
              </g>
            </g>
          </g>
        </g>
        <g class="geometry" id="img-e206e699-95">
          <g stroke-width="0.3" id="img-e206e699-96">
            <g class="color_RGBA{Float32}(0.5019608f0,0.5019608f0,0.5019608f0,1.0f0)" fill-opacity="1" stroke="#FFFFFF" fill="#808080" id="img-e206e699-97">
              <g class="marker" id="img-e206e699-98">
                <g transform="translate(106.65,38.98)" id="img-e206e699-99">
                  <circle cx="0" cy="0" r="0.9" class="primitive"/>
                </g>
              </g>
            </g>
            <g class="color_RGBA{Float32}(0.5019608f0,0.5019608f0,0.5019608f0,1.0f0)" fill-opacity="1" stroke="#FFFFFF" fill="#808080" id="img-e206e699-100">
              <g class="marker" id="img-e206e699-101">
                <g transform="translate(91.57,38.98)" id="img-e206e699-102">
                  <circle cx="0" cy="0" r="0.9" class="primitive"/>
                </g>
              </g>
            </g>
          </g>
        </g>
        <g stroke-width="0.3" fill="#000000" fill-opacity="0.000" class="geometry" id="img-e206e699-103">
          <g class="color_RGB{N0f8}(0.502,0.502,0.502)" stroke-dasharray="none" stroke="#808080" id="img-e206e699-104">
            <g transform="translate(99.11,38.98)" id="img-e206e699-105">
              <path fill="none" d="M-7.54,0 L7.54,0 " class="primitive"/>
            </g>
          </g>
        </g>
        <g class="geometry" stroke="#000000" stroke-opacity="0.000" fill="#4C404B" font-size="2.82" font-family="'PT Sans Caption','Helvetica Neue','Helvetica',sans-serif" id="img-e206e699-106">
          <g class="marker" id="img-e206e699-107">
            <g transform="translate(67.63,33.76)" id="img-e206e699-108">
              <g class="primitive">
                <text text-anchor="middle" dy="-0em" transform="translate(0,-1.9)">0.9584</text>
              </g>
            </g>
          </g>
        </g>
        <g class="geometry" stroke="#000000" stroke-opacity="0.000" fill="#4C404B" font-size="2.82" font-family="'PT Sans Caption','Helvetica Neue','Helvetica',sans-serif" id="img-e206e699-109">
          <g class="marker" id="img-e206e699-110">
            <g transform="translate(65.21,33.76)" id="img-e206e699-111">
              <g class="primitive">
                <text dy="0.35em" transform="translate(1.9,0)"></text>
              </g>
            </g>
            <g transform="translate(70.04,33.76)" id="img-e206e699-112">
              <g class="primitive">
                <text dy="0.35em" transform="translate(1.9,0)">Esc[Ca K-M2,Ca K-M3]</text>
              </g>
            </g>
          </g>
        </g>
        <g class="geometry" id="img-e206e699-113">
          <g stroke-width="0.3" id="img-e206e699-114">
            <g class="color_RGBA{Float32}(0.5019608f0,0.5019608f0,0.5019608f0,1.0f0)" fill-opacity="1" stroke="#FFFFFF" fill="#808080" id="img-e206e699-115">
              <g class="marker" id="img-e206e699-116">
                <g transform="translate(70.04,33.76)" id="img-e206e699-117">
                  <circle cx="0" cy="0" r="0.9" class="primitive"/>
                </g>
              </g>
            </g>
            <g class="color_RGBA{Float32}(0.5019608f0,0.5019608f0,0.5019608f0,1.0f0)" fill-opacity="1" stroke="#FFFFFF" fill="#808080" id="img-e206e699-118">
              <g class="marker" id="img-e206e699-119">
                <g transform="translate(65.21,33.76)" id="img-e206e699-120">
                  <circle cx="0" cy="0" r="0.9" class="primitive"/>
                </g>
              </g>
            </g>
          </g>
        </g>
        <g stroke-width="0.3" fill="#000000" fill-opacity="0.000" class="geometry" id="img-e206e699-121">
          <g class="color_RGB{N0f8}(0.502,0.502,0.502)" stroke-dasharray="none" stroke="#808080" id="img-e206e699-122">
            <g transform="translate(67.63,33.76)" id="img-e206e699-123">
              <path fill="none" d="M-2.41,0 L2.41,0 " class="primitive"/>
            </g>
          </g>
        </g>
        <g class="geometry" stroke="#000000" stroke-opacity="0.000" fill="#4C404B" font-size="2.82" font-family="'PT Sans Caption','Helvetica Neue','Helvetica',sans-serif" id="img-e206e699-124">
          <g class="marker" id="img-e206e699-125">
            <g transform="translate(61.09,38.98)" id="img-e206e699-126">
              <g class="primitive">
                <text text-anchor="middle" dy="-0em" transform="translate(0,-1.9)">0.0554</text>
              </g>
            </g>
          </g>
        </g>
        <g class="geometry" stroke="#000000" stroke-opacity="0.000" fill="#4C404B" font-size="2.82" font-family="'PT Sans Caption','Helvetica Neue','Helvetica',sans-serif" id="img-e206e699-127">
          <g class="marker" id="img-e206e699-128">
            <g transform="translate(58.78,38.98)" id="img-e206e699-129">
              <g class="primitive">
                <text dy="0.35em" transform="translate(1.9,0)"></text>
              </g>
            </g>
            <g transform="translate(63.4,38.98)" id="img-e206e699-130">
              <g class="primitive">
                <text dy="0.35em" transform="translate(1.9,0)">Esc[Ca K-L2,Ca K-L3]</text>
              </g>
            </g>
          </g>
        </g>
        <g class="geometry" id="img-e206e699-131">
          <g stroke-width="0.3" id="img-e206e699-132">
            <g class="color_RGBA{Float32}(0.5019608f0,0.5019608f0,0.5019608f0,1.0f0)" fill-opacity="1" stroke="#FFFFFF" fill="#808080" id="img-e206e699-133">
              <g class="marker" id="img-e206e699-134">
                <g transform="translate(63.4,38.98)" id="img-e206e699-135">
                  <circle cx="0" cy="0" r="0.9" class="primitive"/>
                </g>
              </g>
            </g>
            <g class="color_RGBA{Float32}(0.5019608f0,0.5019608f0,0.5019608f0,1.0f0)" fill-opacity="1" stroke="#FFFFFF" fill="#808080" id="img-e206e699-136">
              <g class="marker" id="img-e206e699-137">
                <g transform="translate(58.78,38.98)" id="img-e206e699-138">
                  <circle cx="0" cy="0" r="0.9" class="primitive"/>
                </g>
              </g>
            </g>
          </g>
        </g>
        <g stroke-width="0.3" fill="#000000" fill-opacity="0.000" class="geometry" id="img-e206e699-139">
          <g class="color_RGB{N0f8}(0.502,0.502,0.502)" stroke-dasharray="none" stroke="#808080" id="img-e206e699-140">
            <g transform="translate(61.09,38.98)" id="img-e206e699-141">
              <path fill="none" d="M-2.31,0 L2.31,0 " class="primitive"/>
            </g>
          </g>
        </g>
        <g class="geometry" stroke="#000000" stroke-opacity="0.000" fill="#4C404B" font-size="2.82" font-family="'PT Sans Caption','Helvetica Neue','Helvetica',sans-serif" id="img-e206e699-142">
          <g class="marker" id="img-e206e699-143">
            <g transform="translate(57.37,18.1)" id="img-e206e699-144">
              <g class="primitive">
                <text text-anchor="middle" dy="-0em" transform="translate(0,-1.9)">0.3510</text>
              </g>
            </g>
          </g>
        </g>
        <g class="geometry" stroke="#000000" stroke-opacity="0.000" fill="#4C404B" font-size="2.82" font-family="'PT Sans Caption','Helvetica Neue','Helvetica',sans-serif" id="img-e206e699-145">
          <g class="marker" id="img-e206e699-146">
            <g transform="translate(53.35,18.1)" id="img-e206e699-147">
              <g class="primitive">
                <text dy="0.35em" transform="translate(1.9,0)"></text>
              </g>
            </g>
            <g transform="translate(61.39,18.1)" id="img-e206e699-148">
              <g class="primitive">
                <text dy="0.35em" transform="translate(1.9,0)">Si K-L3 + 2 others</text>
              </g>
            </g>
          </g>
        </g>
        <g class="geometry" id="img-e206e699-149">
          <g stroke-width="0.3" id="img-e206e699-150">
            <g class="color_RGBA{Float32}(0.5019608f0,0.5019608f0,0.5019608f0,1.0f0)" fill-opacity="1" stroke="#FFFFFF" fill="#808080" id="img-e206e699-151">
              <g class="marker" id="img-e206e699-152">
                <g transform="translate(61.39,18.1)" id="img-e206e699-153">
                  <circle cx="0" cy="0" r="0.9" class="primitive"/>
                </g>
              </g>
            </g>
            <g class="color_RGBA{Float32}(0.5019608f0,0.5019608f0,0.5019608f0,1.0f0)" fill-opacity="1" stroke="#FFFFFF" fill="#808080" id="img-e206e699-154">
              <g class="marker" id="img-e206e699-155">
                <g transform="translate(53.35,18.1)" id="img-e206e699-156">
                  <circle cx="0" cy="0" r="0.9" class="primitive"/>
                </g>
              </g>
            </g>
          </g>
        </g>
        <g stroke-width="0.3" fill="#000000" fill-opacity="0.000" class="geometry" id="img-e206e699-157">
          <g class="color_RGB{N0f8}(0.502,0.502,0.502)" stroke-dasharray="none" stroke="#808080" id="img-e206e699-158">
            <g transform="translate(57.37,18.1)" id="img-e206e699-159">
              <path fill="none" d="M-4.02,0 L4.02,0 " class="primitive"/>
            </g>
          </g>
        </g>
        <g class="geometry" stroke="#000000" stroke-opacity="0.000" fill="#4C404B" font-size="2.82" font-family="'PT Sans Caption','Helvetica Neue','Helvetica',sans-serif" id="img-e206e699-160">
          <g class="marker" id="img-e206e699-161">
            <g transform="translate(51.74,23.32)" id="img-e206e699-162">
              <g class="primitive">
                <text text-anchor="middle" dy="-0em" transform="translate(0,-1.9)">0.0670</text>
              </g>
            </g>
          </g>
        </g>
        <g class="geometry" stroke="#000000" stroke-opacity="0.000" fill="#4C404B" font-size="2.82" font-family="'PT Sans Caption','Helvetica Neue','Helvetica',sans-serif" id="img-e206e699-163">
          <g class="marker" id="img-e206e699-164">
            <g transform="translate(48.32,23.32)" id="img-e206e699-165">
              <g class="primitive">
                <text dy="0.35em" transform="translate(1.9,0)"></text>
              </g>
            </g>
            <g transform="translate(55.16,23.32)" id="img-e206e699-166">
              <g class="primitive">
                <text dy="0.35em" transform="translate(1.9,0)">Al K-L3 + 1 other</text>
              </g>
            </g>
          </g>
        </g>
        <g class="geometry" id="img-e206e699-167">
          <g stroke-width="0.3" id="img-e206e699-168">
            <g class="color_RGBA{Float32}(0.5019608f0,0.5019608f0,0.5019608f0,1.0f0)" fill-opacity="1" stroke="#FFFFFF" fill="#808080" id="img-e206e699-169">
              <g class="marker" id="img-e206e699-170">
                <g transform="translate(55.16,23.32)" id="img-e206e699-171">
                  <circle cx="0" cy="0" r="0.9" class="primitive"/>
                </g>
              </g>
            </g>
            <g class="color_RGBA{Float32}(0.5019608f0,0.5019608f0,0.5019608f0,1.0f0)" fill-opacity="1" stroke="#FFFFFF" fill="#808080" id="img-e206e699-172">
              <g class="marker" id="img-e206e699-173">
                <g transform="translate(48.32,23.32)" id="img-e206e699-174">
                  <circle cx="0" cy="0" r="0.9" class="primitive"/>
                </g>
              </g>
            </g>
          </g>
        </g>
        <g stroke-width="0.3" fill="#000000" fill-opacity="0.000" class="geometry" id="img-e206e699-175">
          <g class="color_RGB{N0f8}(0.502,0.502,0.502)" stroke-dasharray="none" stroke="#808080" id="img-e206e699-176">
            <g transform="translate(51.74,23.32)" id="img-e206e699-177">
              <path fill="none" d="M-3.42,0 L3.42,0 " class="primitive"/>
            </g>
          </g>
        </g>
        <g class="geometry" stroke="#000000" stroke-opacity="0.000" fill="#4C404B" font-size="2.82" font-family="'PT Sans Caption','Helvetica Neue','Helvetica',sans-serif" id="img-e206e699-178">
          <g class="marker" id="img-e206e699-179">
            <g transform="translate(47.11,28.54)" id="img-e206e699-180">
              <g class="primitive">
                <text text-anchor="middle" dy="-0em" transform="translate(0,-1.9)">0.1475</text>
              </g>
            </g>
          </g>
        </g>
        <g class="geometry" stroke="#000000" stroke-opacity="0.000" fill="#4C404B" font-size="2.82" font-family="'PT Sans Caption','Helvetica Neue','Helvetica',sans-serif" id="img-e206e699-181">
          <g class="marker" id="img-e206e699-182">
            <g transform="translate(43.89,28.54)" id="img-e206e699-183">
              <g class="primitive">
                <text dy="0.35em" transform="translate(1.9,0)"></text>
              </g>
            </g>
            <g transform="translate(50.33,28.54)" id="img-e206e699-184">
              <g class="primitive">
                <text dy="0.35em" transform="translate(1.9,0)">Mg K-L3 + 1 other</text>
              </g>
            </g>
          </g>
        </g>
        <g class="geometry" id="img-e206e699-185">
          <g stroke-width="0.3" id="img-e206e699-186">
            <g class="color_RGBA{Float32}(0.5019608f0,0.5019608f0,0.5019608f0,1.0f0)" fill-opacity="1" stroke="#FFFFFF" fill="#808080" id="img-e206e699-187">
              <g class="marker" id="img-e206e699-188">
                <g transform="translate(50.33,28.54)" id="img-e206e699-189">
                  <circle cx="0" cy="0" r="0.9" class="primitive"/>
                </g>
              </g>
            </g>
            <g class="color_RGBA{Float32}(0.5019608f0,0.5019608f0,0.5019608f0,1.0f0)" fill-opacity="1" stroke="#FFFFFF" fill="#808080" id="img-e206e699-190">
              <g class="marker" id="img-e206e699-191">
                <g transform="translate(43.89,28.54)" id="img-e206e699-192">
                  <circle cx="0" cy="0" r="0.9" class="primitive"/>
                </g>
              </g>
            </g>
          </g>
        </g>
        <g stroke-width="0.3" fill="#000000" fill-opacity="0.000" class="geometry" id="img-e206e699-193">
          <g class="color_RGB{N0f8}(0.502,0.502,0.502)" stroke-dasharray="none" stroke="#808080" id="img-e206e699-194">
            <g transform="translate(47.11,28.54)" id="img-e206e699-195">
              <path fill="none" d="M-3.22,0 L3.22,0 " class="primitive"/>
            </g>
          </g>
        </g>
        <g class="geometry" stroke="#000000" stroke-opacity="0.000" fill="#4C404B" font-size="2.82" font-family="'PT Sans Caption','Helvetica Neue','Helvetica',sans-serif" id="img-e206e699-196">
          <g class="marker" id="img-e206e699-197">
            <g transform="translate(36.05,33.76)" id="img-e206e699-198">
              <g class="primitive">
                <text text-anchor="middle" dy="-0em" transform="translate(0,-1.9)">0.0424</text>
              </g>
            </g>
          </g>
        </g>
        <g class="geometry" stroke="#000000" stroke-opacity="0.000" fill="#4C404B" font-size="2.82" font-family="'PT Sans Caption','Helvetica Neue','Helvetica',sans-serif" id="img-e206e699-199">
          <g class="marker" id="img-e206e699-200">
            <g transform="translate(31.62,33.76)" id="img-e206e699-201">
              <g class="primitive">
                <text dy="0.35em" transform="translate(1.9,0)"></text>
              </g>
            </g>
            <g transform="translate(40.47,33.76)" id="img-e206e699-202">
              <g class="primitive">
                <text dy="0.35em" transform="translate(1.9,0)">Fe L3-M5 + 11 others</text>
              </g>
            </g>
          </g>
        </g>
        <g class="geometry" id="img-e206e699-203">
          <g stroke-width="0.3" id="img-e206e699-204">
            <g class="color_RGBA{Float32}(0.5019608f0,0.5019608f0,0.5019608f0,1.0f0)" fill-opacity="1" stroke="#FFFFFF" fill="#808080" id="img-e206e699-205">
              <g class="marker" id="img-e206e699-206">
                <g transform="translate(40.47,33.76)" id="img-e206e699-207">
                  <circle cx="0" cy="0" r="0.9" class="primitive"/>
                </g>
              </g>
            </g>
            <g class="color_RGBA{Float32}(0.5019608f0,0.5019608f0,0.5019608f0,1.0f0)" fill-opacity="1" stroke="#FFFFFF" fill="#808080" id="img-e206e699-208">
              <g class="marker" id="img-e206e699-209">
                <g transform="translate(31.62,33.76)" id="img-e206e699-210">
                  <circle cx="0" cy="0" r="0.9" class="primitive"/>
                </g>
              </g>
            </g>
          </g>
        </g>
        <g stroke-width="0.3" fill="#000000" fill-opacity="0.000" class="geometry" id="img-e206e699-211">
          <g class="color_RGB{N0f8}(0.502,0.502,0.502)" stroke-dasharray="none" stroke="#808080" id="img-e206e699-212">
            <g transform="translate(36.05,33.76)" id="img-e206e699-213">
              <path fill="none" d="M-4.43,0 L4.43,0 " class="primitive"/>
            </g>
          </g>
        </g>
        <g class="geometry" stroke="#000000" stroke-opacity="0.000" fill="#4C404B" font-size="2.82" font-family="'PT Sans Caption','Helvetica Neue','Helvetica',sans-serif" id="img-e206e699-214">
          <g class="marker" id="img-e206e699-215">
            <g transform="translate(32.42,38.98)" id="img-e206e699-216">
              <g class="primitive">
                <text text-anchor="middle" dy="-0em" transform="translate(0,-1.9)">0.6520</text>
              </g>
            </g>
          </g>
        </g>
        <g class="geometry" stroke="#000000" stroke-opacity="0.000" fill="#4C404B" font-size="2.82" font-family="'PT Sans Caption','Helvetica Neue','Helvetica',sans-serif" id="img-e206e699-217">
          <g class="marker" id="img-e206e699-218">
            <g transform="translate(29.81,38.98)" id="img-e206e699-219">
              <g class="primitive">
                <text dy="0.35em" transform="translate(1.9,0)"></text>
              </g>
            </g>
            <g transform="translate(35.04,38.98)" id="img-e206e699-220">
              <g class="primitive">
                <text dy="0.35em" transform="translate(1.9,0)">O K-L3 + 1 other</text>
              </g>
            </g>
          </g>
        </g>
        <g class="geometry" id="img-e206e699-221">
          <g stroke-width="0.3" id="img-e206e699-222">
            <g class="color_RGBA{Float32}(0.5019608f0,0.5019608f0,0.5019608f0,1.0f0)" fill-opacity="1" stroke="#FFFFFF" fill="#808080" id="img-e206e699-223">
              <g class="marker" id="img-e206e699-224">
                <g transform="translate(35.04,38.98)" id="img-e206e699-225">
                  <circle cx="0" cy="0" r="0.9" class="primitive"/>
                </g>
              </g>
            </g>
            <g class="color_RGBA{Float32}(0.5019608f0,0.5019608f0,0.5019608f0,1.0f0)" fill-opacity="1" stroke="#FFFFFF" fill="#808080" id="img-e206e699-226">
              <g class="marker" id="img-e206e699-227">
                <g transform="translate(29.81,38.98)" id="img-e206e699-228">
                  <circle cx="0" cy="0" r="0.9" class="primitive"/>
                </g>
              </g>
            </g>
          </g>
        </g>
        <g stroke-width="0.3" fill="#000000" fill-opacity="0.000" class="geometry" id="img-e206e699-229">
          <g class="color_RGB{N0f8}(0.502,0.502,0.502)" stroke-dasharray="none" stroke="#808080" id="img-e206e699-230">
            <g transform="translate(32.42,38.98)" id="img-e206e699-231">
              <path fill="none" d="M-2.62,0 L2.62,0 " class="primitive"/>
            </g>
          </g>
        </g>
        <g stroke-width="0.3" fill="#000000" fill-opacity="0.000" class="geometry" id="img-e206e699-232">
          <g class="color_RGB{N0f8}(0.063,0.306,0.545)" stroke-dasharray="none" stroke="#104E8B" id="img-e206e699-233">
            <g transform="translate(137.58,45.43)" id="img-e206e699-234">
              <path fill="none" d="M-113.81,14.43 L-113.61,14.43 -113.61,14.44 -113.41,14.44 -113.41,14.43 -113.21,14.43 -113.21,14.43 -113.01,14.43 -113.01,14.43 -112.8,14.43 -112.8,14.42 -112.6,14.42 -112.6,14.41 -112.4,14.41 -112.4,14.38 -112.2,14.38 -112.2,14.33 -112,14.33 -112,14.26 -111.8,14.26 -111.8,14.09 -111.6,14.09 -111.6,13.82 -111.4,13.82 -111.4,13.26 -111.2,13.26 -111.2,12.2 -110.99,12.2 -110.99,10.37 -110.79,10.37 -110.79,7.53 -110.59,7.53 -110.59,4.66 -110.39,4.66 -110.39,2.1 -110.19,2.1 -110.19,1 -109.99,1 -109.99,1.98 -109.79,1.98 -109.79,4.3 -109.59,4.3 -109.59,7.07 -109.38,7.07 -109.38,8.88 -109.18,8.88 -109.18,10.34 -108.98,10.34 -108.98,10.93 -108.78,10.93 -108.78,11.03 -108.58,11.03 -108.58,11.07 -108.38,11.07 -108.38,10.96 -108.18,10.96 -108.18,11.04 -107.98,11.04 -107.98,10.58 -107.78,10.58 -107.78,10.46 -107.57,10.46 -107.57,9.96 -107.37,9.96 -107.37,9.38 -107.17,9.38 -107.17,8.17 -106.97,8.17 -106.97,6.12 -106.77,6.12 -106.77,1.45 -106.57,1.45 -106.57,-7.32 -106.37,-7.32 -106.37,-23 -106.17,-23 -106.17,-50 -105.97,-50 -105.97,-91.52 -105.76,-91.52 -105.76,-143.25 -105.56,-143.25 -105.56,-197.49 -105.36,-197.49 -105.36,-236.73 -105.16,-236.73 -105.16,-244.46 -104.96,-244.46 -104.96,-219.88 -104.76,-219.88 -104.76,-171.29 -104.56,-171.29 -104.56,-113.9 -104.36,-113.9 -104.36,-64.04 -104.15,-64.04 -104.15,-28.12 -103.95,-28.12 -103.95,-8.24 -103.75,-8.24 -103.75,1.82 -103.55,1.82 -103.55,6.44 -103.35,6.44 -103.35,7.89 -103.15,7.89 -103.15,8.48 -102.95,8.48 -102.95,8.72 -102.75,8.72 -102.75,8.09 -102.55,8.09 -102.55,7.27 -102.34,7.27 -102.34,5.82 -102.14,5.82 -102.14,3.51 -101.94,3.51 -101.94,0.89 -101.74,0.89 -101.74,-1.81 -101.54,-1.81 -101.54,-3.28 -101.34,-3.28 -101.34,-3.38 -101.14,-3.38 -101.14,-2.28 -100.94,-2.28 -100.94,0.41 -100.73,0.41 -100.73,3.03 -100.53,3.03 -100.53,5.12 -100.33,5.12 -100.33,6.83 -100.13,6.83 -100.13,8.01 -99.93,8.01 -99.93,8.33 -99.73,8.33 -99.73,8.41 -99.53,8.41 -99.53,8.62 -99.33,8.62 -99.33,8.69 -99.13,8.69 -99.13,8.68 -98.92,8.68 -98.92,8.36 -98.72,8.36 -98.72,8.41 -98.52,8.41 -98.52,8.17 -98.32,8.17 -98.32,7.9 -98.12,7.9 -98.12,8.08 -97.92,8.08 -97.92,7.92 -97.72,7.92 -97.72,7.6 -97.52,7.6 -97.52,7.62 -97.31,7.62 -97.31,7.69 -97.11,7.69 -97.11,7.39 -96.91,7.39 -96.91,7.22 -96.71,7.22 -96.71,6.92 -96.51,6.92 -96.51,6.9 -96.31,6.9 -96.31,6.34 -96.11,6.34 -96.11,6.54 -95.91,6.54 -95.91,6.22 -95.71,6.22 -95.71,5.81 -95.5,5.81 -95.5,5.61 -95.3,5.61 -95.3,5.07 -95.1,5.07 -95.1,4.63 -94.9,4.63 -94.9,4.56 -94.7,4.56 -94.7,4.53 -94.5,4.53 -94.5,4.43 -94.3,4.43 -94.3,3.9 -94.1,3.9 -94.1,3.9 -93.89,3.9 -93.89,3.64 -93.69,3.64 -93.69,3.92 -93.49,3.92 -93.49,3.44 -93.29,3.44 -93.29,3.18 -93.09,3.18 -93.09,3.1 -92.89,3.1 -92.89,2.74 -92.69,2.74 -92.69,1.78 -92.49,1.78 -92.49,0.76 -92.29,0.76 -92.29,-1.63 -92.08,-1.63 -92.08,-6.58 -91.88,-6.58 -91.88,-16.08 -91.68,-16.08 -91.68,-31.8 -91.48,-31.8 -91.48,-58.35 -91.28,-58.35 -91.28,-94.94 -91.08,-94.94 -91.08,-140.85 -90.88,-140.85 -90.88,-186.7 -90.68,-186.7 -90.68,-223.54 -90.48,-223.54 -90.48,-242.41 -90.27,-242.41 -90.27,-237.5 -90.07,-237.5 -90.07,-211.73 -89.87,-211.73 -89.87,-170.49 -89.67,-170.49 -89.67,-124.79 -89.47,-124.79 -89.47,-83.1 -89.27,-83.1 -89.27,-50.94 -89.07,-50.94 -89.07,-27.35 -88.87,-27.35 -88.87,-13.44 -88.66,-13.44 -88.66,-4.8 -88.46,-4.8 -88.46,-0.81 -88.26,-0.81 -88.26,1.35 -88.06,1.35 -88.06,1.81 -87.86,1.81 -87.86,2.2 -87.66,2.2 -87.66,1.31 -87.46,1.31 -87.46,-0.46 -87.26,-0.46 -87.26,-3.76 -87.06,-3.76 -87.06,-10.45 -86.85,-10.45 -86.85,-20.75 -86.65,-20.75 -86.65,-35.44 -86.45,-35.44 -86.45,-53.1 -86.25,-53.1 -86.25,-72.31 -86.05,-72.31 -86.05,-88.36 -85.85,-88.36 -85.85,-98.27 -85.65,-98.27 -85.65,-99.88 -85.45,-99.88 -85.45,-93.04 -85.24,-93.04 -85.24,-77.64 -85.04,-77.64 -85.04,-60.35 -84.84,-60.35 -84.84,-42.48 -84.64,-42.48 -84.64,-27.92 -84.44,-27.92 -84.44,-16.33 -84.24,-16.33 -84.24,-9.69 -84.04,-9.69 -84.04,-4.62 -83.84,-4.62 -83.84,-1.54 -83.64,-1.54 -83.64,-0.31 -83.43,-0.31 -83.43,0.87 -83.23,0.87 -83.23,1.54 -83.03,1.54 -83.03,0.45 -82.83,0.45 -82.83,-1.12 -82.63,-1.12 -82.63,-5.39 -82.43,-5.39 -82.43,-13.96 -82.23,-13.96 -82.23,-29.85 -82.03,-29.85 -82.03,-59.22 -81.82,-59.22 -81.82,-101.69 -81.62,-101.69 -81.62,-162.26 -81.42,-162.26 -81.42,-237.52 -81.22,-237.52 -81.22,-317.81 -81.02,-317.81 -81.02,-388.74 -80.82,-388.74 -80.82,-445.48 -80.62,-445.48 -80.62,-462.24 -80.42,-462.24 -80.42,-441.57 -80.22,-441.57 -80.22,-388.49 -80.01,-388.49 -80.01,-316.16 -79.81,-316.16 -79.81,-240.25 -79.61,-240.25 -79.61,-170.52 -79.41,-170.52 -79.41,-114.79 -79.21,-114.79 -79.21,-73.85 -79.01,-73.85 -79.01,-47.14 -78.81,-47.14 -78.81,-30.96 -78.61,-30.96 -78.61,-21.17 -78.41,-21.17 -78.41,-14.41 -78.2,-14.41 -78.2,-9.16 -78,-9.16 -78,-4.68 -77.8,-4.68 -77.8,-1.42 -77.6,-1.42 -77.6,1.21 -77.4,1.21 -77.4,2.81 -77.2,2.81 -77.2,3.49 -77,3.49 -77,3.99 -76.8,3.99 -76.8,4.73 -76.59,4.73 -76.59,5.05 -76.39,5.05 -76.39,4.89 -76.19,4.89 -76.19,5.1 -75.99,5.1 -75.99,5.35 -75.79,5.35 -75.79,5.56 -75.59,5.56 -75.59,5.57 -75.39,5.57 -75.39,5.88 -75.19,5.88 -75.19,6.21 -74.99,6.21 -74.99,6.11 -74.78,6.11 -74.78,6.57 -74.58,6.57 -74.58,6.62 -74.38,6.62 -74.38,6.6 -74.18,6.6 -74.18,6.53 -73.98,6.53 -73.98,6.65 -73.78,6.65 -73.78,6.77 -73.58,6.77 -73.58,6.51 -73.38,6.51 -73.38,6.52 -73.17,6.52 -73.17,6.61 -72.97,6.61 -72.97,6.59 -72.77,6.59 -72.77,6.9 -72.57,6.9 -72.57,6.34 -72.37,6.34 -72.37,6.57 -72.17,6.57 -72.17,6.39 -71.97,6.39 -71.97,6.61 -71.77,6.61 -71.77,6.63 -71.57,6.63 -71.57,6.28 -71.36,6.28 -71.36,6.18 -71.16,6.18 -71.16,6.01 -70.96,6.01 -70.96,5.95 -70.76,5.95 -70.76,5.85 -70.56,5.85 -70.56,5.75 -70.36,5.75 -70.36,5.69 -70.16,5.69 -70.16,5.77 -69.96,5.77 -69.96,5.62 -69.75,5.62 -69.75,5.54 -69.55,5.54 -69.55,5.94 -69.35,5.94 -69.35,6.07 -69.15,6.07 -69.15,6.17 -68.95,6.17 -68.95,6.09 -68.75,6.09 -68.75,6.18 -68.55,6.18 -68.55,6.26 -68.35,6.26 -68.35,6.18 -68.15,6.18 -68.15,6.47 -67.94,6.47 -67.94,6.44 -67.74,6.44 -67.74,6.46 -67.54,6.46 -67.54,6.46 -67.34,6.46 -67.34,6.48 -67.14,6.48 -67.14,6.5 -66.94,6.5 -66.94,6.58 -66.74,6.58 -66.74,6.26 -66.54,6.26 -66.54,6.53 -66.33,6.53 -66.33,6.5 -66.13,6.5 -66.13,6.24 -65.93,6.24 -65.93,6.43 -65.73,6.43 -65.73,6.42 -65.53,6.42 -65.53,6.35 -65.33,6.35 -65.33,6.55 -65.13,6.55 -65.13,6.36 -64.93,6.36 -64.93,6.46 -64.73,6.46 -64.73,6.15 -64.52,6.15 -64.52,6.57 -64.32,6.57 -64.32,6.34 -64.12,6.34 -64.12,6.23 -63.92,6.23 -63.92,6.9 -63.72,6.9 -63.72,6.38 -63.52,6.38 -63.52,6.62 -63.32,6.62 -63.32,6.47 -63.12,6.47 -63.12,6.58 -62.92,6.58 -62.92,6.57 -62.71,6.57 -62.71,6.4 -62.51,6.4 -62.51,6.67 -62.31,6.67 -62.31,6.56 -62.11,6.56 -62.11,6.58 -61.91,6.58 -61.91,6.59 -61.71,6.59 -61.71,6.71 -61.51,6.71 -61.51,6.59 -61.31,6.59 -61.31,6.7 -61.1,6.7 -61.1,6.73 -60.9,6.73 -60.9,6.42 -60.7,6.42 -60.7,6.69 -60.5,6.69 -60.5,6.69 -60.3,6.69 -60.3,6.72 -60.1,6.72 -60.1,6.85 -59.9,6.85 -59.9,6.67 -59.7,6.67 -59.7,6.59 -59.5,6.59 -59.5,6.97 -59.29,6.97 -59.29,6.88 -59.09,6.88 -59.09,6.87 -58.89,6.87 -58.89,6.79 -58.69,6.79 -58.69,6.69 -58.49,6.69 -58.49,6.77 -58.29,6.77 -58.29,7 -58.09,7 -58.09,6.89 -57.89,6.89 -57.89,6.65 -57.68,6.65 -57.68,6.93 -57.48,6.93 -57.48,6.74 -57.28,6.74 -57.28,6.67 -57.08,6.67 -57.08,6.63 -56.88,6.63 -56.88,6.71 -56.68,6.71 -56.68,6.92 -56.48,6.92 -56.48,6.67 -56.28,6.67 -56.28,6.59 -56.08,6.59 -56.08,6.4 -55.87,6.4 -55.87,6.43 -55.67,6.43 -55.67,6.46 -55.47,6.46 -55.47,6.49 -55.27,6.49 -55.27,6.66 -55.07,6.66 -55.07,6.61 -54.87,6.61 -54.87,6.82 -54.67,6.82 -54.67,6.8 -54.47,6.8 -54.47,6.83 -54.26,6.83 -54.26,7.08 -54.06,7.08 -54.06,6.89 -53.86,6.89 -53.86,7.03 -53.66,7.03 -53.66,7.1 -53.46,7.1 -53.46,7.12 -53.26,7.12 -53.26,7.09 -53.06,7.09 -53.06,7.28 -52.86,7.28 -52.86,7.31 -52.66,7.31 -52.66,7.04 -52.45,7.04 -52.45,7.23 -52.25,7.23 -52.25,7.08 -52.05,7.08 -52.05,6.94 -51.85,6.94 -51.85,7.07 -51.65,7.07 -51.65,7.08 -51.45,7.08 -51.45,7.1 -51.25,7.1 -51.25,7.24 -51.05,7.24 -51.05,7.07 -50.85,7.07 -50.85,6.97 -50.64,6.97 -50.64,7.27 -50.44,7.27 -50.44,7.13 -50.24,7.13 -50.24,6.87 -50.04,6.87 -50.04,7.46 -49.84,7.46 -49.84,7.12 -49.64,7.12 -49.64,7.41 -49.44,7.41 -49.44,7.25 -49.24,7.25 -49.24,7.22 -49.03,7.22 -49.03,7.26 -48.83,7.26 -48.83,7.47 -48.63,7.47 -48.63,7.72 -48.43,7.72 -48.43,7.65 -48.23,7.65 -48.23,7.54 -48.03,7.54 -48.03,7.42 -47.83,7.42 -47.83,7.46 -47.63,7.46 -47.63,7.59 -47.43,7.59 -47.43,7.72 -47.22,7.72 -47.22,7.43 -47.02,7.43 -47.02,7.65 -46.82,7.65 -46.82,7.73 -46.62,7.73 -46.62,7.6 -46.42,7.6 -46.42,7.4 -46.22,7.4 -46.22,7.28 -46.02,7.28 -46.02,7.43 -45.82,7.43 -45.82,7.36 -45.61,7.36 -45.61,7.24 -45.41,7.24 -45.41,7.04 -45.21,7.04 -45.21,7.17 -45.01,7.17 -45.01,6.76 -44.81,6.76 -44.81,6.66 -44.61,6.66 -44.61,6.52 -44.41,6.52 -44.41,6.22 -44.21,6.22 -44.21,5.5 -44.01,5.5 -44.01,4.46 -43.8,4.46 -43.8,2.99 -43.6,2.99 -43.6,-0.27 -43.4,-0.27 -43.4,-4.52 -43.2,-4.52 -43.2,-10.9 -43,-10.9 -43,-20.45 -42.8,-20.45 -42.8,-32.78 -42.6,-32.78 -42.6,-48.84 -42.4,-48.84 -42.4,-67.39 -42.19,-67.39 -42.19,-87.27 -41.99,-87.27 -41.99,-105.63 -41.79,-105.63 -41.79,-123.64 -41.59,-123.64 -41.59,-135.76 -41.39,-135.76 -41.39,-140.73 -41.19,-140.73 -41.19,-140.75 -40.99,-140.75 -40.99,-132.11 -40.79,-132.11 -40.79,-117.96 -40.59,-117.96 -40.59,-101.62 -40.38,-101.62 -40.38,-80.98 -40.18,-80.98 -40.18,-62.13 -39.98,-62.13 -39.98,-43.14 -39.78,-43.14 -39.78,-28.64 -39.58,-28.64 -39.58,-16.94 -39.38,-16.94 -39.38,-8.27 -39.18,-8.27 -39.18,-2.39 -38.98,-2.39 -38.98,1.94 -38.78,1.94 -38.78,4.63 -38.57,4.63 -38.57,5.8 -38.37,5.8 -38.37,7.2 -38.17,7.2 -38.17,7.39 -37.97,7.39 -37.97,7.8 -37.77,7.8 -37.77,7.76 -37.57,7.76 -37.57,7.76 -37.37,7.76 -37.37,7.34 -37.17,7.34 -37.17,7.34 -36.96,7.34 -36.96,6.5 -36.76,6.5 -36.76,5.82 -36.56,5.82 -36.56,4.71 -36.36,4.71 -36.36,2.95 -36.16,2.95 -36.16,1.39 -35.96,1.39 -35.96,-0.72 -35.76,-0.72 -35.76,-3.1 -35.56,-3.1 -35.56,-5.06 -35.36,-5.06 -35.36,-7.02 -35.15,-7.02 -35.15,-7.92 -34.95,-7.92 -34.95,-9.25 -34.75,-9.25 -34.75,-9.12 -34.55,-9.12 -34.55,-8.38 -34.35,-8.38 -34.35,-7.1 -34.15,-7.1 -34.15,-5.32 -33.95,-5.32 -33.95,-3.12 -33.75,-3.12 -33.75,-0.64 -33.54,-0.64 -33.54,1.62 -33.34,1.62 -33.34,3.48 -33.14,3.48 -33.14,5.25 -32.94,5.25 -32.94,6.45 -32.74,6.45 -32.74,7.41 -32.54,7.41 -32.54,7.9 -32.34,7.9 -32.34,8.52 -32.14,8.52 -32.14,9.09 -31.94,9.09 -31.94,8.89 -31.73,8.89 -31.73,9.03 -31.53,9.03 -31.53,8.96 -31.33,8.96 -31.33,9.23 -31.13,9.23 -31.13,9.26 -30.93,9.26 -30.93,9.18 -30.73,9.18 -30.73,9.26 -30.53,9.26 -30.53,9.15 -30.33,9.15 -30.33,9.31 -30.12,9.31 -30.12,9.27 -29.92,9.27 -29.92,9.45 -29.72,9.45 -29.72,9.23 -29.52,9.23 -29.52,9.62 -29.32,9.62 -29.32,9.56 -29.12,9.56 -29.12,9.53 -28.92,9.53 -28.92,9.5 -28.72,9.5 -28.72,9.52 -28.52,9.52 -28.52,9.44 -28.31,9.44 -28.31,9.77 -28.11,9.77 -28.11,9.49 -27.91,9.49 -27.91,9.63 -27.71,9.63 -27.71,9.68 -27.51,9.68 -27.51,9.51 -27.31,9.51 -27.31,9.64 -27.11,9.64 -27.11,9.84 -26.91,9.84 -26.91,9.63 -26.7,9.63 -26.7,9.57 -26.5,9.57 -26.5,9.81 -26.3,9.81 -26.3,9.62 -26.1,9.62 -26.1,9.65 -25.9,9.65 -25.9,9.91 -25.7,9.91 -25.7,9.75 -25.5,9.75 -25.5,9.74 -25.3,9.74 -25.3,9.78 -25.1,9.78 -25.1,9.66 -24.89,9.66 -24.89,9.79 -24.69,9.79 -24.69,9.6 -24.49,9.6 -24.49,9.87 -24.29,9.87 -24.29,9.84 -24.09,9.84 -24.09,9.89 -23.89,9.89 -23.89,9.8 -23.69,9.8 -23.69,9.97 -23.49,9.97 -23.49,9.76 -23.29,9.76 -23.29,9.8 -23.08,9.8 -23.08,9.88 -22.88,9.88 -22.88,9.72 -22.68,9.72 -22.68,9.58 -22.48,9.58 -22.48,9.84 -22.28,9.84 -22.28,9.86 -22.08,9.86 -22.08,9.7 -21.88,9.7 -21.88,9.94 -21.68,9.94 -21.68,10.05 -21.47,10.05 -21.47,9.96 -21.27,9.96 -21.27,9.89 -21.07,9.89 -21.07,9.92 -20.87,9.92 -20.87,9.77 -20.67,9.77 -20.67,9.95 -20.47,9.95 -20.47,9.94 -20.27,9.94 -20.27,10.15 -20.07,10.15 -20.07,10.13 -19.87,10.13 -19.87,10.1 -19.66,10.1 -19.66,10.14 -19.46,10.14 -19.46,10.11 -19.26,10.11 -19.26,10.01 -19.06,10.01 -19.06,10.2 -18.86,10.2 -18.86,10.22 -18.66,10.22 -18.66,10.23 -18.46,10.23 -18.46,10.41 -18.26,10.41 -18.26,10.14 -18.05,10.14 -18.05,10.09 -17.85,10.09 -17.85,10.15 -17.65,10.15 -17.65,10.29 -17.45,10.29 -17.45,10.2 -17.25,10.2 -17.25,10.07 -17.05,10.07 -17.05,10.2 -16.85,10.2 -16.85,10.09 -16.65,10.09 -16.65,10.14 -16.45,10.14 -16.45,10.17 -16.24,10.17 -16.24,10.19 -16.04,10.19 -16.04,10.09 -15.84,10.09 -15.84,10.3 -15.64,10.3 -15.64,10.19 -15.44,10.19 -15.44,10.14 -15.24,10.14 -15.24,10.13 -15.04,10.13 -15.04,10.18 -14.84,10.18 -14.84,10.17 -14.63,10.17 -14.63,10.44 -14.43,10.44 -14.43,10.42 -14.23,10.42 -14.23,10.34 -14.03,10.34 -14.03,10.44 -13.83,10.44 -13.83,10.37 -13.63,10.37 -13.63,10.58 -13.43,10.58 -13.43,10.37 -13.23,10.37 -13.23,10.39 -13.03,10.39 -13.03,10.29 -12.82,10.29 -12.82,10.4 -12.62,10.4 -12.62,10.43 -12.42,10.43 -12.42,10.41 -12.22,10.41 -12.22,10.45 -12.02,10.45 -12.02,10.56 -11.82,10.56 -11.82,10.51 -11.62,10.51 -11.62,10.35 -11.42,10.35 -11.42,10.43 -11.22,10.43 -11.22,10.33 -11.01,10.33 -11.01,10.44 -10.81,10.44 -10.81,10.49 -10.61,10.49 -10.61,10.47 -10.41,10.47 -10.41,10.51 -10.21,10.51 -10.21,10.4 -10.01,10.4 -10.01,10.56 -9.81,10.56 -9.81,10.49 -9.61,10.49 -9.61,10.53 -9.4,10.53 -9.4,10.48 -9.2,10.48 -9.2,10.65 -9,10.65 -9,10.59 -8.8,10.59 -8.8,10.42 -8.6,10.42 -8.6,10.58 -8.4,10.58 -8.4,10.69 -8.2,10.69 -8.2,10.66 -8,10.66 -8,10.52 -7.8,10.52 -7.8,10.54 -7.59,10.54 -7.59,10.47 -7.39,10.47 -7.39,10.43 -7.19,10.43 -7.19,10.26 -6.99,10.26 -6.99,10.35 -6.79,10.35 -6.79,10.33 -6.59,10.33 -6.59,10.47 -6.39,10.47 -6.39,10.45 -6.19,10.45 -6.19,10.46 -5.98,10.46 -5.98,10.42 -5.78,10.42 -5.78,10.45 -5.58,10.45 -5.58,10.46 -5.38,10.46 -5.38,10.43 -5.18,10.43 -5.18,10.72 -4.98,10.72 -4.98,10.72 -4.78,10.72 -4.78,10.64 -4.58,10.64 -4.58,10.68 -4.38,10.68 -4.38,10.8 -4.17,10.8 -4.17,10.74 -3.97,10.74 -3.97,10.86 -3.77,10.86 -3.77,10.79 -3.57,10.79 -3.57,10.71 -3.37,10.71 -3.37,10.79 -3.17,10.79 -3.17,10.9 -2.97,10.9 -2.97,10.83 -2.77,10.83 -2.77,10.86 -2.56,10.86 -2.56,10.84 -2.36,10.84 -2.36,10.83 -2.16,10.83 -2.16,11.1 -1.96,11.1 -1.96,10.95 -1.76,10.95 -1.76,11.04 -1.56,11.04 -1.56,11.05 -1.36,11.05 -1.36,10.94 -1.16,10.94 -1.16,11.02 -0.96,11.02 -0.96,10.9 -0.75,10.9 -0.75,10.93 -0.55,10.93 -0.55,11.07 -0.35,11.07 -0.35,10.88 -0.15,10.88 -0.15,11.08 0.05,11.08 0.05,10.87 0.25,10.87 0.25,11.1 0.45,11.1 0.45,11.07 0.65,11.07 0.65,11.06 0.85,11.06 0.85,10.96 1.06,10.96 1.06,11.03 1.26,11.03 1.26,10.85 1.46,10.85 1.46,10.93 1.66,10.93 1.66,10.9 1.86,10.9 1.86,10.75 2.06,10.75 2.06,10.86 2.26,10.86 2.26,10.88 2.46,10.88 2.46,10.63 2.67,10.63 2.67,10.73 2.87,10.73 2.87,10.81 3.07,10.81 3.07,10.68 3.27,10.68 3.27,10.85 3.47,10.85 3.47,10.85 3.67,10.85 3.67,10.87 3.87,10.87 3.87,10.96 4.07,10.96 4.07,11.05 4.27,11.05 4.27,11.04 4.48,11.04 4.48,10.98 4.68,10.98 4.68,11.03 4.88,11.03 4.88,11.3 5.08,11.3 5.08,11.08 5.28,11.08 5.28,11.22 5.48,11.22 5.48,11.22 5.68,11.22 5.68,11.2 5.88,11.2 5.88,11.13 6.09,11.13 6.09,11.2 6.29,11.2 6.29,11.22 6.49,11.22 6.49,11.38 6.69,11.38 6.69,11.27 6.89,11.27 6.89,11.32 7.09,11.32 7.09,11.35 7.29,11.35 7.29,11.28 7.49,11.28 7.49,11.32 7.69,11.32 7.69,11.17 7.9,11.17 7.9,11.5 8.1,11.5 8.1,11.34 8.3,11.34 8.3,11.34 8.5,11.34 8.5,11.14 8.7,11.14 8.7,11.11 8.9,11.11 8.9,11.16 9.1,11.16 9.1,11.28 9.3,11.28 9.3,11.27 9.51,11.27 9.51,10.88 9.71,10.88 9.71,10.81 9.91,10.81 9.91,10.44 10.11,10.44 10.11,9.96 10.31,9.96 10.31,9.27 10.51,9.27 10.51,8.57 10.71,8.57 10.71,7.06 10.91,7.06 10.91,5.06 11.11,5.06 11.11,3.02 11.32,3.02 11.32,0.29 11.52,0.29 11.52,-3.03 11.72,-3.03 11.72,-6.76 11.92,-6.76 11.92,-10.38 12.12,-10.38 12.12,-14.63 12.32,-14.63 12.32,-18.87 12.52,-18.87 12.52,-22.12 12.72,-22.12 12.72,-24.55 12.93,-24.55 12.93,-26.75 13.13,-26.75 13.13,-27.18 13.33,-27.18 13.33,-26.05 13.53,-26.05 13.53,-24.88 13.73,-24.88 13.73,-21.6 13.93,-21.6 13.93,-17.61 14.13,-17.61 14.13,-14.82 14.33,-14.82 14.33,-10.6 14.53,-10.6 14.53,-6.86 14.74,-6.86 14.74,-2.57 14.94,-2.57 14.94,0.36 15.14,0.36 15.14,3.09 15.34,3.09 15.34,5.4 15.54,5.4 15.54,7.29 15.74,7.29 15.74,8.67 15.94,8.67 15.94,9.6 16.14,9.6 16.14,10.34 16.34,10.34 16.34,10.87 16.55,10.87 16.55,11.09 16.75,11.09 16.75,11.26 16.95,11.26 16.95,11.38 17.15,11.38 17.15,11.6 17.35,11.6 17.35,11.49 17.55,11.49 17.55,11.69 17.75,11.69 17.75,11.77 17.95,11.77 17.95,11.7 18.16,11.7 18.16,11.62 18.36,11.62 18.36,11.63 18.56,11.63 18.56,11.55 18.76,11.55 18.76,11.72 18.96,11.72 18.96,11.76 19.16,11.76 19.16,11.79 19.36,11.79 19.36,11.65 19.56,11.65 19.56,11.8 19.76,11.8 19.76,11.65 19.97,11.65 19.97,11.72 20.17,11.72 20.17,11.61 20.37,11.61 20.37,11.84 20.57,11.84 20.57,11.8 20.77,11.8 20.77,11.82 20.97,11.82 20.97,11.88 21.17,11.88 21.17,11.79 21.37,11.79 21.37,11.79 21.58,11.79 21.58,11.83 21.78,11.83 21.78,11.77 21.98,11.77 21.98,11.84 22.18,11.84 22.18,11.7 22.38,11.7 22.38,11.8 22.58,11.8 22.58,11.6 22.78,11.6 22.78,11.63 22.98,11.63 22.98,11.57 23.18,11.57 23.18,11.52 23.39,11.52 23.39,11.48 23.59,11.48 23.59,11.21 23.79,11.21 23.79,11.09 23.99,11.09 23.99,11.08 24.19,11.08 24.19,10.6 24.39,10.6 24.39,10.45 24.59,10.45 24.59,9.92 24.79,9.92 24.79,9.73 25,9.73 25,9.07 25.2,9.07 25.2,8.8 25.4,8.8 25.4,8.21 25.6,8.21 25.6,7.88 25.8,7.88 25.8,7.45 26,7.45 26,7.17 26.2,7.17 26.2,7.17 26.4,7.17 26.4,6.96 26.6,6.96 26.6,7.27 26.81,7.27 26.81,7.58 27.01,7.58 27.01,7.89 27.21,7.89 27.21,8.27 27.41,8.27 27.41,8.76 27.61,8.76 27.61,9.39 27.81,9.39 27.81,9.77 28.01,9.77 28.01,10.3 28.21,10.3 28.21,10.68 28.41,10.68 28.41,10.98 28.62,10.98 28.62,11.24 28.82,11.24 28.82,11.46 29.02,11.46 29.02,11.67 29.22,11.67 29.22,11.89 29.42,11.89 29.42,11.95 29.62,11.95 29.62,11.88 29.82,11.88 29.82,12.09 30.02,12.09 30.02,12.17 30.23,12.17 30.23,12.13 30.43,12.13 30.43,12.16 30.63,12.16 30.63,12.03 30.83,12.03 30.83,12.24 31.03,12.24 31.03,12.11 31.23,12.11 31.23,12.2 31.43,12.2 31.43,12.15 31.63,12.15 31.63,12.16 31.83,12.16 31.83,12.22 32.04,12.22 32.04,12.04 32.24,12.04 32.24,12.17 32.44,12.17 32.44,12.28 32.64,12.28 32.64,12.18 32.84,12.18 32.84,12.11 33.04,12.11 33.04,12.04 33.24,12.04 33.24,12.16 33.44,12.16 33.44,12.24 33.65,12.24 33.65,12.11 33.85,12.11 33.85,12.19 34.05,12.19 34.05,12.09 34.25,12.09 34.25,12.28 34.45,12.28 34.45,12.23 34.65,12.23 34.65,12.22 34.85,12.22 34.85,12.1 35.05,12.1 35.05,12.21 35.25,12.21 35.25,12.17 35.46,12.17 35.46,12.17 35.66,12.17 35.66,12.19 35.86,12.19 35.86,12.27 36.06,12.27 36.06,12.27 36.26,12.27 36.26,12.23 36.46,12.23 36.46,12.22 36.66,12.22 36.66,12.33 36.86,12.33 36.86,12.25 37.07,12.25 37.07,12.32 37.27,12.32 37.27,12.29 37.47,12.29 37.47,12.4 37.67,12.4 37.67,12.27 37.87,12.27 37.87,12.22 38.07,12.22 38.07,12.35 38.27,12.35 38.27,12.32 38.47,12.32 38.47,12.39 38.67,12.39 38.67,12.27 38.88,12.27 38.88,12.38 39.08,12.38 39.08,12.3 39.28,12.3 39.28,12.26 39.48,12.26 39.48,12.29 39.68,12.29 39.68,12.44 39.88,12.44 39.88,12.33 40.08,12.33 40.08,12.36 40.28,12.36 40.28,12.4 40.49,12.4 40.49,12.45 40.69,12.45 40.69,12.43 40.89,12.43 40.89,12.43 41.09,12.43 41.09,12.29 41.29,12.29 41.29,12.35 41.49,12.35 41.49,12.39 41.69,12.39 41.69,12.48 41.89,12.48 41.89,12.43 42.09,12.43 42.09,12.41 42.3,12.41 42.3,12.39 42.5,12.39 42.5,12.49 42.7,12.49 42.7,12.38 42.9,12.38 42.9,12.53 43.1,12.53 43.1,12.44 43.3,12.44 43.3,12.44 43.5,12.44 43.5,12.44 43.7,12.44 43.7,12.47 43.9,12.47 43.9,12.45 44.11,12.45 44.11,12.55 44.31,12.55 44.31,12.45 44.51,12.45 44.51,12.47 44.71,12.47 44.71,12.62 44.91,12.62 44.91,12.48 45.11,12.48 45.11,12.48 45.31,12.48 45.31,12.45 45.51,12.45 45.51,12.47 45.72,12.47 45.72,12.5 45.92,12.5 45.92,12.5 46.12,12.5 46.12,12.39 46.32,12.39 46.32,12.55 46.52,12.55 46.52,12.4 46.72,12.4 46.72,12.46 46.92,12.46 46.92,12.54 47.12,12.54 47.12,12.49 47.32,12.49 47.32,12.46 47.53,12.46 47.53,12.47 47.73,12.47 47.73,12.61 47.93,12.61 47.93,12.51 48.13,12.51 48.13,12.51 48.33,12.51 48.33,12.56 48.53,12.56 48.53,12.55 48.73,12.55 48.73,12.61 48.93,12.61 48.93,12.59 49.14,12.59 49.14,12.73 49.34,12.73 49.34,12.31 49.54,12.31 49.54,12.61 49.74,12.61 49.74,12.49 49.94,12.49 49.94,12.5 50.14,12.5 50.14,12.59 50.34,12.59 50.34,12.53 50.54,12.53 50.54,12.64 50.74,12.64 50.74,12.66 50.95,12.66 50.95,12.68 51.15,12.68 51.15,12.61 51.35,12.61 51.35,12.66 51.55,12.66 51.55,12.62 51.75,12.62 51.75,12.59 51.95,12.59 51.95,12.75 52.15,12.75 52.15,12.67 52.35,12.67 52.35,12.61 52.56,12.61 52.56,12.67 52.76,12.67 52.76,12.66 52.96,12.66 52.96,12.72 53.16,12.72 53.16,12.67 53.36,12.67 53.36,12.73 53.56,12.73 53.56,12.58 53.76,12.58 53.76,12.74 53.96,12.74 53.96,12.64 54.16,12.64 54.16,12.82 54.37,12.82 54.37,12.84 54.57,12.84 54.57,12.69 54.77,12.69 54.77,12.71 54.97,12.71 54.97,12.83 55.17,12.83 55.17,12.74 55.37,12.74 55.37,12.74 55.57,12.74 55.57,12.71 55.77,12.71 55.77,12.88 55.97,12.88 55.97,12.79 56.18,12.79 56.18,12.79 56.38,12.79 56.38,12.68 56.58,12.68 56.58,12.84 56.78,12.84 56.78,12.92 56.98,12.92 56.98,12.73 57.18,12.73 57.18,12.77 57.38,12.77 57.38,12.75 57.58,12.75 57.58,12.72 57.79,12.72 57.79,12.86 57.99,12.86 57.99,12.75 58.19,12.75 58.19,12.8 58.39,12.8 58.39,12.71 58.59,12.71 58.59,12.79 58.79,12.79 58.79,12.84 58.99,12.84 58.99,12.76 59.19,12.76 59.19,12.78 59.39,12.78 59.39,12.87 59.6,12.87 59.6,12.74 59.8,12.74 59.8,12.74 60,12.74 60,12.85 60.2,12.85 60.2,12.88 60.4,12.88 60.4,12.8 60.6,12.8 60.6,12.92 60.8,12.92 60.8,12.78 61,12.78 61,12.86 61.21,12.86 61.21,12.88 61.41,12.88 61.41,12.9 61.61,12.9 61.61,12.75 61.81,12.75 61.81,12.79 62.01,12.79 62.01,12.93 62.21,12.93 62.21,12.81 62.41,12.81 62.41,12.83 62.61,12.83 62.61,12.9 62.81,12.9 62.81,12.89 63.02,12.89 63.02,12.86 63.22,12.86 63.22,12.88 63.42,12.88 63.42,12.83 63.62,12.83 63.62,12.94 63.82,12.94 63.82,12.84 64.02,12.84 64.02,12.89 64.22,12.89 64.22,12.9 64.42,12.9 64.42,12.88 64.63,12.88 64.63,12.82 64.83,12.82 64.83,12.88 65.03,12.88 65.03,13.02 65.23,13.02 65.23,12.87 65.43,12.87 65.43,12.83 65.63,12.83 65.63,12.88 65.83,12.88 65.83,12.89 66.03,12.89 66.03,12.9 66.23,12.9 66.23,12.91 66.44,12.91 66.44,12.94 66.64,12.94 66.64,12.93 66.84,12.93 66.84,12.91 67.04,12.91 67.04,12.94 67.24,12.94 67.24,12.89 67.44,12.89 67.44,12.98 67.64,12.98 67.64,13.05 67.84,13.05 67.84,13.06 68.04,13.06 68.04,12.96 68.25,12.96 68.25,12.95 68.45,12.95 68.45,12.92 68.65,12.92 68.65,12.91 68.85,12.91 68.85,12.97 69.05,12.97 69.05,12.87 69.25,12.87 69.25,13.07 69.45,13.07 69.45,13.09 69.65,13.09 69.65,12.99 69.86,12.99 69.86,13.03 70.06,13.03 70.06,12.97 70.26,12.97 70.26,12.99 70.46,12.99 70.46,13.09 70.66,13.09 70.66,13.11 70.86,13.11 70.86,12.94 71.06,12.94 71.06,12.95 71.26,12.95 71.26,13.09 71.46,13.09 71.46,12.99 71.67,12.99 71.67,13.06 71.87,13.06 71.87,13.01 72.07,13.01 72.07,12.95 72.27,12.95 72.27,13.02 72.47,13.02 72.47,13.05 72.67,13.05 72.67,13.05 72.87,13.05 72.87,13.06 73.07,13.06 73.07,12.98 73.28,12.98 73.28,13.1 73.48,13.1 73.48,13.06 73.68,13.06 73.68,13.07 73.88,13.07 73.88,13.17 74.08,13.17 74.08,13.15 74.28,13.15 74.28,13.09 74.48,13.09 74.48,13.09 74.68,13.09 74.68,13.12 74.88,13.12 74.88,13.14 75.09,13.14 75.09,13.01 75.29,13.01 75.29,13.09 75.49,13.09 75.49,13.08 75.69,13.08 75.69,13.15 75.89,13.15 75.89,13.02 76.09,13.02 76.09,13.06 76.29,13.06 76.29,13.11 76.49,13.11 76.49,13.15 76.7,13.15 76.7,12.99 76.9,12.99 76.9,13.02 77.1,13.02 77.1,13.22 77.3,13.22 77.3,13.16 77.5,13.16 77.5,13.2 77.7,13.2 77.7,13.04 77.9,13.04 77.9,13.17 78.1,13.17 78.1,13.12 78.3,13.12 78.3,13.17 78.51,13.17 78.51,13.2 78.71,13.2 78.71,13.09 78.91,13.09 78.91,13.27 79.11,13.27 79.11,13.17 79.31,13.17 79.31,13.15 79.51,13.15 79.51,13.1 79.71,13.1 79.71,13.14 79.91,13.14 79.91,13.19 80.12,13.19 80.12,13.25 80.32,13.25 80.32,13.17 80.52,13.17 80.52,13.11 80.72,13.11 80.72,13.23 80.92,13.23 80.92,13.15 81.12,13.15 81.12,13.17 81.32,13.17 81.32,13.16 81.52,13.16 81.52,13.21 81.72,13.21 81.72,13.23 81.93,13.23 81.93,13.21 82.13,13.21 82.13,13.21 82.33,13.21 82.33,13.22 82.53,13.22 82.53,13.16 82.73,13.16 82.73,13.25 82.93,13.25 82.93,13.2 83.13,13.2 83.13,13.19 83.33,13.19 83.33,13.18 83.53,13.18 83.53,13.23 83.74,13.23 83.74,13.17 83.94,13.17 83.94,13.24 84.14,13.24 84.14,13.15 84.34,13.15 84.34,13.22 84.54,13.22 84.54,13.27 84.74,13.27 84.74,13.3 84.94,13.3 84.94,13.33 85.14,13.33 85.14,13.16 85.35,13.16 85.35,13.25 85.55,13.25 85.55,13.33 85.75,13.33 85.75,13.26 85.95,13.26 85.95,13.25 86.15,13.25 86.15,13.29 86.35,13.29 86.35,13.27 86.55,13.27 86.55,13.23 86.75,13.23 86.75,13.34 86.95,13.34 86.95,13.26 87.16,13.26 87.16,13.3 87.36,13.3 87.36,13.22 87.56,13.22 87.56,13.19 87.76,13.19 87.76,13.25 87.96,13.25 87.96,13.3 88.16,13.3 88.16,13.26 88.36,13.26 88.36,13.24 88.56,13.24 88.56,13.29 88.77,13.29 88.77,13.26 88.97,13.26 88.97,13.28 89.17,13.28 89.17,13.41 89.37,13.41 89.37,13.29 89.57,13.29 89.57,13.31 89.77,13.31 89.77,13.41 89.97,13.41 89.97,13.31 90.17,13.31 90.17,13.31 90.37,13.31 90.37,13.27 90.58,13.27 90.58,13.35 90.78,13.35 90.78,13.28 90.98,13.28 90.98,13.39 91.18,13.39 91.18,13.28 91.38,13.28 91.38,13.37 91.58,13.37 91.58,13.31 91.78,13.31 91.78,13.31 91.98,13.31 91.98,13.26 92.19,13.26 92.19,13.32 92.39,13.32 92.39,13.33 92.59,13.33 92.59,13.4 92.79,13.4 92.79,13.4 92.99,13.4 92.99,13.31 93.19,13.31 93.19,13.35 93.39,13.35 93.39,13.32 93.59,13.32 93.59,13.37 93.79,13.37 93.79,13.37 94,13.37 94,13.42 94.2,13.42 94.2,13.37 94.4,13.37 94.4,13.26 94.6,13.26 94.6,13.29 94.8,13.29 94.8,13.4 95,13.4 95,13.33 95.2,13.33 95.2,13.41 95.4,13.41 95.4,13.37 95.6,13.37 95.6,13.39 95.81,13.39 95.81,13.48 96.01,13.48 96.01,13.36 96.21,13.36 96.21,13.32 96.41,13.32 96.41,13.36 96.61,13.36 96.61,13.39 96.81,13.39 96.81,13.31 97.01,13.31 97.01,13.44 97.21,13.44 97.21,13.32 97.42,13.32 97.42,13.36 97.62,13.36 97.62,13.45 97.82,13.45 97.82,13.39 98.02,13.39 98.02,13.39 98.22,13.39 98.22,13.45 98.42,13.45 98.42,13.36 98.62,13.36 98.62,13.41 98.82,13.41 98.82,13.45 99.02,13.45 99.02,13.47 99.23,13.47 99.23,13.44 99.43,13.44 99.43,13.45 99.63,13.45 99.63,13.49 99.83,13.49 99.83,13.45 100.03,13.45 100.03,13.49 100.23,13.49 100.23,13.44 100.43,13.44 100.43,13.5 100.63,13.5 100.63,13.46 100.84,13.46 100.84,13.51 101.04,13.51 101.04,13.45 101.24,13.45 101.24,13.42 101.44,13.42 101.44,13.48 101.64,13.48 101.64,13.48 101.84,13.48 101.84,13.55 102.04,13.55 102.04,13.44 102.24,13.44 102.24,13.55 102.44,13.55 102.44,13.4 102.65,13.4 102.65,13.55 102.85,13.55 102.85,13.56 103.05,13.56 103.05,13.44 103.25,13.44 103.25,13.52 103.45,13.52 103.45,13.52 103.65,13.52 103.65,13.48 103.85,13.48 103.85,13.52 104.05,13.52 104.05,13.5 104.26,13.5 104.26,13.52 104.46,13.52 104.46,13.56 104.66,13.56 104.66,13.54 104.86,13.54 104.86,13.45 105.06,13.45 105.06,13.61 105.26,13.61 105.26,13.51 105.46,13.51 105.46,13.54 105.66,13.54 105.66,13.55 105.86,13.55 105.86,13.5 106.07,13.5 106.07,13.52 106.27,13.52 106.27,13.57 106.47,13.57 106.47,13.49 106.67,13.49 106.67,13.51 106.87,13.51 106.87,13.52 107.07,13.52 107.07,13.5 107.27,13.5 107.27,13.57 107.47,13.57 107.47,13.57 107.67,13.57 107.67,13.62 107.88,13.62 107.88,13.55 108.08,13.55 108.08,13.54 108.28,13.54 108.28,13.6 108.48,13.6 108.48,13.59 108.68,13.59 108.68,13.6 108.88,13.6 108.88,13.57 109.08,13.57 109.08,13.55 109.28,13.55 109.28,13.54 109.49,13.54 109.49,13.5 109.69,13.5 109.69,13.6 109.89,13.6 109.89,13.57 110.09,13.57 110.09,13.64 110.29,13.64 110.29,13.58 110.49,13.58 110.49,13.59 110.69,13.59 110.69,13.62 110.89,13.62 110.89,13.55 111.09,13.55 111.09,13.64 111.3,13.64 111.3,13.53 111.5,13.53 111.5,13.55 111.7,13.55 111.7,13.59 111.9,13.59 111.9,13.65 112.1,13.65 112.1,13.64 112.3,13.64 112.3,13.59 112.5,13.59 112.5,13.67 112.7,13.67 112.7,13.6 112.91,13.6 112.91,13.61 113.11,13.61 113.11,13.61 113.31,13.61 113.31,13.6 113.51,13.6 113.51,13.67 113.71,13.67 113.71,13.63 " class="primitive"/>
            </g>
          </g>
        </g>
        <g stroke-width="0.3" fill="#000000" fill-opacity="0.000" class="geometry" id="img-e206e699-235">
          <g class="color_RGB{N0f8}(0.718,0.0,0.008)" stroke-dasharray="none" stroke="#B70002" id="img-e206e699-236">
            <g transform="translate(137.58,55.54)" id="img-e206e699-237">
              <path fill="none" d="M-113.81,4.33 L-113.61,4.33 -113.61,4.33 -113.41,4.33 -113.41,4.32 -113.21,4.32 -113.21,4.32 -113.01,4.32 -113.01,4.32 -112.8,4.32 -112.8,4.31 -112.6,4.31 -112.6,4.3 -112.4,4.3 -112.4,4.27 -112.2,4.27 -112.2,4.23 -112,4.23 -112,4.16 -111.8,4.16 -111.8,3.99 -111.6,3.99 -111.6,3.71 -111.4,3.71 -111.4,3.16 -111.2,3.16 -111.2,2.1 -110.99,2.1 -110.99,0.27 -110.79,0.27 -110.79,-2.57 -110.59,-2.57 -110.59,-5.45 -110.39,-5.45 -110.39,-8.01 -110.19,-8.01 -110.19,-9.1 -109.99,-9.1 -109.99,-8.13 -109.79,-8.13 -109.79,-5.8 -109.59,-5.8 -109.59,-3.04 -109.38,-3.04 -109.38,-1.23 -109.18,-1.23 -109.18,0.23 -108.98,0.23 -108.98,0.82 -108.78,0.82 -108.78,0.92 -108.58,0.92 -108.58,0.96 -108.38,0.96 -108.38,0.85 -108.18,0.85 -108.18,0.93 -107.98,0.93 -107.98,0.48 -107.78,0.48 -107.78,0.65 -107.57,0.65 -107.57,-0.17 -107.37,-0.17 -107.37,-0.85 -107.17,-0.85 -107.17,-1.6 -106.97,-1.6 -106.97,-2.18 -106.77,-2.18 -106.77,-3.17 -106.57,-3.17 -106.57,-3.9 -106.37,-3.9 -106.37,-4.13 -106.17,-4.13 -106.17,-4.32 -105.97,-4.32 -105.97,-4.83 -105.76,-4.83 -105.76,-3.74 -105.56,-3.74 -105.56,-4.14 -105.36,-4.14 -105.36,-4.57 -105.16,-4.57 -105.16,-4.01 -104.96,-4.01 -104.96,-1.73 -104.76,-1.73 -104.76,2.14 -104.56,2.14 -104.56,1.05 -104.36,1.05 -104.36,0.5 -104.15,0.5 -104.15,1.63 -103.95,1.63 -103.95,1.68 -103.75,1.68 -103.75,2.47 -103.55,2.47 -103.55,3.45 -103.35,3.45 -103.35,3.7 -103.15,3.7 -103.15,3.77 -102.95,3.77 -102.95,3.73 -102.75,3.73 -102.75,3.24 -102.55,3.24 -102.55,3.16 -102.34,3.16 -102.34,2.93 -102.14,2.93 -102.14,2.79 -101.94,2.79 -101.94,2.59 -101.74,2.59 -101.74,1.78 -101.54,1.78 -101.54,0.91 -101.34,0.91 -101.34,-0.25 -101.14,-0.25 -101.14,-1.45 -100.94,-1.45 -100.94,-1.71 -100.73,-1.71 -100.73,-1.84 -100.53,-1.84 -100.53,-1.92 -100.33,-1.92 -100.33,-1.65 -100.13,-1.65 -100.13,-1.3 -99.93,-1.3 -99.93,-1.42 -99.73,-1.42 -99.73,-1.55 -99.53,-1.55 -99.53,-1.44 -99.33,-1.44 -99.33,-1.42 -99.13,-1.42 -99.13,-1.47 -98.92,-1.47 -98.92,-1.81 -98.72,-1.81 -98.72,-1.76 -98.52,-1.76 -98.52,-2.01 -98.32,-2.01 -98.32,-2.27 -98.12,-2.27 -98.12,-2.08 -97.92,-2.08 -97.92,-2.24 -97.72,-2.24 -97.72,-2.56 -97.52,-2.56 -97.52,-2.52 -97.31,-2.52 -97.31,-2.44 -97.11,-2.44 -97.11,-2.72 -96.91,-2.72 -96.91,-2.89 -96.71,-2.89 -96.71,-3.18 -96.51,-3.18 -96.51,-3.21 -96.31,-3.21 -96.31,-3.77 -96.11,-3.77 -96.11,-3.56 -95.91,-3.56 -95.91,-3.89 -95.71,-3.89 -95.71,-4.3 -95.5,-4.3 -95.5,-4.5 -95.3,-4.5 -95.3,-5.03 -95.1,-5.03 -95.1,-5.48 -94.9,-5.48 -94.9,-5.55 -94.7,-5.55 -94.7,-5.58 -94.5,-5.58 -94.5,-5.67 -94.3,-5.67 -94.3,-6.21 -94.1,-6.21 -94.1,-6.21 -93.89,-6.21 -93.89,-6.46 -93.69,-6.46 -93.69,-6.16 -93.49,-6.16 -93.49,-6.67 -93.29,-6.67 -93.29,-6.9 -93.09,-6.9 -93.09,-6.94 -92.89,-6.94 -92.89,-7.14 -92.69,-7.14 -92.69,-7.67 -92.49,-7.67 -92.49,-7.78 -92.29,-7.78 -92.29,-8.11 -92.08,-8.11 -92.08,-8.5 -91.88,-8.5 -91.88,-8.94 -91.68,-8.94 -91.68,-8.49 -91.48,-8.49 -91.48,-8.97 -91.28,-8.97 -91.28,-8.71 -91.08,-8.71 -91.08,-9.89 -90.88,-9.89 -90.88,-9.72 -90.68,-9.72 -90.68,-9.51 -90.48,-9.51 -90.48,-10.04 -90.27,-10.04 -90.27,-10.26 -90.07,-10.26 -90.07,-12 -89.87,-12 -89.87,-12.32 -89.67,-12.32 -89.67,-13.07 -89.47,-13.07 -89.47,-11.04 -89.27,-11.04 -89.27,-9.18 -89.07,-9.18 -89.07,-8.15 -88.87,-8.15 -88.87,-8.24 -88.66,-8.24 -88.66,-7.47 -88.46,-7.47 -88.46,-7.58 -88.26,-7.58 -88.26,-7.37 -88.06,-7.37 -88.06,-7.63 -87.86,-7.63 -87.86,-7.21 -87.66,-7.21 -87.66,-7.36 -87.46,-7.36 -87.46,-7.21 -87.26,-7.21 -87.26,-6.73 -87.06,-6.73 -87.06,-7.03 -86.85,-7.03 -86.85,-7.03 -86.65,-7.03 -86.65,-7.36 -86.45,-7.36 -86.45,-7.15 -86.25,-7.15 -86.25,-7.69 -86.05,-7.69 -86.05,-7.51 -85.85,-7.51 -85.85,-7.56 -85.65,-7.56 -85.65,-7.8 -85.45,-7.8 -85.45,-8.93 -85.24,-8.93 -85.24,-8.17 -85.04,-8.17 -85.04,-8.79 -84.84,-8.79 -84.84,-8.64 -84.64,-8.64 -84.64,-9.15 -84.44,-9.15 -84.44,-8.51 -84.24,-8.51 -84.24,-8.93 -84.04,-8.93 -84.04,-8.58 -83.84,-8.58 -83.84,-8.35 -83.64,-8.35 -83.64,-8.68 -83.43,-8.68 -83.43,-8.26 -83.23,-8.26 -83.23,-7.88 -83.03,-7.88 -83.03,-8.43 -82.83,-8.43 -82.83,-8.2 -82.63,-8.2 -82.63,-8.26 -82.43,-8.26 -82.43,-8.13 -82.23,-8.13 -82.23,-7.62 -82.03,-7.62 -82.03,-9.06 -81.82,-9.06 -81.82,-8.12 -81.62,-8.12 -81.62,-8.83 -81.42,-8.83 -81.42,-8.93 -81.22,-8.93 -81.22,-8.63 -81.02,-8.63 -81.02,-6.15 -80.82,-6.15 -80.82,-11.21 -80.62,-11.21 -80.62,-10.71 -80.42,-10.71 -80.42,-9.5 -80.22,-9.5 -80.22,-8.1 -80.01,-8.1 -80.01,-7.57 -79.81,-7.57 -79.81,-9.54 -79.61,-9.54 -79.61,-10.51 -79.41,-10.51 -79.41,-10.86 -79.21,-10.86 -79.21,-10.27 -79.01,-10.27 -79.01,-10.03 -78.81,-10.03 -78.81,-8.5 -78.61,-8.5 -78.61,-7.01 -78.41,-7.01 -78.41,-6.87 -78.2,-6.87 -78.2,-6.48 -78,-6.48 -78,-5.81 -77.8,-5.81 -77.8,-5.51 -77.6,-5.51 -77.6,-5.05 -77.4,-5.05 -77.4,-5 -77.2,-5 -77.2,-5.29 -77,-5.29 -77,-5.32 -76.8,-5.32 -76.8,-4.84 -76.59,-4.84 -76.59,-4.67 -76.39,-4.67 -76.39,-4.79 -76.19,-4.79 -76.19,-4.51 -75.99,-4.51 -75.99,-4.36 -75.79,-4.36 -75.79,-4.23 -75.59,-4.23 -75.59,-4.31 -75.39,-4.31 -75.39,-4.07 -75.19,-4.07 -75.19,-3.8 -74.99,-3.8 -74.99,-3.94 -74.78,-3.94 -74.78,-3.5 -74.58,-3.5 -74.58,-3.47 -74.38,-3.47 -74.38,-3.5 -74.18,-3.5 -74.18,-3.58 -73.98,-3.58 -73.98,-3.45 -73.78,-3.45 -73.78,-3.34 -73.58,-3.34 -73.58,-3.59 -73.38,-3.59 -73.38,-3.59 -73.17,-3.59 -73.17,-3.49 -72.97,-3.49 -72.97,-3.52 -72.77,-3.52 -72.77,-3.2 -72.57,-3.2 -72.57,-3.77 -72.37,-3.77 -72.37,-3.57 -72.17,-3.57 -72.17,-3.61 -71.97,-3.61 -71.97,-3.45 -71.77,-3.45 -71.77,-3.41 -71.57,-3.41 -71.57,-3.69 -71.36,-3.69 -71.36,-3.86 -71.16,-3.86 -71.16,-3.82 -70.96,-3.82 -70.96,-3.73 -70.76,-3.73 -70.76,-3.76 -70.56,-3.76 -70.56,-3.6 -70.36,-3.6 -70.36,-3.58 -70.16,-3.58 -70.16,-3.45 -69.96,-3.45 -69.96,-3.63 -69.75,-3.63 -69.75,-3.72 -69.55,-3.72 -69.55,-3.31 -69.35,-3.31 -69.35,-3.4 -69.15,-3.4 -69.15,-3.47 -68.95,-3.47 -68.95,-3.6 -68.75,-3.6 -68.75,-3.72 -68.55,-3.72 -68.55,-3.76 -68.35,-3.76 -68.35,-3.76 -68.15,-3.76 -68.15,-3.54 -67.94,-3.54 -67.94,-3.61 -67.74,-3.61 -67.74,-3.58 -67.54,-3.58 -67.54,-3.7 -67.34,-3.7 -67.34,-3.63 -67.14,-3.63 -67.14,-3.6 -66.94,-3.6 -66.94,-3.52 -66.74,-3.52 -66.74,-3.85 -66.54,-3.85 -66.54,-3.58 -66.33,-3.58 -66.33,-3.6 -66.13,-3.6 -66.13,-3.87 -65.93,-3.87 -65.93,-3.68 -65.73,-3.68 -65.73,-3.68 -65.53,-3.68 -65.53,-3.76 -65.33,-3.76 -65.33,-3.55 -65.13,-3.55 -65.13,-3.74 -64.93,-3.74 -64.93,-3.64 -64.73,-3.64 -64.73,-3.95 -64.52,-3.95 -64.52,-3.54 -64.32,-3.54 -64.32,-3.77 -64.12,-3.77 -64.12,-3.87 -63.92,-3.87 -63.92,-3.2 -63.72,-3.2 -63.72,-3.72 -63.52,-3.72 -63.52,-3.49 -63.32,-3.49 -63.32,-3.63 -63.12,-3.63 -63.12,-3.53 -62.92,-3.53 -62.92,-3.54 -62.71,-3.54 -62.71,-3.7 -62.51,-3.7 -62.51,-3.44 -62.31,-3.44 -62.31,-3.55 -62.11,-3.55 -62.11,-3.53 -61.91,-3.53 -61.91,-3.52 -61.71,-3.52 -61.71,-3.39 -61.51,-3.39 -61.51,-3.51 -61.31,-3.51 -61.31,-3.4 -61.1,-3.4 -61.1,-3.38 -60.9,-3.38 -60.9,-3.69 -60.7,-3.69 -60.7,-3.41 -60.5,-3.41 -60.5,-3.42 -60.3,-3.42 -60.3,-3.39 -60.1,-3.39 -60.1,-3.26 -59.9,-3.26 -59.9,-3.44 -59.7,-3.44 -59.7,-3.52 -59.5,-3.52 -59.5,-3.13 -59.29,-3.13 -59.29,-3.23 -59.09,-3.23 -59.09,-3.23 -58.89,-3.23 -58.89,-3.32 -58.69,-3.32 -58.69,-3.41 -58.49,-3.41 -58.49,-3.34 -58.29,-3.34 -58.29,-3.11 -58.09,-3.11 -58.09,-3.22 -57.89,-3.22 -57.89,-3.45 -57.68,-3.45 -57.68,-3.18 -57.48,-3.18 -57.48,-3.37 -57.28,-3.37 -57.28,-3.44 -57.08,-3.44 -57.08,-3.47 -56.88,-3.47 -56.88,-3.39 -56.68,-3.39 -56.68,-3.19 -56.48,-3.19 -56.48,-3.43 -56.28,-3.43 -56.28,-3.52 -56.08,-3.52 -56.08,-3.71 -55.87,-3.71 -55.87,-3.68 -55.67,-3.68 -55.67,-3.65 -55.47,-3.65 -55.47,-3.62 -55.27,-3.62 -55.27,-3.45 -55.07,-3.45 -55.07,-3.5 -54.87,-3.5 -54.87,-3.29 -54.67,-3.29 -54.67,-3.3 -54.47,-3.3 -54.47,-3.28 -54.26,-3.28 -54.26,-3.03 -54.06,-3.03 -54.06,-3.21 -53.86,-3.21 -53.86,-3.07 -53.66,-3.07 -53.66,-3 -53.46,-3 -53.46,-2.99 -53.26,-2.99 -53.26,-3.02 -53.06,-3.02 -53.06,-2.82 -52.86,-2.82 -52.86,-2.79 -52.66,-2.79 -52.66,-3.06 -52.45,-3.06 -52.45,-2.88 -52.25,-2.88 -52.25,-3.02 -52.05,-3.02 -52.05,-3.17 -51.85,-3.17 -51.85,-3.03 -51.65,-3.03 -51.65,-3.03 -51.45,-3.03 -51.45,-3 -51.25,-3 -51.25,-2.87 -51.05,-2.87 -51.05,-3.03 -50.85,-3.03 -50.85,-3.14 -50.64,-3.14 -50.64,-2.83 -50.44,-2.83 -50.44,-2.98 -50.24,-2.98 -50.24,-3.24 -50.04,-3.24 -50.04,-2.64 -49.84,-2.64 -49.84,-2.98 -49.64,-2.98 -49.64,-2.69 -49.44,-2.69 -49.44,-2.85 -49.24,-2.85 -49.24,-2.89 -49.03,-2.89 -49.03,-2.84 -48.83,-2.84 -48.83,-2.63 -48.63,-2.63 -48.63,-2.39 -48.43,-2.39 -48.43,-2.45 -48.23,-2.45 -48.23,-2.57 -48.03,-2.57 -48.03,-2.68 -47.83,-2.68 -47.83,-2.65 -47.63,-2.65 -47.63,-2.52 -47.43,-2.52 -47.43,-2.39 -47.22,-2.39 -47.22,-2.67 -47.02,-2.67 -47.02,-2.45 -46.82,-2.45 -46.82,-2.38 -46.62,-2.38 -46.62,-2.51 -46.42,-2.51 -46.42,-2.7 -46.22,-2.7 -46.22,-2.82 -46.02,-2.82 -46.02,-2.67 -45.82,-2.67 -45.82,-2.68 -45.61,-2.68 -45.61,-2.73 -45.41,-2.73 -45.41,-2.81 -45.21,-2.81 -45.21,-2.56 -45.01,-2.56 -45.01,-2.82 -44.81,-2.82 -44.81,-2.73 -44.61,-2.73 -44.61,-2.57 -44.41,-2.57 -44.41,-2.42 -44.21,-2.42 -44.21,-2.46 -44.01,-2.46 -44.01,-2.38 -43.8,-2.38 -43.8,-2.01 -43.6,-2.01 -43.6,-2.39 -43.4,-2.39 -43.4,-2.16 -43.2,-2.16 -43.2,-1.83 -43,-1.83 -43,-2.04 -42.8,-2.04 -42.8,-1.84 -42.6,-1.84 -42.6,-2.2 -42.4,-2.2 -42.4,-2.58 -42.19,-2.58 -42.19,-2.7 -41.99,-2.7 -41.99,-1.6 -41.79,-1.6 -41.79,-2.57 -41.59,-2.57 -41.59,-2.24 -41.39,-2.24 -41.39,-1 -41.19,-1 -41.19,-2.19 -40.99,-2.19 -40.99,-1.27 -40.79,-1.27 -40.79,-0.81 -40.59,-0.81 -40.59,-2.38 -40.38,-2.38 -40.38,-1.31 -40.18,-1.31 -40.18,-1.95 -39.98,-1.95 -39.98,-0.68 -39.78,-0.68 -39.78,-1.14 -39.58,-1.14 -39.58,-1.33 -39.38,-1.33 -39.38,-1.43 -39.18,-1.43 -39.18,-1.69 -38.98,-1.69 -38.98,-1.51 -38.78,-1.51 -38.78,-1.43 -38.57,-1.43 -38.57,-1.78 -38.37,-1.78 -38.37,-1.28 -38.17,-1.28 -38.17,-1.55 -37.97,-1.55 -37.97,-1.28 -37.77,-1.28 -37.77,-1.39 -37.57,-1.39 -37.57,-1.26 -37.37,-1.26 -37.37,-1.44 -37.17,-1.44 -37.17,-1.07 -36.96,-1.07 -36.96,-1.33 -36.76,-1.33 -36.76,-1.24 -36.56,-1.24 -36.56,-1.2 -36.36,-1.2 -36.36,-1.49 -36.16,-1.49 -36.16,-1.33 -35.96,-1.33 -35.96,-1.33 -35.76,-1.33 -35.76,-1.58 -35.56,-1.58 -35.56,-1.39 -35.36,-1.39 -35.36,-1.46 -35.15,-1.46 -35.15,-0.76 -34.95,-0.76 -34.95,-1.32 -34.75,-1.32 -34.75,-1.08 -34.55,-1.08 -34.55,-1.05 -34.35,-1.05 -34.35,-1.06 -34.15,-1.06 -34.15,-1.2 -33.95,-1.2 -33.95,-1.19 -33.75,-1.19 -33.75,-1.06 -33.54,-1.06 -33.54,-0.95 -33.34,-0.95 -33.34,-1.01 -33.14,-1.01 -33.14,-0.83 -32.94,-0.83 -32.94,-0.94 -32.74,-0.94 -32.74,-0.91 -32.54,-0.91 -32.54,-1.09 -32.34,-1.09 -32.34,-0.91 -32.14,-0.91 -32.14,-0.63 -31.94,-0.63 -31.94,-1.01 -31.73,-1.01 -31.73,-1 -31.53,-1 -31.53,-1.11 -31.33,-1.11 -31.33,-0.87 -31.13,-0.87 -31.13,-0.85 -30.93,-0.85 -30.93,-0.94 -30.73,-0.94 -30.73,-0.85 -30.53,-0.85 -30.53,-0.95 -30.33,-0.95 -30.33,-0.79 -30.12,-0.79 -30.12,-0.84 -29.92,-0.84 -29.92,-0.66 -29.72,-0.66 -29.72,-0.88 -29.52,-0.88 -29.52,-0.48 -29.32,-0.48 -29.32,-0.54 -29.12,-0.54 -29.12,-0.58 -28.92,-0.58 -28.92,-0.6 -28.72,-0.6 -28.72,-0.58 -28.52,-0.58 -28.52,-0.66 -28.31,-0.66 -28.31,-0.34 -28.11,-0.34 -28.11,-0.62 -27.91,-0.62 -27.91,-0.47 -27.71,-0.47 -27.71,-0.43 -27.51,-0.43 -27.51,-0.6 -27.31,-0.6 -27.31,-0.47 -27.11,-0.47 -27.11,-0.26 -26.91,-0.26 -26.91,-0.48 -26.7,-0.48 -26.7,-0.53 -26.5,-0.53 -26.5,-0.29 -26.3,-0.29 -26.3,-0.49 -26.1,-0.49 -26.1,-0.45 -25.9,-0.45 -25.9,-0.2 -25.7,-0.2 -25.7,-0.36 -25.5,-0.36 -25.5,-0.36 -25.3,-0.36 -25.3,-0.33 -25.1,-0.33 -25.1,-0.45 -24.89,-0.45 -24.89,-0.31 -24.69,-0.31 -24.69,-0.49 -24.49,-0.49 -24.49,-0.23 -24.29,-0.23 -24.29,-0.25 -24.09,-0.25 -24.09,-0.19 -23.89,-0.19 -23.89,-0.26 -23.69,-0.26 -23.69,-0.08 -23.49,-0.08 -23.49,-0.26 -23.29,-0.26 -23.29,-0.21 -23.08,-0.21 -23.08,-0.12 -22.88,-0.12 -22.88,-0.27 -22.68,-0.27 -22.68,-0.37 -22.48,-0.37 -22.48,-0.11 -22.28,-0.11 -22.28,-0.06 -22.08,-0.06 -22.08,-0.22 -21.88,-0.22 -21.88,0.02 -21.68,0.02 -21.68,0.13 -21.47,0.13 -21.47,0.01 -21.27,0.01 -21.27,-0.06 -21.07,-0.06 -21.07,-0.06 -20.87,-0.06 -20.87,-0.24 -20.67,-0.24 -20.67,-0.08 -20.47,-0.08 -20.47,-0.1 -20.27,-0.1 -20.27,0.09 -20.07,0.09 -20.07,0.07 -19.87,0.07 -19.87,0.01 -19.66,0.01 -19.66,0.04 -19.46,0.04 -19.46,0.01 -19.26,0.01 -19.26,-0.1 -19.06,-0.1 -19.06,0.08 -18.86,0.08 -18.86,0.12 -18.66,0.12 -18.66,0.12 -18.46,0.12 -18.46,0.31 -18.26,0.31 -18.26,0.03 -18.05,0.03 -18.05,-0.02 -17.85,-0.02 -17.85,0.05 -17.65,0.05 -17.65,0.19 -17.45,0.19 -17.45,0.09 -17.25,0.09 -17.25,-0.03 -17.05,-0.03 -17.05,0.1 -16.85,0.1 -16.85,-0.02 -16.65,-0.02 -16.65,0.03 -16.45,0.03 -16.45,0.06 -16.24,0.06 -16.24,0.09 -16.04,0.09 -16.04,-0.02 -15.84,-0.02 -15.84,0.19 -15.64,0.19 -15.64,0.08 -15.44,0.08 -15.44,0.03 -15.24,0.03 -15.24,0.02 -15.04,0.02 -15.04,0.08 -14.84,0.08 -14.84,0.07 -14.63,0.07 -14.63,0.33 -14.43,0.33 -14.43,0.32 -14.23,0.32 -14.23,0.23 -14.03,0.23 -14.03,0.33 -13.83,0.33 -13.83,0.26 -13.63,0.26 -13.63,0.47 -13.43,0.47 -13.43,0.26 -13.23,0.26 -13.23,0.29 -13.03,0.29 -13.03,0.19 -12.82,0.19 -12.82,0.3 -12.62,0.3 -12.62,0.32 -12.42,0.32 -12.42,0.31 -12.22,0.31 -12.22,0.35 -12.02,0.35 -12.02,0.45 -11.82,0.45 -11.82,0.4 -11.62,0.4 -11.62,0.25 -11.42,0.25 -11.42,0.33 -11.22,0.33 -11.22,0.21 -11.01,0.21 -11.01,0.32 -10.81,0.32 -10.81,0.34 -10.61,0.34 -10.61,0.35 -10.41,0.35 -10.41,0.37 -10.21,0.37 -10.21,0.31 -10.01,0.31 -10.01,0.49 -9.81,0.49 -9.81,0.41 -9.61,0.41 -9.61,0.53 -9.4,0.53 -9.4,0.44 -9.2,0.44 -9.2,0.61 -9,0.61 -9,0.52 -8.8,0.52 -8.8,0.41 -8.6,0.41 -8.6,0.54 -8.4,0.54 -8.4,0.67 -8.2,0.67 -8.2,0.63 -8,0.63 -8,0.5 -7.8,0.5 -7.8,0.51 -7.59,0.51 -7.59,0.38 -7.39,0.38 -7.39,0.43 -7.19,0.43 -7.19,0.21 -6.99,0.21 -6.99,0.37 -6.79,0.37 -6.79,0.29 -6.59,0.29 -6.59,0.4 -6.39,0.4 -6.39,0.42 -6.19,0.42 -6.19,0.42 -5.98,0.42 -5.98,0.38 -5.78,0.38 -5.78,0.37 -5.58,0.37 -5.58,0.4 -5.38,0.4 -5.38,0.33 -5.18,0.33 -5.18,0.65 -4.98,0.65 -4.98,0.64 -4.78,0.64 -4.78,0.51 -4.58,0.51 -4.58,0.57 -4.38,0.57 -4.38,0.69 -4.17,0.69 -4.17,0.64 -3.97,0.64 -3.97,0.75 -3.77,0.75 -3.77,0.69 -3.57,0.69 -3.57,0.6 -3.37,0.6 -3.37,0.69 -3.17,0.69 -3.17,0.79 -2.97,0.79 -2.97,0.72 -2.77,0.72 -2.77,0.76 -2.56,0.76 -2.56,0.74 -2.36,0.74 -2.36,0.73 -2.16,0.73 -2.16,0.99 -1.96,0.99 -1.96,0.84 -1.76,0.84 -1.76,0.94 -1.56,0.94 -1.56,0.94 -1.36,0.94 -1.36,0.84 -1.16,0.84 -1.16,0.91 -0.96,0.91 -0.96,0.79 -0.75,0.79 -0.75,0.83 -0.55,0.83 -0.55,0.97 -0.35,0.97 -0.35,0.77 -0.15,0.77 -0.15,0.98 0.05,0.98 0.05,0.76 0.25,0.76 0.25,1 0.45,1 0.45,0.97 0.65,0.97 0.65,0.95 0.85,0.95 0.85,0.86 1.06,0.86 1.06,0.92 1.26,0.92 1.26,0.75 1.46,0.75 1.46,0.83 1.66,0.83 1.66,0.79 1.86,0.79 1.86,0.64 2.06,0.64 2.06,0.75 2.26,0.75 2.26,0.77 2.46,0.77 2.46,0.52 2.67,0.52 2.67,0.62 2.87,0.62 2.87,0.7 3.07,0.7 3.07,0.58 3.27,0.58 3.27,0.74 3.47,0.74 3.47,0.75 3.67,0.75 3.67,0.76 3.87,0.76 3.87,0.85 4.07,0.85 4.07,0.94 4.27,0.94 4.27,0.93 4.48,0.93 4.48,0.87 4.68,0.87 4.68,0.93 4.88,0.93 4.88,1.19 5.08,1.19 5.08,0.97 5.28,0.97 5.28,1.11 5.48,1.11 5.48,1.12 5.68,1.12 5.68,1.1 5.88,1.1 5.88,1.02 6.09,1.02 6.09,1.09 6.29,1.09 6.29,1.11 6.49,1.11 6.49,1.28 6.69,1.28 6.69,1.16 6.89,1.16 6.89,1.22 7.09,1.22 7.09,1.24 7.29,1.24 7.29,1.18 7.49,1.18 7.49,1.22 7.69,1.22 7.69,1.07 7.9,1.07 7.9,1.42 8.1,1.42 8.1,1.26 8.3,1.26 8.3,1.28 8.5,1.28 8.5,1.1 8.7,1.1 8.7,1.1 8.9,1.1 8.9,1.18 9.1,1.18 9.1,1.36 9.3,1.36 9.3,1.43 9.51,1.43 9.51,1.17 9.71,1.17 9.71,1.32 9.91,1.32 9.91,1.26 10.11,1.26 10.11,1.27 10.31,1.27 10.31,1.28 10.51,1.28 10.51,1.56 10.71,1.56 10.71,1.38 10.91,1.38 10.91,1.2 11.11,1.2 11.11,1.42 11.32,1.42 11.32,1.48 11.52,1.48 11.52,1.46 11.72,1.46 11.72,1.41 11.92,1.41 11.92,1.76 12.12,1.76 12.12,1.54 12.32,1.54 12.32,1.12 12.52,1.12 12.52,1.3 12.72,1.3 12.72,1.51 12.93,1.51 12.93,0.99 13.13,0.99 13.13,1.13 13.33,1.13 13.33,1.68 13.53,1.68 13.53,1.2 13.73,1.2 13.73,1.83 13.93,1.83 13.93,2.48 14.13,2.48 14.13,1.49 14.33,1.49 14.33,1.67 14.53,1.67 14.53,1.46 14.74,1.46 14.74,2.04 14.94,2.04 14.94,1.7 15.14,1.7 15.14,1.59 15.34,1.59 15.34,1.64 15.54,1.64 15.54,1.71 15.74,1.71 15.74,1.69 15.94,1.69 15.94,1.61 16.14,1.61 16.14,1.64 16.34,1.64 16.34,1.67 16.55,1.67 16.55,1.56 16.75,1.56 16.75,1.51 16.95,1.51 16.95,1.49 17.15,1.49 17.15,1.62 17.35,1.62 17.35,1.45 17.55,1.45 17.55,1.63 17.75,1.63 17.75,1.69 17.95,1.69 17.95,1.61 18.16,1.61 18.16,1.53 18.36,1.53 18.36,1.53 18.56,1.53 18.56,1.44 18.76,1.44 18.76,1.62 18.96,1.62 18.96,1.66 19.16,1.66 19.16,1.68 19.36,1.68 19.36,1.54 19.56,1.54 19.56,1.69 19.76,1.69 19.76,1.54 19.97,1.54 19.97,1.61 20.17,1.61 20.17,1.5 20.37,1.5 20.37,1.73 20.57,1.73 20.57,1.69 20.77,1.69 20.77,1.71 20.97,1.71 20.97,1.77 21.17,1.77 21.17,1.7 21.37,1.7 21.37,1.7 21.58,1.7 21.58,1.76 21.78,1.76 21.78,1.7 21.98,1.7 21.98,1.79 22.18,1.79 22.18,1.67 22.38,1.67 22.38,1.78 22.58,1.78 22.58,1.61 22.78,1.61 22.78,1.69 22.98,1.69 22.98,1.68 23.18,1.68 23.18,1.71 23.39,1.71 23.39,1.76 23.59,1.76 23.59,1.62 23.79,1.62 23.79,1.67 23.99,1.67 23.99,1.88 24.19,1.88 24.19,1.67 24.39,1.67 24.39,1.87 24.59,1.87 24.59,1.73 24.79,1.73 24.79,1.95 25,1.95 25,1.77 25.2,1.77 25.2,1.99 25.4,1.99 25.4,1.84 25.6,1.84 25.6,1.92 25.8,1.92 25.8,1.85 26,1.85 26,1.82 26.2,1.82 26.2,1.95 26.4,1.95 26.4,1.72 26.6,1.72 26.6,1.94 26.81,1.94 26.81,1.98 27.01,1.98 27.01,1.95 27.21,1.95 27.21,1.91 27.41,1.91 27.41,1.94 27.61,1.94 27.61,2.11 27.81,2.11 27.81,2 28.01,2 28.01,2.09 28.21,2.09 28.21,2.08 28.41,2.08 28.41,2.02 28.62,2.02 28.62,2.01 28.82,2.01 28.82,1.99 29.02,1.99 29.02,2.01 29.22,2.01 29.22,2.1 29.42,2.1 29.42,2.05 29.62,2.05 29.62,1.9 29.82,1.9 29.82,2.07 30.02,2.07 30.02,2.11 30.23,2.11 30.23,2.04 30.43,2.04 30.43,2.06 30.63,2.06 30.63,1.93 30.83,1.93 30.83,2.13 31.03,2.13 31.03,2 31.23,2 31.23,2.09 31.43,2.09 31.43,2.04 31.63,2.04 31.63,2.05 31.83,2.05 31.83,2.11 32.04,2.11 32.04,1.93 32.24,1.93 32.24,2.06 32.44,2.06 32.44,2.18 32.64,2.18 32.64,2.07 32.84,2.07 32.84,2 33.04,2 33.04,1.93 33.24,1.93 33.24,2.06 33.44,2.06 33.44,2.13 33.65,2.13 33.65,2 33.85,2 33.85,2.08 34.05,2.08 34.05,1.98 34.25,1.98 34.25,2.17 34.45,2.17 34.45,2.13 34.65,2.13 34.65,2.11 34.85,2.11 34.85,2 35.05,2 35.05,2.11 35.25,2.11 35.25,2.06 35.46,2.06 35.46,2.06 35.66,2.06 35.66,2.09 35.86,2.09 35.86,2.17 36.06,2.17 36.06,2.17 36.26,2.17 36.26,2.12 36.46,2.12 36.46,2.11 36.66,2.11 36.66,2.23 36.86,2.23 36.86,2.15 37.07,2.15 37.07,2.21 37.27,2.21 37.27,2.18 37.47,2.18 37.47,2.3 37.67,2.3 37.67,2.17 37.87,2.17 37.87,2.11 38.07,2.11 38.07,2.25 38.27,2.25 38.27,2.22 38.47,2.22 38.47,2.28 38.67,2.28 38.67,2.16 38.88,2.16 38.88,2.28 39.08,2.28 39.08,2.19 39.28,2.19 39.28,2.15 39.48,2.15 39.48,2.19 39.68,2.19 39.68,2.33 39.88,2.33 39.88,2.23 40.08,2.23 40.08,2.26 40.28,2.26 40.28,2.29 40.49,2.29 40.49,2.35 40.69,2.35 40.69,2.32 40.89,2.32 40.89,2.33 41.09,2.33 41.09,2.19 41.29,2.19 41.29,2.25 41.49,2.25 41.49,2.28 41.69,2.28 41.69,2.37 41.89,2.37 41.89,2.33 42.09,2.33 42.09,2.31 42.3,2.31 42.3,2.28 42.5,2.28 42.5,2.39 42.7,2.39 42.7,2.27 42.9,2.27 42.9,2.42 43.1,2.42 43.1,2.33 43.3,2.33 43.3,2.33 43.5,2.33 43.5,2.33 43.7,2.33 43.7,2.37 43.9,2.37 43.9,2.34 44.11,2.34 44.11,2.44 44.31,2.44 44.31,2.35 44.51,2.35 44.51,2.36 44.71,2.36 44.71,2.51 44.91,2.51 44.91,2.38 45.11,2.38 45.11,2.37 45.31,2.37 45.31,2.34 45.51,2.34 45.51,2.37 45.72,2.37 45.72,2.39 45.92,2.39 45.92,2.39 46.12,2.39 46.12,2.29 46.32,2.29 46.32,2.44 46.52,2.44 46.52,2.29 46.72,2.29 46.72,2.35 46.92,2.35 46.92,2.44 47.12,2.44 47.12,2.38 47.32,2.38 47.32,2.35 47.53,2.35 47.53,2.37 47.73,2.37 47.73,2.51 47.93,2.51 47.93,2.4 48.13,2.4 48.13,2.41 48.33,2.41 48.33,2.45 48.53,2.45 48.53,2.45 48.73,2.45 48.73,2.5 48.93,2.5 48.93,2.49 49.14,2.49 49.14,2.62 49.34,2.62 49.34,2.2 49.54,2.2 49.54,2.5 49.74,2.5 49.74,2.39 49.94,2.39 49.94,2.4 50.14,2.4 50.14,2.49 50.34,2.49 50.34,2.42 50.54,2.42 50.54,2.53 50.74,2.53 50.74,2.55 50.95,2.55 50.95,2.57 51.15,2.57 51.15,2.51 51.35,2.51 51.35,2.55 51.55,2.55 51.55,2.52 51.75,2.52 51.75,2.48 51.95,2.48 51.95,2.64 52.15,2.64 52.15,2.56 52.35,2.56 52.35,2.5 52.56,2.5 52.56,2.56 52.76,2.56 52.76,2.56 52.96,2.56 52.96,2.62 53.16,2.62 53.16,2.56 53.36,2.56 53.36,2.62 53.56,2.62 53.56,2.48 53.76,2.48 53.76,2.63 53.96,2.63 53.96,2.53 54.16,2.53 54.16,2.71 54.37,2.71 54.37,2.73 54.57,2.73 54.57,2.59 54.77,2.59 54.77,2.6 54.97,2.6 54.97,2.72 55.17,2.72 55.17,2.64 55.37,2.64 55.37,2.63 55.57,2.63 55.57,2.6 55.77,2.6 55.77,2.78 55.97,2.78 55.97,2.68 56.18,2.68 56.18,2.69 56.38,2.69 56.38,2.57 56.58,2.57 56.58,2.73 56.78,2.73 56.78,2.82 56.98,2.82 56.98,2.62 57.18,2.62 57.18,2.66 57.38,2.66 57.38,2.64 57.58,2.64 57.58,2.61 57.79,2.61 57.79,2.75 57.99,2.75 57.99,2.64 58.19,2.64 58.19,2.7 58.39,2.7 58.39,2.6 58.59,2.6 58.59,2.68 58.79,2.68 58.79,2.74 58.99,2.74 58.99,2.66 59.19,2.66 59.19,2.68 59.39,2.68 59.39,2.76 59.6,2.76 59.6,2.64 59.8,2.64 59.8,2.63 60,2.63 60,2.74 60.2,2.74 60.2,2.77 60.4,2.77 60.4,2.69 60.6,2.69 60.6,2.81 60.8,2.81 60.8,2.68 61,2.68 61,2.76 61.21,2.76 61.21,2.78 61.41,2.78 61.41,2.79 61.61,2.79 61.61,2.64 61.81,2.64 61.81,2.68 62.01,2.68 62.01,2.83 62.21,2.83 62.21,2.7 62.41,2.7 62.41,2.73 62.61,2.73 62.61,2.79 62.81,2.79 62.81,2.78 63.02,2.78 63.02,2.76 63.22,2.76 63.22,2.78 63.42,2.78 63.42,2.72 63.62,2.72 63.62,2.83 63.82,2.83 63.82,2.74 64.02,2.74 64.02,2.78 64.22,2.78 64.22,2.79 64.42,2.79 64.42,2.77 64.63,2.77 64.63,2.71 64.83,2.71 64.83,2.78 65.03,2.78 65.03,2.91 65.23,2.91 65.23,2.77 65.43,2.77 65.43,2.72 65.63,2.72 65.63,2.77 65.83,2.77 65.83,2.79 66.03,2.79 66.03,2.79 66.23,2.79 66.23,2.8 66.44,2.8 66.44,2.83 66.64,2.83 66.64,2.82 66.84,2.82 66.84,2.8 67.04,2.8 67.04,2.84 67.24,2.84 67.24,2.79 67.44,2.79 67.44,2.87 67.64,2.87 67.64,2.95 67.84,2.95 67.84,2.96 68.04,2.96 68.04,2.85 68.25,2.85 68.25,2.84 68.45,2.84 68.45,2.81 68.65,2.81 68.65,2.8 68.85,2.8 68.85,2.86 69.05,2.86 69.05,2.77 69.25,2.77 69.25,2.97 69.45,2.97 69.45,2.98 69.65,2.98 69.65,2.89 69.86,2.89 69.86,2.92 70.06,2.92 70.06,2.86 70.26,2.86 70.26,2.89 70.46,2.89 70.46,2.99 70.66,2.99 70.66,3 70.86,3 70.86,2.83 71.06,2.83 71.06,2.85 71.26,2.85 71.26,2.98 71.46,2.98 71.46,2.88 71.67,2.88 71.67,2.96 71.87,2.96 71.87,2.9 72.07,2.9 72.07,2.85 72.27,2.85 72.27,2.92 72.47,2.92 72.47,2.94 72.67,2.94 72.67,2.94 72.87,2.94 72.87,2.96 73.07,2.96 73.07,2.87 73.28,2.87 73.28,3 73.48,3 73.48,2.95 73.68,2.95 73.68,2.97 73.88,2.97 73.88,3.06 74.08,3.06 74.08,3.04 74.28,3.04 74.28,2.99 74.48,2.99 74.48,2.99 74.68,2.99 74.68,3.02 74.88,3.02 74.88,3.04 75.09,3.04 75.09,2.9 75.29,2.9 75.29,2.99 75.49,2.99 75.49,2.97 75.69,2.97 75.69,3.04 75.89,3.04 75.89,2.92 76.09,2.92 76.09,2.96 76.29,2.96 76.29,3.01 76.49,3.01 76.49,3.04 76.7,3.04 76.7,2.88 76.9,2.88 76.9,2.92 77.1,2.92 77.1,3.11 77.3,3.11 77.3,3.06 77.5,3.06 77.5,3.09 77.7,3.09 77.7,2.93 77.9,2.93 77.9,3.07 78.1,3.07 78.1,3.02 78.3,3.02 78.3,3.06 78.51,3.06 78.51,3.1 78.71,3.1 78.71,2.98 78.91,2.98 78.91,3.17 79.11,3.17 79.11,3.07 79.31,3.07 79.31,3.04 79.51,3.04 79.51,3 79.71,3 79.71,3.03 79.91,3.03 79.91,3.09 80.12,3.09 80.12,3.14 80.32,3.14 80.32,3.07 80.52,3.07 80.52,3 80.72,3 80.72,3.13 80.92,3.13 80.92,3.04 81.12,3.04 81.12,3.06 81.32,3.06 81.32,3.05 81.52,3.05 81.52,3.11 81.72,3.11 81.72,3.12 81.93,3.12 81.93,3.1 82.13,3.1 82.13,3.11 82.33,3.11 82.33,3.12 82.53,3.12 82.53,3.05 82.73,3.05 82.73,3.15 82.93,3.15 82.93,3.09 83.13,3.09 83.13,3.08 83.33,3.08 83.33,3.08 83.53,3.08 83.53,3.12 83.74,3.12 83.74,3.06 83.94,3.06 83.94,3.13 84.14,3.13 84.14,3.04 84.34,3.04 84.34,3.11 84.54,3.11 84.54,3.16 84.74,3.16 84.74,3.19 84.94,3.19 84.94,3.23 85.14,3.23 85.14,3.06 85.35,3.06 85.35,3.15 85.55,3.15 85.55,3.22 85.75,3.22 85.75,3.15 85.95,3.15 85.95,3.15 86.15,3.15 86.15,3.18 86.35,3.18 86.35,3.17 86.55,3.17 86.55,3.12 86.75,3.12 86.75,3.23 86.95,3.23 86.95,3.16 87.16,3.16 87.16,3.19 87.36,3.19 87.36,3.11 87.56,3.11 87.56,3.08 87.76,3.08 87.76,3.15 87.96,3.15 87.96,3.19 88.16,3.19 88.16,3.16 88.36,3.16 88.36,3.13 88.56,3.13 88.56,3.18 88.77,3.18 88.77,3.15 88.97,3.15 88.97,3.17 89.17,3.17 89.17,3.31 89.37,3.31 89.37,3.18 89.57,3.18 89.57,3.2 89.77,3.2 89.77,3.3 89.97,3.3 89.97,3.2 90.17,3.2 90.17,3.2 90.37,3.2 90.37,3.16 90.58,3.16 90.58,3.25 90.78,3.25 90.78,3.17 90.98,3.17 90.98,3.28 91.18,3.28 91.18,3.17 91.38,3.17 91.38,3.26 91.58,3.26 91.58,3.2 91.78,3.2 91.78,3.2 91.98,3.2 91.98,3.15 92.19,3.15 92.19,3.22 92.39,3.22 92.39,3.23 92.59,3.23 92.59,3.29 92.79,3.29 92.79,3.29 92.99,3.29 92.99,3.21 93.19,3.21 93.19,3.24 93.39,3.24 93.39,3.22 93.59,3.22 93.59,3.27 93.79,3.27 93.79,3.27 94,3.27 94,3.31 94.2,3.31 94.2,3.26 94.4,3.26 94.4,3.16 94.6,3.16 94.6,3.18 94.8,3.18 94.8,3.3 95,3.3 95,3.22 95.2,3.22 95.2,3.31 95.4,3.31 95.4,3.27 95.6,3.27 95.6,3.29 95.81,3.29 95.81,3.38 96.01,3.38 96.01,3.26 96.21,3.26 96.21,3.22 96.41,3.22 96.41,3.25 96.61,3.25 96.61,3.28 96.81,3.28 96.81,3.21 97.01,3.21 97.01,3.33 97.21,3.33 97.21,3.22 97.42,3.22 97.42,3.25 97.62,3.25 97.62,3.34 97.82,3.34 97.82,3.28 98.02,3.28 98.02,3.29 98.22,3.29 98.22,3.35 98.42,3.35 98.42,3.26 98.62,3.26 98.62,3.3 98.82,3.3 98.82,3.34 99.02,3.34 99.02,3.37 99.23,3.37 99.23,3.33 99.43,3.33 99.43,3.34 99.63,3.34 99.63,3.38 99.83,3.38 99.83,3.35 100.03,3.35 100.03,3.38 100.23,3.38 100.23,3.34 100.43,3.34 100.43,3.4 100.63,3.4 100.63,3.35 100.84,3.35 100.84,3.4 101.04,3.4 101.04,3.35 101.24,3.35 101.24,3.32 101.44,3.32 101.44,3.37 101.64,3.37 101.64,3.38 101.84,3.38 101.84,3.45 102.04,3.45 102.04,3.34 102.24,3.34 102.24,3.44 102.44,3.44 102.44,3.29 102.65,3.29 102.65,3.44 102.85,3.44 102.85,3.45 103.05,3.45 103.05,3.34 103.25,3.34 103.25,3.41 103.45,3.41 103.45,3.41 103.65,3.41 103.65,3.38 103.85,3.38 103.85,3.41 104.05,3.41 104.05,3.4 104.26,3.4 104.26,3.42 104.46,3.42 104.46,3.46 104.66,3.46 104.66,3.43 104.86,3.43 104.86,3.34 105.06,3.34 105.06,3.51 105.26,3.51 105.26,3.4 105.46,3.4 105.46,3.43 105.66,3.43 105.66,3.44 105.86,3.44 105.86,3.4 106.07,3.4 106.07,3.41 106.27,3.41 106.27,3.46 106.47,3.46 106.47,3.39 106.67,3.39 106.67,3.4 106.87,3.4 106.87,3.42 107.07,3.42 107.07,3.39 107.27,3.39 107.27,3.46 107.47,3.46 107.47,3.47 107.67,3.47 107.67,3.51 107.88,3.51 107.88,3.44 108.08,3.44 108.08,3.44 108.28,3.44 108.28,3.49 108.48,3.49 108.48,3.48 108.68,3.48 108.68,3.5 108.88,3.5 108.88,3.47 109.08,3.47 109.08,3.44 109.28,3.44 109.28,3.44 109.49,3.44 109.49,3.39 109.69,3.39 109.69,3.5 109.89,3.5 109.89,3.46 110.09,3.46 110.09,3.53 110.29,3.53 110.29,3.47 110.49,3.47 110.49,3.48 110.69,3.48 110.69,3.51 110.89,3.51 110.89,3.45 111.09,3.45 111.09,3.54 111.3,3.54 111.3,3.42 111.5,3.42 111.5,3.44 111.7,3.44 111.7,3.49 111.9,3.49 111.9,3.54 112.1,3.54 112.1,3.54 112.3,3.54 112.3,3.48 112.5,3.48 112.5,3.56 112.7,3.56 112.7,3.49 112.91,3.49 112.91,3.5 113.11,3.5 113.11,3.51 113.31,3.51 113.31,3.5 113.51,3.5 113.51,3.56 113.71,3.56 113.71,3.52 " class="primitive"/>
            </g>
          </g>
        </g>
      </g>
    </g>
  </g>
  <g class="guide ylabels" font-size="2.82" font-family="'PT Sans Caption','Helvetica Neue','Helvetica',sans-serif" fill="#6C606B" id="img-e206e699-238">
    <g transform="translate(20.77,59.87)" id="img-e206e699-239">
      <g class="primitive">
        <text text-anchor="end" dy="0.35em">0</text>
      </g>
    </g>
    <g transform="translate(20.77,39.38)" id="img-e206e699-240">
      <g class="primitive">
        <text text-anchor="end" dy="0.35em">1.010</text>
      </g>
    </g>
    <g transform="translate(20.77,18.89)" id="img-e206e699-241">
      <g class="primitive">
        <text text-anchor="end" dy="0.35em">2.010</text>
      </g>
    </g>
  </g>
  <g font-size="3.18" font-family="'PT Sans','Helvetica Neue','Helvetica',sans-serif" fill="#202020" stroke="#000000" stroke-opacity="0.000" id="img-e206e699-242">
    <g transform="translate(4.18,31.76)" id="img-e206e699-243">
      <g class="primitive">
        <text text-anchor="middle" dy="0.35em" transform="rotate(-90,0, 2)">Counts</text>
      </g>
    </g>
  </g>
  <g font-size="3.18" font-family="'PT Sans','Helvetica Neue','Helvetica',sans-serif" fill="#202020" stroke="#000000" stroke-opacity="0.000" id="img-e206e699-244">
    <g transform="translate(137.53,0.71)" id="img-e206e699-245">
      <g class="primitive">
        <text text-anchor="middle" dy="0.6em">III-E K412[0][all]</text>
      </g>
    </g>
  </g>
</g>
<defs>
  <clipPath id="img-e206e699-4">
    <path d="M21.77,5.66 L253.29,5.66 253.29,61.87 21.77,61.87 " />
  </clipPath>
</defs>
</svg>
