<?xml version="1.0" encoding="UTF-8"?>
<svg xmlns="http://www.w3.org/2000/svg"
     xmlns:xlink="http://www.w3.org/1999/xlink"
     xmlns:gadfly="http://www.gadflyjl.org/ns"
     version="1.2"
     width="254mm" height="76.2mm" viewBox="0 0 254 76.2"
     stroke="none"
     fill="#000000"
     stroke-width="0.3"
     font-size="3.88"
>
<defs>
  <marker id="arrow" markerWidth="15" markerHeight="7" refX="5" refY="3.5" orient="auto" markerUnits="strokeWidth">
    <path d="M0,0 L15,3.5 L0,7 z" stroke="context-stroke" fill="context-stroke"/>
  </marker>
</defs>
<g class="plotroot xscalable yscalable" id="img-c38e3fb9-1">
  <g font-size="3.18" font-family="'PT Sans','Helvetica Neue','Helvetica',sans-serif" fill="#202020" stroke="#000000" stroke-opacity="0.000" id="img-c38e3fb9-2">
    <g transform="translate(121.8,69.54)">
      <g class="primitive">
        <text text-anchor="middle" dy="0.6em">Energy (eV)</text>
      </g>
    </g>
  </g>
  <g class="guide xlabels" font-size="2.82" font-family="'PT Sans Caption','Helvetica Neue','Helvetica',sans-serif" fill="#6C606B" id="img-c38e3fb9-3">
    <g transform="translate(21.7,62.87)">
      <g class="primitive">
        <text text-anchor="middle" dy="0.6em">0</text>
      </g>
    </g>
    <g transform="translate(71.75,62.87)">
      <g class="primitive">
        <text text-anchor="middle" dy="0.6em">2000</text>
      </g>
    </g>
    <g transform="translate(121.8,62.87)">
      <g class="primitive">
        <text text-anchor="middle" dy="0.6em">4000</text>
      </g>
    </g>
    <g transform="translate(171.86,62.87)">
      <g class="primitive">
        <text text-anchor="middle" dy="0.6em">6000</text>
      </g>
    </g>
    <g transform="translate(221.91,62.87)">
      <g class="primitive">
        <text text-anchor="middle" dy="0.6em">8000</text>
      </g>
    </g>
  </g>
  <g class="guide colorkey" id="img-c38e3fb9-4">
    <g fill="#4C404B" font-size="2.82" font-family="'PT Sans','Helvetica Neue','Helvetica',sans-serif" id="img-c38e3fb9-5">
      <g transform="translate(228.53,31.7)" id="img-c38e3fb9-6">
        <g class="primitive">
          <text dy="0.35em">Al2O3 std</text>
        </g>
      </g>
      <g transform="translate(228.53,35.33)" id="img-c38e3fb9-7">
        <g class="primitive">
          <text dy="0.35em">CharOnly[Al2O3 std]</text>
        </g>
      </g>
    </g>
    <g stroke-width="0.3" id="img-c38e3fb9-8">
      <g stroke="#FFFFFF" fill-opacity="1" fill="#B70002" id="img-c38e3fb9-9">
        <g transform="translate(225.72,35.33)" id="img-c38e3fb9-10">
          <circle cx="0" cy="0" r="0.9" class="primitive"/>
        </g>
      </g>
      <g stroke="#FFFFFF" fill-opacity="1" fill="#104E8B" id="img-c38e3fb9-11">
        <g transform="translate(225.72,31.7)" id="img-c38e3fb9-12">
          <circle cx="0" cy="0" r="0.9" class="primitive"/>
        </g>
      </g>
    </g>
    <g fill="#362A35" font-size="3.18" font-family="'PT Sans','Helvetica Neue','Helvetica',sans-serif" stroke="#000000" stroke-opacity="0.000" id="img-c38e3fb9-13">
      <g transform="translate(224.91,28.39)" id="img-c38e3fb9-14">
        <g class="primitive">
          <text dy="-0em">Spectra</text>
        </g>
      </g>
    </g>
  </g>
  <g clip-path="url(#img-c38e3fb9-15)">
    <g id="img-c38e3fb9-16">
      <g pointer-events="visible" stroke-width="0.3" fill="#FDFDF1" stroke="#202020" class="guide background" id="img-c38e3fb9-17">
        <g transform="translate(121.8,31.29)" id="img-c38e3fb9-18">
          <path d="M-102.1,-30.58 L 102.1 -30.58 102.1 30.58 -102.1 30.58 z" class="primitive"/>
        </g>
      </g>
      <g class="guide ygridlines xfixed" stroke-dasharray="none" stroke-width="0.2" stroke="#FFDFDF" id="img-c38e3fb9-19">
        <g transform="translate(121.8,59.87)" id="img-c38e3fb9-20">
          <path fill="none" d="M-102.1,0 L 102.1 0" class="primitive"/>
        </g>
        <g transform="translate(121.8,44.7)" id="img-c38e3fb9-21">
          <path fill="none" d="M-102.1,0 L 102.1 0" class="primitive"/>
        </g>
        <g transform="translate(121.8,29.54)" id="img-c38e3fb9-22">
          <path fill="none" d="M-102.1,0 L 102.1 0" class="primitive"/>
        </g>
        <g transform="translate(121.8,14.38)" id="img-c38e3fb9-23">
          <path fill="none" d="M-102.1,0 L 102.1 0" class="primitive"/>
        </g>
      </g>
      <g class="guide xgridlines yfixed" stroke-dasharray="none" stroke-width="0.2" stroke="#FFDFDF" id="img-c38e3fb9-24">
        <g transform="translate(21.7,31.29)" id="img-c38e3fb9-25">
          <path fill="none" d="M0,-30.58 L 0 30.58" class="primitive"/>
        </g>
        <g transform="translate(71.75,31.29)" id="img-c38e3fb9-26">
          <path fill="none" d="M0,-30.58 L 0 30.58" class="primitive"/>
        </g>
        <g transform="translate(121.8,31.29)" id="img-c38e3fb9-27">
          <path fill="none" d="M0,-30.58 L 0 30.58" class="primitive"/>
        </g>
        <g transform="translate(171.86,31.29)" id="img-c38e3fb9-28">
          <path fill="none" d="M0,-30.58 L 0 30.58" class="primitive"/>
        </g>
        <g transform="translate(221.91,31.29)" id="img-c38e3fb9-29">
          <path fill="none" d="M0,-30.58 L 0 30.58" class="primitive"/>
        </g>
      </g>
      <g class="plotpanel" id="img-c38e3fb9-30">
        <metadata>
          <boundingbox value="19.70055555555556mm 0.7055555555555555mm 204.20722222222224mm 61.16055555555556mm"/>
          <unitbox value="-79.91719690431857 195083.39961657708 8159.834393808637 -201678.44923315418"/>
        </metadata>
        <g stroke-width="0.3" fill="#000000" fill-opacity="0.000" class="geometry" id="img-c38e3fb9-31">
          <g class="color_RGB{Float64}(0.7186016914382806,8.086625054816313e-7,0.0097916074077615)" stroke-dasharray="none" stroke="#B70002" id="img-c38e3fb9-32">
            <g transform="translate(121.77,44.88)" id="img-c38e3fb9-33">
              <path fill="none" d="M-100.03,14.99 L -99.78 14.99 -99.78 14.99 -99.53 14.99 -99.53 14.99 -99.28 14.99 -99.28 14.99 -99.03 14.99 -99.03 14.99 -98.78 14.99 -98.78 14.99 -98.53 14.99 -98.53 14.99 -98.28 14.99 -98.28 14.99 -98.02 14.99 -98.02 14.99 -97.77 14.99 -97.77 14.99 -97.52 14.99 -97.52 14.99 -97.27 14.99 -97.27 14.99 -97.02 14.99 -97.02 14.98 -96.77 14.98 -96.77 14.98 -96.52 14.98 -96.52 14.97 -96.27 14.97 -96.27 14.96 -96.02 14.96 -96.02 14.94 -95.77 14.94 -95.77 14.91 -95.52 14.91 -95.52 14.85 -95.27 14.85 -95.27 14.74 -95.02 14.74 -95.02 14.54 -94.77 14.54 -94.77 14.17 -94.52 14.17 -94.52 13.49 -94.27 13.49 -94.27 12.41 -94.02 12.41 -94.02 10.82 -93.77 10.82 -93.77 9.12 -93.52 9.12 -93.52 7.8 -93.27 7.8 -93.27 7.52 -93.02 7.52 -93.02 8.54 -92.77 8.54 -92.77 10.01 -92.52 10.01 -92.52 11.41 -92.27 11.41 -92.27 12.87 -92.02 12.87 -92.02 14.14 -91.77 14.14 -91.77 14.99 -91.52 14.99 -91.52 15.55 -91.27 15.55 -91.27 15.76 -91.02 15.76 -91.02 15.73 -90.77 15.73 -90.77 15.69 -90.52 15.69 -90.52 15.55 -90.27 15.55 -90.27 15.16 -90.02 15.16 -90.02 14.37 -89.77 14.37 -89.77 13.59 -89.52 13.59 -89.52 12.56 -89.27 12.56 -89.27 10.25 -89.02 10.25 -89.02 5.28 -88.77 5.28 -88.77 -4.6 -88.52 -4.6 -88.52 -23.16 -88.27 -23.16 -88.27 -55.2 -88.02 -55.2 -88.02 -103.84 -87.77 -103.84 -87.77 -164.94 -87.52 -164.94 -87.52 -229.07 -87.27 -229.07 -87.27 -274.13 -87.02 -274.13 -87.02 -284.92 -86.76 -284.92 -86.76 -256.6 -86.51 -256.6 -86.51 -197.76 -86.26 -197.76 -86.26 -129.74 -86.01 -129.74 -86.01 -70.17 -85.76 -70.17 -85.76 -29.24 -85.51 -29.24 -85.51 -4.99 -85.26 -4.99 -85.26 7.39 -85.01 7.39 -85.01 12.75 -84.76 12.75 -84.76 14.92 -84.51 14.92 -84.51 15.74 -84.26 15.74 -84.26 15.95 -84.01 15.95 -84.01 15.97 -83.76 15.97 -83.76 15.84 -83.51 15.84 -83.51 15.62 -83.26 15.62 -83.26 15.34 -83.01 15.34 -83.01 15.16 -82.76 15.16 -82.76 14.94 -82.51 14.94 -82.51 14.83 -82.26 14.83 -82.26 14.79 -82.01 14.79 -82.01 14.71 -81.76 14.71 -81.76 14.87 -81.51 14.87 -81.51 14.9 -81.26 14.9 -81.26 14.87 -81.01 14.87 -81.01 14.98 -80.76 14.98 -80.76 14.98 -80.51 14.98 -80.51 15.01 -80.26 15.01 -80.26 14.87 -80.01 14.87 -80.01 14.97 -79.76 14.97 -79.76 14.88 -79.51 14.88 -79.51 14.85 -79.26 14.85 -79.26 14.85 -79.01 14.85 -79.01 14.83 -78.76 14.83 -78.76 14.73 -78.51 14.73 -78.51 14.75 -78.26 14.75 -78.26 14.75 -78.01 14.75 -78.01 14.78 -77.76 14.78 -77.76 14.66 -77.51 14.66 -77.51 14.75 -77.26 14.75 -77.26 14.71 -77.01 14.71 -77.01 14.65 -76.76 14.65 -76.76 14.69 -76.51 14.69 -76.51 14.66 -76.26 14.66 -76.26 14.57 -76.01 14.57 -76.01 14.6 -75.75 14.6 -75.75 14.54 -75.5 14.54 -75.5 14.48 -75.25 14.48 -75.25 14.39 -75 14.39 -75 14.35 -74.75 14.35 -74.75 14.3 -74.5 14.3 -74.5 14.21 -74.25 14.21 -74.25 14.02 -74 14.02 -74 13.93 -73.75 13.93 -73.75 13.92 -73.5 13.92 -73.5 14.01 -73.25 14.01 -73.25 14.11 -73 14.11 -73 14.09 -72.75 14.09 -72.75 14.15 -72.5 14.15 -72.5 14.12 -72.25 14.12 -72.25 14.04 -72 14.04 -72 14 -71.75 14 -71.75 13.94 -71.5 13.94 -71.5 13.88 -71.25 13.88 -71.25 13.75 -71 13.75 -71 13.61 -70.75 13.61 -70.75 13.5 -70.5 13.5 -70.5 13.39 -70.25 13.39 -70.25 13.27 -70 13.27 -70 13.01 -69.75 13.01 -69.75 12.81 -69.5 12.81 -69.5 12.56 -69.25 12.56 -69.25 12.26 -69 12.26 -69 11.96 -68.75 11.96 -68.75 11.79 -68.5 11.79 -68.5 11.51 -68.25 11.51 -68.25 11.07 -68 11.07 -68 10.65 -67.75 10.65 -67.75 10.17 -67.5 10.17 -67.5 9.83 -67.25 9.83 -67.25 9.34 -67 9.34 -67 8.75 -66.75 8.75 -66.75 8.33 -66.5 8.33 -66.5 7.72 -66.25 7.72 -66.25 6.94 -66 6.94 -66 6.01 -65.75 6.01 -65.75 3.69 -65.5 3.69 -65.5 -0.88 -65.25 -0.88 -65.25 -10.87 -65 -10.87 -65 -32.25 -64.75 -32.25 -64.75 -73.38 -64.49 -73.38 -64.49 -144.7 -64.24 -144.7 -64.24 -257.99 -63.99 -257.99 -63.99 -415.92 -63.74 -415.92 -63.74 -612.18 -63.49 -612.18 -63.49 -817.17 -63.24 -817.17 -63.24 -995.58 -62.99 -995.58 -62.99 -1104.15 -62.74 -1104.15 -62.74 -1119.74 -62.49 -1119.74 -62.49 -1033.09 -62.24 -1033.09 -62.24 -873.41 -61.99 -873.41 -61.99 -677.98 -61.74 -677.98 -61.74 -484.74 -61.49 -484.74 -61.49 -320.59 -61.24 -320.59 -61.24 -197.48 -60.99 -197.48 -60.99 -114.32 -60.74 -114.32 -60.74 -61.71 -60.49 -61.71 -60.49 -30.29 -60.24 -30.29 -60.24 -11.92 -59.99 -11.92 -59.99 -1.02 -59.74 -1.02 -59.74 5.51 -59.49 5.51 -59.49 9.4 -59.24 9.4 -59.24 11.7 -58.99 11.7 -58.99 13.29 -58.74 13.29 -58.74 14.08 -58.49 14.08 -58.49 14.53 -58.24 14.53 -58.24 14.86 -57.99 14.86 -57.99 15.03 -57.74 15.03 -57.74 15.01 -57.49 15.01 -57.49 15.06 -57.24 15.06 -57.24 15.04 -56.99 15.04 -56.99 14.99 -56.74 14.99 -56.74 14.95 -56.49 14.95 -56.49 15.02 -56.24 15.02 -56.24 15 -55.99 15 -55.99 14.94 -55.74 14.94 -55.74 14.98 -55.49 14.98 -55.49 14.98 -55.24 14.98 -55.24 14.99 -54.99 14.99 -54.99 15.02 -54.74 15.02 -54.74 15.1 -54.49 15.1 -54.49 15.19 -54.24 15.19 -54.24 15.15 -53.99 15.15 -53.99 15.11 -53.74 15.11 -53.74 15.17 -53.49 15.17 -53.49 15.22 -53.23 15.22 -53.23 15.19 -52.98 15.19 -52.98 14.99 -52.73 14.99 -52.73 14.99 -52.48 14.99 -52.48 14.99 -52.23 14.99 -52.23 14.99 -51.98 14.99 -51.98 14.99 -51.73 14.99 -51.73 14.99 -51.48 14.99 -51.48 14.99 -51.23 14.99 -51.23 14.99 -50.98 14.99 -50.98 14.99 -50.73 14.99 -50.73 14.99 -50.48 14.99 -50.48 14.99 -50.23 14.99 -50.23 14.99 -49.98 14.99 -49.98 14.99 -49.73 14.99 -49.73 14.99 -49.48 14.99 -49.48 14.99 -49.23 14.99 -49.23 14.99 -48.98 14.99 -48.98 14.99 -48.73 14.99 -48.73 14.99 -48.48 14.99 -48.48 14.99 -48.23 14.99 -48.23 14.99 -47.98 14.99 -47.98 14.99 -47.73 14.99 -47.73 14.99 -47.48 14.99 -47.48 14.99 -47.23 14.99 -47.23 14.99 -46.98 14.99 -46.98 14.99 -46.73 14.99 -46.73 14.99 -46.48 14.99 -46.48 14.99 -46.23 14.99 -46.23 14.99 -45.98 14.99 -45.98 14.99 -45.73 14.99 -45.73 14.99 -45.48 14.99 -45.48 14.99 -45.23 14.99 -45.23 14.99 -44.98 14.99 -44.98 14.99 -44.73 14.99 -44.73 14.99 -44.48 14.99 -44.48 14.99 -44.23 14.99 -44.23 14.99 -43.98 14.99 -43.98 14.99 -43.73 14.99 -43.73 14.99 -43.48 14.99 -43.48 14.99 -43.23 14.99 -43.23 14.99 -42.98 14.99 -42.98 14.99 -42.73 14.99 -42.73 14.99 -42.48 14.99 -42.48 14.99 -42.23 14.99 -42.23 14.99 -41.97 14.99 -41.97 14.99 -41.72 14.99 -41.72 14.99 -41.47 14.99 -41.47 14.99 -41.22 14.99 -41.22 14.99 -40.97 14.99 -40.97 14.99 -40.72 14.99 -40.72 14.99 -40.47 14.99 -40.47 14.99 -40.22 14.99 -40.22 14.99 -39.97 14.99 -39.97 14.99 -39.72 14.99 -39.72 14.99 -39.47 14.99 -39.47 14.99 -39.22 14.99 -39.22 14.99 -38.97 14.99 -38.97 14.99 -38.72 14.99 -38.72 14.99 -38.47 14.99 -38.47 14.99 -38.22 14.99 -38.22 14.99 -37.97 14.99 -37.97 14.99 -37.72 14.99 -37.72 14.99 -37.47 14.99 -37.47 14.99 -37.22 14.99 -37.22 14.99 -36.97 14.99 -36.97 14.99 -36.72 14.99 -36.72 14.99 -36.47 14.99 -36.47 14.99 -36.22 14.99 -36.22 14.99 -35.97 14.99 -35.97 14.99 -35.72 14.99 -35.72 14.99 -35.47 14.99 -35.47 14.99 -35.22 14.99 -35.22 14.99 -34.97 14.99 -34.97 14.99 -34.72 14.99 -34.72 14.99 -34.47 14.99 -34.47 14.99 -34.22 14.99 -34.22 14.99 -33.97 14.99 -33.97 14.99 -33.72 14.99 -33.72 14.99 -33.47 14.99 -33.47 14.99 -33.22 14.99 -33.22 14.99 -32.97 14.99 -32.97 14.99 -32.72 14.99 -32.72 14.99 -32.47 14.99 -32.47 14.99 -32.22 14.99 -32.22 14.99 -31.97 14.99 -31.97 14.99 -31.72 14.99 -31.72 14.99 -31.47 14.99 -31.47 14.99 -31.22 14.99 -31.22 14.99 -30.97 14.99 -30.97 14.99 -30.71 14.99 -30.71 14.99 -30.46 14.99 -30.46 14.99 -30.21 14.99 -30.21 14.99 -29.96 14.99 -29.96 14.99 -29.71 14.99 -29.71 14.99 -29.46 14.99 -29.46 14.99 -29.21 14.99 -29.21 14.99 -28.96 14.99 -28.96 14.99 -28.71 14.99 -28.71 14.99 -28.46 14.99 -28.46 14.99 -28.21 14.99 -28.21 14.99 -27.96 14.99 -27.96 14.99 -27.71 14.99 -27.71 14.99 -27.46 14.99 -27.46 14.99 -27.21 14.99 -27.21 14.99 -26.96 14.99 -26.96 14.99 -26.71 14.99 -26.71 14.99 -26.46 14.99 -26.46 14.99 -26.21 14.99 -26.21 14.99 -25.96 14.99 -25.96 14.99 -25.71 14.99 -25.71 14.99 -25.46 14.99 -25.46 14.99 -25.21 14.99 -25.21 14.99 -24.96 14.99 -24.96 14.99 -24.71 14.99 -24.71 14.99 -24.46 14.99 -24.46 14.99 -24.21 14.99 -24.21 14.99 -23.96 14.99 -23.96 14.99 -23.71 14.99 -23.71 14.99 -23.46 14.99 -23.46 14.99 -23.21 14.99 -23.21 14.99 -22.96 14.99 -22.96 14.99 -22.71 14.99 -22.71 14.99 -22.46 14.99 -22.46 14.99 -22.21 14.99 -22.21 14.99 -21.96 14.99 -21.96 14.99 -21.71 14.99 -21.71 14.99 -21.46 14.99 -21.46 14.99 -21.21 14.99 -21.21 14.99 -20.96 14.99 -20.96 14.99 -20.71 14.99 -20.71 14.99 -20.46 14.99 -20.46 14.99 -20.21 14.99 -20.21 14.99 -19.96 14.99 -19.96 14.99 -19.71 14.99 -19.71 14.99 -19.45 14.99 -19.45 14.99 -19.2 14.99 -19.2 14.99 -18.95 14.99 -18.95 14.99 -18.7 14.99 -18.7 14.99 -18.45 14.99 -18.45 14.99 -18.2 14.99 -18.2 14.99 -17.95 14.99 -17.95 14.99 -17.7 14.99 -17.7 14.99 -17.45 14.99 -17.45 14.99 -17.2 14.99 -17.2 14.99 -16.95 14.99 -16.95 14.99 -16.7 14.99 -16.7 14.99 -16.45 14.99 -16.45 14.99 -16.2 14.99 -16.2 14.99 -15.95 14.99 -15.95 14.99 -15.7 14.99 -15.7 14.99 -15.45 14.99 -15.45 14.99 -15.2 14.99 -15.2 14.99 -14.95 14.99 -14.95 14.99 -14.7 14.99 -14.7 14.99 -14.45 14.99 -14.45 14.99 -14.2 14.99 -14.2 14.99 -13.95 14.99 -13.95 14.99 -13.7 14.99 -13.7 14.99 -13.45 14.99 -13.45 14.99 -13.2 14.99 -13.2 14.99 -12.95 14.99 -12.95 14.99 -12.7 14.99 -12.7 14.99 -12.45 14.99 -12.45 14.99 -12.2 14.99 -12.2 14.99 -11.95 14.99 -11.95 14.99 -11.7 14.99 -11.7 14.99 -11.45 14.99 -11.45 14.99 -11.2 14.99 -11.2 14.99 -10.95 14.99 -10.95 14.99 -10.7 14.99 -10.7 14.99 -10.45 14.99 -10.45 14.99 -10.2 14.99 -10.2 14.99 -9.95 14.99 -9.95 14.99 -9.7 14.99 -9.7 14.99 -9.45 14.99 -9.45 14.99 -9.2 14.99 -9.2 14.99 -8.95 14.99 -8.95 14.99 -8.7 14.99 -8.7 14.99 -8.44 14.99 -8.44 14.99 -8.19 14.99 -8.19 14.99 -7.94 14.99 -7.94 14.99 -7.69 14.99 -7.69 14.99 -7.44 14.99 -7.44 14.99 -7.19 14.99 -7.19 14.99 -6.94 14.99 -6.94 14.99 -6.69 14.99 -6.69 14.99 -6.44 14.99 -6.44 14.99 -6.19 14.99 -6.19 14.99 -5.94 14.99 -5.94 14.99 -5.69 14.99 -5.69 14.99 -5.44 14.99 -5.44 14.99 -5.19 14.99 -5.19 14.99 -4.94 14.99 -4.94 14.99 -4.69 14.99 -4.69 14.99 -4.44 14.99 -4.44 14.99 -4.19 14.99 -4.19 14.99 -3.94 14.99 -3.94 14.99 -3.69 14.99 -3.69 14.99 -3.44 14.99 -3.44 14.99 -3.19 14.99 -3.19 14.99 -2.94 14.99 -2.94 14.99 -2.69 14.99 -2.69 14.99 -2.44 14.99 -2.44 14.99 -2.19 14.99 -2.19 14.99 -1.94 14.99 -1.94 14.99 -1.69 14.99 -1.69 14.99 -1.44 14.99 -1.44 14.99 -1.19 14.99 -1.19 14.99 -0.94 14.99 -0.94 14.99 -0.69 14.99 -0.69 14.99 -0.44 14.99 -0.44 14.99 -0.19 14.99 -0.19 14.99 0.06 14.99 0.06 14.99 0.31 14.99 0.31 14.99 0.56 14.99 0.56 14.99 0.81 14.99 0.81 14.99 1.06 14.99 1.06 14.99 1.31 14.99 1.31 14.99 1.56 14.99 1.56 14.99 1.81 14.99 1.81 14.99 2.06 14.99 2.06 14.99 2.31 14.99 2.31 14.99 2.56 14.99 2.56 14.99 2.82 14.99 2.82 14.99 3.07 14.99 3.07 14.99 3.32 14.99 3.32 14.99 3.57 14.99 3.57 14.99 3.82 14.99 3.82 14.99 4.07 14.99 4.07 14.99 4.32 14.99 4.32 14.99 4.57 14.99 4.57 14.99 4.82 14.99 4.82 14.99 5.07 14.99 5.07 14.99 5.32 14.99 5.32 14.99 5.57 14.99 5.57 14.99 5.82 14.99 5.82 14.99 6.07 14.99 6.07 14.99 6.32 14.99 6.32 14.99 6.57 14.99 6.57 14.99 6.82 14.99 6.82 14.99 7.07 14.99 7.07 14.99 7.32 14.99 7.32 14.99 7.57 14.99 7.57 14.99 7.82 14.99 7.82 14.99 8.07 14.99 8.07 14.99 8.32 14.99 8.32 14.99 8.57 14.99 8.57 14.99 8.82 14.99 8.82 14.99 9.07 14.99 9.07 14.99 9.32 14.99 9.32 14.99 9.57 14.99 9.57 14.99 9.82 14.99 9.82 14.99 10.07 14.99 10.07 14.99 10.32 14.99 10.32 14.99 10.57 14.99 10.57 14.99 10.82 14.99 10.82 14.99 11.07 14.99 11.07 14.99 11.32 14.99 11.32 14.99 11.57 14.99 11.57 14.99 11.82 14.99 11.82 14.99 12.07 14.99 12.07 14.99 12.32 14.99 12.32 14.99 12.57 14.99 12.57 14.99 12.82 14.99 12.82 14.99 13.07 14.99 13.07 14.99 13.32 14.99 13.32 14.99 13.57 14.99 13.57 14.99 13.82 14.99 13.82 14.99 14.08 14.99 14.08 14.99 14.33 14.99 14.33 14.99 14.58 14.99 14.58 14.99 14.83 14.99 14.83 14.99 15.08 14.99 15.08 14.99 15.33 14.99 15.33 14.99 15.58 14.99 15.58 14.99 15.83 14.99 15.83 14.99 16.08 14.99 16.08 14.99 16.33 14.99 16.33 14.99 16.58 14.99 16.58 14.99 16.83 14.99 16.83 14.99 17.08 14.99 17.08 14.99 17.33 14.99 17.33 14.99 17.58 14.99 17.58 14.99 17.83 14.99 17.83 14.99 18.08 14.99 18.08 14.99 18.33 14.99 18.33 14.99 18.58 14.99 18.58 14.99 18.83 14.99 18.83 14.99 19.08 14.99 19.08 14.99 19.33 14.99 19.33 14.99 19.58 14.99 19.58 14.99 19.83 14.99 19.83 14.99 20.08 14.99 20.08 14.99 20.33 14.99 20.33 14.99 20.58 14.99 20.58 14.99 20.83 14.99 20.83 14.99 21.08 14.99 21.08 14.99 21.33 14.99 21.33 14.99 21.58 14.99 21.58 14.99 21.83 14.99 21.83 14.99 22.08 14.99 22.08 14.99 22.33 14.99 22.33 14.99 22.58 14.99 22.58 14.99 22.83 14.99 22.83 14.99 23.08 14.99 23.08 14.99 23.33 14.99 23.33 14.99 23.58 14.99 23.58 14.99 23.83 14.99 23.83 14.99 24.08 14.99 24.08 14.99 24.33 14.99 24.33 14.99 24.58 14.99 24.58 14.99 24.83 14.99 24.83 14.99 25.08 14.99 25.08 14.99 25.34 14.99 25.34 14.99 25.59 14.99 25.59 14.99 25.84 14.99 25.84 14.99 26.09 14.99 26.09 14.99 26.34 14.99 26.34 14.99 26.59 14.99 26.59 14.99 26.84 14.99 26.84 14.99 27.09 14.99 27.09 14.99 27.34 14.99 27.34 14.99 27.59 14.99 27.59 14.99 27.84 14.99 27.84 14.99 28.09 14.99 28.09 14.99 28.34 14.99 28.34 14.99 28.59 14.99 28.59 14.99 28.84 14.99 28.84 14.99 29.09 14.99 29.09 14.99 29.34 14.99 29.34 14.99 29.59 14.99 29.59 14.99 29.84 14.99 29.84 14.99 30.09 14.99 30.09 14.99 30.34 14.99 30.34 14.99 30.59 14.99 30.59 14.99 30.84 14.99 30.84 14.99 31.09 14.99 31.09 14.99 31.34 14.99 31.34 14.99 31.59 14.99 31.59 14.99 31.84 14.99 31.84 14.99 32.09 14.99 32.09 14.99 32.34 14.99 32.34 14.99 32.59 14.99 32.59 14.99 32.84 14.99 32.84 14.99 33.09 14.99 33.09 14.99 33.34 14.99 33.34 14.99 33.59 14.99 33.59 14.99 33.84 14.99 33.84 14.99 34.09 14.99 34.09 14.99 34.34 14.99 34.34 14.99 34.59 14.99 34.59 14.99 34.84 14.99 34.84 14.99 35.09 14.99 35.09 14.99 35.34 14.99 35.34 14.99 35.59 14.99 35.59 14.99 35.84 14.99 35.84 14.99 36.09 14.99 36.09 14.99 36.34 14.99 36.34 14.99 36.6 14.99 36.6 14.99 36.85 14.99 36.85 14.99 37.1 14.99 37.1 14.99 37.35 14.99 37.35 14.99 37.6 14.99 37.6 14.99 37.85 14.99 37.85 14.99 38.1 14.99 38.1 14.99 38.35 14.99 38.35 14.99 38.6 14.99 38.6 14.99 38.85 14.99 38.85 14.99 39.1 14.99 39.1 14.99 39.35 14.99 39.35 14.99 39.6 14.99 39.6 14.99 39.85 14.99 39.85 14.99 40.1 14.99 40.1 14.99 40.35 14.99 40.35 14.99 40.6 14.99 40.6 14.99 40.85 14.99 40.85 14.99 41.1 14.99 41.1 14.99 41.35 14.99 41.35 14.99 41.6 14.99 41.6 14.99 41.85 14.99 41.85 14.99 42.1 14.99 42.1 14.99 42.35 14.99 42.35 14.99 42.6 14.99 42.6 14.99 42.85 14.99 42.85 14.99 43.1 14.99 43.1 14.99 43.35 14.99 43.35 14.99 43.6 14.99 43.6 14.99 43.85 14.99 43.85 14.99 44.1 14.99 44.1 14.99 44.35 14.99 44.35 14.99 44.6 14.99 44.6 14.99 44.85 14.99 44.85 14.99 45.1 14.99 45.1 14.99 45.35 14.99 45.35 14.99 45.6 14.99 45.6 14.99 45.85 14.99 45.85 14.99 46.1 14.99 46.1 14.99 46.35 14.99 46.35 14.99 46.6 14.99 46.6 14.99 46.85 14.99 46.85 14.99 47.1 14.99 47.1 14.99 47.35 14.99 47.35 14.99 47.6 14.99 47.6 14.99 47.86 14.99 47.86 14.99 48.11 14.99 48.11 14.99 48.36 14.99 48.36 14.99 48.61 14.99 48.61 14.99 48.86 14.99 48.86 14.99 49.11 14.99 49.11 14.99 49.36 14.99 49.36 14.99 49.61 14.99 49.61 14.99 49.86 14.99 49.86 14.99 50.11 14.99 50.11 14.99 50.36 14.99 50.36 14.99 50.61 14.99 50.61 14.99 50.86 14.99 50.86 14.99 51.11 14.99 51.11 14.99 51.36 14.99 51.36 14.99 51.61 14.99 51.61 14.99 51.86 14.99 51.86 14.99 52.11 14.99 52.11 14.99 52.36 14.99 52.36 14.99 52.61 14.99 52.61 14.99 52.86 14.99 52.86 14.99 53.11 14.99 53.11 14.99 53.36 14.99 53.36 14.99 53.61 14.99 53.61 14.99 53.86 14.99 53.86 14.99 54.11 14.99 54.11 14.99 54.36 14.99 54.36 14.99 54.61 14.99 54.61 14.99 54.86 14.99 54.86 14.99 55.11 14.99 55.11 14.99 55.36 14.99 55.36 14.99 55.61 14.99 55.61 14.99 55.86 14.99 55.86 14.99 56.11 14.99 56.11 14.99 56.36 14.99 56.36 14.99 56.61 14.99 56.61 14.99 56.86 14.99 56.86 14.99 57.11 14.99 57.11 14.99 57.36 14.99 57.36 14.99 57.61 14.99 57.61 14.99 57.86 14.99 57.86 14.99 58.11 14.99 58.11 14.99 58.36 14.99 58.36 14.99 58.61 14.99 58.61 14.99 58.86 14.99 58.86 14.99 59.12 14.99 59.12 14.99 59.37 14.99 59.37 14.99 59.62 14.99 59.62 14.99 59.87 14.99 59.87 14.99 60.12 14.99 60.12 14.99 60.37 14.99 60.37 14.99 60.62 14.99 60.62 14.99 60.87 14.99 60.87 14.99 61.12 14.99 61.12 14.99 61.37 14.99 61.37 14.99 61.62 14.99 61.62 14.99 61.87 14.99 61.87 14.99 62.12 14.99 62.12 14.99 62.37 14.99 62.37 14.99 62.62 14.99 62.62 14.99 62.87 14.99 62.87 14.99 63.12 14.99 63.12 14.99 63.37 14.99 63.37 14.99 63.62 14.99 63.62 14.99 63.87 14.99 63.87 14.99 64.12 14.99 64.12 14.99 64.37 14.99 64.37 14.99 64.62 14.99 64.62 14.99 64.87 14.99 64.87 14.99 65.12 14.99 65.12 14.99 65.37 14.99 65.37 14.99 65.62 14.99 65.62 14.99 65.87 14.99 65.87 14.99 66.12 14.99 66.12 14.99 66.37 14.99 66.37 14.99 66.62 14.99 66.62 14.99 66.87 14.99 66.87 14.99 67.12 14.99 67.12 14.99 67.37 14.99 67.37 14.99 67.62 14.99 67.62 14.99 67.87 14.99 67.87 14.99 68.12 14.99 68.12 14.99 68.37 14.99 68.37 14.99 68.62 14.99 68.62 14.99 68.87 14.99 68.87 14.99 69.12 14.99 69.12 14.99 69.37 14.99 69.37 14.99 69.62 14.99 69.62 14.99 69.87 14.99 69.87 14.99 70.13 14.99 70.13 14.99 70.38 14.99 70.38 14.99 70.63 14.99 70.63 14.99 70.88 14.99 70.88 14.99 71.13 14.99 71.13 14.99 71.38 14.99 71.38 14.99 71.63 14.99 71.63 14.99 71.88 14.99 71.88 14.99 72.13 14.99 72.13 14.99 72.38 14.99 72.38 14.99 72.63 14.99 72.63 14.99 72.88 14.99 72.88 14.99 73.13 14.99 73.13 14.99 73.38 14.99 73.38 14.99 73.63 14.99 73.63 14.99 73.88 14.99 73.88 14.99 74.13 14.99 74.13 14.99 74.38 14.99 74.38 14.99 74.63 14.99 74.63 14.99 74.88 14.99 74.88 14.99 75.13 14.99 75.13 14.99 75.38 14.99 75.38 14.99 75.63 14.99 75.63 14.99 75.88 14.99 75.88 14.99 76.13 14.99 76.13 14.99 76.38 14.99 76.38 14.99 76.63 14.99 76.63 14.99 76.88 14.99 76.88 14.99 77.13 14.99 77.13 14.99 77.38 14.99 77.38 14.99 77.63 14.99 77.63 14.99 77.88 14.99 77.88 14.99 78.13 14.99 78.13 14.99 78.38 14.99 78.38 14.99 78.63 14.99 78.63 14.99 78.88 14.99 78.88 14.99 79.13 14.99 79.13 14.99 79.38 14.99 79.38 14.99 79.63 14.99 79.63 14.99 79.88 14.99 79.88 14.99 80.13 14.99 80.13 14.99 80.38 14.99 80.38 14.99 80.63 14.99 80.63 14.99 80.88 14.99 80.88 14.99 81.13 14.99 81.13 14.99 81.39 14.99 81.39 14.99 81.64 14.99 81.64 14.99 81.89 14.99 81.89 14.99 82.14 14.99 82.14 14.99 82.39 14.99 82.39 14.99 82.64 14.99 82.64 14.99 82.89 14.99 82.89 14.99 83.14 14.99 83.14 14.99 83.39 14.99 83.39 14.99 83.64 14.99 83.64 14.99 83.89 14.99 83.89 14.99 84.14 14.99 84.14 14.99 84.39 14.99 84.39 14.99 84.64 14.99 84.64 14.99 84.89 14.99 84.89 14.99 85.14 14.99 85.14 14.99 85.39 14.99 85.39 14.99 85.64 14.99 85.64 14.99 85.89 14.99 85.89 14.99 86.14 14.99 86.14 14.99 86.39 14.99 86.39 14.99 86.64 14.99 86.64 14.99 86.89 14.99 86.89 14.99 87.14 14.99 87.14 14.99 87.39 14.99 87.39 14.99 87.64 14.99 87.64 14.99 87.89 14.99 87.89 14.99 88.14 14.99 88.14 14.99 88.39 14.99 88.39 14.99 88.64 14.99 88.64 14.99 88.89 14.99 88.89 14.99 89.14 14.99 89.14 14.99 89.39 14.99 89.39 14.99 89.64 14.99 89.64 14.99 89.89 14.99 89.89 14.99 90.14 14.99 90.14 14.99 90.39 14.99 90.39 14.99 90.64 14.99 90.64 14.99 90.89 14.99 90.89 14.99 91.14 14.99 91.14 14.99 91.39 14.99 91.39 14.99 91.64 14.99 91.64 14.99 91.89 14.99 91.89 14.99 92.14 14.99 92.14 14.99 92.39 14.99 92.39 14.99 92.65 14.99 92.65 14.99 92.9 14.99 92.9 14.99 93.15 14.99 93.15 14.99 93.4 14.99 93.4 14.99 93.65 14.99 93.65 14.99 93.9 14.99 93.9 14.99 94.15 14.99 94.15 14.99 94.4 14.99 94.4 14.99 94.65 14.99 94.65 14.99 94.9 14.99 94.9 14.99 95.15 14.99 95.15 14.99 95.4 14.99 95.4 14.99 95.65 14.99 95.65 14.99 95.9 14.99 95.9 14.99 96.15 14.99 96.15 14.99 96.4 14.99 96.4 14.99 96.65 14.99 96.65 14.99 96.9 14.99 96.9 14.99 97.15 14.99 97.15 14.99 97.4 14.99 97.4 14.99 97.65 14.99 97.65 14.99 97.9 14.99 97.9 14.99 98.15 14.99 98.15 14.99 98.4 14.99 98.4 14.99 98.65 14.99 98.65 14.99 98.9 14.99 98.9 14.99 99.15 14.99 99.15 14.99 99.4 14.99 99.4 14.99 99.65 14.99 99.65 14.99 99.9 14.99 99.9 14.99" class="primitive"/>
            </g>
          </g>
        </g>
        <g stroke-width="0.3" fill="#000000" fill-opacity="0.000" class="geometry" id="img-c38e3fb9-34">
          <g class="color_RGB{Float64}(0.06274509803921569,0.3058823529411765,0.5450980392156862)" stroke-dasharray="none" stroke="#104E8B" id="img-c38e3fb9-35">
            <g transform="translate(121.77,41.5)" id="img-c38e3fb9-36">
              <path fill="none" d="M-100.03,18.36 L -99.78 18.36 -99.78 18.36 -99.53 18.36 -99.53 18.35 -99.28 18.35 -99.28 18.36 -99.03 18.36 -99.03 18.36 -98.78 18.36 -98.78 18.36 -98.53 18.36 -98.53 18.36 -98.28 18.36 -98.28 18.36 -98.02 18.36 -98.02 18.36 -97.77 18.36 -97.77 18.36 -97.52 18.36 -97.52 18.36 -97.27 18.36 -97.27 18.36 -97.02 18.36 -97.02 18.36 -96.77 18.36 -96.77 18.35 -96.52 18.35 -96.52 18.35 -96.27 18.35 -96.27 18.33 -96.02 18.33 -96.02 18.32 -95.77 18.32 -95.77 18.29 -95.52 18.29 -95.52 18.23 -95.27 18.23 -95.27 18.12 -95.02 18.12 -95.02 17.91 -94.77 17.91 -94.77 17.54 -94.52 17.54 -94.52 16.87 -94.27 16.87 -94.27 15.78 -94.02 15.78 -94.02 14.16 -93.77 14.16 -93.77 12.39 -93.52 12.39 -93.52 10.9 -93.27 10.9 -93.27 10.3 -93.02 10.3 -93.02 10.97 -92.77 10.97 -92.77 12.28 -92.52 12.28 -92.52 13.79 -92.27 13.79 -92.27 15.11 -92.02 15.11 -92.02 15.81 -91.77 15.81 -91.77 16.11 -91.52 16.11 -91.52 16.13 -91.27 16.13 -91.27 16 -91.02 16 -91.02 15.78 -90.77 15.78 -90.77 15.58 -90.52 15.58 -90.52 15.32 -90.27 15.32 -90.27 14.95 -90.02 14.95 -90.02 14.44 -89.77 14.44 -89.77 13.62 -89.52 13.62 -89.52 12.15 -89.27 12.15 -89.27 9.53 -89.02 9.53 -89.02 4.3 -88.77 4.3 -88.77 -5.87 -88.52 -5.87 -88.52 -24.75 -88.27 -24.75 -88.27 -57.08 -88.02 -57.08 -88.02 -105.99 -87.77 -105.99 -87.77 -167.32 -87.52 -167.32 -87.52 -231.58 -87.27 -231.58 -87.27 -276.63 -87.02 -276.63 -87.02 -286.74 -86.76 -286.74 -86.76 -257.42 -86.51 -257.42 -86.51 -198.27 -86.26 -198.27 -86.26 -130.22 -86.01 -130.22 -86.01 -70.49 -85.76 -70.49 -85.76 -29.44 -85.51 -29.44 -85.51 -5.14 -85.26 -5.14 -85.26 7.21 -85.01 7.21 -85.01 12.5 -84.76 12.5 -84.76 14.6 -84.51 14.6 -84.51 15.36 -84.26 15.36 -84.26 15.55 -84.01 15.55 -84.01 15.58 -83.76 15.58 -83.76 15.51 -83.51 15.51 -83.51 15.4 -83.26 15.4 -83.26 15.24 -83.01 15.24 -83.01 15.16 -82.76 15.16 -82.76 15.02 -82.51 15.02 -82.51 14.94 -82.26 14.94 -82.26 14.88 -82.01 14.88 -82.01 14.74 -81.76 14.74 -81.76 14.82 -81.51 14.82 -81.51 14.76 -81.26 14.76 -81.26 14.63 -81.01 14.63 -81.01 14.63 -80.76 14.63 -80.76 14.53 -80.51 14.53 -80.51 14.46 -80.26 14.46 -80.26 14.23 -80.01 14.23 -80.01 14.22 -79.76 14.22 -79.76 14.04 -79.51 14.04 -79.51 13.9 -79.26 13.9 -79.26 13.79 -79.01 13.79 -79.01 13.67 -78.76 13.67 -78.76 13.47 -78.51 13.47 -78.51 13.39 -78.26 13.39 -78.26 13.28 -78.01 13.28 -78.01 13.21 -77.76 13.21 -77.76 12.99 -77.51 12.99 -77.51 12.98 -77.26 12.98 -77.26 12.83 -77.01 12.83 -77.01 12.67 -76.76 12.67 -76.76 12.62 -76.51 12.62 -76.51 12.49 -76.26 12.49 -76.26 12.3 -76.01 12.3 -76.01 12.24 -75.75 12.24 -75.75 12.08 -75.5 12.08 -75.5 11.93 -75.25 11.93 -75.25 11.74 -75 11.74 -75 11.6 -74.75 11.6 -74.75 11.45 -74.5 11.45 -74.5 11.27 -74.25 11.27 -74.25 10.99 -74 10.99 -74 10.81 -73.75 10.81 -73.75 10.7 -73.5 10.7 -73.5 10.71 -73.25 10.71 -73.25 10.73 -73 10.73 -73 10.62 -72.75 10.62 -72.75 10.6 -72.5 10.6 -72.5 10.49 -72.25 10.49 -72.25 10.33 -72 10.33 -72 10.22 -71.75 10.22 -71.75 10.09 -71.5 10.09 -71.5 9.95 -71.25 9.95 -71.25 9.75 -71 9.75 -71 9.55 -70.75 9.55 -70.75 9.37 -70.5 9.37 -70.5 9.19 -70.25 9.19 -70.25 9.02 -70 9.02 -70 8.69 -69.75 8.69 -69.75 8.44 -69.5 8.44 -69.5 8.14 -69.25 8.14 -69.25 7.78 -69 7.78 -69 7.44 -68.75 7.44 -68.75 7.22 -68.5 7.22 -68.5 6.89 -68.25 6.89 -68.25 6.41 -68 6.41 -68 5.94 -67.75 5.94 -67.75 5.42 -67.5 5.42 -67.5 5.05 -67.25 5.05 -67.25 4.53 -67 4.53 -67 3.9 -66.75 3.9 -66.75 3.45 -66.5 3.45 -66.5 2.81 -66.25 2.81 -66.25 2 -66 2 -66 1.04 -65.75 1.04 -65.75 -1.3 -65.5 -1.3 -65.5 -5.91 -65.25 -5.91 -65.25 -15.91 -65 -15.91 -65 -37.32 -64.75 -37.32 -64.75 -78.46 -64.49 -78.46 -64.49 -149.8 -64.24 -149.8 -64.24 -263.11 -63.99 -263.11 -63.99 -421.05 -63.74 -421.05 -63.74 -617.33 -63.49 -617.33 -63.49 -822.32 -63.24 -822.32 -63.24 -1000.73 -62.99 -1000.73 -62.99 -1109.29 -62.74 -1109.29 -62.74 -1124.85 -62.49 -1124.85 -62.49 -1038.13 -62.24 -1038.13 -62.24 -878.32 -61.99 -878.32 -61.99 -682.7 -61.74 -682.7 -61.74 -489.18 -61.49 -489.18 -61.49 -324.64 -61.24 -324.64 -61.24 -200.96 -60.99 -200.96 -60.99 -117.19 -60.74 -117.19 -60.74 -64.11 -60.49 -64.11 -60.49 -32.28 -60.24 -32.28 -60.24 -13.53 -59.99 -13.53 -59.99 -2.33 -59.74 -2.33 -59.74 4.4 -59.49 4.4 -59.49 8.44 -59.24 8.44 -59.24 10.85 -58.99 10.85 -58.99 12.49 -58.74 12.49 -58.74 13.28 -58.49 13.28 -58.49 13.73 -58.24 13.73 -58.24 14.05 -57.99 14.05 -57.99 14.22 -57.74 14.22 -57.74 14.18 -57.49 14.18 -57.49 14.21 -57.24 14.21 -57.24 14.17 -56.99 14.17 -56.99 14.09 -56.74 14.09 -56.74 14.03 -56.49 14.03 -56.49 14.08 -56.24 14.08 -56.24 14.04 -55.99 14.04 -55.99 13.95 -55.74 13.95 -55.74 13.97 -55.49 13.97 -55.49 13.95 -55.24 13.95 -55.24 13.93 -54.99 13.93 -54.99 13.95 -54.74 13.95 -54.74 14 -54.49 14 -54.49 14.07 -54.24 14.07 -54.24 14.01 -53.99 14.01 -53.99 14.01 -53.74 14.01 -53.74 14.09 -53.49 14.09 -53.49 14.12 -53.23 14.12 -53.23 14.07 -52.98 14.07 -52.98 14.08 -52.73 14.08 -52.73 14.12 -52.48 14.12 -52.48 13.97 -52.23 13.97 -52.23 13.95 -51.98 13.95 -51.98 13.79 -51.73 13.79 -51.73 13.61 -51.48 13.61 -51.48 13.32 -51.23 13.32 -51.23 12.98 -50.98 12.98 -50.98 12.62 -50.73 12.62 -50.73 12.12 -50.48 12.12 -50.48 11.76 -50.23 11.76 -50.23 11.44 -49.98 11.44 -49.98 11.17 -49.73 11.17 -49.73 11.12 -49.48 11.12 -49.48 11.27 -49.23 11.27 -49.23 11.64 -48.98 11.64 -48.98 12.02 -48.73 12.02 -48.73 12.42 -48.48 12.42 -48.48 12.89 -48.23 12.89 -48.23 13.24 -47.98 13.24 -47.98 13.45 -47.73 13.45 -47.73 13.53 -47.48 13.53 -47.48 13.72 -47.23 13.72 -47.23 13.68 -46.98 13.68 -46.98 13.77 -46.73 13.77 -46.73 13.75 -46.48 13.75 -46.48 13.82 -46.23 13.82 -46.23 13.76 -45.98 13.76 -45.98 13.79 -45.73 13.79 -45.73 13.78 -45.48 13.78 -45.48 13.77 -45.23 13.77 -45.23 13.67 -44.98 13.67 -44.98 13.68 -44.73 13.68 -44.73 13.74 -44.48 13.74 -44.48 13.71 -44.23 13.71 -44.23 13.76 -43.98 13.76 -43.98 13.72 -43.73 13.72 -43.73 13.69 -43.48 13.69 -43.48 13.71 -43.23 13.71 -43.23 13.71 -42.98 13.71 -42.98 13.63 -42.73 13.63 -42.73 13.68 -42.48 13.68 -42.48 13.65 -42.23 13.65 -42.23 13.62 -41.97 13.62 -41.97 13.7 -41.72 13.7 -41.72 13.69 -41.47 13.69 -41.47 13.64 -41.22 13.64 -41.22 13.66 -40.97 13.66 -40.97 13.67 -40.72 13.67 -40.72 13.68 -40.47 13.68 -40.47 13.63 -40.22 13.63 -40.22 13.61 -39.97 13.61 -39.97 13.53 -39.72 13.53 -39.72 13.66 -39.47 13.66 -39.47 13.61 -39.22 13.61 -39.22 13.64 -38.97 13.64 -38.97 13.57 -38.72 13.57 -38.72 13.59 -38.47 13.59 -38.47 13.64 -38.22 13.64 -38.22 13.59 -37.97 13.59 -37.97 13.54 -37.72 13.54 -37.72 13.65 -37.47 13.65 -37.47 13.7 -37.22 13.7 -37.22 13.61 -36.97 13.61 -36.97 13.61 -36.72 13.61 -36.72 13.57 -36.47 13.57 -36.47 13.66 -36.22 13.66 -36.22 13.65 -35.97 13.65 -35.97 13.67 -35.72 13.67 -35.72 13.51 -35.47 13.51 -35.47 13.57 -35.22 13.57 -35.22 13.63 -34.97 13.63 -34.97 13.6 -34.72 13.6 -34.72 13.59 -34.47 13.59 -34.47 13.64 -34.22 13.64 -34.22 13.67 -33.97 13.67 -33.97 13.61 -33.72 13.61 -33.72 13.57 -33.47 13.57 -33.47 13.62 -33.22 13.62 -33.22 13.63 -32.97 13.63 -32.97 13.64 -32.72 13.64 -32.72 13.7 -32.47 13.7 -32.47 13.61 -32.22 13.61 -32.22 13.63 -31.97 13.63 -31.97 13.6 -31.72 13.6 -31.72 13.63 -31.47 13.63 -31.47 13.66 -31.22 13.66 -31.22 13.69 -30.97 13.69 -30.97 13.71 -30.71 13.71 -30.71 13.68 -30.46 13.68 -30.46 13.66 -30.21 13.66 -30.21 13.72 -29.96 13.72 -29.96 13.68 -29.71 13.68 -29.71 13.66 -29.46 13.66 -29.46 13.75 -29.21 13.75 -29.21 13.64 -28.96 13.64 -28.96 13.62 -28.71 13.62 -28.71 13.61 -28.46 13.61 -28.46 13.65 -28.21 13.65 -28.21 13.55 -27.96 13.55 -27.96 13.53 -27.71 13.53 -27.71 13.38 -27.46 13.38 -27.46 13.17 -27.21 13.17 -27.21 12.92 -26.96 12.92 -26.96 12.51 -26.71 12.51 -26.71 12.14 -26.46 12.14 -26.46 11.66 -26.21 11.66 -26.21 11.24 -25.96 11.24 -25.96 10.96 -25.71 10.96 -25.71 10.72 -25.46 10.72 -25.46 10.68 -25.21 10.68 -25.21 10.95 -24.96 10.95 -24.96 11.09 -24.71 11.09 -24.71 11.51 -24.46 11.51 -24.46 11.84 -24.21 11.84 -24.21 12.34 -23.96 12.34 -23.96 12.75 -23.71 12.75 -23.71 13.08 -23.46 13.08 -23.46 13.35 -23.21 13.35 -23.21 13.5 -22.96 13.5 -22.96 13.62 -22.71 13.62 -22.71 13.81 -22.46 13.81 -22.46 13.82 -22.21 13.82 -22.21 13.9 -21.96 13.9 -21.96 13.91 -21.71 13.91 -21.71 13.95 -21.46 13.95 -21.46 13.99 -21.21 13.99 -21.21 14.03 -20.96 14.03 -20.96 13.95 -20.71 13.95 -20.71 14.02 -20.46 14.02 -20.46 14.05 -20.21 14.05 -20.21 14.02 -19.96 14.02 -19.96 14.1 -19.71 14.1 -19.71 14.05 -19.45 14.05 -19.45 14.09 -19.2 14.09 -19.2 14.12 -18.95 14.12 -18.95 14.07 -18.7 14.07 -18.7 14.07 -18.45 14.07 -18.45 14.1 -18.2 14.1 -18.2 14.07 -17.95 14.07 -17.95 14.19 -17.7 14.19 -17.7 14.19 -17.45 14.19 -17.45 14.17 -17.2 14.17 -17.2 14.17 -16.95 14.17 -16.95 14.18 -16.7 14.18 -16.7 14.17 -16.45 14.17 -16.45 14.16 -16.2 14.16 -16.2 14.14 -15.95 14.14 -15.95 14.22 -15.7 14.22 -15.7 14.25 -15.45 14.25 -15.45 14.23 -15.2 14.23 -15.2 14.27 -14.95 14.27 -14.95 14.21 -14.7 14.21 -14.7 14.27 -14.45 14.27 -14.45 14.31 -14.2 14.31 -14.2 14.34 -13.95 14.34 -13.95 14.32 -13.7 14.32 -13.7 14.32 -13.45 14.32 -13.45 14.32 -13.2 14.32 -13.2 14.32 -12.95 14.32 -12.95 14.36 -12.7 14.36 -12.7 14.35 -12.45 14.35 -12.45 14.38 -12.2 14.38 -12.2 14.36 -11.95 14.36 -11.95 14.4 -11.7 14.4 -11.7 14.31 -11.45 14.31 -11.45 14.41 -11.2 14.41 -11.2 14.41 -10.95 14.41 -10.95 14.48 -10.7 14.48 -10.7 14.35 -10.45 14.35 -10.45 14.45 -10.2 14.45 -10.2 14.43 -9.95 14.43 -9.95 14.42 -9.7 14.42 -9.7 14.52 -9.45 14.52 -9.45 14.48 -9.2 14.48 -9.2 14.45 -8.95 14.45 -8.95 14.49 -8.7 14.49 -8.7 14.48 -8.44 14.48 -8.44 14.52 -8.19 14.52 -8.19 14.57 -7.94 14.57 -7.94 14.55 -7.69 14.55 -7.69 14.5 -7.44 14.5 -7.44 14.59 -7.19 14.59 -7.19 14.55 -6.94 14.55 -6.94 14.55 -6.69 14.55 -6.69 14.57 -6.44 14.57 -6.44 14.62 -6.19 14.62 -6.19 14.56 -5.94 14.56 -5.94 14.62 -5.69 14.62 -5.69 14.61 -5.44 14.61 -5.44 14.65 -5.19 14.65 -5.19 14.66 -4.94 14.66 -4.94 14.76 -4.69 14.76 -4.69 14.66 -4.44 14.66 -4.44 14.73 -4.19 14.73 -4.19 14.75 -3.94 14.75 -3.94 14.66 -3.69 14.66 -3.69 14.75 -3.44 14.75 -3.44 14.69 -3.19 14.69 -3.19 14.68 -2.94 14.68 -2.94 14.72 -2.69 14.72 -2.69 14.78 -2.44 14.78 -2.44 14.73 -2.19 14.73 -2.19 14.81 -1.94 14.81 -1.94 14.77 -1.69 14.77 -1.69 14.8 -1.44 14.8 -1.44 14.82 -1.19 14.82 -1.19 14.82 -0.94 14.82 -0.94 14.86 -0.69 14.86 -0.69 14.83 -0.44 14.83 -0.44 14.8 -0.19 14.8 -0.19 14.84 0.06 14.84 0.06 14.88 0.31 14.88 0.31 14.84 0.56 14.84 0.56 14.88 0.81 14.88 0.81 14.91 1.06 14.91 1.06 14.88 1.31 14.88 1.31 14.91 1.56 14.91 1.56 14.88 1.81 14.88 1.81 14.97 2.06 14.97 2.06 14.94 2.31 14.94 2.31 14.92 2.56 14.92 2.56 14.99 2.82 14.99 2.82 14.95 3.07 14.95 3.07 15.06 3.32 15.06 3.32 14.94 3.57 14.94 3.57 15.02 3.82 15.02 3.82 14.98 4.07 14.98 4.07 15.02 4.32 15.02 4.32 15.05 4.57 15.05 4.57 15.04 4.82 15.04 4.82 15.04 5.07 15.04 5.07 15.08 5.32 15.08 5.32 15.07 5.57 15.07 5.57 15.09 5.82 15.09 5.82 15.06 6.07 15.06 6.07 15.02 6.32 15.02 6.32 15.12 6.57 15.12 6.57 15.12 6.82 15.12 6.82 15.14 7.07 15.14 7.07 15.15 7.32 15.15 7.32 15.2 7.57 15.2 7.57 15.11 7.82 15.11 7.82 15.17 8.07 15.17 8.07 15.11 8.32 15.11 8.32 15.17 8.57 15.17 8.57 15.22 8.82 15.22 8.82 15.18 9.07 15.18 9.07 15.2 9.32 15.2 9.32 15.24 9.57 15.24 9.57 15.2 9.82 15.2 9.82 15.26 10.07 15.26 10.07 15.26 10.32 15.26 10.32 15.28 10.57 15.28 10.57 15.26 10.82 15.26 10.82 15.3 11.07 15.3 11.07 15.33 11.32 15.33 11.32 15.28 11.57 15.28 11.57 15.3 11.82 15.3 11.82 15.31 12.07 15.31 12.07 15.35 12.32 15.35 12.32 15.29 12.57 15.29 12.57 15.34 12.82 15.34 12.82 15.33 13.07 15.33 13.07 15.37 13.32 15.37 13.32 15.34 13.57 15.34 13.57 15.34 13.82 15.34 13.82 15.37 14.08 15.37 14.08 15.32 14.33 15.32 14.33 15.36 14.58 15.36 14.58 15.39 14.83 15.39 14.83 15.35 15.08 15.35 15.08 15.42 15.33 15.42 15.33 15.37 15.58 15.37 15.58 15.38 15.83 15.38 15.83 15.45 16.08 15.45 16.08 15.42 16.33 15.42 16.33 15.38 16.58 15.38 16.58 15.43 16.83 15.43 16.83 15.46 17.08 15.46 17.08 15.44 17.33 15.44 17.33 15.48 17.58 15.48 17.58 15.5 17.83 15.5 17.83 15.56 18.08 15.56 18.08 15.53 18.33 15.53 18.33 15.53 18.58 15.53 18.58 15.56 18.83 15.56 18.83 15.56 19.08 15.56 19.08 15.53 19.33 15.53 19.33 15.6 19.58 15.6 19.58 15.58 19.83 15.58 19.83 15.58 20.08 15.58 20.08 15.58 20.33 15.58 20.33 15.63 20.58 15.63 20.58 15.58 20.83 15.58 20.83 15.57 21.08 15.57 21.08 15.66 21.33 15.66 21.33 15.61 21.58 15.61 21.58 15.56 21.83 15.56 21.83 15.6 22.08 15.6 22.08 15.65 22.33 15.65 22.33 15.65 22.58 15.65 22.58 15.67 22.83 15.67 22.83 15.69 23.08 15.69 23.08 15.66 23.33 15.66 23.33 15.66 23.58 15.66 23.58 15.71 23.83 15.71 23.83 15.69 24.08 15.69 24.08 15.7 24.33 15.7 24.33 15.72 24.58 15.72 24.58 15.71 24.83 15.71 24.83 15.7 25.08 15.7 25.08 15.72 25.34 15.72 25.34 15.75 25.59 15.75 25.59 15.77 25.84 15.77 25.84 15.78 26.09 15.78 26.09 15.73 26.34 15.73 26.34 15.74 26.59 15.74 26.59 15.75 26.84 15.75 26.84 15.78 27.09 15.78 27.09 15.78 27.34 15.78 27.34 15.77 27.59 15.77 27.59 15.78 27.84 15.78 27.84 15.8 28.09 15.8 28.09 15.83 28.34 15.83 28.34 15.81 28.59 15.81 28.59 15.8 28.84 15.8 28.84 15.78 29.09 15.78 29.09 15.86 29.34 15.86 29.34 15.77 29.59 15.77 29.59 15.83 29.84 15.83 29.84 15.88 30.09 15.88 30.09 15.87 30.34 15.87 30.34 15.81 30.59 15.81 30.59 15.91 30.84 15.91 30.84 15.85 31.09 15.85 31.09 15.87 31.34 15.87 31.34 15.9 31.59 15.9 31.59 15.9 31.84 15.9 31.84 15.94 32.09 15.94 32.09 15.98 32.34 15.98 32.34 15.91 32.59 15.91 32.59 15.92 32.84 15.92 32.84 15.94 33.09 15.94 33.09 15.94 33.34 15.94 33.34 15.9 33.59 15.9 33.59 15.98 33.84 15.98 33.84 15.94 34.09 15.94 34.09 15.96 34.34 15.96 34.34 15.96 34.59 15.96 34.59 15.95 34.84 15.95 34.84 15.96 35.09 15.96 35.09 15.97 35.34 15.97 35.34 15.94 35.59 15.94 35.59 16.03 35.84 16.03 35.84 16.02 36.09 16.02 36.09 16.01 36.34 16.01 36.34 15.97 36.6 15.97 36.6 15.99 36.85 15.99 36.85 16.06 37.1 16.06 37.1 16.08 37.35 16.08 37.35 16.02 37.6 16.02 37.6 16.06 37.85 16.06 37.85 16.05 38.1 16.05 38.1 16.08 38.35 16.08 38.35 16.16 38.6 16.16 38.6 16.09 38.85 16.09 38.85 16.1 39.1 16.1 39.1 16.06 39.35 16.06 39.35 16.14 39.6 16.14 39.6 16.1 39.85 16.1 39.85 16.11 40.1 16.11 40.1 16.12 40.35 16.12 40.35 16.08 40.6 16.08 40.6 16.17 40.85 16.17 40.85 16.15 41.1 16.15 41.1 16.16 41.35 16.16 41.35 16.14 41.6 16.14 41.6 16.17 41.85 16.17 41.85 16.19 42.1 16.19 42.1 16.17 42.35 16.17 42.35 16.2 42.6 16.2 42.6 16.25 42.85 16.25 42.85 16.19 43.1 16.19 43.1 16.18 43.35 16.18 43.35 16.22 43.6 16.22 43.6 16.21 43.85 16.21 43.85 16.26 44.1 16.26 44.1 16.25 44.35 16.25 44.35 16.26 44.6 16.26 44.6 16.27 44.85 16.27 44.85 16.28 45.1 16.28 45.1 16.22 45.35 16.22 45.35 16.26 45.6 16.26 45.6 16.27 45.85 16.27 45.85 16.27 46.1 16.27 46.1 16.3 46.35 16.3 46.35 16.26 46.6 16.26 46.6 16.25 46.85 16.25 46.85 16.31 47.1 16.31 47.1 16.28 47.35 16.28 47.35 16.33 47.6 16.33 47.6 16.31 47.86 16.31 47.86 16.28 48.11 16.28 48.11 16.27 48.36 16.27 48.36 16.32 48.61 16.32 48.61 16.33 48.86 16.33 48.86 16.33 49.11 16.33 49.11 16.36 49.36 16.36 49.36 16.37 49.61 16.37 49.61 16.35 49.86 16.35 49.86 16.37 50.11 16.37 50.11 16.35 50.36 16.35 50.36 16.41 50.61 16.41 50.61 16.4 50.86 16.4 50.86 16.35 51.11 16.35 51.11 16.37 51.36 16.37 51.36 16.37 51.61 16.37 51.61 16.36 51.86 16.36 51.86 16.39 52.11 16.39 52.11 16.42 52.36 16.42 52.36 16.43 52.61 16.43 52.61 16.4 52.86 16.4 52.86 16.44 53.11 16.44 53.11 16.46 53.36 16.46 53.36 16.47 53.61 16.47 53.61 16.47 53.86 16.47 53.86 16.47 54.11 16.47 54.11 16.47 54.36 16.47 54.36 16.43 54.61 16.43 54.61 16.4 54.86 16.4 54.86 16.46 55.11 16.46 55.11 16.47 55.36 16.47 55.36 16.5 55.61 16.5 55.61 16.48 55.86 16.48 55.86 16.49 56.11 16.49 56.11 16.49 56.36 16.49 56.36 16.51 56.61 16.51 56.61 16.5 56.86 16.5 56.86 16.52 57.11 16.52 57.11 16.49 57.36 16.49 57.36 16.48 57.61 16.48 57.61 16.47 57.86 16.47 57.86 16.48 58.11 16.48 58.11 16.42 58.36 16.42 58.36 16.53 58.61 16.53 58.61 16.45 58.86 16.45 58.86 16.41 59.12 16.41 59.12 16.46 59.37 16.46 59.37 16.41 59.62 16.41 59.62 16.35 59.87 16.35 59.87 16.41 60.12 16.41 60.12 16.45 60.37 16.45 60.37 16.41 60.62 16.41 60.62 16.45 60.87 16.45 60.87 16.43 61.12 16.43 61.12 16.46 61.37 16.46 61.37 16.46 61.62 16.46 61.62 16.52 61.87 16.52 61.87 16.53 62.12 16.53 62.12 16.56 62.37 16.56 62.37 16.56 62.62 16.56 62.62 16.59 62.87 16.59 62.87 16.57 63.12 16.57 63.12 16.6 63.37 16.6 63.37 16.6 63.62 16.6 63.62 16.65 63.87 16.65 63.87 16.7 64.12 16.7 64.12 16.69 64.37 16.69 64.37 16.63 64.62 16.63 64.62 16.66 64.87 16.66 64.87 16.68 65.12 16.68 65.12 16.69 65.37 16.69 65.37 16.73 65.62 16.73 65.62 16.64 65.87 16.64 65.87 16.7 66.12 16.7 66.12 16.7 66.37 16.7 66.37 16.7 66.62 16.7 66.62 16.7 66.87 16.7 66.87 16.68 67.12 16.68 67.12 16.7 67.37 16.7 67.37 16.7 67.62 16.7 67.62 16.7 67.87 16.7 67.87 16.72 68.12 16.72 68.12 16.71 68.37 16.71 68.37 16.7 68.62 16.7 68.62 16.76 68.87 16.76 68.87 16.72 69.12 16.72 69.12 16.71 69.37 16.71 69.37 16.76 69.62 16.76 69.62 16.78 69.87 16.78 69.87 16.72 70.13 16.72 70.13 16.75 70.38 16.75 70.38 16.75 70.63 16.75 70.63 16.77 70.88 16.77 70.88 16.75 71.13 16.75 71.13 16.74 71.38 16.74 71.38 16.73 71.63 16.73 71.63 16.79 71.88 16.79 71.88 16.8 72.13 16.8 72.13 16.78 72.38 16.78 72.38 16.8 72.63 16.8 72.63 16.8 72.88 16.8 72.88 16.76 73.13 16.76 73.13 16.77 73.38 16.77 73.38 16.8 73.63 16.8 73.63 16.79 73.88 16.79 73.88 16.8 74.13 16.8 74.13 16.83 74.38 16.83 74.38 16.75 74.63 16.75 74.63 16.81 74.88 16.81 74.88 16.78 75.13 16.78 75.13 16.8 75.38 16.8 75.38 16.84 75.63 16.84 75.63 16.84 75.88 16.84 75.88 16.83 76.13 16.83 76.13 16.82 76.38 16.82 76.38 16.8 76.63 16.8 76.63 16.85 76.88 16.85 76.88 16.81 77.13 16.81 77.13 16.84 77.38 16.84 77.38 16.86 77.63 16.86 77.63 16.86 77.88 16.86 77.88 16.86 78.13 16.86 78.13 16.86 78.38 16.86 78.38 16.9 78.63 16.9 78.63 16.9 78.88 16.9 78.88 16.87 79.13 16.87 79.13 16.91 79.38 16.91 79.38 16.87 79.63 16.87 79.63 16.88 79.88 16.88 79.88 16.9 80.13 16.9 80.13 16.92 80.38 16.92 80.38 16.91 80.63 16.91 80.63 16.91 80.88 16.91 80.88 16.89 81.13 16.89 81.13 16.95 81.39 16.95 81.39 16.91 81.64 16.91 81.64 16.92 81.89 16.92 81.89 16.94 82.14 16.94 82.14 16.96 82.39 16.96 82.39 16.91 82.64 16.91 82.64 16.93 82.89 16.93 82.89 16.95 83.14 16.95 83.14 16.92 83.39 16.92 83.39 16.94 83.64 16.94 83.64 16.93 83.89 16.93 83.89 16.94 84.14 16.94 84.14 16.97 84.39 16.97 84.39 17 84.64 17 84.64 16.94 84.89 16.94 84.89 16.96 85.14 16.96 85.14 16.96 85.39 16.96 85.39 16.97 85.64 16.97 85.64 16.98 85.89 16.98 85.89 16.97 86.14 16.97 86.14 16.96 86.39 16.96 86.39 17 86.64 17 86.64 16.95 86.89 16.95 86.89 17 87.14 17 87.14 16.98 87.39 16.98 87.39 16.92 87.64 16.92 87.64 16.97 87.89 16.97 87.89 17.01 88.14 17.01 88.14 16.99 88.39 16.99 88.39 16.99 88.64 16.99 88.64 17.03 88.89 17.03 88.89 17.01 89.14 17.01 89.14 17 89.39 17 89.39 17 89.64 17 89.64 17.02 89.89 17.02 89.89 17.06 90.14 17.06 90.14 17.07 90.39 17.07 90.39 17.05 90.64 17.05 90.64 17.06 90.89 17.06 90.89 17.01 91.14 17.01 91.14 17.05 91.39 17.05 91.39 17.05 91.64 17.05 91.64 17.05 91.89 17.05 91.89 17.08 92.14 17.08 92.14 17.07 92.39 17.07 92.39 17.08 92.65 17.08 92.65 17.06 92.9 17.06 92.9 17.08 93.15 17.08 93.15 17.08 93.4 17.08 93.4 17.1 93.65 17.1 93.65 17.11 93.9 17.11 93.9 17.05 94.15 17.05 94.15 17.14 94.4 17.14 94.4 17.11 94.65 17.11 94.65 17.14 94.9 17.14 94.9 17.12 95.15 17.12 95.15 17.13 95.4 17.13 95.4 17.16 95.65 17.16 95.65 17.15 95.9 17.15 95.9 17.09 96.15 17.09 96.15 17.16 96.4 17.16 96.4 17.1 96.65 17.1 96.65 17.15 96.9 17.15 96.9 17.11 97.15 17.11 97.15 17.14 97.4 17.14 97.4 17.1 97.65 17.1 97.65 17.17 97.9 17.17 97.9 17.13 98.15 17.13 98.15 17.13 98.4 17.13 98.4 17.13 98.65 17.13 98.65 17.15 98.9 17.15 98.9 17.16 99.15 17.16 99.15 17.1 99.4 17.1 99.4 17.15 99.65 17.15 99.65 17.15 99.9 17.15 99.9 17.14" class="primitive"/>
            </g>
          </g>
        </g>
      </g>
    </g>
  </g>
  <g class="guide ylabels" font-size="2.82" font-family="'PT Sans Caption','Helvetica Neue','Helvetica',sans-serif" fill="#6C606B" id="img-c38e3fb9-37">
    <g transform="translate(18.7,59.87)" id="img-c38e3fb9-38">
      <g class="primitive">
        <text text-anchor="end" dy="0.35em">0</text>
      </g>
    </g>
    <g transform="translate(18.7,44.7)" id="img-c38e3fb9-39">
      <g class="primitive">
        <text text-anchor="end" dy="0.35em">50000</text>
      </g>
    </g>
    <g transform="translate(18.7,29.54)" id="img-c38e3fb9-40">
      <g class="primitive">
        <text text-anchor="end" dy="0.35em">100000</text>
      </g>
    </g>
    <g transform="translate(18.7,14.38)" id="img-c38e3fb9-41">
      <g class="primitive">
        <text text-anchor="end" dy="0.35em">150000</text>
      </g>
    </g>
  </g>
  <g font-size="3.18" font-family="'PT Sans','Helvetica Neue','Helvetica',sans-serif" fill="#202020" stroke="#000000" stroke-opacity="0.000" id="img-c38e3fb9-42">
    <g transform="translate(4.18,29.29)" id="img-c38e3fb9-43">
      <g class="primitive">
        <text text-anchor="middle" dy="0.35em" transform="rotate(-90,0, 2)">Counts</text>
      </g>
    </g>
  </g>
</g>
<defs>
  <clipPath id="img-c38e3fb9-15">
    <path d="M19.7,0.71 L 223.91 0.71 223.91 61.87 19.7 61.87" />
  </clipPath>
</defs>
</svg>
