<?xml version="1.0" encoding="UTF-8"?>
<svg xmlns="http://www.w3.org/2000/svg"
     xmlns:xlink="http://www.w3.org/1999/xlink"
     xmlns:gadfly="http://www.gadflyjl.org/ns"
     version="1.2"
     width="254mm" height="76.2mm" viewBox="0 0 254 76.2"
     stroke="none"
     fill="#000000"
     stroke-width="0.3"
     font-size="3.88"
>
<defs>
  <marker id="arrow" markerWidth="15" markerHeight="7" refX="5" refY="3.5" orient="auto" markerUnits="strokeWidth">
    <path d="M0,0 L15,3.5 L0,7 z" stroke="context-stroke" fill="context-stroke"/>
  </marker>
</defs>
<g class="plotroot xscalable yscalable" id="img-83a3ab0e-1">
  <g font-size="3.18" font-family="'PT Sans','Helvetica Neue','Helvetica',sans-serif" fill="#202020" stroke="#000000" stroke-opacity="0.000" id="img-83a3ab0e-2">
    <g transform="translate(135.66,69.54)">
      <g class="primitive">
        <text text-anchor="middle" dy="0.6em">Energy (eV)</text>
      </g>
    </g>
  </g>
  <g class="guide xlabels" font-size="2.82" font-family="'PT Sans Caption','Helvetica Neue','Helvetica',sans-serif" fill="#6C606B" id="img-83a3ab0e-3">
    <g transform="translate(20.03,62.87)">
      <g class="primitive">
        <text text-anchor="middle" dy="0.6em">0</text>
      </g>
    </g>
    <g transform="translate(77.84,62.87)">
      <g class="primitive">
        <text text-anchor="middle" dy="0.6em">2000</text>
      </g>
    </g>
    <g transform="translate(135.66,62.87)">
      <g class="primitive">
        <text text-anchor="middle" dy="0.6em">4000</text>
      </g>
    </g>
    <g transform="translate(193.48,62.87)">
      <g class="primitive">
        <text text-anchor="middle" dy="0.6em">6000</text>
      </g>
    </g>
    <g transform="translate(251.29,62.87)">
      <g class="primitive">
        <text text-anchor="middle" dy="0.6em">8000</text>
      </g>
    </g>
  </g>
  <g clip-path="url(#img-83a3ab0e-4)">
    <g id="img-83a3ab0e-5">
      <g pointer-events="visible" stroke-width="0.3" fill="#FDFDF1" stroke="#202020" class="guide background" id="img-83a3ab0e-6">
        <g transform="translate(135.66,31.29)" id="img-83a3ab0e-7">
          <path d="M-117.63,-30.58 L117.63,-30.58 117.63,30.58 -117.63,30.58  z" class="primitive"/>
        </g>
      </g>
      <g class="guide ygridlines xfixed" stroke-dasharray="none" stroke-width="0.2" stroke="#FFDFDF" id="img-83a3ab0e-8">
        <g transform="translate(135.66,59.87)" id="img-83a3ab0e-9">
          <path fill="none" d="M-117.63,0 L117.63,0 " class="primitive"/>
        </g>
        <g transform="translate(135.66,45.86)" id="img-83a3ab0e-10">
          <path fill="none" d="M-117.63,0 L117.63,0 " class="primitive"/>
        </g>
        <g transform="translate(135.66,31.86)" id="img-83a3ab0e-11">
          <path fill="none" d="M-117.63,0 L117.63,0 " class="primitive"/>
        </g>
        <g transform="translate(135.66,17.85)" id="img-83a3ab0e-12">
          <path fill="none" d="M-117.63,0 L117.63,0 " class="primitive"/>
        </g>
        <g transform="translate(135.66,3.85)" id="img-83a3ab0e-13">
          <path fill="none" d="M-117.63,0 L117.63,0 " class="primitive"/>
        </g>
      </g>
      <g class="guide xgridlines yfixed" stroke-dasharray="none" stroke-width="0.2" stroke="#FFDFDF" id="img-83a3ab0e-14">
        <g transform="translate(20.03,31.29)" id="img-83a3ab0e-15">
          <path fill="none" d="M0,-30.58 L0,30.58 " class="primitive"/>
        </g>
        <g transform="translate(77.84,31.29)" id="img-83a3ab0e-16">
          <path fill="none" d="M0,-30.58 L0,30.58 " class="primitive"/>
        </g>
        <g transform="translate(135.66,31.29)" id="img-83a3ab0e-17">
          <path fill="none" d="M0,-30.58 L0,30.58 " class="primitive"/>
        </g>
        <g transform="translate(193.48,31.29)" id="img-83a3ab0e-18">
          <path fill="none" d="M0,-30.58 L0,30.58 " class="primitive"/>
        </g>
        <g transform="translate(251.29,31.29)" id="img-83a3ab0e-19">
          <path fill="none" d="M0,-30.58 L0,30.58 " class="primitive"/>
        </g>
      </g>
      <g class="plotpanel" id="img-83a3ab0e-20">
        <metadata>
          <boundingbox value="18.027222222222242mm 0.7055555555555555mm 235.26722222222224mm 61.16055555555556mm"/>
          <unitbox value="-69.18403674441063 42243.76578390304 8138.368073488822 -43671.87156780609"/>
        </metadata>
        <g stroke-width="0.3" fill="#000000" fill-opacity="0.000" class="geometry" id="img-83a3ab0e-21">
          <g class="color_RGB{N0f8}(0.718,0.0,0.008)" stroke-dasharray="none" stroke-opacity="1" stroke="#B70002" id="img-83a3ab0e-22">
            <g transform="translate(135.62,45.07)" id="img-83a3ab0e-23">
              <path fill="none" d="M-115.54,14.79 L-115.26,14.79 -115.26,14.79 -114.97,14.79 -114.97,14.79 -114.68,14.79 -114.68,14.79 -114.39,14.79 -114.39,14.79 -114.1,14.79 -114.1,14.79 -113.81,14.79 -113.81,14.79 -113.52,14.79 -113.52,14.79 -113.23,14.79 -113.23,14.79 -112.94,14.79 -112.94,14.79 -112.65,14.79 -112.65,14.79 -112.37,14.79 -112.37,14.79 -112.08,14.79 -112.08,14.79 -111.79,14.79 -111.79,14.79 -111.5,14.79 -111.5,14.79 -111.21,14.79 -111.21,14.79 -110.92,14.79 -110.92,14.79 -110.63,14.79 -110.63,14.79 -110.34,14.79 -110.34,14.79 -110.05,14.79 -110.05,14.79 -109.76,14.79 -109.76,14.79 -109.47,14.79 -109.47,14.79 -109.19,14.79 -109.19,14.77 -108.9,14.77 -108.9,14.73 -108.61,14.73 -108.61,14.62 -108.32,14.62 -108.32,14.37 -108.03,14.37 -108.03,13.9 -107.74,13.9 -107.74,13.09 -107.45,13.09 -107.45,11.89 -107.16,11.89 -107.16,10.31 -106.87,10.31 -106.87,8.46 -106.58,8.46 -106.58,6.49 -106.3,6.49 -106.3,4.62 -106.01,4.62 -106.01,2.99 -105.72,2.99 -105.72,1.73 -105.43,1.73 -105.43,0.87 -105.14,0.87 -105.14,0.35 -104.85,0.35 -104.85,0.04 -104.56,0.04 -104.56,-0.27 -104.27,-0.27 -104.27,-0.74 -103.98,-0.74 -103.98,-1.49 -103.69,-1.49 -103.69,-2.56 -103.4,-2.56 -103.4,-3.9 -103.12,-3.9 -103.12,-5.43 -102.83,-5.43 -102.83,-7.06 -102.54,-7.06 -102.54,-8.7 -102.25,-8.7 -102.25,-10.27 -101.96,-10.27 -101.96,-11.67 -101.67,-11.67 -101.67,-12.76 -101.38,-12.76 -101.38,-13.37 -101.09,-13.37 -101.09,-13.35 -100.8,-13.35 -100.8,-12.58 -100.51,-12.58 -100.51,-11.13 -100.23,-11.13 -100.23,-9.21 -99.94,-9.21 -99.94,-7.15 -99.65,-7.15 -99.65,-5.3 -99.36,-5.3 -99.36,-3.89 -99.07,-3.89 -99.07,-2.96 -98.78,-2.96 -98.78,-2.39 -98.49,-2.39 -98.49,-1.99 -98.2,-1.99 -98.2,-1.61 -97.91,-1.61 -97.91,-1.17 -97.62,-1.17 -97.62,-0.69 -97.33,-0.69 -97.33,-0.26 -97.05,-0.26 -97.05,0.03 -96.76,0.03 -96.76,0.13 -96.47,0.13 -96.47,0.02 -96.18,0.02 -96.18,-0.25 -95.89,-0.25 -95.89,-0.64 -95.6,-0.64 -95.6,-1.1 -95.31,-1.1 -95.31,-1.61 -95.02,-1.61 -95.02,-2.13 -94.73,-2.13 -94.73,-2.66 -94.44,-2.66 -94.44,-3.19 -94.16,-3.19 -94.16,-3.72 -93.87,-3.72 -93.87,-4.25 -93.58,-4.25 -93.58,-4.77 -93.29,-4.77 -93.29,-5.28 -93,-5.28 -93,-5.79 -92.71,-5.79 -92.71,-6.29 -92.42,-6.29 -92.42,-6.79 -92.13,-6.79 -92.13,-7.29 -91.84,-7.29 -91.84,-7.79 -91.55,-7.79 -91.55,-8.28 -91.27,-8.28 -91.27,-8.77 -90.98,-8.77 -90.98,-9.26 -90.69,-9.26 -90.69,-9.74 -90.4,-9.74 -90.4,-10.22 -90.11,-10.22 -90.11,-10.7 -89.82,-10.7 -89.82,-11.17 -89.53,-11.17 -89.53,-11.64 -89.24,-11.64 -89.24,-12.11 -88.95,-12.11 -88.95,-12.57 -88.66,-12.57 -88.66,-13.02 -88.37,-13.02 -88.37,-13.47 -88.09,-13.47 -88.09,-13.92 -87.8,-13.92 -87.8,-14.36 -87.51,-14.36 -87.51,-14.8 -87.22,-14.8 -87.22,-15.23 -86.93,-15.23 -86.93,-15.66 -86.64,-15.66 -86.64,-16.08 -86.35,-16.08 -86.35,-16.5 -86.06,-16.5 -86.06,-16.91 -85.77,-16.91 -85.77,-17.32 -85.48,-17.32 -85.48,-17.72 -85.2,-17.72 -85.2,-18.11 -84.91,-18.11 -84.91,-18.48 -84.62,-18.48 -84.62,-18.85 -84.33,-18.85 -84.33,-19.2 -84.04,-19.2 -84.04,-19.55 -83.75,-19.55 -83.75,-19.88 -83.46,-19.88 -83.46,-20.2 -83.17,-20.2 -83.17,-20.51 -82.88,-20.51 -82.88,-20.82 -82.59,-20.82 -82.59,-21.11 -82.3,-21.11 -82.3,-21.39 -82.02,-21.39 -82.02,-21.66 -81.73,-21.66 -81.73,-21.92 -81.44,-21.92 -81.44,-22.16 -81.15,-22.16 -81.15,-22.4 -80.86,-22.4 -80.86,-22.61 -80.57,-22.61 -80.57,-22.79 -80.28,-22.79 -80.28,-22.91 -79.99,-22.91 -79.99,-22.93 -79.7,-22.93 -79.7,-22.78 -79.41,-22.78 -79.41,-22.37 -79.13,-22.37 -79.13,-21.58 -78.84,-21.58 -78.84,-20.32 -78.55,-20.32 -78.55,-18.55 -78.26,-18.55 -78.26,-16.3 -77.97,-16.3 -77.97,-13.7 -77.68,-13.7 -77.68,-10.97 -77.39,-10.97 -77.39,-8.34 -77.1,-8.34 -77.1,-6.04 -76.81,-6.04 -76.81,-4.2 -76.52,-4.2 -76.52,-2.87 -76.23,-2.87 -76.23,-1.98 -75.95,-1.98 -75.95,-1.47 -75.66,-1.47 -75.66,-1.21 -75.37,-1.21 -75.37,-1.13 -75.08,-1.13 -75.08,-1.14 -74.79,-1.14 -74.79,-1.22 -74.5,-1.22 -74.5,-1.32 -74.21,-1.32 -74.21,-1.44 -73.92,-1.44 -73.92,-1.57 -73.63,-1.57 -73.63,-1.71 -73.34,-1.71 -73.34,-1.84 -73.06,-1.84 -73.06,-1.98 -72.77,-1.98 -72.77,-2.12 -72.48,-2.12 -72.48,-2.26 -72.19,-2.26 -72.19,-2.39 -71.9,-2.39 -71.9,-2.5 -71.61,-2.5 -71.61,-2.61 -71.32,-2.61 -71.32,-2.7 -71.03,-2.7 -71.03,-2.79 -70.74,-2.79 -70.74,-2.87 -70.45,-2.87 -70.45,-2.95 -70.16,-2.95 -70.16,-3.05 -69.88,-3.05 -69.88,-3.15 -69.59,-3.15 -69.59,-3.28 -69.3,-3.28 -69.3,-3.41 -69.01,-3.41 -69.01,-3.56 -68.72,-3.56 -68.72,-3.71 -68.43,-3.71 -68.43,-3.87 -68.14,-3.87 -68.14,-4.02 -67.85,-4.02 -67.85,-4.18 -67.56,-4.18 -67.56,-4.33 -67.27,-4.33 -67.27,-4.47 -66.99,-4.47 -66.99,-4.62 -66.7,-4.62 -66.7,-4.76 -66.41,-4.76 -66.41,-4.89 -66.12,-4.89 -66.12,-5.02 -65.83,-5.02 -65.83,-5.15 -65.54,-5.15 -65.54,-5.27 -65.25,-5.27 -65.25,-5.38 -64.96,-5.38 -64.96,-5.5 -64.67,-5.5 -64.67,-5.6 -64.38,-5.6 -64.38,-5.7 -64.1,-5.7 -64.1,-5.79 -63.81,-5.79 -63.81,-5.88 -63.52,-5.88 -63.52,-5.95 -63.23,-5.95 -63.23,-6.01 -62.94,-6.01 -62.94,-6.06 -62.65,-6.06 -62.65,-6.11 -62.36,-6.11 -62.36,-6.14 -62.07,-6.14 -62.07,-6.18 -61.78,-6.18 -61.78,-6.21 -61.49,-6.21 -61.49,-6.25 -61.2,-6.25 -61.2,-6.3 -60.92,-6.3 -60.92,-6.35 -60.63,-6.35 -60.63,-6.4 -60.34,-6.4 -60.34,-6.46 -60.05,-6.46 -60.05,-6.52 -59.76,-6.52 -59.76,-6.59 -59.47,-6.59 -59.47,-6.65 -59.18,-6.65 -59.18,-6.71 -58.89,-6.71 -58.89,-6.77 -58.6,-6.77 -58.6,-6.83 -58.31,-6.83 -58.31,-6.89 -58.03,-6.89 -58.03,-6.94 -57.74,-6.94 -57.74,-6.99 -57.45,-6.99 -57.45,-7.04 -57.16,-7.04 -57.16,-7.09 -56.87,-7.09 -56.87,-7.14 -56.58,-7.14 -56.58,-7.18 -56.29,-7.18 -56.29,-7.23 -56,-7.23 -56,-7.27 -55.71,-7.27 -55.71,-7.3 -55.42,-7.3 -55.42,-7.34 -55.13,-7.34 -55.13,-7.38 -54.85,-7.38 -54.85,-7.41 -54.56,-7.41 -54.56,-7.44 -54.27,-7.44 -54.27,-7.47 -53.98,-7.47 -53.98,-7.5 -53.69,-7.5 -53.69,-7.52 -53.4,-7.52 -53.4,-7.55 -53.11,-7.55 -53.11,-7.57 -52.82,-7.57 -52.82,-7.59 -52.53,-7.59 -52.53,-7.61 -52.24,-7.61 -52.24,-7.63 -51.96,-7.63 -51.96,-7.65 -51.67,-7.65 -51.67,-7.66 -51.38,-7.66 -51.38,-7.68 -51.09,-7.68 -51.09,-7.69 -50.8,-7.69 -50.8,-7.7 -50.51,-7.7 -50.51,-7.71 -50.22,-7.71 -50.22,-7.72 -49.93,-7.72 -49.93,-7.72 -49.64,-7.72 -49.64,-7.73 -49.35,-7.73 -49.35,-7.73 -49.06,-7.73 -49.06,-7.74 -48.78,-7.74 -48.78,-7.74 -48.49,-7.74 -48.49,-7.74 -48.2,-7.74 -48.2,-7.74 -47.91,-7.74 -47.91,-7.74 -47.62,-7.74 -47.62,-7.73 -47.33,-7.73 -47.33,-7.73 -47.04,-7.73 -47.04,-7.72 -46.75,-7.72 -46.75,-7.72 -46.46,-7.72 -46.46,-7.71 -46.17,-7.71 -46.17,-7.7 -45.89,-7.7 -45.89,-7.69 -45.6,-7.69 -45.6,-7.68 -45.31,-7.68 -45.31,-7.67 -45.02,-7.67 -45.02,-7.66 -44.73,-7.66 -44.73,-7.65 -44.44,-7.65 -44.44,-7.63 -44.15,-7.63 -44.15,-7.62 -43.86,-7.62 -43.86,-7.6 -43.57,-7.6 -43.57,-7.58 -43.28,-7.58 -43.28,-7.57 -43,-7.57 -43,-7.55 -42.71,-7.55 -42.71,-7.53 -42.42,-7.53 -42.42,-7.51 -42.13,-7.51 -42.13,-7.49 -41.84,-7.49 -41.84,-7.47 -41.55,-7.47 -41.55,-7.44 -41.26,-7.44 -41.26,-7.42 -40.97,-7.42 -40.97,-7.4 -40.68,-7.4 -40.68,-7.38 -40.39,-7.38 -40.39,-7.35 -40.1,-7.35 -40.1,-7.33 -39.82,-7.33 -39.82,-7.3 -39.53,-7.3 -39.53,-7.28 -39.24,-7.28 -39.24,-7.25 -38.95,-7.25 -38.95,-7.22 -38.66,-7.22 -38.66,-7.19 -38.37,-7.19 -38.37,-7.17 -38.08,-7.17 -38.08,-7.14 -37.79,-7.14 -37.79,-7.11 -37.5,-7.11 -37.5,-7.08 -37.21,-7.08 -37.21,-7.05 -36.93,-7.05 -36.93,-7.01 -36.64,-7.01 -36.64,-6.98 -36.35,-6.98 -36.35,-6.95 -36.06,-6.95 -36.06,-6.92 -35.77,-6.92 -35.77,-6.88 -35.48,-6.88 -35.48,-6.85 -35.19,-6.85 -35.19,-6.82 -34.9,-6.82 -34.9,-6.78 -34.61,-6.78 -34.61,-6.75 -34.32,-6.75 -34.32,-6.71 -34.03,-6.71 -34.03,-6.68 -33.75,-6.68 -33.75,-6.64 -33.46,-6.64 -33.46,-6.6 -33.17,-6.6 -33.17,-6.57 -32.88,-6.57 -32.88,-6.53 -32.59,-6.53 -32.59,-6.49 -32.3,-6.49 -32.3,-6.45 -32.01,-6.45 -32.01,-6.41 -31.72,-6.41 -31.72,-6.37 -31.43,-6.37 -31.43,-6.34 -31.14,-6.34 -31.14,-6.3 -30.86,-6.3 -30.86,-6.26 -30.57,-6.26 -30.57,-6.22 -30.28,-6.22 -30.28,-6.18 -29.99,-6.18 -29.99,-6.14 -29.7,-6.14 -29.7,-6.1 -29.41,-6.1 -29.41,-6.06 -29.12,-6.06 -29.12,-6.02 -28.83,-6.02 -28.83,-5.97 -28.54,-5.97 -28.54,-5.93 -28.25,-5.93 -28.25,-5.89 -27.96,-5.89 -27.96,-5.85 -27.68,-5.85 -27.68,-5.81 -27.39,-5.81 -27.39,-5.76 -27.1,-5.76 -27.1,-5.72 -26.81,-5.72 -26.81,-5.68 -26.52,-5.68 -26.52,-5.64 -26.23,-5.64 -26.23,-5.59 -25.94,-5.59 -25.94,-5.55 -25.65,-5.55 -25.65,-5.51 -25.36,-5.51 -25.36,-5.46 -25.07,-5.46 -25.07,-5.42 -24.79,-5.42 -24.79,-5.37 -24.5,-5.37 -24.5,-5.33 -24.21,-5.33 -24.21,-5.29 -23.92,-5.29 -23.92,-5.24 -23.63,-5.24 -23.63,-5.2 -23.34,-5.2 -23.34,-5.15 -23.05,-5.15 -23.05,-5.11 -22.76,-5.11 -22.76,-5.06 -22.47,-5.06 -22.47,-5.02 -22.18,-5.02 -22.18,-4.97 -21.89,-4.97 -21.89,-4.93 -21.61,-4.93 -21.61,-4.88 -21.32,-4.88 -21.32,-4.84 -21.03,-4.84 -21.03,-4.79 -20.74,-4.79 -20.74,-4.75 -20.45,-4.75 -20.45,-4.7 -20.16,-4.7 -20.16,-4.65 -19.87,-4.65 -19.87,-4.61 -19.58,-4.61 -19.58,-4.56 -19.29,-4.56 -19.29,-4.52 -19,-4.52 -19,-4.47 -18.72,-4.47 -18.72,-4.42 -18.43,-4.42 -18.43,-4.38 -18.14,-4.38 -18.14,-4.33 -17.85,-4.33 -17.85,-4.28 -17.56,-4.28 -17.56,-4.24 -17.27,-4.24 -17.27,-4.19 -16.98,-4.19 -16.98,-4.14 -16.69,-4.14 -16.69,-4.1 -16.4,-4.1 -16.4,-4.05 -16.11,-4.05 -16.11,-4 -15.83,-4 -15.83,-3.96 -15.54,-3.96 -15.54,-3.91 -15.25,-3.91 -15.25,-3.86 -14.96,-3.86 -14.96,-3.82 -14.67,-3.82 -14.67,-3.77 -14.38,-3.77 -14.38,-3.72 -14.09,-3.72 -14.09,-3.68 -13.8,-3.68 -13.8,-3.63 -13.51,-3.63 -13.51,-3.58 -13.22,-3.58 -13.22,-3.53 -12.93,-3.53 -12.93,-3.49 -12.65,-3.49 -12.65,-3.44 -12.36,-3.44 -12.36,-3.39 -12.07,-3.39 -12.07,-3.35 -11.78,-3.35 -11.78,-3.3 -11.49,-3.3 -11.49,-3.25 -11.2,-3.25 -11.2,-3.21 -10.91,-3.21 -10.91,-3.16 -10.62,-3.16 -10.62,-3.11 -10.33,-3.11 -10.33,-3.06 -10.04,-3.06 -10.04,-3.02 -9.76,-3.02 -9.76,-2.97 -9.47,-2.97 -9.47,-2.92 -9.18,-2.92 -9.18,-2.88 -8.89,-2.88 -8.89,-2.83 -8.6,-2.83 -8.6,-2.78 -8.31,-2.78 -8.31,-2.74 -8.02,-2.74 -8.02,-2.69 -7.73,-2.69 -7.73,-2.64 -7.44,-2.64 -7.44,-2.6 -7.15,-2.6 -7.15,-2.55 -6.86,-2.55 -6.86,-2.51 -6.58,-2.51 -6.58,-2.46 -6.29,-2.46 -6.29,-2.41 -6,-2.41 -6,-2.37 -5.71,-2.37 -5.71,-2.32 -5.42,-2.32 -5.42,-2.27 -5.13,-2.27 -5.13,-2.23 -4.84,-2.23 -4.84,-2.18 -4.55,-2.18 -4.55,-2.14 -4.26,-2.14 -4.26,-2.09 -3.97,-2.09 -3.97,-2.04 -3.69,-2.04 -3.69,-2 -3.4,-2 -3.4,-1.95 -3.11,-1.95 -3.11,-1.91 -2.82,-1.91 -2.82,-1.86 -2.53,-1.86 -2.53,-1.82 -2.24,-1.82 -2.24,-1.77 -1.95,-1.77 -1.95,-1.73 -1.66,-1.73 -1.66,-1.68 -1.37,-1.68 -1.37,-1.64 -1.08,-1.64 -1.08,-1.59 -0.79,-1.59 -0.79,-1.55 -0.51,-1.55 -0.51,-1.5 -0.22,-1.5 -0.22,-1.46 0.07,-1.46 0.07,-1.41 0.36,-1.41 0.36,-1.37 0.65,-1.37 0.65,-1.32 0.94,-1.32 0.94,-1.28 1.23,-1.28 1.23,-1.23 1.52,-1.23 1.52,-1.19 1.81,-1.19 1.81,-1.15 2.1,-1.15 2.1,-1.1 2.38,-1.1 2.38,-1.06 2.67,-1.06 2.67,-1.01 2.96,-1.01 2.96,-0.97 3.25,-0.97 3.25,-0.93 3.54,-0.93 3.54,-0.88 3.83,-0.88 3.83,-0.84 4.12,-0.84 4.12,-0.8 4.41,-0.8 4.41,-0.75 4.7,-0.75 4.7,-0.71 4.99,-0.71 4.99,-0.67 5.28,-0.67 5.28,-0.62 5.56,-0.62 5.56,-0.58 5.85,-0.58 5.85,-0.54 6.14,-0.54 6.14,-0.5 6.43,-0.5 6.43,-0.45 6.72,-0.45 6.72,-0.41 7.01,-0.41 7.01,-0.37 7.3,-0.37 7.3,-0.33 7.59,-0.33 7.59,-0.28 7.88,-0.28 7.88,-0.24 8.17,-0.24 8.17,-0.2 8.45,-0.2 8.45,-0.16 8.74,-0.16 8.74,-0.12 9.03,-0.12 9.03,-0.07 9.32,-0.07 9.32,-0.03 9.61,-0.03 9.61,0.01 9.9,0.01 9.9,0.05 10.19,0.05 10.19,0.09 10.48,0.09 10.48,0.13 10.77,0.13 10.77,0.17 11.06,0.17 11.06,0.21 11.34,0.21 11.34,0.26 11.63,0.26 11.63,0.3 11.92,0.3 11.92,0.34 12.21,0.34 12.21,0.38 12.5,0.38 12.5,0.42 12.79,0.42 12.79,0.46 13.08,0.46 13.08,0.5 13.37,0.5 13.37,0.54 13.66,0.54 13.66,0.58 13.95,0.58 13.95,0.62 14.24,0.62 14.24,0.66 14.52,0.66 14.52,0.7 14.81,0.7 14.81,0.74 15.1,0.74 15.1,0.78 15.39,0.78 15.39,0.82 15.68,0.82 15.68,0.85 15.97,0.85 15.97,0.89 16.26,0.89 16.26,0.93 16.55,0.93 16.55,0.97 16.84,0.97 16.84,1.01 17.13,1.01 17.13,1.05 17.41,1.05 17.41,1.09 17.7,1.09 17.7,1.13 17.99,1.13 17.99,1.16 18.28,1.16 18.28,1.2 18.57,1.2 18.57,1.24 18.86,1.24 18.86,1.28 19.15,1.28 19.15,1.32 19.44,1.32 19.44,1.35 19.73,1.35 19.73,1.39 20.02,1.39 20.02,1.43 20.31,1.43 20.31,1.47 20.59,1.47 20.59,1.5 20.88,1.5 20.88,1.54 21.17,1.54 21.17,1.58 21.46,1.58 21.46,1.62 21.75,1.62 21.75,1.65 22.04,1.65 22.04,1.69 22.33,1.69 22.33,1.73 22.62,1.73 22.62,1.76 22.91,1.76 22.91,1.8 23.2,1.8 23.2,1.84 23.48,1.84 23.48,1.87 23.77,1.87 23.77,1.91 24.06,1.91 24.06,1.94 24.35,1.94 24.35,1.98 24.64,1.98 24.64,2.02 24.93,2.02 24.93,2.05 25.22,2.05 25.22,2.09 25.51,2.09 25.51,2.12 25.8,2.12 25.8,2.16 26.09,2.16 26.09,2.19 26.38,2.19 26.38,2.23 26.66,2.23 26.66,2.26 26.95,2.26 26.95,2.3 27.24,2.3 27.24,2.33 27.53,2.33 27.53,2.37 27.82,2.37 27.82,2.4 28.11,2.4 28.11,2.44 28.4,2.44 28.4,2.47 28.69,2.47 28.69,2.51 28.98,2.51 28.98,2.54 29.27,2.54 29.27,2.58 29.55,2.58 29.55,2.61 29.84,2.61 29.84,2.64 30.13,2.64 30.13,2.68 30.42,2.68 30.42,2.71 30.71,2.71 30.71,2.75 31,2.75 31,2.78 31.29,2.78 31.29,2.81 31.58,2.81 31.58,2.85 31.87,2.85 31.87,2.88 32.16,2.88 32.16,2.91 32.45,2.91 32.45,2.95 32.73,2.95 32.73,2.98 33.02,2.98 33.02,3.01 33.31,3.01 33.31,3.04 33.6,3.04 33.6,3.08 33.89,3.08 33.89,3.11 34.18,3.11 34.18,3.14 34.47,3.14 34.47,3.17 34.76,3.17 34.76,3.21 35.05,3.21 35.05,3.24 35.34,3.24 35.34,3.27 35.62,3.27 35.62,3.3 35.91,3.3 35.91,3.33 36.2,3.33 36.2,3.37 36.49,3.37 36.49,3.4 36.78,3.4 36.78,3.43 37.07,3.43 37.07,3.46 37.36,3.46 37.36,3.49 37.65,3.49 37.65,3.52 37.94,3.52 37.94,3.56 38.23,3.56 38.23,3.59 38.51,3.59 38.51,3.62 38.8,3.62 38.8,3.65 39.09,3.65 39.09,3.68 39.38,3.68 39.38,3.71 39.67,3.71 39.67,3.74 39.96,3.74 39.96,3.77 40.25,3.77 40.25,3.8 40.54,3.8 40.54,3.83 40.83,3.83 40.83,3.86 41.12,3.86 41.12,3.89 41.41,3.89 41.41,3.92 41.69,3.92 41.69,3.95 41.98,3.95 41.98,3.98 42.27,3.98 42.27,4.01 42.56,4.01 42.56,4.04 42.85,4.04 42.85,4.07 43.14,4.07 43.14,4.1 43.43,4.1 43.43,4.13 43.72,4.13 43.72,4.16 44.01,4.16 44.01,4.19 44.3,4.19 44.3,4.22 44.58,4.22 44.58,4.25 44.87,4.25 44.87,4.28 45.16,4.28 45.16,4.31 45.45,4.31 45.45,4.33 45.74,4.33 45.74,4.36 46.03,4.36 46.03,4.39 46.32,4.39 46.32,4.42 46.61,4.42 46.61,4.45 46.9,4.45 46.9,4.48 47.19,4.48 47.19,4.5 47.48,4.5 47.48,4.53 47.76,4.53 47.76,4.56 48.05,4.56 48.05,4.59 48.34,4.59 48.34,4.62 48.63,4.62 48.63,4.64 48.92,4.64 48.92,4.67 49.21,4.67 49.21,4.7 49.5,4.7 49.5,4.73 49.79,4.73 49.79,4.76 50.08,4.76 50.08,4.78 50.37,4.78 50.37,4.81 50.65,4.81 50.65,4.84 50.94,4.84 50.94,4.86 51.23,4.86 51.23,4.89 51.52,4.89 51.52,4.92 51.81,4.92 51.81,4.95 52.1,4.95 52.1,4.97 52.39,4.97 52.39,5 52.68,5 52.68,5.03 52.97,5.03 52.97,5.05 53.26,5.05 53.26,5.08 53.55,5.08 53.55,5.11 53.83,5.11 53.83,5.13 54.12,5.13 54.12,5.16 54.41,5.16 54.41,5.18 54.7,5.18 54.7,5.21 54.99,5.21 54.99,5.24 55.28,5.24 55.28,5.26 55.57,5.26 55.57,5.29 55.86,5.29 55.86,5.31 56.15,5.31 56.15,5.34 56.44,5.34 56.44,5.36 56.72,5.36 56.72,5.39 57.01,5.39 57.01,5.42 57.3,5.42 57.3,5.44 57.59,5.44 57.59,5.47 57.88,5.47 57.88,5.49 58.17,5.49 58.17,5.52 58.46,5.52 58.46,5.54 58.75,5.54 58.75,5.57 59.04,5.57 59.04,5.59 59.33,5.59 59.33,5.62 59.62,5.62 59.62,5.64 59.9,5.64 59.9,5.67 60.19,5.67 60.19,5.69 60.48,5.69 60.48,5.72 60.77,5.72 60.77,5.74 61.06,5.74 61.06,5.76 61.35,5.76 61.35,5.79 61.64,5.79 61.64,5.81 61.93,5.81 61.93,5.84 62.22,5.84 62.22,5.86 62.51,5.86 62.51,5.89 62.79,5.89 62.79,5.91 63.08,5.91 63.08,5.93 63.37,5.93 63.37,5.96 63.66,5.96 63.66,5.98 63.95,5.98 63.95,6 64.24,6 64.24,6.03 64.53,6.03 64.53,6.05 64.82,6.05 64.82,6.08 65.11,6.08 65.11,6.1 65.4,6.1 65.4,6.12 65.68,6.12 65.68,6.15 65.97,6.15 65.97,6.17 66.26,6.17 66.26,6.19 66.55,6.19 66.55,6.21 66.84,6.21 66.84,6.24 67.13,6.24 67.13,6.26 67.42,6.26 67.42,6.28 67.71,6.28 67.71,6.31 68,6.31 68,6.33 68.29,6.33 68.29,6.35 68.58,6.35 68.58,6.37 68.86,6.37 68.86,6.4 69.15,6.4 69.15,6.42 69.44,6.42 69.44,6.44 69.73,6.44 69.73,6.46 70.02,6.46 70.02,6.49 70.31,6.49 70.31,6.51 70.6,6.51 70.6,6.53 70.89,6.53 70.89,6.55 71.18,6.55 71.18,6.57 71.47,6.57 71.47,6.6 71.75,6.6 71.75,6.62 72.04,6.62 72.04,6.64 72.33,6.64 72.33,6.66 72.62,6.66 72.62,6.68 72.91,6.68 72.91,6.71 73.2,6.71 73.2,6.73 73.49,6.73 73.49,6.75 73.78,6.75 73.78,6.77 74.07,6.77 74.07,6.79 74.36,6.79 74.36,6.81 74.65,6.81 74.65,6.83 74.93,6.83 74.93,6.86 75.22,6.86 75.22,6.88 75.51,6.88 75.51,6.9 75.8,6.9 75.8,6.92 76.09,6.92 76.09,6.94 76.38,6.94 76.38,6.96 76.67,6.96 76.67,6.98 76.96,6.98 76.96,7 77.25,7 77.25,7.02 77.54,7.02 77.54,7.04 77.82,7.04 77.82,7.06 78.11,7.06 78.11,7.08 78.4,7.08 78.4,7.1 78.69,7.1 78.69,7.12 78.98,7.12 78.98,7.15 79.27,7.15 79.27,7.17 79.56,7.17 79.56,7.19 79.85,7.19 79.85,7.21 80.14,7.21 80.14,7.23 80.43,7.23 80.43,7.25 80.72,7.25 80.72,7.27 81,7.27 81,7.29 81.29,7.29 81.29,7.31 81.58,7.31 81.58,7.33 81.87,7.33 81.87,7.35 82.16,7.35 82.16,7.37 82.45,7.37 82.45,7.38 82.74,7.38 82.74,7.4 83.03,7.4 83.03,7.42 83.32,7.42 83.32,7.44 83.61,7.44 83.61,7.46 83.89,7.46 83.89,7.48 84.18,7.48 84.18,7.5 84.47,7.5 84.47,7.52 84.76,7.52 84.76,7.54 85.05,7.54 85.05,7.56 85.34,7.56 85.34,7.58 85.63,7.58 85.63,7.6 85.92,7.6 85.92,7.62 86.21,7.62 86.21,7.64 86.5,7.64 86.5,7.65 86.79,7.65 86.79,7.67 87.07,7.67 87.07,7.69 87.36,7.69 87.36,7.71 87.65,7.71 87.65,7.73 87.94,7.73 87.94,7.75 88.23,7.75 88.23,7.77 88.52,7.77 88.52,7.79 88.81,7.79 88.81,7.8 89.1,7.8 89.1,7.82 89.39,7.82 89.39,7.84 89.68,7.84 89.68,7.86 89.96,7.86 89.96,7.88 90.25,7.88 90.25,7.9 90.54,7.9 90.54,7.91 90.83,7.91 90.83,7.93 91.12,7.93 91.12,7.95 91.41,7.95 91.41,7.97 91.7,7.97 91.7,7.99 91.99,7.99 91.99,8 92.28,8 92.28,8.02 92.57,8.02 92.57,8.04 92.85,8.04 92.85,8.06 93.14,8.06 93.14,8.08 93.43,8.08 93.43,8.09 93.72,8.09 93.72,8.11 94.01,8.11 94.01,8.13 94.3,8.13 94.3,8.15 94.59,8.15 94.59,8.16 94.88,8.16 94.88,8.18 95.17,8.18 95.17,8.2 95.46,8.2 95.46,8.22 95.75,8.22 95.75,8.23 96.03,8.23 96.03,8.25 96.32,8.25 96.32,8.27 96.61,8.27 96.61,8.28 96.9,8.28 96.9,8.3 97.19,8.3 97.19,8.32 97.48,8.32 97.48,8.34 97.77,8.34 97.77,8.35 98.06,8.35 98.06,8.37 98.35,8.37 98.35,8.39 98.64,8.39 98.64,8.4 98.92,8.4 98.92,8.42 99.21,8.42 99.21,8.44 99.5,8.44 99.5,8.45 99.79,8.45 99.79,8.47 100.08,8.47 100.08,8.49 100.37,8.49 100.37,8.5 100.66,8.5 100.66,8.52 100.95,8.52 100.95,8.54 101.24,8.54 101.24,8.55 101.53,8.55 101.53,8.57 101.82,8.57 101.82,8.59 102.1,8.59 102.1,8.6 102.39,8.6 102.39,8.62 102.68,8.62 102.68,8.63 102.97,8.63 102.97,8.65 103.26,8.65 103.26,8.67 103.55,8.67 103.55,8.68 103.84,8.68 103.84,8.7 104.13,8.7 104.13,8.72 104.42,8.72 104.42,8.73 104.71,8.73 104.71,8.75 104.99,8.75 104.99,8.76 105.28,8.76 105.28,8.78 105.57,8.78 105.57,8.8 105.86,8.8 105.86,8.81 106.15,8.81 106.15,8.83 106.44,8.83 106.44,8.84 106.73,8.84 106.73,8.86 107.02,8.86 107.02,8.87 107.31,8.87 107.31,8.89 107.6,8.89 107.6,8.9 107.89,8.9 107.89,8.92 108.17,8.92 108.17,8.94 108.46,8.94 108.46,8.95 108.75,8.95 108.75,8.97 109.04,8.97 109.04,8.98 109.33,8.98 109.33,9 109.62,9 109.62,9.01 109.91,9.01 109.91,9.03 110.2,9.03 110.2,9.04 110.49,9.04 110.49,9.06 110.78,9.06 110.78,9.07 111.06,9.07 111.06,9.09 111.35,9.09 111.35,9.1 111.64,9.1 111.64,9.12 111.93,9.12 111.93,9.13 112.22,9.13 112.22,9.15 112.51,9.15 112.51,9.16 112.8,9.16 112.8,9.18 113.09,9.18 113.09,9.19 113.38,9.19 113.38,9.21 113.67,9.21 113.67,9.22 113.96,9.22 113.96,9.24 114.24,9.24 114.24,9.25 114.53,9.25 114.53,9.27 114.82,9.27 114.82,9.28 115.11,9.28 115.11,9.3 115.4,9.3 115.4,9.31 " class="primitive"/>
            </g>
          </g>
        </g>
        <g stroke-width="0.3" fill="#000000" fill-opacity="0.000" class="geometry" id="img-83a3ab0e-24">
          <g class="color_RGB{N0f8}(0.063,0.306,0.545)" stroke-dasharray="none" stroke-opacity="1" stroke="#104E8B" id="img-83a3ab0e-25">
            <g transform="translate(135.62,-25.14)" id="img-83a3ab0e-26">
              <path fill="none" d="M-115.54,84.99 L-115.26,84.99 -115.26,84.99 -114.97,84.99 -114.97,84.98 -114.68,84.98 -114.68,84.98 -114.39,84.98 -114.39,84.99 -114.1,84.99 -114.1,85 -113.81,85 -113.81,85 -113.52,85 -113.52,85 -113.23,85 -113.23,85 -112.94,85 -112.94,85.01 -112.65,85.01 -112.65,85 -112.37,85 -112.37,85 -112.08,85 -112.08,84.98 -111.79,84.98 -111.79,84.97 -111.5,84.97 -111.5,84.92 -111.21,84.92 -111.21,84.84 -110.92,84.84 -110.92,84.75 -110.63,84.75 -110.63,84.53 -110.34,84.53 -110.34,84.21 -110.05,84.21 -110.05,83.68 -109.76,83.68 -109.76,82.57 -109.47,82.57 -109.47,80.33 -109.19,80.33 -109.19,76.3 -108.9,76.3 -108.9,69.5 -108.61,69.5 -108.61,59.72 -108.32,59.72 -108.32,48.83 -108.03,48.83 -108.03,39.96 -107.74,39.96 -107.74,37.21 -107.45,37.21 -107.45,40.7 -107.16,40.7 -107.16,49.08 -106.87,49.08 -106.87,58.53 -106.58,58.53 -106.58,66.3 -106.3,66.3 -106.3,70.81 -106.01,70.81 -106.01,72.46 -105.72,72.46 -105.72,72.48 -105.43,72.48 -105.43,70.69 -105.14,70.69 -105.14,68.8 -104.85,68.8 -104.85,66.83 -104.56,66.83 -104.56,65.17 -104.27,65.17 -104.27,63.68 -103.98,63.68 -103.98,62.55 -103.69,62.55 -103.69,59.75 -103.4,59.75 -103.4,55.23 -103.12,55.23 -103.12,44.96 -102.83,44.96 -102.83,24.69 -102.54,24.69 -102.54,-17.37 -102.25,-17.37 -102.25,-95.02 -101.96,-95.02 -101.96,-226.35 -101.67,-226.35 -101.67,-426.56 -101.38,-426.56 -101.38,-684.59 -101.09,-684.59 -101.09,-950.06 -100.8,-950.06 -100.8,-1144.02 -100.51,-1144.02 -100.51,-1192.66 -100.23,-1192.66 -100.23,-1075.23 -99.94,-1075.23 -99.94,-830.7 -99.65,-830.7 -99.65,-545.63 -99.36,-545.63 -99.36,-299.08 -99.07,-299.08 -99.07,-122.77 -98.78,-122.77 -98.78,-18.41 -98.49,-18.41 -98.49,34.57 -98.2,34.57 -98.2,57.46 -97.91,57.46 -97.91,66.33 -97.62,66.33 -97.62,69.31 -97.33,69.31 -97.33,69.82 -97.05,69.82 -97.05,69.69 -96.76,69.69 -96.76,68.9 -96.47,68.9 -96.47,68.13 -96.18,68.13 -96.18,67.2 -95.89,67.2 -95.89,66.2 -95.6,66.2 -95.6,66.03 -95.31,66.03 -95.31,65.55 -95.02,65.55 -95.02,66 -94.73,66 -94.73,65.95 -94.44,65.95 -94.44,66.16 -94.16,66.16 -94.16,66.08 -93.87,66.08 -93.87,65.96 -93.58,65.96 -93.58,65.74 -93.29,65.74 -93.29,64.99 -93,64.99 -93,64.52 -92.71,64.52 -92.71,63.91 -92.42,63.91 -92.42,63.32 -92.13,63.32 -92.13,62.23 -91.84,62.23 -91.84,61.39 -91.55,61.39 -91.55,60.7 -91.27,60.7 -91.27,60.36 -90.98,60.36 -90.98,59.44 -90.69,59.44 -90.69,58.36 -90.4,58.36 -90.4,58.01 -90.11,58.01 -90.11,57.04 -89.82,57.04 -89.82,56.26 -89.53,56.26 -89.53,55.54 -89.24,55.54 -89.24,54.49 -88.95,54.49 -88.95,53.19 -88.66,53.19 -88.66,52.53 -88.37,52.53 -88.37,51.63 -88.09,51.63 -88.09,50.43 -87.8,50.43 -87.8,49.13 -87.51,49.13 -87.51,47.74 -87.22,47.74 -87.22,46.58 -86.93,46.58 -86.93,45.05 -86.64,45.05 -86.64,42.99 -86.35,42.99 -86.35,41.25 -86.06,41.25 -86.06,38.57 -85.77,38.57 -85.77,36.13 -85.48,36.13 -85.48,33.95 -85.2,33.95 -85.2,31.23 -84.91,31.23 -84.91,28.44 -84.62,28.44 -84.62,26.12 -84.33,26.12 -84.33,22.81 -84.04,22.81 -84.04,19.19 -83.75,19.19 -83.75,15.48 -83.46,15.48 -83.46,10.12 -83.17,10.12 -83.17,4.4 -82.88,4.4 -82.88,-4 -82.59,-4 -82.59,-18.56 -82.3,-18.56 -82.3,-44.2 -82.02,-44.2 -82.02,-96.1 -81.73,-96.1 -81.73,-205.78 -81.44,-205.78 -81.44,-418.72 -81.15,-418.72 -81.15,-795.45 -80.86,-795.45 -80.86,-1399.51 -80.57,-1399.51 -80.57,-2251.52 -80.28,-2251.52 -80.28,-3284.92 -79.99,-3284.92 -79.99,-4347.85 -79.7,-4347.85 -79.7,-5204.69 -79.41,-5204.69 -79.41,-5631.05 -79.13,-5631.05 -79.13,-5517.65 -78.84,-5517.65 -78.84,-4889.75 -78.55,-4889.75 -78.55,-3938.8 -78.26,-3938.8 -78.26,-2875.12 -77.97,-2875.12 -77.97,-1917.73 -77.68,-1917.73 -77.68,-1162.33 -77.39,-1162.33 -77.39,-639.86 -77.1,-639.86 -77.1,-314.48 -76.81,-314.48 -76.81,-129.5 -76.52,-129.5 -76.52,-31.22 -76.23,-31.22 -76.23,18.1 -75.95,18.1 -75.95,42.11 -75.66,42.11 -75.66,53.53 -75.37,53.53 -75.37,59.94 -75.08,59.94 -75.08,63.13 -74.79,63.13 -74.79,65.18 -74.5,65.18 -74.5,66.2 -74.21,66.2 -74.21,66.84 -73.92,66.84 -73.92,66.78 -73.63,66.78 -73.63,66.75 -73.34,66.75 -73.34,66.91 -73.06,66.91 -73.06,66.46 -72.77,66.46 -72.77,66.45 -72.48,66.45 -72.48,66.37 -72.19,66.37 -72.19,66.15 -71.9,66.15 -71.9,66.37 -71.61,66.37 -71.61,66.23 -71.32,66.23 -71.32,66.62 -71.03,66.62 -71.03,66.68 -70.74,66.68 -70.74,66.92 -70.45,66.92 -70.45,67.3 -70.16,67.3 -70.16,67.38 -69.88,67.38 -69.88,67.51 -69.59,67.51 -69.59,67.53 -69.3,67.53 -69.3,67.59 -69.01,67.59 -69.01,67.39 -68.72,67.39 -68.72,66.95 -68.43,66.95 -68.43,66.98 -68.14,66.98 -68.14,66.71 -67.85,66.71 -67.85,66.44 -67.56,66.44 -67.56,66.27 -67.27,66.27 -67.27,65.73 -66.99,65.73 -66.99,65.18 -66.7,65.18 -66.7,64.42 -66.41,64.42 -66.41,63.25 -66.12,63.25 -66.12,61.33 -65.83,61.33 -65.83,59.9 -65.54,59.9 -65.54,57.9 -65.25,57.9 -65.25,55.39 -64.96,55.39 -64.96,53.52 -64.67,53.52 -64.67,51.83 -64.38,51.83 -64.38,51.02 -64.1,51.02 -64.1,51.59 -63.81,51.59 -63.81,52.68 -63.52,52.68 -63.52,54.52 -63.23,54.52 -63.23,56.4 -62.94,56.4 -62.94,58.93 -62.65,58.93 -62.65,60.76 -62.36,60.76 -62.36,62.1 -62.07,62.1 -62.07,63.33 -61.78,63.33 -61.78,63.99 -61.49,63.99 -61.49,64.46 -61.2,64.46 -61.2,64.52 -60.92,64.52 -60.92,64.93 -60.63,64.93 -60.63,65.05 -60.34,65.05 -60.34,64.81 -60.05,64.81 -60.05,64.67 -59.76,64.67 -59.76,64.62 -59.47,64.62 -59.47,65.05 -59.18,65.05 -59.18,64.4 -58.89,64.4 -58.89,64.43 -58.6,64.43 -58.6,64.17 -58.31,64.17 -58.31,64.18 -58.03,64.18 -58.03,64.31 -57.74,64.31 -57.74,63.85 -57.45,63.85 -57.45,63.75 -57.16,63.75 -57.16,63.92 -56.87,63.92 -56.87,64 -56.58,64 -56.58,63.99 -56.29,63.99 -56.29,63.55 -56,63.55 -56,63.47 -55.71,63.47 -55.71,63.47 -55.42,63.47 -55.42,63.48 -55.13,63.48 -55.13,63.09 -54.85,63.09 -54.85,63.72 -54.56,63.72 -54.56,63.07 -54.27,63.07 -54.27,63.18 -53.98,63.18 -53.98,63.07 -53.69,63.07 -53.69,62.98 -53.4,62.98 -53.4,62.91 -53.11,62.91 -53.11,63.13 -52.82,63.13 -52.82,63.07 -52.53,63.07 -52.53,62.94 -52.24,62.94 -52.24,63.25 -51.96,63.25 -51.96,63.12 -51.67,63.12 -51.67,62.77 -51.38,62.77 -51.38,62.69 -51.09,62.69 -51.09,62.76 -50.8,62.76 -50.8,62.85 -50.51,62.85 -50.51,62.86 -50.22,62.86 -50.22,62.51 -49.93,62.51 -49.93,62.49 -49.64,62.49 -49.64,62.54 -49.35,62.54 -49.35,62.55 -49.06,62.55 -49.06,62.21 -48.78,62.21 -48.78,62.31 -48.49,62.31 -48.49,62.16 -48.2,62.16 -48.2,61.91 -47.91,61.91 -47.91,62.17 -47.62,62.17 -47.62,62.12 -47.33,62.12 -47.33,62 -47.04,62 -47.04,61.87 -46.75,61.87 -46.75,61.79 -46.46,61.79 -46.46,62.05 -46.17,62.05 -46.17,61.72 -45.89,61.72 -45.89,61.35 -45.6,61.35 -45.6,60.58 -45.31,60.58 -45.31,59.94 -45.02,59.94 -45.02,58.4 -44.73,58.4 -44.73,56.64 -44.44,56.64 -44.44,53.98 -44.15,53.98 -44.15,52.07 -43.86,52.07 -43.86,49.54 -43.57,49.54 -43.57,47.29 -43.28,47.29 -43.28,46.02 -43,46.02 -43,45.41 -42.71,45.41 -42.71,46.18 -42.42,46.18 -42.42,47.76 -42.13,47.76 -42.13,49.53 -41.84,49.53 -41.84,51.47 -41.55,51.47 -41.55,54.14 -41.26,54.14 -41.26,56.51 -40.97,56.51 -40.97,58.11 -40.68,58.11 -40.68,59.9 -40.39,59.9 -40.39,60.85 -40.1,60.85 -40.1,61.28 -39.82,61.28 -39.82,61.9 -39.53,61.9 -39.53,62.27 -39.24,62.27 -39.24,61.84 -38.95,61.84 -38.95,62.41 -38.66,62.41 -38.66,62.45 -38.37,62.45 -38.37,62.21 -38.08,62.21 -38.08,62.26 -37.79,62.26 -37.79,62.46 -37.5,62.46 -37.5,62.64 -37.21,62.64 -37.21,62.5 -36.93,62.5 -36.93,62.68 -36.64,62.68 -36.64,62.63 -36.35,62.63 -36.35,62.85 -36.06,62.85 -36.06,63.06 -35.77,63.06 -35.77,62.78 -35.48,62.78 -35.48,63.15 -35.19,63.15 -35.19,63.11 -34.9,63.11 -34.9,63.04 -34.61,63.04 -34.61,62.84 -34.32,62.84 -34.32,63.17 -34.03,63.17 -34.03,63.18 -33.75,63.18 -33.75,62.97 -33.46,62.97 -33.46,63.38 -33.17,63.38 -33.17,63.16 -32.88,63.16 -32.88,63.02 -32.59,63.02 -32.59,63.06 -32.3,63.06 -32.3,63.52 -32.01,63.52 -32.01,63.47 -31.72,63.47 -31.72,63.67 -31.43,63.67 -31.43,63.73 -31.14,63.73 -31.14,63.26 -30.86,63.26 -30.86,63.59 -30.57,63.59 -30.57,63.86 -30.28,63.86 -30.28,63.51 -29.99,63.51 -29.99,63.79 -29.7,63.79 -29.7,63.67 -29.41,63.67 -29.41,63.41 -29.12,63.41 -29.12,63.77 -28.83,63.77 -28.83,63.65 -28.54,63.65 -28.54,64.04 -28.25,64.04 -28.25,64.04 -27.96,64.04 -27.96,63.8 -27.68,63.8 -27.68,64.13 -27.39,64.13 -27.39,64.02 -27.1,64.02 -27.1,63.85 -26.81,63.85 -26.81,63.96 -26.52,63.96 -26.52,64.36 -26.23,64.36 -26.23,64.27 -25.94,64.27 -25.94,64.41 -25.65,64.41 -25.65,64.46 -25.36,64.46 -25.36,64.34 -25.07,64.34 -25.07,64.4 -24.79,64.4 -24.79,64.08 -24.5,64.08 -24.5,65.03 -24.21,65.03 -24.21,64.94 -23.92,64.94 -23.92,64.77 -23.63,64.77 -23.63,64.93 -23.34,64.93 -23.34,64.86 -23.05,64.86 -23.05,65.12 -22.76,65.12 -22.76,64.82 -22.47,64.82 -22.47,64.86 -22.18,64.86 -22.18,64.85 -21.89,64.85 -21.89,65.14 -21.61,65.14 -21.61,64.87 -21.32,64.87 -21.32,65.29 -21.03,65.29 -21.03,65.21 -20.74,65.21 -20.74,64.98 -20.45,64.98 -20.45,65.28 -20.16,65.28 -20.16,65.62 -19.87,65.62 -19.87,65.59 -19.58,65.59 -19.58,65.36 -19.29,65.36 -19.29,65.59 -19,65.59 -19,65.73 -18.72,65.73 -18.72,65.77 -18.43,65.77 -18.43,65.65 -18.14,65.65 -18.14,65.98 -17.85,65.98 -17.85,65.72 -17.56,65.72 -17.56,65.71 -17.27,65.71 -17.27,65.9 -16.98,65.9 -16.98,65.98 -16.69,65.98 -16.69,66.08 -16.4,66.08 -16.4,65.83 -16.11,65.83 -16.11,66.19 -15.83,66.19 -15.83,66.1 -15.54,66.1 -15.54,66.22 -15.25,66.22 -15.25,66.24 -14.96,66.24 -14.96,66.2 -14.67,66.2 -14.67,66.28 -14.38,66.28 -14.38,66.18 -14.09,66.18 -14.09,66.49 -13.8,66.49 -13.8,66.51 -13.51,66.51 -13.51,66.27 -13.22,66.27 -13.22,66.37 -12.93,66.37 -12.93,66.46 -12.65,66.46 -12.65,66.58 -12.36,66.58 -12.36,66.46 -12.07,66.46 -12.07,66.63 -11.78,66.63 -11.78,66.68 -11.49,66.68 -11.49,66.31 -11.2,66.31 -11.2,66.46 -10.91,66.46 -10.91,66.8 -10.62,66.8 -10.62,66.7 -10.33,66.7 -10.33,66.42 -10.04,66.42 -10.04,66.54 -9.76,66.54 -9.76,66.25 -9.47,66.25 -9.47,66.42 -9.18,66.42 -9.18,66.34 -8.89,66.34 -8.89,66.2 -8.6,66.2 -8.6,66 -8.31,66 -8.31,66.54 -8.02,66.54 -8.02,66.43 -7.73,66.43 -7.73,66.62 -7.44,66.62 -7.44,66.88 -7.15,66.88 -7.15,66.99 -6.86,66.99 -6.86,67.01 -6.58,67.01 -6.58,67.54 -6.29,67.54 -6.29,67.72 -6,67.72 -6,67.67 -5.71,67.67 -5.71,67.46 -5.42,67.46 -5.42,67.61 -5.13,67.61 -5.13,67.92 -4.84,67.92 -4.84,67.85 -4.55,67.85 -4.55,67.88 -4.26,67.88 -4.26,67.95 -3.97,67.95 -3.97,68.07 -3.69,68.07 -3.69,68.03 -3.4,68.03 -3.4,67.95 -3.11,67.95 -3.11,68.27 -2.82,68.27 -2.82,68.07 -2.53,68.07 -2.53,67.98 -2.24,67.98 -2.24,68.32 -1.95,68.32 -1.95,68.17 -1.66,68.17 -1.66,68.52 -1.37,68.52 -1.37,68.31 -1.08,68.31 -1.08,68.46 -0.79,68.46 -0.79,68.22 -0.51,68.22 -0.51,68.63 -0.22,68.63 -0.22,68.53 0.07,68.53 0.07,68.85 0.36,68.85 0.36,68.5 0.65,68.5 0.65,68.45 0.94,68.45 0.94,68.5 1.23,68.5 1.23,68.8 1.52,68.8 1.52,68.7 1.81,68.7 1.81,69.21 2.1,69.21 2.1,68.94 2.38,68.94 2.38,68.81 2.67,68.81 2.67,69.26 2.96,69.26 2.96,69.07 3.25,69.07 3.25,69.27 3.54,69.27 3.54,69.29 3.83,69.29 3.83,69.33 4.12,69.33 4.12,69.42 4.41,69.42 4.41,69.36 4.7,69.36 4.7,69.44 4.99,69.44 4.99,69.64 5.28,69.64 5.28,69.68 5.56,69.68 5.56,69.65 5.85,69.65 5.85,69.45 6.14,69.45 6.14,69.51 6.43,69.51 6.43,69.79 6.72,69.79 6.72,69.86 7.01,69.86 7.01,69.56 7.3,69.56 7.3,69.84 7.59,69.84 7.59,69.89 7.88,69.89 7.88,69.9 8.17,69.9 8.17,69.9 8.45,69.9 8.45,69.97 8.74,69.97 8.74,70.01 9.03,70.01 9.03,69.96 9.32,69.96 9.32,70.37 9.61,70.37 9.61,70.38 9.9,70.38 9.9,70.43 10.19,70.43 10.19,70.46 10.48,70.46 10.48,70.49 10.77,70.49 10.77,70.48 11.06,70.48 11.06,70.35 11.34,70.35 11.34,70.27 11.63,70.27 11.63,70.59 11.92,70.59 11.92,70.76 12.21,70.76 12.21,70.81 12.5,70.81 12.5,70.56 12.79,70.56 12.79,70.76 13.08,70.76 13.08,70.82 13.37,70.82 13.37,70.76 13.66,70.76 13.66,70.89 13.95,70.89 13.95,70.88 14.24,70.88 14.24,71.02 14.52,71.02 14.52,70.94 14.81,70.94 14.81,71.15 15.1,71.15 15.1,70.78 15.39,70.78 15.39,71.1 15.68,71.1 15.68,70.99 15.97,70.99 15.97,71.09 16.26,71.09 16.26,71.25 16.55,71.25 16.55,71.25 16.84,71.25 16.84,71.34 17.13,71.34 17.13,71.36 17.41,71.36 17.41,71.3 17.7,71.3 17.7,71.46 17.99,71.46 17.99,71.29 18.28,71.29 18.28,71.59 18.57,71.59 18.57,71.51 18.86,71.51 18.86,71.33 19.15,71.33 19.15,71.48 19.44,71.48 19.44,71.49 19.73,71.49 19.73,71.64 20.02,71.64 20.02,71.55 20.31,71.55 20.31,71.57 20.59,71.57 20.59,71.8 20.88,71.8 20.88,72.02 21.17,72.02 21.17,71.72 21.46,71.72 21.46,72.1 21.75,72.1 21.75,71.94 22.04,71.94 22.04,71.95 22.33,71.95 22.33,71.91 22.62,71.91 22.62,72.09 22.91,72.09 22.91,71.81 23.2,71.81 23.2,72.08 23.48,72.08 23.48,72.04 23.77,72.04 23.77,72.19 24.06,72.19 24.06,72.37 24.35,72.37 24.35,72.33 24.64,72.33 24.64,72.25 24.93,72.25 24.93,72.25 25.22,72.25 25.22,72.3 25.51,72.3 25.51,72.43 25.8,72.43 25.8,72.39 26.09,72.39 26.09,72.51 26.38,72.51 26.38,72.34 26.66,72.34 26.66,72.55 26.95,72.55 26.95,72.44 27.24,72.44 27.24,72.23 27.53,72.23 27.53,72.47 27.82,72.47 27.82,72.56 28.11,72.56 28.11,72.42 28.4,72.42 28.4,72.44 28.69,72.44 28.69,72.65 28.98,72.65 28.98,72.95 29.27,72.95 29.27,72.76 29.55,72.76 29.55,72.7 29.84,72.7 29.84,72.88 30.13,72.88 30.13,73.03 30.42,73.03 30.42,72.88 30.71,72.88 30.71,73.02 31,73.02 31,72.89 31.29,72.89 31.29,73.03 31.58,73.03 31.58,72.95 31.87,72.95 31.87,73.05 32.16,73.05 32.16,73.18 32.45,73.18 32.45,72.95 32.73,72.95 32.73,73.07 33.02,73.07 33.02,73.36 33.31,73.36 33.31,73.3 33.6,73.3 33.6,73.22 33.89,73.22 33.89,73.23 34.18,73.23 34.18,73.12 34.47,73.12 34.47,73.34 34.76,73.34 34.76,73.27 35.05,73.27 35.05,73.44 35.34,73.44 35.34,73.57 35.62,73.57 35.62,73.75 35.91,73.75 35.91,73.66 36.2,73.66 36.2,73.68 36.49,73.68 36.49,73.91 36.78,73.91 36.78,73.65 37.07,73.65 37.07,73.75 37.36,73.75 37.36,73.68 37.65,73.68 37.65,73.84 37.94,73.84 37.94,73.5 38.23,73.5 38.23,73.93 38.51,73.93 38.51,73.71 38.8,73.71 38.8,73.99 39.09,73.99 39.09,73.87 39.38,73.87 39.38,73.67 39.67,73.67 39.67,73.64 39.96,73.64 39.96,73.69 40.25,73.69 40.25,73.8 40.54,73.8 40.54,74.12 40.83,74.12 40.83,73.66 41.12,73.66 41.12,74.05 41.41,74.05 41.41,73.72 41.69,73.72 41.69,74.06 41.98,74.06 41.98,74.04 42.27,74.04 42.27,73.89 42.56,73.89 42.56,74.08 42.85,74.08 42.85,74.14 43.14,74.14 43.14,74.3 43.43,74.3 43.43,74.24 43.72,74.24 43.72,74.36 44.01,74.36 44.01,74.57 44.3,74.57 44.3,74.4 44.58,74.4 44.58,74.56 44.87,74.56 44.87,74.78 45.16,74.78 45.16,74.44 45.45,74.44 45.45,74.52 45.74,74.52 45.74,74.74 46.03,74.74 46.03,74.74 46.32,74.74 46.32,74.77 46.61,74.77 46.61,74.7 46.9,74.7 46.9,74.86 47.19,74.86 47.19,74.97 47.48,74.97 47.48,74.95 47.76,74.95 47.76,74.59 48.05,74.59 48.05,74.87 48.34,74.87 48.34,74.94 48.63,74.94 48.63,74.87 48.92,74.87 48.92,75.06 49.21,75.06 49.21,75.06 49.5,75.06 49.5,74.94 49.79,74.94 49.79,75.17 50.08,75.17 50.08,75.02 50.37,75.02 50.37,75.09 50.65,75.09 50.65,75.09 50.94,75.09 50.94,75.11 51.23,75.11 51.23,75.02 51.52,75.02 51.52,75.14 51.81,75.14 51.81,75.13 52.1,75.13 52.1,75.3 52.39,75.3 52.39,75.39 52.68,75.39 52.68,75.35 52.97,75.35 52.97,75.25 53.26,75.25 53.26,75.49 53.55,75.49 53.55,75.28 53.83,75.28 53.83,75.4 54.12,75.4 54.12,75.16 54.41,75.16 54.41,75.53 54.7,75.53 54.7,75.52 54.99,75.52 54.99,75.53 55.28,75.53 55.28,75.56 55.57,75.56 55.57,75.51 55.86,75.51 55.86,75.38 56.15,75.38 56.15,75.66 56.44,75.66 56.44,75.71 56.72,75.71 56.72,75.62 57.01,75.62 57.01,75.57 57.3,75.57 57.3,75.78 57.59,75.78 57.59,75.55 57.88,75.55 57.88,75.83 58.17,75.83 58.17,75.81 58.46,75.81 58.46,75.93 58.75,75.93 58.75,75.92 59.04,75.92 59.04,75.81 59.33,75.81 59.33,75.96 59.62,75.96 59.62,75.96 59.9,75.96 59.9,76.16 60.19,76.16 60.19,76.15 60.48,76.15 60.48,75.92 60.77,75.92 60.77,75.93 61.06,75.93 61.06,76.11 61.35,76.11 61.35,76.27 61.64,76.27 61.64,76.03 61.93,76.03 61.93,76.06 62.22,76.06 62.22,76.26 62.51,76.26 62.51,76.14 62.79,76.14 62.79,76.12 63.08,76.12 63.08,76.21 63.37,76.21 63.37,76.13 63.66,76.13 63.66,76.34 63.95,76.34 63.95,76.21 64.24,76.21 64.24,76.29 64.53,76.29 64.53,76.32 64.82,76.32 64.82,76.43 65.11,76.43 65.11,76.21 65.4,76.21 65.4,76.45 65.68,76.45 65.68,76.41 65.97,76.41 65.97,76.08 66.26,76.08 66.26,76.23 66.55,76.23 66.55,76.25 66.84,76.25 66.84,76.04 67.13,76.04 67.13,76.31 67.42,76.31 67.42,76.07 67.71,76.07 67.71,76.03 68,76.03 68,75.97 68.29,75.97 68.29,75.98 68.58,75.98 68.58,75.75 68.86,75.75 68.86,76.03 69.15,76.03 69.15,75.9 69.44,75.9 69.44,76.02 69.73,76.02 69.73,75.95 70.02,75.95 70.02,75.86 70.31,75.86 70.31,76.07 70.6,76.07 70.6,76.23 70.89,76.23 70.89,76.41 71.18,76.41 71.18,76.33 71.47,76.33 71.47,76.34 71.75,76.34 71.75,76.68 72.04,76.68 72.04,76.65 72.33,76.65 72.33,76.66 72.62,76.66 72.62,77.01 72.91,77.01 72.91,76.89 73.2,76.89 73.2,76.87 73.49,76.87 73.49,76.96 73.78,76.96 73.78,77.03 74.07,77.03 74.07,77.01 74.36,77.01 74.36,77.07 74.65,77.07 74.65,77.12 74.93,77.12 74.93,77.22 75.22,77.22 75.22,77.18 75.51,77.18 75.51,77.15 75.8,77.15 75.8,77.12 76.09,77.12 76.09,77.29 76.38,77.29 76.38,77.16 76.67,77.16 76.67,77.36 76.96,77.36 76.96,77.24 77.25,77.24 77.25,77.31 77.54,77.31 77.54,77.17 77.82,77.17 77.82,77.58 78.11,77.58 78.11,77.28 78.4,77.28 78.4,77.39 78.69,77.39 78.69,77.36 78.98,77.36 78.98,77.29 79.27,77.29 79.27,77.43 79.56,77.43 79.56,77.47 79.85,77.47 79.85,77.48 80.14,77.48 80.14,77.54 80.43,77.54 80.43,77.4 80.72,77.4 80.72,77.53 81,77.53 81,77.48 81.29,77.48 81.29,77.67 81.58,77.67 81.58,77.69 81.87,77.69 81.87,77.65 82.16,77.65 82.16,77.67 82.45,77.67 82.45,77.85 82.74,77.85 82.74,77.65 83.03,77.65 83.03,77.7 83.32,77.7 83.32,77.61 83.61,77.61 83.61,77.69 83.89,77.69 83.89,77.76 84.18,77.76 84.18,77.75 84.47,77.75 84.47,77.74 84.76,77.74 84.76,77.77 85.05,77.77 85.05,77.73 85.34,77.73 85.34,77.82 85.63,77.82 85.63,77.94 85.92,77.94 85.92,77.82 86.21,77.82 86.21,77.92 86.5,77.92 86.5,77.82 86.79,77.82 86.79,77.91 87.07,77.91 87.07,77.8 87.36,77.8 87.36,77.99 87.65,77.99 87.65,77.78 87.94,77.78 87.94,77.87 88.23,77.87 88.23,77.85 88.52,77.85 88.52,77.9 88.81,77.9 88.81,77.94 89.1,77.94 89.1,78.1 89.39,78.1 89.39,77.93 89.68,77.93 89.68,78.08 89.96,78.08 89.96,78.03 90.25,78.03 90.25,77.91 90.54,77.91 90.54,78.18 90.83,78.18 90.83,78.27 91.12,78.27 91.12,78.2 91.41,78.2 91.41,78.21 91.7,78.21 91.7,78.34 91.99,78.34 91.99,78.21 92.28,78.21 92.28,78.35 92.57,78.35 92.57,78.5 92.85,78.5 92.85,78.43 93.14,78.43 93.14,78.21 93.43,78.21 93.43,78.24 93.72,78.24 93.72,78.44 94.01,78.44 94.01,78.45 94.3,78.45 94.3,78.42 94.59,78.42 94.59,78.23 94.88,78.23 94.88,78.39 95.17,78.39 95.17,78.42 95.46,78.42 95.46,78.46 95.75,78.46 95.75,78.59 96.03,78.59 96.03,78.44 96.32,78.44 96.32,78.47 96.61,78.47 96.61,78.44 96.9,78.44 96.9,78.57 97.19,78.57 97.19,78.5 97.48,78.5 97.48,78.69 97.77,78.69 97.77,78.64 98.06,78.64 98.06,78.59 98.35,78.59 98.35,78.47 98.64,78.47 98.64,78.41 98.92,78.41 98.92,78.51 99.21,78.51 99.21,78.58 99.5,78.58 99.5,78.56 99.79,78.56 99.79,78.55 100.08,78.55 100.08,78.47 100.37,78.47 100.37,78.59 100.66,78.59 100.66,78.33 100.95,78.33 100.95,78.77 101.24,78.77 101.24,78.63 101.53,78.63 101.53,78.63 101.82,78.63 101.82,78.68 102.1,78.68 102.1,78.73 102.39,78.73 102.39,78.74 102.68,78.74 102.68,78.73 102.97,78.73 102.97,78.79 103.26,78.79 103.26,78.72 103.55,78.72 103.55,78.88 103.84,78.88 103.84,78.82 104.13,78.82 104.13,78.84 104.42,78.84 104.42,79 104.71,79 104.71,78.91 104.99,78.91 104.99,78.87 105.28,78.87 105.28,79.06 105.57,79.06 105.57,78.93 105.86,78.93 105.86,79.09 106.15,79.09 106.15,79 106.44,79 106.44,79.01 106.73,79.01 106.73,78.99 107.02,78.99 107.02,79 107.31,79 107.31,79.15 107.6,79.15 107.6,79.17 107.89,79.17 107.89,79.05 108.17,79.05 108.17,79.18 108.46,79.18 108.46,79.12 108.75,79.12 108.75,78.98 109.04,78.98 109.04,79.26 109.33,79.26 109.33,79.16 109.62,79.16 109.62,79.21 109.91,79.21 109.91,79.23 110.2,79.23 110.2,79.29 110.49,79.29 110.49,79.26 110.78,79.26 110.78,79.57 111.06,79.57 111.06,79.24 111.35,79.24 111.35,79.24 111.64,79.24 111.64,79.52 111.93,79.52 111.93,79.22 112.22,79.22 112.22,79.55 112.51,79.55 112.51,79.42 112.8,79.42 112.8,79.19 113.09,79.19 113.09,79.42 113.38,79.42 113.38,79.33 113.67,79.33 113.67,79.64 113.96,79.64 113.96,79.52 114.24,79.52 114.24,79.39 114.53,79.39 114.53,79.46 114.82,79.46 114.82,79.51 115.11,79.51 115.11,79.53 115.4,79.53 115.4,79.35 " class="primitive"/>
            </g>
          </g>
        </g>
      </g>
      <g class="guide colorkey" id="img-83a3ab0e-27">
        <g fill="#4C404B" font-size="2.82" font-family="'PT Sans','Helvetica Neue','Helvetica',sans-serif" id="img-83a3ab0e-28">
          <g transform="translate(210.87,31.7)" id="img-83a3ab0e-29">
            <g class="primitive">
              <text dy="0.35em">MgO std</text>
            </g>
          </g>
          <g transform="translate(210.87,35.33)" id="img-83a3ab0e-30">
            <g class="primitive">
              <text dy="0.35em">Brem[Global][MgO std]</text>
            </g>
          </g>
        </g>
        <g stroke-width="0.3" id="img-83a3ab0e-31">
          <g stroke="#FFFFFF" fill-opacity="1" fill="#B70002" id="img-83a3ab0e-32">
            <g transform="translate(208.05,35.33)" id="img-83a3ab0e-33">
              <circle cx="0" cy="0" r="0.9" class="primitive"/>
            </g>
          </g>
          <g stroke="#FFFFFF" fill-opacity="1" fill="#104E8B" id="img-83a3ab0e-34">
            <g transform="translate(208.05,31.7)" id="img-83a3ab0e-35">
              <circle cx="0" cy="0" r="0.9" class="primitive"/>
            </g>
          </g>
        </g>
        <g fill="#362A35" font-size="3.18" font-family="'PT Sans','Helvetica Neue','Helvetica',sans-serif" stroke="#000000" stroke-opacity="0.000" id="img-83a3ab0e-36">
          <g transform="translate(207.24,28.39)" id="img-83a3ab0e-37">
            <g class="primitive">
              <text dy="-0em">Spectra</text>
            </g>
          </g>
        </g>
      </g>
    </g>
  </g>
  <g class="guide ylabels" font-size="2.82" font-family="'PT Sans Caption','Helvetica Neue','Helvetica',sans-serif" fill="#6C606B" id="img-83a3ab0e-38">
    <g transform="translate(17.03,59.87)" id="img-83a3ab0e-39">
      <g class="primitive">
        <text text-anchor="end" dy="0.35em">0</text>
      </g>
    </g>
    <g transform="translate(17.03,45.86)" id="img-83a3ab0e-40">
      <g class="primitive">
        <text text-anchor="end" dy="0.35em">10000</text>
      </g>
    </g>
    <g transform="translate(17.03,31.86)" id="img-83a3ab0e-41">
      <g class="primitive">
        <text text-anchor="end" dy="0.35em">20000</text>
      </g>
    </g>
    <g transform="translate(17.03,17.85)" id="img-83a3ab0e-42">
      <g class="primitive">
        <text text-anchor="end" dy="0.35em">30000</text>
      </g>
    </g>
    <g transform="translate(17.03,3.85)" id="img-83a3ab0e-43">
      <g class="primitive">
        <text text-anchor="end" dy="0.35em">40000</text>
      </g>
    </g>
  </g>
  <g font-size="3.18" font-family="'PT Sans','Helvetica Neue','Helvetica',sans-serif" fill="#202020" stroke="#000000" stroke-opacity="0.000" id="img-83a3ab0e-44">
    <g transform="translate(4.18,29.29)" id="img-83a3ab0e-45">
      <g class="primitive">
        <text text-anchor="middle" dy="0.35em" transform="rotate(-90,0, 2)">Counts</text>
      </g>
    </g>
  </g>
</g>
<defs>
  <clipPath id="img-83a3ab0e-4">
    <path d="M18.03,0.71 L253.29,0.71 253.29,61.87 18.03,61.87 " />
  </clipPath>
</defs>
</svg>
