<?xml version="1.0" encoding="UTF-8"?>
<svg xmlns="http://www.w3.org/2000/svg"
     xmlns:xlink="http://www.w3.org/1999/xlink"
     xmlns:gadfly="http://www.gadflyjl.org/ns"
     version="1.2"
     width="254mm" height="76.2mm" viewBox="0 0 254 76.2"
     stroke="none"
     fill="#000000"
     stroke-width="0.3"
     font-size="3.88"
>
<defs>
  <marker id="arrow" markerWidth="15" markerHeight="7" refX="5" refY="3.5" orient="auto" markerUnits="strokeWidth">
    <path d="M0,0 L15,3.5 L0,7 z" stroke="context-stroke" fill="context-stroke"/>
  </marker>
</defs>
<g class="plotroot xscalable yscalable" id="img-b0083a17-1">
  <g font-size="3.18" font-family="'PT Sans','Helvetica Neue','Helvetica',sans-serif" fill="#202020" stroke="#000000" stroke-opacity="0.000" id="img-b0083a17-2">
    <g transform="translate(135.66,69.54)">
      <g class="primitive">
        <text text-anchor="middle" dy="0.6em">Energy (eV)</text>
      </g>
    </g>
  </g>
  <g class="guide xlabels" font-size="2.82" font-family="'PT Sans Caption','Helvetica Neue','Helvetica',sans-serif" fill="#6C606B" id="img-b0083a17-3">
    <g transform="translate(20.03,62.87)">
      <g class="primitive">
        <text text-anchor="middle" dy="0.6em">0</text>
      </g>
    </g>
    <g transform="translate(77.84,62.87)">
      <g class="primitive">
        <text text-anchor="middle" dy="0.6em">2000</text>
      </g>
    </g>
    <g transform="translate(135.66,62.87)">
      <g class="primitive">
        <text text-anchor="middle" dy="0.6em">4000</text>
      </g>
    </g>
    <g transform="translate(193.48,62.87)">
      <g class="primitive">
        <text text-anchor="middle" dy="0.6em">6000</text>
      </g>
    </g>
    <g transform="translate(251.29,62.87)">
      <g class="primitive">
        <text text-anchor="middle" dy="0.6em">8000</text>
      </g>
    </g>
  </g>
  <g clip-path="url(#img-b0083a17-4)">
    <g id="img-b0083a17-5">
      <g pointer-events="visible" stroke-width="0.3" fill="#FDFDF1" stroke="#202020" class="guide background" id="img-b0083a17-6">
        <g transform="translate(135.66,31.29)" id="img-b0083a17-7">
          <path d="M-117.63,-30.58 L117.63,-30.58 117.63,30.58 -117.63,30.58  z" class="primitive"/>
        </g>
      </g>
      <g class="guide ygridlines xfixed" stroke-dasharray="none" stroke-width="0.2" stroke="#FFDFDF" id="img-b0083a17-8">
        <g transform="translate(135.66,59.87)" id="img-b0083a17-9">
          <path fill="none" d="M-117.63,0 L117.63,0 " class="primitive"/>
        </g>
        <g transform="translate(135.66,43.65)" id="img-b0083a17-10">
          <path fill="none" d="M-117.63,0 L117.63,0 " class="primitive"/>
        </g>
        <g transform="translate(135.66,27.43)" id="img-b0083a17-11">
          <path fill="none" d="M-117.63,0 L117.63,0 " class="primitive"/>
        </g>
        <g transform="translate(135.66,11.21)" id="img-b0083a17-12">
          <path fill="none" d="M-117.63,0 L117.63,0 " class="primitive"/>
        </g>
      </g>
      <g class="guide xgridlines yfixed" stroke-dasharray="none" stroke-width="0.2" stroke="#FFDFDF" id="img-b0083a17-13">
        <g transform="translate(20.03,31.29)" id="img-b0083a17-14">
          <path fill="none" d="M0,-30.58 L0,30.58 " class="primitive"/>
        </g>
        <g transform="translate(77.84,31.29)" id="img-b0083a17-15">
          <path fill="none" d="M0,-30.58 L0,30.58 " class="primitive"/>
        </g>
        <g transform="translate(135.66,31.29)" id="img-b0083a17-16">
          <path fill="none" d="M0,-30.58 L0,30.58 " class="primitive"/>
        </g>
        <g transform="translate(193.48,31.29)" id="img-b0083a17-17">
          <path fill="none" d="M0,-30.58 L0,30.58 " class="primitive"/>
        </g>
        <g transform="translate(251.29,31.29)" id="img-b0083a17-18">
          <path fill="none" d="M0,-30.58 L0,30.58 " class="primitive"/>
        </g>
      </g>
      <g class="plotpanel" id="img-b0083a17-19">
        <metadata>
          <boundingbox value="18.027222222222242mm 0.7055555555555555mm 235.26722222222224mm 61.16055555555556mm"/>
          <unitbox value="-69.18403674441063 72953.3328873835 8138.368073488822 -75419.615774767"/>
        </metadata>
        <g stroke-width="0.3" fill="#000000" fill-opacity="0.000" class="geometry" id="img-b0083a17-20">
          <g class="color_RGB{N0f8}(0.718,0.0,0.008)" stroke-dasharray="none" stroke-opacity="1" stroke="#B70002" id="img-b0083a17-21">
            <g transform="translate(135.62,39.94)" id="img-b0083a17-22">
              <path fill="none" d="M-115.54,19.92 L-115.26,19.92 -115.26,19.92 -114.97,19.92 -114.97,19.92 -114.68,19.92 -114.68,19.92 -114.39,19.92 -114.39,19.92 -114.1,19.92 -114.1,19.92 -113.81,19.92 -113.81,19.92 -113.52,19.92 -113.52,19.92 -113.23,19.92 -113.23,19.92 -112.94,19.92 -112.94,19.92 -112.65,19.92 -112.65,19.92 -112.37,19.92 -112.37,19.92 -112.08,19.92 -112.08,19.92 -111.79,19.92 -111.79,19.92 -111.5,19.92 -111.5,19.92 -111.21,19.92 -111.21,19.92 -110.92,19.92 -110.92,19.92 -110.63,19.92 -110.63,19.92 -110.34,19.92 -110.34,19.9 -110.05,19.9 -110.05,19.85 -109.76,19.85 -109.76,19.7 -109.47,19.7 -109.47,19.33 -109.19,19.33 -109.19,18.52 -108.9,18.52 -108.9,17.01 -108.61,17.01 -108.61,14.65 -108.32,14.65 -108.32,11.51 -108.03,11.51 -108.03,8.03 -107.74,8.03 -107.74,4.91 -107.45,4.91 -107.45,2.75 -107.16,2.75 -107.16,1.75 -106.87,1.75 -106.87,1.61 -106.58,1.61 -106.58,1.76 -106.3,1.76 -106.3,1.65 -106.01,1.65 -106.01,1 -105.72,1 -105.72,-0.18 -105.43,-0.18 -105.43,-1.71 -105.14,-1.71 -105.14,-3.38 -104.85,-3.38 -104.85,-5.08 -104.56,-5.08 -104.56,-6.72 -104.27,-6.72 -104.27,-8.3 -103.98,-8.3 -103.98,-9.8 -103.69,-9.8 -103.69,-11.19 -103.4,-11.19 -103.4,-12.41 -103.12,-12.41 -103.12,-13.4 -102.83,-13.4 -102.83,-14.19 -102.54,-14.19 -102.54,-14.83 -102.25,-14.83 -102.25,-15.46 -101.96,-15.46 -101.96,-16.16 -101.67,-16.16 -101.67,-16.91 -101.38,-16.91 -101.38,-17.64 -101.09,-17.64 -101.09,-18.26 -100.8,-18.26 -100.8,-18.73 -100.51,-18.73 -100.51,-19.13 -100.23,-19.13 -100.23,-19.59 -99.94,-19.59 -99.94,-20.24 -99.65,-20.24 -99.65,-21.18 -99.36,-21.18 -99.36,-22.4 -99.07,-22.4 -99.07,-23.83 -98.78,-23.83 -98.78,-25.35 -98.49,-25.35 -98.49,-26.88 -98.2,-26.88 -98.2,-28.36 -97.91,-28.36 -97.91,-29.75 -97.62,-29.75 -97.62,-31.02 -97.33,-31.02 -97.33,-32.11 -97.05,-32.11 -97.05,-32.88 -96.76,-32.88 -96.76,-33.1 -96.47,-33.1 -96.47,-32.43 -96.18,-32.43 -96.18,-30.45 -95.89,-30.45 -95.89,-26.85 -95.6,-26.85 -95.6,-21.52 -95.31,-21.52 -95.31,-14.76 -95.02,-14.76 -95.02,-7.24 -94.73,-7.24 -94.73,0.16 -94.44,0.16 -94.44,6.61 -94.16,6.61 -94.16,11.56 -93.87,11.56 -93.87,14.82 -93.58,14.82 -93.58,16.5 -93.29,16.5 -93.29,16.86 -93,16.86 -93,16.21 -92.71,16.21 -92.71,14.84 -92.42,14.84 -92.42,13.04 -92.13,13.04 -92.13,11.09 -91.84,11.09 -91.84,9.26 -91.55,9.26 -91.55,7.74 -91.27,7.74 -91.27,6.63 -90.98,6.63 -90.98,5.94 -90.69,5.94 -90.69,5.58 -90.4,5.58 -90.4,5.44 -90.11,5.44 -90.11,5.4 -89.82,5.4 -89.82,5.37 -89.53,5.37 -89.53,5.3 -89.24,5.3 -89.24,5.18 -88.95,5.18 -88.95,5 -88.66,5 -88.66,4.79 -88.37,4.79 -88.37,4.55 -88.09,4.55 -88.09,4.3 -87.8,4.3 -87.8,4.04 -87.51,4.04 -87.51,3.78 -87.22,3.78 -87.22,3.52 -86.93,3.52 -86.93,3.26 -86.64,3.26 -86.64,2.99 -86.35,2.99 -86.35,2.72 -86.06,2.72 -86.06,2.45 -85.77,2.45 -85.77,2.18 -85.48,2.18 -85.48,1.91 -85.2,1.91 -85.2,1.63 -84.91,1.63 -84.91,1.36 -84.62,1.36 -84.62,1.09 -84.33,1.09 -84.33,0.83 -84.04,0.83 -84.04,0.56 -83.75,0.56 -83.75,0.29 -83.46,0.29 -83.46,0.03 -83.17,0.03 -83.17,-0.24 -82.88,-0.24 -82.88,-0.5 -82.59,-0.5 -82.59,-0.76 -82.3,-0.76 -82.3,-1.02 -82.02,-1.02 -82.02,-1.28 -81.73,-1.28 -81.73,-1.52 -81.44,-1.52 -81.44,-1.74 -81.15,-1.74 -81.15,-1.92 -80.86,-1.92 -80.86,-2.04 -80.57,-2.04 -80.57,-2.07 -80.28,-2.07 -80.28,-2 -79.99,-2 -79.99,-1.82 -79.7,-1.82 -79.7,-1.55 -79.41,-1.55 -79.41,-1.23 -79.13,-1.23 -79.13,-0.9 -78.84,-0.9 -78.84,-0.61 -78.55,-0.61 -78.55,-0.4 -78.26,-0.4 -78.26,-0.3 -77.97,-0.3 -77.97,-0.3 -77.68,-0.3 -77.68,-0.38 -77.39,-0.38 -77.39,-0.52 -77.1,-0.52 -77.1,-0.7 -76.81,-0.7 -76.81,-0.9 -76.52,-0.9 -76.52,-1.12 -76.23,-1.12 -76.23,-1.34 -75.95,-1.34 -75.95,-1.58 -75.66,-1.58 -75.66,-1.81 -75.37,-1.81 -75.37,-2.04 -75.08,-2.04 -75.08,-2.28 -74.79,-2.28 -74.79,-2.51 -74.5,-2.51 -74.5,-2.74 -74.21,-2.74 -74.21,-2.97 -73.92,-2.97 -73.92,-3.19 -73.63,-3.19 -73.63,-3.41 -73.34,-3.41 -73.34,-3.63 -73.06,-3.63 -73.06,-3.84 -72.77,-3.84 -72.77,-4.04 -72.48,-4.04 -72.48,-4.23 -72.19,-4.23 -72.19,-4.4 -71.9,-4.4 -71.9,-4.55 -71.61,-4.55 -71.61,-4.68 -71.32,-4.68 -71.32,-4.79 -71.03,-4.79 -71.03,-4.88 -70.74,-4.88 -70.74,-4.96 -70.45,-4.96 -70.45,-5.05 -70.16,-5.05 -70.16,-5.15 -69.88,-5.15 -69.88,-5.26 -69.59,-5.26 -69.59,-5.4 -69.3,-5.4 -69.3,-5.55 -69.01,-5.55 -69.01,-5.72 -68.72,-5.72 -68.72,-5.89 -68.43,-5.89 -68.43,-6.07 -68.14,-6.07 -68.14,-6.25 -67.85,-6.25 -67.85,-6.42 -67.56,-6.42 -67.56,-6.6 -67.27,-6.6 -67.27,-6.77 -66.99,-6.77 -66.99,-6.93 -66.7,-6.93 -66.7,-7.09 -66.41,-7.09 -66.41,-7.25 -66.12,-7.25 -66.12,-7.41 -65.83,-7.41 -65.83,-7.56 -65.54,-7.56 -65.54,-7.71 -65.25,-7.71 -65.25,-7.86 -64.96,-7.86 -64.96,-8 -64.67,-8 -64.67,-8.13 -64.38,-8.13 -64.38,-8.26 -64.1,-8.26 -64.1,-8.38 -63.81,-8.38 -63.81,-8.48 -63.52,-8.48 -63.52,-8.58 -63.23,-8.58 -63.23,-8.66 -62.94,-8.66 -62.94,-8.72 -62.65,-8.72 -62.65,-8.78 -62.36,-8.78 -62.36,-8.82 -62.07,-8.82 -62.07,-8.87 -61.78,-8.87 -61.78,-8.92 -61.49,-8.92 -61.49,-8.97 -61.2,-8.97 -61.2,-9.03 -60.92,-9.03 -60.92,-9.1 -60.63,-9.1 -60.63,-9.18 -60.34,-9.18 -60.34,-9.26 -60.05,-9.26 -60.05,-9.35 -59.76,-9.35 -59.76,-9.44 -59.47,-9.44 -59.47,-9.53 -59.18,-9.53 -59.18,-9.62 -58.89,-9.62 -58.89,-9.7 -58.6,-9.7 -58.6,-9.79 -58.31,-9.79 -58.31,-9.87 -58.03,-9.87 -58.03,-9.95 -57.74,-9.95 -57.74,-10.03 -57.45,-10.03 -57.45,-10.11 -57.16,-10.11 -57.16,-10.18 -56.87,-10.18 -56.87,-10.25 -56.58,-10.25 -56.58,-10.32 -56.29,-10.32 -56.29,-10.38 -56,-10.38 -56,-10.45 -55.71,-10.45 -55.71,-10.51 -55.42,-10.51 -55.42,-10.56 -55.13,-10.56 -55.13,-10.62 -54.85,-10.62 -54.85,-10.67 -54.56,-10.67 -54.56,-10.72 -54.27,-10.72 -54.27,-10.77 -53.98,-10.77 -53.98,-10.82 -53.69,-10.82 -53.69,-10.86 -53.4,-10.86 -53.4,-10.9 -53.11,-10.9 -53.11,-10.94 -52.82,-10.94 -52.82,-10.98 -52.53,-10.98 -52.53,-11.01 -52.24,-11.01 -52.24,-11.05 -51.96,-11.05 -51.96,-11.08 -51.67,-11.08 -51.67,-11.11 -51.38,-11.11 -51.38,-11.14 -51.09,-11.14 -51.09,-11.16 -50.8,-11.16 -50.8,-11.18 -50.51,-11.18 -50.51,-11.2 -50.22,-11.2 -50.22,-11.22 -49.93,-11.22 -49.93,-11.24 -49.64,-11.24 -49.64,-11.26 -49.35,-11.26 -49.35,-11.27 -49.06,-11.27 -49.06,-11.28 -48.78,-11.28 -48.78,-11.29 -48.49,-11.29 -48.49,-11.3 -48.2,-11.3 -48.2,-11.31 -47.91,-11.31 -47.91,-11.31 -47.62,-11.31 -47.62,-11.32 -47.33,-11.32 -47.33,-11.32 -47.04,-11.32 -47.04,-11.32 -46.75,-11.32 -46.75,-11.32 -46.46,-11.32 -46.46,-11.32 -46.17,-11.32 -46.17,-11.31 -45.89,-11.31 -45.89,-11.31 -45.6,-11.31 -45.6,-11.3 -45.31,-11.3 -45.31,-11.29 -45.02,-11.29 -45.02,-11.28 -44.73,-11.28 -44.73,-11.27 -44.44,-11.27 -44.44,-11.26 -44.15,-11.26 -44.15,-11.25 -43.86,-11.25 -43.86,-11.23 -43.57,-11.23 -43.57,-11.22 -43.28,-11.22 -43.28,-11.2 -43,-11.2 -43,-11.18 -42.71,-11.18 -42.71,-11.16 -42.42,-11.16 -42.42,-11.14 -42.13,-11.14 -42.13,-11.12 -41.84,-11.12 -41.84,-11.1 -41.55,-11.1 -41.55,-11.07 -41.26,-11.07 -41.26,-11.05 -40.97,-11.05 -40.97,-11.02 -40.68,-11.02 -40.68,-11 -40.39,-11 -40.39,-10.97 -40.1,-10.97 -40.1,-10.94 -39.82,-10.94 -39.82,-10.91 -39.53,-10.91 -39.53,-10.88 -39.24,-10.88 -39.24,-10.85 -38.95,-10.85 -38.95,-10.81 -38.66,-10.81 -38.66,-10.78 -38.37,-10.78 -38.37,-10.75 -38.08,-10.75 -38.08,-10.71 -37.79,-10.71 -37.79,-10.68 -37.5,-10.68 -37.5,-10.64 -37.21,-10.64 -37.21,-10.6 -36.93,-10.6 -36.93,-10.56 -36.64,-10.56 -36.64,-10.53 -36.35,-10.53 -36.35,-10.49 -36.06,-10.49 -36.06,-10.45 -35.77,-10.45 -35.77,-10.41 -35.48,-10.41 -35.48,-10.37 -35.19,-10.37 -35.19,-10.32 -34.9,-10.32 -34.9,-10.28 -34.61,-10.28 -34.61,-10.24 -34.32,-10.24 -34.32,-10.2 -34.03,-10.2 -34.03,-10.15 -33.75,-10.15 -33.75,-10.11 -33.46,-10.11 -33.46,-10.06 -33.17,-10.06 -33.17,-10.02 -32.88,-10.02 -32.88,-9.97 -32.59,-9.97 -32.59,-9.92 -32.3,-9.92 -32.3,-9.88 -32.01,-9.88 -32.01,-9.83 -31.72,-9.83 -31.72,-9.78 -31.43,-9.78 -31.43,-9.74 -31.14,-9.74 -31.14,-9.69 -30.86,-9.69 -30.86,-9.64 -30.57,-9.64 -30.57,-9.6 -30.28,-9.6 -30.28,-9.55 -29.99,-9.55 -29.99,-9.5 -29.7,-9.5 -29.7,-9.45 -29.41,-9.45 -29.41,-9.41 -29.12,-9.41 -29.12,-9.36 -28.83,-9.36 -28.83,-9.31 -28.54,-9.31 -28.54,-9.26 -28.25,-9.26 -28.25,-9.21 -27.96,-9.21 -27.96,-9.16 -27.68,-9.16 -27.68,-9.11 -27.39,-9.11 -27.39,-9.06 -27.1,-9.06 -27.1,-9.01 -26.81,-9.01 -26.81,-8.95 -26.52,-8.95 -26.52,-8.9 -26.23,-8.9 -26.23,-8.85 -25.94,-8.85 -25.94,-8.8 -25.65,-8.8 -25.65,-8.75 -25.36,-8.75 -25.36,-8.69 -25.07,-8.69 -25.07,-8.64 -24.79,-8.64 -24.79,-8.59 -24.5,-8.59 -24.5,-8.53 -24.21,-8.53 -24.21,-8.48 -23.92,-8.48 -23.92,-8.43 -23.63,-8.43 -23.63,-8.37 -23.34,-8.37 -23.34,-8.32 -23.05,-8.32 -23.05,-8.27 -22.76,-8.27 -22.76,-8.21 -22.47,-8.21 -22.47,-8.16 -22.18,-8.16 -22.18,-8.1 -21.89,-8.1 -21.89,-8.05 -21.61,-8.05 -21.61,-7.99 -21.32,-7.99 -21.32,-7.93 -21.03,-7.93 -21.03,-7.88 -20.74,-7.88 -20.74,-7.82 -20.45,-7.82 -20.45,-7.77 -20.16,-7.77 -20.16,-7.71 -19.87,-7.71 -19.87,-7.65 -19.58,-7.65 -19.58,-7.6 -19.29,-7.6 -19.29,-7.54 -19,-7.54 -19,-7.48 -18.72,-7.48 -18.72,-7.42 -18.43,-7.42 -18.43,-7.37 -18.14,-7.37 -18.14,-7.31 -17.85,-7.31 -17.85,-7.25 -17.56,-7.25 -17.56,-7.19 -17.27,-7.19 -17.27,-7.14 -16.98,-7.14 -16.98,-7.08 -16.69,-7.08 -16.69,-7.02 -16.4,-7.02 -16.4,-6.96 -16.11,-6.96 -16.11,-6.9 -15.83,-6.9 -15.83,-6.85 -15.54,-6.85 -15.54,-6.79 -15.25,-6.79 -15.25,-6.73 -14.96,-6.73 -14.96,-6.67 -14.67,-6.67 -14.67,-6.61 -14.38,-6.61 -14.38,-6.55 -14.09,-6.55 -14.09,-6.49 -13.8,-6.49 -13.8,-6.43 -13.51,-6.43 -13.51,-6.38 -13.22,-6.38 -13.22,-6.32 -12.93,-6.32 -12.93,-6.26 -12.65,-6.26 -12.65,-6.2 -12.36,-6.2 -12.36,-6.14 -12.07,-6.14 -12.07,-6.08 -11.78,-6.08 -11.78,-6.02 -11.49,-6.02 -11.49,-5.96 -11.2,-5.96 -11.2,-5.9 -10.91,-5.9 -10.91,-5.84 -10.62,-5.84 -10.62,-5.78 -10.33,-5.78 -10.33,-5.72 -10.04,-5.72 -10.04,-5.66 -9.76,-5.66 -9.76,-5.6 -9.47,-5.6 -9.47,-5.54 -9.18,-5.54 -9.18,-5.49 -8.89,-5.49 -8.89,-5.43 -8.6,-5.43 -8.6,-5.37 -8.31,-5.37 -8.31,-5.31 -8.02,-5.31 -8.02,-5.25 -7.73,-5.25 -7.73,-5.19 -7.44,-5.19 -7.44,-5.13 -7.15,-5.13 -7.15,-5.07 -6.86,-5.07 -6.86,-5.01 -6.58,-5.01 -6.58,-4.95 -6.29,-4.95 -6.29,-4.89 -6,-4.89 -6,-4.83 -5.71,-4.83 -5.71,-4.77 -5.42,-4.77 -5.42,-4.71 -5.13,-4.71 -5.13,-4.65 -4.84,-4.65 -4.84,-4.59 -4.55,-4.59 -4.55,-4.53 -4.26,-4.53 -4.26,-4.48 -3.97,-4.48 -3.97,-4.42 -3.69,-4.42 -3.69,-4.36 -3.4,-4.36 -3.4,-4.3 -3.11,-4.3 -3.11,-4.24 -2.82,-4.24 -2.82,-4.18 -2.53,-4.18 -2.53,-4.12 -2.24,-4.12 -2.24,-4.06 -1.95,-4.06 -1.95,-4 -1.66,-4 -1.66,-3.95 -1.37,-3.95 -1.37,-3.89 -1.08,-3.89 -1.08,-3.83 -0.79,-3.83 -0.79,-3.77 -0.51,-3.77 -0.51,-3.71 -0.22,-3.71 -0.22,-3.65 0.07,-3.65 0.07,-3.59 0.36,-3.59 0.36,-3.54 0.65,-3.54 0.65,-3.48 0.94,-3.48 0.94,-3.42 1.23,-3.42 1.23,-3.36 1.52,-3.36 1.52,-3.3 1.81,-3.3 1.81,-3.25 2.1,-3.25 2.1,-3.19 2.38,-3.19 2.38,-3.13 2.67,-3.13 2.67,-3.07 2.96,-3.07 2.96,-3.02 3.25,-3.02 3.25,-2.96 3.54,-2.96 3.54,-2.9 3.83,-2.9 3.83,-2.85 4.12,-2.85 4.12,-2.79 4.41,-2.79 4.41,-2.73 4.7,-2.73 4.7,-2.67 4.99,-2.67 4.99,-2.62 5.28,-2.62 5.28,-2.56 5.56,-2.56 5.56,-2.5 5.85,-2.5 5.85,-2.45 6.14,-2.45 6.14,-2.39 6.43,-2.39 6.43,-2.34 6.72,-2.34 6.72,-2.28 7.01,-2.28 7.01,-2.22 7.3,-2.22 7.3,-2.17 7.59,-2.17 7.59,-2.11 7.88,-2.11 7.88,-2.06 8.17,-2.06 8.17,-2 8.45,-2 8.45,-1.95 8.74,-1.95 8.74,-1.89 9.03,-1.89 9.03,-1.84 9.32,-1.84 9.32,-1.78 9.61,-1.78 9.61,-1.73 9.9,-1.73 9.9,-1.67 10.19,-1.67 10.19,-1.62 10.48,-1.62 10.48,-1.56 10.77,-1.56 10.77,-1.51 11.06,-1.51 11.06,-1.45 11.34,-1.45 11.34,-1.4 11.63,-1.4 11.63,-1.34 11.92,-1.34 11.92,-1.29 12.21,-1.29 12.21,-1.24 12.5,-1.24 12.5,-1.18 12.79,-1.18 12.79,-1.13 13.08,-1.13 13.08,-1.07 13.37,-1.07 13.37,-1.02 13.66,-1.02 13.66,-0.97 13.95,-0.97 13.95,-0.91 14.24,-0.91 14.24,-0.86 14.52,-0.86 14.52,-0.81 14.81,-0.81 14.81,-0.76 15.1,-0.76 15.1,-0.7 15.39,-0.7 15.39,-0.65 15.68,-0.65 15.68,-0.6 15.97,-0.6 15.97,-0.55 16.26,-0.55 16.26,-0.49 16.55,-0.49 16.55,-0.44 16.84,-0.44 16.84,-0.39 17.13,-0.39 17.13,-0.34 17.41,-0.34 17.41,-0.29 17.7,-0.29 17.7,-0.24 17.99,-0.24 17.99,-0.18 18.28,-0.18 18.28,-0.13 18.57,-0.13 18.57,-0.08 18.86,-0.08 18.86,-0.03 19.15,-0.03 19.15,0.02 19.44,0.02 19.44,0.07 19.73,0.07 19.73,0.12 20.02,0.12 20.02,0.17 20.31,0.17 20.31,0.22 20.59,0.22 20.59,0.27 20.88,0.27 20.88,0.32 21.17,0.32 21.17,0.37 21.46,0.37 21.46,0.42 21.75,0.42 21.75,0.47 22.04,0.47 22.04,0.52 22.33,0.52 22.33,0.57 22.62,0.57 22.62,0.62 22.91,0.62 22.91,0.67 23.2,0.67 23.2,0.72 23.48,0.72 23.48,0.77 23.77,0.77 23.77,0.82 24.06,0.82 24.06,0.87 24.35,0.87 24.35,0.91 24.64,0.91 24.64,0.96 24.93,0.96 24.93,1.01 25.22,1.01 25.22,1.06 25.51,1.06 25.51,1.11 25.8,1.11 25.8,1.15 26.09,1.15 26.09,1.2 26.38,1.2 26.38,1.25 26.66,1.25 26.66,1.3 26.95,1.3 26.95,1.35 27.24,1.35 27.24,1.39 27.53,1.39 27.53,1.44 27.82,1.44 27.82,1.49 28.11,1.49 28.11,1.53 28.4,1.53 28.4,1.58 28.69,1.58 28.69,1.63 28.98,1.63 28.98,1.67 29.27,1.67 29.27,1.72 29.55,1.72 29.55,1.77 29.84,1.77 29.84,1.81 30.13,1.81 30.13,1.86 30.42,1.86 30.42,1.9 30.71,1.9 30.71,1.95 31,1.95 31,2 31.29,2 31.29,2.04 31.58,2.04 31.58,2.09 31.87,2.09 31.87,2.13 32.16,2.13 32.16,2.18 32.45,2.18 32.45,2.22 32.73,2.22 32.73,2.27 33.02,2.27 33.02,2.31 33.31,2.31 33.31,2.36 33.6,2.36 33.6,2.4 33.89,2.4 33.89,2.44 34.18,2.44 34.18,2.49 34.47,2.49 34.47,2.53 34.76,2.53 34.76,2.58 35.05,2.58 35.05,2.62 35.34,2.62 35.34,2.66 35.62,2.66 35.62,2.71 35.91,2.71 35.91,2.75 36.2,2.75 36.2,2.79 36.49,2.79 36.49,2.84 36.78,2.84 36.78,2.88 37.07,2.88 37.07,2.92 37.36,2.92 37.36,2.97 37.65,2.97 37.65,3.01 37.94,3.01 37.94,3.05 38.23,3.05 38.23,3.09 38.51,3.09 38.51,3.14 38.8,3.14 38.8,3.18 39.09,3.18 39.09,3.22 39.38,3.22 39.38,3.26 39.67,3.26 39.67,3.31 39.96,3.31 39.96,3.35 40.25,3.35 40.25,3.39 40.54,3.39 40.54,3.43 40.83,3.43 40.83,3.47 41.12,3.47 41.12,3.51 41.41,3.51 41.41,3.55 41.69,3.55 41.69,3.6 41.98,3.6 41.98,3.64 42.27,3.64 42.27,3.68 42.56,3.68 42.56,3.72 42.85,3.72 42.85,3.76 43.14,3.76 43.14,3.8 43.43,3.8 43.43,3.84 43.72,3.84 43.72,3.88 44.01,3.88 44.01,3.92 44.3,3.92 44.3,3.96 44.58,3.96 44.58,4 44.87,4 44.87,4.04 45.16,4.04 45.16,4.08 45.45,4.08 45.45,4.12 45.74,4.12 45.74,4.16 46.03,4.16 46.03,4.2 46.32,4.2 46.32,4.24 46.61,4.24 46.61,4.28 46.9,4.28 46.9,4.32 47.19,4.32 47.19,4.35 47.48,4.35 47.48,4.39 47.76,4.39 47.76,4.43 48.05,4.43 48.05,4.47 48.34,4.47 48.34,4.51 48.63,4.51 48.63,4.55 48.92,4.55 48.92,4.59 49.21,4.59 49.21,4.62 49.5,4.62 49.5,4.66 49.79,4.66 49.79,4.7 50.08,4.7 50.08,4.74 50.37,4.74 50.37,4.77 50.65,4.77 50.65,4.81 50.94,4.81 50.94,4.85 51.23,4.85 51.23,4.89 51.52,4.89 51.52,4.92 51.81,4.92 51.81,4.96 52.1,4.96 52.1,5 52.39,5 52.39,5.04 52.68,5.04 52.68,5.07 52.97,5.07 52.97,5.11 53.26,5.11 53.26,5.15 53.55,5.15 53.55,5.18 53.83,5.18 53.83,5.22 54.12,5.22 54.12,5.26 54.41,5.26 54.41,5.29 54.7,5.29 54.7,5.33 54.99,5.33 54.99,5.36 55.28,5.36 55.28,5.4 55.57,5.4 55.57,5.44 55.86,5.44 55.86,5.47 56.15,5.47 56.15,5.51 56.44,5.51 56.44,5.54 56.72,5.54 56.72,5.58 57.01,5.58 57.01,5.61 57.3,5.61 57.3,5.65 57.59,5.65 57.59,5.68 57.88,5.68 57.88,5.72 58.17,5.72 58.17,5.75 58.46,5.75 58.46,5.79 58.75,5.79 58.75,5.82 59.04,5.82 59.04,5.86 59.33,5.86 59.33,5.89 59.62,5.89 59.62,5.93 59.9,5.93 59.9,5.96 60.19,5.96 60.19,5.99 60.48,5.99 60.48,6.03 60.77,6.03 60.77,6.06 61.06,6.06 61.06,6.1 61.35,6.1 61.35,6.13 61.64,6.13 61.64,6.16 61.93,6.16 61.93,6.2 62.22,6.2 62.22,6.23 62.51,6.23 62.51,6.26 62.79,6.26 62.79,6.3 63.08,6.3 63.08,6.33 63.37,6.33 63.37,6.36 63.66,6.36 63.66,6.4 63.95,6.4 63.95,6.43 64.24,6.43 64.24,6.46 64.53,6.46 64.53,6.5 64.82,6.5 64.82,6.53 65.11,6.53 65.11,6.56 65.4,6.56 65.4,6.59 65.68,6.59 65.68,6.63 65.97,6.63 65.97,6.66 66.26,6.66 66.26,6.69 66.55,6.69 66.55,6.72 66.84,6.72 66.84,6.76 67.13,6.76 67.13,6.79 67.42,6.79 67.42,6.82 67.71,6.82 67.71,6.85 68,6.85 68,6.88 68.29,6.88 68.29,6.91 68.58,6.91 68.58,6.95 68.86,6.95 68.86,6.98 69.15,6.98 69.15,7.01 69.44,7.01 69.44,7.04 69.73,7.04 69.73,7.07 70.02,7.07 70.02,7.1 70.31,7.1 70.31,7.13 70.6,7.13 70.6,7.16 70.89,7.16 70.89,7.19 71.18,7.19 71.18,7.23 71.47,7.23 71.47,7.26 71.75,7.26 71.75,7.29 72.04,7.29 72.04,7.32 72.33,7.32 72.33,7.35 72.62,7.35 72.62,7.38 72.91,7.38 72.91,7.41 73.2,7.41 73.2,7.44 73.49,7.44 73.49,7.47 73.78,7.47 73.78,7.5 74.07,7.5 74.07,7.53 74.36,7.53 74.36,7.56 74.65,7.56 74.65,7.59 74.93,7.59 74.93,7.62 75.22,7.62 75.22,7.65 75.51,7.65 75.51,7.68 75.8,7.68 75.8,7.71 76.09,7.71 76.09,7.74 76.38,7.74 76.38,7.76 76.67,7.76 76.67,7.79 76.96,7.79 76.96,7.82 77.25,7.82 77.25,7.85 77.54,7.85 77.54,7.88 77.82,7.88 77.82,7.91 78.11,7.91 78.11,7.94 78.4,7.94 78.4,7.97 78.69,7.97 78.69,8 78.98,8 78.98,8.02 79.27,8.02 79.27,8.05 79.56,8.05 79.56,8.08 79.85,8.08 79.85,8.11 80.14,8.11 80.14,8.14 80.43,8.14 80.43,8.17 80.72,8.17 80.72,8.19 81,8.19 81,8.22 81.29,8.22 81.29,8.25 81.58,8.25 81.58,8.28 81.87,8.28 81.87,8.31 82.16,8.31 82.16,8.33 82.45,8.33 82.45,8.36 82.74,8.36 82.74,8.39 83.03,8.39 83.03,8.42 83.32,8.42 83.32,8.44 83.61,8.44 83.61,8.47 83.89,8.47 83.89,8.5 84.18,8.5 84.18,8.53 84.47,8.53 84.47,8.55 84.76,8.55 84.76,8.58 85.05,8.58 85.05,8.61 85.34,8.61 85.34,8.64 85.63,8.64 85.63,8.67 85.92,8.67 85.92,8.69 86.21,8.69 86.21,8.73 86.5,8.73 86.5,8.76 86.79,8.76 86.79,8.79 87.07,8.79 87.07,8.83 87.36,8.83 87.36,8.87 87.65,8.87 87.65,8.92 87.94,8.92 87.94,8.98 88.23,8.98 88.23,9.04 88.52,9.04 88.52,9.11 88.81,9.11 88.81,9.19 89.1,9.19 89.1,9.28 89.39,9.28 89.39,9.38 89.68,9.38 89.68,9.48 89.96,9.48 89.96,9.59 90.25,9.59 90.25,9.71 90.54,9.71 90.54,9.83 90.83,9.83 90.83,9.95 91.12,9.95 91.12,10.06 91.41,10.06 91.41,10.17 91.7,10.17 91.7,10.28 91.99,10.28 91.99,10.37 92.28,10.37 92.28,10.46 92.57,10.46 92.57,10.53 92.85,10.53 92.85,10.6 93.14,10.6 93.14,10.65 93.43,10.65 93.43,10.7 93.72,10.7 93.72,10.74 94.01,10.74 94.01,10.78 94.3,10.78 94.3,10.81 94.59,10.81 94.59,10.83 94.88,10.83 94.88,10.86 95.17,10.86 95.17,10.88 95.46,10.88 95.46,10.9 95.75,10.9 95.75,10.91 96.03,10.91 96.03,10.93 96.32,10.93 96.32,10.95 96.61,10.95 96.61,10.96 96.9,10.96 96.9,10.98 97.19,10.98 97.19,11 97.48,11 97.48,11.01 97.77,11.01 97.77,11.03 98.06,11.03 98.06,11.04 98.35,11.04 98.35,11.06 98.64,11.06 98.64,11.08 98.92,11.08 98.92,11.09 99.21,11.09 99.21,11.11 99.5,11.11 99.5,11.13 99.79,11.13 99.79,11.14 100.08,11.14 100.08,11.16 100.37,11.16 100.37,11.17 100.66,11.17 100.66,11.19 100.95,11.19 100.95,11.21 101.24,11.21 101.24,11.22 101.53,11.22 101.53,11.24 101.82,11.24 101.82,11.25 102.1,11.25 102.1,11.27 102.39,11.27 102.39,11.29 102.68,11.29 102.68,11.3 102.97,11.3 102.97,11.32 103.26,11.32 103.26,11.34 103.55,11.34 103.55,11.35 103.84,11.35 103.84,11.37 104.13,11.37 104.13,11.38 104.42,11.38 104.42,11.4 104.71,11.4 104.71,11.42 104.99,11.42 104.99,11.43 105.28,11.43 105.28,11.45 105.57,11.45 105.57,11.46 105.86,11.46 105.86,11.48 106.15,11.48 106.15,11.5 106.44,11.5 106.44,11.51 106.73,11.51 106.73,11.53 107.02,11.53 107.02,11.54 107.31,11.54 107.31,11.56 107.6,11.56 107.6,11.58 107.89,11.58 107.89,11.59 108.17,11.59 108.17,11.61 108.46,11.61 108.46,11.62 108.75,11.62 108.75,11.64 109.04,11.64 109.04,11.66 109.33,11.66 109.33,11.67 109.62,11.67 109.62,11.69 109.91,11.69 109.91,11.7 110.2,11.7 110.2,11.72 110.49,11.72 110.49,11.74 110.78,11.74 110.78,11.75 111.06,11.75 111.06,11.77 111.35,11.77 111.35,11.78 111.64,11.78 111.64,11.8 111.93,11.8 111.93,11.82 112.22,11.82 112.22,11.83 112.51,11.83 112.51,11.85 112.8,11.85 112.8,11.86 113.09,11.86 113.09,11.88 113.38,11.88 113.38,11.89 113.67,11.89 113.67,11.91 113.96,11.91 113.96,11.93 114.24,11.93 114.24,11.94 114.53,11.94 114.53,11.96 114.82,11.96 114.82,11.97 115.11,11.97 115.11,11.99 115.4,11.99 115.4,12.01 " class="primitive"/>
            </g>
          </g>
        </g>
        <g stroke-width="0.3" fill="#000000" fill-opacity="0.000" class="geometry" id="img-b0083a17-23">
          <g class="color_RGB{N0f8}(0.063,0.306,0.545)" stroke-dasharray="none" stroke-opacity="1" stroke="#104E8B" id="img-b0083a17-24">
            <g transform="translate(135.62,8.52)" id="img-b0083a17-25">
              <path fill="none" d="M-115.54,51.32 L-115.26,51.32 -115.26,51.32 -114.97,51.32 -114.97,51.33 -114.68,51.33 -114.68,51.33 -114.39,51.33 -114.39,51.33 -114.1,51.33 -114.1,51.33 -113.81,51.33 -113.81,51.34 -113.52,51.34 -113.52,51.34 -113.23,51.34 -113.23,51.34 -112.94,51.34 -112.94,51.34 -112.65,51.34 -112.65,51.34 -112.37,51.34 -112.37,51.33 -112.08,51.33 -112.08,51.33 -111.79,51.33 -111.79,51.3 -111.5,51.3 -111.5,51.28 -111.21,51.28 -111.21,51.24 -110.92,51.24 -110.92,51.15 -110.63,51.15 -110.63,51 -110.34,51 -110.34,50.72 -110.05,50.72 -110.05,50.22 -109.76,50.22 -109.76,49.23 -109.47,49.23 -109.47,47.46 -109.19,47.46 -109.19,44.41 -108.9,44.41 -108.9,39.23 -108.61,39.23 -108.61,32.36 -108.32,32.36 -108.32,24.43 -108.03,24.43 -108.03,17.68 -107.74,17.68 -107.74,15.23 -107.45,15.23 -107.45,17.91 -107.16,17.91 -107.16,23.99 -106.87,23.99 -106.87,31.05 -106.58,31.05 -106.58,36.41 -106.3,36.41 -106.3,39.6 -106.01,39.6 -106.01,41.18 -105.72,41.18 -105.72,41.23 -105.43,41.23 -105.43,40.8 -105.14,40.8 -105.14,39.95 -104.85,39.95 -104.85,39.25 -104.56,39.25 -104.56,38.49 -104.27,38.49 -104.27,37.58 -103.98,37.58 -103.98,37.04 -103.69,37.04 -103.69,36.07 -103.4,36.07 -103.4,34.74 -103.12,34.74 -103.12,33.49 -102.83,33.49 -102.83,31.62 -102.54,31.62 -102.54,29.59 -102.25,29.59 -102.25,27.37 -101.96,27.37 -101.96,24.47 -101.67,24.47 -101.67,21.02 -101.38,21.02 -101.38,17.68 -101.09,17.68 -101.09,13.7 -100.8,13.7 -100.8,10.96 -100.51,10.96 -100.51,7.78 -100.23,7.78 -100.23,4.73 -99.94,4.73 -99.94,-1.7 -99.65,-1.7 -99.65,-12.98 -99.36,-12.98 -99.36,-34.15 -99.07,-34.15 -99.07,-66.91 -98.78,-66.91 -98.78,-109.87 -98.49,-109.87 -98.49,-157.01 -98.2,-157.01 -98.2,-197.82 -97.91,-197.82 -97.91,-220.75 -97.62,-220.75 -97.62,-224.89 -97.33,-224.89 -97.33,-217.64 -97.05,-217.64 -97.05,-216.1 -96.76,-216.1 -96.76,-241.1 -96.47,-241.1 -96.47,-305.05 -96.18,-305.05 -96.18,-405.31 -95.89,-405.31 -95.89,-516.25 -95.6,-516.25 -95.6,-603.48 -95.31,-603.48 -95.31,-630.88 -95.02,-630.88 -95.02,-581.36 -94.73,-581.36 -94.73,-474.49 -94.44,-474.49 -94.44,-337.71 -94.16,-337.71 -94.16,-210.06 -93.87,-210.06 -93.87,-109.19 -93.58,-109.19 -93.58,-42.76 -93.29,-42.76 -93.29,-3.61 -93,-3.61 -93,17.06 -92.71,17.06 -92.71,27.3 -92.42,27.3 -92.42,32.37 -92.13,32.37 -92.13,35.39 -91.84,35.39 -91.84,37.32 -91.55,37.32 -91.55,38.48 -91.27,38.48 -91.27,39.18 -90.98,39.18 -90.98,39.78 -90.69,39.78 -90.69,40.07 -90.4,40.07 -90.4,40.32 -90.11,40.32 -90.11,40.29 -89.82,40.29 -89.82,40.38 -89.53,40.38 -89.53,40.37 -89.24,40.37 -89.24,40.1 -88.95,40.1 -88.95,39.99 -88.66,39.99 -88.66,39.66 -88.37,39.66 -88.37,39.42 -88.09,39.42 -88.09,39.33 -87.8,39.33 -87.8,39.23 -87.51,39.23 -87.51,38.78 -87.22,38.78 -87.22,38.8 -86.93,38.8 -86.93,38.45 -86.64,38.45 -86.64,38.34 -86.35,38.34 -86.35,38.04 -86.06,38.04 -86.06,37.67 -85.77,37.67 -85.77,37.47 -85.48,37.47 -85.48,37.26 -85.2,37.26 -85.2,37.12 -84.91,37.12 -84.91,36.79 -84.62,36.79 -84.62,36.51 -84.33,36.51 -84.33,36.27 -84.04,36.27 -84.04,35.96 -83.75,35.96 -83.75,35.79 -83.46,35.79 -83.46,35.63 -83.17,35.63 -83.17,34.98 -82.88,34.98 -82.88,34.77 -82.59,34.77 -82.59,34.59 -82.3,34.59 -82.3,34.41 -82.02,34.41 -82.02,34.01 -81.73,34.01 -81.73,33.6 -81.44,33.6 -81.44,33.42 -81.15,33.42 -81.15,33.35 -80.86,33.35 -80.86,32.71 -80.57,32.71 -80.57,32.48 -80.28,32.48 -80.28,32.16 -79.99,32.16 -79.99,31.93 -79.7,31.93 -79.7,31.83 -79.41,31.83 -79.41,31.23 -79.13,31.23 -79.13,30.91 -78.84,30.91 -78.84,30.52 -78.55,30.52 -78.55,30.3 -78.26,30.3 -78.26,29.93 -77.97,29.93 -77.97,29.59 -77.68,29.59 -77.68,29.48 -77.39,29.48 -77.39,28.96 -77.1,28.96 -77.1,28.82 -76.81,28.82 -76.81,28.24 -76.52,28.24 -76.52,28 -76.23,28 -76.23,27.79 -75.95,27.79 -75.95,27.56 -75.66,27.56 -75.66,27.52 -75.37,27.52 -75.37,27.01 -75.08,27.01 -75.08,26.93 -74.79,26.93 -74.79,26.83 -74.5,26.83 -74.5,26.9 -74.21,26.9 -74.21,26.62 -73.92,26.62 -73.92,26.45 -73.63,26.45 -73.63,25.92 -73.34,25.92 -73.34,25.81 -73.06,25.81 -73.06,25.28 -72.77,25.28 -72.77,25.28 -72.48,25.28 -72.48,24.83 -72.19,24.83 -72.19,25.07 -71.9,25.07 -71.9,25.07 -71.61,25.07 -71.61,25.58 -71.32,25.58 -71.32,25.47 -71.03,25.47 -71.03,25.86 -70.74,25.86 -70.74,26 -70.45,26 -70.45,26.18 -70.16,26.18 -70.16,26.17 -69.88,26.17 -69.88,26.41 -69.59,26.41 -69.59,26.16 -69.3,26.16 -69.3,26.22 -69.01,26.22 -69.01,26.04 -68.72,26.04 -68.72,26.09 -68.43,26.09 -68.43,25.71 -68.14,25.71 -68.14,25.49 -67.85,25.49 -67.85,25.28 -67.56,25.28 -67.56,24.87 -67.27,24.87 -67.27,24.42 -66.99,24.42 -66.99,23.98 -66.7,23.98 -66.7,23.15 -66.41,23.15 -66.41,22.36 -66.12,22.36 -66.12,21.29 -65.83,21.29 -65.83,20.17 -65.54,20.17 -65.54,19.58 -65.25,19.58 -65.25,19.07 -64.96,19.07 -64.96,18.94 -64.67,18.94 -64.67,19.05 -64.38,19.05 -64.38,19.36 -64.1,19.36 -64.1,20.18 -63.81,20.18 -63.81,20.68 -63.52,20.68 -63.52,21.16 -63.23,21.16 -63.23,21.5 -62.94,21.5 -62.94,21.51 -62.65,21.51 -62.65,22.06 -62.36,22.06 -62.36,22.36 -62.07,22.36 -62.07,22.61 -61.78,22.61 -61.78,23.14 -61.49,23.14 -61.49,23.19 -61.2,23.19 -61.2,23.04 -60.92,23.04 -60.92,23.31 -60.63,23.31 -60.63,23.38 -60.34,23.38 -60.34,23.08 -60.05,23.08 -60.05,22.83 -59.76,22.83 -59.76,23.17 -59.47,23.17 -59.47,22.53 -59.18,22.53 -59.18,22.79 -58.89,22.79 -58.89,22.73 -58.6,22.73 -58.6,22.33 -58.31,22.33 -58.31,22.15 -58.03,22.15 -58.03,22.19 -57.74,22.19 -57.74,21.79 -57.45,21.79 -57.45,21.82 -57.16,21.82 -57.16,21.44 -56.87,21.44 -56.87,21.65 -56.58,21.65 -56.58,21.5 -56.29,21.5 -56.29,21.44 -56,21.44 -56,21.46 -55.71,21.46 -55.71,21.32 -55.42,21.32 -55.42,21.44 -55.13,21.44 -55.13,21.16 -54.85,21.16 -54.85,21.24 -54.56,21.24 -54.56,21.29 -54.27,21.29 -54.27,21.25 -53.98,21.25 -53.98,20.97 -53.69,20.97 -53.69,20.7 -53.4,20.7 -53.4,20.9 -53.11,20.9 -53.11,20.91 -52.82,20.91 -52.82,20.68 -52.53,20.68 -52.53,20.54 -52.24,20.54 -52.24,20.89 -51.96,20.89 -51.96,20.69 -51.67,20.69 -51.67,20.63 -51.38,20.63 -51.38,20.73 -51.09,20.73 -51.09,20.51 -50.8,20.51 -50.8,20.82 -50.51,20.82 -50.51,20.37 -50.22,20.37 -50.22,20.31 -49.93,20.31 -49.93,20.53 -49.64,20.53 -49.64,20.56 -49.35,20.56 -49.35,20.12 -49.06,20.12 -49.06,20.29 -48.78,20.29 -48.78,20.52 -48.49,20.52 -48.49,19.94 -48.2,19.94 -48.2,20.26 -47.91,20.26 -47.91,19.97 -47.62,19.97 -47.62,20.63 -47.33,20.63 -47.33,20.19 -47.04,20.19 -47.04,20.49 -46.75,20.49 -46.75,20.38 -46.46,20.38 -46.46,20.09 -46.17,20.09 -46.17,20.4 -45.89,20.4 -45.89,20.11 -45.6,20.11 -45.6,20.43 -45.31,20.43 -45.31,20.35 -45.02,20.35 -45.02,20.18 -44.73,20.18 -44.73,20.41 -44.44,20.41 -44.44,20.39 -44.15,20.39 -44.15,20.51 -43.86,20.51 -43.86,20.04 -43.57,20.04 -43.57,20.52 -43.28,20.52 -43.28,20.67 -43,20.67 -43,20.06 -42.71,20.06 -42.71,20.4 -42.42,20.4 -42.42,20.05 -42.13,20.05 -42.13,20.32 -41.84,20.32 -41.84,20.22 -41.55,20.22 -41.55,20.58 -41.26,20.58 -41.26,20.52 -40.97,20.52 -40.97,20.45 -40.68,20.45 -40.68,20.28 -40.39,20.28 -40.39,20.61 -40.1,20.61 -40.1,20.36 -39.82,20.36 -39.82,20.57 -39.53,20.57 -39.53,20.43 -39.24,20.43 -39.24,20.33 -38.95,20.33 -38.95,20.54 -38.66,20.54 -38.66,20.56 -38.37,20.56 -38.37,20.51 -38.08,20.51 -38.08,20.91 -37.79,20.91 -37.79,20.85 -37.5,20.85 -37.5,20.66 -37.21,20.66 -37.21,20.49 -36.93,20.49 -36.93,20.81 -36.64,20.81 -36.64,20.67 -36.35,20.67 -36.35,20.82 -36.06,20.82 -36.06,20.86 -35.77,20.86 -35.77,20.99 -35.48,20.99 -35.48,20.88 -35.19,20.88 -35.19,21.07 -34.9,21.07 -34.9,21.15 -34.61,21.15 -34.61,20.97 -34.32,20.97 -34.32,21.24 -34.03,21.24 -34.03,21.07 -33.75,21.07 -33.75,21.54 -33.46,21.54 -33.46,21.03 -33.17,21.03 -33.17,21.3 -32.88,21.3 -32.88,21.29 -32.59,21.29 -32.59,21.27 -32.3,21.27 -32.3,21.51 -32.01,21.51 -32.01,21.29 -31.72,21.29 -31.72,21.25 -31.43,21.25 -31.43,21.54 -31.14,21.54 -31.14,21.71 -30.86,21.71 -30.86,21.59 -30.57,21.59 -30.57,21.65 -30.28,21.65 -30.28,21.49 -29.99,21.49 -29.99,21.86 -29.7,21.86 -29.7,22.06 -29.41,22.06 -29.41,21.89 -29.12,21.89 -29.12,21.9 -28.83,21.9 -28.83,21.85 -28.54,21.85 -28.54,21.93 -28.25,21.93 -28.25,22.05 -27.96,22.05 -27.96,22.01 -27.68,22.01 -27.68,22.11 -27.39,22.11 -27.39,22.4 -27.1,22.4 -27.1,22.26 -26.81,22.26 -26.81,22.37 -26.52,22.37 -26.52,22.28 -26.23,22.28 -26.23,22.53 -25.94,22.53 -25.94,22.51 -25.65,22.51 -25.65,22.54 -25.36,22.54 -25.36,22.59 -25.07,22.59 -25.07,22.63 -24.79,22.63 -24.79,22.63 -24.5,22.63 -24.5,22.62 -24.21,22.62 -24.21,22.67 -23.92,22.67 -23.92,23 -23.63,23 -23.63,22.96 -23.34,22.96 -23.34,22.86 -23.05,22.86 -23.05,23.14 -22.76,23.14 -22.76,23.17 -22.47,23.17 -22.47,22.84 -22.18,22.84 -22.18,23.21 -21.89,23.21 -21.89,23.39 -21.61,23.39 -21.61,23.38 -21.32,23.38 -21.32,23.29 -21.03,23.29 -21.03,23.32 -20.74,23.32 -20.74,23.41 -20.45,23.41 -20.45,23.33 -20.16,23.33 -20.16,23.36 -19.87,23.36 -19.87,23.52 -19.58,23.52 -19.58,23.49 -19.29,23.49 -19.29,23.67 -19,23.67 -19,23.81 -18.72,23.81 -18.72,24.26 -18.43,24.26 -18.43,23.97 -18.14,23.97 -18.14,24 -17.85,24 -17.85,23.93 -17.56,23.93 -17.56,24.24 -17.27,24.24 -17.27,24.08 -16.98,24.08 -16.98,24.11 -16.69,24.11 -16.69,24.48 -16.4,24.48 -16.4,24.31 -16.11,24.31 -16.11,24.47 -15.83,24.47 -15.83,24.4 -15.54,24.4 -15.54,24.57 -15.25,24.57 -15.25,24.71 -14.96,24.71 -14.96,24.42 -14.67,24.42 -14.67,24.83 -14.38,24.83 -14.38,25.1 -14.09,25.1 -14.09,24.94 -13.8,24.94 -13.8,25.01 -13.51,25.01 -13.51,25.34 -13.22,25.34 -13.22,25.09 -12.93,25.09 -12.93,25.06 -12.65,25.06 -12.65,25.1 -12.36,25.1 -12.36,25.19 -12.07,25.19 -12.07,25.08 -11.78,25.08 -11.78,25.09 -11.49,25.09 -11.49,25.3 -11.2,25.3 -11.2,25.55 -10.91,25.55 -10.91,25.3 -10.62,25.3 -10.62,25.38 -10.33,25.38 -10.33,25.65 -10.04,25.65 -10.04,25.75 -9.76,25.75 -9.76,25.39 -9.47,25.39 -9.47,25.84 -9.18,25.84 -9.18,25.83 -8.89,25.83 -8.89,25.9 -8.6,25.9 -8.6,25.59 -8.31,25.59 -8.31,25.96 -8.02,25.96 -8.02,26.06 -7.73,26.06 -7.73,26.02 -7.44,26.02 -7.44,26.33 -7.15,26.33 -7.15,26.09 -6.86,26.09 -6.86,26.27 -6.58,26.27 -6.58,26.4 -6.29,26.4 -6.29,26.48 -6,26.48 -6,26.57 -5.71,26.57 -5.71,26.61 -5.42,26.61 -5.42,26.81 -5.13,26.81 -5.13,26.71 -4.84,26.71 -4.84,26.93 -4.55,26.93 -4.55,26.74 -4.26,26.74 -4.26,26.8 -3.97,26.8 -3.97,27.08 -3.69,27.08 -3.69,26.82 -3.4,26.82 -3.4,27.2 -3.11,27.2 -3.11,27.13 -2.82,27.13 -2.82,27.12 -2.53,27.12 -2.53,27.27 -2.24,27.27 -2.24,27.03 -1.95,27.03 -1.95,27.25 -1.66,27.25 -1.66,27.8 -1.37,27.8 -1.37,27.68 -1.08,27.68 -1.08,27.66 -0.79,27.66 -0.79,27.35 -0.51,27.35 -0.51,27.7 -0.22,27.7 -0.22,27.77 0.07,27.77 0.07,27.86 0.36,27.86 0.36,27.83 0.65,27.83 0.65,28.05 0.94,28.05 0.94,27.72 1.23,27.72 1.23,28.06 1.52,28.06 1.52,28.03 1.81,28.03 1.81,27.99 2.1,27.99 2.1,27.87 2.38,27.87 2.38,28.32 2.67,28.32 2.67,28.3 2.96,28.3 2.96,28.3 3.25,28.3 3.25,28.5 3.54,28.5 3.54,28.72 3.83,28.72 3.83,28.55 4.12,28.55 4.12,28.56 4.41,28.56 4.41,28.76 4.7,28.76 4.7,28.65 4.99,28.65 4.99,29.12 5.28,29.12 5.28,28.84 5.56,28.84 5.56,28.8 5.85,28.8 5.85,28.85 6.14,28.85 6.14,28.81 6.43,28.81 6.43,28.92 6.72,28.92 6.72,29.02 7.01,29.02 7.01,29.13 7.3,29.13 7.3,29.17 7.59,29.17 7.59,29.19 7.88,29.19 7.88,29.11 8.17,29.11 8.17,29.32 8.45,29.32 8.45,29.25 8.74,29.25 8.74,29.46 9.03,29.46 9.03,29.51 9.32,29.51 9.32,29.15 9.61,29.15 9.61,29.7 9.9,29.7 9.9,29.57 10.19,29.57 10.19,29.67 10.48,29.67 10.48,29.81 10.77,29.81 10.77,29.61 11.06,29.61 11.06,29.66 11.34,29.66 11.34,29.79 11.63,29.79 11.63,29.77 11.92,29.77 11.92,29.82 12.21,29.82 12.21,30.2 12.5,30.2 12.5,30 12.79,30 12.79,30.34 13.08,30.34 13.08,30.09 13.37,30.09 13.37,30.09 13.66,30.09 13.66,30.27 13.95,30.27 13.95,30.19 14.24,30.19 14.24,30.33 14.52,30.33 14.52,30.42 14.81,30.42 14.81,30.31 15.1,30.31 15.1,30.02 15.39,30.02 15.39,30.23 15.68,30.23 15.68,30.19 15.97,30.19 15.97,30.12 16.26,30.12 16.26,29.55 16.55,29.55 16.55,29.47 16.84,29.47 16.84,28.88 17.13,28.88 17.13,28.84 17.41,28.84 17.41,28.63 17.7,28.63 17.7,28.2 17.99,28.2 17.99,27.61 18.28,27.61 18.28,27.34 18.57,27.34 18.57,26.98 18.86,26.98 18.86,26.95 19.15,26.95 19.15,27.01 19.44,27.01 19.44,27.14 19.73,27.14 19.73,27.71 20.02,27.71 20.02,27.81 20.31,27.81 20.31,28.57 20.59,28.57 20.59,29.29 20.88,29.29 20.88,29.85 21.17,29.85 21.17,30.13 21.46,30.13 21.46,30.45 21.75,30.45 21.75,30.53 22.04,30.53 22.04,31.29 22.33,31.29 22.33,31.44 22.62,31.44 22.62,31.56 22.91,31.56 22.91,31.71 23.2,31.71 23.2,31.88 23.48,31.88 23.48,31.77 23.77,31.77 23.77,31.86 24.06,31.86 24.06,31.9 24.35,31.9 24.35,32 24.64,32 24.64,32.24 24.93,32.24 24.93,32.29 25.22,32.29 25.22,32.15 25.51,32.15 25.51,32.34 25.8,32.34 25.8,32.09 26.09,32.09 26.09,32.44 26.38,32.44 26.38,32.52 26.66,32.52 26.66,32.4 26.95,32.4 26.95,32.59 27.24,32.59 27.24,32.5 27.53,32.5 27.53,32.91 27.82,32.91 27.82,32.48 28.11,32.48 28.11,32.38 28.4,32.38 28.4,32.59 28.69,32.59 28.69,32.98 28.98,32.98 28.98,32.8 29.27,32.8 29.27,32.59 29.55,32.59 29.55,33.02 29.84,33.02 29.84,33.13 30.13,33.13 30.13,32.99 30.42,32.99 30.42,32.96 30.71,32.96 30.71,33.08 31,33.08 31,33.23 31.29,33.23 31.29,32.93 31.58,32.93 31.58,33.31 31.87,33.31 31.87,33.1 32.16,33.1 32.16,33.23 32.45,33.23 32.45,33.13 32.73,33.13 32.73,33.15 33.02,33.15 33.02,33.34 33.31,33.34 33.31,33.25 33.6,33.25 33.6,33.31 33.89,33.31 33.89,33.28 34.18,33.28 34.18,33.29 34.47,33.29 34.47,33.45 34.76,33.45 34.76,33.5 35.05,33.5 35.05,33.7 35.34,33.7 35.34,33.61 35.62,33.61 35.62,33.69 35.91,33.69 35.91,33.5 36.2,33.5 36.2,33.44 36.49,33.44 36.49,33.48 36.78,33.48 36.78,33.16 37.07,33.16 37.07,33.37 37.36,33.37 37.36,33.43 37.65,33.43 37.65,33.59 37.94,33.59 37.94,33.35 38.23,33.35 38.23,33.53 38.51,33.53 38.51,33.45 38.8,33.45 38.8,33.52 39.09,33.52 39.09,33.52 39.38,33.52 39.38,33.61 39.67,33.61 39.67,33.95 39.96,33.95 39.96,33.53 40.25,33.53 40.25,33.81 40.54,33.81 40.54,33.51 40.83,33.51 40.83,33.81 41.12,33.81 41.12,33.99 41.41,33.99 41.41,33.83 41.69,33.83 41.69,33.94 41.98,33.94 41.98,34.01 42.27,34.01 42.27,34.21 42.56,34.21 42.56,34.17 42.85,34.17 42.85,34.37 43.14,34.37 43.14,34.3 43.43,34.3 43.43,34.36 43.72,34.36 43.72,34.68 44.01,34.68 44.01,34.59 44.3,34.59 44.3,34.63 44.58,34.63 44.58,34.6 44.87,34.6 44.87,34.64 45.16,34.64 45.16,34.88 45.45,34.88 45.45,34.74 45.74,34.74 45.74,34.91 46.03,34.91 46.03,34.85 46.32,34.85 46.32,34.95 46.61,34.95 46.61,34.96 46.9,34.96 46.9,35.13 47.19,35.13 47.19,35.09 47.48,35.09 47.48,35.19 47.76,35.19 47.76,35.17 48.05,35.17 48.05,35.31 48.34,35.31 48.34,35.47 48.63,35.47 48.63,35.32 48.92,35.32 48.92,35.6 49.21,35.6 49.21,35.53 49.5,35.53 49.5,35.53 49.79,35.53 49.79,35.57 50.08,35.57 50.08,35.61 50.37,35.61 50.37,35.61 50.65,35.61 50.65,35.79 50.94,35.79 50.94,35.94 51.23,35.94 51.23,35.81 51.52,35.81 51.52,35.73 51.81,35.73 51.81,35.75 52.1,35.75 52.1,35.82 52.39,35.82 52.39,35.65 52.68,35.65 52.68,35.82 52.97,35.82 52.97,35.81 53.26,35.81 53.26,35.97 53.55,35.97 53.55,35.9 53.83,35.9 53.83,36 54.12,36 54.12,35.81 54.41,35.81 54.41,35.93 54.7,35.93 54.7,35.85 54.99,35.85 54.99,35.84 55.28,35.84 55.28,35.83 55.57,35.83 55.57,35.81 55.86,35.81 55.86,36.05 56.15,36.05 56.15,35.9 56.44,35.9 56.44,35.71 56.72,35.71 56.72,35.89 57.01,35.89 57.01,35.89 57.3,35.89 57.3,35.87 57.59,35.87 57.59,35.94 57.88,35.94 57.88,35.86 58.17,35.86 58.17,35.89 58.46,35.89 58.46,35.78 58.75,35.78 58.75,35.78 59.04,35.78 59.04,35.68 59.33,35.68 59.33,35.64 59.62,35.64 59.62,35.62 59.9,35.62 59.9,35.45 60.19,35.45 60.19,35.35 60.48,35.35 60.48,35.28 60.77,35.28 60.77,35 61.06,35 61.06,35.06 61.35,35.06 61.35,34.65 61.64,34.65 61.64,34.56 61.93,34.56 61.93,34.24 62.22,34.24 62.22,33.99 62.51,33.99 62.51,33.61 62.79,33.61 62.79,33.09 63.08,33.09 63.08,32.34 63.37,32.34 63.37,31.39 63.66,31.39 63.66,29.71 63.95,29.71 63.95,27.39 64.24,27.39 64.24,23.61 64.53,23.61 64.53,17.26 64.82,17.26 64.82,8.02 65.11,8.02 65.11,-6.3 65.4,-6.3 65.4,-26.36 65.68,-26.36 65.68,-55.28 65.97,-55.28 65.97,-94.37 66.26,-94.37 66.26,-147.83 66.55,-147.83 66.55,-214.1 66.84,-214.1 66.84,-295.73 67.13,-295.73 67.13,-392.75 67.42,-392.75 67.42,-500.63 67.71,-500.63 67.71,-617.22 68,-617.22 68,-735.23 68.29,-735.23 68.29,-847.68 68.58,-847.68 68.58,-948.21 68.86,-948.21 68.86,-1025.92 69.15,-1025.92 69.15,-1074.91 69.44,-1074.91 69.44,-1091.87 69.73,-1091.87 69.73,-1074.51 70.02,-1074.51 70.02,-1026.11 70.31,-1026.11 70.31,-948.17 70.6,-948.17 70.6,-850.07 70.89,-850.07 70.89,-739.26 71.18,-739.26 71.18,-620.41 71.47,-620.41 71.47,-504.4 71.75,-504.4 71.75,-395.58 72.04,-395.58 72.04,-299.15 72.33,-299.15 72.33,-215.96 72.62,-215.96 72.62,-149.5 72.91,-149.5 72.91,-95.89 73.2,-95.89 73.2,-54.9 73.49,-54.9 73.49,-25.2 73.78,-25.2 73.78,-4.18 74.07,-4.18 74.07,10.55 74.36,10.55 74.36,20.21 74.65,20.21 74.65,26.85 74.93,26.85 74.93,30.99 75.22,30.99 75.22,33.65 75.51,33.65 75.51,35.39 75.8,35.39 75.8,36.15 76.09,36.15 76.09,36.78 76.38,36.78 76.38,37.1 76.67,37.1 76.67,37.43 76.96,37.43 76.96,37.72 77.25,37.72 77.25,37.86 77.54,37.86 77.54,37.85 77.82,37.85 77.82,38.03 78.11,38.03 78.11,37.94 78.4,37.94 78.4,37.99 78.69,37.99 78.69,38.16 78.98,38.16 78.98,38.21 79.27,38.21 79.27,37.8 79.56,37.8 79.56,37.92 79.85,37.92 79.85,37.98 80.14,37.98 80.14,38.03 80.43,38.03 80.43,37.8 80.72,37.8 80.72,37.92 81,37.92 81,37.59 81.29,37.59 81.29,37.5 81.58,37.5 81.58,37.01 81.87,37.01 81.87,37.16 82.16,37.16 82.16,36.57 82.45,36.57 82.45,36.23 82.74,36.23 82.74,35.72 83.03,35.72 83.03,34.9 83.32,34.9 83.32,33.85 83.61,33.85 83.61,32.32 83.89,32.32 83.89,30.21 84.18,30.21 84.18,27.56 84.47,27.56 84.47,23.83 84.76,23.83 84.76,18.88 85.05,18.88 85.05,12.54 85.34,12.54 85.34,4.7 85.63,4.7 85.63,-5.24 85.92,-5.24 85.92,-16.61 86.21,-16.61 86.21,-28.79 86.5,-28.79 86.5,-42.56 86.79,-42.56 86.79,-56.81 87.07,-56.81 87.07,-69.97 87.36,-69.97 87.36,-81.73 87.65,-81.73 87.65,-92.36 87.94,-92.36 87.94,-99.52 88.23,-99.52 88.23,-103.2 88.52,-103.2 88.52,-102.54 88.81,-102.54 88.81,-100.04 89.1,-100.04 89.1,-91.88 89.39,-91.88 89.39,-81.69 89.68,-81.69 89.68,-69.37 89.96,-69.37 89.96,-55.62 90.25,-55.62 90.25,-41.92 90.54,-41.92 90.54,-27.61 90.83,-27.61 90.83,-14.54 91.12,-14.54 91.12,-2.87 91.41,-2.87 91.41,7.57 91.7,7.57 91.7,15.86 91.99,15.86 91.99,22.92 92.28,22.92 92.28,28.54 92.57,28.54 92.57,32.63 92.85,32.63 92.85,35.88 93.14,35.88 93.14,38.16 93.43,38.16 93.43,39.6 93.72,39.6 93.72,40.71 94.01,40.71 94.01,41.67 94.3,41.67 94.3,42.19 94.59,42.19 94.59,42.32 94.88,42.32 94.88,42.58 95.17,42.58 95.17,42.92 95.46,42.92 95.46,42.78 95.75,42.78 95.75,43 96.03,43 96.03,42.9 96.32,42.9 96.32,43.04 96.61,43.04 96.61,42.93 96.9,42.93 96.9,43.18 97.19,43.18 97.19,43 97.48,43 97.48,43.11 97.77,43.11 97.77,42.86 98.06,42.86 98.06,43.12 98.35,43.12 98.35,42.99 98.64,42.99 98.64,42.99 98.92,42.99 98.92,43.06 99.21,43.06 99.21,43.03 99.5,43.03 99.5,42.98 99.79,42.98 99.79,42.92 100.08,42.92 100.08,42.97 100.37,42.97 100.37,42.94 100.66,42.94 100.66,42.96 100.95,42.96 100.95,42.95 101.24,42.95 101.24,43.02 101.53,43.02 101.53,43.03 101.82,43.03 101.82,43.06 102.1,43.06 102.1,43.22 102.39,43.22 102.39,43.12 102.68,43.12 102.68,43.13 102.97,43.13 102.97,43.1 103.26,43.1 103.26,43.14 103.55,43.14 103.55,43.18 103.84,43.18 103.84,43.41 104.13,43.41 104.13,43.33 104.42,43.33 104.42,43.18 104.71,43.18 104.71,43.24 104.99,43.24 104.99,43.15 105.28,43.15 105.28,43.18 105.57,43.18 105.57,43.21 105.86,43.21 105.86,43.05 106.15,43.05 106.15,43.07 106.44,43.07 106.44,43.14 106.73,43.14 106.73,43.15 107.02,43.15 107.02,43.22 107.31,43.22 107.31,43.22 107.6,43.22 107.6,43.17 107.89,43.17 107.89,43.08 108.17,43.08 108.17,43.2 108.46,43.2 108.46,43.12 108.75,43.12 108.75,43.24 109.04,43.24 109.04,43.05 109.33,43.05 109.33,43.24 109.62,43.24 109.62,43.19 109.91,43.19 109.91,43.23 110.2,43.23 110.2,43.09 110.49,43.09 110.49,43.32 110.78,43.32 110.78,43.41 111.06,43.41 111.06,43.39 111.35,43.39 111.35,43.53 111.64,43.53 111.64,43.5 111.93,43.5 111.93,43.59 112.22,43.59 112.22,43.51 112.51,43.51 112.51,43.65 112.8,43.65 112.8,43.56 113.09,43.56 113.09,43.57 113.38,43.57 113.38,43.63 113.67,43.63 113.67,43.59 113.96,43.59 113.96,43.71 114.24,43.71 114.24,43.64 114.53,43.64 114.53,43.64 114.82,43.64 114.82,43.71 115.11,43.71 115.11,43.79 115.4,43.79 115.4,43.67 " class="primitive"/>
            </g>
          </g>
        </g>
      </g>
      <g class="guide colorkey" id="img-b0083a17-26">
        <g fill="#4C404B" font-size="2.82" font-family="'PT Sans','Helvetica Neue','Helvetica',sans-serif" id="img-b0083a17-27">
          <g transform="translate(210.87,31.7)" id="img-b0083a17-28">
            <g class="primitive">
              <text dy="0.35em">Fe std</text>
            </g>
          </g>
          <g transform="translate(210.87,35.33)" id="img-b0083a17-29">
            <g class="primitive">
              <text dy="0.35em">Brem[Global][Fe std]</text>
            </g>
          </g>
        </g>
        <g stroke-width="0.3" id="img-b0083a17-30">
          <g stroke="#FFFFFF" fill-opacity="1" fill="#B70002" id="img-b0083a17-31">
            <g transform="translate(208.05,35.33)" id="img-b0083a17-32">
              <circle cx="0" cy="0" r="0.9" class="primitive"/>
            </g>
          </g>
          <g stroke="#FFFFFF" fill-opacity="1" fill="#104E8B" id="img-b0083a17-33">
            <g transform="translate(208.05,31.7)" id="img-b0083a17-34">
              <circle cx="0" cy="0" r="0.9" class="primitive"/>
            </g>
          </g>
        </g>
        <g fill="#362A35" font-size="3.18" font-family="'PT Sans','Helvetica Neue','Helvetica',sans-serif" stroke="#000000" stroke-opacity="0.000" id="img-b0083a17-35">
          <g transform="translate(207.24,28.39)" id="img-b0083a17-36">
            <g class="primitive">
              <text dy="-0em">Spectra</text>
            </g>
          </g>
        </g>
      </g>
    </g>
  </g>
  <g class="guide ylabels" font-size="2.82" font-family="'PT Sans Caption','Helvetica Neue','Helvetica',sans-serif" fill="#6C606B" id="img-b0083a17-37">
    <g transform="translate(17.03,59.87)" id="img-b0083a17-38">
      <g class="primitive">
        <text text-anchor="end" dy="0.35em">0</text>
      </g>
    </g>
    <g transform="translate(17.03,43.65)" id="img-b0083a17-39">
      <g class="primitive">
        <text text-anchor="end" dy="0.35em">20000</text>
      </g>
    </g>
    <g transform="translate(17.03,27.43)" id="img-b0083a17-40">
      <g class="primitive">
        <text text-anchor="end" dy="0.35em">40000</text>
      </g>
    </g>
    <g transform="translate(17.03,11.21)" id="img-b0083a17-41">
      <g class="primitive">
        <text text-anchor="end" dy="0.35em">60000</text>
      </g>
    </g>
  </g>
  <g font-size="3.18" font-family="'PT Sans','Helvetica Neue','Helvetica',sans-serif" fill="#202020" stroke="#000000" stroke-opacity="0.000" id="img-b0083a17-42">
    <g transform="translate(4.18,29.29)" id="img-b0083a17-43">
      <g class="primitive">
        <text text-anchor="middle" dy="0.35em" transform="rotate(-90,0, 2)">Counts</text>
      </g>
    </g>
  </g>
</g>
<defs>
  <clipPath id="img-b0083a17-4">
    <path d="M18.03,0.71 L253.29,0.71 253.29,61.87 18.03,61.87 " />
  </clipPath>
</defs>
</svg>
