<?xml version="1.0" encoding="UTF-8"?>
<svg xmlns="http://www.w3.org/2000/svg"
     xmlns:xlink="http://www.w3.org/1999/xlink"
     xmlns:gadfly="http://www.gadflyjl.org/ns"
     version="1.2"
     width="254mm" height="76.2mm" viewBox="0 0 254 76.2"
     stroke="none"
     fill="#000000"
     stroke-width="0.3"
     font-size="3.88"
>
<defs>
  <marker id="arrow" markerWidth="15" markerHeight="7" refX="5" refY="3.5" orient="auto" markerUnits="strokeWidth">
    <path d="M0,0 L15,3.5 L0,7 z" stroke="context-stroke" fill="context-stroke"/>
  </marker>
</defs>
<g class="plotroot xscalable yscalable" id="img-73b55e82-1">
  <g font-size="3.18" font-family="'PT Sans','Helvetica Neue','Helvetica',sans-serif" fill="#202020" stroke="#000000" stroke-opacity="0.000" id="img-73b55e82-2">
    <g transform="translate(135.66,69.54)">
      <g class="primitive">
        <text text-anchor="middle" dy="0.6em">Energy (eV)</text>
      </g>
    </g>
  </g>
  <g class="guide xlabels" font-size="2.82" font-family="'PT Sans Caption','Helvetica Neue','Helvetica',sans-serif" fill="#6C606B" id="img-73b55e82-3">
    <g transform="translate(20.03,62.87)">
      <g class="primitive">
        <text text-anchor="middle" dy="0.6em">0</text>
      </g>
    </g>
    <g transform="translate(77.84,62.87)">
      <g class="primitive">
        <text text-anchor="middle" dy="0.6em">2000</text>
      </g>
    </g>
    <g transform="translate(135.66,62.87)">
      <g class="primitive">
        <text text-anchor="middle" dy="0.6em">4000</text>
      </g>
    </g>
    <g transform="translate(193.48,62.87)">
      <g class="primitive">
        <text text-anchor="middle" dy="0.6em">6000</text>
      </g>
    </g>
    <g transform="translate(251.29,62.87)">
      <g class="primitive">
        <text text-anchor="middle" dy="0.6em">8000</text>
      </g>
    </g>
  </g>
  <g clip-path="url(#img-73b55e82-4)">
    <g id="img-73b55e82-5">
      <g pointer-events="visible" stroke-width="0.3" fill="#FDFDF1" stroke="#202020" class="guide background" id="img-73b55e82-6">
        <g transform="translate(135.66,31.29)" id="img-73b55e82-7">
          <path d="M-117.63,-30.58 L117.63,-30.58 117.63,30.58 -117.63,30.58  z" class="primitive"/>
        </g>
      </g>
      <g class="guide ygridlines xfixed" stroke-dasharray="none" stroke-width="0.2" stroke="#FFDFDF" id="img-73b55e82-8">
        <g transform="translate(135.66,59.87)" id="img-73b55e82-9">
          <path fill="none" d="M-117.63,0 L117.63,0 " class="primitive"/>
        </g>
        <g transform="translate(135.66,35.3)" id="img-73b55e82-10">
          <path fill="none" d="M-117.63,0 L117.63,0 " class="primitive"/>
        </g>
        <g transform="translate(135.66,10.73)" id="img-73b55e82-11">
          <path fill="none" d="M-117.63,0 L117.63,0 " class="primitive"/>
        </g>
      </g>
      <g class="guide xgridlines yfixed" stroke-dasharray="none" stroke-width="0.2" stroke="#FFDFDF" id="img-73b55e82-12">
        <g transform="translate(20.03,31.29)" id="img-73b55e82-13">
          <path fill="none" d="M0,-30.58 L0,30.58 " class="primitive"/>
        </g>
        <g transform="translate(77.84,31.29)" id="img-73b55e82-14">
          <path fill="none" d="M0,-30.58 L0,30.58 " class="primitive"/>
        </g>
        <g transform="translate(135.66,31.29)" id="img-73b55e82-15">
          <path fill="none" d="M0,-30.58 L0,30.58 " class="primitive"/>
        </g>
        <g transform="translate(193.48,31.29)" id="img-73b55e82-16">
          <path fill="none" d="M0,-30.58 L0,30.58 " class="primitive"/>
        </g>
        <g transform="translate(251.29,31.29)" id="img-73b55e82-17">
          <path fill="none" d="M0,-30.58 L0,30.58 " class="primitive"/>
        </g>
      </g>
      <g class="plotpanel" id="img-73b55e82-18">
        <metadata>
          <boundingbox value="18.027222222222242mm 0.7055555555555555mm 235.26722222222224mm 61.16055555555556mm"/>
          <unitbox value="-69.18403674441063 12040.184182468487 8138.368073488822 -12447.218364936973"/>
        </metadata>
        <g stroke-width="0.3" fill="#000000" fill-opacity="0.000" class="geometry" id="img-73b55e82-19">
          <g class="color_RGB{N0f8}(0.718,0.0,0.008)" stroke-dasharray="none" stroke-opacity="1" stroke="#B70002" id="img-73b55e82-20">
            <g transform="translate(135.62,24.86)" id="img-73b55e82-21">
              <path fill="none" d="M-115.54,34.98 L-115.26,34.98 -115.26,34.98 -114.97,34.98 -114.97,34.97 -114.68,34.97 -114.68,34.99 -114.39,34.99 -114.39,35 -114.1,35 -114.1,34.99 -113.81,34.99 -113.81,35 -113.52,35 -113.52,35 -113.23,35 -113.23,35 -112.94,35 -112.94,34.99 -112.65,34.99 -112.65,35 -112.37,35 -112.37,34.98 -112.08,34.98 -112.08,34.98 -111.79,34.98 -111.79,34.98 -111.5,34.98 -111.5,34.96 -111.21,34.96 -111.21,34.93 -110.92,34.93 -110.92,34.86 -110.63,34.86 -110.63,34.75 -110.34,34.75 -110.34,34.58 -110.05,34.58 -110.05,34.18 -109.76,34.18 -109.76,33.52 -109.47,33.52 -109.47,32.19 -109.19,32.19 -109.19,29.66 -108.9,29.66 -108.9,25.31 -108.61,25.31 -108.61,18.59 -108.32,18.59 -108.32,11.91 -108.03,11.91 -108.03,6.16 -107.74,6.16 -107.74,4.2 -107.45,4.2 -107.45,7.51 -107.16,7.51 -107.16,14.29 -106.87,14.29 -106.87,22.24 -106.58,22.24 -106.58,27.84 -106.3,27.84 -106.3,32.33 -106.01,32.33 -106.01,34.47 -105.72,34.47 -105.72,35.22 -105.43,35.22 -105.43,35.8 -105.14,35.8 -105.14,36.13 -104.85,36.13 -104.85,37.11 -104.56,37.11 -104.56,36.97 -104.27,36.97 -104.27,37.72 -103.98,37.72 -103.98,37.58 -103.69,37.58 -103.69,37.18 -103.4,37.18 -103.4,35.16 -103.12,35.16 -103.12,30.98 -102.83,30.98 -102.83,20.26 -102.54,20.26 -102.54,-0.58 -102.25,-0.58 -102.25,-38.26 -101.96,-38.26 -101.96,-103.29 -101.67,-103.29 -101.67,-203.3 -101.38,-203.3 -101.38,-327.91 -101.09,-327.91 -101.09,-458.67 -100.8,-458.67 -100.8,-553.58 -100.51,-553.58 -100.51,-573.02 -100.23,-573.02 -100.23,-514.97 -99.94,-514.97 -99.94,-399.16 -99.65,-399.16 -99.65,-261.91 -99.36,-261.91 -99.36,-142.36 -99.07,-142.36 -99.07,-55.94 -98.78,-55.94 -98.78,-7.79 -98.49,-7.79 -98.49,16.9 -98.2,16.9 -98.2,28.55 -97.91,28.55 -97.91,32.56 -97.62,32.56 -97.62,34.45 -97.33,34.45 -97.33,35.48 -97.05,35.48 -97.05,34.36 -96.76,34.36 -96.76,32.74 -96.47,32.74 -96.47,29.5 -96.18,29.5 -96.18,24.1 -95.89,24.1 -95.89,17.9 -95.6,17.9 -95.6,11.4 -95.31,11.4 -95.31,7.79 -95.02,7.79 -95.02,7.41 -94.73,7.41 -94.73,9.81 -94.44,9.81 -94.44,15.93 -94.16,15.93 -94.16,21.8 -93.87,21.8 -93.87,26.38 -93.58,26.38 -93.58,30.04 -93.29,30.04 -93.29,32.56 -93,32.56 -93,33.14 -92.71,33.14 -92.71,33.29 -92.42,33.29 -92.42,33.89 -92.13,33.89 -92.13,34.26 -91.84,34.26 -91.84,34.48 -91.55,34.48 -91.55,33.97 -91.27,33.97 -91.27,34.38 -90.98,34.38 -90.98,34.09 -90.69,34.09 -90.69,33.74 -90.4,33.74 -90.4,34.47 -90.11,34.47 -90.11,34.39 -89.82,34.39 -89.82,33.92 -89.53,33.92 -89.53,34.3 -89.24,34.3 -89.24,34.79 -88.95,34.79 -88.95,34.41 -88.66,34.41 -88.66,34.33 -88.37,34.33 -88.37,33.95 -88.09,33.95 -88.09,34.22 -87.8,34.22 -87.8,33.21 -87.51,33.21 -87.51,34.04 -87.22,34.04 -87.22,33.59 -86.93,33.59 -86.93,32.94 -86.64,32.94 -86.64,32.8 -86.35,32.8 -86.35,31.84 -86.06,31.84 -86.06,31.1 -85.77,31.1 -85.77,31.26 -85.48,31.26 -85.48,31.52 -85.2,31.52 -85.2,31.62 -84.91,31.62 -84.91,30.64 -84.62,30.64 -84.62,30.96 -84.33,30.96 -84.33,30.66 -84.04,30.66 -84.04,31.62 -83.75,31.62 -83.75,30.77 -83.46,30.77 -83.46,30.45 -83.17,30.45 -83.17,30.54 -82.88,30.54 -82.88,29.96 -82.59,29.96 -82.59,27.93 -82.3,27.93 -82.3,25.76 -82.02,25.76 -82.02,20.29 -81.73,20.29 -81.73,8.69 -81.44,8.69 -81.44,-13.84 -81.15,-13.84 -81.15,-51.31 -80.86,-51.31 -80.86,-114.74 -80.57,-114.74 -80.57,-202.25 -80.28,-202.25 -80.28,-312.15 -79.99,-312.15 -79.99,-421.93 -79.7,-421.93 -79.7,-510.13 -79.41,-510.13 -79.41,-555.3 -79.13,-555.3 -79.13,-543.5 -78.84,-543.5 -78.84,-481.78 -78.55,-481.78 -78.55,-383.08 -78.26,-383.08 -78.26,-273.76 -77.97,-273.76 -77.97,-174.16 -77.68,-174.16 -77.68,-97.44 -77.39,-97.44 -77.39,-41.26 -77.1,-41.26 -77.1,-8.24 -76.81,-8.24 -76.81,12.24 -76.52,12.24 -76.52,21.64 -76.23,21.64 -76.23,26.77 -75.95,26.77 -75.95,27.88 -75.66,27.88 -75.66,28.85 -75.37,28.85 -75.37,26.82 -75.08,26.82 -75.08,22.68 -74.79,22.68 -74.79,14.88 -74.5,14.88 -74.5,-1.04 -74.21,-1.04 -74.21,-25.6 -73.92,-25.6 -73.92,-60.73 -73.63,-60.73 -73.63,-102.95 -73.34,-102.95 -73.34,-148.9 -73.06,-148.9 -73.06,-187.3 -72.77,-187.3 -72.77,-210.96 -72.48,-210.96 -72.48,-214.74 -72.19,-214.74 -72.19,-198.3 -71.9,-198.3 -71.9,-161.35 -71.61,-161.35 -71.61,-119.91 -71.32,-119.91 -71.32,-77.16 -71.03,-77.16 -71.03,-42.36 -70.74,-42.36 -70.74,-14.74 -70.45,-14.74 -70.45,1 -70.16,1 -70.16,13 -69.88,13 -69.88,20.23 -69.59,20.23 -69.59,23.07 -69.3,23.07 -69.3,25.83 -69.01,25.83 -69.01,27.43 -68.72,27.43 -68.72,24.83 -68.43,24.83 -68.43,21.12 -68.14,21.12 -68.14,10.94 -67.85,10.94 -67.85,-9.55 -67.56,-9.55 -67.56,-47.57 -67.27,-47.57 -67.27,-117.94 -66.99,-117.94 -66.99,-219.72 -66.7,-219.72 -66.7,-364.93 -66.41,-364.93 -66.41,-545.35 -66.12,-545.35 -66.12,-737.84 -65.83,-737.84 -65.83,-907.89 -65.54,-907.89 -65.54,-1043.9 -65.25,-1043.9 -65.25,-1084.06 -64.96,-1084.06 -64.96,-1034.45 -64.67,-1034.45 -64.67,-907.13 -64.38,-907.13 -64.38,-733.69 -64.1,-733.69 -64.1,-551.7 -63.81,-551.7 -63.81,-384.62 -63.52,-384.62 -63.52,-251.2 -63.23,-251.2 -63.23,-153.35 -62.94,-153.35 -62.94,-89.72 -62.65,-89.72 -62.65,-51.44 -62.36,-51.44 -62.36,-28.54 -62.07,-28.54 -62.07,-12.91 -61.78,-12.91 -61.78,-0.86 -61.49,-0.86 -61.49,9.38 -61.2,9.38 -61.2,16.81 -60.92,16.81 -60.92,22.84 -60.63,22.84 -60.63,26.48 -60.34,26.48 -60.34,28.02 -60.05,28.02 -60.05,29.14 -59.76,29.14 -59.76,30.91 -59.47,30.91 -59.47,31.69 -59.18,31.69 -59.18,31.35 -58.89,31.35 -58.89,31.9 -58.6,31.9 -58.6,32.54 -58.31,32.54 -58.31,33.08 -58.03,33.08 -58.03,33.15 -57.74,33.15 -57.74,33.93 -57.45,33.93 -57.45,34.78 -57.16,34.78 -57.16,34.56 -56.87,34.56 -56.87,35.72 -56.58,35.72 -56.58,35.88 -56.29,35.88 -56.29,35.86 -56,35.86 -56,35.72 -55.71,35.72 -55.71,36.05 -55.42,36.05 -55.42,36.36 -55.13,36.36 -55.13,35.78 -54.85,35.78 -54.85,35.82 -54.56,35.82 -54.56,36.08 -54.27,36.08 -54.27,36.05 -53.98,36.05 -53.98,36.82 -53.69,36.82 -53.69,35.5 -53.4,35.5 -53.4,36.08 -53.11,36.08 -53.11,35.68 -52.82,35.68 -52.82,36.22 -52.53,36.22 -52.53,36.28 -52.24,36.28 -52.24,35.45 -51.96,35.45 -51.96,35.24 -51.67,35.24 -51.67,34.83 -51.38,34.83 -51.38,34.7 -51.09,34.7 -51.09,34.48 -50.8,34.48 -50.8,34.24 -50.51,34.24 -50.51,34.1 -50.22,34.1 -50.22,34.3 -49.93,34.3 -49.93,33.96 -49.64,33.96 -49.64,33.76 -49.35,33.76 -49.35,34.71 -49.06,34.71 -49.06,35.04 -48.78,35.04 -48.78,35.27 -48.49,35.27 -48.49,35.08 -48.2,35.08 -48.2,35.29 -47.91,35.29 -47.91,35.48 -47.62,35.48 -47.62,35.3 -47.33,35.3 -47.33,35.97 -47.04,35.97 -47.04,35.89 -46.75,35.89 -46.75,35.93 -46.46,35.93 -46.46,35.92 -46.17,35.92 -46.17,35.96 -45.89,35.96 -45.89,36.01 -45.6,36.01 -45.6,36.19 -45.31,36.19 -45.31,35.4 -45.02,35.4 -45.02,36.03 -44.73,36.03 -44.73,35.95 -44.44,35.95 -44.44,35.31 -44.15,35.31 -44.15,35.74 -43.86,35.74 -43.86,35.72 -43.57,35.72 -43.57,35.51 -43.28,35.51 -43.28,35.98 -43,35.98 -43,35.52 -42.71,35.52 -42.71,35.73 -42.42,35.73 -42.42,34.97 -42.13,34.97 -42.13,35.94 -41.84,35.94 -41.84,35.37 -41.55,35.37 -41.55,35.09 -41.26,35.09 -41.26,36.67 -40.97,36.67 -40.97,35.4 -40.68,35.4 -40.68,35.94 -40.39,35.94 -40.39,35.57 -40.1,35.57 -40.1,35.78 -39.82,35.78 -39.82,35.73 -39.53,35.73 -39.53,35.31 -39.24,35.31 -39.24,35.93 -38.95,35.93 -38.95,35.62 -38.66,35.62 -38.66,35.65 -38.37,35.65 -38.37,35.64 -38.08,35.64 -38.08,35.91 -37.79,35.91 -37.79,35.6 -37.5,35.6 -37.5,35.83 -37.21,35.83 -37.21,35.86 -36.93,35.86 -36.93,35.07 -36.64,35.07 -36.64,35.7 -36.35,35.7 -36.35,35.66 -36.06,35.66 -36.06,35.7 -35.77,35.7 -35.77,35.98 -35.48,35.98 -35.48,35.51 -35.19,35.51 -35.19,35.29 -34.9,35.29 -34.9,36.17 -34.61,36.17 -34.61,35.91 -34.32,35.91 -34.32,35.86 -34.03,35.86 -34.03,35.63 -33.75,35.63 -33.75,35.36 -33.46,35.36 -33.46,35.5 -33.17,35.5 -33.17,36.01 -32.88,36.01 -32.88,35.72 -32.59,35.72 -32.59,35.11 -32.3,35.11 -32.3,35.74 -32.01,35.74 -32.01,35.25 -31.72,35.25 -31.72,35.04 -31.43,35.04 -31.43,34.92 -31.14,34.92 -31.14,35.07 -30.86,35.07 -30.86,35.53 -30.57,35.53 -30.57,34.89 -30.28,34.89 -30.28,34.65 -29.99,34.65 -29.99,34.16 -29.7,34.16 -29.7,34.19 -29.41,34.19 -29.41,34.22 -29.12,34.22 -29.12,34.26 -28.83,34.26 -28.83,34.62 -28.54,34.62 -28.54,34.47 -28.25,34.47 -28.25,34.92 -27.96,34.92 -27.96,34.84 -27.68,34.84 -27.68,34.87 -27.39,34.87 -27.39,35.43 -27.1,35.43 -27.1,34.94 -26.81,34.94 -26.81,35.24 -26.52,35.24 -26.52,35.36 -26.23,35.36 -26.23,35.36 -25.94,35.36 -25.94,35.25 -25.65,35.25 -25.65,35.67 -25.36,35.67 -25.36,35.7 -25.07,35.7 -25.07,35.02 -24.79,35.02 -24.79,35.41 -24.5,35.41 -24.5,35.03 -24.21,35.03 -24.21,34.64 -23.92,34.64 -23.92,34.91 -23.63,34.91 -23.63,34.89 -23.34,34.89 -23.34,34.9 -23.05,34.9 -23.05,35.19 -22.76,35.19 -22.76,34.75 -22.47,34.75 -22.47,34.46 -22.18,34.46 -22.18,35.15 -21.89,35.15 -21.89,34.76 -21.61,34.76 -21.61,34.08 -21.32,34.08 -21.32,35.47 -21.03,35.47 -21.03,34.61 -20.74,34.61 -20.74,35.25 -20.45,35.25 -20.45,34.82 -20.16,34.82 -20.16,34.68 -19.87,34.68 -19.87,34.74 -19.58,34.74 -19.58,35.2 -19.29,35.2 -19.29,35.74 -19,35.74 -19,35.53 -18.72,35.53 -18.72,35.21 -18.43,35.21 -18.43,34.88 -18.14,34.88 -18.14,34.92 -17.85,34.92 -17.85,35.17 -17.56,35.17 -17.56,35.44 -17.27,35.44 -17.27,34.71 -16.98,34.71 -16.98,35.19 -16.69,35.19 -16.69,35.31 -16.4,35.31 -16.4,34.95 -16.11,34.95 -16.11,34.43 -15.83,34.43 -15.83,34.1 -15.54,34.1 -15.54,34.41 -15.25,34.41 -15.25,34.19 -14.96,34.19 -14.96,33.85 -14.67,33.85 -14.67,33.32 -14.38,33.32 -14.38,33.58 -14.09,33.58 -14.09,32.55 -13.8,32.55 -13.8,32.26 -13.51,32.26 -13.51,31.88 -13.22,31.88 -13.22,31.12 -12.93,31.12 -12.93,29.33 -12.65,29.33 -12.65,26.79 -12.36,26.79 -12.36,23.22 -12.07,23.22 -12.07,15.35 -11.78,15.35 -11.78,5.1 -11.49,5.1 -11.49,-10.25 -11.2,-10.25 -11.2,-33.2 -10.91,-33.2 -10.91,-62.8 -10.62,-62.8 -10.62,-101.38 -10.33,-101.38 -10.33,-145.91 -10.04,-145.91 -10.04,-193.65 -9.76,-193.65 -9.76,-237.73 -9.47,-237.73 -9.47,-280.96 -9.18,-280.96 -9.18,-310.08 -8.89,-310.08 -8.89,-322.05 -8.6,-322.05 -8.6,-322.15 -8.31,-322.15 -8.31,-301.46 -8.02,-301.46 -8.02,-267.58 -7.73,-267.58 -7.73,-228.45 -7.44,-228.45 -7.44,-178.98 -7.15,-178.98 -7.15,-133.83 -6.86,-133.83 -6.86,-88.33 -6.58,-88.33 -6.58,-53.6 -6.29,-53.6 -6.29,-25.58 -6,-25.58 -6,-4.83 -5.71,-4.83 -5.71,9.22 -5.42,9.22 -5.42,19.56 -5.13,19.56 -5.13,25.95 -4.84,25.95 -4.84,28.71 -4.55,28.71 -4.55,32.03 -4.26,32.03 -4.26,32.43 -3.97,32.43 -3.97,33.39 -3.69,33.39 -3.69,33.24 -3.4,33.24 -3.4,33.19 -3.11,33.19 -3.11,32.12 -2.82,32.12 -2.82,32.08 -2.53,32.08 -2.53,30.02 -2.24,30.02 -2.24,28.34 -1.95,28.34 -1.95,25.64 -1.66,25.64 -1.66,21.36 -1.37,21.36 -1.37,17.57 -1.08,17.57 -1.08,12.46 -0.79,12.46 -0.79,6.7 -0.51,6.7 -0.51,1.94 -0.22,1.94 -0.22,-2.85 0.07,-2.85 0.07,-5.08 0.36,-5.08 0.36,-8.34 0.65,-8.34 0.65,-8.1 0.94,-8.1 0.94,-6.42 1.23,-6.42 1.23,-3.44 1.52,-3.44 1.52,0.73 1.81,0.73 1.81,5.91 2.1,5.91 2.1,11.77 2.38,11.77 2.38,17.11 2.67,17.11 2.67,21.5 2.96,21.5 2.96,25.68 3.25,25.68 3.25,28.48 3.54,28.48 3.54,30.73 3.83,30.73 3.83,31.85 4.12,31.85 4.12,33.29 4.41,33.29 4.41,34.6 4.7,34.6 4.7,34.09 4.99,34.09 4.99,34.38 5.28,34.38 5.28,34.19 5.56,34.19 5.56,34.79 5.85,34.79 5.85,34.82 6.14,34.82 6.14,34.59 6.43,34.59 6.43,34.74 6.72,34.74 6.72,34.46 7.01,34.46 7.01,34.8 7.3,34.8 7.3,34.66 7.59,34.66 7.59,35.06 7.88,35.06 7.88,34.5 8.17,34.5 8.17,35.4 8.45,35.4 8.45,35.22 8.74,35.22 8.74,35.1 9.03,35.1 9.03,35 9.32,35 9.32,35.02 9.61,35.02 9.61,34.79 9.9,34.79 9.9,35.53 10.19,35.53 10.19,34.82 10.48,34.82 10.48,35.13 10.77,35.13 10.77,35.2 11.06,35.2 11.06,34.76 11.34,34.76 11.34,35.04 11.63,35.04 11.63,35.49 11.92,35.49 11.92,34.94 12.21,34.94 12.21,34.79 12.5,34.79 12.5,35.34 12.79,35.34 12.79,34.85 13.08,34.85 13.08,34.91 13.37,34.91 13.37,35.49 13.66,35.49 13.66,35.08 13.95,35.08 13.95,35.05 14.24,35.05 14.24,35.11 14.52,35.11 14.52,34.81 14.81,34.81 14.81,35.1 15.1,35.1 15.1,34.62 15.39,34.62 15.39,35.24 15.68,35.24 15.68,35.15 15.97,35.15 15.97,35.25 16.26,35.25 16.26,34.99 16.55,34.99 16.55,35.39 16.84,35.39 16.84,34.87 17.13,34.87 17.13,34.94 17.41,34.94 17.41,35.1 17.7,35.1 17.7,34.69 17.99,34.69 17.99,34.34 18.28,34.34 18.28,34.92 18.57,34.92 18.57,34.96 18.86,34.96 18.86,34.56 19.15,34.56 19.15,35.11 19.44,35.11 19.44,35.36 19.73,35.36 19.73,35.1 20.02,35.1 20.02,34.91 20.31,34.91 20.31,34.96 20.59,34.96 20.59,34.59 20.88,34.59 20.88,35 21.17,35 21.17,34.95 21.46,34.95 21.46,35.42 21.75,35.42 21.75,35.36 22.04,35.36 22.04,35.26 22.33,35.26 22.33,35.33 22.62,35.33 22.62,35.24 22.91,35.24 22.91,34.97 23.2,34.97 23.2,35.4 23.48,35.4 23.48,35.44 23.77,35.44 23.77,35.43 24.06,35.43 24.06,35.85 24.35,35.85 24.35,35.17 24.64,35.17 24.64,35.03 24.93,35.03 24.93,35.16 25.22,35.16 25.22,35.48 25.51,35.48 25.51,35.22 25.8,35.22 25.8,34.9 26.09,34.9 26.09,35.19 26.38,35.19 26.38,34.89 26.66,34.89 26.66,35 26.95,35 26.95,35.04 27.24,35.04 27.24,35.08 27.53,35.08 27.53,34.8 27.82,34.8 27.82,35.29 28.11,35.29 28.11,35 28.4,35 28.4,34.86 28.69,34.86 28.69,34.81 28.98,34.81 28.98,34.92 29.27,34.92 29.27,34.88 29.55,34.88 29.55,35.48 29.84,35.48 29.84,35.43 30.13,35.43 30.13,35.21 30.42,35.21 30.42,35.42 30.71,35.42 30.71,35.24 31,35.24 31,35.72 31.29,35.72 31.29,35.19 31.58,35.19 31.58,35.23 31.87,35.23 31.87,34.97 32.16,34.97 32.16,35.21 32.45,35.21 32.45,35.24 32.73,35.24 32.73,35.2 33.02,35.2 33.02,35.27 33.31,35.27 33.31,35.5 33.6,35.5 33.6,35.37 33.89,35.37 33.89,34.96 34.18,34.96 34.18,35.12 34.47,35.12 34.47,34.87 34.76,34.87 34.76,35.1 35.05,35.1 35.05,35.22 35.34,35.22 35.34,35.15 35.62,35.15 35.62,35.2 35.91,35.2 35.91,34.93 36.2,34.93 36.2,35.31 36.49,35.31 36.49,35.1 36.78,35.1 36.78,35.18 37.07,35.18 37.07,35.03 37.36,35.03 37.36,35.44 37.65,35.44 37.65,35.26 37.94,35.26 37.94,34.83 38.23,34.83 38.23,35.21 38.51,35.21 38.51,35.45 38.8,35.45 38.8,35.34 39.09,35.34 39.09,35 39.38,35 39.38,35.03 39.67,35.03 39.67,34.84 39.96,34.84 39.96,34.71 40.25,34.71 40.25,34.29 40.54,34.29 40.54,34.49 40.83,34.49 40.83,34.41 41.12,34.41 41.12,34.72 41.41,34.72 41.41,34.66 41.69,34.66 41.69,34.66 41.98,34.66 41.98,34.56 42.27,34.56 42.27,34.61 42.56,34.61 42.56,34.61 42.85,34.61 42.85,34.52 43.14,34.52 43.14,35.2 43.43,35.2 43.43,35.18 43.72,35.18 43.72,34.97 44.01,34.97 44.01,35.05 44.3,35.05 44.3,35.31 44.58,35.31 44.58,35.15 44.87,35.15 44.87,35.4 45.16,35.4 45.16,35.23 45.45,35.23 45.45,35.01 45.74,35.01 45.74,35.2 46.03,35.2 46.03,35.43 46.32,35.43 46.32,35.24 46.61,35.24 46.61,35.3 46.9,35.3 46.9,35.23 47.19,35.23 47.19,35.19 47.48,35.19 47.48,35.8 47.76,35.8 47.76,35.43 48.05,35.43 48.05,35.64 48.34,35.64 48.34,35.63 48.63,35.63 48.63,35.36 48.92,35.36 48.92,35.53 49.21,35.53 49.21,35.22 49.5,35.22 49.5,35.28 49.79,35.28 49.79,35.6 50.08,35.6 50.08,35.11 50.37,35.11 50.37,35.58 50.65,35.58 50.65,35.05 50.94,35.05 50.94,35.6 51.23,35.6 51.23,35.5 51.52,35.5 51.52,35.46 51.81,35.46 51.81,35.21 52.1,35.21 52.1,35.34 52.39,35.34 52.39,34.9 52.68,34.9 52.68,35.08 52.97,35.08 52.97,34.98 53.26,34.98 53.26,34.6 53.55,34.6 53.55,34.85 53.83,34.85 53.83,34.87 54.12,34.87 54.12,34.25 54.41,34.25 54.41,34.48 54.7,34.48 54.7,34.66 54.99,34.66 54.99,34.33 55.28,34.33 55.28,34.71 55.57,34.71 55.57,34.7 55.86,34.7 55.86,34.72 56.15,34.72 56.15,34.91 56.44,34.91 56.44,35.11 56.72,35.11 56.72,35.07 57.01,35.07 57.01,34.89 57.3,34.89 57.3,35 57.59,35 57.59,35.62 57.88,35.62 57.88,35.07 58.17,35.07 58.17,35.37 58.46,35.37 58.46,35.37 58.75,35.37 58.75,35.3 59.04,35.3 59.04,35.1 59.33,35.1 59.33,35.24 59.62,35.24 59.62,35.26 59.9,35.26 59.9,35.64 60.19,35.64 60.19,35.33 60.48,35.33 60.48,35.45 60.77,35.45 60.77,35.49 61.06,35.49 61.06,35.31 61.35,35.31 61.35,35.37 61.64,35.37 61.64,34.99 61.93,34.99 61.93,35.77 62.22,35.77 62.22,35.35 62.51,35.35 62.51,35.34 62.79,35.34 62.79,34.84 63.08,34.84 63.08,34.75 63.37,34.75 63.37,34.84 63.66,34.84 63.66,35.11 63.95,35.11 63.95,35.07 64.24,35.07 64.24,34.11 64.53,34.11 64.53,33.92 64.82,33.92 64.82,33 65.11,33 65.11,31.83 65.4,31.83 65.4,30.17 65.68,30.17 65.68,28.46 65.97,28.46 65.97,24.81 66.26,24.81 66.26,19.99 66.55,19.99 66.55,15.08 66.84,15.08 66.84,8.52 67.13,8.52 67.13,0.54 67.42,0.54 67.42,-8.43 67.71,-8.43 67.71,-17.13 68,-17.13 68,-27.34 68.29,-27.34 68.29,-37.54 68.58,-37.54 68.58,-45.36 68.86,-45.36 68.86,-51.21 69.15,-51.21 69.15,-56.5 69.44,-56.5 69.44,-57.56 69.73,-57.56 69.73,-54.86 70.02,-54.86 70.02,-52.08 70.31,-52.08 70.31,-44.23 70.6,-44.23 70.6,-34.68 70.89,-34.68 70.89,-28.01 71.18,-28.01 71.18,-17.91 71.47,-17.91 71.47,-8.95 71.75,-8.95 71.75,1.3 72.04,1.3 72.04,8.33 72.33,8.33 72.33,14.84 72.62,14.84 72.62,20.37 72.91,20.37 72.91,24.89 73.2,24.89 73.2,28.17 73.49,28.17 73.49,30.38 73.78,30.38 73.78,32.14 74.07,32.14 74.07,33.39 74.36,33.39 74.36,33.89 74.65,33.89 74.65,34.29 74.93,34.29 74.93,34.56 75.22,34.56 75.22,35.06 75.51,35.06 75.51,34.78 75.8,34.78 75.8,35.25 76.09,35.25 76.09,35.42 76.38,35.42 76.38,35.22 76.67,35.22 76.67,35.03 76.96,35.03 76.96,35.03 77.25,35.03 77.25,34.8 77.54,34.8 77.54,35.21 77.82,35.21 77.82,35.29 78.11,35.29 78.11,35.32 78.4,35.32 78.4,34.98 78.69,34.98 78.69,35.31 78.98,35.31 78.98,34.93 79.27,34.93 79.27,35.08 79.56,35.08 79.56,34.8 79.85,34.8 79.85,35.34 80.14,35.34 80.14,35.22 80.43,35.22 80.43,35.26 80.72,35.26 80.72,35.39 81,35.39 81,35.16 81.29,35.16 81.29,35.13 81.58,35.13 81.58,35.21 81.87,35.21 81.87,35.04 82.16,35.04 82.16,35.19 82.45,35.19 82.45,34.85 82.74,34.85 82.74,35.06 83.03,35.06 83.03,34.56 83.32,34.56 83.32,34.62 83.61,34.62 83.61,34.45 83.89,34.45 83.89,34.33 84.18,34.33 84.18,34.2 84.47,34.2 84.47,33.54 84.76,33.54 84.76,33.24 85.05,33.24 85.05,33.2 85.34,33.2 85.34,32.03 85.63,32.03 85.63,31.66 85.92,31.66 85.92,30.37 86.21,30.37 86.21,29.89 86.5,29.89 86.5,28.3 86.79,28.3 86.79,27.64 87.07,27.64 87.07,26.19 87.36,26.19 87.36,25.39 87.65,25.39 87.65,24.34 87.94,24.34 87.94,23.65 88.23,23.65 88.23,23.63 88.52,23.63 88.52,23.11 88.81,23.11 88.81,23.83 89.1,23.83 89.1,24.55 89.39,24.55 89.39,25.28 89.68,25.28 89.68,26.16 89.96,26.16 89.96,27.33 90.25,27.33 90.25,28.82 90.54,28.82 90.54,29.7 90.83,29.7 90.83,30.95 91.12,30.95 91.12,31.85 91.41,31.85 91.41,32.55 91.7,32.55 91.7,33.15 91.99,33.15 91.99,33.66 92.28,33.66 92.28,34.15 92.57,34.15 92.57,34.65 92.85,34.65 92.85,34.78 93.14,34.78 93.14,34.59 93.43,34.59 93.43,35.07 93.72,35.07 93.72,35.24 94.01,35.24 94.01,35.13 94.3,35.13 94.3,35.21 94.59,35.21 94.59,34.88 94.88,34.88 94.88,35.36 95.17,35.36 95.17,35.04 95.46,35.04 95.46,35.22 95.75,35.22 95.75,35.09 96.03,35.09 96.03,35.1 96.32,35.1 96.32,35.23 96.61,35.23 96.61,34.78 96.9,34.78 96.9,35.08 97.19,35.08 97.19,35.34 97.48,35.34 97.48,35.07 97.77,35.07 97.77,34.89 98.06,34.89 98.06,34.71 98.35,34.71 98.35,34.99 98.64,34.99 98.64,35.16 98.92,35.16 98.92,34.83 99.21,34.83 99.21,35.01 99.5,35.01 99.5,34.75 99.79,34.75 99.79,35.19 100.08,35.19 100.08,35.07 100.37,35.07 100.37,35.01 100.66,35.01 100.66,34.73 100.95,34.73 100.95,34.97 101.24,34.97 101.24,34.86 101.53,34.86 101.53,34.85 101.82,34.85 101.82,34.89 102.1,34.89 102.1,35.08 102.39,35.08 102.39,35.06 102.68,35.06 102.68,34.95 102.97,34.95 102.97,34.91 103.26,34.91 103.26,35.18 103.55,35.18 103.55,34.98 103.84,34.98 103.84,35.12 104.13,35.12 104.13,35.03 104.42,35.03 104.42,35.3 104.71,35.3 104.71,34.98 104.99,34.98 104.99,34.84 105.28,34.84 105.28,35.16 105.57,35.16 105.57,35.07 105.86,35.07 105.86,35.22 106.15,35.22 106.15,34.92 106.44,34.92 106.44,35.18 106.73,35.18 106.73,34.97 107.02,34.97 107.02,34.87 107.31,34.87 107.31,34.94 107.6,34.94 107.6,35.27 107.89,35.27 107.89,35.02 108.17,35.02 108.17,35.08 108.46,35.08 108.46,35.16 108.75,35.16 108.75,35.27 109.04,35.27 109.04,35.21 109.33,35.21 109.33,35.21 109.62,35.21 109.62,34.86 109.91,34.86 109.91,35 110.2,35 110.2,35.06 110.49,35.06 110.49,35.28 110.78,35.28 110.78,35.15 111.06,35.15 111.06,35.1 111.35,35.1 111.35,35.02 111.64,35.02 111.64,35.28 111.93,35.28 111.93,34.98 112.22,34.98 112.22,35.33 112.51,35.33 112.51,35.11 112.8,35.11 112.8,35.09 113.09,35.09 113.09,35.08 113.38,35.08 113.38,35.17 113.67,35.17 113.67,35.09 113.96,35.09 113.96,35.32 114.24,35.32 114.24,35.09 114.53,35.09 114.53,35.11 114.82,35.11 114.82,35.46 115.11,35.46 115.11,35.13 115.4,35.13 115.4,35.11 " class="primitive"/>
            </g>
          </g>
        </g>
        <g stroke-width="0.3" fill="#000000" fill-opacity="0.000" class="geometry" id="img-73b55e82-22">
          <g class="color_RGB{N0f8}(0.063,0.306,0.545)" stroke-dasharray="none" stroke-opacity="1" stroke="#104E8B" id="img-73b55e82-23">
            <g transform="translate(135.62,12.21)" id="img-73b55e82-24">
              <path fill="none" d="M-115.54,47.64 L-115.26,47.64 -115.26,47.64 -114.97,47.64 -114.97,47.63 -114.68,47.63 -114.68,47.65 -114.39,47.65 -114.39,47.66 -114.1,47.66 -114.1,47.64 -113.81,47.64 -113.81,47.66 -113.52,47.66 -113.52,47.66 -113.23,47.66 -113.23,47.66 -112.94,47.66 -112.94,47.65 -112.65,47.65 -112.65,47.66 -112.37,47.66 -112.37,47.64 -112.08,47.64 -112.08,47.64 -111.79,47.64 -111.79,47.63 -111.5,47.63 -111.5,47.62 -111.21,47.62 -111.21,47.59 -110.92,47.59 -110.92,47.52 -110.63,47.52 -110.63,47.41 -110.34,47.41 -110.34,47.24 -110.05,47.24 -110.05,46.83 -109.76,46.83 -109.76,46.18 -109.47,46.18 -109.47,44.84 -109.19,44.84 -109.19,42.3 -108.9,42.3 -108.9,37.91 -108.61,37.91 -108.61,31.1 -108.32,31.1 -108.32,24.21 -108.03,24.21 -108.03,18.07 -107.74,18.07 -107.74,15.44 -107.45,15.44 -107.45,17.78 -107.16,17.78 -107.16,23.35 -106.87,23.35 -106.87,29.98 -106.58,29.98 -106.58,34.33 -106.3,34.33 -106.3,37.82 -106.01,37.82 -106.01,39.24 -105.72,39.24 -105.72,39.48 -105.43,39.48 -105.43,39.58 -105.14,39.58 -105.14,39.31 -104.85,39.31 -104.85,39.5 -104.56,39.5 -104.56,38.41 -104.27,38.41 -104.27,38.12 -103.98,38.12 -103.98,36.93 -103.69,36.93 -103.69,35.52 -103.4,35.52 -103.4,32.62 -103.12,32.62 -103.12,27.71 -102.83,27.71 -102.83,16.51 -102.54,16.51 -102.54,-4.53 -102.25,-4.53 -102.25,-42.13 -101.96,-42.13 -101.96,-106.87 -101.67,-106.87 -101.67,-206.45 -101.38,-206.45 -101.38,-330.51 -101.09,-330.51 -101.09,-460.61 -100.8,-460.61 -100.8,-554.71 -100.51,-554.71 -100.51,-573.24 -100.23,-573.24 -100.23,-514.3 -99.94,-514.3 -99.94,-397.77 -99.65,-397.77 -99.65,-260.13 -99.36,-260.13 -99.36,-140.55 -99.07,-140.55 -99.07,-54.41 -98.78,-54.41 -98.78,-6.74 -98.49,-6.74 -98.49,17.4 -98.2,17.4 -98.2,28.48 -97.91,28.48 -97.91,31.97 -97.62,31.97 -97.62,33.37 -97.33,33.37 -97.33,33.95 -97.05,33.95 -97.05,32.44 -96.76,32.44 -96.76,30.48 -96.47,30.48 -96.47,26.99 -96.18,26.99 -96.18,21.44 -95.89,21.44 -95.89,15.17 -95.6,15.17 -95.6,8.69 -95.31,8.69 -95.31,5.16 -95.02,5.16 -95.02,4.93 -94.73,4.93 -94.73,7.57 -94.44,7.57 -94.44,14.02 -94.16,14.02 -94.16,20.3 -93.87,20.3 -93.87,25.32 -93.58,25.32 -93.58,29.4 -93.29,29.4 -93.29,32.25 -93,32.25 -93,33 -92.71,33 -92.71,33.2 -92.42,33.2 -92.42,33.7 -92.13,33.7 -92.13,33.88 -91.84,33.88 -91.84,33.86 -91.55,33.86 -91.55,33.08 -91.27,33.08 -91.27,33.21 -90.98,33.21 -90.98,32.63 -90.69,32.63 -90.69,31.99 -90.4,31.99 -90.4,32.42 -90.11,32.42 -90.11,32.04 -89.82,32.04 -89.82,31.25 -89.53,31.25 -89.53,31.31 -89.24,31.31 -89.24,31.47 -88.95,31.47 -88.95,30.76 -88.66,30.76 -88.66,30.35 -88.37,30.35 -88.37,29.63 -88.09,29.63 -88.09,29.57 -87.8,29.57 -87.8,28.23 -87.51,28.23 -87.51,28.73 -87.22,28.73 -87.22,27.94 -86.93,27.94 -86.93,26.96 -86.64,26.96 -86.64,26.49 -86.35,26.49 -86.35,25.2 -86.06,25.2 -86.06,24.13 -85.77,24.13 -85.77,23.96 -85.48,23.96 -85.48,23.9 -85.2,23.9 -85.2,23.67 -84.91,23.67 -84.91,22.38 -84.62,22.38 -84.62,22.38 -84.33,22.38 -84.33,21.77 -84.04,21.77 -84.04,22.43 -83.75,22.43 -83.75,21.29 -83.46,21.29 -83.46,20.67 -83.17,20.67 -83.17,20.47 -82.88,20.47 -82.88,19.61 -82.59,19.61 -82.59,17.3 -82.3,17.3 -82.3,14.85 -82.02,14.85 -82.02,9.12 -81.73,9.12 -81.73,-2.74 -81.44,-2.74 -81.44,-25.53 -81.15,-25.53 -81.15,-63.24 -80.86,-63.24 -80.86,-126.91 -80.57,-126.91 -80.57,-214.65 -80.28,-214.65 -80.28,-324.76 -79.99,-324.76 -79.99,-434.73 -79.7,-434.73 -79.7,-523.08 -79.41,-523.08 -79.41,-568.35 -79.13,-568.35 -79.13,-556.56 -78.84,-556.56 -78.84,-494.76 -78.55,-494.76 -78.55,-395.86 -78.26,-395.86 -78.26,-286.24 -77.97,-286.24 -77.97,-186.26 -77.68,-186.26 -77.68,-109.14 -77.39,-109.14 -77.39,-52.57 -77.1,-52.57 -77.1,-19.2 -76.81,-19.2 -76.81,1.53 -76.52,1.53 -76.52,11.08 -76.23,11.08 -76.23,16.27 -75.95,16.27 -75.95,17.38 -75.66,17.38 -75.66,18.3 -75.37,18.3 -75.37,16.18 -75.08,16.18 -75.08,11.93 -74.79,11.93 -74.79,4.01 -74.5,4.01 -74.5,-12.04 -74.21,-12.04 -74.21,-36.72 -73.92,-36.72 -73.92,-71.97 -73.63,-71.97 -73.63,-114.31 -73.34,-114.31 -73.34,-160.38 -73.06,-160.38 -73.06,-198.89 -72.77,-198.89 -72.77,-222.65 -72.48,-222.65 -72.48,-226.5 -72.19,-226.5 -72.19,-210.11 -71.9,-210.11 -71.9,-173.17 -71.61,-173.17 -71.61,-131.7 -71.32,-131.7 -71.32,-88.86 -71.03,-88.86 -71.03,-53.92 -70.74,-53.92 -70.74,-26.14 -70.45,-26.14 -70.45,-10.22 -70.16,-10.22 -70.16,1.96 -69.88,1.96 -69.88,9.34 -69.59,9.34 -69.59,12.29 -69.3,12.29 -69.3,15.11 -69.01,15.11 -69.01,16.73 -68.72,16.73 -68.72,14.11 -68.43,14.11 -68.43,10.36 -68.14,10.36 -68.14,0.11 -67.85,0.11 -67.85,-20.45 -67.56,-20.45 -67.56,-58.55 -67.27,-58.55 -67.27,-128.99 -66.99,-128.99 -66.99,-230.85 -66.7,-230.85 -66.7,-376.13 -66.41,-376.13 -66.41,-556.62 -66.12,-556.62 -66.12,-749.17 -65.83,-749.17 -65.83,-919.28 -65.54,-919.28 -65.54,-1055.35 -65.25,-1055.35 -65.25,-1095.55 -64.96,-1095.55 -64.96,-1045.98 -64.67,-1045.98 -64.67,-918.68 -64.38,-918.68 -64.38,-745.21 -64.1,-745.21 -64.1,-563.15 -63.81,-563.15 -63.81,-395.92 -63.52,-395.92 -63.52,-262.26 -63.23,-262.26 -63.23,-164.08 -62.94,-164.08 -62.94,-100.01 -62.65,-100.01 -62.65,-61.21 -62.36,-61.21 -62.36,-37.74 -62.07,-37.74 -62.07,-21.53 -61.78,-21.53 -61.78,-8.92 -61.49,-8.92 -61.49,1.8 -61.2,1.8 -61.2,9.62 -60.92,9.62 -60.92,15.94 -60.63,15.94 -60.63,19.77 -60.34,19.77 -60.34,21.41 -60.05,21.41 -60.05,22.59 -59.76,22.59 -59.76,24.37 -59.47,24.37 -59.47,25.13 -59.18,25.13 -59.18,24.76 -58.89,24.76 -58.89,25.28 -58.6,25.28 -58.6,25.87 -58.31,25.87 -58.31,26.37 -58.03,26.37 -58.03,26.4 -57.74,26.4 -57.74,27.13 -57.45,27.13 -57.45,27.93 -57.16,27.93 -57.16,27.68 -56.87,27.68 -56.87,28.8 -56.58,28.8 -56.58,28.92 -56.29,28.92 -56.29,28.86 -56,28.86 -56,28.69 -55.71,28.69 -55.71,28.99 -55.42,28.99 -55.42,29.27 -55.13,29.27 -55.13,28.65 -54.85,28.65 -54.85,28.67 -54.56,28.67 -54.56,28.89 -54.27,28.89 -54.27,28.84 -53.98,28.84 -53.98,29.58 -53.69,29.58 -53.69,28.24 -53.4,28.24 -53.4,28.79 -53.11,28.79 -53.11,28.37 -52.82,28.37 -52.82,28.89 -52.53,28.89 -52.53,28.93 -52.24,28.93 -52.24,28.09 -51.96,28.09 -51.96,27.86 -51.67,27.86 -51.67,27.44 -51.38,27.44 -51.38,27.31 -51.09,27.31 -51.09,27.07 -50.8,27.07 -50.8,26.82 -50.51,26.82 -50.51,26.68 -50.22,26.68 -50.22,26.87 -49.93,26.87 -49.93,26.52 -49.64,26.52 -49.64,26.32 -49.35,26.32 -49.35,27.27 -49.06,27.27 -49.06,27.6 -48.78,27.6 -48.78,27.83 -48.49,27.83 -48.49,27.63 -48.2,27.63 -48.2,27.85 -47.91,27.85 -47.91,28.04 -47.62,28.04 -47.62,27.87 -47.33,27.87 -47.33,28.54 -47.04,28.54 -47.04,28.47 -46.75,28.47 -46.75,28.52 -46.46,28.52 -46.46,28.52 -46.17,28.52 -46.17,28.57 -45.89,28.57 -45.89,28.63 -45.6,28.63 -45.6,28.82 -45.31,28.82 -45.31,28.04 -45.02,28.04 -45.02,28.69 -44.73,28.69 -44.73,28.63 -44.44,28.63 -44.44,28 -44.15,28 -44.15,28.45 -43.86,28.45 -43.86,28.44 -43.57,28.44 -43.57,28.26 -43.28,28.26 -43.28,28.74 -43,28.74 -43,28.3 -42.71,28.3 -42.71,28.53 -42.42,28.53 -42.42,27.79 -42.13,27.79 -42.13,28.79 -41.84,28.79 -41.84,28.24 -41.55,28.24 -41.55,27.98 -41.26,27.98 -41.26,29.59 -40.97,29.59 -40.97,28.34 -40.68,28.34 -40.68,28.9 -40.39,28.9 -40.39,28.56 -40.1,28.56 -40.1,28.8 -39.82,28.8 -39.82,28.78 -39.53,28.78 -39.53,28.39 -39.24,28.39 -39.24,29.03 -38.95,29.03 -38.95,28.75 -38.66,28.75 -38.66,28.81 -38.37,28.81 -38.37,28.83 -38.08,28.83 -38.08,29.13 -37.79,29.13 -37.79,28.85 -37.5,28.85 -37.5,29.11 -37.21,29.11 -37.21,29.17 -36.93,29.17 -36.93,28.42 -36.64,28.42 -36.64,29.08 -36.35,29.08 -36.35,29.07 -36.06,29.07 -36.06,29.14 -35.77,29.14 -35.77,29.46 -35.48,29.46 -35.48,29.02 -35.19,29.02 -35.19,28.84 -34.9,28.84 -34.9,29.75 -34.61,29.75 -34.61,29.53 -34.32,29.53 -34.32,29.52 -34.03,29.52 -34.03,29.32 -33.75,29.32 -33.75,29.09 -33.46,29.09 -33.46,29.26 -33.17,29.26 -33.17,29.81 -32.88,29.81 -32.88,29.56 -32.59,29.56 -32.59,28.99 -32.3,28.99 -32.3,29.65 -32.01,29.65 -32.01,29.2 -31.72,29.2 -31.72,29.02 -31.43,29.02 -31.43,28.95 -31.14,28.95 -31.14,29.14 -30.86,29.14 -30.86,29.63 -30.57,29.63 -30.57,29.03 -30.28,29.03 -30.28,28.83 -29.99,28.83 -29.99,28.38 -29.7,28.38 -29.7,28.45 -29.41,28.45 -29.41,28.52 -29.12,28.52 -29.12,28.6 -28.83,28.6 -28.83,29 -28.54,29 -28.54,28.89 -28.25,28.89 -28.25,29.38 -27.96,29.38 -27.96,29.34 -27.68,29.34 -27.68,29.41 -27.39,29.41 -27.39,30.01 -27.1,30.01 -27.1,29.56 -26.81,29.56 -26.81,29.9 -26.52,29.9 -26.52,30.07 -26.23,30.07 -26.23,30.11 -25.94,30.11 -25.94,30.04 -25.65,30.04 -25.65,30.5 -25.36,30.5 -25.36,30.57 -25.07,30.57 -25.07,29.93 -24.79,29.93 -24.79,30.37 -24.5,30.37 -24.5,30.02 -24.21,30.02 -24.21,29.68 -23.92,29.68 -23.92,29.99 -23.63,29.99 -23.63,30.01 -23.34,30.01 -23.34,30.07 -23.05,30.07 -23.05,30.4 -22.76,30.4 -22.76,30 -22.47,30 -22.47,29.75 -22.18,29.75 -22.18,30.48 -21.89,30.48 -21.89,30.14 -21.61,30.14 -21.61,29.5 -21.32,29.5 -21.32,30.94 -21.03,30.94 -21.03,30.12 -20.74,30.12 -20.74,30.81 -20.45,30.81 -20.45,30.43 -20.16,30.43 -20.16,30.34 -19.87,30.34 -19.87,30.45 -19.58,30.45 -19.58,30.96 -19.29,30.96 -19.29,31.55 -19,31.55 -19,31.39 -18.72,31.39 -18.72,31.12 -18.43,31.12 -18.43,30.84 -18.14,30.84 -18.14,30.92 -17.85,30.92 -17.85,31.23 -17.56,31.23 -17.56,31.55 -17.27,31.55 -17.27,30.86 -16.98,30.86 -16.98,31.39 -16.69,31.39 -16.69,31.57 -16.4,31.57 -16.4,31.25 -16.11,31.25 -16.11,30.78 -15.83,30.78 -15.83,30.5 -15.54,30.5 -15.54,30.86 -15.25,30.86 -15.25,30.69 -14.96,30.69 -14.96,30.4 -14.67,30.4 -14.67,29.92 -14.38,29.92 -14.38,30.22 -14.09,30.22 -14.09,29.24 -13.8,29.24 -13.8,29 -13.51,29 -13.51,28.67 -13.22,28.67 -13.22,27.96 -12.93,27.96 -12.93,26.22 -12.65,26.22 -12.65,23.73 -12.36,23.73 -12.36,20.2 -12.07,20.2 -12.07,12.38 -11.78,12.38 -11.78,2.19 -11.49,2.19 -11.49,-13.12 -11.2,-13.12 -11.2,-36.02 -10.91,-36.02 -10.91,-65.57 -10.62,-65.57 -10.62,-104.1 -10.33,-104.1 -10.33,-148.59 -10.04,-148.59 -10.04,-196.27 -9.76,-196.27 -9.76,-240.3 -9.47,-240.3 -9.47,-283.48 -9.18,-283.48 -9.18,-312.56 -8.89,-312.56 -8.89,-324.49 -8.6,-324.49 -8.6,-324.54 -8.31,-324.54 -8.31,-303.8 -8.02,-303.8 -8.02,-269.87 -7.73,-269.87 -7.73,-230.69 -7.44,-230.69 -7.44,-181.17 -7.15,-181.17 -7.15,-135.97 -6.86,-135.97 -6.86,-90.43 -6.58,-90.43 -6.58,-55.66 -6.29,-55.66 -6.29,-27.58 -6,-27.58 -6,-6.79 -5.71,-6.79 -5.71,7.31 -5.42,7.31 -5.42,17.69 -5.13,17.69 -5.13,24.13 -4.84,24.13 -4.84,26.94 -4.55,26.94 -4.55,30.3 -4.26,30.3 -4.26,30.75 -3.97,30.75 -3.97,31.75 -3.69,31.75 -3.69,31.65 -3.4,31.65 -3.4,31.65 -3.11,31.65 -3.11,30.63 -2.82,30.63 -2.82,30.63 -2.53,30.63 -2.53,28.62 -2.24,28.62 -2.24,26.98 -1.95,26.98 -1.95,24.34 -1.66,24.34 -1.66,20.1 -1.37,20.1 -1.37,16.36 -1.08,16.36 -1.08,11.31 -0.79,11.31 -0.79,5.61 -0.51,5.61 -0.51,0.91 -0.22,0.91 -0.22,-3.81 0.07,-3.81 0.07,-5.97 0.36,-5.97 0.36,-9.16 0.65,-9.16 0.65,-8.83 0.94,-8.83 0.94,-7.06 1.23,-7.06 1.23,-3.99 1.52,-3.99 1.52,0.27 1.81,0.27 1.81,5.54 2.1,5.54 2.1,11.49 2.38,11.49 2.38,16.92 2.67,16.92 2.67,21.38 2.96,21.38 2.96,25.63 3.25,25.63 3.25,28.49 3.54,28.49 3.54,30.8 3.83,30.8 3.83,31.98 4.12,31.98 4.12,33.47 4.41,33.47 4.41,34.82 4.7,34.82 4.7,34.35 4.99,34.35 4.99,34.69 5.28,34.69 5.28,34.53 5.56,34.53 5.56,35.17 5.85,35.17 5.85,35.24 6.14,35.24 6.14,35.04 6.43,35.04 6.43,35.24 6.72,35.24 6.72,34.99 7.01,34.99 7.01,35.37 7.3,35.37 7.3,35.27 7.59,35.27 7.59,35.7 7.88,35.7 7.88,35.17 8.17,35.17 8.17,36.11 8.45,36.11 8.45,35.97 8.74,35.97 8.74,35.89 9.03,35.89 9.03,35.82 9.32,35.82 9.32,35.87 9.61,35.87 9.61,35.68 9.9,35.68 9.9,36.46 10.19,36.46 10.19,35.79 10.48,35.79 10.48,36.13 10.77,36.13 10.77,36.24 11.06,36.24 11.06,35.84 11.34,35.84 11.34,36.15 11.63,36.15 11.63,36.64 11.92,36.64 11.92,36.12 12.21,36.12 12.21,36 12.5,36 12.5,36.57 12.79,36.57 12.79,36.11 13.08,36.11 13.08,36.19 13.37,36.19 13.37,36.79 13.66,36.79 13.66,36.41 13.95,36.41 13.95,36.4 14.24,36.4 14.24,36.48 14.52,36.48 14.52,36.2 14.81,36.2 14.81,36.52 15.1,36.52 15.1,36.06 15.39,36.06 15.39,36.7 15.68,36.7 15.68,36.64 15.97,36.64 15.97,36.76 16.26,36.76 16.26,36.53 16.55,36.53 16.55,36.95 16.84,36.95 16.84,36.45 17.13,36.45 17.13,36.55 17.41,36.55 17.41,36.73 17.7,36.73 17.7,36.34 17.99,36.34 17.99,36.02 18.28,36.02 18.28,36.62 18.57,36.62 18.57,36.69 18.86,36.69 18.86,36.3 19.15,36.3 19.15,36.88 19.44,36.88 19.44,37.15 19.73,37.15 19.73,36.91 20.02,36.91 20.02,36.74 20.31,36.74 20.31,36.82 20.59,36.82 20.59,36.47 20.88,36.47 20.88,36.91 21.17,36.91 21.17,36.88 21.46,36.88 21.46,37.37 21.75,37.37 21.75,37.34 22.04,37.34 22.04,37.26 22.33,37.26 22.33,37.35 22.62,37.35 22.62,37.28 22.91,37.28 22.91,37.04 23.2,37.04 23.2,37.49 23.48,37.49 23.48,37.55 23.77,37.55 23.77,37.56 24.06,37.56 24.06,38.01 24.35,38.01 24.35,37.34 24.64,37.34 24.64,37.23 24.93,37.23 24.93,37.38 25.22,37.38 25.22,37.72 25.51,37.72 25.51,37.49 25.8,37.49 25.8,37.19 26.09,37.19 26.09,37.51 26.38,37.51 26.38,37.22 26.66,37.22 26.66,37.35 26.95,37.35 26.95,37.42 27.24,37.42 27.24,37.48 27.53,37.48 27.53,37.22 27.82,37.22 27.82,37.74 28.11,37.74 28.11,37.47 28.4,37.47 28.4,37.35 28.69,37.35 28.69,37.32 28.98,37.32 28.98,37.45 29.27,37.45 29.27,37.43 29.55,37.43 29.55,38.06 29.84,38.06 29.84,38.03 30.13,38.03 30.13,37.83 30.42,37.83 30.42,38.06 30.71,38.06 30.71,37.9 31,37.9 31,38.4 31.29,38.4 31.29,37.89 31.58,37.89 31.58,37.96 31.87,37.96 31.87,37.72 32.16,37.72 32.16,37.98 32.45,37.98 32.45,38.04 32.73,38.04 32.73,38.01 33.02,38.01 33.02,38.1 33.31,38.1 33.31,38.36 33.6,38.36 33.6,38.24 33.89,38.24 33.89,37.86 34.18,37.86 34.18,38.04 34.47,38.04 34.47,37.81 34.76,37.81 34.76,38.06 35.05,38.06 35.05,38.2 35.34,38.2 35.34,38.15 35.62,38.15 35.62,38.23 35.91,38.23 35.91,37.98 36.2,37.98 36.2,38.37 36.49,38.37 36.49,38.18 36.78,38.18 36.78,38.29 37.07,38.29 37.07,38.16 37.36,38.16 37.36,38.59 37.65,38.59 37.65,38.43 37.94,38.43 37.94,38.02 38.23,38.02 38.23,38.41 38.51,38.41 38.51,38.68 38.8,38.68 38.8,38.59 39.09,38.59 39.09,38.27 39.38,38.27 39.38,38.32 39.67,38.32 39.67,38.15 39.96,38.15 39.96,38.04 40.25,38.04 40.25,37.64 40.54,37.64 40.54,37.86 40.83,37.86 40.83,37.81 41.12,37.81 41.12,38.13 41.41,38.13 41.41,38.09 41.69,38.09 41.69,38.11 41.98,38.11 41.98,38.03 42.27,38.03 42.27,38.11 42.56,38.11 42.56,38.12 42.85,38.12 42.85,38.05 43.14,38.05 43.14,38.75 43.43,38.75 43.43,38.75 43.72,38.75 43.72,38.56 44.01,38.56 44.01,38.66 44.3,38.66 44.3,38.94 44.58,38.94 44.58,38.8 44.87,38.8 44.87,39.07 45.16,39.07 45.16,38.92 45.45,38.92 45.45,38.72 45.74,38.72 45.74,38.92 46.03,38.92 46.03,39.17 46.32,39.17 46.32,39 46.61,39 46.61,39.09 46.9,39.09 46.9,39.03 47.19,39.03 47.19,39.01 47.48,39.01 47.48,39.64 47.76,39.64 47.76,39.29 48.05,39.29 48.05,39.52 48.34,39.52 48.34,39.53 48.63,39.53 48.63,39.27 48.92,39.27 48.92,39.46 49.21,39.46 49.21,39.18 49.5,39.18 49.5,39.25 49.79,39.25 49.79,39.59 50.08,39.59 50.08,39.12 50.37,39.12 50.37,39.61 50.65,39.61 50.65,39.09 50.94,39.09 50.94,39.66 51.23,39.66 51.23,39.59 51.52,39.59 51.52,39.56 51.81,39.56 51.81,39.33 52.1,39.33 52.1,39.48 52.39,39.48 52.39,39.06 52.68,39.06 52.68,39.25 52.97,39.25 52.97,39.18 53.26,39.18 53.26,38.81 53.55,38.81 53.55,39.08 53.83,39.08 53.83,39.12 54.12,39.12 54.12,38.52 54.41,38.52 54.41,38.76 54.7,38.76 54.7,38.96 54.99,38.96 54.99,38.65 55.28,38.65 55.28,39.05 55.57,39.05 55.57,39.06 55.86,39.06 55.86,39.1 56.15,39.1 56.15,39.31 56.44,39.31 56.44,39.53 56.72,39.53 56.72,39.51 57.01,39.51 57.01,39.36 57.3,39.36 57.3,39.49 57.59,39.49 57.59,40.13 57.88,40.13 57.88,39.6 58.17,39.6 58.17,39.93 58.46,39.93 58.46,39.95 58.75,39.95 58.75,39.9 59.04,39.9 59.04,39.73 59.33,39.73 59.33,39.89 59.62,39.89 59.62,39.93 59.9,39.93 59.9,40.34 60.19,40.34 60.19,40.05 60.48,40.05 60.48,40.19 60.77,40.19 60.77,40.25 61.06,40.25 61.06,40.09 61.35,40.09 61.35,40.18 61.64,40.18 61.64,39.82 61.93,39.82 61.93,40.62 62.22,40.62 62.22,40.22 62.51,40.22 62.51,40.23 62.79,40.23 62.79,39.75 63.08,39.75 63.08,39.69 63.37,39.69 63.37,39.8 63.66,39.8 63.66,40.09 63.95,40.09 63.95,40.07 64.24,40.07 64.24,39.13 64.53,39.13 64.53,38.97 64.82,38.97 64.82,38.06 65.11,38.06 65.11,36.91 65.4,36.91 65.4,35.27 65.68,35.27 65.68,33.58 65.97,33.58 65.97,29.96 66.26,29.96 66.26,25.16 66.55,25.16 66.55,20.27 66.84,20.27 66.84,13.73 67.13,13.73 67.13,5.77 67.42,5.77 67.42,-3.18 67.71,-3.18 67.71,-11.86 68,-11.86 68,-22.04 68.29,-22.04 68.29,-32.23 68.58,-32.23 68.58,-40.02 68.86,-40.02 68.86,-45.85 69.15,-45.85 69.15,-51.13 69.44,-51.13 69.44,-52.16 69.73,-52.16 69.73,-49.44 70.02,-49.44 70.02,-46.64 70.31,-46.64 70.31,-38.77 70.6,-38.77 70.6,-29.2 70.89,-29.2 70.89,-22.52 71.18,-22.52 71.18,-12.4 71.47,-12.4 71.47,-3.41 71.75,-3.41 71.75,6.86 72.04,6.86 72.04,13.91 72.33,13.91 72.33,20.44 72.62,20.44 72.62,25.99 72.91,25.99 72.91,30.52 73.2,30.52 73.2,33.82 73.49,33.82 73.49,36.05 73.78,36.05 73.78,37.83 74.07,37.83 74.07,39.1 74.36,39.1 74.36,39.62 74.65,39.62 74.65,40.04 74.93,40.04 74.93,40.33 75.22,40.33 75.22,40.85 75.51,40.85 75.51,40.59 75.8,40.59 75.8,41.07 76.09,41.07 76.09,41.27 76.38,41.27 76.38,41.09 76.67,41.09 76.67,40.91 76.96,40.91 76.96,40.93 77.25,40.93 77.25,40.72 77.54,40.72 77.54,41.15 77.82,41.15 77.82,41.24 78.11,41.24 78.11,41.3 78.4,41.3 78.4,40.97 78.69,40.97 78.69,41.33 78.98,41.33 78.98,40.96 79.27,40.96 79.27,41.13 79.56,41.13 79.56,40.87 79.85,40.87 79.85,41.43 80.14,41.43 80.14,41.33 80.43,41.33 80.43,41.38 80.72,41.38 80.72,41.53 81,41.53 81,41.32 81.29,41.32 81.29,41.31 81.58,41.31 81.58,41.4 81.87,41.4 81.87,41.25 82.16,41.25 82.16,41.42 82.45,41.42 82.45,41.1 82.74,41.1 82.74,41.32 83.03,41.32 83.03,40.84 83.32,40.84 83.32,40.92 83.61,40.92 83.61,40.77 83.89,40.77 83.89,40.67 84.18,40.67 84.18,40.56 84.47,40.56 84.47,39.91 84.76,39.91 84.76,39.63 85.05,39.63 85.05,39.6 85.34,39.6 85.34,38.46 85.63,38.46 85.63,38.1 85.92,38.1 85.92,36.83 86.21,36.83 86.21,36.37 86.5,36.37 86.5,34.79 86.79,34.79 86.79,34.15 87.07,34.15 87.07,32.72 87.36,32.72 87.36,31.93 87.65,31.93 87.65,30.91 87.94,30.91 87.94,30.23 88.23,30.23 88.23,30.23 88.52,30.23 88.52,29.73 88.81,29.73 88.81,30.47 89.1,30.47 89.1,31.21 89.39,31.21 89.39,31.96 89.68,31.96 89.68,32.86 89.96,32.86 89.96,34.05 90.25,34.05 90.25,35.56 90.54,35.56 90.54,36.46 90.83,36.46 90.83,37.74 91.12,37.74 91.12,38.66 91.41,38.66 91.41,39.37 91.7,39.37 91.7,39.99 91.99,39.99 91.99,40.52 92.28,40.52 92.28,41.03 92.57,41.03 92.57,41.55 92.85,41.55 92.85,41.7 93.14,41.7 93.14,41.52 93.43,41.52 93.43,42.03 93.72,42.03 93.72,42.21 94.01,42.21 94.01,42.12 94.3,42.12 94.3,42.21 94.59,42.21 94.59,41.89 94.88,41.89 94.88,42.39 95.17,42.39 95.17,42.09 95.46,42.09 95.46,42.28 95.75,42.28 95.75,42.17 96.03,42.17 96.03,42.19 96.32,42.19 96.32,42.34 96.61,42.34 96.61,41.9 96.9,41.9 96.9,42.22 97.19,42.22 97.19,42.49 97.48,42.49 97.48,42.24 97.77,42.24 97.77,42.08 98.06,42.08 98.06,41.91 98.35,41.91 98.35,42.21 98.64,42.21 98.64,42.39 98.92,42.39 98.92,42.08 99.21,42.08 99.21,42.27 99.5,42.27 99.5,42.03 99.79,42.03 99.79,42.47 100.08,42.47 100.08,42.38 100.37,42.38 100.37,42.33 100.66,42.33 100.66,42.06 100.95,42.06 100.95,42.32 101.24,42.32 101.24,42.22 101.53,42.22 101.53,42.22 101.82,42.22 101.82,42.27 102.1,42.27 102.1,42.47 102.39,42.47 102.39,42.46 102.68,42.46 102.68,42.37 102.97,42.37 102.97,42.34 103.26,42.34 103.26,42.62 103.55,42.62 103.55,42.42 103.84,42.42 103.84,42.58 104.13,42.58 104.13,42.5 104.42,42.5 104.42,42.78 104.71,42.78 104.71,42.47 104.99,42.47 104.99,42.33 105.28,42.33 105.28,42.66 105.57,42.66 105.57,42.59 105.86,42.59 105.86,42.74 106.15,42.74 106.15,42.45 106.44,42.45 106.44,42.73 106.73,42.73 106.73,42.52 107.02,42.52 107.02,42.43 107.31,42.43 107.31,42.52 107.6,42.52 107.6,42.86 107.89,42.86 107.89,42.61 108.17,42.61 108.17,42.68 108.46,42.68 108.46,42.77 108.75,42.77 108.75,42.9 109.04,42.9 109.04,42.84 109.33,42.84 109.33,42.85 109.62,42.85 109.62,42.51 109.91,42.51 109.91,42.66 110.2,42.66 110.2,42.74 110.49,42.74 110.49,42.96 110.78,42.96 110.78,42.85 111.06,42.85 111.06,42.8 111.35,42.8 111.35,42.74 111.64,42.74 111.64,43 111.93,43 111.93,42.71 112.22,42.71 112.22,43.07 112.51,43.07 112.51,42.86 112.8,42.86 112.8,42.86 113.09,42.86 113.09,42.86 113.38,42.86 113.38,42.95 113.67,42.95 113.67,42.89 113.96,42.89 113.96,43.12 114.24,43.12 114.24,42.9 114.53,42.9 114.53,42.94 114.82,42.94 114.82,43.29 115.11,43.29 115.11,42.97 115.4,42.97 115.4,42.96 " class="primitive"/>
            </g>
          </g>
        </g>
      </g>
      <g class="guide colorkey" id="img-73b55e82-25">
        <g fill="#4C404B" font-size="2.82" font-family="'PT Sans','Helvetica Neue','Helvetica',sans-serif" id="img-73b55e82-26">
          <g transform="translate(210.87,31.7)" id="img-73b55e82-27">
            <g class="primitive">
              <text dy="0.35em">III-E K412[0][all]</text>
            </g>
          </g>
          <g transform="translate(210.87,35.33)" id="img-73b55e82-28">
            <g class="primitive">
              <text dy="0.35em">CharOnly[III-E K412[0][all]]</text>
            </g>
          </g>
        </g>
        <g stroke-width="0.3" id="img-73b55e82-29">
          <g stroke="#FFFFFF" fill-opacity="1" fill="#B70002" id="img-73b55e82-30">
            <g transform="translate(208.05,35.33)" id="img-73b55e82-31">
              <circle cx="0" cy="0" r="0.9" class="primitive"/>
            </g>
          </g>
          <g stroke="#FFFFFF" fill-opacity="1" fill="#104E8B" id="img-73b55e82-32">
            <g transform="translate(208.05,31.7)" id="img-73b55e82-33">
              <circle cx="0" cy="0" r="0.9" class="primitive"/>
            </g>
          </g>
        </g>
        <g fill="#362A35" font-size="3.18" font-family="'PT Sans','Helvetica Neue','Helvetica',sans-serif" stroke="#000000" stroke-opacity="0.000" id="img-73b55e82-34">
          <g transform="translate(207.24,28.39)" id="img-73b55e82-35">
            <g class="primitive">
              <text dy="-0em">Spectra</text>
            </g>
          </g>
        </g>
      </g>
    </g>
  </g>
  <g class="guide ylabels" font-size="2.82" font-family="'PT Sans Caption','Helvetica Neue','Helvetica',sans-serif" fill="#6C606B" id="img-73b55e82-36">
    <g transform="translate(17.03,59.87)" id="img-73b55e82-37">
      <g class="primitive">
        <text text-anchor="end" dy="0.35em">0</text>
      </g>
    </g>
    <g transform="translate(17.03,35.3)" id="img-73b55e82-38">
      <g class="primitive">
        <text text-anchor="end" dy="0.35em">5000</text>
      </g>
    </g>
    <g transform="translate(17.03,10.73)" id="img-73b55e82-39">
      <g class="primitive">
        <text text-anchor="end" dy="0.35em">10000</text>
      </g>
    </g>
  </g>
  <g font-size="3.18" font-family="'PT Sans','Helvetica Neue','Helvetica',sans-serif" fill="#202020" stroke="#000000" stroke-opacity="0.000" id="img-73b55e82-40">
    <g transform="translate(4.18,29.29)" id="img-73b55e82-41">
      <g class="primitive">
        <text text-anchor="middle" dy="0.35em" transform="rotate(-90,0, 2)">Counts</text>
      </g>
    </g>
  </g>
</g>
<defs>
  <clipPath id="img-73b55e82-4">
    <path d="M18.03,0.71 L253.29,0.71 253.29,61.87 18.03,61.87 " />
  </clipPath>
</defs>
</svg>
