<?xml version="1.0" encoding="UTF-8"?>
<svg xmlns="http://www.w3.org/2000/svg"
     xmlns:xlink="http://www.w3.org/1999/xlink"
     xmlns:gadfly="http://www.gadflyjl.org/ns"
     version="1.2"
     width="254mm" height="76.2mm" viewBox="0 0 254 76.2"
     stroke="none"
     fill="#000000"
     stroke-width="0.3"
     font-size="3.88"
>
<defs>
  <marker id="arrow" markerWidth="15" markerHeight="7" refX="5" refY="3.5" orient="auto" markerUnits="strokeWidth">
    <path d="M0,0 L15,3.5 L0,7 z" stroke="context-stroke" fill="context-stroke"/>
  </marker>
</defs>
<g class="plotroot xscalable yscalable" id="img-dff2a808-1">
  <g font-size="3.18" font-family="'PT Sans','Helvetica Neue','Helvetica',sans-serif" fill="#202020" stroke="#000000" stroke-opacity="0.000" id="img-dff2a808-2">
    <g transform="translate(123.27,69.54)">
      <g class="primitive">
        <text text-anchor="middle" dy="0.6em">Energy (eV)</text>
      </g>
    </g>
  </g>
  <g class="guide xlabels" font-size="2.82" font-family="'PT Sans Caption','Helvetica Neue','Helvetica',sans-serif" fill="#6C606B" id="img-dff2a808-3">
    <g transform="translate(20.03,62.87)">
      <g class="primitive">
        <text text-anchor="middle" dy="0.6em">0</text>
      </g>
    </g>
    <g transform="translate(71.65,62.87)">
      <g class="primitive">
        <text text-anchor="middle" dy="0.6em">2000</text>
      </g>
    </g>
    <g transform="translate(123.27,62.87)">
      <g class="primitive">
        <text text-anchor="middle" dy="0.6em">4000</text>
      </g>
    </g>
    <g transform="translate(174.89,62.87)">
      <g class="primitive">
        <text text-anchor="middle" dy="0.6em">6000</text>
      </g>
    </g>
    <g transform="translate(226.51,62.87)">
      <g class="primitive">
        <text text-anchor="middle" dy="0.6em">8000</text>
      </g>
    </g>
  </g>
  <g class="guide colorkey" id="img-dff2a808-4">
    <g fill="#4C404B" font-size="2.82" font-family="'PT Sans','Helvetica Neue','Helvetica',sans-serif" id="img-dff2a808-5">
      <g transform="translate(233.13,31.7)" id="img-dff2a808-6">
        <g class="primitive">
          <text dy="0.35em">Fe std</text>
        </g>
      </g>
      <g transform="translate(233.13,35.33)" id="img-dff2a808-7">
        <g class="primitive">
          <text dy="0.35em">CharOnly[Fe std]</text>
        </g>
      </g>
    </g>
    <g stroke-width="0.3" id="img-dff2a808-8">
      <g stroke="#FFFFFF" fill-opacity="1" fill="#B70002" id="img-dff2a808-9">
        <g transform="translate(230.32,35.33)" id="img-dff2a808-10">
          <circle cx="0" cy="0" r="0.9" class="primitive"/>
        </g>
      </g>
      <g stroke="#FFFFFF" fill-opacity="1" fill="#104E8B" id="img-dff2a808-11">
        <g transform="translate(230.32,31.7)" id="img-dff2a808-12">
          <circle cx="0" cy="0" r="0.9" class="primitive"/>
        </g>
      </g>
    </g>
    <g fill="#362A35" font-size="3.18" font-family="'PT Sans','Helvetica Neue','Helvetica',sans-serif" stroke="#000000" stroke-opacity="0.000" id="img-dff2a808-13">
      <g transform="translate(229.51,28.39)" id="img-dff2a808-14">
        <g class="primitive">
          <text dy="-0em">Spectra</text>
        </g>
      </g>
    </g>
  </g>
  <g clip-path="url(#img-dff2a808-15)">
    <g id="img-dff2a808-16">
      <g pointer-events="visible" stroke-width="0.3" fill="#FDFDF1" stroke="#202020" class="guide background" id="img-dff2a808-17">
        <g transform="translate(123.27,31.29)" id="img-dff2a808-18">
          <path d="M-105.24,-30.58 L105.24,-30.58 105.24,30.58 -105.24,30.58  z" class="primitive"/>
        </g>
      </g>
      <g class="guide ygridlines xfixed" stroke-dasharray="none" stroke-width="0.2" stroke="#FFDFDF" id="img-dff2a808-19">
        <g transform="translate(123.27,59.87)" id="img-dff2a808-20">
          <path fill="none" d="M-105.24,0 L105.24,0 " class="primitive"/>
        </g>
        <g transform="translate(123.27,43.65)" id="img-dff2a808-21">
          <path fill="none" d="M-105.24,0 L105.24,0 " class="primitive"/>
        </g>
        <g transform="translate(123.27,27.43)" id="img-dff2a808-22">
          <path fill="none" d="M-105.24,0 L105.24,0 " class="primitive"/>
        </g>
        <g transform="translate(123.27,11.21)" id="img-dff2a808-23">
          <path fill="none" d="M-105.24,0 L105.24,0 " class="primitive"/>
        </g>
      </g>
      <g class="guide xgridlines yfixed" stroke-dasharray="none" stroke-width="0.2" stroke="#FFDFDF" id="img-dff2a808-24">
        <g transform="translate(20.03,31.29)" id="img-dff2a808-25">
          <path fill="none" d="M0,-30.58 L0,30.58 " class="primitive"/>
        </g>
        <g transform="translate(71.65,31.29)" id="img-dff2a808-26">
          <path fill="none" d="M0,-30.58 L0,30.58 " class="primitive"/>
        </g>
        <g transform="translate(123.27,31.29)" id="img-dff2a808-27">
          <path fill="none" d="M0,-30.58 L0,30.58 " class="primitive"/>
        </g>
        <g transform="translate(174.89,31.29)" id="img-dff2a808-28">
          <path fill="none" d="M0,-30.58 L0,30.58 " class="primitive"/>
        </g>
        <g transform="translate(226.51,31.29)" id="img-dff2a808-29">
          <path fill="none" d="M0,-30.58 L0,30.58 " class="primitive"/>
        </g>
      </g>
      <g class="plotpanel" id="img-dff2a808-30">
        <metadata>
          <boundingbox value="18.027222222222242mm 0.7055555555555555mm 210.48055555555555mm 61.16055555555556mm"/>
          <unitbox value="-77.4891367225862 72953.3328873835 8154.978273445172 -75419.615774767"/>
        </metadata>
        <g stroke-width="0.3" fill="#000000" fill-opacity="0.000" class="geometry" id="img-dff2a808-31">
          <g class="color_RGB{N0f8}(0.718,0.0,0.008)" stroke-dasharray="none" stroke="#B70002" id="img-dff2a808-32">
            <g transform="translate(123.23,28.79)" id="img-dff2a808-33">
              <path fill="none" d="M-103.16,31.08 L-102.9,31.08 -102.9,31.08 -102.64,31.08 -102.64,31.08 -102.39,31.08 -102.39,31.08 -102.13,31.08 -102.13,31.08 -101.87,31.08 -101.87,31.08 -101.61,31.08 -101.61,31.08 -101.35,31.08 -101.35,31.08 -101.1,31.08 -101.1,31.08 -100.84,31.08 -100.84,31.08 -100.58,31.08 -100.58,31.08 -100.32,31.08 -100.32,31.07 -100.06,31.07 -100.06,31.06 -99.81,31.06 -99.81,31.04 -99.55,31.04 -99.55,31.02 -99.29,31.02 -99.29,30.98 -99.03,30.98 -99.03,30.89 -98.77,30.89 -98.77,30.74 -98.52,30.74 -98.52,30.48 -98.26,30.48 -98.26,30.03 -98,30.03 -98,29.19 -97.74,29.19 -97.74,27.8 -97.48,27.8 -97.48,25.57 -97.23,25.57 -97.23,21.93 -96.97,21.93 -96.97,17.46 -96.71,17.46 -96.71,12.72 -96.45,12.72 -96.45,9.5 -96.19,9.5 -96.19,10.23 -95.94,10.23 -95.94,15.1 -95.68,15.1 -95.68,22.2 -95.42,22.2 -95.42,29.4 -95.16,29.4 -95.16,34.61 -94.9,34.61 -94.9,37.91 -94.64,37.91 -94.64,40.16 -94.39,40.16 -94.39,41.4 -94.13,41.4 -94.13,42.53 -93.87,42.53 -93.87,43.38 -93.61,43.38 -93.61,44.4 -93.35,44.4 -93.35,45.31 -93.1,45.31 -93.1,46 -92.84,46 -92.84,46.98 -92.58,46.98 -92.58,47.43 -92.32,47.43 -92.32,47.34 -92.06,47.34 -92.06,47.1 -91.81,47.1 -91.81,46.03 -91.55,46.03 -91.55,44.66 -91.29,44.66 -91.29,43.08 -91.03,43.08 -91.03,40.89 -90.77,40.89 -90.77,38.2 -90.52,38.2 -90.52,35.6 -90.26,35.6 -90.26,32.25 -90,32.25 -90,30 -89.74,30 -89.74,27.22 -89.48,27.22 -89.48,24.63 -89.23,24.63 -89.23,18.87 -88.97,18.87 -88.97,8.54 -88.71,8.54 -88.71,-11.39 -88.45,-11.39 -88.45,-42.71 -88.19,-42.71 -88.19,-84.11 -87.94,-84.11 -87.94,-129.69 -87.68,-129.69 -87.68,-169 -87.42,-169 -87.42,-190.52 -87.16,-190.52 -87.16,-193.37 -86.9,-193.37 -86.9,-185.01 -86.64,-185.01 -86.64,-182.68 -86.39,-182.68 -86.39,-207.46 -86.13,-207.46 -86.13,-272.1 -85.87,-272.1 -85.87,-374.36 -85.61,-374.36 -85.61,-488.97 -85.35,-488.97 -85.35,-581.62 -85.1,-581.62 -85.1,-615.89 -84.84,-615.89 -84.84,-574.02 -84.58,-574.02 -84.58,-474.67 -84.32,-474.67 -84.32,-344.44 -84.06,-344.44 -84.06,-221.82 -83.81,-221.82 -83.81,-124.27 -83.55,-124.27 -83.55,-59.55 -83.29,-59.55 -83.29,-20.76 -83.03,-20.76 -83.03,0.57 -82.77,0.57 -82.77,12.2 -82.52,12.2 -82.52,19.11 -82.26,19.11 -82.26,24.1 -82,24.1 -82,27.89 -81.74,27.89 -81.74,30.6 -81.48,30.6 -81.48,32.43 -81.23,32.43 -81.23,33.73 -80.97,33.73 -80.97,34.39 -80.71,34.39 -80.71,34.78 -80.45,34.78 -80.45,34.8 -80.19,34.8 -80.19,34.91 -79.94,34.91 -79.94,34.97 -79.68,34.97 -79.68,34.83 -79.42,34.83 -79.42,34.9 -79.16,34.9 -79.16,34.78 -78.9,34.78 -78.9,34.78 -78.64,34.78 -78.64,34.95 -78.39,34.95 -78.39,35.11 -78.13,35.11 -78.13,34.92 -77.87,34.92 -77.87,35.21 -77.61,35.21 -77.61,35.13 -77.35,35.13 -77.35,35.29 -77.1,35.29 -77.1,35.26 -76.84,35.26 -76.84,35.17 -76.58,35.17 -76.58,35.24 -76.32,35.24 -76.32,35.31 -76.06,35.31 -76.06,35.45 -75.81,35.45 -75.81,35.39 -75.55,35.39 -75.55,35.38 -75.29,35.38 -75.29,35.42 -75.03,35.42 -75.03,35.38 -74.77,35.38 -74.77,35.48 -74.52,35.48 -74.52,35.59 -74.26,35.59 -74.26,35.21 -74,35.21 -74,35.27 -73.74,35.27 -73.74,35.35 -73.48,35.35 -73.48,35.44 -73.23,35.44 -73.23,35.3 -72.97,35.3 -72.97,35.13 -72.71,35.13 -72.71,35.17 -72.45,35.17 -72.45,35.29 -72.19,35.29 -72.19,34.77 -71.94,34.77 -71.94,34.57 -71.68,34.57 -71.68,34.19 -71.42,34.19 -71.42,33.78 -71.16,33.78 -71.16,33.4 -70.9,33.4 -70.9,32.46 -70.64,32.46 -70.64,31.81 -70.39,31.81 -70.39,31.12 -70.13,31.12 -70.13,30.7 -69.87,30.7 -69.87,30.23 -69.61,30.23 -69.61,29.88 -69.35,29.88 -69.35,29.85 -69.1,29.85 -69.1,29.47 -68.84,29.47 -68.84,29.52 -68.58,29.52 -68.58,29.15 -68.32,29.15 -68.32,29.13 -68.06,29.13 -68.06,29.14 -67.81,29.14 -67.81,29.15 -67.55,29.15 -67.55,29.35 -67.29,29.35 -67.29,29.08 -67.03,29.08 -67.03,29.24 -66.77,29.24 -66.77,29.37 -66.52,29.37 -66.52,29.67 -66.26,29.67 -66.26,29.62 -66,29.62 -66,29.68 -65.74,29.68 -65.74,29.38 -65.48,29.38 -65.48,29.48 -65.23,29.48 -65.23,29.17 -64.97,29.17 -64.97,29.37 -64.71,29.37 -64.71,29.11 -64.45,29.11 -64.45,31.08 -64.19,31.08 -64.19,31.08 -63.94,31.08 -63.94,31.08 -63.68,31.08 -63.68,31.08 -63.42,31.08 -63.42,31.08 -63.16,31.08 -63.16,31.08 -62.9,31.08 -62.9,31.08 -62.64,31.08 -62.64,31.08 -62.39,31.08 -62.39,31.08 -62.13,31.08 -62.13,31.08 -61.87,31.08 -61.87,31.08 -61.61,31.08 -61.61,31.08 -61.35,31.08 -61.35,31.08 -61.1,31.08 -61.1,31.08 -60.84,31.08 -60.84,31.08 -60.58,31.08 -60.58,31.08 -60.32,31.08 -60.32,31.08 -60.06,31.08 -60.06,31.08 -59.81,31.08 -59.81,31.08 -59.55,31.08 -59.55,31.08 -59.29,31.08 -59.29,31.08 -59.03,31.08 -59.03,31.08 -58.77,31.08 -58.77,31.08 -58.52,31.08 -58.52,31.08 -58.26,31.08 -58.26,31.08 -58,31.08 -58,31.08 -57.74,31.08 -57.74,31.08 -57.48,31.08 -57.48,31.08 -57.23,31.08 -57.23,31.08 -56.97,31.08 -56.97,31.08 -56.71,31.08 -56.71,31.08 -56.45,31.08 -56.45,31.08 -56.19,31.08 -56.19,31.08 -55.94,31.08 -55.94,31.08 -55.68,31.08 -55.68,31.08 -55.42,31.08 -55.42,31.08 -55.16,31.08 -55.16,31.08 -54.9,31.08 -54.9,31.08 -54.64,31.08 -54.64,31.08 -54.39,31.08 -54.39,31.08 -54.13,31.08 -54.13,31.08 -53.87,31.08 -53.87,31.08 -53.61,31.08 -53.61,31.08 -53.35,31.08 -53.35,31.08 -53.1,31.08 -53.1,31.08 -52.84,31.08 -52.84,31.08 -52.58,31.08 -52.58,31.08 -52.32,31.08 -52.32,31.08 -52.06,31.08 -52.06,31.08 -51.81,31.08 -51.81,31.08 -51.55,31.08 -51.55,31.08 -51.29,31.08 -51.29,31.08 -51.03,31.08 -51.03,31.08 -50.77,31.08 -50.77,31.08 -50.52,31.08 -50.52,31.08 -50.26,31.08 -50.26,31.08 -50,31.08 -50,31.08 -49.74,31.08 -49.74,31.08 -49.48,31.08 -49.48,31.08 -49.23,31.08 -49.23,31.08 -48.97,31.08 -48.97,31.08 -48.71,31.08 -48.71,31.08 -48.45,31.08 -48.45,31.08 -48.19,31.08 -48.19,31.08 -47.94,31.08 -47.94,31.08 -47.68,31.08 -47.68,31.08 -47.42,31.08 -47.42,31.08 -47.16,31.08 -47.16,31.08 -46.9,31.08 -46.9,31.08 -46.64,31.08 -46.64,31.08 -46.39,31.08 -46.39,31.08 -46.13,31.08 -46.13,31.08 -45.87,31.08 -45.87,31.08 -45.61,31.08 -45.61,31.08 -45.35,31.08 -45.35,31.08 -45.1,31.08 -45.1,31.08 -44.84,31.08 -44.84,31.08 -44.58,31.08 -44.58,31.08 -44.32,31.08 -44.32,31.08 -44.06,31.08 -44.06,31.08 -43.81,31.08 -43.81,31.08 -43.55,31.08 -43.55,31.08 -43.29,31.08 -43.29,31.08 -43.03,31.08 -43.03,31.08 -42.77,31.08 -42.77,31.08 -42.52,31.08 -42.52,31.08 -42.26,31.08 -42.26,31.08 -42,31.08 -42,31.08 -41.74,31.08 -41.74,31.08 -41.48,31.08 -41.48,31.08 -41.23,31.08 -41.23,31.08 -40.97,31.08 -40.97,31.08 -40.71,31.08 -40.71,31.08 -40.45,31.08 -40.45,31.08 -40.19,31.08 -40.19,31.08 -39.94,31.08 -39.94,31.08 -39.68,31.08 -39.68,31.08 -39.42,31.08 -39.42,31.08 -39.16,31.08 -39.16,31.08 -38.9,31.08 -38.9,31.08 -38.64,31.08 -38.64,31.08 -38.39,31.08 -38.39,31.08 -38.13,31.08 -38.13,31.08 -37.87,31.08 -37.87,31.08 -37.61,31.08 -37.61,31.08 -37.35,31.08 -37.35,31.08 -37.1,31.08 -37.1,31.08 -36.84,31.08 -36.84,31.08 -36.58,31.08 -36.58,31.08 -36.32,31.08 -36.32,31.08 -36.06,31.08 -36.06,31.08 -35.81,31.08 -35.81,31.08 -35.55,31.08 -35.55,31.08 -35.29,31.08 -35.29,31.08 -35.03,31.08 -35.03,31.08 -34.77,31.08 -34.77,31.08 -34.52,31.08 -34.52,31.08 -34.26,31.08 -34.26,31.08 -34,31.08 -34,31.08 -33.74,31.08 -33.74,31.08 -33.48,31.08 -33.48,31.08 -33.23,31.08 -33.23,31.08 -32.97,31.08 -32.97,31.08 -32.71,31.08 -32.71,31.08 -32.45,31.08 -32.45,31.08 -32.19,31.08 -32.19,31.08 -31.94,31.08 -31.94,31.08 -31.68,31.08 -31.68,31.08 -31.42,31.08 -31.42,31.08 -31.16,31.08 -31.16,31.08 -30.9,31.08 -30.9,31.08 -30.65,31.08 -30.65,31.08 -30.39,31.08 -30.39,31.08 -30.13,31.08 -30.13,31.08 -29.87,31.08 -29.87,31.08 -29.61,31.08 -29.61,31.08 -29.35,31.08 -29.35,31.08 -29.1,31.08 -29.1,31.08 -28.84,31.08 -28.84,31.08 -28.58,31.08 -28.58,31.08 -28.32,31.08 -28.32,31.08 -28.06,31.08 -28.06,31.08 -27.81,31.08 -27.81,31.08 -27.55,31.08 -27.55,31.08 -27.29,31.08 -27.29,31.08 -27.03,31.08 -27.03,31.08 -26.77,31.08 -26.77,31.08 -26.52,31.08 -26.52,31.08 -26.26,31.08 -26.26,31.08 -26,31.08 -26,31.08 -25.74,31.08 -25.74,31.08 -25.48,31.08 -25.48,31.08 -25.23,31.08 -25.23,31.08 -24.97,31.08 -24.97,31.08 -24.71,31.08 -24.71,31.08 -24.45,31.08 -24.45,31.08 -24.19,31.08 -24.19,31.08 -23.94,31.08 -23.94,31.08 -23.68,31.08 -23.68,31.08 -23.42,31.08 -23.42,31.08 -23.16,31.08 -23.16,31.08 -22.9,31.08 -22.9,31.08 -22.65,31.08 -22.65,31.08 -22.39,31.08 -22.39,31.08 -22.13,31.08 -22.13,31.08 -21.87,31.08 -21.87,31.08 -21.61,31.08 -21.61,31.08 -21.35,31.08 -21.35,31.08 -21.1,31.08 -21.1,31.08 -20.84,31.08 -20.84,31.08 -20.58,31.08 -20.58,31.08 -20.32,31.08 -20.32,31.08 -20.06,31.08 -20.06,31.08 -19.81,31.08 -19.81,31.08 -19.55,31.08 -19.55,31.08 -19.29,31.08 -19.29,31.08 -19.03,31.08 -19.03,31.08 -18.77,31.08 -18.77,31.08 -18.52,31.08 -18.52,31.08 -18.26,31.08 -18.26,31.08 -18,31.08 -18,31.08 -17.74,31.08 -17.74,31.08 -17.48,31.08 -17.48,31.08 -17.23,31.08 -17.23,31.08 -16.97,31.08 -16.97,31.08 -16.71,31.08 -16.71,31.08 -16.45,31.08 -16.45,31.08 -16.19,31.08 -16.19,31.08 -15.94,31.08 -15.94,31.08 -15.68,31.08 -15.68,31.08 -15.42,31.08 -15.42,31.08 -15.16,31.08 -15.16,31.08 -14.9,31.08 -14.9,31.08 -14.65,31.08 -14.65,31.08 -14.39,31.08 -14.39,31.08 -14.13,31.08 -14.13,31.08 -13.87,31.08 -13.87,31.08 -13.61,31.08 -13.61,31.08 -13.35,31.08 -13.35,31.08 -13.1,31.08 -13.1,31.08 -12.84,31.08 -12.84,31.08 -12.58,31.08 -12.58,31.08 -12.32,31.08 -12.32,31.08 -12.06,31.08 -12.06,31.08 -11.81,31.08 -11.81,31.08 -11.55,31.08 -11.55,31.08 -11.29,31.08 -11.29,31.08 -11.03,31.08 -11.03,31.08 -10.77,31.08 -10.77,31.08 -10.52,31.08 -10.52,31.08 -10.26,31.08 -10.26,31.08 -10,31.08 -10,31.08 -9.74,31.08 -9.74,31.08 -9.48,31.08 -9.48,31.08 -9.23,31.08 -9.23,31.08 -8.97,31.08 -8.97,31.08 -8.71,31.08 -8.71,31.08 -8.45,31.08 -8.45,31.08 -8.19,31.08 -8.19,31.08 -7.94,31.08 -7.94,31.08 -7.68,31.08 -7.68,31.08 -7.42,31.08 -7.42,31.08 -7.16,31.08 -7.16,31.08 -6.9,31.08 -6.9,31.08 -6.65,31.08 -6.65,31.08 -6.39,31.08 -6.39,31.08 -6.13,31.08 -6.13,31.08 -5.87,31.08 -5.87,31.08 -5.61,31.08 -5.61,31.08 -5.35,31.08 -5.35,31.08 -5.1,31.08 -5.1,31.08 -4.84,31.08 -4.84,31.08 -4.58,31.08 -4.58,31.08 -4.32,31.08 -4.32,31.08 -4.06,31.08 -4.06,31.08 -3.81,31.08 -3.81,31.08 -3.55,31.08 -3.55,31.08 -3.29,31.08 -3.29,31.08 -3.03,31.08 -3.03,31.08 -2.77,31.08 -2.77,31.08 -2.52,31.08 -2.52,31.08 -2.26,31.08 -2.26,31.08 -2,31.08 -2,31.08 -1.74,31.08 -1.74,31.08 -1.48,31.08 -1.48,31.08 -1.23,31.08 -1.23,31.08 -0.97,31.08 -0.97,31.08 -0.71,31.08 -0.71,31.08 -0.45,31.08 -0.45,31.08 -0.19,31.08 -0.19,31.08 0.06,31.08 0.06,31.08 0.32,31.08 0.32,31.08 0.58,31.08 0.58,31.08 0.84,31.08 0.84,31.08 1.1,31.08 1.1,31.08 1.35,31.08 1.35,31.08 1.61,31.08 1.61,31.08 1.87,31.08 1.87,31.08 2.13,31.08 2.13,31.08 2.39,31.08 2.39,31.08 2.65,31.08 2.65,31.08 2.9,31.08 2.9,31.08 3.16,31.08 3.16,31.08 3.42,31.08 3.42,31.08 3.68,31.08 3.68,31.08 3.94,31.08 3.94,31.08 4.19,31.08 4.19,31.08 4.45,31.08 4.45,31.08 4.71,31.08 4.71,31.08 4.97,31.08 4.97,31.08 5.23,31.08 5.23,31.08 5.48,31.08 5.48,31.08 5.74,31.08 5.74,31.08 6,31.08 6,31.08 6.26,31.08 6.26,31.08 6.52,31.08 6.52,31.08 6.77,31.08 6.77,31.08 7.03,31.08 7.03,31.08 7.29,31.08 7.29,31.08 7.55,31.08 7.55,31.08 7.81,31.08 7.81,31.08 8.06,31.08 8.06,31.08 8.32,31.08 8.32,31.08 8.58,31.08 8.58,31.08 8.84,31.08 8.84,31.08 9.1,31.08 9.1,31.08 9.35,31.08 9.35,31.08 9.61,31.08 9.61,31.08 9.87,31.08 9.87,31.08 10.13,31.08 10.13,31.08 10.39,31.08 10.39,31.08 10.65,31.08 10.65,31.08 10.9,31.08 10.9,31.08 11.16,31.08 11.16,31.08 11.42,31.08 11.42,31.08 11.68,31.08 11.68,31.08 11.94,31.08 11.94,31.08 12.19,31.08 12.19,31.08 12.45,31.08 12.45,31.08 12.71,31.08 12.71,31.08 12.97,31.08 12.97,31.08 13.23,31.08 13.23,31.08 13.48,31.08 13.48,31.08 13.74,31.08 13.74,31.08 14,31.08 14,31.08 14.26,31.08 14.26,31.08 14.52,31.08 14.52,31.08 14.77,31.08 14.77,31.08 15.03,31.08 15.03,31.08 15.29,31.08 15.29,31.08 15.55,31.08 15.55,31.08 15.81,31.08 15.81,31.08 16.06,31.08 16.06,31.08 16.32,31.08 16.32,31.08 16.58,31.08 16.58,31.08 16.84,31.08 16.84,31.08 17.1,31.08 17.1,31.08 17.35,31.08 17.35,31.08 17.61,31.08 17.61,31.08 17.87,31.08 17.87,31.08 18.13,31.08 18.13,31.08 18.39,31.08 18.39,31.08 18.65,31.08 18.65,31.08 18.9,31.08 18.9,31.08 19.16,31.08 19.16,31.08 19.42,31.08 19.42,31.08 19.68,31.08 19.68,31.08 19.94,31.08 19.94,31.08 20.19,31.08 20.19,31.08 20.45,31.08 20.45,31.08 20.71,31.08 20.71,31.08 20.97,31.08 20.97,31.08 21.23,31.08 21.23,31.08 21.48,31.08 21.48,31.08 21.74,31.08 21.74,31.08 22,31.08 22,31.08 22.26,31.08 22.26,31.08 22.52,31.08 22.52,31.08 22.77,31.08 22.77,31.08 23.03,31.08 23.03,31.08 23.29,31.08 23.29,31.08 23.55,31.08 23.55,31.08 23.81,31.08 23.81,31.08 24.06,31.08 24.06,31.08 24.32,31.08 24.32,31.08 24.58,31.08 24.58,31.08 24.84,31.08 24.84,31.08 25.1,31.08 25.1,31.08 25.35,31.08 25.35,31.08 25.61,31.08 25.61,31.08 25.87,31.08 25.87,31.08 26.13,31.08 26.13,31.08 26.39,31.08 26.39,31.08 26.65,31.08 26.65,31.08 26.9,31.08 26.9,31.08 27.16,31.08 27.16,31.08 27.42,31.08 27.42,31.08 27.68,31.08 27.68,31.08 27.94,31.08 27.94,31.08 28.19,31.08 28.19,31.08 28.45,31.08 28.45,31.08 28.71,31.08 28.71,31.08 28.97,31.08 28.97,31.08 29.23,31.08 29.23,31.08 29.48,31.08 29.48,31.08 29.74,31.08 29.74,31.08 30,31.08 30,31.08 30.26,31.08 30.26,31.08 30.52,31.08 30.52,31.08 30.77,31.08 30.77,31.08 31.03,31.08 31.03,31.08 31.29,31.08 31.29,31.08 31.55,31.08 31.55,31.08 31.81,31.08 31.81,31.08 32.06,31.08 32.06,31.08 32.32,31.08 32.32,31.08 32.58,31.08 32.58,31.08 32.84,31.08 32.84,31.08 33.1,31.08 33.1,31.08 33.35,31.08 33.35,31.08 33.61,31.08 33.61,31.08 33.87,31.08 33.87,31.08 34.13,31.08 34.13,31.08 34.39,31.08 34.39,31.08 34.65,31.08 34.65,31.08 34.9,31.08 34.9,31.08 35.16,31.08 35.16,31.08 35.42,31.08 35.42,31.08 35.68,31.08 35.68,31.08 35.94,31.08 35.94,31.08 36.19,31.08 36.19,31.08 36.45,31.08 36.45,31.08 36.71,31.08 36.71,31.08 36.97,31.08 36.97,31.08 37.23,31.08 37.23,31.08 37.48,31.08 37.48,31.08 37.74,31.08 37.74,31.08 38,31.08 38,31.08 38.26,31.08 38.26,31.08 38.52,31.08 38.52,31.08 38.77,31.08 38.77,31.08 39.03,31.08 39.03,31.08 39.29,31.08 39.29,31.08 39.55,31.08 39.55,31.08 39.81,31.08 39.81,31.08 40.06,31.08 40.06,31.08 40.32,31.08 40.32,31.08 40.58,31.08 40.58,31.08 40.84,31.08 40.84,31.08 41.1,31.08 41.1,31.08 41.35,31.08 41.35,31.08 41.61,31.08 41.61,31.08 41.87,31.08 41.87,31.08 42.13,31.08 42.13,31.08 42.39,31.08 42.39,31.08 42.65,31.08 42.65,31.08 42.9,31.08 42.9,31.08 43.16,31.08 43.16,31.08 43.42,31.08 43.42,31.08 43.68,31.08 43.68,31.08 43.94,31.08 43.94,31.08 44.19,31.08 44.19,31.08 44.45,31.08 44.45,31.08 44.71,31.08 44.71,31.08 44.97,31.08 44.97,31.08 45.23,31.08 45.23,31.08 45.48,31.08 45.48,31.08 45.74,31.08 45.74,31.08 46,31.08 46,31.08 46.26,31.08 46.26,31.08 46.52,31.08 46.52,31.08 46.77,31.08 46.77,31.08 47.03,31.08 47.03,31.08 47.29,31.08 47.29,31.08 47.55,31.08 47.55,31.08 47.81,31.08 47.81,31.08 48.06,31.08 48.06,31.08 48.32,31.08 48.32,31.08 48.58,31.08 48.58,31.08 48.84,31.08 48.84,31.08 49.1,31.08 49.1,31.08 49.35,31.08 49.35,31.08 49.61,31.08 49.61,30.52 49.87,30.52 49.87,30.73 50.13,30.73 50.13,30.54 50.39,30.54 50.39,30.31 50.65,30.31 50.65,30.46 50.9,30.46 50.9,30.41 51.16,30.41 51.16,30.36 51.42,30.36 51.42,30.39 51.68,30.39 51.68,30.27 51.94,30.27 51.94,30.27 52.19,30.27 52.19,30.13 52.45,30.13 52.45,30.09 52.71,30.09 52.71,29.96 52.97,29.96 52.97,29.88 53.23,29.88 53.23,29.82 53.48,29.82 53.48,29.62 53.74,29.62 53.74,29.48 54,29.48 54,29.38 54.26,29.38 54.26,29.06 54.52,29.06 54.52,29.08 54.77,29.08 54.77,28.64 55.03,28.64 55.03,28.52 55.29,28.52 55.29,28.16 55.55,28.16 55.55,27.88 55.81,27.88 55.81,27.46 56.06,27.46 56.06,26.91 56.32,26.91 56.32,26.12 56.58,26.12 56.58,25.14 56.84,25.14 56.84,23.43 57.1,23.43 57.1,21.07 57.35,21.07 57.35,17.26 57.61,17.26 57.61,10.87 57.87,10.87 57.87,1.6 58.13,1.6 58.13,-12.75 58.39,-12.75 58.39,-32.84 58.64,-32.84 58.64,-61.8 58.9,-61.8 58.9,-100.93 59.16,-100.93 59.16,-154.42 59.42,-154.42 59.42,-220.72 59.68,-220.72 59.68,-302.38 59.94,-302.38 59.94,-399.44 60.19,-399.44 60.19,-507.35 60.45,-507.35 60.45,-623.97 60.71,-623.97 60.71,-742.01 60.97,-742.01 60.97,-854.5 61.23,-854.5 61.23,-955.06 61.48,-955.06 61.48,-1032.8 61.74,-1032.8 61.74,-1081.82 62,-1081.82 62,-1098.81 62.26,-1098.81 62.26,-1081.49 62.52,-1081.49 62.52,-1033.13 62.77,-1033.13 62.77,-955.22 63.03,-955.22 63.03,-857.14 63.29,-857.14 63.29,-746.37 63.55,-746.37 63.55,-627.55 63.81,-627.55 63.81,-511.57 64.06,-511.57 64.06,-402.79 64.32,-402.79 64.32,-306.38 64.58,-306.38 64.58,-223.22 64.84,-223.22 64.84,-156.8 65.1,-156.8 65.1,-103.22 65.35,-103.22 65.35,-62.26 65.61,-62.26 65.61,-32.6 65.87,-32.6 65.87,-11.6 66.13,-11.6 66.13,3.1 66.39,3.1 66.39,12.73 66.64,12.73 66.64,19.33 66.9,19.33 66.9,23.44 67.16,23.44 67.16,26.07 67.42,26.07 67.42,27.78 67.68,27.78 67.68,28.51 67.94,28.51 67.94,29.12 68.19,29.12 68.19,29.4 68.45,29.4 68.45,29.7 68.71,29.7 68.71,29.97 68.97,29.97 68.97,30.07 69.23,30.07 69.23,30.03 69.48,30.03 69.48,30.18 69.74,30.18 69.74,30.06 70,30.06 70,30.08 70.26,30.08 70.26,30.23 70.52,30.23 70.52,30.24 70.77,30.24 70.77,29.8 71.03,29.8 71.03,29.9 71.29,29.9 71.29,29.92 71.55,29.92 71.55,29.94 71.81,29.94 71.81,29.69 72.06,29.69 72.06,29.78 72.32,29.78 72.32,29.42 72.58,29.42 72.58,29.3 72.84,29.3 72.84,28.78 73.1,28.78 73.1,28.91 73.35,28.91 73.35,28.28 73.61,28.28 73.61,27.92 73.87,27.92 73.87,27.38 74.13,27.38 74.13,26.53 74.39,26.53 74.39,25.45 74.64,25.45 74.64,23.9 74.9,23.9 74.9,21.75 75.16,21.75 75.16,19.07 75.42,19.07 75.42,15.32 75.68,15.32 75.68,10.34 75.94,10.34 75.94,3.97 76.19,3.97 76.19,-3.9 76.45,-3.9 76.45,-13.86 76.71,-13.86 76.71,-25.27 76.97,-25.27 76.97,-37.48 77.23,-37.48 77.23,-51.29 77.48,-51.29 77.48,-65.57 77.74,-65.57 77.74,-78.77 78,-78.77 78,-90.57 78.26,-90.57 78.26,-101.25 78.52,-101.25 78.52,-108.47 78.77,-108.47 78.77,-112.21 79.03,-112.21 79.03,-111.63 79.29,-111.63 79.29,-109.21 79.55,-109.21 79.55,-101.14 79.81,-101.14 79.81,-91.05 80.06,-91.05 80.06,-78.84 80.32,-78.84 80.32,-65.21 80.58,-65.21 80.58,-51.63 80.84,-51.63 80.84,-37.43 81.1,-37.43 81.1,-24.49 81.35,-24.49 81.35,-12.94 81.61,-12.94 81.61,-2.62 81.87,-2.62 81.87,5.56 82.13,5.56 82.13,12.53 82.39,12.53 82.39,18.06 82.64,18.06 82.64,22.07 82.9,22.07 82.9,25.26 83.16,25.26 83.16,27.48 83.42,27.48 83.42,28.87 83.68,28.87 83.68,29.94 83.94,29.94 83.94,30.85 84.19,30.85 84.19,31.35 84.45,31.35 84.45,31.45 84.71,31.45 84.71,31.68 84.97,31.68 84.97,32 85.23,32 85.23,31.85 85.48,31.85 85.48,32.05 85.74,32.05 85.74,31.93 86,31.93 86,32.05 86.26,32.05 86.26,31.93 86.52,31.93 86.52,32.16 86.77,32.16 86.77,31.96 87.03,31.96 87.03,32.05 87.29,32.05 87.29,31.79 87.55,31.79 87.55,32.03 87.81,32.03 87.81,31.89 88.06,31.89 88.06,31.87 88.32,31.87 88.32,31.92 88.58,31.92 88.58,31.87 88.84,31.87 88.84,31.81 89.1,31.81 89.1,31.73 89.35,31.73 89.35,31.77 89.61,31.77 89.61,31.72 89.87,31.72 89.87,31.72 90.13,31.72 90.13,31.7 90.39,31.7 90.39,31.74 90.64,31.74 90.64,31.08 90.9,31.08 90.9,31.08 91.16,31.08 91.16,31.08 91.42,31.08 91.42,31.08 91.68,31.08 91.68,31.08 91.94,31.08 91.94,31.08 92.19,31.08 92.19,31.08 92.45,31.08 92.45,31.08 92.71,31.08 92.71,31.08 92.97,31.08 92.97,31.08 93.23,31.08 93.23,31.08 93.48,31.08 93.48,31.08 93.74,31.08 93.74,31.08 94,31.08 94,31.08 94.26,31.08 94.26,31.08 94.52,31.08 94.52,31.08 94.77,31.08 94.77,31.08 95.03,31.08 95.03,31.08 95.29,31.08 95.29,31.08 95.55,31.08 95.55,31.08 95.81,31.08 95.81,31.08 96.06,31.08 96.06,31.08 96.32,31.08 96.32,31.08 96.58,31.08 96.58,31.08 96.84,31.08 96.84,31.08 97.1,31.08 97.1,31.08 97.35,31.08 97.35,31.08 97.61,31.08 97.61,31.08 97.87,31.08 97.87,31.08 98.13,31.08 98.13,31.08 98.39,31.08 98.39,31.08 98.64,31.08 98.64,31.08 98.9,31.08 98.9,31.08 99.16,31.08 99.16,31.08 99.42,31.08 99.42,31.08 99.68,31.08 99.68,31.08 99.94,31.08 99.94,31.08 100.19,31.08 100.19,31.08 100.45,31.08 100.45,31.08 100.71,31.08 100.71,31.08 100.97,31.08 100.97,31.08 101.23,31.08 101.23,31.08 101.48,31.08 101.48,31.08 101.74,31.08 101.74,31.08 102,31.08 102,31.08 102.26,31.08 102.26,31.08 102.52,31.08 102.52,31.08 102.77,31.08 102.77,31.08 103.03,31.08 103.03,31.08 " class="primitive"/>
            </g>
          </g>
        </g>
        <g stroke-width="0.3" fill="#000000" fill-opacity="0.000" class="geometry" id="img-dff2a808-34">
          <g class="color_RGB{N0f8}(0.063,0.306,0.545)" stroke-dasharray="none" stroke="#104E8B" id="img-dff2a808-35">
            <g transform="translate(123.23,8.52)" id="img-dff2a808-36">
              <path fill="none" d="M-103.16,51.32 L-102.9,51.32 -102.9,51.32 -102.64,51.32 -102.64,51.33 -102.39,51.33 -102.39,51.33 -102.13,51.33 -102.13,51.33 -101.87,51.33 -101.87,51.33 -101.61,51.33 -101.61,51.34 -101.35,51.34 -101.35,51.34 -101.1,51.34 -101.1,51.34 -100.84,51.34 -100.84,51.34 -100.58,51.34 -100.58,51.34 -100.32,51.34 -100.32,51.33 -100.06,51.33 -100.06,51.33 -99.81,51.33 -99.81,51.3 -99.55,51.3 -99.55,51.28 -99.29,51.28 -99.29,51.24 -99.03,51.24 -99.03,51.15 -98.77,51.15 -98.77,51 -98.52,51 -98.52,50.72 -98.26,50.72 -98.26,50.22 -98,50.22 -98,49.23 -97.74,49.23 -97.74,47.46 -97.48,47.46 -97.48,44.41 -97.23,44.41 -97.23,39.23 -96.97,39.23 -96.97,32.36 -96.71,32.36 -96.71,24.43 -96.45,24.43 -96.45,17.68 -96.19,17.68 -96.19,15.23 -95.94,15.23 -95.94,17.91 -95.68,17.91 -95.68,23.99 -95.42,23.99 -95.42,31.05 -95.16,31.05 -95.16,36.41 -94.9,36.41 -94.9,39.6 -94.64,39.6 -94.64,41.18 -94.39,41.18 -94.39,41.23 -94.13,41.23 -94.13,40.8 -93.87,40.8 -93.87,39.95 -93.61,39.95 -93.61,39.25 -93.35,39.25 -93.35,38.49 -93.1,38.49 -93.1,37.58 -92.84,37.58 -92.84,37.04 -92.58,37.04 -92.58,36.07 -92.32,36.07 -92.32,34.74 -92.06,34.74 -92.06,33.49 -91.81,33.49 -91.81,31.62 -91.55,31.62 -91.55,29.59 -91.29,29.59 -91.29,27.37 -91.03,27.37 -91.03,24.47 -90.77,24.47 -90.77,21.02 -90.52,21.02 -90.52,17.68 -90.26,17.68 -90.26,13.7 -90,13.7 -90,10.96 -89.74,10.96 -89.74,7.78 -89.48,7.78 -89.48,4.73 -89.23,4.73 -89.23,-1.7 -88.97,-1.7 -88.97,-12.98 -88.71,-12.98 -88.71,-34.15 -88.45,-34.15 -88.45,-66.91 -88.19,-66.91 -88.19,-109.87 -87.94,-109.87 -87.94,-157.01 -87.68,-157.01 -87.68,-197.82 -87.42,-197.82 -87.42,-220.75 -87.16,-220.75 -87.16,-224.89 -86.9,-224.89 -86.9,-217.64 -86.64,-217.64 -86.64,-216.1 -86.39,-216.1 -86.39,-241.1 -86.13,-241.1 -86.13,-305.05 -85.87,-305.05 -85.87,-405.31 -85.61,-405.31 -85.61,-516.25 -85.35,-516.25 -85.35,-603.48 -85.1,-603.48 -85.1,-630.88 -84.84,-630.88 -84.84,-581.36 -84.58,-581.36 -84.58,-474.49 -84.32,-474.49 -84.32,-337.71 -84.06,-337.71 -84.06,-210.06 -83.81,-210.06 -83.81,-109.19 -83.55,-109.19 -83.55,-42.76 -83.29,-42.76 -83.29,-3.61 -83.03,-3.61 -83.03,17.06 -82.77,17.06 -82.77,27.3 -82.52,27.3 -82.52,32.37 -82.26,32.37 -82.26,35.39 -82,35.39 -82,37.32 -81.74,37.32 -81.74,38.48 -81.48,38.48 -81.48,39.18 -81.23,39.18 -81.23,39.78 -80.97,39.78 -80.97,40.07 -80.71,40.07 -80.71,40.32 -80.45,40.32 -80.45,40.29 -80.19,40.29 -80.19,40.38 -79.94,40.38 -79.94,40.37 -79.68,40.37 -79.68,40.1 -79.42,40.1 -79.42,39.99 -79.16,39.99 -79.16,39.66 -78.9,39.66 -78.9,39.42 -78.64,39.42 -78.64,39.33 -78.39,39.33 -78.39,39.23 -78.13,39.23 -78.13,38.78 -77.87,38.78 -77.87,38.8 -77.61,38.8 -77.61,38.45 -77.35,38.45 -77.35,38.34 -77.1,38.34 -77.1,38.04 -76.84,38.04 -76.84,37.67 -76.58,37.67 -76.58,37.47 -76.32,37.47 -76.32,37.26 -76.06,37.26 -76.06,37.12 -75.81,37.12 -75.81,36.79 -75.55,36.79 -75.55,36.51 -75.29,36.51 -75.29,36.27 -75.03,36.27 -75.03,35.96 -74.77,35.96 -74.77,35.79 -74.52,35.79 -74.52,35.63 -74.26,35.63 -74.26,34.98 -74,34.98 -74,34.77 -73.74,34.77 -73.74,34.59 -73.48,34.59 -73.48,34.41 -73.23,34.41 -73.23,34.01 -72.97,34.01 -72.97,33.6 -72.71,33.6 -72.71,33.42 -72.45,33.42 -72.45,33.35 -72.19,33.35 -72.19,32.71 -71.94,32.71 -71.94,32.48 -71.68,32.48 -71.68,32.16 -71.42,32.16 -71.42,31.93 -71.16,31.93 -71.16,31.83 -70.9,31.83 -70.9,31.23 -70.64,31.23 -70.64,30.91 -70.39,30.91 -70.39,30.52 -70.13,30.52 -70.13,30.3 -69.87,30.3 -69.87,29.93 -69.61,29.93 -69.61,29.59 -69.35,29.59 -69.35,29.48 -69.1,29.48 -69.1,28.96 -68.84,28.96 -68.84,28.82 -68.58,28.82 -68.58,28.24 -68.32,28.24 -68.32,28 -68.06,28 -68.06,27.79 -67.81,27.79 -67.81,27.56 -67.55,27.56 -67.55,27.52 -67.29,27.52 -67.29,27.01 -67.03,27.01 -67.03,26.93 -66.77,26.93 -66.77,26.83 -66.52,26.83 -66.52,26.9 -66.26,26.9 -66.26,26.62 -66,26.62 -66,26.45 -65.74,26.45 -65.74,25.92 -65.48,25.92 -65.48,25.81 -65.23,25.81 -65.23,25.28 -64.97,25.28 -64.97,25.28 -64.71,25.28 -64.71,24.83 -64.45,24.83 -64.45,25.07 -64.19,25.07 -64.19,25.07 -63.94,25.07 -63.94,25.58 -63.68,25.58 -63.68,25.47 -63.42,25.47 -63.42,25.86 -63.16,25.86 -63.16,26 -62.9,26 -62.9,26.18 -62.64,26.18 -62.64,26.17 -62.39,26.17 -62.39,26.41 -62.13,26.41 -62.13,26.16 -61.87,26.16 -61.87,26.22 -61.61,26.22 -61.61,26.04 -61.35,26.04 -61.35,26.09 -61.1,26.09 -61.1,25.71 -60.84,25.71 -60.84,25.49 -60.58,25.49 -60.58,25.28 -60.32,25.28 -60.32,24.87 -60.06,24.87 -60.06,24.42 -59.81,24.42 -59.81,23.98 -59.55,23.98 -59.55,23.15 -59.29,23.15 -59.29,22.36 -59.03,22.36 -59.03,21.29 -58.77,21.29 -58.77,20.17 -58.52,20.17 -58.52,19.58 -58.26,19.58 -58.26,19.07 -58,19.07 -58,18.94 -57.74,18.94 -57.74,19.05 -57.48,19.05 -57.48,19.36 -57.23,19.36 -57.23,20.18 -56.97,20.18 -56.97,20.68 -56.71,20.68 -56.71,21.16 -56.45,21.16 -56.45,21.5 -56.19,21.5 -56.19,21.51 -55.94,21.51 -55.94,22.06 -55.68,22.06 -55.68,22.36 -55.42,22.36 -55.42,22.61 -55.16,22.61 -55.16,23.14 -54.9,23.14 -54.9,23.19 -54.64,23.19 -54.64,23.04 -54.39,23.04 -54.39,23.31 -54.13,23.31 -54.13,23.38 -53.87,23.38 -53.87,23.08 -53.61,23.08 -53.61,22.83 -53.35,22.83 -53.35,23.17 -53.1,23.17 -53.1,22.53 -52.84,22.53 -52.84,22.79 -52.58,22.79 -52.58,22.73 -52.32,22.73 -52.32,22.33 -52.06,22.33 -52.06,22.15 -51.81,22.15 -51.81,22.19 -51.55,22.19 -51.55,21.79 -51.29,21.79 -51.29,21.82 -51.03,21.82 -51.03,21.44 -50.77,21.44 -50.77,21.65 -50.52,21.65 -50.52,21.5 -50.26,21.5 -50.26,21.44 -50,21.44 -50,21.46 -49.74,21.46 -49.74,21.32 -49.48,21.32 -49.48,21.44 -49.23,21.44 -49.23,21.16 -48.97,21.16 -48.97,21.24 -48.71,21.24 -48.71,21.29 -48.45,21.29 -48.45,21.25 -48.19,21.25 -48.19,20.97 -47.94,20.97 -47.94,20.7 -47.68,20.7 -47.68,20.9 -47.42,20.9 -47.42,20.91 -47.16,20.91 -47.16,20.68 -46.9,20.68 -46.9,20.54 -46.64,20.54 -46.64,20.89 -46.39,20.89 -46.39,20.69 -46.13,20.69 -46.13,20.63 -45.87,20.63 -45.87,20.73 -45.61,20.73 -45.61,20.51 -45.35,20.51 -45.35,20.82 -45.1,20.82 -45.1,20.37 -44.84,20.37 -44.84,20.31 -44.58,20.31 -44.58,20.53 -44.32,20.53 -44.32,20.56 -44.06,20.56 -44.06,20.12 -43.81,20.12 -43.81,20.29 -43.55,20.29 -43.55,20.52 -43.29,20.52 -43.29,19.94 -43.03,19.94 -43.03,20.26 -42.77,20.26 -42.77,19.97 -42.52,19.97 -42.52,20.63 -42.26,20.63 -42.26,20.19 -42,20.19 -42,20.49 -41.74,20.49 -41.74,20.38 -41.48,20.38 -41.48,20.09 -41.23,20.09 -41.23,20.4 -40.97,20.4 -40.97,20.11 -40.71,20.11 -40.71,20.43 -40.45,20.43 -40.45,20.35 -40.19,20.35 -40.19,20.18 -39.94,20.18 -39.94,20.41 -39.68,20.41 -39.68,20.39 -39.42,20.39 -39.42,20.51 -39.16,20.51 -39.16,20.04 -38.9,20.04 -38.9,20.52 -38.64,20.52 -38.64,20.67 -38.39,20.67 -38.39,20.06 -38.13,20.06 -38.13,20.4 -37.87,20.4 -37.87,20.05 -37.61,20.05 -37.61,20.32 -37.35,20.32 -37.35,20.22 -37.1,20.22 -37.1,20.58 -36.84,20.58 -36.84,20.52 -36.58,20.52 -36.58,20.45 -36.32,20.45 -36.32,20.28 -36.06,20.28 -36.06,20.61 -35.81,20.61 -35.81,20.36 -35.55,20.36 -35.55,20.57 -35.29,20.57 -35.29,20.43 -35.03,20.43 -35.03,20.33 -34.77,20.33 -34.77,20.54 -34.52,20.54 -34.52,20.56 -34.26,20.56 -34.26,20.51 -34,20.51 -34,20.91 -33.74,20.91 -33.74,20.85 -33.48,20.85 -33.48,20.66 -33.23,20.66 -33.23,20.49 -32.97,20.49 -32.97,20.81 -32.71,20.81 -32.71,20.67 -32.45,20.67 -32.45,20.82 -32.19,20.82 -32.19,20.86 -31.94,20.86 -31.94,20.99 -31.68,20.99 -31.68,20.88 -31.42,20.88 -31.42,21.07 -31.16,21.07 -31.16,21.15 -30.9,21.15 -30.9,20.97 -30.65,20.97 -30.65,21.24 -30.39,21.24 -30.39,21.07 -30.13,21.07 -30.13,21.54 -29.87,21.54 -29.87,21.03 -29.61,21.03 -29.61,21.3 -29.35,21.3 -29.35,21.29 -29.1,21.29 -29.1,21.27 -28.84,21.27 -28.84,21.51 -28.58,21.51 -28.58,21.29 -28.32,21.29 -28.32,21.25 -28.06,21.25 -28.06,21.54 -27.81,21.54 -27.81,21.71 -27.55,21.71 -27.55,21.59 -27.29,21.59 -27.29,21.65 -27.03,21.65 -27.03,21.49 -26.77,21.49 -26.77,21.86 -26.52,21.86 -26.52,22.06 -26.26,22.06 -26.26,21.89 -26,21.89 -26,21.9 -25.74,21.9 -25.74,21.85 -25.48,21.85 -25.48,21.93 -25.23,21.93 -25.23,22.05 -24.97,22.05 -24.97,22.01 -24.71,22.01 -24.71,22.11 -24.45,22.11 -24.45,22.4 -24.19,22.4 -24.19,22.26 -23.94,22.26 -23.94,22.37 -23.68,22.37 -23.68,22.28 -23.42,22.28 -23.42,22.53 -23.16,22.53 -23.16,22.51 -22.9,22.51 -22.9,22.54 -22.65,22.54 -22.65,22.59 -22.39,22.59 -22.39,22.63 -22.13,22.63 -22.13,22.63 -21.87,22.63 -21.87,22.62 -21.61,22.62 -21.61,22.67 -21.35,22.67 -21.35,23 -21.1,23 -21.1,22.96 -20.84,22.96 -20.84,22.86 -20.58,22.86 -20.58,23.14 -20.32,23.14 -20.32,23.17 -20.06,23.17 -20.06,22.84 -19.81,22.84 -19.81,23.21 -19.55,23.21 -19.55,23.39 -19.29,23.39 -19.29,23.38 -19.03,23.38 -19.03,23.29 -18.77,23.29 -18.77,23.32 -18.52,23.32 -18.52,23.41 -18.26,23.41 -18.26,23.33 -18,23.33 -18,23.36 -17.74,23.36 -17.74,23.52 -17.48,23.52 -17.48,23.49 -17.23,23.49 -17.23,23.67 -16.97,23.67 -16.97,23.81 -16.71,23.81 -16.71,24.26 -16.45,24.26 -16.45,23.97 -16.19,23.97 -16.19,24 -15.94,24 -15.94,23.93 -15.68,23.93 -15.68,24.24 -15.42,24.24 -15.42,24.08 -15.16,24.08 -15.16,24.11 -14.9,24.11 -14.9,24.48 -14.65,24.48 -14.65,24.31 -14.39,24.31 -14.39,24.47 -14.13,24.47 -14.13,24.4 -13.87,24.4 -13.87,24.57 -13.61,24.57 -13.61,24.71 -13.35,24.71 -13.35,24.42 -13.1,24.42 -13.1,24.83 -12.84,24.83 -12.84,25.1 -12.58,25.1 -12.58,24.94 -12.32,24.94 -12.32,25.01 -12.06,25.01 -12.06,25.34 -11.81,25.34 -11.81,25.09 -11.55,25.09 -11.55,25.06 -11.29,25.06 -11.29,25.1 -11.03,25.1 -11.03,25.19 -10.77,25.19 -10.77,25.08 -10.52,25.08 -10.52,25.09 -10.26,25.09 -10.26,25.3 -10,25.3 -10,25.55 -9.74,25.55 -9.74,25.3 -9.48,25.3 -9.48,25.38 -9.23,25.38 -9.23,25.65 -8.97,25.65 -8.97,25.75 -8.71,25.75 -8.71,25.39 -8.45,25.39 -8.45,25.84 -8.19,25.84 -8.19,25.83 -7.94,25.83 -7.94,25.9 -7.68,25.9 -7.68,25.59 -7.42,25.59 -7.42,25.96 -7.16,25.96 -7.16,26.06 -6.9,26.06 -6.9,26.02 -6.65,26.02 -6.65,26.33 -6.39,26.33 -6.39,26.09 -6.13,26.09 -6.13,26.27 -5.87,26.27 -5.87,26.4 -5.61,26.4 -5.61,26.48 -5.35,26.48 -5.35,26.57 -5.1,26.57 -5.1,26.61 -4.84,26.61 -4.84,26.81 -4.58,26.81 -4.58,26.71 -4.32,26.71 -4.32,26.93 -4.06,26.93 -4.06,26.74 -3.81,26.74 -3.81,26.8 -3.55,26.8 -3.55,27.08 -3.29,27.08 -3.29,26.82 -3.03,26.82 -3.03,27.2 -2.77,27.2 -2.77,27.13 -2.52,27.13 -2.52,27.12 -2.26,27.12 -2.26,27.27 -2,27.27 -2,27.03 -1.74,27.03 -1.74,27.25 -1.48,27.25 -1.48,27.8 -1.23,27.8 -1.23,27.68 -0.97,27.68 -0.97,27.66 -0.71,27.66 -0.71,27.35 -0.45,27.35 -0.45,27.7 -0.19,27.7 -0.19,27.77 0.06,27.77 0.06,27.86 0.32,27.86 0.32,27.83 0.58,27.83 0.58,28.05 0.84,28.05 0.84,27.72 1.1,27.72 1.1,28.06 1.35,28.06 1.35,28.03 1.61,28.03 1.61,27.99 1.87,27.99 1.87,27.87 2.13,27.87 2.13,28.32 2.39,28.32 2.39,28.3 2.65,28.3 2.65,28.3 2.9,28.3 2.9,28.5 3.16,28.5 3.16,28.72 3.42,28.72 3.42,28.55 3.68,28.55 3.68,28.56 3.94,28.56 3.94,28.76 4.19,28.76 4.19,28.65 4.45,28.65 4.45,29.12 4.71,29.12 4.71,28.84 4.97,28.84 4.97,28.8 5.23,28.8 5.23,28.85 5.48,28.85 5.48,28.81 5.74,28.81 5.74,28.92 6,28.92 6,29.02 6.26,29.02 6.26,29.13 6.52,29.13 6.52,29.17 6.77,29.17 6.77,29.19 7.03,29.19 7.03,29.11 7.29,29.11 7.29,29.32 7.55,29.32 7.55,29.25 7.81,29.25 7.81,29.46 8.06,29.46 8.06,29.51 8.32,29.51 8.32,29.15 8.58,29.15 8.58,29.7 8.84,29.7 8.84,29.57 9.1,29.57 9.1,29.67 9.35,29.67 9.35,29.81 9.61,29.81 9.61,29.61 9.87,29.61 9.87,29.66 10.13,29.66 10.13,29.79 10.39,29.79 10.39,29.77 10.65,29.77 10.65,29.82 10.9,29.82 10.9,30.2 11.16,30.2 11.16,30 11.42,30 11.42,30.34 11.68,30.34 11.68,30.09 11.94,30.09 11.94,30.09 12.19,30.09 12.19,30.27 12.45,30.27 12.45,30.19 12.71,30.19 12.71,30.33 12.97,30.33 12.97,30.42 13.23,30.42 13.23,30.31 13.48,30.31 13.48,30.02 13.74,30.02 13.74,30.23 14,30.23 14,30.19 14.26,30.19 14.26,30.12 14.52,30.12 14.52,29.55 14.77,29.55 14.77,29.47 15.03,29.47 15.03,28.88 15.29,28.88 15.29,28.84 15.55,28.84 15.55,28.63 15.81,28.63 15.81,28.2 16.06,28.2 16.06,27.61 16.32,27.61 16.32,27.34 16.58,27.34 16.58,26.98 16.84,26.98 16.84,26.95 17.1,26.95 17.1,27.01 17.35,27.01 17.35,27.14 17.61,27.14 17.61,27.71 17.87,27.71 17.87,27.81 18.13,27.81 18.13,28.57 18.39,28.57 18.39,29.29 18.65,29.29 18.65,29.85 18.9,29.85 18.9,30.13 19.16,30.13 19.16,30.45 19.42,30.45 19.42,30.53 19.68,30.53 19.68,31.29 19.94,31.29 19.94,31.44 20.19,31.44 20.19,31.56 20.45,31.56 20.45,31.71 20.71,31.71 20.71,31.88 20.97,31.88 20.97,31.77 21.23,31.77 21.23,31.86 21.48,31.86 21.48,31.9 21.74,31.9 21.74,32 22,32 22,32.24 22.26,32.24 22.26,32.29 22.52,32.29 22.52,32.15 22.77,32.15 22.77,32.34 23.03,32.34 23.03,32.09 23.29,32.09 23.29,32.44 23.55,32.44 23.55,32.52 23.81,32.52 23.81,32.4 24.06,32.4 24.06,32.59 24.32,32.59 24.32,32.5 24.58,32.5 24.58,32.91 24.84,32.91 24.84,32.48 25.1,32.48 25.1,32.38 25.35,32.38 25.35,32.59 25.61,32.59 25.61,32.98 25.87,32.98 25.87,32.8 26.13,32.8 26.13,32.59 26.39,32.59 26.39,33.02 26.65,33.02 26.65,33.13 26.9,33.13 26.9,32.99 27.16,32.99 27.16,32.96 27.42,32.96 27.42,33.08 27.68,33.08 27.68,33.23 27.94,33.23 27.94,32.93 28.19,32.93 28.19,33.31 28.45,33.31 28.45,33.1 28.71,33.1 28.71,33.23 28.97,33.23 28.97,33.13 29.23,33.13 29.23,33.15 29.48,33.15 29.48,33.34 29.74,33.34 29.74,33.25 30,33.25 30,33.31 30.26,33.31 30.26,33.28 30.52,33.28 30.52,33.29 30.77,33.29 30.77,33.45 31.03,33.45 31.03,33.5 31.29,33.5 31.29,33.7 31.55,33.7 31.55,33.61 31.81,33.61 31.81,33.69 32.06,33.69 32.06,33.5 32.32,33.5 32.32,33.44 32.58,33.44 32.58,33.48 32.84,33.48 32.84,33.16 33.1,33.16 33.1,33.37 33.35,33.37 33.35,33.43 33.61,33.43 33.61,33.59 33.87,33.59 33.87,33.35 34.13,33.35 34.13,33.53 34.39,33.53 34.39,33.45 34.65,33.45 34.65,33.52 34.9,33.52 34.9,33.52 35.16,33.52 35.16,33.61 35.42,33.61 35.42,33.95 35.68,33.95 35.68,33.53 35.94,33.53 35.94,33.81 36.19,33.81 36.19,33.51 36.45,33.51 36.45,33.81 36.71,33.81 36.71,33.99 36.97,33.99 36.97,33.83 37.23,33.83 37.23,33.94 37.48,33.94 37.48,34.01 37.74,34.01 37.74,34.21 38,34.21 38,34.17 38.26,34.17 38.26,34.37 38.52,34.37 38.52,34.3 38.77,34.3 38.77,34.36 39.03,34.36 39.03,34.68 39.29,34.68 39.29,34.59 39.55,34.59 39.55,34.63 39.81,34.63 39.81,34.6 40.06,34.6 40.06,34.64 40.32,34.64 40.32,34.88 40.58,34.88 40.58,34.74 40.84,34.74 40.84,34.91 41.1,34.91 41.1,34.85 41.35,34.85 41.35,34.95 41.61,34.95 41.61,34.96 41.87,34.96 41.87,35.13 42.13,35.13 42.13,35.09 42.39,35.09 42.39,35.19 42.65,35.19 42.65,35.17 42.9,35.17 42.9,35.31 43.16,35.31 43.16,35.47 43.42,35.47 43.42,35.32 43.68,35.32 43.68,35.6 43.94,35.6 43.94,35.53 44.19,35.53 44.19,35.53 44.45,35.53 44.45,35.57 44.71,35.57 44.71,35.61 44.97,35.61 44.97,35.61 45.23,35.61 45.23,35.79 45.48,35.79 45.48,35.94 45.74,35.94 45.74,35.81 46,35.81 46,35.73 46.26,35.73 46.26,35.75 46.52,35.75 46.52,35.82 46.77,35.82 46.77,35.65 47.03,35.65 47.03,35.82 47.29,35.82 47.29,35.81 47.55,35.81 47.55,35.97 47.81,35.97 47.81,35.9 48.06,35.9 48.06,36 48.32,36 48.32,35.81 48.58,35.81 48.58,35.93 48.84,35.93 48.84,35.85 49.1,35.85 49.1,35.84 49.35,35.84 49.35,35.83 49.61,35.83 49.61,35.81 49.87,35.81 49.87,36.05 50.13,36.05 50.13,35.9 50.39,35.9 50.39,35.71 50.65,35.71 50.65,35.89 50.9,35.89 50.9,35.89 51.16,35.89 51.16,35.87 51.42,35.87 51.42,35.94 51.68,35.94 51.68,35.86 51.94,35.86 51.94,35.89 52.19,35.89 52.19,35.78 52.45,35.78 52.45,35.78 52.71,35.78 52.71,35.68 52.97,35.68 52.97,35.64 53.23,35.64 53.23,35.62 53.48,35.62 53.48,35.45 53.74,35.45 53.74,35.35 54,35.35 54,35.28 54.26,35.28 54.26,35 54.52,35 54.52,35.06 54.77,35.06 54.77,34.65 55.03,34.65 55.03,34.56 55.29,34.56 55.29,34.24 55.55,34.24 55.55,33.99 55.81,33.99 55.81,33.61 56.06,33.61 56.06,33.09 56.32,33.09 56.32,32.34 56.58,32.34 56.58,31.39 56.84,31.39 56.84,29.71 57.1,29.71 57.1,27.39 57.35,27.39 57.35,23.61 57.61,23.61 57.61,17.26 57.87,17.26 57.87,8.02 58.13,8.02 58.13,-6.3 58.39,-6.3 58.39,-26.36 58.64,-26.36 58.64,-55.28 58.9,-55.28 58.9,-94.37 59.16,-94.37 59.16,-147.83 59.42,-147.83 59.42,-214.1 59.68,-214.1 59.68,-295.73 59.94,-295.73 59.94,-392.75 60.19,-392.75 60.19,-500.63 60.45,-500.63 60.45,-617.22 60.71,-617.22 60.71,-735.23 60.97,-735.23 60.97,-847.68 61.23,-847.68 61.23,-948.21 61.48,-948.21 61.48,-1025.92 61.74,-1025.92 61.74,-1074.91 62,-1074.91 62,-1091.87 62.26,-1091.87 62.26,-1074.51 62.52,-1074.51 62.52,-1026.11 62.77,-1026.11 62.77,-948.17 63.03,-948.17 63.03,-850.07 63.29,-850.07 63.29,-739.26 63.55,-739.26 63.55,-620.41 63.81,-620.41 63.81,-504.4 64.06,-504.4 64.06,-395.58 64.32,-395.58 64.32,-299.15 64.58,-299.15 64.58,-215.96 64.84,-215.96 64.84,-149.5 65.1,-149.5 65.1,-95.89 65.35,-95.89 65.35,-54.9 65.61,-54.9 65.61,-25.2 65.87,-25.2 65.87,-4.18 66.13,-4.18 66.13,10.55 66.39,10.55 66.39,20.21 66.64,20.21 66.64,26.85 66.9,26.85 66.9,30.99 67.16,30.99 67.16,33.65 67.42,33.65 67.42,35.39 67.68,35.39 67.68,36.15 67.94,36.15 67.94,36.78 68.19,36.78 68.19,37.1 68.45,37.1 68.45,37.43 68.71,37.43 68.71,37.72 68.97,37.72 68.97,37.86 69.23,37.86 69.23,37.85 69.48,37.85 69.48,38.03 69.74,38.03 69.74,37.94 70,37.94 70,37.99 70.26,37.99 70.26,38.16 70.52,38.16 70.52,38.21 70.77,38.21 70.77,37.8 71.03,37.8 71.03,37.92 71.29,37.92 71.29,37.98 71.55,37.98 71.55,38.03 71.81,38.03 71.81,37.8 72.06,37.8 72.06,37.92 72.32,37.92 72.32,37.59 72.58,37.59 72.58,37.5 72.84,37.5 72.84,37.01 73.1,37.01 73.1,37.16 73.35,37.16 73.35,36.57 73.61,36.57 73.61,36.23 73.87,36.23 73.87,35.72 74.13,35.72 74.13,34.9 74.39,34.9 74.39,33.85 74.64,33.85 74.64,32.32 74.9,32.32 74.9,30.21 75.16,30.21 75.16,27.56 75.42,27.56 75.42,23.83 75.68,23.83 75.68,18.88 75.94,18.88 75.94,12.54 76.19,12.54 76.19,4.7 76.45,4.7 76.45,-5.24 76.71,-5.24 76.71,-16.61 76.97,-16.61 76.97,-28.79 77.23,-28.79 77.23,-42.56 77.48,-42.56 77.48,-56.81 77.74,-56.81 77.74,-69.97 78,-69.97 78,-81.73 78.26,-81.73 78.26,-92.36 78.52,-92.36 78.52,-99.52 78.77,-99.52 78.77,-103.2 79.03,-103.2 79.03,-102.54 79.29,-102.54 79.29,-100.04 79.55,-100.04 79.55,-91.88 79.81,-91.88 79.81,-81.69 80.06,-81.69 80.06,-69.37 80.32,-69.37 80.32,-55.62 80.58,-55.62 80.58,-41.92 80.84,-41.92 80.84,-27.61 81.1,-27.61 81.1,-14.54 81.35,-14.54 81.35,-2.87 81.61,-2.87 81.61,7.57 81.87,7.57 81.87,15.86 82.13,15.86 82.13,22.92 82.39,22.92 82.39,28.54 82.64,28.54 82.64,32.63 82.9,32.63 82.9,35.88 83.16,35.88 83.16,38.16 83.42,38.16 83.42,39.6 83.68,39.6 83.68,40.71 83.94,40.71 83.94,41.67 84.19,41.67 84.19,42.19 84.45,42.19 84.45,42.32 84.71,42.32 84.71,42.58 84.97,42.58 84.97,42.92 85.23,42.92 85.23,42.78 85.48,42.78 85.48,43 85.74,43 85.74,42.9 86,42.9 86,43.04 86.26,43.04 86.26,42.93 86.52,42.93 86.52,43.18 86.77,43.18 86.77,43 87.03,43 87.03,43.11 87.29,43.11 87.29,42.86 87.55,42.86 87.55,43.12 87.81,43.12 87.81,42.99 88.06,42.99 88.06,42.99 88.32,42.99 88.32,43.06 88.58,43.06 88.58,43.03 88.84,43.03 88.84,42.98 89.1,42.98 89.1,42.92 89.35,42.92 89.35,42.97 89.61,42.97 89.61,42.94 89.87,42.94 89.87,42.96 90.13,42.96 90.13,42.95 90.39,42.95 90.39,43.02 90.64,43.02 90.64,43.03 90.9,43.03 90.9,43.06 91.16,43.06 91.16,43.22 91.42,43.22 91.42,43.12 91.68,43.12 91.68,43.13 91.94,43.13 91.94,43.1 92.19,43.1 92.19,43.14 92.45,43.14 92.45,43.18 92.71,43.18 92.71,43.41 92.97,43.41 92.97,43.33 93.23,43.33 93.23,43.18 93.48,43.18 93.48,43.24 93.74,43.24 93.74,43.15 94,43.15 94,43.18 94.26,43.18 94.26,43.21 94.52,43.21 94.52,43.05 94.77,43.05 94.77,43.07 95.03,43.07 95.03,43.14 95.29,43.14 95.29,43.15 95.55,43.15 95.55,43.22 95.81,43.22 95.81,43.22 96.06,43.22 96.06,43.17 96.32,43.17 96.32,43.08 96.58,43.08 96.58,43.2 96.84,43.2 96.84,43.12 97.1,43.12 97.1,43.24 97.35,43.24 97.35,43.05 97.61,43.05 97.61,43.24 97.87,43.24 97.87,43.19 98.13,43.19 98.13,43.23 98.39,43.23 98.39,43.09 98.64,43.09 98.64,43.32 98.9,43.32 98.9,43.41 99.16,43.41 99.16,43.39 99.42,43.39 99.42,43.53 99.68,43.53 99.68,43.5 99.94,43.5 99.94,43.59 100.19,43.59 100.19,43.51 100.45,43.51 100.45,43.65 100.71,43.65 100.71,43.56 100.97,43.56 100.97,43.57 101.23,43.57 101.23,43.63 101.48,43.63 101.48,43.59 101.74,43.59 101.74,43.71 102,43.71 102,43.64 102.26,43.64 102.26,43.64 102.52,43.64 102.52,43.71 102.77,43.71 102.77,43.79 103.03,43.79 103.03,43.67 " class="primitive"/>
            </g>
          </g>
        </g>
      </g>
    </g>
  </g>
  <g class="guide ylabels" font-size="2.82" font-family="'PT Sans Caption','Helvetica Neue','Helvetica',sans-serif" fill="#6C606B" id="img-dff2a808-37">
    <g transform="translate(17.03,59.87)" id="img-dff2a808-38">
      <g class="primitive">
        <text text-anchor="end" dy="0.35em">0</text>
      </g>
    </g>
    <g transform="translate(17.03,43.65)" id="img-dff2a808-39">
      <g class="primitive">
        <text text-anchor="end" dy="0.35em">20000</text>
      </g>
    </g>
    <g transform="translate(17.03,27.43)" id="img-dff2a808-40">
      <g class="primitive">
        <text text-anchor="end" dy="0.35em">40000</text>
      </g>
    </g>
    <g transform="translate(17.03,11.21)" id="img-dff2a808-41">
      <g class="primitive">
        <text text-anchor="end" dy="0.35em">60000</text>
      </g>
    </g>
  </g>
  <g font-size="3.18" font-family="'PT Sans','Helvetica Neue','Helvetica',sans-serif" fill="#202020" stroke="#000000" stroke-opacity="0.000" id="img-dff2a808-42">
    <g transform="translate(4.18,29.29)" id="img-dff2a808-43">
      <g class="primitive">
        <text text-anchor="middle" dy="0.35em" transform="rotate(-90,0, 2)">Counts</text>
      </g>
    </g>
  </g>
</g>
<defs>
  <clipPath id="img-dff2a808-15">
    <path d="M18.03,0.71 L228.51,0.71 228.51,61.87 18.03,61.87 " />
  </clipPath>
</defs>
</svg>
