<?xml version="1.0" encoding="UTF-8"?>
<svg xmlns="http://www.w3.org/2000/svg"
     xmlns:xlink="http://www.w3.org/1999/xlink"
     xmlns:gadfly="http://www.gadflyjl.org/ns"
     version="1.2"
     width="254mm" height="76.2mm" viewBox="0 0 254 76.2"
     stroke="none"
     fill="#000000"
     stroke-width="0.3"
     font-size="3.88"
>
<defs>
  <marker id="arrow" markerWidth="15" markerHeight="7" refX="5" refY="3.5" orient="auto" markerUnits="strokeWidth">
    <path d="M0,0 L15,3.5 L0,7 z" stroke="context-stroke" fill="context-stroke"/>
  </marker>
</defs>
<g class="plotroot xscalable yscalable" id="img-b48157a6-1">
  <g font-size="3.18" font-family="'PT Sans','Helvetica Neue','Helvetica',sans-serif" fill="#202020" stroke="#000000" stroke-opacity="0.000" id="img-b48157a6-2">
    <g transform="translate(121.71,69.54)">
      <g class="primitive">
        <text text-anchor="middle" dy="0.6em">Energy (eV)</text>
      </g>
    </g>
  </g>
  <g class="guide xlabels" font-size="2.82" font-family="'PT Sans Caption','Helvetica Neue','Helvetica',sans-serif" fill="#6C606B" id="img-b48157a6-3">
    <g transform="translate(20.03,62.87)">
      <g class="primitive">
        <text text-anchor="middle" dy="0.6em">0</text>
      </g>
    </g>
    <g transform="translate(70.87,62.87)">
      <g class="primitive">
        <text text-anchor="middle" dy="0.6em">2000</text>
      </g>
    </g>
    <g transform="translate(121.71,62.87)">
      <g class="primitive">
        <text text-anchor="middle" dy="0.6em">4000</text>
      </g>
    </g>
    <g transform="translate(172.55,62.87)">
      <g class="primitive">
        <text text-anchor="middle" dy="0.6em">6000</text>
      </g>
    </g>
    <g transform="translate(223.39,62.87)">
      <g class="primitive">
        <text text-anchor="middle" dy="0.6em">8000</text>
      </g>
    </g>
  </g>
  <g class="guide colorkey" id="img-b48157a6-4">
    <g fill="#4C404B" font-size="2.82" font-family="'PT Sans','Helvetica Neue','Helvetica',sans-serif" id="img-b48157a6-5">
      <g transform="translate(230.01,31.7)" id="img-b48157a6-6">
        <g class="primitive">
          <text dy="0.35em">CaF2 std</text>
        </g>
      </g>
      <g transform="translate(230.01,35.33)" id="img-b48157a6-7">
        <g class="primitive">
          <text dy="0.35em">CharOnly[CaF2 std]</text>
        </g>
      </g>
    </g>
    <g stroke-width="0.3" id="img-b48157a6-8">
      <g stroke="#FFFFFF" fill-opacity="1" fill="#B70002" id="img-b48157a6-9">
        <g transform="translate(227.2,35.33)" id="img-b48157a6-10">
          <circle cx="0" cy="0" r="0.9" class="primitive"/>
        </g>
      </g>
      <g stroke="#FFFFFF" fill-opacity="1" fill="#104E8B" id="img-b48157a6-11">
        <g transform="translate(227.2,31.7)" id="img-b48157a6-12">
          <circle cx="0" cy="0" r="0.9" class="primitive"/>
        </g>
      </g>
    </g>
    <g fill="#362A35" font-size="3.18" font-family="'PT Sans','Helvetica Neue','Helvetica',sans-serif" stroke="#000000" stroke-opacity="0.000" id="img-b48157a6-13">
      <g transform="translate(226.39,28.39)" id="img-b48157a6-14">
        <g class="primitive">
          <text dy="-0em">Spectra</text>
        </g>
      </g>
    </g>
  </g>
  <g clip-path="url(#img-b48157a6-15)">
    <g id="img-b48157a6-16">
      <g pointer-events="visible" stroke-width="0.3" fill="#FDFDF1" stroke="#202020" class="guide background" id="img-b48157a6-17">
        <g transform="translate(121.71,31.29)" id="img-b48157a6-18">
          <path d="M-103.68,-30.58 L103.68,-30.58 103.68,30.58 -103.68,30.58  z" class="primitive"/>
        </g>
      </g>
      <g class="guide ygridlines xfixed" stroke-dasharray="none" stroke-width="0.2" stroke="#FFDFDF" id="img-b48157a6-19">
        <g transform="translate(121.71,59.87)" id="img-b48157a6-20">
          <path fill="none" d="M-103.68,0 L103.68,0 " class="primitive"/>
        </g>
        <g transform="translate(121.71,30.01)" id="img-b48157a6-21">
          <path fill="none" d="M-103.68,0 L103.68,0 " class="primitive"/>
        </g>
      </g>
      <g class="guide xgridlines yfixed" stroke-dasharray="none" stroke-width="0.2" stroke="#FFDFDF" id="img-b48157a6-22">
        <g transform="translate(20.03,31.29)" id="img-b48157a6-23">
          <path fill="none" d="M0,-30.58 L0,30.58 " class="primitive"/>
        </g>
        <g transform="translate(70.87,31.29)" id="img-b48157a6-24">
          <path fill="none" d="M0,-30.58 L0,30.58 " class="primitive"/>
        </g>
        <g transform="translate(121.71,31.29)" id="img-b48157a6-25">
          <path fill="none" d="M0,-30.58 L0,30.58 " class="primitive"/>
        </g>
        <g transform="translate(172.55,31.29)" id="img-b48157a6-26">
          <path fill="none" d="M0,-30.58 L0,30.58 " class="primitive"/>
        </g>
        <g transform="translate(223.39,31.29)" id="img-b48157a6-27">
          <path fill="none" d="M0,-30.58 L0,30.58 " class="primitive"/>
        </g>
      </g>
      <g class="plotpanel" id="img-b48157a6-28">
        <metadata>
          <boundingbox value="18.027222222222242mm 0.7055555555555555mm 207.36055555555555mm 61.16055555555556mm"/>
          <unitbox value="-78.67799119789974 99068.12770072602 8157.355982395799 -102417.25540145206"/>
        </metadata>
        <g stroke-width="0.3" fill="#000000" fill-opacity="0.000" class="geometry" id="img-b48157a6-29">
          <g class="color_RGB{N0f8}(0.718,0.0,0.008)" stroke-dasharray="none" stroke="#B70002" id="img-b48157a6-30">
            <g transform="translate(121.67,37.93)" id="img-b48157a6-31">
              <path fill="none" d="M-101.6,21.93 L-101.35,21.93 -101.35,21.93 -101.09,21.93 -101.09,21.93 -100.84,21.93 -100.84,21.93 -100.59,21.93 -100.59,21.93 -100.33,21.93 -100.33,21.93 -100.08,21.93 -100.08,21.93 -99.82,21.93 -99.82,21.93 -99.57,21.93 -99.57,21.93 -99.31,21.93 -99.31,21.93 -99.06,21.93 -99.06,21.93 -98.81,21.93 -98.81,21.93 -98.55,21.93 -98.55,21.93 -98.3,21.93 -98.3,21.94 -98.04,21.94 -98.04,21.98 -97.79,21.98 -97.79,22.11 -97.54,22.11 -97.54,22.43 -97.28,22.43 -97.28,23.09 -97.03,23.09 -97.03,24.24 -96.77,24.24 -96.77,25.96 -96.52,25.96 -96.52,28.1 -96.26,28.1 -96.26,29.97 -96.01,29.97 -96.01,30.61 -95.76,30.61 -95.76,29.33 -95.5,29.33 -95.5,25.07 -95.25,25.07 -95.25,19.05 -94.99,19.05 -94.99,12.58 -94.74,12.58 -94.74,8.4 -94.49,8.4 -94.49,7.36 -94.23,7.36 -94.23,9.73 -93.98,9.73 -93.98,12.93 -93.72,12.93 -93.72,15.75 -93.47,15.75 -93.47,17.11 -93.21,17.11 -93.21,17.5 -92.96,17.5 -92.96,17.41 -92.71,17.41 -92.71,16.61 -92.45,16.61 -92.45,16.15 -92.2,16.15 -92.2,15.61 -91.94,15.61 -91.94,15.23 -91.69,15.23 -91.69,15.28 -91.44,15.28 -91.44,15.77 -91.18,15.77 -91.18,16.36 -90.93,16.36 -90.93,16.92 -90.67,16.92 -90.67,17.26 -90.42,17.26 -90.42,17.44 -90.16,17.44 -90.16,17.55 -89.91,17.55 -89.91,17.49 -89.66,17.49 -89.66,17.44 -89.4,17.44 -89.4,17.33 -89.15,17.33 -89.15,17.2 -88.89,17.2 -88.89,17.33 -88.64,17.33 -88.64,17.78 -88.39,17.78 -88.39,18.69 -88.13,18.69 -88.13,19.73 -87.88,19.73 -87.88,20.95 -87.62,20.95 -87.62,21.84 -87.37,21.84 -87.37,21.95 -87.11,21.95 -87.11,21.41 -86.86,21.41 -86.86,19.2 -86.61,19.2 -86.61,14.64 -86.35,14.64 -86.35,4.88 -86.1,4.88 -86.1,-13.81 -85.84,-13.81 -85.84,-46.73 -85.59,-46.73 -85.59,-98.82 -85.34,-98.82 -85.34,-169.79 -85.08,-169.79 -85.08,-248.86 -84.83,-248.86 -84.83,-318.18 -84.57,-318.18 -84.57,-354.24 -84.32,-354.24 -84.32,-344.48 -84.06,-344.48 -84.06,-290.85 -83.81,-290.85 -83.81,-212.05 -83.56,-212.05 -83.56,-132.29 -83.3,-132.29 -83.3,-68.09 -83.05,-68.09 -83.05,-23.75 -82.79,-23.75 -82.79,1.43 -82.54,1.43 -82.54,14.53 -82.29,14.53 -82.29,20.54 -82.03,20.54 -82.03,23.25 -81.78,23.25 -81.78,24.25 -81.52,24.25 -81.52,24.72 -81.27,24.72 -81.27,25.03 -81.01,25.03 -81.01,24.99 -80.76,24.99 -80.76,25.1 -80.51,25.1 -80.51,24.81 -80.25,24.81 -80.25,24.58 -80,24.58 -80,24.18 -79.74,24.18 -79.74,23.72 -79.49,23.72 -79.49,23.28 -79.24,23.28 -79.24,23.02 -78.98,23.02 -78.98,22.64 -78.73,22.64 -78.73,22.2 -78.47,22.2 -78.47,22.14 -78.22,22.14 -78.22,22.05 -77.96,22.05 -77.96,21.91 -77.71,21.91 -77.71,22.25 -77.46,22.25 -77.46,22.07 -77.2,22.07 -77.2,22.16 -76.95,22.16 -76.95,22.28 -76.69,22.28 -76.69,22.29 -76.44,22.29 -76.44,22.21 -76.19,22.21 -76.19,22.43 -75.93,22.43 -75.93,22.44 -75.68,22.44 -75.68,22.31 -75.42,22.31 -75.42,22.38 -75.17,22.38 -75.17,22.39 -74.91,22.39 -74.91,22.49 -74.66,22.49 -74.66,22.39 -74.41,22.39 -74.41,22.4 -74.15,22.4 -74.15,22.57 -73.9,22.57 -73.9,22.59 -73.64,22.59 -73.64,22.51 -73.39,22.51 -73.39,22.49 -73.14,22.49 -73.14,22.48 -72.88,22.48 -72.88,22.42 -72.63,22.42 -72.63,22.34 -72.37,22.34 -72.37,22.33 -72.12,22.33 -72.12,22.43 -71.86,22.43 -71.86,22.18 -71.61,22.18 -71.61,22.42 -71.36,22.42 -71.36,22.3 -71.1,22.3 -71.1,22.26 -70.85,22.26 -70.85,22.24 -70.59,22.24 -70.59,22.28 -70.34,22.28 -70.34,21.97 -70.09,21.97 -70.09,22.1 -69.83,22.1 -69.83,21.86 -69.58,21.86 -69.58,22.04 -69.32,22.04 -69.32,21.91 -69.07,21.91 -69.07,21.89 -68.81,21.89 -68.81,22.12 -68.56,22.12 -68.56,21.97 -68.31,21.97 -68.31,22.04 -68.05,22.04 -68.05,21.94 -67.8,21.94 -67.8,21.85 -67.54,21.85 -67.54,21.82 -67.29,21.82 -67.29,21.77 -67.04,21.77 -67.04,21.97 -66.78,21.97 -66.78,22.01 -66.53,22.01 -66.53,22.28 -66.27,22.28 -66.27,22.24 -66.02,22.24 -66.02,22.37 -65.76,22.37 -65.76,22.27 -65.51,22.27 -65.51,22.37 -65.26,22.37 -65.26,22.2 -65,22.2 -65,22.09 -64.75,22.09 -64.75,22.11 -64.49,22.11 -64.49,21.94 -64.24,21.94 -64.24,21.72 -63.99,21.72 -63.99,21.96 -63.73,21.96 -63.73,21.97 -63.48,21.97 -63.48,21.93 -63.22,21.93 -63.22,21.93 -62.97,21.93 -62.97,21.93 -62.71,21.93 -62.71,21.93 -62.46,21.93 -62.46,21.93 -62.21,21.93 -62.21,21.93 -61.95,21.93 -61.95,21.93 -61.7,21.93 -61.7,21.93 -61.44,21.93 -61.44,21.93 -61.19,21.93 -61.19,21.93 -60.94,21.93 -60.94,21.93 -60.68,21.93 -60.68,21.93 -60.43,21.93 -60.43,21.93 -60.17,21.93 -60.17,21.93 -59.92,21.93 -59.92,21.93 -59.66,21.93 -59.66,21.93 -59.41,21.93 -59.41,21.93 -59.16,21.93 -59.16,21.93 -58.9,21.93 -58.9,21.93 -58.65,21.93 -58.65,21.93 -58.39,21.93 -58.39,21.93 -58.14,21.93 -58.14,21.93 -57.89,21.93 -57.89,21.93 -57.63,21.93 -57.63,21.93 -57.38,21.93 -57.38,21.93 -57.12,21.93 -57.12,21.93 -56.87,21.93 -56.87,21.93 -56.62,21.93 -56.62,21.93 -56.36,21.93 -56.36,21.93 -56.11,21.93 -56.11,21.93 -55.85,21.93 -55.85,21.93 -55.6,21.93 -55.6,21.93 -55.34,21.93 -55.34,21.93 -55.09,21.93 -55.09,21.93 -54.84,21.93 -54.84,21.93 -54.58,21.93 -54.58,21.93 -54.33,21.93 -54.33,21.93 -54.07,21.93 -54.07,21.93 -53.82,21.93 -53.82,21.93 -53.57,21.93 -53.57,21.93 -53.31,21.93 -53.31,21.93 -53.06,21.93 -53.06,21.93 -52.8,21.93 -52.8,21.93 -52.55,21.93 -52.55,21.93 -52.29,21.93 -52.29,21.93 -52.04,21.93 -52.04,21.93 -51.79,21.93 -51.79,21.93 -51.53,21.93 -51.53,21.93 -51.28,21.93 -51.28,21.93 -51.02,21.93 -51.02,21.93 -50.77,21.93 -50.77,21.93 -50.52,21.93 -50.52,21.93 -50.26,21.93 -50.26,21.93 -50.01,21.93 -50.01,21.93 -49.75,21.93 -49.75,21.93 -49.5,21.93 -49.5,21.93 -49.24,21.93 -49.24,21.93 -48.99,21.93 -48.99,21.93 -48.74,21.93 -48.74,21.93 -48.48,21.93 -48.48,21.93 -48.23,21.93 -48.23,21.93 -47.97,21.93 -47.97,21.93 -47.72,21.93 -47.72,21.93 -47.47,21.93 -47.47,21.93 -47.21,21.93 -47.21,21.93 -46.96,21.93 -46.96,21.93 -46.7,21.93 -46.7,21.93 -46.45,21.93 -46.45,21.93 -46.19,21.93 -46.19,21.93 -45.94,21.93 -45.94,21.93 -45.69,21.93 -45.69,21.93 -45.43,21.93 -45.43,21.93 -45.18,21.93 -45.18,21.93 -44.92,21.93 -44.92,21.93 -44.67,21.93 -44.67,21.93 -44.42,21.93 -44.42,21.93 -44.16,21.93 -44.16,21.93 -43.91,21.93 -43.91,21.93 -43.65,21.93 -43.65,21.93 -43.4,21.93 -43.4,21.93 -43.14,21.93 -43.14,21.93 -42.89,21.93 -42.89,21.93 -42.64,21.93 -42.64,21.93 -42.38,21.93 -42.38,21.93 -42.13,21.93 -42.13,21.93 -41.87,21.93 -41.87,21.93 -41.62,21.93 -41.62,21.93 -41.37,21.93 -41.37,21.93 -41.11,21.93 -41.11,21.93 -40.86,21.93 -40.86,21.93 -40.6,21.93 -40.6,21.93 -40.35,21.93 -40.35,21.93 -40.09,21.93 -40.09,21.93 -39.84,21.93 -39.84,21.93 -39.59,21.93 -39.59,21.93 -39.33,21.93 -39.33,21.93 -39.08,21.93 -39.08,21.93 -38.82,21.93 -38.82,21.93 -38.57,21.93 -38.57,21.93 -38.32,21.93 -38.32,21.93 -38.06,21.93 -38.06,21.93 -37.81,21.93 -37.81,21.93 -37.55,21.93 -37.55,21.93 -37.3,21.93 -37.3,21.93 -37.04,21.93 -37.04,21.93 -36.79,21.93 -36.79,21.93 -36.54,21.93 -36.54,21.93 -36.28,21.93 -36.28,21.93 -36.03,21.93 -36.03,21.93 -35.77,21.93 -35.77,21.93 -35.52,21.93 -35.52,21.93 -35.27,21.93 -35.27,21.93 -35.01,21.93 -35.01,21.93 -34.76,21.93 -34.76,21.93 -34.5,21.93 -34.5,21.93 -34.25,21.93 -34.25,21.93 -33.99,21.93 -33.99,21.93 -33.74,21.93 -33.74,21.93 -33.49,21.93 -33.49,21.93 -33.23,21.93 -33.23,21.93 -32.98,21.93 -32.98,21.93 -32.72,21.93 -32.72,21.93 -32.47,21.93 -32.47,21.93 -32.22,21.93 -32.22,21.93 -31.96,21.93 -31.96,21.93 -31.71,21.93 -31.71,21.93 -31.45,21.93 -31.45,21.93 -31.2,21.93 -31.2,21.93 -30.94,21.93 -30.94,21.93 -30.69,21.93 -30.69,21.93 -30.44,21.93 -30.44,21.93 -30.18,21.93 -30.18,21.93 -29.93,21.93 -29.93,21.93 -29.67,21.93 -29.67,21.93 -29.42,21.93 -29.42,21.93 -29.17,21.93 -29.17,21.93 -28.91,21.93 -28.91,21.93 -28.66,21.93 -28.66,21.93 -28.4,21.93 -28.4,21.93 -28.15,21.93 -28.15,21.93 -27.89,21.93 -27.89,21.93 -27.64,21.93 -27.64,21.93 -27.39,21.93 -27.39,21.93 -27.13,21.93 -27.13,21.93 -26.88,21.93 -26.88,21.93 -26.62,21.93 -26.62,21.93 -26.37,21.93 -26.37,21.93 -26.12,21.93 -26.12,21.93 -25.86,21.93 -25.86,21.93 -25.61,21.93 -25.61,21.93 -25.35,21.93 -25.35,21.93 -25.1,21.93 -25.1,21.93 -24.84,21.93 -24.84,21.93 -24.59,21.93 -24.59,21.93 -24.34,21.93 -24.34,21.93 -24.08,21.93 -24.08,21.93 -23.83,21.93 -23.83,21.93 -23.57,21.93 -23.57,21.93 -23.32,21.93 -23.32,21.93 -23.07,21.93 -23.07,21.93 -22.81,21.93 -22.81,21.93 -22.56,21.93 -22.56,21.93 -22.3,21.93 -22.3,21.93 -22.05,21.93 -22.05,21.93 -21.79,21.93 -21.79,21.93 -21.54,21.93 -21.54,21.93 -21.29,21.93 -21.29,21.93 -21.03,21.93 -21.03,21.93 -20.78,21.93 -20.78,21.93 -20.52,21.93 -20.52,21.93 -20.27,21.93 -20.27,21.93 -20.02,21.93 -20.02,21.93 -19.76,21.93 -19.76,21.93 -19.51,21.93 -19.51,21.93 -19.25,21.93 -19.25,21.93 -19,21.93 -19,21.43 -18.74,21.43 -18.74,21.51 -18.49,21.51 -18.49,21.75 -18.24,21.75 -18.24,21.72 -17.98,21.72 -17.98,21.67 -17.73,21.67 -17.73,21.88 -17.47,21.88 -17.47,21.8 -17.22,21.8 -17.22,21.9 -16.97,21.9 -16.97,21.83 -16.71,21.83 -16.71,22.03 -16.46,22.03 -16.46,21.96 -16.2,21.96 -16.2,21.9 -15.95,21.9 -15.95,22.07 -15.69,22.07 -15.69,21.91 -15.44,21.91 -15.44,21.86 -15.19,21.86 -15.19,22.01 -14.93,22.01 -14.93,21.67 -14.68,21.67 -14.68,21.65 -14.42,21.65 -14.42,21.22 -14.17,21.22 -14.17,21.19 -13.92,21.19 -13.92,21.06 -13.66,21.06 -13.66,20.66 -13.41,20.66 -13.41,20.23 -13.15,20.23 -13.15,19.75 -12.9,19.75 -12.9,18.89 -12.64,18.89 -12.64,18.01 -12.39,18.01 -12.39,16.92 -12.14,16.92 -12.14,15.55 -11.88,15.55 -11.88,13.36 -11.63,13.36 -11.63,10.02 -11.37,10.02 -11.37,4.9 -11.12,4.9 -11.12,-3.44 -10.87,-3.44 -10.87,-17.31 -10.61,-17.31 -10.61,-38.98 -10.36,-38.98 -10.36,-72.81 -10.1,-72.81 -10.1,-123.39 -9.85,-123.39 -9.85,-193.79 -9.59,-193.79 -9.59,-288.29 -9.34,-288.29 -9.34,-406.84 -9.09,-406.84 -9.09,-543.92 -8.83,-543.92 -8.83,-693.02 -8.58,-693.02 -8.58,-839.87 -8.32,-839.87 -8.32,-968.38 -8.07,-968.38 -8.07,-1062.35 -7.82,-1062.35 -7.82,-1109.21 -7.56,-1109.21 -7.56,-1100.32 -7.31,-1100.32 -7.31,-1041.91 -7.05,-1041.91 -7.05,-938.57 -6.8,-938.57 -6.8,-803.32 -6.54,-803.32 -6.54,-655.48 -6.29,-655.48 -6.29,-508.37 -6.04,-508.37 -6.04,-374.53 -5.78,-374.53 -5.78,-261.58 -5.53,-261.58 -5.53,-171.75 -5.27,-171.75 -5.27,-105.43 -5.02,-105.43 -5.02,-59.04 -4.77,-59.04 -4.77,-27.65 -4.51,-27.65 -4.51,-7.96 -4.26,-7.96 -4.26,3.56 -4,3.56 -4,10.4 -3.75,10.4 -3.75,13.97 -3.49,13.97 -3.49,15.1 -3.24,15.1 -3.24,15.69 -2.99,15.69 -2.99,14.74 -2.73,14.74 -2.73,12.96 -2.48,12.96 -2.48,10.22 -2.22,10.22 -2.22,5.9 -1.97,5.9 -1.97,0.13 -1.72,0.13 -1.72,-8.49 -1.46,-8.49 -1.46,-19.59 -1.21,-19.59 -1.21,-32.49 -0.95,-32.49 -0.95,-48.41 -0.7,-48.41 -0.7,-64.41 -0.44,-64.41 -0.44,-80.68 -0.19,-80.68 -0.19,-94.97 0.06,-94.97 0.06,-107.15 0.32,-107.15 0.32,-113.01 0.57,-113.01 0.57,-113.86 0.83,-113.86 0.83,-108.59 1.08,-108.59 1.08,-98.99 1.33,-98.99 1.33,-84.57 1.59,-84.57 1.59,-68.15 1.84,-68.15 1.84,-50.53 2.1,-50.53 2.1,-34.36 2.35,-34.36 2.35,-19.92 2.61,-19.92 2.61,-7.89 2.86,-7.89 2.86,1.89 3.11,1.89 3.11,8.96 3.37,8.96 3.37,14.01 3.62,14.01 3.62,17.38 3.88,17.38 3.88,19.59 4.13,19.59 4.13,21.09 4.38,21.09 4.38,22.1 4.64,22.1 4.64,22.49 4.89,22.49 4.89,22.83 5.15,22.83 5.15,22.94 5.4,22.94 5.4,23.04 5.66,23.04 5.66,22.99 5.91,22.99 5.91,23.04 6.16,23.04 6.16,23.09 6.42,23.09 6.42,23 6.67,23 6.67,22.94 6.93,22.94 6.93,22.92 7.18,22.92 7.18,22.82 7.43,22.82 7.43,22.48 7.69,22.48 7.69,22.45 7.94,22.45 7.94,22.21 8.2,22.21 8.2,22.16 8.45,22.16 8.45,21.87 8.71,21.87 8.71,21.81 8.96,21.81 8.96,21.64 9.21,21.64 9.21,21.53 9.47,21.53 9.47,21.66 9.72,21.66 9.72,21.64 9.98,21.64 9.98,21.67 10.23,21.67 10.23,21.82 10.48,21.82 10.48,21.9 10.74,21.9 10.74,21.93 10.99,21.93 10.99,21.93 11.25,21.93 11.25,21.93 11.5,21.93 11.5,21.93 11.76,21.93 11.76,21.93 12.01,21.93 12.01,21.93 12.26,21.93 12.26,21.93 12.52,21.93 12.52,21.93 12.77,21.93 12.77,21.93 13.03,21.93 13.03,21.93 13.28,21.93 13.28,21.93 13.53,21.93 13.53,21.93 13.79,21.93 13.79,21.93 14.04,21.93 14.04,21.93 14.3,21.93 14.3,21.93 14.55,21.93 14.55,21.93 14.81,21.93 14.81,21.93 15.06,21.93 15.06,21.93 15.31,21.93 15.31,21.93 15.57,21.93 15.57,21.93 15.82,21.93 15.82,21.93 16.08,21.93 16.08,21.93 16.33,21.93 16.33,21.93 16.58,21.93 16.58,21.93 16.84,21.93 16.84,21.93 17.09,21.93 17.09,21.93 17.35,21.93 17.35,21.93 17.6,21.93 17.6,21.93 17.86,21.93 17.86,21.93 18.11,21.93 18.11,21.93 18.36,21.93 18.36,21.93 18.62,21.93 18.62,21.93 18.87,21.93 18.87,21.93 19.13,21.93 19.13,21.93 19.38,21.93 19.38,21.93 19.63,21.93 19.63,21.93 19.89,21.93 19.89,21.93 20.14,21.93 20.14,21.93 20.4,21.93 20.4,21.93 20.65,21.93 20.65,21.93 20.91,21.93 20.91,21.93 21.16,21.93 21.16,21.93 21.41,21.93 21.41,21.93 21.67,21.93 21.67,21.93 21.92,21.93 21.92,21.93 22.18,21.93 22.18,21.93 22.43,21.93 22.43,21.93 22.68,21.93 22.68,21.93 22.94,21.93 22.94,21.93 23.19,21.93 23.19,21.93 23.45,21.93 23.45,21.93 23.7,21.93 23.7,21.93 23.96,21.93 23.96,21.93 24.21,21.93 24.21,21.93 24.46,21.93 24.46,21.93 24.72,21.93 24.72,21.93 24.97,21.93 24.97,21.93 25.23,21.93 25.23,21.93 25.48,21.93 25.48,21.93 25.73,21.93 25.73,21.93 25.99,21.93 25.99,21.93 26.24,21.93 26.24,21.93 26.5,21.93 26.5,21.93 26.75,21.93 26.75,21.93 27,21.93 27,21.93 27.26,21.93 27.26,21.93 27.51,21.93 27.51,21.93 27.77,21.93 27.77,21.93 28.02,21.93 28.02,21.93 28.28,21.93 28.28,21.93 28.53,21.93 28.53,21.93 28.78,21.93 28.78,21.93 29.04,21.93 29.04,21.93 29.29,21.93 29.29,21.93 29.55,21.93 29.55,21.93 29.8,21.93 29.8,21.93 30.05,21.93 30.05,21.93 30.31,21.93 30.31,21.93 30.56,21.93 30.56,21.93 30.82,21.93 30.82,21.93 31.07,21.93 31.07,21.93 31.33,21.93 31.33,21.93 31.58,21.93 31.58,21.93 31.83,21.93 31.83,21.93 32.09,21.93 32.09,21.93 32.34,21.93 32.34,21.93 32.6,21.93 32.6,21.93 32.85,21.93 32.85,21.93 33.1,21.93 33.1,21.93 33.36,21.93 33.36,21.93 33.61,21.93 33.61,21.93 33.87,21.93 33.87,21.93 34.12,21.93 34.12,21.93 34.38,21.93 34.38,21.93 34.63,21.93 34.63,21.93 34.88,21.93 34.88,21.93 35.14,21.93 35.14,21.93 35.39,21.93 35.39,21.93 35.65,21.93 35.65,21.93 35.9,21.93 35.9,21.93 36.15,21.93 36.15,21.93 36.41,21.93 36.41,21.93 36.66,21.93 36.66,21.93 36.92,21.93 36.92,21.93 37.17,21.93 37.17,21.93 37.43,21.93 37.43,21.93 37.68,21.93 37.68,21.93 37.93,21.93 37.93,21.93 38.19,21.93 38.19,21.93 38.44,21.93 38.44,21.93 38.7,21.93 38.7,21.93 38.95,21.93 38.95,21.93 39.2,21.93 39.2,21.93 39.46,21.93 39.46,21.93 39.71,21.93 39.71,21.93 39.97,21.93 39.97,21.93 40.22,21.93 40.22,21.93 40.48,21.93 40.48,21.93 40.73,21.93 40.73,21.93 40.98,21.93 40.98,21.93 41.24,21.93 41.24,21.93 41.49,21.93 41.49,21.93 41.75,21.93 41.75,21.93 42,21.93 42,21.93 42.25,21.93 42.25,21.93 42.51,21.93 42.51,21.93 42.76,21.93 42.76,21.93 43.02,21.93 43.02,21.93 43.27,21.93 43.27,21.93 43.53,21.93 43.53,21.93 43.78,21.93 43.78,21.93 44.03,21.93 44.03,21.93 44.29,21.93 44.29,21.93 44.54,21.93 44.54,21.93 44.8,21.93 44.8,21.93 45.05,21.93 45.05,21.93 45.3,21.93 45.3,21.93 45.56,21.93 45.56,21.93 45.81,21.93 45.81,21.93 46.07,21.93 46.07,21.93 46.32,21.93 46.32,21.93 46.58,21.93 46.58,21.93 46.83,21.93 46.83,21.93 47.08,21.93 47.08,21.93 47.34,21.93 47.34,21.93 47.59,21.93 47.59,21.93 47.85,21.93 47.85,21.93 48.1,21.93 48.1,21.93 48.35,21.93 48.35,21.93 48.61,21.93 48.61,21.93 48.86,21.93 48.86,21.93 49.12,21.93 49.12,21.93 49.37,21.93 49.37,21.93 49.63,21.93 49.63,21.93 49.88,21.93 49.88,21.93 50.13,21.93 50.13,21.93 50.39,21.93 50.39,21.93 50.64,21.93 50.64,21.93 50.9,21.93 50.9,21.93 51.15,21.93 51.15,21.93 51.4,21.93 51.4,21.93 51.66,21.93 51.66,21.93 51.91,21.93 51.91,21.93 52.17,21.93 52.17,21.93 52.42,21.93 52.42,21.93 52.68,21.93 52.68,21.93 52.93,21.93 52.93,21.93 53.18,21.93 53.18,21.93 53.44,21.93 53.44,21.93 53.69,21.93 53.69,21.93 53.95,21.93 53.95,21.93 54.2,21.93 54.2,21.93 54.45,21.93 54.45,21.93 54.71,21.93 54.71,21.93 54.96,21.93 54.96,21.93 55.22,21.93 55.22,21.93 55.47,21.93 55.47,21.93 55.73,21.93 55.73,21.93 55.98,21.93 55.98,21.93 56.23,21.93 56.23,21.93 56.49,21.93 56.49,21.93 56.74,21.93 56.74,21.93 57,21.93 57,21.93 57.25,21.93 57.25,21.93 57.5,21.93 57.5,21.93 57.76,21.93 57.76,21.93 58.01,21.93 58.01,21.93 58.27,21.93 58.27,21.93 58.52,21.93 58.52,21.93 58.78,21.93 58.78,21.93 59.03,21.93 59.03,21.93 59.28,21.93 59.28,21.93 59.54,21.93 59.54,21.93 59.79,21.93 59.79,21.93 60.05,21.93 60.05,21.93 60.3,21.93 60.3,21.93 60.55,21.93 60.55,21.93 60.81,21.93 60.81,21.93 61.06,21.93 61.06,21.93 61.32,21.93 61.32,21.93 61.57,21.93 61.57,21.93 61.83,21.93 61.83,21.93 62.08,21.93 62.08,21.93 62.33,21.93 62.33,21.93 62.59,21.93 62.59,21.93 62.84,21.93 62.84,21.93 63.1,21.93 63.1,21.93 63.35,21.93 63.35,21.93 63.6,21.93 63.6,21.93 63.86,21.93 63.86,21.93 64.11,21.93 64.11,21.93 64.37,21.93 64.37,21.93 64.62,21.93 64.62,21.93 64.88,21.93 64.88,21.93 65.13,21.93 65.13,21.93 65.38,21.93 65.38,21.93 65.64,21.93 65.64,21.93 65.89,21.93 65.89,21.93 66.15,21.93 66.15,21.93 66.4,21.93 66.4,21.93 66.65,21.93 66.65,21.93 66.91,21.93 66.91,21.93 67.16,21.93 67.16,21.93 67.42,21.93 67.42,21.93 67.67,21.93 67.67,21.93 67.93,21.93 67.93,21.93 68.18,21.93 68.18,21.93 68.43,21.93 68.43,21.93 68.69,21.93 68.69,21.93 68.94,21.93 68.94,21.93 69.2,21.93 69.2,21.93 69.45,21.93 69.45,21.93 69.7,21.93 69.7,21.93 69.96,21.93 69.96,21.93 70.21,21.93 70.21,21.93 70.47,21.93 70.47,21.93 70.72,21.93 70.72,21.93 70.98,21.93 70.98,21.93 71.23,21.93 71.23,21.93 71.48,21.93 71.48,21.93 71.74,21.93 71.74,21.93 71.99,21.93 71.99,21.93 72.25,21.93 72.25,21.93 72.5,21.93 72.5,21.93 72.75,21.93 72.75,21.93 73.01,21.93 73.01,21.93 73.26,21.93 73.26,21.93 73.52,21.93 73.52,21.93 73.77,21.93 73.77,21.93 74.03,21.93 74.03,21.93 74.28,21.93 74.28,21.93 74.53,21.93 74.53,21.93 74.79,21.93 74.79,21.93 75.04,21.93 75.04,21.93 75.3,21.93 75.3,21.93 75.55,21.93 75.55,21.93 75.8,21.93 75.8,21.93 76.06,21.93 76.06,21.93 76.31,21.93 76.31,21.93 76.57,21.93 76.57,21.93 76.82,21.93 76.82,21.93 77.08,21.93 77.08,21.93 77.33,21.93 77.33,21.93 77.58,21.93 77.58,21.93 77.84,21.93 77.84,21.93 78.09,21.93 78.09,21.93 78.35,21.93 78.35,21.93 78.6,21.93 78.6,21.93 78.85,21.93 78.85,21.93 79.11,21.93 79.11,21.93 79.36,21.93 79.36,21.93 79.62,21.93 79.62,21.93 79.87,21.93 79.87,21.93 80.13,21.93 80.13,21.93 80.38,21.93 80.38,21.93 80.63,21.93 80.63,21.93 80.89,21.93 80.89,21.93 81.14,21.93 81.14,21.93 81.4,21.93 81.4,21.93 81.65,21.93 81.65,21.93 81.9,21.93 81.9,21.93 82.16,21.93 82.16,21.93 82.41,21.93 82.41,21.93 82.67,21.93 82.67,21.93 82.92,21.93 82.92,21.93 83.18,21.93 83.18,21.93 83.43,21.93 83.43,21.93 83.68,21.93 83.68,21.93 83.94,21.93 83.94,21.93 84.19,21.93 84.19,21.93 84.45,21.93 84.45,21.93 84.7,21.93 84.7,21.93 84.95,21.93 84.95,21.93 85.21,21.93 85.21,21.93 85.46,21.93 85.46,21.93 85.72,21.93 85.72,21.93 85.97,21.93 85.97,21.93 86.23,21.93 86.23,21.93 86.48,21.93 86.48,21.93 86.73,21.93 86.73,21.93 86.99,21.93 86.99,21.93 87.24,21.93 87.24,21.93 87.5,21.93 87.5,21.93 87.75,21.93 87.75,21.93 88,21.93 88,21.93 88.26,21.93 88.26,21.93 88.51,21.93 88.51,21.93 88.77,21.93 88.77,21.93 89.02,21.93 89.02,21.93 89.28,21.93 89.28,21.93 89.53,21.93 89.53,21.93 89.78,21.93 89.78,21.93 90.04,21.93 90.04,21.93 90.29,21.93 90.29,21.93 90.55,21.93 90.55,21.93 90.8,21.93 90.8,21.93 91.05,21.93 91.05,21.93 91.31,21.93 91.31,21.93 91.56,21.93 91.56,21.93 91.82,21.93 91.82,21.93 92.07,21.93 92.07,21.93 92.33,21.93 92.33,21.93 92.58,21.93 92.58,21.93 92.83,21.93 92.83,21.93 93.09,21.93 93.09,21.93 93.34,21.93 93.34,21.93 93.6,21.93 93.6,21.93 93.85,21.93 93.85,21.93 94.1,21.93 94.1,21.93 94.36,21.93 94.36,21.93 94.61,21.93 94.61,21.93 94.87,21.93 94.87,21.93 95.12,21.93 95.12,21.93 95.38,21.93 95.38,21.93 95.63,21.93 95.63,21.93 95.88,21.93 95.88,21.93 96.14,21.93 96.14,21.93 96.39,21.93 96.39,21.93 96.65,21.93 96.65,21.93 96.9,21.93 96.9,21.93 97.15,21.93 97.15,21.93 97.41,21.93 97.41,21.93 97.66,21.93 97.66,21.93 97.92,21.93 97.92,21.93 98.17,21.93 98.17,21.93 98.43,21.93 98.43,21.93 98.68,21.93 98.68,21.93 98.93,21.93 98.93,21.93 99.19,21.93 99.19,21.93 99.44,21.93 99.44,21.93 99.7,21.93 99.7,21.93 99.95,21.93 99.95,21.93 100.2,21.93 100.2,21.93 100.46,21.93 100.46,21.93 100.71,21.93 100.71,21.93 100.97,21.93 100.97,21.93 101.22,21.93 101.22,21.93 101.48,21.93 101.48,21.93 " class="primitive"/>
            </g>
          </g>
        </g>
        <g stroke-width="0.3" fill="#000000" fill-opacity="0.000" class="geometry" id="img-b48157a6-32">
          <g class="color_RGB{N0f8}(0.063,0.306,0.545)" stroke-dasharray="none" stroke="#104E8B" id="img-b48157a6-33">
            <g transform="translate(121.67,28.44)" id="img-b48157a6-34">
              <path fill="none" d="M-101.6,31.41 L-101.35,31.41 -101.35,31.41 -101.09,31.41 -101.09,31.42 -100.84,31.42 -100.84,31.42 -100.59,31.42 -100.59,31.42 -100.33,31.42 -100.33,31.42 -100.08,31.42 -100.08,31.42 -99.82,31.42 -99.82,31.43 -99.57,31.43 -99.57,31.43 -99.31,31.43 -99.31,31.43 -99.06,31.43 -99.06,31.43 -98.81,31.43 -98.81,31.42 -98.55,31.42 -98.55,31.42 -98.3,31.42 -98.3,31.42 -98.04,31.42 -98.04,31.4 -97.79,31.4 -97.79,31.37 -97.54,31.37 -97.54,31.31 -97.28,31.31 -97.28,31.2 -97.03,31.2 -97.03,30.98 -96.77,30.98 -96.77,30.6 -96.52,30.6 -96.52,29.92 -96.26,29.92 -96.26,28.46 -96.01,28.46 -96.01,25.66 -95.76,25.66 -95.76,21.3 -95.5,21.3 -95.5,14.75 -95.25,14.75 -95.25,7.53 -94.99,7.53 -94.99,1.12 -94.74,1.12 -94.74,-1.84 -94.49,-1.84 -94.49,-0.82 -94.23,-0.82 -94.23,3.99 -93.98,3.99 -93.98,9.56 -93.72,9.56 -93.72,14.43 -93.47,14.43 -93.47,17.52 -93.21,17.52 -93.21,19.46 -92.96,19.46 -92.96,20.89 -92.71,20.89 -92.71,21.61 -92.45,21.61 -92.45,22.56 -92.2,22.56 -92.2,23.2 -91.94,23.2 -91.94,23.67 -91.69,23.67 -91.69,24.26 -91.44,24.26 -91.44,25.04 -91.18,25.04 -91.18,25.77 -90.93,25.77 -90.93,26.38 -90.67,26.38 -90.67,26.71 -90.42,26.71 -90.42,26.84 -90.16,26.84 -90.16,26.83 -89.91,26.83 -89.91,26.51 -89.66,26.51 -89.66,26.01 -89.4,26.01 -89.4,25.2 -89.15,25.2 -89.15,24.12 -88.89,24.12 -88.89,23.11 -88.64,23.11 -88.64,22.34 -88.39,22.34 -88.39,22.08 -88.13,22.08 -88.13,22.11 -87.88,22.11 -87.88,22.48 -87.62,22.48 -87.62,22.7 -87.37,22.7 -87.37,22.25 -87.11,22.25 -87.11,21.21 -86.86,21.21 -86.86,18.56 -86.61,18.56 -86.61,13.62 -86.35,13.62 -86.35,3.55 -86.1,3.55 -86.1,-15.34 -85.84,-15.34 -85.84,-48.3 -85.59,-48.3 -85.59,-100.24 -85.34,-100.24 -85.34,-170.89 -85.08,-170.89 -85.08,-249.51 -84.83,-249.51 -84.83,-318.32 -84.57,-318.32 -84.57,-353.91 -84.32,-353.91 -84.32,-343.77 -84.06,-343.77 -84.06,-289.87 -83.81,-289.87 -83.81,-210.93 -83.56,-210.93 -83.56,-131.13 -83.3,-131.13 -83.3,-66.99 -83.05,-66.99 -83.05,-22.76 -82.79,-22.76 -82.79,2.26 -82.54,2.26 -82.54,15.18 -82.29,15.18 -82.29,21 -82.03,21 -82.03,23.53 -81.78,23.53 -81.78,24.33 -81.52,24.33 -81.52,24.61 -81.27,24.61 -81.27,24.74 -81.01,24.74 -81.01,24.56 -80.76,24.56 -80.76,24.56 -80.51,24.56 -80.51,24.23 -80.25,24.23 -80.25,24.05 -80,24.05 -80,23.82 -79.74,23.82 -79.74,23.6 -79.49,23.6 -79.49,23.46 -79.24,23.46 -79.24,23.51 -78.98,23.51 -78.98,23.37 -78.73,23.37 -78.73,23.09 -78.47,23.09 -78.47,23.08 -78.22,23.08 -78.22,22.94 -77.96,22.94 -77.96,22.69 -77.71,22.69 -77.71,22.88 -77.46,22.88 -77.46,22.52 -77.2,22.52 -77.2,22.41 -76.95,22.41 -76.95,22.34 -76.69,22.34 -76.69,22.15 -76.44,22.15 -76.44,21.87 -76.19,21.87 -76.19,21.89 -75.93,21.89 -75.93,21.71 -75.68,21.71 -75.68,21.38 -75.42,21.38 -75.42,21.25 -75.17,21.25 -75.17,21.06 -74.91,21.06 -74.91,20.96 -74.66,20.96 -74.66,20.66 -74.41,20.66 -74.41,20.48 -74.15,20.48 -74.15,20.45 -73.9,20.45 -73.9,20.28 -73.64,20.28 -73.64,20.02 -73.39,20.02 -73.39,19.81 -73.14,19.81 -73.14,19.6 -72.88,19.6 -72.88,19.36 -72.63,19.36 -72.63,19.09 -72.37,19.09 -72.37,18.9 -72.12,18.9 -72.12,18.81 -71.86,18.81 -71.86,18.38 -71.61,18.38 -71.61,18.44 -71.36,18.44 -71.36,18.14 -71.1,18.14 -71.1,17.92 -70.85,17.92 -70.85,17.73 -70.59,17.73 -70.59,17.6 -70.34,17.6 -70.34,17.12 -70.09,17.12 -70.09,17.09 -69.83,17.09 -69.83,16.68 -69.58,16.68 -69.58,16.7 -69.32,16.7 -69.32,16.42 -69.07,16.42 -69.07,16.24 -68.81,16.24 -68.81,16.32 -68.56,16.32 -68.56,16.02 -68.31,16.02 -68.31,15.95 -68.05,15.95 -68.05,15.7 -67.8,15.7 -67.8,15.47 -67.54,15.47 -67.54,15.3 -67.29,15.3 -67.29,15.12 -67.04,15.12 -67.04,15.19 -66.78,15.19 -66.78,15.1 -66.53,15.1 -66.53,15.24 -66.27,15.24 -66.27,15.08 -66.02,15.08 -66.02,15.1 -65.76,15.1 -65.76,14.88 -65.51,14.88 -65.51,14.86 -65.26,14.86 -65.26,14.58 -65,14.58 -65,14.36 -64.75,14.36 -64.75,14.28 -64.49,14.28 -64.49,14.01 -64.24,14.01 -64.24,13.7 -63.99,13.7 -63.99,13.84 -63.73,13.84 -63.73,13.77 -63.48,13.77 -63.48,13.67 -63.22,13.67 -63.22,13.77 -62.97,13.77 -62.97,13.76 -62.71,13.76 -62.71,13.94 -62.46,13.94 -62.46,14.07 -62.21,14.07 -62.21,14.09 -61.95,14.09 -61.95,14.35 -61.7,14.35 -61.7,14.33 -61.44,14.33 -61.44,14.48 -61.19,14.48 -61.19,14.46 -60.94,14.46 -60.94,14.47 -60.68,14.47 -60.68,14.52 -60.43,14.52 -60.43,14.41 -60.17,14.41 -60.17,14.39 -59.92,14.39 -59.92,14.26 -59.66,14.26 -59.66,14.06 -59.41,14.06 -59.41,14.14 -59.16,14.14 -59.16,13.88 -58.9,13.88 -58.9,13.81 -58.65,13.81 -58.65,13.85 -58.39,13.85 -58.39,13.43 -58.14,13.43 -58.14,13.1 -57.89,13.1 -57.89,12.87 -57.63,12.87 -57.63,12.88 -57.38,12.88 -57.38,12.59 -57.12,12.59 -57.12,12.62 -56.87,12.62 -56.87,12.45 -56.62,12.45 -56.62,12.42 -56.36,12.42 -56.36,12.5 -56.11,12.5 -56.11,12.75 -55.85,12.75 -55.85,12.56 -55.6,12.56 -55.6,12.73 -55.34,12.73 -55.34,12.51 -55.09,12.51 -55.09,12.55 -54.84,12.55 -54.84,12.69 -54.58,12.69 -54.58,12.74 -54.33,12.74 -54.33,12.69 -54.07,12.69 -54.07,12.04 -53.82,12.04 -53.82,11.24 -53.57,11.24 -53.57,10.06 -53.31,10.06 -53.31,8.27 -53.06,8.27 -53.06,6.45 -52.8,6.45 -52.8,4.19 -52.55,4.19 -52.55,2.61 -52.29,2.61 -52.29,1.57 -52.04,1.57 -52.04,1.08 -51.79,1.08 -51.79,1.66 -51.53,1.66 -51.53,3.13 -51.28,3.13 -51.28,5.01 -51.02,5.01 -51.02,7.44 -50.77,7.44 -50.77,9.35 -50.52,9.35 -50.52,10.97 -50.26,10.97 -50.26,12.03 -50.01,12.03 -50.01,12.66 -49.75,12.66 -49.75,13.26 -49.5,13.26 -49.5,13.46 -49.24,13.46 -49.24,13.78 -48.99,13.78 -48.99,13.9 -48.74,13.9 -48.74,13.64 -48.48,13.64 -48.48,13.95 -48.23,13.95 -48.23,13.78 -47.97,13.78 -47.97,13.98 -47.72,13.98 -47.72,13.88 -47.47,13.88 -47.47,13.97 -47.21,13.97 -47.21,14 -46.96,14 -46.96,14 -46.7,14 -46.7,13.81 -46.45,13.81 -46.45,13.93 -46.19,13.93 -46.19,13.92 -45.94,13.92 -45.94,13.85 -45.69,13.85 -45.69,14 -45.43,14 -45.43,13.71 -45.18,13.71 -45.18,13.51 -44.92,13.51 -44.92,13.44 -44.67,13.44 -44.67,13.07 -44.42,13.07 -44.42,12.98 -44.16,12.98 -44.16,12.95 -43.91,12.95 -43.91,13.03 -43.65,13.03 -43.65,13.07 -43.4,13.07 -43.4,13.06 -43.14,13.06 -43.14,13.44 -42.89,13.44 -42.89,13.73 -42.64,13.73 -42.64,13.83 -42.38,13.83 -42.38,14.18 -42.13,14.18 -42.13,14.4 -41.87,14.4 -41.87,14.31 -41.62,14.31 -41.62,14.45 -41.37,14.45 -41.37,14.53 -41.11,14.53 -41.11,14.55 -40.86,14.55 -40.86,14.76 -40.6,14.76 -40.6,14.98 -40.35,14.98 -40.35,14.75 -40.09,14.75 -40.09,14.84 -39.84,14.84 -39.84,14.87 -39.59,14.87 -39.59,14.89 -39.33,14.89 -39.33,14.95 -39.08,14.95 -39.08,14.85 -38.82,14.85 -38.82,15.09 -38.57,15.09 -38.57,14.9 -38.32,14.9 -38.32,15.13 -38.06,15.13 -38.06,14.9 -37.81,14.9 -37.81,15.19 -37.55,15.19 -37.55,15.2 -37.3,15.2 -37.3,14.9 -37.04,14.9 -37.04,15.17 -36.79,15.17 -36.79,15.26 -36.54,15.26 -36.54,15.38 -36.28,15.38 -36.28,15.3 -36.03,15.3 -36.03,15.5 -35.77,15.5 -35.77,15.47 -35.52,15.47 -35.52,15.6 -35.27,15.6 -35.27,15.42 -35.01,15.42 -35.01,15.47 -34.76,15.47 -34.76,15.44 -34.5,15.44 -34.5,15.54 -34.25,15.54 -34.25,15.7 -33.99,15.7 -33.99,15.63 -33.74,15.63 -33.74,15.8 -33.49,15.8 -33.49,15.68 -33.23,15.68 -33.23,15.9 -32.98,15.9 -32.98,15.8 -32.72,15.8 -32.72,15.84 -32.47,15.84 -32.47,15.92 -32.22,15.92 -32.22,15.76 -31.96,15.76 -31.96,15.76 -31.71,15.76 -31.71,15.95 -31.45,15.95 -31.45,16.05 -31.2,16.05 -31.2,15.96 -30.94,15.96 -30.94,16.08 -30.69,16.08 -30.69,16.22 -30.44,16.22 -30.44,16.15 -30.18,16.15 -30.18,16.15 -29.93,16.15 -29.93,16.18 -29.67,16.18 -29.67,16.33 -29.42,16.33 -29.42,16.25 -29.17,16.25 -29.17,16.46 -28.91,16.46 -28.91,16.41 -28.66,16.41 -28.66,16.33 -28.4,16.33 -28.4,16.35 -28.15,16.35 -28.15,16.43 -27.89,16.43 -27.89,16.56 -27.64,16.56 -27.64,16.44 -27.39,16.44 -27.39,16.41 -27.13,16.41 -27.13,16.5 -26.88,16.5 -26.88,16.45 -26.62,16.45 -26.62,16.5 -26.37,16.5 -26.37,16.49 -26.12,16.49 -26.12,16.44 -25.86,16.44 -25.86,16.56 -25.61,16.56 -25.61,16.61 -25.35,16.61 -25.35,16.71 -25.1,16.71 -25.1,16.58 -24.84,16.58 -24.84,16.55 -24.59,16.55 -24.59,16.76 -24.34,16.76 -24.34,16.83 -24.08,16.83 -24.08,16.7 -23.83,16.7 -23.83,16.79 -23.57,16.79 -23.57,16.8 -23.32,16.8 -23.32,16.72 -23.07,16.72 -23.07,16.84 -22.81,16.84 -22.81,16.76 -22.56,16.76 -22.56,16.9 -22.3,16.9 -22.3,17.01 -22.05,17.01 -22.05,16.81 -21.79,16.81 -21.79,16.83 -21.54,16.83 -21.54,16.74 -21.29,16.74 -21.29,16.94 -21.03,16.94 -21.03,16.99 -20.78,16.99 -20.78,16.77 -20.52,16.77 -20.52,16.88 -20.27,16.88 -20.27,17.01 -20.02,17.01 -20.02,16.98 -19.76,16.98 -19.76,17.03 -19.51,17.03 -19.51,16.93 -19.25,16.93 -19.25,17.25 -19,17.25 -19,17.16 -18.74,17.16 -18.74,17.28 -18.49,17.28 -18.49,17.57 -18.24,17.57 -18.24,17.58 -17.98,17.58 -17.98,17.56 -17.73,17.56 -17.73,17.81 -17.47,17.81 -17.47,17.77 -17.22,17.77 -17.22,17.91 -16.97,17.91 -16.97,17.88 -16.71,17.88 -16.71,18.12 -16.46,18.12 -16.46,18.09 -16.2,18.09 -16.2,18.07 -15.95,18.07 -15.95,18.28 -15.69,18.28 -15.69,18.16 -15.44,18.16 -15.44,18.15 -15.19,18.15 -15.19,18.34 -14.93,18.34 -14.93,18.03 -14.68,18.03 -14.68,18.06 -14.42,18.06 -14.42,17.66 -14.17,17.66 -14.17,17.68 -13.92,17.68 -13.92,17.58 -13.66,17.58 -13.66,17.22 -13.41,17.22 -13.41,16.83 -13.15,16.83 -13.15,16.39 -12.9,16.39 -12.9,15.56 -12.64,15.56 -12.64,14.73 -12.39,14.73 -12.39,13.67 -12.14,13.67 -12.14,12.34 -11.88,12.34 -11.88,10.19 -11.63,10.19 -11.63,6.89 -11.37,6.89 -11.37,1.81 -11.12,1.81 -11.12,-6.5 -10.87,-6.5 -10.87,-20.33 -10.61,-20.33 -10.61,-41.96 -10.36,-41.96 -10.36,-75.75 -10.1,-75.75 -10.1,-126.3 -9.85,-126.3 -9.85,-196.66 -9.59,-196.66 -9.59,-291.12 -9.34,-291.12 -9.34,-409.63 -9.09,-409.63 -9.09,-546.68 -8.83,-546.68 -8.83,-695.74 -8.58,-695.74 -8.58,-842.55 -8.32,-842.55 -8.32,-971.03 -8.07,-971.03 -8.07,-1064.96 -7.82,-1064.96 -7.82,-1111.78 -7.56,-1111.78 -7.56,-1102.86 -7.31,-1102.86 -7.31,-1044.41 -7.05,-1044.41 -7.05,-941.04 -6.8,-941.04 -6.8,-805.75 -6.54,-805.75 -6.54,-657.87 -6.29,-657.87 -6.29,-510.73 -6.04,-510.73 -6.04,-376.85 -5.78,-376.85 -5.78,-263.87 -5.53,-263.87 -5.53,-174 -5.27,-174 -5.27,-107.64 -5.02,-107.64 -5.02,-61.22 -4.77,-61.22 -4.77,-29.8 -4.51,-29.8 -4.51,-10.07 -4.26,-10.07 -4.26,1.48 -4,1.48 -4,8.36 -3.75,8.36 -3.75,11.96 -3.49,11.96 -3.49,13.13 -3.24,13.13 -3.24,13.76 -2.99,13.76 -2.99,12.84 -2.73,12.84 -2.73,11.1 -2.48,11.1 -2.48,8.39 -2.22,8.39 -2.22,4.11 -1.97,4.11 -1.97,-1.62 -1.72,-1.62 -1.72,-10.2 -1.46,-10.2 -1.46,-21.25 -1.21,-21.25 -1.21,-34.1 -0.95,-34.1 -0.95,-49.96 -0.7,-49.96 -0.7,-65.88 -0.44,-65.88 -0.44,-82.06 -0.19,-82.06 -0.19,-96.24 0.06,-96.24 0.06,-108.29 0.32,-108.29 0.32,-114 0.57,-114 0.57,-114.68 0.83,-114.68 0.83,-109.23 1.08,-109.23 1.08,-99.43 1.33,-99.43 1.33,-84.82 1.59,-84.82 1.59,-68.2 1.84,-68.2 1.84,-50.4 2.1,-50.4 2.1,-34.06 2.35,-34.06 2.35,-19.48 2.61,-19.48 2.61,-7.33 2.86,-7.33 2.86,2.56 3.11,2.56 3.11,9.7 3.37,9.7 3.37,14.81 3.62,14.81 3.62,18.24 3.88,18.24 3.88,20.48 4.13,20.48 4.13,22.01 4.38,22.01 4.38,23.05 4.64,23.05 4.64,23.46 4.89,23.46 4.89,23.81 5.15,23.81 5.15,23.94 5.4,23.94 5.4,24.06 5.66,24.06 5.66,24.02 5.91,24.02 5.91,24.09 6.16,24.09 6.16,24.15 6.42,24.15 6.42,24.08 6.67,24.08 6.67,24.03 6.93,24.03 6.93,24.03 7.18,24.03 7.18,23.94 7.43,23.94 7.43,23.62 7.69,23.62 7.69,23.6 7.94,23.6 7.94,23.38 8.2,23.38 8.2,23.34 8.45,23.34 8.45,23.07 8.71,23.07 8.71,23.03 8.96,23.03 8.96,22.87 9.21,22.87 9.21,22.78 9.47,22.78 9.47,22.93 9.72,22.93 9.72,22.92 9.98,22.92 9.98,22.96 10.23,22.96 10.23,23.13 10.48,23.13 10.48,23.23 10.74,23.23 10.74,23.44 10.99,23.44 10.99,23.65 11.25,23.65 11.25,23.84 11.5,23.84 11.5,24.02 11.76,24.02 11.76,24.12 12.01,24.12 12.01,24.28 12.26,24.28 12.26,24.26 12.52,24.26 12.52,24.33 12.77,24.33 12.77,24.54 13.03,24.54 13.03,24.32 13.28,24.32 13.28,24.45 13.53,24.45 13.53,24.52 13.79,24.52 13.79,24.49 14.04,24.49 14.04,24.58 14.3,24.58 14.3,24.57 14.55,24.57 14.55,24.54 14.81,24.54 14.81,24.58 15.06,24.58 15.06,24.53 15.31,24.53 15.31,24.45 15.57,24.45 15.57,24.4 15.82,24.4 15.82,24.57 16.08,24.57 16.08,24.55 16.33,24.55 16.33,24.46 16.58,24.46 16.58,24.61 16.84,24.61 16.84,24.55 17.09,24.55 17.09,24.47 17.35,24.47 17.35,24.46 17.6,24.46 17.6,24.39 17.86,24.39 17.86,24.57 18.11,24.57 18.11,24.53 18.36,24.53 18.36,24.44 18.62,24.44 18.62,24.52 18.87,24.52 18.87,24.53 19.13,24.53 19.13,24.58 19.38,24.58 19.38,24.74 19.63,24.74 19.63,24.79 19.89,24.79 19.89,24.79 20.14,24.79 20.14,24.81 20.4,24.81 20.4,24.84 20.65,24.84 20.65,24.69 20.91,24.69 20.91,24.82 21.16,24.82 21.16,24.84 21.41,24.84 21.41,24.79 21.67,24.79 21.67,24.76 21.92,24.76 21.92,24.84 22.18,24.84 22.18,24.84 22.43,24.84 22.43,24.82 22.68,24.82 22.68,24.77 22.94,24.77 22.94,24.79 23.19,24.79 23.19,24.78 23.45,24.78 23.45,24.97 23.7,24.97 23.7,24.97 23.96,24.97 23.96,24.95 24.21,24.95 24.21,24.86 24.46,24.86 24.46,24.91 24.72,24.91 24.72,24.89 24.97,24.89 24.97,24.98 25.23,24.98 25.23,25.05 25.48,25.05 25.48,24.97 25.73,24.97 25.73,25.02 25.99,25.02 25.99,25.08 26.24,25.08 26.24,24.98 26.5,24.98 26.5,25.04 26.75,25.04 26.75,24.99 27,24.99 27,25 27.26,25 27.26,25.08 27.51,25.08 27.51,24.97 27.77,24.97 27.77,25.07 28.02,25.07 28.02,25.16 28.28,25.16 28.28,25.14 28.53,25.14 28.53,25.14 28.78,25.14 28.78,25.12 29.04,25.12 29.04,25.18 29.29,25.18 29.29,25.19 29.55,25.19 29.55,25.15 29.8,25.15 29.8,25.19 30.05,25.19 30.05,25.32 30.31,25.32 30.31,25.16 30.56,25.16 30.56,25.4 30.82,25.4 30.82,25.26 31.07,25.26 31.07,25.26 31.33,25.26 31.33,25.21 31.58,25.21 31.58,25.24 31.83,25.24 31.83,25.36 32.09,25.36 32.09,25.21 32.34,25.21 32.34,25.31 32.6,25.31 32.6,25.24 32.85,25.24 32.85,25.25 33.1,25.25 33.1,25.37 33.36,25.37 33.36,25.33 33.61,25.33 33.61,25.25 33.87,25.25 33.87,25.37 34.12,25.37 34.12,25.25 34.38,25.25 34.38,25.3 34.63,25.3 34.63,25.39 34.88,25.39 34.88,25.39 35.14,25.39 35.14,25.35 35.39,25.35 35.39,25.37 35.65,25.37 35.65,25.39 35.9,25.39 35.9,25.33 36.15,25.33 36.15,25.34 36.41,25.34 36.41,25.3 36.66,25.3 36.66,25.4 36.92,25.4 36.92,25.34 37.17,25.34 37.17,25.5 37.43,25.5 37.43,25.46 37.68,25.46 37.68,25.42 37.93,25.42 37.93,25.47 38.19,25.47 38.19,25.62 38.44,25.62 38.44,25.64 38.7,25.64 38.7,25.53 38.95,25.53 38.95,25.78 39.2,25.78 39.2,25.66 39.46,25.66 39.46,25.64 39.71,25.64 39.71,25.63 39.97,25.63 39.97,25.66 40.22,25.66 40.22,25.75 40.48,25.75 40.48,25.69 40.73,25.69 40.73,25.7 40.98,25.7 40.98,25.74 41.24,25.74 41.24,25.72 41.49,25.72 41.49,25.79 41.75,25.79 41.75,25.72 42,25.72 42,25.83 42.25,25.83 42.25,25.72 42.51,25.72 42.51,25.7 42.76,25.7 42.76,25.77 43.02,25.77 43.02,25.79 43.27,25.79 43.27,25.87 43.53,25.87 43.53,25.76 43.78,25.76 43.78,25.84 44.03,25.84 44.03,25.82 44.29,25.82 44.29,25.87 44.54,25.87 44.54,25.8 44.8,25.8 44.8,25.94 45.05,25.94 45.05,26.02 45.3,26.02 45.3,25.97 45.56,25.97 45.56,25.89 45.81,25.89 45.81,26.05 46.07,26.05 46.07,25.95 46.32,25.95 46.32,25.81 46.58,25.81 46.58,26.03 46.83,26.03 46.83,26 47.08,26 47.08,25.95 47.34,25.95 47.34,26.08 47.59,26.08 47.59,26.09 47.85,26.09 47.85,25.97 48.1,25.97 48.1,26.14 48.35,26.14 48.35,26 48.61,26 48.61,26.05 48.86,26.05 48.86,26.13 49.12,26.13 49.12,26.06 49.37,26.06 49.37,26.2 49.63,26.2 49.63,26.17 49.88,26.17 49.88,26.08 50.13,26.08 50.13,26.12 50.39,26.12 50.39,26.17 50.64,26.17 50.64,26.07 50.9,26.07 50.9,26.21 51.15,26.21 51.15,26.2 51.4,26.2 51.4,26.17 51.66,26.17 51.66,26.29 51.91,26.29 51.91,26.17 52.17,26.17 52.17,26.29 52.42,26.29 52.42,26.22 52.68,26.22 52.68,26.27 52.93,26.27 52.93,26.27 53.18,26.27 53.18,26.32 53.44,26.32 53.44,26.26 53.69,26.26 53.69,26.33 53.95,26.33 53.95,26.32 54.2,26.32 54.2,26.37 54.45,26.37 54.45,26.43 54.71,26.43 54.71,26.4 54.96,26.4 54.96,26.41 55.22,26.41 55.22,26.37 55.47,26.37 55.47,26.4 55.73,26.4 55.73,26.41 55.98,26.41 55.98,26.43 56.23,26.43 56.23,26.38 56.49,26.38 56.49,26.45 56.74,26.45 56.74,26.37 57,26.37 57,26.4 57.25,26.4 57.25,26.59 57.5,26.59 57.5,26.44 57.76,26.44 57.76,26.33 58.01,26.33 58.01,26.49 58.27,26.49 58.27,26.4 58.52,26.4 58.52,26.39 58.78,26.39 58.78,26.37 59.03,26.37 59.03,26.47 59.28,26.47 59.28,26.44 59.54,26.44 59.54,26.4 59.79,26.4 59.79,26.45 60.05,26.45 60.05,26.3 60.3,26.3 60.3,26.27 60.55,26.27 60.55,26.35 60.81,26.35 60.81,26.22 61.06,26.22 61.06,26.35 61.32,26.35 61.32,26.25 61.57,26.25 61.57,26.36 61.83,26.36 61.83,26.4 62.08,26.4 62.08,26.45 62.33,26.45 62.33,26.49 62.59,26.49 62.59,26.41 62.84,26.41 62.84,26.53 63.1,26.53 63.1,26.61 63.35,26.61 63.35,26.66 63.6,26.66 63.6,26.67 63.86,26.67 63.86,26.78 64.11,26.78 64.11,26.79 64.37,26.79 64.37,26.79 64.62,26.79 64.62,26.81 64.88,26.81 64.88,26.75 65.13,26.75 65.13,26.66 65.38,26.66 65.38,26.86 65.64,26.86 65.64,26.85 65.89,26.85 65.89,26.86 66.15,26.86 66.15,26.79 66.4,26.79 66.4,26.91 66.65,26.91 66.65,26.85 66.91,26.85 66.91,26.92 67.16,26.92 67.16,26.85 67.42,26.85 67.42,26.92 67.67,26.92 67.67,26.83 67.93,26.83 67.93,26.78 68.18,26.78 68.18,26.99 68.43,26.99 68.43,26.97 68.69,26.97 68.69,26.95 68.94,26.95 68.94,26.99 69.2,26.99 69.2,26.98 69.45,26.98 69.45,26.93 69.7,26.93 69.7,26.99 69.96,26.99 69.96,26.93 70.21,26.93 70.21,27.05 70.47,27.05 70.47,27 70.72,27 70.72,27.09 70.98,27.09 70.98,27.11 71.23,27.11 71.23,27.01 71.48,27.01 71.48,27.05 71.74,27.05 71.74,26.94 71.99,26.94 71.99,27.12 72.25,27.12 72.25,27.04 72.5,27.04 72.5,27.07 72.75,27.07 72.75,26.98 73.01,26.98 73.01,27.07 73.26,27.07 73.26,27.18 73.52,27.18 73.52,27.14 73.77,27.14 73.77,27.07 74.03,27.07 74.03,27.16 74.28,27.16 74.28,27.18 74.53,27.18 74.53,27.18 74.79,27.18 74.79,27.17 75.04,27.17 75.04,27.13 75.3,27.13 75.3,27.2 75.55,27.2 75.55,27.24 75.8,27.24 75.8,27.22 76.06,27.22 76.06,27.27 76.31,27.27 76.31,27.26 76.57,27.26 76.57,27.23 76.82,27.23 76.82,27.19 77.08,27.19 77.08,27.28 77.33,27.28 77.33,27.25 77.58,27.25 77.58,27.32 77.84,27.32 77.84,27.31 78.09,27.31 78.09,27.18 78.35,27.18 78.35,27.31 78.6,27.31 78.6,27.28 78.85,27.28 78.85,27.34 79.11,27.34 79.11,27.28 79.36,27.28 79.36,27.31 79.62,27.31 79.62,27.37 79.87,27.37 79.87,27.35 80.13,27.35 80.13,27.39 80.38,27.39 80.38,27.43 80.63,27.43 80.63,27.45 80.89,27.45 80.89,27.4 81.14,27.4 81.14,27.33 81.4,27.33 81.4,27.45 81.65,27.45 81.65,27.42 81.9,27.42 81.9,27.42 82.16,27.42 82.16,27.37 82.41,27.37 82.41,27.42 82.67,27.42 82.67,27.29 82.92,27.29 82.92,27.26 83.18,27.26 83.18,27.21 83.43,27.21 83.43,27.05 83.68,27.05 83.68,27.06 83.94,27.06 83.94,26.89 84.19,26.89 84.19,26.76 84.45,26.76 84.45,26.63 84.7,26.63 84.7,26.47 84.95,26.47 84.95,26.28 85.21,26.28 85.21,25.98 85.46,25.98 85.46,25.95 85.72,25.95 85.72,25.89 85.97,25.89 85.97,25.79 86.23,25.79 86.23,25.86 86.48,25.86 86.48,25.75 86.73,25.75 86.73,25.79 86.99,25.79 86.99,25.93 87.24,25.93 87.24,26.03 87.5,26.03 87.5,26.28 87.75,26.28 87.75,26.47 88,26.47 88,26.63 88.26,26.63 88.26,26.77 88.51,26.77 88.51,26.98 88.77,26.98 88.77,27.11 89.02,27.11 89.02,27.25 89.28,27.25 89.28,27.3 89.53,27.3 89.53,27.42 89.78,27.42 89.78,27.49 90.04,27.49 90.04,27.62 90.29,27.62 90.29,27.63 90.55,27.63 90.55,27.67 90.8,27.67 90.8,27.67 91.05,27.67 91.05,27.59 91.31,27.59 91.31,27.55 91.56,27.55 91.56,27.63 91.82,27.63 91.82,27.6 92.07,27.6 92.07,27.57 92.33,27.57 92.33,27.6 92.58,27.6 92.58,27.6 92.83,27.6 92.83,27.61 93.09,27.61 93.09,27.59 93.34,27.59 93.34,27.54 93.6,27.54 93.6,27.42 93.85,27.42 93.85,27.44 94.1,27.44 94.1,27.45 94.36,27.45 94.36,27.53 94.61,27.53 94.61,27.53 94.87,27.53 94.87,27.49 95.12,27.49 95.12,27.54 95.38,27.54 95.38,27.44 95.63,27.44 95.63,27.62 95.88,27.62 95.88,27.61 96.14,27.61 96.14,27.6 96.39,27.6 96.39,27.78 96.65,27.78 96.65,27.77 96.9,27.77 96.9,27.87 97.15,27.87 97.15,27.78 97.41,27.78 97.41,27.81 97.66,27.81 97.66,27.92 97.92,27.92 97.92,27.99 98.17,27.99 98.17,28 98.43,28 98.43,27.97 98.68,27.97 98.68,28.03 98.93,28.03 98.93,28 99.19,28 99.19,28.03 99.44,28.03 99.44,28.01 99.7,28.01 99.7,27.95 99.95,27.95 99.95,28.07 100.2,28.07 100.2,28.05 100.46,28.05 100.46,28.05 100.71,28.05 100.71,28.07 100.97,28.07 100.97,28.13 101.22,28.13 101.22,28.07 101.48,28.07 101.48,28 " class="primitive"/>
            </g>
          </g>
        </g>
      </g>
    </g>
  </g>
  <g class="guide ylabels" font-size="2.82" font-family="'PT Sans Caption','Helvetica Neue','Helvetica',sans-serif" fill="#6C606B" id="img-b48157a6-35">
    <g transform="translate(17.03,59.87)" id="img-b48157a6-36">
      <g class="primitive">
        <text text-anchor="end" dy="0.35em">0</text>
      </g>
    </g>
    <g transform="translate(17.03,30.01)" id="img-b48157a6-37">
      <g class="primitive">
        <text text-anchor="end" dy="0.35em">50000</text>
      </g>
    </g>
  </g>
  <g font-size="3.18" font-family="'PT Sans','Helvetica Neue','Helvetica',sans-serif" fill="#202020" stroke="#000000" stroke-opacity="0.000" id="img-b48157a6-38">
    <g transform="translate(4.18,29.29)" id="img-b48157a6-39">
      <g class="primitive">
        <text text-anchor="middle" dy="0.35em" transform="rotate(-90,0, 2)">Counts</text>
      </g>
    </g>
  </g>
</g>
<defs>
  <clipPath id="img-b48157a6-15">
    <path d="M18.03,0.71 L225.39,0.71 225.39,61.87 18.03,61.87 " />
  </clipPath>
</defs>
</svg>
