<?xml version="1.0" encoding="UTF-8"?>
<svg xmlns="http://www.w3.org/2000/svg"
     xmlns:xlink="http://www.w3.org/1999/xlink"
     xmlns:gadfly="http://www.gadflyjl.org/ns"
     version="1.2"
     width="254mm" height="76.2mm" viewBox="0 0 254 76.2"
     stroke="none"
     fill="#000000"
     stroke-width="0.3"
     font-size="3.88"
>
<defs>
  <marker id="arrow" markerWidth="15" markerHeight="7" refX="5" refY="3.5" orient="auto" markerUnits="strokeWidth">
    <path d="M0,0 L15,3.5 L0,7 z" stroke="context-stroke" fill="context-stroke"/>
  </marker>
</defs>
<g class="plotroot xscalable yscalable" id="img-12a90cb8-1">
  <g font-size="3.18" font-family="'PT Sans','Helvetica Neue','Helvetica',sans-serif" fill="#202020" stroke="#000000" stroke-opacity="0.000" id="img-12a90cb8-2">
    <g transform="translate(120.89,69.54)">
      <g class="primitive">
        <text text-anchor="middle" dy="0.6em">Energy (eV)</text>
      </g>
    </g>
  </g>
  <g class="guide xlabels" font-size="2.82" font-family="'PT Sans Caption','Helvetica Neue','Helvetica',sans-serif" fill="#6C606B" id="img-12a90cb8-3">
    <g transform="translate(20.03,62.87)">
      <g class="primitive">
        <text text-anchor="middle" dy="0.6em">0</text>
      </g>
    </g>
    <g transform="translate(70.46,62.87)">
      <g class="primitive">
        <text text-anchor="middle" dy="0.6em">2000</text>
      </g>
    </g>
    <g transform="translate(120.89,62.87)">
      <g class="primitive">
        <text text-anchor="middle" dy="0.6em">4000</text>
      </g>
    </g>
    <g transform="translate(171.33,62.87)">
      <g class="primitive">
        <text text-anchor="middle" dy="0.6em">6000</text>
      </g>
    </g>
    <g transform="translate(221.76,62.87)">
      <g class="primitive">
        <text text-anchor="middle" dy="0.6em">8000</text>
      </g>
    </g>
  </g>
  <g class="guide colorkey" id="img-12a90cb8-4">
    <g fill="#4C404B" font-size="2.82" font-family="'PT Sans','Helvetica Neue','Helvetica',sans-serif" id="img-12a90cb8-5">
      <g transform="translate(228.39,31.7)" id="img-12a90cb8-6">
        <g class="primitive">
          <text dy="0.35em">Fe std</text>
        </g>
      </g>
      <g transform="translate(228.39,35.33)" id="img-12a90cb8-7">
        <g class="primitive">
          <text dy="0.35em">Brem[Global][Fe std]</text>
        </g>
      </g>
    </g>
    <g stroke-width="0.3" id="img-12a90cb8-8">
      <g stroke="#FFFFFF" fill-opacity="1" fill="#B70002" id="img-12a90cb8-9">
        <g transform="translate(225.57,35.33)" id="img-12a90cb8-10">
          <circle cx="0" cy="0" r="0.9" class="primitive"/>
        </g>
      </g>
      <g stroke="#FFFFFF" fill-opacity="1" fill="#104E8B" id="img-12a90cb8-11">
        <g transform="translate(225.57,31.7)" id="img-12a90cb8-12">
          <circle cx="0" cy="0" r="0.9" class="primitive"/>
        </g>
      </g>
    </g>
    <g fill="#362A35" font-size="3.18" font-family="'PT Sans','Helvetica Neue','Helvetica',sans-serif" stroke="#000000" stroke-opacity="0.000" id="img-12a90cb8-13">
      <g transform="translate(224.76,28.39)" id="img-12a90cb8-14">
        <g class="primitive">
          <text dy="-0em">Spectra</text>
        </g>
      </g>
    </g>
  </g>
  <g clip-path="url(#img-12a90cb8-15)">
    <g id="img-12a90cb8-16">
      <g pointer-events="visible" stroke-width="0.3" fill="#FDFDF1" stroke="#202020" class="guide background" id="img-12a90cb8-17">
        <g transform="translate(120.89,31.29)" id="img-12a90cb8-18">
          <path d="M-102.87,-30.58 L 102.87 -30.58 102.87 30.58 -102.87 30.58 z" class="primitive"/>
        </g>
      </g>
      <g class="guide ygridlines xfixed" stroke-dasharray="none" stroke-width="0.2" stroke="#FFDFDF" id="img-12a90cb8-19">
        <g transform="translate(120.89,59.87)" id="img-12a90cb8-20">
          <path fill="none" d="M-102.87,0 L 102.87 0" class="primitive"/>
        </g>
        <g transform="translate(120.89,43.65)" id="img-12a90cb8-21">
          <path fill="none" d="M-102.87,0 L 102.87 0" class="primitive"/>
        </g>
        <g transform="translate(120.89,27.43)" id="img-12a90cb8-22">
          <path fill="none" d="M-102.87,0 L 102.87 0" class="primitive"/>
        </g>
        <g transform="translate(120.89,11.21)" id="img-12a90cb8-23">
          <path fill="none" d="M-102.87,0 L 102.87 0" class="primitive"/>
        </g>
      </g>
      <g class="guide xgridlines yfixed" stroke-dasharray="none" stroke-width="0.2" stroke="#FFDFDF" id="img-12a90cb8-24">
        <g transform="translate(20.03,31.29)" id="img-12a90cb8-25">
          <path fill="none" d="M0,-30.58 L 0 30.58" class="primitive"/>
        </g>
        <g transform="translate(70.46,31.29)" id="img-12a90cb8-26">
          <path fill="none" d="M0,-30.58 L 0 30.58" class="primitive"/>
        </g>
        <g transform="translate(120.89,31.29)" id="img-12a90cb8-27">
          <path fill="none" d="M0,-30.58 L 0 30.58" class="primitive"/>
        </g>
        <g transform="translate(171.33,31.29)" id="img-12a90cb8-28">
          <path fill="none" d="M0,-30.58 L 0 30.58" class="primitive"/>
        </g>
        <g transform="translate(221.76,31.29)" id="img-12a90cb8-29">
          <path fill="none" d="M0,-30.58 L 0 30.58" class="primitive"/>
        </g>
      </g>
      <g class="plotpanel" id="img-12a90cb8-30">
        <metadata>
          <boundingbox value="18.027222222222242mm 0.7055555555555555mm 205.73388888888888mm 61.16055555555556mm"/>
          <unitbox value="-79.31240550670438 72953.3328873835 8158.624811013409 -75419.615774767"/>
        </metadata>
        <g stroke-width="0.3" fill="#000000" fill-opacity="0.000" class="geometry" id="img-12a90cb8-31">
          <g class="color_RGB{Float64}(0.7186016914382806,8.086625054816313e-7,0.0097916074077615)" stroke-dasharray="none" stroke="#B70002" id="img-12a90cb8-32">
            <g transform="translate(120.86,39.94)" id="img-12a90cb8-33">
              <path fill="none" d="M-100.79,19.93 L -100.54 19.93 -100.54 19.93 -100.29 19.93 -100.29 19.93 -100.03 19.93 -100.03 19.93 -99.78 19.93 -99.78 19.93 -99.53 19.93 -99.53 19.93 -99.28 19.93 -99.28 19.93 -99.02 19.93 -99.02 19.93 -98.77 19.93 -98.77 19.93 -98.52 19.93 -98.52 19.93 -98.27 19.93 -98.27 19.93 -98.02 19.93 -98.02 19.93 -97.76 19.93 -97.76 19.93 -97.51 19.93 -97.51 19.93 -97.26 19.93 -97.26 19.93 -97.01 19.93 -97.01 19.93 -96.76 19.93 -96.76 19.93 -96.5 19.93 -96.5 19.93 -96.25 19.93 -96.25 19.92 -96 19.92 -96 19.9 -95.75 19.9 -95.75 19.83 -95.49 19.83 -95.49 19.56 -95.24 19.56 -95.24 18.87 -94.99 18.87 -94.99 17.36 -94.74 17.36 -94.74 14.6 -94.49 14.6 -94.49 10.24 -94.23 10.24 -94.23 4.34 -93.98 4.34 -93.98 -1.51 -93.73 -1.51 -93.73 -2.91 -93.48 -2.91 -93.48 1.31 -93.23 1.31 -93.23 7.35 -92.97 7.35 -92.97 8.55 -92.72 8.55 -92.72 5.49 -92.47 5.49 -92.47 2.81 -92.22 2.81 -92.22 -0.01 -91.96 -0.01 -91.96 -1.9 -91.71 -1.9 -91.71 -3.42 -91.46 -3.42 -91.46 -5.34 -91.21 -5.34 -91.21 -7.49 -90.96 -7.49 -90.96 -8.84 -90.7 -8.84 -90.7 -7.76 -90.45 -7.76 -90.45 -8.8 -90.2 -8.8 -90.2 -12.56 -89.95 -12.56 -89.95 -14.35 -89.7 -14.35 -89.7 -15.01 -89.44 -15.01 -89.44 -15.53 -89.19 -15.53 -89.19 -16.12 -88.94 -16.12 -88.94 -16.78 -88.69 -16.78 -88.69 -17.73 -88.43 -17.73 -88.43 -19.02 -88.18 -19.02 -88.18 -20.55 -87.93 -20.55 -87.93 -22.17 -87.68 -22.17 -87.68 -19.85 -87.43 -19.85 -87.43 -15.21 -87.17 -15.21 -87.17 -16.16 -86.92 -16.16 -86.92 -19.95 -86.67 -19.95 -86.67 -22.19 -86.42 -22.19 -86.42 -23.88 -86.17 -23.88 -86.17 -25.46 -85.91 -25.46 -85.91 -27.08 -85.66 -27.08 -85.66 -28.64 -85.41 -28.64 -85.41 -29.97 -85.16 -29.97 -85.16 -31.12 -84.91 -31.12 -84.91 -32.18 -84.65 -32.18 -84.65 -33.03 -84.4 -33.03 -84.4 -33.38 -84.15 -33.38 -84.15 -32.85 -83.9 -32.85 -83.9 -31.02 -83.64 -31.02 -83.64 -27.57 -83.39 -27.57 -83.39 -22.24 -83.14 -22.24 -83.14 -15.45 -82.89 -15.45 -82.89 -7.97 -82.64 -7.97 -82.64 -0.54 -82.38 -0.54 -82.38 5.99 -82.13 5.99 -82.13 11.07 -81.88 11.07 -81.88 14.48 -81.63 14.48 -81.63 16.31 -81.38 16.31 -81.38 16.79 -81.12 16.79 -81.12 16.23 -80.87 16.23 -80.87 14.93 -80.62 14.93 -80.62 13.16 -80.37 13.16 -80.37 11.22 -80.11 11.22 -80.11 9.38 -79.86 9.38 -79.86 7.84 -79.61 7.84 -79.61 6.72 -79.36 6.72 -79.36 6.01 -79.11 6.01 -79.11 5.63 -78.85 5.63 -78.85 5.47 -78.6 5.47 -78.6 5.42 -78.35 5.42 -78.35 5.39 -78.1 5.39 -78.1 5.32 -77.85 5.32 -77.85 5.18 -77.59 5.18 -77.59 5 -77.34 5 -77.34 4.81 -77.09 4.81 -77.09 4.58 -76.84 4.58 -76.84 4.33 -76.58 4.33 -76.58 4.07 -76.33 4.07 -76.33 3.81 -76.08 3.81 -76.08 3.55 -75.83 3.55 -75.83 3.28 -75.58 3.28 -75.58 3.01 -75.32 3.01 -75.32 2.74 -75.07 2.74 -75.07 2.47 -74.82 2.47 -74.82 2.2 -74.57 2.2 -74.57 1.92 -74.32 1.92 -74.32 1.65 -74.06 1.65 -74.06 1.38 -73.81 1.38 -73.81 1.11 -73.56 1.11 -73.56 0.84 -73.31 0.84 -73.31 0.57 -73.05 0.57 -73.05 0.31 -72.8 0.31 -72.8 0.05 -72.55 0.05 -72.55 -0.21 -72.3 -0.21 -72.3 -0.48 -72.05 -0.48 -72.05 -0.75 -71.79 -0.75 -71.79 -1.01 -71.54 -1.01 -71.54 -1.26 -71.29 -1.26 -71.29 -1.5 -71.04 -1.5 -71.04 -1.74 -70.79 -1.74 -70.79 -1.92 -70.53 -1.92 -70.53 -2.04 -70.28 -2.04 -70.28 -2.08 -70.03 -2.08 -70.03 -2 -69.78 -2 -69.78 -1.83 -69.53 -1.83 -69.53 -1.57 -69.27 -1.57 -69.27 -1.23 -69.02 -1.23 -69.02 -0.89 -68.77 -0.89 -68.77 -0.62 -68.52 -0.62 -68.52 -0.42 -68.26 -0.42 -68.26 -0.31 -68.01 -0.31 -68.01 -0.3 -67.76 -0.3 -67.76 -0.37 -67.51 -0.37 -67.51 -0.51 -67.26 -0.51 -67.26 -0.68 -67 -0.68 -67 -0.88 -66.75 -0.88 -66.75 -1.1 -66.5 -1.1 -66.5 -1.33 -66.25 -1.33 -66.25 -1.56 -66 -1.56 -66 -1.8 -65.74 -1.8 -65.74 -2.04 -65.49 -2.04 -65.49 -2.26 -65.24 -2.26 -65.24 -2.49 -64.99 -2.49 -64.99 -2.72 -64.73 -2.72 -64.73 -2.96 -64.48 -2.96 -64.48 -3.17 -64.23 -3.17 -64.23 -3.39 -63.98 -3.39 -63.98 -3.62 -63.73 -3.62 -63.73 -3.83 -63.47 -3.83 -63.47 -4.04 -63.22 -4.04 -63.22 -4.26 -62.97 -4.26 -62.97 -4.48 -62.72 -4.48 -62.72 -4.69 -62.47 -4.69 -62.47 -4.89 -62.21 -4.89 -62.21 -5.1 -61.96 -5.1 -61.96 -5.22 -61.71 -5.22 -61.71 -4.91 -61.46 -4.91 -61.46 -4.54 -61.2 -4.54 -61.2 -4.74 -60.95 -4.74 -60.95 -5.05 -60.7 -5.05 -60.7 -5.23 -60.45 -5.23 -60.45 -5.47 -60.2 -5.47 -60.2 -5.73 -59.94 -5.73 -59.94 -5.91 -59.69 -5.91 -59.69 -6.04 -59.44 -6.04 -59.44 -6.21 -59.19 -6.21 -59.19 -6.43 -58.94 -6.43 -58.94 -6.62 -58.68 -6.62 -58.68 -6.76 -58.43 -6.76 -58.43 -6.9 -58.18 -6.9 -58.18 -7.06 -57.93 -7.06 -57.93 -7.23 -57.67 -7.23 -57.67 -7.4 -57.42 -7.4 -57.42 -7.56 -57.17 -7.56 -57.17 -7.7 -56.92 -7.7 -56.92 -7.85 -56.67 -7.85 -56.67 -7.99 -56.41 -7.99 -56.41 -8.13 -56.16 -8.13 -56.16 -8.28 -55.91 -8.28 -55.91 -8.41 -55.66 -8.41 -55.66 -8.54 -55.41 -8.54 -55.41 -8.66 -55.15 -8.66 -55.15 -8.79 -54.9 -8.79 -54.9 -8.92 -54.65 -8.92 -54.65 -8.98 -54.4 -8.98 -54.4 -8.77 -54.15 -8.77 -54.15 -8.62 -53.89 -8.62 -53.89 -8.72 -53.64 -8.72 -53.64 -8.83 -53.39 -8.83 -53.39 -8.94 -53.14 -8.94 -53.14 -9.03 -52.88 -9.03 -52.88 -9.12 -52.63 -9.12 -52.63 -9.22 -52.38 -9.22 -52.38 -9.32 -52.13 -9.32 -52.13 -9.42 -51.88 -9.42 -51.88 -9.51 -51.62 -9.51 -51.62 -9.6 -51.37 -9.6 -51.37 -9.69 -51.12 -9.69 -51.12 -9.78 -50.87 -9.78 -50.87 -9.86 -50.62 -9.86 -50.62 -9.94 -50.36 -9.94 -50.36 -10.02 -50.11 -10.02 -50.11 -10.1 -49.86 -10.1 -49.86 -10.17 -49.61 -10.17 -49.61 -10.24 -49.35 -10.24 -49.35 -10.31 -49.1 -10.31 -49.1 -10.37 -48.85 -10.37 -48.85 -10.44 -48.6 -10.44 -48.6 -10.5 -48.35 -10.5 -48.35 -10.55 -48.09 -10.55 -48.09 -10.61 -47.84 -10.61 -47.84 -10.66 -47.59 -10.66 -47.59 -10.71 -47.34 -10.71 -47.34 -10.76 -47.09 -10.76 -47.09 -10.81 -46.83 -10.81 -46.83 -10.85 -46.58 -10.85 -46.58 -10.89 -46.33 -10.89 -46.33 -10.93 -46.08 -10.93 -46.08 -10.97 -45.82 -10.97 -45.82 -11.01 -45.57 -11.01 -45.57 -11.04 -45.32 -11.04 -45.32 -11.07 -45.07 -11.07 -45.07 -11.1 -44.82 -11.1 -44.82 -11.13 -44.56 -11.13 -44.56 -11.15 -44.31 -11.15 -44.31 -11.18 -44.06 -11.18 -44.06 -11.2 -43.81 -11.2 -43.81 -11.22 -43.56 -11.22 -43.56 -11.23 -43.3 -11.23 -43.3 -11.25 -43.05 -11.25 -43.05 -11.26 -42.8 -11.26 -42.8 -11.28 -42.55 -11.28 -42.55 -11.29 -42.29 -11.29 -42.29 -11.3 -42.04 -11.3 -42.04 -11.3 -41.79 -11.3 -41.79 -11.31 -41.54 -11.31 -41.54 -11.31 -41.29 -11.31 -41.29 -11.31 -41.03 -11.31 -41.03 -11.31 -40.78 -11.31 -40.78 -11.31 -40.53 -11.31 -40.53 -11.31 -40.28 -11.31 -40.28 -11.31 -40.03 -11.31 -40.03 -11.3 -39.77 -11.3 -39.77 -11.3 -39.52 -11.3 -39.52 -11.29 -39.27 -11.29 -39.27 -11.28 -39.02 -11.28 -39.02 -11.27 -38.77 -11.27 -38.77 -11.26 -38.51 -11.26 -38.51 -11.24 -38.26 -11.24 -38.26 -11.23 -38.01 -11.23 -38.01 -11.21 -37.76 -11.21 -37.76 -11.19 -37.5 -11.19 -37.5 -11.18 -37.25 -11.18 -37.25 -11.16 -37 -11.16 -37 -11.14 -36.75 -11.14 -36.75 -11.11 -36.5 -11.11 -36.5 -11.09 -36.24 -11.09 -36.24 -11.07 -35.99 -11.07 -35.99 -11.04 -35.74 -11.04 -35.74 -11.02 -35.49 -11.02 -35.49 -10.99 -35.24 -10.99 -35.24 -10.96 -34.98 -10.96 -34.98 -10.93 -34.73 -10.93 -34.73 -10.9 -34.48 -10.9 -34.48 -10.87 -34.23 -10.87 -34.23 -10.84 -33.97 -10.84 -33.97 -10.81 -33.72 -10.81 -33.72 -10.77 -33.47 -10.77 -33.47 -10.74 -33.22 -10.74 -33.22 -10.71 -32.97 -10.71 -32.97 -10.67 -32.71 -10.67 -32.71 -10.63 -32.46 -10.63 -32.46 -10.6 -32.21 -10.6 -32.21 -10.56 -31.96 -10.56 -31.96 -10.52 -31.71 -10.52 -31.71 -10.48 -31.45 -10.48 -31.45 -10.44 -31.2 -10.44 -31.2 -10.4 -30.95 -10.4 -30.95 -10.36 -30.7 -10.36 -30.7 -10.32 -30.44 -10.32 -30.44 -10.28 -30.19 -10.28 -30.19 -10.23 -29.94 -10.23 -29.94 -10.19 -29.69 -10.19 -29.69 -10.15 -29.44 -10.15 -29.44 -10.1 -29.18 -10.1 -29.18 -10.06 -28.93 -10.06 -28.93 -10.01 -28.68 -10.01 -28.68 -9.96 -28.43 -9.96 -28.43 -9.92 -28.18 -9.92 -28.18 -9.87 -27.92 -9.87 -27.92 -9.83 -27.67 -9.83 -27.67 -9.78 -27.42 -9.78 -27.42 -9.73 -27.17 -9.73 -27.17 -9.69 -26.91 -9.69 -26.91 -9.64 -26.66 -9.64 -26.66 -9.59 -26.41 -9.59 -26.41 -9.54 -26.16 -9.54 -26.16 -9.5 -25.91 -9.5 -25.91 -9.45 -25.65 -9.45 -25.65 -9.4 -25.4 -9.4 -25.4 -9.35 -25.15 -9.35 -25.15 -9.3 -24.9 -9.3 -24.9 -9.25 -24.65 -9.25 -24.65 -9.2 -24.39 -9.2 -24.39 -9.15 -24.14 -9.15 -24.14 -9.1 -23.89 -9.1 -23.89 -9.05 -23.64 -9.05 -23.64 -9 -23.39 -9 -23.39 -8.95 -23.13 -8.95 -23.13 -8.9 -22.88 -8.9 -22.88 -8.84 -22.63 -8.84 -22.63 -8.79 -22.38 -8.79 -22.38 -8.74 -22.12 -8.74 -22.12 -8.69 -21.87 -8.69 -21.87 -8.63 -21.62 -8.63 -21.62 -8.58 -21.37 -8.58 -21.37 -8.53 -21.12 -8.53 -21.12 -8.48 -20.86 -8.48 -20.86 -8.42 -20.61 -8.42 -20.61 -8.37 -20.36 -8.37 -20.36 -8.31 -20.11 -8.31 -20.11 -8.26 -19.86 -8.26 -19.86 -8.21 -19.6 -8.21 -19.6 -8.15 -19.35 -8.15 -19.35 -8.1 -19.1 -8.1 -19.1 -8.04 -18.85 -8.04 -18.85 -7.98 -18.59 -7.98 -18.59 -7.93 -18.34 -7.93 -18.34 -7.87 -18.09 -7.87 -18.09 -7.82 -17.84 -7.82 -17.84 -7.76 -17.59 -7.76 -17.59 -7.7 -17.33 -7.7 -17.33 -7.65 -17.08 -7.65 -17.08 -7.59 -16.83 -7.59 -16.83 -7.53 -16.58 -7.53 -16.58 -7.48 -16.33 -7.48 -16.33 -7.42 -16.07 -7.42 -16.07 -7.36 -15.82 -7.36 -15.82 -7.3 -15.57 -7.3 -15.57 -7.25 -15.32 -7.25 -15.32 -7.19 -15.06 -7.19 -15.06 -7.13 -14.81 -7.13 -14.81 -7.07 -14.56 -7.07 -14.56 -7.02 -14.31 -7.02 -14.31 -6.96 -14.06 -6.96 -14.06 -6.9 -13.8 -6.9 -13.8 -6.84 -13.55 -6.84 -13.55 -6.78 -13.3 -6.78 -13.3 -6.72 -13.05 -6.72 -13.05 -6.67 -12.8 -6.67 -12.8 -6.61 -12.54 -6.61 -12.54 -6.55 -12.29 -6.55 -12.29 -6.49 -12.04 -6.49 -12.04 -6.43 -11.79 -6.43 -11.79 -6.37 -11.53 -6.37 -11.53 -6.31 -11.28 -6.31 -11.28 -6.25 -11.03 -6.25 -11.03 -6.19 -10.78 -6.19 -10.78 -6.13 -10.53 -6.13 -10.53 -6.07 -10.27 -6.07 -10.27 -6.02 -10.02 -6.02 -10.02 -5.96 -9.77 -5.96 -9.77 -5.9 -9.52 -5.9 -9.52 -5.84 -9.27 -5.84 -9.27 -5.78 -9.01 -5.78 -9.01 -5.72 -8.76 -5.72 -8.76 -5.66 -8.51 -5.66 -8.51 -5.6 -8.26 -5.6 -8.26 -5.54 -8.01 -5.54 -8.01 -5.48 -7.75 -5.48 -7.75 -5.42 -7.5 -5.42 -7.5 -5.36 -7.25 -5.36 -7.25 -5.3 -7 -5.3 -7 -5.24 -6.74 -5.24 -6.74 -5.18 -6.49 -5.18 -6.49 -5.12 -6.24 -5.12 -6.24 -5.06 -5.99 -5.06 -5.99 -5 -5.74 -5 -5.74 -4.94 -5.48 -4.94 -5.48 -4.89 -5.23 -4.89 -5.23 -4.83 -4.98 -4.83 -4.98 -4.77 -4.73 -4.77 -4.73 -4.71 -4.48 -4.71 -4.48 -4.65 -4.22 -4.65 -4.22 -4.59 -3.97 -4.59 -3.97 -4.53 -3.72 -4.53 -3.72 -4.47 -3.47 -4.47 -3.47 -4.41 -3.21 -4.41 -3.21 -4.35 -2.96 -4.35 -2.96 -4.29 -2.71 -4.29 -2.71 -4.23 -2.46 -4.23 -2.46 -4.18 -2.21 -4.18 -2.21 -4.12 -1.95 -4.12 -1.95 -4.06 -1.7 -4.06 -1.7 -4 -1.45 -4 -1.45 -3.94 -1.2 -3.94 -1.2 -3.88 -0.95 -3.88 -0.95 -3.82 -0.69 -3.82 -0.69 -3.76 -0.44 -3.76 -0.44 -3.71 -0.19 -3.71 -0.19 -3.65 0.06 -3.65 0.06 -3.59 0.32 -3.59 0.32 -3.53 0.57 -3.53 0.57 -3.47 0.82 -3.47 0.82 -3.42 1.07 -3.42 1.07 -3.36 1.32 -3.36 1.32 -3.3 1.58 -3.3 1.58 -3.24 1.83 -3.24 1.83 -3.18 2.08 -3.18 2.08 -3.13 2.33 -3.13 2.33 -3.07 2.58 -3.07 2.58 -3.01 2.84 -3.01 2.84 -2.95 3.09 -2.95 3.09 -2.9 3.34 -2.9 3.34 -2.84 3.59 -2.84 3.59 -2.78 3.85 -2.78 3.85 -2.73 4.1 -2.73 4.1 -2.67 4.35 -2.67 4.35 -2.61 4.6 -2.61 4.6 -2.56 4.85 -2.56 4.85 -2.5 5.11 -2.5 5.11 -2.44 5.36 -2.44 5.36 -2.39 5.61 -2.39 5.61 -2.33 5.86 -2.33 5.86 -2.27 6.11 -2.27 6.11 -2.22 6.37 -2.22 6.37 -2.16 6.62 -2.16 6.62 -2.11 6.87 -2.11 6.87 -2.05 7.12 -2.05 7.12 -2 7.37 -2 7.37 -1.94 7.63 -1.94 7.63 -1.89 7.88 -1.89 7.88 -1.83 8.13 -1.83 8.13 -1.77 8.38 -1.77 8.38 -1.72 8.64 -1.72 8.64 -1.66 8.89 -1.66 8.89 -1.61 9.14 -1.61 9.14 -1.56 9.39 -1.56 9.39 -1.5 9.64 -1.5 9.64 -1.45 9.9 -1.45 9.9 -1.39 10.15 -1.39 10.15 -1.34 10.4 -1.34 10.4 -1.28 10.65 -1.28 10.65 -1.23 10.9 -1.23 10.9 -1.18 11.16 -1.18 11.16 -1.12 11.41 -1.12 11.41 -1.07 11.66 -1.07 11.66 -1.02 11.91 -1.02 11.91 -0.96 12.17 -0.96 12.17 -0.91 12.42 -0.91 12.42 -0.86 12.67 -0.86 12.67 -0.8 12.92 -0.8 12.92 -0.75 13.17 -0.75 13.17 -0.7 13.43 -0.7 13.43 -0.65 13.68 -0.65 13.68 -0.59 13.93 -0.59 13.93 -0.54 14.18 -0.54 14.18 -0.49 14.43 -0.49 14.43 -0.44 14.69 -0.44 14.69 -0.38 14.94 -0.38 14.94 -0.33 15.19 -0.33 15.19 -0.28 15.44 -0.28 15.44 -0.23 15.7 -0.23 15.7 -0.18 15.95 -0.18 15.95 -0.13 16.2 -0.13 16.2 -0.08 16.45 -0.08 16.45 -0.03 16.7 -0.03 16.7 0.03 16.96 0.03 16.96 0.08 17.21 0.08 17.21 0.13 17.46 0.13 17.46 0.18 17.71 0.18 17.71 0.23 17.96 0.23 17.96 0.28 18.22 0.28 18.22 0.33 18.47 0.33 18.47 0.38 18.72 0.38 18.72 0.43 18.97 0.43 18.97 0.48 19.23 0.48 19.23 0.53 19.48 0.53 19.48 0.58 19.73 0.58 19.73 0.63 19.98 0.63 19.98 0.68 20.23 0.68 20.23 0.72 20.49 0.72 20.49 0.77 20.74 0.77 20.74 0.82 20.99 0.82 20.99 0.87 21.24 0.87 21.24 0.92 21.49 0.92 21.49 0.97 21.75 0.97 21.75 1.02 22 1.02 22 1.06 22.25 1.06 22.25 1.11 22.5 1.11 22.5 1.16 22.75 1.16 22.75 1.21 23.01 1.21 23.01 1.26 23.26 1.26 23.26 1.3 23.51 1.3 23.51 1.35 23.76 1.35 23.76 1.4 24.02 1.4 24.02 1.45 24.27 1.45 24.27 1.49 24.52 1.49 24.52 1.54 24.77 1.54 24.77 1.59 25.02 1.59 25.02 1.63 25.28 1.63 25.28 1.68 25.53 1.68 25.53 1.73 25.78 1.73 25.78 1.77 26.03 1.77 26.03 1.82 26.28 1.82 26.28 1.86 26.54 1.86 26.54 1.91 26.79 1.91 26.79 1.96 27.04 1.96 27.04 2 27.29 2 27.29 2.05 27.55 2.05 27.55 2.09 27.8 2.09 27.8 2.14 28.05 2.14 28.05 2.18 28.3 2.18 28.3 2.23 28.55 2.23 28.55 2.27 28.81 2.27 28.81 2.32 29.06 2.32 29.06 2.36 29.31 2.36 29.31 2.41 29.56 2.41 29.56 2.45 29.81 2.45 29.81 2.49 30.07 2.49 30.07 2.54 30.32 2.54 30.32 2.58 30.57 2.58 30.57 2.63 30.82 2.63 30.82 2.67 31.08 2.67 31.08 2.71 31.33 2.71 31.33 2.76 31.58 2.76 31.58 2.8 31.83 2.8 31.83 2.84 32.08 2.84 32.08 2.89 32.34 2.89 32.34 2.93 32.59 2.93 32.59 2.97 32.84 2.97 32.84 3.02 33.09 3.02 33.09 3.06 33.34 3.06 33.34 3.1 33.6 3.1 33.6 3.14 33.85 3.14 33.85 3.18 34.1 3.18 34.1 3.23 34.35 3.23 34.35 3.27 34.61 3.27 34.61 3.31 34.86 3.31 34.86 3.35 35.11 3.35 35.11 3.39 35.36 3.39 35.36 3.44 35.61 3.44 35.61 3.48 35.87 3.48 35.87 3.52 36.12 3.52 36.12 3.56 36.37 3.56 36.37 3.6 36.62 3.6 36.62 3.64 36.87 3.64 36.87 3.68 37.13 3.68 37.13 3.72 37.38 3.72 37.38 3.76 37.63 3.76 37.63 3.8 37.88 3.8 37.88 3.85 38.13 3.85 38.13 3.89 38.39 3.89 38.39 3.93 38.64 3.93 38.64 3.97 38.89 3.97 38.89 4.01 39.14 4.01 39.14 4.05 39.4 4.05 39.4 4.09 39.65 4.09 39.65 4.12 39.9 4.12 39.9 4.16 40.15 4.16 40.15 4.2 40.4 4.2 40.4 4.24 40.66 4.24 40.66 4.28 40.91 4.28 40.91 4.32 41.16 4.32 41.16 4.36 41.41 4.36 41.41 4.4 41.66 4.4 41.66 4.44 41.92 4.44 41.92 4.48 42.17 4.48 42.17 4.51 42.42 4.51 42.42 4.55 42.67 4.55 42.67 4.59 42.93 4.59 42.93 4.63 43.18 4.63 43.18 4.67 43.43 4.67 43.43 4.7 43.68 4.7 43.68 4.74 43.93 4.74 43.93 4.78 44.19 4.78 44.19 4.82 44.44 4.82 44.44 4.86 44.69 4.86 44.69 4.89 44.94 4.89 44.94 4.93 45.19 4.93 45.19 4.97 45.45 4.97 45.45 5 45.7 5 45.7 5.04 45.95 5.04 45.95 5.08 46.2 5.08 46.2 5.12 46.46 5.12 46.46 5.15 46.71 5.15 46.71 5.19 46.96 5.19 46.96 5.22 47.21 5.22 47.21 5.26 47.46 5.26 47.46 5.3 47.72 5.3 47.72 5.33 47.97 5.33 47.97 5.37 48.22 5.37 48.22 5.41 48.47 5.41 48.47 5.44 48.72 5.44 48.72 5.48 48.98 5.48 48.98 5.51 49.23 5.51 49.23 5.55 49.48 5.55 49.48 5.58 49.73 5.58 49.73 5.62 49.99 5.62 49.99 5.65 50.24 5.65 50.24 5.69 50.49 5.69 50.49 5.72 50.74 5.72 50.74 5.76 50.99 5.76 50.99 5.79 51.25 5.79 51.25 5.83 51.5 5.83 51.5 5.86 51.75 5.86 51.75 5.9 52 5.9 52 5.93 52.25 5.93 52.25 5.97 52.51 5.97 52.51 6 52.76 6 52.76 6.03 53.01 6.03 53.01 6.07 53.26 6.07 53.26 6.1 53.51 6.1 53.51 6.14 53.77 6.14 53.77 6.17 54.02 6.17 54.02 6.2 54.27 6.2 54.27 6.24 54.52 6.24 54.52 6.27 54.78 6.27 54.78 6.3 55.03 6.3 55.03 6.34 55.28 6.34 55.28 6.37 55.53 6.37 55.53 6.4 55.78 6.4 55.78 6.44 56.04 6.44 56.04 6.47 56.29 6.47 56.29 6.5 56.54 6.5 56.54 6.53 56.79 6.53 56.79 6.57 57.04 6.57 57.04 6.6 57.3 6.6 57.3 6.63 57.55 6.63 57.55 6.66 57.8 6.66 57.8 6.7 58.05 6.7 58.05 6.73 58.31 6.73 58.31 6.76 58.56 6.76 58.56 6.79 58.81 6.79 58.81 6.82 59.06 6.82 59.06 6.86 59.31 6.86 59.31 6.89 59.57 6.89 59.57 6.92 59.82 6.92 59.82 6.95 60.07 6.95 60.07 6.98 60.32 6.98 60.32 7.01 60.57 7.01 60.57 7.05 60.83 7.05 60.83 7.08 61.08 7.08 61.08 7.11 61.33 7.11 61.33 7.14 61.58 7.14 61.58 7.17 61.84 7.17 61.84 7.2 62.09 7.2 62.09 7.23 62.34 7.23 62.34 7.26 62.59 7.26 62.59 7.29 62.84 7.29 62.84 7.32 63.1 7.32 63.1 7.35 63.35 7.35 63.35 7.38 63.6 7.38 63.6 7.41 63.85 7.41 63.85 7.44 64.1 7.44 64.1 7.47 64.36 7.47 64.36 7.5 64.61 7.5 64.61 7.53 64.86 7.53 64.86 7.56 65.11 7.56 65.11 7.59 65.37 7.59 65.37 7.62 65.62 7.62 65.62 7.65 65.87 7.65 65.87 7.68 66.12 7.68 66.12 7.71 66.37 7.71 66.37 7.74 66.63 7.74 66.63 7.77 66.88 7.77 66.88 7.8 67.13 7.8 67.13 7.83 67.38 7.83 67.38 7.86 67.63 7.86 67.63 7.89 67.89 7.89 67.89 7.92 68.14 7.92 68.14 7.94 68.39 7.94 68.39 7.97 68.64 7.97 68.64 8 68.89 8 68.89 8.03 69.15 8.03 69.15 8.06 69.4 8.06 69.4 8.09 69.65 8.09 69.65 8.12 69.9 8.12 69.9 8.14 70.16 8.14 70.16 8.17 70.41 8.17 70.41 8.2 70.66 8.2 70.66 8.23 70.91 8.23 70.91 8.26 71.16 8.26 71.16 8.28 71.42 8.28 71.42 8.31 71.67 8.31 71.67 8.34 71.92 8.34 71.92 8.37 72.17 8.37 72.17 8.39 72.42 8.39 72.42 8.42 72.68 8.42 72.68 8.45 72.93 8.45 72.93 8.48 73.18 8.48 73.18 8.5 73.43 8.5 73.43 8.53 73.69 8.53 73.69 8.56 73.94 8.56 73.94 8.59 74.19 8.59 74.19 8.61 74.44 8.61 74.44 8.64 74.69 8.64 74.69 8.67 74.95 8.67 74.95 8.7 75.2 8.7 75.2 8.73 75.45 8.73 75.45 8.76 75.7 8.76 75.7 8.8 75.95 8.8 75.95 8.84 76.21 8.84 76.21 8.88 76.46 8.88 76.46 8.93 76.71 8.93 76.71 8.98 76.96 8.98 76.96 9.04 77.22 9.04 77.22 9.11 77.47 9.11 77.47 9.19 77.72 9.19 77.72 9.28 77.97 9.28 77.97 9.38 78.22 9.38 78.22 9.48 78.48 9.48 78.48 9.6 78.73 9.6 78.73 9.71 78.98 9.71 78.98 9.83 79.23 9.83 79.23 9.95 79.48 9.95 79.48 10.06 79.74 10.06 79.74 10.18 79.99 10.18 79.99 10.28 80.24 10.28 80.24 10.37 80.49 10.37 80.49 10.46 80.75 10.46 80.75 10.54 81 10.54 81 10.6 81.25 10.6 81.25 10.66 81.5 10.66 81.5 10.71 81.75 10.71 81.75 10.75 82.01 10.75 82.01 10.78 82.26 10.78 82.26 10.81 82.51 10.81 82.51 10.84 82.76 10.84 82.76 10.86 83.01 10.86 83.01 10.88 83.27 10.88 83.27 10.9 83.52 10.9 83.52 10.92 83.77 10.92 83.77 10.94 84.02 10.94 84.02 10.95 84.27 10.95 84.27 10.97 84.53 10.97 84.53 10.99 84.78 10.99 84.78 11 85.03 11 85.03 11.02 85.28 11.02 85.28 11.03 85.54 11.03 85.54 11.05 85.79 11.05 85.79 11.07 86.04 11.07 86.04 11.08 86.29 11.08 86.29 11.1 86.54 11.1 86.54 11.12 86.8 11.12 86.8 11.13 87.05 11.13 87.05 11.15 87.3 11.15 87.3 11.16 87.55 11.16 87.55 11.18 87.8 11.18 87.8 11.2 88.06 11.2 88.06 11.21 88.31 11.21 88.31 11.23 88.56 11.23 88.56 11.24 88.81 11.24 88.81 11.26 89.07 11.26 89.07 11.28 89.32 11.28 89.32 11.29 89.57 11.29 89.57 11.31 89.82 11.31 89.82 11.33 90.07 11.33 90.07 11.34 90.33 11.34 90.33 11.36 90.58 11.36 90.58 11.37 90.83 11.37 90.83 11.39 91.08 11.39 91.08 11.41 91.33 11.41 91.33 11.42 91.59 11.42 91.59 11.44 91.84 11.44 91.84 11.45 92.09 11.45 92.09 11.47 92.34 11.47 92.34 11.49 92.6 11.49 92.6 11.5 92.85 11.5 92.85 11.52 93.1 11.52 93.1 11.53 93.35 11.53 93.35 11.55 93.6 11.55 93.6 11.57 93.86 11.57 93.86 11.58 94.11 11.58 94.11 11.6 94.36 11.6 94.36 11.61 94.61 11.61 94.61 11.63 94.86 11.63 94.86 11.65 95.12 11.65 95.12 11.66 95.37 11.66 95.37 11.68 95.62 11.68 95.62 11.69 95.87 11.69 95.87 11.71 96.13 11.71 96.13 11.73 96.38 11.73 96.38 11.74 96.63 11.74 96.63 11.76 96.88 11.76 96.88 11.77 97.13 11.77 97.13 11.79 97.39 11.79 97.39 11.81 97.64 11.81 97.64 11.82 97.89 11.82 97.89 11.84 98.14 11.84 98.14 11.85 98.39 11.85 98.39 11.87 98.65 11.87 98.65 11.88 98.9 11.88 98.9 11.9 99.15 11.9 99.15 11.92 99.4 11.92 99.4 11.93 99.65 11.93 99.65 11.95 99.91 11.95 99.91 11.96 100.16 11.96 100.16 11.98 100.41 11.98 100.41 12 100.66 12 100.66 12.01" class="primitive"/>
            </g>
          </g>
        </g>
        <g stroke-width="0.3" fill="#000000" fill-opacity="0.000" class="geometry" id="img-12a90cb8-34">
          <g class="color_RGB{Float64}(0.06274509803921569,0.3058823529411765,0.5450980392156862)" stroke-dasharray="none" stroke="#104E8B" id="img-12a90cb8-35">
            <g transform="translate(120.86,8.52)" id="img-12a90cb8-36">
              <path fill="none" d="M-100.79,51.32 L -100.54 51.32 -100.54 51.32 -100.29 51.32 -100.29 51.33 -100.03 51.33 -100.03 51.33 -99.78 51.33 -99.78 51.33 -99.53 51.33 -99.53 51.33 -99.28 51.33 -99.28 51.34 -99.02 51.34 -99.02 51.34 -98.77 51.34 -98.77 51.34 -98.52 51.34 -98.52 51.34 -98.27 51.34 -98.27 51.34 -98.02 51.34 -98.02 51.33 -97.76 51.33 -97.76 51.33 -97.51 51.33 -97.51 51.3 -97.26 51.3 -97.26 51.28 -97.01 51.28 -97.01 51.24 -96.76 51.24 -96.76 51.15 -96.5 51.15 -96.5 51 -96.25 51 -96.25 50.72 -96 50.72 -96 50.22 -95.75 50.22 -95.75 49.23 -95.49 49.23 -95.49 47.46 -95.24 47.46 -95.24 44.41 -94.99 44.41 -94.99 39.23 -94.74 39.23 -94.74 32.36 -94.49 32.36 -94.49 24.43 -94.23 24.43 -94.23 17.68 -93.98 17.68 -93.98 15.23 -93.73 15.23 -93.73 17.91 -93.48 17.91 -93.48 23.99 -93.23 23.99 -93.23 31.05 -92.97 31.05 -92.97 36.41 -92.72 36.41 -92.72 39.6 -92.47 39.6 -92.47 41.18 -92.22 41.18 -92.22 41.23 -91.96 41.23 -91.96 40.8 -91.71 40.8 -91.71 39.95 -91.46 39.95 -91.46 39.25 -91.21 39.25 -91.21 38.49 -90.96 38.49 -90.96 37.58 -90.7 37.58 -90.7 37.04 -90.45 37.04 -90.45 36.07 -90.2 36.07 -90.2 34.74 -89.95 34.74 -89.95 33.49 -89.7 33.49 -89.7 31.62 -89.44 31.62 -89.44 29.59 -89.19 29.59 -89.19 27.37 -88.94 27.37 -88.94 24.47 -88.69 24.47 -88.69 21.02 -88.43 21.02 -88.43 17.68 -88.18 17.68 -88.18 13.7 -87.93 13.7 -87.93 10.96 -87.68 10.96 -87.68 7.78 -87.43 7.78 -87.43 4.73 -87.17 4.73 -87.17 -1.7 -86.92 -1.7 -86.92 -12.98 -86.67 -12.98 -86.67 -34.15 -86.42 -34.15 -86.42 -66.91 -86.17 -66.91 -86.17 -109.87 -85.91 -109.87 -85.91 -157.01 -85.66 -157.01 -85.66 -197.82 -85.41 -197.82 -85.41 -220.75 -85.16 -220.75 -85.16 -224.89 -84.91 -224.89 -84.91 -217.64 -84.65 -217.64 -84.65 -216.1 -84.4 -216.1 -84.4 -241.1 -84.15 -241.1 -84.15 -305.05 -83.9 -305.05 -83.9 -405.31 -83.64 -405.31 -83.64 -516.25 -83.39 -516.25 -83.39 -603.48 -83.14 -603.48 -83.14 -630.88 -82.89 -630.88 -82.89 -581.36 -82.64 -581.36 -82.64 -474.49 -82.38 -474.49 -82.38 -337.71 -82.13 -337.71 -82.13 -210.06 -81.88 -210.06 -81.88 -109.19 -81.63 -109.19 -81.63 -42.76 -81.38 -42.76 -81.38 -3.61 -81.12 -3.61 -81.12 17.06 -80.87 17.06 -80.87 27.3 -80.62 27.3 -80.62 32.37 -80.37 32.37 -80.37 35.39 -80.11 35.39 -80.11 37.32 -79.86 37.32 -79.86 38.48 -79.61 38.48 -79.61 39.18 -79.36 39.18 -79.36 39.78 -79.11 39.78 -79.11 40.07 -78.85 40.07 -78.85 40.32 -78.6 40.32 -78.6 40.29 -78.35 40.29 -78.35 40.38 -78.1 40.38 -78.1 40.37 -77.85 40.37 -77.85 40.1 -77.59 40.1 -77.59 39.99 -77.34 39.99 -77.34 39.66 -77.09 39.66 -77.09 39.42 -76.84 39.42 -76.84 39.33 -76.58 39.33 -76.58 39.23 -76.33 39.23 -76.33 38.78 -76.08 38.78 -76.08 38.8 -75.83 38.8 -75.83 38.45 -75.58 38.45 -75.58 38.34 -75.32 38.34 -75.32 38.04 -75.07 38.04 -75.07 37.67 -74.82 37.67 -74.82 37.47 -74.57 37.47 -74.57 37.26 -74.32 37.26 -74.32 37.12 -74.06 37.12 -74.06 36.79 -73.81 36.79 -73.81 36.51 -73.56 36.51 -73.56 36.27 -73.31 36.27 -73.31 35.96 -73.05 35.96 -73.05 35.79 -72.8 35.79 -72.8 35.63 -72.55 35.63 -72.55 34.98 -72.3 34.98 -72.3 34.77 -72.05 34.77 -72.05 34.59 -71.79 34.59 -71.79 34.41 -71.54 34.41 -71.54 34.01 -71.29 34.01 -71.29 33.6 -71.04 33.6 -71.04 33.42 -70.79 33.42 -70.79 33.35 -70.53 33.35 -70.53 32.71 -70.28 32.71 -70.28 32.48 -70.03 32.48 -70.03 32.16 -69.78 32.16 -69.78 31.93 -69.53 31.93 -69.53 31.83 -69.27 31.83 -69.27 31.23 -69.02 31.23 -69.02 30.91 -68.77 30.91 -68.77 30.52 -68.52 30.52 -68.52 30.3 -68.26 30.3 -68.26 29.93 -68.01 29.93 -68.01 29.59 -67.76 29.59 -67.76 29.48 -67.51 29.48 -67.51 28.96 -67.26 28.96 -67.26 28.82 -67 28.82 -67 28.24 -66.75 28.24 -66.75 28 -66.5 28 -66.5 27.79 -66.25 27.79 -66.25 27.56 -66 27.56 -66 27.52 -65.74 27.52 -65.74 27.01 -65.49 27.01 -65.49 26.93 -65.24 26.93 -65.24 26.83 -64.99 26.83 -64.99 26.9 -64.73 26.9 -64.73 26.62 -64.48 26.62 -64.48 26.45 -64.23 26.45 -64.23 25.92 -63.98 25.92 -63.98 25.81 -63.73 25.81 -63.73 25.28 -63.47 25.28 -63.47 25.28 -63.22 25.28 -63.22 24.83 -62.97 24.83 -62.97 25.07 -62.72 25.07 -62.72 25.07 -62.47 25.07 -62.47 25.58 -62.21 25.58 -62.21 25.47 -61.96 25.47 -61.96 25.86 -61.71 25.86 -61.71 26 -61.46 26 -61.46 26.18 -61.2 26.18 -61.2 26.17 -60.95 26.17 -60.95 26.41 -60.7 26.41 -60.7 26.16 -60.45 26.16 -60.45 26.22 -60.2 26.22 -60.2 26.04 -59.94 26.04 -59.94 26.09 -59.69 26.09 -59.69 25.71 -59.44 25.71 -59.44 25.49 -59.19 25.49 -59.19 25.28 -58.94 25.28 -58.94 24.87 -58.68 24.87 -58.68 24.42 -58.43 24.42 -58.43 23.98 -58.18 23.98 -58.18 23.15 -57.93 23.15 -57.93 22.36 -57.67 22.36 -57.67 21.29 -57.42 21.29 -57.42 20.17 -57.17 20.17 -57.17 19.58 -56.92 19.58 -56.92 19.07 -56.67 19.07 -56.67 18.94 -56.41 18.94 -56.41 19.05 -56.16 19.05 -56.16 19.36 -55.91 19.36 -55.91 20.18 -55.66 20.18 -55.66 20.68 -55.41 20.68 -55.41 21.16 -55.15 21.16 -55.15 21.5 -54.9 21.5 -54.9 21.51 -54.65 21.51 -54.65 22.06 -54.4 22.06 -54.4 22.36 -54.15 22.36 -54.15 22.61 -53.89 22.61 -53.89 23.14 -53.64 23.14 -53.64 23.19 -53.39 23.19 -53.39 23.04 -53.14 23.04 -53.14 23.31 -52.88 23.31 -52.88 23.38 -52.63 23.38 -52.63 23.08 -52.38 23.08 -52.38 22.83 -52.13 22.83 -52.13 23.17 -51.88 23.17 -51.88 22.53 -51.62 22.53 -51.62 22.79 -51.37 22.79 -51.37 22.73 -51.12 22.73 -51.12 22.33 -50.87 22.33 -50.87 22.15 -50.62 22.15 -50.62 22.19 -50.36 22.19 -50.36 21.79 -50.11 21.79 -50.11 21.82 -49.86 21.82 -49.86 21.44 -49.61 21.44 -49.61 21.65 -49.35 21.65 -49.35 21.5 -49.1 21.5 -49.1 21.44 -48.85 21.44 -48.85 21.46 -48.6 21.46 -48.6 21.32 -48.35 21.32 -48.35 21.44 -48.09 21.44 -48.09 21.16 -47.84 21.16 -47.84 21.24 -47.59 21.24 -47.59 21.29 -47.34 21.29 -47.34 21.25 -47.09 21.25 -47.09 20.97 -46.83 20.97 -46.83 20.7 -46.58 20.7 -46.58 20.9 -46.33 20.9 -46.33 20.91 -46.08 20.91 -46.08 20.68 -45.82 20.68 -45.82 20.54 -45.57 20.54 -45.57 20.89 -45.32 20.89 -45.32 20.69 -45.07 20.69 -45.07 20.63 -44.82 20.63 -44.82 20.73 -44.56 20.73 -44.56 20.51 -44.31 20.51 -44.31 20.82 -44.06 20.82 -44.06 20.37 -43.81 20.37 -43.81 20.31 -43.56 20.31 -43.56 20.53 -43.3 20.53 -43.3 20.56 -43.05 20.56 -43.05 20.12 -42.8 20.12 -42.8 20.29 -42.55 20.29 -42.55 20.52 -42.29 20.52 -42.29 19.94 -42.04 19.94 -42.04 20.26 -41.79 20.26 -41.79 19.97 -41.54 19.97 -41.54 20.63 -41.29 20.63 -41.29 20.19 -41.03 20.19 -41.03 20.49 -40.78 20.49 -40.78 20.38 -40.53 20.38 -40.53 20.09 -40.28 20.09 -40.28 20.4 -40.03 20.4 -40.03 20.11 -39.77 20.11 -39.77 20.43 -39.52 20.43 -39.52 20.35 -39.27 20.35 -39.27 20.18 -39.02 20.18 -39.02 20.41 -38.77 20.41 -38.77 20.39 -38.51 20.39 -38.51 20.51 -38.26 20.51 -38.26 20.04 -38.01 20.04 -38.01 20.52 -37.76 20.52 -37.76 20.67 -37.5 20.67 -37.5 20.06 -37.25 20.06 -37.25 20.4 -37 20.4 -37 20.05 -36.75 20.05 -36.75 20.32 -36.5 20.32 -36.5 20.22 -36.24 20.22 -36.24 20.58 -35.99 20.58 -35.99 20.52 -35.74 20.52 -35.74 20.45 -35.49 20.45 -35.49 20.28 -35.24 20.28 -35.24 20.61 -34.98 20.61 -34.98 20.36 -34.73 20.36 -34.73 20.57 -34.48 20.57 -34.48 20.43 -34.23 20.43 -34.23 20.33 -33.97 20.33 -33.97 20.54 -33.72 20.54 -33.72 20.56 -33.47 20.56 -33.47 20.51 -33.22 20.51 -33.22 20.91 -32.97 20.91 -32.97 20.85 -32.71 20.85 -32.71 20.66 -32.46 20.66 -32.46 20.49 -32.21 20.49 -32.21 20.81 -31.96 20.81 -31.96 20.67 -31.71 20.67 -31.71 20.82 -31.45 20.82 -31.45 20.86 -31.2 20.86 -31.2 20.99 -30.95 20.99 -30.95 20.88 -30.7 20.88 -30.7 21.07 -30.44 21.07 -30.44 21.15 -30.19 21.15 -30.19 20.97 -29.94 20.97 -29.94 21.24 -29.69 21.24 -29.69 21.07 -29.44 21.07 -29.44 21.54 -29.18 21.54 -29.18 21.03 -28.93 21.03 -28.93 21.3 -28.68 21.3 -28.68 21.29 -28.43 21.29 -28.43 21.27 -28.18 21.27 -28.18 21.51 -27.92 21.51 -27.92 21.29 -27.67 21.29 -27.67 21.25 -27.42 21.25 -27.42 21.54 -27.17 21.54 -27.17 21.71 -26.91 21.71 -26.91 21.59 -26.66 21.59 -26.66 21.65 -26.41 21.65 -26.41 21.49 -26.16 21.49 -26.16 21.86 -25.91 21.86 -25.91 22.06 -25.65 22.06 -25.65 21.89 -25.4 21.89 -25.4 21.9 -25.15 21.9 -25.15 21.85 -24.9 21.85 -24.9 21.93 -24.65 21.93 -24.65 22.05 -24.39 22.05 -24.39 22.01 -24.14 22.01 -24.14 22.11 -23.89 22.11 -23.89 22.4 -23.64 22.4 -23.64 22.26 -23.39 22.26 -23.39 22.37 -23.13 22.37 -23.13 22.28 -22.88 22.28 -22.88 22.53 -22.63 22.53 -22.63 22.51 -22.38 22.51 -22.38 22.54 -22.12 22.54 -22.12 22.59 -21.87 22.59 -21.87 22.63 -21.62 22.63 -21.62 22.63 -21.37 22.63 -21.37 22.62 -21.12 22.62 -21.12 22.67 -20.86 22.67 -20.86 23 -20.61 23 -20.61 22.96 -20.36 22.96 -20.36 22.86 -20.11 22.86 -20.11 23.14 -19.86 23.14 -19.86 23.17 -19.6 23.17 -19.6 22.84 -19.35 22.84 -19.35 23.21 -19.1 23.21 -19.1 23.39 -18.85 23.39 -18.85 23.38 -18.59 23.38 -18.59 23.29 -18.34 23.29 -18.34 23.32 -18.09 23.32 -18.09 23.41 -17.84 23.41 -17.84 23.33 -17.59 23.33 -17.59 23.36 -17.33 23.36 -17.33 23.52 -17.08 23.52 -17.08 23.49 -16.83 23.49 -16.83 23.67 -16.58 23.67 -16.58 23.81 -16.33 23.81 -16.33 24.26 -16.07 24.26 -16.07 23.97 -15.82 23.97 -15.82 24 -15.57 24 -15.57 23.93 -15.32 23.93 -15.32 24.24 -15.06 24.24 -15.06 24.08 -14.81 24.08 -14.81 24.11 -14.56 24.11 -14.56 24.48 -14.31 24.48 -14.31 24.31 -14.06 24.31 -14.06 24.47 -13.8 24.47 -13.8 24.4 -13.55 24.4 -13.55 24.57 -13.3 24.57 -13.3 24.71 -13.05 24.71 -13.05 24.42 -12.8 24.42 -12.8 24.83 -12.54 24.83 -12.54 25.1 -12.29 25.1 -12.29 24.94 -12.04 24.94 -12.04 25.01 -11.79 25.01 -11.79 25.34 -11.53 25.34 -11.53 25.09 -11.28 25.09 -11.28 25.06 -11.03 25.06 -11.03 25.1 -10.78 25.1 -10.78 25.19 -10.53 25.19 -10.53 25.08 -10.27 25.08 -10.27 25.09 -10.02 25.09 -10.02 25.3 -9.77 25.3 -9.77 25.55 -9.52 25.55 -9.52 25.3 -9.27 25.3 -9.27 25.38 -9.01 25.38 -9.01 25.65 -8.76 25.65 -8.76 25.75 -8.51 25.75 -8.51 25.39 -8.26 25.39 -8.26 25.84 -8.01 25.84 -8.01 25.83 -7.75 25.83 -7.75 25.9 -7.5 25.9 -7.5 25.59 -7.25 25.59 -7.25 25.96 -7 25.96 -7 26.06 -6.74 26.06 -6.74 26.02 -6.49 26.02 -6.49 26.33 -6.24 26.33 -6.24 26.09 -5.99 26.09 -5.99 26.27 -5.74 26.27 -5.74 26.4 -5.48 26.4 -5.48 26.48 -5.23 26.48 -5.23 26.57 -4.98 26.57 -4.98 26.61 -4.73 26.61 -4.73 26.81 -4.48 26.81 -4.48 26.71 -4.22 26.71 -4.22 26.93 -3.97 26.93 -3.97 26.74 -3.72 26.74 -3.72 26.8 -3.47 26.8 -3.47 27.08 -3.21 27.08 -3.21 26.82 -2.96 26.82 -2.96 27.2 -2.71 27.2 -2.71 27.13 -2.46 27.13 -2.46 27.12 -2.21 27.12 -2.21 27.27 -1.95 27.27 -1.95 27.03 -1.7 27.03 -1.7 27.25 -1.45 27.25 -1.45 27.8 -1.2 27.8 -1.2 27.68 -0.95 27.68 -0.95 27.66 -0.69 27.66 -0.69 27.35 -0.44 27.35 -0.44 27.7 -0.19 27.7 -0.19 27.77 0.06 27.77 0.06 27.86 0.32 27.86 0.32 27.83 0.57 27.83 0.57 28.05 0.82 28.05 0.82 27.72 1.07 27.72 1.07 28.06 1.32 28.06 1.32 28.03 1.58 28.03 1.58 27.99 1.83 27.99 1.83 27.87 2.08 27.87 2.08 28.32 2.33 28.32 2.33 28.3 2.58 28.3 2.58 28.3 2.84 28.3 2.84 28.5 3.09 28.5 3.09 28.72 3.34 28.72 3.34 28.55 3.59 28.55 3.59 28.56 3.85 28.56 3.85 28.76 4.1 28.76 4.1 28.65 4.35 28.65 4.35 29.12 4.6 29.12 4.6 28.84 4.85 28.84 4.85 28.8 5.11 28.8 5.11 28.85 5.36 28.85 5.36 28.81 5.61 28.81 5.61 28.92 5.86 28.92 5.86 29.02 6.11 29.02 6.11 29.13 6.37 29.13 6.37 29.17 6.62 29.17 6.62 29.19 6.87 29.19 6.87 29.11 7.12 29.11 7.12 29.32 7.37 29.32 7.37 29.25 7.63 29.25 7.63 29.46 7.88 29.46 7.88 29.51 8.13 29.51 8.13 29.15 8.38 29.15 8.38 29.7 8.64 29.7 8.64 29.57 8.89 29.57 8.89 29.67 9.14 29.67 9.14 29.81 9.39 29.81 9.39 29.61 9.64 29.61 9.64 29.66 9.9 29.66 9.9 29.79 10.15 29.79 10.15 29.77 10.4 29.77 10.4 29.82 10.65 29.82 10.65 30.2 10.9 30.2 10.9 30 11.16 30 11.16 30.34 11.41 30.34 11.41 30.09 11.66 30.09 11.66 30.09 11.91 30.09 11.91 30.27 12.17 30.27 12.17 30.19 12.42 30.19 12.42 30.33 12.67 30.33 12.67 30.42 12.92 30.42 12.92 30.31 13.17 30.31 13.17 30.02 13.43 30.02 13.43 30.23 13.68 30.23 13.68 30.19 13.93 30.19 13.93 30.12 14.18 30.12 14.18 29.55 14.43 29.55 14.43 29.47 14.69 29.47 14.69 28.88 14.94 28.88 14.94 28.84 15.19 28.84 15.19 28.63 15.44 28.63 15.44 28.2 15.7 28.2 15.7 27.61 15.95 27.61 15.95 27.34 16.2 27.34 16.2 26.98 16.45 26.98 16.45 26.95 16.7 26.95 16.7 27.01 16.96 27.01 16.96 27.14 17.21 27.14 17.21 27.71 17.46 27.71 17.46 27.81 17.71 27.81 17.71 28.57 17.96 28.57 17.96 29.29 18.22 29.29 18.22 29.85 18.47 29.85 18.47 30.13 18.72 30.13 18.72 30.45 18.97 30.45 18.97 30.53 19.23 30.53 19.23 31.29 19.48 31.29 19.48 31.44 19.73 31.44 19.73 31.56 19.98 31.56 19.98 31.71 20.23 31.71 20.23 31.88 20.49 31.88 20.49 31.77 20.74 31.77 20.74 31.86 20.99 31.86 20.99 31.9 21.24 31.9 21.24 32 21.49 32 21.49 32.24 21.75 32.24 21.75 32.29 22 32.29 22 32.15 22.25 32.15 22.25 32.34 22.5 32.34 22.5 32.09 22.75 32.09 22.75 32.44 23.01 32.44 23.01 32.52 23.26 32.52 23.26 32.4 23.51 32.4 23.51 32.59 23.76 32.59 23.76 32.5 24.02 32.5 24.02 32.91 24.27 32.91 24.27 32.48 24.52 32.48 24.52 32.38 24.77 32.38 24.77 32.59 25.02 32.59 25.02 32.98 25.28 32.98 25.28 32.8 25.53 32.8 25.53 32.59 25.78 32.59 25.78 33.02 26.03 33.02 26.03 33.13 26.28 33.13 26.28 32.99 26.54 32.99 26.54 32.96 26.79 32.96 26.79 33.08 27.04 33.08 27.04 33.23 27.29 33.23 27.29 32.93 27.55 32.93 27.55 33.31 27.8 33.31 27.8 33.1 28.05 33.1 28.05 33.23 28.3 33.23 28.3 33.13 28.55 33.13 28.55 33.15 28.81 33.15 28.81 33.34 29.06 33.34 29.06 33.25 29.31 33.25 29.31 33.31 29.56 33.31 29.56 33.28 29.81 33.28 29.81 33.29 30.07 33.29 30.07 33.45 30.32 33.45 30.32 33.5 30.57 33.5 30.57 33.7 30.82 33.7 30.82 33.61 31.08 33.61 31.08 33.69 31.33 33.69 31.33 33.5 31.58 33.5 31.58 33.44 31.83 33.44 31.83 33.48 32.08 33.48 32.08 33.16 32.34 33.16 32.34 33.37 32.59 33.37 32.59 33.43 32.84 33.43 32.84 33.59 33.09 33.59 33.09 33.35 33.34 33.35 33.34 33.53 33.6 33.53 33.6 33.45 33.85 33.45 33.85 33.52 34.1 33.52 34.1 33.52 34.35 33.52 34.35 33.61 34.61 33.61 34.61 33.95 34.86 33.95 34.86 33.53 35.11 33.53 35.11 33.81 35.36 33.81 35.36 33.51 35.61 33.51 35.61 33.81 35.87 33.81 35.87 33.99 36.12 33.99 36.12 33.83 36.37 33.83 36.37 33.94 36.62 33.94 36.62 34.01 36.87 34.01 36.87 34.21 37.13 34.21 37.13 34.17 37.38 34.17 37.38 34.37 37.63 34.37 37.63 34.3 37.88 34.3 37.88 34.36 38.13 34.36 38.13 34.68 38.39 34.68 38.39 34.59 38.64 34.59 38.64 34.63 38.89 34.63 38.89 34.6 39.14 34.6 39.14 34.64 39.4 34.64 39.4 34.88 39.65 34.88 39.65 34.74 39.9 34.74 39.9 34.91 40.15 34.91 40.15 34.85 40.4 34.85 40.4 34.95 40.66 34.95 40.66 34.96 40.91 34.96 40.91 35.13 41.16 35.13 41.16 35.09 41.41 35.09 41.41 35.19 41.66 35.19 41.66 35.17 41.92 35.17 41.92 35.31 42.17 35.31 42.17 35.47 42.42 35.47 42.42 35.32 42.67 35.32 42.67 35.6 42.93 35.6 42.93 35.53 43.18 35.53 43.18 35.53 43.43 35.53 43.43 35.57 43.68 35.57 43.68 35.61 43.93 35.61 43.93 35.61 44.19 35.61 44.19 35.79 44.44 35.79 44.44 35.94 44.69 35.94 44.69 35.81 44.94 35.81 44.94 35.73 45.19 35.73 45.19 35.75 45.45 35.75 45.45 35.82 45.7 35.82 45.7 35.65 45.95 35.65 45.95 35.82 46.2 35.82 46.2 35.81 46.46 35.81 46.46 35.97 46.71 35.97 46.71 35.9 46.96 35.9 46.96 36 47.21 36 47.21 35.81 47.46 35.81 47.46 35.93 47.72 35.93 47.72 35.85 47.97 35.85 47.97 35.84 48.22 35.84 48.22 35.83 48.47 35.83 48.47 35.81 48.72 35.81 48.72 36.05 48.98 36.05 48.98 35.9 49.23 35.9 49.23 35.71 49.48 35.71 49.48 35.89 49.73 35.89 49.73 35.89 49.99 35.89 49.99 35.87 50.24 35.87 50.24 35.94 50.49 35.94 50.49 35.86 50.74 35.86 50.74 35.89 50.99 35.89 50.99 35.78 51.25 35.78 51.25 35.78 51.5 35.78 51.5 35.68 51.75 35.68 51.75 35.64 52 35.64 52 35.62 52.25 35.62 52.25 35.45 52.51 35.45 52.51 35.35 52.76 35.35 52.76 35.28 53.01 35.28 53.01 35 53.26 35 53.26 35.06 53.51 35.06 53.51 34.65 53.77 34.65 53.77 34.56 54.02 34.56 54.02 34.24 54.27 34.24 54.27 33.99 54.52 33.99 54.52 33.61 54.78 33.61 54.78 33.09 55.03 33.09 55.03 32.34 55.28 32.34 55.28 31.39 55.53 31.39 55.53 29.71 55.78 29.71 55.78 27.39 56.04 27.39 56.04 23.61 56.29 23.61 56.29 17.26 56.54 17.26 56.54 8.02 56.79 8.02 56.79 -6.3 57.04 -6.3 57.04 -26.36 57.3 -26.36 57.3 -55.28 57.55 -55.28 57.55 -94.37 57.8 -94.37 57.8 -147.83 58.05 -147.83 58.05 -214.1 58.31 -214.1 58.31 -295.73 58.56 -295.73 58.56 -392.75 58.81 -392.75 58.81 -500.63 59.06 -500.63 59.06 -617.22 59.31 -617.22 59.31 -735.23 59.57 -735.23 59.57 -847.68 59.82 -847.68 59.82 -948.21 60.07 -948.21 60.07 -1025.92 60.32 -1025.92 60.32 -1074.91 60.57 -1074.91 60.57 -1091.87 60.83 -1091.87 60.83 -1074.51 61.08 -1074.51 61.08 -1026.11 61.33 -1026.11 61.33 -948.17 61.58 -948.17 61.58 -850.07 61.84 -850.07 61.84 -739.26 62.09 -739.26 62.09 -620.41 62.34 -620.41 62.34 -504.4 62.59 -504.4 62.59 -395.58 62.84 -395.58 62.84 -299.15 63.1 -299.15 63.1 -215.96 63.35 -215.96 63.35 -149.5 63.6 -149.5 63.6 -95.89 63.85 -95.89 63.85 -54.9 64.1 -54.9 64.1 -25.2 64.36 -25.2 64.36 -4.18 64.61 -4.18 64.61 10.55 64.86 10.55 64.86 20.21 65.11 20.21 65.11 26.85 65.37 26.85 65.37 30.99 65.62 30.99 65.62 33.65 65.87 33.65 65.87 35.39 66.12 35.39 66.12 36.15 66.37 36.15 66.37 36.78 66.63 36.78 66.63 37.1 66.88 37.1 66.88 37.43 67.13 37.43 67.13 37.72 67.38 37.72 67.38 37.86 67.63 37.86 67.63 37.85 67.89 37.85 67.89 38.03 68.14 38.03 68.14 37.94 68.39 37.94 68.39 37.99 68.64 37.99 68.64 38.16 68.89 38.16 68.89 38.21 69.15 38.21 69.15 37.8 69.4 37.8 69.4 37.92 69.65 37.92 69.65 37.98 69.9 37.98 69.9 38.03 70.16 38.03 70.16 37.8 70.41 37.8 70.41 37.92 70.66 37.92 70.66 37.59 70.91 37.59 70.91 37.5 71.16 37.5 71.16 37.01 71.42 37.01 71.42 37.16 71.67 37.16 71.67 36.57 71.92 36.57 71.92 36.23 72.17 36.23 72.17 35.72 72.42 35.72 72.42 34.9 72.68 34.9 72.68 33.85 72.93 33.85 72.93 32.32 73.18 32.32 73.18 30.21 73.43 30.21 73.43 27.56 73.69 27.56 73.69 23.83 73.94 23.83 73.94 18.88 74.19 18.88 74.19 12.54 74.44 12.54 74.44 4.7 74.69 4.7 74.69 -5.24 74.95 -5.24 74.95 -16.61 75.2 -16.61 75.2 -28.79 75.45 -28.79 75.45 -42.56 75.7 -42.56 75.7 -56.81 75.95 -56.81 75.95 -69.97 76.21 -69.97 76.21 -81.73 76.46 -81.73 76.46 -92.36 76.71 -92.36 76.71 -99.52 76.96 -99.52 76.96 -103.2 77.22 -103.2 77.22 -102.54 77.47 -102.54 77.47 -100.04 77.72 -100.04 77.72 -91.88 77.97 -91.88 77.97 -81.69 78.22 -81.69 78.22 -69.37 78.48 -69.37 78.48 -55.62 78.73 -55.62 78.73 -41.92 78.98 -41.92 78.98 -27.61 79.23 -27.61 79.23 -14.54 79.48 -14.54 79.48 -2.87 79.74 -2.87 79.74 7.57 79.99 7.57 79.99 15.86 80.24 15.86 80.24 22.92 80.49 22.92 80.49 28.54 80.75 28.54 80.75 32.63 81 32.63 81 35.88 81.25 35.88 81.25 38.16 81.5 38.16 81.5 39.6 81.75 39.6 81.75 40.71 82.01 40.71 82.01 41.67 82.26 41.67 82.26 42.19 82.51 42.19 82.51 42.32 82.76 42.32 82.76 42.58 83.01 42.58 83.01 42.92 83.27 42.92 83.27 42.78 83.52 42.78 83.52 43 83.77 43 83.77 42.9 84.02 42.9 84.02 43.04 84.27 43.04 84.27 42.93 84.53 42.93 84.53 43.18 84.78 43.18 84.78 43 85.03 43 85.03 43.11 85.28 43.11 85.28 42.86 85.54 42.86 85.54 43.12 85.79 43.12 85.79 42.99 86.04 42.99 86.04 42.99 86.29 42.99 86.29 43.06 86.54 43.06 86.54 43.03 86.8 43.03 86.8 42.98 87.05 42.98 87.05 42.92 87.3 42.92 87.3 42.97 87.55 42.97 87.55 42.94 87.8 42.94 87.8 42.96 88.06 42.96 88.06 42.95 88.31 42.95 88.31 43.02 88.56 43.02 88.56 43.03 88.81 43.03 88.81 43.06 89.07 43.06 89.07 43.22 89.32 43.22 89.32 43.12 89.57 43.12 89.57 43.13 89.82 43.13 89.82 43.1 90.07 43.1 90.07 43.14 90.33 43.14 90.33 43.18 90.58 43.18 90.58 43.41 90.83 43.41 90.83 43.33 91.08 43.33 91.08 43.18 91.33 43.18 91.33 43.24 91.59 43.24 91.59 43.15 91.84 43.15 91.84 43.18 92.09 43.18 92.09 43.21 92.34 43.21 92.34 43.05 92.6 43.05 92.6 43.07 92.85 43.07 92.85 43.14 93.1 43.14 93.1 43.15 93.35 43.15 93.35 43.22 93.6 43.22 93.6 43.22 93.86 43.22 93.86 43.17 94.11 43.17 94.11 43.08 94.36 43.08 94.36 43.2 94.61 43.2 94.61 43.12 94.86 43.12 94.86 43.24 95.12 43.24 95.12 43.05 95.37 43.05 95.37 43.24 95.62 43.24 95.62 43.19 95.87 43.19 95.87 43.23 96.13 43.23 96.13 43.09 96.38 43.09 96.38 43.32 96.63 43.32 96.63 43.41 96.88 43.41 96.88 43.39 97.13 43.39 97.13 43.53 97.39 43.53 97.39 43.5 97.64 43.5 97.64 43.59 97.89 43.59 97.89 43.51 98.14 43.51 98.14 43.65 98.39 43.65 98.39 43.56 98.65 43.56 98.65 43.57 98.9 43.57 98.9 43.63 99.15 43.63 99.15 43.59 99.4 43.59 99.4 43.71 99.65 43.71 99.65 43.64 99.91 43.64 99.91 43.64 100.16 43.64 100.16 43.71 100.41 43.71 100.41 43.79 100.66 43.79 100.66 43.67" class="primitive"/>
            </g>
          </g>
        </g>
      </g>
    </g>
  </g>
  <g class="guide ylabels" font-size="2.82" font-family="'PT Sans Caption','Helvetica Neue','Helvetica',sans-serif" fill="#6C606B" id="img-12a90cb8-37">
    <g transform="translate(17.03,59.87)" id="img-12a90cb8-38">
      <g class="primitive">
        <text text-anchor="end" dy="0.35em">0</text>
      </g>
    </g>
    <g transform="translate(17.03,43.65)" id="img-12a90cb8-39">
      <g class="primitive">
        <text text-anchor="end" dy="0.35em">20000</text>
      </g>
    </g>
    <g transform="translate(17.03,27.43)" id="img-12a90cb8-40">
      <g class="primitive">
        <text text-anchor="end" dy="0.35em">40000</text>
      </g>
    </g>
    <g transform="translate(17.03,11.21)" id="img-12a90cb8-41">
      <g class="primitive">
        <text text-anchor="end" dy="0.35em">60000</text>
      </g>
    </g>
  </g>
  <g font-size="3.18" font-family="'PT Sans','Helvetica Neue','Helvetica',sans-serif" fill="#202020" stroke="#000000" stroke-opacity="0.000" id="img-12a90cb8-42">
    <g transform="translate(4.18,29.29)" id="img-12a90cb8-43">
      <g class="primitive">
        <text text-anchor="middle" dy="0.35em" transform="rotate(-90,0, 2)">Counts</text>
      </g>
    </g>
  </g>
</g>
<defs>
  <clipPath id="img-12a90cb8-15">
    <path d="M18.03,0.71 L 223.76 0.71 223.76 61.87 18.03 61.87" />
  </clipPath>
</defs>
</svg>
