<?xml version="1.0" encoding="UTF-8"?>
<svg xmlns="http://www.w3.org/2000/svg"
     xmlns:xlink="http://www.w3.org/1999/xlink"
     xmlns:gadfly="http://www.gadflyjl.org/ns"
     version="1.2"
     width="254mm" height="76.2mm" viewBox="0 0 254 76.2"
     stroke="none"
     fill="#000000"
     stroke-width="0.3"
     font-size="3.88"
>
<defs>
  <marker id="arrow" markerWidth="15" markerHeight="7" refX="5" refY="3.5" orient="auto" markerUnits="strokeWidth">
    <path d="M0,0 L15,3.5 L0,7 z" stroke="context-stroke" fill="context-stroke"/>
  </marker>
</defs>
<g class="plotroot xscalable yscalable" id="img-9e35f7c5-1">
  <g font-size="3.18" font-family="'PT Sans','Helvetica Neue','Helvetica',sans-serif" fill="#202020" stroke="#000000" stroke-opacity="0.000" id="img-9e35f7c5-2">
    <g transform="translate(136.5,69.54)">
      <g class="primitive">
        <text text-anchor="middle" dy="0.6em">Energy (eV)</text>
      </g>
    </g>
  </g>
  <g class="guide xlabels" font-size="2.82" font-family="'PT Sans Caption','Helvetica Neue','Helvetica',sans-serif" fill="#6C606B" id="img-9e35f7c5-3">
    <g transform="translate(21.7,62.87)">
      <g class="primitive">
        <text text-anchor="middle" dy="0.6em">0</text>
      </g>
    </g>
    <g transform="translate(79.1,62.87)">
      <g class="primitive">
        <text text-anchor="middle" dy="0.6em">2000</text>
      </g>
    </g>
    <g transform="translate(136.5,62.87)">
      <g class="primitive">
        <text text-anchor="middle" dy="0.6em">4000</text>
      </g>
    </g>
    <g transform="translate(193.9,62.87)">
      <g class="primitive">
        <text text-anchor="middle" dy="0.6em">6000</text>
      </g>
    </g>
    <g transform="translate(251.29,62.87)">
      <g class="primitive">
        <text text-anchor="middle" dy="0.6em">8000</text>
      </g>
    </g>
  </g>
  <g clip-path="url(#img-9e35f7c5-4)">
    <g id="img-9e35f7c5-5">
      <g pointer-events="visible" stroke-width="0.3" fill="#FDFDF1" stroke="#202020" class="guide background" id="img-9e35f7c5-6">
        <g transform="translate(136.5,31.29)" id="img-9e35f7c5-7">
          <path d="M-116.8,-30.58 L116.8,-30.58 116.8,30.58 -116.8,30.58  z" class="primitive"/>
        </g>
      </g>
      <g class="guide ygridlines xfixed" stroke-dasharray="none" stroke-width="0.2" stroke="#FFDFDF" id="img-9e35f7c5-8">
        <g transform="translate(136.5,59.87)" id="img-9e35f7c5-9">
          <path fill="none" d="M-116.8,0 L116.8,0 " class="primitive"/>
        </g>
        <g transform="translate(136.5,45.86)" id="img-9e35f7c5-10">
          <path fill="none" d="M-116.8,0 L116.8,0 " class="primitive"/>
        </g>
        <g transform="translate(136.5,31.86)" id="img-9e35f7c5-11">
          <path fill="none" d="M-116.8,0 L116.8,0 " class="primitive"/>
        </g>
        <g transform="translate(136.5,17.85)" id="img-9e35f7c5-12">
          <path fill="none" d="M-116.8,0 L116.8,0 " class="primitive"/>
        </g>
        <g transform="translate(136.5,3.85)" id="img-9e35f7c5-13">
          <path fill="none" d="M-116.8,0 L116.8,0 " class="primitive"/>
        </g>
      </g>
      <g class="guide xgridlines yfixed" stroke-dasharray="none" stroke-width="0.2" stroke="#FFDFDF" id="img-9e35f7c5-14">
        <g transform="translate(21.7,31.29)" id="img-9e35f7c5-15">
          <path fill="none" d="M0,-30.58 L0,30.58 " class="primitive"/>
        </g>
        <g transform="translate(79.1,31.29)" id="img-9e35f7c5-16">
          <path fill="none" d="M0,-30.58 L0,30.58 " class="primitive"/>
        </g>
        <g transform="translate(136.5,31.29)" id="img-9e35f7c5-17">
          <path fill="none" d="M0,-30.58 L0,30.58 " class="primitive"/>
        </g>
        <g transform="translate(193.9,31.29)" id="img-9e35f7c5-18">
          <path fill="none" d="M0,-30.58 L0,30.58 " class="primitive"/>
        </g>
        <g transform="translate(251.29,31.29)" id="img-9e35f7c5-19">
          <path fill="none" d="M0,-30.58 L0,30.58 " class="primitive"/>
        </g>
      </g>
      <g class="plotpanel" id="img-9e35f7c5-20">
        <metadata>
          <boundingbox value="19.70055555555556mm 0.7055555555555555mm 233.5938888888889mm 61.16055555555556mm"/>
          <unitbox value="-69.68826599623972 211218.82891951522 8139.376531992479 -218359.35783903045"/>
        </metadata>
        <g stroke-width="0.3" fill="#000000" fill-opacity="0.000" class="geometry" id="img-9e35f7c5-21">
          <g class="color_RGB{N0f8}(0.718,0.0,0.008)" stroke-dasharray="none" stroke-opacity="1" stroke="#B70002" id="img-9e35f7c5-22">
            <g transform="translate(136.46,46.76)" id="img-9e35f7c5-23">
              <path fill="none" d="M-114.71,13.1 L-114.42,13.1 -114.42,13.1 -114.13,13.1 -114.13,13.1 -113.85,13.1 -113.85,13.1 -113.56,13.1 -113.56,13.1 -113.27,13.1 -113.27,13.1 -112.99,13.1 -112.99,13.1 -112.7,13.1 -112.7,13.1 -112.41,13.1 -112.41,13.1 -112.13,13.1 -112.13,13.1 -111.84,13.1 -111.84,13.1 -111.55,13.1 -111.55,13.1 -111.27,13.1 -111.27,13.1 -110.98,13.1 -110.98,13.09 -110.69,13.09 -110.69,13.08 -110.4,13.08 -110.4,13.07 -110.12,13.07 -110.12,13.05 -109.83,13.05 -109.83,13.01 -109.54,13.01 -109.54,12.94 -109.26,12.94 -109.26,12.84 -108.97,12.84 -108.97,12.61 -108.68,12.61 -108.68,12.17 -108.4,12.17 -108.4,11.37 -108.11,11.37 -108.11,10.02 -107.82,10.02 -107.82,8.09 -107.53,8.09 -107.53,5.97 -107.25,5.97 -107.25,4.32 -106.96,4.32 -106.96,3.98 -106.67,3.98 -106.67,4.98 -106.39,4.98 -106.39,7.06 -106.1,7.06 -106.1,9.43 -105.81,9.43 -105.81,11.49 -105.53,11.49 -105.53,12.87 -105.24,12.87 -105.24,13.61 -104.95,13.61 -104.95,13.94 -104.67,13.94 -104.67,13.8 -104.38,13.8 -104.38,13.56 -104.09,13.56 -104.09,13.25 -103.8,13.25 -103.8,12.99 -103.52,12.99 -103.52,12.82 -103.23,12.82 -103.23,12.78 -102.94,12.78 -102.94,12.5 -102.66,12.5 -102.66,11.94 -102.37,11.94 -102.37,10.27 -102.08,10.27 -102.08,6.64 -101.8,6.64 -101.8,-1.36 -101.51,-1.36 -101.51,-16.48 -101.22,-16.48 -101.22,-42.39 -100.93,-42.39 -100.93,-82.15 -100.65,-82.15 -100.65,-133.6 -100.36,-133.6 -100.36,-186.7 -100.07,-186.7 -100.07,-225.69 -99.79,-225.69 -99.79,-235.79 -99.5,-235.79 -99.5,-212.8 -99.21,-212.8 -99.21,-164.42 -98.93,-164.42 -98.93,-107.88 -98.64,-107.88 -98.64,-58.93 -98.35,-58.93 -98.35,-23.91 -98.07,-23.91 -98.07,-3.18 -97.78,-3.18 -97.78,7.31 -97.49,7.31 -97.49,11.79 -97.2,11.79 -97.2,13.45 -96.92,13.45 -96.92,13.93 -96.63,13.93 -96.63,13.92 -96.34,13.92 -96.34,13.82 -96.06,13.82 -96.06,13.64 -95.77,13.64 -95.77,13.51 -95.48,13.51 -95.48,13.39 -95.2,13.39 -95.2,13.29 -94.91,13.29 -94.91,13.38 -94.62,13.38 -94.62,13.41 -94.34,13.41 -94.34,13.64 -94.05,13.64 -94.05,13.76 -93.76,13.76 -93.76,13.94 -93.47,13.94 -93.47,14.06 -93.19,14.06 -93.19,14.17 -92.9,14.17 -92.9,14.26 -92.61,14.26 -92.61,14.24 -92.33,14.24 -92.33,14.28 -92.04,14.28 -92.04,14.28 -91.75,14.28 -91.75,14.29 -91.47,14.29 -91.47,14.2 -91.18,14.2 -91.18,14.16 -90.89,14.16 -90.89,14.15 -90.6,14.15 -90.6,14.21 -90.32,14.21 -90.32,14.15 -90.03,14.15 -90.03,14.06 -89.74,14.06 -89.74,14.11 -89.46,14.11 -89.46,14.04 -89.17,14.04 -89.17,14 -88.88,14 -88.88,13.98 -88.6,13.98 -88.6,13.89 -88.31,13.89 -88.31,13.75 -88.02,13.75 -88.02,13.73 -87.74,13.73 -87.74,13.67 -87.45,13.67 -87.45,13.54 -87.16,13.54 -87.16,13.39 -86.87,13.39 -86.87,13.23 -86.59,13.23 -86.59,13.11 -86.3,13.11 -86.3,12.91 -86.01,12.91 -86.01,12.61 -85.73,12.61 -85.73,12.37 -85.44,12.37 -85.44,11.94 -85.15,11.94 -85.15,11.55 -84.87,11.55 -84.87,11.22 -84.58,11.22 -84.58,10.77 -84.29,10.77 -84.29,10.31 -84,10.31 -84,9.94 -83.72,9.94 -83.72,9.37 -83.43,9.37 -83.43,8.74 -83.14,8.74 -83.14,8.08 -82.86,8.08 -82.86,7.09 -82.57,7.09 -82.57,6.02 -82.28,6.02 -82.28,4.42 -82,4.42 -82,1.58 -81.71,1.58 -81.71,-3.47 -81.42,-3.47 -81.42,-13.78 -81.14,-13.78 -81.14,-35.65 -80.85,-35.65 -80.85,-78.18 -80.56,-78.18 -80.56,-153.46 -80.27,-153.46 -80.27,-274.22 -79.99,-274.22 -79.99,-444.58 -79.7,-444.58 -79.7,-651.23 -79.41,-651.23 -79.41,-863.8 -79.13,-863.8 -79.13,-1035.21 -78.84,-1035.21 -78.84,-1120.59 -78.55,-1120.59 -78.55,-1098.11 -78.27,-1098.11 -78.27,-972.85 -77.98,-972.85 -77.98,-783.12 -77.69,-783.12 -77.69,-570.96 -77.4,-570.96 -77.4,-380.15 -77.12,-380.15 -77.12,-229.77 -76.83,-229.77 -76.83,-125.95 -76.54,-125.95 -76.54,-61.46 -76.26,-61.46 -76.26,-24.93 -75.97,-24.93 -75.97,-5.62 -75.68,-5.62 -75.68,4.02 -75.4,4.02 -75.4,8.69 -75.11,8.69 -75.11,10.91 -74.82,10.91 -74.82,12.17 -74.54,12.17 -74.54,12.81 -74.25,12.81 -74.25,13.24 -73.96,13.24 -73.96,13.47 -73.67,13.47 -73.67,13.63 -73.39,13.63 -73.39,13.65 -73.1,13.65 -73.1,13.68 -72.81,13.68 -72.81,13.74 -72.53,13.74 -72.53,13.69 -72.24,13.69 -72.24,13.72 -71.95,13.72 -71.95,13.74 -71.67,13.74 -71.67,13.73 -71.38,13.73 -71.38,13.8 -71.09,13.8 -71.09,13.8 -70.81,13.8 -70.81,13.91 -70.52,13.91 -70.52,13.94 -70.23,13.94 -70.23,14.01 -69.94,14.01 -69.94,14.11 -69.66,14.11 -69.66,14.15 -69.37,14.15 -69.37,14.2 -69.08,14.2 -69.08,14.24 -68.8,14.24 -68.8,14.28 -68.51,14.28 -68.51,14.28 -68.22,14.28 -68.22,14.23 -67.94,14.23 -67.94,14.28 -67.65,14.28 -67.65,14.26 -67.36,14.26 -67.36,14.25 -67.07,14.25 -67.07,14.25 -66.79,14.25 -66.79,14.19 -66.5,14.19 -66.5,14.11 -66.21,14.11 -66.21,14 -65.93,14 -65.93,13.8 -65.64,13.8 -65.64,13.45 -65.35,13.45 -65.35,13.19 -65.07,13.19 -65.07,12.83 -64.78,12.83 -64.78,12.36 -64.49,12.36 -64.49,12.01 -64.21,12.01 -64.21,11.7 -63.92,11.7 -63.92,11.57 -63.63,11.57 -63.63,11.71 -63.34,11.71 -63.34,11.94 -63.06,11.94 -63.06,12.33 -62.77,12.33 -62.77,12.73 -62.48,12.73 -62.48,13.24 -62.2,13.24 -62.2,13.62 -61.91,13.62 -61.91,13.9 -61.62,13.9 -61.62,14.16 -61.34,14.16 -61.34,14.3 -61.05,14.3 -61.05,14.4 -60.76,14.4 -60.76,14.43 -60.47,14.43 -60.47,14.52 -60.19,14.52 -60.19,14.56 -59.9,14.56 -59.9,14.53 -59.61,14.53 -59.61,14.52 -59.33,14.52 -59.33,14.53 -59.04,14.53 -59.04,14.63 -58.75,14.63 -58.75,14.52 -58.47,14.52 -58.47,14.54 -58.18,14.54 -58.18,14.5 -57.89,14.5 -57.89,14.52 -57.61,14.52 -57.61,14.56 -57.32,14.56 -57.32,14.48 -57.03,14.48 -57.03,14.48 -56.74,14.48 -56.74,14.53 -56.46,14.53 -56.46,14.56 -56.17,14.56 -56.17,14.57 -55.88,14.57 -55.88,14.49 -55.6,14.49 -55.6,14.48 -55.31,14.48 -55.31,14.5 -55.02,14.5 -55.02,14.51 -54.74,14.51 -54.74,14.44 -54.45,14.44 -54.45,14.58 -54.16,14.58 -54.16,14.45 -53.88,14.45 -53.88,14.48 -53.59,14.48 -53.59,14.47 -53.3,14.47 -53.3,14.46 -53.01,14.46 -53.01,14.45 -52.73,14.45 -52.73,14.5 -52.44,14.5 -52.44,14.5 -52.15,14.5 -52.15,14.48 -51.87,14.48 -51.87,14.55 -51.58,14.55 -51.58,14.53 -51.29,14.53 -51.29,14.46 -51.01,14.46 -51.01,14.45 -50.72,14.45 -50.72,14.47 -50.43,14.47 -50.43,14.49 -50.14,14.49 -50.14,14.49 -49.86,14.49 -49.86,14.43 -49.57,14.43 -49.57,14.43 -49.28,14.43 -49.28,14.44 -49,14.44 -49,14.44 -48.71,14.44 -48.71,14.38 -48.42,14.38 -48.42,14.4 -48.14,14.4 -48.14,14.37 -47.85,14.37 -47.85,14.32 -47.56,14.32 -47.56,14.37 -47.28,14.37 -47.28,14.36 -46.99,14.36 -46.99,14.34 -46.7,14.34 -46.7,14.31 -46.41,14.31 -46.41,14.3 -46.13,14.3 -46.13,14.35 -45.84,14.35 -45.84,14.28 -45.55,14.28 -45.55,14.2 -45.27,14.2 -45.27,14.05 -44.98,14.05 -44.98,13.92 -44.69,13.92 -44.69,13.61 -44.41,13.61 -44.41,13.25 -44.12,13.25 -44.12,12.72 -43.83,12.72 -43.83,12.33 -43.54,12.33 -43.54,11.82 -43.26,11.82 -43.26,11.37 -42.97,11.37 -42.97,11.11 -42.68,11.11 -42.68,10.99 -42.4,10.99 -42.4,11.14 -42.11,11.14 -42.11,11.45 -41.82,11.45 -41.82,11.8 -41.54,11.8 -41.54,12.18 -41.25,12.18 -41.25,12.71 -40.96,12.71 -40.96,13.18 -40.68,13.18 -40.68,13.49 -40.39,13.49 -40.39,13.85 -40.1,13.85 -40.1,14.03 -39.81,14.03 -39.81,14.11 -39.53,14.11 -39.53,14.23 -39.24,14.23 -39.24,14.3 -38.95,14.3 -38.95,14.21 -38.67,14.21 -38.67,14.32 -38.38,14.32 -38.38,14.32 -38.09,14.32 -38.09,14.26 -37.81,14.26 -37.81,14.26 -37.52,14.26 -37.52,14.3 -37.23,14.3 -37.23,14.33 -36.94,14.33 -36.94,14.29 -36.66,14.29 -36.66,14.32 -36.37,14.32 -36.37,14.3 -36.08,14.3 -36.08,14.34 -35.8,14.34 -35.8,14.38 -35.51,14.38 -35.51,14.31 -35.22,14.31 -35.22,14.38 -34.94,14.38 -34.94,14.36 -34.65,14.36 -34.65,14.34 -34.36,14.34 -34.36,14.29 -34.08,14.29 -34.08,14.35 -33.79,14.35 -33.79,14.34 -33.5,14.34 -33.5,14.29 -33.21,14.29 -33.21,14.36 -32.93,14.36 -32.93,14.31 -32.64,14.31 -32.64,14.27 -32.35,14.27 -32.35,14.27 -32.07,14.27 -32.07,14.36 -31.78,14.36 -31.78,14.34 -31.49,14.34 -31.49,14.37 -31.21,14.37 -31.21,14.37 -30.92,14.37 -30.92,14.27 -30.63,14.27 -30.63,14.32 -30.35,14.32 -30.35,14.37 -30.06,14.37 -30.06,14.29 -29.77,14.29 -29.77,14.34 -29.48,14.34 -29.48,14.3 -29.2,14.3 -29.2,14.24 -28.91,14.24 -28.91,14.3 -28.62,14.3 -28.62,14.27 -28.34,14.27 -28.34,14.34 -28.05,14.34 -28.05,14.33 -27.76,14.33 -27.76,14.27 -27.48,14.27 -27.48,14.32 -27.19,14.32 -27.19,14.29 -26.9,14.29 -26.9,14.25 -26.61,14.25 -26.61,14.26 -26.33,14.26 -26.33,14.33 -26.04,14.33 -26.04,14.3 -25.75,14.3 -25.75,14.32 -25.47,14.32 -25.47,14.32 -25.18,14.32 -25.18,14.28 -24.89,14.28 -24.89,14.28 -24.61,14.28 -24.61,14.21 -24.32,14.21 -24.32,14.39 -24.03,14.39 -24.03,14.36 -23.75,14.36 -23.75,14.32 -23.46,14.32 -23.46,14.34 -23.17,14.34 -23.17,14.31 -22.88,14.31 -22.88,14.35 -22.6,14.35 -22.6,14.28 -22.31,14.28 -22.31,14.28 -22.02,14.28 -22.02,14.26 -21.74,14.26 -21.74,14.31 -21.45,14.31 -21.45,14.25 -21.16,14.25 -21.16,14.32 -20.88,14.32 -20.88,14.29 -20.59,14.29 -20.59,14.24 -20.3,14.24 -20.3,14.28 -20.01,14.28 -20.01,14.34 -19.73,14.34 -19.73,14.32 -19.44,14.32 -19.44,14.27 -19.15,14.27 -19.15,14.3 -18.87,14.3 -18.87,14.32 -18.58,14.32 -18.58,14.32 -18.29,14.32 -18.29,14.28 -18.01,14.28 -18.01,14.33 -17.72,14.33 -17.72,14.27 -17.43,14.27 -17.43,14.26 -17.15,14.26 -17.15,14.28 -16.86,14.28 -16.86,14.29 -16.57,14.29 -16.57,14.3 -16.28,14.3 -16.28,14.24 -16,14.24 -16,14.3 -15.71,14.3 -15.71,14.27 -15.42,14.27 -15.42,14.28 -15.14,14.28 -15.14,14.27 -14.85,14.27 -14.85,14.25 -14.56,14.25 -14.56,14.25 -14.28,14.25 -14.28,14.22 -13.99,14.22 -13.99,14.27 -13.7,14.27 -13.7,14.27 -13.41,14.27 -13.41,14.21 -13.13,14.21 -13.13,14.22 -12.84,14.22 -12.84,14.22 -12.55,14.22 -12.55,14.23 -12.27,14.23 -12.27,14.2 -11.98,14.2 -11.98,14.22 -11.69,14.22 -11.69,14.22 -11.41,14.22 -11.41,14.13 -11.12,14.13 -11.12,14.15 -10.83,14.15 -10.83,14.21 -10.55,14.21 -10.55,14.18 -10.26,14.18 -10.26,14.11 -9.97,14.11 -9.97,14.12 -9.68,14.12 -9.68,14.05 -9.4,14.05 -9.4,14.07 -9.11,14.07 -9.11,14.04 -8.82,14.04 -8.82,14.01 -8.54,14.01 -8.54,13.95 -8.25,13.95 -8.25,14.05 -7.96,14.05 -7.96,14.02 -7.68,14.02 -7.68,14.04 -7.39,14.04 -7.39,14.08 -7.1,14.08 -7.1,14.09 -6.82,14.09 -6.82,14.09 -6.53,14.09 -6.53,14.18 -6.24,14.18 -6.24,14.21 -5.95,14.21 -5.95,14.18 -5.67,14.18 -5.67,14.13 -5.38,14.13 -5.38,14.15 -5.09,14.15 -5.09,14.2 -4.81,14.2 -4.81,14.17 -4.52,14.17 -4.52,14.17 -4.23,14.17 -4.23,14.17 -3.95,14.17 -3.95,14.18 -3.66,14.18 -3.66,14.17 -3.37,14.17 -3.37,14.14 -3.08,14.14 -3.08,14.19 -2.8,14.19 -2.8,14.14 -2.51,14.14 -2.51,14.11 -2.22,14.11 -2.22,14.17 -1.94,14.17 -1.94,14.12 -1.65,14.12 -1.65,14.18 -1.36,14.18 -1.36,14.13 -1.08,14.13 -1.08,14.15 -0.79,14.15 -0.79,14.09 -0.5,14.09 -0.5,14.16 -0.22,14.16 -0.22,14.13 0.07,14.13 0.07,14.18 0.36,14.18 0.36,14.1 0.65,14.1 0.65,14.08 0.93,14.08 0.93,14.08 1.22,14.08 1.22,14.13 1.51,14.13 1.51,14.1 1.79,14.1 1.79,14.19 2.08,14.19 2.08,14.12 2.37,14.12 2.37,14.09 2.65,14.09 2.65,14.16 2.94,14.16 2.94,14.11 3.23,14.11 3.23,14.14 3.52,14.14 3.52,14.14 3.8,14.14 3.8,14.13 4.09,14.13 4.09,14.14 4.38,14.14 4.38,14.12 4.66,14.12 4.66,14.12 4.95,14.12 4.95,14.15 5.24,14.15 5.24,14.15 5.52,14.15 5.52,14.13 5.81,14.13 5.81,14.08 6.1,14.08 6.1,14.08 6.38,14.08 6.38,14.13 6.67,14.13 6.67,14.13 6.96,14.13 6.96,14.06 7.25,14.06 7.25,14.11 7.53,14.11 7.53,14.1 7.82,14.1 7.82,14.1 8.11,14.1 8.11,14.09 8.39,14.09 8.39,14.09 8.68,14.09 8.68,14.09 8.97,14.09 8.97,14.07 9.25,14.07 9.25,14.14 9.54,14.14 9.54,14.13 9.83,14.13 9.83,14.13 10.12,14.13 10.12,14.12 10.4,14.12 10.4,14.12 10.69,14.12 10.69,14.11 10.98,14.11 10.98,14.07 11.26,14.07 11.26,14.05 11.55,14.05 11.55,14.1 11.84,14.1 11.84,14.12 12.12,14.12 12.12,14.12 12.41,14.12 12.41,14.06 12.7,14.06 12.7,14.09 12.98,14.09 12.98,14.09 13.27,14.09 13.27,14.07 13.56,14.07 13.56,14.09 13.85,14.09 13.85,14.07 14.13,14.07 14.13,14.09 14.42,14.09 14.42,14.07 14.71,14.07 14.71,14.1 14.99,14.1 14.99,14.02 15.28,14.02 15.28,14.07 15.57,14.07 15.57,14.04 15.85,14.04 15.85,14.05 16.14,14.05 16.14,14.07 16.43,14.07 16.43,14.06 16.71,14.06 16.71,14.07 17,14.07 17,14.06 17.29,14.06 17.29,14.04 17.58,14.04 17.58,14.06 17.86,14.06 17.86,14.02 18.15,14.02 18.15,14.07 18.44,14.07 18.44,14.04 18.72,14.04 18.72,14 19.01,14 19.01,14.02 19.3,14.02 19.3,14.01 19.58,14.01 19.58,14.03 19.87,14.03 19.87,14 20.16,14 20.16,14 20.45,14 20.45,14.03 20.73,14.03 20.73,14.07 21.02,14.07 21.02,14 21.31,14 21.31,14.07 21.59,14.07 21.59,14.02 21.88,14.02 21.88,14.02 22.17,14.02 22.17,14 22.45,14 22.45,14.03 22.74,14.03 22.74,13.96 23.03,13.96 23.03,14.01 23.31,14.01 23.31,13.99 23.6,13.99 23.6,14.01 23.89,14.01 23.89,14.04 24.18,14.04 24.18,14.02 24.46,14.02 24.46,13.99 24.75,13.99 24.75,13.99 25.04,13.99 25.04,13.99 25.32,13.99 25.32,14 25.61,14 25.61,13.99 25.9,13.99 25.9,14 26.18,14 26.18,13.96 26.47,13.96 26.47,13.99 26.76,13.99 26.76,13.96 27.05,13.96 27.05,13.91 27.33,13.91 27.33,13.95 27.62,13.95 27.62,13.96 27.91,13.96 27.91,13.92 28.19,13.92 28.19,13.91 28.48,13.91 28.48,13.95 28.77,13.95 28.77,14 29.05,14 29.05,13.95 29.34,13.95 29.34,13.93 29.63,13.93 29.63,13.96 29.91,13.96 29.91,13.98 30.2,13.98 30.2,13.94 30.49,13.94 30.49,13.96 30.78,13.96 30.78,13.93 31.06,13.93 31.06,13.95 31.35,13.95 31.35,13.92 31.64,13.92 31.64,13.93 31.92,13.93 31.92,13.95 32.21,13.95 32.21,13.9 32.5,13.9 32.5,13.91 32.78,13.91 32.78,13.96 33.07,13.96 33.07,13.94 33.36,13.94 33.36,13.92 33.65,13.92 33.65,13.91 33.93,13.91 33.93,13.88 34.22,13.88 34.22,13.92 34.51,13.92 34.51,13.89 34.79,13.89 34.79,13.92 35.08,13.92 35.08,13.94 35.37,13.94 35.37,13.97 35.65,13.97 35.65,13.94 35.94,13.94 35.94,13.94 36.23,13.94 36.23,13.97 36.51,13.97 36.51,13.91 36.8,13.91 36.8,13.93 37.09,13.93 37.09,13.9 37.38,13.9 37.38,13.93 37.66,13.93 37.66,13.85 37.95,13.85 37.95,13.93 38.24,13.93 38.24,13.88 38.52,13.88 38.52,13.93 38.81,13.93 38.81,13.89 39.1,13.89 39.1,13.84 39.38,13.84 39.38,13.83 39.67,13.83 39.67,13.83 39.96,13.83 39.96,13.85 40.24,13.85 40.24,13.9 40.53,13.9 40.53,13.81 40.82,13.81 40.82,13.88 41.11,13.88 41.11,13.8 41.39,13.8 41.39,13.86 41.68,13.86 41.68,13.85 41.97,13.85 41.97,13.81 42.25,13.81 42.25,13.84 42.54,13.84 42.54,13.85 42.83,13.85 42.83,13.87 43.11,13.87 43.11,13.85 43.4,13.85 43.4,13.87 43.69,13.87 43.69,13.9 43.98,13.9 43.98,13.86 44.26,13.86 44.26,13.89 44.55,13.89 44.55,13.92 44.84,13.92 44.84,13.85 45.12,13.85 45.12,13.85 45.41,13.85 45.41,13.89 45.7,13.89 45.7,13.88 45.98,13.88 45.98,13.88 46.27,13.88 46.27,13.86 46.56,13.86 46.56,13.89 46.84,13.89 46.84,13.9 47.13,13.9 47.13,13.89 47.42,13.89 47.42,13.81 47.71,13.81 47.71,13.86 47.99,13.86 47.99,13.87 48.28,13.87 48.28,13.84 48.57,13.84 48.57,13.88 48.85,13.88 48.85,13.87 49.14,13.87 49.14,13.84 49.43,13.84 49.43,13.88 49.71,13.88 49.71,13.84 50,13.84 50,13.85 50.29,13.85 50.29,13.84 50.58,13.84 50.58,13.84 50.86,13.84 50.86,13.81 51.15,13.81 51.15,13.83 51.44,13.83 51.44,13.82 51.72,13.82 51.72,13.85 52.01,13.85 52.01,13.86 52.3,13.86 52.3,13.84 52.58,13.84 52.58,13.82 52.87,13.82 52.87,13.86 53.16,13.86 53.16,13.81 53.44,13.81 53.44,13.82 53.73,13.82 53.73,13.77 54.02,13.77 54.02,13.84 54.31,13.84 54.31,13.83 54.59,13.83 54.59,13.82 54.88,13.82 54.88,13.82 55.17,13.82 55.17,13.81 55.45,13.81 55.45,13.77 55.74,13.77 55.74,13.82 56.03,13.82 56.03,13.83 56.31,13.83 56.31,13.8 56.6,13.8 56.6,13.79 56.89,13.79 56.89,13.82 57.18,13.82 57.18,13.77 57.46,13.77 57.46,13.82 57.75,13.82 57.75,13.81 58.04,13.81 58.04,13.83 58.32,13.83 58.32,13.82 58.61,13.82 58.61,13.79 58.9,13.79 58.9,13.81 59.18,13.81 59.18,13.8 59.47,13.8 59.47,13.84 59.76,13.84 59.76,13.83 60.04,13.83 60.04,13.78 60.33,13.78 60.33,13.77 60.62,13.77 60.62,13.8 60.91,13.8 60.91,13.83 61.19,13.83 61.19,13.78 61.48,13.78 61.48,13.77 61.77,13.77 61.77,13.81 62.05,13.81 62.05,13.78 62.34,13.78 62.34,13.77 62.63,13.77 62.63,13.78 62.91,13.78 62.91,13.76 63.2,13.76 63.2,13.79 63.49,13.79 63.49,13.76 63.77,13.76 63.77,13.77 64.06,13.77 64.06,13.77 64.35,13.77 64.35,13.79 64.64,13.79 64.64,13.74 64.92,13.74 64.92,13.78 65.21,13.78 65.21,13.76 65.5,13.76 65.5,13.69 65.78,13.69 65.78,13.72 66.07,13.72 66.07,13.71 66.36,13.71 66.36,13.67 66.64,13.67 66.64,13.71 66.93,13.71 66.93,13.66 67.22,13.66 67.22,13.65 67.51,13.65 67.51,13.63 67.79,13.63 67.79,13.62 68.08,13.62 68.08,13.57 68.37,13.57 68.37,13.62 68.65,13.62 68.65,13.59 68.94,13.59 68.94,13.61 69.23,13.61 69.23,13.59 69.51,13.59 69.51,13.57 69.8,13.57 69.8,13.6 70.09,13.6 70.09,13.63 70.37,13.63 70.37,13.66 70.66,13.66 70.66,13.64 70.95,13.64 70.95,13.63 71.24,13.63 71.24,13.69 71.52,13.69 71.52,13.68 71.81,13.68 71.81,13.68 72.1,13.68 72.1,13.74 72.38,13.74 72.38,13.71 72.67,13.71 72.67,13.7 72.96,13.7 72.96,13.72 73.24,13.72 73.24,13.72 73.53,13.72 73.53,13.72 73.82,13.72 73.82,13.72 74.11,13.72 74.11,13.73 74.39,13.73 74.39,13.74 74.68,13.74 74.68,13.73 74.97,13.73 74.97,13.72 75.25,13.72 75.25,13.7 75.54,13.7 75.54,13.73 75.83,13.73 75.83,13.7 76.11,13.7 76.11,13.74 76.4,13.74 76.4,13.71 76.69,13.71 76.69,13.72 76.97,13.72 76.97,13.68 77.26,13.68 77.26,13.76 77.55,13.76 77.55,13.69 77.84,13.69 77.84,13.71 78.12,13.71 78.12,13.7 78.41,13.7 78.41,13.68 78.7,13.68 78.7,13.7 78.98,13.7 78.98,13.7 79.27,13.7 79.27,13.7 79.56,13.7 79.56,13.71 79.84,13.71 79.84,13.68 80.13,13.68 80.13,13.7 80.42,13.7 80.42,13.68 80.71,13.68 80.71,13.71 80.99,13.71 80.99,13.71 81.28,13.71 81.28,13.7 81.57,13.7 81.57,13.7 81.85,13.7 81.85,13.73 82.14,13.73 82.14,13.68 82.43,13.68 82.43,13.69 82.71,13.69 82.71,13.66 83,13.66 83,13.68 83.29,13.68 83.29,13.68 83.57,13.68 83.57,13.68 83.86,13.68 83.86,13.67 84.15,13.67 84.15,13.67 84.44,13.67 84.44,13.66 84.72,13.66 84.72,13.67 85.01,13.67 85.01,13.69 85.3,13.69 85.3,13.66 85.58,13.66 85.58,13.68 85.87,13.68 85.87,13.65 86.16,13.65 86.16,13.67 86.44,13.67 86.44,13.64 86.73,13.64 86.73,13.67 87.02,13.67 87.02,13.62 87.3,13.62 87.3,13.64 87.59,13.64 87.59,13.63 87.88,13.63 87.88,13.63 88.17,13.63 88.17,13.64 88.45,13.64 88.45,13.66 88.74,13.66 88.74,13.62 89.03,13.62 89.03,13.65 89.31,13.65 89.31,13.64 89.6,13.64 89.6,13.61 89.89,13.61 89.89,13.66 90.17,13.66 90.17,13.67 90.46,13.67 90.46,13.65 90.75,13.65 90.75,13.65 91.04,13.65 91.04,13.67 91.32,13.67 91.32,13.64 91.61,13.64 91.61,13.66 91.9,13.66 91.9,13.69 92.18,13.69 92.18,13.67 92.47,13.67 92.47,13.62 92.76,13.62 92.76,13.62 93.04,13.62 93.04,13.66 93.33,13.66 93.33,13.65 93.62,13.65 93.62,13.64 93.9,13.64 93.9,13.6 94.19,13.6 94.19,13.63 94.48,13.63 94.48,13.63 94.77,13.63 94.77,13.63 95.05,13.63 95.05,13.65 95.34,13.65 95.34,13.62 95.63,13.62 95.63,13.62 95.91,13.62 95.91,13.61 96.2,13.61 96.2,13.63 96.49,13.63 96.49,13.61 96.77,13.61 96.77,13.65 97.06,13.65 97.06,13.63 97.35,13.63 97.35,13.62 97.64,13.62 97.64,13.59 97.92,13.59 97.92,13.57 98.21,13.57 98.21,13.59 98.5,13.59 98.5,13.6 98.78,13.6 98.78,13.59 99.07,13.59 99.07,13.58 99.36,13.58 99.36,13.56 99.64,13.56 99.64,13.58 99.93,13.58 99.93,13.52 100.22,13.52 100.22,13.61 100.5,13.61 100.5,13.58 100.79,13.58 100.79,13.57 101.08,13.57 101.08,13.58 101.37,13.58 101.37,13.58 101.65,13.58 101.65,13.58 101.94,13.58 101.94,13.58 102.23,13.58 102.23,13.58 102.51,13.58 102.51,13.56 102.8,13.56 102.8,13.59 103.09,13.59 103.09,13.58 103.37,13.58 103.37,13.58 103.66,13.58 103.66,13.6 103.95,13.6 103.95,13.58 104.24,13.58 104.24,13.57 104.52,13.57 104.52,13.6 104.81,13.6 104.81,13.57 105.1,13.57 105.1,13.6 105.38,13.6 105.38,13.58 105.67,13.58 105.67,13.58 105.96,13.58 105.96,13.57 106.24,13.57 106.24,13.57 106.53,13.57 106.53,13.59 106.82,13.59 106.82,13.59 107.1,13.59 107.1,13.56 107.39,13.56 107.39,13.59 107.68,13.59 107.68,13.57 107.97,13.57 107.97,13.54 108.25,13.54 108.25,13.59 108.54,13.59 108.54,13.56 108.83,13.56 108.83,13.57 109.11,13.57 109.11,13.57 109.4,13.57 109.4,13.58 109.69,13.58 109.69,13.57 109.97,13.57 109.97,13.63 110.26,13.63 110.26,13.56 110.55,13.56 110.55,13.55 110.83,13.55 110.83,13.61 111.12,13.61 111.12,13.54 111.41,13.54 111.41,13.6 111.7,13.6 111.7,13.57 111.98,13.57 111.98,13.52 112.27,13.52 112.27,13.57 112.56,13.57 112.56,13.54 112.84,13.54 112.84,13.6 113.13,13.6 113.13,13.57 113.42,13.57 113.42,13.54 113.7,13.54 113.7,13.55 113.99,13.55 113.99,13.56 114.28,13.56 114.28,13.56 114.57,13.56 114.57,13.52 " class="primitive"/>
            </g>
          </g>
        </g>
        <g stroke-width="0.3" fill="#000000" fill-opacity="0.000" class="geometry" id="img-9e35f7c5-24">
          <g class="color_RGB{N0f8}(0.063,0.306,0.545)" stroke-dasharray="none" stroke-opacity="1" stroke="#104E8B" id="img-9e35f7c5-25">
            <g transform="translate(136.46,42.86)" id="img-9e35f7c5-26">
              <path fill="none" d="M-114.71,17 L-114.42,17 -114.42,17 -114.13,17 -114.13,17 -113.85,17 -113.85,17 -113.56,17 -113.56,17 -113.27,17 -113.27,17 -112.99,17 -112.99,17 -112.7,17 -112.7,17 -112.41,17 -112.41,17 -112.13,17 -112.13,17 -111.84,17 -111.84,17 -111.55,17 -111.55,17 -111.27,17 -111.27,17 -110.98,17 -110.98,16.99 -110.69,16.99 -110.69,16.98 -110.4,16.98 -110.4,16.97 -110.12,16.97 -110.12,16.95 -109.83,16.95 -109.83,16.91 -109.54,16.91 -109.54,16.84 -109.26,16.84 -109.26,16.74 -108.97,16.74 -108.97,16.51 -108.68,16.51 -108.68,16.07 -108.4,16.07 -108.4,15.26 -108.11,15.26 -108.11,13.9 -107.82,13.9 -107.82,11.94 -107.53,11.94 -107.53,9.77 -107.25,9.77 -107.25,7.99 -106.96,7.99 -106.96,7.44 -106.67,7.44 -106.67,8.14 -106.39,8.14 -106.39,9.82 -106.1,9.82 -106.1,11.71 -105.81,11.71 -105.81,13.26 -105.53,13.26 -105.53,14.16 -105.24,14.16 -105.24,14.49 -104.95,14.49 -104.95,14.5 -104.67,14.5 -104.67,14.14 -104.38,14.14 -104.38,13.76 -104.09,13.76 -104.09,13.37 -103.8,13.37 -103.8,13.03 -103.52,13.03 -103.52,12.74 -103.23,12.74 -103.23,12.51 -102.94,12.51 -102.94,11.95 -102.66,11.95 -102.66,11.05 -102.37,11.05 -102.37,8.99 -102.08,8.99 -102.08,4.94 -101.8,4.94 -101.8,-3.47 -101.51,-3.47 -101.51,-19 -101.22,-19 -101.22,-45.27 -100.93,-45.27 -100.93,-85.31 -100.65,-85.31 -100.65,-136.92 -100.36,-136.92 -100.36,-190.01 -100.07,-190.01 -100.07,-228.8 -99.79,-228.8 -99.79,-238.53 -99.5,-238.53 -99.5,-215.05 -99.21,-215.05 -99.21,-166.14 -98.93,-166.14 -98.93,-109.13 -98.64,-109.13 -98.64,-59.82 -98.35,-59.82 -98.35,-24.55 -98.07,-24.55 -98.07,-3.68 -97.78,-3.68 -97.78,6.91 -97.49,6.91 -97.49,11.49 -97.2,11.49 -97.2,13.27 -96.92,13.27 -96.92,13.86 -96.63,13.86 -96.63,13.96 -96.34,13.96 -96.34,13.94 -96.06,13.94 -96.06,13.78 -95.77,13.78 -95.77,13.63 -95.48,13.63 -95.48,13.44 -95.2,13.44 -95.2,13.24 -94.91,13.24 -94.91,13.21 -94.62,13.21 -94.62,13.11 -94.34,13.11 -94.34,13.2 -94.05,13.2 -94.05,13.19 -93.76,13.19 -93.76,13.23 -93.47,13.23 -93.47,13.22 -93.19,13.22 -93.19,13.19 -92.9,13.19 -92.9,13.15 -92.61,13.15 -92.61,13 -92.33,13 -92.33,12.9 -92.04,12.9 -92.04,12.78 -91.75,12.78 -91.75,12.66 -91.47,12.66 -91.47,12.45 -91.18,12.45 -91.18,12.28 -90.89,12.28 -90.89,12.14 -90.6,12.14 -90.6,12.07 -90.32,12.07 -90.32,11.89 -90.03,11.89 -90.03,11.67 -89.74,11.67 -89.74,11.6 -89.46,11.6 -89.46,11.41 -89.17,11.41 -89.17,11.25 -88.88,11.25 -88.88,11.11 -88.6,11.11 -88.6,10.9 -88.31,10.9 -88.31,10.64 -88.02,10.64 -88.02,10.51 -87.74,10.51 -87.74,10.33 -87.45,10.33 -87.45,10.09 -87.16,10.09 -87.16,9.83 -86.87,9.83 -86.87,9.55 -86.59,9.55 -86.59,9.32 -86.3,9.32 -86.3,9.01 -86.01,9.01 -86.01,8.6 -85.73,8.6 -85.73,8.25 -85.44,8.25 -85.44,7.71 -85.15,7.71 -85.15,7.23 -84.87,7.23 -84.87,6.79 -84.58,6.79 -84.58,6.25 -84.29,6.25 -84.29,5.69 -84,5.69 -84,5.22 -83.72,5.22 -83.72,4.56 -83.43,4.56 -83.43,3.84 -83.14,3.84 -83.14,3.1 -82.86,3.1 -82.86,2.02 -82.57,2.02 -82.57,0.88 -82.28,0.88 -82.28,-0.8 -82,-0.8 -82,-3.71 -81.71,-3.71 -81.71,-8.84 -81.42,-8.84 -81.42,-19.22 -81.14,-19.22 -81.14,-41.16 -80.85,-41.16 -80.85,-83.74 -80.56,-83.74 -80.56,-159.09 -80.27,-159.09 -80.27,-279.9 -79.99,-279.9 -79.99,-450.3 -79.7,-450.3 -79.7,-656.98 -79.41,-656.98 -79.41,-869.57 -79.13,-869.57 -79.13,-1040.94 -78.84,-1040.94 -78.84,-1126.21 -78.55,-1126.21 -78.55,-1103.53 -78.27,-1103.53 -78.27,-977.95 -77.98,-977.95 -77.98,-787.76 -77.69,-787.76 -77.69,-575.02 -77.4,-575.02 -77.4,-383.55 -77.12,-383.55 -77.12,-232.47 -76.83,-232.47 -76.83,-127.97 -76.54,-127.97 -76.54,-62.9 -76.26,-62.9 -76.26,-25.9 -75.97,-25.9 -75.97,-6.24 -75.68,-6.24 -75.68,3.62 -75.4,3.62 -75.4,8.42 -75.11,8.42 -75.11,10.71 -74.82,10.71 -74.82,11.99 -74.54,11.99 -74.54,12.63 -74.25,12.63 -74.25,13.04 -73.96,13.04 -73.96,13.24 -73.67,13.24 -73.67,13.37 -73.39,13.37 -73.39,13.36 -73.1,13.36 -73.1,13.35 -72.81,13.35 -72.81,13.38 -72.53,13.38 -72.53,13.29 -72.24,13.29 -72.24,13.29 -71.95,13.29 -71.95,13.27 -71.67,13.27 -71.67,13.23 -71.38,13.23 -71.38,13.27 -71.09,13.27 -71.09,13.25 -70.81,13.25 -70.81,13.32 -70.52,13.32 -70.52,13.34 -70.23,13.34 -70.23,13.38 -69.94,13.38 -69.94,13.46 -69.66,13.46 -69.66,13.48 -69.37,13.48 -69.37,13.5 -69.08,13.5 -69.08,13.51 -68.8,13.51 -68.8,13.52 -68.51,13.52 -68.51,13.48 -68.22,13.48 -68.22,13.39 -67.94,13.39 -67.94,13.4 -67.65,13.4 -67.65,13.34 -67.36,13.34 -67.36,13.29 -67.07,13.29 -67.07,13.25 -66.79,13.25 -66.79,13.15 -66.5,13.15 -66.5,13.04 -66.21,13.04 -66.21,12.88 -65.93,12.88 -65.93,12.65 -65.64,12.65 -65.64,12.27 -65.35,12.27 -65.35,11.98 -65.07,11.98 -65.07,11.58 -64.78,11.58 -64.78,11.08 -64.49,11.08 -64.49,10.7 -64.21,10.7 -64.21,10.37 -63.92,10.37 -63.92,10.2 -63.63,10.2 -63.63,10.32 -63.34,10.32 -63.34,10.54 -63.06,10.54 -63.06,10.9 -62.77,10.9 -62.77,11.28 -62.48,11.28 -62.48,11.79 -62.2,11.79 -62.2,12.15 -61.91,12.15 -61.91,12.42 -61.62,12.42 -61.62,12.67 -61.34,12.67 -61.34,12.8 -61.05,12.8 -61.05,12.89 -60.76,12.89 -60.76,12.9 -60.47,12.9 -60.47,12.99 -60.19,12.99 -60.19,13.01 -59.9,13.01 -59.9,12.96 -59.61,12.96 -59.61,12.93 -59.33,12.93 -59.33,12.92 -59.04,12.92 -59.04,13.01 -58.75,13.01 -58.75,12.88 -58.47,12.88 -58.47,12.89 -58.18,12.89 -58.18,12.83 -57.89,12.83 -57.89,12.84 -57.61,12.84 -57.61,12.86 -57.32,12.86 -57.32,12.77 -57.03,12.77 -57.03,12.75 -56.74,12.75 -56.74,12.78 -56.46,12.78 -56.46,12.8 -56.17,12.8 -56.17,12.8 -55.88,12.8 -55.88,12.71 -55.6,12.71 -55.6,12.69 -55.31,12.69 -55.31,12.69 -55.02,12.69 -55.02,12.7 -54.74,12.7 -54.74,12.62 -54.45,12.62 -54.45,12.74 -54.16,12.74 -54.16,12.61 -53.88,12.61 -53.88,12.64 -53.59,12.64 -53.59,12.61 -53.3,12.61 -53.3,12.6 -53.01,12.6 -53.01,12.58 -52.73,12.58 -52.73,12.63 -52.44,12.63 -52.44,12.61 -52.15,12.61 -52.15,12.59 -51.87,12.59 -51.87,12.65 -51.58,12.65 -51.58,12.62 -51.29,12.62 -51.29,12.55 -51.01,12.55 -51.01,12.54 -50.72,12.54 -50.72,12.55 -50.43,12.55 -50.43,12.57 -50.14,12.57 -50.14,12.57 -49.86,12.57 -49.86,12.5 -49.57,12.5 -49.57,12.5 -49.28,12.5 -49.28,12.51 -49,12.51 -49,12.51 -48.71,12.51 -48.71,12.44 -48.42,12.44 -48.42,12.46 -48.14,12.46 -48.14,12.43 -47.85,12.43 -47.85,12.38 -47.56,12.38 -47.56,12.43 -47.28,12.43 -47.28,12.42 -46.99,12.42 -46.99,12.4 -46.7,12.4 -46.7,12.37 -46.41,12.37 -46.41,12.36 -46.13,12.36 -46.13,12.41 -45.84,12.41 -45.84,12.34 -45.55,12.34 -45.55,12.27 -45.27,12.27 -45.27,12.12 -44.98,12.12 -44.98,11.99 -44.69,11.99 -44.69,11.68 -44.41,11.68 -44.41,11.33 -44.12,11.33 -44.12,10.8 -43.83,10.8 -43.83,10.41 -43.54,10.41 -43.54,9.91 -43.26,9.91 -43.26,9.46 -42.97,9.46 -42.97,9.2 -42.68,9.2 -42.68,9.08 -42.4,9.08 -42.4,9.24 -42.11,9.24 -42.11,9.55 -41.82,9.55 -41.82,9.91 -41.54,9.91 -41.54,10.29 -41.25,10.29 -41.25,10.83 -40.96,10.83 -40.96,11.3 -40.68,11.3 -40.68,11.62 -40.39,11.62 -40.39,11.98 -40.1,11.98 -40.1,12.17 -39.81,12.17 -39.81,12.26 -39.53,12.26 -39.53,12.38 -39.24,12.38 -39.24,12.45 -38.95,12.45 -38.95,12.37 -38.67,12.37 -38.67,12.48 -38.38,12.48 -38.38,12.49 -38.09,12.49 -38.09,12.44 -37.81,12.44 -37.81,12.45 -37.52,12.45 -37.52,12.49 -37.23,12.49 -37.23,12.53 -36.94,12.53 -36.94,12.5 -36.66,12.5 -36.66,12.54 -36.37,12.54 -36.37,12.53 -36.08,12.53 -36.08,12.57 -35.8,12.57 -35.8,12.61 -35.51,12.61 -35.51,12.56 -35.22,12.56 -35.22,12.63 -34.94,12.63 -34.94,12.62 -34.65,12.62 -34.65,12.61 -34.36,12.61 -34.36,12.57 -34.08,12.57 -34.08,12.63 -33.79,12.63 -33.79,12.64 -33.5,12.64 -33.5,12.59 -33.21,12.59 -33.21,12.68 -32.93,12.68 -32.93,12.63 -32.64,12.63 -32.64,12.6 -32.35,12.6 -32.35,12.61 -32.07,12.61 -32.07,12.7 -31.78,12.7 -31.78,12.69 -31.49,12.69 -31.49,12.73 -31.21,12.73 -31.21,12.75 -30.92,12.75 -30.92,12.65 -30.63,12.65 -30.63,12.72 -30.35,12.72 -30.35,12.77 -30.06,12.77 -30.06,12.7 -29.77,12.7 -29.77,12.76 -29.48,12.76 -29.48,12.73 -29.2,12.73 -29.2,12.68 -28.91,12.68 -28.91,12.75 -28.62,12.75 -28.62,12.73 -28.34,12.73 -28.34,12.81 -28.05,12.81 -28.05,12.81 -27.76,12.81 -27.76,12.76 -27.48,12.76 -27.48,12.83 -27.19,12.83 -27.19,12.8 -26.9,12.8 -26.9,12.77 -26.61,12.77 -26.61,12.79 -26.33,12.79 -26.33,12.87 -26.04,12.87 -26.04,12.85 -25.75,12.85 -25.75,12.88 -25.47,12.88 -25.47,12.89 -25.18,12.89 -25.18,12.87 -24.89,12.87 -24.89,12.88 -24.61,12.88 -24.61,12.82 -24.32,12.82 -24.32,13.01 -24.03,13.01 -24.03,12.99 -23.75,12.99 -23.75,12.95 -23.46,12.95 -23.46,12.99 -23.17,12.99 -23.17,12.97 -22.88,12.97 -22.88,13.02 -22.6,13.02 -22.6,12.96 -22.31,12.96 -22.31,12.97 -22.02,12.97 -22.02,12.97 -21.74,12.97 -21.74,13.03 -21.45,13.03 -21.45,12.97 -21.16,12.97 -21.16,13.06 -20.88,13.06 -20.88,13.04 -20.59,13.04 -20.59,13 -20.3,13 -20.3,13.06 -20.01,13.06 -20.01,13.12 -19.73,13.12 -19.73,13.12 -19.44,13.12 -19.44,13.07 -19.15,13.07 -19.15,13.12 -18.87,13.12 -18.87,13.15 -18.58,13.15 -18.58,13.15 -18.29,13.15 -18.29,13.13 -18.01,13.13 -18.01,13.2 -17.72,13.2 -17.72,13.14 -17.43,13.14 -17.43,13.14 -17.15,13.14 -17.15,13.18 -16.86,13.18 -16.86,13.2 -16.57,13.2 -16.57,13.22 -16.28,13.22 -16.28,13.17 -16,13.17 -16,13.24 -15.71,13.24 -15.71,13.22 -15.42,13.22 -15.42,13.24 -15.14,13.24 -15.14,13.25 -14.85,13.25 -14.85,13.24 -14.56,13.24 -14.56,13.26 -14.28,13.26 -14.28,13.24 -13.99,13.24 -13.99,13.3 -13.7,13.3 -13.7,13.3 -13.41,13.3 -13.41,13.25 -13.13,13.25 -13.13,13.27 -12.84,13.27 -12.84,13.29 -12.55,13.29 -12.55,13.32 -12.27,13.32 -12.27,13.29 -11.98,13.29 -11.98,13.33 -11.69,13.33 -11.69,13.34 -11.41,13.34 -11.41,13.26 -11.12,13.26 -11.12,13.29 -10.83,13.29 -10.83,13.36 -10.55,13.36 -10.55,13.34 -10.26,13.34 -10.26,13.28 -9.97,13.28 -9.97,13.31 -9.68,13.31 -9.68,13.25 -9.4,13.25 -9.4,13.28 -9.11,13.28 -9.11,13.27 -8.82,13.27 -8.82,13.24 -8.54,13.24 -8.54,13.2 -8.25,13.2 -8.25,13.31 -7.96,13.31 -7.96,13.29 -7.68,13.29 -7.68,13.32 -7.39,13.32 -7.39,13.38 -7.1,13.38 -7.1,13.4 -6.82,13.4 -6.82,13.4 -6.53,13.4 -6.53,13.51 -6.24,13.51 -6.24,13.54 -5.95,13.54 -5.95,13.53 -5.67,13.53 -5.67,13.49 -5.38,13.49 -5.38,13.52 -5.09,13.52 -5.09,13.58 -4.81,13.58 -4.81,13.57 -4.52,13.57 -4.52,13.58 -4.23,13.58 -4.23,13.59 -3.95,13.59 -3.95,13.61 -3.66,13.61 -3.66,13.61 -3.37,13.61 -3.37,13.59 -3.08,13.59 -3.08,13.65 -2.8,13.65 -2.8,13.61 -2.51,13.61 -2.51,13.6 -2.22,13.6 -2.22,13.66 -1.94,13.66 -1.94,13.63 -1.65,13.63 -1.65,13.7 -1.36,13.7 -1.36,13.66 -1.08,13.66 -1.08,13.69 -0.79,13.69 -0.79,13.64 -0.5,13.64 -0.5,13.73 -0.22,13.73 -0.22,13.71 0.07,13.71 0.07,13.77 0.36,13.77 0.36,13.7 0.65,13.7 0.65,13.69 0.93,13.69 0.93,13.7 1.22,13.7 1.22,13.76 1.51,13.76 1.51,13.74 1.79,13.74 1.79,13.84 2.08,13.84 2.08,13.79 2.37,13.79 2.37,13.76 2.65,13.76 2.65,13.85 2.94,13.85 2.94,13.81 3.23,13.81 3.23,13.85 3.52,13.85 3.52,13.86 3.8,13.86 3.8,13.87 4.09,13.87 4.09,13.88 4.38,13.88 4.38,13.87 4.66,13.87 4.66,13.89 4.95,13.89 4.95,13.93 5.24,13.93 5.24,13.94 5.52,13.94 5.52,13.93 5.81,13.93 5.81,13.89 6.1,13.89 6.1,13.9 6.38,13.9 6.38,13.96 6.67,13.96 6.67,13.97 6.96,13.97 6.96,13.91 7.25,13.91 7.25,13.97 7.53,13.97 7.53,13.98 7.82,13.98 7.82,13.98 8.11,13.98 8.11,13.98 8.39,13.98 8.39,13.99 8.68,13.99 8.68,14 8.97,14 8.97,13.99 9.25,13.99 9.25,14.07 9.54,14.07 9.54,14.08 9.83,14.08 9.83,14.09 10.12,14.09 10.12,14.09 10.4,14.09 10.4,14.1 10.69,14.1 10.69,14.1 10.98,14.1 10.98,14.07 11.26,14.07 11.26,14.05 11.55,14.05 11.55,14.12 11.84,14.12 11.84,14.15 12.12,14.15 12.12,14.16 12.41,14.16 12.41,14.11 12.7,14.11 12.7,14.15 12.98,14.15 12.98,14.16 13.27,14.16 13.27,14.15 13.56,14.15 13.56,14.18 13.85,14.18 13.85,14.18 14.13,14.18 14.13,14.2 14.42,14.2 14.42,14.19 14.71,14.19 14.71,14.23 14.99,14.23 14.99,14.16 15.28,14.16 15.28,14.22 15.57,14.22 15.57,14.2 15.85,14.2 15.85,14.22 16.14,14.22 16.14,14.25 16.43,14.25 16.43,14.25 16.71,14.25 16.71,14.27 17,14.27 17,14.27 17.29,14.27 17.29,14.26 17.58,14.26 17.58,14.29 17.86,14.29 17.86,14.26 18.15,14.26 18.15,14.32 18.44,14.32 18.44,14.3 18.72,14.3 18.72,14.27 19.01,14.27 19.01,14.3 19.3,14.3 19.3,14.3 19.58,14.3 19.58,14.33 19.87,14.33 19.87,14.31 20.16,14.31 20.16,14.31 20.45,14.31 20.45,14.36 20.73,14.36 20.73,14.4 21.02,14.4 21.02,14.34 21.31,14.34 21.31,14.42 21.59,14.42 21.59,14.39 21.88,14.39 21.88,14.39 22.17,14.39 22.17,14.38 22.45,14.38 22.45,14.42 22.74,14.42 22.74,14.36 23.03,14.36 23.03,14.42 23.31,14.42 23.31,14.41 23.6,14.41 23.6,14.44 23.89,14.44 23.89,14.47 24.18,14.47 24.18,14.47 24.46,14.47 24.46,14.45 24.75,14.45 24.75,14.45 25.04,14.45 25.04,14.46 25.32,14.46 25.32,14.49 25.61,14.49 25.61,14.48 25.9,14.48 25.9,14.5 26.18,14.5 26.18,14.47 26.47,14.47 26.47,14.51 26.76,14.51 26.76,14.49 27.05,14.49 27.05,14.45 27.33,14.45 27.33,14.49 27.62,14.49 27.62,14.51 27.91,14.51 27.91,14.48 28.19,14.48 28.19,14.49 28.48,14.49 28.48,14.53 28.77,14.53 28.77,14.59 29.05,14.59 29.05,14.55 29.34,14.55 29.34,14.54 29.63,14.54 29.63,14.58 29.91,14.58 29.91,14.61 30.2,14.61 30.2,14.58 30.49,14.58 30.49,14.6 30.78,14.6 30.78,14.58 31.06,14.58 31.06,14.61 31.35,14.61 31.35,14.59 31.64,14.59 31.64,14.61 31.92,14.61 31.92,14.64 32.21,14.64 32.21,14.59 32.5,14.59 32.5,14.61 32.78,14.61 32.78,14.67 33.07,14.67 33.07,14.66 33.36,14.66 33.36,14.64 33.65,14.64 33.65,14.65 33.93,14.65 33.93,14.62 34.22,14.62 34.22,14.67 34.51,14.67 34.51,14.65 34.79,14.65 34.79,14.69 35.08,14.69 35.08,14.71 35.37,14.71 35.37,14.75 35.65,14.75 35.65,14.73 35.94,14.73 35.94,14.74 36.23,14.74 36.23,14.78 36.51,14.78 36.51,14.73 36.8,14.73 36.8,14.75 37.09,14.75 37.09,14.74 37.38,14.74 37.38,14.77 37.66,14.77 37.66,14.7 37.95,14.7 37.95,14.79 38.24,14.79 38.24,14.74 38.52,14.74 38.52,14.8 38.81,14.8 38.81,14.77 39.1,14.77 39.1,14.73 39.38,14.73 39.38,14.73 39.67,14.73 39.67,14.74 39.96,14.74 39.96,14.76 40.24,14.76 40.24,14.82 40.53,14.82 40.53,14.73 40.82,14.73 40.82,14.81 41.11,14.81 41.11,14.74 41.39,14.74 41.39,14.81 41.68,14.81 41.68,14.81 41.97,14.81 41.97,14.78 42.25,14.78 42.25,14.82 42.54,14.82 42.54,14.83 42.83,14.83 42.83,14.86 43.11,14.86 43.11,14.85 43.4,14.85 43.4,14.87 43.69,14.87 43.69,14.91 43.98,14.91 43.98,14.88 44.26,14.88 44.26,14.91 44.55,14.91 44.55,14.96 44.84,14.96 44.84,14.89 45.12,14.89 45.12,14.9 45.41,14.9 45.41,14.95 45.7,14.95 45.7,14.95 45.98,14.95 45.98,14.95 46.27,14.95 46.27,14.94 46.56,14.94 46.56,14.97 46.84,14.97 46.84,14.99 47.13,14.99 47.13,14.99 47.42,14.99 47.42,14.92 47.71,14.92 47.71,14.97 47.99,14.97 47.99,14.99 48.28,14.99 48.28,14.97 48.57,14.97 48.57,15.01 48.85,15.01 48.85,15.01 49.14,15.01 49.14,14.99 49.43,14.99 49.43,15.03 49.71,15.03 49.71,15 50,15 50,15.02 50.29,15.02 50.29,15.02 50.58,15.02 50.58,15.02 50.86,15.02 50.86,15 51.15,15 51.15,15.03 51.44,15.03 51.44,15.03 51.72,15.03 51.72,15.06 52.01,15.06 52.01,15.08 52.3,15.08 52.3,15.07 52.58,15.07 52.58,15.05 52.87,15.05 52.87,15.1 53.16,15.1 53.16,15.06 53.44,15.06 53.44,15.08 53.73,15.08 53.73,15.03 54.02,15.03 54.02,15.11 54.31,15.11 54.31,15.1 54.59,15.1 54.59,15.11 54.88,15.11 54.88,15.11 55.17,15.11 55.17,15.1 55.45,15.1 55.45,15.08 55.74,15.08 55.74,15.13 56.03,15.13 56.03,15.14 56.31,15.14 56.31,15.12 56.6,15.12 56.6,15.11 56.89,15.11 56.89,15.16 57.18,15.16 57.18,15.11 57.46,15.11 57.46,15.17 57.75,15.17 57.75,15.16 58.04,15.16 58.04,15.19 58.32,15.19 58.32,15.18 58.61,15.18 58.61,15.16 58.9,15.16 58.9,15.19 59.18,15.19 59.18,15.19 59.47,15.19 59.47,15.23 59.76,15.23 59.76,15.23 60.04,15.23 60.04,15.18 60.33,15.18 60.33,15.19 60.62,15.19 60.62,15.22 60.91,15.22 60.91,15.25 61.19,15.25 61.19,15.21 61.48,15.21 61.48,15.21 61.77,15.21 61.77,15.25 62.05,15.25 62.05,15.23 62.34,15.23 62.34,15.22 62.63,15.22 62.63,15.24 62.91,15.24 62.91,15.23 63.2,15.23 63.2,15.27 63.49,15.27 63.49,15.24 63.77,15.24 63.77,15.26 64.06,15.26 64.06,15.26 64.35,15.26 64.35,15.29 64.64,15.29 64.64,15.24 64.92,15.24 64.92,15.29 65.21,15.29 65.21,15.28 65.5,15.28 65.5,15.22 65.78,15.22 65.78,15.25 66.07,15.25 66.07,15.25 66.36,15.25 66.36,15.21 66.64,15.21 66.64,15.26 66.93,15.26 66.93,15.21 67.22,15.21 67.22,15.21 67.51,15.21 67.51,15.19 67.79,15.19 67.79,15.2 68.08,15.2 68.08,15.15 68.37,15.15 68.37,15.21 68.65,15.21 68.65,15.18 68.94,15.18 68.94,15.2 69.23,15.2 69.23,15.19 69.51,15.19 69.51,15.17 69.8,15.17 69.8,15.21 70.09,15.21 70.09,15.25 70.37,15.25 70.37,15.28 70.66,15.28 70.66,15.27 70.95,15.27 70.95,15.27 71.24,15.27 71.24,15.34 71.52,15.34 71.52,15.33 71.81,15.33 71.81,15.33 72.1,15.33 72.1,15.4 72.38,15.4 72.38,15.38 72.67,15.38 72.67,15.37 72.96,15.37 72.96,15.39 73.24,15.39 73.24,15.41 73.53,15.41 73.53,15.4 73.82,15.4 73.82,15.41 74.11,15.41 74.11,15.42 74.39,15.42 74.39,15.44 74.68,15.44 74.68,15.44 74.97,15.44 74.97,15.43 75.25,15.43 75.25,15.42 75.54,15.42 75.54,15.46 75.83,15.46 75.83,15.43 76.11,15.43 76.11,15.47 76.4,15.47 76.4,15.45 76.69,15.45 76.69,15.46 76.97,15.46 76.97,15.43 77.26,15.43 77.26,15.52 77.55,15.52 77.55,15.46 77.84,15.46 77.84,15.48 78.12,15.48 78.12,15.47 78.41,15.47 78.41,15.46 78.7,15.46 78.7,15.49 78.98,15.49 78.98,15.49 79.27,15.49 79.27,15.5 79.56,15.5 79.56,15.51 79.84,15.51 79.84,15.48 80.13,15.48 80.13,15.51 80.42,15.51 80.42,15.5 80.71,15.5 80.71,15.53 80.99,15.53 80.99,15.54 81.28,15.54 81.28,15.53 81.57,15.53 81.57,15.53 81.85,15.53 81.85,15.57 82.14,15.57 82.14,15.53 82.43,15.53 82.43,15.54 82.71,15.54 82.71,15.52 83,15.52 83,15.54 83.29,15.54 83.29,15.55 83.57,15.55 83.57,15.55 83.86,15.55 83.86,15.55 84.15,15.55 84.15,15.55 84.44,15.55 84.44,15.55 84.72,15.55 84.72,15.56 85.01,15.56 85.01,15.59 85.3,15.59 85.3,15.56 85.58,15.56 85.58,15.58 85.87,15.58 85.87,15.56 86.16,15.56 86.16,15.58 86.44,15.58 86.44,15.56 86.73,15.56 86.73,15.6 87.02,15.6 87.02,15.56 87.3,15.56 87.3,15.57 87.59,15.57 87.59,15.57 87.88,15.57 87.88,15.58 88.17,15.58 88.17,15.59 88.45,15.59 88.45,15.62 88.74,15.62 88.74,15.59 89.03,15.59 89.03,15.62 89.31,15.62 89.31,15.61 89.6,15.61 89.6,15.58 89.89,15.58 89.89,15.64 90.17,15.64 90.17,15.65 90.46,15.65 90.46,15.64 90.75,15.64 90.75,15.64 91.04,15.64 91.04,15.67 91.32,15.67 91.32,15.64 91.61,15.64 91.61,15.67 91.9,15.67 91.9,15.7 92.18,15.7 92.18,15.69 92.47,15.69 92.47,15.64 92.76,15.64 92.76,15.65 93.04,15.65 93.04,15.69 93.33,15.69 93.33,15.69 93.62,15.69 93.62,15.68 93.9,15.68 93.9,15.65 94.19,15.65 94.19,15.68 94.48,15.68 94.48,15.68 94.77,15.68 94.77,15.69 95.05,15.69 95.05,15.72 95.34,15.72 95.34,15.69 95.63,15.69 95.63,15.69 95.91,15.69 95.91,15.69 96.2,15.69 96.2,15.71 96.49,15.71 96.49,15.7 96.77,15.7 96.77,15.74 97.06,15.74 97.06,15.73 97.35,15.73 97.35,15.72 97.64,15.72 97.64,15.69 97.92,15.69 97.92,15.68 98.21,15.68 98.21,15.7 98.5,15.7 98.5,15.72 98.78,15.72 98.78,15.71 99.07,15.71 99.07,15.71 99.36,15.71 99.36,15.69 99.64,15.69 99.64,15.72 99.93,15.72 99.93,15.67 100.22,15.67 100.22,15.75 100.5,15.75 100.5,15.73 100.79,15.73 100.79,15.73 101.08,15.73 101.08,15.74 101.37,15.74 101.37,15.75 101.65,15.75 101.65,15.75 101.94,15.75 101.94,15.75 102.23,15.75 102.23,15.76 102.51,15.76 102.51,15.74 102.8,15.74 102.8,15.78 103.09,15.78 103.09,15.76 103.37,15.76 103.37,15.77 103.66,15.77 103.66,15.8 103.95,15.8 103.95,15.78 104.24,15.78 104.24,15.77 104.52,15.77 104.52,15.81 104.81,15.81 104.81,15.79 105.1,15.79 105.1,15.82 105.38,15.82 105.38,15.8 105.67,15.8 105.67,15.8 105.96,15.8 105.96,15.8 106.24,15.8 106.24,15.8 106.53,15.8 106.53,15.83 106.82,15.83 106.82,15.83 107.1,15.83 107.1,15.81 107.39,15.81 107.39,15.84 107.68,15.84 107.68,15.82 107.97,15.82 107.97,15.8 108.25,15.8 108.25,15.85 108.54,15.85 108.54,15.83 108.83,15.83 108.83,15.84 109.11,15.84 109.11,15.85 109.4,15.85 109.4,15.86 109.69,15.86 109.69,15.85 109.97,15.85 109.97,15.91 110.26,15.91 110.26,15.85 110.55,15.85 110.55,15.85 110.83,15.85 110.83,15.9 111.12,15.9 111.12,15.84 111.41,15.84 111.41,15.91 111.7,15.91 111.7,15.88 111.98,15.88 111.98,15.84 112.27,15.84 112.27,15.88 112.56,15.88 112.56,15.87 112.84,15.87 112.84,15.93 113.13,15.93 113.13,15.9 113.42,15.9 113.42,15.88 113.7,15.88 113.7,15.89 113.99,15.89 113.99,15.9 114.28,15.9 114.28,15.91 114.57,15.91 114.57,15.87 " class="primitive"/>
            </g>
          </g>
        </g>
      </g>
      <g class="guide colorkey" id="img-9e35f7c5-27">
        <g fill="#4C404B" font-size="2.82" font-family="'PT Sans','Helvetica Neue','Helvetica',sans-serif" id="img-9e35f7c5-28">
          <g transform="translate(211.2,31.7)" id="img-9e35f7c5-29">
            <g class="primitive">
              <text dy="0.35em">MgO std</text>
            </g>
          </g>
          <g transform="translate(211.2,35.33)" id="img-9e35f7c5-30">
            <g class="primitive">
              <text dy="0.35em">CharOnly[MgO std]</text>
            </g>
          </g>
        </g>
        <g stroke-width="0.3" id="img-9e35f7c5-31">
          <g stroke="#FFFFFF" fill-opacity="1" fill="#B70002" id="img-9e35f7c5-32">
            <g transform="translate(208.39,35.33)" id="img-9e35f7c5-33">
              <circle cx="0" cy="0" r="0.9" class="primitive"/>
            </g>
          </g>
          <g stroke="#FFFFFF" fill-opacity="1" fill="#104E8B" id="img-9e35f7c5-34">
            <g transform="translate(208.39,31.7)" id="img-9e35f7c5-35">
              <circle cx="0" cy="0" r="0.9" class="primitive"/>
            </g>
          </g>
        </g>
        <g fill="#362A35" font-size="3.18" font-family="'PT Sans','Helvetica Neue','Helvetica',sans-serif" stroke="#000000" stroke-opacity="0.000" id="img-9e35f7c5-36">
          <g transform="translate(207.58,28.39)" id="img-9e35f7c5-37">
            <g class="primitive">
              <text dy="-0em">Spectra</text>
            </g>
          </g>
        </g>
      </g>
    </g>
  </g>
  <g class="guide ylabels" font-size="2.82" font-family="'PT Sans Caption','Helvetica Neue','Helvetica',sans-serif" fill="#6C606B" id="img-9e35f7c5-38">
    <g transform="translate(18.7,59.87)" id="img-9e35f7c5-39">
      <g class="primitive">
        <text text-anchor="end" dy="0.35em">0</text>
      </g>
    </g>
    <g transform="translate(18.7,45.86)" id="img-9e35f7c5-40">
      <g class="primitive">
        <text text-anchor="end" dy="0.35em">50000</text>
      </g>
    </g>
    <g transform="translate(18.7,31.86)" id="img-9e35f7c5-41">
      <g class="primitive">
        <text text-anchor="end" dy="0.35em">100000</text>
      </g>
    </g>
    <g transform="translate(18.7,17.85)" id="img-9e35f7c5-42">
      <g class="primitive">
        <text text-anchor="end" dy="0.35em">150000</text>
      </g>
    </g>
    <g transform="translate(18.7,3.85)" id="img-9e35f7c5-43">
      <g class="primitive">
        <text text-anchor="end" dy="0.35em">200000</text>
      </g>
    </g>
  </g>
  <g font-size="3.18" font-family="'PT Sans','Helvetica Neue','Helvetica',sans-serif" fill="#202020" stroke="#000000" stroke-opacity="0.000" id="img-9e35f7c5-44">
    <g transform="translate(4.18,29.29)" id="img-9e35f7c5-45">
      <g class="primitive">
        <text text-anchor="middle" dy="0.35em" transform="rotate(-90,0, 2)">Counts</text>
      </g>
    </g>
  </g>
</g>
<defs>
  <clipPath id="img-9e35f7c5-4">
    <path d="M19.7,0.71 L253.29,0.71 253.29,61.87 19.7,61.87 " />
  </clipPath>
</defs>
</svg>
