<?xml version="1.0" encoding="UTF-8"?>
<svg xmlns="http://www.w3.org/2000/svg"
     xmlns:xlink="http://www.w3.org/1999/xlink"
     xmlns:gadfly="http://www.gadflyjl.org/ns"
     version="1.2"
     width="254mm" height="76.2mm" viewBox="0 0 254 76.2"
     stroke="none"
     fill="#000000"
     stroke-width="0.3"
     font-size="3.88"
>
<defs>
  <marker id="arrow" markerWidth="15" markerHeight="7" refX="5" refY="3.5" orient="auto" markerUnits="strokeWidth">
    <path d="M0,0 L15,3.5 L0,7 z" stroke="context-stroke" fill="context-stroke"/>
  </marker>
</defs>
<g class="plotroot xscalable yscalable" id="img-7b0ffd7b-1">
  <g font-size="3.18" font-family="'PT Sans','Helvetica Neue','Helvetica',sans-serif" fill="#202020" stroke="#000000" stroke-opacity="0.000" id="img-7b0ffd7b-2">
    <g transform="translate(114.49,69.54)">
      <g class="primitive">
        <text text-anchor="middle" dy="0.6em">Energy (eV)</text>
      </g>
    </g>
  </g>
  <g class="guide xlabels" font-size="2.82" font-family="'PT Sans Caption','Helvetica Neue','Helvetica',sans-serif" fill="#6C606B" id="img-7b0ffd7b-3">
    <g transform="translate(20.03,62.87)">
      <g class="primitive">
        <text text-anchor="middle" dy="0.6em">0</text>
      </g>
    </g>
    <g transform="translate(51.52,62.87)">
      <g class="primitive">
        <text text-anchor="middle" dy="0.6em">2000</text>
      </g>
    </g>
    <g transform="translate(83.01,62.87)">
      <g class="primitive">
        <text text-anchor="middle" dy="0.6em">4000</text>
      </g>
    </g>
    <g transform="translate(114.49,62.87)">
      <g class="primitive">
        <text text-anchor="middle" dy="0.6em">6000</text>
      </g>
    </g>
    <g transform="translate(145.98,62.87)">
      <g class="primitive">
        <text text-anchor="middle" dy="0.6em">8000</text>
      </g>
    </g>
    <g transform="translate(177.47,62.87)">
      <g class="primitive">
        <text text-anchor="middle" dy="0.6em">10000</text>
      </g>
    </g>
    <g transform="translate(208.96,62.87)">
      <g class="primitive">
        <text text-anchor="middle" dy="0.6em">12000</text>
      </g>
    </g>
  </g>
  <g class="guide colorkey" id="img-7b0ffd7b-4">
    <g fill="#4C404B" font-size="2.82" font-family="'PT Sans','Helvetica Neue','Helvetica',sans-serif" id="img-7b0ffd7b-5">
      <g transform="translate(215.59,31.7)" id="img-7b0ffd7b-6">
        <g class="primitive">
          <text dy="0.35em">III-E K412[0][all]</text>
        </g>
      </g>
      <g transform="translate(215.59,35.33)" id="img-7b0ffd7b-7">
        <g class="primitive">
          <text dy="0.35em">Brem[Global][III-E K412[0][all]]</text>
        </g>
      </g>
    </g>
    <g stroke-width="0.3" id="img-7b0ffd7b-8">
      <g stroke="#FFFFFF" fill-opacity="1" fill="#B70002" id="img-7b0ffd7b-9">
        <g transform="translate(212.77,35.33)" id="img-7b0ffd7b-10">
          <circle cx="0" cy="0" r="0.9" class="primitive"/>
        </g>
      </g>
      <g stroke="#FFFFFF" fill-opacity="1" fill="#104E8B" id="img-7b0ffd7b-11">
        <g transform="translate(212.77,31.7)" id="img-7b0ffd7b-12">
          <circle cx="0" cy="0" r="0.9" class="primitive"/>
        </g>
      </g>
    </g>
    <g fill="#362A35" font-size="3.18" font-family="'PT Sans','Helvetica Neue','Helvetica',sans-serif" stroke="#000000" stroke-opacity="0.000" id="img-7b0ffd7b-13">
      <g transform="translate(211.96,28.39)" id="img-7b0ffd7b-14">
        <g class="primitive">
          <text dy="-0em">Spectra</text>
        </g>
      </g>
    </g>
  </g>
  <g clip-path="url(#img-7b0ffd7b-15)">
    <g id="img-7b0ffd7b-16">
      <g pointer-events="visible" stroke-width="0.3" fill="#FDFDF1" stroke="#202020" class="guide background" id="img-7b0ffd7b-17">
        <g transform="translate(114.49,31.29)" id="img-7b0ffd7b-18">
          <path d="M-96.47,-30.58 L 96.47 -30.58 96.47 30.58 -96.47 30.58 z" class="primitive"/>
        </g>
      </g>
      <g class="guide ygridlines xfixed" stroke-dasharray="none" stroke-width="0.2" stroke="#FFDFDF" id="img-7b0ffd7b-19">
        <g transform="translate(114.49,59.87)" id="img-7b0ffd7b-20">
          <path fill="none" d="M-96.47,0 L 96.47 0" class="primitive"/>
        </g>
        <g transform="translate(114.49,35.3)" id="img-7b0ffd7b-21">
          <path fill="none" d="M-96.47,0 L 96.47 0" class="primitive"/>
        </g>
        <g transform="translate(114.49,10.73)" id="img-7b0ffd7b-22">
          <path fill="none" d="M-96.47,0 L 96.47 0" class="primitive"/>
        </g>
      </g>
      <g class="guide xgridlines yfixed" stroke-dasharray="none" stroke-width="0.2" stroke="#FFDFDF" id="img-7b0ffd7b-23">
        <g transform="translate(20.03,31.29)" id="img-7b0ffd7b-24">
          <path fill="none" d="M0,-30.58 L 0 30.58" class="primitive"/>
        </g>
        <g transform="translate(51.52,31.29)" id="img-7b0ffd7b-25">
          <path fill="none" d="M0,-30.58 L 0 30.58" class="primitive"/>
        </g>
        <g transform="translate(83.01,31.29)" id="img-7b0ffd7b-26">
          <path fill="none" d="M0,-30.58 L 0 30.58" class="primitive"/>
        </g>
        <g transform="translate(114.49,31.29)" id="img-7b0ffd7b-27">
          <path fill="none" d="M0,-30.58 L 0 30.58" class="primitive"/>
        </g>
        <g transform="translate(145.98,31.29)" id="img-7b0ffd7b-28">
          <path fill="none" d="M0,-30.58 L 0 30.58" class="primitive"/>
        </g>
        <g transform="translate(177.47,31.29)" id="img-7b0ffd7b-29">
          <path fill="none" d="M0,-30.58 L 0 30.58" class="primitive"/>
        </g>
        <g transform="translate(208.96,31.29)" id="img-7b0ffd7b-30">
          <path fill="none" d="M0,-30.58 L 0 30.58" class="primitive"/>
        </g>
      </g>
      <g class="plotpanel" id="img-7b0ffd7b-31">
        <metadata>
          <boundingbox value="18.027222222222242mm 0.7055555555555555mm 192.9338888888889mm 61.16055555555556mm"/>
          <unitbox value="-127.02856084285804 12040.184182468487 12254.057121685717 -12447.218364936973"/>
        </metadata>
        <g stroke-width="0.3" fill="#000000" fill-opacity="0.000" class="geometry" id="img-7b0ffd7b-32">
          <g class="color_RGB{Float64}(0.7186016914382806,8.086625054816313e-7,0.0097916074077615)" stroke-dasharray="none" stroke="#B70002" id="img-7b0ffd7b-33">
            <g transform="translate(114.55,50.78)" id="img-7b0ffd7b-34">
              <path fill="none" d="M-94.49,9.08 L -94.34 9.08 -94.34 9.08 -94.18 9.08 -94.18 9.08 -94.02 9.08 -94.02 9.08 -93.86 9.08 -93.86 9.08 -93.71 9.08 -93.71 9.08 -93.55 9.08 -93.55 9.08 -93.39 9.08 -93.39 9.08 -93.23 9.08 -93.23 9.08 -93.08 9.08 -93.08 9.08 -92.92 9.08 -92.92 9.08 -92.76 9.08 -92.76 9.08 -92.6 9.08 -92.6 9.08 -92.45 9.08 -92.45 9.08 -92.29 9.08 -92.29 9.08 -92.13 9.08 -92.13 9.08 -91.97 9.08 -91.97 9.08 -91.82 9.08 -91.82 9.08 -91.66 9.08 -91.66 9.08 -91.5 9.08 -91.5 9.08 -91.34 9.08 -91.34 9.08 -91.19 9.08 -91.19 9.08 -91.03 9.08 -91.03 9.06 -90.87 9.06 -90.87 8.99 -90.71 8.99 -90.71 8.78 -90.56 8.78 -90.56 8.27 -90.4 8.27 -90.4 7.2 -90.24 7.2 -90.24 5.46 -90.08 5.46 -90.08 3.89 -89.93 3.89 -89.93 3.66 -89.77 3.66 -89.77 4.65 -89.61 4.65 -89.61 4.53 -89.46 4.53 -89.46 2.92 -89.3 2.92 -89.3 1.71 -89.14 1.71 -89.14 0.73 -88.98 0.73 -88.98 0.3 -88.83 0.3 -88.83 -0.05 -88.67 -0.05 -88.67 -0.76 -88.51 -0.76 -88.51 -1.78 -88.35 -1.78 -88.35 -2.63 -88.2 -2.63 -88.2 -2.52 -88.04 -2.52 -88.04 -3.29 -87.88 -3.29 -87.88 -5.24 -87.72 -5.24 -87.72 -6.31 -87.57 -6.31 -87.57 -6.76 -87.41 -6.76 -87.41 -6.95 -87.25 -6.95 -87.25 -6.91 -87.09 -6.91 -87.09 -6.64 -86.94 -6.64 -86.94 -6.3 -86.78 -6.3 -86.78 -5.94 -86.62 -5.94 -86.62 -5.53 -86.46 -5.53 -86.46 -5.03 -86.31 -5.03 -86.31 -3.19 -86.15 -3.19 -86.15 -0.87 -85.99 -0.87 -85.99 -0.38 -85.83 -0.38 -85.83 -0.79 -85.68 -0.79 -85.68 -1.03 -85.52 -1.03 -85.52 -1.37 -85.36 -1.37 -85.36 -1.84 -85.2 -1.84 -85.2 -2.4 -85.05 -2.4 -85.05 -2.96 -84.89 -2.96 -84.89 -3.46 -84.73 -3.46 -84.73 -3.9 -84.58 -3.9 -84.58 -4.31 -84.42 -4.31 -84.42 -4.7 -84.26 -4.7 -84.26 -5.03 -84.1 -5.03 -84.1 -5.28 -83.95 -5.28 -83.95 -5.43 -83.79 -5.43 -83.79 -5.51 -83.63 -5.51 -83.63 -5.48 -83.47 -5.48 -83.47 -5.38 -83.32 -5.38 -83.32 -5.25 -83.16 -5.25 -83.16 -5.04 -83 -5.04 -83 -4.75 -82.84 -4.75 -82.84 -4.37 -82.69 -4.37 -82.69 -3.94 -82.53 -3.94 -82.53 -3.55 -82.37 -3.55 -82.37 -3.24 -82.21 -3.24 -82.21 -3.04 -82.06 -3.04 -82.06 -2.97 -81.9 -2.97 -81.9 -3.04 -81.74 -3.04 -81.74 -3.22 -81.58 -3.22 -81.58 -3.45 -81.43 -3.45 -81.43 -3.71 -81.27 -3.71 -81.27 -3.97 -81.11 -3.97 -81.11 -4.24 -80.95 -4.24 -80.95 -4.52 -80.8 -4.52 -80.8 -4.8 -80.64 -4.8 -80.64 -5.08 -80.48 -5.08 -80.48 -5.37 -80.32 -5.37 -80.32 -5.68 -80.17 -5.68 -80.17 -6 -80.01 -6 -80.01 -6.32 -79.85 -6.32 -79.85 -6.62 -79.69 -6.62 -79.69 -6.93 -79.54 -6.93 -79.54 -7.24 -79.38 -7.24 -79.38 -7.56 -79.22 -7.56 -79.22 -7.87 -79.07 -7.87 -79.07 -8.18 -78.91 -8.18 -78.91 -8.5 -78.75 -8.5 -78.75 -8.81 -78.59 -8.81 -78.59 -9.13 -78.44 -9.13 -78.44 -9.45 -78.28 -9.45 -78.28 -9.75 -78.12 -9.75 -78.12 -10.07 -77.96 -10.07 -77.96 -10.38 -77.81 -10.38 -77.81 -10.68 -77.65 -10.68 -77.65 -10.97 -77.49 -10.97 -77.49 -11.27 -77.33 -11.27 -77.33 -11.55 -77.18 -11.55 -77.18 -11.84 -77.02 -11.84 -77.02 -12.1 -76.86 -12.1 -76.86 -12.37 -76.7 -12.37 -76.7 -12.64 -76.55 -12.64 -76.55 -12.91 -76.39 -12.91 -76.39 -13.18 -76.23 -13.18 -76.23 -13.42 -76.07 -13.42 -76.07 -13.67 -75.92 -13.67 -75.92 -13.92 -75.76 -13.92 -75.76 -14.15 -75.6 -14.15 -75.6 -14.38 -75.44 -14.38 -75.44 -14.6 -75.29 -14.6 -75.29 -14.79 -75.13 -14.79 -75.13 -14.98 -74.97 -14.98 -74.97 -15.13 -74.81 -15.13 -74.81 -15.21 -74.66 -15.21 -74.66 -15.22 -74.5 -15.22 -74.5 -15.16 -74.34 -15.16 -74.34 -14.98 -74.19 -14.98 -74.19 -14.7 -74.03 -14.7 -74.03 -14.34 -73.87 -14.34 -73.87 -13.95 -73.71 -13.95 -73.71 -13.57 -73.56 -13.57 -73.56 -13.25 -73.4 -13.25 -73.4 -13.02 -73.24 -13.02 -73.24 -12.87 -73.08 -12.87 -73.08 -12.81 -72.93 -12.81 -72.93 -12.81 -72.77 -12.81 -72.77 -12.86 -72.61 -12.86 -72.61 -12.95 -72.45 -12.95 -72.45 -13.04 -72.3 -13.04 -72.3 -13.14 -72.14 -13.14 -72.14 -13.26 -71.98 -13.26 -71.98 -13.39 -71.82 -13.39 -71.82 -13.5 -71.67 -13.5 -71.67 -13.61 -71.51 -13.61 -71.51 -13.73 -71.35 -13.73 -71.35 -13.83 -71.19 -13.83 -71.19 -13.93 -71.04 -13.93 -71.04 -14.04 -70.88 -14.04 -70.88 -14.13 -70.72 -14.13 -70.72 -14.19 -70.56 -14.19 -70.56 -14.22 -70.41 -14.22 -70.41 -14.23 -70.25 -14.23 -70.25 -14.13 -70.09 -14.13 -70.09 -13.61 -69.93 -13.61 -69.93 -13.02 -69.78 -13.02 -69.78 -12.95 -69.62 -12.95 -69.62 -12.99 -69.46 -12.99 -69.46 -12.93 -69.31 -12.93 -69.31 -12.94 -69.15 -12.94 -69.15 -13.02 -68.99 -13.02 -68.99 -13.04 -68.83 -13.04 -68.83 -13.04 -68.68 -13.04 -68.68 -13.09 -68.52 -13.09 -68.52 -13.19 -68.36 -13.19 -68.36 -13.28 -68.2 -13.28 -68.2 -13.33 -68.05 -13.33 -68.05 -13.37 -67.89 -13.37 -67.89 -13.44 -67.73 -13.44 -67.73 -13.51 -67.57 -13.51 -67.57 -13.58 -67.42 -13.58 -67.42 -13.65 -67.26 -13.65 -67.26 -13.7 -67.1 -13.7 -67.1 -13.75 -66.94 -13.75 -66.94 -13.78 -66.79 -13.78 -66.79 -13.8 -66.63 -13.8 -66.63 -13.8 -66.47 -13.8 -66.47 -13.74 -66.31 -13.74 -66.31 -13.62 -66.16 -13.62 -66.16 -13.42 -66 -13.42 -66 -13.13 -65.84 -13.13 -65.84 -12.76 -65.68 -12.76 -65.68 -12.26 -65.53 -12.26 -65.53 -11.53 -65.37 -11.53 -65.37 -10.85 -65.21 -10.85 -65.21 -10.36 -65.05 -10.36 -65.05 -9.95 -64.9 -9.95 -64.9 -9.62 -64.74 -9.62 -64.74 -9.37 -64.58 -9.37 -64.58 -9.2 -64.43 -9.2 -64.43 -9.11 -64.27 -9.11 -64.27 -9.06 -64.11 -9.06 -64.11 -9.06 -63.95 -9.06 -63.95 -9.07 -63.8 -9.07 -63.8 -9.1 -63.64 -9.1 -63.64 -9.14 -63.48 -9.14 -63.48 -9.18 -63.32 -9.18 -63.32 -9.22 -63.17 -9.22 -63.17 -9.26 -63.01 -9.26 -63.01 -9.3 -62.85 -9.3 -62.85 -9.34 -62.69 -9.34 -62.69 -9.38 -62.54 -9.38 -62.54 -9.42 -62.38 -9.42 -62.38 -9.45 -62.22 -9.45 -62.22 -9.49 -62.06 -9.49 -62.06 -9.52 -61.91 -9.52 -61.91 -9.55 -61.75 -9.55 -61.75 -9.58 -61.59 -9.58 -61.59 -9.61 -61.43 -9.61 -61.43 -9.64 -61.28 -9.64 -61.28 -9.67 -61.12 -9.67 -61.12 -9.69 -60.96 -9.69 -60.96 -9.72 -60.8 -9.72 -60.8 -9.74 -60.65 -9.74 -60.65 -9.76 -60.49 -9.76 -60.49 -9.78 -60.33 -9.78 -60.33 -9.8 -60.17 -9.8 -60.17 -9.82 -60.02 -9.82 -60.02 -9.84 -59.86 -9.84 -59.86 -9.86 -59.7 -9.86 -59.7 -9.87 -59.54 -9.87 -59.54 -9.88 -59.39 -9.88 -59.39 -9.9 -59.23 -9.9 -59.23 -9.91 -59.07 -9.91 -59.07 -9.92 -58.92 -9.92 -58.92 -9.93 -58.76 -9.93 -58.76 -9.93 -58.6 -9.93 -58.6 -9.94 -58.44 -9.94 -58.44 -9.95 -58.29 -9.95 -58.29 -9.95 -58.13 -9.95 -58.13 -9.95 -57.97 -9.95 -57.97 -9.96 -57.81 -9.96 -57.81 -9.96 -57.66 -9.96 -57.66 -9.96 -57.5 -9.96 -57.5 -9.96 -57.34 -9.96 -57.34 -9.95 -57.18 -9.95 -57.18 -9.95 -57.03 -9.95 -57.03 -9.95 -56.87 -9.95 -56.87 -9.94 -56.71 -9.94 -56.71 -9.94 -56.55 -9.94 -56.55 -9.93 -56.4 -9.93 -56.4 -9.92 -56.24 -9.92 -56.24 -9.91 -56.08 -9.91 -56.08 -9.9 -55.92 -9.9 -55.92 -9.89 -55.77 -9.89 -55.77 -9.88 -55.61 -9.88 -55.61 -9.87 -55.45 -9.87 -55.45 -9.85 -55.29 -9.85 -55.29 -9.84 -55.14 -9.84 -55.14 -9.82 -54.98 -9.82 -54.98 -9.81 -54.82 -9.81 -54.82 -9.79 -54.66 -9.79 -54.66 -9.78 -54.51 -9.78 -54.51 -9.76 -54.35 -9.76 -54.35 -9.74 -54.19 -9.74 -54.19 -9.72 -54.04 -9.72 -54.04 -9.7 -53.88 -9.7 -53.88 -9.68 -53.72 -9.68 -53.72 -9.66 -53.56 -9.66 -53.56 -9.64 -53.41 -9.64 -53.41 -9.62 -53.25 -9.62 -53.25 -9.59 -53.09 -9.59 -53.09 -9.57 -52.93 -9.57 -52.93 -9.55 -52.78 -9.55 -52.78 -9.52 -52.62 -9.52 -52.62 -9.5 -52.46 -9.5 -52.46 -9.47 -52.3 -9.47 -52.3 -9.45 -52.15 -9.45 -52.15 -9.42 -51.99 -9.42 -51.99 -9.4 -51.83 -9.4 -51.83 -9.37 -51.67 -9.37 -51.67 -9.34 -51.52 -9.34 -51.52 -9.31 -51.36 -9.31 -51.36 -9.28 -51.2 -9.28 -51.2 -9.26 -51.04 -9.26 -51.04 -9.23 -50.89 -9.23 -50.89 -9.2 -50.73 -9.2 -50.73 -9.17 -50.57 -9.17 -50.57 -9.14 -50.41 -9.14 -50.41 -9.11 -50.26 -9.11 -50.26 -9.08 -50.1 -9.08 -50.1 -9.04 -49.94 -9.04 -49.94 -9.01 -49.78 -9.01 -49.78 -8.98 -49.63 -8.98 -49.63 -8.95 -49.47 -8.95 -49.47 -8.92 -49.31 -8.92 -49.31 -8.88 -49.16 -8.88 -49.16 -8.85 -49 -8.85 -49 -8.82 -48.84 -8.82 -48.84 -8.78 -48.68 -8.78 -48.68 -8.75 -48.53 -8.75 -48.53 -8.72 -48.37 -8.72 -48.37 -8.68 -48.21 -8.68 -48.21 -8.65 -48.05 -8.65 -48.05 -8.62 -47.9 -8.62 -47.9 -8.58 -47.74 -8.58 -47.74 -8.55 -47.58 -8.55 -47.58 -8.51 -47.42 -8.51 -47.42 -8.48 -47.27 -8.48 -47.27 -8.44 -47.11 -8.44 -47.11 -8.41 -46.95 -8.41 -46.95 -8.37 -46.79 -8.37 -46.79 -8.34 -46.64 -8.34 -46.64 -8.3 -46.48 -8.3 -46.48 -8.26 -46.32 -8.26 -46.32 -8.23 -46.16 -8.23 -46.16 -8.19 -46.01 -8.19 -46.01 -8.15 -45.85 -8.15 -45.85 -8.12 -45.69 -8.12 -45.69 -8.08 -45.53 -8.08 -45.53 -8.04 -45.38 -8.04 -45.38 -8.01 -45.22 -8.01 -45.22 -7.97 -45.06 -7.97 -45.06 -7.93 -44.9 -7.93 -44.9 -7.9 -44.75 -7.9 -44.75 -7.86 -44.59 -7.86 -44.59 -7.82 -44.43 -7.82 -44.43 -7.78 -44.27 -7.78 -44.27 -7.75 -44.12 -7.75 -44.12 -7.71 -43.96 -7.71 -43.96 -7.67 -43.8 -7.67 -43.8 -7.63 -43.65 -7.63 -43.65 -7.6 -43.49 -7.6 -43.49 -7.56 -43.33 -7.56 -43.33 -7.52 -43.17 -7.52 -43.17 -7.48 -43.02 -7.48 -43.02 -7.44 -42.86 -7.44 -42.86 -7.4 -42.7 -7.4 -42.7 -7.37 -42.54 -7.37 -42.54 -7.33 -42.39 -7.33 -42.39 -7.29 -42.23 -7.29 -42.23 -7.25 -42.07 -7.25 -42.07 -7.21 -41.91 -7.21 -41.91 -7.17 -41.76 -7.17 -41.76 -7.13 -41.6 -7.13 -41.6 -7.09 -41.44 -7.09 -41.44 -7.06 -41.28 -7.06 -41.28 -7.02 -41.13 -7.02 -41.13 -6.98 -40.97 -6.98 -40.97 -6.94 -40.81 -6.94 -40.81 -6.9 -40.65 -6.9 -40.65 -6.86 -40.5 -6.86 -40.5 -6.82 -40.34 -6.82 -40.34 -6.78 -40.18 -6.78 -40.18 -6.74 -40.02 -6.74 -40.02 -6.7 -39.87 -6.7 -39.87 -6.66 -39.71 -6.66 -39.71 -6.62 -39.55 -6.62 -39.55 -6.58 -39.39 -6.58 -39.39 -6.54 -39.24 -6.54 -39.24 -6.51 -39.08 -6.51 -39.08 -6.47 -38.92 -6.47 -38.92 -6.43 -38.77 -6.43 -38.77 -6.39 -38.61 -6.39 -38.61 -6.35 -38.45 -6.35 -38.45 -6.31 -38.29 -6.31 -38.29 -6.27 -38.14 -6.27 -38.14 -6.23 -37.98 -6.23 -37.98 -6.19 -37.82 -6.19 -37.82 -6.15 -37.66 -6.15 -37.66 -6.11 -37.51 -6.11 -37.51 -6.07 -37.35 -6.07 -37.35 -6.03 -37.19 -6.03 -37.19 -6 -37.03 -6 -37.03 -5.96 -36.88 -5.96 -36.88 -5.92 -36.72 -5.92 -36.72 -5.88 -36.56 -5.88 -36.56 -5.84 -36.4 -5.84 -36.4 -5.8 -36.25 -5.8 -36.25 -5.76 -36.09 -5.76 -36.09 -5.72 -35.93 -5.72 -35.93 -5.68 -35.77 -5.68 -35.77 -5.65 -35.62 -5.65 -35.62 -5.61 -35.46 -5.61 -35.46 -5.57 -35.3 -5.57 -35.3 -5.53 -35.14 -5.53 -35.14 -5.49 -34.99 -5.49 -34.99 -5.45 -34.83 -5.45 -34.83 -5.41 -34.67 -5.41 -34.67 -5.38 -34.51 -5.38 -34.51 -5.34 -34.36 -5.34 -34.36 -5.3 -34.2 -5.3 -34.2 -5.26 -34.04 -5.26 -34.04 -5.22 -33.89 -5.22 -33.89 -5.18 -33.73 -5.18 -33.73 -5.15 -33.57 -5.15 -33.57 -5.11 -33.41 -5.11 -33.41 -5.07 -33.26 -5.07 -33.26 -5.03 -33.1 -5.03 -33.1 -4.99 -32.94 -4.99 -32.94 -4.96 -32.78 -4.96 -32.78 -4.92 -32.63 -4.92 -32.63 -4.88 -32.47 -4.88 -32.47 -4.84 -32.31 -4.84 -32.31 -4.79 -32.15 -4.79 -32.15 -4.75 -32 -4.75 -32 -4.7 -31.84 -4.7 -31.84 -4.64 -31.68 -4.64 -31.68 -4.58 -31.52 -4.58 -31.52 -4.52 -31.37 -4.52 -31.37 -4.45 -31.21 -4.45 -31.21 -4.37 -31.05 -4.37 -31.05 -4.29 -30.89 -4.29 -30.89 -4.2 -30.74 -4.2 -30.74 -4.12 -30.58 -4.12 -30.58 -4.03 -30.42 -4.03 -30.42 -3.95 -30.26 -3.95 -30.26 -3.87 -30.11 -3.87 -30.11 -3.8 -29.95 -3.8 -29.95 -3.74 -29.79 -3.74 -29.79 -3.68 -29.63 -3.68 -29.63 -3.63 -29.48 -3.63 -29.48 -3.59 -29.32 -3.59 -29.32 -3.54 -29.16 -3.54 -29.16 -3.51 -29.01 -3.51 -29.01 -3.47 -28.85 -3.47 -28.85 -3.44 -28.69 -3.44 -28.69 -3.4 -28.53 -3.4 -28.53 -3.37 -28.38 -3.37 -28.38 -3.34 -28.22 -3.34 -28.22 -3.31 -28.06 -3.31 -28.06 -3.28 -27.9 -3.28 -27.9 -3.25 -27.75 -3.25 -27.75 -3.22 -27.59 -3.22 -27.59 -3.19 -27.43 -3.19 -27.43 -3.16 -27.27 -3.16 -27.27 -3.13 -27.12 -3.13 -27.12 -3.1 -26.96 -3.1 -26.96 -3.07 -26.8 -3.07 -26.8 -3.04 -26.64 -3.04 -26.64 -3.01 -26.49 -3.01 -26.49 -2.98 -26.33 -2.98 -26.33 -2.95 -26.17 -2.95 -26.17 -2.92 -26.01 -2.92 -26.01 -2.89 -25.86 -2.89 -25.86 -2.85 -25.7 -2.85 -25.7 -2.82 -25.54 -2.82 -25.54 -2.79 -25.38 -2.79 -25.38 -2.76 -25.23 -2.76 -25.23 -2.73 -25.07 -2.73 -25.07 -2.7 -24.91 -2.7 -24.91 -2.68 -24.75 -2.68 -24.75 -2.65 -24.6 -2.65 -24.6 -2.62 -24.44 -2.62 -24.44 -2.59 -24.28 -2.59 -24.28 -2.56 -24.12 -2.56 -24.12 -2.53 -23.97 -2.53 -23.97 -2.5 -23.81 -2.5 -23.81 -2.47 -23.65 -2.47 -23.65 -2.44 -23.5 -2.44 -23.5 -2.41 -23.34 -2.41 -23.34 -2.38 -23.18 -2.38 -23.18 -2.35 -23.02 -2.35 -23.02 -2.32 -22.87 -2.32 -22.87 -2.29 -22.71 -2.29 -22.71 -2.26 -22.55 -2.26 -22.55 -2.23 -22.39 -2.23 -22.39 -2.2 -22.24 -2.2 -22.24 -2.18 -22.08 -2.18 -22.08 -2.15 -21.92 -2.15 -21.92 -2.12 -21.76 -2.12 -21.76 -2.09 -21.61 -2.09 -21.61 -2.06 -21.45 -2.06 -21.45 -2.03 -21.29 -2.03 -21.29 -2 -21.13 -2 -21.13 -1.97 -20.98 -1.97 -20.98 -1.95 -20.82 -1.95 -20.82 -1.92 -20.66 -1.92 -20.66 -1.89 -20.5 -1.89 -20.5 -1.86 -20.35 -1.86 -20.35 -1.83 -20.19 -1.83 -20.19 -1.8 -20.03 -1.8 -20.03 -1.78 -19.87 -1.78 -19.87 -1.75 -19.72 -1.75 -19.72 -1.72 -19.56 -1.72 -19.56 -1.69 -19.4 -1.69 -19.4 -1.66 -19.24 -1.66 -19.24 -1.64 -19.09 -1.64 -19.09 -1.61 -18.93 -1.61 -18.93 -1.58 -18.77 -1.58 -18.77 -1.55 -18.62 -1.55 -18.62 -1.52 -18.46 -1.52 -18.46 -1.5 -18.3 -1.5 -18.3 -1.47 -18.14 -1.47 -18.14 -1.44 -17.99 -1.44 -17.99 -1.41 -17.83 -1.41 -17.83 -1.39 -17.67 -1.39 -17.67 -1.36 -17.51 -1.36 -17.51 -1.33 -17.36 -1.33 -17.36 -1.31 -17.2 -1.31 -17.2 -1.28 -17.04 -1.28 -17.04 -1.25 -16.88 -1.25 -16.88 -1.22 -16.73 -1.22 -16.73 -1.2 -16.57 -1.2 -16.57 -1.17 -16.41 -1.17 -16.41 -1.14 -16.25 -1.14 -16.25 -1.12 -16.1 -1.12 -16.1 -1.09 -15.94 -1.09 -15.94 -1.06 -15.78 -1.06 -15.78 -1.04 -15.62 -1.04 -15.62 -1.01 -15.47 -1.01 -15.47 -0.99 -15.31 -0.99 -15.31 -0.96 -15.15 -0.96 -15.15 -0.93 -14.99 -0.93 -14.99 -0.91 -14.84 -0.91 -14.84 -0.88 -14.68 -0.88 -14.68 -0.85 -14.52 -0.85 -14.52 -0.83 -14.36 -0.83 -14.36 -0.8 -14.21 -0.8 -14.21 -0.78 -14.05 -0.78 -14.05 -0.75 -13.89 -0.75 -13.89 -0.73 -13.74 -0.73 -13.74 -0.7 -13.58 -0.7 -13.58 -0.67 -13.42 -0.67 -13.42 -0.65 -13.26 -0.65 -13.26 -0.62 -13.11 -0.62 -13.11 -0.6 -12.95 -0.6 -12.95 -0.57 -12.79 -0.57 -12.79 -0.55 -12.63 -0.55 -12.63 -0.52 -12.48 -0.52 -12.48 -0.5 -12.32 -0.5 -12.32 -0.47 -12.16 -0.47 -12.16 -0.45 -12 -0.45 -12 -0.42 -11.85 -0.42 -11.85 -0.4 -11.69 -0.4 -11.69 -0.37 -11.53 -0.37 -11.53 -0.35 -11.37 -0.35 -11.37 -0.32 -11.22 -0.32 -11.22 -0.3 -11.06 -0.3 -11.06 -0.27 -10.9 -0.27 -10.9 -0.25 -10.74 -0.25 -10.74 -0.23 -10.59 -0.23 -10.59 -0.2 -10.43 -0.2 -10.43 -0.18 -10.27 -0.18 -10.27 -0.15 -10.11 -0.15 -10.11 -0.13 -9.96 -0.13 -9.96 -0.11 -9.8 -0.11 -9.8 -0.08 -9.64 -0.08 -9.64 -0.06 -9.48 -0.06 -9.48 -0.03 -9.33 -0.03 -9.33 -0.01 -9.17 -0.01 -9.17 0.01 -9.01 0.01 -9.01 0.04 -8.85 0.04 -8.85 0.06 -8.7 0.06 -8.7 0.08 -8.54 0.08 -8.54 0.11 -8.38 0.11 -8.38 0.13 -8.23 0.13 -8.23 0.15 -8.07 0.15 -8.07 0.18 -7.91 0.18 -7.91 0.2 -7.75 0.2 -7.75 0.22 -7.6 0.22 -7.6 0.25 -7.44 0.25 -7.44 0.27 -7.28 0.27 -7.28 0.29 -7.12 0.29 -7.12 0.32 -6.97 0.32 -6.97 0.34 -6.81 0.34 -6.81 0.36 -6.65 0.36 -6.65 0.38 -6.49 0.38 -6.49 0.41 -6.34 0.41 -6.34 0.43 -6.18 0.43 -6.18 0.45 -6.02 0.45 -6.02 0.47 -5.86 0.47 -5.86 0.5 -5.71 0.5 -5.71 0.52 -5.55 0.52 -5.55 0.54 -5.39 0.54 -5.39 0.56 -5.23 0.56 -5.23 0.59 -5.08 0.59 -5.08 0.61 -4.92 0.61 -4.92 0.63 -4.76 0.63 -4.76 0.65 -4.6 0.65 -4.6 0.67 -4.45 0.67 -4.45 0.7 -4.29 0.7 -4.29 0.72 -4.13 0.72 -4.13 0.74 -3.97 0.74 -3.97 0.76 -3.82 0.76 -3.82 0.78 -3.66 0.78 -3.66 0.8 -3.5 0.8 -3.5 0.83 -3.35 0.83 -3.35 0.85 -3.19 0.85 -3.19 0.87 -3.03 0.87 -3.03 0.89 -2.87 0.89 -2.87 0.91 -2.72 0.91 -2.72 0.93 -2.56 0.93 -2.56 0.95 -2.4 0.95 -2.4 0.97 -2.24 0.97 -2.24 1 -2.09 1 -2.09 1.02 -1.93 1.02 -1.93 1.04 -1.77 1.04 -1.77 1.06 -1.61 1.06 -1.61 1.08 -1.46 1.08 -1.46 1.1 -1.3 1.1 -1.3 1.12 -1.14 1.12 -1.14 1.14 -0.98 1.14 -0.98 1.16 -0.83 1.16 -0.83 1.18 -0.67 1.18 -0.67 1.2 -0.51 1.2 -0.51 1.22 -0.35 1.22 -0.35 1.24 -0.2 1.24 -0.2 1.26 -0.04 1.26 -0.04 1.28 0.12 1.28 0.12 1.3 0.28 1.3 0.28 1.32 0.43 1.32 0.43 1.34 0.59 1.34 0.59 1.36 0.75 1.36 0.75 1.38 0.91 1.38 0.91 1.4 1.06 1.4 1.06 1.42 1.22 1.42 1.22 1.44 1.38 1.44 1.38 1.46 1.53 1.46 1.53 1.48 1.69 1.48 1.69 1.5 1.85 1.5 1.85 1.52 2.01 1.52 2.01 1.54 2.16 1.54 2.16 1.56 2.32 1.56 2.32 1.58 2.48 1.58 2.48 1.6 2.64 1.6 2.64 1.62 2.79 1.62 2.79 1.64 2.95 1.64 2.95 1.66 3.11 1.66 3.11 1.68 3.27 1.68 3.27 1.7 3.42 1.7 3.42 1.72 3.58 1.72 3.58 1.73 3.74 1.73 3.74 1.75 3.9 1.75 3.9 1.77 4.05 1.77 4.05 1.79 4.21 1.79 4.21 1.81 4.37 1.81 4.37 1.83 4.53 1.83 4.53 1.85 4.68 1.85 4.68 1.87 4.84 1.87 4.84 1.88 5 1.88 5 1.9 5.16 1.9 5.16 1.92 5.31 1.92 5.31 1.94 5.47 1.94 5.47 1.96 5.63 1.96 5.63 1.98 5.79 1.98 5.79 2 5.94 2 5.94 2.01 6.1 2.01 6.1 2.03 6.26 2.03 6.26 2.05 6.41 2.05 6.41 2.07 6.57 2.07 6.57 2.09 6.73 2.09 6.73 2.1 6.89 2.1 6.89 2.12 7.04 2.12 7.04 2.14 7.2 2.14 7.2 2.16 7.36 2.16 7.36 2.18 7.52 2.18 7.52 2.19 7.67 2.19 7.67 2.21 7.83 2.21 7.83 2.23 7.99 2.23 7.99 2.25 8.15 2.25 8.15 2.26 8.3 2.26 8.3 2.28 8.46 2.28 8.46 2.3 8.62 2.3 8.62 2.32 8.78 2.32 8.78 2.33 8.93 2.33 8.93 2.35 9.09 2.35 9.09 2.37 9.25 2.37 9.25 2.38 9.41 2.38 9.41 2.4 9.56 2.4 9.56 2.42 9.72 2.42 9.72 2.44 9.88 2.44 9.88 2.45 10.04 2.45 10.04 2.47 10.19 2.47 10.19 2.49 10.35 2.49 10.35 2.5 10.51 2.5 10.51 2.52 10.67 2.52 10.67 2.54 10.82 2.54 10.82 2.55 10.98 2.55 10.98 2.57 11.14 2.57 11.14 2.59 11.3 2.59 11.3 2.6 11.45 2.6 11.45 2.62 11.61 2.62 11.61 2.64 11.77 2.64 11.77 2.65 11.92 2.65 11.92 2.67 12.08 2.67 12.08 2.69 12.24 2.69 12.24 2.7 12.4 2.7 12.4 2.72 12.55 2.72 12.55 2.74 12.71 2.74 12.71 2.75 12.87 2.75 12.87 2.77 13.03 2.77 13.03 2.78 13.18 2.78 13.18 2.8 13.34 2.8 13.34 2.82 13.5 2.82 13.5 2.83 13.66 2.83 13.66 2.85 13.81 2.85 13.81 2.86 13.97 2.86 13.97 2.88 14.13 2.88 14.13 2.9 14.29 2.9 14.29 2.91 14.44 2.91 14.44 2.93 14.6 2.93 14.6 2.94 14.76 2.94 14.76 2.96 14.92 2.96 14.92 2.97 15.07 2.97 15.07 2.99 15.23 2.99 15.23 3.01 15.39 3.01 15.39 3.02 15.55 3.02 15.55 3.04 15.7 3.04 15.7 3.05 15.86 3.05 15.86 3.07 16.02 3.07 16.02 3.09 16.18 3.09 16.18 3.1 16.33 3.1 16.33 3.12 16.49 3.12 16.49 3.13 16.65 3.13 16.65 3.15 16.8 3.15 16.8 3.17 16.96 3.17 16.96 3.19 17.12 3.19 17.12 3.21 17.28 3.21 17.28 3.22 17.43 3.22 17.43 3.24 17.59 3.24 17.59 3.26 17.75 3.26 17.75 3.28 17.91 3.28 17.91 3.3 18.06 3.3 18.06 3.32 18.22 3.32 18.22 3.34 18.38 3.34 18.38 3.36 18.54 3.36 18.54 3.38 18.69 3.38 18.69 3.39 18.85 3.39 18.85 3.41 19.01 3.41 19.01 3.43 19.17 3.43 19.17 3.44 19.32 3.44 19.32 3.46 19.48 3.46 19.48 3.47 19.64 3.47 19.64 3.49 19.8 3.49 19.8 3.5 19.95 3.5 19.95 3.52 20.11 3.52 20.11 3.53 20.27 3.53 20.27 3.55 20.43 3.55 20.43 3.56 20.58 3.56 20.58 3.57 20.74 3.57 20.74 3.59 20.9 3.59 20.9 3.6 21.06 3.6 21.06 3.62 21.21 3.62 21.21 3.63 21.37 3.63 21.37 3.64 21.53 3.64 21.53 3.66 21.68 3.66 21.68 3.67 21.84 3.67 21.84 3.68 22 3.68 22 3.7 22.16 3.7 22.16 3.71 22.31 3.71 22.31 3.72 22.47 3.72 22.47 3.74 22.63 3.74 22.63 3.75 22.79 3.75 22.79 3.76 22.94 3.76 22.94 3.78 23.1 3.78 23.1 3.79 23.26 3.79 23.26 3.8 23.42 3.8 23.42 3.82 23.57 3.82 23.57 3.83 23.73 3.83 23.73 3.84 23.89 3.84 23.89 3.86 24.05 3.86 24.05 3.87 24.2 3.87 24.2 3.88 24.36 3.88 24.36 3.9 24.52 3.9 24.52 3.91 24.68 3.91 24.68 3.92 24.83 3.92 24.83 3.93 24.99 3.93 24.99 3.95 25.15 3.95 25.15 3.96 25.31 3.96 25.31 3.97 25.46 3.97 25.46 3.99 25.62 3.99 25.62 4 25.78 4 25.78 4.01 25.94 4.01 25.94 4.02 26.09 4.02 26.09 4.04 26.25 4.04 26.25 4.05 26.41 4.05 26.41 4.06 26.57 4.06 26.57 4.08 26.72 4.08 26.72 4.09 26.88 4.09 26.88 4.1 27.04 4.1 27.04 4.11 27.19 4.11 27.19 4.13 27.35 4.13 27.35 4.14 27.51 4.14 27.51 4.15 27.67 4.15 27.67 4.16 27.82 4.16 27.82 4.18 27.98 4.18 27.98 4.19 28.14 4.19 28.14 4.2 28.3 4.2 28.3 4.21 28.45 4.21 28.45 4.22 28.61 4.22 28.61 4.24 28.77 4.24 28.77 4.25 28.93 4.25 28.93 4.26 29.08 4.26 29.08 4.27 29.24 4.27 29.24 4.29 29.4 4.29 29.4 4.3 29.56 4.3 29.56 4.31 29.71 4.31 29.71 4.32 29.87 4.32 29.87 4.33 30.03 4.33 30.03 4.35 30.19 4.35 30.19 4.36 30.34 4.36 30.34 4.37 30.5 4.37 30.5 4.38 30.66 4.38 30.66 4.39 30.82 4.39 30.82 4.41 30.97 4.41 30.97 4.42 31.13 4.42 31.13 4.43 31.29 4.43 31.29 4.44 31.45 4.44 31.45 4.45 31.6 4.45 31.6 4.47 31.76 4.47 31.76 4.48 31.92 4.48 31.92 4.49 32.07 4.49 32.07 4.5 32.23 4.5 32.23 4.51 32.39 4.51 32.39 4.52 32.55 4.52 32.55 4.54 32.7 4.54 32.7 4.55 32.86 4.55 32.86 4.56 33.02 4.56 33.02 4.57 33.18 4.57 33.18 4.58 33.33 4.58 33.33 4.59 33.49 4.59 33.49 4.6 33.65 4.6 33.65 4.62 33.81 4.62 33.81 4.63 33.96 4.63 33.96 4.64 34.12 4.64 34.12 4.65 34.28 4.65 34.28 4.66 34.44 4.66 34.44 4.67 34.59 4.67 34.59 4.68 34.75 4.68 34.75 4.7 34.91 4.7 34.91 4.71 35.07 4.71 35.07 4.72 35.22 4.72 35.22 4.73 35.38 4.73 35.38 4.74 35.54 4.74 35.54 4.75 35.7 4.75 35.7 4.76 35.85 4.76 35.85 4.77 36.01 4.77 36.01 4.78 36.17 4.78 36.17 4.8 36.33 4.8 36.33 4.81 36.48 4.81 36.48 4.82 36.64 4.82 36.64 4.83 36.8 4.83 36.8 4.84 36.95 4.84 36.95 4.85 37.11 4.85 37.11 4.86 37.27 4.86 37.27 4.87 37.43 4.87 37.43 4.88 37.58 4.88 37.58 4.89 37.74 4.89 37.74 4.91 37.9 4.91 37.9 4.92 38.06 4.92 38.06 4.93 38.21 4.93 38.21 4.94 38.37 4.94 38.37 4.95 38.53 4.95 38.53 4.96 38.69 4.96 38.69 4.97 38.84 4.97 38.84 4.98 39 4.98 39 4.99 39.16 4.99 39.16 5 39.32 5 39.32 5.01 39.47 5.01 39.47 5.02 39.63 5.02 39.63 5.03 39.79 5.03 39.79 5.04 39.95 5.04 39.95 5.05 40.1 5.05 40.1 5.07 40.26 5.07 40.26 5.08 40.42 5.08 40.42 5.09 40.58 5.09 40.58 5.1 40.73 5.1 40.73 5.11 40.89 5.11 40.89 5.12 41.05 5.12 41.05 5.13 41.21 5.13 41.21 5.14 41.36 5.14 41.36 5.15 41.52 5.15 41.52 5.16 41.68 5.16 41.68 5.17 41.83 5.17 41.83 5.18 41.99 5.18 41.99 5.19 42.15 5.19 42.15 5.2 42.31 5.2 42.31 5.21 42.46 5.21 42.46 5.22 42.62 5.22 42.62 5.23 42.78 5.23 42.78 5.24 42.94 5.24 42.94 5.25 43.09 5.25 43.09 5.26 43.25 5.26 43.25 5.27 43.41 5.27 43.41 5.28 43.57 5.28 43.57 5.29 43.72 5.29 43.72 5.3 43.88 5.3 43.88 5.31 44.04 5.31 44.04 5.32 44.2 5.32 44.2 5.33 44.35 5.33 44.35 5.34 44.51 5.34 44.51 5.35 44.67 5.35 44.67 5.36 44.83 5.36 44.83 5.37 44.98 5.37 44.98 5.38 45.14 5.38 45.14 5.39 45.3 5.39 45.3 5.4 45.46 5.4 45.46 5.41 45.61 5.41 45.61 5.42 45.77 5.42 45.77 5.43 45.93 5.43 45.93 5.44 46.09 5.44 46.09 5.45 46.24 5.45 46.24 5.46 46.4 5.46 46.4 5.47 46.56 5.47 46.56 5.48 46.72 5.48 46.72 5.49 46.87 5.49 46.87 5.5 47.03 5.5 47.03 5.51 47.19 5.51 47.19 5.52 47.34 5.52 47.34 5.53 47.5 5.53 47.5 5.54 47.66 5.54 47.66 5.55 47.82 5.55 47.82 5.56 47.97 5.56 47.97 5.57 48.13 5.57 48.13 5.57 48.29 5.57 48.29 5.58 48.45 5.58 48.45 5.59 48.6 5.59 48.6 5.6 48.76 5.6 48.76 5.61 48.92 5.61 48.92 5.62 49.08 5.62 49.08 5.63 49.23 5.63 49.23 5.64 49.39 5.64 49.39 5.65 49.55 5.65 49.55 5.66 49.71 5.66 49.71 5.67 49.86 5.67 49.86 5.68 50.02 5.68 50.02 5.69 50.18 5.69 50.18 5.7 50.34 5.7 50.34 5.71 50.49 5.71 50.49 5.72 50.65 5.72 50.65 5.72 50.81 5.72 50.81 5.73 50.97 5.73 50.97 5.74 51.12 5.74 51.12 5.75 51.28 5.75 51.28 5.76 51.44 5.76 51.44 5.77 51.6 5.77 51.6 5.78 51.75 5.78 51.75 5.79 51.91 5.79 51.91 5.8 52.07 5.8 52.07 5.81 52.22 5.81 52.22 5.82 52.38 5.82 52.38 5.82 52.54 5.82 52.54 5.83 52.7 5.83 52.7 5.84 52.85 5.84 52.85 5.85 53.01 5.85 53.01 5.86 53.17 5.86 53.17 5.87 53.33 5.87 53.33 5.88 53.48 5.88 53.48 5.89 53.64 5.89 53.64 5.9 53.8 5.9 53.8 5.91 53.96 5.91 53.96 5.91 54.11 5.91 54.11 5.92 54.27 5.92 54.27 5.93 54.43 5.93 54.43 5.94 54.59 5.94 54.59 5.95 54.74 5.95 54.74 5.96 54.9 5.96 54.9 5.97 55.06 5.97 55.06 5.98 55.22 5.98 55.22 5.98 55.37 5.98 55.37 5.99 55.53 5.99 55.53 6 55.69 6 55.69 6.01 55.85 6.01 55.85 6.02 56 6.02 56 6.03 56.16 6.03 56.16 6.04 56.32 6.04 56.32 6.04 56.48 6.04 56.48 6.05 56.63 6.05 56.63 6.06 56.79 6.06 56.79 6.07 56.95 6.07 56.95 6.08 57.1 6.08 57.1 6.09 57.26 6.09 57.26 6.1 57.42 6.1 57.42 6.1 57.58 6.1 57.58 6.11 57.73 6.11 57.73 6.12 57.89 6.12 57.89 6.13 58.05 6.13 58.05 6.14 58.21 6.14 58.21 6.15 58.36 6.15 58.36 6.15 58.52 6.15 58.52 6.16 58.68 6.16 58.68 6.17 58.84 6.17 58.84 6.18 58.99 6.18 58.99 6.19 59.15 6.19 59.15 6.2 59.31 6.2 59.31 6.2 59.47 6.2 59.47 6.21 59.62 6.21 59.62 6.22 59.78 6.22 59.78 6.23 59.94 6.23 59.94 6.24 60.1 6.24 60.1 6.25 60.25 6.25 60.25 6.25 60.41 6.25 60.41 6.26 60.57 6.26 60.57 6.27 60.73 6.27 60.73 6.28 60.88 6.28 60.88 6.29 61.04 6.29 61.04 6.29 61.2 6.29 61.2 6.3 61.36 6.3 61.36 6.31 61.51 6.31 61.51 6.32 61.67 6.32 61.67 6.33 61.83 6.33 61.83 6.34 61.99 6.34 61.99 6.34 62.14 6.34 62.14 6.35 62.3 6.35 62.3 6.36 62.46 6.36 62.46 6.37 62.61 6.37 62.61 6.38 62.77 6.38 62.77 6.38 62.93 6.38 62.93 6.39 63.09 6.39 63.09 6.4 63.24 6.4 63.24 6.41 63.4 6.41 63.4 6.41 63.56 6.41 63.56 6.42 63.72 6.42 63.72 6.43 63.87 6.43 63.87 6.44 64.03 6.44 64.03 6.45 64.19 6.45 64.19 6.45 64.35 6.45 64.35 6.46 64.5 6.46 64.5 6.47 64.66 6.47 64.66 6.48 64.82 6.48 64.82 6.48 64.98 6.48 64.98 6.49 65.13 6.49 65.13 6.5 65.29 6.5 65.29 6.51 65.45 6.51 65.45 6.52 65.61 6.52 65.61 6.52 65.76 6.52 65.76 6.53 65.92 6.53 65.92 6.54 66.08 6.54 66.08 6.55 66.24 6.55 66.24 6.55 66.39 6.55 66.39 6.56 66.55 6.56 66.55 6.57 66.71 6.57 66.71 6.58 66.87 6.58 66.87 6.58 67.02 6.58 67.02 6.59 67.18 6.59 67.18 6.6 67.34 6.6 67.34 6.61 67.49 6.61 67.49 6.61 67.65 6.61 67.65 6.62 67.81 6.62 67.81 6.63 67.97 6.63 67.97 6.64 68.12 6.64 68.12 6.64 68.28 6.64 68.28 6.65 68.44 6.65 68.44 6.66 68.6 6.66 68.6 6.67 68.75 6.67 68.75 6.67 68.91 6.67 68.91 6.68 69.07 6.68 69.07 6.69 69.23 6.69 69.23 6.69 69.38 6.69 69.38 6.7 69.54 6.7 69.54 6.71 69.7 6.71 69.7 6.72 69.86 6.72 69.86 6.72 70.01 6.72 70.01 6.73 70.17 6.73 70.17 6.74 70.33 6.74 70.33 6.74 70.49 6.74 70.49 6.75 70.64 6.75 70.64 6.76 70.8 6.76 70.8 6.77 70.96 6.77 70.96 6.77 71.12 6.77 71.12 6.78 71.27 6.78 71.27 6.79 71.43 6.79 71.43 6.79 71.59 6.79 71.59 6.8 71.75 6.8 71.75 6.81 71.9 6.81 71.9 6.82 72.06 6.82 72.06 6.82 72.22 6.82 72.22 6.83 72.37 6.83 72.37 6.84 72.53 6.84 72.53 6.84 72.69 6.84 72.69 6.85 72.85 6.85 72.85 6.86 73 6.86 73 6.86 73.16 6.86 73.16 6.87 73.32 6.87 73.32 6.88 73.48 6.88 73.48 6.88 73.63 6.88 73.63 6.89 73.79 6.89 73.79 6.9 73.95 6.9 73.95 6.91 74.11 6.91 74.11 6.91 74.26 6.91 74.26 6.92 74.42 6.92 74.42 6.93 74.58 6.93 74.58 6.93 74.74 6.93 74.74 6.94 74.89 6.94 74.89 6.95 75.05 6.95 75.05 6.95 75.21 6.95 75.21 6.96 75.37 6.96 75.37 6.97 75.52 6.97 75.52 6.97 75.68 6.97 75.68 6.98 75.84 6.98 75.84 6.99 76 6.99 76 6.99 76.15 6.99 76.15 7 76.31 7 76.31 7.01 76.47 7.01 76.47 7.01 76.63 7.01 76.63 7.02 76.78 7.02 76.78 7.03 76.94 7.03 76.94 7.03 77.1 7.03 77.1 7.04 77.25 7.04 77.25 7.04 77.41 7.04 77.41 7.05 77.57 7.05 77.57 7.06 77.73 7.06 77.73 7.06 77.88 7.06 77.88 7.07 78.04 7.07 78.04 7.08 78.2 7.08 78.2 7.08 78.36 7.08 78.36 7.09 78.51 7.09 78.51 7.1 78.67 7.1 78.67 7.1 78.83 7.1 78.83 7.11 78.99 7.11 78.99 7.12 79.14 7.12 79.14 7.12 79.3 7.12 79.3 7.13 79.46 7.13 79.46 7.13 79.62 7.13 79.62 7.14 79.77 7.14 79.77 7.15 79.93 7.15 79.93 7.15 80.09 7.15 80.09 7.16 80.25 7.16 80.25 7.17 80.4 7.17 80.4 7.17 80.56 7.17 80.56 7.18 80.72 7.18 80.72 7.18 80.88 7.18 80.88 7.19 81.03 7.19 81.03 7.2 81.19 7.2 81.19 7.2 81.35 7.2 81.35 7.21 81.51 7.21 81.51 7.21 81.66 7.21 81.66 7.22 81.82 7.22 81.82 7.23 81.98 7.23 81.98 7.23 82.14 7.23 82.14 7.24 82.29 7.24 82.29 7.25 82.45 7.25 82.45 7.25 82.61 7.25 82.61 7.26 82.76 7.26 82.76 7.26 82.92 7.26 82.92 7.27 83.08 7.27 83.08 7.28 83.24 7.28 83.24 7.28 83.39 7.28 83.39 7.29 83.55 7.29 83.55 7.29 83.71 7.29 83.71 7.3 83.87 7.3 83.87 7.3 84.02 7.3 84.02 7.31 84.18 7.31 84.18 7.32 84.34 7.32 84.34 7.32 84.5 7.32 84.5 7.33 84.65 7.33 84.65 7.33 84.81 7.33 84.81 7.34 84.97 7.34 84.97 7.35 85.13 7.35 85.13 7.35 85.28 7.35 85.28 7.36 85.44 7.36 85.44 7.36 85.6 7.36 85.6 7.37 85.76 7.37 85.76 7.37 85.91 7.37 85.91 7.38 86.07 7.38 86.07 7.39 86.23 7.39 86.23 7.39 86.39 7.39 86.39 7.4 86.54 7.4 86.54 7.4 86.7 7.4 86.7 7.41 86.86 7.41 86.86 7.41 87.02 7.41 87.02 7.42 87.17 7.42 87.17 7.42 87.33 7.42 87.33 7.43 87.49 7.43 87.49 7.44 87.64 7.44 87.64 7.44 87.8 7.44 87.8 7.45 87.96 7.45 87.96 7.45 88.12 7.45 88.12 7.46 88.27 7.46 88.27 7.46 88.43 7.46 88.43 7.47 88.59 7.47 88.59 7.47 88.75 7.47 88.75 7.48 88.9 7.48 88.9 7.49 89.06 7.49 89.06 7.49 89.22 7.49 89.22 7.5 89.38 7.5 89.38 7.5 89.53 7.5 89.53 7.51 89.69 7.51 89.69 7.51 89.85 7.51 89.85 7.52 90.01 7.52 90.01 7.52 90.16 7.52 90.16 7.53 90.32 7.53 90.32 7.53 90.48 7.53 90.48 7.54 90.64 7.54 90.64 7.54 90.79 7.54 90.79 7.55 90.95 7.55 90.95 7.55 91.11 7.55 91.11 7.56 91.27 7.56 91.27 7.57 91.42 7.57 91.42 7.57 91.58 7.57 91.58 7.58 91.74 7.58 91.74 7.58 91.9 7.58 91.9 7.59 92.05 7.59 92.05 7.59 92.21 7.59 92.21 7.6 92.37 7.6 92.37 7.6 92.52 7.6 92.52 7.61 92.68 7.61 92.68 7.61 92.84 7.61 92.84 7.62 93 7.62 93 7.62 93.15 7.62 93.15 7.63 93.31 7.63 93.31 7.63 93.47 7.63 93.47 7.64 93.63 7.64 93.63 7.64 93.78 7.64 93.78 7.65 93.94 7.65 93.94 7.65 94.1 7.65 94.1 7.66 94.26 7.66 94.26 7.66 94.41 7.66 94.41 7.67" class="primitive"/>
            </g>
          </g>
        </g>
        <g stroke-width="0.3" fill="#000000" fill-opacity="0.000" class="geometry" id="img-7b0ffd7b-35">
          <g class="color_RGB{Float64}(0.06274509803921569,0.3058823529411765,0.5450980392156862)" stroke-dasharray="none" stroke="#104E8B" id="img-7b0ffd7b-36">
            <g transform="translate(114.55,27.14)" id="img-7b0ffd7b-37">
              <path fill="none" d="M-94.49,32.7 L -94.34 32.7 -94.34 32.7 -94.18 32.7 -94.18 32.69 -94.02 32.69 -94.02 32.71 -93.86 32.71 -93.86 32.72 -93.71 32.72 -93.71 32.71 -93.55 32.71 -93.55 32.72 -93.39 32.72 -93.39 32.72 -93.23 32.72 -93.23 32.72 -93.08 32.72 -93.08 32.71 -92.92 32.71 -92.92 32.72 -92.76 32.72 -92.76 32.7 -92.6 32.7 -92.6 32.7 -92.45 32.7 -92.45 32.7 -92.29 32.7 -92.29 32.68 -92.13 32.68 -92.13 32.65 -91.97 32.65 -91.97 32.59 -91.82 32.59 -91.82 32.47 -91.66 32.47 -91.66 32.31 -91.5 32.31 -91.5 31.9 -91.34 31.9 -91.34 31.24 -91.19 31.24 -91.19 29.91 -91.03 29.91 -91.03 27.36 -90.87 27.36 -90.87 22.97 -90.71 22.97 -90.71 16.16 -90.56 16.16 -90.56 9.28 -90.4 9.28 -90.4 3.13 -90.24 3.13 -90.24 0.51 -90.08 0.51 -90.08 2.85 -89.93 2.85 -89.93 8.42 -89.77 8.42 -89.77 15.05 -89.61 15.05 -89.61 19.4 -89.46 19.4 -89.46 22.89 -89.3 22.89 -89.3 24.31 -89.14 24.31 -89.14 24.55 -88.98 24.55 -88.98 24.65 -88.83 24.65 -88.83 24.38 -88.67 24.38 -88.67 24.57 -88.51 24.57 -88.51 23.48 -88.35 23.48 -88.35 23.19 -88.2 23.19 -88.2 21.99 -88.04 21.99 -88.04 20.59 -87.88 20.59 -87.88 17.68 -87.72 17.68 -87.72 12.78 -87.57 12.78 -87.57 1.58 -87.41 1.58 -87.41 -19.46 -87.25 -19.46 -87.25 -57.06 -87.09 -57.06 -87.09 -121.8 -86.94 -121.8 -86.94 -221.38 -86.78 -221.38 -86.78 -345.45 -86.62 -345.45 -86.62 -475.54 -86.46 -475.54 -86.46 -569.65 -86.31 -569.65 -86.31 -588.18 -86.15 -588.18 -86.15 -529.23 -85.99 -529.23 -85.99 -412.71 -85.83 -412.71 -85.83 -275.06 -85.68 -275.06 -85.68 -155.48 -85.52 -155.48 -85.52 -69.34 -85.36 -69.34 -85.36 -21.67 -85.2 -21.67 -85.2 2.47 -85.05 2.47 -85.05 13.55 -84.89 13.55 -84.89 17.03 -84.73 17.03 -84.73 18.43 -84.58 18.43 -84.58 19.01 -84.42 19.01 -84.42 17.51 -84.26 17.51 -84.26 15.55 -84.1 15.55 -84.1 12.06 -83.95 12.06 -83.95 6.51 -83.79 6.51 -83.79 0.24 -83.63 0.24 -83.63 -6.25 -83.47 -6.25 -83.47 -9.77 -83.32 -9.77 -83.32 -10 -83.16 -10 -83.16 -7.36 -83 -7.36 -83 -0.91 -82.84 -0.91 -82.84 5.36 -82.69 5.36 -82.69 10.38 -82.53 10.38 -82.53 14.47 -82.37 14.47 -82.37 17.31 -82.21 17.31 -82.21 18.07 -82.06 18.07 -82.06 18.26 -81.9 18.26 -81.9 18.77 -81.74 18.77 -81.74 18.95 -81.58 18.95 -81.58 18.93 -81.43 18.93 -81.43 18.14 -81.27 18.14 -81.27 18.27 -81.11 18.27 -81.11 17.69 -80.95 17.69 -80.95 17.05 -80.8 17.05 -80.8 17.49 -80.64 17.49 -80.64 17.1 -80.48 17.1 -80.48 16.32 -80.32 16.32 -80.32 16.38 -80.17 16.38 -80.17 16.54 -80.01 16.54 -80.01 15.83 -79.85 15.83 -79.85 15.41 -79.69 15.41 -79.69 14.7 -79.54 14.7 -79.54 14.64 -79.38 14.64 -79.38 13.3 -79.22 13.3 -79.22 13.8 -79.07 13.8 -79.07 13.01 -78.91 13.01 -78.91 12.03 -78.75 12.03 -78.75 11.56 -78.59 11.56 -78.59 10.27 -78.44 10.27 -78.44 9.19 -78.28 9.19 -78.28 9.03 -78.12 9.03 -78.12 8.96 -77.96 8.96 -77.96 8.74 -77.81 8.74 -77.81 7.44 -77.65 7.44 -77.65 7.45 -77.49 7.45 -77.49 6.84 -77.33 6.84 -77.33 7.49 -77.18 7.49 -77.18 6.35 -77.02 6.35 -77.02 5.73 -76.86 5.73 -76.86 5.54 -76.7 5.54 -76.7 4.67 -76.55 4.67 -76.55 2.37 -76.39 2.37 -76.39 -0.08 -76.23 -0.08 -76.23 -5.81 -76.07 -5.81 -76.07 -17.68 -75.92 -17.68 -75.92 -40.46 -75.76 -40.46 -75.76 -78.18 -75.6 -78.18 -75.6 -141.85 -75.44 -141.85 -75.44 -229.59 -75.29 -229.59 -75.29 -339.7 -75.13 -339.7 -75.13 -449.66 -74.97 -449.66 -74.97 -538.01 -74.81 -538.01 -74.81 -583.28 -74.66 -583.28 -74.66 -571.5 -74.5 -571.5 -74.5 -509.69 -74.34 -509.69 -74.34 -410.8 -74.19 -410.8 -74.19 -301.17 -74.03 -301.17 -74.03 -201.2 -73.87 -201.2 -73.87 -124.07 -73.71 -124.07 -73.71 -67.5 -73.56 -67.5 -73.56 -34.14 -73.4 -34.14 -73.4 -13.41 -73.24 -13.41 -73.24 -3.85 -73.08 -3.85 -73.08 1.34 -72.93 1.34 -72.93 2.45 -72.77 2.45 -72.77 3.36 -72.61 3.36 -72.61 1.24 -72.45 1.24 -72.45 -3.01 -72.3 -3.01 -72.3 -10.92 -72.14 -10.92 -72.14 -26.97 -71.98 -26.97 -71.98 -51.65 -71.82 -51.65 -71.82 -86.9 -71.67 -86.9 -71.67 -129.24 -71.51 -129.24 -71.51 -175.31 -71.35 -175.31 -71.35 -213.82 -71.19 -213.82 -71.19 -237.58 -71.04 -237.58 -71.04 -241.44 -70.88 -241.44 -70.88 -225.04 -70.72 -225.04 -70.72 -188.1 -70.56 -188.1 -70.56 -146.63 -70.41 -146.63 -70.41 -103.79 -70.25 -103.79 -70.25 -68.86 -70.09 -68.86 -70.09 -41.07 -69.93 -41.07 -69.93 -25.15 -69.78 -25.15 -69.78 -12.97 -69.62 -12.97 -69.62 -5.6 -69.46 -5.6 -69.46 -2.64 -69.31 -2.64 -69.31 0.18 -69.15 0.18 -69.15 1.8 -68.99 1.8 -68.99 -0.83 -68.83 -0.83 -68.83 -4.58 -68.68 -4.58 -68.68 -14.82 -68.52 -14.82 -68.52 -35.38 -68.36 -35.38 -68.36 -73.48 -68.2 -73.48 -68.2 -143.93 -68.05 -143.93 -68.05 -245.78 -67.89 -245.78 -67.89 -391.06 -67.73 -391.06 -67.73 -571.55 -67.57 -571.55 -67.57 -764.1 -67.42 -764.1 -67.42 -934.22 -67.26 -934.22 -67.26 -1070.28 -67.1 -1070.28 -67.1 -1110.49 -66.94 -1110.49 -66.94 -1060.91 -66.79 -1060.91 -66.79 -933.61 -66.63 -933.61 -66.63 -760.14 -66.47 -760.14 -66.47 -578.08 -66.31 -578.08 -66.31 -410.85 -66.16 -410.85 -66.16 -277.2 -66 -277.2 -66 -179.02 -65.84 -179.02 -65.84 -114.94 -65.68 -114.94 -65.68 -76.15 -65.53 -76.15 -65.53 -52.67 -65.37 -52.67 -65.37 -36.46 -65.21 -36.46 -65.21 -23.86 -65.05 -23.86 -65.05 -13.14 -64.9 -13.14 -64.9 -5.31 -64.74 -5.31 -64.74 1.01 -64.58 1.01 -64.58 4.84 -64.43 4.84 -64.43 6.48 -64.27 6.48 -64.27 7.66 -64.11 7.66 -64.11 9.44 -63.95 9.44 -63.95 10.2 -63.8 10.2 -63.8 9.83 -63.64 9.83 -63.64 10.34 -63.48 10.34 -63.48 10.94 -63.32 10.94 -63.32 11.43 -63.17 11.43 -63.17 11.46 -63.01 11.46 -63.01 12.2 -62.85 12.2 -62.85 13 -62.69 13 -62.69 12.74 -62.54 12.74 -62.54 13.87 -62.38 13.87 -62.38 13.98 -62.22 13.98 -62.22 13.93 -62.06 13.93 -62.06 13.75 -61.91 13.75 -61.91 14.05 -61.75 14.05 -61.75 14.33 -61.59 14.33 -61.59 13.72 -61.43 13.72 -61.43 13.73 -61.28 13.73 -61.28 13.96 -61.12 13.96 -61.12 13.9 -60.96 13.9 -60.96 14.65 -60.8 14.65 -60.8 13.31 -60.65 13.31 -60.65 13.86 -60.49 13.86 -60.49 13.43 -60.33 13.43 -60.33 13.96 -60.17 13.96 -60.17 13.99 -60.02 13.99 -60.02 13.15 -59.86 13.15 -59.86 12.93 -59.7 12.93 -59.7 12.51 -59.54 12.51 -59.54 12.37 -59.39 12.37 -59.39 12.14 -59.23 12.14 -59.23 11.88 -59.07 11.88 -59.07 11.74 -58.92 11.74 -58.92 11.94 -58.76 11.94 -58.76 11.59 -58.6 11.59 -58.6 11.39 -58.44 11.39 -58.44 12.34 -58.29 12.34 -58.29 12.67 -58.13 12.67 -58.13 12.89 -57.97 12.89 -57.97 12.7 -57.81 12.7 -57.81 12.92 -57.66 12.92 -57.66 13.11 -57.5 13.11 -57.5 12.93 -57.34 12.93 -57.34 13.61 -57.18 13.61 -57.18 13.54 -57.03 13.54 -57.03 13.59 -56.87 13.59 -56.87 13.59 -56.71 13.59 -56.71 13.63 -56.55 13.63 -56.55 13.69 -56.4 13.69 -56.4 13.89 -56.24 13.89 -56.24 13.11 -56.08 13.11 -56.08 13.75 -55.92 13.75 -55.92 13.69 -55.77 13.69 -55.77 13.06 -55.61 13.06 -55.61 13.52 -55.45 13.52 -55.45 13.51 -55.29 13.51 -55.29 13.32 -55.14 13.32 -55.14 13.81 -54.98 13.81 -54.98 13.36 -54.82 13.36 -54.82 13.6 -54.66 13.6 -54.66 12.86 -54.51 12.86 -54.51 13.86 -54.35 13.86 -54.35 13.31 -54.19 13.31 -54.19 13.05 -54.04 13.05 -54.04 14.66 -53.88 14.66 -53.88 13.4 -53.72 13.4 -53.72 13.97 -53.56 13.97 -53.56 13.62 -53.41 13.62 -53.41 13.87 -53.25 13.87 -53.25 13.85 -53.09 13.85 -53.09 13.45 -52.93 13.45 -52.93 14.1 -52.78 14.1 -52.78 13.82 -52.62 13.82 -52.62 13.88 -52.46 13.88 -52.46 13.9 -52.3 13.9 -52.3 14.2 -52.15 14.2 -52.15 13.91 -51.99 13.91 -51.99 14.17 -51.83 14.17 -51.83 14.24 -51.67 14.24 -51.67 13.49 -51.52 13.49 -51.52 14.15 -51.36 14.15 -51.36 14.14 -51.2 14.14 -51.2 14.21 -51.04 14.21 -51.04 14.52 -50.89 14.52 -50.89 14.09 -50.73 14.09 -50.73 13.9 -50.57 13.9 -50.57 14.82 -50.41 14.82 -50.41 14.59 -50.26 14.59 -50.26 14.58 -50.1 14.58 -50.1 14.39 -49.94 14.39 -49.94 14.16 -49.78 14.16 -49.78 14.33 -49.63 14.33 -49.63 14.88 -49.47 14.88 -49.47 14.62 -49.31 14.62 -49.31 14.05 -49.16 14.05 -49.16 14.72 -49 14.72 -49 14.26 -48.84 14.26 -48.84 14.09 -48.68 14.09 -48.68 14.01 -48.53 14.01 -48.53 14.2 -48.37 14.2 -48.37 14.7 -48.21 14.7 -48.21 14.1 -48.05 14.1 -48.05 13.89 -47.9 13.89 -47.9 13.45 -47.74 13.45 -47.74 13.52 -47.58 13.52 -47.58 13.59 -47.42 13.59 -47.42 13.66 -47.27 13.66 -47.27 14.07 -47.11 14.07 -47.11 13.95 -46.95 13.95 -46.95 14.44 -46.79 14.44 -46.79 14.41 -46.64 14.41 -46.64 14.47 -46.48 14.47 -46.48 15.07 -46.32 15.07 -46.32 14.63 -46.16 14.63 -46.16 14.97 -46.01 14.97 -46.01 15.13 -45.85 15.13 -45.85 15.17 -45.69 15.17 -45.69 15.1 -45.53 15.1 -45.53 15.57 -45.38 15.57 -45.38 15.63 -45.22 15.63 -45.22 15 -45.06 15 -45.06 15.43 -44.9 15.43 -44.9 15.09 -44.75 15.09 -44.75 14.74 -44.59 14.74 -44.59 15.06 -44.43 15.06 -44.43 15.07 -44.27 15.07 -44.27 15.13 -44.12 15.13 -44.12 15.46 -43.96 15.46 -43.96 15.06 -43.8 15.06 -43.8 14.81 -43.65 14.81 -43.65 15.55 -43.49 15.55 -43.49 15.2 -43.33 15.2 -43.33 14.57 -43.17 14.57 -43.17 16 -43.02 16 -43.02 15.19 -42.86 15.19 -42.86 15.88 -42.7 15.88 -42.7 15.49 -42.54 15.49 -42.54 15.41 -42.39 15.41 -42.39 15.52 -42.23 15.52 -42.23 16.03 -42.07 16.03 -42.07 16.62 -41.91 16.62 -41.91 16.45 -41.76 16.45 -41.76 16.18 -41.6 16.18 -41.6 15.9 -41.44 15.9 -41.44 15.99 -41.28 15.99 -41.28 16.29 -41.13 16.29 -41.13 16.61 -40.97 16.61 -40.97 15.92 -40.81 15.92 -40.81 16.45 -40.65 16.45 -40.65 16.63 -40.5 16.63 -40.5 16.32 -40.34 16.32 -40.34 15.85 -40.18 15.85 -40.18 15.57 -40.02 15.57 -40.02 15.92 -39.87 15.92 -39.87 15.75 -39.71 15.75 -39.71 15.46 -39.55 15.46 -39.55 14.99 -39.39 14.99 -39.39 15.29 -39.24 15.29 -39.24 14.31 -39.08 14.31 -39.08 14.07 -38.92 14.07 -38.92 13.74 -38.77 13.74 -38.77 13.02 -38.61 13.02 -38.61 11.29 -38.45 11.29 -38.45 8.8 -38.29 8.8 -38.29 5.27 -38.14 5.27 -38.14 -2.55 -37.98 -2.55 -37.98 -12.75 -37.82 -12.75 -37.82 -28.05 -37.66 -28.05 -37.66 -50.95 -37.51 -50.95 -37.51 -80.51 -37.35 -80.51 -37.35 -119.04 -37.19 -119.04 -37.19 -163.52 -37.03 -163.52 -37.03 -211.21 -36.88 -211.21 -36.88 -255.24 -36.72 -255.24 -36.72 -298.42 -36.56 -298.42 -36.56 -327.49 -36.4 -327.49 -36.4 -339.42 -36.25 -339.42 -36.25 -339.47 -36.09 -339.47 -36.09 -318.73 -35.93 -318.73 -35.93 -284.81 -35.77 -284.81 -35.77 -245.63 -35.62 -245.63 -35.62 -196.11 -35.46 -196.11 -35.46 -150.91 -35.3 -150.91 -35.3 -105.36 -35.14 -105.36 -35.14 -70.59 -34.99 -70.59 -34.99 -42.52 -34.83 -42.52 -34.83 -21.72 -34.67 -21.72 -34.67 -7.63 -34.51 -7.63 -34.51 2.76 -34.36 2.76 -34.36 9.2 -34.2 9.2 -34.2 12.01 -34.04 12.01 -34.04 15.37 -33.89 15.37 -33.89 15.82 -33.73 15.82 -33.73 16.82 -33.57 16.82 -33.57 16.72 -33.41 16.72 -33.41 16.72 -33.26 16.72 -33.26 15.69 -33.1 15.69 -33.1 15.69 -32.94 15.69 -32.94 13.68 -32.78 13.68 -32.78 12.05 -32.63 12.05 -32.63 9.4 -32.47 9.4 -32.47 5.16 -32.31 5.16 -32.31 1.43 -32.15 1.43 -32.15 -3.62 -32 -3.62 -32 -9.33 -31.84 -9.33 -31.84 -14.02 -31.68 -14.02 -31.68 -18.75 -31.52 -18.75 -31.52 -20.9 -31.37 -20.9 -31.37 -24.09 -31.21 -24.09 -31.21 -23.76 -31.05 -23.76 -31.05 -21.99 -30.89 -21.99 -30.89 -18.93 -30.74 -18.93 -30.74 -14.66 -30.58 -14.66 -30.58 -9.39 -30.42 -9.39 -30.42 -3.44 -30.26 -3.44 -30.26 1.98 -30.11 1.98 -30.11 6.45 -29.95 6.45 -29.95 10.7 -29.79 10.7 -29.79 13.56 -29.63 13.56 -29.63 15.87 -29.48 15.87 -29.48 17.04 -29.32 17.04 -29.32 18.53 -29.16 18.53 -29.16 19.89 -29.01 19.89 -29.01 19.42 -28.85 19.42 -28.85 19.75 -28.69 19.75 -28.69 19.59 -28.53 19.59 -28.53 20.24 -28.38 20.24 -28.38 20.31 -28.22 20.31 -28.22 20.11 -28.06 20.11 -28.06 20.3 -27.9 20.3 -27.9 20.06 -27.75 20.06 -27.75 20.43 -27.59 20.43 -27.59 20.33 -27.43 20.33 -27.43 20.76 -27.27 20.76 -27.27 20.24 -27.12 20.24 -27.12 21.18 -26.96 21.18 -26.96 21.03 -26.8 21.03 -26.8 20.96 -26.64 20.96 -26.64 20.89 -26.49 20.89 -26.49 20.94 -26.33 20.94 -26.33 20.75 -26.17 20.75 -26.17 21.53 -26.01 21.53 -26.01 20.86 -25.86 20.86 -25.86 21.2 -25.7 21.2 -25.7 21.31 -25.54 21.31 -25.54 20.9 -25.38 20.9 -25.38 21.22 -25.23 21.22 -25.23 21.71 -25.07 21.71 -25.07 21.19 -24.91 21.19 -24.91 21.06 -24.75 21.06 -24.75 21.63 -24.6 21.63 -24.6 21.17 -24.44 21.17 -24.44 21.26 -24.28 21.26 -24.28 21.86 -24.12 21.86 -24.12 21.48 -23.97 21.48 -23.97 21.46 -23.81 21.46 -23.81 21.55 -23.65 21.55 -23.65 21.27 -23.5 21.27 -23.5 21.59 -23.34 21.59 -23.34 21.13 -23.18 21.13 -23.18 21.77 -23.02 21.77 -23.02 21.71 -22.87 21.71 -22.87 21.83 -22.71 21.83 -22.71 21.59 -22.55 21.59 -22.55 22.01 -22.39 22.01 -22.39 21.52 -22.24 21.52 -22.24 21.61 -22.08 21.61 -22.08 21.8 -21.92 21.8 -21.92 21.41 -21.76 21.41 -21.76 21.08 -21.61 21.08 -21.61 21.69 -21.45 21.69 -21.45 21.75 -21.29 21.75 -21.29 21.37 -21.13 21.37 -21.13 21.94 -20.98 21.94 -20.98 22.21 -20.82 22.21 -20.82 21.98 -20.66 21.98 -20.66 21.81 -20.5 21.81 -20.5 21.88 -20.35 21.88 -20.35 21.54 -20.19 21.54 -20.19 21.97 -20.03 21.97 -20.03 21.95 -19.87 21.95 -19.87 22.44 -19.72 22.44 -19.72 22.4 -19.56 22.4 -19.56 22.33 -19.4 22.33 -19.4 22.41 -19.24 22.41 -19.24 22.35 -19.09 22.35 -19.09 22.11 -18.93 22.11 -18.93 22.56 -18.77 22.56 -18.77 22.62 -18.62 22.62 -18.62 22.63 -18.46 22.63 -18.46 23.07 -18.3 23.07 -18.3 22.41 -18.14 22.41 -18.14 22.3 -17.99 22.3 -17.99 22.45 -17.83 22.45 -17.83 22.79 -17.67 22.79 -17.67 22.56 -17.51 22.56 -17.51 22.26 -17.36 22.26 -17.36 22.57 -17.2 22.57 -17.2 22.29 -17.04 22.29 -17.04 22.42 -16.88 22.42 -16.88 22.49 -16.73 22.49 -16.73 22.54 -16.57 22.54 -16.57 22.29 -16.41 22.29 -16.41 22.8 -16.25 22.8 -16.25 22.53 -16.1 22.53 -16.1 22.41 -15.94 22.41 -15.94 22.39 -15.78 22.39 -15.78 22.52 -15.62 22.52 -15.62 22.5 -15.47 22.5 -15.47 23.13 -15.31 23.13 -15.31 23.1 -15.15 23.1 -15.15 22.89 -14.99 22.89 -14.99 23.13 -14.84 23.13 -14.84 22.97 -14.68 22.97 -14.68 23.47 -14.52 23.47 -14.52 22.96 -14.36 22.96 -14.36 23.02 -14.21 23.02 -14.21 22.79 -14.05 22.79 -14.05 23.05 -13.89 23.05 -13.89 23.1 -13.74 23.1 -13.74 23.08 -13.58 23.08 -13.58 23.17 -13.42 23.17 -13.42 23.42 -13.26 23.42 -13.26 23.31 -13.11 23.31 -13.11 22.93 -12.95 22.93 -12.95 23.1 -12.79 23.1 -12.79 22.87 -12.63 22.87 -12.63 23.13 -12.48 23.13 -12.48 23.27 -12.32 23.27 -12.32 23.22 -12.16 23.22 -12.16 23.29 -12 23.29 -12 23.04 -11.85 23.04 -11.85 23.44 -11.69 23.44 -11.69 23.25 -11.53 23.25 -11.53 23.35 -11.37 23.35 -11.37 23.23 -11.22 23.23 -11.22 23.65 -11.06 23.65 -11.06 23.5 -10.9 23.5 -10.9 23.09 -10.74 23.09 -10.74 23.48 -10.59 23.48 -10.59 23.74 -10.43 23.74 -10.43 23.66 -10.27 23.66 -10.27 23.33 -10.11 23.33 -10.11 23.38 -9.96 23.38 -9.96 23.22 -9.8 23.22 -9.8 23.1 -9.64 23.1 -9.64 22.71 -9.48 22.71 -9.48 22.93 -9.33 22.93 -9.33 22.87 -9.17 22.87 -9.17 23.2 -9.01 23.2 -9.01 23.16 -8.85 23.16 -8.85 23.18 -8.7 23.18 -8.7 23.1 -8.54 23.1 -8.54 23.17 -8.38 23.17 -8.38 23.19 -8.23 23.19 -8.23 23.11 -8.07 23.11 -8.07 23.82 -7.91 23.82 -7.91 23.82 -7.75 23.82 -7.75 23.63 -7.6 23.63 -7.6 23.72 -7.44 23.72 -7.44 24.01 -7.28 24.01 -7.28 23.86 -7.12 23.86 -7.12 24.13 -6.97 24.13 -6.97 23.98 -6.81 23.98 -6.81 23.79 -6.65 23.79 -6.65 23.99 -6.49 23.99 -6.49 24.24 -6.34 24.24 -6.34 24.07 -6.18 24.07 -6.18 24.15 -6.02 24.15 -6.02 24.1 -5.86 24.1 -5.86 24.08 -5.71 24.08 -5.71 24.71 -5.55 24.71 -5.55 24.36 -5.39 24.36 -5.39 24.59 -5.23 24.59 -5.23 24.59 -5.08 24.59 -5.08 24.34 -4.92 24.34 -4.92 24.53 -4.76 24.53 -4.76 24.24 -4.6 24.24 -4.6 24.32 -4.45 24.32 -4.45 24.66 -4.29 24.66 -4.29 24.18 -4.13 24.18 -4.13 24.68 -3.97 24.68 -3.97 24.16 -3.82 24.16 -3.82 24.73 -3.66 24.73 -3.66 24.66 -3.5 24.66 -3.5 24.63 -3.35 24.63 -3.35 24.4 -3.19 24.4 -3.19 24.54 -3.03 24.54 -3.03 24.13 -2.87 24.13 -2.87 24.32 -2.72 24.32 -2.72 24.24 -2.56 24.24 -2.56 23.88 -2.4 23.88 -2.4 24.14 -2.24 24.14 -2.24 24.19 -2.09 24.19 -2.09 23.59 -1.93 23.59 -1.93 23.83 -1.77 23.83 -1.77 24.03 -1.61 24.03 -1.61 23.72 -1.46 23.72 -1.46 24.11 -1.3 24.11 -1.3 24.12 -1.14 24.12 -1.14 24.16 -0.98 24.16 -0.98 24.38 -0.83 24.38 -0.83 24.6 -0.67 24.6 -0.67 24.58 -0.51 24.58 -0.51 24.43 -0.35 24.43 -0.35 24.56 -0.2 24.56 -0.2 25.2 -0.04 25.2 -0.04 24.67 0.12 24.67 0.12 25 0.28 25 0.28 25.02 0.43 25.02 0.43 24.97 0.59 24.97 0.59 24.79 0.75 24.79 0.75 24.96 0.91 24.96 0.91 25 1.06 25 1.06 25.4 1.22 25.4 1.22 25.12 1.38 25.12 1.38 25.26 1.53 25.26 1.53 25.31 1.69 25.31 1.69 25.16 1.85 25.16 1.85 25.25 2.01 25.25 2.01 24.89 2.16 24.89 2.16 25.68 2.32 25.68 2.32 25.29 2.48 25.29 2.48 25.29 2.64 25.29 2.64 24.82 2.79 24.82 2.79 24.75 2.95 24.75 2.95 24.86 3.11 24.86 3.11 25.16 3.27 25.16 3.27 25.13 3.42 25.13 3.42 24.2 3.58 24.2 3.58 24.03 3.74 24.03 3.74 23.13 3.9 23.13 3.9 21.98 4.05 21.98 4.05 20.34 4.21 20.34 4.21 18.65 4.37 18.65 4.37 15.02 4.53 15.02 4.53 10.23 4.68 10.23 4.68 5.34 4.84 5.34 4.84 -1.2 5 -1.2 5 -9.16 5.16 -9.16 5.16 -18.11 5.31 -18.11 5.31 -26.79 5.47 -26.79 5.47 -36.98 5.63 -36.98 5.63 -47.16 5.79 -47.16 5.79 -54.95 5.94 -54.95 5.94 -60.79 6.1 -60.79 6.1 -66.06 6.26 -66.06 6.26 -67.1 6.41 -67.1 6.41 -64.37 6.57 -64.37 6.57 -61.58 6.73 -61.58 6.73 -53.71 6.89 -53.71 6.89 -44.13 7.04 -44.13 7.04 -37.45 7.2 -37.45 7.2 -27.33 7.36 -27.33 7.36 -18.35 7.52 -18.35 7.52 -8.07 7.67 -8.07 7.67 -1.03 7.83 -1.03 7.83 5.5 7.99 5.5 7.99 11.05 8.15 11.05 8.15 15.59 8.3 15.59 8.3 18.89 8.46 18.89 8.46 21.12 8.62 21.12 8.62 22.9 8.78 22.9 8.78 24.17 8.93 24.17 8.93 24.69 9.09 24.69 9.09 25.1 9.25 25.1 9.25 25.39 9.41 25.39 9.41 25.91 9.56 25.91 9.56 25.65 9.72 25.65 9.72 26.14 9.88 26.14 9.88 26.34 10.04 26.34 10.04 26.15 10.19 26.15 10.19 25.98 10.35 25.98 10.35 26 10.51 26 10.51 25.79 10.67 25.79 10.67 26.22 10.82 26.22 10.82 26.31 10.98 26.31 10.98 26.37 11.14 26.37 11.14 26.04 11.3 26.04 11.3 26.39 11.45 26.39 11.45 26.03 11.61 26.03 11.61 26.2 11.77 26.2 11.77 25.94 11.92 25.94 11.92 26.49 12.08 26.49 12.08 26.39 12.24 26.39 12.24 26.45 12.4 26.45 12.4 26.6 12.55 26.6 12.55 26.39 12.71 26.39 12.71 26.38 12.87 26.38 12.87 26.47 13.03 26.47 13.03 26.32 13.18 26.32 13.18 26.49 13.34 26.49 13.34 26.16 13.5 26.16 13.5 26.39 13.66 26.39 13.66 25.91 13.81 25.91 13.81 25.99 13.97 25.99 13.97 25.84 14.13 25.84 14.13 25.74 14.29 25.74 14.29 25.62 14.44 25.62 14.44 24.97 14.6 24.97 14.6 24.69 14.76 24.69 14.76 24.67 14.92 24.67 14.92 23.53 15.07 23.53 15.07 23.17 15.23 23.17 15.23 21.89 15.39 21.89 15.39 21.44 15.55 21.44 15.55 19.86 15.7 19.86 15.7 19.22 15.86 19.22 15.86 17.79 16.02 17.79 16.02 17 16.18 17 16.18 15.97 16.33 15.97 16.33 15.3 16.49 15.3 16.49 15.3 16.65 15.3 16.65 14.8 16.8 14.8 16.8 15.54 16.96 15.54 16.96 16.28 17.12 16.28 17.12 17.03 17.28 17.03 17.28 17.93 17.43 17.93 17.43 19.11 17.59 19.11 17.59 20.63 17.75 20.63 17.75 21.53 17.91 21.53 17.91 22.8 18.06 22.8 18.06 23.72 18.22 23.72 18.22 24.43 18.38 24.43 18.38 25.06 18.54 25.06 18.54 25.58 18.69 25.58 18.69 26.1 18.85 26.1 18.85 26.62 19.01 26.62 19.01 26.76 19.17 26.76 19.17 26.59 19.32 26.59 19.32 27.09 19.48 27.09 19.48 27.28 19.64 27.28 19.64 27.19 19.8 27.19 19.8 27.27 19.95 27.27 19.95 26.96 20.11 26.96 20.11 27.46 20.27 27.46 20.27 27.15 20.43 27.15 20.43 27.35 20.58 27.35 20.58 27.24 20.74 27.24 20.74 27.26 20.9 27.26 20.9 27.41 21.06 27.41 21.06 26.97 21.21 26.97 21.21 27.29 21.37 27.29 21.37 27.56 21.53 27.56 21.53 27.31 21.68 27.31 21.68 27.14 21.84 27.14 21.84 26.97 22 26.97 22 27.27 22.16 27.27 22.16 27.46 22.31 27.46 22.31 27.14 22.47 27.14 22.47 27.33 22.63 27.33 22.63 27.09 22.79 27.09 22.79 27.54 22.94 27.54 22.94 27.44 23.1 27.44 23.1 27.4 23.26 27.4 23.26 27.13 23.42 27.13 23.42 27.39 23.57 27.39 23.57 27.29 23.73 27.29 23.73 27.29 23.89 27.29 23.89 27.34 24.05 27.34 24.05 27.53 24.2 27.53 24.2 27.53 24.36 27.53 24.36 27.43 24.52 27.43 24.52 27.4 24.68 27.4 24.68 27.68 24.83 27.68 24.83 27.49 24.99 27.49 24.99 27.64 25.15 27.64 25.15 27.56 25.31 27.56 25.31 27.84 25.46 27.84 25.46 27.53 25.62 27.53 25.62 27.4 25.78 27.4 25.78 27.73 25.94 27.73 25.94 27.65 26.09 27.65 26.09 27.81 26.25 27.81 26.25 27.52 26.41 27.52 26.41 27.8 26.57 27.8 26.57 27.59 26.72 27.59 26.72 27.5 26.88 27.5 26.88 27.58 27.04 27.58 27.04 27.92 27.19 27.92 27.19 27.68 27.35 27.68 27.35 27.75 27.51 27.75 27.51 27.84 27.67 27.84 27.67 27.96 27.82 27.96 27.82 27.91 27.98 27.91 27.98 27.92 28.14 27.92 28.14 27.58 28.3 27.58 28.3 27.73 28.45 27.73 28.45 27.81 28.61 27.81 28.61 28.03 28.77 28.03 28.77 27.91 28.93 27.91 28.93 27.87 29.08 27.87 29.08 27.81 29.24 27.81 29.24 28.07 29.4 28.07 29.4 27.78 29.56 27.78 29.56 28.14 29.71 28.14 29.71 27.93 29.87 27.93 29.87 27.92 30.03 27.92 30.03 27.92 30.19 27.92 30.19 28.02 30.34 28.02 30.34 27.95 30.5 27.95 30.5 28.19 30.66 28.19 30.66 27.97 30.82 27.97 30.82 28 30.97 28 30.97 28.36 31.13 28.36 31.13 28.04 31.29 28.04 31.29 28.03 31.45 28.03 31.45 27.96 31.6 27.96 31.6 28.01 31.76 28.01 31.76 28.08 31.92 28.08 31.92 28.08 32.07 28.08 32.07 27.82 32.23 27.82 32.23 28.19 32.39 28.19 32.39 27.83 32.55 27.83 32.55 27.98 32.7 27.98 32.7 28.18 32.86 28.18 32.86 28.06 33.02 28.06 33.02 27.98 33.18 27.98 33.18 28.01 33.33 28.01 33.33 28.35 33.49 28.35 33.49 28.09 33.65 28.09 33.65 28.11 33.81 28.11 33.81 28.22 33.96 28.22 33.96 28.2 34.12 28.2 34.12 28.33 34.28 28.33 34.28 28.3 34.44 28.3 34.44 28.63 34.59 28.63 34.59 27.62 34.75 27.62 34.75 28.34 34.91 28.34 34.91 28.07 35.07 28.07 35.07 28.09 35.22 28.09 35.22 28.3 35.38 28.3 35.38 28.15 35.54 28.15 35.54 28.4 35.7 28.4 35.7 28.46 35.85 28.46 35.85 28.51 36.01 28.51 36.01 28.35 36.17 28.35 36.17 28.46 36.33 28.46 36.33 28.38 36.48 28.38 36.48 28.29 36.64 28.29 36.64 28.67 36.8 28.67 36.8 28.49 36.95 28.49 36.95 28.33 37.11 28.33 37.11 28.48 37.27 28.48 37.27 28.47 37.43 28.47 37.43 28.61 37.58 28.61 37.58 28.49 37.74 28.49 37.74 28.62 37.9 28.62 37.9 28.28 38.06 28.28 38.06 28.66 38.21 28.66 38.21 28.4 38.37 28.4 38.37 28.84 38.53 28.84 38.53 28.9 38.69 28.9 38.69 28.54 38.84 28.54 38.84 28.58 39 28.58 39 28.87 39.16 28.87 39.16 28.66 39.32 28.66 39.32 28.66 39.47 28.66 39.47 28.58 39.63 28.58 39.63 28.99 39.79 28.99 39.79 28.77 39.95 28.77 39.95 28.78 40.1 28.78 40.1 28.51 40.26 28.51 40.26 28.89 40.42 28.89 40.42 29.09 40.58 29.09 40.58 28.63 40.73 28.63 40.73 28.72 40.89 28.72 40.89 28.67 41.05 28.67 41.05 28.6 41.21 28.6 41.21 28.94 41.36 28.94 41.36 28.68 41.52 28.68 41.52 28.81 41.68 28.81 41.68 28.58 41.83 28.58 41.83 28.77 41.99 28.77 41.99 28.9 42.15 28.9 42.15 28.7 42.31 28.7 42.31 28.76 42.46 28.76 42.46 28.96 42.62 28.96 42.62 28.66 42.78 28.66 42.78 28.66 42.94 28.66 42.94 28.91 43.09 28.91 43.09 28.99 43.25 28.99 43.25 28.79 43.41 28.79 43.41 29.08 43.57 29.08 43.57 28.75 43.72 28.75 43.72 28.95 43.88 28.95 43.88 29 44.04 29 44.04 29.04 44.2 29.04 44.2 28.67 44.35 28.67 44.35 28.76 44.51 28.76 44.51 29.11 44.67 29.11 44.67 28.82 44.83 28.82 44.83 28.88 44.98 28.88 44.98 29.03 45.14 29.03 45.14 29.01 45.3 29.01 45.3 28.95 45.46 28.95 45.46 28.99 45.61 28.99 45.61 28.87 45.77 28.87 45.77 29.13 45.93 29.13 45.93 28.9 46.09 28.9 46.09 29 46.24 29 46.24 29.04 46.4 29.04 46.4 28.98 46.56 28.98 46.56 28.85 46.72 28.85 46.72 29 46.87 29 46.87 29.32 47.03 29.32 47.03 28.97 47.19 28.97 47.19 28.87 47.34 28.87 47.34 28.98 47.5 28.98 47.5 29.02 47.66 29.02 47.66 29.03 47.82 29.03 47.82 29.06 47.97 29.06 47.97 29.13 48.13 29.13 48.13 29.11 48.29 29.11 48.29 29.05 48.45 29.05 48.45 29.14 48.6 29.14 48.6 29.02 48.76 29.02 48.76 29.22 48.92 29.22 48.92 29.4 49.08 29.4 49.08 29.43 49.23 29.43 49.23 29.18 49.39 29.18 49.39 29.16 49.55 29.16 49.55 29.08 49.71 29.08 49.71 29.06 49.86 29.06 49.86 29.21 50.02 29.21 50.02 28.97 50.18 28.97 50.18 29.46 50.34 29.46 50.34 29.49 50.49 29.49 50.49 29.26 50.65 29.26 50.65 29.34 50.81 29.34 50.81 29.21 50.97 29.21 50.97 29.26 51.12 29.26 51.12 29.51 51.28 29.51 51.28 29.53 51.44 29.53 51.44 29.13 51.6 29.13 51.6 29.16 51.75 29.16 51.75 29.49 51.91 29.49 51.91 29.24 52.07 29.24 52.07 29.43 52.22 29.43 52.22 29.3 52.38 29.3 52.38 29.16 52.54 29.16 52.54 29.33 52.7 29.33 52.7 29.39 52.85 29.39 52.85 29.39 53.01 29.39 53.01 29.43 53.17 29.43 53.17 29.22 53.33 29.22 53.33 29.53 53.48 29.53 53.48 29.42 53.64 29.42 53.64 29.46 53.8 29.46 53.8 29.68 53.96 29.68 53.96 29.64 54.11 29.64 54.11 29.5 54.27 29.5 54.27 29.51 54.43 29.51 54.43 29.57 54.59 29.57 54.59 29.62 54.74 29.62 54.74 29.29 54.9 29.29 54.9 29.5 55.06 29.5 55.06 29.47 55.22 29.47 55.22 29.64 55.37 29.64 55.37 29.33 55.53 29.33 55.53 29.43 55.69 29.43 55.69 29.54 55.85 29.54 55.85 29.64 56 29.64 56 29.24 56.16 29.24 56.16 29.33 56.32 29.33 56.32 29.8 56.48 29.8 56.48 29.67 56.63 29.67 56.63 29.76 56.79 29.76 56.79 29.37 56.95 29.37 56.95 29.7 57.1 29.7 57.1 29.57 57.26 29.57 57.26 29.69 57.42 29.69 57.42 29.77 57.58 29.77 57.58 29.5 57.73 29.5 57.73 29.93 57.89 29.93 57.89 29.69 58.05 29.69 58.05 29.63 58.21 29.63 58.21 29.52 58.36 29.52 58.36 29.61 58.52 29.61 58.52 29.74 58.68 29.74 58.68 29.87 58.84 29.87 58.84 29.69 58.99 29.69 58.99 29.54 59.15 29.54 59.15 29.84 59.31 29.84 59.31 29.63 59.47 29.63 59.47 29.69 59.62 29.69 59.62 29.65 59.78 29.65 59.78 29.79 59.94 29.79 59.94 29.82 60.1 29.82 60.1 29.77 60.25 29.77 60.25 29.79 60.41 29.79 60.41 29.81 60.57 29.81 60.57 29.65 60.73 29.65 60.73 29.89 60.88 29.89 60.88 29.75 61.04 29.75 61.04 29.73 61.2 29.73 61.2 29.72 61.36 29.72 61.36 29.82 61.51 29.82 61.51 29.68 61.67 29.68 61.67 29.85 61.83 29.85 61.83 29.63 61.99 29.63 61.99 29.8 62.14 29.8 62.14 29.92 62.3 29.92 62.3 29.99 62.46 29.99 62.46 30.08 62.61 30.08 62.61 29.67 62.77 29.67 62.77 29.88 62.93 29.88 62.93 30.07 63.09 30.07 63.09 29.9 63.24 29.9 63.24 29.88 63.4 29.88 63.4 29.97 63.56 29.97 63.56 29.93 63.72 29.93 63.72 29.82 63.87 29.82 63.87 30.09 64.03 30.09 64.03 29.91 64.19 29.91 64.19 29.99 64.35 29.99 64.35 29.8 64.5 29.8 64.5 29.73 64.66 29.73 64.66 29.89 64.82 29.89 64.82 29.99 64.98 29.99 64.98 29.91 65.13 29.91 65.13 29.85 65.29 29.85 65.29 29.96 65.45 29.96 65.45 29.9 65.61 29.9 65.61 29.94 65.76 29.94 65.76 30.27 65.92 30.27 65.92 29.97 66.08 29.97 66.08 30.02 66.24 30.02 66.24 30.26 66.39 30.26 66.39 30.02 66.55 30.02 66.55 30.01 66.71 30.01 66.71 29.92 66.87 29.92 66.87 30.12 67.02 30.12 67.02 29.94 67.18 29.94 67.18 30.21 67.34 30.21 67.34 29.95 67.49 29.95 67.49 30.16 67.65 30.16 67.65 30.01 67.81 30.01 67.81 30.02 67.97 30.02 67.97 29.9 68.12 29.9 68.12 30.05 68.28 30.05 68.28 30.08 68.44 30.08 68.44 30.23 68.6 30.23 68.6 30.23 68.75 30.23 68.75 30.03 68.91 30.03 68.91 30.11 69.07 30.11 69.07 30.05 69.23 30.05 69.23 30.17 69.38 30.17 69.38 30.17 69.54 30.17 69.54 30.28 69.7 30.28 69.7 30.16 69.86 30.16 69.86 29.91 70.01 29.91 70.01 29.97 70.17 29.97 70.17 30.24 70.33 30.24 70.33 30.07 70.49 30.07 70.49 30.27 70.64 30.27 70.64 30.17 70.8 30.17 70.8 30.22 70.96 30.22 70.96 30.43 71.12 30.43 71.12 30.14 71.27 30.14 71.27 30.05 71.43 30.05 71.43 30.14 71.59 30.14 71.59 30.21 71.75 30.21 71.75 30.03 71.9 30.03 71.9 30.33 72.06 30.33 72.06 30.05 72.22 30.05 72.22 30.14 72.37 30.14 72.37 30.35 72.53 30.35 72.53 30.21 72.69 30.21 72.69 30.22 72.85 30.22 72.85 30.36 73 30.36 73 30.14 73.16 30.14 73.16 30.25 73.32 30.25 73.32 30.35 73.48 30.35 73.48 30.41 73.63 30.41 73.63 30.33 73.79 30.33 73.79 30.35 73.95 30.35 73.95 30.44 74.11 30.44 74.11 30.37 74.26 30.37 74.26 30.45 74.42 30.45 74.42 30.34 74.58 30.34 74.58 30.49 74.74 30.49 74.74 30.37 74.89 30.37 74.89 30.5 75.05 30.5 75.05 30.36 75.21 30.36 75.21 30.29 75.37 30.29 75.37 30.42 75.52 30.42 75.52 30.43 75.68 30.43 75.68 30.6 75.84 30.6 75.84 30.34 76 30.34 76 30.59 76.15 30.59 76.15 30.23 76.31 30.23 76.31 30.59 76.47 30.59 76.47 30.62 76.63 30.62 76.63 30.34 76.78 30.34 76.78 30.52 76.94 30.52 76.94 30.52 77.1 30.52 77.1 30.43 77.25 30.43 77.25 30.52 77.41 30.52 77.41 30.48 77.57 30.48 77.57 30.54 77.73 30.54 77.73 30.63 77.88 30.63 77.88 30.57 78.04 30.57 78.04 30.35 78.2 30.35 78.2 30.74 78.36 30.74 78.36 30.5 78.51 30.5 78.51 30.57 78.67 30.57 78.67 30.59 78.83 30.59 78.83 30.49 78.99 30.49 78.99 30.52 79.14 30.52 79.14 30.65 79.3 30.65 79.3 30.46 79.46 30.46 79.46 30.5 79.62 30.5 79.62 30.53 79.77 30.53 79.77 30.47 79.93 30.47 79.93 30.64 80.09 30.64 80.09 30.65 80.25 30.65 80.25 30.76 80.4 30.76 80.4 30.59 80.56 30.59 80.56 30.58 80.72 30.58 80.72 30.71 80.88 30.71 80.88 30.69 81.03 30.69 81.03 30.72 81.19 30.72 81.19 30.65 81.35 30.65 81.35 30.6 81.51 30.6 81.51 30.58 81.66 30.58 81.66 30.47 81.82 30.47 81.82 30.72 81.98 30.72 81.98 30.64 82.14 30.64 82.14 30.8 82.29 30.8 82.29 30.67 82.45 30.67 82.45 30.69 82.61 30.69 82.61 30.75 82.76 30.75 82.76 30.61 82.92 30.61 82.92 30.82 83.08 30.82 83.08 30.54 83.24 30.54 83.24 30.59 83.39 30.59 83.39 30.7 83.55 30.7 83.55 30.83 83.71 30.83 83.71 30.82 83.87 30.82 83.87 30.69 84.02 30.69 84.02 30.88 84.18 30.88 84.18 30.71 84.34 30.71 84.34 30.74 84.5 30.74 84.5 30.75 84.65 30.75 84.65 30.72 84.81 30.72 84.81 30.88 84.97 30.88 84.97 30.78 85.13 30.78 85.13 30.7 85.28 30.7 85.28 30.73 85.44 30.73 85.44 30.79 85.6 30.79 85.6 30.78 85.76 30.78 85.76 30.84 85.91 30.84 85.91 30.79 86.07 30.79 86.07 30.78 86.23 30.78 86.23 30.65 86.39 30.65 86.39 30.65 86.54 30.65 86.54 30.89 86.7 30.89 86.7 30.74 86.86 30.74 86.86 30.78 87.02 30.78 87.02 30.88 87.17 30.88 87.17 30.72 87.33 30.72 87.33 30.92 87.49 30.92 87.49 30.86 87.64 30.86 87.64 30.95 87.8 30.95 87.8 30.9 87.96 30.9 87.96 30.95 88.12 30.95 88.12 30.75 88.27 30.75 88.27 30.92 88.43 30.92 88.43 30.93 88.59 30.93 88.59 30.95 88.75 30.95 88.75 30.91 88.9 30.91 88.9 30.91 89.06 30.91 89.06 30.84 89.22 30.84 89.22 30.77 89.38 30.77 89.38 30.84 89.53 30.84 89.53 31.06 89.69 31.06 89.69 30.98 89.85 30.98 89.85 30.95 90.01 30.95 90.01 30.95 90.16 30.95 90.16 30.96 90.32 30.96 90.32 30.98 90.48 30.98 90.48 30.99 90.64 30.99 90.64 31.08 90.79 31.08 90.79 30.79 90.95 30.79 90.95 30.96 91.11 30.96 91.11 30.8 91.27 30.8 91.27 30.83 91.42 30.83 91.42 31.04 91.58 31.04 91.58 31.03 91.74 31.03 91.74 30.93 91.9 30.93 91.9 30.96 92.05 30.96 92.05 31.12 92.21 31.12 92.21 31.09 92.37 31.09 92.37 31.03 92.52 31.03 92.52 31.07 92.68 31.07 92.68 31.1 92.84 31.1 92.84 31.11 93 31.11 93 31.09 93.15 31.09 93.15 31.07 93.31 31.07 93.31 31.08 93.47 31.08 93.47 31 93.63 31 93.63 30.93 93.78 30.93 93.78 31.08 93.94 31.08 93.94 31.15 94.1 31.15 94.1 31.03 94.26 31.03 94.26 30.93 94.41 30.93 94.41 31.19" class="primitive"/>
            </g>
          </g>
        </g>
      </g>
    </g>
  </g>
  <g class="guide ylabels" font-size="2.82" font-family="'PT Sans Caption','Helvetica Neue','Helvetica',sans-serif" fill="#6C606B" id="img-7b0ffd7b-38">
    <g transform="translate(17.03,59.87)" id="img-7b0ffd7b-39">
      <g class="primitive">
        <text text-anchor="end" dy="0.35em">0</text>
      </g>
    </g>
    <g transform="translate(17.03,35.3)" id="img-7b0ffd7b-40">
      <g class="primitive">
        <text text-anchor="end" dy="0.35em">5000</text>
      </g>
    </g>
    <g transform="translate(17.03,10.73)" id="img-7b0ffd7b-41">
      <g class="primitive">
        <text text-anchor="end" dy="0.35em">10000</text>
      </g>
    </g>
  </g>
  <g font-size="3.18" font-family="'PT Sans','Helvetica Neue','Helvetica',sans-serif" fill="#202020" stroke="#000000" stroke-opacity="0.000" id="img-7b0ffd7b-42">
    <g transform="translate(4.18,29.29)" id="img-7b0ffd7b-43">
      <g class="primitive">
        <text text-anchor="middle" dy="0.35em" transform="rotate(-90,0, 2)">Counts</text>
      </g>
    </g>
  </g>
</g>
<defs>
  <clipPath id="img-7b0ffd7b-15">
    <path d="M18.03,0.71 L 210.96 0.71 210.96 61.87 18.03 61.87" />
  </clipPath>
</defs>
</svg>
