<?xml version="1.0" encoding="UTF-8"?>
<svg xmlns="http://www.w3.org/2000/svg"
     xmlns:xlink="http://www.w3.org/1999/xlink"
     xmlns:gadfly="http://www.gadflyjl.org/ns"
     version="1.2"
     width="254mm" height="76.2mm" viewBox="0 0 254 76.2"
     stroke="none"
     fill="#000000"
     stroke-width="0.3"
     font-size="3.88"
>
<defs>
  <marker id="arrow" markerWidth="15" markerHeight="7" refX="5" refY="3.5" orient="auto" markerUnits="strokeWidth">
    <path d="M0,0 L15,3.5 L0,7 z" stroke="context-stroke" fill="context-stroke"/>
  </marker>
</defs>
<g class="plotroot xscalable yscalable" id="img-5c2ac47c-1">
  <g font-size="3.18" font-family="'PT Sans','Helvetica Neue','Helvetica',sans-serif" fill="#202020" stroke="#000000" stroke-opacity="0.000" id="img-5c2ac47c-2">
    <g transform="translate(135.66,69.54)">
      <g class="primitive">
        <text text-anchor="middle" dy="0.6em">Energy (eV)</text>
      </g>
    </g>
  </g>
  <g class="guide xlabels" font-size="2.82" font-family="'PT Sans Caption','Helvetica Neue','Helvetica',sans-serif" fill="#6C606B" id="img-5c2ac47c-3">
    <g transform="translate(20.03,62.87)">
      <g class="primitive">
        <text text-anchor="middle" dy="0.6em">0</text>
      </g>
    </g>
    <g transform="translate(77.84,62.87)">
      <g class="primitive">
        <text text-anchor="middle" dy="0.6em">2000</text>
      </g>
    </g>
    <g transform="translate(135.66,62.87)">
      <g class="primitive">
        <text text-anchor="middle" dy="0.6em">4000</text>
      </g>
    </g>
    <g transform="translate(193.48,62.87)">
      <g class="primitive">
        <text text-anchor="middle" dy="0.6em">6000</text>
      </g>
    </g>
    <g transform="translate(251.29,62.87)">
      <g class="primitive">
        <text text-anchor="middle" dy="0.6em">8000</text>
      </g>
    </g>
  </g>
  <g clip-path="url(#img-5c2ac47c-4)">
    <g id="img-5c2ac47c-5">
      <g pointer-events="visible" stroke-width="0.3" fill="#FDFDF1" stroke="#202020" class="guide background" id="img-5c2ac47c-6">
        <g transform="translate(135.66,31.29)" id="img-5c2ac47c-7">
          <path d="M-117.63,-30.58 L117.63,-30.58 117.63,30.58 -117.63,30.58  z" class="primitive"/>
        </g>
      </g>
      <g class="guide ygridlines xfixed" stroke-dasharray="none" stroke-width="0.2" stroke="#FFDFDF" id="img-5c2ac47c-8">
        <g transform="translate(135.66,59.87)" id="img-5c2ac47c-9">
          <path fill="none" d="M-117.63,0 L117.63,0 " class="primitive"/>
        </g>
        <g transform="translate(135.66,44.7)" id="img-5c2ac47c-10">
          <path fill="none" d="M-117.63,0 L117.63,0 " class="primitive"/>
        </g>
        <g transform="translate(135.66,29.54)" id="img-5c2ac47c-11">
          <path fill="none" d="M-117.63,0 L117.63,0 " class="primitive"/>
        </g>
        <g transform="translate(135.66,14.38)" id="img-5c2ac47c-12">
          <path fill="none" d="M-117.63,0 L117.63,0 " class="primitive"/>
        </g>
      </g>
      <g class="guide xgridlines yfixed" stroke-dasharray="none" stroke-width="0.2" stroke="#FFDFDF" id="img-5c2ac47c-13">
        <g transform="translate(20.03,31.29)" id="img-5c2ac47c-14">
          <path fill="none" d="M0,-30.58 L0,30.58 " class="primitive"/>
        </g>
        <g transform="translate(77.84,31.29)" id="img-5c2ac47c-15">
          <path fill="none" d="M0,-30.58 L0,30.58 " class="primitive"/>
        </g>
        <g transform="translate(135.66,31.29)" id="img-5c2ac47c-16">
          <path fill="none" d="M0,-30.58 L0,30.58 " class="primitive"/>
        </g>
        <g transform="translate(193.48,31.29)" id="img-5c2ac47c-17">
          <path fill="none" d="M0,-30.58 L0,30.58 " class="primitive"/>
        </g>
        <g transform="translate(251.29,31.29)" id="img-5c2ac47c-18">
          <path fill="none" d="M0,-30.58 L0,30.58 " class="primitive"/>
        </g>
      </g>
      <g class="plotpanel" id="img-5c2ac47c-19">
        <metadata>
          <boundingbox value="18.027222222222242mm 0.7055555555555555mm 235.26722222222224mm 61.16055555555556mm"/>
          <unitbox value="-69.18403674441063 39016.679923315416 8138.368073488822 -40335.689846630834"/>
        </metadata>
        <g stroke-width="0.3" fill="#000000" fill-opacity="0.000" class="geometry" id="img-5c2ac47c-20">
          <g class="color_RGB{N0f8}(0.718,0.0,0.008)" stroke-dasharray="none" stroke-opacity="1" stroke="#B70002" id="img-5c2ac47c-21">
            <g transform="translate(135.62,43.72)" id="img-5c2ac47c-22">
              <path fill="none" d="M-115.54,16.14 L-115.26,16.14 -115.26,16.14 -114.97,16.14 -114.97,16.14 -114.68,16.14 -114.68,16.14 -114.39,16.14 -114.39,16.14 -114.1,16.14 -114.1,16.14 -113.81,16.14 -113.81,16.14 -113.52,16.14 -113.52,16.14 -113.23,16.14 -113.23,16.14 -112.94,16.14 -112.94,16.14 -112.65,16.14 -112.65,16.14 -112.37,16.14 -112.37,16.14 -112.08,16.14 -112.08,16.14 -111.79,16.14 -111.79,16.14 -111.5,16.14 -111.5,16.14 -111.21,16.14 -111.21,16.14 -110.92,16.14 -110.92,16.14 -110.63,16.14 -110.63,16.14 -110.34,16.14 -110.34,16.14 -110.05,16.14 -110.05,16.14 -109.76,16.14 -109.76,16.14 -109.47,16.14 -109.47,16.14 -109.19,16.14 -109.19,16.14 -108.9,16.14 -108.9,16.12 -108.61,16.12 -108.61,16.07 -108.32,16.07 -108.32,15.94 -108.03,15.94 -108.03,15.66 -107.74,15.66 -107.74,15.11 -107.45,15.11 -107.45,14.18 -107.16,14.18 -107.16,12.81 -106.87,12.81 -106.87,11.02 -106.58,11.02 -106.58,8.95 -106.3,8.95 -106.3,6.78 -106.01,6.78 -106.01,4.72 -105.72,4.72 -105.72,2.93 -105.43,2.93 -105.43,1.52 -105.14,1.52 -105.14,0.55 -104.85,0.55 -104.85,-0.01 -104.56,-0.01 -104.56,-0.26 -104.27,-0.26 -104.27,-0.37 -103.98,-0.37 -103.98,-0.58 -103.69,-0.58 -103.69,-1.05 -103.4,-1.05 -103.4,-1.87 -103.12,-1.87 -103.12,-3.02 -102.83,-3.02 -102.83,-4.39 -102.54,-4.39 -102.54,-5.87 -102.25,-5.87 -102.25,-7.33 -101.96,-7.33 -101.96,-8.66 -101.67,-8.66 -101.67,-9.71 -101.38,-9.71 -101.38,-10.32 -101.09,-10.32 -101.09,-10.3 -100.8,-10.3 -100.8,-9.58 -100.51,-9.58 -100.51,-8.19 -100.23,-8.19 -100.23,-6.33 -99.94,-6.33 -99.94,-4.36 -99.65,-4.36 -99.65,-2.61 -99.36,-2.61 -99.36,-1.33 -99.07,-1.33 -99.07,-0.62 -98.78,-0.62 -98.78,-0.42 -98.49,-0.42 -98.49,-0.57 -98.2,-0.57 -98.2,-0.91 -97.91,-0.91 -97.91,-1.29 -97.62,-1.29 -97.62,-1.59 -97.33,-1.59 -97.33,-1.72 -97.05,-1.72 -97.05,-1.62 -96.76,-1.62 -96.76,-1.3 -96.47,-1.3 -96.47,-0.8 -96.18,-0.8 -96.18,-0.24 -95.89,-0.24 -95.89,0.25 -95.6,0.25 -95.6,0.57 -95.31,0.57 -95.31,0.67 -95.02,0.67 -95.02,0.56 -94.73,0.56 -94.73,0.28 -94.44,0.28 -94.44,-0.1 -94.16,-0.1 -94.16,-0.55 -93.87,-0.55 -93.87,-1.03 -93.58,-1.03 -93.58,-1.52 -93.29,-1.52 -93.29,-2.01 -93,-2.01 -93,-2.5 -92.71,-2.5 -92.71,-2.99 -92.42,-2.99 -92.42,-3.48 -92.13,-3.48 -92.13,-3.96 -91.84,-3.96 -91.84,-4.45 -91.55,-4.45 -91.55,-4.94 -91.27,-4.94 -91.27,-5.43 -90.98,-5.43 -90.98,-5.91 -90.69,-5.91 -90.69,-6.4 -90.4,-6.4 -90.4,-6.88 -90.11,-6.88 -90.11,-7.36 -89.82,-7.36 -89.82,-7.85 -89.53,-7.85 -89.53,-8.33 -89.24,-8.33 -89.24,-8.8 -88.95,-8.8 -88.95,-9.28 -88.66,-9.28 -88.66,-9.75 -88.37,-9.75 -88.37,-10.21 -88.09,-10.21 -88.09,-10.68 -87.8,-10.68 -87.8,-11.14 -87.51,-11.14 -87.51,-11.6 -87.22,-11.6 -87.22,-12.06 -86.93,-12.06 -86.93,-12.51 -86.64,-12.51 -86.64,-12.97 -86.35,-12.97 -86.35,-13.41 -86.06,-13.41 -86.06,-13.86 -85.77,-13.86 -85.77,-14.3 -85.48,-14.3 -85.48,-14.73 -85.2,-14.73 -85.2,-15.16 -84.91,-15.16 -84.91,-15.57 -84.62,-15.57 -84.62,-15.98 -84.33,-15.98 -84.33,-16.38 -84.04,-16.38 -84.04,-16.76 -83.75,-16.76 -83.75,-17.14 -83.46,-17.14 -83.46,-17.51 -83.17,-17.51 -83.17,-17.86 -82.88,-17.86 -82.88,-18.21 -82.59,-18.21 -82.59,-18.55 -82.3,-18.55 -82.3,-18.88 -82.02,-18.88 -82.02,-19.2 -81.73,-19.2 -81.73,-19.51 -81.44,-19.51 -81.44,-19.81 -81.15,-19.81 -81.15,-20.1 -80.86,-20.1 -80.86,-20.37 -80.57,-20.37 -80.57,-20.64 -80.28,-20.64 -80.28,-20.9 -79.99,-20.9 -79.99,-21.14 -79.7,-21.14 -79.7,-21.38 -79.41,-21.38 -79.41,-21.6 -79.13,-21.6 -79.13,-21.82 -78.84,-21.82 -78.84,-22.03 -78.55,-22.03 -78.55,-22.23 -78.26,-22.23 -78.26,-22.41 -77.97,-22.41 -77.97,-22.59 -77.68,-22.59 -77.68,-22.77 -77.39,-22.77 -77.39,-22.93 -77.1,-22.93 -77.1,-23.08 -76.81,-23.08 -76.81,-23.23 -76.52,-23.23 -76.52,-23.37 -76.23,-23.37 -76.23,-23.5 -75.95,-23.5 -75.95,-23.62 -75.66,-23.62 -75.66,-23.73 -75.37,-23.73 -75.37,-23.84 -75.08,-23.84 -75.08,-23.94 -74.79,-23.94 -74.79,-24.03 -74.5,-24.03 -74.5,-24.12 -74.21,-24.12 -74.21,-24.19 -73.92,-24.19 -73.92,-24.26 -73.63,-24.26 -73.63,-24.31 -73.34,-24.31 -73.34,-24.34 -73.06,-24.34 -73.06,-24.33 -72.77,-24.33 -72.77,-24.24 -72.48,-24.24 -72.48,-24.03 -72.19,-24.03 -72.19,-23.64 -71.9,-23.64 -71.9,-22.97 -71.61,-22.97 -71.61,-21.95 -71.32,-21.95 -71.32,-20.53 -71.03,-20.53 -71.03,-18.7 -70.74,-18.7 -70.74,-16.54 -70.45,-16.54 -70.45,-14.18 -70.16,-14.18 -70.16,-11.8 -69.88,-11.8 -69.88,-9.57 -69.59,-9.57 -69.59,-7.66 -69.3,-7.66 -69.3,-6.15 -69.01,-6.15 -69.01,-5.06 -68.72,-5.06 -68.72,-4.34 -68.43,-4.34 -68.43,-3.91 -68.14,-3.91 -68.14,-3.7 -67.85,-3.7 -67.85,-3.63 -67.56,-3.63 -67.56,-3.64 -67.27,-3.64 -67.27,-3.69 -66.99,-3.69 -66.99,-3.77 -66.7,-3.77 -66.7,-3.85 -66.41,-3.85 -66.41,-3.95 -66.12,-3.95 -66.12,-4.05 -65.83,-4.05 -65.83,-4.15 -65.54,-4.15 -65.54,-4.25 -65.25,-4.25 -65.25,-4.36 -64.96,-4.36 -64.96,-4.46 -64.67,-4.46 -64.67,-4.57 -64.38,-4.57 -64.38,-4.66 -64.1,-4.66 -64.1,-4.76 -63.81,-4.76 -63.81,-4.84 -63.52,-4.84 -63.52,-4.92 -63.23,-4.92 -63.23,-4.99 -62.94,-4.99 -62.94,-5.05 -62.65,-5.05 -62.65,-5.1 -62.36,-5.1 -62.36,-5.15 -62.07,-5.15 -62.07,-5.2 -61.78,-5.2 -61.78,-5.25 -61.49,-5.25 -61.49,-5.31 -61.2,-5.31 -61.2,-5.37 -60.92,-5.37 -60.92,-5.44 -60.63,-5.44 -60.63,-5.52 -60.34,-5.52 -60.34,-5.6 -60.05,-5.6 -60.05,-5.68 -59.76,-5.68 -59.76,-5.76 -59.47,-5.76 -59.47,-5.84 -59.18,-5.84 -59.18,-5.92 -58.89,-5.92 -58.89,-6 -58.6,-6 -58.6,-6.08 -58.31,-6.08 -58.31,-6.16 -58.03,-6.16 -58.03,-6.23 -57.74,-6.23 -57.74,-6.3 -57.45,-6.3 -57.45,-6.37 -57.16,-6.37 -57.16,-6.44 -56.87,-6.44 -56.87,-6.51 -56.58,-6.51 -56.58,-6.57 -56.29,-6.57 -56.29,-6.63 -56,-6.63 -56,-6.69 -55.71,-6.69 -55.71,-6.74 -55.42,-6.74 -55.42,-6.8 -55.13,-6.8 -55.13,-6.85 -54.85,-6.85 -54.85,-6.9 -54.56,-6.9 -54.56,-6.94 -54.27,-6.94 -54.27,-6.99 -53.98,-6.99 -53.98,-7.03 -53.69,-7.03 -53.69,-7.07 -53.4,-7.07 -53.4,-7.1 -53.11,-7.1 -53.11,-7.14 -52.82,-7.14 -52.82,-7.17 -52.53,-7.17 -52.53,-7.2 -52.24,-7.2 -52.24,-7.23 -51.96,-7.23 -51.96,-7.26 -51.67,-7.26 -51.67,-7.29 -51.38,-7.29 -51.38,-7.31 -51.09,-7.31 -51.09,-7.34 -50.8,-7.34 -50.8,-7.36 -50.51,-7.36 -50.51,-7.38 -50.22,-7.38 -50.22,-7.4 -49.93,-7.4 -49.93,-7.41 -49.64,-7.41 -49.64,-7.43 -49.35,-7.43 -49.35,-7.44 -49.06,-7.44 -49.06,-7.45 -48.78,-7.45 -48.78,-7.46 -48.49,-7.46 -48.49,-7.47 -48.2,-7.47 -48.2,-7.48 -47.91,-7.48 -47.91,-7.49 -47.62,-7.49 -47.62,-7.49 -47.33,-7.49 -47.33,-7.5 -47.04,-7.5 -47.04,-7.5 -46.75,-7.5 -46.75,-7.5 -46.46,-7.5 -46.46,-7.5 -46.17,-7.5 -46.17,-7.5 -45.89,-7.5 -45.89,-7.49 -45.6,-7.49 -45.6,-7.49 -45.31,-7.49 -45.31,-7.49 -45.02,-7.49 -45.02,-7.48 -44.73,-7.48 -44.73,-7.47 -44.44,-7.47 -44.44,-7.46 -44.15,-7.46 -44.15,-7.45 -43.86,-7.45 -43.86,-7.44 -43.57,-7.44 -43.57,-7.43 -43.28,-7.43 -43.28,-7.42 -43,-7.42 -43,-7.4 -42.71,-7.4 -42.71,-7.39 -42.42,-7.39 -42.42,-7.37 -42.13,-7.37 -42.13,-7.36 -41.84,-7.36 -41.84,-7.34 -41.55,-7.34 -41.55,-7.32 -41.26,-7.32 -41.26,-7.3 -40.97,-7.3 -40.97,-7.28 -40.68,-7.28 -40.68,-7.26 -40.39,-7.26 -40.39,-7.24 -40.1,-7.24 -40.1,-7.22 -39.82,-7.22 -39.82,-7.19 -39.53,-7.19 -39.53,-7.17 -39.24,-7.17 -39.24,-7.15 -38.95,-7.15 -38.95,-7.12 -38.66,-7.12 -38.66,-7.09 -38.37,-7.09 -38.37,-7.07 -38.08,-7.07 -38.08,-7.04 -37.79,-7.04 -37.79,-7.01 -37.5,-7.01 -37.5,-6.98 -37.21,-6.98 -37.21,-6.95 -36.93,-6.95 -36.93,-6.92 -36.64,-6.92 -36.64,-6.89 -36.35,-6.89 -36.35,-6.86 -36.06,-6.86 -36.06,-6.83 -35.77,-6.83 -35.77,-6.8 -35.48,-6.8 -35.48,-6.77 -35.19,-6.77 -35.19,-6.73 -34.9,-6.73 -34.9,-6.7 -34.61,-6.7 -34.61,-6.66 -34.32,-6.66 -34.32,-6.63 -34.03,-6.63 -34.03,-6.59 -33.75,-6.59 -33.75,-6.56 -33.46,-6.56 -33.46,-6.52 -33.17,-6.52 -33.17,-6.48 -32.88,-6.48 -32.88,-6.45 -32.59,-6.45 -32.59,-6.41 -32.3,-6.41 -32.3,-6.37 -32.01,-6.37 -32.01,-6.33 -31.72,-6.33 -31.72,-6.3 -31.43,-6.3 -31.43,-6.26 -31.14,-6.26 -31.14,-6.22 -30.86,-6.22 -30.86,-6.18 -30.57,-6.18 -30.57,-6.14 -30.28,-6.14 -30.28,-6.1 -29.99,-6.1 -29.99,-6.06 -29.7,-6.06 -29.7,-6.02 -29.41,-6.02 -29.41,-5.98 -29.12,-5.98 -29.12,-5.94 -28.83,-5.94 -28.83,-5.89 -28.54,-5.89 -28.54,-5.85 -28.25,-5.85 -28.25,-5.81 -27.96,-5.81 -27.96,-5.77 -27.68,-5.77 -27.68,-5.73 -27.39,-5.73 -27.39,-5.68 -27.1,-5.68 -27.1,-5.64 -26.81,-5.64 -26.81,-5.6 -26.52,-5.6 -26.52,-5.55 -26.23,-5.55 -26.23,-5.51 -25.94,-5.51 -25.94,-5.47 -25.65,-5.47 -25.65,-5.42 -25.36,-5.42 -25.36,-5.38 -25.07,-5.38 -25.07,-5.34 -24.79,-5.34 -24.79,-5.29 -24.5,-5.29 -24.5,-5.25 -24.21,-5.25 -24.21,-5.21 -23.92,-5.21 -23.92,-5.16 -23.63,-5.16 -23.63,-5.12 -23.34,-5.12 -23.34,-5.07 -23.05,-5.07 -23.05,-5.03 -22.76,-5.03 -22.76,-4.98 -22.47,-4.98 -22.47,-4.94 -22.18,-4.94 -22.18,-4.89 -21.89,-4.89 -21.89,-4.85 -21.61,-4.85 -21.61,-4.8 -21.32,-4.8 -21.32,-4.76 -21.03,-4.76 -21.03,-4.71 -20.74,-4.71 -20.74,-4.67 -20.45,-4.67 -20.45,-4.62 -20.16,-4.62 -20.16,-4.57 -19.87,-4.57 -19.87,-4.53 -19.58,-4.53 -19.58,-4.48 -19.29,-4.48 -19.29,-4.43 -19,-4.43 -19,-4.39 -18.72,-4.39 -18.72,-4.34 -18.43,-4.34 -18.43,-4.29 -18.14,-4.29 -18.14,-4.25 -17.85,-4.25 -17.85,-4.2 -17.56,-4.2 -17.56,-4.15 -17.27,-4.15 -17.27,-4.1 -16.98,-4.1 -16.98,-4.06 -16.69,-4.06 -16.69,-4.01 -16.4,-4.01 -16.4,-3.96 -16.11,-3.96 -16.11,-3.91 -15.83,-3.91 -15.83,-3.87 -15.54,-3.87 -15.54,-3.82 -15.25,-3.82 -15.25,-3.77 -14.96,-3.77 -14.96,-3.72 -14.67,-3.72 -14.67,-3.67 -14.38,-3.67 -14.38,-3.63 -14.09,-3.63 -14.09,-3.58 -13.8,-3.58 -13.8,-3.53 -13.51,-3.53 -13.51,-3.48 -13.22,-3.48 -13.22,-3.43 -12.93,-3.43 -12.93,-3.38 -12.65,-3.38 -12.65,-3.34 -12.36,-3.34 -12.36,-3.29 -12.07,-3.29 -12.07,-3.24 -11.78,-3.24 -11.78,-3.19 -11.49,-3.19 -11.49,-3.14 -11.2,-3.14 -11.2,-3.1 -10.91,-3.1 -10.91,-3.05 -10.62,-3.05 -10.62,-3 -10.33,-3 -10.33,-2.95 -10.04,-2.95 -10.04,-2.9 -9.76,-2.9 -9.76,-2.85 -9.47,-2.85 -9.47,-2.81 -9.18,-2.81 -9.18,-2.76 -8.89,-2.76 -8.89,-2.71 -8.6,-2.71 -8.6,-2.66 -8.31,-2.66 -8.31,-2.61 -8.02,-2.61 -8.02,-2.56 -7.73,-2.56 -7.73,-2.52 -7.44,-2.52 -7.44,-2.47 -7.15,-2.47 -7.15,-2.42 -6.86,-2.42 -6.86,-2.37 -6.58,-2.37 -6.58,-2.32 -6.29,-2.32 -6.29,-2.28 -6,-2.28 -6,-2.23 -5.71,-2.23 -5.71,-2.18 -5.42,-2.18 -5.42,-2.13 -5.13,-2.13 -5.13,-2.08 -4.84,-2.08 -4.84,-2.04 -4.55,-2.04 -4.55,-1.99 -4.26,-1.99 -4.26,-1.94 -3.97,-1.94 -3.97,-1.89 -3.69,-1.89 -3.69,-1.85 -3.4,-1.85 -3.4,-1.8 -3.11,-1.8 -3.11,-1.75 -2.82,-1.75 -2.82,-1.7 -2.53,-1.7 -2.53,-1.66 -2.24,-1.66 -2.24,-1.61 -1.95,-1.61 -1.95,-1.56 -1.66,-1.56 -1.66,-1.51 -1.37,-1.51 -1.37,-1.47 -1.08,-1.47 -1.08,-1.42 -0.79,-1.42 -0.79,-1.37 -0.51,-1.37 -0.51,-1.33 -0.22,-1.33 -0.22,-1.28 0.07,-1.28 0.07,-1.23 0.36,-1.23 0.36,-1.19 0.65,-1.19 0.65,-1.14 0.94,-1.14 0.94,-1.09 1.23,-1.09 1.23,-1.05 1.52,-1.05 1.52,-1 1.81,-1 1.81,-0.95 2.1,-0.95 2.1,-0.91 2.38,-0.91 2.38,-0.86 2.67,-0.86 2.67,-0.82 2.96,-0.82 2.96,-0.77 3.25,-0.77 3.25,-0.73 3.54,-0.73 3.54,-0.68 3.83,-0.68 3.83,-0.63 4.12,-0.63 4.12,-0.59 4.41,-0.59 4.41,-0.54 4.7,-0.54 4.7,-0.5 4.99,-0.5 4.99,-0.45 5.28,-0.45 5.28,-0.41 5.56,-0.41 5.56,-0.36 5.85,-0.36 5.85,-0.32 6.14,-0.32 6.14,-0.27 6.43,-0.27 6.43,-0.23 6.72,-0.23 6.72,-0.18 7.01,-0.18 7.01,-0.14 7.3,-0.14 7.3,-0.09 7.59,-0.09 7.59,-0.05 7.88,-0.05 7.88,-0 8.17,-0 8.17,0.04 8.45,0.04 8.45,0.08 8.74,0.08 8.74,0.13 9.03,0.13 9.03,0.17 9.32,0.17 9.32,0.22 9.61,0.22 9.61,0.26 9.9,0.26 9.9,0.3 10.19,0.3 10.19,0.35 10.48,0.35 10.48,0.39 10.77,0.39 10.77,0.43 11.06,0.43 11.06,0.48 11.34,0.48 11.34,0.52 11.63,0.52 11.63,0.56 11.92,0.56 11.92,0.6 12.21,0.6 12.21,0.65 12.5,0.65 12.5,0.69 12.79,0.69 12.79,0.73 13.08,0.73 13.08,0.78 13.37,0.78 13.37,0.82 13.66,0.82 13.66,0.86 13.95,0.86 13.95,0.9 14.24,0.9 14.24,0.94 14.52,0.94 14.52,0.99 14.81,0.99 14.81,1.03 15.1,1.03 15.1,1.07 15.39,1.07 15.39,1.11 15.68,1.11 15.68,1.15 15.97,1.15 15.97,1.19 16.26,1.19 16.26,1.24 16.55,1.24 16.55,1.28 16.84,1.28 16.84,1.32 17.13,1.32 17.13,1.36 17.41,1.36 17.41,1.4 17.7,1.4 17.7,1.44 17.99,1.44 17.99,1.48 18.28,1.48 18.28,1.52 18.57,1.52 18.57,1.56 18.86,1.56 18.86,1.6 19.15,1.6 19.15,1.64 19.44,1.64 19.44,1.68 19.73,1.68 19.73,1.72 20.02,1.72 20.02,1.76 20.31,1.76 20.31,1.8 20.59,1.8 20.59,1.84 20.88,1.84 20.88,1.88 21.17,1.88 21.17,1.92 21.46,1.92 21.46,1.96 21.75,1.96 21.75,2 22.04,2 22.04,2.04 22.33,2.04 22.33,2.08 22.62,2.08 22.62,2.12 22.91,2.12 22.91,2.15 23.2,2.15 23.2,2.19 23.48,2.19 23.48,2.23 23.77,2.23 23.77,2.27 24.06,2.27 24.06,2.31 24.35,2.31 24.35,2.35 24.64,2.35 24.64,2.39 24.93,2.39 24.93,2.42 25.22,2.42 25.22,2.46 25.51,2.46 25.51,2.5 25.8,2.5 25.8,2.54 26.09,2.54 26.09,2.57 26.38,2.57 26.38,2.61 26.66,2.61 26.66,2.65 26.95,2.65 26.95,2.69 27.24,2.69 27.24,2.72 27.53,2.72 27.53,2.76 27.82,2.76 27.82,2.8 28.11,2.8 28.11,2.83 28.4,2.83 28.4,2.87 28.69,2.87 28.69,2.91 28.98,2.91 28.98,2.94 29.27,2.94 29.27,2.98 29.55,2.98 29.55,3.02 29.84,3.02 29.84,3.05 30.13,3.05 30.13,3.09 30.42,3.09 30.42,3.13 30.71,3.13 30.71,3.16 31,3.16 31,3.2 31.29,3.2 31.29,3.23 31.58,3.23 31.58,3.27 31.87,3.27 31.87,3.3 32.16,3.3 32.16,3.34 32.45,3.34 32.45,3.37 32.73,3.37 32.73,3.41 33.02,3.41 33.02,3.44 33.31,3.44 33.31,3.48 33.6,3.48 33.6,3.51 33.89,3.51 33.89,3.55 34.18,3.55 34.18,3.58 34.47,3.58 34.47,3.62 34.76,3.62 34.76,3.65 35.05,3.65 35.05,3.69 35.34,3.69 35.34,3.72 35.62,3.72 35.62,3.76 35.91,3.76 35.91,3.79 36.2,3.79 36.2,3.82 36.49,3.82 36.49,3.86 36.78,3.86 36.78,3.89 37.07,3.89 37.07,3.92 37.36,3.92 37.36,3.96 37.65,3.96 37.65,3.99 37.94,3.99 37.94,4.03 38.23,4.03 38.23,4.06 38.51,4.06 38.51,4.09 38.8,4.09 38.8,4.12 39.09,4.12 39.09,4.16 39.38,4.16 39.38,4.19 39.67,4.19 39.67,4.22 39.96,4.22 39.96,4.26 40.25,4.26 40.25,4.29 40.54,4.29 40.54,4.32 40.83,4.32 40.83,4.35 41.12,4.35 41.12,4.39 41.41,4.39 41.41,4.42 41.69,4.42 41.69,4.45 41.98,4.45 41.98,4.48 42.27,4.48 42.27,4.51 42.56,4.51 42.56,4.55 42.85,4.55 42.85,4.58 43.14,4.58 43.14,4.61 43.43,4.61 43.43,4.64 43.72,4.64 43.72,4.67 44.01,4.67 44.01,4.7 44.3,4.7 44.3,4.73 44.58,4.73 44.58,4.77 44.87,4.77 44.87,4.8 45.16,4.8 45.16,4.83 45.45,4.83 45.45,4.86 45.74,4.86 45.74,4.89 46.03,4.89 46.03,4.92 46.32,4.92 46.32,4.95 46.61,4.95 46.61,4.98 46.9,4.98 46.9,5.01 47.19,5.01 47.19,5.04 47.48,5.04 47.48,5.07 47.76,5.07 47.76,5.1 48.05,5.1 48.05,5.13 48.34,5.13 48.34,5.16 48.63,5.16 48.63,5.19 48.92,5.19 48.92,5.22 49.21,5.22 49.21,5.25 49.5,5.25 49.5,5.28 49.79,5.28 49.79,5.31 50.08,5.31 50.08,5.34 50.37,5.34 50.37,5.37 50.65,5.37 50.65,5.4 50.94,5.4 50.94,5.43 51.23,5.43 51.23,5.46 51.52,5.46 51.52,5.48 51.81,5.48 51.81,5.51 52.1,5.51 52.1,5.54 52.39,5.54 52.39,5.57 52.68,5.57 52.68,5.6 52.97,5.6 52.97,5.63 53.26,5.63 53.26,5.66 53.55,5.66 53.55,5.68 53.83,5.68 53.83,5.71 54.12,5.71 54.12,5.74 54.41,5.74 54.41,5.77 54.7,5.77 54.7,5.8 54.99,5.8 54.99,5.83 55.28,5.83 55.28,5.85 55.57,5.85 55.57,5.88 55.86,5.88 55.86,5.91 56.15,5.91 56.15,5.94 56.44,5.94 56.44,5.96 56.72,5.96 56.72,5.99 57.01,5.99 57.01,6.02 57.3,6.02 57.3,6.05 57.59,6.05 57.59,6.07 57.88,6.07 57.88,6.1 58.17,6.1 58.17,6.13 58.46,6.13 58.46,6.15 58.75,6.15 58.75,6.18 59.04,6.18 59.04,6.21 59.33,6.21 59.33,6.23 59.62,6.23 59.62,6.26 59.9,6.26 59.9,6.29 60.19,6.29 60.19,6.31 60.48,6.31 60.48,6.34 60.77,6.34 60.77,6.37 61.06,6.37 61.06,6.39 61.35,6.39 61.35,6.42 61.64,6.42 61.64,6.45 61.93,6.45 61.93,6.47 62.22,6.47 62.22,6.5 62.51,6.5 62.51,6.52 62.79,6.52 62.79,6.55 63.08,6.55 63.08,6.57 63.37,6.57 63.37,6.6 63.66,6.6 63.66,6.63 63.95,6.63 63.95,6.65 64.24,6.65 64.24,6.68 64.53,6.68 64.53,6.7 64.82,6.7 64.82,6.73 65.11,6.73 65.11,6.75 65.4,6.75 65.4,6.78 65.68,6.78 65.68,6.8 65.97,6.8 65.97,6.83 66.26,6.83 66.26,6.85 66.55,6.85 66.55,6.88 66.84,6.88 66.84,6.9 67.13,6.9 67.13,6.93 67.42,6.93 67.42,6.95 67.71,6.95 67.71,6.98 68,6.98 68,7 68.29,7 68.29,7.02 68.58,7.02 68.58,7.05 68.86,7.05 68.86,7.07 69.15,7.07 69.15,7.1 69.44,7.1 69.44,7.12 69.73,7.12 69.73,7.15 70.02,7.15 70.02,7.17 70.31,7.17 70.31,7.19 70.6,7.19 70.6,7.22 70.89,7.22 70.89,7.24 71.18,7.24 71.18,7.26 71.47,7.26 71.47,7.29 71.75,7.29 71.75,7.31 72.04,7.31 72.04,7.33 72.33,7.33 72.33,7.36 72.62,7.36 72.62,7.38 72.91,7.38 72.91,7.4 73.2,7.4 73.2,7.43 73.49,7.43 73.49,7.45 73.78,7.45 73.78,7.47 74.07,7.47 74.07,7.5 74.36,7.5 74.36,7.52 74.65,7.52 74.65,7.54 74.93,7.54 74.93,7.57 75.22,7.57 75.22,7.59 75.51,7.59 75.51,7.61 75.8,7.61 75.8,7.63 76.09,7.63 76.09,7.66 76.38,7.66 76.38,7.68 76.67,7.68 76.67,7.7 76.96,7.7 76.96,7.72 77.25,7.72 77.25,7.75 77.54,7.75 77.54,7.77 77.82,7.77 77.82,7.79 78.11,7.79 78.11,7.81 78.4,7.81 78.4,7.83 78.69,7.83 78.69,7.86 78.98,7.86 78.98,7.88 79.27,7.88 79.27,7.9 79.56,7.9 79.56,7.92 79.85,7.92 79.85,7.94 80.14,7.94 80.14,7.96 80.43,7.96 80.43,7.99 80.72,7.99 80.72,8.01 81,8.01 81,8.03 81.29,8.03 81.29,8.05 81.58,8.05 81.58,8.07 81.87,8.07 81.87,8.09 82.16,8.09 82.16,8.11 82.45,8.11 82.45,8.14 82.74,8.14 82.74,8.16 83.03,8.16 83.03,8.18 83.32,8.18 83.32,8.2 83.61,8.2 83.61,8.22 83.89,8.22 83.89,8.24 84.18,8.24 84.18,8.26 84.47,8.26 84.47,8.28 84.76,8.28 84.76,8.3 85.05,8.3 85.05,8.32 85.34,8.32 85.34,8.34 85.63,8.34 85.63,8.36 85.92,8.36 85.92,8.38 86.21,8.38 86.21,8.41 86.5,8.41 86.5,8.43 86.79,8.43 86.79,8.45 87.07,8.45 87.07,8.47 87.36,8.47 87.36,8.49 87.65,8.49 87.65,8.51 87.94,8.51 87.94,8.53 88.23,8.53 88.23,8.55 88.52,8.55 88.52,8.57 88.81,8.57 88.81,8.59 89.1,8.59 89.1,8.61 89.39,8.61 89.39,8.63 89.68,8.63 89.68,8.65 89.96,8.65 89.96,8.67 90.25,8.67 90.25,8.68 90.54,8.68 90.54,8.7 90.83,8.7 90.83,8.72 91.12,8.72 91.12,8.74 91.41,8.74 91.41,8.76 91.7,8.76 91.7,8.78 91.99,8.78 91.99,8.8 92.28,8.8 92.28,8.82 92.57,8.82 92.57,8.84 92.85,8.84 92.85,8.86 93.14,8.86 93.14,8.88 93.43,8.88 93.43,8.9 93.72,8.9 93.72,8.92 94.01,8.92 94.01,8.94 94.3,8.94 94.3,8.95 94.59,8.95 94.59,8.97 94.88,8.97 94.88,8.99 95.17,8.99 95.17,9.01 95.46,9.01 95.46,9.03 95.75,9.03 95.75,9.05 96.03,9.05 96.03,9.07 96.32,9.07 96.32,9.09 96.61,9.09 96.61,9.1 96.9,9.1 96.9,9.12 97.19,9.12 97.19,9.14 97.48,9.14 97.48,9.16 97.77,9.16 97.77,9.18 98.06,9.18 98.06,9.2 98.35,9.2 98.35,9.21 98.64,9.21 98.64,9.23 98.92,9.23 98.92,9.25 99.21,9.25 99.21,9.27 99.5,9.27 99.5,9.29 99.79,9.29 99.79,9.3 100.08,9.3 100.08,9.32 100.37,9.32 100.37,9.34 100.66,9.34 100.66,9.36 100.95,9.36 100.95,9.38 101.24,9.38 101.24,9.39 101.53,9.39 101.53,9.41 101.82,9.41 101.82,9.43 102.1,9.43 102.1,9.45 102.39,9.45 102.39,9.46 102.68,9.46 102.68,9.48 102.97,9.48 102.97,9.5 103.26,9.5 103.26,9.52 103.55,9.52 103.55,9.53 103.84,9.53 103.84,9.55 104.13,9.55 104.13,9.57 104.42,9.57 104.42,9.59 104.71,9.59 104.71,9.6 104.99,9.6 104.99,9.62 105.28,9.62 105.28,9.64 105.57,9.64 105.57,9.65 105.86,9.65 105.86,9.67 106.15,9.67 106.15,9.69 106.44,9.69 106.44,9.7 106.73,9.7 106.73,9.72 107.02,9.72 107.02,9.74 107.31,9.74 107.31,9.76 107.6,9.76 107.6,9.77 107.89,9.77 107.89,9.79 108.17,9.79 108.17,9.81 108.46,9.81 108.46,9.82 108.75,9.82 108.75,9.84 109.04,9.84 109.04,9.86 109.33,9.86 109.33,9.87 109.62,9.87 109.62,9.89 109.91,9.89 109.91,9.9 110.2,9.9 110.2,9.92 110.49,9.92 110.49,9.94 110.78,9.94 110.78,9.95 111.06,9.95 111.06,9.97 111.35,9.97 111.35,9.99 111.64,9.99 111.64,10 111.93,10 111.93,10.02 112.22,10.02 112.22,10.03 112.51,10.03 112.51,10.05 112.8,10.05 112.8,10.07 113.09,10.07 113.09,10.08 113.38,10.08 113.38,10.1 113.67,10.1 113.67,10.12 113.96,10.12 113.96,10.13 114.24,10.13 114.24,10.15 114.53,10.15 114.53,10.16 114.82,10.16 114.82,10.18 115.11,10.18 115.11,10.19 115.4,10.19 115.4,10.21 " class="primitive"/>
            </g>
          </g>
        </g>
        <g stroke-width="0.3" fill="#000000" fill-opacity="0.000" class="geometry" id="img-5c2ac47c-23">
          <g class="color_RGB{N0f8}(0.063,0.306,0.545)" stroke-dasharray="none" stroke-opacity="1" stroke="#104E8B" id="img-5c2ac47c-24">
            <g transform="translate(135.62,-31.94)" id="img-5c2ac47c-25">
              <path fill="none" d="M-115.54,91.78 L-115.26,91.78 -115.26,91.78 -114.97,91.78 -114.97,91.77 -114.68,91.77 -114.68,91.78 -114.39,91.78 -114.39,91.79 -114.1,91.79 -114.1,91.8 -113.81,91.8 -113.81,91.8 -113.52,91.8 -113.52,91.8 -113.23,91.8 -113.23,91.81 -112.94,91.81 -112.94,91.81 -112.65,91.81 -112.65,91.8 -112.37,91.8 -112.37,91.8 -112.08,91.8 -112.08,91.78 -111.79,91.78 -111.79,91.76 -111.5,91.76 -111.5,91.74 -111.21,91.74 -111.21,91.67 -110.92,91.67 -110.92,91.58 -110.63,91.58 -110.63,91.44 -110.34,91.44 -110.34,91.14 -110.05,91.14 -110.05,90.59 -109.76,90.59 -109.76,89.56 -109.47,89.56 -109.47,87.7 -109.19,87.7 -109.19,84.33 -108.9,84.33 -108.9,78.89 -108.61,78.89 -108.61,70.82 -108.32,70.82 -108.32,61.95 -108.03,61.95 -108.03,54.52 -107.74,54.52 -107.74,51.51 -107.45,51.51 -107.45,54.83 -107.16,54.83 -107.16,61.42 -106.87,61.42 -106.87,68.95 -106.58,68.95 -106.58,75.57 -106.3,75.57 -106.3,79.06 -106.01,79.06 -106.01,80.54 -105.72,80.54 -105.72,80.64 -105.43,80.64 -105.43,80 -105.14,80 -105.14,78.91 -104.85,78.91 -104.85,77.91 -104.56,77.91 -104.56,76.59 -104.27,76.59 -104.27,74.73 -103.98,74.73 -103.98,72.2 -103.69,72.2 -103.69,68.09 -103.4,68.09 -103.4,60.77 -103.12,60.77 -103.12,47.65 -102.83,47.65 -102.83,21.52 -102.54,21.52 -102.54,-29.37 -102.25,-29.37 -102.25,-123.75 -101.96,-123.75 -101.96,-285.42 -101.67,-285.42 -101.67,-529.96 -101.38,-529.96 -101.38,-836.58 -101.09,-836.58 -101.09,-1157.88 -100.8,-1157.88 -100.8,-1383.16 -100.51,-1383.16 -100.51,-1433.71 -100.23,-1433.71 -100.23,-1287.12 -99.94,-1287.12 -99.94,-991.36 -99.65,-991.36 -99.65,-651.12 -99.36,-651.12 -99.36,-352.46 -99.07,-352.46 -99.07,-147.18 -98.78,-147.18 -98.78,-25.69 -98.49,-25.69 -98.49,36.04 -98.2,36.04 -98.2,62.49 -97.91,62.49 -97.91,73.01 -97.62,73.01 -97.62,76.82 -97.33,76.82 -97.33,77.74 -97.05,77.74 -97.05,77.92 -96.76,77.92 -96.76,77.57 -96.47,77.57 -96.47,76.99 -96.18,76.99 -96.18,76.21 -95.89,76.21 -95.89,75.79 -95.6,75.79 -95.6,75.09 -95.31,75.09 -95.31,74.7 -95.02,74.7 -95.02,74.38 -94.73,74.38 -94.73,73.71 -94.44,73.71 -94.44,74.1 -94.16,74.1 -94.16,73.78 -93.87,73.78 -93.87,73.16 -93.58,73.16 -93.58,73.17 -93.29,73.17 -93.29,72.64 -93,72.64 -93,72.31 -92.71,72.31 -92.71,71.14 -92.42,71.14 -92.42,71.12 -92.13,71.12 -92.13,70.18 -91.84,70.18 -91.84,69.5 -91.55,69.5 -91.55,68.95 -91.27,68.95 -91.27,68.36 -90.98,68.36 -90.98,67.35 -90.69,67.35 -90.69,66.94 -90.4,66.94 -90.4,66.4 -90.11,66.4 -90.11,66.06 -89.82,66.06 -89.82,64.96 -89.53,64.96 -89.53,64.9 -89.24,64.9 -89.24,64.16 -88.95,64.16 -88.95,63.36 -88.66,63.36 -88.66,63.11 -88.37,63.11 -88.37,62.45 -88.09,62.45 -88.09,61.52 -87.8,61.52 -87.8,61.21 -87.51,61.21 -87.51,60.4 -87.22,60.4 -87.22,59.63 -86.93,59.63 -86.93,58.71 -86.64,58.71 -86.64,58.01 -86.35,58.01 -86.35,57.27 -86.06,57.27 -86.06,56.35 -85.77,56.35 -85.77,54.95 -85.48,54.95 -85.48,54.04 -85.2,54.04 -85.2,53.52 -84.91,53.52 -84.91,53.53 -84.62,53.53 -84.62,53.63 -84.33,53.63 -84.33,53.08 -84.04,53.08 -84.04,52.98 -83.75,52.98 -83.75,52.44 -83.46,52.44 -83.46,51.67 -83.17,51.67 -83.17,51.11 -82.88,51.11 -82.88,50.46 -82.59,50.46 -82.59,49.75 -82.3,49.75 -82.3,48.76 -82.02,48.76 -82.02,47.73 -81.73,47.73 -81.73,46.87 -81.44,46.87 -81.44,45.97 -81.15,45.97 -81.15,45.09 -80.86,45.09 -80.86,43.47 -80.57,43.47 -80.57,42.19 -80.28,42.19 -80.28,40.7 -79.99,40.7 -79.99,38.91 -79.7,38.91 -79.7,37.2 -79.41,37.2 -79.41,36.09 -79.13,36.09 -79.13,34.47 -78.84,34.47 -78.84,32.04 -78.55,32.04 -78.55,29.71 -78.26,29.71 -78.26,27.11 -77.97,27.11 -77.97,25.24 -77.68,25.24 -77.68,22.63 -77.39,22.63 -77.39,19.5 -77.1,19.5 -77.1,17.24 -76.81,17.24 -76.81,14.03 -76.52,14.03 -76.52,9.99 -76.23,9.99 -76.23,5.21 -75.95,5.21 -75.95,-6.52 -75.66,-6.52 -75.66,-29.53 -75.37,-29.53 -75.37,-79.56 -75.08,-79.56 -75.08,-186.59 -74.79,-186.59 -74.79,-392.31 -74.5,-392.31 -74.5,-749.02 -74.21,-749.02 -74.21,-1315.54 -73.92,-1315.54 -73.92,-2105.24 -73.63,-2105.24 -73.63,-3086.63 -73.34,-3086.63 -73.34,-4111.6 -73.06,-4111.6 -73.06,-5003.66 -72.77,-5003.66 -72.77,-5546.46 -72.48,-5546.46 -72.48,-5624.25 -72.19,-5624.25 -72.19,-5190.66 -71.9,-5190.66 -71.9,-4391.62 -71.61,-4391.62 -71.61,-3413.49 -71.32,-3413.49 -71.32,-2445.88 -71.03,-2445.88 -71.03,-1623.2 -70.74,-1623.2 -70.74,-1004.82 -70.45,-1004.82 -70.45,-585.93 -70.16,-585.93 -70.16,-320.56 -69.88,-320.56 -69.88,-161.38 -69.59,-161.38 -69.59,-67.66 -69.3,-67.66 -69.3,-11.67 -69.01,-11.67 -69.01,22.02 -68.72,22.02 -68.72,42.22 -68.43,42.22 -68.43,54.25 -68.14,54.25 -68.14,62.43 -67.85,62.43 -67.85,66.42 -67.56,66.42 -67.56,68.66 -67.27,68.66 -67.27,70.27 -66.99,70.27 -66.99,71.1 -66.7,71.1 -66.7,70.9 -66.41,70.9 -66.41,71.05 -66.12,71.05 -66.12,70.83 -65.83,70.83 -65.83,70.47 -65.54,70.47 -65.54,70.15 -65.25,70.15 -65.25,70.41 -64.96,70.41 -64.96,70.18 -64.67,70.18 -64.67,69.76 -64.38,69.76 -64.38,69.84 -64.1,69.84 -64.1,69.76 -63.81,69.76 -63.81,69.67 -63.52,69.67 -63.52,69.74 -63.23,69.74 -63.23,70.01 -62.94,70.01 -62.94,70.34 -62.65,70.34 -62.65,70.07 -62.36,70.07 -62.36,70.05 -62.07,70.05 -62.07,70.43 -61.78,70.43 -61.78,70.59 -61.49,70.59 -61.49,70.33 -61.2,70.33 -61.2,70.39 -60.92,70.39 -60.92,70.62 -60.63,70.62 -60.63,69.87 -60.34,69.87 -60.34,69.75 -60.05,69.75 -60.05,68.94 -59.76,68.94 -59.76,68.05 -59.47,68.05 -59.47,66.61 -59.18,66.61 -59.18,64.92 -58.89,64.92 -58.89,63.09 -58.6,63.09 -58.6,60.6 -58.31,60.6 -58.31,58.78 -58.03,58.78 -58.03,57.18 -57.74,57.18 -57.74,55.83 -57.45,55.83 -57.45,55.61 -57.16,55.61 -57.16,56.37 -56.87,56.37 -56.87,58.2 -56.58,58.2 -56.58,60.09 -56.29,60.09 -56.29,62.1 -56,62.1 -56,64.45 -55.71,64.45 -55.71,66.21 -55.42,66.21 -55.42,67.26 -55.13,67.26 -55.13,67.65 -54.85,67.65 -54.85,68.58 -54.56,68.58 -54.56,68.42 -54.27,68.42 -54.27,68.85 -53.98,68.85 -53.98,68.74 -53.69,68.74 -53.69,69.12 -53.4,69.12 -53.4,68.79 -53.11,68.79 -53.11,68.96 -52.82,68.96 -52.82,68.88 -52.53,68.88 -52.53,68.87 -52.24,68.87 -52.24,68.34 -51.96,68.34 -51.96,68.42 -51.67,68.42 -51.67,68.68 -51.38,68.68 -51.38,68.55 -51.09,68.55 -51.09,68.79 -50.8,68.79 -50.8,68.58 -50.51,68.58 -50.51,68.45 -50.22,68.45 -50.22,68.57 -49.93,68.57 -49.93,68.53 -49.64,68.53 -49.64,68.15 -49.35,68.15 -49.35,68.42 -49.06,68.42 -49.06,68.24 -48.78,68.24 -48.78,68.12 -48.49,68.12 -48.49,68.52 -48.2,68.52 -48.2,68.46 -47.91,68.46 -47.91,68.19 -47.62,68.19 -47.62,68.3 -47.33,68.3 -47.33,68.37 -47.04,68.37 -47.04,68.38 -46.75,68.38 -46.75,68.14 -46.46,68.14 -46.46,68.04 -46.17,68.04 -46.17,67.65 -45.89,67.65 -45.89,68.3 -45.6,68.3 -45.6,68.07 -45.31,68.07 -45.31,68.19 -45.02,68.19 -45.02,67.84 -44.73,67.84 -44.73,67.94 -44.44,67.94 -44.44,68.18 -44.15,68.18 -44.15,67.95 -43.86,67.95 -43.86,67.69 -43.57,67.69 -43.57,68.25 -43.28,68.25 -43.28,68.51 -43,68.51 -43,68.07 -42.71,68.07 -42.71,68.06 -42.42,68.06 -42.42,67.84 -42.13,67.84 -42.13,68.32 -41.84,68.32 -41.84,68.23 -41.55,68.23 -41.55,68.36 -41.26,68.36 -41.26,67.54 -40.97,67.54 -40.97,67.86 -40.68,67.86 -40.68,68.14 -40.39,68.14 -40.39,67.98 -40.1,67.98 -40.1,67.97 -39.82,67.97 -39.82,68.21 -39.53,68.21 -39.53,68.34 -39.24,68.34 -39.24,68.03 -38.95,68.03 -38.95,67.85 -38.66,67.85 -38.66,68.08 -38.37,68.08 -38.37,68.17 -38.08,68.17 -38.08,68.19 -37.79,68.19 -37.79,68.5 -37.5,68.5 -37.5,68.07 -37.21,68.07 -37.21,68.15 -36.93,68.15 -36.93,68.01 -36.64,68.01 -36.64,68.17 -36.35,68.17 -36.35,68.29 -36.06,68.29 -36.06,68.46 -35.77,68.46 -35.77,68.54 -35.48,68.54 -35.48,68.4 -35.19,68.4 -35.19,68.32 -34.9,68.32 -34.9,68.58 -34.61,68.58 -34.61,68.41 -34.32,68.41 -34.32,68.3 -34.03,68.3 -34.03,68.77 -33.75,68.77 -33.75,68.22 -33.46,68.22 -33.46,68.1 -33.17,68.1 -33.17,68.05 -32.88,68.05 -32.88,68.26 -32.59,68.26 -32.59,67.77 -32.3,67.77 -32.3,67.64 -32.01,67.64 -32.01,66.89 -31.72,66.89 -31.72,65.87 -31.43,65.87 -31.43,64.6 -31.14,64.6 -31.14,62.57 -30.86,62.57 -30.86,60.71 -30.57,60.71 -30.57,58.31 -30.28,58.31 -30.28,56.18 -29.99,56.18 -29.99,54.82 -29.7,54.82 -29.7,53.58 -29.41,53.58 -29.41,53.39 -29.12,53.39 -29.12,54.77 -28.83,54.77 -28.83,55.46 -28.54,55.46 -28.54,57.54 -28.25,57.54 -28.25,59.19 -27.96,59.19 -27.96,61.68 -27.68,61.68 -27.68,63.75 -27.39,63.75 -27.39,65.39 -27.1,65.39 -27.1,66.76 -26.81,66.76 -26.81,67.5 -26.52,67.5 -26.52,68.08 -26.23,68.08 -26.23,69.07 -25.94,69.07 -25.94,69.11 -25.65,69.11 -25.65,69.51 -25.36,69.51 -25.36,69.54 -25.07,69.54 -25.07,69.77 -24.79,69.77 -24.79,69.97 -24.5,69.97 -24.5,70.14 -24.21,70.14 -24.21,69.74 -23.92,69.74 -23.92,70.08 -23.63,70.08 -23.63,70.23 -23.34,70.23 -23.34,70.12 -23.05,70.12 -23.05,70.5 -22.76,70.5 -22.76,70.26 -22.47,70.26 -22.47,70.44 -22.18,70.44 -22.18,70.58 -21.89,70.58 -21.89,70.33 -21.61,70.33 -21.61,70.37 -21.32,70.37 -21.32,70.51 -21.03,70.51 -21.03,70.37 -20.74,70.37 -20.74,70.95 -20.45,70.95 -20.45,70.95 -20.16,70.95 -20.16,70.86 -19.87,70.86 -19.87,70.83 -19.58,70.83 -19.58,70.89 -19.29,70.89 -19.29,70.85 -19,70.85 -19,70.81 -18.72,70.81 -18.72,70.68 -18.43,70.68 -18.43,71.11 -18.14,71.11 -18.14,71.25 -17.85,71.25 -17.85,71.13 -17.56,71.13 -17.56,71.34 -17.27,71.34 -17.27,71.06 -16.98,71.06 -16.98,71.37 -16.69,71.37 -16.69,71.55 -16.4,71.55 -16.4,71.71 -16.11,71.71 -16.11,71.6 -15.83,71.6 -15.83,71.58 -15.54,71.58 -15.54,71.61 -15.25,71.61 -15.25,71.6 -14.96,71.6 -14.96,71.8 -14.67,71.8 -14.67,71.74 -14.38,71.74 -14.38,71.9 -14.09,71.9 -14.09,71.79 -13.8,71.79 -13.8,72.01 -13.51,72.01 -13.51,71.57 -13.22,71.57 -13.22,72.06 -12.93,72.06 -12.93,72.05 -12.65,72.05 -12.65,72.41 -12.36,72.41 -12.36,71.75 -12.07,71.75 -12.07,72.27 -11.78,72.27 -11.78,72.13 -11.49,72.13 -11.49,72.11 -11.2,72.11 -11.2,72.6 -10.91,72.6 -10.91,72.42 -10.62,72.42 -10.62,72.25 -10.33,72.25 -10.33,72.46 -10.04,72.46 -10.04,72.38 -9.76,72.38 -9.76,72.58 -9.47,72.58 -9.47,72.84 -9.18,72.84 -9.18,72.74 -8.89,72.74 -8.89,72.5 -8.6,72.5 -8.6,72.96 -8.31,72.96 -8.31,72.75 -8.02,72.75 -8.02,72.76 -7.73,72.76 -7.73,72.83 -7.44,72.83 -7.44,73.08 -7.15,73.08 -7.15,72.79 -6.86,72.79 -6.86,73.11 -6.58,73.11 -6.58,73.07 -6.29,73.07 -6.29,73.24 -6,73.24 -6,73.31 -5.71,73.31 -5.71,73.8 -5.42,73.8 -5.42,73.32 -5.13,73.32 -5.13,73.67 -4.84,73.67 -4.84,73.73 -4.55,73.73 -4.55,73.32 -4.26,73.32 -4.26,73.73 -3.97,73.73 -3.97,73.44 -3.69,73.44 -3.69,73.41 -3.4,73.41 -3.4,73.61 -3.11,73.61 -3.11,73.92 -2.82,73.92 -2.82,73.67 -2.53,73.67 -2.53,74.07 -2.24,74.07 -2.24,73.83 -1.95,73.83 -1.95,74.01 -1.66,74.01 -1.66,74.12 -1.37,74.12 -1.37,74.09 -1.08,74.09 -1.08,74.29 -0.79,74.29 -0.79,74.17 -0.51,74.17 -0.51,74 -0.22,74 -0.22,74.19 0.07,74.19 0.07,74.39 0.36,74.39 0.36,74.19 0.65,74.19 0.65,74.41 0.94,74.41 0.94,74.53 1.23,74.53 1.23,74.41 1.52,74.41 1.52,74.54 1.81,74.54 1.81,74.42 2.1,74.42 2.1,74.84 2.38,74.84 2.38,74.71 2.67,74.71 2.67,74.62 2.96,74.62 2.96,74.97 3.25,74.97 3.25,74.77 3.54,74.77 3.54,75.29 3.83,75.29 3.83,74.68 4.12,74.68 4.12,75.09 4.41,75.09 4.41,74.91 4.7,74.91 4.7,75.11 4.99,75.11 4.99,75.23 5.28,75.23 5.28,75.2 5.56,75.2 5.56,75.18 5.85,75.18 5.85,75.42 6.14,75.42 6.14,75.33 6.43,75.33 6.43,75.43 6.72,75.43 6.72,75.32 7.01,75.32 7.01,75.1 7.3,75.1 7.3,75.61 7.59,75.61 7.59,75.58 7.88,75.58 7.88,75.72 8.17,75.72 8.17,75.77 8.45,75.77 8.45,76 8.74,76 8.74,75.54 9.03,75.54 9.03,75.84 9.32,75.84 9.32,75.57 9.61,75.57 9.61,75.87 9.9,75.87 9.9,76.08 10.19,76.08 10.19,75.91 10.48,75.91 10.48,75.98 10.77,75.98 10.77,76.19 11.06,76.19 11.06,75.98 11.34,75.98 11.34,76.32 11.63,76.32 11.63,76.28 11.92,76.28 11.92,76.39 12.21,76.39 12.21,76.28 12.5,76.28 12.5,76.48 12.79,76.48 12.79,76.64 13.08,76.64 13.08,76.42 13.37,76.42 13.37,76.48 13.66,76.48 13.66,76.53 13.95,76.53 13.95,76.76 14.24,76.76 14.24,76.43 14.52,76.43 14.52,76.69 14.81,76.69 14.81,76.64 15.1,76.64 15.1,76.87 15.39,76.87 15.39,76.71 15.68,76.71 15.68,76.71 15.97,76.71 15.97,76.86 16.26,76.86 16.26,76.59 16.55,76.59 16.55,76.78 16.84,76.78 16.84,76.96 17.13,76.96 17.13,76.77 17.41,76.77 17.41,77.08 17.7,77.08 17.7,76.87 17.99,76.87 17.99,76.89 18.28,76.89 18.28,77.25 18.57,77.25 18.57,77.1 18.86,77.1 18.86,76.91 19.15,76.91 19.15,77.15 19.44,77.15 19.44,77.32 19.73,77.32 19.73,77.21 20.02,77.21 20.02,77.38 20.31,77.38 20.31,77.5 20.59,77.5 20.59,77.82 20.88,77.82 20.88,77.66 21.17,77.66 21.17,77.66 21.46,77.66 21.46,77.81 21.75,77.81 21.75,77.82 22.04,77.82 22.04,77.66 22.33,77.66 22.33,78.02 22.62,78.02 22.62,77.9 22.91,77.9 22.91,77.88 23.2,77.88 23.2,77.9 23.48,77.9 23.48,78.16 23.77,78.16 23.77,77.91 24.06,77.91 24.06,77.83 24.35,77.83 24.35,78.28 24.64,78.28 24.64,78.07 24.93,78.07 24.93,77.81 25.22,77.81 25.22,78 25.51,78 25.51,78.24 25.8,78.24 25.8,78.26 26.09,78.26 26.09,78.37 26.38,78.37 26.38,78.45 26.66,78.45 26.66,78.28 26.95,78.28 26.95,78.31 27.24,78.31 27.24,78.56 27.53,78.56 27.53,78.45 27.82,78.45 27.82,78.49 28.11,78.49 28.11,78.59 28.4,78.59 28.4,78.53 28.69,78.53 28.69,78.52 28.98,78.52 28.98,78.58 29.27,78.58 29.27,78.77 29.55,78.77 29.55,78.83 29.84,78.83 29.84,78.9 30.13,78.9 30.13,78.65 30.42,78.65 30.42,78.69 30.71,78.69 30.71,78.73 31,78.73 31,78.9 31.29,78.9 31.29,78.91 31.58,78.91 31.58,78.84 31.87,78.84 31.87,78.9 32.16,78.9 32.16,78.98 32.45,78.98 32.45,79.14 32.73,79.14 32.73,79.06 33.02,79.06 33.02,78.98 33.31,78.98 33.31,78.88 33.6,78.88 33.6,79.31 33.89,79.31 33.89,78.84 34.18,78.84 34.18,79.14 34.47,79.14 34.47,79.4 34.76,79.4 34.76,79.36 35.05,79.36 35.05,79.06 35.34,79.06 35.34,79.54 35.62,79.54 35.62,79.25 35.91,79.25 35.91,79.33 36.2,79.33 36.2,79.5 36.49,79.5 36.49,79.52 36.78,79.52 36.78,79.71 37.07,79.71 37.07,79.89 37.36,79.89 37.36,79.56 37.65,79.56 37.65,79.61 37.94,79.61 37.94,79.7 38.23,79.7 38.23,79.68 38.51,79.68 38.51,79.51 38.8,79.51 38.8,79.92 39.09,79.92 39.09,79.7 39.38,79.7 39.38,79.81 39.67,79.81 39.67,79.82 39.96,79.82 39.96,79.73 40.25,79.73 40.25,79.82 40.54,79.82 40.54,79.87 40.83,79.87 40.83,79.7 41.12,79.7 41.12,80.13 41.41,80.13 41.41,80.1 41.69,80.1 41.69,80.07 41.98,80.07 41.98,79.86 42.27,79.86 42.27,79.93 42.56,79.93 42.56,80.28 42.85,80.28 42.85,80.42 43.14,80.42 43.14,80.12 43.43,80.12 43.43,80.3 43.72,80.3 43.72,80.26 44.01,80.26 44.01,80.4 44.3,80.4 44.3,80.78 44.58,80.78 44.58,80.45 44.87,80.45 44.87,80.48 45.16,80.48 45.16,80.3 45.45,80.3 45.45,80.72 45.74,80.72 45.74,80.52 46.03,80.52 46.03,80.53 46.32,80.53 46.32,80.61 46.61,80.61 46.61,80.42 46.9,80.42 46.9,80.86 47.19,80.86 47.19,80.77 47.48,80.77 47.48,80.82 47.76,80.82 47.76,80.69 48.05,80.69 48.05,80.84 48.34,80.84 48.34,80.94 48.63,80.94 48.63,80.85 48.92,80.85 48.92,81.02 49.21,81.02 49.21,81.24 49.5,81.24 49.5,80.97 49.79,80.97 49.79,80.88 50.08,80.88 50.08,81.09 50.37,81.09 50.37,81.03 50.65,81.03 50.65,81.28 50.94,81.28 50.94,81.24 51.23,81.24 51.23,81.3 51.52,81.3 51.52,81.37 51.81,81.37 51.81,81.38 52.1,81.38 52.1,81.11 52.39,81.11 52.39,81.31 52.68,81.31 52.68,81.33 52.97,81.33 52.97,81.36 53.26,81.36 53.26,81.51 53.55,81.51 53.55,81.31 53.83,81.31 53.83,81.26 54.12,81.26 54.12,81.53 54.41,81.53 54.41,81.41 54.7,81.41 54.7,81.66 54.99,81.66 54.99,81.54 55.28,81.54 55.28,81.4 55.57,81.4 55.57,81.35 55.86,81.35 55.86,81.58 56.15,81.58 56.15,81.66 56.44,81.66 56.44,81.66 56.72,81.66 56.72,81.78 57.01,81.78 57.01,81.86 57.3,81.86 57.3,81.73 57.59,81.73 57.59,81.85 57.88,81.85 57.88,81.74 58.17,81.74 58.17,82.06 58.46,82.06 58.46,82 58.75,82 58.75,81.77 59.04,81.77 59.04,81.87 59.33,81.87 59.33,81.87 59.62,81.87 59.62,81.82 59.9,81.82 59.9,81.95 60.19,81.95 60.19,82.12 60.48,82.12 60.48,82.13 60.77,82.13 60.77,82.02 61.06,82.02 61.06,82.19 61.35,82.19 61.35,82.3 61.64,82.3 61.64,82.33 61.93,82.33 61.93,82.34 62.22,82.34 62.22,82.37 62.51,82.37 62.51,82.36 62.79,82.36 62.79,82.13 63.08,82.13 63.08,82.02 63.37,82.02 63.37,82.32 63.66,82.32 63.66,82.35 63.95,82.35 63.95,82.51 64.24,82.51 64.24,82.39 64.53,82.39 64.53,82.47 64.82,82.47 64.82,82.44 65.11,82.44 65.11,82.55 65.4,82.55 65.4,82.5 65.68,82.5 65.68,82.6 65.97,82.6 65.97,82.44 66.26,82.44 66.26,82.39 66.55,82.39 66.55,82.37 66.84,82.37 66.84,82.39 67.13,82.39 67.13,82.1 67.42,82.1 67.42,82.67 67.71,82.67 67.71,82.27 68,82.27 68,82.03 68.29,82.03 68.29,82.31 68.58,82.31 68.58,82.03 68.86,82.03 68.86,81.75 69.15,81.75 69.15,82.03 69.44,82.03 69.44,82.26 69.73,82.26 69.73,82.03 70.02,82.03 70.02,82.26 70.31,82.26 70.31,82.13 70.6,82.13 70.6,82.29 70.89,82.29 70.89,82.32 71.18,82.32 71.18,82.62 71.47,82.62 71.47,82.64 71.75,82.64 71.75,82.79 72.04,82.79 72.04,82.81 72.33,82.81 72.33,82.93 72.62,82.93 72.62,82.86 72.91,82.86 72.91,83 73.2,83 73.2,82.98 73.49,82.98 73.49,83.27 73.78,83.27 73.78,83.48 74.07,83.48 74.07,83.46 74.36,83.46 74.36,83.14 74.65,83.14 74.65,83.3 74.93,83.3 74.93,83.39 75.22,83.39 75.22,83.43 75.51,83.43 75.51,83.66 75.8,83.66 75.8,83.21 76.09,83.21 76.09,83.5 76.38,83.5 76.38,83.51 76.67,83.51 76.67,83.5 76.96,83.5 76.96,83.52 77.25,83.52 77.25,83.38 77.54,83.38 77.54,83.5 77.82,83.5 77.82,83.49 78.11,83.49 78.11,83.48 78.4,83.48 78.4,83.59 78.69,83.59 78.69,83.53 78.98,83.53 78.98,83.48 79.27,83.48 79.27,83.8 79.56,83.8 79.56,83.58 79.85,83.58 79.85,83.55 80.14,83.55 80.14,83.81 80.43,83.81 80.43,83.89 80.72,83.89 80.72,83.6 81,83.6 81,83.75 81.29,83.75 81.29,83.74 81.58,83.74 81.58,83.84 81.87,83.84 81.87,83.74 82.16,83.74 82.16,83.71 82.45,83.71 82.45,83.66 82.74,83.66 82.74,83.93 83.03,83.93 83.03,84 83.32,84 83.32,83.9 83.61,83.9 83.61,84.01 83.89,84.01 83.89,83.99 84.18,83.99 84.18,83.81 84.47,83.81 84.47,83.85 84.76,83.85 84.76,84 85.05,84 85.05,83.95 85.34,83.95 85.34,84.01 85.63,84.01 85.63,84.17 85.92,84.17 85.92,83.77 86.21,83.77 86.21,84.07 86.5,84.07 86.5,83.92 86.79,83.92 86.79,84.01 87.07,84.01 87.07,84.2 87.36,84.2 87.36,84.22 87.65,84.22 87.65,84.14 87.94,84.14 87.94,84.09 88.23,84.09 88.23,83.98 88.52,83.98 88.52,84.27 88.81,84.27 88.81,84.04 89.1,84.04 89.1,84.18 89.39,84.18 89.39,84.31 89.68,84.31 89.68,84.28 89.96,84.28 89.96,84.29 90.25,84.29 90.25,84.32 90.54,84.32 90.54,84.5 90.83,84.5 90.83,84.5 91.12,84.5 91.12,84.33 91.41,84.33 91.41,84.56 91.7,84.56 91.7,84.34 91.99,84.34 91.99,84.39 92.28,84.39 92.28,84.48 92.57,84.48 92.57,84.6 92.85,84.6 92.85,84.53 93.14,84.53 93.14,84.55 93.43,84.55 93.43,84.47 93.72,84.47 93.72,84.73 94.01,84.73 94.01,84.56 94.3,84.56 94.3,84.59 94.59,84.59 94.59,84.68 94.88,84.68 94.88,84.78 95.17,84.78 95.17,84.56 95.46,84.56 95.46,84.65 95.75,84.65 95.75,84.74 96.03,84.74 96.03,84.59 96.32,84.59 96.32,84.69 96.61,84.69 96.61,84.64 96.9,84.64 96.9,84.71 97.19,84.71 97.19,84.87 97.48,84.87 97.48,84.99 97.77,84.99 97.77,84.7 98.06,84.7 98.06,84.8 98.35,84.8 98.35,84.82 98.64,84.82 98.64,84.85 98.92,84.85 98.92,84.9 99.21,84.9 99.21,84.86 99.5,84.86 99.5,84.79 99.79,84.79 99.79,85 100.08,85 100.08,84.77 100.37,84.77 100.37,84.99 100.66,84.99 100.66,84.89 100.95,84.89 100.95,84.61 101.24,84.61 101.24,84.86 101.53,84.86 101.53,85.07 101.82,85.07 101.82,84.96 102.1,84.96 102.1,84.93 102.39,84.93 102.39,85.13 102.68,85.13 102.68,85.04 102.97,85.04 102.97,85 103.26,85 103.26,85 103.55,85 103.55,85.1 103.84,85.1 103.84,85.29 104.13,85.29 104.13,85.33 104.42,85.33 104.42,85.25 104.71,85.25 104.71,85.29 104.99,85.29 104.99,85.04 105.28,85.04 105.28,85.24 105.57,85.24 105.57,85.23 105.86,85.23 105.86,85.23 106.15,85.23 106.15,85.41 106.44,85.41 106.44,85.34 106.73,85.34 106.73,85.42 107.02,85.42 107.02,85.3 107.31,85.3 107.31,85.42 107.6,85.42 107.6,85.41 107.89,85.41 107.89,85.49 108.17,85.49 108.17,85.55 108.46,85.55 108.46,85.27 108.75,85.27 108.75,85.68 109.04,85.68 109.04,85.55 109.33,85.55 109.33,85.69 109.62,85.69 109.62,85.6 109.91,85.6 109.91,85.66 110.2,85.66 110.2,85.79 110.49,85.79 110.49,85.76 110.78,85.76 110.78,85.46 111.06,85.46 111.06,85.79 111.35,85.79 111.35,85.52 111.64,85.52 111.64,85.74 111.93,85.74 111.93,85.56 112.22,85.56 112.22,85.7 112.51,85.7 112.51,85.48 112.8,85.48 112.8,85.86 113.09,85.86 113.09,85.67 113.38,85.67 113.38,85.66 113.67,85.66 113.67,85.65 113.96,85.65 113.96,85.73 114.24,85.73 114.24,85.8 114.53,85.8 114.53,85.51 114.82,85.51 114.82,85.74 115.11,85.74 115.11,85.75 115.4,85.75 115.4,85.71 " class="primitive"/>
            </g>
          </g>
        </g>
      </g>
      <g class="guide colorkey" id="img-5c2ac47c-26">
        <g fill="#4C404B" font-size="2.82" font-family="'PT Sans','Helvetica Neue','Helvetica',sans-serif" id="img-5c2ac47c-27">
          <g transform="translate(210.87,31.7)" id="img-5c2ac47c-28">
            <g class="primitive">
              <text dy="0.35em">Al2O3 std</text>
            </g>
          </g>
          <g transform="translate(210.87,35.33)" id="img-5c2ac47c-29">
            <g class="primitive">
              <text dy="0.35em">Brem[Global][Al2O3 std]</text>
            </g>
          </g>
        </g>
        <g stroke-width="0.3" id="img-5c2ac47c-30">
          <g stroke="#FFFFFF" fill-opacity="1" fill="#B70002" id="img-5c2ac47c-31">
            <g transform="translate(208.05,35.33)" id="img-5c2ac47c-32">
              <circle cx="0" cy="0" r="0.9" class="primitive"/>
            </g>
          </g>
          <g stroke="#FFFFFF" fill-opacity="1" fill="#104E8B" id="img-5c2ac47c-33">
            <g transform="translate(208.05,31.7)" id="img-5c2ac47c-34">
              <circle cx="0" cy="0" r="0.9" class="primitive"/>
            </g>
          </g>
        </g>
        <g fill="#362A35" font-size="3.18" font-family="'PT Sans','Helvetica Neue','Helvetica',sans-serif" stroke="#000000" stroke-opacity="0.000" id="img-5c2ac47c-35">
          <g transform="translate(207.24,28.39)" id="img-5c2ac47c-36">
            <g class="primitive">
              <text dy="-0em">Spectra</text>
            </g>
          </g>
        </g>
      </g>
    </g>
  </g>
  <g class="guide ylabels" font-size="2.82" font-family="'PT Sans Caption','Helvetica Neue','Helvetica',sans-serif" fill="#6C606B" id="img-5c2ac47c-37">
    <g transform="translate(17.03,59.87)" id="img-5c2ac47c-38">
      <g class="primitive">
        <text text-anchor="end" dy="0.35em">0</text>
      </g>
    </g>
    <g transform="translate(17.03,44.7)" id="img-5c2ac47c-39">
      <g class="primitive">
        <text text-anchor="end" dy="0.35em">10000</text>
      </g>
    </g>
    <g transform="translate(17.03,29.54)" id="img-5c2ac47c-40">
      <g class="primitive">
        <text text-anchor="end" dy="0.35em">20000</text>
      </g>
    </g>
    <g transform="translate(17.03,14.38)" id="img-5c2ac47c-41">
      <g class="primitive">
        <text text-anchor="end" dy="0.35em">30000</text>
      </g>
    </g>
  </g>
  <g font-size="3.18" font-family="'PT Sans','Helvetica Neue','Helvetica',sans-serif" fill="#202020" stroke="#000000" stroke-opacity="0.000" id="img-5c2ac47c-42">
    <g transform="translate(4.18,29.29)" id="img-5c2ac47c-43">
      <g class="primitive">
        <text text-anchor="middle" dy="0.35em" transform="rotate(-90,0, 2)">Counts</text>
      </g>
    </g>
  </g>
</g>
<defs>
  <clipPath id="img-5c2ac47c-4">
    <path d="M18.03,0.71 L253.29,0.71 253.29,61.87 18.03,61.87 " />
  </clipPath>
</defs>
</svg>
