<?xml version="1.0" encoding="UTF-8"?>
<svg xmlns="http://www.w3.org/2000/svg"
     xmlns:xlink="http://www.w3.org/1999/xlink"
     xmlns:gadfly="http://www.gadflyjl.org/ns"
     version="1.2"
     width="254mm" height="76.2mm" viewBox="0 0 254 76.2"
     stroke="none"
     fill="#000000"
     stroke-width="0.3"
     font-size="3.88"
>
<defs>
  <marker id="arrow" markerWidth="15" markerHeight="7" refX="5" refY="3.5" orient="auto" markerUnits="strokeWidth">
    <path d="M0,0 L15,3.5 L0,7 z" stroke="context-stroke" fill="context-stroke"/>
  </marker>
</defs>
<g class="plotroot xscalable yscalable" id="img-8270e48f-1">
  <g font-size="3.18" font-family="'PT Sans','Helvetica Neue','Helvetica',sans-serif" fill="#202020" stroke="#000000" stroke-opacity="0.000" id="img-8270e48f-2">
    <g transform="translate(119.5,69.54)">
      <g class="primitive">
        <text text-anchor="middle" dy="0.6em">Energy (eV)</text>
      </g>
    </g>
  </g>
  <g class="guide xlabels" font-size="2.82" font-family="'PT Sans Caption','Helvetica Neue','Helvetica',sans-serif" fill="#6C606B" id="img-8270e48f-3">
    <g transform="translate(20.03,62.87)">
      <g class="primitive">
        <text text-anchor="middle" dy="0.6em">0</text>
      </g>
    </g>
    <g transform="translate(69.76,62.87)">
      <g class="primitive">
        <text text-anchor="middle" dy="0.6em">2000</text>
      </g>
    </g>
    <g transform="translate(119.5,62.87)">
      <g class="primitive">
        <text text-anchor="middle" dy="0.6em">4000</text>
      </g>
    </g>
    <g transform="translate(169.24,62.87)">
      <g class="primitive">
        <text text-anchor="middle" dy="0.6em">6000</text>
      </g>
    </g>
    <g transform="translate(218.97,62.87)">
      <g class="primitive">
        <text text-anchor="middle" dy="0.6em">8000</text>
      </g>
    </g>
  </g>
  <g class="guide colorkey" id="img-8270e48f-4">
    <g fill="#4C404B" font-size="2.82" font-family="'PT Sans','Helvetica Neue','Helvetica',sans-serif" id="img-8270e48f-5">
      <g transform="translate(225.6,31.7)" id="img-8270e48f-6">
        <g class="primitive">
          <text dy="0.35em">MgO std</text>
        </g>
      </g>
      <g transform="translate(225.6,35.33)" id="img-8270e48f-7">
        <g class="primitive">
          <text dy="0.35em">Brem[Global][MgO std]</text>
        </g>
      </g>
    </g>
    <g stroke-width="0.3" id="img-8270e48f-8">
      <g stroke="#FFFFFF" fill-opacity="1" fill="#B70002" id="img-8270e48f-9">
        <g transform="translate(222.79,35.33)" id="img-8270e48f-10">
          <circle cx="0" cy="0" r="0.9" class="primitive"/>
        </g>
      </g>
      <g stroke="#FFFFFF" fill-opacity="1" fill="#104E8B" id="img-8270e48f-11">
        <g transform="translate(222.79,31.7)" id="img-8270e48f-12">
          <circle cx="0" cy="0" r="0.9" class="primitive"/>
        </g>
      </g>
    </g>
    <g fill="#362A35" font-size="3.18" font-family="'PT Sans','Helvetica Neue','Helvetica',sans-serif" stroke="#000000" stroke-opacity="0.000" id="img-8270e48f-13">
      <g transform="translate(221.97,28.39)" id="img-8270e48f-14">
        <g class="primitive">
          <text dy="-0em">Spectra</text>
        </g>
      </g>
    </g>
  </g>
  <g clip-path="url(#img-8270e48f-15)">
    <g id="img-8270e48f-16">
      <g pointer-events="visible" stroke-width="0.3" fill="#FDFDF1" stroke="#202020" class="guide background" id="img-8270e48f-17">
        <g transform="translate(119.5,31.29)" id="img-8270e48f-18">
          <path d="M-101.47,-30.58 L 101.47 -30.58 101.47 30.58 -101.47 30.58 z" class="primitive"/>
        </g>
      </g>
      <g class="guide ygridlines xfixed" stroke-dasharray="none" stroke-width="0.2" stroke="#FFDFDF" id="img-8270e48f-19">
        <g transform="translate(119.5,59.87)" id="img-8270e48f-20">
          <path fill="none" d="M-101.47,0 L 101.47 0" class="primitive"/>
        </g>
        <g transform="translate(119.5,45.86)" id="img-8270e48f-21">
          <path fill="none" d="M-101.47,0 L 101.47 0" class="primitive"/>
        </g>
        <g transform="translate(119.5,31.86)" id="img-8270e48f-22">
          <path fill="none" d="M-101.47,0 L 101.47 0" class="primitive"/>
        </g>
        <g transform="translate(119.5,17.85)" id="img-8270e48f-23">
          <path fill="none" d="M-101.47,0 L 101.47 0" class="primitive"/>
        </g>
        <g transform="translate(119.5,3.85)" id="img-8270e48f-24">
          <path fill="none" d="M-101.47,0 L 101.47 0" class="primitive"/>
        </g>
      </g>
      <g class="guide xgridlines yfixed" stroke-dasharray="none" stroke-width="0.2" stroke="#FFDFDF" id="img-8270e48f-25">
        <g transform="translate(20.03,31.29)" id="img-8270e48f-26">
          <path fill="none" d="M0,-30.58 L 0 30.58" class="primitive"/>
        </g>
        <g transform="translate(69.76,31.29)" id="img-8270e48f-27">
          <path fill="none" d="M0,-30.58 L 0 30.58" class="primitive"/>
        </g>
        <g transform="translate(119.5,31.29)" id="img-8270e48f-28">
          <path fill="none" d="M0,-30.58 L 0 30.58" class="primitive"/>
        </g>
        <g transform="translate(169.24,31.29)" id="img-8270e48f-29">
          <path fill="none" d="M0,-30.58 L 0 30.58" class="primitive"/>
        </g>
        <g transform="translate(218.97,31.29)" id="img-8270e48f-30">
          <path fill="none" d="M0,-30.58 L 0 30.58" class="primitive"/>
        </g>
      </g>
      <g class="plotpanel" id="img-8270e48f-31">
        <metadata>
          <boundingbox value="18.027222222222242mm 0.7055555555555555mm 202.94722222222222mm 61.16055555555556mm"/>
          <unitbox value="-80.42333952332416 42243.76578390304 8160.846679046647 -43671.87156780609"/>
        </metadata>
        <g stroke-width="0.3" fill="#000000" fill-opacity="0.000" class="geometry" id="img-8270e48f-32">
          <g class="color_RGB{Float64}(0.7186016914382806,8.086625054816313e-7,0.0097916074077615)" stroke-dasharray="none" stroke="#B70002" id="img-8270e48f-33">
            <g transform="translate(119.46,45.06)" id="img-8270e48f-34">
              <path fill="none" d="M-99.4,14.8 L -99.15 14.8 -99.15 14.8 -98.9 14.8 -98.9 14.8 -98.65 14.8 -98.65 14.8 -98.4 14.8 -98.4 14.8 -98.15 14.8 -98.15 14.8 -97.91 14.8 -97.91 14.8 -97.66 14.8 -97.66 14.8 -97.41 14.8 -97.41 14.8 -97.16 14.8 -97.16 14.8 -96.91 14.8 -96.91 14.8 -96.66 14.8 -96.66 14.8 -96.41 14.8 -96.41 14.8 -96.16 14.8 -96.16 14.8 -95.92 14.8 -95.92 14.8 -95.67 14.8 -95.67 14.8 -95.42 14.8 -95.42 14.8 -95.17 14.8 -95.17 14.8 -94.92 14.8 -94.92 14.8 -94.67 14.8 -94.67 14.8 -94.42 14.8 -94.42 14.8 -94.18 14.8 -94.18 14.8 -93.93 14.8 -93.93 14.77 -93.68 14.77 -93.68 14.69 -93.43 14.69 -93.43 14.43 -93.18 14.43 -93.18 13.8 -92.93 13.8 -92.93 12.45 -92.68 12.45 -92.68 10.25 -92.43 10.25 -92.43 8.21 -92.19 8.21 -92.19 7.8 -91.94 7.8 -91.94 8.92 -91.69 8.92 -91.69 8.53 -91.44 8.53 -91.44 5.9 -91.19 5.9 -91.19 3.56 -90.94 3.56 -90.94 1.44 -90.69 1.44 -90.69 0.41 -90.45 0.41 -90.45 0 -90.2 0 -90.2 -0.42 -89.95 -0.42 -89.95 -0.93 -89.7 -0.93 -89.7 -1.15 -89.45 -1.15 -89.45 -0.35 -89.2 -0.35 -89.2 -1.07 -88.95 -1.07 -88.95 -3.69 -88.71 -3.69 -88.71 -5.61 -88.46 -5.61 -88.46 -7.15 -88.21 -7.15 -88.21 -8.75 -87.96 -8.75 -87.96 -10.38 -87.71 -10.38 -87.71 -11.86 -87.46 -11.86 -87.46 -13.2 -87.21 -13.2 -87.21 -14.29 -86.96 -14.29 -86.96 -14.92 -86.72 -14.92 -86.72 -14.88 -86.47 -14.88 -86.47 -11.48 -86.22 -11.48 -86.22 -6.49 -85.97 -6.49 -85.97 -4.95 -85.72 -4.95 -85.72 -4.83 -85.47 -4.83 -85.47 -4 -85.22 -4 -85.22 -3.21 -84.98 -3.21 -84.98 -2.64 -84.73 -2.64 -84.73 -2.25 -84.48 -2.25 -84.48 -1.87 -84.23 -1.87 -84.23 -1.38 -83.98 -1.38 -83.98 -0.83 -83.73 -0.83 -83.73 -0.36 -83.48 -0.36 -83.48 -0.05 -83.23 -0.05 -83.23 0.07 -82.99 0.07 -82.99 -0.01 -82.74 -0.01 -82.74 -0.27 -82.49 -0.27 -82.49 -0.66 -82.24 -0.66 -82.24 -1.08 -81.99 -1.08 -81.99 -1.54 -81.74 -1.54 -81.74 -2.08 -81.49 -2.08 -81.49 -2.62 -81.25 -2.62 -81.25 -3.17 -81 -3.17 -81 -3.7 -80.75 -3.7 -80.75 -4.23 -80.5 -4.23 -80.5 -4.77 -80.25 -4.77 -80.25 -5.29 -80 -5.29 -80 -5.76 -79.75 -5.76 -79.75 -6.22 -79.51 -6.22 -79.51 -6.71 -79.26 -6.71 -79.26 -7.23 -79.01 -7.23 -79.01 -7.74 -78.76 -7.74 -78.76 -8.24 -78.51 -8.24 -78.51 -8.72 -78.26 -8.72 -78.26 -9.21 -78.01 -9.21 -78.01 -9.7 -77.76 -9.7 -77.76 -10.18 -77.52 -10.18 -77.52 -10.64 -77.27 -10.64 -77.27 -11.11 -77.02 -11.11 -77.02 -11.58 -76.77 -11.58 -76.77 -12.08 -76.52 -12.08 -76.52 -12.55 -76.27 -12.55 -76.27 -12.98 -76.02 -12.98 -76.02 -13.42 -75.78 -13.42 -75.78 -13.86 -75.53 -13.86 -75.53 -14.31 -75.28 -14.31 -75.28 -14.75 -75.03 -14.75 -75.03 -15.18 -74.78 -15.18 -74.78 -15.61 -74.53 -15.61 -74.53 -16.04 -74.28 -16.04 -74.28 -16.46 -74.03 -16.46 -74.03 -16.88 -73.79 -16.88 -73.79 -17.28 -73.54 -17.28 -73.54 -17.69 -73.29 -17.69 -73.29 -18.09 -73.04 -18.09 -73.04 -18.46 -72.79 -18.46 -72.79 -18.83 -72.54 -18.83 -72.54 -19.18 -72.29 -19.18 -72.29 -19.53 -72.05 -19.53 -72.05 -19.86 -71.8 -19.86 -71.8 -20.17 -71.55 -20.17 -71.55 -20.47 -71.3 -20.47 -71.3 -20.78 -71.05 -20.78 -71.05 -21.08 -70.8 -21.08 -70.8 -21.38 -70.55 -21.38 -70.55 -21.64 -70.31 -21.64 -70.31 -21.89 -70.06 -21.89 -70.06 -22.16 -69.81 -22.16 -69.81 -22.39 -69.56 -22.39 -69.56 -22.61 -69.31 -22.61 -69.31 -22.79 -69.06 -22.79 -69.06 -22.91 -68.81 -22.91 -68.81 -22.95 -68.56 -22.95 -68.56 -22.83 -68.32 -22.83 -68.32 -22.42 -68.07 -22.42 -68.07 -21.65 -67.82 -21.65 -67.82 -20.42 -67.57 -20.42 -67.57 -18.66 -67.32 -18.66 -67.32 -16.4 -67.07 -16.4 -67.07 -13.8 -66.82 -13.8 -66.82 -11.06 -66.58 -11.06 -66.58 -8.44 -66.33 -8.44 -66.33 -6.14 -66.08 -6.14 -66.08 -4.29 -65.83 -4.29 -65.83 -2.94 -65.58 -2.94 -65.58 -2.04 -65.33 -2.04 -65.33 -1.51 -65.08 -1.51 -65.08 -1.24 -64.83 -1.24 -64.83 -1.14 -64.59 -1.14 -64.59 -1.14 -64.34 -1.14 -64.34 -1.2 -64.09 -1.2 -64.09 -1.3 -63.84 -1.3 -63.84 -1.43 -63.59 -1.43 -63.59 -1.55 -63.34 -1.55 -63.34 -1.68 -63.09 -1.68 -63.09 -1.83 -62.85 -1.83 -62.85 -1.97 -62.6 -1.97 -62.6 -2.12 -62.35 -2.12 -62.35 -2.28 -62.1 -2.28 -62.1 -2.44 -61.85 -2.44 -61.85 -2.59 -61.6 -2.59 -61.6 -2.75 -61.35 -2.75 -61.35 -2.91 -61.11 -2.91 -61.11 -3.02 -60.86 -3.02 -60.86 -2.82 -60.61 -2.82 -60.61 -2.58 -60.36 -2.58 -60.36 -2.74 -60.11 -2.74 -60.11 -2.99 -59.86 -2.99 -59.86 -3.14 -59.61 -3.14 -59.61 -3.34 -59.36 -3.34 -59.36 -3.56 -59.12 -3.56 -59.12 -3.72 -58.87 -3.72 -58.87 -3.83 -58.62 -3.83 -58.62 -3.99 -58.37 -3.99 -58.37 -4.17 -58.12 -4.17 -58.12 -4.33 -57.87 -4.33 -57.87 -4.46 -57.62 -4.46 -57.62 -4.59 -57.38 -4.59 -57.38 -4.72 -57.13 -4.72 -57.13 -4.86 -56.88 -4.86 -56.88 -5 -56.63 -5 -56.63 -5.14 -56.38 -5.14 -56.38 -5.25 -56.13 -5.25 -56.13 -5.37 -55.88 -5.37 -55.88 -5.48 -55.63 -5.48 -55.63 -5.59 -55.39 -5.59 -55.39 -5.71 -55.14 -5.71 -55.14 -5.81 -54.89 -5.81 -54.89 -5.91 -54.64 -5.91 -54.64 -6 -54.39 -6 -54.39 -6.1 -54.14 -6.1 -54.14 -6.2 -53.89 -6.2 -53.89 -6.24 -53.65 -6.24 -53.65 -6.09 -53.4 -6.09 -53.4 -5.99 -53.15 -5.99 -53.15 -6.06 -52.9 -6.06 -52.9 -6.14 -52.65 -6.14 -52.65 -6.22 -52.4 -6.22 -52.4 -6.28 -52.15 -6.28 -52.15 -6.35 -51.91 -6.35 -51.91 -6.43 -51.66 -6.43 -51.66 -6.5 -51.41 -6.5 -51.41 -6.56 -51.16 -6.56 -51.16 -6.63 -50.91 -6.63 -50.91 -6.69 -50.66 -6.69 -50.66 -6.76 -50.41 -6.76 -50.41 -6.81 -50.16 -6.81 -50.16 -6.87 -49.92 -6.87 -49.92 -6.93 -49.67 -6.93 -49.67 -6.98 -49.42 -6.98 -49.42 -7.03 -49.17 -7.03 -49.17 -7.08 -48.92 -7.08 -48.92 -7.12 -48.67 -7.12 -48.67 -7.17 -48.42 -7.17 -48.42 -7.21 -48.18 -7.21 -48.18 -7.25 -47.93 -7.25 -47.93 -7.29 -47.68 -7.29 -47.68 -7.33 -47.43 -7.33 -47.43 -7.36 -47.18 -7.36 -47.18 -7.39 -46.93 -7.39 -46.93 -7.43 -46.68 -7.43 -46.68 -7.46 -46.44 -7.46 -46.44 -7.48 -46.19 -7.48 -46.19 -7.51 -45.94 -7.51 -45.94 -7.53 -45.69 -7.53 -45.69 -7.56 -45.44 -7.56 -45.44 -7.58 -45.19 -7.58 -45.19 -7.6 -44.94 -7.6 -44.94 -7.62 -44.69 -7.62 -44.69 -7.63 -44.45 -7.63 -44.45 -7.65 -44.2 -7.65 -44.2 -7.66 -43.95 -7.66 -43.95 -7.67 -43.7 -7.67 -43.7 -7.69 -43.45 -7.69 -43.45 -7.69 -43.2 -7.69 -43.2 -7.7 -42.95 -7.7 -42.95 -7.71 -42.71 -7.71 -42.71 -7.72 -42.46 -7.72 -42.46 -7.72 -42.21 -7.72 -42.21 -7.72 -41.96 -7.72 -41.96 -7.72 -41.71 -7.72 -41.71 -7.73 -41.46 -7.73 -41.46 -7.72 -41.21 -7.72 -41.21 -7.72 -40.96 -7.72 -40.96 -7.72 -40.72 -7.72 -40.72 -7.72 -40.47 -7.72 -40.47 -7.71 -40.22 -7.71 -40.22 -7.7 -39.97 -7.7 -39.97 -7.7 -39.72 -7.7 -39.72 -7.69 -39.47 -7.69 -39.47 -7.68 -39.22 -7.68 -39.22 -7.67 -38.98 -7.67 -38.98 -7.66 -38.73 -7.66 -38.73 -7.65 -38.48 -7.65 -38.48 -7.63 -38.23 -7.63 -38.23 -7.62 -37.98 -7.62 -37.98 -7.6 -37.73 -7.6 -37.73 -7.59 -37.48 -7.59 -37.48 -7.57 -37.24 -7.57 -37.24 -7.55 -36.99 -7.55 -36.99 -7.53 -36.74 -7.53 -36.74 -7.51 -36.49 -7.51 -36.49 -7.5 -36.24 -7.5 -36.24 -7.47 -35.99 -7.47 -35.99 -7.45 -35.74 -7.45 -35.74 -7.43 -35.49 -7.43 -35.49 -7.41 -35.25 -7.41 -35.25 -7.39 -35 -7.39 -35 -7.36 -34.75 -7.36 -34.75 -7.34 -34.5 -7.34 -34.5 -7.31 -34.25 -7.31 -34.25 -7.29 -34 -7.29 -34 -7.26 -33.75 -7.26 -33.75 -7.24 -33.51 -7.24 -33.51 -7.21 -33.26 -7.21 -33.26 -7.18 -33.01 -7.18 -33.01 -7.15 -32.76 -7.15 -32.76 -7.12 -32.51 -7.12 -32.51 -7.09 -32.26 -7.09 -32.26 -7.06 -32.01 -7.06 -32.01 -7.03 -31.76 -7.03 -31.76 -7 -31.52 -7 -31.52 -6.97 -31.27 -6.97 -31.27 -6.94 -31.02 -6.94 -31.02 -6.9 -30.77 -6.9 -30.77 -6.87 -30.52 -6.87 -30.52 -6.84 -30.27 -6.84 -30.27 -6.8 -30.02 -6.8 -30.02 -6.77 -29.78 -6.77 -29.78 -6.73 -29.53 -6.73 -29.53 -6.7 -29.28 -6.7 -29.28 -6.66 -29.03 -6.66 -29.03 -6.63 -28.78 -6.63 -28.78 -6.59 -28.53 -6.59 -28.53 -6.55 -28.28 -6.55 -28.28 -6.52 -28.04 -6.52 -28.04 -6.48 -27.79 -6.48 -27.79 -6.44 -27.54 -6.44 -27.54 -6.4 -27.29 -6.4 -27.29 -6.36 -27.04 -6.36 -27.04 -6.32 -26.79 -6.32 -26.79 -6.28 -26.54 -6.28 -26.54 -6.25 -26.29 -6.25 -26.29 -6.21 -26.05 -6.21 -26.05 -6.17 -25.8 -6.17 -25.8 -6.13 -25.55 -6.13 -25.55 -6.09 -25.3 -6.09 -25.3 -6.04 -25.05 -6.04 -25.05 -6 -24.8 -6 -24.8 -5.96 -24.55 -5.96 -24.55 -5.92 -24.31 -5.92 -24.31 -5.88 -24.06 -5.88 -24.06 -5.84 -23.81 -5.84 -23.81 -5.79 -23.56 -5.79 -23.56 -5.75 -23.31 -5.75 -23.31 -5.71 -23.06 -5.71 -23.06 -5.67 -22.81 -5.67 -22.81 -5.62 -22.56 -5.62 -22.56 -5.58 -22.32 -5.58 -22.32 -5.54 -22.07 -5.54 -22.07 -5.49 -21.82 -5.49 -21.82 -5.45 -21.57 -5.45 -21.57 -5.41 -21.32 -5.41 -21.32 -5.36 -21.07 -5.36 -21.07 -5.32 -20.82 -5.32 -20.82 -5.27 -20.58 -5.27 -20.58 -5.23 -20.33 -5.23 -20.33 -5.19 -20.08 -5.19 -20.08 -5.14 -19.83 -5.14 -19.83 -5.1 -19.58 -5.1 -19.58 -5.05 -19.33 -5.05 -19.33 -5.01 -19.08 -5.01 -19.08 -4.96 -18.84 -4.96 -18.84 -4.92 -18.59 -4.92 -18.59 -4.87 -18.34 -4.87 -18.34 -4.83 -18.09 -4.83 -18.09 -4.78 -17.84 -4.78 -17.84 -4.73 -17.59 -4.73 -17.59 -4.69 -17.34 -4.69 -17.34 -4.64 -17.09 -4.64 -17.09 -4.6 -16.85 -4.6 -16.85 -4.55 -16.6 -4.55 -16.6 -4.5 -16.35 -4.5 -16.35 -4.46 -16.1 -4.46 -16.1 -4.41 -15.85 -4.41 -15.85 -4.37 -15.6 -4.37 -15.6 -4.32 -15.35 -4.32 -15.35 -4.27 -15.11 -4.27 -15.11 -4.23 -14.86 -4.23 -14.86 -4.18 -14.61 -4.18 -14.61 -4.13 -14.36 -4.13 -14.36 -4.09 -14.11 -4.09 -14.11 -4.04 -13.86 -4.04 -13.86 -3.99 -13.61 -3.99 -13.61 -3.94 -13.36 -3.94 -13.36 -3.9 -13.12 -3.9 -13.12 -3.85 -12.87 -3.85 -12.87 -3.8 -12.62 -3.8 -12.62 -3.76 -12.37 -3.76 -12.37 -3.71 -12.12 -3.71 -12.12 -3.66 -11.87 -3.66 -11.87 -3.62 -11.62 -3.62 -11.62 -3.57 -11.38 -3.57 -11.38 -3.52 -11.13 -3.52 -11.13 -3.48 -10.88 -3.48 -10.88 -3.43 -10.63 -3.43 -10.63 -3.38 -10.38 -3.38 -10.38 -3.33 -10.13 -3.33 -10.13 -3.29 -9.88 -3.29 -9.88 -3.24 -9.64 -3.24 -9.64 -3.19 -9.39 -3.19 -9.39 -3.15 -9.14 -3.15 -9.14 -3.1 -8.89 -3.1 -8.89 -3.05 -8.64 -3.05 -8.64 -3.01 -8.39 -3.01 -8.39 -2.96 -8.14 -2.96 -8.14 -2.91 -7.89 -2.91 -7.89 -2.87 -7.65 -2.87 -7.65 -2.82 -7.4 -2.82 -7.4 -2.77 -7.15 -2.77 -7.15 -2.73 -6.9 -2.73 -6.9 -2.68 -6.65 -2.68 -6.65 -2.63 -6.4 -2.63 -6.4 -2.59 -6.15 -2.59 -6.15 -2.54 -5.91 -2.54 -5.91 -2.49 -5.66 -2.49 -5.66 -2.45 -5.41 -2.45 -5.41 -2.4 -5.16 -2.4 -5.16 -2.35 -4.91 -2.35 -4.91 -2.31 -4.66 -2.31 -4.66 -2.26 -4.41 -2.26 -4.41 -2.22 -4.16 -2.22 -4.16 -2.17 -3.92 -2.17 -3.92 -2.12 -3.67 -2.12 -3.67 -2.08 -3.42 -2.08 -3.42 -2.03 -3.17 -2.03 -3.17 -1.99 -2.92 -1.99 -2.92 -1.94 -2.67 -1.94 -2.67 -1.9 -2.42 -1.9 -2.42 -1.85 -2.18 -1.85 -2.18 -1.81 -1.93 -1.81 -1.93 -1.76 -1.68 -1.76 -1.68 -1.71 -1.43 -1.71 -1.43 -1.67 -1.18 -1.67 -1.18 -1.62 -0.93 -1.62 -0.93 -1.58 -0.68 -1.58 -0.68 -1.53 -0.44 -1.53 -0.44 -1.49 -0.19 -1.49 -0.19 -1.44 0.06 -1.44 0.06 -1.4 0.31 -1.4 0.31 -1.36 0.56 -1.36 0.56 -1.31 0.81 -1.31 0.81 -1.27 1.06 -1.27 1.06 -1.22 1.31 -1.22 1.31 -1.18 1.55 -1.18 1.55 -1.13 1.8 -1.13 1.8 -1.09 2.05 -1.09 2.05 -1.05 2.3 -1.05 2.3 -1 2.55 -1 2.55 -0.96 2.8 -0.96 2.8 -0.91 3.05 -0.91 3.05 -0.87 3.29 -0.87 3.29 -0.83 3.54 -0.83 3.54 -0.78 3.79 -0.78 3.79 -0.74 4.04 -0.74 4.04 -0.7 4.29 -0.7 4.29 -0.65 4.54 -0.65 4.54 -0.61 4.79 -0.61 4.79 -0.57 5.04 -0.57 5.04 -0.53 5.28 -0.53 5.28 -0.48 5.53 -0.48 5.53 -0.44 5.78 -0.44 5.78 -0.4 6.03 -0.4 6.03 -0.36 6.28 -0.36 6.28 -0.31 6.53 -0.31 6.53 -0.27 6.78 -0.27 6.78 -0.23 7.02 -0.23 7.02 -0.19 7.27 -0.19 7.27 -0.15 7.52 -0.15 7.52 -0.1 7.77 -0.1 7.77 -0.06 8.02 -0.06 8.02 -0.02 8.27 -0.02 8.27 0.02 8.52 0.02 8.52 0.06 8.76 0.06 8.76 0.1 9.01 0.1 9.01 0.14 9.26 0.14 9.26 0.19 9.51 0.19 9.51 0.23 9.76 0.23 9.76 0.27 10.01 0.27 10.01 0.31 10.26 0.31 10.26 0.35 10.51 0.35 10.51 0.39 10.75 0.39 10.75 0.43 11 0.43 11 0.47 11.25 0.47 11.25 0.51 11.5 0.51 11.5 0.55 11.75 0.55 11.75 0.59 12 0.59 12 0.63 12.25 0.63 12.25 0.67 12.49 0.67 12.49 0.71 12.74 0.71 12.74 0.75 12.99 0.75 12.99 0.79 13.24 0.79 13.24 0.83 13.49 0.83 13.49 0.87 13.74 0.87 13.74 0.91 13.99 0.91 13.99 0.94 14.24 0.94 14.24 0.98 14.48 0.98 14.48 1.02 14.73 1.02 14.73 1.06 14.98 1.06 14.98 1.1 15.23 1.1 15.23 1.14 15.48 1.14 15.48 1.18 15.73 1.18 15.73 1.21 15.98 1.21 15.98 1.25 16.22 1.25 16.22 1.29 16.47 1.29 16.47 1.33 16.72 1.33 16.72 1.37 16.97 1.37 16.97 1.4 17.22 1.4 17.22 1.44 17.47 1.44 17.47 1.48 17.72 1.48 17.72 1.52 17.96 1.52 17.96 1.55 18.21 1.55 18.21 1.59 18.46 1.59 18.46 1.63 18.71 1.63 18.71 1.66 18.96 1.66 18.96 1.7 19.21 1.7 19.21 1.74 19.46 1.74 19.46 1.78 19.71 1.78 19.71 1.81 19.95 1.81 19.95 1.85 20.2 1.85 20.2 1.88 20.45 1.88 20.45 1.92 20.7 1.92 20.7 1.96 20.95 1.96 20.95 1.99 21.2 1.99 21.2 2.03 21.45 2.03 21.45 2.06 21.69 2.06 21.69 2.1 21.94 2.1 21.94 2.14 22.19 2.14 22.19 2.17 22.44 2.17 22.44 2.21 22.69 2.21 22.69 2.24 22.94 2.24 22.94 2.28 23.19 2.28 23.19 2.31 23.44 2.31 23.44 2.35 23.68 2.35 23.68 2.38 23.93 2.38 23.93 2.42 24.18 2.42 24.18 2.45 24.43 2.45 24.43 2.49 24.68 2.49 24.68 2.52 24.93 2.52 24.93 2.55 25.18 2.55 25.18 2.59 25.42 2.59 25.42 2.62 25.67 2.62 25.67 2.66 25.92 2.66 25.92 2.69 26.17 2.69 26.17 2.72 26.42 2.72 26.42 2.76 26.67 2.76 26.67 2.79 26.92 2.79 26.92 2.82 27.16 2.82 27.16 2.86 27.41 2.86 27.41 2.89 27.66 2.89 27.66 2.92 27.91 2.92 27.91 2.96 28.16 2.96 28.16 2.99 28.41 2.99 28.41 3.02 28.66 3.02 28.66 3.06 28.91 3.06 28.91 3.09 29.15 3.09 29.15 3.12 29.4 3.12 29.4 3.15 29.65 3.15 29.65 3.19 29.9 3.19 29.9 3.22 30.15 3.22 30.15 3.25 30.4 3.25 30.4 3.28 30.65 3.28 30.65 3.31 30.89 3.31 30.89 3.35 31.14 3.35 31.14 3.38 31.39 3.38 31.39 3.41 31.64 3.41 31.64 3.44 31.89 3.44 31.89 3.47 32.14 3.47 32.14 3.5 32.39 3.5 32.39 3.54 32.64 3.54 32.64 3.57 32.88 3.57 32.88 3.6 33.13 3.6 33.13 3.63 33.38 3.63 33.38 3.66 33.63 3.66 33.63 3.69 33.88 3.69 33.88 3.72 34.13 3.72 34.13 3.75 34.38 3.75 34.38 3.78 34.62 3.78 34.62 3.81 34.87 3.81 34.87 3.84 35.12 3.84 35.12 3.87 35.37 3.87 35.37 3.9 35.62 3.9 35.62 3.93 35.87 3.93 35.87 3.96 36.12 3.96 36.12 3.99 36.36 3.99 36.36 4.02 36.61 4.02 36.61 4.05 36.86 4.05 36.86 4.08 37.11 4.08 37.11 4.11 37.36 4.11 37.36 4.14 37.61 4.14 37.61 4.17 37.86 4.17 37.86 4.2 38.11 4.2 38.11 4.23 38.35 4.23 38.35 4.26 38.6 4.26 38.6 4.29 38.85 4.29 38.85 4.32 39.1 4.32 39.1 4.35 39.35 4.35 39.35 4.37 39.6 4.37 39.6 4.4 39.85 4.4 39.85 4.43 40.09 4.43 40.09 4.46 40.34 4.46 40.34 4.49 40.59 4.49 40.59 4.52 40.84 4.52 40.84 4.55 41.09 4.55 41.09 4.57 41.34 4.57 41.34 4.6 41.59 4.6 41.59 4.63 41.84 4.63 41.84 4.66 42.08 4.66 42.08 4.68 42.33 4.68 42.33 4.71 42.58 4.71 42.58 4.74 42.83 4.74 42.83 4.77 43.08 4.77 43.08 4.79 43.33 4.79 43.33 4.82 43.58 4.82 43.58 4.85 43.82 4.85 43.82 4.88 44.07 4.88 44.07 4.9 44.32 4.9 44.32 4.93 44.57 4.93 44.57 4.96 44.82 4.96 44.82 4.98 45.07 4.98 45.07 5.01 45.32 5.01 45.32 5.04 45.56 5.04 45.56 5.06 45.81 5.06 45.81 5.09 46.06 5.09 46.06 5.12 46.31 5.12 46.31 5.14 46.56 5.14 46.56 5.17 46.81 5.17 46.81 5.2 47.06 5.2 47.06 5.22 47.31 5.22 47.31 5.25 47.55 5.25 47.55 5.27 47.8 5.27 47.8 5.3 48.05 5.3 48.05 5.33 48.3 5.33 48.3 5.35 48.55 5.35 48.55 5.38 48.8 5.38 48.8 5.4 49.05 5.4 49.05 5.43 49.29 5.43 49.29 5.45 49.54 5.45 49.54 5.48 49.79 5.48 49.79 5.5 50.04 5.5 50.04 5.53 50.29 5.53 50.29 5.55 50.54 5.55 50.54 5.58 50.79 5.58 50.79 5.6 51.04 5.6 51.04 5.63 51.28 5.63 51.28 5.65 51.53 5.65 51.53 5.68 51.78 5.68 51.78 5.7 52.03 5.7 52.03 5.73 52.28 5.73 52.28 5.75 52.53 5.75 52.53 5.78 52.78 5.78 52.78 5.8 53.02 5.8 53.02 5.83 53.27 5.83 53.27 5.85 53.52 5.85 53.52 5.87 53.77 5.87 53.77 5.9 54.02 5.9 54.02 5.92 54.27 5.92 54.27 5.95 54.52 5.95 54.52 5.97 54.76 5.97 54.76 5.99 55.01 5.99 55.01 6.02 55.26 6.02 55.26 6.04 55.51 6.04 55.51 6.06 55.76 6.06 55.76 6.09 56.01 6.09 56.01 6.11 56.26 6.11 56.26 6.13 56.51 6.13 56.51 6.16 56.75 6.16 56.75 6.18 57 6.18 57 6.2 57.25 6.2 57.25 6.23 57.5 6.23 57.5 6.25 57.75 6.25 57.75 6.27 58 6.27 58 6.3 58.25 6.3 58.25 6.32 58.49 6.32 58.49 6.34 58.74 6.34 58.74 6.36 58.99 6.36 58.99 6.39 59.24 6.39 59.24 6.41 59.49 6.41 59.49 6.43 59.74 6.43 59.74 6.45 59.99 6.45 59.99 6.48 60.24 6.48 60.24 6.5 60.48 6.5 60.48 6.52 60.73 6.52 60.73 6.54 60.98 6.54 60.98 6.56 61.23 6.56 61.23 6.59 61.48 6.59 61.48 6.61 61.73 6.61 61.73 6.63 61.98 6.63 61.98 6.65 62.22 6.65 62.22 6.67 62.47 6.67 62.47 6.7 62.72 6.7 62.72 6.72 62.97 6.72 62.97 6.74 63.22 6.74 63.22 6.76 63.47 6.76 63.47 6.78 63.72 6.78 63.72 6.8 63.96 6.8 63.96 6.82 64.21 6.82 64.21 6.85 64.46 6.85 64.46 6.87 64.71 6.87 64.71 6.89 64.96 6.89 64.96 6.91 65.21 6.91 65.21 6.93 65.46 6.93 65.46 6.95 65.71 6.95 65.71 6.97 65.95 6.97 65.95 6.99 66.2 6.99 66.2 7.01 66.45 7.01 66.45 7.03 66.7 7.03 66.7 7.06 66.95 7.06 66.95 7.08 67.2 7.08 67.2 7.1 67.45 7.1 67.45 7.12 67.69 7.12 67.69 7.14 67.94 7.14 67.94 7.16 68.19 7.16 68.19 7.18 68.44 7.18 68.44 7.2 68.69 7.2 68.69 7.22 68.94 7.22 68.94 7.24 69.19 7.24 69.19 7.26 69.44 7.26 69.44 7.28 69.68 7.28 69.68 7.3 69.93 7.3 69.93 7.32 70.18 7.32 70.18 7.34 70.43 7.34 70.43 7.36 70.68 7.36 70.68 7.38 70.93 7.38 70.93 7.4 71.18 7.4 71.18 7.42 71.42 7.42 71.42 7.44 71.67 7.44 71.67 7.46 71.92 7.46 71.92 7.48 72.17 7.48 72.17 7.49 72.42 7.49 72.42 7.51 72.67 7.51 72.67 7.53 72.92 7.53 72.92 7.55 73.16 7.55 73.16 7.57 73.41 7.57 73.41 7.59 73.66 7.59 73.66 7.61 73.91 7.61 73.91 7.63 74.16 7.63 74.16 7.65 74.41 7.65 74.41 7.67 74.66 7.67 74.66 7.69 74.91 7.69 74.91 7.7 75.15 7.7 75.15 7.72 75.4 7.72 75.4 7.74 75.65 7.74 75.65 7.76 75.9 7.76 75.9 7.78 76.15 7.78 76.15 7.8 76.4 7.8 76.4 7.82 76.65 7.82 76.65 7.83 76.89 7.83 76.89 7.85 77.14 7.85 77.14 7.87 77.39 7.87 77.39 7.89 77.64 7.89 77.64 7.91 77.89 7.91 77.89 7.93 78.14 7.93 78.14 7.94 78.39 7.94 78.39 7.96 78.64 7.96 78.64 7.98 78.88 7.98 78.88 8 79.13 8 79.13 8.02 79.38 8.02 79.38 8.03 79.63 8.03 79.63 8.05 79.88 8.05 79.88 8.07 80.13 8.07 80.13 8.09 80.38 8.09 80.38 8.1 80.62 8.1 80.62 8.12 80.87 8.12 80.87 8.14 81.12 8.14 81.12 8.16 81.37 8.16 81.37 8.18 81.62 8.18 81.62 8.19 81.87 8.19 81.87 8.21 82.12 8.21 82.12 8.23 82.36 8.23 82.36 8.24 82.61 8.24 82.61 8.26 82.86 8.26 82.86 8.28 83.11 8.28 83.11 8.3 83.36 8.3 83.36 8.31 83.61 8.31 83.61 8.33 83.86 8.33 83.86 8.35 84.11 8.35 84.11 8.36 84.35 8.36 84.35 8.38 84.6 8.38 84.6 8.4 84.85 8.4 84.85 8.42 85.1 8.42 85.1 8.43 85.35 8.43 85.35 8.45 85.6 8.45 85.6 8.47 85.85 8.47 85.85 8.48 86.09 8.48 86.09 8.5 86.34 8.5 86.34 8.52 86.59 8.52 86.59 8.53 86.84 8.53 86.84 8.55 87.09 8.55 87.09 8.57 87.34 8.57 87.34 8.58 87.59 8.58 87.59 8.6 87.84 8.6 87.84 8.61 88.08 8.61 88.08 8.63 88.33 8.63 88.33 8.65 88.58 8.65 88.58 8.66 88.83 8.66 88.83 8.68 89.08 8.68 89.08 8.7 89.33 8.7 89.33 8.71 89.58 8.71 89.58 8.73 89.82 8.73 89.82 8.74 90.07 8.74 90.07 8.76 90.32 8.76 90.32 8.78 90.57 8.78 90.57 8.79 90.82 8.79 90.82 8.81 91.07 8.81 91.07 8.82 91.32 8.82 91.32 8.84 91.56 8.84 91.56 8.85 91.81 8.85 91.81 8.87 92.06 8.87 92.06 8.89 92.31 8.89 92.31 8.9 92.56 8.9 92.56 8.92 92.81 8.92 92.81 8.93 93.06 8.93 93.06 8.95 93.31 8.95 93.31 8.96 93.55 8.96 93.55 8.98 93.8 8.98 93.8 8.99 94.05 8.99 94.05 9.01 94.3 9.01 94.3 9.02 94.55 9.02 94.55 9.04 94.8 9.04 94.8 9.06 95.05 9.06 95.05 9.07 95.29 9.07 95.29 9.09 95.54 9.09 95.54 9.1 95.79 9.1 95.79 9.12 96.04 9.12 96.04 9.13 96.29 9.13 96.29 9.15 96.54 9.15 96.54 9.16 96.79 9.16 96.79 9.18 97.04 9.18 97.04 9.19 97.28 9.19 97.28 9.21 97.53 9.21 97.53 9.22 97.78 9.22 97.78 9.23 98.03 9.23 98.03 9.25 98.28 9.25 98.28 9.26 98.53 9.26 98.53 9.28 98.78 9.28 98.78 9.29 99.02 9.29 99.02 9.31 99.27 9.31 99.27 9.32" class="primitive"/>
            </g>
          </g>
        </g>
        <g stroke-width="0.3" fill="#000000" fill-opacity="0.000" class="geometry" id="img-8270e48f-35">
          <g class="color_RGB{Float64}(0.06274509803921569,0.3058823529411765,0.5450980392156862)" stroke-dasharray="none" stroke="#104E8B" id="img-8270e48f-36">
            <g transform="translate(119.46,-25.14)" id="img-8270e48f-37">
              <path fill="none" d="M-99.4,84.99 L -99.15 84.99 -99.15 84.99 -98.9 84.99 -98.9 84.98 -98.65 84.98 -98.65 84.98 -98.4 84.98 -98.4 84.99 -98.15 84.99 -98.15 85 -97.91 85 -97.91 85 -97.66 85 -97.66 85 -97.41 85 -97.41 85 -97.16 85 -97.16 85.01 -96.91 85.01 -96.91 85 -96.66 85 -96.66 85 -96.41 85 -96.41 84.98 -96.16 84.98 -96.16 84.97 -95.92 84.97 -95.92 84.92 -95.67 84.92 -95.67 84.84 -95.42 84.84 -95.42 84.75 -95.17 84.75 -95.17 84.53 -94.92 84.53 -94.92 84.21 -94.67 84.21 -94.67 83.68 -94.42 83.68 -94.42 82.57 -94.18 82.57 -94.18 80.33 -93.93 80.33 -93.93 76.3 -93.68 76.3 -93.68 69.5 -93.43 69.5 -93.43 59.72 -93.18 59.72 -93.18 48.83 -92.93 48.83 -92.93 39.96 -92.68 39.96 -92.68 37.21 -92.43 37.21 -92.43 40.7 -92.19 40.7 -92.19 49.08 -91.94 49.08 -91.94 58.53 -91.69 58.53 -91.69 66.3 -91.44 66.3 -91.44 70.81 -91.19 70.81 -91.19 72.46 -90.94 72.46 -90.94 72.48 -90.69 72.48 -90.69 70.69 -90.45 70.69 -90.45 68.8 -90.2 68.8 -90.2 66.83 -89.95 66.83 -89.95 65.17 -89.7 65.17 -89.7 63.68 -89.45 63.68 -89.45 62.55 -89.2 62.55 -89.2 59.75 -88.95 59.75 -88.95 55.23 -88.71 55.23 -88.71 44.96 -88.46 44.96 -88.46 24.69 -88.21 24.69 -88.21 -17.37 -87.96 -17.37 -87.96 -95.02 -87.71 -95.02 -87.71 -226.35 -87.46 -226.35 -87.46 -426.56 -87.21 -426.56 -87.21 -684.59 -86.96 -684.59 -86.96 -950.06 -86.72 -950.06 -86.72 -1144.02 -86.47 -1144.02 -86.47 -1192.66 -86.22 -1192.66 -86.22 -1075.23 -85.97 -1075.23 -85.97 -830.7 -85.72 -830.7 -85.72 -545.63 -85.47 -545.63 -85.47 -299.08 -85.22 -299.08 -85.22 -122.77 -84.98 -122.77 -84.98 -18.41 -84.73 -18.41 -84.73 34.57 -84.48 34.57 -84.48 57.46 -84.23 57.46 -84.23 66.33 -83.98 66.33 -83.98 69.31 -83.73 69.31 -83.73 69.82 -83.48 69.82 -83.48 69.69 -83.23 69.69 -83.23 68.9 -82.99 68.9 -82.99 68.13 -82.74 68.13 -82.74 67.2 -82.49 67.2 -82.49 66.2 -82.24 66.2 -82.24 66.03 -81.99 66.03 -81.99 65.55 -81.74 65.55 -81.74 66 -81.49 66 -81.49 65.95 -81.25 65.95 -81.25 66.16 -81 66.16 -81 66.08 -80.75 66.08 -80.75 65.96 -80.5 65.96 -80.5 65.74 -80.25 65.74 -80.25 64.99 -80 64.99 -80 64.52 -79.75 64.52 -79.75 63.91 -79.51 63.91 -79.51 63.32 -79.26 63.32 -79.26 62.23 -79.01 62.23 -79.01 61.39 -78.76 61.39 -78.76 60.7 -78.51 60.7 -78.51 60.36 -78.26 60.36 -78.26 59.44 -78.01 59.44 -78.01 58.36 -77.76 58.36 -77.76 58.01 -77.52 58.01 -77.52 57.04 -77.27 57.04 -77.27 56.26 -77.02 56.26 -77.02 55.54 -76.77 55.54 -76.77 54.49 -76.52 54.49 -76.52 53.19 -76.27 53.19 -76.27 52.53 -76.02 52.53 -76.02 51.63 -75.78 51.63 -75.78 50.43 -75.53 50.43 -75.53 49.13 -75.28 49.13 -75.28 47.74 -75.03 47.74 -75.03 46.58 -74.78 46.58 -74.78 45.05 -74.53 45.05 -74.53 42.99 -74.28 42.99 -74.28 41.25 -74.03 41.25 -74.03 38.57 -73.79 38.57 -73.79 36.13 -73.54 36.13 -73.54 33.95 -73.29 33.95 -73.29 31.23 -73.04 31.23 -73.04 28.44 -72.79 28.44 -72.79 26.12 -72.54 26.12 -72.54 22.81 -72.29 22.81 -72.29 19.19 -72.05 19.19 -72.05 15.48 -71.8 15.48 -71.8 10.12 -71.55 10.12 -71.55 4.4 -71.3 4.4 -71.3 -4 -71.05 -4 -71.05 -18.56 -70.8 -18.56 -70.8 -44.2 -70.55 -44.2 -70.55 -96.1 -70.31 -96.1 -70.31 -205.78 -70.06 -205.78 -70.06 -418.72 -69.81 -418.72 -69.81 -795.45 -69.56 -795.45 -69.56 -1399.51 -69.31 -1399.51 -69.31 -2251.52 -69.06 -2251.52 -69.06 -3284.92 -68.81 -3284.92 -68.81 -4347.85 -68.56 -4347.85 -68.56 -5204.69 -68.32 -5204.69 -68.32 -5631.05 -68.07 -5631.05 -68.07 -5517.65 -67.82 -5517.65 -67.82 -4889.75 -67.57 -4889.75 -67.57 -3938.8 -67.32 -3938.8 -67.32 -2875.12 -67.07 -2875.12 -67.07 -1917.73 -66.82 -1917.73 -66.82 -1162.33 -66.58 -1162.33 -66.58 -639.86 -66.33 -639.86 -66.33 -314.48 -66.08 -314.48 -66.08 -129.5 -65.83 -129.5 -65.83 -31.22 -65.58 -31.22 -65.58 18.1 -65.33 18.1 -65.33 42.11 -65.08 42.11 -65.08 53.53 -64.83 53.53 -64.83 59.94 -64.59 59.94 -64.59 63.13 -64.34 63.13 -64.34 65.18 -64.09 65.18 -64.09 66.2 -63.84 66.2 -63.84 66.84 -63.59 66.84 -63.59 66.78 -63.34 66.78 -63.34 66.75 -63.09 66.75 -63.09 66.91 -62.85 66.91 -62.85 66.46 -62.6 66.46 -62.6 66.45 -62.35 66.45 -62.35 66.37 -62.1 66.37 -62.1 66.15 -61.85 66.15 -61.85 66.37 -61.6 66.37 -61.6 66.23 -61.35 66.23 -61.35 66.62 -61.11 66.62 -61.11 66.68 -60.86 66.68 -60.86 66.92 -60.61 66.92 -60.61 67.3 -60.36 67.3 -60.36 67.38 -60.11 67.38 -60.11 67.51 -59.86 67.51 -59.86 67.53 -59.61 67.53 -59.61 67.59 -59.36 67.59 -59.36 67.39 -59.12 67.39 -59.12 66.95 -58.87 66.95 -58.87 66.98 -58.62 66.98 -58.62 66.71 -58.37 66.71 -58.37 66.44 -58.12 66.44 -58.12 66.27 -57.87 66.27 -57.87 65.73 -57.62 65.73 -57.62 65.18 -57.38 65.18 -57.38 64.42 -57.13 64.42 -57.13 63.25 -56.88 63.25 -56.88 61.33 -56.63 61.33 -56.63 59.9 -56.38 59.9 -56.38 57.9 -56.13 57.9 -56.13 55.39 -55.88 55.39 -55.88 53.52 -55.63 53.52 -55.63 51.83 -55.39 51.83 -55.39 51.02 -55.14 51.02 -55.14 51.59 -54.89 51.59 -54.89 52.68 -54.64 52.68 -54.64 54.52 -54.39 54.52 -54.39 56.4 -54.14 56.4 -54.14 58.93 -53.89 58.93 -53.89 60.76 -53.65 60.76 -53.65 62.1 -53.4 62.1 -53.4 63.33 -53.15 63.33 -53.15 63.99 -52.9 63.99 -52.9 64.46 -52.65 64.46 -52.65 64.52 -52.4 64.52 -52.4 64.93 -52.15 64.93 -52.15 65.05 -51.91 65.05 -51.91 64.81 -51.66 64.81 -51.66 64.67 -51.41 64.67 -51.41 64.62 -51.16 64.62 -51.16 65.05 -50.91 65.05 -50.91 64.4 -50.66 64.4 -50.66 64.43 -50.41 64.43 -50.41 64.17 -50.16 64.17 -50.16 64.18 -49.92 64.18 -49.92 64.31 -49.67 64.31 -49.67 63.85 -49.42 63.85 -49.42 63.75 -49.17 63.75 -49.17 63.92 -48.92 63.92 -48.92 64 -48.67 64 -48.67 63.99 -48.42 63.99 -48.42 63.55 -48.18 63.55 -48.18 63.47 -47.93 63.47 -47.93 63.47 -47.68 63.47 -47.68 63.48 -47.43 63.48 -47.43 63.09 -47.18 63.09 -47.18 63.72 -46.93 63.72 -46.93 63.07 -46.68 63.07 -46.68 63.18 -46.44 63.18 -46.44 63.07 -46.19 63.07 -46.19 62.98 -45.94 62.98 -45.94 62.91 -45.69 62.91 -45.69 63.13 -45.44 63.13 -45.44 63.07 -45.19 63.07 -45.19 62.94 -44.94 62.94 -44.94 63.25 -44.69 63.25 -44.69 63.12 -44.45 63.12 -44.45 62.77 -44.2 62.77 -44.2 62.69 -43.95 62.69 -43.95 62.76 -43.7 62.76 -43.7 62.85 -43.45 62.85 -43.45 62.86 -43.2 62.86 -43.2 62.51 -42.95 62.51 -42.95 62.49 -42.71 62.49 -42.71 62.54 -42.46 62.54 -42.46 62.55 -42.21 62.55 -42.21 62.21 -41.96 62.21 -41.96 62.31 -41.71 62.31 -41.71 62.16 -41.46 62.16 -41.46 61.91 -41.21 61.91 -41.21 62.17 -40.96 62.17 -40.96 62.12 -40.72 62.12 -40.72 62 -40.47 62 -40.47 61.87 -40.22 61.87 -40.22 61.79 -39.97 61.79 -39.97 62.05 -39.72 62.05 -39.72 61.72 -39.47 61.72 -39.47 61.35 -39.22 61.35 -39.22 60.58 -38.98 60.58 -38.98 59.94 -38.73 59.94 -38.73 58.4 -38.48 58.4 -38.48 56.64 -38.23 56.64 -38.23 53.98 -37.98 53.98 -37.98 52.07 -37.73 52.07 -37.73 49.54 -37.48 49.54 -37.48 47.29 -37.24 47.29 -37.24 46.02 -36.99 46.02 -36.99 45.41 -36.74 45.41 -36.74 46.18 -36.49 46.18 -36.49 47.76 -36.24 47.76 -36.24 49.53 -35.99 49.53 -35.99 51.47 -35.74 51.47 -35.74 54.14 -35.49 54.14 -35.49 56.51 -35.25 56.51 -35.25 58.11 -35 58.11 -35 59.9 -34.75 59.9 -34.75 60.85 -34.5 60.85 -34.5 61.28 -34.25 61.28 -34.25 61.9 -34 61.9 -34 62.27 -33.75 62.27 -33.75 61.84 -33.51 61.84 -33.51 62.41 -33.26 62.41 -33.26 62.45 -33.01 62.45 -33.01 62.21 -32.76 62.21 -32.76 62.26 -32.51 62.26 -32.51 62.46 -32.26 62.46 -32.26 62.64 -32.01 62.64 -32.01 62.5 -31.76 62.5 -31.76 62.68 -31.52 62.68 -31.52 62.63 -31.27 62.63 -31.27 62.85 -31.02 62.85 -31.02 63.06 -30.77 63.06 -30.77 62.78 -30.52 62.78 -30.52 63.15 -30.27 63.15 -30.27 63.11 -30.02 63.11 -30.02 63.04 -29.78 63.04 -29.78 62.84 -29.53 62.84 -29.53 63.17 -29.28 63.17 -29.28 63.18 -29.03 63.18 -29.03 62.97 -28.78 62.97 -28.78 63.38 -28.53 63.38 -28.53 63.16 -28.28 63.16 -28.28 63.02 -28.04 63.02 -28.04 63.06 -27.79 63.06 -27.79 63.52 -27.54 63.52 -27.54 63.47 -27.29 63.47 -27.29 63.67 -27.04 63.67 -27.04 63.73 -26.79 63.73 -26.79 63.26 -26.54 63.26 -26.54 63.59 -26.29 63.59 -26.29 63.86 -26.05 63.86 -26.05 63.51 -25.8 63.51 -25.8 63.79 -25.55 63.79 -25.55 63.67 -25.3 63.67 -25.3 63.41 -25.05 63.41 -25.05 63.77 -24.8 63.77 -24.8 63.65 -24.55 63.65 -24.55 64.04 -24.31 64.04 -24.31 64.04 -24.06 64.04 -24.06 63.8 -23.81 63.8 -23.81 64.13 -23.56 64.13 -23.56 64.02 -23.31 64.02 -23.31 63.85 -23.06 63.85 -23.06 63.96 -22.81 63.96 -22.81 64.36 -22.56 64.36 -22.56 64.27 -22.32 64.27 -22.32 64.41 -22.07 64.41 -22.07 64.46 -21.82 64.46 -21.82 64.34 -21.57 64.34 -21.57 64.4 -21.32 64.4 -21.32 64.08 -21.07 64.08 -21.07 65.03 -20.82 65.03 -20.82 64.94 -20.58 64.94 -20.58 64.77 -20.33 64.77 -20.33 64.93 -20.08 64.93 -20.08 64.86 -19.83 64.86 -19.83 65.12 -19.58 65.12 -19.58 64.82 -19.33 64.82 -19.33 64.86 -19.08 64.86 -19.08 64.85 -18.84 64.85 -18.84 65.14 -18.59 65.14 -18.59 64.87 -18.34 64.87 -18.34 65.29 -18.09 65.29 -18.09 65.21 -17.84 65.21 -17.84 64.98 -17.59 64.98 -17.59 65.28 -17.34 65.28 -17.34 65.62 -17.09 65.62 -17.09 65.59 -16.85 65.59 -16.85 65.36 -16.6 65.36 -16.6 65.59 -16.35 65.59 -16.35 65.73 -16.1 65.73 -16.1 65.77 -15.85 65.77 -15.85 65.65 -15.6 65.65 -15.6 65.98 -15.35 65.98 -15.35 65.72 -15.11 65.72 -15.11 65.71 -14.86 65.71 -14.86 65.9 -14.61 65.9 -14.61 65.98 -14.36 65.98 -14.36 66.08 -14.11 66.08 -14.11 65.83 -13.86 65.83 -13.86 66.19 -13.61 66.19 -13.61 66.1 -13.36 66.1 -13.36 66.22 -13.12 66.22 -13.12 66.24 -12.87 66.24 -12.87 66.2 -12.62 66.2 -12.62 66.28 -12.37 66.28 -12.37 66.18 -12.12 66.18 -12.12 66.49 -11.87 66.49 -11.87 66.51 -11.62 66.51 -11.62 66.27 -11.38 66.27 -11.38 66.37 -11.13 66.37 -11.13 66.46 -10.88 66.46 -10.88 66.58 -10.63 66.58 -10.63 66.46 -10.38 66.46 -10.38 66.63 -10.13 66.63 -10.13 66.68 -9.88 66.68 -9.88 66.31 -9.64 66.31 -9.64 66.46 -9.39 66.46 -9.39 66.8 -9.14 66.8 -9.14 66.7 -8.89 66.7 -8.89 66.42 -8.64 66.42 -8.64 66.54 -8.39 66.54 -8.39 66.25 -8.14 66.25 -8.14 66.42 -7.89 66.42 -7.89 66.34 -7.65 66.34 -7.65 66.2 -7.4 66.2 -7.4 66 -7.15 66 -7.15 66.54 -6.9 66.54 -6.9 66.43 -6.65 66.43 -6.65 66.62 -6.4 66.62 -6.4 66.88 -6.15 66.88 -6.15 66.99 -5.91 66.99 -5.91 67.01 -5.66 67.01 -5.66 67.54 -5.41 67.54 -5.41 67.72 -5.16 67.72 -5.16 67.67 -4.91 67.67 -4.91 67.46 -4.66 67.46 -4.66 67.61 -4.41 67.61 -4.41 67.92 -4.16 67.92 -4.16 67.85 -3.92 67.85 -3.92 67.88 -3.67 67.88 -3.67 67.95 -3.42 67.95 -3.42 68.07 -3.17 68.07 -3.17 68.03 -2.92 68.03 -2.92 67.95 -2.67 67.95 -2.67 68.27 -2.42 68.27 -2.42 68.07 -2.18 68.07 -2.18 67.98 -1.93 67.98 -1.93 68.32 -1.68 68.32 -1.68 68.17 -1.43 68.17 -1.43 68.52 -1.18 68.52 -1.18 68.31 -0.93 68.31 -0.93 68.46 -0.68 68.46 -0.68 68.22 -0.44 68.22 -0.44 68.63 -0.19 68.63 -0.19 68.53 0.06 68.53 0.06 68.85 0.31 68.85 0.31 68.5 0.56 68.5 0.56 68.45 0.81 68.45 0.81 68.5 1.06 68.5 1.06 68.8 1.31 68.8 1.31 68.7 1.55 68.7 1.55 69.21 1.8 69.21 1.8 68.94 2.05 68.94 2.05 68.81 2.3 68.81 2.3 69.26 2.55 69.26 2.55 69.07 2.8 69.07 2.8 69.27 3.05 69.27 3.05 69.29 3.29 69.29 3.29 69.33 3.54 69.33 3.54 69.42 3.79 69.42 3.79 69.36 4.04 69.36 4.04 69.44 4.29 69.44 4.29 69.64 4.54 69.64 4.54 69.68 4.79 69.68 4.79 69.65 5.04 69.65 5.04 69.45 5.28 69.45 5.28 69.51 5.53 69.51 5.53 69.79 5.78 69.79 5.78 69.86 6.03 69.86 6.03 69.56 6.28 69.56 6.28 69.84 6.53 69.84 6.53 69.89 6.78 69.89 6.78 69.9 7.02 69.9 7.02 69.9 7.27 69.9 7.27 69.97 7.52 69.97 7.52 70.01 7.77 70.01 7.77 69.96 8.02 69.96 8.02 70.37 8.27 70.37 8.27 70.38 8.52 70.38 8.52 70.43 8.76 70.43 8.76 70.46 9.01 70.46 9.01 70.49 9.26 70.49 9.26 70.48 9.51 70.48 9.51 70.35 9.76 70.35 9.76 70.27 10.01 70.27 10.01 70.59 10.26 70.59 10.26 70.76 10.51 70.76 10.51 70.81 10.75 70.81 10.75 70.56 11 70.56 11 70.76 11.25 70.76 11.25 70.82 11.5 70.82 11.5 70.76 11.75 70.76 11.75 70.89 12 70.89 12 70.88 12.25 70.88 12.25 71.02 12.49 71.02 12.49 70.94 12.74 70.94 12.74 71.15 12.99 71.15 12.99 70.78 13.24 70.78 13.24 71.1 13.49 71.1 13.49 70.99 13.74 70.99 13.74 71.09 13.99 71.09 13.99 71.25 14.24 71.25 14.24 71.25 14.48 71.25 14.48 71.34 14.73 71.34 14.73 71.36 14.98 71.36 14.98 71.3 15.23 71.3 15.23 71.46 15.48 71.46 15.48 71.29 15.73 71.29 15.73 71.59 15.98 71.59 15.98 71.51 16.22 71.51 16.22 71.33 16.47 71.33 16.47 71.48 16.72 71.48 16.72 71.49 16.97 71.49 16.97 71.64 17.22 71.64 17.22 71.55 17.47 71.55 17.47 71.57 17.72 71.57 17.72 71.8 17.96 71.8 17.96 72.02 18.21 72.02 18.21 71.72 18.46 71.72 18.46 72.1 18.71 72.1 18.71 71.94 18.96 71.94 18.96 71.95 19.21 71.95 19.21 71.91 19.46 71.91 19.46 72.09 19.71 72.09 19.71 71.81 19.95 71.81 19.95 72.08 20.2 72.08 20.2 72.04 20.45 72.04 20.45 72.19 20.7 72.19 20.7 72.37 20.95 72.37 20.95 72.33 21.2 72.33 21.2 72.25 21.45 72.25 21.45 72.25 21.69 72.25 21.69 72.3 21.94 72.3 21.94 72.43 22.19 72.43 22.19 72.39 22.44 72.39 22.44 72.51 22.69 72.51 22.69 72.34 22.94 72.34 22.94 72.55 23.19 72.55 23.19 72.44 23.44 72.44 23.44 72.23 23.68 72.23 23.68 72.47 23.93 72.47 23.93 72.56 24.18 72.56 24.18 72.42 24.43 72.42 24.43 72.44 24.68 72.44 24.68 72.65 24.93 72.65 24.93 72.95 25.18 72.95 25.18 72.76 25.42 72.76 25.42 72.7 25.67 72.7 25.67 72.88 25.92 72.88 25.92 73.03 26.17 73.03 26.17 72.88 26.42 72.88 26.42 73.02 26.67 73.02 26.67 72.89 26.92 72.89 26.92 73.03 27.16 73.03 27.16 72.95 27.41 72.95 27.41 73.05 27.66 73.05 27.66 73.18 27.91 73.18 27.91 72.95 28.16 72.95 28.16 73.07 28.41 73.07 28.41 73.36 28.66 73.36 28.66 73.3 28.91 73.3 28.91 73.22 29.15 73.22 29.15 73.23 29.4 73.23 29.4 73.12 29.65 73.12 29.65 73.34 29.9 73.34 29.9 73.27 30.15 73.27 30.15 73.44 30.4 73.44 30.4 73.57 30.65 73.57 30.65 73.75 30.89 73.75 30.89 73.66 31.14 73.66 31.14 73.68 31.39 73.68 31.39 73.91 31.64 73.91 31.64 73.65 31.89 73.65 31.89 73.75 32.14 73.75 32.14 73.68 32.39 73.68 32.39 73.84 32.64 73.84 32.64 73.5 32.88 73.5 32.88 73.93 33.13 73.93 33.13 73.71 33.38 73.71 33.38 73.99 33.63 73.99 33.63 73.87 33.88 73.87 33.88 73.67 34.13 73.67 34.13 73.64 34.38 73.64 34.38 73.69 34.62 73.69 34.62 73.8 34.87 73.8 34.87 74.12 35.12 74.12 35.12 73.66 35.37 73.66 35.37 74.05 35.62 74.05 35.62 73.72 35.87 73.72 35.87 74.06 36.12 74.06 36.12 74.04 36.36 74.04 36.36 73.89 36.61 73.89 36.61 74.08 36.86 74.08 36.86 74.14 37.11 74.14 37.11 74.3 37.36 74.3 37.36 74.24 37.61 74.24 37.61 74.36 37.86 74.36 37.86 74.57 38.11 74.57 38.11 74.4 38.35 74.4 38.35 74.56 38.6 74.56 38.6 74.78 38.85 74.78 38.85 74.44 39.1 74.44 39.1 74.52 39.35 74.52 39.35 74.74 39.6 74.74 39.6 74.74 39.85 74.74 39.85 74.77 40.09 74.77 40.09 74.7 40.34 74.7 40.34 74.86 40.59 74.86 40.59 74.97 40.84 74.97 40.84 74.95 41.09 74.95 41.09 74.59 41.34 74.59 41.34 74.87 41.59 74.87 41.59 74.94 41.84 74.94 41.84 74.87 42.08 74.87 42.08 75.06 42.33 75.06 42.33 75.06 42.58 75.06 42.58 74.94 42.83 74.94 42.83 75.17 43.08 75.17 43.08 75.02 43.33 75.02 43.33 75.09 43.58 75.09 43.58 75.09 43.82 75.09 43.82 75.11 44.07 75.11 44.07 75.02 44.32 75.02 44.32 75.14 44.57 75.14 44.57 75.13 44.82 75.13 44.82 75.3 45.07 75.3 45.07 75.39 45.32 75.39 45.32 75.35 45.56 75.35 45.56 75.25 45.81 75.25 45.81 75.49 46.06 75.49 46.06 75.28 46.31 75.28 46.31 75.4 46.56 75.4 46.56 75.16 46.81 75.16 46.81 75.53 47.06 75.53 47.06 75.52 47.31 75.52 47.31 75.53 47.55 75.53 47.55 75.56 47.8 75.56 47.8 75.51 48.05 75.51 48.05 75.38 48.3 75.38 48.3 75.66 48.55 75.66 48.55 75.71 48.8 75.71 48.8 75.62 49.05 75.62 49.05 75.57 49.29 75.57 49.29 75.78 49.54 75.78 49.54 75.55 49.79 75.55 49.79 75.83 50.04 75.83 50.04 75.81 50.29 75.81 50.29 75.93 50.54 75.93 50.54 75.92 50.79 75.92 50.79 75.81 51.04 75.81 51.04 75.96 51.28 75.96 51.28 75.96 51.53 75.96 51.53 76.16 51.78 76.16 51.78 76.15 52.03 76.15 52.03 75.92 52.28 75.92 52.28 75.93 52.53 75.93 52.53 76.11 52.78 76.11 52.78 76.27 53.02 76.27 53.02 76.03 53.27 76.03 53.27 76.06 53.52 76.06 53.52 76.26 53.77 76.26 53.77 76.14 54.02 76.14 54.02 76.12 54.27 76.12 54.27 76.21 54.52 76.21 54.52 76.13 54.76 76.13 54.76 76.34 55.01 76.34 55.01 76.21 55.26 76.21 55.26 76.29 55.51 76.29 55.51 76.32 55.76 76.32 55.76 76.43 56.01 76.43 56.01 76.21 56.26 76.21 56.26 76.45 56.51 76.45 56.51 76.41 56.75 76.41 56.75 76.08 57 76.08 57 76.23 57.25 76.23 57.25 76.25 57.5 76.25 57.5 76.04 57.75 76.04 57.75 76.31 58 76.31 58 76.07 58.25 76.07 58.25 76.03 58.49 76.03 58.49 75.97 58.74 75.97 58.74 75.98 58.99 75.98 58.99 75.75 59.24 75.75 59.24 76.03 59.49 76.03 59.49 75.9 59.74 75.9 59.74 76.02 59.99 76.02 59.99 75.95 60.24 75.95 60.24 75.86 60.48 75.86 60.48 76.07 60.73 76.07 60.73 76.23 60.98 76.23 60.98 76.41 61.23 76.41 61.23 76.33 61.48 76.33 61.48 76.34 61.73 76.34 61.73 76.68 61.98 76.68 61.98 76.65 62.22 76.65 62.22 76.66 62.47 76.66 62.47 77.01 62.72 77.01 62.72 76.89 62.97 76.89 62.97 76.87 63.22 76.87 63.22 76.96 63.47 76.96 63.47 77.03 63.72 77.03 63.72 77.01 63.96 77.01 63.96 77.07 64.21 77.07 64.21 77.12 64.46 77.12 64.46 77.22 64.71 77.22 64.71 77.18 64.96 77.18 64.96 77.15 65.21 77.15 65.21 77.12 65.46 77.12 65.46 77.29 65.71 77.29 65.71 77.16 65.95 77.16 65.95 77.36 66.2 77.36 66.2 77.24 66.45 77.24 66.45 77.31 66.7 77.31 66.7 77.17 66.95 77.17 66.95 77.58 67.2 77.58 67.2 77.28 67.45 77.28 67.45 77.39 67.69 77.39 67.69 77.36 67.94 77.36 67.94 77.29 68.19 77.29 68.19 77.43 68.44 77.43 68.44 77.47 68.69 77.47 68.69 77.48 68.94 77.48 68.94 77.54 69.19 77.54 69.19 77.4 69.44 77.4 69.44 77.53 69.68 77.53 69.68 77.48 69.93 77.48 69.93 77.67 70.18 77.67 70.18 77.69 70.43 77.69 70.43 77.65 70.68 77.65 70.68 77.67 70.93 77.67 70.93 77.85 71.18 77.85 71.18 77.65 71.42 77.65 71.42 77.7 71.67 77.7 71.67 77.61 71.92 77.61 71.92 77.69 72.17 77.69 72.17 77.76 72.42 77.76 72.42 77.75 72.67 77.75 72.67 77.74 72.92 77.74 72.92 77.77 73.16 77.77 73.16 77.73 73.41 77.73 73.41 77.82 73.66 77.82 73.66 77.94 73.91 77.94 73.91 77.82 74.16 77.82 74.16 77.92 74.41 77.92 74.41 77.82 74.66 77.82 74.66 77.91 74.91 77.91 74.91 77.8 75.15 77.8 75.15 77.99 75.4 77.99 75.4 77.78 75.65 77.78 75.65 77.87 75.9 77.87 75.9 77.85 76.15 77.85 76.15 77.9 76.4 77.9 76.4 77.94 76.65 77.94 76.65 78.1 76.89 78.1 76.89 77.93 77.14 77.93 77.14 78.08 77.39 78.08 77.39 78.03 77.64 78.03 77.64 77.91 77.89 77.91 77.89 78.18 78.14 78.18 78.14 78.27 78.39 78.27 78.39 78.2 78.64 78.2 78.64 78.21 78.88 78.21 78.88 78.34 79.13 78.34 79.13 78.21 79.38 78.21 79.38 78.35 79.63 78.35 79.63 78.5 79.88 78.5 79.88 78.43 80.13 78.43 80.13 78.21 80.38 78.21 80.38 78.24 80.62 78.24 80.62 78.44 80.87 78.44 80.87 78.45 81.12 78.45 81.12 78.42 81.37 78.42 81.37 78.23 81.62 78.23 81.62 78.39 81.87 78.39 81.87 78.42 82.12 78.42 82.12 78.46 82.36 78.46 82.36 78.59 82.61 78.59 82.61 78.44 82.86 78.44 82.86 78.47 83.11 78.47 83.11 78.44 83.36 78.44 83.36 78.57 83.61 78.57 83.61 78.5 83.86 78.5 83.86 78.69 84.11 78.69 84.11 78.64 84.35 78.64 84.35 78.59 84.6 78.59 84.6 78.47 84.85 78.47 84.85 78.41 85.1 78.41 85.1 78.51 85.35 78.51 85.35 78.58 85.6 78.58 85.6 78.56 85.85 78.56 85.85 78.55 86.09 78.55 86.09 78.47 86.34 78.47 86.34 78.59 86.59 78.59 86.59 78.33 86.84 78.33 86.84 78.77 87.09 78.77 87.09 78.63 87.34 78.63 87.34 78.63 87.59 78.63 87.59 78.68 87.84 78.68 87.84 78.73 88.08 78.73 88.08 78.74 88.33 78.74 88.33 78.73 88.58 78.73 88.58 78.79 88.83 78.79 88.83 78.72 89.08 78.72 89.08 78.88 89.33 78.88 89.33 78.82 89.58 78.82 89.58 78.84 89.82 78.84 89.82 79 90.07 79 90.07 78.91 90.32 78.91 90.32 78.87 90.57 78.87 90.57 79.06 90.82 79.06 90.82 78.93 91.07 78.93 91.07 79.09 91.32 79.09 91.32 79 91.56 79 91.56 79.01 91.81 79.01 91.81 78.99 92.06 78.99 92.06 79 92.31 79 92.31 79.15 92.56 79.15 92.56 79.17 92.81 79.17 92.81 79.05 93.06 79.05 93.06 79.18 93.31 79.18 93.31 79.12 93.55 79.12 93.55 78.98 93.8 78.98 93.8 79.26 94.05 79.26 94.05 79.16 94.3 79.16 94.3 79.21 94.55 79.21 94.55 79.23 94.8 79.23 94.8 79.29 95.05 79.29 95.05 79.26 95.29 79.26 95.29 79.57 95.54 79.57 95.54 79.24 95.79 79.24 95.79 79.24 96.04 79.24 96.04 79.52 96.29 79.52 96.29 79.22 96.54 79.22 96.54 79.55 96.79 79.55 96.79 79.42 97.04 79.42 97.04 79.19 97.28 79.19 97.28 79.42 97.53 79.42 97.53 79.33 97.78 79.33 97.78 79.64 98.03 79.64 98.03 79.52 98.28 79.52 98.28 79.39 98.53 79.39 98.53 79.46 98.78 79.46 98.78 79.51 99.02 79.51 99.02 79.53 99.27 79.53 99.27 79.35" class="primitive"/>
            </g>
          </g>
        </g>
      </g>
    </g>
  </g>
  <g class="guide ylabels" font-size="2.82" font-family="'PT Sans Caption','Helvetica Neue','Helvetica',sans-serif" fill="#6C606B" id="img-8270e48f-38">
    <g transform="translate(17.03,59.87)" id="img-8270e48f-39">
      <g class="primitive">
        <text text-anchor="end" dy="0.35em">0</text>
      </g>
    </g>
    <g transform="translate(17.03,45.86)" id="img-8270e48f-40">
      <g class="primitive">
        <text text-anchor="end" dy="0.35em">10000</text>
      </g>
    </g>
    <g transform="translate(17.03,31.86)" id="img-8270e48f-41">
      <g class="primitive">
        <text text-anchor="end" dy="0.35em">20000</text>
      </g>
    </g>
    <g transform="translate(17.03,17.85)" id="img-8270e48f-42">
      <g class="primitive">
        <text text-anchor="end" dy="0.35em">30000</text>
      </g>
    </g>
    <g transform="translate(17.03,3.85)" id="img-8270e48f-43">
      <g class="primitive">
        <text text-anchor="end" dy="0.35em">40000</text>
      </g>
    </g>
  </g>
  <g font-size="3.18" font-family="'PT Sans','Helvetica Neue','Helvetica',sans-serif" fill="#202020" stroke="#000000" stroke-opacity="0.000" id="img-8270e48f-44">
    <g transform="translate(4.18,29.29)" id="img-8270e48f-45">
      <g class="primitive">
        <text text-anchor="middle" dy="0.35em" transform="rotate(-90,0, 2)">Counts</text>
      </g>
    </g>
  </g>
</g>
<defs>
  <clipPath id="img-8270e48f-15">
    <path d="M18.03,0.71 L 220.97 0.71 220.97 61.87 18.03 61.87" />
  </clipPath>
</defs>
</svg>
