<?xml version="1.0" encoding="UTF-8"?>
<svg xmlns="http://www.w3.org/2000/svg"
     xmlns:xlink="http://www.w3.org/1999/xlink"
     xmlns:gadfly="http://www.gadflyjl.org/ns"
     version="1.2"
     width="254mm" height="76.2mm" viewBox="0 0 254 76.2"
     stroke="none"
     fill="#000000"
     stroke-width="0.3"
     font-size="3.88"
>
<defs>
  <marker id="arrow" markerWidth="15" markerHeight="7" refX="5" refY="3.5" orient="auto" markerUnits="strokeWidth">
    <path d="M0,0 L15,3.5 L0,7 z" stroke="context-stroke" fill="context-stroke"/>
  </marker>
</defs>
<g class="plotroot xscalable yscalable" id="img-e98bf2fc-1">
  <g font-size="3.18" font-family="'PT Sans','Helvetica Neue','Helvetica',sans-serif" fill="#202020" stroke="#000000" stroke-opacity="0.000" id="img-e98bf2fc-2">
    <g transform="translate(119.5,69.54)">
      <g class="primitive">
        <text text-anchor="middle" dy="0.6em">Energy (eV)</text>
      </g>
    </g>
  </g>
  <g class="guide xlabels" font-size="2.82" font-family="'PT Sans Caption','Helvetica Neue','Helvetica',sans-serif" fill="#6C606B" id="img-e98bf2fc-3">
    <g transform="translate(20.03,62.87)">
      <g class="primitive">
        <text text-anchor="middle" dy="0.6em">0</text>
      </g>
    </g>
    <g transform="translate(69.76,62.87)">
      <g class="primitive">
        <text text-anchor="middle" dy="0.6em">2000</text>
      </g>
    </g>
    <g transform="translate(119.5,62.87)">
      <g class="primitive">
        <text text-anchor="middle" dy="0.6em">4000</text>
      </g>
    </g>
    <g transform="translate(169.24,62.87)">
      <g class="primitive">
        <text text-anchor="middle" dy="0.6em">6000</text>
      </g>
    </g>
    <g transform="translate(218.97,62.87)">
      <g class="primitive">
        <text text-anchor="middle" dy="0.6em">8000</text>
      </g>
    </g>
  </g>
  <g class="guide colorkey" id="img-e98bf2fc-4">
    <g fill="#4C404B" font-size="2.82" font-family="'PT Sans','Helvetica Neue','Helvetica',sans-serif" id="img-e98bf2fc-5">
      <g transform="translate(225.6,31.7)" id="img-e98bf2fc-6">
        <g class="primitive">
          <text dy="0.35em">MgO std</text>
        </g>
      </g>
      <g transform="translate(225.6,35.33)" id="img-e98bf2fc-7">
        <g class="primitive">
          <text dy="0.35em">Brem[Global][MgO std]</text>
        </g>
      </g>
    </g>
    <g stroke-width="0.3" id="img-e98bf2fc-8">
      <g stroke="#FFFFFF" fill-opacity="1" fill="#B70002" id="img-e98bf2fc-9">
        <g transform="translate(222.79,35.33)" id="img-e98bf2fc-10">
          <circle cx="0" cy="0" r="0.9" class="primitive"/>
        </g>
      </g>
      <g stroke="#FFFFFF" fill-opacity="1" fill="#104E8B" id="img-e98bf2fc-11">
        <g transform="translate(222.79,31.7)" id="img-e98bf2fc-12">
          <circle cx="0" cy="0" r="0.9" class="primitive"/>
        </g>
      </g>
    </g>
    <g fill="#362A35" font-size="3.18" font-family="'PT Sans','Helvetica Neue','Helvetica',sans-serif" stroke="#000000" stroke-opacity="0.000" id="img-e98bf2fc-13">
      <g transform="translate(221.97,28.39)" id="img-e98bf2fc-14">
        <g class="primitive">
          <text dy="-0em">Spectra</text>
        </g>
      </g>
    </g>
  </g>
  <g clip-path="url(#img-e98bf2fc-15)">
    <g id="img-e98bf2fc-16">
      <g pointer-events="visible" stroke-width="0.3" fill="#FDFDF1" stroke="#202020" class="guide background" id="img-e98bf2fc-17">
        <g transform="translate(119.5,31.29)" id="img-e98bf2fc-18">
          <path d="M-101.47,-30.58 L101.47,-30.58 101.47,30.58 -101.47,30.58  z" class="primitive"/>
        </g>
      </g>
      <g class="guide ygridlines xfixed" stroke-dasharray="none" stroke-width="0.2" stroke="#FFDFDF" id="img-e98bf2fc-19">
        <g transform="translate(119.5,59.87)" id="img-e98bf2fc-20">
          <path fill="none" d="M-101.47,0 L101.47,0 " class="primitive"/>
        </g>
        <g transform="translate(119.5,45.86)" id="img-e98bf2fc-21">
          <path fill="none" d="M-101.47,0 L101.47,0 " class="primitive"/>
        </g>
        <g transform="translate(119.5,31.86)" id="img-e98bf2fc-22">
          <path fill="none" d="M-101.47,0 L101.47,0 " class="primitive"/>
        </g>
        <g transform="translate(119.5,17.85)" id="img-e98bf2fc-23">
          <path fill="none" d="M-101.47,0 L101.47,0 " class="primitive"/>
        </g>
        <g transform="translate(119.5,3.85)" id="img-e98bf2fc-24">
          <path fill="none" d="M-101.47,0 L101.47,0 " class="primitive"/>
        </g>
      </g>
      <g class="guide xgridlines yfixed" stroke-dasharray="none" stroke-width="0.2" stroke="#FFDFDF" id="img-e98bf2fc-25">
        <g transform="translate(20.03,31.29)" id="img-e98bf2fc-26">
          <path fill="none" d="M0,-30.58 L0,30.58 " class="primitive"/>
        </g>
        <g transform="translate(69.76,31.29)" id="img-e98bf2fc-27">
          <path fill="none" d="M0,-30.58 L0,30.58 " class="primitive"/>
        </g>
        <g transform="translate(119.5,31.29)" id="img-e98bf2fc-28">
          <path fill="none" d="M0,-30.58 L0,30.58 " class="primitive"/>
        </g>
        <g transform="translate(169.24,31.29)" id="img-e98bf2fc-29">
          <path fill="none" d="M0,-30.58 L0,30.58 " class="primitive"/>
        </g>
        <g transform="translate(218.97,31.29)" id="img-e98bf2fc-30">
          <path fill="none" d="M0,-30.58 L0,30.58 " class="primitive"/>
        </g>
      </g>
      <g class="plotpanel" id="img-e98bf2fc-31">
        <metadata>
          <boundingbox value="18.027222222222242mm 0.7055555555555555mm 202.94722222222222mm 61.16055555555556mm"/>
          <unitbox value="-80.42333952332416 42243.76578390304 8160.846679046647 -43671.87156780609"/>
        </metadata>
        <g stroke-width="0.3" fill="#000000" fill-opacity="0.000" class="geometry" id="img-e98bf2fc-32">
          <g class="color_RGB{N0f8}(0.718,0.0,0.008)" stroke-dasharray="none" stroke="#B70002" id="img-e98bf2fc-33">
            <g transform="translate(119.46,45.07)" id="img-e98bf2fc-34">
              <path fill="none" d="M-99.4,14.79 L-99.15,14.79 -99.15,14.79 -98.9,14.79 -98.9,14.79 -98.65,14.79 -98.65,14.79 -98.4,14.79 -98.4,14.79 -98.15,14.79 -98.15,14.79 -97.91,14.79 -97.91,14.79 -97.66,14.79 -97.66,14.79 -97.41,14.79 -97.41,14.79 -97.16,14.79 -97.16,14.79 -96.91,14.79 -96.91,14.79 -96.66,14.79 -96.66,14.79 -96.41,14.79 -96.41,14.79 -96.16,14.79 -96.16,14.79 -95.92,14.79 -95.92,14.79 -95.67,14.79 -95.67,14.79 -95.42,14.79 -95.42,14.79 -95.17,14.79 -95.17,14.79 -94.92,14.79 -94.92,14.79 -94.67,14.79 -94.67,14.79 -94.42,14.79 -94.42,14.79 -94.18,14.79 -94.18,14.79 -93.93,14.79 -93.93,14.77 -93.68,14.77 -93.68,14.73 -93.43,14.73 -93.43,14.62 -93.18,14.62 -93.18,14.37 -92.93,14.37 -92.93,13.9 -92.68,13.9 -92.68,13.09 -92.43,13.09 -92.43,11.89 -92.19,11.89 -92.19,10.31 -91.94,10.31 -91.94,8.46 -91.69,8.46 -91.69,6.49 -91.44,6.49 -91.44,4.62 -91.19,4.62 -91.19,2.99 -90.94,2.99 -90.94,1.73 -90.69,1.73 -90.69,0.87 -90.45,0.87 -90.45,0.35 -90.2,0.35 -90.2,0.04 -89.95,0.04 -89.95,-0.27 -89.7,-0.27 -89.7,-0.74 -89.45,-0.74 -89.45,-1.49 -89.2,-1.49 -89.2,-2.56 -88.95,-2.56 -88.95,-3.9 -88.71,-3.9 -88.71,-5.43 -88.46,-5.43 -88.46,-7.06 -88.21,-7.06 -88.21,-8.7 -87.96,-8.7 -87.96,-10.27 -87.71,-10.27 -87.71,-11.67 -87.46,-11.67 -87.46,-12.76 -87.21,-12.76 -87.21,-13.37 -86.96,-13.37 -86.96,-13.35 -86.72,-13.35 -86.72,-12.58 -86.47,-12.58 -86.47,-11.13 -86.22,-11.13 -86.22,-9.21 -85.97,-9.21 -85.97,-7.15 -85.72,-7.15 -85.72,-5.3 -85.47,-5.3 -85.47,-3.89 -85.22,-3.89 -85.22,-2.96 -84.98,-2.96 -84.98,-2.39 -84.73,-2.39 -84.73,-1.99 -84.48,-1.99 -84.48,-1.61 -84.23,-1.61 -84.23,-1.17 -83.98,-1.17 -83.98,-0.69 -83.73,-0.69 -83.73,-0.26 -83.48,-0.26 -83.48,0.03 -83.23,0.03 -83.23,0.13 -82.99,0.13 -82.99,0.02 -82.74,0.02 -82.74,-0.25 -82.49,-0.25 -82.49,-0.64 -82.24,-0.64 -82.24,-1.1 -81.99,-1.1 -81.99,-1.61 -81.74,-1.61 -81.74,-2.13 -81.49,-2.13 -81.49,-2.66 -81.25,-2.66 -81.25,-3.19 -81,-3.19 -81,-3.72 -80.75,-3.72 -80.75,-4.25 -80.5,-4.25 -80.5,-4.77 -80.25,-4.77 -80.25,-5.28 -80,-5.28 -80,-5.79 -79.75,-5.79 -79.75,-6.29 -79.51,-6.29 -79.51,-6.79 -79.26,-6.79 -79.26,-7.29 -79.01,-7.29 -79.01,-7.79 -78.76,-7.79 -78.76,-8.28 -78.51,-8.28 -78.51,-8.77 -78.26,-8.77 -78.26,-9.26 -78.01,-9.26 -78.01,-9.74 -77.76,-9.74 -77.76,-10.22 -77.52,-10.22 -77.52,-10.7 -77.27,-10.7 -77.27,-11.17 -77.02,-11.17 -77.02,-11.64 -76.77,-11.64 -76.77,-12.11 -76.52,-12.11 -76.52,-12.57 -76.27,-12.57 -76.27,-13.02 -76.02,-13.02 -76.02,-13.47 -75.78,-13.47 -75.78,-13.92 -75.53,-13.92 -75.53,-14.36 -75.28,-14.36 -75.28,-14.8 -75.03,-14.8 -75.03,-15.23 -74.78,-15.23 -74.78,-15.66 -74.53,-15.66 -74.53,-16.08 -74.28,-16.08 -74.28,-16.5 -74.03,-16.5 -74.03,-16.91 -73.79,-16.91 -73.79,-17.32 -73.54,-17.32 -73.54,-17.72 -73.29,-17.72 -73.29,-18.11 -73.04,-18.11 -73.04,-18.48 -72.79,-18.48 -72.79,-18.85 -72.54,-18.85 -72.54,-19.2 -72.29,-19.2 -72.29,-19.55 -72.05,-19.55 -72.05,-19.88 -71.8,-19.88 -71.8,-20.2 -71.55,-20.2 -71.55,-20.51 -71.3,-20.51 -71.3,-20.82 -71.05,-20.82 -71.05,-21.11 -70.8,-21.11 -70.8,-21.39 -70.55,-21.39 -70.55,-21.66 -70.31,-21.66 -70.31,-21.92 -70.06,-21.92 -70.06,-22.16 -69.81,-22.16 -69.81,-22.4 -69.56,-22.4 -69.56,-22.61 -69.31,-22.61 -69.31,-22.79 -69.06,-22.79 -69.06,-22.91 -68.81,-22.91 -68.81,-22.93 -68.56,-22.93 -68.56,-22.78 -68.32,-22.78 -68.32,-22.37 -68.07,-22.37 -68.07,-21.58 -67.82,-21.58 -67.82,-20.32 -67.57,-20.32 -67.57,-18.55 -67.32,-18.55 -67.32,-16.3 -67.07,-16.3 -67.07,-13.7 -66.82,-13.7 -66.82,-10.97 -66.58,-10.97 -66.58,-8.34 -66.33,-8.34 -66.33,-6.04 -66.08,-6.04 -66.08,-4.2 -65.83,-4.2 -65.83,-2.87 -65.58,-2.87 -65.58,-1.98 -65.33,-1.98 -65.33,-1.47 -65.08,-1.47 -65.08,-1.21 -64.83,-1.21 -64.83,-1.13 -64.59,-1.13 -64.59,-1.14 -64.34,-1.14 -64.34,-1.22 -64.09,-1.22 -64.09,-1.32 -63.84,-1.32 -63.84,-1.44 -63.59,-1.44 -63.59,-1.57 -63.34,-1.57 -63.34,-1.71 -63.09,-1.71 -63.09,-1.84 -62.85,-1.84 -62.85,-1.98 -62.6,-1.98 -62.6,-2.12 -62.35,-2.12 -62.35,-2.26 -62.1,-2.26 -62.1,-2.39 -61.85,-2.39 -61.85,-2.5 -61.6,-2.5 -61.6,-2.61 -61.35,-2.61 -61.35,-2.7 -61.11,-2.7 -61.11,-2.79 -60.86,-2.79 -60.86,-2.87 -60.61,-2.87 -60.61,-2.95 -60.36,-2.95 -60.36,-3.05 -60.11,-3.05 -60.11,-3.15 -59.86,-3.15 -59.86,-3.28 -59.61,-3.28 -59.61,-3.41 -59.36,-3.41 -59.36,-3.56 -59.12,-3.56 -59.12,-3.71 -58.87,-3.71 -58.87,-3.87 -58.62,-3.87 -58.62,-4.02 -58.37,-4.02 -58.37,-4.18 -58.12,-4.18 -58.12,-4.33 -57.87,-4.33 -57.87,-4.47 -57.62,-4.47 -57.62,-4.62 -57.38,-4.62 -57.38,-4.76 -57.13,-4.76 -57.13,-4.89 -56.88,-4.89 -56.88,-5.02 -56.63,-5.02 -56.63,-5.15 -56.38,-5.15 -56.38,-5.27 -56.13,-5.27 -56.13,-5.38 -55.88,-5.38 -55.88,-5.5 -55.63,-5.5 -55.63,-5.6 -55.39,-5.6 -55.39,-5.7 -55.14,-5.7 -55.14,-5.79 -54.89,-5.79 -54.89,-5.88 -54.64,-5.88 -54.64,-5.95 -54.39,-5.95 -54.39,-6.01 -54.14,-6.01 -54.14,-6.06 -53.89,-6.06 -53.89,-6.11 -53.65,-6.11 -53.65,-6.14 -53.4,-6.14 -53.4,-6.18 -53.15,-6.18 -53.15,-6.21 -52.9,-6.21 -52.9,-6.25 -52.65,-6.25 -52.65,-6.3 -52.4,-6.3 -52.4,-6.35 -52.15,-6.35 -52.15,-6.4 -51.91,-6.4 -51.91,-6.46 -51.66,-6.46 -51.66,-6.52 -51.41,-6.52 -51.41,-6.59 -51.16,-6.59 -51.16,-6.65 -50.91,-6.65 -50.91,-6.71 -50.66,-6.71 -50.66,-6.77 -50.41,-6.77 -50.41,-6.83 -50.16,-6.83 -50.16,-6.89 -49.92,-6.89 -49.92,-6.94 -49.67,-6.94 -49.67,-6.99 -49.42,-6.99 -49.42,-7.04 -49.17,-7.04 -49.17,-7.09 -48.92,-7.09 -48.92,-7.14 -48.67,-7.14 -48.67,-7.18 -48.42,-7.18 -48.42,-7.23 -48.18,-7.23 -48.18,-7.27 -47.93,-7.27 -47.93,-7.3 -47.68,-7.3 -47.68,-7.34 -47.43,-7.34 -47.43,-7.38 -47.18,-7.38 -47.18,-7.41 -46.93,-7.41 -46.93,-7.44 -46.68,-7.44 -46.68,-7.47 -46.44,-7.47 -46.44,-7.5 -46.19,-7.5 -46.19,-7.52 -45.94,-7.52 -45.94,-7.55 -45.69,-7.55 -45.69,-7.57 -45.44,-7.57 -45.44,-7.59 -45.19,-7.59 -45.19,-7.61 -44.94,-7.61 -44.94,-7.63 -44.69,-7.63 -44.69,-7.65 -44.45,-7.65 -44.45,-7.66 -44.2,-7.66 -44.2,-7.68 -43.95,-7.68 -43.95,-7.69 -43.7,-7.69 -43.7,-7.7 -43.45,-7.7 -43.45,-7.71 -43.2,-7.71 -43.2,-7.72 -42.95,-7.72 -42.95,-7.72 -42.71,-7.72 -42.71,-7.73 -42.46,-7.73 -42.46,-7.73 -42.21,-7.73 -42.21,-7.74 -41.96,-7.74 -41.96,-7.74 -41.71,-7.74 -41.71,-7.74 -41.46,-7.74 -41.46,-7.74 -41.21,-7.74 -41.21,-7.74 -40.96,-7.74 -40.96,-7.73 -40.72,-7.73 -40.72,-7.73 -40.47,-7.73 -40.47,-7.72 -40.22,-7.72 -40.22,-7.72 -39.97,-7.72 -39.97,-7.71 -39.72,-7.71 -39.72,-7.7 -39.47,-7.7 -39.47,-7.69 -39.22,-7.69 -39.22,-7.68 -38.98,-7.68 -38.98,-7.67 -38.73,-7.67 -38.73,-7.66 -38.48,-7.66 -38.48,-7.65 -38.23,-7.65 -38.23,-7.63 -37.98,-7.63 -37.98,-7.62 -37.73,-7.62 -37.73,-7.6 -37.48,-7.6 -37.48,-7.58 -37.24,-7.58 -37.24,-7.57 -36.99,-7.57 -36.99,-7.55 -36.74,-7.55 -36.74,-7.53 -36.49,-7.53 -36.49,-7.51 -36.24,-7.51 -36.24,-7.49 -35.99,-7.49 -35.99,-7.47 -35.74,-7.47 -35.74,-7.44 -35.49,-7.44 -35.49,-7.42 -35.25,-7.42 -35.25,-7.4 -35,-7.4 -35,-7.38 -34.75,-7.38 -34.75,-7.35 -34.5,-7.35 -34.5,-7.33 -34.25,-7.33 -34.25,-7.3 -34,-7.3 -34,-7.28 -33.75,-7.28 -33.75,-7.25 -33.51,-7.25 -33.51,-7.22 -33.26,-7.22 -33.26,-7.19 -33.01,-7.19 -33.01,-7.17 -32.76,-7.17 -32.76,-7.14 -32.51,-7.14 -32.51,-7.11 -32.26,-7.11 -32.26,-7.08 -32.01,-7.08 -32.01,-7.05 -31.76,-7.05 -31.76,-7.01 -31.52,-7.01 -31.52,-6.98 -31.27,-6.98 -31.27,-6.95 -31.02,-6.95 -31.02,-6.92 -30.77,-6.92 -30.77,-6.88 -30.52,-6.88 -30.52,-6.85 -30.27,-6.85 -30.27,-6.82 -30.02,-6.82 -30.02,-6.78 -29.78,-6.78 -29.78,-6.75 -29.53,-6.75 -29.53,-6.71 -29.28,-6.71 -29.28,-6.68 -29.03,-6.68 -29.03,-6.64 -28.78,-6.64 -28.78,-6.6 -28.53,-6.6 -28.53,-6.57 -28.28,-6.57 -28.28,-6.53 -28.04,-6.53 -28.04,-6.49 -27.79,-6.49 -27.79,-6.45 -27.54,-6.45 -27.54,-6.41 -27.29,-6.41 -27.29,-6.37 -27.04,-6.37 -27.04,-6.34 -26.79,-6.34 -26.79,-6.3 -26.54,-6.3 -26.54,-6.26 -26.29,-6.26 -26.29,-6.22 -26.05,-6.22 -26.05,-6.18 -25.8,-6.18 -25.8,-6.14 -25.55,-6.14 -25.55,-6.1 -25.3,-6.1 -25.3,-6.06 -25.05,-6.06 -25.05,-6.02 -24.8,-6.02 -24.8,-5.97 -24.55,-5.97 -24.55,-5.93 -24.31,-5.93 -24.31,-5.89 -24.06,-5.89 -24.06,-5.85 -23.81,-5.85 -23.81,-5.81 -23.56,-5.81 -23.56,-5.76 -23.31,-5.76 -23.31,-5.72 -23.06,-5.72 -23.06,-5.68 -22.81,-5.68 -22.81,-5.64 -22.56,-5.64 -22.56,-5.59 -22.32,-5.59 -22.32,-5.55 -22.07,-5.55 -22.07,-5.51 -21.82,-5.51 -21.82,-5.46 -21.57,-5.46 -21.57,-5.42 -21.32,-5.42 -21.32,-5.37 -21.07,-5.37 -21.07,-5.33 -20.82,-5.33 -20.82,-5.29 -20.58,-5.29 -20.58,-5.24 -20.33,-5.24 -20.33,-5.2 -20.08,-5.2 -20.08,-5.15 -19.83,-5.15 -19.83,-5.11 -19.58,-5.11 -19.58,-5.06 -19.33,-5.06 -19.33,-5.02 -19.08,-5.02 -19.08,-4.97 -18.84,-4.97 -18.84,-4.93 -18.59,-4.93 -18.59,-4.88 -18.34,-4.88 -18.34,-4.84 -18.09,-4.84 -18.09,-4.79 -17.84,-4.79 -17.84,-4.75 -17.59,-4.75 -17.59,-4.7 -17.34,-4.7 -17.34,-4.65 -17.09,-4.65 -17.09,-4.61 -16.85,-4.61 -16.85,-4.56 -16.6,-4.56 -16.6,-4.52 -16.35,-4.52 -16.35,-4.47 -16.1,-4.47 -16.1,-4.42 -15.85,-4.42 -15.85,-4.38 -15.6,-4.38 -15.6,-4.33 -15.35,-4.33 -15.35,-4.28 -15.11,-4.28 -15.11,-4.24 -14.86,-4.24 -14.86,-4.19 -14.61,-4.19 -14.61,-4.14 -14.36,-4.14 -14.36,-4.1 -14.11,-4.1 -14.11,-4.05 -13.86,-4.05 -13.86,-4 -13.61,-4 -13.61,-3.96 -13.36,-3.96 -13.36,-3.91 -13.12,-3.91 -13.12,-3.86 -12.87,-3.86 -12.87,-3.82 -12.62,-3.82 -12.62,-3.77 -12.37,-3.77 -12.37,-3.72 -12.12,-3.72 -12.12,-3.68 -11.87,-3.68 -11.87,-3.63 -11.62,-3.63 -11.62,-3.58 -11.38,-3.58 -11.38,-3.53 -11.13,-3.53 -11.13,-3.49 -10.88,-3.49 -10.88,-3.44 -10.63,-3.44 -10.63,-3.39 -10.38,-3.39 -10.38,-3.35 -10.13,-3.35 -10.13,-3.3 -9.88,-3.3 -9.88,-3.25 -9.64,-3.25 -9.64,-3.21 -9.39,-3.21 -9.39,-3.16 -9.14,-3.16 -9.14,-3.11 -8.89,-3.11 -8.89,-3.06 -8.64,-3.06 -8.64,-3.02 -8.39,-3.02 -8.39,-2.97 -8.14,-2.97 -8.14,-2.92 -7.89,-2.92 -7.89,-2.88 -7.65,-2.88 -7.65,-2.83 -7.4,-2.83 -7.4,-2.78 -7.15,-2.78 -7.15,-2.74 -6.9,-2.74 -6.9,-2.69 -6.65,-2.69 -6.65,-2.64 -6.4,-2.64 -6.4,-2.6 -6.15,-2.6 -6.15,-2.55 -5.91,-2.55 -5.91,-2.51 -5.66,-2.51 -5.66,-2.46 -5.41,-2.46 -5.41,-2.41 -5.16,-2.41 -5.16,-2.37 -4.91,-2.37 -4.91,-2.32 -4.66,-2.32 -4.66,-2.27 -4.41,-2.27 -4.41,-2.23 -4.16,-2.23 -4.16,-2.18 -3.92,-2.18 -3.92,-2.14 -3.67,-2.14 -3.67,-2.09 -3.42,-2.09 -3.42,-2.04 -3.17,-2.04 -3.17,-2 -2.92,-2 -2.92,-1.95 -2.67,-1.95 -2.67,-1.91 -2.42,-1.91 -2.42,-1.86 -2.18,-1.86 -2.18,-1.82 -1.93,-1.82 -1.93,-1.77 -1.68,-1.77 -1.68,-1.73 -1.43,-1.73 -1.43,-1.68 -1.18,-1.68 -1.18,-1.64 -0.93,-1.64 -0.93,-1.59 -0.68,-1.59 -0.68,-1.55 -0.44,-1.55 -0.44,-1.5 -0.19,-1.5 -0.19,-1.46 0.06,-1.46 0.06,-1.41 0.31,-1.41 0.31,-1.37 0.56,-1.37 0.56,-1.32 0.81,-1.32 0.81,-1.28 1.06,-1.28 1.06,-1.23 1.31,-1.23 1.31,-1.19 1.55,-1.19 1.55,-1.15 1.8,-1.15 1.8,-1.1 2.05,-1.1 2.05,-1.06 2.3,-1.06 2.3,-1.01 2.55,-1.01 2.55,-0.97 2.8,-0.97 2.8,-0.93 3.05,-0.93 3.05,-0.88 3.29,-0.88 3.29,-0.84 3.54,-0.84 3.54,-0.8 3.79,-0.8 3.79,-0.75 4.04,-0.75 4.04,-0.71 4.29,-0.71 4.29,-0.67 4.54,-0.67 4.54,-0.62 4.79,-0.62 4.79,-0.58 5.04,-0.58 5.04,-0.54 5.28,-0.54 5.28,-0.5 5.53,-0.5 5.53,-0.45 5.78,-0.45 5.78,-0.41 6.03,-0.41 6.03,-0.37 6.28,-0.37 6.28,-0.33 6.53,-0.33 6.53,-0.28 6.78,-0.28 6.78,-0.24 7.02,-0.24 7.02,-0.2 7.27,-0.2 7.27,-0.16 7.52,-0.16 7.52,-0.12 7.77,-0.12 7.77,-0.07 8.02,-0.07 8.02,-0.03 8.27,-0.03 8.27,0.01 8.52,0.01 8.52,0.05 8.76,0.05 8.76,0.09 9.01,0.09 9.01,0.13 9.26,0.13 9.26,0.17 9.51,0.17 9.51,0.21 9.76,0.21 9.76,0.26 10.01,0.26 10.01,0.3 10.26,0.3 10.26,0.34 10.51,0.34 10.51,0.38 10.75,0.38 10.75,0.42 11,0.42 11,0.46 11.25,0.46 11.25,0.5 11.5,0.5 11.5,0.54 11.75,0.54 11.75,0.58 12,0.58 12,0.62 12.25,0.62 12.25,0.66 12.49,0.66 12.49,0.7 12.74,0.7 12.74,0.74 12.99,0.74 12.99,0.78 13.24,0.78 13.24,0.82 13.49,0.82 13.49,0.85 13.74,0.85 13.74,0.89 13.99,0.89 13.99,0.93 14.24,0.93 14.24,0.97 14.48,0.97 14.48,1.01 14.73,1.01 14.73,1.05 14.98,1.05 14.98,1.09 15.23,1.09 15.23,1.13 15.48,1.13 15.48,1.16 15.73,1.16 15.73,1.2 15.98,1.2 15.98,1.24 16.22,1.24 16.22,1.28 16.47,1.28 16.47,1.32 16.72,1.32 16.72,1.35 16.97,1.35 16.97,1.39 17.22,1.39 17.22,1.43 17.47,1.43 17.47,1.47 17.72,1.47 17.72,1.5 17.96,1.5 17.96,1.54 18.21,1.54 18.21,1.58 18.46,1.58 18.46,1.62 18.71,1.62 18.71,1.65 18.96,1.65 18.96,1.69 19.21,1.69 19.21,1.73 19.46,1.73 19.46,1.76 19.71,1.76 19.71,1.8 19.95,1.8 19.95,1.84 20.2,1.84 20.2,1.87 20.45,1.87 20.45,1.91 20.7,1.91 20.7,1.94 20.95,1.94 20.95,1.98 21.2,1.98 21.2,2.02 21.45,2.02 21.45,2.05 21.69,2.05 21.69,2.09 21.94,2.09 21.94,2.12 22.19,2.12 22.19,2.16 22.44,2.16 22.44,2.19 22.69,2.19 22.69,2.23 22.94,2.23 22.94,2.26 23.19,2.26 23.19,2.3 23.44,2.3 23.44,2.33 23.68,2.33 23.68,2.37 23.93,2.37 23.93,2.4 24.18,2.4 24.18,2.44 24.43,2.44 24.43,2.47 24.68,2.47 24.68,2.51 24.93,2.51 24.93,2.54 25.18,2.54 25.18,2.58 25.42,2.58 25.42,2.61 25.67,2.61 25.67,2.64 25.92,2.64 25.92,2.68 26.17,2.68 26.17,2.71 26.42,2.71 26.42,2.75 26.67,2.75 26.67,2.78 26.92,2.78 26.92,2.81 27.16,2.81 27.16,2.85 27.41,2.85 27.41,2.88 27.66,2.88 27.66,2.91 27.91,2.91 27.91,2.95 28.16,2.95 28.16,2.98 28.41,2.98 28.41,3.01 28.66,3.01 28.66,3.04 28.91,3.04 28.91,3.08 29.15,3.08 29.15,3.11 29.4,3.11 29.4,3.14 29.65,3.14 29.65,3.17 29.9,3.17 29.9,3.21 30.15,3.21 30.15,3.24 30.4,3.24 30.4,3.27 30.65,3.27 30.65,3.3 30.89,3.3 30.89,3.33 31.14,3.33 31.14,3.37 31.39,3.37 31.39,3.4 31.64,3.4 31.64,3.43 31.89,3.43 31.89,3.46 32.14,3.46 32.14,3.49 32.39,3.49 32.39,3.52 32.64,3.52 32.64,3.56 32.88,3.56 32.88,3.59 33.13,3.59 33.13,3.62 33.38,3.62 33.38,3.65 33.63,3.65 33.63,3.68 33.88,3.68 33.88,3.71 34.13,3.71 34.13,3.74 34.38,3.74 34.38,3.77 34.62,3.77 34.62,3.8 34.87,3.8 34.87,3.83 35.12,3.83 35.12,3.86 35.37,3.86 35.37,3.89 35.62,3.89 35.62,3.92 35.87,3.92 35.87,3.95 36.12,3.95 36.12,3.98 36.36,3.98 36.36,4.01 36.61,4.01 36.61,4.04 36.86,4.04 36.86,4.07 37.11,4.07 37.11,4.1 37.36,4.1 37.36,4.13 37.61,4.13 37.61,4.16 37.86,4.16 37.86,4.19 38.11,4.19 38.11,4.22 38.35,4.22 38.35,4.25 38.6,4.25 38.6,4.28 38.85,4.28 38.85,4.31 39.1,4.31 39.1,4.33 39.35,4.33 39.35,4.36 39.6,4.36 39.6,4.39 39.85,4.39 39.85,4.42 40.09,4.42 40.09,4.45 40.34,4.45 40.34,4.48 40.59,4.48 40.59,4.5 40.84,4.5 40.84,4.53 41.09,4.53 41.09,4.56 41.34,4.56 41.34,4.59 41.59,4.59 41.59,4.62 41.84,4.62 41.84,4.64 42.08,4.64 42.08,4.67 42.33,4.67 42.33,4.7 42.58,4.7 42.58,4.73 42.83,4.73 42.83,4.76 43.08,4.76 43.08,4.78 43.33,4.78 43.33,4.81 43.58,4.81 43.58,4.84 43.82,4.84 43.82,4.86 44.07,4.86 44.07,4.89 44.32,4.89 44.32,4.92 44.57,4.92 44.57,4.95 44.82,4.95 44.82,4.97 45.07,4.97 45.07,5 45.32,5 45.32,5.03 45.56,5.03 45.56,5.05 45.81,5.05 45.81,5.08 46.06,5.08 46.06,5.11 46.31,5.11 46.31,5.13 46.56,5.13 46.56,5.16 46.81,5.16 46.81,5.18 47.06,5.18 47.06,5.21 47.31,5.21 47.31,5.24 47.55,5.24 47.55,5.26 47.8,5.26 47.8,5.29 48.05,5.29 48.05,5.31 48.3,5.31 48.3,5.34 48.55,5.34 48.55,5.36 48.8,5.36 48.8,5.39 49.05,5.39 49.05,5.42 49.29,5.42 49.29,5.44 49.54,5.44 49.54,5.47 49.79,5.47 49.79,5.49 50.04,5.49 50.04,5.52 50.29,5.52 50.29,5.54 50.54,5.54 50.54,5.57 50.79,5.57 50.79,5.59 51.04,5.59 51.04,5.62 51.28,5.62 51.28,5.64 51.53,5.64 51.53,5.67 51.78,5.67 51.78,5.69 52.03,5.69 52.03,5.72 52.28,5.72 52.28,5.74 52.53,5.74 52.53,5.76 52.78,5.76 52.78,5.79 53.02,5.79 53.02,5.81 53.27,5.81 53.27,5.84 53.52,5.84 53.52,5.86 53.77,5.86 53.77,5.89 54.02,5.89 54.02,5.91 54.27,5.91 54.27,5.93 54.52,5.93 54.52,5.96 54.76,5.96 54.76,5.98 55.01,5.98 55.01,6 55.26,6 55.26,6.03 55.51,6.03 55.51,6.05 55.76,6.05 55.76,6.08 56.01,6.08 56.01,6.1 56.26,6.1 56.26,6.12 56.51,6.12 56.51,6.15 56.75,6.15 56.75,6.17 57,6.17 57,6.19 57.25,6.19 57.25,6.21 57.5,6.21 57.5,6.24 57.75,6.24 57.75,6.26 58,6.26 58,6.28 58.25,6.28 58.25,6.31 58.49,6.31 58.49,6.33 58.74,6.33 58.74,6.35 58.99,6.35 58.99,6.37 59.24,6.37 59.24,6.4 59.49,6.4 59.49,6.42 59.74,6.42 59.74,6.44 59.99,6.44 59.99,6.46 60.24,6.46 60.24,6.49 60.48,6.49 60.48,6.51 60.73,6.51 60.73,6.53 60.98,6.53 60.98,6.55 61.23,6.55 61.23,6.57 61.48,6.57 61.48,6.6 61.73,6.6 61.73,6.62 61.98,6.62 61.98,6.64 62.22,6.64 62.22,6.66 62.47,6.66 62.47,6.68 62.72,6.68 62.72,6.71 62.97,6.71 62.97,6.73 63.22,6.73 63.22,6.75 63.47,6.75 63.47,6.77 63.72,6.77 63.72,6.79 63.96,6.79 63.96,6.81 64.21,6.81 64.21,6.83 64.46,6.83 64.46,6.86 64.71,6.86 64.71,6.88 64.96,6.88 64.96,6.9 65.21,6.9 65.21,6.92 65.46,6.92 65.46,6.94 65.71,6.94 65.71,6.96 65.95,6.96 65.95,6.98 66.2,6.98 66.2,7 66.45,7 66.45,7.02 66.7,7.02 66.7,7.04 66.95,7.04 66.95,7.06 67.2,7.06 67.2,7.08 67.45,7.08 67.45,7.1 67.69,7.1 67.69,7.12 67.94,7.12 67.94,7.15 68.19,7.15 68.19,7.17 68.44,7.17 68.44,7.19 68.69,7.19 68.69,7.21 68.94,7.21 68.94,7.23 69.19,7.23 69.19,7.25 69.44,7.25 69.44,7.27 69.68,7.27 69.68,7.29 69.93,7.29 69.93,7.31 70.18,7.31 70.18,7.33 70.43,7.33 70.43,7.35 70.68,7.35 70.68,7.37 70.93,7.37 70.93,7.38 71.18,7.38 71.18,7.4 71.42,7.4 71.42,7.42 71.67,7.42 71.67,7.44 71.92,7.44 71.92,7.46 72.17,7.46 72.17,7.48 72.42,7.48 72.42,7.5 72.67,7.5 72.67,7.52 72.92,7.52 72.92,7.54 73.16,7.54 73.16,7.56 73.41,7.56 73.41,7.58 73.66,7.58 73.66,7.6 73.91,7.6 73.91,7.62 74.16,7.62 74.16,7.64 74.41,7.64 74.41,7.65 74.66,7.65 74.66,7.67 74.91,7.67 74.91,7.69 75.15,7.69 75.15,7.71 75.4,7.71 75.4,7.73 75.65,7.73 75.65,7.75 75.9,7.75 75.9,7.77 76.15,7.77 76.15,7.79 76.4,7.79 76.4,7.8 76.65,7.8 76.65,7.82 76.89,7.82 76.89,7.84 77.14,7.84 77.14,7.86 77.39,7.86 77.39,7.88 77.64,7.88 77.64,7.9 77.89,7.9 77.89,7.91 78.14,7.91 78.14,7.93 78.39,7.93 78.39,7.95 78.64,7.95 78.64,7.97 78.88,7.97 78.88,7.99 79.13,7.99 79.13,8 79.38,8 79.38,8.02 79.63,8.02 79.63,8.04 79.88,8.04 79.88,8.06 80.13,8.06 80.13,8.08 80.38,8.08 80.38,8.09 80.62,8.09 80.62,8.11 80.87,8.11 80.87,8.13 81.12,8.13 81.12,8.15 81.37,8.15 81.37,8.16 81.62,8.16 81.62,8.18 81.87,8.18 81.87,8.2 82.12,8.2 82.12,8.22 82.36,8.22 82.36,8.23 82.61,8.23 82.61,8.25 82.86,8.25 82.86,8.27 83.11,8.27 83.11,8.28 83.36,8.28 83.36,8.3 83.61,8.3 83.61,8.32 83.86,8.32 83.86,8.34 84.11,8.34 84.11,8.35 84.35,8.35 84.35,8.37 84.6,8.37 84.6,8.39 84.85,8.39 84.85,8.4 85.1,8.4 85.1,8.42 85.35,8.42 85.35,8.44 85.6,8.44 85.6,8.45 85.85,8.45 85.85,8.47 86.09,8.47 86.09,8.49 86.34,8.49 86.34,8.5 86.59,8.5 86.59,8.52 86.84,8.52 86.84,8.54 87.09,8.54 87.09,8.55 87.34,8.55 87.34,8.57 87.59,8.57 87.59,8.59 87.84,8.59 87.84,8.6 88.08,8.6 88.08,8.62 88.33,8.62 88.33,8.63 88.58,8.63 88.58,8.65 88.83,8.65 88.83,8.67 89.08,8.67 89.08,8.68 89.33,8.68 89.33,8.7 89.58,8.7 89.58,8.72 89.82,8.72 89.82,8.73 90.07,8.73 90.07,8.75 90.32,8.75 90.32,8.76 90.57,8.76 90.57,8.78 90.82,8.78 90.82,8.8 91.07,8.8 91.07,8.81 91.32,8.81 91.32,8.83 91.56,8.83 91.56,8.84 91.81,8.84 91.81,8.86 92.06,8.86 92.06,8.87 92.31,8.87 92.31,8.89 92.56,8.89 92.56,8.9 92.81,8.9 92.81,8.92 93.06,8.92 93.06,8.94 93.31,8.94 93.31,8.95 93.55,8.95 93.55,8.97 93.8,8.97 93.8,8.98 94.05,8.98 94.05,9 94.3,9 94.3,9.01 94.55,9.01 94.55,9.03 94.8,9.03 94.8,9.04 95.05,9.04 95.05,9.06 95.29,9.06 95.29,9.07 95.54,9.07 95.54,9.09 95.79,9.09 95.79,9.1 96.04,9.1 96.04,9.12 96.29,9.12 96.29,9.13 96.54,9.13 96.54,9.15 96.79,9.15 96.79,9.16 97.04,9.16 97.04,9.18 97.28,9.18 97.28,9.19 97.53,9.19 97.53,9.21 97.78,9.21 97.78,9.22 98.03,9.22 98.03,9.24 98.28,9.24 98.28,9.25 98.53,9.25 98.53,9.27 98.78,9.27 98.78,9.28 99.02,9.28 99.02,9.3 99.27,9.3 99.27,9.31 " class="primitive"/>
            </g>
          </g>
        </g>
        <g stroke-width="0.3" fill="#000000" fill-opacity="0.000" class="geometry" id="img-e98bf2fc-35">
          <g class="color_RGB{N0f8}(0.063,0.306,0.545)" stroke-dasharray="none" stroke="#104E8B" id="img-e98bf2fc-36">
            <g transform="translate(119.46,-25.14)" id="img-e98bf2fc-37">
              <path fill="none" d="M-99.4,84.99 L-99.15,84.99 -99.15,84.99 -98.9,84.99 -98.9,84.98 -98.65,84.98 -98.65,84.98 -98.4,84.98 -98.4,84.99 -98.15,84.99 -98.15,85 -97.91,85 -97.91,85 -97.66,85 -97.66,85 -97.41,85 -97.41,85 -97.16,85 -97.16,85.01 -96.91,85.01 -96.91,85 -96.66,85 -96.66,85 -96.41,85 -96.41,84.98 -96.16,84.98 -96.16,84.97 -95.92,84.97 -95.92,84.92 -95.67,84.92 -95.67,84.84 -95.42,84.84 -95.42,84.75 -95.17,84.75 -95.17,84.53 -94.92,84.53 -94.92,84.21 -94.67,84.21 -94.67,83.68 -94.42,83.68 -94.42,82.57 -94.18,82.57 -94.18,80.33 -93.93,80.33 -93.93,76.3 -93.68,76.3 -93.68,69.5 -93.43,69.5 -93.43,59.72 -93.18,59.72 -93.18,48.83 -92.93,48.83 -92.93,39.96 -92.68,39.96 -92.68,37.21 -92.43,37.21 -92.43,40.7 -92.19,40.7 -92.19,49.08 -91.94,49.08 -91.94,58.53 -91.69,58.53 -91.69,66.3 -91.44,66.3 -91.44,70.81 -91.19,70.81 -91.19,72.46 -90.94,72.46 -90.94,72.48 -90.69,72.48 -90.69,70.69 -90.45,70.69 -90.45,68.8 -90.2,68.8 -90.2,66.83 -89.95,66.83 -89.95,65.17 -89.7,65.17 -89.7,63.68 -89.45,63.68 -89.45,62.55 -89.2,62.55 -89.2,59.75 -88.95,59.75 -88.95,55.23 -88.71,55.23 -88.71,44.96 -88.46,44.96 -88.46,24.69 -88.21,24.69 -88.21,-17.37 -87.96,-17.37 -87.96,-95.02 -87.71,-95.02 -87.71,-226.35 -87.46,-226.35 -87.46,-426.56 -87.21,-426.56 -87.21,-684.59 -86.96,-684.59 -86.96,-950.06 -86.72,-950.06 -86.72,-1144.02 -86.47,-1144.02 -86.47,-1192.66 -86.22,-1192.66 -86.22,-1075.23 -85.97,-1075.23 -85.97,-830.7 -85.72,-830.7 -85.72,-545.63 -85.47,-545.63 -85.47,-299.08 -85.22,-299.08 -85.22,-122.77 -84.98,-122.77 -84.98,-18.41 -84.73,-18.41 -84.73,34.57 -84.48,34.57 -84.48,57.46 -84.23,57.46 -84.23,66.33 -83.98,66.33 -83.98,69.31 -83.73,69.31 -83.73,69.82 -83.48,69.82 -83.48,69.69 -83.23,69.69 -83.23,68.9 -82.99,68.9 -82.99,68.13 -82.74,68.13 -82.74,67.2 -82.49,67.2 -82.49,66.2 -82.24,66.2 -82.24,66.03 -81.99,66.03 -81.99,65.55 -81.74,65.55 -81.74,66 -81.49,66 -81.49,65.95 -81.25,65.95 -81.25,66.16 -81,66.16 -81,66.08 -80.75,66.08 -80.75,65.96 -80.5,65.96 -80.5,65.74 -80.25,65.74 -80.25,64.99 -80,64.99 -80,64.52 -79.75,64.52 -79.75,63.91 -79.51,63.91 -79.51,63.32 -79.26,63.32 -79.26,62.23 -79.01,62.23 -79.01,61.39 -78.76,61.39 -78.76,60.7 -78.51,60.7 -78.51,60.36 -78.26,60.36 -78.26,59.44 -78.01,59.44 -78.01,58.36 -77.76,58.36 -77.76,58.01 -77.52,58.01 -77.52,57.04 -77.27,57.04 -77.27,56.26 -77.02,56.26 -77.02,55.54 -76.77,55.54 -76.77,54.49 -76.52,54.49 -76.52,53.19 -76.27,53.19 -76.27,52.53 -76.02,52.53 -76.02,51.63 -75.78,51.63 -75.78,50.43 -75.53,50.43 -75.53,49.13 -75.28,49.13 -75.28,47.74 -75.03,47.74 -75.03,46.58 -74.78,46.58 -74.78,45.05 -74.53,45.05 -74.53,42.99 -74.28,42.99 -74.28,41.25 -74.03,41.25 -74.03,38.57 -73.79,38.57 -73.79,36.13 -73.54,36.13 -73.54,33.95 -73.29,33.95 -73.29,31.23 -73.04,31.23 -73.04,28.44 -72.79,28.44 -72.79,26.12 -72.54,26.12 -72.54,22.81 -72.29,22.81 -72.29,19.19 -72.05,19.19 -72.05,15.48 -71.8,15.48 -71.8,10.12 -71.55,10.12 -71.55,4.4 -71.3,4.4 -71.3,-4 -71.05,-4 -71.05,-18.56 -70.8,-18.56 -70.8,-44.2 -70.55,-44.2 -70.55,-96.1 -70.31,-96.1 -70.31,-205.78 -70.06,-205.78 -70.06,-418.72 -69.81,-418.72 -69.81,-795.45 -69.56,-795.45 -69.56,-1399.51 -69.31,-1399.51 -69.31,-2251.52 -69.06,-2251.52 -69.06,-3284.92 -68.81,-3284.92 -68.81,-4347.85 -68.56,-4347.85 -68.56,-5204.69 -68.32,-5204.69 -68.32,-5631.05 -68.07,-5631.05 -68.07,-5517.65 -67.82,-5517.65 -67.82,-4889.75 -67.57,-4889.75 -67.57,-3938.8 -67.32,-3938.8 -67.32,-2875.12 -67.07,-2875.12 -67.07,-1917.73 -66.82,-1917.73 -66.82,-1162.33 -66.58,-1162.33 -66.58,-639.86 -66.33,-639.86 -66.33,-314.48 -66.08,-314.48 -66.08,-129.5 -65.83,-129.5 -65.83,-31.22 -65.58,-31.22 -65.58,18.1 -65.33,18.1 -65.33,42.11 -65.08,42.11 -65.08,53.53 -64.83,53.53 -64.83,59.94 -64.59,59.94 -64.59,63.13 -64.34,63.13 -64.34,65.18 -64.09,65.18 -64.09,66.2 -63.84,66.2 -63.84,66.84 -63.59,66.84 -63.59,66.78 -63.34,66.78 -63.34,66.75 -63.09,66.75 -63.09,66.91 -62.85,66.91 -62.85,66.46 -62.6,66.46 -62.6,66.45 -62.35,66.45 -62.35,66.37 -62.1,66.37 -62.1,66.15 -61.85,66.15 -61.85,66.37 -61.6,66.37 -61.6,66.23 -61.35,66.23 -61.35,66.62 -61.11,66.62 -61.11,66.68 -60.86,66.68 -60.86,66.92 -60.61,66.92 -60.61,67.3 -60.36,67.3 -60.36,67.38 -60.11,67.38 -60.11,67.51 -59.86,67.51 -59.86,67.53 -59.61,67.53 -59.61,67.59 -59.36,67.59 -59.36,67.39 -59.12,67.39 -59.12,66.95 -58.87,66.95 -58.87,66.98 -58.62,66.98 -58.62,66.71 -58.37,66.71 -58.37,66.44 -58.12,66.44 -58.12,66.27 -57.87,66.27 -57.87,65.73 -57.62,65.73 -57.62,65.18 -57.38,65.18 -57.38,64.42 -57.13,64.42 -57.13,63.25 -56.88,63.25 -56.88,61.33 -56.63,61.33 -56.63,59.9 -56.38,59.9 -56.38,57.9 -56.13,57.9 -56.13,55.39 -55.88,55.39 -55.88,53.52 -55.63,53.52 -55.63,51.83 -55.39,51.83 -55.39,51.02 -55.14,51.02 -55.14,51.59 -54.89,51.59 -54.89,52.68 -54.64,52.68 -54.64,54.52 -54.39,54.52 -54.39,56.4 -54.14,56.4 -54.14,58.93 -53.89,58.93 -53.89,60.76 -53.65,60.76 -53.65,62.1 -53.4,62.1 -53.4,63.33 -53.15,63.33 -53.15,63.99 -52.9,63.99 -52.9,64.46 -52.65,64.46 -52.65,64.52 -52.4,64.52 -52.4,64.93 -52.15,64.93 -52.15,65.05 -51.91,65.05 -51.91,64.81 -51.66,64.81 -51.66,64.67 -51.41,64.67 -51.41,64.62 -51.16,64.62 -51.16,65.05 -50.91,65.05 -50.91,64.4 -50.66,64.4 -50.66,64.43 -50.41,64.43 -50.41,64.17 -50.16,64.17 -50.16,64.18 -49.92,64.18 -49.92,64.31 -49.67,64.31 -49.67,63.85 -49.42,63.85 -49.42,63.75 -49.17,63.75 -49.17,63.92 -48.92,63.92 -48.92,64 -48.67,64 -48.67,63.99 -48.42,63.99 -48.42,63.55 -48.18,63.55 -48.18,63.47 -47.93,63.47 -47.93,63.47 -47.68,63.47 -47.68,63.48 -47.43,63.48 -47.43,63.09 -47.18,63.09 -47.18,63.72 -46.93,63.72 -46.93,63.07 -46.68,63.07 -46.68,63.18 -46.44,63.18 -46.44,63.07 -46.19,63.07 -46.19,62.98 -45.94,62.98 -45.94,62.91 -45.69,62.91 -45.69,63.13 -45.44,63.13 -45.44,63.07 -45.19,63.07 -45.19,62.94 -44.94,62.94 -44.94,63.25 -44.69,63.25 -44.69,63.12 -44.45,63.12 -44.45,62.77 -44.2,62.77 -44.2,62.69 -43.95,62.69 -43.95,62.76 -43.7,62.76 -43.7,62.85 -43.45,62.85 -43.45,62.86 -43.2,62.86 -43.2,62.51 -42.95,62.51 -42.95,62.49 -42.71,62.49 -42.71,62.54 -42.46,62.54 -42.46,62.55 -42.21,62.55 -42.21,62.21 -41.96,62.21 -41.96,62.31 -41.71,62.31 -41.71,62.16 -41.46,62.16 -41.46,61.91 -41.21,61.91 -41.21,62.17 -40.96,62.17 -40.96,62.12 -40.72,62.12 -40.72,62 -40.47,62 -40.47,61.87 -40.22,61.87 -40.22,61.79 -39.97,61.79 -39.97,62.05 -39.72,62.05 -39.72,61.72 -39.47,61.72 -39.47,61.35 -39.22,61.35 -39.22,60.58 -38.98,60.58 -38.98,59.94 -38.73,59.94 -38.73,58.4 -38.48,58.4 -38.48,56.64 -38.23,56.64 -38.23,53.98 -37.98,53.98 -37.98,52.07 -37.73,52.07 -37.73,49.54 -37.48,49.54 -37.48,47.29 -37.24,47.29 -37.24,46.02 -36.99,46.02 -36.99,45.41 -36.74,45.41 -36.74,46.18 -36.49,46.18 -36.49,47.76 -36.24,47.76 -36.24,49.53 -35.99,49.53 -35.99,51.47 -35.74,51.47 -35.74,54.14 -35.49,54.14 -35.49,56.51 -35.25,56.51 -35.25,58.11 -35,58.11 -35,59.9 -34.75,59.9 -34.75,60.85 -34.5,60.85 -34.5,61.28 -34.25,61.28 -34.25,61.9 -34,61.9 -34,62.27 -33.75,62.27 -33.75,61.84 -33.51,61.84 -33.51,62.41 -33.26,62.41 -33.26,62.45 -33.01,62.45 -33.01,62.21 -32.76,62.21 -32.76,62.26 -32.51,62.26 -32.51,62.46 -32.26,62.46 -32.26,62.64 -32.01,62.64 -32.01,62.5 -31.76,62.5 -31.76,62.68 -31.52,62.68 -31.52,62.63 -31.27,62.63 -31.27,62.85 -31.02,62.85 -31.02,63.06 -30.77,63.06 -30.77,62.78 -30.52,62.78 -30.52,63.15 -30.27,63.15 -30.27,63.11 -30.02,63.11 -30.02,63.04 -29.78,63.04 -29.78,62.84 -29.53,62.84 -29.53,63.17 -29.28,63.17 -29.28,63.18 -29.03,63.18 -29.03,62.97 -28.78,62.97 -28.78,63.38 -28.53,63.38 -28.53,63.16 -28.28,63.16 -28.28,63.02 -28.04,63.02 -28.04,63.06 -27.79,63.06 -27.79,63.52 -27.54,63.52 -27.54,63.47 -27.29,63.47 -27.29,63.67 -27.04,63.67 -27.04,63.73 -26.79,63.73 -26.79,63.26 -26.54,63.26 -26.54,63.59 -26.29,63.59 -26.29,63.86 -26.05,63.86 -26.05,63.51 -25.8,63.51 -25.8,63.79 -25.55,63.79 -25.55,63.67 -25.3,63.67 -25.3,63.41 -25.05,63.41 -25.05,63.77 -24.8,63.77 -24.8,63.65 -24.55,63.65 -24.55,64.04 -24.31,64.04 -24.31,64.04 -24.06,64.04 -24.06,63.8 -23.81,63.8 -23.81,64.13 -23.56,64.13 -23.56,64.02 -23.31,64.02 -23.31,63.85 -23.06,63.85 -23.06,63.96 -22.81,63.96 -22.81,64.36 -22.56,64.36 -22.56,64.27 -22.32,64.27 -22.32,64.41 -22.07,64.41 -22.07,64.46 -21.82,64.46 -21.82,64.34 -21.57,64.34 -21.57,64.4 -21.32,64.4 -21.32,64.08 -21.07,64.08 -21.07,65.03 -20.82,65.03 -20.82,64.94 -20.58,64.94 -20.58,64.77 -20.33,64.77 -20.33,64.93 -20.08,64.93 -20.08,64.86 -19.83,64.86 -19.83,65.12 -19.58,65.12 -19.58,64.82 -19.33,64.82 -19.33,64.86 -19.08,64.86 -19.08,64.85 -18.84,64.85 -18.84,65.14 -18.59,65.14 -18.59,64.87 -18.34,64.87 -18.34,65.29 -18.09,65.29 -18.09,65.21 -17.84,65.21 -17.84,64.98 -17.59,64.98 -17.59,65.28 -17.34,65.28 -17.34,65.62 -17.09,65.62 -17.09,65.59 -16.85,65.59 -16.85,65.36 -16.6,65.36 -16.6,65.59 -16.35,65.59 -16.35,65.73 -16.1,65.73 -16.1,65.77 -15.85,65.77 -15.85,65.65 -15.6,65.65 -15.6,65.98 -15.35,65.98 -15.35,65.72 -15.11,65.72 -15.11,65.71 -14.86,65.71 -14.86,65.9 -14.61,65.9 -14.61,65.98 -14.36,65.98 -14.36,66.08 -14.11,66.08 -14.11,65.83 -13.86,65.83 -13.86,66.19 -13.61,66.19 -13.61,66.1 -13.36,66.1 -13.36,66.22 -13.12,66.22 -13.12,66.24 -12.87,66.24 -12.87,66.2 -12.62,66.2 -12.62,66.28 -12.37,66.28 -12.37,66.18 -12.12,66.18 -12.12,66.49 -11.87,66.49 -11.87,66.51 -11.62,66.51 -11.62,66.27 -11.38,66.27 -11.38,66.37 -11.13,66.37 -11.13,66.46 -10.88,66.46 -10.88,66.58 -10.63,66.58 -10.63,66.46 -10.38,66.46 -10.38,66.63 -10.13,66.63 -10.13,66.68 -9.88,66.68 -9.88,66.31 -9.64,66.31 -9.64,66.46 -9.39,66.46 -9.39,66.8 -9.14,66.8 -9.14,66.7 -8.89,66.7 -8.89,66.42 -8.64,66.42 -8.64,66.54 -8.39,66.54 -8.39,66.25 -8.14,66.25 -8.14,66.42 -7.89,66.42 -7.89,66.34 -7.65,66.34 -7.65,66.2 -7.4,66.2 -7.4,66 -7.15,66 -7.15,66.54 -6.9,66.54 -6.9,66.43 -6.65,66.43 -6.65,66.62 -6.4,66.62 -6.4,66.88 -6.15,66.88 -6.15,66.99 -5.91,66.99 -5.91,67.01 -5.66,67.01 -5.66,67.54 -5.41,67.54 -5.41,67.72 -5.16,67.72 -5.16,67.67 -4.91,67.67 -4.91,67.46 -4.66,67.46 -4.66,67.61 -4.41,67.61 -4.41,67.92 -4.16,67.92 -4.16,67.85 -3.92,67.85 -3.92,67.88 -3.67,67.88 -3.67,67.95 -3.42,67.95 -3.42,68.07 -3.17,68.07 -3.17,68.03 -2.92,68.03 -2.92,67.95 -2.67,67.95 -2.67,68.27 -2.42,68.27 -2.42,68.07 -2.18,68.07 -2.18,67.98 -1.93,67.98 -1.93,68.32 -1.68,68.32 -1.68,68.17 -1.43,68.17 -1.43,68.52 -1.18,68.52 -1.18,68.31 -0.93,68.31 -0.93,68.46 -0.68,68.46 -0.68,68.22 -0.44,68.22 -0.44,68.63 -0.19,68.63 -0.19,68.53 0.06,68.53 0.06,68.85 0.31,68.85 0.31,68.5 0.56,68.5 0.56,68.45 0.81,68.45 0.81,68.5 1.06,68.5 1.06,68.8 1.31,68.8 1.31,68.7 1.55,68.7 1.55,69.21 1.8,69.21 1.8,68.94 2.05,68.94 2.05,68.81 2.3,68.81 2.3,69.26 2.55,69.26 2.55,69.07 2.8,69.07 2.8,69.27 3.05,69.27 3.05,69.29 3.29,69.29 3.29,69.33 3.54,69.33 3.54,69.42 3.79,69.42 3.79,69.36 4.04,69.36 4.04,69.44 4.29,69.44 4.29,69.64 4.54,69.64 4.54,69.68 4.79,69.68 4.79,69.65 5.04,69.65 5.04,69.45 5.28,69.45 5.28,69.51 5.53,69.51 5.53,69.79 5.78,69.79 5.78,69.86 6.03,69.86 6.03,69.56 6.28,69.56 6.28,69.84 6.53,69.84 6.53,69.89 6.78,69.89 6.78,69.9 7.02,69.9 7.02,69.9 7.27,69.9 7.27,69.97 7.52,69.97 7.52,70.01 7.77,70.01 7.77,69.96 8.02,69.96 8.02,70.37 8.27,70.37 8.27,70.38 8.52,70.38 8.52,70.43 8.76,70.43 8.76,70.46 9.01,70.46 9.01,70.49 9.26,70.49 9.26,70.48 9.51,70.48 9.51,70.35 9.76,70.35 9.76,70.27 10.01,70.27 10.01,70.59 10.26,70.59 10.26,70.76 10.51,70.76 10.51,70.81 10.75,70.81 10.75,70.56 11,70.56 11,70.76 11.25,70.76 11.25,70.82 11.5,70.82 11.5,70.76 11.75,70.76 11.75,70.89 12,70.89 12,70.88 12.25,70.88 12.25,71.02 12.49,71.02 12.49,70.94 12.74,70.94 12.74,71.15 12.99,71.15 12.99,70.78 13.24,70.78 13.24,71.1 13.49,71.1 13.49,70.99 13.74,70.99 13.74,71.09 13.99,71.09 13.99,71.25 14.24,71.25 14.24,71.25 14.48,71.25 14.48,71.34 14.73,71.34 14.73,71.36 14.98,71.36 14.98,71.3 15.23,71.3 15.23,71.46 15.48,71.46 15.48,71.29 15.73,71.29 15.73,71.59 15.98,71.59 15.98,71.51 16.22,71.51 16.22,71.33 16.47,71.33 16.47,71.48 16.72,71.48 16.72,71.49 16.97,71.49 16.97,71.64 17.22,71.64 17.22,71.55 17.47,71.55 17.47,71.57 17.72,71.57 17.72,71.8 17.96,71.8 17.96,72.02 18.21,72.02 18.21,71.72 18.46,71.72 18.46,72.1 18.71,72.1 18.71,71.94 18.96,71.94 18.96,71.95 19.21,71.95 19.21,71.91 19.46,71.91 19.46,72.09 19.71,72.09 19.71,71.81 19.95,71.81 19.95,72.08 20.2,72.08 20.2,72.04 20.45,72.04 20.45,72.19 20.7,72.19 20.7,72.37 20.95,72.37 20.95,72.33 21.2,72.33 21.2,72.25 21.45,72.25 21.45,72.25 21.69,72.25 21.69,72.3 21.94,72.3 21.94,72.43 22.19,72.43 22.19,72.39 22.44,72.39 22.44,72.51 22.69,72.51 22.69,72.34 22.94,72.34 22.94,72.55 23.19,72.55 23.19,72.44 23.44,72.44 23.44,72.23 23.68,72.23 23.68,72.47 23.93,72.47 23.93,72.56 24.18,72.56 24.18,72.42 24.43,72.42 24.43,72.44 24.68,72.44 24.68,72.65 24.93,72.65 24.93,72.95 25.18,72.95 25.18,72.76 25.42,72.76 25.42,72.7 25.67,72.7 25.67,72.88 25.92,72.88 25.92,73.03 26.17,73.03 26.17,72.88 26.42,72.88 26.42,73.02 26.67,73.02 26.67,72.89 26.92,72.89 26.92,73.03 27.16,73.03 27.16,72.95 27.41,72.95 27.41,73.05 27.66,73.05 27.66,73.18 27.91,73.18 27.91,72.95 28.16,72.95 28.16,73.07 28.41,73.07 28.41,73.36 28.66,73.36 28.66,73.3 28.91,73.3 28.91,73.22 29.15,73.22 29.15,73.23 29.4,73.23 29.4,73.12 29.65,73.12 29.65,73.34 29.9,73.34 29.9,73.27 30.15,73.27 30.15,73.44 30.4,73.44 30.4,73.57 30.65,73.57 30.65,73.75 30.89,73.75 30.89,73.66 31.14,73.66 31.14,73.68 31.39,73.68 31.39,73.91 31.64,73.91 31.64,73.65 31.89,73.65 31.89,73.75 32.14,73.75 32.14,73.68 32.39,73.68 32.39,73.84 32.64,73.84 32.64,73.5 32.88,73.5 32.88,73.93 33.13,73.93 33.13,73.71 33.38,73.71 33.38,73.99 33.63,73.99 33.63,73.87 33.88,73.87 33.88,73.67 34.13,73.67 34.13,73.64 34.38,73.64 34.38,73.69 34.62,73.69 34.62,73.8 34.87,73.8 34.87,74.12 35.12,74.12 35.12,73.66 35.37,73.66 35.37,74.05 35.62,74.05 35.62,73.72 35.87,73.72 35.87,74.06 36.12,74.06 36.12,74.04 36.36,74.04 36.36,73.89 36.61,73.89 36.61,74.08 36.86,74.08 36.86,74.14 37.11,74.14 37.11,74.3 37.36,74.3 37.36,74.24 37.61,74.24 37.61,74.36 37.86,74.36 37.86,74.57 38.11,74.57 38.11,74.4 38.35,74.4 38.35,74.56 38.6,74.56 38.6,74.78 38.85,74.78 38.85,74.44 39.1,74.44 39.1,74.52 39.35,74.52 39.35,74.74 39.6,74.74 39.6,74.74 39.85,74.74 39.85,74.77 40.09,74.77 40.09,74.7 40.34,74.7 40.34,74.86 40.59,74.86 40.59,74.97 40.84,74.97 40.84,74.95 41.09,74.95 41.09,74.59 41.34,74.59 41.34,74.87 41.59,74.87 41.59,74.94 41.84,74.94 41.84,74.87 42.08,74.87 42.08,75.06 42.33,75.06 42.33,75.06 42.58,75.06 42.58,74.94 42.83,74.94 42.83,75.17 43.08,75.17 43.08,75.02 43.33,75.02 43.33,75.09 43.58,75.09 43.58,75.09 43.82,75.09 43.82,75.11 44.07,75.11 44.07,75.02 44.32,75.02 44.32,75.14 44.57,75.14 44.57,75.13 44.82,75.13 44.82,75.3 45.07,75.3 45.07,75.39 45.32,75.39 45.32,75.35 45.56,75.35 45.56,75.25 45.81,75.25 45.81,75.49 46.06,75.49 46.06,75.28 46.31,75.28 46.31,75.4 46.56,75.4 46.56,75.16 46.81,75.16 46.81,75.53 47.06,75.53 47.06,75.52 47.31,75.52 47.31,75.53 47.55,75.53 47.55,75.56 47.8,75.56 47.8,75.51 48.05,75.51 48.05,75.38 48.3,75.38 48.3,75.66 48.55,75.66 48.55,75.71 48.8,75.71 48.8,75.62 49.05,75.62 49.05,75.57 49.29,75.57 49.29,75.78 49.54,75.78 49.54,75.55 49.79,75.55 49.79,75.83 50.04,75.83 50.04,75.81 50.29,75.81 50.29,75.93 50.54,75.93 50.54,75.92 50.79,75.92 50.79,75.81 51.04,75.81 51.04,75.96 51.28,75.96 51.28,75.96 51.53,75.96 51.53,76.16 51.78,76.16 51.78,76.15 52.03,76.15 52.03,75.92 52.28,75.92 52.28,75.93 52.53,75.93 52.53,76.11 52.78,76.11 52.78,76.27 53.02,76.27 53.02,76.03 53.27,76.03 53.27,76.06 53.52,76.06 53.52,76.26 53.77,76.26 53.77,76.14 54.02,76.14 54.02,76.12 54.27,76.12 54.27,76.21 54.52,76.21 54.52,76.13 54.76,76.13 54.76,76.34 55.01,76.34 55.01,76.21 55.26,76.21 55.26,76.29 55.51,76.29 55.51,76.32 55.76,76.32 55.76,76.43 56.01,76.43 56.01,76.21 56.26,76.21 56.26,76.45 56.51,76.45 56.51,76.41 56.75,76.41 56.75,76.08 57,76.08 57,76.23 57.25,76.23 57.25,76.25 57.5,76.25 57.5,76.04 57.75,76.04 57.75,76.31 58,76.31 58,76.07 58.25,76.07 58.25,76.03 58.49,76.03 58.49,75.97 58.74,75.97 58.74,75.98 58.99,75.98 58.99,75.75 59.24,75.75 59.24,76.03 59.49,76.03 59.49,75.9 59.74,75.9 59.74,76.02 59.99,76.02 59.99,75.95 60.24,75.95 60.24,75.86 60.48,75.86 60.48,76.07 60.73,76.07 60.73,76.23 60.98,76.23 60.98,76.41 61.23,76.41 61.23,76.33 61.48,76.33 61.48,76.34 61.73,76.34 61.73,76.68 61.98,76.68 61.98,76.65 62.22,76.65 62.22,76.66 62.47,76.66 62.47,77.01 62.72,77.01 62.72,76.89 62.97,76.89 62.97,76.87 63.22,76.87 63.22,76.96 63.47,76.96 63.47,77.03 63.72,77.03 63.72,77.01 63.96,77.01 63.96,77.07 64.21,77.07 64.21,77.12 64.46,77.12 64.46,77.22 64.71,77.22 64.71,77.18 64.96,77.18 64.96,77.15 65.21,77.15 65.21,77.12 65.46,77.12 65.46,77.29 65.71,77.29 65.71,77.16 65.95,77.16 65.95,77.36 66.2,77.36 66.2,77.24 66.45,77.24 66.45,77.31 66.7,77.31 66.7,77.17 66.95,77.17 66.95,77.58 67.2,77.58 67.2,77.28 67.45,77.28 67.45,77.39 67.69,77.39 67.69,77.36 67.94,77.36 67.94,77.29 68.19,77.29 68.19,77.43 68.44,77.43 68.44,77.47 68.69,77.47 68.69,77.48 68.94,77.48 68.94,77.54 69.19,77.54 69.19,77.4 69.44,77.4 69.44,77.53 69.68,77.53 69.68,77.48 69.93,77.48 69.93,77.67 70.18,77.67 70.18,77.69 70.43,77.69 70.43,77.65 70.68,77.65 70.68,77.67 70.93,77.67 70.93,77.85 71.18,77.85 71.18,77.65 71.42,77.65 71.42,77.7 71.67,77.7 71.67,77.61 71.92,77.61 71.92,77.69 72.17,77.69 72.17,77.76 72.42,77.76 72.42,77.75 72.67,77.75 72.67,77.74 72.92,77.74 72.92,77.77 73.16,77.77 73.16,77.73 73.41,77.73 73.41,77.82 73.66,77.82 73.66,77.94 73.91,77.94 73.91,77.82 74.16,77.82 74.16,77.92 74.41,77.92 74.41,77.82 74.66,77.82 74.66,77.91 74.91,77.91 74.91,77.8 75.15,77.8 75.15,77.99 75.4,77.99 75.4,77.78 75.65,77.78 75.65,77.87 75.9,77.87 75.9,77.85 76.15,77.85 76.15,77.9 76.4,77.9 76.4,77.94 76.65,77.94 76.65,78.1 76.89,78.1 76.89,77.93 77.14,77.93 77.14,78.08 77.39,78.08 77.39,78.03 77.64,78.03 77.64,77.91 77.89,77.91 77.89,78.18 78.14,78.18 78.14,78.27 78.39,78.27 78.39,78.2 78.64,78.2 78.64,78.21 78.88,78.21 78.88,78.34 79.13,78.34 79.13,78.21 79.38,78.21 79.38,78.35 79.63,78.35 79.63,78.5 79.88,78.5 79.88,78.43 80.13,78.43 80.13,78.21 80.38,78.21 80.38,78.24 80.62,78.24 80.62,78.44 80.87,78.44 80.87,78.45 81.12,78.45 81.12,78.42 81.37,78.42 81.37,78.23 81.62,78.23 81.62,78.39 81.87,78.39 81.87,78.42 82.12,78.42 82.12,78.46 82.36,78.46 82.36,78.59 82.61,78.59 82.61,78.44 82.86,78.44 82.86,78.47 83.11,78.47 83.11,78.44 83.36,78.44 83.36,78.57 83.61,78.57 83.61,78.5 83.86,78.5 83.86,78.69 84.11,78.69 84.11,78.64 84.35,78.64 84.35,78.59 84.6,78.59 84.6,78.47 84.85,78.47 84.85,78.41 85.1,78.41 85.1,78.51 85.35,78.51 85.35,78.58 85.6,78.58 85.6,78.56 85.85,78.56 85.85,78.55 86.09,78.55 86.09,78.47 86.34,78.47 86.34,78.59 86.59,78.59 86.59,78.33 86.84,78.33 86.84,78.77 87.09,78.77 87.09,78.63 87.34,78.63 87.34,78.63 87.59,78.63 87.59,78.68 87.84,78.68 87.84,78.73 88.08,78.73 88.08,78.74 88.33,78.74 88.33,78.73 88.58,78.73 88.58,78.79 88.83,78.79 88.83,78.72 89.08,78.72 89.08,78.88 89.33,78.88 89.33,78.82 89.58,78.82 89.58,78.84 89.82,78.84 89.82,79 90.07,79 90.07,78.91 90.32,78.91 90.32,78.87 90.57,78.87 90.57,79.06 90.82,79.06 90.82,78.93 91.07,78.93 91.07,79.09 91.32,79.09 91.32,79 91.56,79 91.56,79.01 91.81,79.01 91.81,78.99 92.06,78.99 92.06,79 92.31,79 92.31,79.15 92.56,79.15 92.56,79.17 92.81,79.17 92.81,79.05 93.06,79.05 93.06,79.18 93.31,79.18 93.31,79.12 93.55,79.12 93.55,78.98 93.8,78.98 93.8,79.26 94.05,79.26 94.05,79.16 94.3,79.16 94.3,79.21 94.55,79.21 94.55,79.23 94.8,79.23 94.8,79.29 95.05,79.29 95.05,79.26 95.29,79.26 95.29,79.57 95.54,79.57 95.54,79.24 95.79,79.24 95.79,79.24 96.04,79.24 96.04,79.52 96.29,79.52 96.29,79.22 96.54,79.22 96.54,79.55 96.79,79.55 96.79,79.42 97.04,79.42 97.04,79.19 97.28,79.19 97.28,79.42 97.53,79.42 97.53,79.33 97.78,79.33 97.78,79.64 98.03,79.64 98.03,79.52 98.28,79.52 98.28,79.39 98.53,79.39 98.53,79.46 98.78,79.46 98.78,79.51 99.02,79.51 99.02,79.53 99.27,79.53 99.27,79.35 " class="primitive"/>
            </g>
          </g>
        </g>
      </g>
    </g>
  </g>
  <g class="guide ylabels" font-size="2.82" font-family="'PT Sans Caption','Helvetica Neue','Helvetica',sans-serif" fill="#6C606B" id="img-e98bf2fc-38">
    <g transform="translate(17.03,59.87)" id="img-e98bf2fc-39">
      <g class="primitive">
        <text text-anchor="end" dy="0.35em">0</text>
      </g>
    </g>
    <g transform="translate(17.03,45.86)" id="img-e98bf2fc-40">
      <g class="primitive">
        <text text-anchor="end" dy="0.35em">10000</text>
      </g>
    </g>
    <g transform="translate(17.03,31.86)" id="img-e98bf2fc-41">
      <g class="primitive">
        <text text-anchor="end" dy="0.35em">20000</text>
      </g>
    </g>
    <g transform="translate(17.03,17.85)" id="img-e98bf2fc-42">
      <g class="primitive">
        <text text-anchor="end" dy="0.35em">30000</text>
      </g>
    </g>
    <g transform="translate(17.03,3.85)" id="img-e98bf2fc-43">
      <g class="primitive">
        <text text-anchor="end" dy="0.35em">40000</text>
      </g>
    </g>
  </g>
  <g font-size="3.18" font-family="'PT Sans','Helvetica Neue','Helvetica',sans-serif" fill="#202020" stroke="#000000" stroke-opacity="0.000" id="img-e98bf2fc-44">
    <g transform="translate(4.18,29.29)" id="img-e98bf2fc-45">
      <g class="primitive">
        <text text-anchor="middle" dy="0.35em" transform="rotate(-90,0, 2)">Counts</text>
      </g>
    </g>
  </g>
</g>
<defs>
  <clipPath id="img-e98bf2fc-15">
    <path d="M18.03,0.71 L220.97,0.71 220.97,61.87 18.03,61.87 " />
  </clipPath>
</defs>
</svg>
