<?xml version="1.0" encoding="UTF-8"?>
<svg xmlns="http://www.w3.org/2000/svg"
     xmlns:xlink="http://www.w3.org/1999/xlink"
     xmlns:gadfly="http://www.gadflyjl.org/ns"
     version="1.2"
     width="254mm" height="76.2mm" viewBox="0 0 254 76.2"
     stroke="none"
     fill="#000000"
     stroke-width="0.3"
     font-size="3.88"
>
<defs>
  <marker id="arrow" markerWidth="15" markerHeight="7" refX="5" refY="3.5" orient="auto" markerUnits="strokeWidth">
    <path d="M0,0 L15,3.5 L0,7 z" stroke="context-stroke" fill="context-stroke"/>
  </marker>
</defs>
<g class="plotroot xscalable yscalable" id="img-bd35500a-1">
  <g font-size="3.18" font-family="'PT Sans','Helvetica Neue','Helvetica',sans-serif" fill="#202020" stroke="#000000" stroke-opacity="0.000" id="img-bd35500a-2">
    <g transform="translate(119.48,69.54)">
      <g class="primitive">
        <text text-anchor="middle" dy="0.6em">Energy (eV)</text>
      </g>
    </g>
  </g>
  <g class="guide xlabels" font-size="2.82" font-family="'PT Sans Caption','Helvetica Neue','Helvetica',sans-serif" fill="#6C606B" id="img-bd35500a-3">
    <g transform="translate(20.03,62.87)">
      <g class="primitive">
        <text text-anchor="middle" dy="0.6em">0</text>
      </g>
    </g>
    <g transform="translate(69.75,62.87)">
      <g class="primitive">
        <text text-anchor="middle" dy="0.6em">2000</text>
      </g>
    </g>
    <g transform="translate(119.48,62.87)">
      <g class="primitive">
        <text text-anchor="middle" dy="0.6em">4000</text>
      </g>
    </g>
    <g transform="translate(169.2,62.87)">
      <g class="primitive">
        <text text-anchor="middle" dy="0.6em">6000</text>
      </g>
    </g>
    <g transform="translate(218.93,62.87)">
      <g class="primitive">
        <text text-anchor="middle" dy="0.6em">8000</text>
      </g>
    </g>
  </g>
  <g class="guide colorkey" id="img-bd35500a-4">
    <g fill="#4C404B" font-size="2.82" font-family="'PT Sans','Helvetica Neue','Helvetica',sans-serif" id="img-bd35500a-5">
      <g transform="translate(225.55,31.7)" id="img-bd35500a-6">
        <g class="primitive">
          <text dy="0.35em">SiO2 std</text>
        </g>
      </g>
      <g transform="translate(225.55,35.33)" id="img-bd35500a-7">
        <g class="primitive">
          <text dy="0.35em">Brem[Global][SiO2 std]</text>
        </g>
      </g>
    </g>
    <g stroke-width="0.3" id="img-bd35500a-8">
      <g stroke="#FFFFFF" fill-opacity="1" fill="#B70002" id="img-bd35500a-9">
        <g transform="translate(222.74,35.33)" id="img-bd35500a-10">
          <circle cx="0" cy="0" r="0.9" class="primitive"/>
        </g>
      </g>
      <g stroke="#FFFFFF" fill-opacity="1" fill="#104E8B" id="img-bd35500a-11">
        <g transform="translate(222.74,31.7)" id="img-bd35500a-12">
          <circle cx="0" cy="0" r="0.9" class="primitive"/>
        </g>
      </g>
    </g>
    <g fill="#362A35" font-size="3.18" font-family="'PT Sans','Helvetica Neue','Helvetica',sans-serif" stroke="#000000" stroke-opacity="0.000" id="img-bd35500a-13">
      <g transform="translate(221.93,28.39)" id="img-bd35500a-14">
        <g class="primitive">
          <text dy="-0em">Spectra</text>
        </g>
      </g>
    </g>
  </g>
  <g clip-path="url(#img-bd35500a-15)">
    <g id="img-bd35500a-16">
      <g pointer-events="visible" stroke-width="0.3" fill="#FDFDF1" stroke="#202020" class="guide background" id="img-bd35500a-17">
        <g transform="translate(119.48,31.29)" id="img-bd35500a-18">
          <path d="M-101.45,-30.58 L 101.45 -30.58 101.45 30.58 -101.45 30.58 z" class="primitive"/>
        </g>
      </g>
      <g class="guide ygridlines xfixed" stroke-dasharray="none" stroke-width="0.2" stroke="#FFDFDF" id="img-bd35500a-19">
        <g transform="translate(119.48,59.87)" id="img-bd35500a-20">
          <path fill="none" d="M-101.45,0 L 101.45 0" class="primitive"/>
        </g>
        <g transform="translate(119.48,42.2)" id="img-bd35500a-21">
          <path fill="none" d="M-101.45,0 L 101.45 0" class="primitive"/>
        </g>
        <g transform="translate(119.48,24.53)" id="img-bd35500a-22">
          <path fill="none" d="M-101.45,0 L 101.45 0" class="primitive"/>
        </g>
        <g transform="translate(119.48,6.86)" id="img-bd35500a-23">
          <path fill="none" d="M-101.45,0 L 101.45 0" class="primitive"/>
        </g>
      </g>
      <g class="guide xgridlines yfixed" stroke-dasharray="none" stroke-width="0.2" stroke="#FFDFDF" id="img-bd35500a-24">
        <g transform="translate(20.03,31.29)" id="img-bd35500a-25">
          <path fill="none" d="M0,-30.58 L 0 30.58" class="primitive"/>
        </g>
        <g transform="translate(69.75,31.29)" id="img-bd35500a-26">
          <path fill="none" d="M0,-30.58 L 0 30.58" class="primitive"/>
        </g>
        <g transform="translate(119.48,31.29)" id="img-bd35500a-27">
          <path fill="none" d="M0,-30.58 L 0 30.58" class="primitive"/>
        </g>
        <g transform="translate(169.2,31.29)" id="img-bd35500a-28">
          <path fill="none" d="M0,-30.58 L 0 30.58" class="primitive"/>
        </g>
        <g transform="translate(218.93,31.29)" id="img-bd35500a-29">
          <path fill="none" d="M0,-30.58 L 0 30.58" class="primitive"/>
        </g>
      </g>
      <g class="plotpanel" id="img-bd35500a-30">
        <metadata>
          <boundingbox value="18.027222222222242mm 0.7055555555555555mm 202.90055555555557mm 61.16055555555556mm"/>
          <unitbox value="-80.44220869725518 33484.42479915249 8160.884417394511 -34616.40959830498"/>
        </metadata>
        <g stroke-width="0.3" fill="#000000" fill-opacity="0.000" class="geometry" id="img-bd35500a-31">
          <g class="color_RGB{Float64}(0.7186016914382806,8.086625054816313e-7,0.0097916074077615)" stroke-dasharray="none" stroke="#B70002" id="img-bd35500a-32">
            <g transform="translate(119.44,40.99)" id="img-bd35500a-33">
              <path fill="none" d="M-99.37,18.87 L -99.13 18.87 -99.13 18.87 -98.88 18.87 -98.88 18.87 -98.63 18.87 -98.63 18.87 -98.38 18.87 -98.38 18.87 -98.13 18.87 -98.13 18.87 -97.88 18.87 -97.88 18.87 -97.63 18.87 -97.63 18.87 -97.39 18.87 -97.39 18.87 -97.14 18.87 -97.14 18.87 -96.89 18.87 -96.89 18.87 -96.64 18.87 -96.64 18.87 -96.39 18.87 -96.39 18.87 -96.14 18.87 -96.14 18.87 -95.89 18.87 -95.89 18.87 -95.64 18.87 -95.64 18.87 -95.4 18.87 -95.4 18.87 -95.15 18.87 -95.15 18.87 -94.9 18.87 -94.9 18.87 -94.65 18.87 -94.65 18.87 -94.4 18.87 -94.4 18.87 -94.15 18.87 -94.15 18.87 -93.9 18.87 -93.9 18.87 -93.66 18.87 -93.66 18.87 -93.41 18.87 -93.41 18.86 -93.16 18.86 -93.16 18.83 -92.91 18.83 -92.91 18.71 -92.66 18.71 -92.66 18.4 -92.41 18.4 -92.41 17.86 -92.16 17.86 -92.16 17.34 -91.92 17.34 -91.92 17.08 -91.67 17.08 -91.67 16.3 -91.42 16.3 -91.42 14.12 -91.17 14.12 -91.17 11.34 -90.92 11.34 -90.92 8.04 -90.67 8.04 -90.67 5.21 -90.42 5.21 -90.42 2.95 -90.18 2.95 -90.18 0.93 -89.93 0.93 -89.93 -0.7 -89.68 -0.7 -89.68 -1.24 -89.43 -1.24 -89.43 0.2 -89.18 0.2 -89.18 0.25 -88.93 0.25 -88.93 -1.54 -88.68 -1.54 -88.68 -2.42 -88.44 -2.42 -88.44 -3.05 -88.19 -3.05 -88.19 -3.99 -87.94 -3.99 -87.94 -5.19 -87.69 -5.19 -87.69 -6.39 -87.44 -6.39 -87.44 -7.47 -87.19 -7.47 -87.19 -8.19 -86.94 -8.19 -86.94 -8.25 -86.7 -8.25 -86.7 -7.4 -86.45 -7.4 -86.45 -3.44 -86.2 -3.44 -86.2 1.66 -85.95 1.66 -85.95 3.58 -85.7 3.58 -85.7 4 -85.45 4 -85.45 4.43 -85.2 4.43 -85.2 4.32 -84.96 4.32 -84.96 3.67 -84.71 3.67 -84.71 2.71 -84.46 2.71 -84.46 1.68 -84.21 1.68 -84.21 0.77 -83.96 0.77 -83.96 0.02 -83.71 0.02 -83.71 -0.65 -83.46 -0.65 -83.46 -1.21 -83.22 -1.21 -83.22 -1.64 -82.97 -1.64 -82.97 -1.85 -82.72 -1.85 -82.72 -1.81 -82.47 -1.81 -82.47 -1.52 -82.22 -1.52 -82.22 -0.95 -81.97 -0.95 -81.97 -0.28 -81.72 -0.28 -81.72 0.32 -81.48 0.32 -81.48 0.78 -81.23 0.78 -81.23 1.02 -80.98 1.02 -80.98 1.03 -80.73 1.03 -80.73 0.85 -80.48 0.85 -80.48 0.5 -80.23 0.5 -80.23 0.07 -79.98 0.07 -79.98 -0.38 -79.74 -0.38 -79.74 -0.84 -79.49 -0.84 -79.49 -1.35 -79.24 -1.35 -79.24 -1.89 -78.99 -1.89 -78.99 -2.43 -78.74 -2.43 -78.74 -2.97 -78.49 -2.97 -78.49 -3.48 -78.24 -3.48 -78.24 -4.01 -78 -4.01 -78 -4.55 -77.75 -4.55 -77.75 -5.08 -77.5 -5.08 -77.5 -5.6 -77.25 -5.6 -77.25 -6.11 -77 -6.11 -77 -6.65 -76.75 -6.65 -76.75 -7.21 -76.5 -7.21 -76.5 -7.75 -76.25 -7.75 -76.25 -8.24 -76.01 -8.24 -76.01 -8.76 -75.76 -8.76 -75.76 -9.28 -75.51 -9.28 -75.51 -9.8 -75.26 -9.8 -75.26 -10.33 -75.01 -10.33 -75.01 -10.84 -74.76 -10.84 -74.76 -11.36 -74.51 -11.36 -74.51 -11.88 -74.27 -11.88 -74.27 -12.4 -74.02 -12.4 -74.02 -12.91 -73.77 -12.91 -73.77 -13.41 -73.52 -13.41 -73.52 -13.92 -73.27 -13.92 -73.27 -14.43 -73.02 -14.43 -73.02 -14.91 -72.77 -14.91 -72.77 -15.38 -72.53 -15.38 -72.53 -15.85 -72.28 -15.85 -72.28 -16.3 -72.03 -16.3 -72.03 -16.75 -71.78 -16.75 -71.78 -17.17 -71.53 -17.17 -71.53 -17.58 -71.28 -17.58 -71.28 -18.01 -71.03 -18.01 -71.03 -18.43 -70.79 -18.43 -70.79 -18.84 -70.54 -18.84 -70.54 -19.22 -70.29 -19.22 -70.29 -19.59 -70.04 -19.59 -70.04 -19.97 -69.79 -19.97 -69.79 -20.33 -69.54 -20.33 -69.54 -20.67 -69.29 -20.67 -69.29 -21 -69.05 -21 -69.05 -21.3 -68.8 -21.3 -68.8 -21.62 -68.55 -21.62 -68.55 -21.92 -68.3 -21.92 -68.3 -22.2 -68.05 -22.2 -68.05 -22.47 -67.8 -22.47 -67.8 -22.75 -67.55 -22.75 -67.55 -23.02 -67.31 -23.02 -67.31 -23.26 -67.06 -23.26 -67.06 -23.49 -66.81 -23.49 -66.81 -23.71 -66.56 -23.71 -66.56 -23.93 -66.31 -23.93 -66.31 -24.13 -66.06 -24.13 -66.06 -24.33 -65.81 -24.33 -65.81 -24.52 -65.57 -24.52 -65.57 -24.71 -65.32 -24.71 -65.32 -24.88 -65.07 -24.88 -65.07 -25.05 -64.82 -25.05 -64.82 -25.21 -64.57 -25.21 -64.57 -25.33 -64.32 -25.33 -64.32 -25.45 -64.07 -25.45 -64.07 -25.59 -63.83 -25.59 -63.83 -25.72 -63.58 -25.72 -63.58 -25.82 -63.33 -25.82 -63.33 -25.91 -63.08 -25.91 -63.08 -26.02 -62.83 -26.02 -62.83 -26.1 -62.58 -26.1 -62.58 -26.17 -62.33 -26.17 -62.33 -26.27 -62.09 -26.27 -62.09 -26.36 -61.84 -26.36 -61.84 -26.41 -61.59 -26.41 -61.59 -26.46 -61.34 -26.46 -61.34 -26.52 -61.09 -26.52 -61.09 -26.43 -60.84 -26.43 -60.84 -25.57 -60.59 -25.57 -60.59 -24.6 -60.35 -24.6 -60.35 -24.65 -60.1 -24.65 -60.1 -24.9 -59.85 -24.9 -59.85 -24.92 -59.6 -24.92 -59.6 -25.04 -59.35 -25.04 -59.35 -25.21 -59.1 -25.21 -59.1 -25.23 -58.85 -25.23 -58.85 -25.15 -58.61 -25.15 -58.61 -25.16 -58.36 -25.16 -58.36 -25.24 -58.11 -25.24 -58.11 -25.28 -57.86 -25.28 -57.86 -25.23 -57.61 -25.23 -57.61 -25.19 -57.36 -25.19 -57.36 -25.17 -57.11 -25.17 -57.11 -25.18 -56.86 -25.18 -56.86 -25.18 -56.62 -25.18 -56.62 -25.17 -56.37 -25.17 -56.37 -25.12 -56.12 -25.12 -56.12 -25.06 -55.87 -25.06 -55.87 -24.96 -55.62 -24.96 -55.62 -24.81 -55.37 -24.81 -55.37 -24.57 -55.12 -24.57 -55.12 -24.14 -54.88 -24.14 -54.88 -23.5 -54.63 -23.5 -54.63 -22.57 -54.38 -22.57 -54.38 -21.32 -54.13 -21.32 -54.13 -19.77 -53.88 -19.77 -53.88 -17.86 -53.63 -17.86 -53.63 -15.48 -53.38 -15.48 -53.38 -13.2 -53.14 -13.2 -53.14 -11.33 -52.89 -11.33 -52.89 -9.71 -52.64 -9.71 -52.64 -8.38 -52.39 -8.38 -52.39 -7.36 -52.14 -7.36 -52.14 -6.66 -51.89 -6.66 -51.89 -6.21 -51.64 -6.21 -51.64 -5.96 -51.4 -5.96 -51.4 -5.83 -51.15 -5.83 -51.15 -5.8 -50.9 -5.8 -50.9 -5.81 -50.65 -5.81 -50.65 -5.86 -50.4 -5.86 -50.4 -5.91 -50.15 -5.91 -50.15 -5.98 -49.9 -5.98 -49.9 -6.05 -49.66 -6.05 -49.66 -6.12 -49.41 -6.12 -49.41 -6.18 -49.16 -6.18 -49.16 -6.25 -48.91 -6.25 -48.91 -6.32 -48.66 -6.32 -48.66 -6.38 -48.41 -6.38 -48.41 -6.45 -48.16 -6.45 -48.16 -6.51 -47.92 -6.51 -47.92 -6.57 -47.67 -6.57 -47.67 -6.63 -47.42 -6.63 -47.42 -6.69 -47.17 -6.69 -47.17 -6.75 -46.92 -6.75 -46.92 -6.8 -46.67 -6.8 -46.67 -6.86 -46.42 -6.86 -46.42 -6.91 -46.18 -6.91 -46.18 -6.97 -45.93 -6.97 -45.93 -7.02 -45.68 -7.02 -45.68 -7.07 -45.43 -7.07 -45.43 -7.11 -45.18 -7.11 -45.18 -7.16 -44.93 -7.16 -44.93 -7.2 -44.68 -7.2 -44.68 -7.24 -44.44 -7.24 -44.44 -7.29 -44.19 -7.29 -44.19 -7.32 -43.94 -7.32 -43.94 -7.36 -43.69 -7.36 -43.69 -7.4 -43.44 -7.4 -43.44 -7.43 -43.19 -7.43 -43.19 -7.46 -42.94 -7.46 -42.94 -7.49 -42.7 -7.49 -42.7 -7.52 -42.45 -7.52 -42.45 -7.55 -42.2 -7.55 -42.2 -7.57 -41.95 -7.57 -41.95 -7.6 -41.7 -7.6 -41.7 -7.62 -41.45 -7.62 -41.45 -7.64 -41.2 -7.64 -41.2 -7.66 -40.96 -7.66 -40.96 -7.68 -40.71 -7.68 -40.71 -7.69 -40.46 -7.69 -40.46 -7.7 -40.21 -7.7 -40.21 -7.71 -39.96 -7.71 -39.96 -7.72 -39.71 -7.72 -39.71 -7.73 -39.46 -7.73 -39.46 -7.74 -39.22 -7.74 -39.22 -7.74 -38.97 -7.74 -38.97 -7.74 -38.72 -7.74 -38.72 -7.74 -38.47 -7.74 -38.47 -7.74 -38.22 -7.74 -38.22 -7.74 -37.97 -7.74 -37.97 -7.74 -37.72 -7.74 -37.72 -7.73 -37.47 -7.73 -37.47 -7.73 -37.23 -7.73 -37.23 -7.72 -36.98 -7.72 -36.98 -7.71 -36.73 -7.71 -36.73 -7.7 -36.48 -7.7 -36.48 -7.69 -36.23 -7.69 -36.23 -7.68 -35.98 -7.68 -35.98 -7.67 -35.73 -7.67 -35.73 -7.66 -35.49 -7.66 -35.49 -7.64 -35.24 -7.64 -35.24 -7.62 -34.99 -7.62 -34.99 -7.61 -34.74 -7.61 -34.74 -7.59 -34.49 -7.59 -34.49 -7.57 -34.24 -7.57 -34.24 -7.55 -33.99 -7.55 -33.99 -7.53 -33.75 -7.53 -33.75 -7.5 -33.5 -7.5 -33.5 -7.48 -33.25 -7.48 -33.25 -7.46 -33 -7.46 -33 -7.43 -32.75 -7.43 -32.75 -7.41 -32.5 -7.41 -32.5 -7.38 -32.25 -7.38 -32.25 -7.35 -32.01 -7.35 -32.01 -7.33 -31.76 -7.33 -31.76 -7.3 -31.51 -7.3 -31.51 -7.27 -31.26 -7.27 -31.26 -7.24 -31.01 -7.24 -31.01 -7.21 -30.76 -7.21 -30.76 -7.17 -30.51 -7.17 -30.51 -7.14 -30.27 -7.14 -30.27 -7.11 -30.02 -7.11 -30.02 -7.07 -29.77 -7.07 -29.77 -7.04 -29.52 -7.04 -29.52 -7 -29.27 -7 -29.27 -6.97 -29.02 -6.97 -29.02 -6.93 -28.77 -6.93 -28.77 -6.9 -28.53 -6.9 -28.53 -6.86 -28.28 -6.86 -28.28 -6.82 -28.03 -6.82 -28.03 -6.78 -27.78 -6.78 -27.78 -6.74 -27.53 -6.74 -27.53 -6.7 -27.28 -6.7 -27.28 -6.66 -27.03 -6.66 -27.03 -6.62 -26.79 -6.62 -26.79 -6.58 -26.54 -6.58 -26.54 -6.54 -26.29 -6.54 -26.29 -6.5 -26.04 -6.5 -26.04 -6.46 -25.79 -6.46 -25.79 -6.42 -25.54 -6.42 -25.54 -6.38 -25.29 -6.38 -25.29 -6.33 -25.05 -6.33 -25.05 -6.29 -24.8 -6.29 -24.8 -6.25 -24.55 -6.25 -24.55 -6.2 -24.3 -6.2 -24.3 -6.16 -24.05 -6.16 -24.05 -6.12 -23.8 -6.12 -23.8 -6.07 -23.55 -6.07 -23.55 -6.03 -23.31 -6.03 -23.31 -5.98 -23.06 -5.98 -23.06 -5.93 -22.81 -5.93 -22.81 -5.89 -22.56 -5.89 -22.56 -5.84 -22.31 -5.84 -22.31 -5.8 -22.06 -5.8 -22.06 -5.75 -21.81 -5.75 -21.81 -5.7 -21.57 -5.7 -21.57 -5.65 -21.32 -5.65 -21.32 -5.61 -21.07 -5.61 -21.07 -5.56 -20.82 -5.56 -20.82 -5.51 -20.57 -5.51 -20.57 -5.46 -20.32 -5.46 -20.32 -5.41 -20.07 -5.41 -20.07 -5.37 -19.83 -5.37 -19.83 -5.32 -19.58 -5.32 -19.58 -5.27 -19.33 -5.27 -19.33 -5.22 -19.08 -5.22 -19.08 -5.17 -18.83 -5.17 -18.83 -5.12 -18.58 -5.12 -18.58 -5.07 -18.33 -5.07 -18.33 -5.02 -18.08 -5.02 -18.08 -4.97 -17.84 -4.97 -17.84 -4.92 -17.59 -4.92 -17.59 -4.87 -17.34 -4.87 -17.34 -4.82 -17.09 -4.82 -17.09 -4.76 -16.84 -4.76 -16.84 -4.71 -16.59 -4.71 -16.59 -4.66 -16.34 -4.66 -16.34 -4.61 -16.1 -4.61 -16.1 -4.56 -15.85 -4.56 -15.85 -4.51 -15.6 -4.51 -15.6 -4.45 -15.35 -4.45 -15.35 -4.4 -15.1 -4.4 -15.1 -4.35 -14.85 -4.35 -14.85 -4.3 -14.6 -4.3 -14.6 -4.24 -14.36 -4.24 -14.36 -4.19 -14.11 -4.19 -14.11 -4.14 -13.86 -4.14 -13.86 -4.09 -13.61 -4.09 -13.61 -4.03 -13.36 -4.03 -13.36 -3.98 -13.11 -3.98 -13.11 -3.93 -12.86 -3.93 -12.86 -3.87 -12.62 -3.87 -12.62 -3.82 -12.37 -3.82 -12.37 -3.77 -12.12 -3.77 -12.12 -3.71 -11.87 -3.71 -11.87 -3.66 -11.62 -3.66 -11.62 -3.61 -11.37 -3.61 -11.37 -3.55 -11.12 -3.55 -11.12 -3.5 -10.88 -3.5 -10.88 -3.45 -10.63 -3.45 -10.63 -3.39 -10.38 -3.39 -10.38 -3.34 -10.13 -3.34 -10.13 -3.29 -9.88 -3.29 -9.88 -3.23 -9.63 -3.23 -9.63 -3.18 -9.38 -3.18 -9.38 -3.13 -9.14 -3.13 -9.14 -3.07 -8.89 -3.07 -8.89 -3.02 -8.64 -3.02 -8.64 -2.96 -8.39 -2.96 -8.39 -2.91 -8.14 -2.91 -8.14 -2.86 -7.89 -2.86 -7.89 -2.8 -7.64 -2.8 -7.64 -2.75 -7.4 -2.75 -7.4 -2.7 -7.15 -2.7 -7.15 -2.64 -6.9 -2.64 -6.9 -2.59 -6.65 -2.59 -6.65 -2.54 -6.4 -2.54 -6.4 -2.48 -6.15 -2.48 -6.15 -2.43 -5.9 -2.43 -5.9 -2.38 -5.66 -2.38 -5.66 -2.32 -5.41 -2.32 -5.41 -2.27 -5.16 -2.27 -5.16 -2.22 -4.91 -2.22 -4.91 -2.16 -4.66 -2.16 -4.66 -2.11 -4.41 -2.11 -4.41 -2.06 -4.16 -2.06 -4.16 -2 -3.92 -2 -3.92 -1.95 -3.67 -1.95 -3.67 -1.9 -3.42 -1.9 -3.42 -1.85 -3.17 -1.85 -3.17 -1.79 -2.92 -1.79 -2.92 -1.74 -2.67 -1.74 -2.67 -1.69 -2.42 -1.69 -2.42 -1.64 -2.18 -1.64 -2.18 -1.58 -1.93 -1.58 -1.93 -1.53 -1.68 -1.53 -1.68 -1.48 -1.43 -1.48 -1.43 -1.43 -1.18 -1.43 -1.18 -1.37 -0.93 -1.37 -0.93 -1.32 -0.68 -1.32 -0.68 -1.27 -0.43 -1.27 -0.43 -1.22 -0.19 -1.22 -0.19 -1.16 0.06 -1.16 0.06 -1.11 0.31 -1.11 0.31 -1.06 0.56 -1.06 0.56 -1.01 0.81 -1.01 0.81 -0.96 1.06 -0.96 1.06 -0.9 1.31 -0.9 1.31 -0.85 1.55 -0.85 1.55 -0.8 1.8 -0.8 1.8 -0.75 2.05 -0.75 2.05 -0.7 2.3 -0.7 2.3 -0.65 2.55 -0.65 2.55 -0.6 2.8 -0.6 2.8 -0.54 3.05 -0.54 3.05 -0.49 3.29 -0.49 3.29 -0.44 3.54 -0.44 3.54 -0.39 3.79 -0.39 3.79 -0.34 4.04 -0.34 4.04 -0.29 4.29 -0.29 4.29 -0.24 4.54 -0.24 4.54 -0.19 4.79 -0.19 4.79 -0.14 5.03 -0.14 5.03 -0.09 5.28 -0.09 5.28 -0.04 5.53 -0.04 5.53 0.01 5.78 0.01 5.78 0.06 6.03 0.06 6.03 0.11 6.28 0.11 6.28 0.16 6.53 0.16 6.53 0.21 6.77 0.21 6.77 0.26 7.02 0.26 7.02 0.31 7.27 0.31 7.27 0.36 7.52 0.36 7.52 0.41 7.77 0.41 7.77 0.46 8.02 0.46 8.02 0.51 8.27 0.51 8.27 0.56 8.51 0.56 8.51 0.61 8.76 0.61 8.76 0.66 9.01 0.66 9.01 0.71 9.26 0.71 9.26 0.76 9.51 0.76 9.51 0.81 9.76 0.81 9.76 0.85 10.01 0.85 10.01 0.9 10.25 0.9 10.25 0.95 10.5 0.95 10.5 1 10.75 1 10.75 1.05 11 1.05 11 1.1 11.25 1.1 11.25 1.14 11.5 1.14 11.5 1.19 11.75 1.19 11.75 1.24 11.99 1.24 11.99 1.29 12.24 1.29 12.24 1.33 12.49 1.33 12.49 1.38 12.74 1.38 12.74 1.43 12.99 1.43 12.99 1.48 13.24 1.48 13.24 1.52 13.49 1.52 13.49 1.57 13.73 1.57 13.73 1.62 13.98 1.62 13.98 1.66 14.23 1.66 14.23 1.71 14.48 1.71 14.48 1.76 14.73 1.76 14.73 1.8 14.98 1.8 14.98 1.85 15.23 1.85 15.23 1.9 15.47 1.9 15.47 1.94 15.72 1.94 15.72 1.99 15.97 1.99 15.97 2.03 16.22 2.03 16.22 2.08 16.47 2.08 16.47 2.13 16.72 2.13 16.72 2.17 16.97 2.17 16.97 2.22 17.21 2.22 17.21 2.26 17.46 2.26 17.46 2.31 17.71 2.31 17.71 2.35 17.96 2.35 17.96 2.4 18.21 2.4 18.21 2.44 18.46 2.44 18.46 2.49 18.71 2.49 18.71 2.53 18.96 2.53 18.96 2.57 19.2 2.57 19.2 2.62 19.45 2.62 19.45 2.66 19.7 2.66 19.7 2.71 19.95 2.71 19.95 2.75 20.2 2.75 20.2 2.8 20.45 2.8 20.45 2.84 20.7 2.84 20.7 2.88 20.94 2.88 20.94 2.93 21.19 2.93 21.19 2.97 21.44 2.97 21.44 3.01 21.69 3.01 21.69 3.06 21.94 3.06 21.94 3.1 22.19 3.1 22.19 3.14 22.44 3.14 22.44 3.19 22.68 3.19 22.68 3.23 22.93 3.23 22.93 3.27 23.18 3.27 23.18 3.31 23.43 3.31 23.43 3.36 23.68 3.36 23.68 3.4 23.93 3.4 23.93 3.44 24.18 3.44 24.18 3.48 24.42 3.48 24.42 3.52 24.67 3.52 24.67 3.57 24.92 3.57 24.92 3.61 25.17 3.61 25.17 3.65 25.42 3.65 25.42 3.69 25.67 3.69 25.67 3.73 25.92 3.73 25.92 3.77 26.16 3.77 26.16 3.81 26.41 3.81 26.41 3.85 26.66 3.85 26.66 3.9 26.91 3.9 26.91 3.94 27.16 3.94 27.16 3.98 27.41 3.98 27.41 4.02 27.66 4.02 27.66 4.06 27.9 4.06 27.9 4.1 28.15 4.1 28.15 4.14 28.4 4.14 28.4 4.18 28.65 4.18 28.65 4.22 28.9 4.22 28.9 4.26 29.15 4.26 29.15 4.3 29.4 4.3 29.4 4.34 29.64 4.34 29.64 4.38 29.89 4.38 29.89 4.42 30.14 4.42 30.14 4.46 30.39 4.46 30.39 4.5 30.64 4.5 30.64 4.53 30.89 4.53 30.89 4.57 31.14 4.57 31.14 4.61 31.38 4.61 31.38 4.65 31.63 4.65 31.63 4.69 31.88 4.69 31.88 4.73 32.13 4.73 32.13 4.77 32.38 4.77 32.38 4.8 32.63 4.8 32.63 4.84 32.88 4.84 32.88 4.88 33.12 4.88 33.12 4.92 33.37 4.92 33.37 4.96 33.62 4.96 33.62 4.99 33.87 4.99 33.87 5.03 34.12 5.03 34.12 5.07 34.37 5.07 34.37 5.11 34.62 5.11 34.62 5.14 34.86 5.14 34.86 5.18 35.11 5.18 35.11 5.22 35.36 5.22 35.36 5.26 35.61 5.26 35.61 5.29 35.86 5.29 35.86 5.33 36.11 5.33 36.11 5.37 36.36 5.37 36.36 5.4 36.6 5.4 36.6 5.44 36.85 5.44 36.85 5.48 37.1 5.48 37.1 5.51 37.35 5.51 37.35 5.55 37.6 5.55 37.6 5.58 37.85 5.58 37.85 5.62 38.1 5.62 38.1 5.66 38.35 5.66 38.35 5.69 38.59 5.69 38.59 5.73 38.84 5.73 38.84 5.76 39.09 5.76 39.09 5.8 39.34 5.8 39.34 5.83 39.59 5.83 39.59 5.87 39.84 5.87 39.84 5.9 40.09 5.9 40.09 5.94 40.33 5.94 40.33 5.97 40.58 5.97 40.58 6.01 40.83 6.01 40.83 6.04 41.08 6.04 41.08 6.08 41.33 6.08 41.33 6.11 41.58 6.11 41.58 6.15 41.83 6.15 41.83 6.18 42.07 6.18 42.07 6.21 42.32 6.21 42.32 6.25 42.57 6.25 42.57 6.28 42.82 6.28 42.82 6.32 43.07 6.32 43.07 6.35 43.32 6.35 43.32 6.38 43.57 6.38 43.57 6.42 43.81 6.42 43.81 6.45 44.06 6.45 44.06 6.48 44.31 6.48 44.31 6.52 44.56 6.52 44.56 6.55 44.81 6.55 44.81 6.58 45.06 6.58 45.06 6.62 45.31 6.62 45.31 6.65 45.55 6.65 45.55 6.68 45.8 6.68 45.8 6.72 46.05 6.72 46.05 6.75 46.3 6.75 46.3 6.78 46.55 6.78 46.55 6.81 46.8 6.81 46.8 6.84 47.05 6.84 47.05 6.88 47.29 6.88 47.29 6.91 47.54 6.91 47.54 6.94 47.79 6.94 47.79 6.97 48.04 6.97 48.04 7.01 48.29 7.01 48.29 7.04 48.54 7.04 48.54 7.07 48.79 7.07 48.79 7.1 49.03 7.1 49.03 7.13 49.28 7.13 49.28 7.16 49.53 7.16 49.53 7.19 49.78 7.19 49.78 7.23 50.03 7.23 50.03 7.26 50.28 7.26 50.28 7.29 50.53 7.29 50.53 7.32 50.77 7.32 50.77 7.35 51.02 7.35 51.02 7.38 51.27 7.38 51.27 7.41 51.52 7.41 51.52 7.44 51.77 7.44 51.77 7.47 52.02 7.47 52.02 7.5 52.27 7.5 52.27 7.53 52.51 7.53 52.51 7.56 52.76 7.56 52.76 7.59 53.01 7.59 53.01 7.62 53.26 7.62 53.26 7.65 53.51 7.65 53.51 7.68 53.76 7.68 53.76 7.71 54.01 7.71 54.01 7.74 54.25 7.74 54.25 7.77 54.5 7.77 54.5 7.8 54.75 7.8 54.75 7.83 55 7.83 55 7.86 55.25 7.86 55.25 7.89 55.5 7.89 55.5 7.92 55.75 7.92 55.75 7.95 55.99 7.95 55.99 7.98 56.24 7.98 56.24 8.01 56.49 8.01 56.49 8.03 56.74 8.03 56.74 8.06 56.99 8.06 56.99 8.09 57.24 8.09 57.24 8.12 57.49 8.12 57.49 8.15 57.74 8.15 57.74 8.18 57.98 8.18 57.98 8.21 58.23 8.21 58.23 8.23 58.48 8.23 58.48 8.26 58.73 8.26 58.73 8.29 58.98 8.29 58.98 8.32 59.23 8.32 59.23 8.35 59.48 8.35 59.48 8.37 59.72 8.37 59.72 8.4 59.97 8.4 59.97 8.43 60.22 8.43 60.22 8.46 60.47 8.46 60.47 8.48 60.72 8.48 60.72 8.51 60.97 8.51 60.97 8.54 61.22 8.54 61.22 8.57 61.46 8.57 61.46 8.59 61.71 8.59 61.71 8.62 61.96 8.62 61.96 8.65 62.21 8.65 62.21 8.68 62.46 8.68 62.46 8.7 62.71 8.7 62.71 8.73 62.96 8.73 62.96 8.76 63.2 8.76 63.2 8.78 63.45 8.78 63.45 8.81 63.7 8.81 63.7 8.84 63.95 8.84 63.95 8.86 64.2 8.86 64.2 8.89 64.45 8.89 64.45 8.92 64.7 8.92 64.7 8.94 64.94 8.94 64.94 8.97 65.19 8.97 65.19 8.99 65.44 8.99 65.44 9.02 65.69 9.02 65.69 9.05 65.94 9.05 65.94 9.07 66.19 9.07 66.19 9.1 66.44 9.1 66.44 9.12 66.68 9.12 66.68 9.15 66.93 9.15 66.93 9.17 67.18 9.17 67.18 9.2 67.43 9.2 67.43 9.23 67.68 9.23 67.68 9.25 67.93 9.25 67.93 9.28 68.18 9.28 68.18 9.3 68.42 9.3 68.42 9.33 68.67 9.33 68.67 9.35 68.92 9.35 68.92 9.38 69.17 9.38 69.17 9.4 69.42 9.4 69.42 9.43 69.67 9.43 69.67 9.45 69.92 9.45 69.92 9.48 70.16 9.48 70.16 9.5 70.41 9.5 70.41 9.52 70.66 9.52 70.66 9.55 70.91 9.55 70.91 9.57 71.16 9.57 71.16 9.6 71.41 9.6 71.41 9.62 71.66 9.62 71.66 9.65 71.9 9.65 71.9 9.67 72.15 9.67 72.15 9.69 72.4 9.69 72.4 9.72 72.65 9.72 72.65 9.74 72.9 9.74 72.9 9.77 73.15 9.77 73.15 9.79 73.4 9.79 73.4 9.81 73.64 9.81 73.64 9.84 73.89 9.84 73.89 9.86 74.14 9.86 74.14 9.89 74.39 9.89 74.39 9.91 74.64 9.91 74.64 9.93 74.89 9.93 74.89 9.96 75.14 9.96 75.14 9.98 75.38 9.98 75.38 10 75.63 10 75.63 10.03 75.88 10.03 75.88 10.05 76.13 10.05 76.13 10.07 76.38 10.07 76.38 10.09 76.63 10.09 76.63 10.12 76.88 10.12 76.88 10.14 77.13 10.14 77.13 10.16 77.37 10.16 77.37 10.19 77.62 10.19 77.62 10.21 77.87 10.21 77.87 10.23 78.12 10.23 78.12 10.25 78.37 10.25 78.37 10.28 78.62 10.28 78.62 10.3 78.87 10.3 78.87 10.32 79.11 10.32 79.11 10.34 79.36 10.34 79.36 10.37 79.61 10.37 79.61 10.39 79.86 10.39 79.86 10.41 80.11 10.41 80.11 10.43 80.36 10.43 80.36 10.45 80.61 10.45 80.61 10.48 80.85 10.48 80.85 10.5 81.1 10.5 81.1 10.52 81.35 10.52 81.35 10.54 81.6 10.54 81.6 10.56 81.85 10.56 81.85 10.59 82.1 10.59 82.1 10.61 82.35 10.61 82.35 10.63 82.59 10.63 82.59 10.65 82.84 10.65 82.84 10.67 83.09 10.67 83.09 10.69 83.34 10.69 83.34 10.71 83.59 10.71 83.59 10.74 83.84 10.74 83.84 10.76 84.09 10.76 84.09 10.78 84.33 10.78 84.33 10.8 84.58 10.8 84.58 10.82 84.83 10.82 84.83 10.84 85.08 10.84 85.08 10.86 85.33 10.86 85.33 10.88 85.58 10.88 85.58 10.9 85.83 10.9 85.83 10.93 86.07 10.93 86.07 10.95 86.32 10.95 86.32 10.97 86.57 10.97 86.57 10.99 86.82 10.99 86.82 11.01 87.07 11.01 87.07 11.03 87.32 11.03 87.32 11.05 87.57 11.05 87.57 11.07 87.81 11.07 87.81 11.09 88.06 11.09 88.06 11.11 88.31 11.11 88.31 11.13 88.56 11.13 88.56 11.15 88.81 11.15 88.81 11.17 89.06 11.17 89.06 11.19 89.31 11.19 89.31 11.21 89.55 11.21 89.55 11.23 89.8 11.23 89.8 11.25 90.05 11.25 90.05 11.27 90.3 11.27 90.3 11.29 90.55 11.29 90.55 11.31 90.8 11.31 90.8 11.33 91.05 11.33 91.05 11.35 91.29 11.35 91.29 11.37 91.54 11.37 91.54 11.39 91.79 11.39 91.79 11.41 92.04 11.41 92.04 11.43 92.29 11.43 92.29 11.45 92.54 11.45 92.54 11.47 92.79 11.47 92.79 11.49 93.03 11.49 93.03 11.51 93.28 11.51 93.28 11.53 93.53 11.53 93.53 11.55 93.78 11.55 93.78 11.56 94.03 11.56 94.03 11.58 94.28 11.58 94.28 11.6 94.53 11.6 94.53 11.62 94.77 11.62 94.77 11.64 95.02 11.64 95.02 11.66 95.27 11.66 95.27 11.68 95.52 11.68 95.52 11.7 95.77 11.7 95.77 11.72 96.02 11.72 96.02 11.73 96.27 11.73 96.27 11.75 96.52 11.75 96.52 11.77 96.76 11.77 96.76 11.79 97.01 11.79 97.01 11.81 97.26 11.81 97.26 11.83 97.51 11.83 97.51 11.85 97.76 11.85 97.76 11.87 98.01 11.87 98.01 11.88 98.26 11.88 98.26 11.9 98.5 11.9 98.5 11.92 98.75 11.92 98.75 11.94 99 11.94 99 11.96 99.25 11.96 99.25 11.97" class="primitive"/>
            </g>
          </g>
        </g>
        <g stroke-width="0.3" fill="#000000" fill-opacity="0.000" class="geometry" id="img-bd35500a-34">
          <g class="color_RGB{Float64}(0.06274509803921569,0.3058823529411765,0.5450980392156862)" stroke-dasharray="none" stroke="#104E8B" id="img-bd35500a-35">
            <g transform="translate(119.44,-40.26)" id="img-bd35500a-36">
              <path fill="none" d="M-99.37,100.1 L -99.13 100.1 -99.13 100.1 -98.88 100.1 -98.88 100.09 -98.63 100.09 -98.63 100.1 -98.38 100.1 -98.38 100.1 -98.13 100.1 -98.13 100.12 -97.88 100.12 -97.88 100.12 -97.63 100.12 -97.63 100.11 -97.39 100.11 -97.39 100.12 -97.14 100.12 -97.14 100.12 -96.89 100.12 -96.89 100.12 -96.64 100.12 -96.64 100.12 -96.39 100.12 -96.39 100.1 -96.14 100.1 -96.14 100.07 -95.89 100.07 -95.89 100.06 -95.64 100.06 -95.64 100 -95.4 100 -95.4 99.9 -95.15 99.9 -95.15 99.67 -94.9 99.67 -94.9 99.34 -94.65 99.34 -94.65 98.74 -94.4 98.74 -94.4 97.58 -94.15 97.58 -94.15 95.18 -93.9 95.18 -93.9 90.89 -93.66 90.89 -93.66 84.1 -93.41 84.1 -93.41 73.86 -93.16 73.86 -93.16 62.96 -92.91 62.96 -92.91 52.88 -92.66 52.88 -92.66 49.87 -92.41 49.87 -92.41 54.01 -92.16 54.01 -92.16 62.3 -91.92 62.3 -91.92 72.72 -91.67 72.72 -91.67 80.65 -91.42 80.65 -91.42 85.64 -91.17 85.64 -91.17 87.58 -90.92 87.58 -90.92 87.73 -90.67 87.73 -90.67 87.03 -90.42 87.03 -90.42 86.17 -90.18 86.17 -90.18 84.64 -89.93 84.64 -89.93 82.68 -89.68 82.68 -89.68 80.98 -89.43 80.98 -89.43 77.96 -89.18 77.96 -89.18 73.38 -88.93 73.38 -88.93 65.16 -88.68 65.16 -88.68 50.37 -88.44 50.37 -88.44 21.02 -88.19 21.02 -88.19 -36.98 -87.94 -36.98 -87.94 -143.67 -87.69 -143.67 -87.69 -324.87 -87.44 -324.87 -87.44 -599.41 -87.19 -599.41 -87.19 -950.96 -86.94 -950.96 -86.94 -1309.11 -86.7 -1309.11 -86.7 -1568.77 -86.45 -1568.77 -86.45 -1627.86 -86.2 -1627.86 -86.2 -1455.15 -85.95 -1455.15 -85.95 -1123.78 -85.7 -1123.78 -85.7 -737.48 -85.45 -737.48 -85.45 -402.7 -85.2 -402.7 -85.2 -168.94 -84.96 -168.94 -84.96 -31.92 -84.71 -31.92 -84.71 36.34 -84.46 36.34 -84.46 66.71 -84.21 66.71 -84.21 78.53 -83.96 78.53 -83.96 83.16 -83.71 83.16 -83.71 84.66 -83.46 84.66 -83.46 84.21 -83.22 84.21 -83.22 83.61 -82.97 83.61 -82.97 82.62 -82.72 82.62 -82.72 82.33 -82.47 82.33 -82.47 81.13 -82.22 81.13 -82.22 80.95 -81.97 80.95 -81.97 80.66 -81.72 80.66 -81.72 80.48 -81.48 80.48 -81.48 80.42 -81.23 80.42 -81.23 80.61 -80.98 80.61 -80.98 80.84 -80.73 80.84 -80.73 80.64 -80.48 80.64 -80.48 80.42 -80.23 80.42 -80.23 79.73 -79.98 79.73 -79.98 78.95 -79.74 78.95 -79.74 78.45 -79.49 78.45 -79.49 77.49 -79.24 77.49 -79.24 76.96 -78.99 76.96 -78.99 76.33 -78.74 76.33 -78.74 75.82 -78.49 75.82 -78.49 74.7 -78.24 74.7 -78.24 74.42 -78 74.42 -78 73.65 -77.75 73.65 -77.75 73.5 -77.5 73.5 -77.5 72.41 -77.25 72.41 -77.25 72.17 -77 72.17 -77 72.29 -76.75 72.29 -76.75 71.22 -76.5 71.22 -76.5 70.39 -76.25 70.39 -76.25 69.76 -76.01 69.76 -76.01 68.78 -75.76 68.78 -75.76 68.88 -75.51 68.88 -75.51 67.87 -75.26 67.87 -75.26 67.47 -75.01 67.47 -75.01 66.36 -74.76 66.36 -74.76 65.43 -74.51 65.43 -74.51 64.39 -74.27 64.39 -74.27 63.46 -74.02 63.46 -74.02 62.51 -73.77 62.51 -73.77 61.06 -73.52 61.06 -73.52 61.41 -73.27 61.41 -73.27 60.47 -73.02 60.47 -73.02 60.58 -72.77 60.58 -72.77 60.42 -72.53 60.42 -72.53 60.85 -72.28 60.85 -72.28 60.11 -72.03 60.11 -72.03 60.13 -71.78 60.13 -71.78 59.24 -71.53 59.24 -71.53 59.13 -71.28 59.13 -71.28 58.5 -71.03 58.5 -71.03 58.22 -70.79 58.22 -70.79 57.37 -70.54 57.37 -70.54 57.22 -70.29 57.22 -70.29 56.48 -70.04 56.48 -70.04 55.93 -69.79 55.93 -69.79 55.25 -69.54 55.25 -69.54 55.22 -69.29 55.22 -69.29 54.6 -69.05 54.6 -69.05 54.44 -68.8 54.44 -68.8 52.9 -68.55 52.9 -68.55 53.01 -68.3 53.01 -68.3 52.51 -68.05 52.51 -68.05 51.72 -67.8 51.72 -67.8 51.93 -67.55 51.93 -67.55 50.69 -67.31 50.69 -67.31 50.76 -67.06 50.76 -67.06 49.96 -66.81 49.96 -66.81 49.41 -66.56 49.41 -66.56 49.11 -66.31 49.11 -66.31 48.7 -66.06 48.7 -66.06 47.56 -65.81 47.56 -65.81 47.72 -65.57 47.72 -65.57 46.78 -65.32 46.78 -65.32 46.23 -65.07 46.23 -65.07 45.72 -64.82 45.72 -64.82 44.13 -64.57 44.13 -64.57 43.49 -64.32 43.49 -64.32 42.27 -64.07 42.27 -64.07 41.07 -63.83 41.07 -63.83 39.57 -63.58 39.57 -63.58 37.47 -63.33 37.47 -63.33 35.94 -63.08 35.94 -63.08 33.39 -62.83 33.39 -62.83 31.27 -62.58 31.27 -62.58 29.95 -62.33 29.95 -62.33 27.91 -62.09 27.91 -62.09 26.8 -61.84 26.8 -61.84 26.83 -61.59 26.83 -61.59 26.57 -61.34 26.57 -61.34 26.52 -61.09 26.52 -61.09 26.79 -60.84 26.79 -60.84 26.05 -60.59 26.05 -60.59 26.02 -60.35 26.02 -60.35 25.5 -60.1 25.5 -60.1 25.8 -59.85 25.8 -59.85 24.89 -59.6 24.89 -59.6 22.64 -59.35 22.64 -59.35 19.58 -59.1 19.58 -59.1 9.41 -58.85 9.41 -58.85 -14.12 -58.61 -14.12 -58.61 -66.41 -58.36 -66.41 -58.36 -172.59 -58.11 -172.59 -58.11 -373.48 -57.86 -373.48 -57.86 -714.92 -57.61 -714.92 -57.61 -1245.11 -57.36 -1245.11 -57.36 -1976.11 -57.11 -1976.11 -57.11 -2893.59 -56.86 -2893.59 -56.86 -3877.47 -56.62 -3877.47 -56.62 -4773.67 -56.37 -4773.67 -56.37 -5404.7 -56.12 -5404.7 -56.12 -5615.93 -55.87 -5615.93 -55.87 -5378.97 -55.62 -5378.97 -55.62 -4748.94 -55.37 -4748.94 -55.37 -3873.5 -55.12 -3873.5 -55.12 -2923.67 -54.88 -2923.67 -54.88 -2061.64 -54.63 -2061.64 -54.63 -1377.99 -54.38 -1377.99 -54.38 -886.17 -54.13 -886.17 -54.13 -563.74 -53.88 -563.74 -53.88 -364.71 -53.63 -364.71 -53.63 -240.73 -53.38 -240.73 -53.38 -158.33 -53.14 -158.33 -53.14 -97.25 -52.89 -97.25 -52.89 -48.92 -52.64 -48.92 -52.64 -10.82 -52.39 -10.82 -52.39 17.86 -52.14 17.86 -52.14 39.24 -51.89 39.24 -51.89 53.7 -51.64 53.7 -51.64 62.78 -51.4 62.78 -51.4 68.36 -51.15 68.36 -51.15 72.19 -50.9 72.19 -50.9 73.68 -50.65 73.68 -50.65 74.32 -50.4 74.32 -50.4 74.67 -50.15 74.67 -50.15 74.61 -49.9 74.61 -49.9 74.86 -49.66 74.86 -49.66 74.62 -49.41 74.62 -49.41 75.01 -49.16 75.01 -49.16 74.73 -48.91 74.73 -48.91 75.3 -48.66 75.3 -48.66 74.7 -48.41 74.7 -48.41 75.09 -48.16 75.09 -48.16 74.89 -47.92 74.89 -47.92 75 -47.67 75 -47.67 74.88 -47.42 74.88 -47.42 74.96 -47.17 74.96 -47.17 75.14 -46.92 75.14 -46.92 74.45 -46.67 74.45 -46.67 74.56 -46.42 74.56 -46.42 74.13 -46.18 74.13 -46.18 74.07 -45.93 74.07 -45.93 74.18 -45.68 74.18 -45.68 73.33 -45.43 73.33 -45.43 72.9 -45.18 72.9 -45.18 72.21 -44.93 72.21 -44.93 71.11 -44.68 71.11 -44.68 69.39 -44.44 69.39 -44.44 67.51 -44.19 67.51 -44.19 65.33 -43.94 65.33 -43.94 64.11 -43.69 64.11 -43.69 61.82 -43.44 61.82 -43.44 60.48 -43.19 60.48 -43.19 60.22 -42.94 60.22 -42.94 60.35 -42.7 60.35 -42.7 62.31 -42.45 62.31 -42.45 63.99 -42.2 63.99 -42.2 65.74 -41.95 65.74 -41.95 67.51 -41.7 67.51 -41.7 69.3 -41.45 69.3 -41.45 70.68 -41.2 70.68 -41.2 71.48 -40.96 71.48 -40.96 72.36 -40.71 72.36 -40.71 72.85 -40.46 72.85 -40.46 73.08 -40.21 73.08 -40.21 73.04 -39.96 73.04 -39.96 72.98 -39.71 72.98 -39.71 73.44 -39.46 73.44 -39.46 72.99 -39.22 72.99 -39.22 73.49 -38.97 73.49 -38.97 73.31 -38.72 73.31 -38.72 73.24 -38.47 73.24 -38.47 73.36 -38.22 73.36 -38.22 73.45 -37.97 73.45 -37.97 73.4 -37.72 73.4 -37.72 73.28 -37.47 73.28 -37.47 73.8 -37.23 73.8 -37.23 73.69 -36.98 73.69 -36.98 73.29 -36.73 73.29 -36.73 73.5 -36.48 73.5 -36.48 73.25 -36.23 73.25 -36.23 73.42 -35.98 73.42 -35.98 73.08 -35.73 73.08 -35.73 73.49 -35.49 73.49 -35.49 73.48 -35.24 73.48 -35.24 73.09 -34.99 73.09 -34.99 73.36 -34.74 73.36 -34.74 73.65 -34.49 73.65 -34.49 73.28 -34.24 73.28 -34.24 73.5 -33.99 73.5 -33.99 73.63 -33.75 73.63 -33.75 73.96 -33.5 73.96 -33.5 73.39 -33.25 73.39 -33.25 73.62 -33 73.62 -33 73.43 -32.75 73.43 -32.75 73.17 -32.5 73.17 -32.5 73.16 -32.25 73.16 -32.25 73.64 -32.01 73.64 -32.01 73.48 -31.76 73.48 -31.76 73.57 -31.51 73.57 -31.51 73.82 -31.26 73.82 -31.26 73.7 -31.01 73.7 -31.01 73.48 -30.76 73.48 -30.76 74.09 -30.51 74.09 -30.51 74.05 -30.27 74.05 -30.27 73.65 -30.02 73.65 -30.02 74.1 -29.77 74.1 -29.77 73.62 -29.52 73.62 -29.52 73.81 -29.27 73.81 -29.27 73.56 -29.02 73.56 -29.02 73.63 -28.77 73.63 -28.77 74.01 -28.53 74.01 -28.53 73.82 -28.28 73.82 -28.28 73.78 -28.03 73.78 -28.03 73.96 -27.78 73.96 -27.78 73.83 -27.53 73.83 -27.53 73.91 -27.28 73.91 -27.28 74.02 -27.03 74.02 -27.03 74.35 -26.79 74.35 -26.79 73.96 -26.54 73.96 -26.54 73.84 -26.29 73.84 -26.29 73.9 -26.04 73.9 -26.04 74.23 -25.79 74.23 -25.79 74.05 -25.54 74.05 -25.54 74.11 -25.29 74.11 -25.29 74.08 -25.05 74.08 -25.05 74.13 -24.8 74.13 -24.8 74.43 -24.55 74.43 -24.55 74.18 -24.3 74.18 -24.3 74.76 -24.05 74.76 -24.05 74.56 -23.8 74.56 -23.8 74.39 -23.55 74.39 -23.55 74.95 -23.31 74.95 -23.31 74.88 -23.06 74.88 -23.06 74.83 -22.81 74.83 -22.81 74.61 -22.56 74.61 -22.56 74.83 -22.31 74.83 -22.31 75.13 -22.06 75.13 -22.06 75.31 -21.81 75.31 -21.81 74.37 -21.57 74.37 -21.57 74.72 -21.32 74.72 -21.32 75.09 -21.07 75.09 -21.07 75.2 -20.82 75.2 -20.82 74.96 -20.57 74.96 -20.57 75.25 -20.32 75.25 -20.32 75.01 -20.07 75.01 -20.07 75.08 -19.83 75.08 -19.83 74.92 -19.58 74.92 -19.58 75.38 -19.33 75.38 -19.33 75.11 -19.08 75.11 -19.08 75.33 -18.83 75.33 -18.83 75.58 -18.58 75.58 -18.58 75.31 -18.33 75.31 -18.33 75.27 -18.08 75.27 -18.08 75.55 -17.84 75.55 -17.84 75.74 -17.59 75.74 -17.59 75.7 -17.34 75.7 -17.34 75.95 -17.09 75.95 -17.09 75.82 -16.84 75.82 -16.84 76.03 -16.59 76.03 -16.59 75.98 -16.34 75.98 -16.34 75.61 -16.1 75.61 -16.1 76.13 -15.85 76.13 -15.85 75.66 -15.6 75.66 -15.6 75.61 -15.35 75.61 -15.35 75.11 -15.1 75.11 -15.1 74.62 -14.85 74.62 -14.85 74.31 -14.6 74.31 -14.6 73.49 -14.36 73.49 -14.36 71.38 -14.11 71.38 -14.11 70.23 -13.86 70.23 -13.86 68.43 -13.61 68.43 -13.61 66.75 -13.36 66.75 -13.36 64.79 -13.11 64.79 -13.11 63.67 -12.86 63.67 -12.86 63.51 -12.62 63.51 -12.62 63.3 -12.37 63.3 -12.37 64.48 -12.12 64.48 -12.12 65.83 -11.87 65.83 -11.87 66.95 -11.62 66.95 -11.62 69.25 -11.37 69.25 -11.37 70.25 -11.12 70.25 -11.12 71.66 -10.88 71.66 -10.88 73.2 -10.63 73.2 -10.63 74.22 -10.38 74.22 -10.38 74.89 -10.13 74.89 -10.13 75.72 -9.88 75.72 -9.88 76.16 -9.63 76.16 -9.63 76.36 -9.38 76.36 -9.38 76.63 -9.14 76.63 -9.14 77.34 -8.89 77.34 -8.89 77.81 -8.64 77.81 -8.64 77.77 -8.39 77.77 -8.39 77.92 -8.14 77.92 -8.14 77.99 -7.89 77.99 -7.89 77.54 -7.64 77.54 -7.64 78.26 -7.4 78.26 -7.4 78.15 -7.15 78.15 -7.15 77.84 -6.9 77.84 -6.9 78.36 -6.65 78.36 -6.65 78.66 -6.4 78.66 -6.4 78.51 -6.15 78.51 -6.15 78.88 -5.9 78.88 -5.9 78.37 -5.66 78.37 -5.66 78.7 -5.41 78.7 -5.41 78.99 -5.16 78.99 -5.16 78.84 -4.91 78.84 -4.91 78.84 -4.66 78.84 -4.66 78.86 -4.41 78.86 -4.41 79.08 -4.16 79.08 -4.16 79.29 -3.92 79.29 -3.92 79 -3.67 79 -3.67 79.1 -3.42 79.1 -3.42 79.53 -3.17 79.53 -3.17 79.41 -2.92 79.41 -2.92 79.33 -2.67 79.33 -2.67 79.18 -2.42 79.18 -2.42 79.28 -2.18 79.28 -2.18 79.27 -1.93 79.27 -1.93 79.73 -1.68 79.73 -1.68 79.67 -1.43 79.67 -1.43 79.92 -1.18 79.92 -1.18 79.23 -0.93 79.23 -0.93 79.87 -0.68 79.87 -0.68 79.87 -0.43 79.87 -0.43 79.75 -0.19 79.75 -0.19 79.89 0.06 79.89 0.06 79.92 0.31 79.92 0.31 79.95 0.56 79.95 0.56 80.18 0.81 80.18 0.81 80.11 1.06 80.11 1.06 80.2 1.31 80.2 1.31 80.29 1.55 80.29 1.55 80.13 1.8 80.13 1.8 80.27 2.05 80.27 2.05 80.66 2.3 80.66 2.3 80.6 2.55 80.6 2.55 80.64 2.8 80.64 2.8 80.57 3.05 80.57 3.05 80.52 3.29 80.52 3.29 80.74 3.54 80.74 3.54 80.9 3.79 80.9 3.79 80.84 4.04 80.84 4.04 80.73 4.29 80.73 4.29 80.78 4.54 80.78 4.54 80.63 4.79 80.63 4.79 81.1 5.03 81.1 5.03 81.01 5.28 81.01 5.28 81.01 5.53 81.01 5.53 81.41 5.78 81.41 5.78 81.57 6.03 81.57 6.03 81.03 6.28 81.03 6.28 81.53 6.53 81.53 6.53 81.68 6.77 81.68 6.77 81.47 7.02 81.47 7.02 81.34 7.27 81.34 7.27 81.39 7.52 81.39 7.52 81.93 7.77 81.93 7.77 81.65 8.02 81.65 8.02 82.1 8.27 82.1 8.27 81.58 8.51 81.58 8.51 82.11 8.76 82.11 8.76 81.66 9.01 81.66 9.01 81.85 9.26 81.85 9.26 81.47 9.51 81.47 9.51 82.05 9.76 82.05 9.76 82.37 10.01 82.37 10.01 81.97 10.25 81.97 10.25 82.28 10.5 82.28 10.5 82.33 10.75 82.33 10.75 82.22 11 82.22 11 82.22 11.25 82.22 11.25 82.19 11.5 82.19 11.5 82.32 11.75 82.32 11.75 82.56 11.99 82.56 11.99 82.35 12.24 82.35 12.24 82.44 12.49 82.44 12.49 82.32 12.74 82.32 12.74 82.83 12.99 82.83 12.99 83.05 13.24 83.05 13.24 82.82 13.49 82.82 13.49 83.07 13.73 83.07 13.73 82.83 13.98 82.83 13.98 83 14.23 83 14.23 82.84 14.48 82.84 14.48 83.25 14.73 83.25 14.73 83.21 14.98 83.21 14.98 83.12 15.23 83.12 15.23 83.1 15.47 83.1 15.47 82.86 15.72 82.86 15.72 83.18 15.97 83.18 15.97 82.9 16.22 82.9 16.22 83.44 16.47 83.44 16.47 83.57 16.72 83.57 16.72 83.51 16.97 83.51 16.97 83.16 17.21 83.16 17.21 83.45 17.46 83.45 17.46 83.58 17.71 83.58 17.71 83.63 17.96 83.63 17.96 83.81 18.21 83.81 18.21 83.69 18.46 83.69 18.46 83.77 18.71 83.77 18.71 84.08 18.96 84.08 18.96 83.74 19.2 83.74 19.2 83.77 19.45 83.77 19.45 84.08 19.7 84.08 19.7 84.23 19.95 84.23 19.95 83.7 20.2 83.7 20.2 83.97 20.45 83.97 20.45 84.17 20.7 84.17 20.7 84.3 20.94 84.3 20.94 84.45 21.19 84.45 21.19 84.13 21.44 84.13 21.44 84.26 21.69 84.26 21.69 84.19 21.94 84.19 21.94 84.3 22.19 84.3 22.19 84.67 22.44 84.67 22.44 84.31 22.68 84.31 22.68 84.54 22.93 84.54 22.93 84.39 23.18 84.39 23.18 84.45 23.43 84.45 23.43 84.71 23.68 84.71 23.68 84.75 23.93 84.75 23.93 84.76 24.18 84.76 24.18 85 24.42 85 24.42 84.78 24.67 84.78 24.67 84.74 24.92 84.74 24.92 84.96 25.17 84.96 25.17 84.94 25.42 84.94 25.42 84.99 25.67 84.99 25.67 85.42 25.92 85.42 25.92 85.18 26.16 85.18 26.16 85.39 26.41 85.39 26.41 85.39 26.66 85.39 26.66 85.24 26.91 85.24 26.91 85.3 27.16 85.3 27.16 85.19 27.41 85.19 27.41 85.22 27.66 85.22 27.66 85.17 27.9 85.17 27.9 85.31 28.15 85.31 28.15 85.14 28.4 85.14 28.4 85.25 28.65 85.25 28.65 85.4 28.9 85.4 28.9 85.85 29.15 85.85 29.15 85.47 29.4 85.47 29.4 85.75 29.64 85.75 29.64 85.58 29.89 85.58 29.89 85.53 30.14 85.53 30.14 85.66 30.39 85.66 30.39 85.69 30.64 85.69 30.64 85.9 30.89 85.9 30.89 85.83 31.14 85.83 31.14 85.74 31.38 85.74 31.38 86 31.63 86 31.63 86.15 31.88 86.15 31.88 85.98 32.13 85.98 32.13 86.02 32.38 86.02 32.38 86.25 32.63 86.25 32.63 86.19 32.88 86.19 32.88 86.07 33.12 86.07 33.12 86.29 33.37 86.29 33.37 85.93 33.62 85.93 33.62 86.17 33.87 86.17 33.87 86.23 34.12 86.23 34.12 85.91 34.37 85.91 34.37 86.31 34.62 86.31 34.62 86.41 34.86 86.41 34.86 86.23 35.11 86.23 35.11 86.35 35.36 86.35 35.36 86.1 35.61 86.1 35.61 86.63 35.86 86.63 35.86 85.95 36.11 85.95 36.11 86.08 36.36 86.08 36.36 86.46 36.6 86.46 36.6 86.59 36.85 86.59 36.85 86.58 37.1 86.58 37.1 86.65 37.35 86.65 37.35 86.8 37.6 86.8 37.6 86.93 37.85 86.93 37.85 86.76 38.1 86.76 38.1 86.94 38.35 86.94 38.35 86.83 38.59 86.83 38.59 87.19 38.84 87.19 38.84 86.84 39.09 86.84 39.09 87.08 39.34 87.08 39.34 87.22 39.59 87.22 39.59 86.86 39.84 86.86 39.84 87.13 40.09 87.13 40.09 87.22 40.33 87.22 40.33 87.25 40.58 87.25 40.58 87 40.83 87 40.83 87.24 41.08 87.24 41.08 87.46 41.33 87.46 41.33 87.55 41.58 87.55 41.58 87.49 41.83 87.49 41.83 87.48 42.07 87.48 42.07 87.53 42.32 87.53 42.32 87.51 42.57 87.51 42.57 87.49 42.82 87.49 42.82 87.87 43.07 87.87 43.07 87.5 43.32 87.5 43.32 87.68 43.57 87.68 43.57 87.77 43.81 87.77 43.81 87.78 44.06 87.78 44.06 87.54 44.31 87.54 44.31 87.87 44.56 87.87 44.56 87.9 44.81 87.9 44.81 87.83 45.06 87.83 45.06 87.59 45.31 87.59 45.31 88.04 45.55 88.04 45.55 87.91 45.8 87.91 45.8 87.98 46.05 87.98 46.05 88.11 46.3 88.11 46.3 87.94 46.55 87.94 46.55 87.97 46.8 87.97 46.8 88.46 47.05 88.46 47.05 88.3 47.29 88.3 47.29 88.33 47.54 88.33 47.54 87.91 47.79 87.91 47.79 88.27 48.04 88.27 48.04 88.25 48.29 88.25 48.29 88.59 48.54 88.59 48.54 87.82 48.79 87.82 48.79 88.27 49.03 88.27 49.03 88.26 49.28 88.26 49.28 88.61 49.53 88.61 49.53 88.52 49.78 88.52 49.78 88.5 50.03 88.5 50.03 88.5 50.28 88.5 50.28 88.64 50.53 88.64 50.53 88.57 50.77 88.57 50.77 88.46 51.02 88.46 51.02 88.4 51.27 88.4 51.27 88.52 51.52 88.52 51.52 88.83 51.77 88.83 51.77 88.78 52.02 88.78 52.02 88.77 52.27 88.77 52.27 88.67 52.51 88.67 52.51 88.99 52.76 88.99 52.76 88.93 53.01 88.93 53.01 88.86 53.26 88.86 53.26 88.86 53.51 88.86 53.51 89.19 53.76 89.19 53.76 88.96 54.01 88.96 54.01 88.9 54.25 88.9 54.25 89.14 54.5 89.14 54.5 89.15 54.75 89.15 54.75 89.25 55 89.25 55 88.78 55.25 88.78 55.25 89.24 55.5 89.24 55.5 89.35 55.75 89.35 55.75 89.21 55.99 89.21 55.99 89.36 56.24 89.36 56.24 89.45 56.49 89.45 56.49 89.21 56.74 89.21 56.74 89.36 56.99 89.36 56.99 89.39 57.24 89.39 57.24 89.31 57.49 89.31 57.49 88.89 57.74 88.89 57.74 89.14 57.98 89.14 57.98 89.1 58.23 89.1 58.23 89.16 58.48 89.16 58.48 88.76 58.73 88.76 58.73 88.69 58.98 88.69 58.98 88.66 59.23 88.66 59.23 88.68 59.48 88.68 59.48 88.74 59.72 88.74 59.72 88.83 59.97 88.83 59.97 88.85 60.22 88.85 60.22 88.6 60.47 88.6 60.47 88.97 60.72 88.97 60.72 89.22 60.97 89.22 60.97 89.04 61.22 89.04 61.22 89.07 61.46 89.07 61.46 89.52 61.71 89.52 61.71 89.55 61.96 89.55 61.96 89.67 62.21 89.67 62.21 89.69 62.46 89.69 62.46 89.87 62.71 89.87 62.71 89.68 62.96 89.68 62.96 89.98 63.2 89.98 63.2 90.09 63.45 90.09 63.45 90.06 63.7 90.06 63.7 89.85 63.95 89.85 63.95 90.28 64.2 90.28 64.2 90.08 64.45 90.08 64.45 90.33 64.7 90.33 64.7 90.02 64.94 90.02 64.94 90.21 65.19 90.21 65.19 90.45 65.44 90.45 65.44 90.6 65.69 90.6 65.69 90.27 65.94 90.27 65.94 89.95 66.19 89.95 66.19 90.49 66.44 90.49 66.44 90.46 66.68 90.46 66.68 90.26 66.93 90.26 66.93 90.19 67.18 90.19 67.18 90.52 67.43 90.52 67.43 90.36 67.68 90.36 67.68 90.44 67.93 90.44 67.93 90.78 68.18 90.78 68.18 90.67 68.42 90.67 68.42 90.28 68.67 90.28 68.67 90.56 68.92 90.56 68.92 90.42 69.17 90.42 69.17 90.71 69.42 90.71 69.42 90.67 69.67 90.67 69.67 90.71 69.92 90.71 69.92 90.78 70.16 90.78 70.16 90.72 70.41 90.72 70.41 90.63 70.66 90.63 70.66 90.76 70.91 90.76 70.91 90.75 71.16 90.75 71.16 90.74 71.41 90.74 71.41 90.84 71.66 90.84 71.66 90.83 71.9 90.83 71.9 90.89 72.15 90.89 72.15 91.03 72.4 91.03 72.4 90.76 72.65 90.76 72.65 91.03 72.9 91.03 72.9 91.08 73.15 91.08 73.15 91.07 73.4 91.07 73.4 90.91 73.64 90.91 73.64 91.1 73.89 91.1 73.89 91.1 74.14 91.1 74.14 91.02 74.39 91.02 74.39 91.11 74.64 91.11 74.64 91.08 74.89 91.08 74.89 90.98 75.14 90.98 75.14 91.16 75.38 91.16 75.38 91.16 75.63 91.16 75.63 91.07 75.88 91.07 75.88 91.19 76.13 91.19 76.13 91.21 76.38 91.21 76.38 91.24 76.63 91.24 76.63 91.23 76.88 91.23 76.88 91.23 77.13 91.23 77.13 91.45 77.37 91.45 77.37 91.59 77.62 91.59 77.62 91.55 77.87 91.55 77.87 91.42 78.12 91.42 78.12 91.45 78.37 91.45 78.37 91.3 78.62 91.3 78.62 91.55 78.87 91.55 78.87 91.58 79.11 91.58 79.11 91.47 79.36 91.47 79.36 91.79 79.61 91.79 79.61 91.71 79.86 91.71 79.86 91.7 80.11 91.7 80.11 91.66 80.36 91.66 80.36 91.79 80.61 91.79 80.61 91.85 80.85 91.85 80.85 91.77 81.1 91.77 81.1 91.99 81.35 91.99 81.35 91.68 81.6 91.68 81.6 91.73 81.85 91.73 81.85 91.75 82.1 91.75 82.1 91.82 82.35 91.82 82.35 92 82.59 92 82.59 91.78 82.84 91.78 82.84 92.02 83.09 92.02 83.09 91.97 83.34 91.97 83.34 92.15 83.59 92.15 83.59 92.03 83.84 92.03 83.84 92.11 84.09 92.11 84.09 91.71 84.33 91.71 84.33 92.16 84.58 92.16 84.58 91.9 84.83 91.9 84.83 91.67 85.08 91.67 85.08 91.91 85.33 91.91 85.33 91.87 85.58 91.87 85.58 91.73 85.83 91.73 85.83 91.98 86.07 91.98 86.07 91.84 86.32 91.84 86.32 92.02 86.57 92.02 86.57 91.95 86.82 91.95 86.82 91.9 87.07 91.9 87.07 92.11 87.32 92.11 87.32 92.08 87.57 92.08 87.57 92.21 87.81 92.21 87.81 91.92 88.06 91.92 88.06 92.06 88.31 92.06 88.31 92.14 88.56 92.14 88.56 92.11 88.81 92.11 88.81 92.46 89.06 92.46 89.06 92.59 89.31 92.59 89.31 92.18 89.55 92.18 89.55 92.34 89.8 92.34 89.8 92.49 90.05 92.49 90.05 92.46 90.3 92.46 90.3 92.44 90.55 92.44 90.55 92.34 90.8 92.34 90.8 92.58 91.05 92.58 91.05 92.46 91.29 92.46 91.29 92.61 91.54 92.61 91.54 92.51 91.79 92.51 91.79 92.49 92.04 92.49 92.04 92.66 92.29 92.66 92.29 92.62 92.54 92.62 92.54 92.74 92.79 92.74 92.79 92.72 93.03 92.72 93.03 92.77 93.28 92.77 93.28 92.59 93.53 92.59 93.53 92.86 93.78 92.86 93.78 92.66 94.03 92.66 94.03 92.65 94.28 92.65 94.28 92.77 94.53 92.77 94.53 92.74 94.77 92.74 94.77 92.87 95.02 92.87 95.02 92.95 95.27 92.95 95.27 92.96 95.52 92.96 95.52 92.83 95.77 92.83 95.77 93.01 96.02 93.01 96.02 92.99 96.27 92.99 96.27 92.95 96.52 92.95 96.52 92.96 96.76 92.96 96.76 92.92 97.01 92.92 97.01 93.06 97.26 93.06 97.26 93.01 97.51 93.01 97.51 92.98 97.76 92.98 97.76 93.2 98.01 93.2 98.01 93.12 98.26 93.12 98.26 93.07 98.5 93.07 98.5 92.97 98.75 92.97 98.75 93.12 99 93.12 99 93.07 99.25 93.07 99.25 93.2" class="primitive"/>
            </g>
          </g>
        </g>
      </g>
    </g>
  </g>
  <g class="guide ylabels" font-size="2.82" font-family="'PT Sans Caption','Helvetica Neue','Helvetica',sans-serif" fill="#6C606B" id="img-bd35500a-37">
    <g transform="translate(17.03,59.87)" id="img-bd35500a-38">
      <g class="primitive">
        <text text-anchor="end" dy="0.35em">0</text>
      </g>
    </g>
    <g transform="translate(17.03,42.2)" id="img-bd35500a-39">
      <g class="primitive">
        <text text-anchor="end" dy="0.35em">10000</text>
      </g>
    </g>
    <g transform="translate(17.03,24.53)" id="img-bd35500a-40">
      <g class="primitive">
        <text text-anchor="end" dy="0.35em">20000</text>
      </g>
    </g>
    <g transform="translate(17.03,6.86)" id="img-bd35500a-41">
      <g class="primitive">
        <text text-anchor="end" dy="0.35em">30000</text>
      </g>
    </g>
  </g>
  <g font-size="3.18" font-family="'PT Sans','Helvetica Neue','Helvetica',sans-serif" fill="#202020" stroke="#000000" stroke-opacity="0.000" id="img-bd35500a-42">
    <g transform="translate(4.18,29.29)" id="img-bd35500a-43">
      <g class="primitive">
        <text text-anchor="middle" dy="0.35em" transform="rotate(-90,0, 2)">Counts</text>
      </g>
    </g>
  </g>
</g>
<defs>
  <clipPath id="img-bd35500a-15">
    <path d="M18.03,0.71 L 220.93 0.71 220.93 61.87 18.03 61.87" />
  </clipPath>
</defs>
</svg>
