<?xml version="1.0" encoding="UTF-8"?>
<svg xmlns="http://www.w3.org/2000/svg"
     xmlns:xlink="http://www.w3.org/1999/xlink"
     xmlns:gadfly="http://www.gadflyjl.org/ns"
     version="1.2"
     width="254mm" height="76.2mm" viewBox="0 0 254 76.2"
     stroke="none"
     fill="#000000"
     stroke-width="0.3"
     font-size="3.88"
>
<defs>
  <marker id="arrow" markerWidth="15" markerHeight="7" refX="5" refY="3.5" orient="auto" markerUnits="strokeWidth">
    <path d="M0,0 L15,3.5 L0,7 z" stroke="context-stroke" fill="context-stroke"/>
  </marker>
</defs>
<g class="plotroot xscalable yscalable" id="img-6127a43e-1">
  <g font-size="3.18" font-family="'PT Sans','Helvetica Neue','Helvetica',sans-serif" fill="#202020" stroke="#000000" stroke-opacity="0.000" id="img-6127a43e-2">
    <g transform="translate(122.71,69.54)">
      <g class="primitive">
        <text text-anchor="middle" dy="0.6em">Energy (eV)</text>
      </g>
    </g>
  </g>
  <g class="guide xlabels" font-size="2.82" font-family="'PT Sans Caption','Helvetica Neue','Helvetica',sans-serif" fill="#6C606B" id="img-6127a43e-3">
    <g transform="translate(21.7,62.87)">
      <g class="primitive">
        <text text-anchor="middle" dy="0.6em">0</text>
      </g>
    </g>
    <g transform="translate(72.21,62.87)">
      <g class="primitive">
        <text text-anchor="middle" dy="0.6em">2000</text>
      </g>
    </g>
    <g transform="translate(122.71,62.87)">
      <g class="primitive">
        <text text-anchor="middle" dy="0.6em">4000</text>
      </g>
    </g>
    <g transform="translate(173.22,62.87)">
      <g class="primitive">
        <text text-anchor="middle" dy="0.6em">6000</text>
      </g>
    </g>
    <g transform="translate(223.72,62.87)">
      <g class="primitive">
        <text text-anchor="middle" dy="0.6em">8000</text>
      </g>
    </g>
  </g>
  <g class="guide colorkey" id="img-6127a43e-4">
    <g fill="#4C404B" font-size="2.82" font-family="'PT Sans','Helvetica Neue','Helvetica',sans-serif" id="img-6127a43e-5">
      <g transform="translate(230.35,31.7)" id="img-6127a43e-6">
        <g class="primitive">
          <text dy="0.35em">MgO std</text>
        </g>
      </g>
      <g transform="translate(230.35,35.33)" id="img-6127a43e-7">
        <g class="primitive">
          <text dy="0.35em">CharOnly[MgO std]</text>
        </g>
      </g>
    </g>
    <g stroke-width="0.3" id="img-6127a43e-8">
      <g stroke="#FFFFFF" fill-opacity="1" fill="#B70002" id="img-6127a43e-9">
        <g transform="translate(227.53,35.33)" id="img-6127a43e-10">
          <circle cx="0" cy="0" r="0.9" class="primitive"/>
        </g>
      </g>
      <g stroke="#FFFFFF" fill-opacity="1" fill="#104E8B" id="img-6127a43e-11">
        <g transform="translate(227.53,31.7)" id="img-6127a43e-12">
          <circle cx="0" cy="0" r="0.9" class="primitive"/>
        </g>
      </g>
    </g>
    <g fill="#362A35" font-size="3.18" font-family="'PT Sans','Helvetica Neue','Helvetica',sans-serif" stroke="#000000" stroke-opacity="0.000" id="img-6127a43e-13">
      <g transform="translate(226.72,28.39)" id="img-6127a43e-14">
        <g class="primitive">
          <text dy="-0em">Spectra</text>
        </g>
      </g>
    </g>
  </g>
  <g clip-path="url(#img-6127a43e-15)">
    <g id="img-6127a43e-16">
      <g pointer-events="visible" stroke-width="0.3" fill="#FDFDF1" stroke="#202020" class="guide background" id="img-6127a43e-17">
        <g transform="translate(122.71,31.29)" id="img-6127a43e-18">
          <path d="M-103.01,-30.58 L 103.01 -30.58 103.01 30.58 -103.01 30.58 z" class="primitive"/>
        </g>
      </g>
      <g class="guide ygridlines xfixed" stroke-dasharray="none" stroke-width="0.2" stroke="#FFDFDF" id="img-6127a43e-19">
        <g transform="translate(122.71,59.87)" id="img-6127a43e-20">
          <path fill="none" d="M-103.01,0 L 103.01 0" class="primitive"/>
        </g>
        <g transform="translate(122.71,45.86)" id="img-6127a43e-21">
          <path fill="none" d="M-103.01,0 L 103.01 0" class="primitive"/>
        </g>
        <g transform="translate(122.71,31.86)" id="img-6127a43e-22">
          <path fill="none" d="M-103.01,0 L 103.01 0" class="primitive"/>
        </g>
        <g transform="translate(122.71,17.85)" id="img-6127a43e-23">
          <path fill="none" d="M-103.01,0 L 103.01 0" class="primitive"/>
        </g>
        <g transform="translate(122.71,3.85)" id="img-6127a43e-24">
          <path fill="none" d="M-103.01,0 L 103.01 0" class="primitive"/>
        </g>
      </g>
      <g class="guide xgridlines yfixed" stroke-dasharray="none" stroke-width="0.2" stroke="#FFDFDF" id="img-6127a43e-25">
        <g transform="translate(21.7,31.29)" id="img-6127a43e-26">
          <path fill="none" d="M0,-30.58 L 0 30.58" class="primitive"/>
        </g>
        <g transform="translate(72.21,31.29)" id="img-6127a43e-27">
          <path fill="none" d="M0,-30.58 L 0 30.58" class="primitive"/>
        </g>
        <g transform="translate(122.71,31.29)" id="img-6127a43e-28">
          <path fill="none" d="M0,-30.58 L 0 30.58" class="primitive"/>
        </g>
        <g transform="translate(173.22,31.29)" id="img-6127a43e-29">
          <path fill="none" d="M0,-30.58 L 0 30.58" class="primitive"/>
        </g>
        <g transform="translate(223.72,31.29)" id="img-6127a43e-30">
          <path fill="none" d="M0,-30.58 L 0 30.58" class="primitive"/>
        </g>
      </g>
      <g class="plotpanel" id="img-6127a43e-31">
        <metadata>
          <boundingbox value="19.70055555555556mm 0.7055555555555555mm 206.02055555555557mm 61.16055555555556mm"/>
          <unitbox value="-79.19986140024255 211218.82891951522 8158.3997228004855 -218359.35783903045"/>
        </metadata>
        <g stroke-width="0.3" fill="#000000" fill-opacity="0.000" class="geometry" id="img-6127a43e-32">
          <g class="color_RGB{Float64}(0.7186016914382806,8.086625054816313e-7,0.0097916074077615)" stroke-dasharray="none" stroke="#B70002" id="img-6127a43e-33">
            <g transform="translate(122.67,45.95)" id="img-6127a43e-34">
              <path fill="none" d="M-100.93,13.92 L -100.68 13.92 -100.68 13.92 -100.43 13.92 -100.43 13.92 -100.18 13.92 -100.18 13.92 -99.92 13.92 -99.92 13.92 -99.67 13.92 -99.67 13.92 -99.42 13.92 -99.42 13.92 -99.17 13.92 -99.17 13.92 -98.91 13.92 -98.91 13.92 -98.66 13.92 -98.66 13.92 -98.41 13.92 -98.41 13.91 -98.16 13.91 -98.16 13.91 -97.9 13.91 -97.9 13.91 -97.65 13.91 -97.65 13.91 -97.4 13.91 -97.4 13.9 -97.15 13.9 -97.15 13.88 -96.89 13.88 -96.89 13.86 -96.64 13.86 -96.64 13.82 -96.39 13.82 -96.39 13.76 -96.14 13.76 -96.14 13.65 -95.88 13.65 -95.88 13.43 -95.63 13.43 -95.63 12.98 -95.38 12.98 -95.38 12.18 -95.13 12.18 -95.13 10.84 -94.87 10.84 -94.87 8.94 -94.62 8.94 -94.62 6.89 -94.37 6.89 -94.37 5.4 -94.12 5.4 -94.12 5.31 -93.86 5.31 -93.86 6.44 -93.61 6.44 -93.61 8.2 -93.36 8.2 -93.36 9.86 -93.11 9.86 -93.11 11.49 -92.85 11.49 -92.85 12.95 -92.6 12.95 -92.6 13.77 -92.35 13.77 -92.35 14.22 -92.1 14.22 -92.1 14.08 -91.84 14.08 -91.84 13.78 -91.59 13.78 -91.59 13.48 -91.34 13.48 -91.34 13.25 -91.09 13.25 -91.09 13 -90.83 13 -90.83 12.61 -90.58 12.61 -90.58 12.2 -90.33 12.2 -90.33 11.85 -90.08 11.85 -90.08 10.2 -89.82 10.2 -89.82 6.47 -89.57 6.47 -89.57 -1.61 -89.32 -1.61 -89.32 -16.8 -89.07 -16.8 -89.07 -42.76 -88.81 -42.76 -88.81 -82.51 -88.56 -82.51 -88.56 -133.89 -88.31 -133.89 -88.31 -186.85 -88.06 -186.85 -88.06 -225.65 -87.8 -225.65 -87.8 -236.1 -87.55 -236.1 -87.55 -213.66 -87.3 -213.66 -87.3 -165.08 -87.05 -165.08 -87.05 -108.09 -86.79 -108.09 -86.79 -58.95 -86.54 -58.95 -86.54 -23.86 -86.29 -23.86 -86.29 -3.1 -86.04 -3.1 -86.04 7.41 -85.78 7.41 -85.78 11.91 -85.53 11.91 -85.53 13.58 -85.28 13.58 -85.28 14.06 -85.03 14.06 -85.03 14.06 -84.77 14.06 -84.77 13.97 -84.52 13.97 -84.52 13.79 -84.27 13.79 -84.27 13.65 -84.02 13.65 -84.02 13.52 -83.76 13.52 -83.76 13.4 -83.51 13.4 -83.51 13.46 -83.26 13.46 -83.26 13.46 -83.01 13.46 -83.01 13.66 -82.75 13.66 -82.75 13.76 -82.5 13.76 -82.5 13.92 -82.25 13.92 -82.25 14.02 -82 14.02 -82 14.1 -81.74 14.1 -81.74 14.17 -81.49 14.17 -81.49 14.13 -81.24 14.13 -81.24 14.14 -80.99 14.14 -80.99 14.11 -80.73 14.11 -80.73 14.1 -80.48 14.1 -80.48 13.99 -80.23 13.99 -80.23 13.93 -79.98 13.93 -79.98 13.9 -79.72 13.9 -79.72 13.93 -79.47 13.93 -79.47 13.85 -79.22 13.85 -79.22 13.73 -78.97 13.73 -78.97 13.77 -78.71 13.77 -78.71 13.67 -78.46 13.67 -78.46 13.61 -78.21 13.61 -78.21 13.57 -77.96 13.57 -77.96 13.46 -77.7 13.46 -77.7 13.3 -77.45 13.3 -77.45 13.26 -77.2 13.26 -77.2 13.17 -76.95 13.17 -76.95 13.02 -76.69 13.02 -76.69 12.86 -76.44 12.86 -76.44 12.67 -76.19 12.67 -76.19 12.53 -75.94 12.53 -75.94 12.31 -75.68 12.31 -75.68 11.99 -75.43 11.99 -75.43 11.73 -75.18 11.73 -75.18 11.28 -74.93 11.28 -74.93 10.88 -74.67 10.88 -74.67 10.53 -74.42 10.53 -74.42 10.07 -74.17 10.07 -74.17 9.59 -73.92 9.59 -73.92 9.2 -73.66 9.2 -73.66 8.62 -73.41 8.62 -73.41 7.97 -73.16 7.97 -73.16 7.29 -72.91 7.29 -72.91 6.28 -72.65 6.28 -72.65 5.2 -72.4 5.2 -72.4 3.59 -72.15 3.59 -72.15 0.74 -71.9 0.74 -71.9 -4.33 -71.64 -4.33 -71.64 -14.65 -71.39 -14.65 -71.39 -36.53 -71.14 -36.53 -71.14 -79.06 -70.89 -79.06 -70.89 -154.36 -70.63 -154.36 -70.63 -275.13 -70.38 -275.13 -70.38 -445.49 -70.13 -445.49 -70.13 -652.15 -69.88 -652.15 -69.88 -864.72 -69.62 -864.72 -69.62 -1036.12 -69.37 -1036.12 -69.37 -1121.47 -69.12 -1121.47 -69.12 -1098.96 -68.87 -1098.96 -68.87 -973.64 -68.61 -973.64 -68.61 -783.82 -68.36 -783.82 -68.36 -571.55 -68.11 -571.55 -68.11 -380.62 -67.86 -380.62 -67.86 -230.12 -67.6 -230.12 -67.6 -126.17 -67.35 -126.17 -67.35 -61.58 -67.1 -61.58 -67.1 -24.97 -66.85 -24.97 -66.85 -5.6 -66.59 -5.6 -66.59 4.07 -66.34 4.07 -66.34 8.76 -66.09 8.76 -66.09 10.99 -65.84 10.99 -65.84 12.25 -65.58 12.25 -65.58 12.89 -65.33 12.89 -65.33 13.31 -65.08 13.31 -65.08 13.54 -64.83 13.54 -64.83 13.69 -64.57 13.69 -64.57 13.71 -64.32 13.71 -64.32 13.73 -64.07 13.73 -64.07 13.79 -63.82 13.79 -63.82 13.73 -63.56 13.73 -63.56 13.76 -63.31 13.76 -63.31 13.78 -63.06 13.78 -63.06 13.77 -62.81 13.77 -62.81 13.84 -62.55 13.84 -62.55 13.85 -62.3 13.85 -62.3 13.96 -62.05 13.96 -62.05 14 -61.8 14 -61.8 14 -61.54 14 -61.54 14.03 -61.29 14.03 -61.29 14.08 -61.04 14.08 -61.04 14.16 -60.79 14.16 -60.79 14.19 -60.53 14.19 -60.53 14.24 -60.28 14.24 -60.28 14.25 -60.03 14.25 -60.03 14.19 -59.78 14.19 -59.78 14.23 -59.52 14.23 -59.52 13.92 -59.27 13.92 -59.27 13.92 -59.02 13.92 -59.02 13.92 -58.77 13.92 -58.77 13.92 -58.51 13.92 -58.51 13.92 -58.26 13.92 -58.26 13.92 -58.01 13.92 -58.01 13.92 -57.76 13.92 -57.76 13.92 -57.5 13.92 -57.5 13.92 -57.25 13.92 -57.25 13.92 -57 13.92 -57 13.92 -56.75 13.92 -56.75 13.92 -56.49 13.92 -56.49 13.92 -56.24 13.92 -56.24 13.92 -55.99 13.92 -55.99 13.92 -55.74 13.92 -55.74 13.92 -55.48 13.92 -55.48 13.92 -55.23 13.92 -55.23 13.92 -54.98 13.92 -54.98 13.92 -54.73 13.92 -54.73 13.92 -54.47 13.92 -54.47 13.92 -54.22 13.92 -54.22 13.92 -53.97 13.92 -53.97 13.92 -53.72 13.92 -53.72 13.92 -53.46 13.92 -53.46 13.92 -53.21 13.92 -53.21 13.92 -52.96 13.92 -52.96 13.92 -52.71 13.92 -52.71 13.92 -52.45 13.92 -52.45 13.92 -52.2 13.92 -52.2 13.92 -51.95 13.92 -51.95 13.92 -51.7 13.92 -51.7 13.92 -51.44 13.92 -51.44 13.92 -51.19 13.92 -51.19 13.92 -50.94 13.92 -50.94 13.92 -50.69 13.92 -50.69 13.92 -50.43 13.92 -50.43 13.92 -50.18 13.92 -50.18 13.92 -49.93 13.92 -49.93 13.92 -49.68 13.92 -49.68 13.92 -49.42 13.92 -49.42 13.92 -49.17 13.92 -49.17 13.92 -48.92 13.92 -48.92 13.92 -48.67 13.92 -48.67 13.92 -48.41 13.92 -48.41 13.92 -48.16 13.92 -48.16 13.92 -47.91 13.92 -47.91 13.92 -47.66 13.92 -47.66 13.92 -47.4 13.92 -47.4 13.92 -47.15 13.92 -47.15 13.92 -46.9 13.92 -46.9 13.92 -46.65 13.92 -46.65 13.92 -46.39 13.92 -46.39 13.92 -46.14 13.92 -46.14 13.92 -45.89 13.92 -45.89 13.92 -45.64 13.92 -45.64 13.92 -45.38 13.92 -45.38 13.92 -45.13 13.92 -45.13 13.92 -44.88 13.92 -44.88 13.92 -44.63 13.92 -44.63 13.92 -44.37 13.92 -44.37 13.92 -44.12 13.92 -44.12 13.92 -43.87 13.92 -43.87 13.92 -43.62 13.92 -43.62 13.92 -43.37 13.92 -43.37 13.92 -43.11 13.92 -43.11 13.92 -42.86 13.92 -42.86 13.92 -42.61 13.92 -42.61 13.92 -42.36 13.92 -42.36 13.92 -42.1 13.92 -42.1 13.92 -41.85 13.92 -41.85 13.92 -41.6 13.92 -41.6 13.92 -41.35 13.92 -41.35 13.92 -41.09 13.92 -41.09 13.92 -40.84 13.92 -40.84 13.92 -40.59 13.92 -40.59 13.92 -40.34 13.92 -40.34 13.92 -40.08 13.92 -40.08 13.92 -39.83 13.92 -39.83 13.92 -39.58 13.92 -39.58 13.92 -39.33 13.92 -39.33 13.92 -39.07 13.92 -39.07 13.92 -38.82 13.92 -38.82 13.92 -38.57 13.92 -38.57 13.92 -38.32 13.92 -38.32 13.92 -38.06 13.92 -38.06 13.92 -37.81 13.92 -37.81 13.92 -37.56 13.92 -37.56 13.92 -37.31 13.92 -37.31 13.92 -37.05 13.92 -37.05 13.92 -36.8 13.92 -36.8 13.92 -36.55 13.92 -36.55 13.92 -36.3 13.92 -36.3 13.92 -36.04 13.92 -36.04 13.92 -35.79 13.92 -35.79 13.92 -35.54 13.92 -35.54 13.92 -35.29 13.92 -35.29 13.92 -35.03 13.92 -35.03 13.92 -34.78 13.92 -34.78 13.92 -34.53 13.92 -34.53 13.92 -34.28 13.92 -34.28 13.92 -34.02 13.92 -34.02 13.92 -33.77 13.92 -33.77 13.92 -33.52 13.92 -33.52 13.92 -33.27 13.92 -33.27 13.92 -33.01 13.92 -33.01 13.92 -32.76 13.92 -32.76 13.92 -32.51 13.92 -32.51 13.92 -32.26 13.92 -32.26 13.92 -32 13.92 -32 13.92 -31.75 13.92 -31.75 13.92 -31.5 13.92 -31.5 13.92 -31.25 13.92 -31.25 13.92 -30.99 13.92 -30.99 13.92 -30.74 13.92 -30.74 13.92 -30.49 13.92 -30.49 13.92 -30.24 13.92 -30.24 13.92 -29.98 13.92 -29.98 13.92 -29.73 13.92 -29.73 13.92 -29.48 13.92 -29.48 13.92 -29.23 13.92 -29.23 13.92 -28.97 13.92 -28.97 13.92 -28.72 13.92 -28.72 13.92 -28.47 13.92 -28.47 13.92 -28.22 13.92 -28.22 13.92 -27.96 13.92 -27.96 13.92 -27.71 13.92 -27.71 13.92 -27.46 13.92 -27.46 13.92 -27.21 13.92 -27.21 13.92 -26.95 13.92 -26.95 13.92 -26.7 13.92 -26.7 13.92 -26.45 13.92 -26.45 13.92 -26.2 13.92 -26.2 13.92 -25.94 13.92 -25.94 13.92 -25.69 13.92 -25.69 13.92 -25.44 13.92 -25.44 13.92 -25.19 13.92 -25.19 13.92 -24.93 13.92 -24.93 13.92 -24.68 13.92 -24.68 13.92 -24.43 13.92 -24.43 13.92 -24.18 13.92 -24.18 13.92 -23.92 13.92 -23.92 13.92 -23.67 13.92 -23.67 13.92 -23.42 13.92 -23.42 13.92 -23.17 13.92 -23.17 13.92 -22.91 13.92 -22.91 13.92 -22.66 13.92 -22.66 13.92 -22.41 13.92 -22.41 13.92 -22.16 13.92 -22.16 13.92 -21.9 13.92 -21.9 13.92 -21.65 13.92 -21.65 13.92 -21.4 13.92 -21.4 13.92 -21.15 13.92 -21.15 13.92 -20.89 13.92 -20.89 13.92 -20.64 13.92 -20.64 13.92 -20.39 13.92 -20.39 13.92 -20.14 13.92 -20.14 13.92 -19.88 13.92 -19.88 13.92 -19.63 13.92 -19.63 13.92 -19.38 13.92 -19.38 13.92 -19.13 13.92 -19.13 13.92 -18.87 13.92 -18.87 13.92 -18.62 13.92 -18.62 13.92 -18.37 13.92 -18.37 13.92 -18.12 13.92 -18.12 13.92 -17.86 13.92 -17.86 13.92 -17.61 13.92 -17.61 13.92 -17.36 13.92 -17.36 13.92 -17.11 13.92 -17.11 13.92 -16.85 13.92 -16.85 13.92 -16.6 13.92 -16.6 13.92 -16.35 13.92 -16.35 13.92 -16.1 13.92 -16.1 13.92 -15.84 13.92 -15.84 13.92 -15.59 13.92 -15.59 13.92 -15.34 13.92 -15.34 13.92 -15.09 13.92 -15.09 13.92 -14.83 13.92 -14.83 13.92 -14.58 13.92 -14.58 13.92 -14.33 13.92 -14.33 13.92 -14.08 13.92 -14.08 13.92 -13.82 13.92 -13.82 13.92 -13.57 13.92 -13.57 13.92 -13.32 13.92 -13.32 13.92 -13.07 13.92 -13.07 13.92 -12.81 13.92 -12.81 13.92 -12.56 13.92 -12.56 13.92 -12.31 13.92 -12.31 13.92 -12.06 13.92 -12.06 13.92 -11.8 13.92 -11.8 13.92 -11.55 13.92 -11.55 13.92 -11.3 13.92 -11.3 13.92 -11.05 13.92 -11.05 13.92 -10.79 13.92 -10.79 13.92 -10.54 13.92 -10.54 13.92 -10.29 13.92 -10.29 13.92 -10.04 13.92 -10.04 13.92 -9.78 13.92 -9.78 13.92 -9.53 13.92 -9.53 13.92 -9.28 13.92 -9.28 13.92 -9.03 13.92 -9.03 13.92 -8.77 13.92 -8.77 13.92 -8.52 13.92 -8.52 13.92 -8.27 13.92 -8.27 13.92 -8.02 13.92 -8.02 13.92 -7.76 13.92 -7.76 13.92 -7.51 13.92 -7.51 13.92 -7.26 13.92 -7.26 13.92 -7.01 13.92 -7.01 13.92 -6.75 13.92 -6.75 13.92 -6.5 13.92 -6.5 13.92 -6.25 13.92 -6.25 13.92 -6 13.92 -6 13.92 -5.74 13.92 -5.74 13.92 -5.49 13.92 -5.49 13.92 -5.24 13.92 -5.24 13.92 -4.99 13.92 -4.99 13.92 -4.73 13.92 -4.73 13.92 -4.48 13.92 -4.48 13.92 -4.23 13.92 -4.23 13.92 -3.98 13.92 -3.98 13.92 -3.72 13.92 -3.72 13.92 -3.47 13.92 -3.47 13.92 -3.22 13.92 -3.22 13.92 -2.97 13.92 -2.97 13.92 -2.71 13.92 -2.71 13.92 -2.46 13.92 -2.46 13.92 -2.21 13.92 -2.21 13.92 -1.96 13.92 -1.96 13.92 -1.7 13.92 -1.7 13.92 -1.45 13.92 -1.45 13.92 -1.2 13.92 -1.2 13.92 -0.95 13.92 -0.95 13.92 -0.69 13.92 -0.69 13.92 -0.44 13.92 -0.44 13.92 -0.19 13.92 -0.19 13.92 0.06 13.92 0.06 13.92 0.32 13.92 0.32 13.92 0.57 13.92 0.57 13.92 0.82 13.92 0.82 13.92 1.07 13.92 1.07 13.92 1.33 13.92 1.33 13.92 1.58 13.92 1.58 13.92 1.83 13.92 1.83 13.92 2.08 13.92 2.08 13.92 2.34 13.92 2.34 13.92 2.59 13.92 2.59 13.92 2.84 13.92 2.84 13.92 3.09 13.92 3.09 13.92 3.35 13.92 3.35 13.92 3.6 13.92 3.6 13.92 3.85 13.92 3.85 13.92 4.1 13.92 4.1 13.92 4.36 13.92 4.36 13.92 4.61 13.92 4.61 13.92 4.86 13.92 4.86 13.92 5.11 13.92 5.11 13.92 5.37 13.92 5.37 13.92 5.62 13.92 5.62 13.92 5.87 13.92 5.87 13.92 6.12 13.92 6.12 13.92 6.38 13.92 6.38 13.92 6.63 13.92 6.63 13.92 6.88 13.92 6.88 13.92 7.13 13.92 7.13 13.92 7.39 13.92 7.39 13.92 7.64 13.92 7.64 13.92 7.89 13.92 7.89 13.92 8.14 13.92 8.14 13.92 8.4 13.92 8.4 13.92 8.65 13.92 8.65 13.92 8.9 13.92 8.9 13.92 9.15 13.92 9.15 13.92 9.41 13.92 9.41 13.92 9.66 13.92 9.66 13.92 9.91 13.92 9.91 13.92 10.16 13.92 10.16 13.92 10.42 13.92 10.42 13.92 10.67 13.92 10.67 13.92 10.92 13.92 10.92 13.92 11.17 13.92 11.17 13.92 11.43 13.92 11.43 13.92 11.68 13.92 11.68 13.92 11.93 13.92 11.93 13.92 12.18 13.92 12.18 13.92 12.44 13.92 12.44 13.92 12.69 13.92 12.69 13.92 12.94 13.92 12.94 13.92 13.19 13.92 13.19 13.92 13.45 13.92 13.45 13.92 13.7 13.92 13.7 13.92 13.95 13.92 13.95 13.92 14.2 13.92 14.2 13.92 14.46 13.92 14.46 13.92 14.71 13.92 14.71 13.92 14.96 13.92 14.96 13.92 15.21 13.92 15.21 13.92 15.47 13.92 15.47 13.92 15.72 13.92 15.72 13.92 15.97 13.92 15.97 13.92 16.22 13.92 16.22 13.92 16.47 13.92 16.47 13.92 16.73 13.92 16.73 13.92 16.98 13.92 16.98 13.92 17.23 13.92 17.23 13.92 17.48 13.92 17.48 13.92 17.74 13.92 17.74 13.92 17.99 13.92 17.99 13.92 18.24 13.92 18.24 13.92 18.49 13.92 18.49 13.92 18.75 13.92 18.75 13.92 19 13.92 19 13.92 19.25 13.92 19.25 13.92 19.5 13.92 19.5 13.92 19.76 13.92 19.76 13.92 20.01 13.92 20.01 13.92 20.26 13.92 20.26 13.92 20.51 13.92 20.51 13.92 20.77 13.92 20.77 13.92 21.02 13.92 21.02 13.92 21.27 13.92 21.27 13.92 21.52 13.92 21.52 13.92 21.78 13.92 21.78 13.92 22.03 13.92 22.03 13.92 22.28 13.92 22.28 13.92 22.53 13.92 22.53 13.92 22.79 13.92 22.79 13.92 23.04 13.92 23.04 13.92 23.29 13.92 23.29 13.92 23.54 13.92 23.54 13.92 23.8 13.92 23.8 13.92 24.05 13.92 24.05 13.92 24.3 13.92 24.3 13.92 24.55 13.92 24.55 13.92 24.81 13.92 24.81 13.92 25.06 13.92 25.06 13.92 25.31 13.92 25.31 13.92 25.56 13.92 25.56 13.92 25.82 13.92 25.82 13.92 26.07 13.92 26.07 13.92 26.32 13.92 26.32 13.92 26.57 13.92 26.57 13.92 26.83 13.92 26.83 13.92 27.08 13.92 27.08 13.92 27.33 13.92 27.33 13.92 27.58 13.92 27.58 13.92 27.84 13.92 27.84 13.92 28.09 13.92 28.09 13.92 28.34 13.92 28.34 13.92 28.59 13.92 28.59 13.92 28.85 13.92 28.85 13.92 29.1 13.92 29.1 13.92 29.35 13.92 29.35 13.92 29.6 13.92 29.6 13.92 29.86 13.92 29.86 13.92 30.11 13.92 30.11 13.92 30.36 13.92 30.36 13.92 30.61 13.92 30.61 13.92 30.87 13.92 30.87 13.92 31.12 13.92 31.12 13.92 31.37 13.92 31.37 13.92 31.62 13.92 31.62 13.92 31.88 13.92 31.88 13.92 32.13 13.92 32.13 13.92 32.38 13.92 32.38 13.92 32.63 13.92 32.63 13.92 32.89 13.92 32.89 13.92 33.14 13.92 33.14 13.92 33.39 13.92 33.39 13.92 33.64 13.92 33.64 13.92 33.9 13.92 33.9 13.92 34.15 13.92 34.15 13.92 34.4 13.92 34.4 13.92 34.65 13.92 34.65 13.92 34.91 13.92 34.91 13.92 35.16 13.92 35.16 13.92 35.41 13.92 35.41 13.92 35.66 13.92 35.66 13.92 35.92 13.92 35.92 13.92 36.17 13.92 36.17 13.92 36.42 13.92 36.42 13.92 36.67 13.92 36.67 13.92 36.93 13.92 36.93 13.92 37.18 13.92 37.18 13.92 37.43 13.92 37.43 13.92 37.68 13.92 37.68 13.92 37.94 13.92 37.94 13.92 38.19 13.92 38.19 13.92 38.44 13.92 38.44 13.92 38.69 13.92 38.69 13.92 38.95 13.92 38.95 13.92 39.2 13.92 39.2 13.92 39.45 13.92 39.45 13.92 39.7 13.92 39.7 13.92 39.96 13.92 39.96 13.92 40.21 13.92 40.21 13.92 40.46 13.92 40.46 13.92 40.71 13.92 40.71 13.92 40.97 13.92 40.97 13.92 41.22 13.92 41.22 13.92 41.47 13.92 41.47 13.92 41.72 13.92 41.72 13.92 41.98 13.92 41.98 13.92 42.23 13.92 42.23 13.92 42.48 13.92 42.48 13.92 42.73 13.92 42.73 13.92 42.99 13.92 42.99 13.92 43.24 13.92 43.24 13.92 43.49 13.92 43.49 13.92 43.74 13.92 43.74 13.92 44 13.92 44 13.92 44.25 13.92 44.25 13.92 44.5 13.92 44.5 13.92 44.75 13.92 44.75 13.92 45.01 13.92 45.01 13.92 45.26 13.92 45.26 13.92 45.51 13.92 45.51 13.92 45.76 13.92 45.76 13.92 46.02 13.92 46.02 13.92 46.27 13.92 46.27 13.92 46.52 13.92 46.52 13.92 46.77 13.92 46.77 13.92 47.03 13.92 47.03 13.92 47.28 13.92 47.28 13.92 47.53 13.92 47.53 13.92 47.78 13.92 47.78 13.92 48.04 13.92 48.04 13.92 48.29 13.92 48.29 13.92 48.54 13.92 48.54 13.92 48.79 13.92 48.79 13.92 49.05 13.92 49.05 13.92 49.3 13.92 49.3 13.92 49.55 13.92 49.55 13.92 49.8 13.92 49.8 13.92 50.06 13.92 50.06 13.92 50.31 13.92 50.31 13.92 50.56 13.92 50.56 13.92 50.81 13.92 50.81 13.92 51.07 13.92 51.07 13.92 51.32 13.92 51.32 13.92 51.57 13.92 51.57 13.92 51.82 13.92 51.82 13.92 52.08 13.92 52.08 13.92 52.33 13.92 52.33 13.92 52.58 13.92 52.58 13.92 52.83 13.92 52.83 13.92 53.09 13.92 53.09 13.92 53.34 13.92 53.34 13.92 53.59 13.92 53.59 13.92 53.84 13.92 53.84 13.92 54.1 13.92 54.1 13.92 54.35 13.92 54.35 13.92 54.6 13.92 54.6 13.92 54.85 13.92 54.85 13.92 55.11 13.92 55.11 13.92 55.36 13.92 55.36 13.92 55.61 13.92 55.61 13.92 55.86 13.92 55.86 13.92 56.12 13.92 56.12 13.92 56.37 13.92 56.37 13.92 56.62 13.92 56.62 13.92 56.87 13.92 56.87 13.92 57.13 13.92 57.13 13.92 57.38 13.92 57.38 13.92 57.63 13.92 57.63 13.92 57.88 13.92 57.88 13.92 58.14 13.92 58.14 13.92 58.39 13.92 58.39 13.92 58.64 13.92 58.64 13.92 58.89 13.92 58.89 13.92 59.15 13.92 59.15 13.92 59.4 13.92 59.4 13.92 59.65 13.92 59.65 13.92 59.9 13.92 59.9 13.92 60.16 13.92 60.16 13.92 60.41 13.92 60.41 13.92 60.66 13.92 60.66 13.92 60.91 13.92 60.91 13.92 61.17 13.92 61.17 13.92 61.42 13.92 61.42 13.92 61.67 13.92 61.67 13.92 61.92 13.92 61.92 13.92 62.18 13.92 62.18 13.92 62.43 13.92 62.43 13.92 62.68 13.92 62.68 13.92 62.93 13.92 62.93 13.92 63.19 13.92 63.19 13.92 63.44 13.92 63.44 13.92 63.69 13.92 63.69 13.92 63.94 13.92 63.94 13.92 64.2 13.92 64.2 13.92 64.45 13.92 64.45 13.92 64.7 13.92 64.7 13.92 64.95 13.92 64.95 13.92 65.21 13.92 65.21 13.92 65.46 13.92 65.46 13.92 65.71 13.92 65.71 13.92 65.96 13.92 65.96 13.92 66.22 13.92 66.22 13.92 66.47 13.92 66.47 13.92 66.72 13.92 66.72 13.92 66.97 13.92 66.97 13.92 67.23 13.92 67.23 13.92 67.48 13.92 67.48 13.92 67.73 13.92 67.73 13.92 67.98 13.92 67.98 13.92 68.24 13.92 68.24 13.92 68.49 13.92 68.49 13.92 68.74 13.92 68.74 13.92 68.99 13.92 68.99 13.92 69.25 13.92 69.25 13.92 69.5 13.92 69.5 13.92 69.75 13.92 69.75 13.92 70 13.92 70 13.92 70.26 13.92 70.26 13.92 70.51 13.92 70.51 13.92 70.76 13.92 70.76 13.92 71.01 13.92 71.01 13.92 71.27 13.92 71.27 13.92 71.52 13.92 71.52 13.92 71.77 13.92 71.77 13.92 72.02 13.92 72.02 13.92 72.28 13.92 72.28 13.92 72.53 13.92 72.53 13.92 72.78 13.92 72.78 13.92 73.03 13.92 73.03 13.92 73.29 13.92 73.29 13.92 73.54 13.92 73.54 13.92 73.79 13.92 73.79 13.92 74.04 13.92 74.04 13.92 74.3 13.92 74.3 13.92 74.55 13.92 74.55 13.92 74.8 13.92 74.8 13.92 75.05 13.92 75.05 13.92 75.3 13.92 75.3 13.92 75.56 13.92 75.56 13.92 75.81 13.92 75.81 13.92 76.06 13.92 76.06 13.92 76.31 13.92 76.31 13.92 76.57 13.92 76.57 13.92 76.82 13.92 76.82 13.92 77.07 13.92 77.07 13.92 77.32 13.92 77.32 13.92 77.58 13.92 77.58 13.92 77.83 13.92 77.83 13.92 78.08 13.92 78.08 13.92 78.33 13.92 78.33 13.92 78.59 13.92 78.59 13.92 78.84 13.92 78.84 13.92 79.09 13.92 79.09 13.92 79.34 13.92 79.34 13.92 79.6 13.92 79.6 13.92 79.85 13.92 79.85 13.92 80.1 13.92 80.1 13.92 80.35 13.92 80.35 13.92 80.61 13.92 80.61 13.92 80.86 13.92 80.86 13.92 81.11 13.92 81.11 13.92 81.36 13.92 81.36 13.92 81.62 13.92 81.62 13.92 81.87 13.92 81.87 13.92 82.12 13.92 82.12 13.92 82.37 13.92 82.37 13.92 82.63 13.92 82.63 13.92 82.88 13.92 82.88 13.92 83.13 13.92 83.13 13.92 83.38 13.92 83.38 13.92 83.64 13.92 83.64 13.92 83.89 13.92 83.89 13.92 84.14 13.92 84.14 13.92 84.39 13.92 84.39 13.92 84.65 13.92 84.65 13.92 84.9 13.92 84.9 13.92 85.15 13.92 85.15 13.92 85.4 13.92 85.4 13.92 85.66 13.92 85.66 13.92 85.91 13.92 85.91 13.92 86.16 13.92 86.16 13.92 86.41 13.92 86.41 13.92 86.67 13.92 86.67 13.92 86.92 13.92 86.92 13.92 87.17 13.92 87.17 13.92 87.42 13.92 87.42 13.92 87.68 13.92 87.68 13.92 87.93 13.92 87.93 13.92 88.18 13.92 88.18 13.92 88.43 13.92 88.43 13.92 88.69 13.92 88.69 13.92 88.94 13.92 88.94 13.92 89.19 13.92 89.19 13.92 89.44 13.92 89.44 13.92 89.7 13.92 89.7 13.92 89.95 13.92 89.95 13.92 90.2 13.92 90.2 13.92 90.45 13.92 90.45 13.92 90.71 13.92 90.71 13.92 90.96 13.92 90.96 13.92 91.21 13.92 91.21 13.92 91.46 13.92 91.46 13.92 91.72 13.92 91.72 13.92 91.97 13.92 91.97 13.92 92.22 13.92 92.22 13.92 92.47 13.92 92.47 13.92 92.73 13.92 92.73 13.92 92.98 13.92 92.98 13.92 93.23 13.92 93.23 13.92 93.48 13.92 93.48 13.92 93.74 13.92 93.74 13.92 93.99 13.92 93.99 13.92 94.24 13.92 94.24 13.92 94.49 13.92 94.49 13.92 94.75 13.92 94.75 13.92 95 13.92 95 13.92 95.25 13.92 95.25 13.92 95.5 13.92 95.5 13.92 95.76 13.92 95.76 13.92 96.01 13.92 96.01 13.92 96.26 13.92 96.26 13.92 96.51 13.92 96.51 13.92 96.77 13.92 96.77 13.92 97.02 13.92 97.02 13.92 97.27 13.92 97.27 13.92 97.52 13.92 97.52 13.92 97.78 13.92 97.78 13.92 98.03 13.92 98.03 13.92 98.28 13.92 98.28 13.92 98.53 13.92 98.53 13.92 98.79 13.92 98.79 13.92 99.04 13.92 99.04 13.92 99.29 13.92 99.29 13.92 99.54 13.92 99.54 13.92 99.8 13.92 99.8 13.92 100.05 13.92 100.05 13.92 100.3 13.92 100.3 13.92 100.55 13.92 100.55 13.92 100.81 13.92 100.81 13.92" class="primitive"/>
            </g>
          </g>
        </g>
        <g stroke-width="0.3" fill="#000000" fill-opacity="0.000" class="geometry" id="img-6127a43e-35">
          <g class="color_RGB{Float64}(0.06274509803921569,0.3058823529411765,0.5450980392156862)" stroke-dasharray="none" stroke="#104E8B" id="img-6127a43e-36">
            <g transform="translate(122.67,42.86)" id="img-6127a43e-37">
              <path fill="none" d="M-100.93,17 L -100.68 17 -100.68 17 -100.43 17 -100.43 17 -100.18 17 -100.18 17 -99.92 17 -99.92 17 -99.67 17 -99.67 17 -99.42 17 -99.42 17 -99.17 17 -99.17 17 -98.91 17 -98.91 17 -98.66 17 -98.66 17 -98.41 17 -98.41 17 -98.16 17 -98.16 17 -97.9 17 -97.9 17 -97.65 17 -97.65 16.99 -97.4 16.99 -97.4 16.98 -97.15 16.98 -97.15 16.97 -96.89 16.97 -96.89 16.95 -96.64 16.95 -96.64 16.91 -96.39 16.91 -96.39 16.84 -96.14 16.84 -96.14 16.74 -95.88 16.74 -95.88 16.51 -95.63 16.51 -95.63 16.07 -95.38 16.07 -95.38 15.26 -95.13 15.26 -95.13 13.9 -94.87 13.9 -94.87 11.94 -94.62 11.94 -94.62 9.77 -94.37 9.77 -94.37 7.99 -94.12 7.99 -94.12 7.44 -93.86 7.44 -93.86 8.14 -93.61 8.14 -93.61 9.82 -93.36 9.82 -93.36 11.71 -93.11 11.71 -93.11 13.26 -92.85 13.26 -92.85 14.16 -92.6 14.16 -92.6 14.49 -92.35 14.49 -92.35 14.5 -92.1 14.5 -92.1 14.14 -91.84 14.14 -91.84 13.76 -91.59 13.76 -91.59 13.37 -91.34 13.37 -91.34 13.03 -91.09 13.03 -91.09 12.74 -90.83 12.74 -90.83 12.51 -90.58 12.51 -90.58 11.95 -90.33 11.95 -90.33 11.05 -90.08 11.05 -90.08 8.99 -89.82 8.99 -89.82 4.94 -89.57 4.94 -89.57 -3.47 -89.32 -3.47 -89.32 -19 -89.07 -19 -89.07 -45.27 -88.81 -45.27 -88.81 -85.31 -88.56 -85.31 -88.56 -136.92 -88.31 -136.92 -88.31 -190.01 -88.06 -190.01 -88.06 -228.8 -87.8 -228.8 -87.8 -238.53 -87.55 -238.53 -87.55 -215.05 -87.3 -215.05 -87.3 -166.14 -87.05 -166.14 -87.05 -109.13 -86.79 -109.13 -86.79 -59.82 -86.54 -59.82 -86.54 -24.55 -86.29 -24.55 -86.29 -3.68 -86.04 -3.68 -86.04 6.91 -85.78 6.91 -85.78 11.49 -85.53 11.49 -85.53 13.27 -85.28 13.27 -85.28 13.86 -85.03 13.86 -85.03 13.96 -84.77 13.96 -84.77 13.94 -84.52 13.94 -84.52 13.78 -84.27 13.78 -84.27 13.63 -84.02 13.63 -84.02 13.44 -83.76 13.44 -83.76 13.24 -83.51 13.24 -83.51 13.21 -83.26 13.21 -83.26 13.11 -83.01 13.11 -83.01 13.2 -82.75 13.2 -82.75 13.19 -82.5 13.19 -82.5 13.23 -82.25 13.23 -82.25 13.22 -82 13.22 -82 13.19 -81.74 13.19 -81.74 13.15 -81.49 13.15 -81.49 13 -81.24 13 -81.24 12.9 -80.99 12.9 -80.99 12.78 -80.73 12.78 -80.73 12.66 -80.48 12.66 -80.48 12.45 -80.23 12.45 -80.23 12.28 -79.98 12.28 -79.98 12.14 -79.72 12.14 -79.72 12.07 -79.47 12.07 -79.47 11.89 -79.22 11.89 -79.22 11.67 -78.97 11.67 -78.97 11.6 -78.71 11.6 -78.71 11.41 -78.46 11.41 -78.46 11.25 -78.21 11.25 -78.21 11.11 -77.96 11.11 -77.96 10.9 -77.7 10.9 -77.7 10.64 -77.45 10.64 -77.45 10.51 -77.2 10.51 -77.2 10.33 -76.95 10.33 -76.95 10.09 -76.69 10.09 -76.69 9.83 -76.44 9.83 -76.44 9.55 -76.19 9.55 -76.19 9.32 -75.94 9.32 -75.94 9.01 -75.68 9.01 -75.68 8.6 -75.43 8.6 -75.43 8.25 -75.18 8.25 -75.18 7.71 -74.93 7.71 -74.93 7.23 -74.67 7.23 -74.67 6.79 -74.42 6.79 -74.42 6.25 -74.17 6.25 -74.17 5.69 -73.92 5.69 -73.92 5.22 -73.66 5.22 -73.66 4.56 -73.41 4.56 -73.41 3.84 -73.16 3.84 -73.16 3.1 -72.91 3.1 -72.91 2.02 -72.65 2.02 -72.65 0.88 -72.4 0.88 -72.4 -0.8 -72.15 -0.8 -72.15 -3.71 -71.9 -3.71 -71.9 -8.84 -71.64 -8.84 -71.64 -19.22 -71.39 -19.22 -71.39 -41.16 -71.14 -41.16 -71.14 -83.74 -70.89 -83.74 -70.89 -159.09 -70.63 -159.09 -70.63 -279.9 -70.38 -279.9 -70.38 -450.3 -70.13 -450.3 -70.13 -656.98 -69.88 -656.98 -69.88 -869.57 -69.62 -869.57 -69.62 -1040.94 -69.37 -1040.94 -69.37 -1126.21 -69.12 -1126.21 -69.12 -1103.53 -68.87 -1103.53 -68.87 -977.95 -68.61 -977.95 -68.61 -787.76 -68.36 -787.76 -68.36 -575.02 -68.11 -575.02 -68.11 -383.55 -67.86 -383.55 -67.86 -232.47 -67.6 -232.47 -67.6 -127.97 -67.35 -127.97 -67.35 -62.9 -67.1 -62.9 -67.1 -25.9 -66.85 -25.9 -66.85 -6.24 -66.59 -6.24 -66.59 3.62 -66.34 3.62 -66.34 8.42 -66.09 8.42 -66.09 10.71 -65.84 10.71 -65.84 11.99 -65.58 11.99 -65.58 12.63 -65.33 12.63 -65.33 13.04 -65.08 13.04 -65.08 13.24 -64.83 13.24 -64.83 13.37 -64.57 13.37 -64.57 13.36 -64.32 13.36 -64.32 13.35 -64.07 13.35 -64.07 13.38 -63.82 13.38 -63.82 13.29 -63.56 13.29 -63.56 13.29 -63.31 13.29 -63.31 13.27 -63.06 13.27 -63.06 13.23 -62.81 13.23 -62.81 13.27 -62.55 13.27 -62.55 13.25 -62.3 13.25 -62.3 13.32 -62.05 13.32 -62.05 13.34 -61.8 13.34 -61.8 13.38 -61.54 13.38 -61.54 13.46 -61.29 13.46 -61.29 13.48 -61.04 13.48 -61.04 13.5 -60.79 13.5 -60.79 13.51 -60.53 13.51 -60.53 13.52 -60.28 13.52 -60.28 13.48 -60.03 13.48 -60.03 13.39 -59.78 13.39 -59.78 13.4 -59.52 13.4 -59.52 13.34 -59.27 13.34 -59.27 13.29 -59.02 13.29 -59.02 13.25 -58.77 13.25 -58.77 13.15 -58.51 13.15 -58.51 13.04 -58.26 13.04 -58.26 12.88 -58.01 12.88 -58.01 12.65 -57.76 12.65 -57.76 12.27 -57.5 12.27 -57.5 11.98 -57.25 11.98 -57.25 11.58 -57 11.58 -57 11.08 -56.75 11.08 -56.75 10.7 -56.49 10.7 -56.49 10.37 -56.24 10.37 -56.24 10.2 -55.99 10.2 -55.99 10.32 -55.74 10.32 -55.74 10.54 -55.48 10.54 -55.48 10.9 -55.23 10.9 -55.23 11.28 -54.98 11.28 -54.98 11.79 -54.73 11.79 -54.73 12.15 -54.47 12.15 -54.47 12.42 -54.22 12.42 -54.22 12.67 -53.97 12.67 -53.97 12.8 -53.72 12.8 -53.72 12.89 -53.46 12.89 -53.46 12.9 -53.21 12.9 -53.21 12.99 -52.96 12.99 -52.96 13.01 -52.71 13.01 -52.71 12.96 -52.45 12.96 -52.45 12.93 -52.2 12.93 -52.2 12.92 -51.95 12.92 -51.95 13.01 -51.7 13.01 -51.7 12.88 -51.44 12.88 -51.44 12.89 -51.19 12.89 -51.19 12.83 -50.94 12.83 -50.94 12.84 -50.69 12.84 -50.69 12.86 -50.43 12.86 -50.43 12.77 -50.18 12.77 -50.18 12.75 -49.93 12.75 -49.93 12.78 -49.68 12.78 -49.68 12.8 -49.42 12.8 -49.42 12.8 -49.17 12.8 -49.17 12.71 -48.92 12.71 -48.92 12.69 -48.67 12.69 -48.67 12.69 -48.41 12.69 -48.41 12.7 -48.16 12.7 -48.16 12.62 -47.91 12.62 -47.91 12.74 -47.66 12.74 -47.66 12.61 -47.4 12.61 -47.4 12.64 -47.15 12.64 -47.15 12.61 -46.9 12.61 -46.9 12.6 -46.65 12.6 -46.65 12.58 -46.39 12.58 -46.39 12.63 -46.14 12.63 -46.14 12.61 -45.89 12.61 -45.89 12.59 -45.64 12.59 -45.64 12.65 -45.38 12.65 -45.38 12.62 -45.13 12.62 -45.13 12.55 -44.88 12.55 -44.88 12.54 -44.63 12.54 -44.63 12.55 -44.37 12.55 -44.37 12.57 -44.12 12.57 -44.12 12.57 -43.87 12.57 -43.87 12.5 -43.62 12.5 -43.62 12.5 -43.37 12.5 -43.37 12.51 -43.11 12.51 -43.11 12.51 -42.86 12.51 -42.86 12.44 -42.61 12.44 -42.61 12.46 -42.36 12.46 -42.36 12.43 -42.1 12.43 -42.1 12.38 -41.85 12.38 -41.85 12.43 -41.6 12.43 -41.6 12.42 -41.35 12.42 -41.35 12.4 -41.09 12.4 -41.09 12.37 -40.84 12.37 -40.84 12.36 -40.59 12.36 -40.59 12.41 -40.34 12.41 -40.34 12.34 -40.08 12.34 -40.08 12.27 -39.83 12.27 -39.83 12.12 -39.58 12.12 -39.58 11.99 -39.33 11.99 -39.33 11.68 -39.07 11.68 -39.07 11.33 -38.82 11.33 -38.82 10.8 -38.57 10.8 -38.57 10.41 -38.32 10.41 -38.32 9.91 -38.06 9.91 -38.06 9.46 -37.81 9.46 -37.81 9.2 -37.56 9.2 -37.56 9.08 -37.31 9.08 -37.31 9.24 -37.05 9.24 -37.05 9.55 -36.8 9.55 -36.8 9.91 -36.55 9.91 -36.55 10.29 -36.3 10.29 -36.3 10.83 -36.04 10.83 -36.04 11.3 -35.79 11.3 -35.79 11.62 -35.54 11.62 -35.54 11.98 -35.29 11.98 -35.29 12.17 -35.03 12.17 -35.03 12.26 -34.78 12.26 -34.78 12.38 -34.53 12.38 -34.53 12.45 -34.28 12.45 -34.28 12.37 -34.02 12.37 -34.02 12.48 -33.77 12.48 -33.77 12.49 -33.52 12.49 -33.52 12.44 -33.27 12.44 -33.27 12.45 -33.01 12.45 -33.01 12.49 -32.76 12.49 -32.76 12.53 -32.51 12.53 -32.51 12.5 -32.26 12.5 -32.26 12.54 -32 12.54 -32 12.53 -31.75 12.53 -31.75 12.57 -31.5 12.57 -31.5 12.61 -31.25 12.61 -31.25 12.56 -30.99 12.56 -30.99 12.63 -30.74 12.63 -30.74 12.62 -30.49 12.62 -30.49 12.61 -30.24 12.61 -30.24 12.57 -29.98 12.57 -29.98 12.63 -29.73 12.63 -29.73 12.64 -29.48 12.64 -29.48 12.59 -29.23 12.59 -29.23 12.68 -28.97 12.68 -28.97 12.63 -28.72 12.63 -28.72 12.6 -28.47 12.6 -28.47 12.61 -28.22 12.61 -28.22 12.7 -27.96 12.7 -27.96 12.69 -27.71 12.69 -27.71 12.73 -27.46 12.73 -27.46 12.75 -27.21 12.75 -27.21 12.65 -26.95 12.65 -26.95 12.72 -26.7 12.72 -26.7 12.77 -26.45 12.77 -26.45 12.7 -26.2 12.7 -26.2 12.76 -25.94 12.76 -25.94 12.73 -25.69 12.73 -25.69 12.68 -25.44 12.68 -25.44 12.75 -25.19 12.75 -25.19 12.73 -24.93 12.73 -24.93 12.81 -24.68 12.81 -24.68 12.81 -24.43 12.81 -24.43 12.76 -24.18 12.76 -24.18 12.83 -23.92 12.83 -23.92 12.8 -23.67 12.8 -23.67 12.77 -23.42 12.77 -23.42 12.79 -23.17 12.79 -23.17 12.87 -22.91 12.87 -22.91 12.85 -22.66 12.85 -22.66 12.88 -22.41 12.88 -22.41 12.89 -22.16 12.89 -22.16 12.87 -21.9 12.87 -21.9 12.88 -21.65 12.88 -21.65 12.82 -21.4 12.82 -21.4 13.01 -21.15 13.01 -21.15 12.99 -20.89 12.99 -20.89 12.95 -20.64 12.95 -20.64 12.99 -20.39 12.99 -20.39 12.97 -20.14 12.97 -20.14 13.02 -19.88 13.02 -19.88 12.96 -19.63 12.96 -19.63 12.97 -19.38 12.97 -19.38 12.97 -19.13 12.97 -19.13 13.03 -18.87 13.03 -18.87 12.97 -18.62 12.97 -18.62 13.06 -18.37 13.06 -18.37 13.04 -18.12 13.04 -18.12 13 -17.86 13 -17.86 13.06 -17.61 13.06 -17.61 13.12 -17.36 13.12 -17.36 13.12 -17.11 13.12 -17.11 13.07 -16.85 13.07 -16.85 13.12 -16.6 13.12 -16.6 13.15 -16.35 13.15 -16.35 13.15 -16.1 13.15 -16.1 13.13 -15.84 13.13 -15.84 13.2 -15.59 13.2 -15.59 13.14 -15.34 13.14 -15.34 13.14 -15.09 13.14 -15.09 13.18 -14.83 13.18 -14.83 13.2 -14.58 13.2 -14.58 13.22 -14.33 13.22 -14.33 13.17 -14.08 13.17 -14.08 13.24 -13.82 13.24 -13.82 13.22 -13.57 13.22 -13.57 13.24 -13.32 13.24 -13.32 13.25 -13.07 13.25 -13.07 13.24 -12.81 13.24 -12.81 13.26 -12.56 13.26 -12.56 13.24 -12.31 13.24 -12.31 13.3 -12.06 13.3 -12.06 13.3 -11.8 13.3 -11.8 13.25 -11.55 13.25 -11.55 13.27 -11.3 13.27 -11.3 13.29 -11.05 13.29 -11.05 13.32 -10.79 13.32 -10.79 13.29 -10.54 13.29 -10.54 13.33 -10.29 13.33 -10.29 13.34 -10.04 13.34 -10.04 13.26 -9.78 13.26 -9.78 13.29 -9.53 13.29 -9.53 13.36 -9.28 13.36 -9.28 13.34 -9.03 13.34 -9.03 13.28 -8.77 13.28 -8.77 13.31 -8.52 13.31 -8.52 13.25 -8.27 13.25 -8.27 13.28 -8.02 13.28 -8.02 13.27 -7.76 13.27 -7.76 13.24 -7.51 13.24 -7.51 13.2 -7.26 13.2 -7.26 13.31 -7.01 13.31 -7.01 13.29 -6.75 13.29 -6.75 13.32 -6.5 13.32 -6.5 13.38 -6.25 13.38 -6.25 13.4 -6 13.4 -6 13.4 -5.74 13.4 -5.74 13.51 -5.49 13.51 -5.49 13.54 -5.24 13.54 -5.24 13.53 -4.99 13.53 -4.99 13.49 -4.73 13.49 -4.73 13.52 -4.48 13.52 -4.48 13.58 -4.23 13.58 -4.23 13.57 -3.98 13.57 -3.98 13.58 -3.72 13.58 -3.72 13.59 -3.47 13.59 -3.47 13.61 -3.22 13.61 -3.22 13.61 -2.97 13.61 -2.97 13.59 -2.71 13.59 -2.71 13.65 -2.46 13.65 -2.46 13.61 -2.21 13.61 -2.21 13.6 -1.96 13.6 -1.96 13.66 -1.7 13.66 -1.7 13.63 -1.45 13.63 -1.45 13.7 -1.2 13.7 -1.2 13.66 -0.95 13.66 -0.95 13.69 -0.69 13.69 -0.69 13.64 -0.44 13.64 -0.44 13.73 -0.19 13.73 -0.19 13.71 0.06 13.71 0.06 13.77 0.32 13.77 0.32 13.7 0.57 13.7 0.57 13.69 0.82 13.69 0.82 13.7 1.07 13.7 1.07 13.76 1.33 13.76 1.33 13.74 1.58 13.74 1.58 13.84 1.83 13.84 1.83 13.79 2.08 13.79 2.08 13.76 2.34 13.76 2.34 13.85 2.59 13.85 2.59 13.81 2.84 13.81 2.84 13.85 3.09 13.85 3.09 13.86 3.35 13.86 3.35 13.87 3.6 13.87 3.6 13.88 3.85 13.88 3.85 13.87 4.1 13.87 4.1 13.89 4.36 13.89 4.36 13.93 4.61 13.93 4.61 13.94 4.86 13.94 4.86 13.93 5.11 13.93 5.11 13.89 5.37 13.89 5.37 13.9 5.62 13.9 5.62 13.96 5.87 13.96 5.87 13.97 6.12 13.97 6.12 13.91 6.38 13.91 6.38 13.97 6.63 13.97 6.63 13.98 6.88 13.98 6.88 13.98 7.13 13.98 7.13 13.98 7.39 13.98 7.39 13.99 7.64 13.99 7.64 14 7.89 14 7.89 13.99 8.14 13.99 8.14 14.07 8.4 14.07 8.4 14.08 8.65 14.08 8.65 14.09 8.9 14.09 8.9 14.09 9.15 14.09 9.15 14.1 9.41 14.1 9.41 14.1 9.66 14.1 9.66 14.07 9.91 14.07 9.91 14.05 10.16 14.05 10.16 14.12 10.42 14.12 10.42 14.15 10.67 14.15 10.67 14.16 10.92 14.16 10.92 14.11 11.17 14.11 11.17 14.15 11.43 14.15 11.43 14.16 11.68 14.16 11.68 14.15 11.93 14.15 11.93 14.18 12.18 14.18 12.18 14.18 12.44 14.18 12.44 14.2 12.69 14.2 12.69 14.19 12.94 14.19 12.94 14.23 13.19 14.23 13.19 14.16 13.45 14.16 13.45 14.22 13.7 14.22 13.7 14.2 13.95 14.2 13.95 14.22 14.2 14.22 14.2 14.25 14.46 14.25 14.46 14.25 14.71 14.25 14.71 14.27 14.96 14.27 14.96 14.27 15.21 14.27 15.21 14.26 15.47 14.26 15.47 14.29 15.72 14.29 15.72 14.26 15.97 14.26 15.97 14.32 16.22 14.32 16.22 14.3 16.47 14.3 16.47 14.27 16.73 14.27 16.73 14.3 16.98 14.3 16.98 14.3 17.23 14.3 17.23 14.33 17.48 14.33 17.48 14.31 17.74 14.31 17.74 14.31 17.99 14.31 17.99 14.36 18.24 14.36 18.24 14.4 18.49 14.4 18.49 14.34 18.75 14.34 18.75 14.42 19 14.42 19 14.39 19.25 14.39 19.25 14.39 19.5 14.39 19.5 14.38 19.76 14.38 19.76 14.42 20.01 14.42 20.01 14.36 20.26 14.36 20.26 14.42 20.51 14.42 20.51 14.41 20.77 14.41 20.77 14.44 21.02 14.44 21.02 14.47 21.27 14.47 21.27 14.47 21.52 14.47 21.52 14.45 21.78 14.45 21.78 14.45 22.03 14.45 22.03 14.46 22.28 14.46 22.28 14.49 22.53 14.49 22.53 14.48 22.79 14.48 22.79 14.5 23.04 14.5 23.04 14.47 23.29 14.47 23.29 14.51 23.54 14.51 23.54 14.49 23.8 14.49 23.8 14.45 24.05 14.45 24.05 14.49 24.3 14.49 24.3 14.51 24.55 14.51 24.55 14.48 24.81 14.48 24.81 14.49 25.06 14.49 25.06 14.53 25.31 14.53 25.31 14.59 25.56 14.59 25.56 14.55 25.82 14.55 25.82 14.54 26.07 14.54 26.07 14.58 26.32 14.58 26.32 14.61 26.57 14.61 26.57 14.58 26.83 14.58 26.83 14.6 27.08 14.6 27.08 14.58 27.33 14.58 27.33 14.61 27.58 14.61 27.58 14.59 27.84 14.59 27.84 14.61 28.09 14.61 28.09 14.64 28.34 14.64 28.34 14.59 28.59 14.59 28.59 14.61 28.85 14.61 28.85 14.67 29.1 14.67 29.1 14.66 29.35 14.66 29.35 14.64 29.6 14.64 29.6 14.65 29.86 14.65 29.86 14.62 30.11 14.62 30.11 14.67 30.36 14.67 30.36 14.65 30.61 14.65 30.61 14.69 30.87 14.69 30.87 14.71 31.12 14.71 31.12 14.75 31.37 14.75 31.37 14.73 31.62 14.73 31.62 14.74 31.88 14.74 31.88 14.78 32.13 14.78 32.13 14.73 32.38 14.73 32.38 14.75 32.63 14.75 32.63 14.74 32.89 14.74 32.89 14.77 33.14 14.77 33.14 14.7 33.39 14.7 33.39 14.79 33.64 14.79 33.64 14.74 33.9 14.74 33.9 14.8 34.15 14.8 34.15 14.77 34.4 14.77 34.4 14.73 34.65 14.73 34.65 14.73 34.91 14.73 34.91 14.74 35.16 14.74 35.16 14.76 35.41 14.76 35.41 14.82 35.66 14.82 35.66 14.73 35.92 14.73 35.92 14.81 36.17 14.81 36.17 14.74 36.42 14.74 36.42 14.81 36.67 14.81 36.67 14.81 36.93 14.81 36.93 14.78 37.18 14.78 37.18 14.82 37.43 14.82 37.43 14.83 37.68 14.83 37.68 14.86 37.94 14.86 37.94 14.85 38.19 14.85 38.19 14.87 38.44 14.87 38.44 14.91 38.69 14.91 38.69 14.88 38.95 14.88 38.95 14.91 39.2 14.91 39.2 14.96 39.45 14.96 39.45 14.89 39.7 14.89 39.7 14.9 39.96 14.9 39.96 14.95 40.21 14.95 40.21 14.95 40.46 14.95 40.46 14.95 40.71 14.95 40.71 14.94 40.97 14.94 40.97 14.97 41.22 14.97 41.22 14.99 41.47 14.99 41.47 14.99 41.72 14.99 41.72 14.92 41.98 14.92 41.98 14.97 42.23 14.97 42.23 14.99 42.48 14.99 42.48 14.97 42.73 14.97 42.73 15.01 42.99 15.01 42.99 15.01 43.24 15.01 43.24 14.99 43.49 14.99 43.49 15.03 43.74 15.03 43.74 15 44 15 44 15.02 44.25 15.02 44.25 15.02 44.5 15.02 44.5 15.02 44.75 15.02 44.75 15 45.01 15 45.01 15.03 45.26 15.03 45.26 15.03 45.51 15.03 45.51 15.06 45.76 15.06 45.76 15.08 46.02 15.08 46.02 15.07 46.27 15.07 46.27 15.05 46.52 15.05 46.52 15.1 46.77 15.1 46.77 15.06 47.03 15.06 47.03 15.08 47.28 15.08 47.28 15.03 47.53 15.03 47.53 15.11 47.78 15.11 47.78 15.1 48.04 15.1 48.04 15.11 48.29 15.11 48.29 15.11 48.54 15.11 48.54 15.1 48.79 15.1 48.79 15.08 49.05 15.08 49.05 15.13 49.3 15.13 49.3 15.14 49.55 15.14 49.55 15.12 49.8 15.12 49.8 15.11 50.06 15.11 50.06 15.16 50.31 15.16 50.31 15.11 50.56 15.11 50.56 15.17 50.81 15.17 50.81 15.16 51.07 15.16 51.07 15.19 51.32 15.19 51.32 15.18 51.57 15.18 51.57 15.16 51.82 15.16 51.82 15.19 52.08 15.19 52.08 15.19 52.33 15.19 52.33 15.23 52.58 15.23 52.58 15.23 52.83 15.23 52.83 15.18 53.09 15.18 53.09 15.19 53.34 15.19 53.34 15.22 53.59 15.22 53.59 15.25 53.84 15.25 53.84 15.21 54.1 15.21 54.1 15.21 54.35 15.21 54.35 15.25 54.6 15.25 54.6 15.23 54.85 15.23 54.85 15.22 55.11 15.22 55.11 15.24 55.36 15.24 55.36 15.23 55.61 15.23 55.61 15.27 55.86 15.27 55.86 15.24 56.12 15.24 56.12 15.26 56.37 15.26 56.37 15.26 56.62 15.26 56.62 15.29 56.87 15.29 56.87 15.24 57.13 15.24 57.13 15.29 57.38 15.29 57.38 15.28 57.63 15.28 57.63 15.22 57.88 15.22 57.88 15.25 58.14 15.25 58.14 15.25 58.39 15.25 58.39 15.21 58.64 15.21 58.64 15.26 58.89 15.26 58.89 15.21 59.15 15.21 59.15 15.21 59.4 15.21 59.4 15.19 59.65 15.19 59.65 15.2 59.9 15.2 59.9 15.15 60.16 15.15 60.16 15.21 60.41 15.21 60.41 15.18 60.66 15.18 60.66 15.2 60.91 15.2 60.91 15.19 61.17 15.19 61.17 15.17 61.42 15.17 61.42 15.21 61.67 15.21 61.67 15.25 61.92 15.25 61.92 15.28 62.18 15.28 62.18 15.27 62.43 15.27 62.43 15.27 62.68 15.27 62.68 15.34 62.93 15.34 62.93 15.33 63.19 15.33 63.19 15.33 63.44 15.33 63.44 15.4 63.69 15.4 63.69 15.38 63.94 15.38 63.94 15.37 64.2 15.37 64.2 15.39 64.45 15.39 64.45 15.41 64.7 15.41 64.7 15.4 64.95 15.4 64.95 15.41 65.21 15.41 65.21 15.42 65.46 15.42 65.46 15.44 65.71 15.44 65.71 15.44 65.96 15.44 65.96 15.43 66.22 15.43 66.22 15.42 66.47 15.42 66.47 15.46 66.72 15.46 66.72 15.43 66.97 15.43 66.97 15.47 67.23 15.47 67.23 15.45 67.48 15.45 67.48 15.46 67.73 15.46 67.73 15.43 67.98 15.43 67.98 15.52 68.24 15.52 68.24 15.46 68.49 15.46 68.49 15.48 68.74 15.48 68.74 15.47 68.99 15.47 68.99 15.46 69.25 15.46 69.25 15.49 69.5 15.49 69.5 15.49 69.75 15.49 69.75 15.5 70 15.5 70 15.51 70.26 15.51 70.26 15.48 70.51 15.48 70.51 15.51 70.76 15.51 70.76 15.5 71.01 15.5 71.01 15.53 71.27 15.53 71.27 15.54 71.52 15.54 71.52 15.53 71.77 15.53 71.77 15.53 72.02 15.53 72.02 15.57 72.28 15.57 72.28 15.53 72.53 15.53 72.53 15.54 72.78 15.54 72.78 15.52 73.03 15.52 73.03 15.54 73.29 15.54 73.29 15.55 73.54 15.55 73.54 15.55 73.79 15.55 73.79 15.55 74.04 15.55 74.04 15.55 74.3 15.55 74.3 15.55 74.55 15.55 74.55 15.56 74.8 15.56 74.8 15.59 75.05 15.59 75.05 15.56 75.3 15.56 75.3 15.58 75.56 15.58 75.56 15.56 75.81 15.56 75.81 15.58 76.06 15.58 76.06 15.56 76.31 15.56 76.31 15.6 76.57 15.6 76.57 15.56 76.82 15.56 76.82 15.57 77.07 15.57 77.07 15.57 77.32 15.57 77.32 15.58 77.58 15.58 77.58 15.59 77.83 15.59 77.83 15.62 78.08 15.62 78.08 15.59 78.33 15.59 78.33 15.62 78.59 15.62 78.59 15.61 78.84 15.61 78.84 15.58 79.09 15.58 79.09 15.64 79.34 15.64 79.34 15.65 79.6 15.65 79.6 15.64 79.85 15.64 79.85 15.64 80.1 15.64 80.1 15.67 80.35 15.67 80.35 15.64 80.61 15.64 80.61 15.67 80.86 15.67 80.86 15.7 81.11 15.7 81.11 15.69 81.36 15.69 81.36 15.64 81.62 15.64 81.62 15.65 81.87 15.65 81.87 15.69 82.12 15.69 82.12 15.69 82.37 15.69 82.37 15.68 82.63 15.68 82.63 15.65 82.88 15.65 82.88 15.68 83.13 15.68 83.13 15.68 83.38 15.68 83.38 15.69 83.64 15.69 83.64 15.72 83.89 15.72 83.89 15.69 84.14 15.69 84.14 15.69 84.39 15.69 84.39 15.69 84.65 15.69 84.65 15.71 84.9 15.71 84.9 15.7 85.15 15.7 85.15 15.74 85.4 15.74 85.4 15.73 85.66 15.73 85.66 15.72 85.91 15.72 85.91 15.69 86.16 15.69 86.16 15.68 86.41 15.68 86.41 15.7 86.67 15.7 86.67 15.72 86.92 15.72 86.92 15.71 87.17 15.71 87.17 15.71 87.42 15.71 87.42 15.69 87.68 15.69 87.68 15.72 87.93 15.72 87.93 15.67 88.18 15.67 88.18 15.75 88.43 15.75 88.43 15.73 88.69 15.73 88.69 15.73 88.94 15.73 88.94 15.74 89.19 15.74 89.19 15.75 89.44 15.75 89.44 15.75 89.7 15.75 89.7 15.75 89.95 15.75 89.95 15.76 90.2 15.76 90.2 15.74 90.45 15.74 90.45 15.78 90.71 15.78 90.71 15.76 90.96 15.76 90.96 15.77 91.21 15.77 91.21 15.8 91.46 15.8 91.46 15.78 91.72 15.78 91.72 15.77 91.97 15.77 91.97 15.81 92.22 15.81 92.22 15.79 92.47 15.79 92.47 15.82 92.73 15.82 92.73 15.8 92.98 15.8 92.98 15.8 93.23 15.8 93.23 15.8 93.48 15.8 93.48 15.8 93.74 15.8 93.74 15.83 93.99 15.83 93.99 15.83 94.24 15.83 94.24 15.81 94.49 15.81 94.49 15.84 94.75 15.84 94.75 15.82 95 15.82 95 15.8 95.25 15.8 95.25 15.85 95.5 15.85 95.5 15.83 95.76 15.83 95.76 15.84 96.01 15.84 96.01 15.85 96.26 15.85 96.26 15.86 96.51 15.86 96.51 15.85 96.77 15.85 96.77 15.91 97.02 15.91 97.02 15.85 97.27 15.85 97.27 15.85 97.52 15.85 97.52 15.9 97.78 15.9 97.78 15.84 98.03 15.84 98.03 15.91 98.28 15.91 98.28 15.88 98.53 15.88 98.53 15.84 98.79 15.84 98.79 15.88 99.04 15.88 99.04 15.87 99.29 15.87 99.29 15.93 99.54 15.93 99.54 15.9 99.8 15.9 99.8 15.88 100.05 15.88 100.05 15.89 100.3 15.89 100.3 15.9 100.55 15.9 100.55 15.91 100.81 15.91 100.81 15.87" class="primitive"/>
            </g>
          </g>
        </g>
      </g>
    </g>
  </g>
  <g class="guide ylabels" font-size="2.82" font-family="'PT Sans Caption','Helvetica Neue','Helvetica',sans-serif" fill="#6C606B" id="img-6127a43e-38">
    <g transform="translate(18.7,59.87)" id="img-6127a43e-39">
      <g class="primitive">
        <text text-anchor="end" dy="0.35em">0</text>
      </g>
    </g>
    <g transform="translate(18.7,45.86)" id="img-6127a43e-40">
      <g class="primitive">
        <text text-anchor="end" dy="0.35em">50000</text>
      </g>
    </g>
    <g transform="translate(18.7,31.86)" id="img-6127a43e-41">
      <g class="primitive">
        <text text-anchor="end" dy="0.35em">100000</text>
      </g>
    </g>
    <g transform="translate(18.7,17.85)" id="img-6127a43e-42">
      <g class="primitive">
        <text text-anchor="end" dy="0.35em">150000</text>
      </g>
    </g>
    <g transform="translate(18.7,3.85)" id="img-6127a43e-43">
      <g class="primitive">
        <text text-anchor="end" dy="0.35em">200000</text>
      </g>
    </g>
  </g>
  <g font-size="3.18" font-family="'PT Sans','Helvetica Neue','Helvetica',sans-serif" fill="#202020" stroke="#000000" stroke-opacity="0.000" id="img-6127a43e-44">
    <g transform="translate(4.18,29.29)" id="img-6127a43e-45">
      <g class="primitive">
        <text text-anchor="middle" dy="0.35em" transform="rotate(-90,0, 2)">Counts</text>
      </g>
    </g>
  </g>
</g>
<defs>
  <clipPath id="img-6127a43e-15">
    <path d="M19.7,0.71 L 225.72 0.71 225.72 61.87 19.7 61.87" />
  </clipPath>
</defs>
</svg>
