<?xml version="1.0" encoding="UTF-8"?>
<svg xmlns="http://www.w3.org/2000/svg"
     xmlns:xlink="http://www.w3.org/1999/xlink"
     xmlns:gadfly="http://www.gadflyjl.org/ns"
     version="1.2"
     width="254mm" height="76.2mm" viewBox="0 0 254 76.2"
     stroke="none"
     fill="#000000"
     stroke-width="0.3"
     font-size="3.88"
>
<defs>
  <marker id="arrow" markerWidth="15" markerHeight="7" refX="5" refY="3.5" orient="auto" markerUnits="strokeWidth">
    <path d="M0,0 L15,3.5 L0,7 z" stroke="context-stroke" fill="context-stroke"/>
  </marker>
</defs>
<g class="plotroot xscalable yscalable" id="img-de78793b-1">
  <g font-size="3.18" font-family="'PT Sans','Helvetica Neue','Helvetica',sans-serif" fill="#202020" stroke="#000000" stroke-opacity="0.000" id="img-de78793b-2">
    <g transform="translate(116.87,69.54)">
      <g class="primitive">
        <text text-anchor="middle" dy="0.6em">Energy (eV)</text>
      </g>
    </g>
  </g>
  <g class="guide xlabels" font-size="2.82" font-family="'PT Sans Caption','Helvetica Neue','Helvetica',sans-serif" fill="#6C606B" id="img-de78793b-3">
    <g transform="translate(20.03,62.87)">
      <g class="primitive">
        <text text-anchor="middle" dy="0.6em">0</text>
      </g>
    </g>
    <g transform="translate(68.45,62.87)">
      <g class="primitive">
        <text text-anchor="middle" dy="0.6em">2000</text>
      </g>
    </g>
    <g transform="translate(116.87,62.87)">
      <g class="primitive">
        <text text-anchor="middle" dy="0.6em">4000</text>
      </g>
    </g>
    <g transform="translate(165.29,62.87)">
      <g class="primitive">
        <text text-anchor="middle" dy="0.6em">6000</text>
      </g>
    </g>
    <g transform="translate(213.71,62.87)">
      <g class="primitive">
        <text text-anchor="middle" dy="0.6em">8000</text>
      </g>
    </g>
  </g>
  <g class="guide colorkey" id="img-de78793b-4">
    <g fill="#4C404B" font-size="2.82" font-family="'PT Sans','Helvetica Neue','Helvetica',sans-serif" id="img-de78793b-5">
      <g transform="translate(220.33,31.7)" id="img-de78793b-6">
        <g class="primitive">
          <text dy="0.35em">III-E K412[0][all]</text>
        </g>
      </g>
      <g transform="translate(220.33,35.33)" id="img-de78793b-7">
        <g class="primitive">
          <text dy="0.35em">CharOnly[III-E K412[0][all]]</text>
        </g>
      </g>
    </g>
    <g stroke-width="0.3" id="img-de78793b-8">
      <g stroke="#FFFFFF" fill-opacity="1" fill="#B70002" id="img-de78793b-9">
        <g transform="translate(217.52,35.33)" id="img-de78793b-10">
          <circle cx="0" cy="0" r="0.9" class="primitive"/>
        </g>
      </g>
      <g stroke="#FFFFFF" fill-opacity="1" fill="#104E8B" id="img-de78793b-11">
        <g transform="translate(217.52,31.7)" id="img-de78793b-12">
          <circle cx="0" cy="0" r="0.9" class="primitive"/>
        </g>
      </g>
    </g>
    <g fill="#362A35" font-size="3.18" font-family="'PT Sans','Helvetica Neue','Helvetica',sans-serif" stroke="#000000" stroke-opacity="0.000" id="img-de78793b-13">
      <g transform="translate(216.71,28.39)" id="img-de78793b-14">
        <g class="primitive">
          <text dy="-0em">Spectra</text>
        </g>
      </g>
    </g>
  </g>
  <g clip-path="url(#img-de78793b-15)">
    <g id="img-de78793b-16">
      <g pointer-events="visible" stroke-width="0.3" fill="#FDFDF1" stroke="#202020" class="guide background" id="img-de78793b-17">
        <g transform="translate(116.87,31.29)" id="img-de78793b-18">
          <path d="M-98.84,-30.58 L98.84,-30.58 98.84,30.58 -98.84,30.58  z" class="primitive"/>
        </g>
      </g>
      <g class="guide ygridlines xfixed" stroke-dasharray="none" stroke-width="0.2" stroke="#FFDFDF" id="img-de78793b-19">
        <g transform="translate(116.87,59.87)" id="img-de78793b-20">
          <path fill="none" d="M-98.84,0 L98.84,0 " class="primitive"/>
        </g>
        <g transform="translate(116.87,35.3)" id="img-de78793b-21">
          <path fill="none" d="M-98.84,0 L98.84,0 " class="primitive"/>
        </g>
        <g transform="translate(116.87,10.73)" id="img-de78793b-22">
          <path fill="none" d="M-98.84,0 L98.84,0 " class="primitive"/>
        </g>
      </g>
      <g class="guide xgridlines yfixed" stroke-dasharray="none" stroke-width="0.2" stroke="#FFDFDF" id="img-de78793b-23">
        <g transform="translate(20.03,31.29)" id="img-de78793b-24">
          <path fill="none" d="M0,-30.58 L0,30.58 " class="primitive"/>
        </g>
        <g transform="translate(68.45,31.29)" id="img-de78793b-25">
          <path fill="none" d="M0,-30.58 L0,30.58 " class="primitive"/>
        </g>
        <g transform="translate(116.87,31.29)" id="img-de78793b-26">
          <path fill="none" d="M0,-30.58 L0,30.58 " class="primitive"/>
        </g>
        <g transform="translate(165.29,31.29)" id="img-de78793b-27">
          <path fill="none" d="M0,-30.58 L0,30.58 " class="primitive"/>
        </g>
        <g transform="translate(213.71,31.29)" id="img-de78793b-28">
          <path fill="none" d="M0,-30.58 L0,30.58 " class="primitive"/>
        </g>
      </g>
      <g class="plotpanel" id="img-de78793b-29">
        <metadata>
          <boundingbox value="18.027222222222242mm 0.7055555555555555mm 197.68055555555554mm 61.16055555555556mm"/>
          <unitbox value="-82.61025457153102 12040.184182468487 8165.2205091430615 -12447.218364936973"/>
        </metadata>
        <g stroke-width="0.3" fill="#000000" fill-opacity="0.000" class="geometry" id="img-de78793b-30">
          <g class="color_RGB{N0f8}(0.718,0.0,0.008)" stroke-dasharray="none" stroke="#B70002" id="img-de78793b-31">
            <g transform="translate(116.83,24.73)" id="img-de78793b-32">
              <path fill="none" d="M-96.77,35.14 L-96.52,35.14 -96.52,35.14 -96.28,35.14 -96.28,35.14 -96.04,35.14 -96.04,35.14 -95.8,35.14 -95.8,35.14 -95.56,35.14 -95.56,35.14 -95.31,35.14 -95.31,35.14 -95.07,35.14 -95.07,35.14 -94.83,35.14 -94.83,35.14 -94.59,35.14 -94.59,35.13 -94.35,35.13 -94.35,35.14 -94.1,35.14 -94.1,35.12 -93.86,35.12 -93.86,35.12 -93.62,35.12 -93.62,35.11 -93.38,35.11 -93.38,35.1 -93.13,35.1 -93.13,35.07 -92.89,35.07 -92.89,35 -92.65,35 -92.65,34.89 -92.41,34.89 -92.41,34.72 -92.17,34.72 -92.17,34.31 -91.92,34.31 -91.92,33.66 -91.68,33.66 -91.68,32.33 -91.44,32.33 -91.44,29.79 -91.2,29.79 -91.2,25.44 -90.96,25.44 -90.96,18.72 -90.71,18.72 -90.71,12.03 -90.47,12.03 -90.47,6.28 -90.23,6.28 -90.23,4.3 -89.99,4.3 -89.99,7.58 -89.75,7.58 -89.75,14.34 -89.5,14.34 -89.5,22.26 -89.26,22.26 -89.26,27.82 -89.02,27.82 -89.02,32.28 -88.78,32.28 -88.78,34.4 -88.54,34.4 -88.54,35.15 -88.29,35.15 -88.29,35.72 -88.05,35.72 -88.05,36.03 -87.81,36.03 -87.81,36.99 -87.57,36.99 -87.57,36.83 -87.33,36.83 -87.33,37.55 -87.08,37.55 -87.08,37.38 -86.84,37.38 -86.84,36.95 -86.6,36.95 -86.6,34.92 -86.36,34.92 -86.36,30.72 -86.11,30.72 -86.11,19.99 -85.87,19.99 -85.87,-0.86 -85.63,-0.86 -85.63,-38.54 -85.39,-38.54 -85.39,-103.56 -85.15,-103.56 -85.15,-203.56 -84.9,-203.56 -84.9,-328.15 -84.66,-328.15 -84.66,-458.9 -84.42,-458.9 -84.42,-553.79 -84.18,-553.79 -84.18,-573.2 -83.94,-573.2 -83.94,-515.13 -83.69,-515.13 -83.69,-399.3 -83.45,-399.3 -83.45,-262.04 -83.21,-262.04 -83.21,-142.49 -82.97,-142.49 -82.97,-56.08 -82.73,-56.08 -82.73,-7.95 -82.48,-7.95 -82.48,16.73 -82.24,16.73 -82.24,28.37 -82,28.37 -82,32.37 -81.76,32.37 -81.76,34.24 -81.52,34.24 -81.52,35.26 -81.27,35.26 -81.27,34.14 -81.03,34.14 -81.03,32.5 -80.79,32.5 -80.79,29.25 -80.55,29.25 -80.55,23.86 -80.31,23.86 -80.31,17.65 -80.06,17.65 -80.06,11.15 -79.82,11.15 -79.82,7.54 -79.58,7.54 -79.58,7.16 -79.34,7.16 -79.34,9.57 -79.09,9.57 -79.09,15.7 -78.85,15.7 -78.85,21.59 -78.61,21.59 -78.61,26.17 -78.37,26.17 -78.37,29.85 -78.13,29.85 -78.13,32.38 -77.88,32.38 -77.88,32.95 -77.64,32.95 -77.64,33.11 -77.4,33.11 -77.4,33.71 -77.16,33.71 -77.16,34.07 -76.92,34.07 -76.92,34.29 -76.67,34.29 -76.67,33.77 -76.43,33.77 -76.43,34.17 -76.19,34.17 -76.19,33.87 -75.95,33.87 -75.95,33.51 -75.71,33.51 -75.71,34.24 -75.46,34.24 -75.46,34.15 -75.22,34.15 -75.22,33.67 -74.98,33.67 -74.98,34.05 -74.74,34.05 -74.74,34.53 -74.5,34.53 -74.5,34.14 -74.25,34.14 -74.25,34.05 -74.01,34.05 -74.01,33.66 -73.77,33.66 -73.77,33.92 -73.53,33.92 -73.53,32.9 -73.29,32.9 -73.29,33.73 -73.04,33.73 -73.04,33.26 -72.8,33.26 -72.8,32.61 -72.56,32.61 -72.56,32.46 -72.32,32.46 -72.32,31.49 -72.08,31.49 -72.08,30.74 -71.83,30.74 -71.83,30.9 -71.59,30.9 -71.59,31.15 -71.35,31.15 -71.35,31.24 -71.11,31.24 -71.11,30.26 -70.86,30.26 -70.86,30.57 -70.62,30.57 -70.62,30.26 -70.38,30.26 -70.38,31.21 -70.14,31.21 -70.14,30.36 -69.9,30.36 -69.9,30.02 -69.65,30.02 -69.65,30.11 -69.41,30.11 -69.41,29.52 -69.17,29.52 -69.17,27.49 -68.93,27.49 -68.93,25.3 -68.69,25.3 -68.69,19.84 -68.44,19.84 -68.44,8.22 -68.2,8.22 -68.2,-14.31 -67.96,-14.31 -67.96,-51.79 -67.72,-51.79 -67.72,-115.22 -67.48,-115.22 -67.48,-202.74 -67.23,-202.74 -67.23,-312.64 -66.99,-312.64 -66.99,-422.42 -66.75,-422.42 -66.75,-510.63 -66.51,-510.63 -66.51,-555.8 -66.27,-555.8 -66.27,-544.01 -66.02,-544.01 -66.02,-482.29 -65.78,-482.29 -65.78,-383.58 -65.54,-383.58 -65.54,-274.25 -65.3,-274.25 -65.3,-174.64 -65.06,-174.64 -65.06,-97.91 -64.81,-97.91 -64.81,-41.72 -64.57,-41.72 -64.57,-8.69 -64.33,-8.69 -64.33,11.8 -64.09,11.8 -64.09,21.2 -63.84,21.2 -63.84,26.33 -63.6,26.33 -63.6,27.44 -63.36,27.44 -63.36,28.41 -63.12,28.41 -63.12,26.38 -62.88,26.38 -62.88,22.23 -62.63,22.23 -62.63,14.43 -62.39,14.43 -62.39,-1.5 -62.15,-1.5 -62.15,-26.06 -61.91,-26.06 -61.91,-61.19 -61.67,-61.19 -61.67,-103.41 -61.42,-103.41 -61.42,-149.37 -61.18,-149.37 -61.18,-187.77 -60.94,-187.77 -60.94,-211.44 -60.7,-211.44 -60.7,-215.21 -60.46,-215.21 -60.46,-198.77 -60.21,-198.77 -60.21,-161.82 -59.97,-161.82 -59.97,-120.39 -59.73,-120.39 -59.73,-77.63 -59.49,-77.63 -59.49,-42.82 -59.25,-42.82 -59.25,-15.2 -59,-15.2 -59,0.54 -58.76,0.54 -58.76,12.55 -58.52,12.55 -58.52,19.78 -58.28,19.78 -58.28,22.62 -58.04,22.62 -58.04,25.39 -57.79,25.39 -57.79,26.98 -57.55,26.98 -57.55,24.38 -57.31,24.38 -57.31,20.67 -57.07,20.67 -57.07,10.49 -56.82,10.49 -56.82,-10 -56.58,-10 -56.58,-48.02 -56.34,-48.02 -56.34,-118.4 -56.1,-118.4 -56.1,-220.18 -55.86,-220.18 -55.86,-365.39 -55.61,-365.39 -55.61,-545.81 -55.37,-545.81 -55.37,-738.3 -55.13,-738.3 -55.13,-908.36 -54.89,-908.36 -54.89,-1044.37 -54.65,-1044.37 -54.65,-1084.52 -54.4,-1084.52 -54.4,-1034.92 -54.16,-1034.92 -54.16,-907.6 -53.92,-907.6 -53.92,-734.15 -53.68,-734.15 -53.68,-552.16 -53.44,-552.16 -53.44,-385.08 -53.19,-385.08 -53.19,-251.65 -52.95,-251.65 -52.95,-153.8 -52.71,-153.8 -52.71,-90.15 -52.47,-90.15 -52.47,-51.87 -52.23,-51.87 -52.23,-28.95 -51.98,-28.95 -51.98,-13.31 -51.74,-13.31 -51.74,-1.24 -51.5,-1.24 -51.5,9.01 -51.26,9.01 -51.26,16.45 -51.02,16.45 -51.02,22.49 -50.77,22.49 -50.77,26.14 -50.53,26.14 -50.53,27.67 -50.29,27.67 -50.29,28.8 -50.05,28.8 -50.05,30.57 -49.81,30.57 -49.81,31.35 -49.56,31.35 -49.56,31 -49.32,31 -49.32,31.56 -49.08,31.56 -49.08,32.19 -48.84,32.19 -48.84,32.73 -48.59,32.73 -48.59,32.8 -48.35,32.8 -48.35,33.58 -48.11,33.58 -48.11,34.43 -47.87,34.43 -47.87,34.21 -47.63,34.21 -47.63,35.37 -47.38,35.37 -47.38,35.52 -47.14,35.52 -47.14,35.5 -46.9,35.5 -46.9,35.36 -46.66,35.36 -46.66,35.69 -46.42,35.69 -46.42,36 -46.17,36 -46.17,35.42 -45.93,35.42 -45.93,35.46 -45.69,35.46 -45.69,35.72 -45.45,35.72 -45.45,35.69 -45.21,35.69 -45.21,36.46 -44.96,36.46 -44.96,35.14 -44.72,35.14 -44.72,35.72 -44.48,35.72 -44.48,35.31 -44.24,35.31 -44.24,35.14 -44,35.14 -44,35.14 -43.75,35.14 -43.75,35.14 -43.51,35.14 -43.51,35.14 -43.27,35.14 -43.27,35.14 -43.03,35.14 -43.03,35.14 -42.79,35.14 -42.79,35.14 -42.54,35.14 -42.54,35.14 -42.3,35.14 -42.3,35.14 -42.06,35.14 -42.06,35.14 -41.82,35.14 -41.82,35.14 -41.57,35.14 -41.57,35.14 -41.33,35.14 -41.33,35.14 -41.09,35.14 -41.09,35.14 -40.85,35.14 -40.85,35.14 -40.61,35.14 -40.61,35.14 -40.36,35.14 -40.36,35.14 -40.12,35.14 -40.12,35.14 -39.88,35.14 -39.88,35.14 -39.64,35.14 -39.64,35.14 -39.4,35.14 -39.4,35.14 -39.15,35.14 -39.15,35.14 -38.91,35.14 -38.91,35.14 -38.67,35.14 -38.67,35.14 -38.43,35.14 -38.43,35.14 -38.19,35.14 -38.19,35.14 -37.94,35.14 -37.94,35.14 -37.7,35.14 -37.7,35.14 -37.46,35.14 -37.46,35.14 -37.22,35.14 -37.22,35.14 -36.98,35.14 -36.98,35.14 -36.73,35.14 -36.73,35.14 -36.49,35.14 -36.49,35.14 -36.25,35.14 -36.25,35.14 -36.01,35.14 -36.01,35.14 -35.77,35.14 -35.77,35.14 -35.52,35.14 -35.52,35.14 -35.28,35.14 -35.28,35.14 -35.04,35.14 -35.04,35.14 -34.8,35.14 -34.8,35.14 -34.55,35.14 -34.55,35.14 -34.31,35.14 -34.31,35.14 -34.07,35.14 -34.07,35.14 -33.83,35.14 -33.83,35.14 -33.59,35.14 -33.59,35.14 -33.34,35.14 -33.34,35.14 -33.1,35.14 -33.1,35.14 -32.86,35.14 -32.86,35.14 -32.62,35.14 -32.62,35.14 -32.38,35.14 -32.38,35.14 -32.13,35.14 -32.13,35.14 -31.89,35.14 -31.89,35.14 -31.65,35.14 -31.65,35.14 -31.41,35.14 -31.41,35.14 -31.17,35.14 -31.17,35.14 -30.92,35.14 -30.92,35.14 -30.68,35.14 -30.68,35.14 -30.44,35.14 -30.44,35.14 -30.2,35.14 -30.2,35.14 -29.96,35.14 -29.96,35.14 -29.71,35.14 -29.71,35.14 -29.47,35.14 -29.47,35.14 -29.23,35.14 -29.23,35.14 -28.99,35.14 -28.99,35.14 -28.75,35.14 -28.75,35.14 -28.5,35.14 -28.5,35.14 -28.26,35.14 -28.26,35.14 -28.02,35.14 -28.02,35.14 -27.78,35.14 -27.78,35.14 -27.53,35.14 -27.53,35.14 -27.29,35.14 -27.29,35.14 -27.05,35.14 -27.05,35.14 -26.81,35.14 -26.81,35.14 -26.57,35.14 -26.57,35.14 -26.32,35.14 -26.32,35.14 -26.08,35.14 -26.08,35.14 -25.84,35.14 -25.84,35.14 -25.6,35.14 -25.6,35.14 -25.36,35.14 -25.36,35.14 -25.11,35.14 -25.11,35.14 -24.87,35.14 -24.87,35.14 -24.63,35.14 -24.63,35.14 -24.39,35.14 -24.39,35.14 -24.15,35.14 -24.15,35.14 -23.9,35.14 -23.9,35.14 -23.66,35.14 -23.66,35.14 -23.42,35.14 -23.42,35.14 -23.18,35.14 -23.18,35.14 -22.94,35.14 -22.94,35.14 -22.69,35.14 -22.69,35.14 -22.45,35.14 -22.45,35.14 -22.21,35.14 -22.21,35.14 -21.97,35.14 -21.97,35.14 -21.73,35.14 -21.73,35.14 -21.48,35.14 -21.48,35.14 -21.24,35.14 -21.24,35.14 -21,35.14 -21,35.14 -20.76,35.14 -20.76,35.14 -20.52,35.14 -20.52,35.14 -20.27,35.14 -20.27,35.14 -20.03,35.14 -20.03,35.14 -19.79,35.14 -19.79,35.14 -19.55,35.14 -19.55,35.14 -19.3,35.14 -19.3,35.14 -19.06,35.14 -19.06,35.14 -18.82,35.14 -18.82,35.14 -18.58,35.14 -18.58,35.14 -18.34,35.14 -18.34,35.14 -18.09,35.14 -18.09,33.86 -17.85,33.86 -17.85,35.26 -17.61,35.26 -17.61,34.4 -17.37,34.4 -17.37,35.06 -17.13,35.06 -17.13,34.63 -16.88,34.63 -16.88,34.51 -16.64,34.51 -16.64,34.58 -16.4,34.58 -16.4,35.05 -16.16,35.05 -16.16,35.6 -15.92,35.6 -15.92,35.4 -15.67,35.4 -15.67,35.09 -15.43,35.09 -15.43,34.77 -15.19,34.77 -15.19,34.81 -14.95,34.81 -14.95,35.08 -14.71,35.08 -14.71,35.35 -14.46,35.35 -14.46,34.63 -14.22,34.63 -14.22,35.12 -13.98,35.12 -13.98,35.25 -13.74,35.25 -13.74,34.9 -13.5,34.9 -13.5,34.39 -13.25,34.39 -13.25,34.07 -13.01,34.07 -13.01,34.39 -12.77,34.39 -12.77,34.18 -12.53,34.18 -12.53,33.85 -12.28,33.85 -12.28,33.33 -12.04,33.33 -12.04,33.59 -11.8,33.59 -11.8,32.57 -11.56,32.57 -11.56,32.29 -11.32,32.29 -11.32,31.92 -11.07,31.92 -11.07,31.17 -10.83,31.17 -10.83,29.39 -10.59,29.39 -10.59,26.86 -10.35,26.86 -10.35,23.3 -10.11,23.3 -10.11,15.43 -9.86,15.43 -9.86,5.2 -9.62,5.2 -9.62,-10.15 -9.38,-10.15 -9.38,-33.09 -9.14,-33.09 -9.14,-62.68 -8.9,-62.68 -8.9,-101.25 -8.65,-101.25 -8.65,-145.78 -8.41,-145.78 -8.41,-193.5 -8.17,-193.5 -8.17,-237.57 -7.93,-237.57 -7.93,-280.79 -7.69,-280.79 -7.69,-309.91 -7.44,-309.91 -7.44,-321.88 -7.2,-321.88 -7.2,-321.96 -6.96,-321.96 -6.96,-301.26 -6.72,-301.26 -6.72,-267.38 -6.48,-267.38 -6.48,-228.24 -6.23,-228.24 -6.23,-178.76 -5.99,-178.76 -5.99,-133.6 -5.75,-133.6 -5.75,-88.09 -5.51,-88.09 -5.51,-53.36 -5.26,-53.36 -5.26,-25.33 -5.02,-25.33 -5.02,-4.57 -4.78,-4.57 -4.78,9.49 -4.54,9.49 -4.54,19.84 -4.3,19.84 -4.3,26.23 -4.05,26.23 -4.05,29.01 -3.81,29.01 -3.81,32.33 -3.57,32.33 -3.57,32.74 -3.33,32.74 -3.33,33.7 -3.09,33.7 -3.09,33.56 -2.84,33.56 -2.84,33.52 -2.6,33.52 -2.6,32.46 -2.36,32.46 -2.36,32.42 -2.12,32.42 -2.12,30.37 -1.88,30.37 -1.88,28.69 -1.63,28.69 -1.63,26.01 -1.39,26.01 -1.39,21.73 -1.15,21.73 -1.15,17.95 -0.91,17.95 -0.91,12.85 -0.67,12.85 -0.67,7.1 -0.42,7.1 -0.42,2.34 -0.18,2.34 -0.18,-2.44 0.06,-2.44 0.06,-4.66 0.3,-4.66 0.3,-7.92 0.54,-7.92 0.54,-7.67 0.79,-7.67 0.79,-5.99 1.03,-5.99 1.03,-3.01 1.27,-3.01 1.27,1.17 1.51,1.17 1.51,6.36 1.76,6.36 1.76,12.22 2,12.22 2,17.57 2.24,17.57 2.24,21.96 2.48,21.96 2.48,26.15 2.72,26.15 2.72,28.95 2.97,28.95 2.97,31.21 3.21,31.21 3.21,32.34 3.45,32.34 3.45,33.78 3.69,33.78 3.69,35.1 3.93,35.1 3.93,34.59 4.18,34.59 4.18,34.89 4.42,34.89 4.42,34.7 4.66,34.7 4.66,35.32 4.9,35.32 4.9,35.35 5.14,35.35 5.14,35.12 5.39,35.12 5.39,35.28 5.63,35.28 5.63,35.01 5.87,35.01 5.87,35.36 6.11,35.36 6.11,35.22 6.35,35.22 6.35,35.62 6.6,35.62 6.6,35.07 6.84,35.07 6.84,35.97 7.08,35.97 7.08,35.8 7.32,35.8 7.32,35.69 7.56,35.69 7.56,35.59 7.81,35.59 7.81,35.61 8.05,35.61 8.05,35.39 8.29,35.39 8.29,36.14 8.53,36.14 8.53,35.44 8.77,35.44 8.77,35.75 9.02,35.75 9.02,35.83 9.26,35.83 9.26,35.39 9.5,35.39 9.5,35.68 9.74,35.68 9.74,36.14 9.99,36.14 9.99,35.59 10.23,35.59 10.23,35.14 10.47,35.14 10.47,35.14 10.71,35.14 10.71,35.14 10.95,35.14 10.95,35.14 11.2,35.14 11.2,35.14 11.44,35.14 11.44,35.14 11.68,35.14 11.68,35.14 11.92,35.14 11.92,35.14 12.16,35.14 12.16,35.14 12.41,35.14 12.41,35.14 12.65,35.14 12.65,35.14 12.89,35.14 12.89,35.14 13.13,35.14 13.13,35.14 13.37,35.14 13.37,35.14 13.62,35.14 13.62,35.14 13.86,35.14 13.86,35.14 14.1,35.14 14.1,35.14 14.34,35.14 14.34,35.14 14.58,35.14 14.58,35.14 14.83,35.14 14.83,35.14 15.07,35.14 15.07,35.14 15.31,35.14 15.31,35.14 15.55,35.14 15.55,35.14 15.79,35.14 15.79,35.14 16.04,35.14 16.04,35.14 16.28,35.14 16.28,35.14 16.52,35.14 16.52,35.14 16.76,35.14 16.76,35.14 17.01,35.14 17.01,35.14 17.25,35.14 17.25,35.14 17.49,35.14 17.49,35.14 17.73,35.14 17.73,35.14 17.97,35.14 17.97,35.14 18.22,35.14 18.22,35.14 18.46,35.14 18.46,35.14 18.7,35.14 18.7,35.14 18.94,35.14 18.94,35.14 19.18,35.14 19.18,35.14 19.43,35.14 19.43,35.14 19.67,35.14 19.67,35.14 19.91,35.14 19.91,35.14 20.15,35.14 20.15,35.14 20.39,35.14 20.39,35.14 20.64,35.14 20.64,35.14 20.88,35.14 20.88,35.14 21.12,35.14 21.12,35.14 21.36,35.14 21.36,35.14 21.6,35.14 21.6,35.14 21.85,35.14 21.85,35.14 22.09,35.14 22.09,35.14 22.33,35.14 22.33,35.14 22.57,35.14 22.57,35.14 22.81,35.14 22.81,35.14 23.06,35.14 23.06,35.14 23.3,35.14 23.3,35.14 23.54,35.14 23.54,35.14 23.78,35.14 23.78,35.14 24.03,35.14 24.03,35.14 24.27,35.14 24.27,35.14 24.51,35.14 24.51,35.14 24.75,35.14 24.75,35.14 24.99,35.14 24.99,35.14 25.24,35.14 25.24,35.14 25.48,35.14 25.48,35.14 25.72,35.14 25.72,35.14 25.96,35.14 25.96,35.14 26.2,35.14 26.2,35.14 26.45,35.14 26.45,35.14 26.69,35.14 26.69,35.14 26.93,35.14 26.93,35.14 27.17,35.14 27.17,35.14 27.41,35.14 27.41,35.14 27.66,35.14 27.66,35.14 27.9,35.14 27.9,35.14 28.14,35.14 28.14,35.14 28.38,35.14 28.38,35.14 28.62,35.14 28.62,35.14 28.87,35.14 28.87,35.14 29.11,35.14 29.11,35.14 29.35,35.14 29.35,35.14 29.59,35.14 29.59,35.14 29.83,35.14 29.83,35.14 30.08,35.14 30.08,35.14 30.32,35.14 30.32,35.14 30.56,35.14 30.56,35.14 30.8,35.14 30.8,35.14 31.04,35.14 31.04,35.14 31.29,35.14 31.29,35.14 31.53,35.14 31.53,35.14 31.77,35.14 31.77,35.14 32.01,35.14 32.01,35.14 32.26,35.14 32.26,35.14 32.5,35.14 32.5,35.14 32.74,35.14 32.74,35.14 32.98,35.14 32.98,35.14 33.22,35.14 33.22,35.14 33.47,35.14 33.47,35.14 33.71,35.14 33.71,35.14 33.95,35.14 33.95,35.14 34.19,35.14 34.19,35.14 34.43,35.14 34.43,35.14 34.68,35.14 34.68,35.14 34.92,35.14 34.92,35.14 35.16,35.14 35.16,35.14 35.4,35.14 35.4,35.14 35.64,35.14 35.64,35.14 35.89,35.14 35.89,35.14 36.13,35.14 36.13,35.14 36.37,35.14 36.37,35.14 36.61,35.14 36.61,35.14 36.85,35.14 36.85,35.14 37.1,35.14 37.1,35.14 37.34,35.14 37.34,35.14 37.58,35.14 37.58,35.14 37.82,35.14 37.82,35.14 38.06,35.14 38.06,35.14 38.31,35.14 38.31,35.14 38.55,35.14 38.55,35.14 38.79,35.14 38.79,35.14 39.03,35.14 39.03,35.14 39.28,35.14 39.28,35.14 39.52,35.14 39.52,35.14 39.76,35.14 39.76,35.14 40,35.14 40,35.14 40.24,35.14 40.24,35.14 40.49,35.14 40.49,35.14 40.73,35.14 40.73,35.14 40.97,35.14 40.97,35.14 41.21,35.14 41.21,35.14 41.45,35.14 41.45,35.14 41.7,35.14 41.7,35.14 41.94,35.14 41.94,35.14 42.18,35.14 42.18,35.14 42.42,35.14 42.42,35.14 42.66,35.14 42.66,35.14 42.91,35.14 42.91,35.14 43.15,35.14 43.15,35.14 43.39,35.14 43.39,35.14 43.63,35.14 43.63,35.14 43.87,35.14 43.87,35.14 44.12,35.14 44.12,35.14 44.36,35.14 44.36,35.14 44.6,35.14 44.6,35.14 44.84,35.14 44.84,35.14 45.08,35.14 45.08,35.14 45.33,35.14 45.33,35.14 45.57,35.14 45.57,35.14 45.81,35.14 45.81,35.14 46.05,35.14 46.05,35.14 46.3,35.14 46.3,35.14 46.54,35.14 46.54,34.86 46.78,34.86 46.78,34.87 47.02,34.87 47.02,35.07 47.26,35.07 47.26,35.27 47.51,35.27 47.51,35.22 47.75,35.22 47.75,35.05 47.99,35.05 47.99,35.16 48.23,35.16 48.23,35.78 48.47,35.78 48.47,35.23 48.72,35.23 48.72,35.54 48.96,35.54 48.96,35.54 49.2,35.54 49.2,35.47 49.44,35.47 49.44,35.27 49.68,35.27 49.68,35.42 49.93,35.42 49.93,35.43 50.17,35.43 50.17,35.82 50.41,35.82 50.41,35.51 50.65,35.51 50.65,35.63 50.89,35.63 50.89,35.67 51.14,35.67 51.14,35.49 51.38,35.49 51.38,35.56 51.62,35.56 51.62,35.18 51.86,35.18 51.86,35.95 52.1,35.95 52.1,35.54 52.35,35.54 52.35,35.52 52.59,35.52 52.59,35.03 52.83,35.03 52.83,34.94 53.07,34.94 53.07,35.03 53.32,35.03 53.32,35.31 53.56,35.31 53.56,35.26 53.8,35.26 53.8,34.31 54.04,34.31 54.04,34.12 54.28,34.12 54.28,33.2 54.53,33.2 54.53,32.03 54.77,32.03 54.77,30.37 55.01,30.37 55.01,28.66 55.25,28.66 55.25,25.02 55.49,25.02 55.49,20.2 55.74,20.2 55.74,15.29 55.98,15.29 55.98,8.73 56.22,8.73 56.22,0.75 56.46,0.75 56.46,-8.22 56.7,-8.22 56.7,-16.92 56.95,-16.92 56.95,-27.12 57.19,-27.12 57.19,-37.33 57.43,-37.33 57.43,-45.14 57.67,-45.14 57.67,-50.99 57.91,-50.99 57.91,-56.28 58.16,-56.28 58.16,-57.34 58.4,-57.34 58.4,-54.63 58.64,-54.63 58.64,-51.86 58.88,-51.86 58.88,-44 59.12,-44 59.12,-34.45 59.37,-34.45 59.37,-27.79 59.61,-27.79 59.61,-17.68 59.85,-17.68 59.85,-8.72 60.09,-8.72 60.09,1.54 60.33,1.54 60.33,8.56 60.58,8.56 60.58,15.08 60.82,15.08 60.82,20.61 61.06,20.61 61.06,25.13 61.3,25.13 61.3,28.41 61.55,28.41 61.55,30.62 61.79,30.62 61.79,32.38 62.03,32.38 62.03,33.63 62.27,33.63 62.27,34.14 62.51,34.14 62.51,34.53 62.76,34.53 62.76,34.8 63,34.8 63,35.31 63.24,35.31 63.24,35.03 63.48,35.03 63.48,35.5 63.72,35.5 63.72,35.67 63.97,35.67 63.97,35.47 64.21,35.47 64.21,35.28 64.45,35.28 64.45,35.28 64.69,35.28 64.69,35.06 64.93,35.06 64.93,35.47 65.18,35.47 65.18,35.54 65.42,35.54 65.42,35.58 65.66,35.58 65.66,35.24 65.9,35.24 65.9,35.58 66.14,35.58 66.14,35.19 66.39,35.19 66.39,35.34 66.63,35.34 66.63,35.07 66.87,35.07 66.87,35.6 67.11,35.6 67.11,35.49 67.35,35.49 67.35,35.53 67.6,35.53 67.6,35.66 67.84,35.66 67.84,35.43 68.08,35.43 68.08,35.4 68.32,35.4 68.32,35.48 68.57,35.48 68.57,35.31 68.81,35.31 68.81,35.46 69.05,35.46 69.05,35.12 69.29,35.12 69.29,35.33 69.53,35.33 69.53,34.83 69.78,34.83 69.78,34.9 70.02,34.9 70.02,34.73 70.26,34.73 70.26,34.61 70.5,34.61 70.5,34.48 70.74,34.48 70.74,33.82 70.99,33.82 70.99,33.52 71.23,33.52 71.23,33.48 71.47,33.48 71.47,32.32 71.71,32.32 71.71,31.94 71.95,31.94 71.95,30.66 72.2,30.66 72.2,30.18 72.44,30.18 72.44,28.59 72.68,28.59 72.68,27.93 72.92,27.93 72.92,26.48 73.16,26.48 73.16,25.68 73.41,25.68 73.41,24.63 73.65,24.63 73.65,23.94 73.89,23.94 73.89,23.93 74.13,23.93 74.13,23.41 74.37,23.41 74.37,24.13 74.62,24.13 74.62,24.85 74.86,24.85 74.86,25.58 75.1,25.58 75.1,26.46 75.34,26.46 75.34,27.63 75.59,27.63 75.59,29.12 75.83,29.12 75.83,30 76.07,30 76.07,31.26 76.31,31.26 76.31,32.15 76.55,32.15 76.55,32.85 76.8,32.85 76.8,33.45 77.04,33.45 77.04,33.96 77.28,33.96 77.28,34.45 77.52,34.45 77.52,34.95 77.76,34.95 77.76,35.08 78.01,35.08 78.01,34.9 78.25,34.9 78.25,35.38 78.49,35.38 78.49,35.55 78.73,35.55 78.73,35.44 78.97,35.44 78.97,35.52 79.22,35.52 79.22,35.19 79.46,35.19 79.46,35.67 79.7,35.67 79.7,35.35 79.94,35.35 79.94,35.53 80.18,35.53 80.18,35.4 80.43,35.4 80.43,35.41 80.67,35.41 80.67,35.55 80.91,35.55 80.91,35.09 81.15,35.09 81.15,35.4 81.39,35.4 81.39,35.66 81.64,35.66 81.64,35.39 81.88,35.39 81.88,35.21 82.12,35.21 82.12,35.03 82.36,35.03 82.36,35.31 82.61,35.31 82.61,35.48 82.85,35.48 82.85,35.15 83.09,35.15 83.09,35.33 83.33,35.33 83.33,35.08 83.57,35.08 83.57,35.51 83.82,35.51 83.82,35.4 84.06,35.4 84.06,35.34 84.3,35.34 84.3,35.05 84.54,35.05 84.54,35.3 84.78,35.3 84.78,35.19 85.03,35.19 85.03,35.14 85.27,35.14 85.27,35.14 85.51,35.14 85.51,35.14 85.75,35.14 85.75,35.14 85.99,35.14 85.99,35.14 86.24,35.14 86.24,35.14 86.48,35.14 86.48,35.14 86.72,35.14 86.72,35.14 86.96,35.14 86.96,35.14 87.2,35.14 87.2,35.14 87.45,35.14 87.45,35.14 87.69,35.14 87.69,35.14 87.93,35.14 87.93,35.14 88.17,35.14 88.17,35.14 88.41,35.14 88.41,35.14 88.66,35.14 88.66,35.14 88.9,35.14 88.9,35.14 89.14,35.14 89.14,35.14 89.38,35.14 89.38,35.14 89.62,35.14 89.62,35.14 89.87,35.14 89.87,35.14 90.11,35.14 90.11,35.14 90.35,35.14 90.35,35.14 90.59,35.14 90.59,35.14 90.84,35.14 90.84,35.14 91.08,35.14 91.08,35.14 91.32,35.14 91.32,35.14 91.56,35.14 91.56,35.14 91.8,35.14 91.8,35.14 92.05,35.14 92.05,35.14 92.29,35.14 92.29,35.14 92.53,35.14 92.53,35.14 92.77,35.14 92.77,35.14 93.01,35.14 93.01,35.14 93.26,35.14 93.26,35.14 93.5,35.14 93.5,35.14 93.74,35.14 93.74,35.14 93.98,35.14 93.98,35.14 94.22,35.14 94.22,35.14 94.47,35.14 94.47,35.14 94.71,35.14 94.71,35.14 94.95,35.14 94.95,35.14 95.19,35.14 95.19,35.14 95.43,35.14 95.43,35.14 95.68,35.14 95.68,35.14 95.92,35.14 95.92,35.14 96.16,35.14 96.16,35.14 96.4,35.14 96.4,35.14 96.64,35.14 96.64,35.14 " class="primitive"/>
            </g>
          </g>
        </g>
        <g stroke-width="0.3" fill="#000000" fill-opacity="0.000" class="geometry" id="img-de78793b-33">
          <g class="color_RGB{N0f8}(0.063,0.306,0.545)" stroke-dasharray="none" stroke="#104E8B" id="img-de78793b-34">
            <g transform="translate(116.83,12.21)" id="img-de78793b-35">
              <path fill="none" d="M-96.77,47.64 L-96.52,47.64 -96.52,47.64 -96.28,47.64 -96.28,47.63 -96.04,47.63 -96.04,47.65 -95.8,47.65 -95.8,47.66 -95.56,47.66 -95.56,47.64 -95.31,47.64 -95.31,47.66 -95.07,47.66 -95.07,47.66 -94.83,47.66 -94.83,47.66 -94.59,47.66 -94.59,47.65 -94.35,47.65 -94.35,47.66 -94.1,47.66 -94.1,47.64 -93.86,47.64 -93.86,47.64 -93.62,47.64 -93.62,47.63 -93.38,47.63 -93.38,47.62 -93.13,47.62 -93.13,47.59 -92.89,47.59 -92.89,47.52 -92.65,47.52 -92.65,47.41 -92.41,47.41 -92.41,47.24 -92.17,47.24 -92.17,46.83 -91.92,46.83 -91.92,46.18 -91.68,46.18 -91.68,44.84 -91.44,44.84 -91.44,42.3 -91.2,42.3 -91.2,37.91 -90.96,37.91 -90.96,31.1 -90.71,31.1 -90.71,24.21 -90.47,24.21 -90.47,18.07 -90.23,18.07 -90.23,15.44 -89.99,15.44 -89.99,17.78 -89.75,17.78 -89.75,23.35 -89.5,23.35 -89.5,29.98 -89.26,29.98 -89.26,34.33 -89.02,34.33 -89.02,37.82 -88.78,37.82 -88.78,39.24 -88.54,39.24 -88.54,39.48 -88.29,39.48 -88.29,39.58 -88.05,39.58 -88.05,39.31 -87.81,39.31 -87.81,39.5 -87.57,39.5 -87.57,38.41 -87.33,38.41 -87.33,38.12 -87.08,38.12 -87.08,36.93 -86.84,36.93 -86.84,35.52 -86.6,35.52 -86.6,32.62 -86.36,32.62 -86.36,27.71 -86.11,27.71 -86.11,16.51 -85.87,16.51 -85.87,-4.53 -85.63,-4.53 -85.63,-42.13 -85.39,-42.13 -85.39,-106.87 -85.15,-106.87 -85.15,-206.45 -84.9,-206.45 -84.9,-330.51 -84.66,-330.51 -84.66,-460.61 -84.42,-460.61 -84.42,-554.71 -84.18,-554.71 -84.18,-573.24 -83.94,-573.24 -83.94,-514.3 -83.69,-514.3 -83.69,-397.77 -83.45,-397.77 -83.45,-260.13 -83.21,-260.13 -83.21,-140.55 -82.97,-140.55 -82.97,-54.41 -82.73,-54.41 -82.73,-6.74 -82.48,-6.74 -82.48,17.4 -82.24,17.4 -82.24,28.48 -82,28.48 -82,31.97 -81.76,31.97 -81.76,33.37 -81.52,33.37 -81.52,33.95 -81.27,33.95 -81.27,32.44 -81.03,32.44 -81.03,30.48 -80.79,30.48 -80.79,26.99 -80.55,26.99 -80.55,21.44 -80.31,21.44 -80.31,15.17 -80.06,15.17 -80.06,8.69 -79.82,8.69 -79.82,5.16 -79.58,5.16 -79.58,4.93 -79.34,4.93 -79.34,7.57 -79.09,7.57 -79.09,14.02 -78.85,14.02 -78.85,20.3 -78.61,20.3 -78.61,25.32 -78.37,25.32 -78.37,29.4 -78.13,29.4 -78.13,32.25 -77.88,32.25 -77.88,33 -77.64,33 -77.64,33.2 -77.4,33.2 -77.4,33.7 -77.16,33.7 -77.16,33.88 -76.92,33.88 -76.92,33.86 -76.67,33.86 -76.67,33.08 -76.43,33.08 -76.43,33.21 -76.19,33.21 -76.19,32.63 -75.95,32.63 -75.95,31.99 -75.71,31.99 -75.71,32.42 -75.46,32.42 -75.46,32.04 -75.22,32.04 -75.22,31.25 -74.98,31.25 -74.98,31.31 -74.74,31.31 -74.74,31.47 -74.5,31.47 -74.5,30.76 -74.25,30.76 -74.25,30.35 -74.01,30.35 -74.01,29.63 -73.77,29.63 -73.77,29.57 -73.53,29.57 -73.53,28.23 -73.29,28.23 -73.29,28.73 -73.04,28.73 -73.04,27.94 -72.8,27.94 -72.8,26.96 -72.56,26.96 -72.56,26.49 -72.32,26.49 -72.32,25.2 -72.08,25.2 -72.08,24.13 -71.83,24.13 -71.83,23.96 -71.59,23.96 -71.59,23.9 -71.35,23.9 -71.35,23.67 -71.11,23.67 -71.11,22.38 -70.86,22.38 -70.86,22.38 -70.62,22.38 -70.62,21.77 -70.38,21.77 -70.38,22.43 -70.14,22.43 -70.14,21.29 -69.9,21.29 -69.9,20.67 -69.65,20.67 -69.65,20.47 -69.41,20.47 -69.41,19.61 -69.17,19.61 -69.17,17.3 -68.93,17.3 -68.93,14.85 -68.69,14.85 -68.69,9.12 -68.44,9.12 -68.44,-2.74 -68.2,-2.74 -68.2,-25.53 -67.96,-25.53 -67.96,-63.24 -67.72,-63.24 -67.72,-126.91 -67.48,-126.91 -67.48,-214.65 -67.23,-214.65 -67.23,-324.76 -66.99,-324.76 -66.99,-434.73 -66.75,-434.73 -66.75,-523.08 -66.51,-523.08 -66.51,-568.35 -66.27,-568.35 -66.27,-556.56 -66.02,-556.56 -66.02,-494.76 -65.78,-494.76 -65.78,-395.86 -65.54,-395.86 -65.54,-286.24 -65.3,-286.24 -65.3,-186.26 -65.06,-186.26 -65.06,-109.14 -64.81,-109.14 -64.81,-52.57 -64.57,-52.57 -64.57,-19.2 -64.33,-19.2 -64.33,1.53 -64.09,1.53 -64.09,11.08 -63.84,11.08 -63.84,16.27 -63.6,16.27 -63.6,17.38 -63.36,17.38 -63.36,18.3 -63.12,18.3 -63.12,16.18 -62.88,16.18 -62.88,11.93 -62.63,11.93 -62.63,4.01 -62.39,4.01 -62.39,-12.04 -62.15,-12.04 -62.15,-36.72 -61.91,-36.72 -61.91,-71.97 -61.67,-71.97 -61.67,-114.31 -61.42,-114.31 -61.42,-160.38 -61.18,-160.38 -61.18,-198.89 -60.94,-198.89 -60.94,-222.65 -60.7,-222.65 -60.7,-226.5 -60.46,-226.5 -60.46,-210.11 -60.21,-210.11 -60.21,-173.17 -59.97,-173.17 -59.97,-131.7 -59.73,-131.7 -59.73,-88.86 -59.49,-88.86 -59.49,-53.92 -59.25,-53.92 -59.25,-26.14 -59,-26.14 -59,-10.22 -58.76,-10.22 -58.76,1.96 -58.52,1.96 -58.52,9.34 -58.28,9.34 -58.28,12.29 -58.04,12.29 -58.04,15.11 -57.79,15.11 -57.79,16.73 -57.55,16.73 -57.55,14.11 -57.31,14.11 -57.31,10.36 -57.07,10.36 -57.07,0.11 -56.82,0.11 -56.82,-20.45 -56.58,-20.45 -56.58,-58.55 -56.34,-58.55 -56.34,-128.99 -56.1,-128.99 -56.1,-230.85 -55.86,-230.85 -55.86,-376.13 -55.61,-376.13 -55.61,-556.62 -55.37,-556.62 -55.37,-749.17 -55.13,-749.17 -55.13,-919.28 -54.89,-919.28 -54.89,-1055.35 -54.65,-1055.35 -54.65,-1095.55 -54.4,-1095.55 -54.4,-1045.98 -54.16,-1045.98 -54.16,-918.68 -53.92,-918.68 -53.92,-745.21 -53.68,-745.21 -53.68,-563.15 -53.44,-563.15 -53.44,-395.92 -53.19,-395.92 -53.19,-262.26 -52.95,-262.26 -52.95,-164.08 -52.71,-164.08 -52.71,-100.01 -52.47,-100.01 -52.47,-61.21 -52.23,-61.21 -52.23,-37.74 -51.98,-37.74 -51.98,-21.53 -51.74,-21.53 -51.74,-8.92 -51.5,-8.92 -51.5,1.8 -51.26,1.8 -51.26,9.62 -51.02,9.62 -51.02,15.94 -50.77,15.94 -50.77,19.77 -50.53,19.77 -50.53,21.41 -50.29,21.41 -50.29,22.59 -50.05,22.59 -50.05,24.37 -49.81,24.37 -49.81,25.13 -49.56,25.13 -49.56,24.76 -49.32,24.76 -49.32,25.28 -49.08,25.28 -49.08,25.87 -48.84,25.87 -48.84,26.37 -48.59,26.37 -48.59,26.4 -48.35,26.4 -48.35,27.13 -48.11,27.13 -48.11,27.93 -47.87,27.93 -47.87,27.68 -47.63,27.68 -47.63,28.8 -47.38,28.8 -47.38,28.92 -47.14,28.92 -47.14,28.86 -46.9,28.86 -46.9,28.69 -46.66,28.69 -46.66,28.99 -46.42,28.99 -46.42,29.27 -46.17,29.27 -46.17,28.65 -45.93,28.65 -45.93,28.67 -45.69,28.67 -45.69,28.89 -45.45,28.89 -45.45,28.84 -45.21,28.84 -45.21,29.58 -44.96,29.58 -44.96,28.24 -44.72,28.24 -44.72,28.79 -44.48,28.79 -44.48,28.37 -44.24,28.37 -44.24,28.89 -44,28.89 -44,28.93 -43.75,28.93 -43.75,28.09 -43.51,28.09 -43.51,27.86 -43.27,27.86 -43.27,27.44 -43.03,27.44 -43.03,27.31 -42.79,27.31 -42.79,27.07 -42.54,27.07 -42.54,26.82 -42.3,26.82 -42.3,26.68 -42.06,26.68 -42.06,26.87 -41.82,26.87 -41.82,26.52 -41.57,26.52 -41.57,26.32 -41.33,26.32 -41.33,27.27 -41.09,27.27 -41.09,27.6 -40.85,27.6 -40.85,27.83 -40.61,27.83 -40.61,27.63 -40.36,27.63 -40.36,27.85 -40.12,27.85 -40.12,28.04 -39.88,28.04 -39.88,27.87 -39.64,27.87 -39.64,28.54 -39.4,28.54 -39.4,28.47 -39.15,28.47 -39.15,28.52 -38.91,28.52 -38.91,28.52 -38.67,28.52 -38.67,28.57 -38.43,28.57 -38.43,28.63 -38.19,28.63 -38.19,28.82 -37.94,28.82 -37.94,28.04 -37.7,28.04 -37.7,28.69 -37.46,28.69 -37.46,28.63 -37.22,28.63 -37.22,28 -36.98,28 -36.98,28.45 -36.73,28.45 -36.73,28.44 -36.49,28.44 -36.49,28.26 -36.25,28.26 -36.25,28.74 -36.01,28.74 -36.01,28.3 -35.77,28.3 -35.77,28.53 -35.52,28.53 -35.52,27.79 -35.28,27.79 -35.28,28.79 -35.04,28.79 -35.04,28.24 -34.8,28.24 -34.8,27.98 -34.55,27.98 -34.55,29.59 -34.31,29.59 -34.31,28.34 -34.07,28.34 -34.07,28.9 -33.83,28.9 -33.83,28.56 -33.59,28.56 -33.59,28.8 -33.34,28.8 -33.34,28.78 -33.1,28.78 -33.1,28.39 -32.86,28.39 -32.86,29.03 -32.62,29.03 -32.62,28.75 -32.38,28.75 -32.38,28.81 -32.13,28.81 -32.13,28.83 -31.89,28.83 -31.89,29.13 -31.65,29.13 -31.65,28.85 -31.41,28.85 -31.41,29.11 -31.17,29.11 -31.17,29.17 -30.92,29.17 -30.92,28.42 -30.68,28.42 -30.68,29.08 -30.44,29.08 -30.44,29.07 -30.2,29.07 -30.2,29.14 -29.96,29.14 -29.96,29.46 -29.71,29.46 -29.71,29.02 -29.47,29.02 -29.47,28.84 -29.23,28.84 -29.23,29.75 -28.99,29.75 -28.99,29.53 -28.75,29.53 -28.75,29.52 -28.5,29.52 -28.5,29.32 -28.26,29.32 -28.26,29.09 -28.02,29.09 -28.02,29.26 -27.78,29.26 -27.78,29.81 -27.53,29.81 -27.53,29.56 -27.29,29.56 -27.29,28.99 -27.05,28.99 -27.05,29.65 -26.81,29.65 -26.81,29.2 -26.57,29.2 -26.57,29.02 -26.32,29.02 -26.32,28.95 -26.08,28.95 -26.08,29.14 -25.84,29.14 -25.84,29.63 -25.6,29.63 -25.6,29.03 -25.36,29.03 -25.36,28.83 -25.11,28.83 -25.11,28.38 -24.87,28.38 -24.87,28.45 -24.63,28.45 -24.63,28.52 -24.39,28.52 -24.39,28.6 -24.15,28.6 -24.15,29 -23.9,29 -23.9,28.89 -23.66,28.89 -23.66,29.38 -23.42,29.38 -23.42,29.34 -23.18,29.34 -23.18,29.41 -22.94,29.41 -22.94,30.01 -22.69,30.01 -22.69,29.56 -22.45,29.56 -22.45,29.9 -22.21,29.9 -22.21,30.07 -21.97,30.07 -21.97,30.11 -21.73,30.11 -21.73,30.04 -21.48,30.04 -21.48,30.5 -21.24,30.5 -21.24,30.57 -21,30.57 -21,29.93 -20.76,29.93 -20.76,30.37 -20.52,30.37 -20.52,30.02 -20.27,30.02 -20.27,29.68 -20.03,29.68 -20.03,29.99 -19.79,29.99 -19.79,30.01 -19.55,30.01 -19.55,30.07 -19.3,30.07 -19.3,30.4 -19.06,30.4 -19.06,30 -18.82,30 -18.82,29.75 -18.58,29.75 -18.58,30.48 -18.34,30.48 -18.34,30.14 -18.09,30.14 -18.09,29.5 -17.85,29.5 -17.85,30.94 -17.61,30.94 -17.61,30.12 -17.37,30.12 -17.37,30.81 -17.13,30.81 -17.13,30.43 -16.88,30.43 -16.88,30.34 -16.64,30.34 -16.64,30.45 -16.4,30.45 -16.4,30.96 -16.16,30.96 -16.16,31.55 -15.92,31.55 -15.92,31.39 -15.67,31.39 -15.67,31.12 -15.43,31.12 -15.43,30.84 -15.19,30.84 -15.19,30.92 -14.95,30.92 -14.95,31.23 -14.71,31.23 -14.71,31.55 -14.46,31.55 -14.46,30.86 -14.22,30.86 -14.22,31.39 -13.98,31.39 -13.98,31.57 -13.74,31.57 -13.74,31.25 -13.5,31.25 -13.5,30.78 -13.25,30.78 -13.25,30.5 -13.01,30.5 -13.01,30.86 -12.77,30.86 -12.77,30.69 -12.53,30.69 -12.53,30.4 -12.28,30.4 -12.28,29.92 -12.04,29.92 -12.04,30.22 -11.8,30.22 -11.8,29.24 -11.56,29.24 -11.56,29 -11.32,29 -11.32,28.67 -11.07,28.67 -11.07,27.96 -10.83,27.96 -10.83,26.22 -10.59,26.22 -10.59,23.73 -10.35,23.73 -10.35,20.2 -10.11,20.2 -10.11,12.38 -9.86,12.38 -9.86,2.19 -9.62,2.19 -9.62,-13.12 -9.38,-13.12 -9.38,-36.02 -9.14,-36.02 -9.14,-65.57 -8.9,-65.57 -8.9,-104.1 -8.65,-104.1 -8.65,-148.59 -8.41,-148.59 -8.41,-196.27 -8.17,-196.27 -8.17,-240.3 -7.93,-240.3 -7.93,-283.48 -7.69,-283.48 -7.69,-312.56 -7.44,-312.56 -7.44,-324.49 -7.2,-324.49 -7.2,-324.54 -6.96,-324.54 -6.96,-303.8 -6.72,-303.8 -6.72,-269.87 -6.48,-269.87 -6.48,-230.69 -6.23,-230.69 -6.23,-181.17 -5.99,-181.17 -5.99,-135.97 -5.75,-135.97 -5.75,-90.43 -5.51,-90.43 -5.51,-55.66 -5.26,-55.66 -5.26,-27.58 -5.02,-27.58 -5.02,-6.79 -4.78,-6.79 -4.78,7.31 -4.54,7.31 -4.54,17.69 -4.3,17.69 -4.3,24.13 -4.05,24.13 -4.05,26.94 -3.81,26.94 -3.81,30.3 -3.57,30.3 -3.57,30.75 -3.33,30.75 -3.33,31.75 -3.09,31.75 -3.09,31.65 -2.84,31.65 -2.84,31.65 -2.6,31.65 -2.6,30.63 -2.36,30.63 -2.36,30.63 -2.12,30.63 -2.12,28.62 -1.88,28.62 -1.88,26.98 -1.63,26.98 -1.63,24.34 -1.39,24.34 -1.39,20.1 -1.15,20.1 -1.15,16.36 -0.91,16.36 -0.91,11.31 -0.67,11.31 -0.67,5.61 -0.42,5.61 -0.42,0.91 -0.18,0.91 -0.18,-3.81 0.06,-3.81 0.06,-5.97 0.3,-5.97 0.3,-9.16 0.54,-9.16 0.54,-8.83 0.79,-8.83 0.79,-7.06 1.03,-7.06 1.03,-3.99 1.27,-3.99 1.27,0.27 1.51,0.27 1.51,5.54 1.76,5.54 1.76,11.49 2,11.49 2,16.92 2.24,16.92 2.24,21.38 2.48,21.38 2.48,25.63 2.72,25.63 2.72,28.49 2.97,28.49 2.97,30.8 3.21,30.8 3.21,31.98 3.45,31.98 3.45,33.47 3.69,33.47 3.69,34.82 3.93,34.82 3.93,34.35 4.18,34.35 4.18,34.69 4.42,34.69 4.42,34.53 4.66,34.53 4.66,35.17 4.9,35.17 4.9,35.24 5.14,35.24 5.14,35.04 5.39,35.04 5.39,35.24 5.63,35.24 5.63,34.99 5.87,34.99 5.87,35.37 6.11,35.37 6.11,35.27 6.35,35.27 6.35,35.7 6.6,35.7 6.6,35.17 6.84,35.17 6.84,36.11 7.08,36.11 7.08,35.97 7.32,35.97 7.32,35.89 7.56,35.89 7.56,35.82 7.81,35.82 7.81,35.87 8.05,35.87 8.05,35.68 8.29,35.68 8.29,36.46 8.53,36.46 8.53,35.79 8.77,35.79 8.77,36.13 9.02,36.13 9.02,36.24 9.26,36.24 9.26,35.84 9.5,35.84 9.5,36.15 9.74,36.15 9.74,36.64 9.99,36.64 9.99,36.12 10.23,36.12 10.23,36 10.47,36 10.47,36.57 10.71,36.57 10.71,36.11 10.95,36.11 10.95,36.19 11.2,36.19 11.2,36.79 11.44,36.79 11.44,36.41 11.68,36.41 11.68,36.4 11.92,36.4 11.92,36.48 12.16,36.48 12.16,36.2 12.41,36.2 12.41,36.52 12.65,36.52 12.65,36.06 12.89,36.06 12.89,36.7 13.13,36.7 13.13,36.64 13.37,36.64 13.37,36.76 13.62,36.76 13.62,36.53 13.86,36.53 13.86,36.95 14.1,36.95 14.1,36.45 14.34,36.45 14.34,36.55 14.58,36.55 14.58,36.73 14.83,36.73 14.83,36.34 15.07,36.34 15.07,36.02 15.31,36.02 15.31,36.62 15.55,36.62 15.55,36.69 15.79,36.69 15.79,36.3 16.04,36.3 16.04,36.88 16.28,36.88 16.28,37.15 16.52,37.15 16.52,36.91 16.76,36.91 16.76,36.74 17.01,36.74 17.01,36.82 17.25,36.82 17.25,36.47 17.49,36.47 17.49,36.91 17.73,36.91 17.73,36.88 17.97,36.88 17.97,37.37 18.22,37.37 18.22,37.34 18.46,37.34 18.46,37.26 18.7,37.26 18.7,37.35 18.94,37.35 18.94,37.28 19.18,37.28 19.18,37.04 19.43,37.04 19.43,37.49 19.67,37.49 19.67,37.55 19.91,37.55 19.91,37.56 20.15,37.56 20.15,38.01 20.39,38.01 20.39,37.34 20.64,37.34 20.64,37.23 20.88,37.23 20.88,37.38 21.12,37.38 21.12,37.72 21.36,37.72 21.36,37.49 21.6,37.49 21.6,37.19 21.85,37.19 21.85,37.51 22.09,37.51 22.09,37.22 22.33,37.22 22.33,37.35 22.57,37.35 22.57,37.42 22.81,37.42 22.81,37.48 23.06,37.48 23.06,37.22 23.3,37.22 23.3,37.74 23.54,37.74 23.54,37.47 23.78,37.47 23.78,37.35 24.03,37.35 24.03,37.32 24.27,37.32 24.27,37.45 24.51,37.45 24.51,37.43 24.75,37.43 24.75,38.06 24.99,38.06 24.99,38.03 25.24,38.03 25.24,37.83 25.48,37.83 25.48,38.06 25.72,38.06 25.72,37.9 25.96,37.9 25.96,38.4 26.2,38.4 26.2,37.89 26.45,37.89 26.45,37.96 26.69,37.96 26.69,37.72 26.93,37.72 26.93,37.98 27.17,37.98 27.17,38.04 27.41,38.04 27.41,38.01 27.66,38.01 27.66,38.1 27.9,38.1 27.9,38.36 28.14,38.36 28.14,38.24 28.38,38.24 28.38,37.86 28.62,37.86 28.62,38.04 28.87,38.04 28.87,37.81 29.11,37.81 29.11,38.06 29.35,38.06 29.35,38.2 29.59,38.2 29.59,38.15 29.83,38.15 29.83,38.23 30.08,38.23 30.08,37.98 30.32,37.98 30.32,38.37 30.56,38.37 30.56,38.18 30.8,38.18 30.8,38.29 31.04,38.29 31.04,38.16 31.29,38.16 31.29,38.59 31.53,38.59 31.53,38.43 31.77,38.43 31.77,38.02 32.01,38.02 32.01,38.41 32.26,38.41 32.26,38.68 32.5,38.68 32.5,38.59 32.74,38.59 32.74,38.27 32.98,38.27 32.98,38.32 33.22,38.32 33.22,38.15 33.47,38.15 33.47,38.04 33.71,38.04 33.71,37.64 33.95,37.64 33.95,37.86 34.19,37.86 34.19,37.81 34.43,37.81 34.43,38.13 34.68,38.13 34.68,38.09 34.92,38.09 34.92,38.11 35.16,38.11 35.16,38.03 35.4,38.03 35.4,38.11 35.64,38.11 35.64,38.12 35.89,38.12 35.89,38.05 36.13,38.05 36.13,38.75 36.37,38.75 36.37,38.75 36.61,38.75 36.61,38.56 36.85,38.56 36.85,38.66 37.1,38.66 37.1,38.94 37.34,38.94 37.34,38.8 37.58,38.8 37.58,39.07 37.82,39.07 37.82,38.92 38.06,38.92 38.06,38.72 38.31,38.72 38.31,38.92 38.55,38.92 38.55,39.17 38.79,39.17 38.79,39 39.03,39 39.03,39.09 39.28,39.09 39.28,39.03 39.52,39.03 39.52,39.01 39.76,39.01 39.76,39.64 40,39.64 40,39.29 40.24,39.29 40.24,39.52 40.49,39.52 40.49,39.53 40.73,39.53 40.73,39.27 40.97,39.27 40.97,39.46 41.21,39.46 41.21,39.18 41.45,39.18 41.45,39.25 41.7,39.25 41.7,39.59 41.94,39.59 41.94,39.12 42.18,39.12 42.18,39.61 42.42,39.61 42.42,39.09 42.66,39.09 42.66,39.66 42.91,39.66 42.91,39.59 43.15,39.59 43.15,39.56 43.39,39.56 43.39,39.33 43.63,39.33 43.63,39.48 43.87,39.48 43.87,39.06 44.12,39.06 44.12,39.25 44.36,39.25 44.36,39.18 44.6,39.18 44.6,38.81 44.84,38.81 44.84,39.08 45.08,39.08 45.08,39.12 45.33,39.12 45.33,38.52 45.57,38.52 45.57,38.76 45.81,38.76 45.81,38.96 46.05,38.96 46.05,38.65 46.3,38.65 46.3,39.05 46.54,39.05 46.54,39.06 46.78,39.06 46.78,39.1 47.02,39.1 47.02,39.31 47.26,39.31 47.26,39.53 47.51,39.53 47.51,39.51 47.75,39.51 47.75,39.36 47.99,39.36 47.99,39.49 48.23,39.49 48.23,40.13 48.47,40.13 48.47,39.6 48.72,39.6 48.72,39.93 48.96,39.93 48.96,39.95 49.2,39.95 49.2,39.9 49.44,39.9 49.44,39.73 49.68,39.73 49.68,39.89 49.93,39.89 49.93,39.93 50.17,39.93 50.17,40.34 50.41,40.34 50.41,40.05 50.65,40.05 50.65,40.19 50.89,40.19 50.89,40.25 51.14,40.25 51.14,40.09 51.38,40.09 51.38,40.18 51.62,40.18 51.62,39.82 51.86,39.82 51.86,40.62 52.1,40.62 52.1,40.22 52.35,40.22 52.35,40.23 52.59,40.23 52.59,39.75 52.83,39.75 52.83,39.69 53.07,39.69 53.07,39.8 53.32,39.8 53.32,40.09 53.56,40.09 53.56,40.07 53.8,40.07 53.8,39.13 54.04,39.13 54.04,38.97 54.28,38.97 54.28,38.06 54.53,38.06 54.53,36.91 54.77,36.91 54.77,35.27 55.01,35.27 55.01,33.58 55.25,33.58 55.25,29.96 55.49,29.96 55.49,25.16 55.74,25.16 55.74,20.27 55.98,20.27 55.98,13.73 56.22,13.73 56.22,5.77 56.46,5.77 56.46,-3.18 56.7,-3.18 56.7,-11.86 56.95,-11.86 56.95,-22.04 57.19,-22.04 57.19,-32.23 57.43,-32.23 57.43,-40.02 57.67,-40.02 57.67,-45.85 57.91,-45.85 57.91,-51.13 58.16,-51.13 58.16,-52.16 58.4,-52.16 58.4,-49.44 58.64,-49.44 58.64,-46.64 58.88,-46.64 58.88,-38.77 59.12,-38.77 59.12,-29.2 59.37,-29.2 59.37,-22.52 59.61,-22.52 59.61,-12.4 59.85,-12.4 59.85,-3.41 60.09,-3.41 60.09,6.86 60.33,6.86 60.33,13.91 60.58,13.91 60.58,20.44 60.82,20.44 60.82,25.99 61.06,25.99 61.06,30.52 61.3,30.52 61.3,33.82 61.55,33.82 61.55,36.05 61.79,36.05 61.79,37.83 62.03,37.83 62.03,39.1 62.27,39.1 62.27,39.62 62.51,39.62 62.51,40.04 62.76,40.04 62.76,40.33 63,40.33 63,40.85 63.24,40.85 63.24,40.59 63.48,40.59 63.48,41.07 63.72,41.07 63.72,41.27 63.97,41.27 63.97,41.09 64.21,41.09 64.21,40.91 64.45,40.91 64.45,40.93 64.69,40.93 64.69,40.72 64.93,40.72 64.93,41.15 65.18,41.15 65.18,41.24 65.42,41.24 65.42,41.3 65.66,41.3 65.66,40.97 65.9,40.97 65.9,41.33 66.14,41.33 66.14,40.96 66.39,40.96 66.39,41.13 66.63,41.13 66.63,40.87 66.87,40.87 66.87,41.43 67.11,41.43 67.11,41.33 67.35,41.33 67.35,41.38 67.6,41.38 67.6,41.53 67.84,41.53 67.84,41.32 68.08,41.32 68.08,41.31 68.32,41.31 68.32,41.4 68.57,41.4 68.57,41.25 68.81,41.25 68.81,41.42 69.05,41.42 69.05,41.1 69.29,41.1 69.29,41.32 69.53,41.32 69.53,40.84 69.78,40.84 69.78,40.92 70.02,40.92 70.02,40.77 70.26,40.77 70.26,40.67 70.5,40.67 70.5,40.56 70.74,40.56 70.74,39.91 70.99,39.91 70.99,39.63 71.23,39.63 71.23,39.6 71.47,39.6 71.47,38.46 71.71,38.46 71.71,38.1 71.95,38.1 71.95,36.83 72.2,36.83 72.2,36.37 72.44,36.37 72.44,34.79 72.68,34.79 72.68,34.15 72.92,34.15 72.92,32.72 73.16,32.72 73.16,31.93 73.41,31.93 73.41,30.91 73.65,30.91 73.65,30.23 73.89,30.23 73.89,30.23 74.13,30.23 74.13,29.73 74.37,29.73 74.37,30.47 74.62,30.47 74.62,31.21 74.86,31.21 74.86,31.96 75.1,31.96 75.1,32.86 75.34,32.86 75.34,34.05 75.59,34.05 75.59,35.56 75.83,35.56 75.83,36.46 76.07,36.46 76.07,37.74 76.31,37.74 76.31,38.66 76.55,38.66 76.55,39.37 76.8,39.37 76.8,39.99 77.04,39.99 77.04,40.52 77.28,40.52 77.28,41.03 77.52,41.03 77.52,41.55 77.76,41.55 77.76,41.7 78.01,41.7 78.01,41.52 78.25,41.52 78.25,42.03 78.49,42.03 78.49,42.21 78.73,42.21 78.73,42.12 78.97,42.12 78.97,42.21 79.22,42.21 79.22,41.89 79.46,41.89 79.46,42.39 79.7,42.39 79.7,42.09 79.94,42.09 79.94,42.28 80.18,42.28 80.18,42.17 80.43,42.17 80.43,42.19 80.67,42.19 80.67,42.34 80.91,42.34 80.91,41.9 81.15,41.9 81.15,42.22 81.39,42.22 81.39,42.49 81.64,42.49 81.64,42.24 81.88,42.24 81.88,42.08 82.12,42.08 82.12,41.91 82.36,41.91 82.36,42.21 82.61,42.21 82.61,42.39 82.85,42.39 82.85,42.08 83.09,42.08 83.09,42.27 83.33,42.27 83.33,42.03 83.57,42.03 83.57,42.47 83.82,42.47 83.82,42.38 84.06,42.38 84.06,42.33 84.3,42.33 84.3,42.06 84.54,42.06 84.54,42.32 84.78,42.32 84.78,42.22 85.03,42.22 85.03,42.22 85.27,42.22 85.27,42.27 85.51,42.27 85.51,42.47 85.75,42.47 85.75,42.46 85.99,42.46 85.99,42.37 86.24,42.37 86.24,42.34 86.48,42.34 86.48,42.62 86.72,42.62 86.72,42.42 86.96,42.42 86.96,42.58 87.2,42.58 87.2,42.5 87.45,42.5 87.45,42.78 87.69,42.78 87.69,42.47 87.93,42.47 87.93,42.33 88.17,42.33 88.17,42.66 88.41,42.66 88.41,42.59 88.66,42.59 88.66,42.74 88.9,42.74 88.9,42.45 89.14,42.45 89.14,42.73 89.38,42.73 89.38,42.52 89.62,42.52 89.62,42.43 89.87,42.43 89.87,42.52 90.11,42.52 90.11,42.86 90.35,42.86 90.35,42.61 90.59,42.61 90.59,42.68 90.84,42.68 90.84,42.77 91.08,42.77 91.08,42.9 91.32,42.9 91.32,42.84 91.56,42.84 91.56,42.85 91.8,42.85 91.8,42.51 92.05,42.51 92.05,42.66 92.29,42.66 92.29,42.74 92.53,42.74 92.53,42.96 92.77,42.96 92.77,42.85 93.01,42.85 93.01,42.8 93.26,42.8 93.26,42.74 93.5,42.74 93.5,43 93.74,43 93.74,42.71 93.98,42.71 93.98,43.07 94.22,43.07 94.22,42.86 94.47,42.86 94.47,42.86 94.71,42.86 94.71,42.86 94.95,42.86 94.95,42.95 95.19,42.95 95.19,42.89 95.43,42.89 95.43,43.12 95.68,43.12 95.68,42.9 95.92,42.9 95.92,42.94 96.16,42.94 96.16,43.29 96.4,43.29 96.4,42.97 96.64,42.97 96.64,42.96 " class="primitive"/>
            </g>
          </g>
        </g>
      </g>
    </g>
  </g>
  <g class="guide ylabels" font-size="2.82" font-family="'PT Sans Caption','Helvetica Neue','Helvetica',sans-serif" fill="#6C606B" id="img-de78793b-36">
    <g transform="translate(17.03,59.87)" id="img-de78793b-37">
      <g class="primitive">
        <text text-anchor="end" dy="0.35em">0</text>
      </g>
    </g>
    <g transform="translate(17.03,35.3)" id="img-de78793b-38">
      <g class="primitive">
        <text text-anchor="end" dy="0.35em">5000</text>
      </g>
    </g>
    <g transform="translate(17.03,10.73)" id="img-de78793b-39">
      <g class="primitive">
        <text text-anchor="end" dy="0.35em">10000</text>
      </g>
    </g>
  </g>
  <g font-size="3.18" font-family="'PT Sans','Helvetica Neue','Helvetica',sans-serif" fill="#202020" stroke="#000000" stroke-opacity="0.000" id="img-de78793b-40">
    <g transform="translate(4.18,29.29)" id="img-de78793b-41">
      <g class="primitive">
        <text text-anchor="middle" dy="0.35em" transform="rotate(-90,0, 2)">Counts</text>
      </g>
    </g>
  </g>
</g>
<defs>
  <clipPath id="img-de78793b-15">
    <path d="M18.03,0.71 L215.71,0.71 215.71,61.87 18.03,61.87 " />
  </clipPath>
</defs>
</svg>
