<?xml version="1.0" encoding="UTF-8"?>
<svg xmlns="http://www.w3.org/2000/svg"
     xmlns:xlink="http://www.w3.org/1999/xlink"
     xmlns:gadfly="http://www.gadflyjl.org/ns"
     version="1.2"
     width="254mm" height="76.2mm" viewBox="0 0 254 76.2"
     stroke="none"
     fill="#000000"
     stroke-width="0.3"
     font-size="3.88"
>
<defs>
  <marker id="arrow" markerWidth="15" markerHeight="7" refX="5" refY="3.5" orient="auto" markerUnits="strokeWidth">
    <path d="M0,0 L15,3.5 L0,7 z" stroke="context-stroke" fill="context-stroke"/>
  </marker>
</defs>
<g class="plotroot xscalable yscalable" id="img-803a8d57-1">
  <g font-size="3.18" font-family="'PT Sans','Helvetica Neue','Helvetica',sans-serif" fill="#202020" stroke="#000000" stroke-opacity="0.000" id="img-803a8d57-2">
    <g transform="translate(119.33,69.54)">
      <g class="primitive">
        <text text-anchor="middle" dy="0.6em">Energy (eV)</text>
      </g>
    </g>
  </g>
  <g class="guide xlabels" font-size="2.82" font-family="'PT Sans Caption','Helvetica Neue','Helvetica',sans-serif" fill="#6C606B" id="img-803a8d57-3">
    <g transform="translate(20.03,62.87)">
      <g class="primitive">
        <text text-anchor="middle" dy="0.6em">0</text>
      </g>
    </g>
    <g transform="translate(69.68,62.87)">
      <g class="primitive">
        <text text-anchor="middle" dy="0.6em">2000</text>
      </g>
    </g>
    <g transform="translate(119.33,62.87)">
      <g class="primitive">
        <text text-anchor="middle" dy="0.6em">4000</text>
      </g>
    </g>
    <g transform="translate(168.99,62.87)">
      <g class="primitive">
        <text text-anchor="middle" dy="0.6em">6000</text>
      </g>
    </g>
    <g transform="translate(218.64,62.87)">
      <g class="primitive">
        <text text-anchor="middle" dy="0.6em">8000</text>
      </g>
    </g>
  </g>
  <g class="guide colorkey" id="img-803a8d57-4">
    <g fill="#4C404B" font-size="2.82" font-family="'PT Sans','Helvetica Neue','Helvetica',sans-serif" id="img-803a8d57-5">
      <g transform="translate(225.27,31.7)" id="img-803a8d57-6">
        <g class="primitive">
          <text dy="0.35em">CaF2 std</text>
        </g>
      </g>
      <g transform="translate(225.27,35.33)" id="img-803a8d57-7">
        <g class="primitive">
          <text dy="0.35em">Brem[Global][CaF2 std]</text>
        </g>
      </g>
    </g>
    <g stroke-width="0.3" id="img-803a8d57-8">
      <g stroke="#FFFFFF" fill-opacity="1" fill="#B70002" id="img-803a8d57-9">
        <g transform="translate(222.45,35.33)" id="img-803a8d57-10">
          <circle cx="0" cy="0" r="0.9" class="primitive"/>
        </g>
      </g>
      <g stroke="#FFFFFF" fill-opacity="1" fill="#104E8B" id="img-803a8d57-11">
        <g transform="translate(222.45,31.7)" id="img-803a8d57-12">
          <circle cx="0" cy="0" r="0.9" class="primitive"/>
        </g>
      </g>
    </g>
    <g fill="#362A35" font-size="3.18" font-family="'PT Sans','Helvetica Neue','Helvetica',sans-serif" stroke="#000000" stroke-opacity="0.000" id="img-803a8d57-13">
      <g transform="translate(221.64,28.39)" id="img-803a8d57-14">
        <g class="primitive">
          <text dy="-0em">Spectra</text>
        </g>
      </g>
    </g>
  </g>
  <g clip-path="url(#img-803a8d57-15)">
    <g id="img-803a8d57-16">
      <g pointer-events="visible" stroke-width="0.3" fill="#FDFDF1" stroke="#202020" class="guide background" id="img-803a8d57-17">
        <g transform="translate(119.33,31.29)" id="img-803a8d57-18">
          <path d="M-101.31,-30.58 L101.31,-30.58 101.31,30.58 -101.31,30.58  z" class="primitive"/>
        </g>
      </g>
      <g class="guide ygridlines xfixed" stroke-dasharray="none" stroke-width="0.2" stroke="#FFDFDF" id="img-803a8d57-19">
        <g transform="translate(119.33,59.87)" id="img-803a8d57-20">
          <path fill="none" d="M-101.31,0 L101.31,0 " class="primitive"/>
        </g>
        <g transform="translate(119.33,30.01)" id="img-803a8d57-21">
          <path fill="none" d="M-101.31,0 L101.31,0 " class="primitive"/>
        </g>
      </g>
      <g class="guide xgridlines yfixed" stroke-dasharray="none" stroke-width="0.2" stroke="#FFDFDF" id="img-803a8d57-22">
        <g transform="translate(20.03,31.29)" id="img-803a8d57-23">
          <path fill="none" d="M0,-30.58 L0,30.58 " class="primitive"/>
        </g>
        <g transform="translate(69.68,31.29)" id="img-803a8d57-24">
          <path fill="none" d="M0,-30.58 L0,30.58 " class="primitive"/>
        </g>
        <g transform="translate(119.33,31.29)" id="img-803a8d57-25">
          <path fill="none" d="M0,-30.58 L0,30.58 " class="primitive"/>
        </g>
        <g transform="translate(168.99,31.29)" id="img-803a8d57-26">
          <path fill="none" d="M0,-30.58 L0,30.58 " class="primitive"/>
        </g>
        <g transform="translate(218.64,31.29)" id="img-803a8d57-27">
          <path fill="none" d="M0,-30.58 L0,30.58 " class="primitive"/>
        </g>
      </g>
      <g class="plotpanel" id="img-803a8d57-28">
        <metadata>
          <boundingbox value="18.027222222222242mm 0.7055555555555555mm 202.61388888888888mm 61.16055555555556mm"/>
          <unitbox value="-80.5583138697361 99068.12770072602 8161.116627739472 -102417.25540145206"/>
        </metadata>
        <g stroke-width="0.3" fill="#000000" fill-opacity="0.000" class="geometry" id="img-803a8d57-29">
          <g class="color_RGB{N0f8}(0.718,0.0,0.008)" stroke-dasharray="none" stroke="#B70002" id="img-803a8d57-30">
            <g transform="translate(119.3,51.33)" id="img-803a8d57-31">
              <path fill="none" d="M-99.23,8.53 L-98.98,8.53 -98.98,8.53 -98.73,8.53 -98.73,8.53 -98.49,8.53 -98.49,8.53 -98.24,8.53 -98.24,8.53 -97.99,8.53 -97.99,8.53 -97.74,8.53 -97.74,8.53 -97.49,8.53 -97.49,8.53 -97.24,8.53 -97.24,8.53 -97,8.53 -97,8.53 -96.75,8.53 -96.75,8.53 -96.5,8.53 -96.5,8.53 -96.25,8.53 -96.25,8.53 -96,8.53 -96,8.51 -95.76,8.51 -95.76,8.46 -95.51,8.46 -95.51,8.32 -95.26,8.32 -95.26,8 -95.01,8 -95.01,7.33 -94.76,7.33 -94.76,6.14 -94.51,6.14 -94.51,4.31 -94.27,4.31 -94.27,1.85 -94.02,1.85 -94.02,-1.04 -93.77,-1.04 -93.77,-4.03 -93.52,-4.03 -93.52,-6.71 -93.27,-6.71 -93.27,-8.71 -93.02,-8.71 -93.02,-9.75 -92.78,-9.75 -92.78,-9.7 -92.53,-9.7 -92.53,-8.64 -92.28,-8.64 -92.28,-6.84 -92.03,-6.84 -92.03,-4.72 -91.78,-4.72 -91.78,-2.66 -91.54,-2.66 -91.54,-0.87 -91.29,-0.87 -91.29,0.63 -91.04,0.63 -91.04,1.97 -90.79,1.97 -90.79,3.3 -90.54,3.3 -90.54,4.62 -90.29,4.62 -90.29,5.85 -90.05,5.85 -90.05,6.87 -89.8,6.87 -89.8,7.61 -89.55,7.61 -89.55,8.08 -89.3,8.08 -89.3,8.34 -89.05,8.34 -89.05,8.46 -88.8,8.46 -88.8,8.5 -88.56,8.5 -88.56,8.5 -88.31,8.5 -88.31,8.45 -88.06,8.45 -88.06,8.34 -87.81,8.34 -87.81,8.12 -87.56,8.12 -87.56,7.72 -87.32,7.72 -87.32,7.12 -87.07,7.12 -87.07,6.29 -86.82,6.29 -86.82,5.3 -86.57,5.3 -86.57,4.24 -86.32,4.24 -86.32,3.22 -86.07,3.22 -86.07,2.34 -85.83,2.34 -85.83,1.61 -85.58,1.61 -85.58,1.02 -85.33,1.02 -85.33,0.53 -85.08,0.53 -85.08,0.1 -84.83,0.1 -84.83,-0.28 -84.58,-0.28 -84.58,-0.62 -84.34,-0.62 -84.34,-0.89 -84.09,-0.89 -84.09,-1.05 -83.84,-1.05 -83.84,-1.09 -83.59,-1.09 -83.59,-0.96 -83.34,-0.96 -83.34,-0.69 -83.1,-0.69 -83.1,-0.3 -82.85,-0.3 -82.85,0.14 -82.6,0.14 -82.6,0.56 -82.35,0.56 -82.35,0.9 -82.1,0.9 -82.1,1.13 -81.85,1.13 -81.85,1.25 -81.61,1.25 -81.61,1.28 -81.36,1.28 -81.36,1.23 -81.11,1.23 -81.11,1.13 -80.86,1.13 -80.86,1 -80.61,1 -80.61,0.84 -80.36,0.84 -80.36,0.68 -80.12,0.68 -80.12,0.51 -79.87,0.51 -79.87,0.34 -79.62,0.34 -79.62,0.17 -79.37,0.17 -79.37,0.02 -79.12,0.02 -79.12,-0.11 -78.88,-0.11 -78.88,-0.2 -78.63,-0.2 -78.63,-0.23 -78.38,-0.23 -78.38,-0.19 -78.13,-0.19 -78.13,-0.05 -77.88,-0.05 -77.88,0.17 -77.63,0.17 -77.63,0.43 -77.39,0.43 -77.39,0.69 -77.14,0.69 -77.14,0.91 -76.89,0.91 -76.89,1.05 -76.64,1.05 -76.64,1.09 -76.39,1.09 -76.39,1.05 -76.15,1.05 -76.15,0.95 -75.9,0.95 -75.9,0.81 -75.65,0.81 -75.65,0.66 -75.4,0.66 -75.4,0.49 -75.15,0.49 -75.15,0.32 -74.9,0.32 -74.9,0.15 -74.66,0.15 -74.66,-0.02 -74.41,-0.02 -74.41,-0.19 -74.16,-0.19 -74.16,-0.37 -73.91,-0.37 -73.91,-0.54 -73.66,-0.54 -73.66,-0.71 -73.41,-0.71 -73.41,-0.89 -73.17,-0.89 -73.17,-1.06 -72.92,-1.06 -72.92,-1.23 -72.67,-1.23 -72.67,-1.4 -72.42,-1.4 -72.42,-1.57 -72.17,-1.57 -72.17,-1.73 -71.93,-1.73 -71.93,-1.9 -71.68,-1.9 -71.68,-2.07 -71.43,-2.07 -71.43,-2.23 -71.18,-2.23 -71.18,-2.39 -70.93,-2.39 -70.93,-2.56 -70.68,-2.56 -70.68,-2.72 -70.44,-2.72 -70.44,-2.88 -70.19,-2.88 -70.19,-3.04 -69.94,-3.04 -69.94,-3.19 -69.69,-3.19 -69.69,-3.35 -69.44,-3.35 -69.44,-3.5 -69.19,-3.5 -69.19,-3.65 -68.95,-3.65 -68.95,-3.8 -68.7,-3.8 -68.7,-3.95 -68.45,-3.95 -68.45,-4.09 -68.2,-4.09 -68.2,-4.23 -67.95,-4.23 -67.95,-4.37 -67.71,-4.37 -67.71,-4.51 -67.46,-4.51 -67.46,-4.64 -67.21,-4.64 -67.21,-4.77 -66.96,-4.77 -66.96,-4.9 -66.71,-4.9 -66.71,-5.03 -66.46,-5.03 -66.46,-5.15 -66.22,-5.15 -66.22,-5.28 -65.97,-5.28 -65.97,-5.4 -65.72,-5.4 -65.72,-5.51 -65.47,-5.51 -65.47,-5.63 -65.22,-5.63 -65.22,-5.74 -64.97,-5.74 -64.97,-5.85 -64.73,-5.85 -64.73,-5.95 -64.48,-5.95 -64.48,-6.06 -64.23,-6.06 -64.23,-6.16 -63.98,-6.16 -63.98,-6.26 -63.73,-6.26 -63.73,-6.36 -63.49,-6.36 -63.49,-6.45 -63.24,-6.45 -63.24,-6.54 -62.99,-6.54 -62.99,-6.63 -62.74,-6.63 -62.74,-6.71 -62.49,-6.71 -62.49,-6.79 -62.24,-6.79 -62.24,-6.85 -62,-6.85 -62,-6.91 -61.75,-6.91 -61.75,-6.95 -61.5,-6.95 -61.5,-6.98 -61.25,-6.98 -61.25,-6.99 -61,-6.99 -61,-7 -60.75,-7 -60.75,-6.99 -60.51,-6.99 -60.51,-6.99 -60.26,-6.99 -60.26,-7 -60.01,-7 -60.01,-7.02 -59.76,-7.02 -59.76,-7.04 -59.51,-7.04 -59.51,-7.08 -59.27,-7.08 -59.27,-7.13 -59.02,-7.13 -59.02,-7.18 -58.77,-7.18 -58.77,-7.23 -58.52,-7.23 -58.52,-7.29 -58.27,-7.29 -58.27,-7.34 -58.02,-7.34 -58.02,-7.39 -57.78,-7.39 -57.78,-7.43 -57.53,-7.43 -57.53,-7.48 -57.28,-7.48 -57.28,-7.52 -57.03,-7.52 -57.03,-7.56 -56.78,-7.56 -56.78,-7.6 -56.53,-7.6 -56.53,-7.64 -56.29,-7.64 -56.29,-7.67 -56.04,-7.67 -56.04,-7.7 -55.79,-7.7 -55.79,-7.73 -55.54,-7.73 -55.54,-7.76 -55.29,-7.76 -55.29,-7.78 -55.05,-7.78 -55.05,-7.8 -54.8,-7.8 -54.8,-7.81 -54.55,-7.81 -54.55,-7.81 -54.3,-7.81 -54.3,-7.81 -54.05,-7.81 -54.05,-7.79 -53.8,-7.79 -53.8,-7.78 -53.56,-7.78 -53.56,-7.75 -53.31,-7.75 -53.31,-7.73 -53.06,-7.73 -53.06,-7.71 -52.81,-7.71 -52.81,-7.69 -52.56,-7.69 -52.56,-7.68 -52.31,-7.68 -52.31,-7.67 -52.07,-7.67 -52.07,-7.66 -51.82,-7.66 -51.82,-7.66 -51.57,-7.66 -51.57,-7.67 -51.32,-7.67 -51.32,-7.67 -51.07,-7.67 -51.07,-7.67 -50.83,-7.67 -50.83,-7.68 -50.58,-7.68 -50.58,-7.68 -50.33,-7.68 -50.33,-7.68 -50.08,-7.68 -50.08,-7.68 -49.83,-7.68 -49.83,-7.69 -49.58,-7.69 -49.58,-7.68 -49.34,-7.68 -49.34,-7.68 -49.09,-7.68 -49.09,-7.68 -48.84,-7.68 -48.84,-7.67 -48.59,-7.67 -48.59,-7.67 -48.34,-7.67 -48.34,-7.66 -48.09,-7.66 -48.09,-7.66 -47.85,-7.66 -47.85,-7.65 -47.6,-7.65 -47.6,-7.64 -47.35,-7.64 -47.35,-7.63 -47.1,-7.63 -47.1,-7.62 -46.85,-7.62 -46.85,-7.6 -46.61,-7.6 -46.61,-7.59 -46.36,-7.59 -46.36,-7.58 -46.11,-7.58 -46.11,-7.56 -45.86,-7.56 -45.86,-7.55 -45.61,-7.55 -45.61,-7.53 -45.36,-7.53 -45.36,-7.51 -45.12,-7.51 -45.12,-7.49 -44.87,-7.49 -44.87,-7.47 -44.62,-7.47 -44.62,-7.46 -44.37,-7.46 -44.37,-7.44 -44.12,-7.44 -44.12,-7.41 -43.87,-7.41 -43.87,-7.39 -43.63,-7.39 -43.63,-7.37 -43.38,-7.37 -43.38,-7.35 -43.13,-7.35 -43.13,-7.32 -42.88,-7.32 -42.88,-7.3 -42.63,-7.3 -42.63,-7.28 -42.39,-7.28 -42.39,-7.25 -42.14,-7.25 -42.14,-7.22 -41.89,-7.22 -41.89,-7.2 -41.64,-7.2 -41.64,-7.17 -41.39,-7.17 -41.39,-7.14 -41.14,-7.14 -41.14,-7.12 -40.9,-7.12 -40.9,-7.09 -40.65,-7.09 -40.65,-7.06 -40.4,-7.06 -40.4,-7.03 -40.15,-7.03 -40.15,-7 -39.9,-7 -39.9,-6.97 -39.65,-6.97 -39.65,-6.94 -39.41,-6.94 -39.41,-6.91 -39.16,-6.91 -39.16,-6.88 -38.91,-6.88 -38.91,-6.85 -38.66,-6.85 -38.66,-6.82 -38.41,-6.82 -38.41,-6.78 -38.17,-6.78 -38.17,-6.75 -37.92,-6.75 -37.92,-6.72 -37.67,-6.72 -37.67,-6.68 -37.42,-6.68 -37.42,-6.65 -37.17,-6.65 -37.17,-6.62 -36.92,-6.62 -36.92,-6.58 -36.68,-6.58 -36.68,-6.55 -36.43,-6.55 -36.43,-6.51 -36.18,-6.51 -36.18,-6.48 -35.93,-6.48 -35.93,-6.45 -35.68,-6.45 -35.68,-6.41 -35.44,-6.41 -35.44,-6.37 -35.19,-6.37 -35.19,-6.34 -34.94,-6.34 -34.94,-6.3 -34.69,-6.3 -34.69,-6.27 -34.44,-6.27 -34.44,-6.23 -34.19,-6.23 -34.19,-6.2 -33.95,-6.2 -33.95,-6.16 -33.7,-6.16 -33.7,-6.12 -33.45,-6.12 -33.45,-6.09 -33.2,-6.09 -33.2,-6.05 -32.95,-6.05 -32.95,-6.01 -32.7,-6.01 -32.7,-5.97 -32.46,-5.97 -32.46,-5.94 -32.21,-5.94 -32.21,-5.9 -31.96,-5.9 -31.96,-5.86 -31.71,-5.86 -31.71,-5.83 -31.46,-5.83 -31.46,-5.79 -31.22,-5.79 -31.22,-5.75 -30.97,-5.75 -30.97,-5.71 -30.72,-5.71 -30.72,-5.68 -30.47,-5.68 -30.47,-5.64 -30.22,-5.64 -30.22,-5.6 -29.97,-5.6 -29.97,-5.56 -29.73,-5.56 -29.73,-5.52 -29.48,-5.52 -29.48,-5.49 -29.23,-5.49 -29.23,-5.45 -28.98,-5.45 -28.98,-5.41 -28.73,-5.41 -28.73,-5.37 -28.48,-5.37 -28.48,-5.33 -28.24,-5.33 -28.24,-5.3 -27.99,-5.3 -27.99,-5.26 -27.74,-5.26 -27.74,-5.22 -27.49,-5.22 -27.49,-5.18 -27.24,-5.18 -27.24,-5.15 -27,-5.15 -27,-5.11 -26.75,-5.11 -26.75,-5.07 -26.5,-5.07 -26.5,-5.03 -26.25,-5.03 -26.25,-4.99 -26,-4.99 -26,-4.96 -25.75,-4.96 -25.75,-4.92 -25.51,-4.92 -25.51,-4.88 -25.26,-4.88 -25.26,-4.84 -25.01,-4.84 -25.01,-4.81 -24.76,-4.81 -24.76,-4.77 -24.51,-4.77 -24.51,-4.73 -24.26,-4.73 -24.26,-4.69 -24.02,-4.69 -24.02,-4.66 -23.77,-4.66 -23.77,-4.62 -23.52,-4.62 -23.52,-4.58 -23.27,-4.58 -23.27,-4.54 -23.02,-4.54 -23.02,-4.51 -22.78,-4.51 -22.78,-4.47 -22.53,-4.47 -22.53,-4.43 -22.28,-4.43 -22.28,-4.4 -22.03,-4.4 -22.03,-4.36 -21.78,-4.36 -21.78,-4.32 -21.53,-4.32 -21.53,-4.28 -21.29,-4.28 -21.29,-4.25 -21.04,-4.25 -21.04,-4.21 -20.79,-4.21 -20.79,-4.17 -20.54,-4.17 -20.54,-4.14 -20.29,-4.14 -20.29,-4.1 -20.04,-4.1 -20.04,-4.06 -19.8,-4.06 -19.8,-4.03 -19.55,-4.03 -19.55,-3.99 -19.3,-3.99 -19.3,-3.95 -19.05,-3.95 -19.05,-3.92 -18.8,-3.92 -18.8,-3.88 -18.56,-3.88 -18.56,-3.85 -18.31,-3.85 -18.31,-3.81 -18.06,-3.81 -18.06,-3.77 -17.81,-3.77 -17.81,-3.74 -17.56,-3.74 -17.56,-3.7 -17.31,-3.7 -17.31,-3.67 -17.07,-3.67 -17.07,-3.63 -16.82,-3.63 -16.82,-3.59 -16.57,-3.59 -16.57,-3.56 -16.32,-3.56 -16.32,-3.52 -16.07,-3.52 -16.07,-3.49 -15.82,-3.49 -15.82,-3.45 -15.58,-3.45 -15.58,-3.42 -15.33,-3.42 -15.33,-3.38 -15.08,-3.38 -15.08,-3.34 -14.83,-3.34 -14.83,-3.31 -14.58,-3.31 -14.58,-3.27 -14.34,-3.27 -14.34,-3.24 -14.09,-3.24 -14.09,-3.2 -13.84,-3.2 -13.84,-3.17 -13.59,-3.17 -13.59,-3.13 -13.34,-3.13 -13.34,-3.1 -13.09,-3.1 -13.09,-3.06 -12.85,-3.06 -12.85,-3.03 -12.6,-3.03 -12.6,-2.99 -12.35,-2.99 -12.35,-2.96 -12.1,-2.96 -12.1,-2.93 -11.85,-2.93 -11.85,-2.89 -11.6,-2.89 -11.6,-2.86 -11.36,-2.86 -11.36,-2.82 -11.11,-2.82 -11.11,-2.79 -10.86,-2.79 -10.86,-2.75 -10.61,-2.75 -10.61,-2.72 -10.36,-2.72 -10.36,-2.69 -10.12,-2.69 -10.12,-2.65 -9.87,-2.65 -9.87,-2.62 -9.62,-2.62 -9.62,-2.59 -9.37,-2.59 -9.37,-2.55 -9.12,-2.55 -9.12,-2.52 -8.87,-2.52 -8.87,-2.49 -8.63,-2.49 -8.63,-2.45 -8.38,-2.45 -8.38,-2.42 -8.13,-2.42 -8.13,-2.39 -7.88,-2.39 -7.88,-2.35 -7.63,-2.35 -7.63,-2.32 -7.38,-2.32 -7.38,-2.29 -7.14,-2.29 -7.14,-2.26 -6.89,-2.26 -6.89,-2.22 -6.64,-2.22 -6.64,-2.19 -6.39,-2.19 -6.39,-2.16 -6.14,-2.16 -6.14,-2.13 -5.9,-2.13 -5.9,-2.09 -5.65,-2.09 -5.65,-2.06 -5.4,-2.06 -5.4,-2.03 -5.15,-2.03 -5.15,-2 -4.9,-2 -4.9,-1.97 -4.65,-1.97 -4.65,-1.93 -4.41,-1.93 -4.41,-1.9 -4.16,-1.9 -4.16,-1.87 -3.91,-1.87 -3.91,-1.84 -3.66,-1.84 -3.66,-1.81 -3.41,-1.81 -3.41,-1.78 -3.16,-1.78 -3.16,-1.75 -2.92,-1.75 -2.92,-1.71 -2.67,-1.71 -2.67,-1.68 -2.42,-1.68 -2.42,-1.65 -2.17,-1.65 -2.17,-1.62 -1.92,-1.62 -1.92,-1.58 -1.68,-1.58 -1.68,-1.55 -1.43,-1.55 -1.43,-1.5 -1.18,-1.5 -1.18,-1.46 -0.93,-1.46 -0.93,-1.4 -0.68,-1.4 -0.68,-1.33 -0.43,-1.33 -0.43,-1.25 -0.19,-1.25 -0.19,-1.15 0.06,-1.15 0.06,-1.03 0.31,-1.03 0.31,-0.9 0.56,-0.9 0.56,-0.75 0.81,-0.75 0.81,-0.58 1.06,-0.58 1.06,-0.41 1.3,-0.41 1.3,-0.23 1.55,-0.23 1.55,-0.06 1.8,-0.06 1.8,0.11 2.05,0.11 2.05,0.26 2.3,0.26 2.3,0.39 2.54,0.39 2.54,0.5 2.79,0.5 2.79,0.59 3.04,0.59 3.04,0.66 3.29,0.66 3.29,0.72 3.54,0.72 3.54,0.76 3.79,0.76 3.79,0.8 4.03,0.8 4.03,0.82 4.28,0.82 4.28,0.85 4.53,0.85 4.53,0.86 4.78,0.86 4.78,0.88 5.03,0.88 5.03,0.89 5.27,0.89 5.27,0.91 5.52,0.91 5.52,0.92 5.77,0.92 5.77,0.94 6.02,0.94 6.02,0.95 6.27,0.95 6.27,0.96 6.52,0.96 6.52,0.98 6.76,0.98 6.76,0.99 7.01,0.99 7.01,1 7.26,1 7.26,1.02 7.51,1.02 7.51,1.03 7.76,1.03 7.76,1.04 8.01,1.04 8.01,1.06 8.25,1.06 8.25,1.07 8.5,1.07 8.5,1.09 8.75,1.09 8.75,1.1 9,1.1 9,1.11 9.25,1.11 9.25,1.13 9.49,1.13 9.49,1.14 9.74,1.14 9.74,1.16 9.99,1.16 9.99,1.17 10.24,1.17 10.24,1.18 10.49,1.18 10.49,1.2 10.74,1.2 10.74,1.21 10.98,1.21 10.98,1.23 11.23,1.23 11.23,1.24 11.48,1.24 11.48,1.26 11.73,1.26 11.73,1.27 11.98,1.27 11.98,1.28 12.23,1.28 12.23,1.3 12.47,1.3 12.47,1.31 12.72,1.31 12.72,1.33 12.97,1.33 12.97,1.34 13.22,1.34 13.22,1.36 13.47,1.36 13.47,1.37 13.71,1.37 13.71,1.39 13.96,1.39 13.96,1.4 14.21,1.4 14.21,1.41 14.46,1.41 14.46,1.43 14.71,1.43 14.71,1.44 14.96,1.44 14.96,1.46 15.2,1.46 15.2,1.47 15.45,1.47 15.45,1.49 15.7,1.49 15.7,1.5 15.95,1.5 15.95,1.52 16.2,1.52 16.2,1.53 16.45,1.53 16.45,1.54 16.69,1.54 16.69,1.56 16.94,1.56 16.94,1.57 17.19,1.57 17.19,1.59 17.44,1.59 17.44,1.6 17.69,1.6 17.69,1.62 17.93,1.62 17.93,1.63 18.18,1.63 18.18,1.65 18.43,1.65 18.43,1.66 18.68,1.66 18.68,1.68 18.93,1.68 18.93,1.69 19.18,1.69 19.18,1.71 19.42,1.71 19.42,1.72 19.67,1.72 19.67,1.73 19.92,1.73 19.92,1.75 20.17,1.75 20.17,1.76 20.42,1.76 20.42,1.78 20.67,1.78 20.67,1.79 20.91,1.79 20.91,1.81 21.16,1.81 21.16,1.82 21.41,1.82 21.41,1.84 21.66,1.84 21.66,1.85 21.91,1.85 21.91,1.87 22.15,1.87 22.15,1.88 22.4,1.88 22.4,1.89 22.65,1.89 22.65,1.91 22.9,1.91 22.9,1.92 23.15,1.92 23.15,1.94 23.4,1.94 23.4,1.95 23.64,1.95 23.64,1.97 23.89,1.97 23.89,1.98 24.14,1.98 24.14,2 24.39,2 24.39,2.01 24.64,2.01 24.64,2.02 24.89,2.02 24.89,2.04 25.13,2.04 25.13,2.05 25.38,2.05 25.38,2.07 25.63,2.07 25.63,2.08 25.88,2.08 25.88,2.1 26.13,2.1 26.13,2.11 26.37,2.11 26.37,2.12 26.62,2.12 26.62,2.14 26.87,2.14 26.87,2.15 27.12,2.15 27.12,2.17 27.37,2.17 27.37,2.18 27.62,2.18 27.62,2.2 27.86,2.2 27.86,2.21 28.11,2.21 28.11,2.22 28.36,2.22 28.36,2.24 28.61,2.24 28.61,2.25 28.86,2.25 28.86,2.27 29.11,2.27 29.11,2.28 29.35,2.28 29.35,2.29 29.6,2.29 29.6,2.31 29.85,2.31 29.85,2.32 30.1,2.32 30.1,2.34 30.35,2.34 30.35,2.35 30.59,2.35 30.59,2.36 30.84,2.36 30.84,2.38 31.09,2.38 31.09,2.39 31.34,2.39 31.34,2.41 31.59,2.41 31.59,2.42 31.84,2.42 31.84,2.43 32.08,2.43 32.08,2.45 32.33,2.45 32.33,2.46 32.58,2.46 32.58,2.47 32.83,2.47 32.83,2.49 33.08,2.49 33.08,2.5 33.33,2.5 33.33,2.52 33.57,2.52 33.57,2.53 33.82,2.53 33.82,2.54 34.07,2.54 34.07,2.56 34.32,2.56 34.32,2.57 34.57,2.57 34.57,2.58 34.81,2.58 34.81,2.6 35.06,2.6 35.06,2.61 35.31,2.61 35.31,2.62 35.56,2.62 35.56,2.64 35.81,2.64 35.81,2.65 36.06,2.65 36.06,2.66 36.3,2.66 36.3,2.68 36.55,2.68 36.55,2.69 36.8,2.69 36.8,2.7 37.05,2.7 37.05,2.72 37.3,2.72 37.3,2.73 37.55,2.73 37.55,2.74 37.79,2.74 37.79,2.76 38.04,2.76 38.04,2.77 38.29,2.77 38.29,2.78 38.54,2.78 38.54,2.8 38.79,2.8 38.79,2.81 39.03,2.81 39.03,2.82 39.28,2.82 39.28,2.84 39.53,2.84 39.53,2.85 39.78,2.85 39.78,2.86 40.03,2.86 40.03,2.88 40.28,2.88 40.28,2.89 40.52,2.89 40.52,2.9 40.77,2.9 40.77,2.91 41.02,2.91 41.02,2.93 41.27,2.93 41.27,2.94 41.52,2.94 41.52,2.95 41.77,2.95 41.77,2.97 42.01,2.97 42.01,2.98 42.26,2.98 42.26,2.99 42.51,2.99 42.51,3 42.76,3 42.76,3.02 43.01,3.02 43.01,3.03 43.25,3.03 43.25,3.04 43.5,3.04 43.5,3.06 43.75,3.06 43.75,3.07 44,3.07 44,3.08 44.25,3.08 44.25,3.09 44.5,3.09 44.5,3.11 44.74,3.11 44.74,3.12 44.99,3.12 44.99,3.13 45.24,3.13 45.24,3.14 45.49,3.14 45.49,3.16 45.74,3.16 45.74,3.17 45.98,3.17 45.98,3.18 46.23,3.18 46.23,3.19 46.48,3.19 46.48,3.21 46.73,3.21 46.73,3.22 46.98,3.22 46.98,3.23 47.23,3.23 47.23,3.24 47.47,3.24 47.47,3.26 47.72,3.26 47.72,3.27 47.97,3.27 47.97,3.28 48.22,3.28 48.22,3.29 48.47,3.29 48.47,3.3 48.72,3.3 48.72,3.32 48.96,3.32 48.96,3.33 49.21,3.33 49.21,3.34 49.46,3.34 49.46,3.35 49.71,3.35 49.71,3.37 49.96,3.37 49.96,3.38 50.2,3.38 50.2,3.39 50.45,3.39 50.45,3.4 50.7,3.4 50.7,3.41 50.95,3.41 50.95,3.43 51.2,3.43 51.2,3.44 51.45,3.44 51.45,3.45 51.69,3.45 51.69,3.46 51.94,3.46 51.94,3.47 52.19,3.47 52.19,3.48 52.44,3.48 52.44,3.5 52.69,3.5 52.69,3.51 52.94,3.51 52.94,3.52 53.18,3.52 53.18,3.53 53.43,3.53 53.43,3.54 53.68,3.54 53.68,3.56 53.93,3.56 53.93,3.57 54.18,3.57 54.18,3.58 54.42,3.58 54.42,3.59 54.67,3.59 54.67,3.6 54.92,3.6 54.92,3.61 55.17,3.61 55.17,3.63 55.42,3.63 55.42,3.64 55.67,3.64 55.67,3.65 55.91,3.65 55.91,3.66 56.16,3.66 56.16,3.67 56.41,3.67 56.41,3.68 56.66,3.68 56.66,3.69 56.91,3.69 56.91,3.71 57.16,3.71 57.16,3.72 57.4,3.72 57.4,3.73 57.65,3.73 57.65,3.74 57.9,3.74 57.9,3.75 58.15,3.75 58.15,3.76 58.4,3.76 58.4,3.77 58.64,3.77 58.64,3.78 58.89,3.78 58.89,3.8 59.14,3.8 59.14,3.81 59.39,3.81 59.39,3.82 59.64,3.82 59.64,3.83 59.89,3.83 59.89,3.84 60.13,3.84 60.13,3.85 60.38,3.85 60.38,3.86 60.63,3.86 60.63,3.87 60.88,3.87 60.88,3.88 61.13,3.88 61.13,3.9 61.38,3.9 61.38,3.91 61.62,3.91 61.62,3.92 61.87,3.92 61.87,3.93 62.12,3.93 62.12,3.94 62.37,3.94 62.37,3.95 62.62,3.95 62.62,3.96 62.86,3.96 62.86,3.97 63.11,3.97 63.11,3.98 63.36,3.98 63.36,3.99 63.61,3.99 63.61,4 63.86,4 63.86,4.01 64.11,4.01 64.11,4.02 64.35,4.02 64.35,4.04 64.6,4.04 64.6,4.05 64.85,4.05 64.85,4.06 65.1,4.06 65.1,4.07 65.35,4.07 65.35,4.08 65.6,4.08 65.6,4.09 65.84,4.09 65.84,4.1 66.09,4.1 66.09,4.11 66.34,4.11 66.34,4.12 66.59,4.12 66.59,4.13 66.84,4.13 66.84,4.14 67.08,4.14 67.08,4.15 67.33,4.15 67.33,4.16 67.58,4.16 67.58,4.17 67.83,4.17 67.83,4.18 68.08,4.18 68.08,4.19 68.33,4.19 68.33,4.2 68.57,4.2 68.57,4.21 68.82,4.21 68.82,4.22 69.07,4.22 69.07,4.23 69.32,4.23 69.32,4.24 69.57,4.24 69.57,4.25 69.82,4.25 69.82,4.26 70.06,4.26 70.06,4.27 70.31,4.27 70.31,4.28 70.56,4.28 70.56,4.29 70.81,4.29 70.81,4.3 71.06,4.3 71.06,4.31 71.3,4.31 71.3,4.32 71.55,4.32 71.55,4.33 71.8,4.33 71.8,4.34 72.05,4.34 72.05,4.35 72.3,4.35 72.3,4.36 72.55,4.36 72.55,4.37 72.79,4.37 72.79,4.38 73.04,4.38 73.04,4.39 73.29,4.39 73.29,4.4 73.54,4.4 73.54,4.41 73.79,4.41 73.79,4.42 74.04,4.42 74.04,4.43 74.28,4.43 74.28,4.44 74.53,4.44 74.53,4.45 74.78,4.45 74.78,4.46 75.03,4.46 75.03,4.47 75.28,4.47 75.28,4.48 75.52,4.48 75.52,4.49 75.77,4.49 75.77,4.5 76.02,4.5 76.02,4.51 76.27,4.51 76.27,4.52 76.52,4.52 76.52,4.53 76.77,4.53 76.77,4.54 77.01,4.54 77.01,4.55 77.26,4.55 77.26,4.56 77.51,4.56 77.51,4.57 77.76,4.57 77.76,4.58 78.01,4.58 78.01,4.59 78.26,4.59 78.26,4.6 78.5,4.6 78.5,4.61 78.75,4.61 78.75,4.62 79,4.62 79,4.62 79.25,4.62 79.25,4.63 79.5,4.63 79.5,4.64 79.74,4.64 79.74,4.65 79.99,4.65 79.99,4.66 80.24,4.66 80.24,4.67 80.49,4.67 80.49,4.68 80.74,4.68 80.74,4.69 80.99,4.69 80.99,4.7 81.23,4.7 81.23,4.71 81.48,4.71 81.48,4.72 81.73,4.72 81.73,4.73 81.98,4.73 81.98,4.74 82.23,4.74 82.23,4.74 82.47,4.74 82.47,4.75 82.72,4.75 82.72,4.76 82.97,4.76 82.97,4.77 83.22,4.77 83.22,4.78 83.47,4.78 83.47,4.79 83.72,4.79 83.72,4.8 83.96,4.8 83.96,4.81 84.21,4.81 84.21,4.82 84.46,4.82 84.46,4.83 84.71,4.83 84.71,4.83 84.96,4.83 84.96,4.84 85.21,4.84 85.21,4.85 85.45,4.85 85.45,4.86 85.7,4.86 85.7,4.87 85.95,4.87 85.95,4.88 86.2,4.88 86.2,4.89 86.45,4.89 86.45,4.9 86.69,4.9 86.69,4.9 86.94,4.9 86.94,4.91 87.19,4.91 87.19,4.92 87.44,4.92 87.44,4.93 87.69,4.93 87.69,4.94 87.94,4.94 87.94,4.95 88.18,4.95 88.18,4.96 88.43,4.96 88.43,4.97 88.68,4.97 88.68,4.97 88.93,4.97 88.93,4.98 89.18,4.98 89.18,4.99 89.43,4.99 89.43,5 89.67,5 89.67,5.01 89.92,5.01 89.92,5.02 90.17,5.02 90.17,5.03 90.42,5.03 90.42,5.03 90.67,5.03 90.67,5.04 90.91,5.04 90.91,5.05 91.16,5.05 91.16,5.06 91.41,5.06 91.41,5.07 91.66,5.07 91.66,5.08 91.91,5.08 91.91,5.08 92.16,5.08 92.16,5.09 92.4,5.09 92.4,5.1 92.65,5.1 92.65,5.11 92.9,5.11 92.9,5.12 93.15,5.12 93.15,5.13 93.4,5.13 93.4,5.13 93.65,5.13 93.65,5.14 93.89,5.14 93.89,5.15 94.14,5.15 94.14,5.16 94.39,5.16 94.39,5.17 94.64,5.17 94.64,5.18 94.89,5.18 94.89,5.18 95.13,5.18 95.13,5.19 95.38,5.19 95.38,5.2 95.63,5.2 95.63,5.21 95.88,5.21 95.88,5.22 96.13,5.22 96.13,5.22 96.38,5.22 96.38,5.23 96.62,5.23 96.62,5.24 96.87,5.24 96.87,5.25 97.12,5.25 97.12,5.26 97.37,5.26 97.37,5.26 97.62,5.26 97.62,5.27 97.87,5.27 97.87,5.28 98.11,5.28 98.11,5.29 98.36,5.29 98.36,5.3 98.61,5.3 98.61,5.3 98.86,5.3 98.86,5.31 99.11,5.31 99.11,5.32 " class="primitive"/>
            </g>
          </g>
        </g>
        <g stroke-width="0.3" fill="#000000" fill-opacity="0.000" class="geometry" id="img-803a8d57-32">
          <g class="color_RGB{N0f8}(0.063,0.306,0.545)" stroke-dasharray="none" stroke="#104E8B" id="img-803a8d57-33">
            <g transform="translate(119.3,28.44)" id="img-803a8d57-34">
              <path fill="none" d="M-99.23,31.41 L-98.98,31.41 -98.98,31.41 -98.73,31.41 -98.73,31.42 -98.49,31.42 -98.49,31.42 -98.24,31.42 -98.24,31.42 -97.99,31.42 -97.99,31.42 -97.74,31.42 -97.74,31.42 -97.49,31.42 -97.49,31.43 -97.24,31.43 -97.24,31.43 -97,31.43 -97,31.43 -96.75,31.43 -96.75,31.43 -96.5,31.43 -96.5,31.42 -96.25,31.42 -96.25,31.42 -96,31.42 -96,31.42 -95.76,31.42 -95.76,31.4 -95.51,31.4 -95.51,31.37 -95.26,31.37 -95.26,31.31 -95.01,31.31 -95.01,31.2 -94.76,31.2 -94.76,30.98 -94.51,30.98 -94.51,30.6 -94.27,30.6 -94.27,29.92 -94.02,29.92 -94.02,28.46 -93.77,28.46 -93.77,25.66 -93.52,25.66 -93.52,21.3 -93.27,21.3 -93.27,14.75 -93.02,14.75 -93.02,7.53 -92.78,7.53 -92.78,1.12 -92.53,1.12 -92.53,-1.84 -92.28,-1.84 -92.28,-0.82 -92.03,-0.82 -92.03,3.99 -91.78,3.99 -91.78,9.56 -91.54,9.56 -91.54,14.43 -91.29,14.43 -91.29,17.52 -91.04,17.52 -91.04,19.46 -90.79,19.46 -90.79,20.89 -90.54,20.89 -90.54,21.61 -90.29,21.61 -90.29,22.56 -90.05,22.56 -90.05,23.2 -89.8,23.2 -89.8,23.67 -89.55,23.67 -89.55,24.26 -89.3,24.26 -89.3,25.04 -89.05,25.04 -89.05,25.77 -88.8,25.77 -88.8,26.38 -88.56,26.38 -88.56,26.71 -88.31,26.71 -88.31,26.84 -88.06,26.84 -88.06,26.83 -87.81,26.83 -87.81,26.51 -87.56,26.51 -87.56,26.01 -87.32,26.01 -87.32,25.2 -87.07,25.2 -87.07,24.12 -86.82,24.12 -86.82,23.11 -86.57,23.11 -86.57,22.34 -86.32,22.34 -86.32,22.08 -86.07,22.08 -86.07,22.11 -85.83,22.11 -85.83,22.48 -85.58,22.48 -85.58,22.7 -85.33,22.7 -85.33,22.25 -85.08,22.25 -85.08,21.21 -84.83,21.21 -84.83,18.56 -84.58,18.56 -84.58,13.62 -84.34,13.62 -84.34,3.55 -84.09,3.55 -84.09,-15.34 -83.84,-15.34 -83.84,-48.3 -83.59,-48.3 -83.59,-100.24 -83.34,-100.24 -83.34,-170.89 -83.1,-170.89 -83.1,-249.51 -82.85,-249.51 -82.85,-318.32 -82.6,-318.32 -82.6,-353.91 -82.35,-353.91 -82.35,-343.77 -82.1,-343.77 -82.1,-289.87 -81.85,-289.87 -81.85,-210.93 -81.61,-210.93 -81.61,-131.13 -81.36,-131.13 -81.36,-66.99 -81.11,-66.99 -81.11,-22.76 -80.86,-22.76 -80.86,2.26 -80.61,2.26 -80.61,15.18 -80.36,15.18 -80.36,21 -80.12,21 -80.12,23.53 -79.87,23.53 -79.87,24.33 -79.62,24.33 -79.62,24.61 -79.37,24.61 -79.37,24.74 -79.12,24.74 -79.12,24.56 -78.88,24.56 -78.88,24.56 -78.63,24.56 -78.63,24.23 -78.38,24.23 -78.38,24.05 -78.13,24.05 -78.13,23.82 -77.88,23.82 -77.88,23.6 -77.63,23.6 -77.63,23.46 -77.39,23.46 -77.39,23.51 -77.14,23.51 -77.14,23.37 -76.89,23.37 -76.89,23.09 -76.64,23.09 -76.64,23.08 -76.39,23.08 -76.39,22.94 -76.15,22.94 -76.15,22.69 -75.9,22.69 -75.9,22.88 -75.65,22.88 -75.65,22.52 -75.4,22.52 -75.4,22.41 -75.15,22.41 -75.15,22.34 -74.9,22.34 -74.9,22.15 -74.66,22.15 -74.66,21.87 -74.41,21.87 -74.41,21.89 -74.16,21.89 -74.16,21.71 -73.91,21.71 -73.91,21.38 -73.66,21.38 -73.66,21.25 -73.41,21.25 -73.41,21.06 -73.17,21.06 -73.17,20.96 -72.92,20.96 -72.92,20.66 -72.67,20.66 -72.67,20.48 -72.42,20.48 -72.42,20.45 -72.17,20.45 -72.17,20.28 -71.93,20.28 -71.93,20.02 -71.68,20.02 -71.68,19.81 -71.43,19.81 -71.43,19.6 -71.18,19.6 -71.18,19.36 -70.93,19.36 -70.93,19.09 -70.68,19.09 -70.68,18.9 -70.44,18.9 -70.44,18.81 -70.19,18.81 -70.19,18.38 -69.94,18.38 -69.94,18.44 -69.69,18.44 -69.69,18.14 -69.44,18.14 -69.44,17.92 -69.19,17.92 -69.19,17.73 -68.95,17.73 -68.95,17.6 -68.7,17.6 -68.7,17.12 -68.45,17.12 -68.45,17.09 -68.2,17.09 -68.2,16.68 -67.95,16.68 -67.95,16.7 -67.71,16.7 -67.71,16.42 -67.46,16.42 -67.46,16.24 -67.21,16.24 -67.21,16.32 -66.96,16.32 -66.96,16.02 -66.71,16.02 -66.71,15.95 -66.46,15.95 -66.46,15.7 -66.22,15.7 -66.22,15.47 -65.97,15.47 -65.97,15.3 -65.72,15.3 -65.72,15.12 -65.47,15.12 -65.47,15.19 -65.22,15.19 -65.22,15.1 -64.97,15.1 -64.97,15.24 -64.73,15.24 -64.73,15.08 -64.48,15.08 -64.48,15.1 -64.23,15.1 -64.23,14.88 -63.98,14.88 -63.98,14.86 -63.73,14.86 -63.73,14.58 -63.49,14.58 -63.49,14.36 -63.24,14.36 -63.24,14.28 -62.99,14.28 -62.99,14.01 -62.74,14.01 -62.74,13.7 -62.49,13.7 -62.49,13.84 -62.24,13.84 -62.24,13.77 -62,13.77 -62,13.67 -61.75,13.67 -61.75,13.77 -61.5,13.77 -61.5,13.76 -61.25,13.76 -61.25,13.94 -61,13.94 -61,14.07 -60.75,14.07 -60.75,14.09 -60.51,14.09 -60.51,14.35 -60.26,14.35 -60.26,14.33 -60.01,14.33 -60.01,14.48 -59.76,14.48 -59.76,14.46 -59.51,14.46 -59.51,14.47 -59.27,14.47 -59.27,14.52 -59.02,14.52 -59.02,14.41 -58.77,14.41 -58.77,14.39 -58.52,14.39 -58.52,14.26 -58.27,14.26 -58.27,14.06 -58.02,14.06 -58.02,14.14 -57.78,14.14 -57.78,13.88 -57.53,13.88 -57.53,13.81 -57.28,13.81 -57.28,13.85 -57.03,13.85 -57.03,13.43 -56.78,13.43 -56.78,13.1 -56.53,13.1 -56.53,12.87 -56.29,12.87 -56.29,12.88 -56.04,12.88 -56.04,12.59 -55.79,12.59 -55.79,12.62 -55.54,12.62 -55.54,12.45 -55.29,12.45 -55.29,12.42 -55.05,12.42 -55.05,12.5 -54.8,12.5 -54.8,12.75 -54.55,12.75 -54.55,12.56 -54.3,12.56 -54.3,12.73 -54.05,12.73 -54.05,12.51 -53.8,12.51 -53.8,12.55 -53.56,12.55 -53.56,12.69 -53.31,12.69 -53.31,12.74 -53.06,12.74 -53.06,12.69 -52.81,12.69 -52.81,12.04 -52.56,12.04 -52.56,11.24 -52.31,11.24 -52.31,10.06 -52.07,10.06 -52.07,8.27 -51.82,8.27 -51.82,6.45 -51.57,6.45 -51.57,4.19 -51.32,4.19 -51.32,2.61 -51.07,2.61 -51.07,1.57 -50.83,1.57 -50.83,1.08 -50.58,1.08 -50.58,1.66 -50.33,1.66 -50.33,3.13 -50.08,3.13 -50.08,5.01 -49.83,5.01 -49.83,7.44 -49.58,7.44 -49.58,9.35 -49.34,9.35 -49.34,10.97 -49.09,10.97 -49.09,12.03 -48.84,12.03 -48.84,12.66 -48.59,12.66 -48.59,13.26 -48.34,13.26 -48.34,13.46 -48.09,13.46 -48.09,13.78 -47.85,13.78 -47.85,13.9 -47.6,13.9 -47.6,13.64 -47.35,13.64 -47.35,13.95 -47.1,13.95 -47.1,13.78 -46.85,13.78 -46.85,13.98 -46.61,13.98 -46.61,13.88 -46.36,13.88 -46.36,13.97 -46.11,13.97 -46.11,14 -45.86,14 -45.86,14 -45.61,14 -45.61,13.81 -45.36,13.81 -45.36,13.93 -45.12,13.93 -45.12,13.92 -44.87,13.92 -44.87,13.85 -44.62,13.85 -44.62,14 -44.37,14 -44.37,13.71 -44.12,13.71 -44.12,13.51 -43.87,13.51 -43.87,13.44 -43.63,13.44 -43.63,13.07 -43.38,13.07 -43.38,12.98 -43.13,12.98 -43.13,12.95 -42.88,12.95 -42.88,13.03 -42.63,13.03 -42.63,13.07 -42.39,13.07 -42.39,13.06 -42.14,13.06 -42.14,13.44 -41.89,13.44 -41.89,13.73 -41.64,13.73 -41.64,13.83 -41.39,13.83 -41.39,14.18 -41.14,14.18 -41.14,14.4 -40.9,14.4 -40.9,14.31 -40.65,14.31 -40.65,14.45 -40.4,14.45 -40.4,14.53 -40.15,14.53 -40.15,14.55 -39.9,14.55 -39.9,14.76 -39.65,14.76 -39.65,14.98 -39.41,14.98 -39.41,14.75 -39.16,14.75 -39.16,14.84 -38.91,14.84 -38.91,14.87 -38.66,14.87 -38.66,14.89 -38.41,14.89 -38.41,14.95 -38.17,14.95 -38.17,14.85 -37.92,14.85 -37.92,15.09 -37.67,15.09 -37.67,14.9 -37.42,14.9 -37.42,15.13 -37.17,15.13 -37.17,14.9 -36.92,14.9 -36.92,15.19 -36.68,15.19 -36.68,15.2 -36.43,15.2 -36.43,14.9 -36.18,14.9 -36.18,15.17 -35.93,15.17 -35.93,15.26 -35.68,15.26 -35.68,15.38 -35.44,15.38 -35.44,15.3 -35.19,15.3 -35.19,15.5 -34.94,15.5 -34.94,15.47 -34.69,15.47 -34.69,15.6 -34.44,15.6 -34.44,15.42 -34.19,15.42 -34.19,15.47 -33.95,15.47 -33.95,15.44 -33.7,15.44 -33.7,15.54 -33.45,15.54 -33.45,15.7 -33.2,15.7 -33.2,15.63 -32.95,15.63 -32.95,15.8 -32.7,15.8 -32.7,15.68 -32.46,15.68 -32.46,15.9 -32.21,15.9 -32.21,15.8 -31.96,15.8 -31.96,15.84 -31.71,15.84 -31.71,15.92 -31.46,15.92 -31.46,15.76 -31.22,15.76 -31.22,15.76 -30.97,15.76 -30.97,15.95 -30.72,15.95 -30.72,16.05 -30.47,16.05 -30.47,15.96 -30.22,15.96 -30.22,16.08 -29.97,16.08 -29.97,16.22 -29.73,16.22 -29.73,16.15 -29.48,16.15 -29.48,16.15 -29.23,16.15 -29.23,16.18 -28.98,16.18 -28.98,16.33 -28.73,16.33 -28.73,16.25 -28.48,16.25 -28.48,16.46 -28.24,16.46 -28.24,16.41 -27.99,16.41 -27.99,16.33 -27.74,16.33 -27.74,16.35 -27.49,16.35 -27.49,16.43 -27.24,16.43 -27.24,16.56 -27,16.56 -27,16.44 -26.75,16.44 -26.75,16.41 -26.5,16.41 -26.5,16.5 -26.25,16.5 -26.25,16.45 -26,16.45 -26,16.5 -25.75,16.5 -25.75,16.49 -25.51,16.49 -25.51,16.44 -25.26,16.44 -25.26,16.56 -25.01,16.56 -25.01,16.61 -24.76,16.61 -24.76,16.71 -24.51,16.71 -24.51,16.58 -24.26,16.58 -24.26,16.55 -24.02,16.55 -24.02,16.76 -23.77,16.76 -23.77,16.83 -23.52,16.83 -23.52,16.7 -23.27,16.7 -23.27,16.79 -23.02,16.79 -23.02,16.8 -22.78,16.8 -22.78,16.72 -22.53,16.72 -22.53,16.84 -22.28,16.84 -22.28,16.76 -22.03,16.76 -22.03,16.9 -21.78,16.9 -21.78,17.01 -21.53,17.01 -21.53,16.81 -21.29,16.81 -21.29,16.83 -21.04,16.83 -21.04,16.74 -20.79,16.74 -20.79,16.94 -20.54,16.94 -20.54,16.99 -20.29,16.99 -20.29,16.77 -20.04,16.77 -20.04,16.88 -19.8,16.88 -19.8,17.01 -19.55,17.01 -19.55,16.98 -19.3,16.98 -19.3,17.03 -19.05,17.03 -19.05,16.93 -18.8,16.93 -18.8,17.25 -18.56,17.25 -18.56,17.16 -18.31,17.16 -18.31,17.28 -18.06,17.28 -18.06,17.57 -17.81,17.57 -17.81,17.58 -17.56,17.58 -17.56,17.56 -17.31,17.56 -17.31,17.81 -17.07,17.81 -17.07,17.77 -16.82,17.77 -16.82,17.91 -16.57,17.91 -16.57,17.88 -16.32,17.88 -16.32,18.12 -16.07,18.12 -16.07,18.09 -15.82,18.09 -15.82,18.07 -15.58,18.07 -15.58,18.28 -15.33,18.28 -15.33,18.16 -15.08,18.16 -15.08,18.15 -14.83,18.15 -14.83,18.34 -14.58,18.34 -14.58,18.03 -14.34,18.03 -14.34,18.06 -14.09,18.06 -14.09,17.66 -13.84,17.66 -13.84,17.68 -13.59,17.68 -13.59,17.58 -13.34,17.58 -13.34,17.22 -13.09,17.22 -13.09,16.83 -12.85,16.83 -12.85,16.39 -12.6,16.39 -12.6,15.56 -12.35,15.56 -12.35,14.73 -12.1,14.73 -12.1,13.67 -11.85,13.67 -11.85,12.34 -11.6,12.34 -11.6,10.19 -11.36,10.19 -11.36,6.89 -11.11,6.89 -11.11,1.81 -10.86,1.81 -10.86,-6.5 -10.61,-6.5 -10.61,-20.33 -10.36,-20.33 -10.36,-41.96 -10.12,-41.96 -10.12,-75.75 -9.87,-75.75 -9.87,-126.3 -9.62,-126.3 -9.62,-196.66 -9.37,-196.66 -9.37,-291.12 -9.12,-291.12 -9.12,-409.63 -8.87,-409.63 -8.87,-546.68 -8.63,-546.68 -8.63,-695.74 -8.38,-695.74 -8.38,-842.55 -8.13,-842.55 -8.13,-971.03 -7.88,-971.03 -7.88,-1064.96 -7.63,-1064.96 -7.63,-1111.78 -7.38,-1111.78 -7.38,-1102.86 -7.14,-1102.86 -7.14,-1044.41 -6.89,-1044.41 -6.89,-941.04 -6.64,-941.04 -6.64,-805.75 -6.39,-805.75 -6.39,-657.87 -6.14,-657.87 -6.14,-510.73 -5.9,-510.73 -5.9,-376.85 -5.65,-376.85 -5.65,-263.87 -5.4,-263.87 -5.4,-174 -5.15,-174 -5.15,-107.64 -4.9,-107.64 -4.9,-61.22 -4.65,-61.22 -4.65,-29.8 -4.41,-29.8 -4.41,-10.07 -4.16,-10.07 -4.16,1.48 -3.91,1.48 -3.91,8.36 -3.66,8.36 -3.66,11.96 -3.41,11.96 -3.41,13.13 -3.16,13.13 -3.16,13.76 -2.92,13.76 -2.92,12.84 -2.67,12.84 -2.67,11.1 -2.42,11.1 -2.42,8.39 -2.17,8.39 -2.17,4.11 -1.92,4.11 -1.92,-1.62 -1.68,-1.62 -1.68,-10.2 -1.43,-10.2 -1.43,-21.25 -1.18,-21.25 -1.18,-34.1 -0.93,-34.1 -0.93,-49.96 -0.68,-49.96 -0.68,-65.88 -0.43,-65.88 -0.43,-82.06 -0.19,-82.06 -0.19,-96.24 0.06,-96.24 0.06,-108.29 0.31,-108.29 0.31,-114 0.56,-114 0.56,-114.68 0.81,-114.68 0.81,-109.23 1.06,-109.23 1.06,-99.43 1.3,-99.43 1.3,-84.82 1.55,-84.82 1.55,-68.2 1.8,-68.2 1.8,-50.4 2.05,-50.4 2.05,-34.06 2.3,-34.06 2.3,-19.48 2.54,-19.48 2.54,-7.33 2.79,-7.33 2.79,2.56 3.04,2.56 3.04,9.7 3.29,9.7 3.29,14.81 3.54,14.81 3.54,18.24 3.79,18.24 3.79,20.48 4.03,20.48 4.03,22.01 4.28,22.01 4.28,23.05 4.53,23.05 4.53,23.46 4.78,23.46 4.78,23.81 5.03,23.81 5.03,23.94 5.27,23.94 5.27,24.06 5.52,24.06 5.52,24.02 5.77,24.02 5.77,24.09 6.02,24.09 6.02,24.15 6.27,24.15 6.27,24.08 6.52,24.08 6.52,24.03 6.76,24.03 6.76,24.03 7.01,24.03 7.01,23.94 7.26,23.94 7.26,23.62 7.51,23.62 7.51,23.6 7.76,23.6 7.76,23.38 8.01,23.38 8.01,23.34 8.25,23.34 8.25,23.07 8.5,23.07 8.5,23.03 8.75,23.03 8.75,22.87 9,22.87 9,22.78 9.25,22.78 9.25,22.93 9.49,22.93 9.49,22.92 9.74,22.92 9.74,22.96 9.99,22.96 9.99,23.13 10.24,23.13 10.24,23.23 10.49,23.23 10.49,23.44 10.74,23.44 10.74,23.65 10.98,23.65 10.98,23.84 11.23,23.84 11.23,24.02 11.48,24.02 11.48,24.12 11.73,24.12 11.73,24.28 11.98,24.28 11.98,24.26 12.23,24.26 12.23,24.33 12.47,24.33 12.47,24.54 12.72,24.54 12.72,24.32 12.97,24.32 12.97,24.45 13.22,24.45 13.22,24.52 13.47,24.52 13.47,24.49 13.71,24.49 13.71,24.58 13.96,24.58 13.96,24.57 14.21,24.57 14.21,24.54 14.46,24.54 14.46,24.58 14.71,24.58 14.71,24.53 14.96,24.53 14.96,24.45 15.2,24.45 15.2,24.4 15.45,24.4 15.45,24.57 15.7,24.57 15.7,24.55 15.95,24.55 15.95,24.46 16.2,24.46 16.2,24.61 16.45,24.61 16.45,24.55 16.69,24.55 16.69,24.47 16.94,24.47 16.94,24.46 17.19,24.46 17.19,24.39 17.44,24.39 17.44,24.57 17.69,24.57 17.69,24.53 17.93,24.53 17.93,24.44 18.18,24.44 18.18,24.52 18.43,24.52 18.43,24.53 18.68,24.53 18.68,24.58 18.93,24.58 18.93,24.74 19.18,24.74 19.18,24.79 19.42,24.79 19.42,24.79 19.67,24.79 19.67,24.81 19.92,24.81 19.92,24.84 20.17,24.84 20.17,24.69 20.42,24.69 20.42,24.82 20.67,24.82 20.67,24.84 20.91,24.84 20.91,24.79 21.16,24.79 21.16,24.76 21.41,24.76 21.41,24.84 21.66,24.84 21.66,24.84 21.91,24.84 21.91,24.82 22.15,24.82 22.15,24.77 22.4,24.77 22.4,24.79 22.65,24.79 22.65,24.78 22.9,24.78 22.9,24.97 23.15,24.97 23.15,24.97 23.4,24.97 23.4,24.95 23.64,24.95 23.64,24.86 23.89,24.86 23.89,24.91 24.14,24.91 24.14,24.89 24.39,24.89 24.39,24.98 24.64,24.98 24.64,25.05 24.89,25.05 24.89,24.97 25.13,24.97 25.13,25.02 25.38,25.02 25.38,25.08 25.63,25.08 25.63,24.98 25.88,24.98 25.88,25.04 26.13,25.04 26.13,24.99 26.37,24.99 26.37,25 26.62,25 26.62,25.08 26.87,25.08 26.87,24.97 27.12,24.97 27.12,25.07 27.37,25.07 27.37,25.16 27.62,25.16 27.62,25.14 27.86,25.14 27.86,25.14 28.11,25.14 28.11,25.12 28.36,25.12 28.36,25.18 28.61,25.18 28.61,25.19 28.86,25.19 28.86,25.15 29.11,25.15 29.11,25.19 29.35,25.19 29.35,25.32 29.6,25.32 29.6,25.16 29.85,25.16 29.85,25.4 30.1,25.4 30.1,25.26 30.35,25.26 30.35,25.26 30.59,25.26 30.59,25.21 30.84,25.21 30.84,25.24 31.09,25.24 31.09,25.36 31.34,25.36 31.34,25.21 31.59,25.21 31.59,25.31 31.84,25.31 31.84,25.24 32.08,25.24 32.08,25.25 32.33,25.25 32.33,25.37 32.58,25.37 32.58,25.33 32.83,25.33 32.83,25.25 33.08,25.25 33.08,25.37 33.33,25.37 33.33,25.25 33.57,25.25 33.57,25.3 33.82,25.3 33.82,25.39 34.07,25.39 34.07,25.39 34.32,25.39 34.32,25.35 34.57,25.35 34.57,25.37 34.81,25.37 34.81,25.39 35.06,25.39 35.06,25.33 35.31,25.33 35.31,25.34 35.56,25.34 35.56,25.3 35.81,25.3 35.81,25.4 36.06,25.4 36.06,25.34 36.3,25.34 36.3,25.5 36.55,25.5 36.55,25.46 36.8,25.46 36.8,25.42 37.05,25.42 37.05,25.47 37.3,25.47 37.3,25.62 37.55,25.62 37.55,25.64 37.79,25.64 37.79,25.53 38.04,25.53 38.04,25.78 38.29,25.78 38.29,25.66 38.54,25.66 38.54,25.64 38.79,25.64 38.79,25.63 39.03,25.63 39.03,25.66 39.28,25.66 39.28,25.75 39.53,25.75 39.53,25.69 39.78,25.69 39.78,25.7 40.03,25.7 40.03,25.74 40.28,25.74 40.28,25.72 40.52,25.72 40.52,25.79 40.77,25.79 40.77,25.72 41.02,25.72 41.02,25.83 41.27,25.83 41.27,25.72 41.52,25.72 41.52,25.7 41.77,25.7 41.77,25.77 42.01,25.77 42.01,25.79 42.26,25.79 42.26,25.87 42.51,25.87 42.51,25.76 42.76,25.76 42.76,25.84 43.01,25.84 43.01,25.82 43.25,25.82 43.25,25.87 43.5,25.87 43.5,25.8 43.75,25.8 43.75,25.94 44,25.94 44,26.02 44.25,26.02 44.25,25.97 44.5,25.97 44.5,25.89 44.74,25.89 44.74,26.05 44.99,26.05 44.99,25.95 45.24,25.95 45.24,25.81 45.49,25.81 45.49,26.03 45.74,26.03 45.74,26 45.98,26 45.98,25.95 46.23,25.95 46.23,26.08 46.48,26.08 46.48,26.09 46.73,26.09 46.73,25.97 46.98,25.97 46.98,26.14 47.23,26.14 47.23,26 47.47,26 47.47,26.05 47.72,26.05 47.72,26.13 47.97,26.13 47.97,26.06 48.22,26.06 48.22,26.2 48.47,26.2 48.47,26.17 48.72,26.17 48.72,26.08 48.96,26.08 48.96,26.12 49.21,26.12 49.21,26.17 49.46,26.17 49.46,26.07 49.71,26.07 49.71,26.21 49.96,26.21 49.96,26.2 50.2,26.2 50.2,26.17 50.45,26.17 50.45,26.29 50.7,26.29 50.7,26.17 50.95,26.17 50.95,26.29 51.2,26.29 51.2,26.22 51.45,26.22 51.45,26.27 51.69,26.27 51.69,26.27 51.94,26.27 51.94,26.32 52.19,26.32 52.19,26.26 52.44,26.26 52.44,26.33 52.69,26.33 52.69,26.32 52.94,26.32 52.94,26.37 53.18,26.37 53.18,26.43 53.43,26.43 53.43,26.4 53.68,26.4 53.68,26.41 53.93,26.41 53.93,26.37 54.18,26.37 54.18,26.4 54.42,26.4 54.42,26.41 54.67,26.41 54.67,26.43 54.92,26.43 54.92,26.38 55.17,26.38 55.17,26.45 55.42,26.45 55.42,26.37 55.67,26.37 55.67,26.4 55.91,26.4 55.91,26.59 56.16,26.59 56.16,26.44 56.41,26.44 56.41,26.33 56.66,26.33 56.66,26.49 56.91,26.49 56.91,26.4 57.16,26.4 57.16,26.39 57.4,26.39 57.4,26.37 57.65,26.37 57.65,26.47 57.9,26.47 57.9,26.44 58.15,26.44 58.15,26.4 58.4,26.4 58.4,26.45 58.64,26.45 58.64,26.3 58.89,26.3 58.89,26.27 59.14,26.27 59.14,26.35 59.39,26.35 59.39,26.22 59.64,26.22 59.64,26.35 59.89,26.35 59.89,26.25 60.13,26.25 60.13,26.36 60.38,26.36 60.38,26.4 60.63,26.4 60.63,26.45 60.88,26.45 60.88,26.49 61.13,26.49 61.13,26.41 61.38,26.41 61.38,26.53 61.62,26.53 61.62,26.61 61.87,26.61 61.87,26.66 62.12,26.66 62.12,26.67 62.37,26.67 62.37,26.78 62.62,26.78 62.62,26.79 62.86,26.79 62.86,26.79 63.11,26.79 63.11,26.81 63.36,26.81 63.36,26.75 63.61,26.75 63.61,26.66 63.86,26.66 63.86,26.86 64.11,26.86 64.11,26.85 64.35,26.85 64.35,26.86 64.6,26.86 64.6,26.79 64.85,26.79 64.85,26.91 65.1,26.91 65.1,26.85 65.35,26.85 65.35,26.92 65.6,26.92 65.6,26.85 65.84,26.85 65.84,26.92 66.09,26.92 66.09,26.83 66.34,26.83 66.34,26.78 66.59,26.78 66.59,26.99 66.84,26.99 66.84,26.97 67.08,26.97 67.08,26.95 67.33,26.95 67.33,26.99 67.58,26.99 67.58,26.98 67.83,26.98 67.83,26.93 68.08,26.93 68.08,26.99 68.33,26.99 68.33,26.93 68.57,26.93 68.57,27.05 68.82,27.05 68.82,27 69.07,27 69.07,27.09 69.32,27.09 69.32,27.11 69.57,27.11 69.57,27.01 69.82,27.01 69.82,27.05 70.06,27.05 70.06,26.94 70.31,26.94 70.31,27.12 70.56,27.12 70.56,27.04 70.81,27.04 70.81,27.07 71.06,27.07 71.06,26.98 71.3,26.98 71.3,27.07 71.55,27.07 71.55,27.18 71.8,27.18 71.8,27.14 72.05,27.14 72.05,27.07 72.3,27.07 72.3,27.16 72.55,27.16 72.55,27.18 72.79,27.18 72.79,27.18 73.04,27.18 73.04,27.17 73.29,27.17 73.29,27.13 73.54,27.13 73.54,27.2 73.79,27.2 73.79,27.24 74.04,27.24 74.04,27.22 74.28,27.22 74.28,27.27 74.53,27.27 74.53,27.26 74.78,27.26 74.78,27.23 75.03,27.23 75.03,27.19 75.28,27.19 75.28,27.28 75.52,27.28 75.52,27.25 75.77,27.25 75.77,27.32 76.02,27.32 76.02,27.31 76.27,27.31 76.27,27.18 76.52,27.18 76.52,27.31 76.77,27.31 76.77,27.28 77.01,27.28 77.01,27.34 77.26,27.34 77.26,27.28 77.51,27.28 77.51,27.31 77.76,27.31 77.76,27.37 78.01,27.37 78.01,27.35 78.26,27.35 78.26,27.39 78.5,27.39 78.5,27.43 78.75,27.43 78.75,27.45 79,27.45 79,27.4 79.25,27.4 79.25,27.33 79.5,27.33 79.5,27.45 79.74,27.45 79.74,27.42 79.99,27.42 79.99,27.42 80.24,27.42 80.24,27.37 80.49,27.37 80.49,27.42 80.74,27.42 80.74,27.29 80.99,27.29 80.99,27.26 81.23,27.26 81.23,27.21 81.48,27.21 81.48,27.05 81.73,27.05 81.73,27.06 81.98,27.06 81.98,26.89 82.23,26.89 82.23,26.76 82.47,26.76 82.47,26.63 82.72,26.63 82.72,26.47 82.97,26.47 82.97,26.28 83.22,26.28 83.22,25.98 83.47,25.98 83.47,25.95 83.72,25.95 83.72,25.89 83.96,25.89 83.96,25.79 84.21,25.79 84.21,25.86 84.46,25.86 84.46,25.75 84.71,25.75 84.71,25.79 84.96,25.79 84.96,25.93 85.21,25.93 85.21,26.03 85.45,26.03 85.45,26.28 85.7,26.28 85.7,26.47 85.95,26.47 85.95,26.63 86.2,26.63 86.2,26.77 86.45,26.77 86.45,26.98 86.69,26.98 86.69,27.11 86.94,27.11 86.94,27.25 87.19,27.25 87.19,27.3 87.44,27.3 87.44,27.42 87.69,27.42 87.69,27.49 87.94,27.49 87.94,27.62 88.18,27.62 88.18,27.63 88.43,27.63 88.43,27.67 88.68,27.67 88.68,27.67 88.93,27.67 88.93,27.59 89.18,27.59 89.18,27.55 89.43,27.55 89.43,27.63 89.67,27.63 89.67,27.6 89.92,27.6 89.92,27.57 90.17,27.57 90.17,27.6 90.42,27.6 90.42,27.6 90.67,27.6 90.67,27.61 90.91,27.61 90.91,27.59 91.16,27.59 91.16,27.54 91.41,27.54 91.41,27.42 91.66,27.42 91.66,27.44 91.91,27.44 91.91,27.45 92.16,27.45 92.16,27.53 92.4,27.53 92.4,27.53 92.65,27.53 92.65,27.49 92.9,27.49 92.9,27.54 93.15,27.54 93.15,27.44 93.4,27.44 93.4,27.62 93.65,27.62 93.65,27.61 93.89,27.61 93.89,27.6 94.14,27.6 94.14,27.78 94.39,27.78 94.39,27.77 94.64,27.77 94.64,27.87 94.89,27.87 94.89,27.78 95.13,27.78 95.13,27.81 95.38,27.81 95.38,27.92 95.63,27.92 95.63,27.99 95.88,27.99 95.88,28 96.13,28 96.13,27.97 96.38,27.97 96.38,28.03 96.62,28.03 96.62,28 96.87,28 96.87,28.03 97.12,28.03 97.12,28.01 97.37,28.01 97.37,27.95 97.62,27.95 97.62,28.07 97.87,28.07 97.87,28.05 98.11,28.05 98.11,28.05 98.36,28.05 98.36,28.07 98.61,28.07 98.61,28.13 98.86,28.13 98.86,28.07 99.11,28.07 99.11,28 " class="primitive"/>
            </g>
          </g>
        </g>
      </g>
    </g>
  </g>
  <g class="guide ylabels" font-size="2.82" font-family="'PT Sans Caption','Helvetica Neue','Helvetica',sans-serif" fill="#6C606B" id="img-803a8d57-35">
    <g transform="translate(17.03,59.87)" id="img-803a8d57-36">
      <g class="primitive">
        <text text-anchor="end" dy="0.35em">0</text>
      </g>
    </g>
    <g transform="translate(17.03,30.01)" id="img-803a8d57-37">
      <g class="primitive">
        <text text-anchor="end" dy="0.35em">50000</text>
      </g>
    </g>
  </g>
  <g font-size="3.18" font-family="'PT Sans','Helvetica Neue','Helvetica',sans-serif" fill="#202020" stroke="#000000" stroke-opacity="0.000" id="img-803a8d57-38">
    <g transform="translate(4.18,29.29)" id="img-803a8d57-39">
      <g class="primitive">
        <text text-anchor="middle" dy="0.35em" transform="rotate(-90,0, 2)">Counts</text>
      </g>
    </g>
  </g>
</g>
<defs>
  <clipPath id="img-803a8d57-15">
    <path d="M18.03,0.71 L220.64,0.71 220.64,61.87 18.03,61.87 " />
  </clipPath>
</defs>
</svg>
