<?xml version="1.0" encoding="UTF-8"?>
<svg xmlns="http://www.w3.org/2000/svg"
     xmlns:xlink="http://www.w3.org/1999/xlink"
     xmlns:gadfly="http://www.gadflyjl.org/ns"
     version="1.2"
     width="254mm" height="76.2mm" viewBox="0 0 254 76.2"
     stroke="none"
     fill="#000000"
     stroke-width="0.3"
     font-size="3.88"
>
<defs>
  <marker id="arrow" markerWidth="15" markerHeight="7" refX="5" refY="3.5" orient="auto" markerUnits="strokeWidth">
    <path d="M0,0 L15,3.5 L0,7 z" stroke="context-stroke" fill="context-stroke"/>
  </marker>
</defs>
<g class="plotroot xscalable yscalable" id="img-9a5e620b-1">
  <g font-size="3.18" font-family="'PT Sans','Helvetica Neue','Helvetica',sans-serif" fill="#202020" stroke="#000000" stroke-opacity="0.000" id="img-9a5e620b-2">
    <g transform="translate(136.5,69.54)">
      <g class="primitive">
        <text text-anchor="middle" dy="0.6em">Energy (eV)</text>
      </g>
    </g>
  </g>
  <g class="guide xlabels" font-size="2.82" font-family="'PT Sans Caption','Helvetica Neue','Helvetica',sans-serif" fill="#6C606B" id="img-9a5e620b-3">
    <g transform="translate(21.7,62.87)">
      <g class="primitive">
        <text text-anchor="middle" dy="0.6em">0</text>
      </g>
    </g>
    <g transform="translate(79.1,62.87)">
      <g class="primitive">
        <text text-anchor="middle" dy="0.6em">2000</text>
      </g>
    </g>
    <g transform="translate(136.5,62.87)">
      <g class="primitive">
        <text text-anchor="middle" dy="0.6em">4000</text>
      </g>
    </g>
    <g transform="translate(193.9,62.87)">
      <g class="primitive">
        <text text-anchor="middle" dy="0.6em">6000</text>
      </g>
    </g>
    <g transform="translate(251.29,62.87)">
      <g class="primitive">
        <text text-anchor="middle" dy="0.6em">8000</text>
      </g>
    </g>
  </g>
  <g clip-path="url(#img-9a5e620b-4)">
    <g id="img-9a5e620b-5">
      <g pointer-events="visible" stroke-width="0.3" fill="#FDFDF1" stroke="#202020" class="guide background" id="img-9a5e620b-6">
        <g transform="translate(136.5,31.29)" id="img-9a5e620b-7">
          <path d="M-116.8,-30.58 L116.8,-30.58 116.8,30.58 -116.8,30.58  z" class="primitive"/>
        </g>
      </g>
      <g class="guide ygridlines xfixed" stroke-dasharray="none" stroke-width="0.2" stroke="#FFDFDF" id="img-9a5e620b-8">
        <g transform="translate(136.5,59.87)" id="img-9a5e620b-9">
          <path fill="none" d="M-116.8,0 L116.8,0 " class="primitive"/>
        </g>
        <g transform="translate(136.5,42.2)" id="img-9a5e620b-10">
          <path fill="none" d="M-116.8,0 L116.8,0 " class="primitive"/>
        </g>
        <g transform="translate(136.5,24.53)" id="img-9a5e620b-11">
          <path fill="none" d="M-116.8,0 L116.8,0 " class="primitive"/>
        </g>
        <g transform="translate(136.5,6.86)" id="img-9a5e620b-12">
          <path fill="none" d="M-116.8,0 L116.8,0 " class="primitive"/>
        </g>
      </g>
      <g class="guide xgridlines yfixed" stroke-dasharray="none" stroke-width="0.2" stroke="#FFDFDF" id="img-9a5e620b-13">
        <g transform="translate(21.7,31.29)" id="img-9a5e620b-14">
          <path fill="none" d="M0,-30.58 L0,30.58 " class="primitive"/>
        </g>
        <g transform="translate(79.1,31.29)" id="img-9a5e620b-15">
          <path fill="none" d="M0,-30.58 L0,30.58 " class="primitive"/>
        </g>
        <g transform="translate(136.5,31.29)" id="img-9a5e620b-16">
          <path fill="none" d="M0,-30.58 L0,30.58 " class="primitive"/>
        </g>
        <g transform="translate(193.9,31.29)" id="img-9a5e620b-17">
          <path fill="none" d="M0,-30.58 L0,30.58 " class="primitive"/>
        </g>
        <g transform="translate(251.29,31.29)" id="img-9a5e620b-18">
          <path fill="none" d="M0,-30.58 L0,30.58 " class="primitive"/>
        </g>
      </g>
      <g class="plotpanel" id="img-9a5e620b-19">
        <metadata>
          <boundingbox value="19.70055555555556mm 0.7055555555555555mm 233.5938888888889mm 61.16055555555556mm"/>
          <unitbox value="-69.68826599623972 167422.12399576243 8139.376531992479 -173082.0479915249"/>
        </metadata>
        <g stroke-width="0.3" fill="#000000" fill-opacity="0.000" class="geometry" id="img-9a5e620b-20">
          <g class="color_RGB{N0f8}(0.718,0.0,0.008)" stroke-dasharray="none" stroke-opacity="1" stroke="#B70002" id="img-9a5e620b-21">
            <g transform="translate(136.46,44.69)" id="img-9a5e620b-22">
              <path fill="none" d="M-114.71,15.17 L-114.42,15.17 -114.42,15.17 -114.13,15.17 -114.13,15.17 -113.85,15.17 -113.85,15.17 -113.56,15.17 -113.56,15.17 -113.27,15.17 -113.27,15.18 -112.99,15.18 -112.99,15.18 -112.7,15.18 -112.7,15.18 -112.41,15.18 -112.41,15.18 -112.13,15.18 -112.13,15.18 -111.84,15.18 -111.84,15.18 -111.55,15.18 -111.55,15.18 -111.27,15.18 -111.27,15.17 -110.98,15.17 -110.98,15.17 -110.69,15.17 -110.69,15.17 -110.4,15.17 -110.4,15.15 -110.12,15.15 -110.12,15.13 -109.83,15.13 -109.83,15.09 -109.54,15.09 -109.54,15.02 -109.26,15.02 -109.26,14.9 -108.97,14.9 -108.97,14.67 -108.68,14.67 -108.68,14.19 -108.4,14.19 -108.4,13.33 -108.11,13.33 -108.11,11.97 -107.82,11.97 -107.82,9.93 -107.53,9.93 -107.53,7.75 -107.25,7.75 -107.25,5.75 -106.96,5.75 -106.96,5.19 -106.67,5.19 -106.67,6.11 -106.39,6.11 -106.39,7.93 -106.1,7.93 -106.1,10.31 -105.81,10.31 -105.81,12.32 -105.53,12.32 -105.53,13.89 -105.24,13.89 -105.24,14.93 -104.95,14.93 -104.95,15.65 -104.67,15.65 -104.67,16.14 -104.38,16.14 -104.38,16.5 -104.09,16.5 -104.09,16.59 -103.8,16.59 -103.8,16.46 -103.52,16.46 -103.52,16.26 -103.23,16.26 -103.23,15.71 -102.94,15.71 -102.94,14.83 -102.66,14.83 -102.66,13.24 -102.37,13.24 -102.37,10.41 -102.08,10.41 -102.08,4.75 -101.8,4.75 -101.8,-6.57 -101.51,-6.57 -101.51,-27.6 -101.22,-27.6 -101.22,-63.55 -100.93,-63.55 -100.93,-118.23 -100.65,-118.23 -100.65,-188.46 -100.36,-188.46 -100.36,-260.21 -100.07,-260.21 -100.07,-312.49 -99.79,-312.49 -99.79,-324.85 -99.5,-324.85 -99.5,-290.95 -99.21,-290.95 -99.21,-225.28 -98.93,-225.28 -98.93,-148.47 -98.64,-148.47 -98.64,-81.72 -98.35,-81.72 -98.35,-34.97 -98.07,-34.97 -98.07,-7.4 -97.78,-7.4 -97.78,6.49 -97.49,6.49 -97.49,12.81 -97.2,12.81 -97.2,15.4 -96.92,15.4 -96.92,16.52 -96.63,16.52 -96.63,16.99 -96.34,16.99 -96.34,17.03 -96.06,17.03 -96.06,17.01 -95.77,17.01 -95.77,16.85 -95.48,16.85 -95.48,16.78 -95.2,16.78 -95.2,16.46 -94.91,16.46 -94.91,16.29 -94.62,16.29 -94.62,16.07 -94.34,16.07 -94.34,15.88 -94.05,15.88 -94.05,15.76 -93.76,15.76 -93.76,15.74 -93.47,15.74 -93.47,15.78 -93.19,15.78 -93.19,15.79 -92.9,15.79 -92.9,15.84 -92.61,15.84 -92.61,15.81 -92.33,15.81 -92.33,15.77 -92.04,15.77 -92.04,15.8 -91.75,15.8 -91.75,15.74 -91.47,15.74 -91.47,15.76 -91.18,15.76 -91.18,15.77 -90.89,15.77 -90.89,15.8 -90.6,15.8 -90.6,15.71 -90.32,15.71 -90.32,15.78 -90.03,15.78 -90.03,15.76 -89.74,15.76 -89.74,15.87 -89.46,15.87 -89.46,15.78 -89.17,15.78 -89.17,15.87 -88.88,15.87 -88.88,16.02 -88.6,16.02 -88.6,15.94 -88.31,15.94 -88.31,15.91 -88.02,15.91 -88.02,15.91 -87.74,15.91 -87.74,15.85 -87.45,15.85 -87.45,16 -87.16,16 -87.16,15.93 -86.87,15.93 -86.87,15.98 -86.59,15.98 -86.59,15.88 -86.3,15.88 -86.3,15.83 -86.01,15.83 -86.01,15.75 -85.73,15.75 -85.73,15.69 -85.44,15.69 -85.44,15.63 -85.15,15.63 -85.15,15.47 -84.87,15.47 -84.87,15.66 -84.58,15.66 -84.58,15.6 -84.29,15.6 -84.29,15.74 -84,15.74 -84,15.83 -83.72,15.83 -83.72,16.03 -83.43,16.03 -83.43,16 -83.14,16 -83.14,16.11 -82.86,16.11 -82.86,16.04 -82.57,16.04 -82.57,16.13 -82.28,16.13 -82.28,16.11 -82,16.11 -82,16.15 -81.71,16.15 -81.71,16.08 -81.42,16.08 -81.42,16.15 -81.14,16.15 -81.14,16.1 -80.85,16.1 -80.85,16.08 -80.56,16.08 -80.56,16.03 -80.27,16.03 -80.27,16.11 -79.99,16.11 -79.99,16.07 -79.7,16.07 -79.7,16.12 -79.41,16.12 -79.41,15.89 -79.13,15.89 -79.13,15.98 -78.84,15.98 -78.84,15.95 -78.55,15.95 -78.55,15.87 -78.27,15.87 -78.27,15.97 -77.98,15.97 -77.98,15.79 -77.69,15.79 -77.69,15.87 -77.4,15.87 -77.4,15.77 -77.12,15.77 -77.12,15.71 -76.83,15.71 -76.83,15.71 -76.54,15.71 -76.54,15.68 -76.26,15.68 -76.26,15.5 -75.97,15.5 -75.97,15.58 -75.68,15.58 -75.68,15.44 -75.4,15.44 -75.4,15.37 -75.11,15.37 -75.11,15.31 -74.82,15.31 -74.82,15.03 -74.54,15.03 -74.54,14.93 -74.25,14.93 -74.25,14.72 -73.96,14.72 -73.96,14.51 -73.67,14.51 -73.67,14.24 -73.39,14.24 -73.39,13.85 -73.1,13.85 -73.1,13.57 -72.81,13.57 -72.81,13.08 -72.53,13.08 -72.53,12.68 -72.24,12.68 -72.24,12.43 -71.95,12.43 -71.95,12.03 -71.67,12.03 -71.67,11.81 -71.38,11.81 -71.38,11.8 -71.09,11.8 -71.09,11.73 -70.81,11.73 -70.81,11.69 -70.52,11.69 -70.52,11.71 -70.23,11.71 -70.23,11.52 -69.94,11.52 -69.94,11.48 -69.66,11.48 -69.66,11.34 -69.37,11.34 -69.37,11.38 -69.08,11.38 -69.08,11.18 -68.8,11.18 -68.8,10.72 -68.51,10.72 -68.51,10.11 -68.22,10.11 -68.22,8.07 -67.94,8.07 -67.94,3.37 -67.65,3.37 -67.65,-7.08 -67.36,-7.08 -67.36,-28.32 -67.07,-28.32 -67.07,-68.49 -66.79,-68.49 -66.79,-136.78 -66.5,-136.78 -66.5,-242.82 -66.21,-242.82 -66.21,-389.02 -65.93,-389.02 -65.93,-572.52 -65.64,-572.52 -65.64,-769.3 -65.35,-769.3 -65.35,-948.55 -65.07,-948.55 -65.07,-1074.76 -64.78,-1074.76 -64.78,-1117.02 -64.49,-1117.02 -64.49,-1069.66 -64.21,-1069.66 -64.21,-943.69 -63.92,-943.69 -63.92,-768.68 -63.63,-768.68 -63.63,-578.82 -63.34,-578.82 -63.34,-406.59 -63.06,-406.59 -63.06,-270.1 -62.77,-270.1 -62.77,-172.06 -62.48,-172.06 -62.48,-107.98 -62.2,-107.98 -62.2,-68.64 -61.91,-68.64 -61.91,-44.36 -61.62,-44.36 -61.62,-28.4 -61.34,-28.4 -61.34,-16.67 -61.05,-16.67 -61.05,-7.44 -60.76,-7.44 -60.76,-0.16 -60.47,-0.16 -60.47,5.31 -60.19,5.31 -60.19,9.4 -59.9,9.4 -59.9,12.18 -59.61,12.18 -59.61,13.93 -59.33,13.93 -59.33,15.02 -59.04,15.02 -59.04,15.78 -58.75,15.78 -58.75,16.08 -58.47,16.08 -58.47,16.22 -58.18,16.22 -58.18,16.3 -57.89,16.3 -57.89,16.31 -57.61,16.31 -57.61,16.37 -57.32,16.37 -57.32,16.34 -57.03,16.34 -57.03,16.44 -56.74,16.44 -56.74,16.4 -56.46,16.4 -56.46,16.53 -56.17,16.53 -56.17,16.42 -55.88,16.42 -55.88,16.52 -55.6,16.52 -55.6,16.5 -55.31,16.5 -55.31,16.53 -55.02,16.53 -55.02,16.52 -54.74,16.52 -54.74,16.55 -54.45,16.55 -54.45,16.61 -54.16,16.61 -54.16,16.48 -53.88,16.48 -53.88,16.52 -53.59,16.52 -53.59,16.44 -53.3,16.44 -53.3,16.45 -53.01,16.45 -53.01,16.48 -52.73,16.48 -52.73,16.32 -52.44,16.32 -52.44,16.25 -52.15,16.25 -52.15,16.12 -51.87,16.12 -51.87,15.91 -51.58,15.91 -51.58,15.58 -51.29,15.58 -51.29,15.22 -51.01,15.22 -51.01,14.79 -50.72,14.79 -50.72,14.56 -50.43,14.56 -50.43,14.11 -50.14,14.11 -50.14,13.85 -49.86,13.85 -49.86,13.81 -49.57,13.81 -49.57,13.84 -49.28,13.84 -49.28,14.24 -49,14.24 -49,14.59 -48.71,14.59 -48.71,14.95 -48.42,14.95 -48.42,15.31 -48.14,15.31 -48.14,15.67 -47.85,15.67 -47.85,15.95 -47.56,15.95 -47.56,16.12 -47.28,16.12 -47.28,16.3 -46.99,16.3 -46.99,16.4 -46.7,16.4 -46.7,16.45 -46.41,16.45 -46.41,16.45 -46.13,16.45 -46.13,16.44 -45.84,16.44 -45.84,16.54 -45.55,16.54 -45.55,16.45 -45.27,16.45 -45.27,16.55 -44.98,16.55 -44.98,16.52 -44.69,16.52 -44.69,16.5 -44.41,16.5 -44.41,16.53 -44.12,16.53 -44.12,16.55 -43.83,16.55 -43.83,16.54 -43.54,16.54 -43.54,16.51 -43.26,16.51 -43.26,16.62 -42.97,16.62 -42.97,16.6 -42.68,16.6 -42.68,16.51 -42.4,16.51 -42.4,16.56 -42.11,16.56 -42.11,16.5 -41.82,16.5 -41.82,16.54 -41.54,16.54 -41.54,16.47 -41.25,16.47 -41.25,16.55 -40.96,16.55 -40.96,16.54 -40.68,16.54 -40.68,16.46 -40.39,16.46 -40.39,16.51 -40.1,16.51 -40.1,16.57 -39.81,16.57 -39.81,16.49 -39.53,16.49 -39.53,16.53 -39.24,16.53 -39.24,16.55 -38.95,16.55 -38.95,16.61 -38.67,16.61 -38.67,16.49 -38.38,16.49 -38.38,16.53 -38.09,16.53 -38.09,16.49 -37.81,16.49 -37.81,16.43 -37.52,16.43 -37.52,16.42 -37.23,16.42 -37.23,16.51 -36.94,16.51 -36.94,16.48 -36.66,16.48 -36.66,16.49 -36.37,16.49 -36.37,16.53 -36.08,16.53 -36.08,16.5 -35.8,16.5 -35.8,16.45 -35.51,16.45 -35.51,16.57 -35.22,16.57 -35.22,16.55 -34.94,16.55 -34.94,16.46 -34.65,16.46 -34.65,16.55 -34.36,16.55 -34.36,16.44 -34.08,16.44 -34.08,16.47 -33.79,16.47 -33.79,16.42 -33.5,16.42 -33.5,16.42 -33.21,16.42 -33.21,16.49 -32.93,16.49 -32.93,16.44 -32.64,16.44 -32.64,16.43 -32.35,16.43 -32.35,16.45 -32.07,16.45 -32.07,16.42 -31.78,16.42 -31.78,16.43 -31.49,16.43 -31.49,16.44 -31.21,16.44 -31.21,16.5 -30.92,16.5 -30.92,16.41 -30.63,16.41 -30.63,16.38 -30.35,16.38 -30.35,16.38 -30.06,16.38 -30.06,16.44 -29.77,16.44 -29.77,16.39 -29.48,16.39 -29.48,16.39 -29.2,16.39 -29.2,16.38 -28.91,16.38 -28.91,16.38 -28.62,16.38 -28.62,16.43 -28.34,16.43 -28.34,16.37 -28.05,16.37 -28.05,16.47 -27.76,16.47 -27.76,16.42 -27.48,16.42 -27.48,16.38 -27.19,16.38 -27.19,16.48 -26.9,16.48 -26.9,16.45 -26.61,16.45 -26.61,16.43 -26.33,16.43 -26.33,16.38 -26.04,16.38 -26.04,16.41 -25.75,16.41 -25.75,16.46 -25.47,16.46 -25.47,16.49 -25.18,16.49 -25.18,16.29 -24.89,16.29 -24.89,16.35 -24.61,16.35 -24.61,16.41 -24.32,16.41 -24.32,16.42 -24.03,16.42 -24.03,16.36 -23.75,16.36 -23.75,16.41 -23.46,16.41 -23.46,16.35 -23.17,16.35 -23.17,16.35 -22.88,16.35 -22.88,16.31 -22.6,16.31 -22.6,16.39 -22.31,16.39 -22.31,16.32 -22.02,16.32 -22.02,16.36 -21.74,16.36 -21.74,16.39 -21.45,16.39 -21.45,16.33 -21.16,16.33 -21.16,16.31 -20.88,16.31 -20.88,16.35 -20.59,16.35 -20.59,16.38 -20.3,16.38 -20.3,16.36 -20.01,16.36 -20.01,16.4 -19.73,16.4 -19.73,16.36 -19.44,16.36 -19.44,16.39 -19.15,16.39 -19.15,16.37 -18.87,16.37 -18.87,16.28 -18.58,16.28 -18.58,16.37 -18.29,16.37 -18.29,16.27 -18.01,16.27 -18.01,16.24 -17.72,16.24 -17.72,16.13 -17.43,16.13 -17.43,16.02 -17.15,16.02 -17.15,15.95 -16.86,15.95 -16.86,15.77 -16.57,15.77 -16.57,15.34 -16.28,15.34 -16.28,15.09 -16,15.09 -16,14.72 -15.71,14.72 -15.71,14.37 -15.42,14.37 -15.42,13.97 -15.14,13.97 -15.14,13.73 -14.85,13.73 -14.85,13.69 -14.56,13.69 -14.56,13.63 -14.28,13.63 -14.28,13.85 -13.99,13.85 -13.99,14.11 -13.7,14.11 -13.7,14.32 -13.41,14.32 -13.41,14.77 -13.13,14.77 -13.13,14.96 -12.84,14.96 -12.84,15.23 -12.55,15.23 -12.55,15.52 -12.27,15.52 -12.27,15.71 -11.98,15.71 -11.98,15.83 -11.69,15.83 -11.69,15.99 -11.41,15.99 -11.41,16.06 -11.12,16.06 -11.12,16.09 -10.83,16.09 -10.83,16.13 -10.55,16.13 -10.55,16.26 -10.26,16.26 -10.26,16.34 -9.97,16.34 -9.97,16.32 -9.68,16.32 -9.68,16.34 -9.4,16.34 -9.4,16.34 -9.11,16.34 -9.11,16.24 -8.82,16.24 -8.82,16.37 -8.54,16.37 -8.54,16.33 -8.25,16.33 -8.25,16.26 -7.96,16.26 -7.96,16.35 -7.68,16.35 -7.68,16.4 -7.39,16.4 -7.39,16.35 -7.1,16.35 -7.1,16.42 -6.82,16.42 -6.82,16.3 -6.53,16.3 -6.53,16.35 -6.24,16.35 -6.24,16.4 -5.95,16.4 -5.95,16.36 -5.67,16.36 -5.67,16.34 -5.38,16.34 -5.38,16.33 -5.09,16.33 -5.09,16.37 -4.81,16.37 -4.81,16.4 -4.52,16.4 -4.52,16.32 -4.23,16.32 -4.23,16.33 -3.95,16.33 -3.95,16.41 -3.66,16.41 -3.66,16.37 -3.37,16.37 -3.37,16.34 -3.08,16.34 -3.08,16.3 -2.8,16.3 -2.8,16.3 -2.51,16.3 -2.51,16.29 -2.22,16.29 -2.22,16.37 -1.94,16.37 -1.94,16.34 -1.65,16.34 -1.65,16.38 -1.36,16.38 -1.36,16.23 -1.08,16.23 -1.08,16.35 -0.79,16.35 -0.79,16.33 -0.5,16.33 -0.5,16.3 -0.22,16.3 -0.22,16.31 0.07,16.31 0.07,16.31 0.36,16.31 0.36,16.3 0.65,16.3 0.65,16.33 0.93,16.33 0.93,16.31 1.22,16.31 1.22,16.31 1.51,16.31 1.51,16.32 1.79,16.32 1.79,16.27 2.08,16.27 2.08,16.29 2.37,16.29 2.37,16.35 2.65,16.35 2.65,16.33 2.94,16.33 2.94,16.32 3.23,16.32 3.23,16.3 3.52,16.3 3.52,16.28 3.8,16.28 3.8,16.31 4.09,16.31 4.09,16.33 4.38,16.33 4.38,16.3 4.66,16.3 4.66,16.27 4.95,16.27 4.95,16.27 5.24,16.27 5.24,16.22 5.52,16.22 5.52,16.3 5.81,16.3 5.81,16.28 6.1,16.28 6.1,16.26 6.38,16.26 6.38,16.33 6.67,16.33 6.67,16.35 6.96,16.35 6.96,16.23 7.25,16.23 7.25,16.32 7.53,16.32 7.53,16.34 7.82,16.34 7.82,16.28 8.11,16.28 8.11,16.24 8.39,16.24 8.39,16.24 8.68,16.24 8.68,16.34 8.97,16.34 8.97,16.27 9.25,16.27 9.25,16.35 9.54,16.35 9.54,16.23 9.83,16.23 9.83,16.33 10.12,16.33 10.12,16.22 10.4,16.22 10.4,16.25 10.69,16.25 10.69,16.16 10.98,16.16 10.98,16.27 11.26,16.27 11.26,16.32 11.55,16.32 11.55,16.23 11.84,16.23 11.84,16.28 12.12,16.28 12.12,16.27 12.41,16.27 12.41,16.24 12.7,16.24 12.7,16.23 12.98,16.23 12.98,16.21 13.27,16.21 13.27,16.23 13.56,16.23 13.56,16.26 13.85,16.26 13.85,16.21 14.13,16.21 14.13,16.22 14.42,16.22 14.42,16.18 14.71,16.18 14.71,16.27 14.99,16.27 14.99,16.3 15.28,16.3 15.28,16.24 15.57,16.24 15.57,16.28 15.85,16.28 15.85,16.22 16.14,16.22 16.14,16.25 16.43,16.25 16.43,16.2 16.71,16.2 16.71,16.27 17,16.27 17,16.25 17.29,16.25 17.29,16.22 17.58,16.22 17.58,16.21 17.86,16.21 17.86,16.15 18.15,16.15 18.15,16.2 18.44,16.2 18.44,16.14 18.72,16.14 18.72,16.23 19.01,16.23 19.01,16.25 19.3,16.25 19.3,16.22 19.58,16.22 19.58,16.14 19.87,16.14 19.87,16.19 20.16,16.19 20.16,16.2 20.45,16.2 20.45,16.2 20.73,16.2 20.73,16.23 21.02,16.23 21.02,16.19 21.31,16.19 21.31,16.2 21.59,16.2 21.59,16.25 21.88,16.25 21.88,16.17 22.17,16.17 22.17,16.16 22.45,16.16 22.45,16.22 22.74,16.22 22.74,16.24 23.03,16.24 23.03,16.12 23.31,16.12 23.31,16.16 23.6,16.16 23.6,16.19 23.89,16.19 23.89,16.21 24.18,16.21 24.18,16.23 24.46,16.23 24.46,16.15 24.75,16.15 24.75,16.17 25.04,16.17 25.04,16.14 25.32,16.14 25.32,16.15 25.61,16.15 25.61,16.22 25.9,16.22 25.9,16.13 26.18,16.13 26.18,16.17 26.47,16.17 26.47,16.13 26.76,16.13 26.76,16.13 27.05,16.13 27.05,16.17 27.33,16.17 27.33,16.17 27.62,16.17 27.62,16.16 27.91,16.16 27.91,16.2 28.19,16.2 28.19,16.14 28.48,16.14 28.48,16.13 28.77,16.13 28.77,16.16 29.05,16.16 29.05,16.15 29.34,16.15 29.34,16.15 29.63,16.15 29.63,16.22 29.91,16.22 29.91,16.16 30.2,16.16 30.2,16.2 30.49,16.2 30.49,16.19 30.78,16.19 30.78,16.15 31.06,16.15 31.06,16.15 31.35,16.15 31.35,16.11 31.64,16.11 31.64,16.11 31.92,16.11 31.92,16.09 32.21,16.09 32.21,16.11 32.5,16.11 32.5,16.06 32.78,16.06 32.78,16.08 33.07,16.08 33.07,16.1 33.36,16.1 33.36,16.18 33.65,16.18 33.65,16.09 33.93,16.09 33.93,16.14 34.22,16.14 34.22,16.09 34.51,16.09 34.51,16.07 34.79,16.07 34.79,16.09 35.08,16.09 35.08,16.09 35.37,16.09 35.37,16.12 35.65,16.12 35.65,16.1 35.94,16.1 35.94,16.07 36.23,16.07 36.23,16.11 36.51,16.11 36.51,16.13 36.8,16.13 36.8,16.09 37.09,16.09 37.09,16.09 37.38,16.09 37.38,16.12 37.66,16.12 37.66,16.1 37.95,16.1 37.95,16.07 38.24,16.07 38.24,16.1 38.52,16.1 38.52,16.02 38.81,16.02 38.81,16.06 39.1,16.06 39.1,16.06 39.38,16.06 39.38,15.99 39.67,15.99 39.67,16.06 39.96,16.06 39.96,16.07 40.24,16.07 40.24,16.02 40.53,16.02 40.53,16.04 40.82,16.04 40.82,15.98 41.11,15.98 41.11,16.08 41.39,16.08 41.39,15.93 41.68,15.93 41.68,15.95 41.97,15.95 41.97,16.02 42.25,16.02 42.25,16.03 42.54,16.03 42.54,16.02 42.83,16.02 42.83,16.03 43.11,16.03 43.11,16.05 43.4,16.05 43.4,16.06 43.69,16.06 43.69,16.02 43.98,16.02 43.98,16.05 44.26,16.05 44.26,16.02 44.55,16.02 44.55,16.08 44.84,16.08 44.84,16 45.12,16 45.12,16.04 45.41,16.04 45.41,16.06 45.7,16.06 45.7,15.98 45.98,15.98 45.98,16.02 46.27,16.02 46.27,16.03 46.56,16.03 46.56,16.03 46.84,16.03 46.84,15.97 47.13,15.97 47.13,16.01 47.42,16.01 47.42,16.05 47.71,16.05 47.71,16.06 47.99,16.06 47.99,16.03 48.28,16.03 48.28,16.03 48.57,16.03 48.57,16.03 48.85,16.03 48.85,16.01 49.14,16.01 49.14,16 49.43,16 49.43,16.07 49.71,16.07 49.71,15.99 50,15.99 50,16.01 50.29,16.01 50.29,16.02 50.58,16.02 50.58,16.02 50.86,16.02 50.86,15.96 51.15,15.96 51.15,16.02 51.44,16.02 51.44,16.02 51.72,16.02 51.72,15.99 52.01,15.99 52.01,15.94 52.3,15.94 52.3,16.02 52.58,16.02 52.58,15.99 52.87,15.99 52.87,15.99 53.16,15.99 53.16,16.01 53.44,16.01 53.44,15.97 53.73,15.97 53.73,15.97 54.02,15.97 54.02,16.06 54.31,16.06 54.31,16.01 54.59,16.01 54.59,16.01 54.88,16.01 54.88,15.92 55.17,15.92 55.17,15.98 55.45,15.98 55.45,15.97 55.74,15.97 55.74,16.03 56.03,16.03 56.03,15.87 56.31,15.87 56.31,15.95 56.6,15.95 56.6,15.94 56.89,15.94 56.89,16 57.18,16 57.18,15.98 57.46,15.98 57.46,15.97 57.75,15.97 57.75,15.96 58.04,15.96 58.04,15.98 58.32,15.98 58.32,15.96 58.61,15.96 58.61,15.93 58.9,15.93 58.9,15.91 59.18,15.91 59.18,15.92 59.47,15.92 59.47,15.98 59.76,15.98 59.76,15.96 60.04,15.96 60.04,15.95 60.33,15.95 60.33,15.92 60.62,15.92 60.62,15.98 60.91,15.98 60.91,15.96 61.19,15.96 61.19,15.94 61.48,15.94 61.48,15.93 61.77,15.93 61.77,15.99 62.05,15.99 62.05,15.94 62.34,15.94 62.34,15.92 62.63,15.92 62.63,15.96 62.91,15.96 62.91,15.95 63.2,15.95 63.2,15.96 63.49,15.96 63.49,15.86 63.77,15.86 63.77,15.95 64.06,15.95 64.06,15.96 64.35,15.96 64.35,15.93 64.64,15.93 64.64,15.95 64.92,15.95 64.92,15.96 65.21,15.96 65.21,15.91 65.5,15.91 65.5,15.93 65.78,15.93 65.78,15.93 66.07,15.93 66.07,15.9 66.36,15.9 66.36,15.81 66.64,15.81 66.64,15.85 66.93,15.85 66.93,15.84 67.22,15.84 67.22,15.84 67.51,15.84 67.51,15.76 67.79,15.76 67.79,15.74 68.08,15.74 68.08,15.72 68.37,15.72 68.37,15.72 68.65,15.72 68.65,15.73 68.94,15.73 68.94,15.74 69.23,15.74 69.23,15.73 69.51,15.73 69.51,15.68 69.8,15.68 69.8,15.74 70.09,15.74 70.09,15.79 70.37,15.79 70.37,15.74 70.66,15.74 70.66,15.74 70.95,15.74 70.95,15.83 71.24,15.83 71.24,15.83 71.52,15.83 71.52,15.84 71.81,15.84 71.81,15.84 72.1,15.84 72.1,15.87 72.38,15.87 72.38,15.82 72.67,15.82 72.67,15.88 72.96,15.88 72.96,15.89 73.24,15.89 73.24,15.88 73.53,15.88 73.53,15.83 73.82,15.83 73.82,15.91 74.11,15.91 74.11,15.86 74.39,15.86 74.39,15.91 74.68,15.91 74.68,15.84 74.97,15.84 74.97,15.87 75.25,15.87 75.25,15.91 75.54,15.91 75.54,15.94 75.83,15.94 75.83,15.86 76.11,15.86 76.11,15.79 76.4,15.79 76.4,15.89 76.69,15.89 76.69,15.88 76.97,15.88 76.97,15.83 77.26,15.83 77.26,15.81 77.55,15.81 77.55,15.87 77.84,15.87 77.84,15.83 78.12,15.83 78.12,15.84 78.41,15.84 78.41,15.9 78.7,15.9 78.7,15.88 78.98,15.88 78.98,15.79 79.27,15.79 79.27,15.84 79.56,15.84 79.56,15.81 79.84,15.81 79.84,15.86 80.13,15.86 80.13,15.85 80.42,15.85 80.42,15.85 80.71,15.85 80.71,15.85 80.99,15.85 80.99,15.84 81.28,15.84 81.28,15.81 81.57,15.81 81.57,15.83 81.85,15.83 81.85,15.82 82.14,15.82 82.14,15.82 82.43,15.82 82.43,15.83 82.71,15.83 82.71,15.82 83,15.82 83,15.83 83.29,15.83 83.29,15.85 83.57,15.85 83.57,15.79 83.86,15.79 83.86,15.84 84.15,15.84 84.15,15.84 84.44,15.84 84.44,15.83 84.72,15.83 84.72,15.8 85.01,15.8 85.01,15.83 85.3,15.83 85.3,15.82 85.58,15.82 85.58,15.8 85.87,15.8 85.87,15.81 86.16,15.81 86.16,15.8 86.44,15.8 86.44,15.77 86.73,15.77 86.73,15.8 87.02,15.8 87.02,15.8 87.3,15.8 87.3,15.77 87.59,15.77 87.59,15.79 87.88,15.79 87.88,15.79 88.17,15.79 88.17,15.79 88.45,15.79 88.45,15.78 88.74,15.78 88.74,15.78 89.03,15.78 89.03,15.81 89.31,15.81 89.31,15.84 89.6,15.84 89.6,15.82 89.89,15.82 89.89,15.79 90.17,15.79 90.17,15.79 90.46,15.79 90.46,15.75 90.75,15.75 90.75,15.8 91.04,15.8 91.04,15.8 91.32,15.8 91.32,15.77 91.61,15.77 91.61,15.83 91.9,15.83 91.9,15.81 92.18,15.81 92.18,15.8 92.47,15.8 92.47,15.79 92.76,15.79 92.76,15.81 93.04,15.81 93.04,15.81 93.33,15.81 93.33,15.79 93.62,15.79 93.62,15.83 93.9,15.83 93.9,15.76 94.19,15.76 94.19,15.77 94.48,15.77 94.48,15.77 94.77,15.77 94.77,15.77 95.05,15.77 95.05,15.8 95.34,15.8 95.34,15.76 95.63,15.76 95.63,15.8 95.91,15.8 95.91,15.78 96.2,15.78 96.2,15.81 96.49,15.81 96.49,15.78 96.77,15.78 96.77,15.79 97.06,15.79 97.06,15.71 97.35,15.71 97.35,15.79 97.64,15.79 97.64,15.74 97.92,15.74 97.92,15.68 98.21,15.68 98.21,15.73 98.5,15.73 98.5,15.71 98.78,15.71 98.78,15.68 99.07,15.68 99.07,15.72 99.36,15.72 99.36,15.69 99.64,15.69 99.64,15.72 99.93,15.72 99.93,15.7 100.22,15.7 100.22,15.69 100.5,15.69 100.5,15.72 100.79,15.72 100.79,15.71 101.08,15.71 101.08,15.73 101.37,15.73 101.37,15.67 101.65,15.67 101.65,15.69 101.94,15.69 101.94,15.7 102.23,15.7 102.23,15.69 102.51,15.69 102.51,15.76 102.8,15.76 102.8,15.78 103.09,15.78 103.09,15.69 103.37,15.69 103.37,15.72 103.66,15.72 103.66,15.74 103.95,15.74 103.95,15.73 104.24,15.73 104.24,15.72 104.52,15.72 104.52,15.7 104.81,15.7 104.81,15.74 105.1,15.74 105.1,15.71 105.38,15.71 105.38,15.74 105.67,15.74 105.67,15.71 105.96,15.71 105.96,15.7 106.24,15.7 106.24,15.73 106.53,15.73 106.53,15.72 106.82,15.72 106.82,15.74 107.1,15.74 107.1,15.73 107.39,15.73 107.39,15.73 107.68,15.73 107.68,15.69 107.97,15.69 107.97,15.74 108.25,15.74 108.25,15.7 108.54,15.7 108.54,15.69 108.83,15.69 108.83,15.71 109.11,15.71 109.11,15.7 109.4,15.7 109.4,15.72 109.69,15.72 109.69,15.73 109.97,15.73 109.97,15.73 110.26,15.73 110.26,15.7 110.55,15.7 110.55,15.73 110.83,15.73 110.83,15.72 111.12,15.72 111.12,15.7 111.41,15.7 111.41,15.7 111.7,15.7 111.7,15.69 111.98,15.69 111.98,15.71 112.27,15.71 112.27,15.7 112.56,15.7 112.56,15.69 112.84,15.69 112.84,15.73 113.13,15.73 113.13,15.71 113.42,15.71 113.42,15.69 113.7,15.69 113.7,15.67 113.99,15.67 113.99,15.69 114.28,15.69 114.28,15.68 114.57,15.68 114.57,15.7 " class="primitive"/>
            </g>
          </g>
        </g>
        <g stroke-width="0.3" fill="#000000" fill-opacity="0.000" class="geometry" id="img-9a5e620b-23">
          <g class="color_RGB{N0f8}(0.063,0.306,0.545)" stroke-dasharray="none" stroke-opacity="1" stroke="#104E8B" id="img-9a5e620b-24">
            <g transform="translate(136.46,39.84)" id="img-9a5e620b-25">
              <path fill="none" d="M-114.71,20.02 L-114.42,20.02 -114.42,20.02 -114.13,20.02 -114.13,20.02 -113.85,20.02 -113.85,20.02 -113.56,20.02 -113.56,20.02 -113.27,20.02 -113.27,20.02 -112.99,20.02 -112.99,20.02 -112.7,20.02 -112.7,20.02 -112.41,20.02 -112.41,20.02 -112.13,20.02 -112.13,20.02 -111.84,20.02 -111.84,20.02 -111.55,20.02 -111.55,20.02 -111.27,20.02 -111.27,20.02 -110.98,20.02 -110.98,20.01 -110.69,20.01 -110.69,20.01 -110.4,20.01 -110.4,20 -110.12,20 -110.12,19.98 -109.83,19.98 -109.83,19.93 -109.54,19.93 -109.54,19.87 -109.26,19.87 -109.26,19.75 -108.97,19.75 -108.97,19.52 -108.68,19.52 -108.68,19.04 -108.4,19.04 -108.4,18.18 -108.11,18.18 -108.11,16.82 -107.82,16.82 -107.82,14.77 -107.53,14.77 -107.53,12.59 -107.25,12.59 -107.25,10.58 -106.96,10.58 -106.96,9.97 -106.67,9.97 -106.67,10.8 -106.39,10.8 -106.39,12.46 -106.1,12.46 -106.1,14.54 -105.81,14.54 -105.81,16.13 -105.53,16.13 -105.53,17.13 -105.24,17.13 -105.24,17.52 -104.95,17.52 -104.95,17.55 -104.67,17.55 -104.67,17.41 -104.38,17.41 -104.38,17.23 -104.09,17.23 -104.09,16.93 -103.8,16.93 -103.8,16.54 -103.52,16.54 -103.52,16.2 -103.23,16.2 -103.23,15.59 -102.94,15.59 -102.94,14.68 -102.66,14.68 -102.66,13.03 -102.37,13.03 -102.37,10.07 -102.08,10.07 -102.08,4.2 -101.8,4.2 -101.8,-7.4 -101.51,-7.4 -101.51,-28.73 -101.22,-28.73 -101.22,-64.97 -100.93,-64.97 -100.93,-119.88 -100.65,-119.88 -100.65,-190.19 -100.36,-190.19 -100.36,-261.82 -100.07,-261.82 -100.07,-313.75 -99.79,-313.75 -99.79,-325.57 -99.5,-325.57 -99.5,-291.03 -99.21,-291.03 -99.21,-224.76 -98.93,-224.76 -98.93,-147.5 -98.64,-147.5 -98.64,-80.54 -98.35,-80.54 -98.35,-33.79 -98.07,-33.79 -98.07,-6.38 -97.78,-6.38 -97.78,7.27 -97.49,7.27 -97.49,13.34 -97.2,13.34 -97.2,15.71 -96.92,15.71 -96.92,16.63 -96.63,16.63 -96.63,16.93 -96.34,16.93 -96.34,16.84 -96.06,16.84 -96.06,16.72 -95.77,16.72 -95.77,16.52 -95.48,16.52 -95.48,16.47 -95.2,16.47 -95.2,16.23 -94.91,16.23 -94.91,16.19 -94.62,16.19 -94.62,16.13 -94.34,16.13 -94.34,16.1 -94.05,16.1 -94.05,16.08 -93.76,16.08 -93.76,16.12 -93.47,16.12 -93.47,16.17 -93.19,16.17 -93.19,16.13 -92.9,16.13 -92.9,16.08 -92.61,16.08 -92.61,15.95 -92.33,15.95 -92.33,15.79 -92.04,15.79 -92.04,15.69 -91.75,15.69 -91.75,15.5 -91.47,15.5 -91.47,15.39 -91.18,15.39 -91.18,15.27 -90.89,15.27 -90.89,15.16 -90.6,15.16 -90.6,14.94 -90.32,14.94 -90.32,14.88 -90.03,14.88 -90.03,14.73 -89.74,14.73 -89.74,14.7 -89.46,14.7 -89.46,14.48 -89.17,14.48 -89.17,14.43 -88.88,14.43 -88.88,14.46 -88.6,14.46 -88.6,14.24 -88.31,14.24 -88.31,14.08 -88.02,14.08 -88.02,13.95 -87.74,13.95 -87.74,13.76 -87.45,13.76 -87.45,13.78 -87.16,13.78 -87.16,13.57 -86.87,13.57 -86.87,13.49 -86.59,13.49 -86.59,13.27 -86.3,13.27 -86.3,13.09 -86.01,13.09 -86.01,12.88 -85.73,12.88 -85.73,12.69 -85.44,12.69 -85.44,12.5 -85.15,12.5 -85.15,12.21 -84.87,12.21 -84.87,12.28 -84.58,12.28 -84.58,12.09 -84.29,12.09 -84.29,12.12 -84,12.12 -84,12.08 -83.72,12.08 -83.72,12.17 -83.43,12.17 -83.43,12.02 -83.14,12.02 -83.14,12.03 -82.86,12.03 -82.86,11.85 -82.57,11.85 -82.57,11.83 -82.28,11.83 -82.28,11.7 -82,11.7 -82,11.64 -81.71,11.64 -81.71,11.47 -81.42,11.47 -81.42,11.44 -81.14,11.44 -81.14,11.3 -80.85,11.3 -80.85,11.19 -80.56,11.19 -80.56,11.05 -80.27,11.05 -80.27,11.04 -79.99,11.04 -79.99,10.92 -79.7,10.92 -79.7,10.89 -79.41,10.89 -79.41,10.58 -79.13,10.58 -79.13,10.6 -78.84,10.6 -78.84,10.5 -78.55,10.5 -78.55,10.34 -78.27,10.34 -78.27,10.39 -77.98,10.39 -77.98,10.14 -77.69,10.14 -77.69,10.15 -77.4,10.15 -77.4,9.99 -77.12,9.99 -77.12,9.88 -76.83,9.88 -76.83,9.82 -76.54,9.82 -76.54,9.74 -76.26,9.74 -76.26,9.51 -75.97,9.51 -75.97,9.54 -75.68,9.54 -75.68,9.36 -75.4,9.36 -75.4,9.25 -75.11,9.25 -75.11,9.14 -74.82,9.14 -74.82,8.83 -74.54,8.83 -74.54,8.7 -74.25,8.7 -74.25,8.45 -73.96,8.45 -73.96,8.21 -73.67,8.21 -73.67,7.91 -73.39,7.91 -73.39,7.49 -73.1,7.49 -73.1,7.19 -72.81,7.19 -72.81,6.68 -72.53,6.68 -72.53,6.25 -72.24,6.25 -72.24,5.99 -71.95,5.99 -71.95,5.58 -71.67,5.58 -71.67,5.36 -71.38,5.36 -71.38,5.37 -71.09,5.37 -71.09,5.31 -70.81,5.31 -70.81,5.3 -70.52,5.3 -70.52,5.36 -70.23,5.36 -70.23,5.21 -69.94,5.21 -69.94,5.2 -69.66,5.2 -69.66,5.1 -69.37,5.1 -69.37,5.16 -69.08,5.16 -69.08,4.98 -68.8,4.98 -68.8,4.53 -68.51,4.53 -68.51,3.92 -68.22,3.92 -68.22,1.88 -67.94,1.88 -67.94,-2.82 -67.65,-2.82 -67.65,-13.28 -67.36,-13.28 -67.36,-34.52 -67.07,-34.52 -67.07,-74.7 -66.79,-74.7 -66.79,-142.98 -66.5,-142.98 -66.5,-249.02 -66.21,-249.02 -66.21,-395.22 -65.93,-395.22 -65.93,-578.72 -65.64,-578.72 -65.64,-775.49 -65.35,-775.49 -65.35,-954.73 -65.07,-954.73 -65.07,-1080.94 -64.78,-1080.94 -64.78,-1123.19 -64.49,-1123.19 -64.49,-1075.79 -64.21,-1075.79 -64.21,-949.79 -63.92,-949.79 -63.92,-774.7 -63.63,-774.7 -63.63,-584.73 -63.34,-584.73 -63.34,-412.33 -63.06,-412.33 -63.06,-275.6 -62.77,-275.6 -62.77,-177.23 -62.48,-177.23 -62.48,-112.75 -62.2,-112.75 -62.2,-72.94 -61.91,-72.94 -61.91,-48.15 -61.62,-48.15 -61.62,-31.67 -61.34,-31.67 -61.34,-19.45 -61.05,-19.45 -61.05,-9.78 -60.76,-9.78 -60.76,-2.16 -60.47,-2.16 -60.47,3.57 -60.19,3.57 -60.19,7.85 -59.9,7.85 -59.9,10.74 -59.61,10.74 -59.61,12.56 -59.33,12.56 -59.33,13.67 -59.04,13.67 -59.04,14.44 -58.75,14.44 -58.75,14.74 -58.47,14.74 -58.47,14.86 -58.18,14.86 -58.18,14.93 -57.89,14.93 -57.89,14.92 -57.61,14.92 -57.61,14.97 -57.32,14.97 -57.32,14.92 -57.03,14.92 -57.03,15 -56.74,15 -56.74,14.95 -56.46,14.95 -56.46,15.06 -56.17,15.06 -56.17,14.94 -55.88,14.94 -55.88,15.02 -55.6,15.02 -55.6,14.98 -55.31,14.98 -55.31,15 -55.02,15 -55.02,14.98 -54.74,14.98 -54.74,14.99 -54.45,14.99 -54.45,15.03 -54.16,15.03 -54.16,14.89 -53.88,14.89 -53.88,14.91 -53.59,14.91 -53.59,14.83 -53.3,14.83 -53.3,14.81 -53.01,14.81 -53.01,14.84 -52.73,14.84 -52.73,14.67 -52.44,14.67 -52.44,14.58 -52.15,14.58 -52.15,14.44 -51.87,14.44 -51.87,14.22 -51.58,14.22 -51.58,13.88 -51.29,13.88 -51.29,13.5 -51.01,13.5 -51.01,13.07 -50.72,13.07 -50.72,12.82 -50.43,12.82 -50.43,12.36 -50.14,12.36 -50.14,12.1 -49.86,12.1 -49.86,12.04 -49.57,12.04 -49.57,12.07 -49.28,12.07 -49.28,12.46 -49,12.46 -49,12.8 -48.71,12.8 -48.71,13.15 -48.42,13.15 -48.42,13.5 -48.14,13.5 -48.14,13.86 -47.85,13.86 -47.85,14.14 -47.56,14.14 -47.56,14.3 -47.28,14.3 -47.28,14.47 -46.99,14.47 -46.99,14.57 -46.7,14.57 -46.7,14.62 -46.41,14.62 -46.41,14.61 -46.13,14.61 -46.13,14.6 -45.84,14.6 -45.84,14.69 -45.55,14.69 -45.55,14.6 -45.27,14.6 -45.27,14.7 -44.98,14.7 -44.98,14.66 -44.69,14.66 -44.69,14.65 -44.41,14.65 -44.41,14.67 -44.12,14.67 -44.12,14.69 -43.83,14.69 -43.83,14.68 -43.54,14.68 -43.54,14.66 -43.26,14.66 -43.26,14.76 -42.97,14.76 -42.97,14.74 -42.68,14.74 -42.68,14.66 -42.4,14.66 -42.4,14.7 -42.11,14.7 -42.11,14.65 -41.82,14.65 -41.82,14.68 -41.54,14.68 -41.54,14.62 -41.25,14.62 -41.25,14.7 -40.96,14.7 -40.96,14.7 -40.68,14.7 -40.68,14.62 -40.39,14.62 -40.39,14.67 -40.1,14.67 -40.1,14.73 -39.81,14.73 -39.81,14.66 -39.53,14.66 -39.53,14.7 -39.24,14.7 -39.24,14.73 -38.95,14.73 -38.95,14.79 -38.67,14.79 -38.67,14.68 -38.38,14.68 -38.38,14.72 -38.09,14.72 -38.09,14.69 -37.81,14.69 -37.81,14.63 -37.52,14.63 -37.52,14.63 -37.23,14.63 -37.23,14.73 -36.94,14.73 -36.94,14.7 -36.66,14.7 -36.66,14.71 -36.37,14.71 -36.37,14.76 -36.08,14.76 -36.08,14.74 -35.8,14.74 -35.8,14.7 -35.51,14.7 -35.51,14.82 -35.22,14.82 -35.22,14.81 -34.94,14.81 -34.94,14.73 -34.65,14.73 -34.65,14.82 -34.36,14.82 -34.36,14.72 -34.08,14.72 -34.08,14.76 -33.79,14.76 -33.79,14.71 -33.5,14.71 -33.5,14.73 -33.21,14.73 -33.21,14.8 -32.93,14.8 -32.93,14.76 -32.64,14.76 -32.64,14.76 -32.35,14.76 -32.35,14.79 -32.07,14.79 -32.07,14.77 -31.78,14.77 -31.78,14.78 -31.49,14.78 -31.49,14.8 -31.21,14.8 -31.21,14.87 -30.92,14.87 -30.92,14.79 -30.63,14.79 -30.63,14.77 -30.35,14.77 -30.35,14.78 -30.06,14.78 -30.06,14.85 -29.77,14.85 -29.77,14.81 -29.48,14.81 -29.48,14.82 -29.2,14.82 -29.2,14.82 -28.91,14.82 -28.91,14.83 -28.62,14.83 -28.62,14.89 -28.34,14.89 -28.34,14.84 -28.05,14.84 -28.05,14.95 -27.76,14.95 -27.76,14.91 -27.48,14.91 -27.48,14.88 -27.19,14.88 -27.19,14.99 -26.9,14.99 -26.9,14.98 -26.61,14.98 -26.61,14.97 -26.33,14.97 -26.33,14.92 -26.04,14.92 -26.04,14.97 -25.75,14.97 -25.75,15.03 -25.47,15.03 -25.47,15.06 -25.18,15.06 -25.18,14.87 -24.89,14.87 -24.89,14.94 -24.61,14.94 -24.61,15.02 -24.32,15.02 -24.32,15.04 -24.03,15.04 -24.03,14.99 -23.75,14.99 -23.75,15.05 -23.46,15.05 -23.46,15 -23.17,15 -23.17,15.02 -22.88,15.02 -22.88,14.98 -22.6,14.98 -22.6,15.08 -22.31,15.08 -22.31,15.02 -22.02,15.02 -22.02,15.07 -21.74,15.07 -21.74,15.12 -21.45,15.12 -21.45,15.06 -21.16,15.06 -21.16,15.05 -20.88,15.05 -20.88,15.11 -20.59,15.11 -20.59,15.15 -20.3,15.15 -20.3,15.14 -20.01,15.14 -20.01,15.19 -19.73,15.19 -19.73,15.16 -19.44,15.16 -19.44,15.21 -19.15,15.21 -19.15,15.2 -18.87,15.2 -18.87,15.12 -18.58,15.12 -18.58,15.23 -18.29,15.23 -18.29,15.13 -18.01,15.13 -18.01,15.12 -17.72,15.12 -17.72,15.02 -17.43,15.02 -17.43,14.92 -17.15,14.92 -17.15,14.86 -16.86,14.86 -16.86,14.7 -16.57,14.7 -16.57,14.28 -16.28,14.28 -16.28,14.05 -16,14.05 -16,13.69 -15.71,13.69 -15.71,13.35 -15.42,13.35 -15.42,12.96 -15.14,12.96 -15.14,12.73 -14.85,12.73 -14.85,12.7 -14.56,12.7 -14.56,12.66 -14.28,12.66 -14.28,12.9 -13.99,12.9 -13.99,13.17 -13.7,13.17 -13.7,13.39 -13.41,13.39 -13.41,13.85 -13.13,13.85 -13.13,14.05 -12.84,14.05 -12.84,14.33 -12.55,14.33 -12.55,14.64 -12.27,14.64 -12.27,14.84 -11.98,14.84 -11.98,14.98 -11.69,14.98 -11.69,15.14 -11.41,15.14 -11.41,15.23 -11.12,15.23 -11.12,15.27 -10.83,15.27 -10.83,15.33 -10.55,15.33 -10.55,15.47 -10.26,15.47 -10.26,15.56 -9.97,15.56 -9.97,15.55 -9.68,15.55 -9.68,15.58 -9.4,15.58 -9.4,15.6 -9.11,15.6 -9.11,15.51 -8.82,15.51 -8.82,15.65 -8.54,15.65 -8.54,15.63 -8.25,15.63 -8.25,15.57 -7.96,15.57 -7.96,15.67 -7.68,15.67 -7.68,15.73 -7.39,15.73 -7.39,15.7 -7.1,15.7 -7.1,15.78 -6.82,15.78 -6.82,15.67 -6.53,15.67 -6.53,15.74 -6.24,15.74 -6.24,15.8 -5.95,15.8 -5.95,15.77 -5.67,15.77 -5.67,15.77 -5.38,15.77 -5.38,15.77 -5.09,15.77 -5.09,15.82 -4.81,15.82 -4.81,15.86 -4.52,15.86 -4.52,15.8 -4.23,15.8 -4.23,15.82 -3.95,15.82 -3.95,15.91 -3.66,15.91 -3.66,15.88 -3.37,15.88 -3.37,15.87 -3.08,15.87 -3.08,15.84 -2.8,15.84 -2.8,15.86 -2.51,15.86 -2.51,15.85 -2.22,15.85 -2.22,15.95 -1.94,15.95 -1.94,15.93 -1.65,15.93 -1.65,15.98 -1.36,15.98 -1.36,15.85 -1.08,15.85 -1.08,15.97 -0.79,15.97 -0.79,15.97 -0.5,15.97 -0.5,15.95 -0.22,15.95 -0.22,15.98 0.07,15.98 0.07,15.98 0.36,15.98 0.36,15.99 0.65,15.99 0.65,16.04 0.93,16.04 0.93,16.02 1.22,16.02 1.22,16.04 1.51,16.04 1.51,16.06 1.79,16.06 1.79,16.03 2.08,16.03 2.08,16.05 2.37,16.05 2.37,16.13 2.65,16.13 2.65,16.12 2.94,16.12 2.94,16.13 3.23,16.13 3.23,16.11 3.52,16.11 3.52,16.1 3.8,16.1 3.8,16.15 4.09,16.15 4.09,16.18 4.38,16.18 4.38,16.17 4.66,16.17 4.66,16.15 4.95,16.15 4.95,16.16 5.24,16.16 5.24,16.13 5.52,16.13 5.52,16.22 5.81,16.22 5.81,16.2 6.1,16.2 6.1,16.2 6.38,16.2 6.38,16.28 6.67,16.28 6.67,16.31 6.96,16.31 6.96,16.21 7.25,16.21 7.25,16.31 7.53,16.31 7.53,16.34 7.82,16.34 7.82,16.29 8.11,16.29 8.11,16.27 8.39,16.27 8.39,16.28 8.68,16.28 8.68,16.39 8.97,16.39 8.97,16.33 9.25,16.33 9.25,16.42 9.54,16.42 9.54,16.32 9.83,16.32 9.83,16.42 10.12,16.42 10.12,16.33 10.4,16.33 10.4,16.37 10.69,16.37 10.69,16.29 10.98,16.29 10.98,16.41 11.26,16.41 11.26,16.47 11.55,16.47 11.55,16.39 11.84,16.39 11.84,16.46 12.12,16.46 12.12,16.47 12.41,16.47 12.41,16.44 12.7,16.44 12.7,16.44 12.98,16.44 12.98,16.44 13.27,16.44 13.27,16.46 13.56,16.46 13.56,16.51 13.85,16.51 13.85,16.47 14.13,16.47 14.13,16.49 14.42,16.49 14.42,16.46 14.71,16.46 14.71,16.57 14.99,16.57 14.99,16.61 15.28,16.61 15.28,16.56 15.57,16.56 15.57,16.61 15.85,16.61 15.85,16.57 16.14,16.57 16.14,16.6 16.43,16.6 16.43,16.57 16.71,16.57 16.71,16.65 17,16.65 17,16.64 17.29,16.64 17.29,16.62 17.58,16.62 17.58,16.62 17.86,16.62 17.86,16.57 18.15,16.57 18.15,16.64 18.44,16.64 18.44,16.58 18.72,16.58 18.72,16.69 19.01,16.69 19.01,16.71 19.3,16.71 19.3,16.7 19.58,16.7 19.58,16.63 19.87,16.63 19.87,16.69 20.16,16.69 20.16,16.72 20.45,16.72 20.45,16.73 20.73,16.73 20.73,16.76 21.02,16.76 21.02,16.74 21.31,16.74 21.31,16.75 21.59,16.75 21.59,16.82 21.88,16.82 21.88,16.75 22.17,16.75 22.17,16.75 22.45,16.75 22.45,16.82 22.74,16.82 22.74,16.85 23.03,16.85 23.03,16.74 23.31,16.74 23.31,16.79 23.6,16.79 23.6,16.83 23.89,16.83 23.89,16.86 24.18,16.86 24.18,16.89 24.46,16.89 24.46,16.83 24.75,16.83 24.75,16.85 25.04,16.85 25.04,16.84 25.32,16.84 25.32,16.86 25.61,16.86 25.61,16.93 25.9,16.93 25.9,16.86 26.18,16.86 26.18,16.91 26.47,16.91 26.47,16.88 26.76,16.88 26.76,16.89 27.05,16.89 27.05,16.94 27.33,16.94 27.33,16.95 27.62,16.95 27.62,16.95 27.91,16.95 27.91,17 28.19,17 28.19,16.96 28.48,16.96 28.48,16.95 28.77,16.95 28.77,16.99 29.05,16.99 29.05,16.99 29.34,16.99 29.34,17 29.63,17 29.63,17.08 29.91,17.08 29.91,17.04 30.2,17.04 30.2,17.08 30.49,17.08 30.49,17.08 30.78,17.08 30.78,17.05 31.06,17.05 31.06,17.06 31.35,17.06 31.35,17.04 31.64,17.04 31.64,17.04 31.92,17.04 31.92,17.03 32.21,17.03 32.21,17.06 32.5,17.06 32.5,17.03 32.78,17.03 32.78,17.05 33.07,17.05 33.07,17.08 33.36,17.08 33.36,17.17 33.65,17.17 33.65,17.09 33.93,17.09 33.93,17.15 34.22,17.15 34.22,17.12 34.51,17.12 34.51,17.11 34.79,17.11 34.79,17.13 35.08,17.13 35.08,17.14 35.37,17.14 35.37,17.18 35.65,17.18 35.65,17.17 35.94,17.17 35.94,17.15 36.23,17.15 36.23,17.2 36.51,17.2 36.51,17.23 36.8,17.23 36.8,17.2 37.09,17.2 37.09,17.2 37.38,17.2 37.38,17.25 37.66,17.25 37.66,17.24 37.95,17.24 37.95,17.21 38.24,17.21 38.24,17.26 38.52,17.26 38.52,17.19 38.81,17.19 38.81,17.23 39.1,17.23 39.1,17.25 39.38,17.25 39.38,17.18 39.67,17.18 39.67,17.26 39.96,17.26 39.96,17.28 40.24,17.28 40.24,17.25 40.53,17.25 40.53,17.27 40.82,17.27 40.82,17.22 41.11,17.22 41.11,17.33 41.39,17.33 41.39,17.19 41.68,17.19 41.68,17.22 41.97,17.22 41.97,17.29 42.25,17.29 42.25,17.32 42.54,17.32 42.54,17.32 42.83,17.32 42.83,17.33 43.11,17.33 43.11,17.36 43.4,17.36 43.4,17.39 43.69,17.39 43.69,17.35 43.98,17.35 43.98,17.39 44.26,17.39 44.26,17.37 44.55,17.37 44.55,17.44 44.84,17.44 44.84,17.37 45.12,17.37 45.12,17.42 45.41,17.42 45.41,17.44 45.7,17.44 45.7,17.37 45.98,17.37 45.98,17.43 46.27,17.43 46.27,17.44 46.56,17.44 46.56,17.45 46.84,17.45 46.84,17.4 47.13,17.4 47.13,17.45 47.42,17.45 47.42,17.49 47.71,17.49 47.71,17.51 47.99,17.51 47.99,17.5 48.28,17.5 48.28,17.5 48.57,17.5 48.57,17.51 48.85,17.51 48.85,17.5 49.14,17.5 49.14,17.5 49.43,17.5 49.43,17.57 49.71,17.57 49.71,17.5 50,17.5 50,17.54 50.29,17.54 50.29,17.55 50.58,17.55 50.58,17.56 50.86,17.56 50.86,17.51 51.15,17.51 51.15,17.57 51.44,17.57 51.44,17.58 51.72,17.58 51.72,17.57 52.01,17.57 52.01,17.52 52.3,17.52 52.3,17.61 52.58,17.61 52.58,17.58 52.87,17.58 52.87,17.6 53.16,17.6 53.16,17.62 53.44,17.62 53.44,17.59 53.73,17.59 53.73,17.59 54.02,17.59 54.02,17.69 54.31,17.69 54.31,17.66 54.59,17.66 54.59,17.67 54.88,17.67 54.88,17.58 55.17,17.58 55.17,17.65 55.45,17.65 55.45,17.65 55.74,17.65 55.74,17.72 56.03,17.72 56.03,17.56 56.31,17.56 56.31,17.65 56.6,17.65 56.6,17.65 56.89,17.65 56.89,17.72 57.18,17.72 57.18,17.7 57.46,17.7 57.46,17.7 57.75,17.7 57.75,17.7 58.04,17.7 58.04,17.73 58.32,17.73 58.32,17.71 58.61,17.71 58.61,17.69 58.9,17.69 58.9,17.68 59.18,17.68 59.18,17.7 59.47,17.7 59.47,17.77 59.76,17.77 59.76,17.76 60.04,17.76 60.04,17.75 60.33,17.75 60.33,17.73 60.62,17.73 60.62,17.8 60.91,17.8 60.91,17.79 61.19,17.79 61.19,17.77 61.48,17.77 61.48,17.77 61.77,17.77 61.77,17.84 62.05,17.84 62.05,17.79 62.34,17.79 62.34,17.78 62.63,17.78 62.63,17.83 62.91,17.83 62.91,17.83 63.2,17.83 63.2,17.85 63.49,17.85 63.49,17.76 63.77,17.76 63.77,17.85 64.06,17.85 64.06,17.87 64.35,17.87 64.35,17.84 64.64,17.84 64.64,17.87 64.92,17.87 64.92,17.89 65.21,17.89 65.21,17.84 65.5,17.84 65.5,17.87 65.78,17.87 65.78,17.88 66.07,17.88 66.07,17.86 66.36,17.86 66.36,17.78 66.64,17.78 66.64,17.83 66.93,17.83 66.93,17.82 67.22,17.82 67.22,17.83 67.51,17.83 67.51,17.75 67.79,17.75 67.79,17.74 68.08,17.74 68.08,17.73 68.37,17.73 68.37,17.74 68.65,17.74 68.65,17.75 68.94,17.75 68.94,17.77 69.23,17.77 69.23,17.77 69.51,17.77 69.51,17.72 69.8,17.72 69.8,17.79 70.09,17.79 70.09,17.84 70.37,17.84 70.37,17.81 70.66,17.81 70.66,17.81 70.95,17.81 70.95,17.9 71.24,17.9 71.24,17.91 71.52,17.91 71.52,17.93 71.81,17.93 71.81,17.94 72.1,17.94 72.1,17.97 72.38,17.97 72.38,17.94 72.67,17.94 72.67,18 72.96,18 72.96,18.02 73.24,18.02 73.24,18.01 73.53,18.01 73.53,17.97 73.82,17.97 73.82,18.06 74.11,18.06 74.11,18.02 74.39,18.02 74.39,18.07 74.68,18.07 74.68,18 74.97,18 74.97,18.04 75.25,18.04 75.25,18.09 75.54,18.09 75.54,18.12 75.83,18.12 75.83,18.05 76.11,18.05 76.11,17.99 76.4,17.99 76.4,18.1 76.69,18.1 76.69,18.09 76.97,18.09 76.97,18.05 77.26,18.05 77.26,18.04 77.55,18.04 77.55,18.1 77.84,18.1 77.84,18.07 78.12,18.07 78.12,18.09 78.41,18.09 78.41,18.16 78.7,18.16 78.7,18.13 78.98,18.13 78.98,18.06 79.27,18.06 79.27,18.11 79.56,18.11 79.56,18.08 79.84,18.08 79.84,18.14 80.13,18.14 80.13,18.13 80.42,18.13 80.42,18.14 80.71,18.14 80.71,18.16 80.99,18.16 80.99,18.14 81.28,18.14 81.28,18.13 81.57,18.13 81.57,18.15 81.85,18.15 81.85,18.15 82.14,18.15 82.14,18.15 82.43,18.15 82.43,18.17 82.71,18.17 82.71,18.17 83,18.17 83,18.18 83.29,18.18 83.29,18.21 83.57,18.21 83.57,18.15 83.86,18.15 83.86,18.21 84.15,18.21 84.15,18.22 84.44,18.22 84.44,18.21 84.72,18.21 84.72,18.18 85.01,18.18 85.01,18.22 85.3,18.22 85.3,18.22 85.58,18.22 85.58,18.2 85.87,18.2 85.87,18.22 86.16,18.22 86.16,18.22 86.44,18.22 86.44,18.2 86.73,18.2 86.73,18.23 87.02,18.23 87.02,18.23 87.3,18.23 87.3,18.21 87.59,18.21 87.59,18.24 87.88,18.24 87.88,18.24 88.17,18.24 88.17,18.25 88.45,18.25 88.45,18.25 88.74,18.25 88.74,18.25 89.03,18.25 89.03,18.29 89.31,18.29 89.31,18.32 89.6,18.32 89.6,18.31 89.89,18.31 89.89,18.28 90.17,18.28 90.17,18.29 90.46,18.29 90.46,18.26 90.75,18.26 90.75,18.31 91.04,18.31 91.04,18.32 91.32,18.32 91.32,18.29 91.61,18.29 91.61,18.36 91.9,18.36 91.9,18.34 92.18,18.34 92.18,18.34 92.47,18.34 92.47,18.33 92.76,18.33 92.76,18.36 93.04,18.36 93.04,18.37 93.33,18.37 93.33,18.35 93.62,18.35 93.62,18.4 93.9,18.4 93.9,18.34 94.19,18.34 94.19,18.35 94.48,18.35 94.48,18.35 94.77,18.35 94.77,18.36 95.05,18.36 95.05,18.4 95.34,18.4 95.34,18.36 95.63,18.36 95.63,18.4 95.91,18.4 95.91,18.39 96.2,18.39 96.2,18.43 96.49,18.43 96.49,18.41 96.77,18.41 96.77,18.42 97.06,18.42 97.06,18.34 97.35,18.34 97.35,18.43 97.64,18.43 97.64,18.38 97.92,18.38 97.92,18.33 98.21,18.33 98.21,18.38 98.5,18.38 98.5,18.37 98.78,18.37 98.78,18.35 99.07,18.35 99.07,18.4 99.36,18.4 99.36,18.37 99.64,18.37 99.64,18.4 99.93,18.4 99.93,18.39 100.22,18.39 100.22,18.38 100.5,18.38 100.5,18.42 100.79,18.42 100.79,18.42 101.08,18.42 101.08,18.44 101.37,18.44 101.37,18.38 101.65,18.38 101.65,18.41 101.94,18.41 101.94,18.43 102.23,18.43 102.23,18.42 102.51,18.42 102.51,18.49 102.8,18.49 102.8,18.52 103.09,18.52 103.09,18.44 103.37,18.44 103.37,18.47 103.66,18.47 103.66,18.5 103.95,18.5 103.95,18.49 104.24,18.49 104.24,18.49 104.52,18.49 104.52,18.47 104.81,18.47 104.81,18.52 105.1,18.52 105.1,18.49 105.38,18.49 105.38,18.52 105.67,18.52 105.67,18.5 105.96,18.5 105.96,18.5 106.24,18.5 106.24,18.53 106.53,18.53 106.53,18.52 106.82,18.52 106.82,18.55 107.1,18.55 107.1,18.54 107.39,18.54 107.39,18.55 107.68,18.55 107.68,18.52 107.97,18.52 107.97,18.57 108.25,18.57 108.25,18.53 108.54,18.53 108.54,18.53 108.83,18.53 108.83,18.55 109.11,18.55 109.11,18.55 109.4,18.55 109.4,18.57 109.69,18.57 109.69,18.59 109.97,18.59 109.97,18.59 110.26,18.59 110.26,18.57 110.55,18.57 110.55,18.6 110.83,18.6 110.83,18.6 111.12,18.6 111.12,18.59 111.41,18.59 111.41,18.59 111.7,18.59 111.7,18.58 111.98,18.58 111.98,18.61 112.27,18.61 112.27,18.6 112.56,18.6 112.56,18.6 112.84,18.6 112.84,18.64 113.13,18.64 113.13,18.62 113.42,18.62 113.42,18.61 113.7,18.61 113.7,18.59 113.99,18.59 113.99,18.62 114.28,18.62 114.28,18.61 114.57,18.61 114.57,18.64 " class="primitive"/>
            </g>
          </g>
        </g>
      </g>
      <g class="guide colorkey" id="img-9a5e620b-26">
        <g fill="#4C404B" font-size="2.82" font-family="'PT Sans','Helvetica Neue','Helvetica',sans-serif" id="img-9a5e620b-27">
          <g transform="translate(211.2,31.7)" id="img-9a5e620b-28">
            <g class="primitive">
              <text dy="0.35em">SiO2 std</text>
            </g>
          </g>
          <g transform="translate(211.2,35.33)" id="img-9a5e620b-29">
            <g class="primitive">
              <text dy="0.35em">CharOnly[SiO2 std]</text>
            </g>
          </g>
        </g>
        <g stroke-width="0.3" id="img-9a5e620b-30">
          <g stroke="#FFFFFF" fill-opacity="1" fill="#B70002" id="img-9a5e620b-31">
            <g transform="translate(208.39,35.33)" id="img-9a5e620b-32">
              <circle cx="0" cy="0" r="0.9" class="primitive"/>
            </g>
          </g>
          <g stroke="#FFFFFF" fill-opacity="1" fill="#104E8B" id="img-9a5e620b-33">
            <g transform="translate(208.39,31.7)" id="img-9a5e620b-34">
              <circle cx="0" cy="0" r="0.9" class="primitive"/>
            </g>
          </g>
        </g>
        <g fill="#362A35" font-size="3.18" font-family="'PT Sans','Helvetica Neue','Helvetica',sans-serif" stroke="#000000" stroke-opacity="0.000" id="img-9a5e620b-35">
          <g transform="translate(207.58,28.39)" id="img-9a5e620b-36">
            <g class="primitive">
              <text dy="-0em">Spectra</text>
            </g>
          </g>
        </g>
      </g>
    </g>
  </g>
  <g class="guide ylabels" font-size="2.82" font-family="'PT Sans Caption','Helvetica Neue','Helvetica',sans-serif" fill="#6C606B" id="img-9a5e620b-37">
    <g transform="translate(18.7,59.87)" id="img-9a5e620b-38">
      <g class="primitive">
        <text text-anchor="end" dy="0.35em">0</text>
      </g>
    </g>
    <g transform="translate(18.7,42.2)" id="img-9a5e620b-39">
      <g class="primitive">
        <text text-anchor="end" dy="0.35em">50000</text>
      </g>
    </g>
    <g transform="translate(18.7,24.53)" id="img-9a5e620b-40">
      <g class="primitive">
        <text text-anchor="end" dy="0.35em">100000</text>
      </g>
    </g>
    <g transform="translate(18.7,6.86)" id="img-9a5e620b-41">
      <g class="primitive">
        <text text-anchor="end" dy="0.35em">150000</text>
      </g>
    </g>
  </g>
  <g font-size="3.18" font-family="'PT Sans','Helvetica Neue','Helvetica',sans-serif" fill="#202020" stroke="#000000" stroke-opacity="0.000" id="img-9a5e620b-42">
    <g transform="translate(4.18,29.29)" id="img-9a5e620b-43">
      <g class="primitive">
        <text text-anchor="middle" dy="0.35em" transform="rotate(-90,0, 2)">Counts</text>
      </g>
    </g>
  </g>
</g>
<defs>
  <clipPath id="img-9a5e620b-4">
    <path d="M19.7,0.71 L253.29,0.71 253.29,61.87 19.7,61.87 " />
  </clipPath>
</defs>
</svg>
