<?xml version="1.0" encoding="UTF-8"?>
<svg xmlns="http://www.w3.org/2000/svg"
     xmlns:xlink="http://www.w3.org/1999/xlink"
     xmlns:gadfly="http://www.gadflyjl.org/ns"
     version="1.2"
     width="254mm" height="76.2mm" viewBox="0 0 254 76.2"
     stroke="none"
     fill="#000000"
     stroke-width="0.3"
     font-size="3.88"
>
<defs>
  <marker id="arrow" markerWidth="15" markerHeight="7" refX="5" refY="3.5" orient="auto" markerUnits="strokeWidth">
    <path d="M0,0 L15,3.5 L0,7 z" stroke="context-stroke" fill="context-stroke"/>
  </marker>
</defs>
<g class="plotroot xscalable yscalable" id="img-94d1366f-1">
  <g font-size="3.88" font-family="'PT Sans','Helvetica Neue','Helvetica',sans-serif" fill="#564A55" stroke="#000000" stroke-opacity="0.000" id="img-94d1366f-2">
    <g transform="translate(139.61,64.59)">
      <g class="primitive">
        <text text-anchor="middle" dy="0.6em">Channel</text>
      </g>
    </g>
  </g>
  <g class="guide xlabels" font-size="2.82" font-family="'PT Sans Caption','Helvetica Neue','Helvetica',sans-serif" fill="#6C606B" id="img-94d1366f-3">
    <g transform="translate(32.21,57.91)">
      <g class="primitive">
        <text text-anchor="middle" dy="0.6em">0</text>
      </g>
    </g>
    <g transform="translate(85.91,57.91)">
      <g class="primitive">
        <text text-anchor="middle" dy="0.6em">200</text>
      </g>
    </g>
    <g transform="translate(139.61,57.91)">
      <g class="primitive">
        <text text-anchor="middle" dy="0.6em">400</text>
      </g>
    </g>
    <g transform="translate(193.3,57.91)">
      <g class="primitive">
        <text text-anchor="middle" dy="0.6em">600</text>
      </g>
    </g>
    <g transform="translate(247,57.91)">
      <g class="primitive">
        <text text-anchor="middle" dy="0.6em">800</text>
      </g>
    </g>
  </g>
  <g clip-path="url(#img-94d1366f-4)">
    <g id="img-94d1366f-5">
      <g pointer-events="visible" stroke-width="0.3" fill="#000000" fill-opacity="0.000" stroke="#000000" stroke-opacity="0.000" class="guide background" id="img-94d1366f-6">
        <g transform="translate(139.61,30.96)" id="img-94d1366f-7">
          <path d="M-109.39,-25.96 L109.39,-25.96 109.39,25.96 -109.39,25.96  z" class="primitive"/>
        </g>
      </g>
      <g class="guide ygridlines xfixed" stroke-dasharray="0.5,0.5" stroke-width="0.2" stroke="#D0D0E0" id="img-94d1366f-8">
        <g transform="translate(139.61,54.91)" id="img-94d1366f-9">
          <path fill="none" d="M-109.39,0 L109.39,0 " class="primitive"/>
        </g>
        <g transform="translate(139.61,38.94)" id="img-94d1366f-10">
          <path fill="none" d="M-109.39,0 L109.39,0 " class="primitive"/>
        </g>
        <g transform="translate(139.61,22.97)" id="img-94d1366f-11">
          <path fill="none" d="M-109.39,0 L109.39,0 " class="primitive"/>
        </g>
        <g transform="translate(139.61,7)" id="img-94d1366f-12">
          <path fill="none" d="M-109.39,0 L109.39,0 " class="primitive"/>
        </g>
      </g>
      <g class="guide xgridlines yfixed" stroke-dasharray="0.5,0.5" stroke-width="0.2" stroke="#D0D0E0" id="img-94d1366f-13">
        <g transform="translate(32.21,30.96)" id="img-94d1366f-14">
          <path fill="none" d="M0,-25.96 L0,25.96 " class="primitive"/>
        </g>
        <g transform="translate(85.91,30.96)" id="img-94d1366f-15">
          <path fill="none" d="M0,-25.96 L0,25.96 " class="primitive"/>
        </g>
        <g transform="translate(139.61,30.96)" id="img-94d1366f-16">
          <path fill="none" d="M0,-25.96 L0,25.96 " class="primitive"/>
        </g>
        <g transform="translate(193.3,30.96)" id="img-94d1366f-17">
          <path fill="none" d="M0,-25.96 L0,25.96 " class="primitive"/>
        </g>
        <g transform="translate(247,30.96)" id="img-94d1366f-18">
          <path fill="none" d="M0,-25.96 L0,25.96 " class="primitive"/>
        </g>
      </g>
      <g class="plotpanel" id="img-94d1366f-19">
        <metadata>
          <boundingbox value="30.211666666666673mm 5.0mm 218.78833333333333mm 51.91499999999999mm"/>
          <unitbox value="-7.449194167901734 1.0626108734216845e-6 814.8983883358035 -1.625221746843369e-6"/>
        </metadata>
        <g stroke-width="0.3" fill="#000000" fill-opacity="0.000" class="geometry" id="img-94d1366f-20">
          <g class="color_RGB{Float64}(0.611005493077889,0.611005535205774,0.611005495496397)" stroke-dasharray="none" stroke-opacity="1" stroke="#9C9C9C" id="img-94d1366f-21">
            <g transform="translate(139.74,38.94)" id="img-94d1366f-22">
              <path fill="none" d="M-107.26,0 L-106.99,0 -106.72,0 -106.45,0 -106.19,0 -105.92,0 -105.65,0 -105.38,0 -105.11,0 -104.84,0 -104.58,0 -104.31,0 -104.04,0 -103.77,0 -103.5,0 -103.23,0 -102.96,0 -102.7,0 -102.43,0 -102.16,0 -101.89,0 -101.62,0 -101.35,0 -101.08,0 -100.82,0 -100.55,0 -100.28,0 -100.01,0 -99.74,0 -99.47,0 -99.21,0 -98.94,0 -98.67,0 -98.4,0 -98.13,0 -97.86,0 -97.59,0 -97.33,0 -97.06,0 -96.79,0 -96.52,0 -96.25,0 -95.98,0 -95.72,0 -95.45,0 -95.18,0 -94.91,0 -94.64,0 -94.37,0 -94.1,0 -93.84,0 -93.57,0 -93.3,0 -93.03,0 -92.76,0 -92.49,0 -92.22,0 -91.96,0 -91.69,0 -91.42,0 -91.15,0 -90.88,0 -90.61,0 -90.35,0 -90.08,0 -89.81,0 -89.54,0 -89.27,0 -89,0 -88.73,0 -88.47,0 -88.2,0 -87.93,0 -87.66,0 -87.39,0 -87.12,0 -86.86,0 -86.59,0 -86.32,0 -86.05,0 -85.78,0 -85.51,0 -85.24,0 -84.98,0 -84.71,0 -84.44,0 -84.17,0 -83.9,0 -83.63,0 -83.36,0 -83.1,0 -82.83,0 -82.56,0 -82.29,0 -82.02,0 -81.75,0 -81.49,0 -81.22,0 -80.95,0 -80.68,0 -80.41,0 -80.14,0 -79.87,0 -79.61,0 -79.34,0 -79.07,0 -78.8,0 -78.53,0 -78.26,0 -78,0 -77.73,0 -77.46,0 -77.19,0 -76.92,0 -76.65,0 -76.38,0 -76.12,0 -75.85,0 -75.58,0 -75.31,0 -75.04,0 -74.77,0 -74.5,0 -74.24,0 -73.97,0 -73.7,0 -73.43,0 -73.16,0 -72.89,0 -72.63,0 -72.36,0 -72.09,0 -71.82,0 -71.55,0 -71.28,0 -71.01,0 -70.75,0 -70.48,0 -70.21,0 -69.94,0 -69.67,0 -69.4,0 -69.13,0 -68.87,0 -68.6,0 -68.33,0 -68.06,0 -67.79,0 -67.52,0 -67.26,0 -66.99,0 -66.72,0 -66.45,0 -66.18,0 -65.91,0 -65.64,0 -65.38,0 -65.11,0 -64.84,0 -64.57,0 -64.3,0 -64.03,0 -63.77,0 -63.5,0 -63.23,0 -62.96,0 -62.69,0 -62.42,0 -62.15,0 -61.89,0 -61.62,0 -61.35,0 -61.08,0 -60.81,0 -60.54,0 -60.27,0 -60.01,0 -59.74,0 -59.47,0 -59.2,0 -58.93,0 -58.66,0 -58.4,0 -58.13,0 -57.86,0 -57.59,0 -57.32,0 -57.05,0 -56.78,0 -56.52,0 -56.25,0 -55.98,0 -55.71,0 -55.44,0 -55.17,0 -54.91,0 -54.64,0 -54.37,0 -54.1,0 -53.83,0 -53.56,0 -53.29,0 -53.03,0 -52.76,0 -52.49,0 -52.22,0 -51.95,0 -51.68,0 -51.41,0 -51.15,0 -50.88,0 -50.61,0 -50.34,0 -50.07,0 -49.8,0 -49.54,0 -49.27,0 -49,0 -48.73,0 -48.46,0 -48.19,0 -47.92,0 -47.66,0 -47.39,0 -47.12,0 -46.85,0 -46.58,0 -46.31,0 -46.05,0 -45.78,0 -45.51,0 -45.24,0 -44.97,0 -44.7,0 -44.43,0 -44.17,0 -43.9,0 -43.63,0 -43.36,0 -43.09,0 -42.82,0 -42.55,0 -42.29,0 -42.02,0 -41.75,0 -41.48,0 -41.21,0 -40.94,0 -40.68,0 -40.41,0 -40.14,0 -39.87,0 -39.6,0 -39.33,0 -39.06,0 -38.8,0 -38.53,0 -38.26,0 -37.99,0 -37.72,0 -37.45,0 -37.19,0 -36.92,0 -36.65,0 -36.38,0 -36.11,0 -35.84,0 -35.57,0 -35.31,0 -35.04,0 -34.77,0 -34.5,0 -34.23,0 -33.96,0 -33.69,0 -33.43,0 -33.16,0 -32.89,0 -32.62,0 -32.35,0 -32.08,0 -31.82,0 -31.55,0 -31.28,0 -31.01,0 -30.74,0 -30.47,0 -30.2,0 -29.94,0 -29.67,0 -29.4,0 -29.13,0 -28.86,0 -28.59,0 -28.33,0 -28.06,0 -27.79,0 -27.52,0 -27.25,0 -26.98,0 -26.71,0 -26.45,0 -26.18,0 -25.91,0 -25.64,0 -25.37,0 -25.1,0 -24.83,0 -24.57,0 -24.3,0 -24.03,0 -23.76,0 -23.49,0 -23.22,0 -22.96,0 -22.69,0 -22.42,0 -22.15,-0 -21.88,-0 -21.61,-0 -21.34,-0 -21.08,-0 -20.81,-0 -20.54,-0 -20.27,-0 -20,-0 -19.73,-0 -19.47,-0 -19.2,-0 -18.93,-0.01 -18.66,-0.01 -18.39,-0.02 -18.12,-0.03 -17.85,-0.04 -17.59,-0.06 -17.32,-0.08 -17.05,-0.11 -16.78,-0.14 -16.51,-0.18 -16.24,-0.22 -15.97,-0.26 -15.71,-0.3 -15.44,-0.33 -15.17,-0.34 -14.9,-0.33 -14.63,-0.29 -14.36,-0.22 -14.1,-0.11 -13.83,0.04 -13.56,0.22 -13.29,0.43 -13.02,0.66 -12.75,0.89 -12.48,1.12 -12.22,1.31 -11.95,1.45 -11.68,1.53 -11.41,1.52 -11.14,1.42 -10.87,1.23 -10.61,0.94 -10.34,0.57 -10.07,0.13 -9.8,-0.34 -9.53,-0.83 -9.26,-1.29 -8.99,-1.7 -8.73,-2.04 -8.46,-2.27 -8.19,-2.38 -7.92,-2.37 -7.65,-2.23 -7.38,-1.98 -7.11,-1.63 -6.85,-1.21 -6.58,-0.75 -6.31,-0.27 -6.04,0.2 -5.77,0.63 -5.5,0.99 -5.24,1.28 -4.97,1.48 -4.7,1.59 -4.43,1.61 -4.16,1.56 -3.89,1.44 -3.62,1.27 -3.36,1.07 -3.09,0.85 -2.82,0.63 -2.55,0.41 -2.28,0.21 -2.01,0.02 -1.75,-0.13 -1.48,-0.26 -1.21,-0.36 -0.94,-0.43 -0.67,-0.48 -0.4,-0.51 -0.13,-0.52 0.13,-0.51 0.4,-0.48 0.67,-0.45 0.94,-0.4 1.21,-0.34 1.48,-0.28 1.75,-0.21 2.01,-0.14 2.28,-0.08 2.55,-0.02 2.82,0.04 3.09,0.09 3.36,0.13 3.62,0.16 3.89,0.17 4.16,0.18 4.43,0.18 4.7,0.17 4.97,0.15 5.24,0.13 5.5,0.1 5.77,0.08 6.04,0.05 6.31,0.03 6.58,0.01 6.85,-0.01 7.11,-0.02 7.38,-0.03 7.65,-0.04 7.92,-0.04 8.19,-0.04 8.46,-0.04 8.73,-0.04 8.99,-0.03 9.26,-0.03 9.53,-0.02 9.8,-0.02 10.07,-0.01 10.34,-0.01 10.61,-0.01 10.87,-0.01 11.14,-0 11.41,-0 11.68,-0 11.95,-0 12.22,-0 12.48,-0 12.75,-0 13.02,-0 13.29,-0 13.56,-0 13.83,-0 14.1,-0 14.36,-0 14.63,-0 14.9,-0 15.17,-0 15.44,0 15.71,0 15.97,0 16.24,0 16.51,0 16.78,0 17.05,0 17.32,0 17.59,0 17.85,0 18.12,0 18.39,0 18.66,0 18.93,0 19.2,0 19.47,0 19.73,0 20,0 20.27,0 20.54,0 20.81,0 21.08,0 21.34,0 21.61,0 21.88,0 22.15,0 22.42,0 22.69,0 22.96,0 23.22,0 23.49,0 23.76,0 24.03,0 24.3,0 24.57,0 24.83,0 25.1,0 25.37,0 25.64,0 25.91,0 26.18,0 26.45,0 26.71,0 26.98,0 27.25,0 27.52,0 27.79,0 28.06,0 28.33,0 28.59,0 28.86,0 29.13,0 29.4,0 29.67,0 29.94,0 30.2,0 30.47,0 30.74,0 31.01,0 31.28,0 31.55,0 31.82,0 32.08,0 32.35,0 32.62,0 32.89,0 33.16,0 33.43,0 33.69,0 33.96,0 34.23,0 34.5,0 34.77,0 35.04,0 35.31,0 35.57,0 35.84,0 36.11,0 36.38,0 36.65,0 36.92,0 37.19,0 37.45,0 37.72,0 37.99,0 38.26,0 38.53,0 38.8,0 39.06,0 39.33,0 39.6,0 39.87,0 40.14,0 40.41,0 40.68,0 40.94,0 41.21,0 41.48,0 41.75,0 42.02,0 42.29,0 42.55,0 42.82,0 43.09,0 43.36,0 43.63,0 43.9,0 44.17,0 44.43,0 44.7,0 44.97,0 45.24,0 45.51,0 45.78,0 46.05,0 46.31,0 46.58,0 46.85,0 47.12,0 47.39,0 47.66,0 47.92,0 48.19,0 48.46,0 48.73,0 49,0 49.27,0 49.54,0 49.8,0 50.07,0 50.34,0 50.61,0 50.88,0 51.15,0 51.41,0 51.68,0 51.95,0 52.22,0 52.49,0 52.76,0 53.03,0 53.29,0 53.56,0 53.83,0 54.1,0 54.37,0 54.64,0 54.91,0 55.17,0 55.44,0 55.71,0 55.98,0 56.25,0 56.52,0 56.78,0 57.05,0 57.32,0 57.59,0 57.86,0 58.13,0 58.4,0 58.66,0 58.93,0 59.2,0 59.47,0 59.74,0 60.01,0 60.27,0 60.54,0 60.81,0 61.08,0 61.35,0 61.62,0 61.89,0 62.15,0 62.42,0 62.69,0 62.96,0 63.23,0 63.5,0 63.77,0 64.03,0 64.3,0 64.57,0 64.84,0 65.11,0 65.38,0 65.64,0 65.91,0 66.18,0 66.45,0 66.72,0 66.99,0 67.26,0 67.52,0 67.79,0 68.06,0 68.33,0 68.6,0 68.87,0 69.13,0 69.4,0 69.67,0 69.94,0 70.21,0 70.48,0 70.75,0 71.01,0 71.28,0 71.55,0 71.82,0 72.09,0 72.36,0 72.63,0 72.89,0 73.16,0 73.43,0 73.7,0 73.97,0 74.24,0 74.5,0 74.77,0 75.04,0 75.31,0 75.58,0 75.85,0 76.12,0 76.38,0 76.65,0 76.92,0 77.19,0 77.46,0 77.73,0 78,0 78.26,0 78.53,0 78.8,0 79.07,0 79.34,0 79.61,0 79.87,0 80.14,0 80.41,0 80.68,0 80.95,0 81.22,0 81.49,0 81.75,0 82.02,0 82.29,0 82.56,0 82.83,0 83.1,0 83.36,0 83.63,0 83.9,0 84.17,0 84.44,0 84.71,0 84.98,0 85.24,0 85.51,0 85.78,0 86.05,0 86.32,0 86.59,0 86.86,0 87.12,0 87.39,0 87.66,0 87.93,0 88.2,0 88.47,0 88.73,0 89,0 89.27,0 89.54,0 89.81,0 90.08,0 90.35,0 90.61,0 90.88,0 91.15,0 91.42,0 91.69,0 91.96,0 92.22,0 92.49,0 92.76,0 93.03,0 93.3,0 93.57,0 93.84,0 94.1,0 94.37,0 94.64,0 94.91,0 95.18,0 95.45,0 95.72,0 95.98,0 96.25,0 96.52,0 96.79,0 97.06,0 97.33,0 97.59,0 97.86,0 98.13,0 98.4,0 98.67,0 98.94,0 99.21,0 99.47,0 99.74,0 100.01,0 100.28,0 100.55,0 100.82,0 101.08,0 101.35,0 101.62,0 101.89,0 102.16,0 102.43,0 102.7,0 102.96,0 103.23,0 103.5,0 103.77,0 104.04,0 104.31,0 104.58,0 104.84,0 105.11,0 105.38,0 105.65,0 105.92,0 106.19,0 106.45,0 106.72,0 106.99,0 107.26,0 " class="primitive"/>
            </g>
          </g>
        </g>
        <g stroke-width="0.3" fill="#000000" fill-opacity="0.000" class="geometry" id="img-94d1366f-23">
          <g class="color_RGB{Float64}(0.36072361084712,1.8219952808935574e-7,0.0)" stroke-dasharray="none" stroke-opacity="1" stroke="#5C0000" id="img-94d1366f-24">
            <g transform="translate(139.74,38.94)" id="img-94d1366f-25">
              <path fill="none" d="M-107.26,0 L-106.99,0 -106.72,0 -106.45,0 -106.19,0 -105.92,0 -105.65,0 -105.38,0 -105.11,0 -104.84,0 -104.58,0 -104.31,0 -104.04,0 -103.77,0 -103.5,0 -103.23,0 -102.96,0 -102.7,0 -102.43,0 -102.16,0 -101.89,-0 -101.62,-0 -101.35,-0 -101.08,-0 -100.82,-0 -100.55,-0 -100.28,-0 -100.01,-0.01 -99.74,-0.02 -99.47,-0.05 -99.21,-0.11 -98.94,-0.21 -98.67,-0.36 -98.4,-0.57 -98.13,-0.81 -97.86,-1.03 -97.59,-1.14 -97.33,-1.04 -97.06,-0.64 -96.79,0.12 -96.52,1.23 -96.25,2.54 -95.98,3.84 -95.72,4.84 -95.45,5.23 -95.18,4.77 -94.91,3.39 -94.64,1.21 -94.37,-1.47 -94.1,-4.2 -93.84,-6.47 -93.57,-7.87 -93.3,-8.09 -93.03,-7.13 -92.76,-5.17 -92.49,-2.58 -92.22,0.15 -91.96,2.59 -91.69,4.37 -91.42,5.32 -91.15,5.42 -90.88,4.81 -90.61,3.73 -90.35,2.42 -90.08,1.12 -89.81,-0 -89.54,-0.84 -89.27,-1.38 -89,-1.64 -88.73,-1.65 -88.47,-1.5 -88.2,-1.23 -87.93,-0.9 -87.66,-0.55 -87.39,-0.23 -87.12,0.06 -86.86,0.27 -86.59,0.4 -86.32,0.46 -86.05,0.44 -85.78,0.37 -85.51,0.27 -85.24,0.16 -84.98,0.06 -84.71,-0.02 -84.44,-0.07 -84.17,-0.1 -83.9,-0.11 -83.63,-0.1 -83.36,-0.08 -83.1,-0.06 -82.83,-0.05 -82.56,-0.03 -82.29,-0.02 -82.02,-0.01 -81.75,-0.01 -81.49,-0 -81.22,-0 -80.95,-0 -80.68,-0 -80.41,-0 -80.14,-0 -79.87,-0 -79.61,-0 -79.34,-0 -79.07,-0 -78.8,-0 -78.53,-0 -78.26,-0 -78,0 -77.73,0 -77.46,0 -77.19,0 -76.92,-0 -76.65,0 -76.38,0 -76.12,0 -75.85,0 -75.58,0 -75.31,0 -75.04,0 -74.77,-0 -74.5,-0 -74.24,-0 -73.97,-0 -73.7,-0 -73.43,-0 -73.16,-0 -72.89,-0 -72.63,-0 -72.36,-0 -72.09,0 -71.82,0 -71.55,0 -71.28,0 -71.01,0 -70.75,0 -70.48,0 -70.21,0 -69.94,0 -69.67,0 -69.4,-0 -69.13,-0 -68.87,-0 -68.6,-0 -68.33,-0 -68.06,-0 -67.79,-0 -67.52,0 -67.26,0 -66.99,0 -66.72,0 -66.45,0 -66.18,0 -65.91,-0 -65.64,-0 -65.38,-0 -65.11,-0 -64.84,-0 -64.57,-0 -64.3,-0 -64.03,-0 -63.77,-0 -63.5,-0 -63.23,-0 -62.96,0 -62.69,0 -62.42,0 -62.15,0 -61.89,0 -61.62,0 -61.35,0 -61.08,0 -60.81,-0 -60.54,-0 -60.27,-0 -60.01,-0 -59.74,-0 -59.47,-0 -59.2,0 -58.93,0 -58.66,0 -58.4,0 -58.13,0 -57.86,0 -57.59,0 -57.32,0 -57.05,0 -56.78,0 -56.52,0 -56.25,0 -55.98,0 -55.71,0 -55.44,0 -55.17,0 -54.91,0 -54.64,0 -54.37,0 -54.1,0 -53.83,0 -53.56,0 -53.29,0 -53.03,0 -52.76,0 -52.49,0 -52.22,0 -51.95,0 -51.68,0 -51.41,0 -51.15,0 -50.88,0 -50.61,0 -50.34,0 -50.07,0 -49.8,0 -49.54,0 -49.27,0 -49,0 -48.73,0 -48.46,0 -48.19,0 -47.92,0 -47.66,0 -47.39,0 -47.12,0 -46.85,0 -46.58,0 -46.31,0 -46.05,0 -45.78,0 -45.51,0 -45.24,0 -44.97,0 -44.7,0 -44.43,0 -44.17,0 -43.9,0 -43.63,0 -43.36,0 -43.09,0 -42.82,0 -42.55,0 -42.29,0 -42.02,0 -41.75,0 -41.48,0 -41.21,0 -40.94,0 -40.68,0 -40.41,0 -40.14,0 -39.87,0 -39.6,0 -39.33,0 -39.06,0 -38.8,0 -38.53,0 -38.26,0 -37.99,0 -37.72,0 -37.45,0 -37.19,0 -36.92,0 -36.65,0 -36.38,0 -36.11,0 -35.84,0 -35.57,0 -35.31,0 -35.04,0 -34.77,0 -34.5,0 -34.23,0 -33.96,0 -33.69,0 -33.43,0 -33.16,0 -32.89,0 -32.62,0 -32.35,0 -32.08,0 -31.82,0 -31.55,0 -31.28,0 -31.01,0 -30.74,0 -30.47,0 -30.2,0 -29.94,0 -29.67,0 -29.4,0 -29.13,0 -28.86,0 -28.59,0 -28.33,0 -28.06,0 -27.79,0 -27.52,0 -27.25,0 -26.98,0 -26.71,0 -26.45,0 -26.18,0 -25.91,0 -25.64,0 -25.37,0 -25.1,0 -24.83,0 -24.57,0 -24.3,0 -24.03,0 -23.76,0 -23.49,0 -23.22,0 -22.96,0 -22.69,0 -22.42,0 -22.15,0 -21.88,0 -21.61,0 -21.34,0 -21.08,0 -20.81,0 -20.54,0 -20.27,0 -20,0 -19.73,0 -19.47,0 -19.2,0 -18.93,0 -18.66,0 -18.39,0 -18.12,0 -17.85,0 -17.59,0 -17.32,0 -17.05,0 -16.78,0 -16.51,0 -16.24,0 -15.97,0 -15.71,0 -15.44,0 -15.17,0 -14.9,0 -14.63,0 -14.36,0 -14.1,0 -13.83,0 -13.56,0 -13.29,0 -13.02,0 -12.75,0 -12.48,0 -12.22,0 -11.95,0 -11.68,0 -11.41,0 -11.14,0 -10.87,0 -10.61,0 -10.34,0 -10.07,0 -9.8,0 -9.53,0 -9.26,0 -8.99,0 -8.73,0 -8.46,0 -8.19,0 -7.92,0 -7.65,0 -7.38,0 -7.11,0 -6.85,0 -6.58,0 -6.31,0 -6.04,0 -5.77,0 -5.5,0 -5.24,0 -4.97,0 -4.7,0 -4.43,0 -4.16,0 -3.89,0 -3.62,0 -3.36,0 -3.09,0 -2.82,0 -2.55,0 -2.28,0 -2.01,0 -1.75,0 -1.48,0 -1.21,0 -0.94,0 -0.67,0 -0.4,0 -0.13,0 0.13,0 0.4,0 0.67,0 0.94,0 1.21,0 1.48,0 1.75,0 2.01,0 2.28,0 2.55,0 2.82,0 3.09,0 3.36,0 3.62,0 3.89,0 4.16,0 4.43,0 4.7,0 4.97,0 5.24,0 5.5,0 5.77,0 6.04,0 6.31,0 6.58,0 6.85,0 7.11,0 7.38,0 7.65,0 7.92,0 8.19,0 8.46,0 8.73,0 8.99,0 9.26,0 9.53,0 9.8,0 10.07,0 10.34,0 10.61,0 10.87,0 11.14,0 11.41,0 11.68,0 11.95,0 12.22,0 12.48,0 12.75,0 13.02,0 13.29,0 13.56,0 13.83,0 14.1,0 14.36,0 14.63,0 14.9,0 15.17,0 15.44,0 15.71,0 15.97,0 16.24,0 16.51,0 16.78,0 17.05,0 17.32,0 17.59,0 17.85,0 18.12,0 18.39,0 18.66,0 18.93,0 19.2,0 19.47,0 19.73,0 20,0 20.27,0 20.54,0 20.81,0 21.08,0 21.34,0 21.61,0 21.88,0 22.15,0 22.42,0 22.69,0 22.96,0 23.22,0 23.49,0 23.76,0 24.03,0 24.3,0 24.57,0 24.83,0 25.1,0 25.37,0 25.64,0 25.91,0 26.18,0 26.45,0 26.71,0 26.98,0 27.25,0 27.52,0 27.79,0 28.06,0 28.33,0 28.59,0 28.86,0 29.13,0 29.4,0 29.67,0 29.94,0 30.2,0 30.47,0 30.74,0 31.01,0 31.28,0 31.55,0 31.82,0 32.08,0 32.35,0 32.62,0 32.89,0 33.16,0 33.43,0 33.69,0 33.96,0 34.23,0 34.5,0 34.77,0 35.04,0 35.31,0 35.57,0 35.84,0 36.11,0 36.38,0 36.65,0 36.92,0 37.19,0 37.45,0 37.72,0 37.99,0 38.26,0 38.53,0 38.8,0 39.06,0 39.33,0 39.6,0 39.87,0 40.14,0 40.41,0 40.68,0 40.94,0 41.21,0 41.48,0 41.75,0 42.02,0 42.29,0 42.55,0 42.82,0 43.09,0 43.36,0 43.63,0 43.9,0 44.17,0 44.43,0 44.7,0 44.97,0 45.24,0 45.51,0 45.78,0 46.05,0 46.31,0 46.58,0 46.85,0 47.12,0 47.39,0 47.66,0 47.92,0 48.19,0 48.46,0 48.73,0 49,0 49.27,0 49.54,0 49.8,0 50.07,0 50.34,0 50.61,0 50.88,0 51.15,0 51.41,0 51.68,0 51.95,0 52.22,0 52.49,0 52.76,0 53.03,0 53.29,0 53.56,0 53.83,0 54.1,0 54.37,0 54.64,0 54.91,0 55.17,0 55.44,0 55.71,0 55.98,0 56.25,0 56.52,0 56.78,0 57.05,0 57.32,0 57.59,0 57.86,0 58.13,0 58.4,0 58.66,0 58.93,0 59.2,0 59.47,0 59.74,0 60.01,0 60.27,0 60.54,0 60.81,0 61.08,0 61.35,0 61.62,0 61.89,0 62.15,0 62.42,0 62.69,0 62.96,0 63.23,0 63.5,0 63.77,0 64.03,0 64.3,0 64.57,0 64.84,0 65.11,0 65.38,0 65.64,0 65.91,0 66.18,0 66.45,0 66.72,0 66.99,0 67.26,0 67.52,0 67.79,0 68.06,0 68.33,0 68.6,0 68.87,0 69.13,0 69.4,0 69.67,0 69.94,0 70.21,0 70.48,0 70.75,0 71.01,0 71.28,0 71.55,0 71.82,0 72.09,0 72.36,0 72.63,0 72.89,0 73.16,0 73.43,0 73.7,0 73.97,0 74.24,0 74.5,0 74.77,0 75.04,0 75.31,0 75.58,0 75.85,0 76.12,0 76.38,0 76.65,0 76.92,0 77.19,0 77.46,0 77.73,0 78,0 78.26,0 78.53,0 78.8,0 79.07,0 79.34,0 79.61,0 79.87,0 80.14,0 80.41,0 80.68,0 80.95,0 81.22,0 81.49,0 81.75,0 82.02,0 82.29,0 82.56,0 82.83,0 83.1,0 83.36,0 83.63,0 83.9,0 84.17,0 84.44,0 84.71,0 84.98,0 85.24,0 85.51,0 85.78,0 86.05,0 86.32,0 86.59,0 86.86,0 87.12,0 87.39,0 87.66,0 87.93,0 88.2,0 88.47,0 88.73,0 89,0 89.27,0 89.54,0 89.81,0 90.08,0 90.35,0 90.61,0 90.88,0 91.15,0 91.42,0 91.69,0 91.96,0 92.22,0 92.49,0 92.76,0 93.03,0 93.3,0 93.57,0 93.84,0 94.1,0 94.37,0 94.64,0 94.91,0 95.18,0 95.45,0 95.72,0 95.98,0 96.25,0 96.52,0 96.79,0 97.06,0 97.33,0 97.59,0 97.86,0 98.13,0 98.4,0 98.67,0 98.94,0 99.21,0 99.47,0 99.74,0 100.01,0 100.28,0 100.55,0 100.82,0 101.08,0 101.35,0 101.62,0 101.89,0 102.16,0 102.43,0 102.7,0 102.96,0 103.23,0 103.5,0 103.77,0 104.04,0 104.31,0 104.58,0 104.84,0 105.11,0 105.38,0 105.65,0 105.92,0 106.19,0 106.45,0 106.72,0 106.99,0 107.26,0 " class="primitive"/>
            </g>
          </g>
        </g>
        <g stroke-width="0.3" fill="#000000" fill-opacity="0.000" class="geometry" id="img-94d1366f-26">
          <g class="color_RGB{Float64}(1.129788599842918e-6,0.9656744892062866,0.9999999983677886)" stroke-dasharray="none" stroke-opacity="1" stroke="#00F6FF" id="img-94d1366f-27">
            <g transform="translate(139.74,38.94)" id="img-94d1366f-28">
              <path fill="none" d="M-107.26,0 L-106.99,0 -106.72,0 -106.45,0 -106.19,0 -105.92,0 -105.65,0 -105.38,0 -105.11,0 -104.84,0 -104.58,0 -104.31,0 -104.04,0 -103.77,0 -103.5,0 -103.23,0 -102.96,0 -102.7,0 -102.43,0 -102.16,0 -101.89,0 -101.62,0 -101.35,0 -101.08,0 -100.82,0 -100.55,0 -100.28,0 -100.01,0 -99.74,0 -99.47,0 -99.21,0 -98.94,0 -98.67,0 -98.4,0 -98.13,0 -97.86,0 -97.59,0 -97.33,0 -97.06,0 -96.79,0 -96.52,0 -96.25,0 -95.98,0 -95.72,0 -95.45,0 -95.18,0 -94.91,0 -94.64,-0 -94.37,-0 -94.1,-0 -93.84,0 -93.57,0 -93.3,0 -93.03,0 -92.76,0 -92.49,0 -92.22,0 -91.96,0 -91.69,0 -91.42,0 -91.15,0 -90.88,0 -90.61,0 -90.35,0 -90.08,0 -89.81,0 -89.54,-0 -89.27,-0 -89,-0 -88.73,-0 -88.47,-0 -88.2,-0 -87.93,-0 -87.66,-0 -87.39,-0 -87.12,0 -86.86,0 -86.59,0 -86.32,0 -86.05,0 -85.78,0 -85.51,0 -85.24,0 -84.98,0 -84.71,0 -84.44,-0 -84.17,-0 -83.9,-0 -83.63,-0 -83.36,-0 -83.1,-0 -82.83,-0 -82.56,-0 -82.29,-0 -82.02,-0 -81.75,-0 -81.49,-0 -81.22,-0 -80.95,-0 -80.68,-0 -80.41,-0 -80.14,-0 -79.87,-0 -79.61,-0 -79.34,-0 -79.07,-0 -78.8,-0 -78.53,-0 -78.26,-0 -78,-0 -77.73,-0 -77.46,0 -77.19,0.01 -76.92,0.01 -76.65,0.01 -76.38,0.01 -76.12,0.02 -75.85,0.01 -75.58,0.01 -75.31,0.01 -75.04,0 -74.77,-0 -74.5,-0.01 -74.24,-0.01 -73.97,-0.01 -73.7,-0.01 -73.43,-0 -73.16,0 -72.89,0.01 -72.63,0.02 -72.36,0.03 -72.09,0.03 -71.82,0.02 -71.55,0.01 -71.28,-0.01 -71.01,-0.04 -70.75,-0.07 -70.48,-0.09 -70.21,-0.11 -69.94,-0.12 -69.67,-0.12 -69.4,-0.1 -69.13,-0.07 -68.87,-0.03 -68.6,0.02 -68.33,0.06 -68.06,0.1 -67.79,0.12 -67.52,0.11 -67.26,0.08 -66.99,0.02 -66.72,-0.06 -66.45,-0.15 -66.18,-0.23 -65.91,-0.29 -65.64,-0.31 -65.38,-0.27 -65.11,-0.17 -64.84,-0 -64.57,0.22 -64.3,0.49 -64.03,0.76 -63.77,1 -63.5,1.18 -63.23,1.26 -62.96,1.21 -62.69,1.03 -62.42,0.71 -62.15,0.29 -61.89,-0.2 -61.62,-0.72 -61.35,-1.19 -61.08,-1.58 -60.81,-1.83 -60.54,-1.92 -60.27,-1.84 -60.01,-1.6 -59.74,-1.23 -59.47,-0.78 -59.2,-0.29 -58.93,0.19 -58.66,0.6 -58.4,0.92 -58.13,1.12 -57.86,1.2 -57.59,1.17 -57.32,1.06 -57.05,0.88 -56.78,0.66 -56.52,0.44 -56.25,0.23 -55.98,0.06 -55.71,-0.08 -55.44,-0.17 -55.17,-0.22 -54.91,-0.24 -54.64,-0.23 -54.37,-0.21 -54.1,-0.18 -53.83,-0.15 -53.56,-0.11 -53.29,-0.09 -53.03,-0.06 -52.76,-0.05 -52.49,-0.03 -52.22,-0.02 -51.95,-0.02 -51.68,-0.01 -51.41,-0.01 -51.15,-0.01 -50.88,-0 -50.61,-0 -50.34,-0 -50.07,-0 -49.8,-0 -49.54,-0 -49.27,-0 -49,-0 -48.73,-0 -48.46,-0 -48.19,-0 -47.92,-0 -47.66,-0 -47.39,-0 -47.12,-0 -46.85,0 -46.58,0 -46.31,0 -46.05,0 -45.78,0 -45.51,0 -45.24,0 -44.97,0 -44.7,0 -44.43,0 -44.17,0 -43.9,0 -43.63,0 -43.36,0 -43.09,0 -42.82,0 -42.55,0 -42.29,0 -42.02,0 -41.75,0 -41.48,0 -41.21,0 -40.94,0 -40.68,0 -40.41,0 -40.14,0 -39.87,0 -39.6,0 -39.33,0 -39.06,0 -38.8,0 -38.53,0 -38.26,0 -37.99,0 -37.72,0 -37.45,0 -37.19,0 -36.92,0 -36.65,0 -36.38,0 -36.11,0 -35.84,0 -35.57,0 -35.31,0 -35.04,0 -34.77,0 -34.5,0 -34.23,0 -33.96,0 -33.69,0 -33.43,0 -33.16,0 -32.89,0 -32.62,0 -32.35,0 -32.08,0 -31.82,0 -31.55,0 -31.28,0 -31.01,0 -30.74,0 -30.47,0 -30.2,0 -29.94,0 -29.67,0 -29.4,0 -29.13,0 -28.86,0 -28.59,0 -28.33,0 -28.06,0 -27.79,0 -27.52,0 -27.25,0 -26.98,0 -26.71,0 -26.45,0 -26.18,0 -25.91,0 -25.64,0 -25.37,0 -25.1,0 -24.83,0 -24.57,0 -24.3,0 -24.03,0 -23.76,0 -23.49,0 -23.22,0 -22.96,0 -22.69,0 -22.42,0 -22.15,0 -21.88,0 -21.61,0 -21.34,0 -21.08,0 -20.81,0 -20.54,0 -20.27,0 -20,0 -19.73,0 -19.47,0 -19.2,0 -18.93,0 -18.66,0 -18.39,0 -18.12,0 -17.85,0 -17.59,0 -17.32,0 -17.05,0 -16.78,0 -16.51,0 -16.24,0 -15.97,0 -15.71,0 -15.44,0 -15.17,0 -14.9,0 -14.63,0 -14.36,0 -14.1,0 -13.83,0 -13.56,0 -13.29,0 -13.02,0 -12.75,0 -12.48,0 -12.22,0 -11.95,0 -11.68,0 -11.41,0 -11.14,0 -10.87,0 -10.61,0 -10.34,0 -10.07,0 -9.8,0 -9.53,0 -9.26,0 -8.99,0 -8.73,0 -8.46,0 -8.19,0 -7.92,0 -7.65,0 -7.38,0 -7.11,0 -6.85,0 -6.58,0 -6.31,0 -6.04,0 -5.77,0 -5.5,0 -5.24,0 -4.97,0 -4.7,0 -4.43,0 -4.16,0 -3.89,0 -3.62,0 -3.36,0 -3.09,0 -2.82,0 -2.55,0 -2.28,0 -2.01,0 -1.75,0 -1.48,0 -1.21,0 -0.94,0 -0.67,0 -0.4,0 -0.13,0 0.13,0 0.4,0 0.67,0 0.94,0 1.21,0 1.48,0 1.75,0 2.01,0 2.28,0 2.55,0 2.82,0 3.09,0 3.36,0 3.62,0 3.89,0 4.16,0 4.43,0 4.7,0 4.97,0 5.24,0 5.5,0 5.77,0 6.04,0 6.31,0 6.58,0 6.85,0 7.11,0 7.38,0 7.65,0 7.92,0 8.19,0 8.46,0 8.73,0 8.99,0 9.26,0 9.53,0 9.8,0 10.07,0 10.34,0 10.61,0 10.87,0 11.14,0 11.41,0 11.68,0 11.95,0 12.22,0 12.48,0 12.75,0 13.02,0 13.29,0 13.56,0 13.83,0 14.1,0 14.36,0 14.63,0 14.9,0 15.17,0 15.44,0 15.71,0 15.97,0 16.24,0 16.51,0 16.78,0 17.05,0 17.32,0 17.59,0 17.85,0 18.12,0 18.39,0 18.66,0 18.93,0 19.2,0 19.47,0 19.73,0 20,0 20.27,0 20.54,0 20.81,0 21.08,0 21.34,0 21.61,0 21.88,0 22.15,0 22.42,0 22.69,0 22.96,0 23.22,0 23.49,0 23.76,0 24.03,0 24.3,0 24.57,0 24.83,0 25.1,0 25.37,0 25.64,0 25.91,0 26.18,0 26.45,0 26.71,0 26.98,0 27.25,0 27.52,0 27.79,0 28.06,0 28.33,0 28.59,0 28.86,0 29.13,0 29.4,0 29.67,0 29.94,0 30.2,0 30.47,0 30.74,0 31.01,0 31.28,0 31.55,0 31.82,0 32.08,0 32.35,0 32.62,0 32.89,0 33.16,0 33.43,0 33.69,0 33.96,0 34.23,0 34.5,0 34.77,0 35.04,0 35.31,0 35.57,0 35.84,0 36.11,0 36.38,0 36.65,0 36.92,0 37.19,0 37.45,0 37.72,0 37.99,0 38.26,0 38.53,0 38.8,0 39.06,0 39.33,0 39.6,0 39.87,0 40.14,0 40.41,0 40.68,0 40.94,0 41.21,0 41.48,0 41.75,0 42.02,0 42.29,0 42.55,0 42.82,0 43.09,0 43.36,0 43.63,0 43.9,0 44.17,0 44.43,0 44.7,0 44.97,0 45.24,0 45.51,0 45.78,0 46.05,0 46.31,0 46.58,0 46.85,0 47.12,0 47.39,0 47.66,0 47.92,0 48.19,0 48.46,0 48.73,0 49,0 49.27,0 49.54,0 49.8,0 50.07,0 50.34,0 50.61,0 50.88,0 51.15,0 51.41,0 51.68,0 51.95,0 52.22,0 52.49,0 52.76,0 53.03,0 53.29,0 53.56,0 53.83,0 54.1,0 54.37,0 54.64,0 54.91,0 55.17,0 55.44,0 55.71,0 55.98,0 56.25,0 56.52,0 56.78,0 57.05,0 57.32,0 57.59,0 57.86,0 58.13,0 58.4,0 58.66,0 58.93,0 59.2,0 59.47,0 59.74,0 60.01,0 60.27,0 60.54,0 60.81,0 61.08,0 61.35,0 61.62,0 61.89,0 62.15,0 62.42,0 62.69,0 62.96,0 63.23,0 63.5,0 63.77,0 64.03,0 64.3,0 64.57,0 64.84,0 65.11,0 65.38,0 65.64,0 65.91,0 66.18,0 66.45,0 66.72,0 66.99,0 67.26,0 67.52,0 67.79,0 68.06,0 68.33,0 68.6,0 68.87,0 69.13,0 69.4,0 69.67,0 69.94,0 70.21,0 70.48,0 70.75,0 71.01,0 71.28,0 71.55,0 71.82,0 72.09,0 72.36,0 72.63,0 72.89,0 73.16,0 73.43,0 73.7,0 73.97,0 74.24,0 74.5,0 74.77,0 75.04,0 75.31,0 75.58,0 75.85,0 76.12,0 76.38,0 76.65,0 76.92,0 77.19,0 77.46,0 77.73,0 78,0 78.26,0 78.53,0 78.8,0 79.07,0 79.34,0 79.61,0 79.87,0 80.14,0 80.41,0 80.68,0 80.95,0 81.22,0 81.49,0 81.75,0 82.02,0 82.29,0 82.56,0 82.83,0 83.1,0 83.36,0 83.63,0 83.9,0 84.17,0 84.44,0 84.71,0 84.98,0 85.24,0 85.51,0 85.78,0 86.05,0 86.32,0 86.59,0 86.86,0 87.12,0 87.39,0 87.66,0 87.93,0 88.2,0 88.47,0 88.73,0 89,0 89.27,0 89.54,0 89.81,0 90.08,0 90.35,0 90.61,0 90.88,0 91.15,0 91.42,0 91.69,0 91.96,0 92.22,0 92.49,0 92.76,0 93.03,0 93.3,0 93.57,0 93.84,0 94.1,0 94.37,0 94.64,0 94.91,0 95.18,0 95.45,0 95.72,0 95.98,0 96.25,0 96.52,0 96.79,0 97.06,0 97.33,0 97.59,0 97.86,0 98.13,0 98.4,0 98.67,0 98.94,0 99.21,0 99.47,0 99.74,0 100.01,0 100.28,0 100.55,0 100.82,0 101.08,0 101.35,0 101.62,0 101.89,0 102.16,0 102.43,0 102.7,0 102.96,0 103.23,0 103.5,0 103.77,0 104.04,0 104.31,0 104.58,0 104.84,0 105.11,0 105.38,0 105.65,0 105.92,0 106.19,0 106.45,0 106.72,0 106.99,0 107.26,0 " class="primitive"/>
            </g>
          </g>
        </g>
        <g stroke-width="0.3" fill="#000000" fill-opacity="0.000" class="geometry" id="img-94d1366f-29">
          <g class="color_RGB{Float64}(0.33966099277017664,0.410613827048125,0.4101742974306824)" stroke-dasharray="none" stroke-opacity="1" stroke="#576969" id="img-94d1366f-30">
            <g transform="translate(139.74,38.94)" id="img-94d1366f-31">
              <path fill="none" d="M-107.26,0 L-106.99,0 -106.72,0 -106.45,0 -106.19,0 -105.92,0 -105.65,0 -105.38,0 -105.11,0 -104.84,0 -104.58,0 -104.31,0 -104.04,0 -103.77,0 -103.5,0 -103.23,0 -102.96,0 -102.7,0 -102.43,0 -102.16,0 -101.89,0 -101.62,0 -101.35,0 -101.08,0 -100.82,0 -100.55,0 -100.28,0 -100.01,0 -99.74,0 -99.47,0 -99.21,0 -98.94,0 -98.67,0 -98.4,0 -98.13,0 -97.86,0 -97.59,0 -97.33,0 -97.06,0 -96.79,0 -96.52,0 -96.25,0 -95.98,0 -95.72,0 -95.45,0 -95.18,0 -94.91,0 -94.64,0 -94.37,0 -94.1,0 -93.84,0 -93.57,0 -93.3,0 -93.03,0 -92.76,0 -92.49,0 -92.22,0 -91.96,0 -91.69,0 -91.42,0 -91.15,0 -90.88,0 -90.61,0 -90.35,0 -90.08,0 -89.81,0 -89.54,0 -89.27,0 -89,0 -88.73,0 -88.47,0 -88.2,0 -87.93,0 -87.66,0 -87.39,0 -87.12,0 -86.86,0 -86.59,0 -86.32,0 -86.05,0 -85.78,0 -85.51,0 -85.24,0 -84.98,0 -84.71,0 -84.44,0 -84.17,0 -83.9,0 -83.63,0 -83.36,0 -83.1,0 -82.83,0 -82.56,0 -82.29,0 -82.02,0 -81.75,0 -81.49,0 -81.22,0 -80.95,0 -80.68,0 -80.41,0 -80.14,0 -79.87,0 -79.61,0 -79.34,0 -79.07,0 -78.8,0 -78.53,0 -78.26,0 -78,0 -77.73,0 -77.46,0 -77.19,0 -76.92,0 -76.65,0 -76.38,0 -76.12,0 -75.85,0 -75.58,0 -75.31,0 -75.04,0 -74.77,0 -74.5,0 -74.24,0 -73.97,0 -73.7,0 -73.43,0 -73.16,0 -72.89,0 -72.63,0 -72.36,0 -72.09,0 -71.82,0 -71.55,0 -71.28,0 -71.01,0 -70.75,0 -70.48,0 -70.21,0 -69.94,0 -69.67,0 -69.4,0 -69.13,0 -68.87,0 -68.6,0 -68.33,0 -68.06,0 -67.79,0 -67.52,0 -67.26,0 -66.99,0 -66.72,0 -66.45,0 -66.18,0 -65.91,0 -65.64,0 -65.38,0 -65.11,0 -64.84,0 -64.57,0 -64.3,0 -64.03,0 -63.77,0 -63.5,0 -63.23,0 -62.96,0 -62.69,0 -62.42,0 -62.15,0 -61.89,0 -61.62,0 -61.35,0 -61.08,0 -60.81,0 -60.54,0 -60.27,0 -60.01,0 -59.74,0 -59.47,0 -59.2,0 -58.93,0 -58.66,0 -58.4,0 -58.13,0 -57.86,0 -57.59,0 -57.32,0 -57.05,0 -56.78,0 -56.52,0 -56.25,0 -55.98,0 -55.71,0 -55.44,0 -55.17,0 -54.91,0 -54.64,0 -54.37,0 -54.1,0 -53.83,0 -53.56,0 -53.29,0 -53.03,0 -52.76,0 -52.49,0 -52.22,0 -51.95,0 -51.68,0 -51.41,0 -51.15,0 -50.88,0 -50.61,0 -50.34,0 -50.07,0 -49.8,0 -49.54,0 -49.27,0 -49,0 -48.73,0 -48.46,0 -48.19,0 -47.92,0 -47.66,0 -47.39,0 -47.12,0 -46.85,0 -46.58,0 -46.31,0 -46.05,0 -45.78,0 -45.51,0 -45.24,0 -44.97,0 -44.7,0 -44.43,0 -44.17,0 -43.9,0 -43.63,0 -43.36,0 -43.09,0 -42.82,0 -42.55,0 -42.29,0 -42.02,0 -41.75,0 -41.48,0 -41.21,0 -40.94,0 -40.68,0 -40.41,0 -40.14,0 -39.87,0 -39.6,0 -39.33,0 -39.06,0 -38.8,0 -38.53,0 -38.26,0 -37.99,0 -37.72,0 -37.45,0 -37.19,0 -36.92,0 -36.65,0 -36.38,0 -36.11,0 -35.84,0 -35.57,0 -35.31,0 -35.04,0 -34.77,0 -34.5,0 -34.23,0 -33.96,0 -33.69,0 -33.43,0 -33.16,0 -32.89,0 -32.62,0 -32.35,0 -32.08,0 -31.82,0 -31.55,0 -31.28,0 -31.01,0 -30.74,0 -30.47,0 -30.2,0 -29.94,0 -29.67,0 -29.4,0 -29.13,0 -28.86,0 -28.59,0 -28.33,0 -28.06,0 -27.79,0 -27.52,0 -27.25,0 -26.98,0 -26.71,0 -26.45,0 -26.18,0 -25.91,0 -25.64,0 -25.37,0 -25.1,0 -24.83,0 -24.57,0 -24.3,0 -24.03,0 -23.76,0 -23.49,0 -23.22,0 -22.96,0 -22.69,0 -22.42,0 -22.15,0 -21.88,0 -21.61,0 -21.34,0 -21.08,0 -20.81,0 -20.54,0 -20.27,0 -20,0 -19.73,0 -19.47,0 -19.2,0 -18.93,0 -18.66,0 -18.39,0 -18.12,0 -17.85,0 -17.59,0 -17.32,0 -17.05,0 -16.78,0 -16.51,0 -16.24,0 -15.97,0 -15.71,0 -15.44,0 -15.17,0 -14.9,0 -14.63,0 -14.36,0 -14.1,0 -13.83,0 -13.56,0 -13.29,0 -13.02,0 -12.75,0 -12.48,0 -12.22,0 -11.95,0 -11.68,0 -11.41,0 -11.14,0 -10.87,0 -10.61,0 -10.34,0 -10.07,0 -9.8,0 -9.53,0 -9.26,0 -8.99,0 -8.73,0 -8.46,0 -8.19,0 -7.92,0 -7.65,0 -7.38,0 -7.11,0 -6.85,0 -6.58,0 -6.31,0 -6.04,0 -5.77,0 -5.5,0 -5.24,0 -4.97,0 -4.7,0 -4.43,0 -4.16,0 -3.89,0 -3.62,0 -3.36,0 -3.09,0 -2.82,0 -2.55,0 -2.28,0 -2.01,0 -1.75,0 -1.48,0 -1.21,0 -0.94,0 -0.67,0 -0.4,0 -0.13,0 0.13,0 0.4,0 0.67,0 0.94,0 1.21,0 1.48,0 1.75,0 2.01,0 2.28,0 2.55,0 2.82,0 3.09,0 3.36,0 3.62,0 3.89,0 4.16,0 4.43,0 4.7,0 4.97,0 5.24,0 5.5,0 5.77,0 6.04,0 6.31,0 6.58,0 6.85,0 7.11,0 7.38,0 7.65,0 7.92,0 8.19,0 8.46,0 8.73,0 8.99,0 9.26,0 9.53,0 9.8,0 10.07,0 10.34,0 10.61,0 10.87,0 11.14,0 11.41,0 11.68,0 11.95,0 12.22,0 12.48,0 12.75,0 13.02,0 13.29,0 13.56,0 13.83,0 14.1,0 14.36,0 14.63,0 14.9,0 15.17,0 15.44,0 15.71,0 15.97,0 16.24,0 16.51,0 16.78,0 17.05,0 17.32,0 17.59,0 17.85,0 18.12,0 18.39,0 18.66,0 18.93,0 19.2,0 19.47,0 19.73,0 20,0 20.27,0 20.54,0 20.81,0 21.08,0 21.34,0 21.61,0 21.88,0 22.15,0 22.42,0 22.69,0 22.96,0 23.22,0 23.49,0 23.76,0 24.03,0 24.3,0 24.57,0 24.83,0 25.1,0 25.37,0 25.64,0 25.91,0 26.18,0 26.45,0 26.71,0 26.98,0 27.25,0 27.52,0 27.79,0 28.06,0 28.33,0 28.59,0 28.86,0 29.13,0 29.4,0 29.67,0 29.94,0 30.2,0 30.47,0 30.74,0 31.01,0 31.28,0 31.55,0 31.82,0 32.08,0 32.35,0 32.62,0 32.89,0 33.16,0 33.43,0 33.69,0 33.96,0 34.23,0 34.5,0 34.77,0 35.04,0 35.31,0 35.57,0 35.84,0 36.11,0 36.38,0 36.65,0 36.92,0 37.19,0 37.45,0 37.72,0 37.99,0 38.26,0 38.53,0 38.8,0 39.06,0 39.33,0 39.6,0 39.87,0 40.14,0 40.41,0 40.68,0 40.94,0 41.21,0 41.48,0 41.75,0 42.02,0 42.29,0 42.55,0 42.82,0 43.09,0 43.36,0 43.63,0 43.9,0 44.17,0 44.43,0 44.7,0 44.97,0 45.24,0 45.51,0 45.78,0 46.05,0 46.31,0 46.58,0 46.85,0 47.12,0 47.39,0 47.66,0 47.92,0 48.19,0 48.46,0 48.73,0 49,0 49.27,0 49.54,0 49.8,0 50.07,0 50.34,0 50.61,0 50.88,0 51.15,0 51.41,0 51.68,0 51.95,0 52.22,0 52.49,0 52.76,0 53.03,0 53.29,0 53.56,0 53.83,0 54.1,0 54.37,0 54.64,0 54.91,0 55.17,0 55.44,0 55.71,0 55.98,0 56.25,0 56.52,0 56.78,0 57.05,0 57.32,-0 57.59,-0 57.86,-0 58.13,-0 58.4,-0 58.66,-0 58.93,-0 59.2,-0 59.47,-0 59.74,-0 60.01,-0 60.27,-0 60.54,-0 60.81,-0 61.08,-0 61.35,-0 61.62,-0 61.89,-0 62.15,-0 62.42,0 62.69,0 62.96,0 63.23,0 63.5,0.01 63.77,0.01 64.03,0.01 64.3,0.01 64.57,0.01 64.84,0.01 65.11,0.01 65.38,0.01 65.64,0 65.91,0 66.18,0 66.45,-0 66.72,-0.01 66.99,-0.01 67.26,-0.02 67.52,-0.03 67.79,-0.05 68.06,-0.07 68.33,-0.1 68.6,-0.14 68.87,-0.19 69.13,-0.26 69.4,-0.35 69.67,-0.46 69.94,-0.6 70.21,-0.76 70.48,-0.95 70.75,-1.17 71.01,-1.41 71.28,-1.66 71.55,-1.92 71.82,-2.18 72.09,-2.41 72.36,-2.6 72.63,-2.74 72.89,-2.79 73.16,-2.73 73.43,-2.54 73.7,-2.2 73.97,-1.68 74.24,-0.99 74.5,-0.12 74.77,0.93 75.04,2.15 75.31,3.5 75.58,4.94 75.85,6.44 76.12,7.93 76.38,9.35 76.65,10.62 76.92,11.68 77.19,12.45 77.46,12.88 77.73,12.9 78,12.47 78.26,11.58 78.53,10.21 78.8,8.39 79.07,6.15 79.34,3.54 79.61,0.66 79.87,-2.4 80.14,-5.53 80.41,-8.62 80.68,-11.55 80.95,-14.21 81.22,-16.48 81.49,-18.28 81.75,-19.52 82.02,-20.16 82.29,-20.17 82.56,-19.56 82.83,-18.34 83.1,-16.57 83.36,-14.32 83.63,-11.68 83.9,-8.77 84.17,-5.69 84.44,-2.57 84.71,0.5 84.98,3.39 85.24,6.01 85.51,8.3 85.78,10.18 86.05,11.62 86.32,12.59 86.59,13.1 86.86,13.17 87.12,12.84 87.39,12.15 87.66,11.17 87.93,9.96 88.2,8.59 88.47,7.12 88.73,5.63 89,4.16 89.27,2.76 89.54,1.48 89.81,0.35 90.08,-0.62 90.35,-1.41 90.61,-2.02 90.88,-2.47 91.15,-2.75 91.42,-2.9 91.69,-2.93 91.96,-2.86 92.22,-2.71 92.49,-2.5 92.76,-2.27 93.03,-2.01 93.3,-1.74 93.57,-1.49 93.84,-1.25 94.1,-1.02 94.37,-0.83 94.64,-0.66 94.91,-0.51 95.18,-0.39 95.45,-0.29 95.72,-0.22 95.98,-0.15 96.25,-0.11 96.52,-0.08 96.79,-0.05 97.06,-0.03 97.33,-0.02 97.59,-0.01 97.86,-0.01 98.13,-0 98.4,-0 98.67,-0 98.94,-0 99.21,-0 99.47,-0 99.74,0 100.01,0 100.28,0 100.55,0 100.82,0 101.08,0 101.35,0 101.62,0 101.89,0 102.16,0 102.43,0 102.7,0 102.96,0 103.23,0 103.5,0 103.77,0 104.04,0 104.31,0 104.58,0 104.84,0 105.11,0 105.38,0 105.65,0 105.92,0 106.19,0 106.45,0 106.72,0 106.99,0 107.26,0 " class="primitive"/>
            </g>
          </g>
        </g>
        <g stroke-width="0.3" fill="#000000" fill-opacity="0.000" class="geometry" id="img-94d1366f-32">
          <g class="color_RGB{Float64}(0.9999999299185004,0.8169524107513291,0.0)" stroke-dasharray="none" stroke-opacity="1" stroke="#FFD000" id="img-94d1366f-33">
            <g transform="translate(139.74,38.94)" id="img-94d1366f-34">
              <path fill="none" d="M-107.26,0 L-106.99,0 -106.72,0 -106.45,0 -106.19,0 -105.92,0 -105.65,0 -105.38,0 -105.11,0 -104.84,0 -104.58,0 -104.31,0 -104.04,0 -103.77,0 -103.5,0 -103.23,0 -102.96,0 -102.7,0 -102.43,0 -102.16,0 -101.89,0 -101.62,0 -101.35,0 -101.08,0 -100.82,0 -100.55,0 -100.28,0 -100.01,0 -99.74,0 -99.47,0 -99.21,0 -98.94,0 -98.67,0 -98.4,0 -98.13,0 -97.86,0 -97.59,0 -97.33,0 -97.06,0 -96.79,0 -96.52,0 -96.25,0 -95.98,0 -95.72,0 -95.45,0 -95.18,0 -94.91,0 -94.64,0 -94.37,0 -94.1,0 -93.84,0 -93.57,0 -93.3,0 -93.03,0 -92.76,0 -92.49,0 -92.22,0 -91.96,0 -91.69,0 -91.42,0 -91.15,0 -90.88,0 -90.61,0 -90.35,0 -90.08,0 -89.81,0 -89.54,0 -89.27,0 -89,0 -88.73,0 -88.47,0 -88.2,0 -87.93,0 -87.66,0 -87.39,0 -87.12,0 -86.86,0 -86.59,0 -86.32,0 -86.05,0 -85.78,0 -85.51,0 -85.24,0 -84.98,0 -84.71,0 -84.44,0 -84.17,0 -83.9,0 -83.63,0 -83.36,0 -83.1,0 -82.83,0 -82.56,0 -82.29,0 -82.02,0 -81.75,0 -81.49,0 -81.22,0 -80.95,0 -80.68,0 -80.41,0 -80.14,0 -79.87,0 -79.61,0 -79.34,0 -79.07,0 -78.8,0 -78.53,0 -78.26,0 -78,0 -77.73,0 -77.46,0 -77.19,0 -76.92,0 -76.65,0 -76.38,0 -76.12,0 -75.85,0 -75.58,0 -75.31,0 -75.04,0 -74.77,0 -74.5,0 -74.24,0 -73.97,0 -73.7,0 -73.43,0 -73.16,0 -72.89,0 -72.63,0 -72.36,0 -72.09,0 -71.82,0 -71.55,0 -71.28,0 -71.01,0 -70.75,0 -70.48,0 -70.21,0 -69.94,0 -69.67,0 -69.4,0 -69.13,0 -68.87,0 -68.6,0 -68.33,0 -68.06,0 -67.79,0 -67.52,0 -67.26,0 -66.99,0 -66.72,0 -66.45,0 -66.18,0 -65.91,0 -65.64,0 -65.38,0 -65.11,0 -64.84,0 -64.57,0 -64.3,0 -64.03,0 -63.77,0 -63.5,0 -63.23,0 -62.96,0 -62.69,0 -62.42,0 -62.15,0 -61.89,0 -61.62,0 -61.35,0 -61.08,0 -60.81,0 -60.54,0 -60.27,0 -60.01,0 -59.74,0 -59.47,0 -59.2,0 -58.93,0 -58.66,0 -58.4,0 -58.13,0 -57.86,0 -57.59,0 -57.32,0 -57.05,0 -56.78,0 -56.52,0 -56.25,0 -55.98,0 -55.71,0 -55.44,0 -55.17,0 -54.91,0 -54.64,0 -54.37,0 -54.1,0 -53.83,0 -53.56,0 -53.29,0 -53.03,0 -52.76,0 -52.49,0 -52.22,0 -51.95,0 -51.68,0 -51.41,0 -51.15,0 -50.88,0 -50.61,0 -50.34,0 -50.07,0 -49.8,0 -49.54,0 -49.27,0 -49,0 -48.73,0 -48.46,0 -48.19,0 -47.92,0 -47.66,0 -47.39,0 -47.12,0 -46.85,0 -46.58,0 -46.31,0 -46.05,0 -45.78,0 -45.51,0 -45.24,0 -44.97,0 -44.7,0 -44.43,0 -44.17,0 -43.9,0 -43.63,0 -43.36,0 -43.09,0 -42.82,0 -42.55,0 -42.29,0 -42.02,0 -41.75,0 -41.48,0 -41.21,0 -40.94,0 -40.68,0 -40.41,0 -40.14,0 -39.87,0 -39.6,0 -39.33,0 -39.06,0 -38.8,0 -38.53,0 -38.26,0 -37.99,0 -37.72,0 -37.45,0 -37.19,0 -36.92,0 -36.65,0 -36.38,0 -36.11,0 -35.84,0 -35.57,0 -35.31,0 -35.04,0 -34.77,0 -34.5,0 -34.23,0 -33.96,0 -33.69,0 -33.43,0 -33.16,0 -32.89,0 -32.62,0 -32.35,0 -32.08,0 -31.82,0 -31.55,0 -31.28,0 -31.01,0 -30.74,0 -30.47,0 -30.2,0 -29.94,0 -29.67,0 -29.4,0 -29.13,0 -28.86,0 -28.59,0 -28.33,0 -28.06,0 -27.79,0 -27.52,0 -27.25,0 -26.98,0 -26.71,0 -26.45,0 -26.18,0 -25.91,0 -25.64,0 -25.37,0 -25.1,0 -24.83,0 -24.57,0 -24.3,0 -24.03,0 -23.76,0 -23.49,0 -23.22,0 -22.96,0 -22.69,0 -22.42,0 -22.15,0 -21.88,0 -21.61,0 -21.34,0 -21.08,0 -20.81,0 -20.54,0 -20.27,0 -20,0 -19.73,0 -19.47,0 -19.2,0 -18.93,0 -18.66,0 -18.39,0 -18.12,0 -17.85,0 -17.59,0 -17.32,0 -17.05,0 -16.78,0 -16.51,0 -16.24,0 -15.97,0 -15.71,0 -15.44,0 -15.17,0 -14.9,0 -14.63,0 -14.36,0 -14.1,0 -13.83,0 -13.56,0 -13.29,0 -13.02,0 -12.75,0 -12.48,0 -12.22,0 -11.95,0 -11.68,0 -11.41,0 -11.14,0 -10.87,0 -10.61,0 -10.34,0 -10.07,0 -9.8,0 -9.53,0 -9.26,0 -8.99,0 -8.73,0 -8.46,0 -8.19,0 -7.92,0 -7.65,0 -7.38,0 -7.11,0 -6.85,0 -6.58,0 -6.31,0 -6.04,0 -5.77,0 -5.5,0 -5.24,0 -4.97,0 -4.7,0 -4.43,0 -4.16,0 -3.89,0 -3.62,0 -3.36,0 -3.09,0 -2.82,0 -2.55,0 -2.28,0 -2.01,0 -1.75,0 -1.48,0 -1.21,0 -0.94,0 -0.67,0 -0.4,0 -0.13,0 0.13,0 0.4,0 0.67,0 0.94,0 1.21,0 1.48,0 1.75,0 2.01,0 2.28,0 2.55,0 2.82,0 3.09,0 3.36,0 3.62,0 3.89,0 4.16,0 4.43,0 4.7,0 4.97,0 5.24,0 5.5,0 5.77,0 6.04,0 6.31,0 6.58,0 6.85,0 7.11,0 7.38,0 7.65,0 7.92,0 8.19,0 8.46,0 8.73,0 8.99,0 9.26,0 9.53,0 9.8,0 10.07,0 10.34,0 10.61,0 10.87,0 11.14,0 11.41,0 11.68,0 11.95,0 12.22,0 12.48,0 12.75,0 13.02,0 13.29,0 13.56,0 13.83,0 14.1,0 14.36,0 14.63,0 14.9,0 15.17,0 15.44,0 15.71,0 15.97,0 16.24,0 16.51,0 16.78,0 17.05,0 17.32,0 17.59,0 17.85,0 18.12,0 18.39,0 18.66,0 18.93,0 19.2,0 19.47,0 19.73,0 20,0 20.27,0 20.54,0 20.81,0 21.08,0 21.34,0 21.61,0 21.88,0 22.15,0 22.42,0 22.69,0 22.96,0 23.22,0 23.49,0 23.76,0 24.03,0 24.3,0 24.57,0 24.83,0 25.1,0 25.37,0 25.64,0 25.91,0 26.18,0 26.45,0 26.71,0 26.98,0 27.25,0 27.52,0 27.79,0 28.06,0 28.33,0 28.59,0 28.86,0 29.13,0 29.4,0 29.67,0 29.94,0 30.2,0 30.47,0 30.74,0 31.01,0 31.28,0 31.55,0 31.82,0 32.08,0 32.35,0 32.62,0 32.89,0 33.16,0 33.43,0 33.69,0 33.96,0 34.23,0 34.5,0 34.77,0 35.04,0 35.31,0 35.57,0 35.84,0 36.11,0 36.38,0 36.65,0 36.92,0 37.19,0 37.45,0 37.72,0 37.99,0 38.26,0 38.53,0 38.8,0 39.06,0 39.33,0 39.6,0 39.87,0 40.14,0 40.41,0 40.68,0 40.94,0 41.21,0 41.48,0 41.75,0 42.02,0 42.29,0 42.55,0 42.82,0 43.09,0 43.36,0 43.63,0 43.9,0 44.17,0 44.43,0 44.7,0 44.97,0 45.24,0 45.51,0 45.78,0 46.05,0 46.31,-0 46.58,-0 46.85,-0 47.12,-0 47.39,-0 47.66,-0 47.92,-0 48.19,-0 48.46,-0 48.73,-0 49,-0 49.27,-0 49.54,-0 49.8,-0 50.07,-0 50.34,-0 50.61,-0 50.88,-0.01 51.15,-0.01 51.41,-0.01 51.68,-0.02 51.95,-0.03 52.22,-0.04 52.49,-0.05 52.76,-0.07 53.03,-0.09 53.29,-0.12 53.56,-0.15 53.83,-0.18 54.1,-0.22 54.37,-0.25 54.64,-0.29 54.91,-0.33 55.17,-0.36 55.44,-0.38 55.71,-0.39 55.98,-0.38 56.25,-0.35 56.52,-0.3 56.78,-0.23 57.05,-0.13 57.32,0 57.59,0.16 57.86,0.34 58.13,0.54 58.4,0.75 58.66,0.96 58.93,1.17 59.2,1.36 59.47,1.52 59.74,1.65 60.01,1.73 60.27,1.75 60.54,1.7 60.81,1.59 61.08,1.4 61.35,1.15 61.62,0.84 61.89,0.47 62.15,0.07 62.42,-0.36 62.69,-0.8 62.96,-1.23 63.23,-1.63 63.5,-1.99 63.77,-2.28 64.03,-2.5 64.3,-2.64 64.57,-2.69 64.84,-2.64 65.11,-2.51 65.38,-2.29 65.64,-2 65.91,-1.64 66.18,-1.25 66.45,-0.82 66.72,-0.39 66.99,0.03 67.26,0.44 67.52,0.8 67.79,1.11 68.06,1.36 68.33,1.55 68.6,1.67 68.87,1.73 69.13,1.72 69.4,1.66 69.67,1.55 69.94,1.4 70.21,1.22 70.48,1.02 70.75,0.82 71.01,0.61 71.28,0.42 71.55,0.24 71.82,0.08 72.09,-0.06 72.36,-0.17 72.63,-0.26 72.89,-0.32 73.16,-0.36 73.43,-0.38 73.7,-0.38 73.97,-0.37 74.24,-0.35 74.5,-0.32 74.77,-0.28 75.04,-0.25 75.31,-0.21 75.58,-0.18 75.85,-0.15 76.12,-0.12 76.38,-0.09 76.65,-0.07 76.92,-0.06 77.19,-0.04 77.46,-0.03 77.73,-0.02 78,-0.02 78.26,-0.01 78.53,-0.01 78.8,-0 79.07,-0 79.34,-0 79.61,-0 79.87,-0 80.14,-0 80.41,0 80.68,0 80.95,0 81.22,0 81.49,0 81.75,0 82.02,0 82.29,0 82.56,0 82.83,0 83.1,0 83.36,0 83.63,0 83.9,0 84.17,0 84.44,0 84.71,-0 84.98,-0 85.24,-0 85.51,-0 85.78,-0 86.05,-0 86.32,-0 86.59,-0 86.86,-0 87.12,-0 87.39,-0 87.66,-0 87.93,-0 88.2,-0 88.47,-0 88.73,-0 89,-0 89.27,-0 89.54,-0 89.81,-0 90.08,0 90.35,0 90.61,0 90.88,0 91.15,0 91.42,0 91.69,0 91.96,0 92.22,0 92.49,0 92.76,0 93.03,0 93.3,0 93.57,0 93.84,0 94.1,0 94.37,0 94.64,0 94.91,0 95.18,0 95.45,0 95.72,0 95.98,0 96.25,0 96.52,0 96.79,0 97.06,0 97.33,0 97.59,0 97.86,0 98.13,0 98.4,0 98.67,0 98.94,0 99.21,0 99.47,0 99.74,-0 100.01,-0 100.28,-0 100.55,-0 100.82,-0 101.08,0 101.35,0 101.62,0 101.89,0 102.16,0 102.43,0 102.7,0 102.96,0 103.23,0 103.5,0 103.77,0 104.04,0 104.31,0 104.58,0 104.84,0 105.11,0 105.38,0 105.65,0 105.92,0 106.19,0 106.45,0 106.72,0 106.99,0 107.26,0 " class="primitive"/>
            </g>
          </g>
        </g>
        <g stroke-width="0.3" fill="#000000" fill-opacity="0.000" class="geometry" id="img-94d1366f-35">
          <g class="color_RGB{Float64}(1.641689488274256e-7,0.0,0.5407779017411706)" stroke-dasharray="none" stroke-opacity="1" stroke="#00008A" id="img-94d1366f-36">
            <g transform="translate(139.74,38.94)" id="img-94d1366f-37">
              <path fill="none" d="M-107.26,0 L-106.99,0 -106.72,0 -106.45,0 -106.19,0 -105.92,0 -105.65,0 -105.38,0 -105.11,0 -104.84,0 -104.58,0 -104.31,0 -104.04,0 -103.77,0 -103.5,0 -103.23,0 -102.96,0 -102.7,0 -102.43,0 -102.16,0 -101.89,-0 -101.62,-0 -101.35,-0 -101.08,-0 -100.82,-0 -100.55,-0 -100.28,-0 -100.01,-0 -99.74,-0 -99.47,-0.01 -99.21,-0.01 -98.94,-0.02 -98.67,-0.04 -98.4,-0.07 -98.13,-0.09 -97.86,-0.12 -97.59,-0.13 -97.33,-0.13 -97.06,-0.09 -96.79,-0.03 -96.52,0.05 -96.25,0.12 -95.98,0.16 -95.72,0.14 -95.45,0.04 -95.18,-0.11 -94.91,-0.3 -94.64,-0.46 -94.37,-0.56 -94.1,-0.55 -93.84,-0.43 -93.57,-0.23 -93.3,-0.01 -93.03,0.2 -92.76,0.36 -92.49,0.52 -92.22,0.74 -91.96,1.12 -91.69,1.74 -91.42,2.58 -91.15,3.53 -90.88,4.34 -90.61,4.73 -90.35,4.38 -90.08,3.1 -89.81,0.9 -89.54,-2 -89.27,-5.17 -89,-8.07 -88.73,-10.11 -88.47,-10.87 -88.2,-10.13 -87.93,-7.99 -87.66,-4.81 -87.39,-1.12 -87.12,2.49 -86.86,5.46 -86.59,7.41 -86.32,8.18 -86.05,7.83 -85.78,6.6 -85.51,4.85 -85.24,2.91 -84.98,1.13 -84.71,-0.3 -84.44,-1.27 -84.17,-1.79 -83.9,-1.92 -83.63,-1.78 -83.36,-1.48 -83.1,-1.14 -82.83,-0.82 -82.56,-0.55 -82.29,-0.35 -82.02,-0.22 -81.75,-0.13 -81.49,-0.08 -81.22,-0.05 -80.95,-0.03 -80.68,-0.02 -80.41,-0.01 -80.14,-0.01 -79.87,-0.01 -79.61,-0 -79.34,-0 -79.07,-0 -78.8,-0 -78.53,-0 -78.26,-0 -78,0 -77.73,0 -77.46,0 -77.19,0 -76.92,-0 -76.65,0 -76.38,0 -76.12,0 -75.85,0 -75.58,0 -75.31,0 -75.04,0 -74.77,-0 -74.5,-0 -74.24,-0 -73.97,-0 -73.7,-0 -73.43,-0 -73.16,-0 -72.89,-0 -72.63,-0 -72.36,-0 -72.09,0 -71.82,0 -71.55,0 -71.28,0 -71.01,0 -70.75,0 -70.48,0 -70.21,0 -69.94,0 -69.67,0 -69.4,-0 -69.13,-0 -68.87,-0 -68.6,-0 -68.33,-0 -68.06,-0 -67.79,-0 -67.52,0 -67.26,0 -66.99,0 -66.72,0 -66.45,0 -66.18,0 -65.91,-0 -65.64,-0 -65.38,-0 -65.11,-0 -64.84,-0 -64.57,-0 -64.3,-0 -64.03,-0 -63.77,-0 -63.5,-0 -63.23,-0 -62.96,0 -62.69,0 -62.42,0 -62.15,0 -61.89,0 -61.62,0 -61.35,0 -61.08,0 -60.81,-0 -60.54,-0 -60.27,-0 -60.01,-0 -59.74,-0 -59.47,-0 -59.2,-0 -58.93,0 -58.66,0 -58.4,0 -58.13,0 -57.86,0 -57.59,0 -57.32,0 -57.05,0 -56.78,0 -56.52,0 -56.25,0 -55.98,0 -55.71,-0 -55.44,-0 -55.17,-0 -54.91,-0 -54.64,-0 -54.37,-0 -54.1,-0 -53.83,-0 -53.56,-0 -53.29,-0 -53.03,-0 -52.76,-0 -52.49,-0 -52.22,-0 -51.95,0 -51.68,0 -51.41,0 -51.15,0 -50.88,0 -50.61,0 -50.34,0 -50.07,0 -49.8,0 -49.54,0 -49.27,0 -49,0 -48.73,0 -48.46,0 -48.19,0 -47.92,0 -47.66,0 -47.39,0 -47.12,0 -46.85,0 -46.58,0 -46.31,0 -46.05,0 -45.78,0 -45.51,0 -45.24,0 -44.97,0 -44.7,0 -44.43,0 -44.17,0 -43.9,0 -43.63,0 -43.36,0 -43.09,0 -42.82,0 -42.55,0 -42.29,0 -42.02,0 -41.75,0 -41.48,0 -41.21,0 -40.94,0 -40.68,0 -40.41,0 -40.14,0 -39.87,0 -39.6,0 -39.33,0 -39.06,0 -38.8,0 -38.53,0 -38.26,0 -37.99,0 -37.72,0 -37.45,0 -37.19,0 -36.92,0 -36.65,0 -36.38,0 -36.11,0 -35.84,0 -35.57,0 -35.31,0 -35.04,0 -34.77,0 -34.5,0 -34.23,0 -33.96,0 -33.69,0 -33.43,0 -33.16,0 -32.89,0 -32.62,0 -32.35,0 -32.08,0 -31.82,0 -31.55,0 -31.28,0 -31.01,0 -30.74,0 -30.47,0 -30.2,0 -29.94,0 -29.67,0 -29.4,0 -29.13,0 -28.86,0 -28.59,0 -28.33,0 -28.06,0 -27.79,0 -27.52,0 -27.25,0 -26.98,0 -26.71,0 -26.45,0 -26.18,0 -25.91,0 -25.64,0 -25.37,0 -25.1,0 -24.83,0 -24.57,0 -24.3,0 -24.03,0 -23.76,0 -23.49,0 -23.22,0 -22.96,0 -22.69,0 -22.42,0 -22.15,0 -21.88,0 -21.61,0 -21.34,0 -21.08,0 -20.81,0 -20.54,0 -20.27,0 -20,0 -19.73,0 -19.47,0 -19.2,0 -18.93,0 -18.66,0 -18.39,0 -18.12,0 -17.85,0 -17.59,0 -17.32,0 -17.05,0 -16.78,0 -16.51,0 -16.24,0 -15.97,0 -15.71,0 -15.44,0 -15.17,0 -14.9,0 -14.63,0 -14.36,0 -14.1,0 -13.83,0 -13.56,0 -13.29,0 -13.02,0 -12.75,0 -12.48,0 -12.22,0 -11.95,0 -11.68,0 -11.41,0 -11.14,0 -10.87,0 -10.61,0 -10.34,0 -10.07,0 -9.8,0 -9.53,0 -9.26,0 -8.99,0 -8.73,0 -8.46,0 -8.19,0 -7.92,0 -7.65,0 -7.38,0 -7.11,0 -6.85,0 -6.58,0 -6.31,0 -6.04,0 -5.77,0 -5.5,0 -5.24,0 -4.97,0 -4.7,0 -4.43,0 -4.16,0 -3.89,0 -3.62,0 -3.36,0 -3.09,0 -2.82,0 -2.55,0 -2.28,0 -2.01,0 -1.75,0 -1.48,0 -1.21,0 -0.94,0 -0.67,0 -0.4,0 -0.13,0 0.13,0 0.4,0 0.67,0 0.94,0 1.21,0 1.48,0 1.75,0 2.01,0 2.28,0 2.55,0 2.82,0 3.09,0 3.36,0 3.62,0 3.89,0 4.16,0 4.43,0 4.7,0 4.97,0 5.24,0 5.5,0 5.77,0 6.04,0 6.31,0 6.58,0 6.85,0 7.11,0 7.38,0 7.65,0 7.92,0 8.19,0 8.46,0 8.73,0 8.99,0 9.26,0 9.53,0 9.8,0 10.07,0 10.34,0 10.61,0 10.87,0 11.14,0 11.41,0 11.68,0 11.95,0 12.22,0 12.48,0 12.75,0 13.02,0 13.29,0 13.56,0 13.83,0 14.1,0 14.36,0 14.63,0 14.9,0 15.17,0 15.44,0 15.71,0 15.97,0 16.24,0 16.51,0 16.78,0 17.05,0 17.32,0 17.59,0 17.85,0 18.12,0 18.39,0 18.66,0 18.93,0 19.2,0 19.47,0 19.73,0 20,0 20.27,0 20.54,0 20.81,0 21.08,0 21.34,0 21.61,0 21.88,0 22.15,0 22.42,0 22.69,0 22.96,0 23.22,0 23.49,0 23.76,0 24.03,0 24.3,0 24.57,0 24.83,0 25.1,0 25.37,0 25.64,0 25.91,0 26.18,0 26.45,0 26.71,0 26.98,0 27.25,0 27.52,0 27.79,0 28.06,0 28.33,0 28.59,0 28.86,0 29.13,0 29.4,0 29.67,0 29.94,0 30.2,0 30.47,0 30.74,0 31.01,0 31.28,0 31.55,0 31.82,0 32.08,0 32.35,0 32.62,0 32.89,0 33.16,0 33.43,0 33.69,0 33.96,0 34.23,0 34.5,0 34.77,0 35.04,0 35.31,0 35.57,0 35.84,0 36.11,0 36.38,0 36.65,0 36.92,0 37.19,0 37.45,0 37.72,0 37.99,0 38.26,0 38.53,0 38.8,0 39.06,0 39.33,0 39.6,0 39.87,0 40.14,0 40.41,0 40.68,0 40.94,0 41.21,0 41.48,0 41.75,0 42.02,0 42.29,0 42.55,0 42.82,0 43.09,0 43.36,0 43.63,0 43.9,0 44.17,0 44.43,0 44.7,0 44.97,0 45.24,0 45.51,0 45.78,0 46.05,0 46.31,0 46.58,0 46.85,0 47.12,0 47.39,0 47.66,0 47.92,0 48.19,0 48.46,0 48.73,0 49,0 49.27,0 49.54,0 49.8,0 50.07,0 50.34,0 50.61,0 50.88,0 51.15,0 51.41,0 51.68,0 51.95,0 52.22,0 52.49,0 52.76,0 53.03,0 53.29,0 53.56,0 53.83,0 54.1,0 54.37,0 54.64,0 54.91,0 55.17,0 55.44,0 55.71,0 55.98,0 56.25,0 56.52,0 56.78,0 57.05,0 57.32,0 57.59,0 57.86,0 58.13,0 58.4,0 58.66,0 58.93,0 59.2,0 59.47,0 59.74,0 60.01,0 60.27,0 60.54,0 60.81,0 61.08,0 61.35,0 61.62,0 61.89,0 62.15,0 62.42,0 62.69,0 62.96,0 63.23,0 63.5,0 63.77,0 64.03,0 64.3,0 64.57,0 64.84,0 65.11,0 65.38,0 65.64,0 65.91,0 66.18,0 66.45,0 66.72,0 66.99,0 67.26,0 67.52,0 67.79,0 68.06,0 68.33,0 68.6,0 68.87,0 69.13,0 69.4,0 69.67,0 69.94,0 70.21,0 70.48,0 70.75,0 71.01,0 71.28,0 71.55,0 71.82,0 72.09,0 72.36,0 72.63,0 72.89,0 73.16,0 73.43,0 73.7,0 73.97,0 74.24,0 74.5,0 74.77,0 75.04,0 75.31,0 75.58,0 75.85,0 76.12,0 76.38,0 76.65,0 76.92,0 77.19,0 77.46,0 77.73,0 78,0 78.26,0 78.53,0 78.8,0 79.07,0 79.34,0 79.61,0 79.87,0 80.14,0 80.41,0 80.68,0 80.95,0 81.22,0 81.49,0 81.75,0 82.02,0 82.29,0 82.56,0 82.83,0 83.1,0 83.36,0 83.63,0 83.9,0 84.17,0 84.44,0 84.71,0 84.98,0 85.24,0 85.51,0 85.78,0 86.05,0 86.32,0 86.59,0 86.86,0 87.12,0 87.39,0 87.66,0 87.93,0 88.2,0 88.47,0 88.73,0 89,0 89.27,0 89.54,0 89.81,0 90.08,0 90.35,0 90.61,0 90.88,0 91.15,0 91.42,0 91.69,0 91.96,0 92.22,0 92.49,0 92.76,0 93.03,0 93.3,0 93.57,0 93.84,0 94.1,0 94.37,0 94.64,0 94.91,0 95.18,0 95.45,0 95.72,0 95.98,0 96.25,0 96.52,0 96.79,0 97.06,0 97.33,0 97.59,0 97.86,0 98.13,0 98.4,0 98.67,0 98.94,0 99.21,0 99.47,0 99.74,0 100.01,0 100.28,0 100.55,0 100.82,0 101.08,0 101.35,0 101.62,0 101.89,0 102.16,0 102.43,0 102.7,0 102.96,0 103.23,0 103.5,0 103.77,0 104.04,0 104.31,0 104.58,0 104.84,0 105.11,0 105.38,0 105.65,0 105.92,0 106.19,0 106.45,0 106.72,0 106.99,0 107.26,0 " class="primitive"/>
            </g>
          </g>
        </g>
        <g stroke-width="0.3" fill="#000000" fill-opacity="0.000" class="geometry" id="img-94d1366f-38">
          <g class="color_RGB{Float64}(7.336715728811782e-7,0.44403268331118134,1.0)" stroke-dasharray="none" stroke-opacity="1" stroke="#0071FF" id="img-94d1366f-39">
            <g transform="translate(139.74,38.94)" id="img-94d1366f-40">
              <path fill="none" d="M-107.26,0 L-106.99,0 -106.72,0 -106.45,0 -106.19,0 -105.92,0 -105.65,0 -105.38,0 -105.11,0 -104.84,0 -104.58,0 -104.31,0 -104.04,0 -103.77,0 -103.5,0 -103.23,0 -102.96,0 -102.7,0 -102.43,0 -102.16,0 -101.89,0 -101.62,0 -101.35,0 -101.08,0 -100.82,0 -100.55,0 -100.28,0 -100.01,0 -99.74,0 -99.47,0 -99.21,-0 -98.94,-0 -98.67,-0 -98.4,-0 -98.13,-0 -97.86,-0 -97.59,-0 -97.33,-0 -97.06,-0 -96.79,-0 -96.52,0 -96.25,0 -95.98,0 -95.72,0 -95.45,0 -95.18,-0 -94.91,-0 -94.64,-0 -94.37,-0 -94.1,-0 -93.84,-0 -93.57,-0 -93.3,-0 -93.03,0 -92.76,0 -92.49,0 -92.22,0 -91.96,0 -91.69,0 -91.42,0 -91.15,0 -90.88,0 -90.61,0 -90.35,0 -90.08,0 -89.81,0 -89.54,-0 -89.27,-0 -89,-0 -88.73,-0 -88.47,-0 -88.2,-0 -87.93,-0 -87.66,-0 -87.39,-0 -87.12,0 -86.86,0 -86.59,0 -86.32,0 -86.05,0 -85.78,0 -85.51,0 -85.24,0 -84.98,0 -84.71,-0 -84.44,-0 -84.17,-0 -83.9,-0 -83.63,-0 -83.36,-0 -83.1,-0 -82.83,-0 -82.56,-0 -82.29,-0 -82.02,-0 -81.75,-0 -81.49,-0 -81.22,-0 -80.95,-0.01 -80.68,-0.02 -80.41,-0.03 -80.14,-0.05 -79.87,-0.08 -79.61,-0.12 -79.34,-0.16 -79.07,-0.2 -78.8,-0.23 -78.53,-0.24 -78.26,-0.22 -78,-0.14 -77.73,-0.01 -77.46,0.17 -77.19,0.38 -76.92,0.62 -76.65,0.84 -76.38,1 -76.12,1.08 -75.85,1.03 -75.58,0.85 -75.31,0.55 -75.04,0.14 -74.77,-0.33 -74.5,-0.8 -74.24,-1.2 -73.97,-1.5 -73.7,-1.63 -73.43,-1.6 -73.16,-1.39 -72.89,-1.05 -72.63,-0.61 -72.36,-0.15 -72.09,0.29 -71.82,0.65 -71.55,0.89 -71.28,1.01 -71.01,1 -70.75,0.89 -70.48,0.7 -70.21,0.48 -69.94,0.26 -69.67,0.06 -69.4,-0.09 -69.13,-0.18 -68.87,-0.21 -68.6,-0.2 -68.33,-0.15 -68.06,-0.08 -67.79,-0.02 -67.52,0.04 -67.26,0.08 -66.99,0.1 -66.72,0.09 -66.45,0.07 -66.18,0.03 -65.91,-0.01 -65.64,-0.05 -65.38,-0.08 -65.11,-0.11 -64.84,-0.12 -64.57,-0.11 -64.3,-0.1 -64.03,-0.08 -63.77,-0.06 -63.5,-0.03 -63.23,-0.01 -62.96,0.01 -62.69,0.02 -62.42,0.03 -62.15,0.03 -61.89,0.02 -61.62,0.02 -61.35,0.01 -61.08,0 -60.81,-0 -60.54,-0.01 -60.27,-0.01 -60.01,-0.01 -59.74,-0.01 -59.47,-0.01 -59.2,-0 -58.93,0 -58.66,0.01 -58.4,0.01 -58.13,0.01 -57.86,0.01 -57.59,0.01 -57.32,0.01 -57.05,0.01 -56.78,0.01 -56.52,0 -56.25,0 -55.98,0 -55.71,-0 -55.44,-0 -55.17,-0 -54.91,-0 -54.64,-0 -54.37,-0 -54.1,-0 -53.83,-0 -53.56,-0 -53.29,-0 -53.03,-0 -52.76,-0 -52.49,-0 -52.22,-0 -51.95,-0 -51.68,-0 -51.41,-0 -51.15,-0 -50.88,-0 -50.61,-0 -50.34,-0 -50.07,-0 -49.8,-0 -49.54,-0 -49.27,-0 -49,-0 -48.73,-0 -48.46,-0 -48.19,-0 -47.92,-0 -47.66,-0 -47.39,-0 -47.12,-0 -46.85,0 -46.58,0 -46.31,0 -46.05,0 -45.78,0 -45.51,0 -45.24,0 -44.97,0 -44.7,0 -44.43,0 -44.17,0 -43.9,0 -43.63,0 -43.36,0 -43.09,0 -42.82,0 -42.55,0 -42.29,0 -42.02,0 -41.75,0 -41.48,0 -41.21,0 -40.94,0 -40.68,0 -40.41,0 -40.14,0 -39.87,0 -39.6,0 -39.33,0 -39.06,0 -38.8,0 -38.53,0 -38.26,0 -37.99,0 -37.72,0 -37.45,0 -37.19,0 -36.92,0 -36.65,0 -36.38,0 -36.11,0 -35.84,0 -35.57,0 -35.31,0 -35.04,0 -34.77,0 -34.5,0 -34.23,0 -33.96,0 -33.69,0 -33.43,0 -33.16,0 -32.89,0 -32.62,0 -32.35,0 -32.08,0 -31.82,0 -31.55,0 -31.28,0 -31.01,0 -30.74,0 -30.47,0 -30.2,0 -29.94,0 -29.67,0 -29.4,0 -29.13,0 -28.86,0 -28.59,0 -28.33,0 -28.06,0 -27.79,0 -27.52,0 -27.25,0 -26.98,0 -26.71,0 -26.45,0 -26.18,0 -25.91,0 -25.64,0 -25.37,0 -25.1,0 -24.83,0 -24.57,0 -24.3,0 -24.03,0 -23.76,0 -23.49,0 -23.22,0 -22.96,0 -22.69,0 -22.42,0 -22.15,0 -21.88,0 -21.61,0 -21.34,0 -21.08,0 -20.81,0 -20.54,0 -20.27,0 -20,0 -19.73,0 -19.47,0 -19.2,0 -18.93,0 -18.66,0 -18.39,0 -18.12,0 -17.85,0 -17.59,0 -17.32,0 -17.05,0 -16.78,0 -16.51,0 -16.24,0 -15.97,0 -15.71,0 -15.44,0 -15.17,0 -14.9,0 -14.63,0 -14.36,0 -14.1,0 -13.83,0 -13.56,0 -13.29,0 -13.02,0 -12.75,0 -12.48,0 -12.22,0 -11.95,0 -11.68,0 -11.41,0 -11.14,0 -10.87,0 -10.61,0 -10.34,0 -10.07,0 -9.8,0 -9.53,0 -9.26,0 -8.99,0 -8.73,0 -8.46,0 -8.19,0 -7.92,0 -7.65,0 -7.38,0 -7.11,0 -6.85,0 -6.58,0 -6.31,0 -6.04,0 -5.77,0 -5.5,0 -5.24,0 -4.97,0 -4.7,0 -4.43,0 -4.16,0 -3.89,0 -3.62,0 -3.36,0 -3.09,0 -2.82,0 -2.55,0 -2.28,0 -2.01,0 -1.75,0 -1.48,0 -1.21,0 -0.94,0 -0.67,0 -0.4,0 -0.13,0 0.13,0 0.4,0 0.67,0 0.94,0 1.21,0 1.48,0 1.75,0 2.01,0 2.28,0 2.55,0 2.82,0 3.09,0 3.36,0 3.62,0 3.89,0 4.16,0 4.43,0 4.7,0 4.97,0 5.24,0 5.5,0 5.77,0 6.04,0 6.31,0 6.58,0 6.85,0 7.11,0 7.38,0 7.65,0 7.92,0 8.19,0 8.46,0 8.73,0 8.99,0 9.26,0 9.53,0 9.8,0 10.07,0 10.34,0 10.61,0 10.87,0 11.14,0 11.41,0 11.68,0 11.95,0 12.22,0 12.48,0 12.75,0 13.02,0 13.29,0 13.56,0 13.83,0 14.1,0 14.36,0 14.63,0 14.9,0 15.17,0 15.44,0 15.71,0 15.97,0 16.24,0 16.51,0 16.78,0 17.05,0 17.32,0 17.59,0 17.85,0 18.12,0 18.39,0 18.66,0 18.93,0 19.2,0 19.47,0 19.73,0 20,0 20.27,0 20.54,0 20.81,0 21.08,0 21.34,0 21.61,0 21.88,0 22.15,0 22.42,0 22.69,0 22.96,0 23.22,0 23.49,0 23.76,0 24.03,0 24.3,0 24.57,0 24.83,0 25.1,0 25.37,0 25.64,0 25.91,0 26.18,0 26.45,0 26.71,0 26.98,0 27.25,0 27.52,0 27.79,0 28.06,0 28.33,0 28.59,0 28.86,0 29.13,0 29.4,0 29.67,0 29.94,0 30.2,0 30.47,0 30.74,0 31.01,0 31.28,0 31.55,0 31.82,0 32.08,0 32.35,0 32.62,0 32.89,0 33.16,0 33.43,0 33.69,0 33.96,0 34.23,0 34.5,0 34.77,0 35.04,0 35.31,0 35.57,0 35.84,0 36.11,0 36.38,0 36.65,0 36.92,0 37.19,0 37.45,0 37.72,0 37.99,0 38.26,0 38.53,0 38.8,0 39.06,0 39.33,0 39.6,0 39.87,0 40.14,0 40.41,0 40.68,0 40.94,0 41.21,0 41.48,0 41.75,0 42.02,0 42.29,0 42.55,0 42.82,0 43.09,0 43.36,0 43.63,0 43.9,0 44.17,0 44.43,0 44.7,0 44.97,0 45.24,0 45.51,0 45.78,0 46.05,0 46.31,0 46.58,0 46.85,0 47.12,0 47.39,0 47.66,0 47.92,0 48.19,0 48.46,0 48.73,0 49,0 49.27,0 49.54,0 49.8,0 50.07,0 50.34,0 50.61,0 50.88,0 51.15,0 51.41,0 51.68,0 51.95,0 52.22,0 52.49,0 52.76,0 53.03,0 53.29,0 53.56,0 53.83,0 54.1,0 54.37,0 54.64,0 54.91,0 55.17,0 55.44,0 55.71,0 55.98,0 56.25,0 56.52,0 56.78,0 57.05,0 57.32,0 57.59,0 57.86,0 58.13,0 58.4,0 58.66,0 58.93,0 59.2,0 59.47,0 59.74,0 60.01,0 60.27,0 60.54,0 60.81,0 61.08,0 61.35,0 61.62,0 61.89,0 62.15,0 62.42,0 62.69,0 62.96,0 63.23,0 63.5,0 63.77,0 64.03,0 64.3,0 64.57,0 64.84,0 65.11,0 65.38,0 65.64,0 65.91,0 66.18,0 66.45,0 66.72,0 66.99,0 67.26,0 67.52,0 67.79,0 68.06,0 68.33,0 68.6,0 68.87,0 69.13,0 69.4,0 69.67,0 69.94,0 70.21,0 70.48,0 70.75,0 71.01,0 71.28,0 71.55,0 71.82,0 72.09,0 72.36,0 72.63,0 72.89,0 73.16,0 73.43,0 73.7,0 73.97,0 74.24,0 74.5,0 74.77,0 75.04,0 75.31,0 75.58,0 75.85,0 76.12,0 76.38,0 76.65,0 76.92,0 77.19,0 77.46,0 77.73,0 78,0 78.26,0 78.53,0 78.8,0 79.07,0 79.34,0 79.61,0 79.87,0 80.14,0 80.41,0 80.68,0 80.95,0 81.22,0 81.49,0 81.75,0 82.02,0 82.29,0 82.56,0 82.83,0 83.1,0 83.36,0 83.63,0 83.9,0 84.17,0 84.44,0 84.71,0 84.98,0 85.24,0 85.51,0 85.78,0 86.05,0 86.32,0 86.59,0 86.86,0 87.12,0 87.39,0 87.66,0 87.93,0 88.2,0 88.47,0 88.73,0 89,0 89.27,0 89.54,0 89.81,0 90.08,0 90.35,0 90.61,0 90.88,0 91.15,0 91.42,0 91.69,0 91.96,0 92.22,0 92.49,0 92.76,0 93.03,0 93.3,0 93.57,0 93.84,0 94.1,0 94.37,0 94.64,0 94.91,0 95.18,0 95.45,0 95.72,0 95.98,0 96.25,0 96.52,0 96.79,0 97.06,0 97.33,0 97.59,0 97.86,0 98.13,0 98.4,0 98.67,0 98.94,0 99.21,0 99.47,0 99.74,0 100.01,0 100.28,0 100.55,0 100.82,0 101.08,0 101.35,0 101.62,0 101.89,0 102.16,0 102.43,0 102.7,0 102.96,0 103.23,0 103.5,0 103.77,0 104.04,0 104.31,0 104.58,0 104.84,0 105.11,0 105.38,0 105.65,0 105.92,0 106.19,0 106.45,0 106.72,0 106.99,0 107.26,0 " class="primitive"/>
            </g>
          </g>
        </g>
        <g stroke-width="0.3" fill="#000000" fill-opacity="0.000" class="geometry" id="img-94d1366f-41">
          <g class="color_RGB{Float64}(0.0,0.6588235294117647,0.17647058823529413)" stroke-dasharray="none" stroke-opacity="1" stroke="#00A82D" id="img-94d1366f-42">
            <g transform="translate(139.74,38.94)" id="img-94d1366f-43">
              <path fill="none" d="M-107.26,0 L-106.99,0 -106.72,0 -106.45,0 -106.19,0 -105.92,0 -105.65,0 -105.38,0 -105.11,0 -104.84,0 -104.58,0 -104.31,0 -104.04,0 -103.77,0 -103.5,0 -103.23,0 -102.96,0 -102.7,0 -102.43,0 -102.16,0 -101.89,0 -101.62,0 -101.35,0 -101.08,0 -100.82,0 -100.55,0 -100.28,0 -100.01,0 -99.74,0 -99.47,0 -99.21,0 -98.94,0 -98.67,0 -98.4,0 -98.13,0 -97.86,0 -97.59,0 -97.33,0 -97.06,0 -96.79,0 -96.52,0 -96.25,-0 -95.98,-0 -95.72,-0 -95.45,0 -95.18,0 -94.91,0 -94.64,0 -94.37,0 -94.1,0 -93.84,0 -93.57,0 -93.3,0 -93.03,-0 -92.76,-0 -92.49,-0 -92.22,-0 -91.96,-0 -91.69,-0 -91.42,-0 -91.15,-0 -90.88,-0 -90.61,-0 -90.35,-0 -90.08,-0 -89.81,-0 -89.54,0 -89.27,0 -89,0 -88.73,0 -88.47,0 -88.2,0 -87.93,0 -87.66,0 -87.39,0 -87.12,-0 -86.86,-0 -86.59,-0 -86.32,-0 -86.05,-0 -85.78,-0 -85.51,-0 -85.24,-0 -84.98,-0 -84.71,0 -84.44,0 -84.17,0 -83.9,0 -83.63,0 -83.36,0 -83.1,0 -82.83,0 -82.56,0 -82.29,0 -82.02,0 -81.75,0 -81.49,0 -81.22,0 -80.95,0 -80.68,0 -80.41,0 -80.14,0.01 -79.87,0.01 -79.61,0.01 -79.34,0.02 -79.07,0.02 -78.8,0.03 -78.53,0.03 -78.26,0.03 -78,0.02 -77.73,0 -77.46,-0.02 -77.19,-0.05 -76.92,-0.08 -76.65,-0.1 -76.38,-0.12 -76.12,-0.13 -75.85,-0.13 -75.58,-0.11 -75.31,-0.07 -75.04,-0.02 -74.77,0.02 -74.5,0.07 -74.24,0.1 -73.97,0.11 -73.7,0.09 -73.43,0.04 -73.16,-0.02 -72.89,-0.1 -72.63,-0.18 -72.36,-0.22 -72.09,-0.23 -71.82,-0.18 -71.55,-0.06 -71.28,0.12 -71.01,0.34 -70.75,0.59 -70.48,0.82 -70.21,1 -69.94,1.09 -69.67,1.06 -69.4,0.9 -69.13,0.61 -68.87,0.22 -68.6,-0.24 -68.33,-0.71 -68.06,-1.14 -67.79,-1.48 -67.52,-1.67 -67.26,-1.7 -66.99,-1.56 -66.72,-1.28 -66.45,-0.89 -66.18,-0.44 -65.91,0.02 -65.64,0.44 -65.38,0.77 -65.11,0.98 -64.84,1.08 -64.57,1.06 -64.3,0.94 -64.03,0.75 -63.77,0.52 -63.5,0.3 -63.23,0.09 -62.96,-0.07 -62.69,-0.18 -62.42,-0.24 -62.15,-0.25 -61.89,-0.21 -61.62,-0.16 -61.35,-0.09 -61.08,-0.02 -60.81,0.04 -60.54,0.08 -60.27,0.1 -60.01,0.1 -59.74,0.08 -59.47,0.05 -59.2,0.01 -58.93,-0.02 -58.66,-0.06 -58.4,-0.08 -58.13,-0.1 -57.86,-0.11 -57.59,-0.1 -57.32,-0.09 -57.05,-0.08 -56.78,-0.06 -56.52,-0.04 -56.25,-0.02 -55.98,-0.01 -55.71,0.01 -55.44,0.01 -55.17,0.02 -54.91,0.02 -54.64,0.02 -54.37,0.02 -54.1,0.02 -53.83,0.01 -53.56,0.01 -53.29,0.01 -53.03,0.01 -52.76,0 -52.49,0 -52.22,0 -51.95,0 -51.68,0 -51.41,0 -51.15,0 -50.88,0 -50.61,0 -50.34,0 -50.07,0 -49.8,0 -49.54,0 -49.27,0 -49,0 -48.73,0 -48.46,0 -48.19,0 -47.92,0 -47.66,0 -47.39,0 -47.12,0 -46.85,0 -46.58,0 -46.31,0 -46.05,0 -45.78,0 -45.51,0 -45.24,0 -44.97,0 -44.7,0 -44.43,0 -44.17,0 -43.9,0 -43.63,0 -43.36,0 -43.09,0 -42.82,0 -42.55,0 -42.29,0 -42.02,0 -41.75,0 -41.48,0 -41.21,0 -40.94,0 -40.68,0 -40.41,0 -40.14,0 -39.87,0 -39.6,0 -39.33,0 -39.06,0 -38.8,0 -38.53,0 -38.26,0 -37.99,0 -37.72,0 -37.45,0 -37.19,0 -36.92,0 -36.65,0 -36.38,0 -36.11,0 -35.84,0 -35.57,0 -35.31,0 -35.04,0 -34.77,0 -34.5,0 -34.23,0 -33.96,0 -33.69,0 -33.43,0 -33.16,0 -32.89,0 -32.62,0 -32.35,0 -32.08,0 -31.82,0 -31.55,0 -31.28,0 -31.01,0 -30.74,0 -30.47,0 -30.2,0 -29.94,0 -29.67,0 -29.4,0 -29.13,0 -28.86,0 -28.59,0 -28.33,0 -28.06,0 -27.79,0 -27.52,0 -27.25,0 -26.98,0 -26.71,0 -26.45,0 -26.18,0 -25.91,0 -25.64,0 -25.37,0 -25.1,0 -24.83,0 -24.57,0 -24.3,0 -24.03,0 -23.76,0 -23.49,0 -23.22,0 -22.96,0 -22.69,0 -22.42,0 -22.15,0 -21.88,0 -21.61,0 -21.34,0 -21.08,0 -20.81,0 -20.54,0 -20.27,0 -20,0 -19.73,0 -19.47,0 -19.2,0 -18.93,0 -18.66,0 -18.39,0 -18.12,0 -17.85,0 -17.59,0 -17.32,0 -17.05,0 -16.78,0 -16.51,0 -16.24,0 -15.97,0 -15.71,0 -15.44,0 -15.17,0 -14.9,0 -14.63,0 -14.36,0 -14.1,0 -13.83,0 -13.56,0 -13.29,0 -13.02,0 -12.75,0 -12.48,0 -12.22,0 -11.95,0 -11.68,0 -11.41,0 -11.14,0 -10.87,0 -10.61,0 -10.34,0 -10.07,0 -9.8,0 -9.53,0 -9.26,0 -8.99,0 -8.73,0 -8.46,0 -8.19,0 -7.92,0 -7.65,0 -7.38,0 -7.11,0 -6.85,0 -6.58,0 -6.31,0 -6.04,0 -5.77,0 -5.5,0 -5.24,0 -4.97,0 -4.7,0 -4.43,0 -4.16,0 -3.89,0 -3.62,0 -3.36,0 -3.09,0 -2.82,0 -2.55,0 -2.28,0 -2.01,0 -1.75,0 -1.48,0 -1.21,0 -0.94,0 -0.67,0 -0.4,0 -0.13,0 0.13,0 0.4,0 0.67,0 0.94,0 1.21,0 1.48,0 1.75,0 2.01,0 2.28,0 2.55,0 2.82,0 3.09,0 3.36,0 3.62,0 3.89,0 4.16,0 4.43,0 4.7,0 4.97,0 5.24,0 5.5,0 5.77,0 6.04,0 6.31,0 6.58,0 6.85,0 7.11,0 7.38,0 7.65,0 7.92,0 8.19,0 8.46,0 8.73,0 8.99,0 9.26,0 9.53,0 9.8,0 10.07,0 10.34,0 10.61,0 10.87,0 11.14,0 11.41,0 11.68,0 11.95,0 12.22,0 12.48,0 12.75,0 13.02,0 13.29,0 13.56,0 13.83,0 14.1,0 14.36,0 14.63,0 14.9,0 15.17,0 15.44,0 15.71,0 15.97,0 16.24,0 16.51,0 16.78,0 17.05,0 17.32,0 17.59,0 17.85,0 18.12,0 18.39,0 18.66,0 18.93,0 19.2,0 19.47,0 19.73,0 20,0 20.27,0 20.54,0 20.81,0 21.08,0 21.34,0 21.61,0 21.88,0 22.15,0 22.42,0 22.69,0 22.96,0 23.22,0 23.49,0 23.76,0 24.03,0 24.3,0 24.57,0 24.83,0 25.1,0 25.37,0 25.64,0 25.91,0 26.18,0 26.45,0 26.71,0 26.98,0 27.25,0 27.52,0 27.79,0 28.06,0 28.33,0 28.59,0 28.86,0 29.13,0 29.4,0 29.67,0 29.94,0 30.2,0 30.47,0 30.74,0 31.01,0 31.28,0 31.55,0 31.82,0 32.08,0 32.35,0 32.62,0 32.89,0 33.16,0 33.43,0 33.69,0 33.96,0 34.23,0 34.5,0 34.77,0 35.04,0 35.31,0 35.57,0 35.84,0 36.11,0 36.38,0 36.65,0 36.92,0 37.19,0 37.45,0 37.72,0 37.99,0 38.26,0 38.53,0 38.8,0 39.06,0 39.33,0 39.6,0 39.87,0 40.14,0 40.41,0 40.68,0 40.94,0 41.21,0 41.48,0 41.75,0 42.02,0 42.29,0 42.55,0 42.82,0 43.09,0 43.36,0 43.63,0 43.9,0 44.17,0 44.43,0 44.7,0 44.97,0 45.24,0 45.51,0 45.78,0 46.05,0 46.31,0 46.58,0 46.85,0 47.12,0 47.39,0 47.66,0 47.92,0 48.19,0 48.46,0 48.73,0 49,0 49.27,0 49.54,0 49.8,0 50.07,0 50.34,0 50.61,0 50.88,0 51.15,0 51.41,0 51.68,0 51.95,0 52.22,0 52.49,0 52.76,0 53.03,0 53.29,0 53.56,0 53.83,0 54.1,0 54.37,0 54.64,0 54.91,0 55.17,0 55.44,0 55.71,0 55.98,0 56.25,0 56.52,0 56.78,0 57.05,0 57.32,0 57.59,0 57.86,0 58.13,0 58.4,0 58.66,0 58.93,0 59.2,0 59.47,0 59.74,0 60.01,0 60.27,0 60.54,0 60.81,0 61.08,0 61.35,0 61.62,0 61.89,0 62.15,0 62.42,0 62.69,0 62.96,0 63.23,0 63.5,0 63.77,0 64.03,0 64.3,0 64.57,0 64.84,0 65.11,0 65.38,0 65.64,0 65.91,0 66.18,0 66.45,0 66.72,0 66.99,0 67.26,0 67.52,0 67.79,0 68.06,0 68.33,0 68.6,0 68.87,0 69.13,0 69.4,0 69.67,0 69.94,0 70.21,0 70.48,0 70.75,0 71.01,0 71.28,0 71.55,0 71.82,0 72.09,0 72.36,0 72.63,0 72.89,0 73.16,0 73.43,0 73.7,0 73.97,0 74.24,0 74.5,0 74.77,0 75.04,0 75.31,0 75.58,0 75.85,0 76.12,0 76.38,0 76.65,0 76.92,0 77.19,0 77.46,0 77.73,0 78,0 78.26,0 78.53,0 78.8,0 79.07,0 79.34,0 79.61,0 79.87,0 80.14,0 80.41,0 80.68,0 80.95,0 81.22,0 81.49,0 81.75,0 82.02,0 82.29,0 82.56,0 82.83,0 83.1,0 83.36,0 83.63,0 83.9,0 84.17,0 84.44,0 84.71,0 84.98,0 85.24,0 85.51,0 85.78,0 86.05,0 86.32,0 86.59,0 86.86,0 87.12,0 87.39,0 87.66,0 87.93,0 88.2,0 88.47,0 88.73,0 89,0 89.27,0 89.54,0 89.81,0 90.08,0 90.35,0 90.61,0 90.88,0 91.15,0 91.42,0 91.69,0 91.96,0 92.22,0 92.49,0 92.76,0 93.03,0 93.3,0 93.57,0 93.84,0 94.1,0 94.37,0 94.64,0 94.91,0 95.18,0 95.45,0 95.72,0 95.98,0 96.25,0 96.52,0 96.79,0 97.06,0 97.33,0 97.59,0 97.86,0 98.13,0 98.4,0 98.67,0 98.94,0 99.21,0 99.47,0 99.74,0 100.01,0 100.28,0 100.55,0 100.82,0 101.08,0 101.35,0 101.62,0 101.89,0 102.16,0 102.43,0 102.7,0 102.96,0 103.23,0 103.5,0 103.77,0 104.04,0 104.31,0 104.58,0 104.84,0 105.11,0 105.38,0 105.65,0 105.92,0 106.19,0 106.45,0 106.72,0 106.99,0 107.26,0 " class="primitive"/>
            </g>
          </g>
        </g>
      </g>
    </g>
  </g>
  <g class="guide ylabels" font-size="2.82" font-family="'PT Sans Caption','Helvetica Neue','Helvetica',sans-serif" fill="#6C606B" id="img-94d1366f-44">
    <g transform="translate(29.21,54.91)" id="img-94d1366f-45">
      <g class="primitive">
        <text text-anchor="end" dy="0.35em">-5.010</text>
      </g>
    </g>
    <g transform="translate(29.21,38.94)" id="img-94d1366f-46">
      <g class="primitive">
        <text text-anchor="end" dy="0.35em">0</text>
      </g>
    </g>
    <g transform="translate(29.21,22.97)" id="img-94d1366f-47">
      <g class="primitive">
        <text text-anchor="end" dy="0.35em">5.010</text>
      </g>
    </g>
    <g transform="translate(29.21,7)" id="img-94d1366f-48">
      <g class="primitive">
        <text text-anchor="end" dy="0.35em">1.010</text>
      </g>
    </g>
  </g>
  <g font-size="3.88" font-family="'PT Sans','Helvetica Neue','Helvetica',sans-serif" fill="#564A55" stroke="#000000" stroke-opacity="0.000" id="img-94d1366f-49">
    <g transform="translate(8.81,28.96)" id="img-94d1366f-50">
      <g class="primitive">
        <text text-anchor="middle" dy="0.35em" transform="rotate(-90,0, 2)">Filtered</text>
      </g>
    </g>
  </g>
</g>
<defs>
  <clipPath id="img-94d1366f-4">
    <path d="M30.21,5 L249,5 249,56.91 30.21,56.91 " />
  </clipPath>
</defs>
</svg>
