<?xml version="1.0" encoding="UTF-8"?>
<svg xmlns="http://www.w3.org/2000/svg"
     xmlns:xlink="http://www.w3.org/1999/xlink"
     xmlns:gadfly="http://www.gadflyjl.org/ns"
     version="1.2"
     width="254mm" height="76.2mm" viewBox="0 0 254 76.2"
     stroke="none"
     fill="#000000"
     stroke-width="0.3"
     font-size="3.88"
>
<defs>
  <marker id="arrow" markerWidth="15" markerHeight="7" refX="5" refY="3.5" orient="auto" markerUnits="strokeWidth">
    <path d="M0,0 L15,3.5 L0,7 z" stroke="context-stroke" fill="context-stroke"/>
  </marker>
</defs>
<g class="plotroot xscalable yscalable" id="img-40422b4a-1">
  <g font-size="3.18" font-family="'PT Sans','Helvetica Neue','Helvetica',sans-serif" fill="#202020" stroke="#000000" stroke-opacity="0.000" id="img-40422b4a-2">
    <g transform="translate(136.36,69.54)">
      <g class="primitive">
        <text text-anchor="middle" dy="0.6em">Channels</text>
      </g>
    </g>
  </g>
  <g class="guide xlabels" font-size="2.82" font-family="'PT Sans Caption','Helvetica Neue','Helvetica',sans-serif" fill="#6C606B" id="img-40422b4a-3">
    <g transform="translate(121.02,62.87)">
      <g class="primitive">
        <text text-anchor="middle" dy="0.6em">500</text>
      </g>
    </g>
    <g transform="translate(222.64,62.87)">
      <g class="primitive">
        <text text-anchor="middle" dy="0.6em">1000</text>
      </g>
    </g>
  </g>
  <g clip-path="url(#img-40422b4a-4)">
    <g id="img-40422b4a-5">
      <g pointer-events="visible" stroke-width="0.3" fill="#FDFDF1" stroke="#202020" class="guide background" id="img-40422b4a-6">
        <g transform="translate(136.36,33.76)" id="img-40422b4a-7">
          <path d="M-116.93,-28.1 L 116.93 -28.1 116.93 28.1 -116.93 28.1 z" class="primitive"/>
        </g>
      </g>
      <g class="guide ygridlines xfixed" stroke-dasharray="none" stroke-width="0.2" stroke="#FFDFDF" id="img-40422b4a-8">
        <g transform="translate(136.36,59.87)" id="img-40422b4a-9">
          <path fill="none" d="M-116.93,0 L 116.93 0" class="primitive"/>
        </g>
        <g transform="translate(136.36,39.38)" id="img-40422b4a-10">
          <path fill="none" d="M-116.93,0 L 116.93 0" class="primitive"/>
        </g>
        <g transform="translate(136.36,18.89)" id="img-40422b4a-11">
          <path fill="none" d="M-116.93,0 L 116.93 0" class="primitive"/>
        </g>
      </g>
      <g class="guide xgridlines yfixed" stroke-dasharray="none" stroke-width="0.2" stroke="#FFDFDF" id="img-40422b4a-12">
        <g transform="translate(121.02,33.76)" id="img-40422b4a-13">
          <path fill="none" d="M0,-28.1 L 0 28.1" class="primitive"/>
        </g>
        <g transform="translate(222.64,33.76)" id="img-40422b4a-14">
          <path fill="none" d="M0,-28.1 L 0 28.1" class="primitive"/>
        </g>
      </g>
      <g class="plotpanel" id="img-40422b4a-15">
        <metadata>
          <boundingbox value="19.427222222222248mm 5.660555555555554mm 233.86722222222224mm 56.20555555555556mm"/>
          <unitbox value="0.15953654404354367 26457.406568990158 1150.6809269119128 -27433.59457399543"/>
        </metadata>
        <g class="geometry" stroke="#000000" stroke-opacity="0.000" fill="#4C404B" font-size="2.82" font-family="'PT Sans Caption','Helvetica Neue','Helvetica',sans-serif" id="img-40422b4a-16">
          <g class="marker" id="img-40422b4a-17">
            <g transform="translate(162.88,33.76)" id="img-40422b4a-18">
              <g class="primitive">
                <text text-anchor="middle" dy="-0em" transform="translate(0,-1.9)">0.0668</text>
              </g>
            </g>
          </g>
        </g>
        <g class="geometry" stroke="#000000" stroke-opacity="0.000" fill="#4C404B" font-size="2.82" font-family="'PT Sans Caption','Helvetica Neue','Helvetica',sans-serif" id="img-40422b4a-19">
          <g class="marker" id="img-40422b4a-20">
            <g transform="translate(157.6,33.76)" id="img-40422b4a-21">
              <g class="primitive">
                <text dy="0.35em" transform="translate(1.9,0)"></text>
              </g>
            </g>
            <g transform="translate(168.17,33.76)" id="img-40422b4a-22">
              <g class="primitive">
                <text dy="0.35em" transform="translate(1.9,0)">Fe K-M3 + 3 others</text>
              </g>
            </g>
          </g>
        </g>
        <g class="geometry" id="img-40422b4a-23">
          <g stroke-width="0.3" id="img-40422b4a-24">
            <g class="color_RGBA{Float32}(0.5019608f0,0.5019608f0,0.5019608f0,1.0f0)" fill-opacity="1" stroke="#FFFFFF" fill="#808080" id="img-40422b4a-25">
              <g class="marker" id="img-40422b4a-26">
                <g transform="translate(168.17,33.76)" id="img-40422b4a-27">
                  <circle cx="0" cy="0" r="0.9" class="primitive"/>
                </g>
              </g>
            </g>
            <g class="color_RGBA{Float32}(0.5019608f0,0.5019608f0,0.5019608f0,1.0f0)" fill-opacity="1" stroke="#FFFFFF" fill="#808080" id="img-40422b4a-28">
              <g class="marker" id="img-40422b4a-29">
                <g transform="translate(157.6,33.76)" id="img-40422b4a-30">
                  <circle cx="0" cy="0" r="0.9" class="primitive"/>
                </g>
              </g>
            </g>
          </g>
        </g>
        <g stroke-width="0.3" fill="#000000" fill-opacity="0.000" class="geometry" id="img-40422b4a-31">
          <g class="color_RGB{N0f8}(0.502,0.502,0.502)" stroke-dasharray="none" stroke="#808080" id="img-40422b4a-32">
            <g transform="translate(162.88,33.76)" id="img-40422b4a-33">
              <path fill="none" d="M-5.28,0 L 5.28 0" class="primitive"/>
            </g>
          </g>
        </g>
        <g class="geometry" stroke="#000000" stroke-opacity="0.000" fill="#4C404B" font-size="2.82" font-family="'PT Sans Caption','Helvetica Neue','Helvetica',sans-serif" id="img-40422b4a-34">
          <g class="marker" id="img-40422b4a-35">
            <g transform="translate(149.67,38.98)" id="img-40422b4a-36">
              <g class="primitive">
                <text text-anchor="middle" dy="-0em" transform="translate(0,-1.9)">0.0668</text>
              </g>
            </g>
          </g>
        </g>
        <g class="geometry" stroke="#000000" stroke-opacity="0.000" fill="#4C404B" font-size="2.82" font-family="'PT Sans Caption','Helvetica Neue','Helvetica',sans-serif" id="img-40422b4a-37">
          <g class="marker" id="img-40422b4a-38">
            <g transform="translate(143.98,38.98)" id="img-40422b4a-39">
              <g class="primitive">
                <text dy="0.35em" transform="translate(1.9,0)"></text>
              </g>
            </g>
            <g transform="translate(155.36,38.98)" id="img-40422b4a-40">
              <g class="primitive">
                <text dy="0.35em" transform="translate(1.9,0)">Fe K-L3 + 1 other</text>
              </g>
            </g>
          </g>
        </g>
        <g class="geometry" id="img-40422b4a-41">
          <g stroke-width="0.3" id="img-40422b4a-42">
            <g class="color_RGBA{Float32}(0.5019608f0,0.5019608f0,0.5019608f0,1.0f0)" fill-opacity="1" stroke="#FFFFFF" fill="#808080" id="img-40422b4a-43">
              <g class="marker" id="img-40422b4a-44">
                <g transform="translate(155.36,38.98)" id="img-40422b4a-45">
                  <circle cx="0" cy="0" r="0.9" class="primitive"/>
                </g>
              </g>
            </g>
            <g class="color_RGBA{Float32}(0.5019608f0,0.5019608f0,0.5019608f0,1.0f0)" fill-opacity="1" stroke="#FFFFFF" fill="#808080" id="img-40422b4a-46">
              <g class="marker" id="img-40422b4a-47">
                <g transform="translate(143.98,38.98)" id="img-40422b4a-48">
                  <circle cx="0" cy="0" r="0.9" class="primitive"/>
                </g>
              </g>
            </g>
          </g>
        </g>
        <g stroke-width="0.3" fill="#000000" fill-opacity="0.000" class="geometry" id="img-40422b4a-49">
          <g class="color_RGB{N0f8}(0.502,0.502,0.502)" stroke-dasharray="none" stroke="#808080" id="img-40422b4a-50">
            <g transform="translate(149.67,38.98)" id="img-40422b4a-51">
              <path fill="none" d="M-5.69,0 L 5.69 0" class="primitive"/>
            </g>
          </g>
        </g>
        <g class="geometry" stroke="#000000" stroke-opacity="0.000" fill="#4C404B" font-size="2.82" font-family="'PT Sans Caption','Helvetica Neue','Helvetica',sans-serif" id="img-40422b4a-52">
          <g class="marker" id="img-40422b4a-53">
            <g transform="translate(128.13,28.54)" id="img-40422b4a-54">
              <g class="primitive">
                <text text-anchor="middle" dy="-0em" transform="translate(0,-1.9)">0.3935</text>
              </g>
            </g>
          </g>
        </g>
        <g class="geometry" stroke="#000000" stroke-opacity="0.000" fill="#4C404B" font-size="2.82" font-family="'PT Sans Caption','Helvetica Neue','Helvetica',sans-serif" id="img-40422b4a-55">
          <g class="marker" id="img-40422b4a-56">
            <g transform="translate(124.27,28.54)" id="img-40422b4a-57">
              <g class="primitive">
                <text dy="0.35em" transform="translate(1.9,0)"></text>
              </g>
            </g>
            <g transform="translate(131.99,28.54)" id="img-40422b4a-58">
              <g class="primitive">
                <text dy="0.35em" transform="translate(1.9,0)">Esc[Fe K-M2,Fe K-M3,Fe K-M4,Fe K-M5]</text>
              </g>
            </g>
          </g>
        </g>
        <g class="geometry" id="img-40422b4a-59">
          <g stroke-width="0.3" id="img-40422b4a-60">
            <g class="color_RGBA{Float32}(0.5019608f0,0.5019608f0,0.5019608f0,1.0f0)" fill-opacity="1" stroke="#FFFFFF" fill="#808080" id="img-40422b4a-61">
              <g class="marker" id="img-40422b4a-62">
                <g transform="translate(131.99,28.54)" id="img-40422b4a-63">
                  <circle cx="0" cy="0" r="0.9" class="primitive"/>
                </g>
              </g>
            </g>
            <g class="color_RGBA{Float32}(0.5019608f0,0.5019608f0,0.5019608f0,1.0f0)" fill-opacity="1" stroke="#FFFFFF" fill="#808080" id="img-40422b4a-64">
              <g class="marker" id="img-40422b4a-65">
                <g transform="translate(124.27,28.54)" id="img-40422b4a-66">
                  <circle cx="0" cy="0" r="0.9" class="primitive"/>
                </g>
              </g>
            </g>
          </g>
        </g>
        <g stroke-width="0.3" fill="#000000" fill-opacity="0.000" class="geometry" id="img-40422b4a-67">
          <g class="color_RGB{N0f8}(0.502,0.502,0.502)" stroke-dasharray="none" stroke="#808080" id="img-40422b4a-68">
            <g transform="translate(128.13,28.54)" id="img-40422b4a-69">
              <path fill="none" d="M-3.86,0 L 3.86 0" class="primitive"/>
            </g>
          </g>
        </g>
        <g class="geometry" stroke="#000000" stroke-opacity="0.000" fill="#4C404B" font-size="2.82" font-family="'PT Sans Caption','Helvetica Neue','Helvetica',sans-serif" id="img-40422b4a-70">
          <g class="marker" id="img-40422b4a-71">
            <g transform="translate(114.11,33.76)" id="img-40422b4a-72">
              <g class="primitive">
                <text text-anchor="middle" dy="-0em" transform="translate(0,-1.9)">0.0907</text>
              </g>
            </g>
          </g>
        </g>
        <g class="geometry" stroke="#000000" stroke-opacity="0.000" fill="#4C404B" font-size="2.82" font-family="'PT Sans Caption','Helvetica Neue','Helvetica',sans-serif" id="img-40422b4a-73">
          <g class="marker" id="img-40422b4a-74">
            <g transform="translate(110.85,33.76)" id="img-40422b4a-75">
              <g class="primitive">
                <text dy="0.35em" transform="translate(1.9,0)"></text>
              </g>
            </g>
            <g transform="translate(117.36,33.76)" id="img-40422b4a-76">
              <g class="primitive">
                <text dy="0.35em" transform="translate(1.9,0)">Esc[Fe K-L2,Fe K-L3]</text>
              </g>
            </g>
          </g>
        </g>
        <g class="geometry" id="img-40422b4a-77">
          <g stroke-width="0.3" id="img-40422b4a-78">
            <g class="color_RGBA{Float32}(0.5019608f0,0.5019608f0,0.5019608f0,1.0f0)" fill-opacity="1" stroke="#FFFFFF" fill="#808080" id="img-40422b4a-79">
              <g class="marker" id="img-40422b4a-80">
                <g transform="translate(117.36,33.76)" id="img-40422b4a-81">
                  <circle cx="0" cy="0" r="0.9" class="primitive"/>
                </g>
              </g>
            </g>
            <g class="color_RGBA{Float32}(0.5019608f0,0.5019608f0,0.5019608f0,1.0f0)" fill-opacity="1" stroke="#FFFFFF" fill="#808080" id="img-40422b4a-82">
              <g class="marker" id="img-40422b4a-83">
                <g transform="translate(110.85,33.76)" id="img-40422b4a-84">
                  <circle cx="0" cy="0" r="0.9" class="primitive"/>
                </g>
              </g>
            </g>
          </g>
        </g>
        <g stroke-width="0.3" fill="#000000" fill-opacity="0.000" class="geometry" id="img-40422b4a-85">
          <g class="color_RGB{N0f8}(0.502,0.502,0.502)" stroke-dasharray="none" stroke="#808080" id="img-40422b4a-86">
            <g transform="translate(114.11,33.76)" id="img-40422b4a-87">
              <path fill="none" d="M-3.25,0 L 3.25 0" class="primitive"/>
            </g>
          </g>
        </g>
        <g class="geometry" stroke="#000000" stroke-opacity="0.000" fill="#4C404B" font-size="2.82" font-family="'PT Sans Caption','Helvetica Neue','Helvetica',sans-serif" id="img-40422b4a-88">
          <g class="marker" id="img-40422b4a-89">
            <g transform="translate(97.54,38.98)" id="img-40422b4a-90">
              <g class="primitive">
                <text text-anchor="middle" dy="-0em" transform="translate(0,-1.9)">0.1922</text>
              </g>
            </g>
          </g>
        </g>
        <g class="geometry" stroke="#000000" stroke-opacity="0.000" fill="#4C404B" font-size="2.82" font-family="'PT Sans Caption','Helvetica Neue','Helvetica',sans-serif" id="img-40422b4a-91">
          <g class="marker" id="img-40422b4a-92">
            <g transform="translate(89.92,38.98)" id="img-40422b4a-93">
              <g class="primitive">
                <text dy="0.35em" transform="translate(1.9,0)"></text>
              </g>
            </g>
            <g transform="translate(105.16,38.98)" id="img-40422b4a-94">
              <g class="primitive">
                <text dy="0.35em" transform="translate(1.9,0)">Ca K-L3 + 3 others</text>
              </g>
            </g>
          </g>
        </g>
        <g class="geometry" id="img-40422b4a-95">
          <g stroke-width="0.3" id="img-40422b4a-96">
            <g class="color_RGBA{Float32}(0.5019608f0,0.5019608f0,0.5019608f0,1.0f0)" fill-opacity="1" stroke="#FFFFFF" fill="#808080" id="img-40422b4a-97">
              <g class="marker" id="img-40422b4a-98">
                <g transform="translate(105.16,38.98)" id="img-40422b4a-99">
                  <circle cx="0" cy="0" r="0.9" class="primitive"/>
                </g>
              </g>
            </g>
            <g class="color_RGBA{Float32}(0.5019608f0,0.5019608f0,0.5019608f0,1.0f0)" fill-opacity="1" stroke="#FFFFFF" fill="#808080" id="img-40422b4a-100">
              <g class="marker" id="img-40422b4a-101">
                <g transform="translate(89.92,38.98)" id="img-40422b4a-102">
                  <circle cx="0" cy="0" r="0.9" class="primitive"/>
                </g>
              </g>
            </g>
          </g>
        </g>
        <g stroke-width="0.3" fill="#000000" fill-opacity="0.000" class="geometry" id="img-40422b4a-103">
          <g class="color_RGB{N0f8}(0.502,0.502,0.502)" stroke-dasharray="none" stroke="#808080" id="img-40422b4a-104">
            <g transform="translate(97.54,38.98)" id="img-40422b4a-105">
              <path fill="none" d="M-7.62,0 L 7.62 0" class="primitive"/>
            </g>
          </g>
        </g>
        <g class="geometry" stroke="#000000" stroke-opacity="0.000" fill="#4C404B" font-size="2.82" font-family="'PT Sans Caption','Helvetica Neue','Helvetica',sans-serif" id="img-40422b4a-106">
          <g class="marker" id="img-40422b4a-107">
            <g transform="translate(65.73,33.76)" id="img-40422b4a-108">
              <g class="primitive">
                <text text-anchor="middle" dy="-0em" transform="translate(0,-1.9)">0.9584</text>
              </g>
            </g>
          </g>
        </g>
        <g class="geometry" stroke="#000000" stroke-opacity="0.000" fill="#4C404B" font-size="2.82" font-family="'PT Sans Caption','Helvetica Neue','Helvetica',sans-serif" id="img-40422b4a-109">
          <g class="marker" id="img-40422b4a-110">
            <g transform="translate(63.3,33.76)" id="img-40422b4a-111">
              <g class="primitive">
                <text dy="0.35em" transform="translate(1.9,0)"></text>
              </g>
            </g>
            <g transform="translate(68.17,33.76)" id="img-40422b4a-112">
              <g class="primitive">
                <text dy="0.35em" transform="translate(1.9,0)">Esc[Ca K-M2,Ca K-M3]</text>
              </g>
            </g>
          </g>
        </g>
        <g class="geometry" id="img-40422b4a-113">
          <g stroke-width="0.3" id="img-40422b4a-114">
            <g class="color_RGBA{Float32}(0.5019608f0,0.5019608f0,0.5019608f0,1.0f0)" fill-opacity="1" stroke="#FFFFFF" fill="#808080" id="img-40422b4a-115">
              <g class="marker" id="img-40422b4a-116">
                <g transform="translate(68.17,33.76)" id="img-40422b4a-117">
                  <circle cx="0" cy="0" r="0.9" class="primitive"/>
                </g>
              </g>
            </g>
            <g class="color_RGBA{Float32}(0.5019608f0,0.5019608f0,0.5019608f0,1.0f0)" fill-opacity="1" stroke="#FFFFFF" fill="#808080" id="img-40422b4a-118">
              <g class="marker" id="img-40422b4a-119">
                <g transform="translate(63.3,33.76)" id="img-40422b4a-120">
                  <circle cx="0" cy="0" r="0.9" class="primitive"/>
                </g>
              </g>
            </g>
          </g>
        </g>
        <g stroke-width="0.3" fill="#000000" fill-opacity="0.000" class="geometry" id="img-40422b4a-121">
          <g class="color_RGB{N0f8}(0.502,0.502,0.502)" stroke-dasharray="none" stroke="#808080" id="img-40422b4a-122">
            <g transform="translate(65.73,33.76)" id="img-40422b4a-123">
              <path fill="none" d="M-2.44,0 L 2.44 0" class="primitive"/>
            </g>
          </g>
        </g>
        <g class="geometry" stroke="#000000" stroke-opacity="0.000" fill="#4C404B" font-size="2.82" font-family="'PT Sans Caption','Helvetica Neue','Helvetica',sans-serif" id="img-40422b4a-124">
          <g class="marker" id="img-40422b4a-125">
            <g transform="translate(59.13,38.98)" id="img-40422b4a-126">
              <g class="primitive">
                <text text-anchor="middle" dy="-0em" transform="translate(0,-1.9)">0.0554</text>
              </g>
            </g>
          </g>
        </g>
        <g class="geometry" stroke="#000000" stroke-opacity="0.000" fill="#4C404B" font-size="2.82" font-family="'PT Sans Caption','Helvetica Neue','Helvetica',sans-serif" id="img-40422b4a-127">
          <g class="marker" id="img-40422b4a-128">
            <g transform="translate(56.79,38.98)" id="img-40422b4a-129">
              <g class="primitive">
                <text dy="0.35em" transform="translate(1.9,0)"></text>
              </g>
            </g>
            <g transform="translate(61.47,38.98)" id="img-40422b4a-130">
              <g class="primitive">
                <text dy="0.35em" transform="translate(1.9,0)">Esc[Ca K-L2,Ca K-L3]</text>
              </g>
            </g>
          </g>
        </g>
        <g class="geometry" id="img-40422b4a-131">
          <g stroke-width="0.3" id="img-40422b4a-132">
            <g class="color_RGBA{Float32}(0.5019608f0,0.5019608f0,0.5019608f0,1.0f0)" fill-opacity="1" stroke="#FFFFFF" fill="#808080" id="img-40422b4a-133">
              <g class="marker" id="img-40422b4a-134">
                <g transform="translate(61.47,38.98)" id="img-40422b4a-135">
                  <circle cx="0" cy="0" r="0.9" class="primitive"/>
                </g>
              </g>
            </g>
            <g class="color_RGBA{Float32}(0.5019608f0,0.5019608f0,0.5019608f0,1.0f0)" fill-opacity="1" stroke="#FFFFFF" fill="#808080" id="img-40422b4a-136">
              <g class="marker" id="img-40422b4a-137">
                <g transform="translate(56.79,38.98)" id="img-40422b4a-138">
                  <circle cx="0" cy="0" r="0.9" class="primitive"/>
                </g>
              </g>
            </g>
          </g>
        </g>
        <g stroke-width="0.3" fill="#000000" fill-opacity="0.000" class="geometry" id="img-40422b4a-139">
          <g class="color_RGB{N0f8}(0.502,0.502,0.502)" stroke-dasharray="none" stroke="#808080" id="img-40422b4a-140">
            <g transform="translate(59.13,38.98)" id="img-40422b4a-141">
              <path fill="none" d="M-2.34,0 L 2.34 0" class="primitive"/>
            </g>
          </g>
        </g>
        <g class="geometry" stroke="#000000" stroke-opacity="0.000" fill="#4C404B" font-size="2.82" font-family="'PT Sans Caption','Helvetica Neue','Helvetica',sans-serif" id="img-40422b4a-142">
          <g class="marker" id="img-40422b4a-143">
            <g transform="translate(55.37,18.1)" id="img-40422b4a-144">
              <g class="primitive">
                <text text-anchor="middle" dy="-0em" transform="translate(0,-1.9)">0.3510</text>
              </g>
            </g>
          </g>
        </g>
        <g class="geometry" stroke="#000000" stroke-opacity="0.000" fill="#4C404B" font-size="2.82" font-family="'PT Sans Caption','Helvetica Neue','Helvetica',sans-serif" id="img-40422b4a-145">
          <g class="marker" id="img-40422b4a-146">
            <g transform="translate(51.3,18.1)" id="img-40422b4a-147">
              <g class="primitive">
                <text dy="0.35em" transform="translate(1.9,0)"></text>
              </g>
            </g>
            <g transform="translate(59.43,18.1)" id="img-40422b4a-148">
              <g class="primitive">
                <text dy="0.35em" transform="translate(1.9,0)">Si K-L3 + 2 others</text>
              </g>
            </g>
          </g>
        </g>
        <g class="geometry" id="img-40422b4a-149">
          <g stroke-width="0.3" id="img-40422b4a-150">
            <g class="color_RGBA{Float32}(0.5019608f0,0.5019608f0,0.5019608f0,1.0f0)" fill-opacity="1" stroke="#FFFFFF" fill="#808080" id="img-40422b4a-151">
              <g class="marker" id="img-40422b4a-152">
                <g transform="translate(59.43,18.1)" id="img-40422b4a-153">
                  <circle cx="0" cy="0" r="0.9" class="primitive"/>
                </g>
              </g>
            </g>
            <g class="color_RGBA{Float32}(0.5019608f0,0.5019608f0,0.5019608f0,1.0f0)" fill-opacity="1" stroke="#FFFFFF" fill="#808080" id="img-40422b4a-154">
              <g class="marker" id="img-40422b4a-155">
                <g transform="translate(51.3,18.1)" id="img-40422b4a-156">
                  <circle cx="0" cy="0" r="0.9" class="primitive"/>
                </g>
              </g>
            </g>
          </g>
        </g>
        <g stroke-width="0.3" fill="#000000" fill-opacity="0.000" class="geometry" id="img-40422b4a-157">
          <g class="color_RGB{N0f8}(0.502,0.502,0.502)" stroke-dasharray="none" stroke="#808080" id="img-40422b4a-158">
            <g transform="translate(55.37,18.1)" id="img-40422b4a-159">
              <path fill="none" d="M-4.06,0 L 4.06 0" class="primitive"/>
            </g>
          </g>
        </g>
        <g class="geometry" stroke="#000000" stroke-opacity="0.000" fill="#4C404B" font-size="2.82" font-family="'PT Sans Caption','Helvetica Neue','Helvetica',sans-serif" id="img-40422b4a-160">
          <g class="marker" id="img-40422b4a-161">
            <g transform="translate(49.68,23.32)" id="img-40422b4a-162">
              <g class="primitive">
                <text text-anchor="middle" dy="-0em" transform="translate(0,-1.9)">0.0670</text>
              </g>
            </g>
          </g>
        </g>
        <g class="geometry" stroke="#000000" stroke-opacity="0.000" fill="#4C404B" font-size="2.82" font-family="'PT Sans Caption','Helvetica Neue','Helvetica',sans-serif" id="img-40422b4a-163">
          <g class="marker" id="img-40422b4a-164">
            <g transform="translate(46.22,23.32)" id="img-40422b4a-165">
              <g class="primitive">
                <text dy="0.35em" transform="translate(1.9,0)"></text>
              </g>
            </g>
            <g transform="translate(53.13,23.32)" id="img-40422b4a-166">
              <g class="primitive">
                <text dy="0.35em" transform="translate(1.9,0)">Al K-L3 + 1 other</text>
              </g>
            </g>
          </g>
        </g>
        <g class="geometry" id="img-40422b4a-167">
          <g stroke-width="0.3" id="img-40422b4a-168">
            <g class="color_RGBA{Float32}(0.5019608f0,0.5019608f0,0.5019608f0,1.0f0)" fill-opacity="1" stroke="#FFFFFF" fill="#808080" id="img-40422b4a-169">
              <g class="marker" id="img-40422b4a-170">
                <g transform="translate(53.13,23.32)" id="img-40422b4a-171">
                  <circle cx="0" cy="0" r="0.9" class="primitive"/>
                </g>
              </g>
            </g>
            <g class="color_RGBA{Float32}(0.5019608f0,0.5019608f0,0.5019608f0,1.0f0)" fill-opacity="1" stroke="#FFFFFF" fill="#808080" id="img-40422b4a-172">
              <g class="marker" id="img-40422b4a-173">
                <g transform="translate(46.22,23.32)" id="img-40422b4a-174">
                  <circle cx="0" cy="0" r="0.9" class="primitive"/>
                </g>
              </g>
            </g>
          </g>
        </g>
        <g stroke-width="0.3" fill="#000000" fill-opacity="0.000" class="geometry" id="img-40422b4a-175">
          <g class="color_RGB{N0f8}(0.502,0.502,0.502)" stroke-dasharray="none" stroke="#808080" id="img-40422b4a-176">
            <g transform="translate(49.68,23.32)" id="img-40422b4a-177">
              <path fill="none" d="M-3.46,0 L 3.46 0" class="primitive"/>
            </g>
          </g>
        </g>
        <g class="geometry" stroke="#000000" stroke-opacity="0.000" fill="#4C404B" font-size="2.82" font-family="'PT Sans Caption','Helvetica Neue','Helvetica',sans-serif" id="img-40422b4a-178">
          <g class="marker" id="img-40422b4a-179">
            <g transform="translate(45,28.54)" id="img-40422b4a-180">
              <g class="primitive">
                <text text-anchor="middle" dy="-0em" transform="translate(0,-1.9)">0.1475</text>
              </g>
            </g>
          </g>
        </g>
        <g class="geometry" stroke="#000000" stroke-opacity="0.000" fill="#4C404B" font-size="2.82" font-family="'PT Sans Caption','Helvetica Neue','Helvetica',sans-serif" id="img-40422b4a-181">
          <g class="marker" id="img-40422b4a-182">
            <g transform="translate(41.75,28.54)" id="img-40422b4a-183">
              <g class="primitive">
                <text dy="0.35em" transform="translate(1.9,0)"></text>
              </g>
            </g>
            <g transform="translate(48.26,28.54)" id="img-40422b4a-184">
              <g class="primitive">
                <text dy="0.35em" transform="translate(1.9,0)">Mg K-L3 + 1 other</text>
              </g>
            </g>
          </g>
        </g>
        <g class="geometry" id="img-40422b4a-185">
          <g stroke-width="0.3" id="img-40422b4a-186">
            <g class="color_RGBA{Float32}(0.5019608f0,0.5019608f0,0.5019608f0,1.0f0)" fill-opacity="1" stroke="#FFFFFF" fill="#808080" id="img-40422b4a-187">
              <g class="marker" id="img-40422b4a-188">
                <g transform="translate(48.26,28.54)" id="img-40422b4a-189">
                  <circle cx="0" cy="0" r="0.9" class="primitive"/>
                </g>
              </g>
            </g>
            <g class="color_RGBA{Float32}(0.5019608f0,0.5019608f0,0.5019608f0,1.0f0)" fill-opacity="1" stroke="#FFFFFF" fill="#808080" id="img-40422b4a-190">
              <g class="marker" id="img-40422b4a-191">
                <g transform="translate(41.75,28.54)" id="img-40422b4a-192">
                  <circle cx="0" cy="0" r="0.9" class="primitive"/>
                </g>
              </g>
            </g>
          </g>
        </g>
        <g stroke-width="0.3" fill="#000000" fill-opacity="0.000" class="geometry" id="img-40422b4a-193">
          <g class="color_RGB{N0f8}(0.502,0.502,0.502)" stroke-dasharray="none" stroke="#808080" id="img-40422b4a-194">
            <g transform="translate(45,28.54)" id="img-40422b4a-195">
              <path fill="none" d="M-3.25,0 L 3.25 0" class="primitive"/>
            </g>
          </g>
        </g>
        <g class="geometry" stroke="#000000" stroke-opacity="0.000" fill="#4C404B" font-size="2.82" font-family="'PT Sans Caption','Helvetica Neue','Helvetica',sans-serif" id="img-40422b4a-196">
          <g class="marker" id="img-40422b4a-197">
            <g transform="translate(33.83,33.76)" id="img-40422b4a-198">
              <g class="primitive">
                <text text-anchor="middle" dy="-0em" transform="translate(0,-1.9)">0.0424</text>
              </g>
            </g>
          </g>
        </g>
        <g class="geometry" stroke="#000000" stroke-opacity="0.000" fill="#4C404B" font-size="2.82" font-family="'PT Sans Caption','Helvetica Neue','Helvetica',sans-serif" id="img-40422b4a-199">
          <g class="marker" id="img-40422b4a-200">
            <g transform="translate(29.35,33.76)" id="img-40422b4a-201">
              <g class="primitive">
                <text dy="0.35em" transform="translate(1.9,0)"></text>
              </g>
            </g>
            <g transform="translate(38.3,33.76)" id="img-40422b4a-202">
              <g class="primitive">
                <text dy="0.35em" transform="translate(1.9,0)">Fe L3-M5 + 11 others</text>
              </g>
            </g>
          </g>
        </g>
        <g class="geometry" id="img-40422b4a-203">
          <g stroke-width="0.3" id="img-40422b4a-204">
            <g class="color_RGBA{Float32}(0.5019608f0,0.5019608f0,0.5019608f0,1.0f0)" fill-opacity="1" stroke="#FFFFFF" fill="#808080" id="img-40422b4a-205">
              <g class="marker" id="img-40422b4a-206">
                <g transform="translate(38.3,33.76)" id="img-40422b4a-207">
                  <circle cx="0" cy="0" r="0.9" class="primitive"/>
                </g>
              </g>
            </g>
            <g class="color_RGBA{Float32}(0.5019608f0,0.5019608f0,0.5019608f0,1.0f0)" fill-opacity="1" stroke="#FFFFFF" fill="#808080" id="img-40422b4a-208">
              <g class="marker" id="img-40422b4a-209">
                <g transform="translate(29.35,33.76)" id="img-40422b4a-210">
                  <circle cx="0" cy="0" r="0.9" class="primitive"/>
                </g>
              </g>
            </g>
          </g>
        </g>
        <g stroke-width="0.3" fill="#000000" fill-opacity="0.000" class="geometry" id="img-40422b4a-211">
          <g class="color_RGB{N0f8}(0.502,0.502,0.502)" stroke-dasharray="none" stroke="#808080" id="img-40422b4a-212">
            <g transform="translate(33.83,33.76)" id="img-40422b4a-213">
              <path fill="none" d="M-4.47,0 L 4.47 0" class="primitive"/>
            </g>
          </g>
        </g>
        <g class="geometry" stroke="#000000" stroke-opacity="0.000" fill="#4C404B" font-size="2.82" font-family="'PT Sans Caption','Helvetica Neue','Helvetica',sans-serif" id="img-40422b4a-214">
          <g class="marker" id="img-40422b4a-215">
            <g transform="translate(30.17,38.98)" id="img-40422b4a-216">
              <g class="primitive">
                <text text-anchor="middle" dy="-0em" transform="translate(0,-1.9)">0.6520</text>
              </g>
            </g>
          </g>
        </g>
        <g class="geometry" stroke="#000000" stroke-opacity="0.000" fill="#4C404B" font-size="2.82" font-family="'PT Sans Caption','Helvetica Neue','Helvetica',sans-serif" id="img-40422b4a-217">
          <g class="marker" id="img-40422b4a-218">
            <g transform="translate(27.52,38.98)" id="img-40422b4a-219">
              <g class="primitive">
                <text dy="0.35em" transform="translate(1.9,0)"></text>
              </g>
            </g>
            <g transform="translate(32.81,38.98)" id="img-40422b4a-220">
              <g class="primitive">
                <text dy="0.35em" transform="translate(1.9,0)">O K-L3 + 1 other</text>
              </g>
            </g>
          </g>
        </g>
        <g class="geometry" id="img-40422b4a-221">
          <g stroke-width="0.3" id="img-40422b4a-222">
            <g class="color_RGBA{Float32}(0.5019608f0,0.5019608f0,0.5019608f0,1.0f0)" fill-opacity="1" stroke="#FFFFFF" fill="#808080" id="img-40422b4a-223">
              <g class="marker" id="img-40422b4a-224">
                <g transform="translate(32.81,38.98)" id="img-40422b4a-225">
                  <circle cx="0" cy="0" r="0.9" class="primitive"/>
                </g>
              </g>
            </g>
            <g class="color_RGBA{Float32}(0.5019608f0,0.5019608f0,0.5019608f0,1.0f0)" fill-opacity="1" stroke="#FFFFFF" fill="#808080" id="img-40422b4a-226">
              <g class="marker" id="img-40422b4a-227">
                <g transform="translate(27.52,38.98)" id="img-40422b4a-228">
                  <circle cx="0" cy="0" r="0.9" class="primitive"/>
                </g>
              </g>
            </g>
          </g>
        </g>
        <g stroke-width="0.3" fill="#000000" fill-opacity="0.000" class="geometry" id="img-40422b4a-229">
          <g class="color_RGB{N0f8}(0.502,0.502,0.502)" stroke-dasharray="none" stroke="#808080" id="img-40422b4a-230">
            <g transform="translate(30.17,38.98)" id="img-40422b4a-231">
              <path fill="none" d="M-2.64,0 L 2.64 0" class="primitive"/>
            </g>
          </g>
        </g>
        <g stroke-width="0.3" fill="#000000" fill-opacity="0.000" class="geometry" id="img-40422b4a-232">
          <g class="color_RGB{Float64}(0.06274509803921569,0.3058823529411765,0.5450980392156862)" stroke-dasharray="none" stroke="#104E8B" id="img-40422b4a-233">
            <g transform="translate(136.41,45.43)" id="img-40422b4a-234">
              <path fill="none" d="M-114.98,14.43 L -114.78 14.43 -114.78 14.44 -114.58 14.44 -114.58 14.43 -114.37 14.43 -114.37 14.43 -114.17 14.43 -114.17 14.43 -113.97 14.43 -113.97 14.42 -113.76 14.42 -113.76 14.41 -113.56 14.41 -113.56 14.38 -113.36 14.38 -113.36 14.33 -113.16 14.33 -113.16 14.26 -112.95 14.26 -112.95 14.09 -112.75 14.09 -112.75 13.82 -112.55 13.82 -112.55 13.26 -112.34 13.26 -112.34 12.2 -112.14 12.2 -112.14 10.37 -111.94 10.37 -111.94 7.53 -111.73 7.53 -111.73 4.66 -111.53 4.66 -111.53 2.1 -111.33 2.1 -111.33 1 -111.12 1 -111.12 1.98 -110.92 1.98 -110.92 4.3 -110.72 4.3 -110.72 7.07 -110.51 7.07 -110.51 8.88 -110.31 8.88 -110.31 10.34 -110.11 10.34 -110.11 10.93 -109.9 10.93 -109.9 11.03 -109.7 11.03 -109.7 11.07 -109.5 11.07 -109.5 10.96 -109.29 10.96 -109.29 11.04 -109.09 11.04 -109.09 10.58 -108.89 10.58 -108.89 10.46 -108.68 10.46 -108.68 9.96 -108.48 9.96 -108.48 9.38 -108.28 9.38 -108.28 8.17 -108.07 8.17 -108.07 6.12 -107.87 6.12 -107.87 1.45 -107.67 1.45 -107.67 -7.32 -107.46 -7.32 -107.46 -23 -107.26 -23 -107.26 -50 -107.06 -50 -107.06 -91.52 -106.85 -91.52 -106.85 -143.25 -106.65 -143.25 -106.65 -197.49 -106.45 -197.49 -106.45 -236.73 -106.24 -236.73 -106.24 -244.46 -106.04 -244.46 -106.04 -219.88 -105.84 -219.88 -105.84 -171.29 -105.64 -171.29 -105.64 -113.9 -105.43 -113.9 -105.43 -64.04 -105.23 -64.04 -105.23 -28.12 -105.03 -28.12 -105.03 -8.24 -104.82 -8.24 -104.82 1.82 -104.62 1.82 -104.62 6.44 -104.42 6.44 -104.42 7.89 -104.21 7.89 -104.21 8.48 -104.01 8.48 -104.01 8.72 -103.81 8.72 -103.81 8.09 -103.6 8.09 -103.6 7.27 -103.4 7.27 -103.4 5.82 -103.2 5.82 -103.2 3.51 -102.99 3.51 -102.99 0.89 -102.79 0.89 -102.79 -1.81 -102.59 -1.81 -102.59 -3.28 -102.38 -3.28 -102.38 -3.38 -102.18 -3.38 -102.18 -2.28 -101.98 -2.28 -101.98 0.41 -101.77 0.41 -101.77 3.03 -101.57 3.03 -101.57 5.12 -101.37 5.12 -101.37 6.83 -101.16 6.83 -101.16 8.01 -100.96 8.01 -100.96 8.33 -100.76 8.33 -100.76 8.41 -100.55 8.41 -100.55 8.62 -100.35 8.62 -100.35 8.69 -100.15 8.69 -100.15 8.68 -99.94 8.68 -99.94 8.36 -99.74 8.36 -99.74 8.41 -99.54 8.41 -99.54 8.17 -99.33 8.17 -99.33 7.9 -99.13 7.9 -99.13 8.08 -98.93 8.08 -98.93 7.92 -98.73 7.92 -98.73 7.6 -98.52 7.6 -98.52 7.62 -98.32 7.62 -98.32 7.69 -98.12 7.69 -98.12 7.39 -97.91 7.39 -97.91 7.22 -97.71 7.22 -97.71 6.92 -97.51 6.92 -97.51 6.9 -97.3 6.9 -97.3 6.34 -97.1 6.34 -97.1 6.54 -96.9 6.54 -96.9 6.22 -96.69 6.22 -96.69 5.81 -96.49 5.81 -96.49 5.61 -96.29 5.61 -96.29 5.07 -96.08 5.07 -96.08 4.63 -95.88 4.63 -95.88 4.56 -95.68 4.56 -95.68 4.53 -95.47 4.53 -95.47 4.43 -95.27 4.43 -95.27 3.9 -95.07 3.9 -95.07 3.9 -94.86 3.9 -94.86 3.64 -94.66 3.64 -94.66 3.92 -94.46 3.92 -94.46 3.44 -94.25 3.44 -94.25 3.18 -94.05 3.18 -94.05 3.1 -93.85 3.1 -93.85 2.74 -93.64 2.74 -93.64 1.78 -93.44 1.78 -93.44 0.76 -93.24 0.76 -93.24 -1.63 -93.03 -1.63 -93.03 -6.58 -92.83 -6.58 -92.83 -16.08 -92.63 -16.08 -92.63 -31.8 -92.42 -31.8 -92.42 -58.35 -92.22 -58.35 -92.22 -94.94 -92.02 -94.94 -92.02 -140.85 -91.81 -140.85 -91.81 -186.7 -91.61 -186.7 -91.61 -223.54 -91.41 -223.54 -91.41 -242.41 -91.21 -242.41 -91.21 -237.5 -91 -237.5 -91 -211.73 -90.8 -211.73 -90.8 -170.49 -90.6 -170.49 -90.6 -124.79 -90.39 -124.79 -90.39 -83.1 -90.19 -83.1 -90.19 -50.94 -89.99 -50.94 -89.99 -27.35 -89.78 -27.35 -89.78 -13.44 -89.58 -13.44 -89.58 -4.8 -89.38 -4.8 -89.38 -0.81 -89.17 -0.81 -89.17 1.35 -88.97 1.35 -88.97 1.81 -88.77 1.81 -88.77 2.2 -88.56 2.2 -88.56 1.31 -88.36 1.31 -88.36 -0.46 -88.16 -0.46 -88.16 -3.76 -87.95 -3.76 -87.95 -10.45 -87.75 -10.45 -87.75 -20.75 -87.55 -20.75 -87.55 -35.44 -87.34 -35.44 -87.34 -53.1 -87.14 -53.1 -87.14 -72.31 -86.94 -72.31 -86.94 -88.36 -86.73 -88.36 -86.73 -98.27 -86.53 -98.27 -86.53 -99.88 -86.33 -99.88 -86.33 -93.04 -86.12 -93.04 -86.12 -77.64 -85.92 -77.64 -85.92 -60.35 -85.72 -60.35 -85.72 -42.48 -85.51 -42.48 -85.51 -27.92 -85.31 -27.92 -85.31 -16.33 -85.11 -16.33 -85.11 -9.69 -84.9 -9.69 -84.9 -4.62 -84.7 -4.62 -84.7 -1.54 -84.5 -1.54 -84.5 -0.31 -84.29 -0.31 -84.29 0.87 -84.09 0.87 -84.09 1.54 -83.89 1.54 -83.89 0.45 -83.69 0.45 -83.69 -1.12 -83.48 -1.12 -83.48 -5.39 -83.28 -5.39 -83.28 -13.96 -83.08 -13.96 -83.08 -29.85 -82.87 -29.85 -82.87 -59.22 -82.67 -59.22 -82.67 -101.69 -82.47 -101.69 -82.47 -162.26 -82.26 -162.26 -82.26 -237.52 -82.06 -237.52 -82.06 -317.81 -81.86 -317.81 -81.86 -388.74 -81.65 -388.74 -81.65 -445.48 -81.45 -445.48 -81.45 -462.24 -81.25 -462.24 -81.25 -441.57 -81.04 -441.57 -81.04 -388.49 -80.84 -388.49 -80.84 -316.16 -80.64 -316.16 -80.64 -240.25 -80.43 -240.25 -80.43 -170.52 -80.23 -170.52 -80.23 -114.79 -80.03 -114.79 -80.03 -73.85 -79.82 -73.85 -79.82 -47.14 -79.62 -47.14 -79.62 -30.96 -79.42 -30.96 -79.42 -21.17 -79.21 -21.17 -79.21 -14.41 -79.01 -14.41 -79.01 -9.16 -78.81 -9.16 -78.81 -4.68 -78.6 -4.68 -78.6 -1.42 -78.4 -1.42 -78.4 1.21 -78.2 1.21 -78.2 2.81 -77.99 2.81 -77.99 3.49 -77.79 3.49 -77.79 3.99 -77.59 3.99 -77.59 4.73 -77.38 4.73 -77.38 5.05 -77.18 5.05 -77.18 4.89 -76.98 4.89 -76.98 5.1 -76.77 5.1 -76.77 5.35 -76.57 5.35 -76.57 5.56 -76.37 5.56 -76.37 5.57 -76.17 5.57 -76.17 5.88 -75.96 5.88 -75.96 6.21 -75.76 6.21 -75.76 6.11 -75.56 6.11 -75.56 6.57 -75.35 6.57 -75.35 6.62 -75.15 6.62 -75.15 6.6 -74.95 6.6 -74.95 6.53 -74.74 6.53 -74.74 6.65 -74.54 6.65 -74.54 6.77 -74.34 6.77 -74.34 6.51 -74.13 6.51 -74.13 6.52 -73.93 6.52 -73.93 6.61 -73.73 6.61 -73.73 6.59 -73.52 6.59 -73.52 6.9 -73.32 6.9 -73.32 6.34 -73.12 6.34 -73.12 6.57 -72.91 6.57 -72.91 6.39 -72.71 6.39 -72.71 6.61 -72.51 6.61 -72.51 6.63 -72.3 6.63 -72.3 6.28 -72.1 6.28 -72.1 6.18 -71.9 6.18 -71.9 6.01 -71.69 6.01 -71.69 5.95 -71.49 5.95 -71.49 5.85 -71.29 5.85 -71.29 5.75 -71.08 5.75 -71.08 5.69 -70.88 5.69 -70.88 5.77 -70.68 5.77 -70.68 5.62 -70.47 5.62 -70.47 5.54 -70.27 5.54 -70.27 5.94 -70.07 5.94 -70.07 6.07 -69.86 6.07 -69.86 6.17 -69.66 6.17 -69.66 6.09 -69.46 6.09 -69.46 6.18 -69.25 6.18 -69.25 6.26 -69.05 6.26 -69.05 6.18 -68.85 6.18 -68.85 6.47 -68.65 6.47 -68.65 6.44 -68.44 6.44 -68.44 6.46 -68.24 6.46 -68.24 6.46 -68.04 6.46 -68.04 6.48 -67.83 6.48 -67.83 6.5 -67.63 6.5 -67.63 6.58 -67.43 6.58 -67.43 6.26 -67.22 6.26 -67.22 6.53 -67.02 6.53 -67.02 6.5 -66.82 6.5 -66.82 6.24 -66.61 6.24 -66.61 6.43 -66.41 6.43 -66.41 6.42 -66.21 6.42 -66.21 6.35 -66 6.35 -66 6.55 -65.8 6.55 -65.8 6.36 -65.6 6.36 -65.6 6.46 -65.39 6.46 -65.39 6.15 -65.19 6.15 -65.19 6.57 -64.99 6.57 -64.99 6.34 -64.78 6.34 -64.78 6.23 -64.58 6.23 -64.58 6.9 -64.38 6.9 -64.38 6.38 -64.17 6.38 -64.17 6.62 -63.97 6.62 -63.97 6.47 -63.77 6.47 -63.77 6.58 -63.56 6.58 -63.56 6.57 -63.36 6.57 -63.36 6.4 -63.16 6.4 -63.16 6.67 -62.95 6.67 -62.95 6.56 -62.75 6.56 -62.75 6.58 -62.55 6.58 -62.55 6.59 -62.34 6.59 -62.34 6.71 -62.14 6.71 -62.14 6.59 -61.94 6.59 -61.94 6.7 -61.73 6.7 -61.73 6.73 -61.53 6.73 -61.53 6.42 -61.33 6.42 -61.33 6.69 -61.13 6.69 -61.13 6.69 -60.92 6.69 -60.92 6.72 -60.72 6.72 -60.72 6.85 -60.52 6.85 -60.52 6.67 -60.31 6.67 -60.31 6.59 -60.11 6.59 -60.11 6.97 -59.91 6.97 -59.91 6.88 -59.7 6.88 -59.7 6.87 -59.5 6.87 -59.5 6.79 -59.3 6.79 -59.3 6.69 -59.09 6.69 -59.09 6.77 -58.89 6.77 -58.89 7 -58.69 7 -58.69 6.89 -58.48 6.89 -58.48 6.65 -58.28 6.65 -58.28 6.93 -58.08 6.93 -58.08 6.74 -57.87 6.74 -57.87 6.67 -57.67 6.67 -57.67 6.63 -57.47 6.63 -57.47 6.71 -57.26 6.71 -57.26 6.92 -57.06 6.92 -57.06 6.67 -56.86 6.67 -56.86 6.59 -56.65 6.59 -56.65 6.4 -56.45 6.4 -56.45 6.43 -56.25 6.43 -56.25 6.46 -56.04 6.46 -56.04 6.49 -55.84 6.49 -55.84 6.66 -55.64 6.66 -55.64 6.61 -55.43 6.61 -55.43 6.82 -55.23 6.82 -55.23 6.8 -55.03 6.8 -55.03 6.83 -54.82 6.83 -54.82 7.08 -54.62 7.08 -54.62 6.89 -54.42 6.89 -54.42 7.03 -54.21 7.03 -54.21 7.1 -54.01 7.1 -54.01 7.12 -53.81 7.12 -53.81 7.09 -53.61 7.09 -53.61 7.28 -53.4 7.28 -53.4 7.31 -53.2 7.31 -53.2 7.04 -53 7.04 -53 7.23 -52.79 7.23 -52.79 7.08 -52.59 7.08 -52.59 6.94 -52.39 6.94 -52.39 7.07 -52.18 7.07 -52.18 7.08 -51.98 7.08 -51.98 7.1 -51.78 7.1 -51.78 7.24 -51.57 7.24 -51.57 7.07 -51.37 7.07 -51.37 6.97 -51.17 6.97 -51.17 7.27 -50.96 7.27 -50.96 7.13 -50.76 7.13 -50.76 6.87 -50.56 6.87 -50.56 7.46 -50.35 7.46 -50.35 7.12 -50.15 7.12 -50.15 7.41 -49.95 7.41 -49.95 7.25 -49.74 7.25 -49.74 7.22 -49.54 7.22 -49.54 7.26 -49.34 7.26 -49.34 7.47 -49.13 7.47 -49.13 7.72 -48.93 7.72 -48.93 7.65 -48.73 7.65 -48.73 7.54 -48.52 7.54 -48.52 7.42 -48.32 7.42 -48.32 7.46 -48.12 7.46 -48.12 7.59 -47.91 7.59 -47.91 7.72 -47.71 7.72 -47.71 7.43 -47.51 7.43 -47.51 7.65 -47.3 7.65 -47.3 7.73 -47.1 7.73 -47.1 7.6 -46.9 7.6 -46.9 7.4 -46.69 7.4 -46.69 7.28 -46.49 7.28 -46.49 7.43 -46.29 7.43 -46.29 7.36 -46.09 7.36 -46.09 7.24 -45.88 7.24 -45.88 7.04 -45.68 7.04 -45.68 7.17 -45.48 7.17 -45.48 6.76 -45.27 6.76 -45.27 6.66 -45.07 6.66 -45.07 6.52 -44.87 6.52 -44.87 6.22 -44.66 6.22 -44.66 5.5 -44.46 5.5 -44.46 4.46 -44.26 4.46 -44.26 2.99 -44.05 2.99 -44.05 -0.27 -43.85 -0.27 -43.85 -4.52 -43.65 -4.52 -43.65 -10.9 -43.44 -10.9 -43.44 -20.45 -43.24 -20.45 -43.24 -32.78 -43.04 -32.78 -43.04 -48.84 -42.83 -48.84 -42.83 -67.39 -42.63 -67.39 -42.63 -87.27 -42.43 -87.27 -42.43 -105.63 -42.22 -105.63 -42.22 -123.64 -42.02 -123.64 -42.02 -135.76 -41.82 -135.76 -41.82 -140.73 -41.61 -140.73 -41.61 -140.75 -41.41 -140.75 -41.41 -132.11 -41.21 -132.11 -41.21 -117.96 -41 -117.96 -41 -101.62 -40.8 -101.62 -40.8 -80.98 -40.6 -80.98 -40.6 -62.13 -40.39 -62.13 -40.39 -43.14 -40.19 -43.14 -40.19 -28.64 -39.99 -28.64 -39.99 -16.94 -39.78 -16.94 -39.78 -8.27 -39.58 -8.27 -39.58 -2.39 -39.38 -2.39 -39.38 1.94 -39.17 1.94 -39.17 4.63 -38.97 4.63 -38.97 5.8 -38.77 5.8 -38.77 7.2 -38.57 7.2 -38.57 7.39 -38.36 7.39 -38.36 7.8 -38.16 7.8 -38.16 7.76 -37.96 7.76 -37.96 7.76 -37.75 7.76 -37.75 7.34 -37.55 7.34 -37.55 7.34 -37.35 7.34 -37.35 6.5 -37.14 6.5 -37.14 5.82 -36.94 5.82 -36.94 4.71 -36.74 4.71 -36.74 2.95 -36.53 2.95 -36.53 1.39 -36.33 1.39 -36.33 -0.72 -36.13 -0.72 -36.13 -3.1 -35.92 -3.1 -35.92 -5.06 -35.72 -5.06 -35.72 -7.02 -35.52 -7.02 -35.52 -7.92 -35.31 -7.92 -35.31 -9.25 -35.11 -9.25 -35.11 -9.12 -34.91 -9.12 -34.91 -8.38 -34.7 -8.38 -34.7 -7.1 -34.5 -7.1 -34.5 -5.32 -34.3 -5.32 -34.3 -3.12 -34.09 -3.12 -34.09 -0.64 -33.89 -0.64 -33.89 1.62 -33.69 1.62 -33.69 3.48 -33.48 3.48 -33.48 5.25 -33.28 5.25 -33.28 6.45 -33.08 6.45 -33.08 7.41 -32.87 7.41 -32.87 7.9 -32.67 7.9 -32.67 8.52 -32.47 8.52 -32.47 9.09 -32.26 9.09 -32.26 8.89 -32.06 8.89 -32.06 9.03 -31.86 9.03 -31.86 8.96 -31.65 8.96 -31.65 9.23 -31.45 9.23 -31.45 9.26 -31.25 9.26 -31.25 9.18 -31.05 9.18 -31.05 9.26 -30.84 9.26 -30.84 9.15 -30.64 9.15 -30.64 9.31 -30.44 9.31 -30.44 9.27 -30.23 9.27 -30.23 9.45 -30.03 9.45 -30.03 9.23 -29.83 9.23 -29.83 9.62 -29.62 9.62 -29.62 9.56 -29.42 9.56 -29.42 9.53 -29.22 9.53 -29.22 9.5 -29.01 9.5 -29.01 9.52 -28.81 9.52 -28.81 9.44 -28.61 9.44 -28.61 9.77 -28.4 9.77 -28.4 9.49 -28.2 9.49 -28.2 9.63 -28 9.63 -28 9.68 -27.79 9.68 -27.79 9.51 -27.59 9.51 -27.59 9.64 -27.39 9.64 -27.39 9.84 -27.18 9.84 -27.18 9.63 -26.98 9.63 -26.98 9.57 -26.78 9.57 -26.78 9.81 -26.57 9.81 -26.57 9.62 -26.37 9.62 -26.37 9.65 -26.17 9.65 -26.17 9.91 -25.96 9.91 -25.96 9.75 -25.76 9.75 -25.76 9.74 -25.56 9.74 -25.56 9.78 -25.35 9.78 -25.35 9.66 -25.15 9.66 -25.15 9.79 -24.95 9.79 -24.95 9.6 -24.74 9.6 -24.74 9.87 -24.54 9.87 -24.54 9.84 -24.34 9.84 -24.34 9.89 -24.14 9.89 -24.14 9.8 -23.93 9.8 -23.93 9.97 -23.73 9.97 -23.73 9.76 -23.53 9.76 -23.53 9.8 -23.32 9.8 -23.32 9.88 -23.12 9.88 -23.12 9.72 -22.92 9.72 -22.92 9.58 -22.71 9.58 -22.71 9.84 -22.51 9.84 -22.51 9.86 -22.31 9.86 -22.31 9.7 -22.1 9.7 -22.1 9.94 -21.9 9.94 -21.9 10.05 -21.7 10.05 -21.7 9.96 -21.49 9.96 -21.49 9.89 -21.29 9.89 -21.29 9.92 -21.09 9.92 -21.09 9.77 -20.88 9.77 -20.88 9.95 -20.68 9.95 -20.68 9.94 -20.48 9.94 -20.48 10.15 -20.27 10.15 -20.27 10.13 -20.07 10.13 -20.07 10.1 -19.87 10.1 -19.87 10.14 -19.66 10.14 -19.66 10.11 -19.46 10.11 -19.46 10.01 -19.26 10.01 -19.26 10.2 -19.05 10.2 -19.05 10.22 -18.85 10.22 -18.85 10.23 -18.65 10.23 -18.65 10.41 -18.44 10.41 -18.44 10.14 -18.24 10.14 -18.24 10.09 -18.04 10.09 -18.04 10.15 -17.83 10.15 -17.83 10.29 -17.63 10.29 -17.63 10.2 -17.43 10.2 -17.43 10.07 -17.22 10.07 -17.22 10.2 -17.02 10.2 -17.02 10.09 -16.82 10.09 -16.82 10.14 -16.62 10.14 -16.62 10.17 -16.41 10.17 -16.41 10.19 -16.21 10.19 -16.21 10.09 -16.01 10.09 -16.01 10.3 -15.8 10.3 -15.8 10.19 -15.6 10.19 -15.6 10.14 -15.4 10.14 -15.4 10.13 -15.19 10.13 -15.19 10.18 -14.99 10.18 -14.99 10.17 -14.79 10.17 -14.79 10.44 -14.58 10.44 -14.58 10.42 -14.38 10.42 -14.38 10.34 -14.18 10.34 -14.18 10.44 -13.97 10.44 -13.97 10.37 -13.77 10.37 -13.77 10.58 -13.57 10.58 -13.57 10.37 -13.36 10.37 -13.36 10.39 -13.16 10.39 -13.16 10.29 -12.96 10.29 -12.96 10.4 -12.75 10.4 -12.75 10.43 -12.55 10.43 -12.55 10.41 -12.35 10.41 -12.35 10.45 -12.14 10.45 -12.14 10.56 -11.94 10.56 -11.94 10.51 -11.74 10.51 -11.74 10.35 -11.53 10.35 -11.53 10.43 -11.33 10.43 -11.33 10.33 -11.13 10.33 -11.13 10.44 -10.92 10.44 -10.92 10.49 -10.72 10.49 -10.72 10.47 -10.52 10.47 -10.52 10.51 -10.31 10.51 -10.31 10.4 -10.11 10.4 -10.11 10.56 -9.91 10.56 -9.91 10.49 -9.7 10.49 -9.7 10.53 -9.5 10.53 -9.5 10.48 -9.3 10.48 -9.3 10.65 -9.1 10.65 -9.1 10.59 -8.89 10.59 -8.89 10.42 -8.69 10.42 -8.69 10.58 -8.49 10.58 -8.49 10.69 -8.28 10.69 -8.28 10.66 -8.08 10.66 -8.08 10.52 -7.88 10.52 -7.88 10.54 -7.67 10.54 -7.67 10.47 -7.47 10.47 -7.47 10.43 -7.27 10.43 -7.27 10.26 -7.06 10.26 -7.06 10.35 -6.86 10.35 -6.86 10.33 -6.66 10.33 -6.66 10.47 -6.45 10.47 -6.45 10.45 -6.25 10.45 -6.25 10.46 -6.05 10.46 -6.05 10.42 -5.84 10.42 -5.84 10.45 -5.64 10.45 -5.64 10.46 -5.44 10.46 -5.44 10.43 -5.23 10.43 -5.23 10.72 -5.03 10.72 -5.03 10.72 -4.83 10.72 -4.83 10.64 -4.62 10.64 -4.62 10.68 -4.42 10.68 -4.42 10.8 -4.22 10.8 -4.22 10.74 -4.01 10.74 -4.01 10.86 -3.81 10.86 -3.81 10.79 -3.61 10.79 -3.61 10.71 -3.4 10.71 -3.4 10.79 -3.2 10.79 -3.2 10.9 -3 10.9 -3 10.83 -2.79 10.83 -2.79 10.86 -2.59 10.86 -2.59 10.84 -2.39 10.84 -2.39 10.83 -2.18 10.83 -2.18 11.1 -1.98 11.1 -1.98 10.95 -1.78 10.95 -1.78 11.04 -1.58 11.04 -1.58 11.05 -1.37 11.05 -1.37 10.94 -1.17 10.94 -1.17 11.02 -0.97 11.02 -0.97 10.9 -0.76 10.9 -0.76 10.93 -0.56 10.93 -0.56 11.07 -0.36 11.07 -0.36 10.88 -0.15 10.88 -0.15 11.08 0.05 11.08 0.05 10.87 0.25 10.87 0.25 11.1 0.46 11.1 0.46 11.07 0.66 11.07 0.66 11.06 0.86 11.06 0.86 10.96 1.07 10.96 1.07 11.03 1.27 11.03 1.27 10.85 1.47 10.85 1.47 10.93 1.68 10.93 1.68 10.9 1.88 10.9 1.88 10.75 2.08 10.75 2.08 10.86 2.29 10.86 2.29 10.88 2.49 10.88 2.49 10.63 2.69 10.63 2.69 10.73 2.9 10.73 2.9 10.81 3.1 10.81 3.1 10.68 3.3 10.68 3.3 10.85 3.51 10.85 3.51 10.85 3.71 10.85 3.71 10.87 3.91 10.87 3.91 10.96 4.12 10.96 4.12 11.05 4.32 11.05 4.32 11.04 4.52 11.04 4.52 10.98 4.73 10.98 4.73 11.03 4.93 11.03 4.93 11.3 5.13 11.3 5.13 11.08 5.34 11.08 5.34 11.22 5.54 11.22 5.54 11.22 5.74 11.22 5.74 11.2 5.94 11.2 5.94 11.13 6.15 11.13 6.15 11.2 6.35 11.2 6.35 11.22 6.55 11.22 6.55 11.38 6.76 11.38 6.76 11.27 6.96 11.27 6.96 11.32 7.16 11.32 7.16 11.35 7.37 11.35 7.37 11.28 7.57 11.28 7.57 11.32 7.77 11.32 7.77 11.17 7.98 11.17 7.98 11.5 8.18 11.5 8.18 11.34 8.38 11.34 8.38 11.34 8.59 11.34 8.59 11.14 8.79 11.14 8.79 11.11 8.99 11.11 8.99 11.16 9.2 11.16 9.2 11.28 9.4 11.28 9.4 11.27 9.6 11.27 9.6 10.88 9.81 10.88 9.81 10.81 10.01 10.81 10.01 10.44 10.21 10.44 10.21 9.96 10.42 9.96 10.42 9.27 10.62 9.27 10.62 8.57 10.82 8.57 10.82 7.06 11.03 7.06 11.03 5.06 11.23 5.06 11.23 3.02 11.43 3.02 11.43 0.29 11.64 0.29 11.64 -3.03 11.84 -3.03 11.84 -6.76 12.04 -6.76 12.04 -10.38 12.25 -10.38 12.25 -14.63 12.45 -14.63 12.45 -18.87 12.65 -18.87 12.65 -22.12 12.86 -22.12 12.86 -24.55 13.06 -24.55 13.06 -26.75 13.26 -26.75 13.26 -27.18 13.46 -27.18 13.46 -26.05 13.67 -26.05 13.67 -24.88 13.87 -24.88 13.87 -21.6 14.07 -21.6 14.07 -17.61 14.28 -17.61 14.28 -14.82 14.48 -14.82 14.48 -10.6 14.68 -10.6 14.68 -6.86 14.89 -6.86 14.89 -2.57 15.09 -2.57 15.09 0.36 15.29 0.36 15.29 3.09 15.5 3.09 15.5 5.4 15.7 5.4 15.7 7.29 15.9 7.29 15.9 8.67 16.11 8.67 16.11 9.6 16.31 9.6 16.31 10.34 16.51 10.34 16.51 10.87 16.72 10.87 16.72 11.09 16.92 11.09 16.92 11.26 17.12 11.26 17.12 11.38 17.33 11.38 17.33 11.6 17.53 11.6 17.53 11.49 17.73 11.49 17.73 11.69 17.94 11.69 17.94 11.77 18.14 11.77 18.14 11.7 18.34 11.7 18.34 11.62 18.55 11.62 18.55 11.63 18.75 11.63 18.75 11.55 18.95 11.55 18.95 11.72 19.16 11.72 19.16 11.76 19.36 11.76 19.36 11.79 19.56 11.79 19.56 11.65 19.77 11.65 19.77 11.8 19.97 11.8 19.97 11.65 20.17 11.65 20.17 11.72 20.38 11.72 20.38 11.61 20.58 11.61 20.58 11.84 20.78 11.84 20.78 11.8 20.98 11.8 20.98 11.82 21.19 11.82 21.19 11.88 21.39 11.88 21.39 11.79 21.59 11.79 21.59 11.79 21.8 11.79 21.8 11.83 22 11.83 22 11.77 22.2 11.77 22.2 11.84 22.41 11.84 22.41 11.7 22.61 11.7 22.61 11.8 22.81 11.8 22.81 11.6 23.02 11.6 23.02 11.63 23.22 11.63 23.22 11.57 23.42 11.57 23.42 11.52 23.63 11.52 23.63 11.48 23.83 11.48 23.83 11.21 24.03 11.21 24.03 11.09 24.24 11.09 24.24 11.08 24.44 11.08 24.44 10.6 24.64 10.6 24.64 10.45 24.85 10.45 24.85 9.92 25.05 9.92 25.05 9.73 25.25 9.73 25.25 9.07 25.46 9.07 25.46 8.8 25.66 8.8 25.66 8.21 25.86 8.21 25.86 7.88 26.07 7.88 26.07 7.45 26.27 7.45 26.27 7.17 26.47 7.17 26.47 7.17 26.68 7.17 26.68 6.96 26.88 6.96 26.88 7.27 27.08 7.27 27.08 7.58 27.29 7.58 27.29 7.89 27.49 7.89 27.49 8.27 27.69 8.27 27.69 8.76 27.9 8.76 27.9 9.39 28.1 9.39 28.1 9.77 28.3 9.77 28.3 10.3 28.5 10.3 28.5 10.68 28.71 10.68 28.71 10.98 28.91 10.98 28.91 11.24 29.11 11.24 29.11 11.46 29.32 11.46 29.32 11.67 29.52 11.67 29.52 11.89 29.72 11.89 29.72 11.95 29.93 11.95 29.93 11.88 30.13 11.88 30.13 12.09 30.33 12.09 30.33 12.17 30.54 12.17 30.54 12.13 30.74 12.13 30.74 12.16 30.94 12.16 30.94 12.03 31.15 12.03 31.15 12.24 31.35 12.24 31.35 12.11 31.55 12.11 31.55 12.2 31.76 12.2 31.76 12.15 31.96 12.15 31.96 12.16 32.16 12.16 32.16 12.22 32.37 12.22 32.37 12.04 32.57 12.04 32.57 12.17 32.77 12.17 32.77 12.28 32.98 12.28 32.98 12.18 33.18 12.18 33.18 12.11 33.38 12.11 33.38 12.04 33.59 12.04 33.59 12.16 33.79 12.16 33.79 12.24 33.99 12.24 33.99 12.11 34.2 12.11 34.2 12.19 34.4 12.19 34.4 12.09 34.6 12.09 34.6 12.28 34.81 12.28 34.81 12.23 35.01 12.23 35.01 12.22 35.21 12.22 35.21 12.1 35.42 12.1 35.42 12.21 35.62 12.21 35.62 12.17 35.82 12.17 35.82 12.17 36.02 12.17 36.02 12.19 36.23 12.19 36.23 12.27 36.43 12.27 36.43 12.27 36.63 12.27 36.63 12.23 36.84 12.23 36.84 12.22 37.04 12.22 37.04 12.33 37.24 12.33 37.24 12.25 37.45 12.25 37.45 12.32 37.65 12.32 37.65 12.29 37.85 12.29 37.85 12.4 38.06 12.4 38.06 12.27 38.26 12.27 38.26 12.22 38.46 12.22 38.46 12.35 38.67 12.35 38.67 12.32 38.87 12.32 38.87 12.39 39.07 12.39 39.07 12.27 39.28 12.27 39.28 12.38 39.48 12.38 39.48 12.3 39.68 12.3 39.68 12.26 39.89 12.26 39.89 12.29 40.09 12.29 40.09 12.44 40.29 12.44 40.29 12.33 40.5 12.33 40.5 12.36 40.7 12.36 40.7 12.4 40.9 12.4 40.9 12.45 41.11 12.45 41.11 12.43 41.31 12.43 41.31 12.43 41.51 12.43 41.51 12.29 41.72 12.29 41.72 12.35 41.92 12.35 41.92 12.39 42.12 12.39 42.12 12.48 42.33 12.48 42.33 12.43 42.53 12.43 42.53 12.41 42.73 12.41 42.73 12.39 42.93 12.39 42.93 12.49 43.14 12.49 43.14 12.38 43.34 12.38 43.34 12.53 43.54 12.53 43.54 12.44 43.75 12.44 43.75 12.44 43.95 12.44 43.95 12.44 44.15 12.44 44.15 12.47 44.36 12.47 44.36 12.45 44.56 12.45 44.56 12.55 44.76 12.55 44.76 12.45 44.97 12.45 44.97 12.47 45.17 12.47 45.17 12.62 45.37 12.62 45.37 12.48 45.58 12.48 45.58 12.48 45.78 12.48 45.78 12.45 45.98 12.45 45.98 12.47 46.19 12.47 46.19 12.5 46.39 12.5 46.39 12.5 46.59 12.5 46.59 12.39 46.8 12.39 46.8 12.55 47 12.55 47 12.4 47.2 12.4 47.2 12.46 47.41 12.46 47.41 12.54 47.61 12.54 47.61 12.49 47.81 12.49 47.81 12.46 48.02 12.46 48.02 12.47 48.22 12.47 48.22 12.61 48.42 12.61 48.42 12.51 48.63 12.51 48.63 12.51 48.83 12.51 48.83 12.56 49.03 12.56 49.03 12.55 49.24 12.55 49.24 12.61 49.44 12.61 49.44 12.59 49.64 12.59 49.64 12.73 49.85 12.73 49.85 12.31 50.05 12.31 50.05 12.61 50.25 12.61 50.25 12.49 50.45 12.49 50.45 12.5 50.66 12.5 50.66 12.59 50.86 12.59 50.86 12.53 51.06 12.53 51.06 12.64 51.27 12.64 51.27 12.66 51.47 12.66 51.47 12.68 51.67 12.68 51.67 12.61 51.88 12.61 51.88 12.66 52.08 12.66 52.08 12.62 52.28 12.62 52.28 12.59 52.49 12.59 52.49 12.75 52.69 12.75 52.69 12.67 52.89 12.67 52.89 12.61 53.1 12.61 53.1 12.67 53.3 12.67 53.3 12.66 53.5 12.66 53.5 12.72 53.71 12.72 53.71 12.67 53.91 12.67 53.91 12.73 54.11 12.73 54.11 12.58 54.32 12.58 54.32 12.74 54.52 12.74 54.52 12.64 54.72 12.64 54.72 12.82 54.93 12.82 54.93 12.84 55.13 12.84 55.13 12.69 55.33 12.69 55.33 12.71 55.54 12.71 55.54 12.83 55.74 12.83 55.74 12.74 55.94 12.74 55.94 12.74 56.15 12.74 56.15 12.71 56.35 12.71 56.35 12.88 56.55 12.88 56.55 12.79 56.76 12.79 56.76 12.79 56.96 12.79 56.96 12.68 57.16 12.68 57.16 12.84 57.37 12.84 57.37 12.92 57.57 12.92 57.57 12.73 57.77 12.73 57.77 12.77 57.97 12.77 57.97 12.75 58.18 12.75 58.18 12.72 58.38 12.72 58.38 12.86 58.58 12.86 58.58 12.75 58.79 12.75 58.79 12.8 58.99 12.8 58.99 12.71 59.19 12.71 59.19 12.79 59.4 12.79 59.4 12.84 59.6 12.84 59.6 12.76 59.8 12.76 59.8 12.78 60.01 12.78 60.01 12.87 60.21 12.87 60.21 12.74 60.41 12.74 60.41 12.74 60.62 12.74 60.62 12.85 60.82 12.85 60.82 12.88 61.02 12.88 61.02 12.8 61.23 12.8 61.23 12.92 61.43 12.92 61.43 12.78 61.63 12.78 61.63 12.86 61.84 12.86 61.84 12.88 62.04 12.88 62.04 12.9 62.24 12.9 62.24 12.75 62.45 12.75 62.45 12.79 62.65 12.79 62.65 12.93 62.85 12.93 62.85 12.81 63.06 12.81 63.06 12.83 63.26 12.83 63.26 12.9 63.46 12.9 63.46 12.89 63.67 12.89 63.67 12.86 63.87 12.86 63.87 12.88 64.07 12.88 64.07 12.83 64.28 12.83 64.28 12.94 64.48 12.94 64.48 12.84 64.68 12.84 64.68 12.89 64.89 12.89 64.89 12.9 65.09 12.9 65.09 12.88 65.29 12.88 65.29 12.82 65.49 12.82 65.49 12.88 65.7 12.88 65.7 13.02 65.9 13.02 65.9 12.87 66.1 12.87 66.1 12.83 66.31 12.83 66.31 12.88 66.51 12.88 66.51 12.89 66.71 12.89 66.71 12.9 66.92 12.9 66.92 12.91 67.12 12.91 67.12 12.94 67.32 12.94 67.32 12.93 67.53 12.93 67.53 12.91 67.73 12.91 67.73 12.94 67.93 12.94 67.93 12.89 68.14 12.89 68.14 12.98 68.34 12.98 68.34 13.05 68.54 13.05 68.54 13.06 68.75 13.06 68.75 12.96 68.95 12.96 68.95 12.95 69.15 12.95 69.15 12.92 69.36 12.92 69.36 12.91 69.56 12.91 69.56 12.97 69.76 12.97 69.76 12.87 69.97 12.87 69.97 13.07 70.17 13.07 70.17 13.09 70.37 13.09 70.37 12.99 70.58 12.99 70.58 13.03 70.78 13.03 70.78 12.97 70.98 12.97 70.98 12.99 71.19 12.99 71.19 13.09 71.39 13.09 71.39 13.11 71.59 13.11 71.59 12.94 71.8 12.94 71.8 12.95 72 12.95 72 13.09 72.2 13.09 72.2 12.99 72.41 12.99 72.41 13.06 72.61 13.06 72.61 13.01 72.81 13.01 72.81 12.95 73.01 12.95 73.01 13.02 73.22 13.02 73.22 13.05 73.42 13.05 73.42 13.05 73.62 13.05 73.62 13.06 73.83 13.06 73.83 12.98 74.03 12.98 74.03 13.1 74.23 13.1 74.23 13.06 74.44 13.06 74.44 13.07 74.64 13.07 74.64 13.17 74.84 13.17 74.84 13.15 75.05 13.15 75.05 13.09 75.25 13.09 75.25 13.09 75.45 13.09 75.45 13.12 75.66 13.12 75.66 13.14 75.86 13.14 75.86 13.01 76.06 13.01 76.06 13.09 76.27 13.09 76.27 13.08 76.47 13.08 76.47 13.15 76.67 13.15 76.67 13.02 76.88 13.02 76.88 13.06 77.08 13.06 77.08 13.11 77.28 13.11 77.28 13.15 77.49 13.15 77.49 12.99 77.69 12.99 77.69 13.02 77.89 13.02 77.89 13.22 78.1 13.22 78.1 13.16 78.3 13.16 78.3 13.2 78.5 13.2 78.5 13.04 78.71 13.04 78.71 13.17 78.91 13.17 78.91 13.12 79.11 13.12 79.11 13.17 79.32 13.17 79.32 13.2 79.52 13.2 79.52 13.09 79.72 13.09 79.72 13.27 79.93 13.27 79.93 13.17 80.13 13.17 80.13 13.15 80.33 13.15 80.33 13.1 80.53 13.1 80.53 13.14 80.74 13.14 80.74 13.19 80.94 13.19 80.94 13.25 81.14 13.25 81.14 13.17 81.35 13.17 81.35 13.11 81.55 13.11 81.55 13.23 81.75 13.23 81.75 13.15 81.96 13.15 81.96 13.17 82.16 13.17 82.16 13.16 82.36 13.16 82.36 13.21 82.57 13.21 82.57 13.23 82.77 13.23 82.77 13.21 82.97 13.21 82.97 13.21 83.18 13.21 83.18 13.22 83.38 13.22 83.38 13.16 83.58 13.16 83.58 13.25 83.79 13.25 83.79 13.2 83.99 13.2 83.99 13.19 84.19 13.19 84.19 13.18 84.4 13.18 84.4 13.23 84.6 13.23 84.6 13.17 84.8 13.17 84.8 13.24 85.01 13.24 85.01 13.15 85.21 13.15 85.21 13.22 85.41 13.22 85.41 13.27 85.62 13.27 85.62 13.3 85.82 13.3 85.82 13.33 86.02 13.33 86.02 13.16 86.23 13.16 86.23 13.25 86.43 13.25 86.43 13.33 86.63 13.33 86.63 13.26 86.84 13.26 86.84 13.25 87.04 13.25 87.04 13.29 87.24 13.29 87.24 13.27 87.45 13.27 87.45 13.23 87.65 13.23 87.65 13.34 87.85 13.34 87.85 13.26 88.05 13.26 88.05 13.3 88.26 13.3 88.26 13.22 88.46 13.22 88.46 13.19 88.66 13.19 88.66 13.25 88.87 13.25 88.87 13.3 89.07 13.3 89.07 13.26 89.27 13.26 89.27 13.24 89.48 13.24 89.48 13.29 89.68 13.29 89.68 13.26 89.88 13.26 89.88 13.28 90.09 13.28 90.09 13.41 90.29 13.41 90.29 13.29 90.49 13.29 90.49 13.31 90.7 13.31 90.7 13.41 90.9 13.41 90.9 13.31 91.1 13.31 91.1 13.31 91.31 13.31 91.31 13.27 91.51 13.27 91.51 13.35 91.71 13.35 91.71 13.28 91.92 13.28 91.92 13.39 92.12 13.39 92.12 13.28 92.32 13.28 92.32 13.37 92.53 13.37 92.53 13.31 92.73 13.31 92.73 13.31 92.93 13.31 92.93 13.26 93.14 13.26 93.14 13.32 93.34 13.32 93.34 13.33 93.54 13.33 93.54 13.4 93.75 13.4 93.75 13.4 93.95 13.4 93.95 13.31 94.15 13.31 94.15 13.35 94.36 13.35 94.36 13.32 94.56 13.32 94.56 13.37 94.76 13.37 94.76 13.37 94.97 13.37 94.97 13.42 95.17 13.42 95.17 13.37 95.37 13.37 95.37 13.26 95.57 13.26 95.57 13.29 95.78 13.29 95.78 13.4 95.98 13.4 95.98 13.33 96.18 13.33 96.18 13.41 96.39 13.41 96.39 13.37 96.59 13.37 96.59 13.39 96.79 13.39 96.79 13.48 97 13.48 97 13.36 97.2 13.36 97.2 13.32 97.4 13.32 97.4 13.36 97.61 13.36 97.61 13.39 97.81 13.39 97.81 13.31 98.01 13.31 98.01 13.44 98.22 13.44 98.22 13.32 98.42 13.32 98.42 13.36 98.62 13.36 98.62 13.45 98.83 13.45 98.83 13.39 99.03 13.39 99.03 13.39 99.23 13.39 99.23 13.45 99.44 13.45 99.44 13.36 99.64 13.36 99.64 13.41 99.84 13.41 99.84 13.45 100.05 13.45 100.05 13.47 100.25 13.47 100.25 13.44 100.45 13.44 100.45 13.45 100.66 13.45 100.66 13.49 100.86 13.49 100.86 13.45 101.06 13.45 101.06 13.49 101.27 13.49 101.27 13.44 101.47 13.44 101.47 13.5 101.67 13.5 101.67 13.46 101.88 13.46 101.88 13.51 102.08 13.51 102.08 13.45 102.28 13.45 102.28 13.42 102.49 13.42 102.49 13.48 102.69 13.48 102.69 13.48 102.89 13.48 102.89 13.55 103.09 13.55 103.09 13.44 103.3 13.44 103.3 13.55 103.5 13.55 103.5 13.4 103.7 13.4 103.7 13.55 103.91 13.55 103.91 13.56 104.11 13.56 104.11 13.44 104.31 13.44 104.31 13.52 104.52 13.52 104.52 13.52 104.72 13.52 104.72 13.48 104.92 13.48 104.92 13.52 105.13 13.52 105.13 13.5 105.33 13.5 105.33 13.52 105.53 13.52 105.53 13.56 105.74 13.56 105.74 13.54 105.94 13.54 105.94 13.45 106.14 13.45 106.14 13.61 106.35 13.61 106.35 13.51 106.55 13.51 106.55 13.54 106.75 13.54 106.75 13.55 106.96 13.55 106.96 13.5 107.16 13.5 107.16 13.52 107.36 13.52 107.36 13.57 107.57 13.57 107.57 13.49 107.77 13.49 107.77 13.51 107.97 13.51 107.97 13.52 108.18 13.52 108.18 13.5 108.38 13.5 108.38 13.57 108.58 13.57 108.58 13.57 108.79 13.57 108.79 13.62 108.99 13.62 108.99 13.55 109.19 13.55 109.19 13.54 109.4 13.54 109.4 13.6 109.6 13.6 109.6 13.59 109.8 13.59 109.8 13.6 110.01 13.6 110.01 13.57 110.21 13.57 110.21 13.55 110.41 13.55 110.41 13.54 110.61 13.54 110.61 13.5 110.82 13.5 110.82 13.6 111.02 13.6 111.02 13.57 111.22 13.57 111.22 13.64 111.43 13.64 111.43 13.58 111.63 13.58 111.63 13.59 111.83 13.59 111.83 13.62 112.04 13.62 112.04 13.55 112.24 13.55 112.24 13.64 112.44 13.64 112.44 13.53 112.65 13.53 112.65 13.55 112.85 13.55 112.85 13.59 113.05 13.59 113.05 13.65 113.26 13.65 113.26 13.64 113.46 13.64 113.46 13.59 113.66 13.59 113.66 13.67 113.87 13.67 113.87 13.6 114.07 13.6 114.07 13.61 114.27 13.61 114.27 13.61 114.48 13.61 114.48 13.6 114.68 13.6 114.68 13.67 114.88 13.67 114.88 13.63" class="primitive"/>
            </g>
          </g>
        </g>
        <g stroke-width="0.3" fill="#000000" fill-opacity="0.000" class="geometry" id="img-40422b4a-235">
          <g class="color_RGB{Float64}(0.7186016914382806,8.086625054816313e-7,0.0097916074077615)" stroke-dasharray="none" stroke="#B70002" id="img-40422b4a-236">
            <g transform="translate(136.41,55.52)" id="img-40422b4a-237">
              <path fill="none" d="M-114.98,4.34 L -114.78 4.34 -114.78 4.34 -114.58 4.34 -114.58 4.34 -114.37 4.34 -114.37 4.34 -114.17 4.34 -114.17 4.33 -113.97 4.33 -113.97 4.33 -113.76 4.33 -113.76 4.31 -113.56 4.31 -113.56 4.29 -113.36 4.29 -113.36 4.24 -113.16 4.24 -113.16 4.17 -112.95 4.17 -112.95 4 -112.75 4 -112.75 3.73 -112.55 3.73 -112.55 3.17 -112.34 3.17 -112.34 2.11 -112.14 2.11 -112.14 0.28 -111.94 0.28 -111.94 -2.56 -111.73 -2.56 -111.73 -5.43 -111.53 -5.43 -111.53 -7.99 -111.33 -7.99 -111.33 -9.09 -111.12 -9.09 -111.12 -8.11 -110.92 -8.11 -110.92 -5.79 -110.72 -5.79 -110.72 -3.03 -110.51 -3.03 -110.51 -1.21 -110.31 -1.21 -110.31 0.24 -110.11 0.24 -110.11 0.83 -109.9 0.83 -109.9 0.93 -109.7 0.93 -109.7 0.98 -109.5 0.98 -109.5 0.86 -109.29 0.86 -109.29 0.94 -109.09 0.94 -109.09 0.49 -108.89 0.49 -108.89 0.67 -108.68 0.67 -108.68 -0.16 -108.48 -0.16 -108.48 -0.84 -108.28 -0.84 -108.28 -1.59 -108.07 -1.59 -108.07 -2.17 -107.87 -2.17 -107.87 -3.16 -107.67 -3.16 -107.67 -3.89 -107.46 -3.89 -107.46 -4.11 -107.26 -4.11 -107.26 -4.31 -107.06 -4.31 -107.06 -4.82 -106.85 -4.82 -106.85 -3.8 -106.65 -3.8 -106.65 -4.28 -106.45 -4.28 -106.45 -4.78 -106.24 -4.78 -106.24 -4.29 -106.04 -4.29 -106.04 -1.69 -105.84 -1.69 -105.84 1.71 -105.64 1.71 -105.64 0.55 -105.43 0.55 -105.43 -0.08 -105.23 -0.08 -105.23 0.98 -105.03 0.98 -105.03 0.95 -104.82 0.95 -104.82 1.67 -104.62 1.67 -104.62 2.58 -104.42 2.58 -104.42 2.76 -104.21 2.76 -104.21 2.75 -104.01 2.75 -104.01 2.64 -103.81 2.64 -103.81 2.07 -103.6 2.07 -103.6 1.91 -103.4 1.91 -103.4 1.61 -103.2 1.61 -103.2 1.4 -102.99 1.4 -102.99 1.12 -102.79 1.12 -102.79 0.24 -102.59 0.24 -102.59 0.25 -102.38 0.25 -102.38 0.04 -102.18 0.04 -102.18 -1.18 -101.98 -1.18 -101.98 -1.45 -101.77 -1.45 -101.77 -1.6 -101.57 -1.6 -101.57 -1.69 -101.37 -1.69 -101.37 -1.42 -101.16 -1.42 -101.16 -1.09 -100.96 -1.09 -100.96 -1.22 -100.76 -1.22 -100.76 -1.37 -100.55 -1.37 -100.55 -1.27 -100.35 -1.27 -100.35 -1.26 -100.15 -1.26 -100.15 -1.32 -99.94 -1.32 -99.94 -1.67 -99.74 -1.67 -99.74 -1.64 -99.54 -1.64 -99.54 -1.9 -99.33 -1.9 -99.33 -2.17 -99.13 -2.17 -99.13 -2 -98.93 -2 -98.93 -2.16 -98.73 -2.16 -98.73 -2.5 -98.52 -2.5 -98.52 -2.48 -98.32 -2.48 -98.32 -2.41 -98.12 -2.41 -98.12 -2.7 -97.91 -2.7 -97.91 -2.87 -97.71 -2.87 -97.71 -3.17 -97.51 -3.17 -97.51 -3.2 -97.3 -3.2 -97.3 -3.76 -97.1 -3.76 -97.1 -3.55 -96.9 -3.55 -96.9 -3.88 -96.69 -3.88 -96.69 -4.29 -96.49 -4.29 -96.49 -4.48 -96.29 -4.48 -96.29 -5.02 -96.08 -5.02 -96.08 -5.47 -95.88 -5.47 -95.88 -5.54 -95.68 -5.54 -95.68 -5.56 -95.47 -5.56 -95.47 -5.66 -95.27 -5.66 -95.27 -6.2 -95.07 -6.2 -95.07 -6.2 -94.86 -6.2 -94.86 -6.45 -94.66 -6.45 -94.66 -6.14 -94.46 -6.14 -94.46 -6.66 -94.25 -6.66 -94.25 -6.89 -94.05 -6.89 -94.05 -6.93 -93.85 -6.93 -93.85 -7.13 -93.64 -7.13 -93.64 -7.66 -93.44 -7.66 -93.44 -7.77 -93.24 -7.77 -93.24 -8.1 -93.03 -8.1 -93.03 -8.48 -92.83 -8.48 -92.83 -8.93 -92.63 -8.93 -92.63 -8.48 -92.42 -8.48 -92.42 -8.96 -92.22 -8.96 -92.22 -8.7 -92.02 -8.7 -92.02 -9.88 -91.81 -9.88 -91.81 -9.71 -91.61 -9.71 -91.61 -9.49 -91.41 -9.49 -91.41 -10.03 -91.21 -10.03 -91.21 -10.25 -91 -10.25 -91 -11.99 -90.8 -11.99 -90.8 -12.31 -90.6 -12.31 -90.6 -13.06 -90.39 -13.06 -90.39 -10.92 -90.19 -10.92 -90.19 -9.17 -89.99 -9.17 -89.99 -8.13 -89.78 -8.13 -89.78 -8.22 -89.58 -8.22 -89.58 -7.46 -89.38 -7.46 -89.38 -7.57 -89.17 -7.57 -89.17 -7.35 -88.97 -7.35 -88.97 -7.61 -88.77 -7.61 -88.77 -7.2 -88.56 -7.2 -88.56 -7.35 -88.36 -7.35 -88.36 -7.2 -88.16 -7.2 -88.16 -6.72 -87.95 -6.72 -87.95 -7.02 -87.75 -7.02 -87.75 -7.02 -87.55 -7.02 -87.55 -7.35 -87.34 -7.35 -87.34 -7.14 -87.14 -7.14 -87.14 -7.68 -86.94 -7.68 -86.94 -7.5 -86.73 -7.5 -86.73 -7.55 -86.53 -7.55 -86.53 -7.79 -86.33 -7.79 -86.33 -8.92 -86.12 -8.92 -86.12 -8.16 -85.92 -8.16 -85.92 -8.78 -85.72 -8.78 -85.72 -8.63 -85.51 -8.63 -85.51 -9.13 -85.31 -9.13 -85.31 -8.47 -85.11 -8.47 -85.11 -8.92 -84.9 -8.92 -84.9 -8.56 -84.7 -8.56 -84.7 -8.34 -84.5 -8.34 -84.5 -8.67 -84.29 -8.67 -84.29 -8.25 -84.09 -8.25 -84.09 -7.86 -83.89 -7.86 -83.89 -8.42 -83.69 -8.42 -83.69 -8.19 -83.48 -8.19 -83.48 -8.25 -83.28 -8.25 -83.28 -8.12 -83.08 -8.12 -83.08 -7.61 -82.87 -7.61 -82.87 -9.04 -82.67 -9.04 -82.67 -8.1 -82.47 -8.1 -82.47 -8.81 -82.26 -8.81 -82.26 -8.92 -82.06 -8.92 -82.06 -8.61 -81.86 -8.61 -81.86 -6.14 -81.65 -6.14 -81.65 -11.2 -81.45 -11.2 -81.45 -10.69 -81.25 -10.69 -81.25 -9.49 -81.04 -9.49 -81.04 -8.09 -80.84 -8.09 -80.84 -7.55 -80.64 -7.55 -80.64 -9.53 -80.43 -9.53 -80.43 -10.5 -80.23 -10.5 -80.23 -10.85 -80.03 -10.85 -80.03 -10.26 -79.82 -10.26 -79.82 -10.02 -79.62 -10.02 -79.62 -8.47 -79.42 -8.47 -79.42 -7 -79.21 -7 -79.21 -6.86 -79.01 -6.86 -79.01 -6.47 -78.81 -6.47 -78.81 -5.8 -78.6 -5.8 -78.6 -5.5 -78.4 -5.5 -78.4 -5.03 -78.2 -5.03 -78.2 -4.98 -77.99 -4.98 -77.99 -5.28 -77.79 -5.28 -77.79 -5.31 -77.59 -5.31 -77.59 -4.83 -77.38 -4.83 -77.38 -4.65 -77.18 -4.65 -77.18 -4.78 -76.98 -4.78 -76.98 -4.5 -76.77 -4.5 -76.77 -4.35 -76.57 -4.35 -76.57 -4.22 -76.37 -4.22 -76.37 -4.29 -76.17 -4.29 -76.17 -4.06 -75.96 -4.06 -75.96 -3.78 -75.76 -3.78 -75.76 -3.93 -75.56 -3.93 -75.56 -3.49 -75.35 -3.49 -75.35 -3.46 -75.15 -3.46 -75.15 -3.49 -74.95 -3.49 -74.95 -3.57 -74.74 -3.57 -74.74 -3.44 -74.54 -3.44 -74.54 -3.33 -74.34 -3.33 -74.34 -3.58 -74.13 -3.58 -74.13 -3.58 -73.93 -3.58 -73.93 -3.48 -73.73 -3.48 -73.73 -3.5 -73.52 -3.5 -73.52 -3.19 -73.32 -3.19 -73.32 -3.75 -73.12 -3.75 -73.12 -3.56 -72.91 -3.56 -72.91 -3.6 -72.71 -3.6 -72.71 -3.44 -72.51 -3.44 -72.51 -3.39 -72.3 -3.39 -72.3 -3.68 -72.1 -3.68 -72.1 -3.85 -71.9 -3.85 -71.9 -3.81 -71.69 -3.81 -71.69 -3.72 -71.49 -3.72 -71.49 -3.75 -71.29 -3.75 -71.29 -3.58 -71.08 -3.58 -71.08 -3.57 -70.88 -3.57 -70.88 -3.44 -70.68 -3.44 -70.68 -3.62 -70.47 -3.62 -70.47 -3.71 -70.27 -3.71 -70.27 -3.29 -70.07 -3.29 -70.07 -3.39 -69.86 -3.39 -69.86 -3.46 -69.66 -3.46 -69.66 -3.58 -69.46 -3.58 -69.46 -3.7 -69.25 -3.7 -69.25 -3.75 -69.05 -3.75 -69.05 -3.75 -68.85 -3.75 -68.85 -3.53 -68.65 -3.53 -68.65 -3.6 -68.44 -3.6 -68.44 -3.57 -68.24 -3.57 -68.24 -3.69 -68.04 -3.69 -68.04 -3.62 -67.83 -3.62 -67.83 -3.59 -67.63 -3.59 -67.63 -3.51 -67.43 -3.51 -67.43 -3.84 -67.22 -3.84 -67.22 -3.57 -67.02 -3.57 -67.02 -3.59 -66.82 -3.59 -66.82 -3.85 -66.61 -3.85 -66.61 -3.67 -66.41 -3.67 -66.41 -3.67 -66.21 -3.67 -66.21 -3.75 -66 -3.75 -66 -3.54 -65.8 -3.54 -65.8 -3.73 -65.6 -3.73 -65.6 -3.63 -65.39 -3.63 -65.39 -3.94 -65.19 -3.94 -65.19 -3.52 -64.99 -3.52 -64.99 -3.75 -64.78 -3.75 -64.78 -3.86 -64.58 -3.86 -64.58 -3.19 -64.38 -3.19 -64.38 -3.71 -64.17 -3.71 -64.17 -3.48 -63.97 -3.48 -63.97 -3.62 -63.77 -3.62 -63.77 -3.52 -63.56 -3.52 -63.56 -3.53 -63.36 -3.53 -63.36 -3.69 -63.16 -3.69 -63.16 -3.42 -62.95 -3.42 -62.95 -3.54 -62.75 -3.54 -62.75 -3.52 -62.55 -3.52 -62.55 -3.51 -62.34 -3.51 -62.34 -3.38 -62.14 -3.38 -62.14 -3.5 -61.94 -3.5 -61.94 -3.39 -61.73 -3.39 -61.73 -3.36 -61.53 -3.36 -61.53 -3.68 -61.33 -3.68 -61.33 -3.4 -61.13 -3.4 -61.13 -3.41 -60.92 -3.41 -60.92 -3.38 -60.72 -3.38 -60.72 -3.25 -60.52 -3.25 -60.52 -3.43 -60.31 -3.43 -60.31 -3.5 -60.11 -3.5 -60.11 -3.12 -59.91 -3.12 -59.91 -3.22 -59.7 -3.22 -59.7 -3.22 -59.5 -3.22 -59.5 -3.3 -59.3 -3.3 -59.3 -3.4 -59.09 -3.4 -59.09 -3.33 -58.89 -3.33 -58.89 -3.1 -58.69 -3.1 -58.69 -3.2 -58.48 -3.2 -58.48 -3.44 -58.28 -3.44 -58.28 -3.16 -58.08 -3.16 -58.08 -3.35 -57.87 -3.35 -57.87 -3.43 -57.67 -3.43 -57.67 -3.46 -57.47 -3.46 -57.47 -3.38 -57.26 -3.38 -57.26 -3.17 -57.06 -3.17 -57.06 -3.42 -56.86 -3.42 -56.86 -3.51 -56.65 -3.51 -56.65 -3.69 -56.45 -3.69 -56.45 -3.66 -56.25 -3.66 -56.25 -3.63 -56.04 -3.63 -56.04 -3.6 -55.84 -3.6 -55.84 -3.44 -55.64 -3.44 -55.64 -3.48 -55.43 -3.48 -55.43 -3.28 -55.23 -3.28 -55.23 -3.29 -55.03 -3.29 -55.03 -3.27 -54.82 -3.27 -54.82 -3.02 -54.62 -3.02 -54.62 -3.2 -54.42 -3.2 -54.42 -3.06 -54.21 -3.06 -54.21 -2.99 -54.01 -2.99 -54.01 -2.97 -53.81 -2.97 -53.81 -3 -53.61 -3 -53.61 -2.81 -53.4 -2.81 -53.4 -2.78 -53.2 -2.78 -53.2 -3.05 -53 -3.05 -53 -2.87 -52.79 -2.87 -52.79 -3.01 -52.59 -3.01 -52.59 -3.15 -52.39 -3.15 -52.39 -3.02 -52.18 -3.02 -52.18 -3.02 -51.98 -3.02 -51.98 -2.99 -51.78 -2.99 -51.78 -2.85 -51.57 -2.85 -51.57 -3.02 -51.37 -3.02 -51.37 -3.12 -51.17 -3.12 -51.17 -2.82 -50.96 -2.82 -50.96 -2.96 -50.76 -2.96 -50.76 -3.23 -50.56 -3.23 -50.56 -2.63 -50.35 -2.63 -50.35 -2.97 -50.15 -2.97 -50.15 -2.68 -49.95 -2.68 -49.95 -2.84 -49.74 -2.84 -49.74 -2.88 -49.54 -2.88 -49.54 -2.83 -49.34 -2.83 -49.34 -2.62 -49.13 -2.62 -49.13 -2.37 -48.93 -2.37 -48.93 -2.44 -48.73 -2.44 -48.73 -2.55 -48.52 -2.55 -48.52 -2.67 -48.32 -2.67 -48.32 -2.63 -48.12 -2.63 -48.12 -2.51 -47.91 -2.51 -47.91 -2.37 -47.71 -2.37 -47.71 -2.66 -47.51 -2.66 -47.51 -2.44 -47.3 -2.44 -47.3 -2.37 -47.1 -2.37 -47.1 -2.5 -46.9 -2.5 -46.9 -2.69 -46.69 -2.69 -46.69 -2.81 -46.49 -2.81 -46.49 -2.66 -46.29 -2.66 -46.29 -2.67 -46.09 -2.67 -46.09 -2.72 -45.88 -2.72 -45.88 -2.8 -45.68 -2.8 -45.68 -2.55 -45.48 -2.55 -45.48 -2.81 -45.27 -2.81 -45.27 -2.72 -45.07 -2.72 -45.07 -2.56 -44.87 -2.56 -44.87 -2.41 -44.66 -2.41 -44.66 -2.44 -44.46 -2.44 -44.46 -2.37 -44.26 -2.37 -44.26 -2 -44.05 -2 -44.05 -2.38 -43.85 -2.38 -43.85 -2.14 -43.65 -2.14 -43.65 -1.82 -43.44 -1.82 -43.44 -2.03 -43.24 -2.03 -43.24 -1.83 -43.04 -1.83 -43.04 -2.18 -42.83 -2.18 -42.83 -2.56 -42.63 -2.56 -42.63 -2.69 -42.43 -2.69 -42.43 -1.59 -42.22 -1.59 -42.22 -2.56 -42.02 -2.56 -42.02 -2.23 -41.82 -2.23 -41.82 -0.99 -41.61 -0.99 -41.61 -2.18 -41.41 -2.18 -41.41 -1.26 -41.21 -1.26 -41.21 -0.8 -41 -0.8 -41 -2.37 -40.8 -2.37 -40.8 -1.3 -40.6 -1.3 -40.6 -1.94 -40.39 -1.94 -40.39 -0.67 -40.19 -0.67 -40.19 -1.12 -39.99 -1.12 -39.99 -1.31 -39.78 -1.31 -39.78 -1.42 -39.58 -1.42 -39.58 -1.68 -39.38 -1.68 -39.38 -1.5 -39.17 -1.5 -39.17 -1.42 -38.97 -1.42 -38.97 -1.77 -38.77 -1.77 -38.77 -1.26 -38.57 -1.26 -38.57 -1.54 -38.36 -1.54 -38.36 -1.27 -38.16 -1.27 -38.16 -1.38 -37.96 -1.38 -37.96 -1.25 -37.75 -1.25 -37.75 -1.43 -37.55 -1.43 -37.55 -1.06 -37.35 -1.06 -37.35 -1.32 -37.14 -1.32 -37.14 -1.23 -36.94 -1.23 -36.94 -1.18 -36.74 -1.18 -36.74 -1.48 -36.53 -1.48 -36.53 -1.32 -36.33 -1.32 -36.33 -1.31 -36.13 -1.31 -36.13 -1.57 -35.92 -1.57 -35.92 -1.37 -35.72 -1.37 -35.72 -1.45 -35.52 -1.45 -35.52 -0.74 -35.31 -0.74 -35.31 -1.3 -35.11 -1.3 -35.11 -1.06 -34.91 -1.06 -34.91 -1.04 -34.7 -1.04 -34.7 -1.04 -34.5 -1.04 -34.5 -1.19 -34.3 -1.19 -34.3 -1.18 -34.09 -1.18 -34.09 -1.05 -33.89 -1.05 -33.89 -0.94 -33.69 -0.94 -33.69 -1 -33.48 -1 -33.48 -0.82 -33.28 -0.82 -33.28 -0.93 -33.08 -0.93 -33.08 -0.9 -32.87 -0.9 -32.87 -1.07 -32.67 -1.07 -32.67 -0.89 -32.47 -0.89 -32.47 -0.61 -32.26 -0.61 -32.26 -1 -32.06 -1 -32.06 -0.99 -31.86 -0.99 -31.86 -1.09 -31.65 -1.09 -31.65 -0.86 -31.45 -0.86 -31.45 -0.84 -31.25 -0.84 -31.25 -0.92 -31.05 -0.92 -31.05 -0.84 -30.84 -0.84 -30.84 -0.94 -30.64 -0.94 -30.64 -0.78 -30.44 -0.78 -30.44 -0.82 -30.23 -0.82 -30.23 -0.64 -30.03 -0.64 -30.03 -0.86 -29.83 -0.86 -29.83 -0.47 -29.62 -0.47 -29.62 -0.53 -29.42 -0.53 -29.42 -0.56 -29.22 -0.56 -29.22 -0.59 -29.01 -0.59 -29.01 -0.57 -28.81 -0.57 -28.81 -0.65 -28.61 -0.65 -28.61 -0.32 -28.4 -0.32 -28.4 -0.6 -28.2 -0.6 -28.2 -0.46 -28 -0.46 -28 -0.42 -27.79 -0.42 -27.79 -0.59 -27.59 -0.59 -27.59 -0.45 -27.39 -0.45 -27.39 -0.25 -27.18 -0.25 -27.18 -0.47 -26.98 -0.47 -26.98 -0.52 -26.78 -0.52 -26.78 -0.28 -26.57 -0.28 -26.57 -0.47 -26.37 -0.47 -26.37 -0.44 -26.17 -0.44 -26.17 -0.19 -25.96 -0.19 -25.96 -0.35 -25.76 -0.35 -25.76 -0.35 -25.56 -0.35 -25.56 -0.32 -25.35 -0.32 -25.35 -0.44 -25.15 -0.44 -25.15 -0.3 -24.95 -0.3 -24.95 -0.47 -24.74 -0.47 -24.74 -0.21 -24.54 -0.21 -24.54 -0.24 -24.34 -0.24 -24.34 -0.18 -24.14 -0.18 -24.14 -0.25 -23.93 -0.25 -23.93 -0.07 -23.73 -0.07 -23.73 -0.25 -23.53 -0.25 -23.53 -0.2 -23.32 -0.2 -23.32 -0.11 -23.12 -0.11 -23.12 -0.25 -22.92 -0.25 -22.92 -0.36 -22.71 -0.36 -22.71 -0.09 -22.51 -0.09 -22.51 -0.05 -22.31 -0.05 -22.31 -0.2 -22.1 -0.2 -22.1 0.04 -21.9 0.04 -21.9 0.14 -21.7 0.14 -21.7 0.02 -21.49 0.02 -21.49 -0.05 -21.29 -0.05 -21.29 -0.05 -21.09 -0.05 -21.09 -0.23 -20.88 -0.23 -20.88 -0.07 -20.68 -0.07 -20.68 -0.09 -20.48 -0.09 -20.48 0.1 -20.27 0.1 -20.27 0.08 -20.07 0.08 -20.07 0.02 -19.87 0.02 -19.87 0.05 -19.66 0.05 -19.66 0.02 -19.46 0.02 -19.46 -0.09 -19.26 -0.09 -19.26 0.1 -19.05 0.1 -19.05 0.13 -18.85 0.13 -18.85 0.13 -18.65 0.13 -18.65 0.32 -18.44 0.32 -18.44 0.04 -18.24 0.04 -18.24 -0 -18.04 -0 -18.04 0.06 -17.83 0.06 -17.83 0.2 -17.63 0.2 -17.63 0.1 -17.43 0.1 -17.43 -0.02 -17.22 -0.02 -17.22 0.11 -17.02 0.11 -17.02 -0.01 -16.82 -0.01 -16.82 0.05 -16.62 0.05 -16.62 0.08 -16.41 0.08 -16.41 0.1 -16.21 0.1 -16.21 -0.01 -16.01 -0.01 -16.01 0.21 -15.8 0.21 -15.8 0.09 -15.6 0.09 -15.6 0.05 -15.4 0.05 -15.4 0.03 -15.19 0.03 -15.19 0.09 -14.99 0.09 -14.99 0.08 -14.79 0.08 -14.79 0.34 -14.58 0.34 -14.58 0.33 -14.38 0.33 -14.38 0.24 -14.18 0.24 -14.18 0.34 -13.97 0.34 -13.97 0.27 -13.77 0.27 -13.77 0.48 -13.57 0.48 -13.57 0.27 -13.36 0.27 -13.36 0.3 -13.16 0.3 -13.16 0.2 -12.96 0.2 -12.96 0.31 -12.75 0.31 -12.75 0.33 -12.55 0.33 -12.55 0.32 -12.35 0.32 -12.35 0.36 -12.14 0.36 -12.14 0.47 -11.94 0.47 -11.94 0.41 -11.74 0.41 -11.74 0.27 -11.53 0.27 -11.53 0.35 -11.33 0.35 -11.33 0.22 -11.13 0.22 -11.13 0.33 -10.92 0.33 -10.92 0.35 -10.72 0.35 -10.72 0.36 -10.52 0.36 -10.52 0.38 -10.31 0.38 -10.31 0.32 -10.11 0.32 -10.11 0.5 -9.91 0.5 -9.91 0.43 -9.7 0.43 -9.7 0.54 -9.5 0.54 -9.5 0.45 -9.3 0.45 -9.3 0.62 -9.1 0.62 -9.1 0.53 -8.89 0.53 -8.89 0.42 -8.69 0.42 -8.69 0.55 -8.49 0.55 -8.49 0.69 -8.28 0.69 -8.28 0.64 -8.08 0.64 -8.08 0.52 -7.88 0.52 -7.88 0.53 -7.67 0.53 -7.67 0.4 -7.47 0.4 -7.47 0.44 -7.27 0.44 -7.27 0.22 -7.06 0.22 -7.06 0.38 -6.86 0.38 -6.86 0.31 -6.66 0.31 -6.66 0.41 -6.45 0.41 -6.45 0.43 -6.25 0.43 -6.25 0.43 -6.05 0.43 -6.05 0.39 -5.84 0.39 -5.84 0.39 -5.64 0.39 -5.64 0.41 -5.44 0.41 -5.44 0.34 -5.23 0.34 -5.23 0.66 -5.03 0.66 -5.03 0.65 -4.83 0.65 -4.83 0.52 -4.62 0.52 -4.62 0.58 -4.42 0.58 -4.42 0.7 -4.22 0.7 -4.22 0.65 -4.01 0.65 -4.01 0.76 -3.81 0.76 -3.81 0.7 -3.61 0.7 -3.61 0.62 -3.4 0.62 -3.4 0.7 -3.2 0.7 -3.2 0.81 -3 0.81 -3 0.73 -2.79 0.73 -2.79 0.77 -2.59 0.77 -2.59 0.75 -2.39 0.75 -2.39 0.74 -2.18 0.74 -2.18 1 -1.98 1 -1.98 0.86 -1.78 0.86 -1.78 0.95 -1.58 0.95 -1.58 0.95 -1.37 0.95 -1.37 0.85 -1.17 0.85 -1.17 0.93 -0.97 0.93 -0.97 0.81 -0.76 0.81 -0.76 0.84 -0.56 0.84 -0.56 0.98 -0.36 0.98 -0.36 0.78 -0.15 0.78 -0.15 0.99 0.05 0.99 0.05 0.77 0.25 0.77 0.25 1.01 0.46 1.01 0.46 0.98 0.66 0.98 0.66 0.97 0.86 0.97 0.86 0.87 1.07 0.87 1.07 0.93 1.27 0.93 1.27 0.76 1.47 0.76 1.47 0.84 1.68 0.84 1.68 0.81 1.88 0.81 1.88 0.66 2.08 0.66 2.08 0.77 2.29 0.77 2.29 0.78 2.49 0.78 2.49 0.53 2.69 0.53 2.69 0.64 2.9 0.64 2.9 0.72 3.1 0.72 3.1 0.59 3.3 0.59 3.3 0.75 3.51 0.75 3.51 0.76 3.71 0.76 3.71 0.77 3.91 0.77 3.91 0.86 4.12 0.86 4.12 0.96 4.32 0.96 4.32 0.95 4.52 0.95 4.52 0.89 4.73 0.89 4.73 0.94 4.93 0.94 4.93 1.2 5.13 1.2 5.13 0.99 5.34 0.99 5.34 1.12 5.54 1.12 5.54 1.13 5.74 1.13 5.74 1.11 5.94 1.11 5.94 1.04 6.15 1.04 6.15 1.11 6.35 1.11 6.35 1.12 6.55 1.12 6.55 1.29 6.76 1.29 6.76 1.17 6.96 1.17 6.96 1.23 7.16 1.23 7.16 1.25 7.37 1.25 7.37 1.19 7.57 1.19 7.57 1.23 7.77 1.23 7.77 1.08 7.98 1.08 7.98 1.43 8.18 1.43 8.18 1.28 8.38 1.28 8.38 1.29 8.59 1.29 8.59 1.11 8.79 1.11 8.79 1.11 8.99 1.11 8.99 1.19 9.2 1.19 9.2 1.38 9.4 1.38 9.4 1.45 9.6 1.45 9.6 1.19 9.81 1.19 9.81 1.34 10.01 1.34 10.01 1.28 10.21 1.28 10.21 1.29 10.42 1.29 10.42 1.29 10.62 1.29 10.62 1.57 10.82 1.57 10.82 1.39 11.03 1.39 11.03 1.21 11.23 1.21 11.23 1.43 11.43 1.43 11.43 1.49 11.64 1.49 11.64 1.48 11.84 1.48 11.84 1.42 12.04 1.42 12.04 1.77 12.25 1.77 12.25 1.55 12.45 1.55 12.45 1.13 12.65 1.13 12.65 1.31 12.86 1.31 12.86 1.53 13.06 1.53 13.06 1 13.26 1 13.26 1.15 13.46 1.15 13.46 1.69 13.67 1.69 13.67 1.21 13.87 1.21 13.87 1.84 14.07 1.84 14.07 2.49 14.28 2.49 14.28 1.51 14.48 1.51 14.48 1.68 14.68 1.68 14.68 1.48 14.89 1.48 14.89 2.06 15.09 2.06 15.09 1.71 15.29 1.71 15.29 1.6 15.5 1.6 15.5 1.66 15.7 1.66 15.7 1.72 15.9 1.72 15.9 1.7 16.11 1.7 16.11 1.63 16.31 1.63 16.31 1.65 16.51 1.65 16.51 1.68 16.72 1.68 16.72 1.57 16.92 1.57 16.92 1.52 17.12 1.52 17.12 1.5 17.33 1.5 17.33 1.63 17.53 1.63 17.53 1.47 17.73 1.47 17.73 1.64 17.94 1.64 17.94 1.71 18.14 1.71 18.14 1.62 18.34 1.62 18.34 1.54 18.55 1.54 18.55 1.54 18.75 1.54 18.75 1.45 18.95 1.45 18.95 1.63 19.16 1.63 19.16 1.67 19.36 1.67 19.36 1.69 19.56 1.69 19.56 1.56 19.77 1.56 19.77 1.7 19.97 1.7 19.97 1.55 20.17 1.55 20.17 1.62 20.38 1.62 20.38 1.51 20.58 1.51 20.58 1.75 20.78 1.75 20.78 1.7 20.98 1.7 20.98 1.73 21.19 1.73 21.19 1.78 21.39 1.78 21.39 1.71 21.59 1.71 21.59 1.71 21.8 1.71 21.8 1.77 22 1.77 22 1.71 22.2 1.71 22.2 1.8 22.41 1.8 22.41 1.68 22.61 1.68 22.61 1.8 22.81 1.8 22.81 1.63 23.02 1.63 23.02 1.7 23.22 1.7 23.22 1.69 23.42 1.69 23.42 1.72 23.63 1.72 23.63 1.77 23.83 1.77 23.83 1.63 24.03 1.63 24.03 1.69 24.24 1.69 24.24 1.89 24.44 1.89 24.44 1.69 24.64 1.69 24.64 1.88 24.85 1.88 24.85 1.74 25.05 1.74 25.05 1.96 25.25 1.96 25.25 1.78 25.46 1.78 25.46 2 25.66 2 25.66 1.85 25.86 1.85 25.86 1.93 26.07 1.93 26.07 1.87 26.27 1.87 26.27 1.83 26.47 1.83 26.47 1.96 26.68 1.96 26.68 1.73 26.88 1.73 26.88 1.96 27.08 1.96 27.08 1.99 27.29 1.99 27.29 1.96 27.49 1.96 27.49 1.92 27.69 1.92 27.69 1.95 27.9 1.95 27.9 2.12 28.1 2.12 28.1 2.01 28.3 2.01 28.3 2.1 28.5 2.1 28.5 2.09 28.71 2.09 28.71 2.04 28.91 2.04 28.91 2.02 29.11 2.02 29.11 2 29.32 2 29.32 2.03 29.52 2.03 29.52 2.11 29.72 2.11 29.72 2.06 29.93 2.06 29.93 1.92 30.13 1.92 30.13 2.08 30.33 2.08 30.33 2.12 30.54 2.12 30.54 2.05 30.74 2.05 30.74 2.08 30.94 2.08 30.94 1.94 31.15 1.94 31.15 2.15 31.35 2.15 31.35 2.01 31.55 2.01 31.55 2.1 31.76 2.1 31.76 2.05 31.96 2.05 31.96 2.07 32.16 2.07 32.16 2.13 32.37 2.13 32.37 1.94 32.57 1.94 32.57 2.08 32.77 2.08 32.77 2.19 32.98 2.19 32.98 2.09 33.18 2.09 33.18 2.02 33.38 2.02 33.38 1.95 33.59 1.95 33.59 2.07 33.79 2.07 33.79 2.15 33.99 2.15 33.99 2.02 34.2 2.02 34.2 2.1 34.4 2.1 34.4 2 34.6 2 34.6 2.18 34.81 2.18 34.81 2.14 35.01 2.14 35.01 2.12 35.21 2.12 35.21 2.01 35.42 2.01 35.42 2.12 35.62 2.12 35.62 2.08 35.82 2.08 35.82 2.08 36.02 2.08 36.02 2.1 36.23 2.1 36.23 2.18 36.43 2.18 36.43 2.18 36.63 2.18 36.63 2.14 36.84 2.14 36.84 2.12 37.04 2.12 37.04 2.24 37.24 2.24 37.24 2.16 37.45 2.16 37.45 2.22 37.65 2.22 37.65 2.19 37.85 2.19 37.85 2.31 38.06 2.31 38.06 2.18 38.26 2.18 38.26 2.12 38.46 2.12 38.46 2.26 38.67 2.26 38.67 2.23 38.87 2.23 38.87 2.29 39.07 2.29 39.07 2.17 39.28 2.17 39.28 2.29 39.48 2.29 39.48 2.2 39.68 2.2 39.68 2.17 39.89 2.17 39.89 2.2 40.09 2.2 40.09 2.34 40.29 2.34 40.29 2.24 40.5 2.24 40.5 2.27 40.7 2.27 40.7 2.31 40.9 2.31 40.9 2.36 41.11 2.36 41.11 2.34 41.31 2.34 41.31 2.34 41.51 2.34 41.51 2.2 41.72 2.2 41.72 2.26 41.92 2.26 41.92 2.29 42.12 2.29 42.12 2.38 42.33 2.38 42.33 2.34 42.53 2.34 42.53 2.32 42.73 2.32 42.73 2.29 42.93 2.29 42.93 2.4 43.14 2.4 43.14 2.28 43.34 2.28 43.34 2.43 43.54 2.43 43.54 2.34 43.75 2.34 43.75 2.34 43.95 2.34 43.95 2.34 44.15 2.34 44.15 2.38 44.36 2.38 44.36 2.35 44.56 2.35 44.56 2.45 44.76 2.45 44.76 2.36 44.97 2.36 44.97 2.37 45.17 2.37 45.17 2.52 45.37 2.52 45.37 2.39 45.58 2.39 45.58 2.39 45.78 2.39 45.78 2.36 45.98 2.36 45.98 2.38 46.19 2.38 46.19 2.41 46.39 2.41 46.39 2.41 46.59 2.41 46.59 2.3 46.8 2.3 46.8 2.45 47 2.45 47 2.3 47.2 2.3 47.2 2.37 47.41 2.37 47.41 2.45 47.61 2.45 47.61 2.4 47.81 2.4 47.81 2.37 48.02 2.37 48.02 2.38 48.22 2.38 48.22 2.52 48.42 2.52 48.42 2.41 48.63 2.41 48.63 2.42 48.83 2.42 48.83 2.46 49.03 2.46 49.03 2.46 49.24 2.46 49.24 2.51 49.44 2.51 49.44 2.5 49.64 2.5 49.64 2.64 49.85 2.64 49.85 2.22 50.05 2.22 50.05 2.51 50.25 2.51 50.25 2.4 50.45 2.4 50.45 2.41 50.66 2.41 50.66 2.5 50.86 2.5 50.86 2.44 51.06 2.44 51.06 2.54 51.27 2.54 51.27 2.57 51.47 2.57 51.47 2.59 51.67 2.59 51.67 2.52 51.88 2.52 51.88 2.57 52.08 2.57 52.08 2.53 52.28 2.53 52.28 2.49 52.49 2.49 52.49 2.65 52.69 2.65 52.69 2.58 52.89 2.58 52.89 2.51 53.1 2.51 53.1 2.57 53.3 2.57 53.3 2.57 53.5 2.57 53.5 2.63 53.71 2.63 53.71 2.58 53.91 2.58 53.91 2.63 54.11 2.63 54.11 2.49 54.32 2.49 54.32 2.65 54.52 2.65 54.52 2.54 54.72 2.54 54.72 2.72 54.93 2.72 54.93 2.75 55.13 2.75 55.13 2.6 55.33 2.6 55.33 2.62 55.54 2.62 55.54 2.74 55.74 2.74 55.74 2.65 55.94 2.65 55.94 2.65 56.15 2.65 56.15 2.61 56.35 2.61 56.35 2.79 56.55 2.79 56.55 2.7 56.76 2.7 56.76 2.7 56.96 2.7 56.96 2.59 57.16 2.59 57.16 2.74 57.37 2.74 57.37 2.83 57.57 2.83 57.57 2.64 57.77 2.64 57.77 2.68 57.97 2.68 57.97 2.66 58.18 2.66 58.18 2.62 58.38 2.62 58.38 2.76 58.58 2.76 58.58 2.66 58.79 2.66 58.79 2.71 58.99 2.71 58.99 2.62 59.19 2.62 59.19 2.7 59.4 2.7 59.4 2.75 59.6 2.75 59.6 2.67 59.8 2.67 59.8 2.69 60.01 2.69 60.01 2.77 60.21 2.77 60.21 2.65 60.41 2.65 60.41 2.65 60.62 2.65 60.62 2.75 60.82 2.75 60.82 2.79 61.02 2.79 61.02 2.7 61.23 2.7 61.23 2.82 61.43 2.82 61.43 2.69 61.63 2.69 61.63 2.77 61.84 2.77 61.84 2.79 62.04 2.79 62.04 2.81 62.24 2.81 62.24 2.66 62.45 2.66 62.45 2.69 62.65 2.69 62.65 2.84 62.85 2.84 62.85 2.72 63.06 2.72 63.06 2.74 63.26 2.74 63.26 2.8 63.46 2.8 63.46 2.79 63.67 2.79 63.67 2.77 63.87 2.77 63.87 2.79 64.07 2.79 64.07 2.74 64.28 2.74 64.28 2.85 64.48 2.85 64.48 2.75 64.68 2.75 64.68 2.79 64.89 2.79 64.89 2.81 65.09 2.81 65.09 2.78 65.29 2.78 65.29 2.73 65.49 2.73 65.49 2.79 65.7 2.79 65.7 2.93 65.9 2.93 65.9 2.78 66.1 2.78 66.1 2.74 66.31 2.74 66.31 2.78 66.51 2.78 66.51 2.8 66.71 2.8 66.71 2.8 66.92 2.8 66.92 2.82 67.12 2.82 67.12 2.84 67.32 2.84 67.32 2.84 67.53 2.84 67.53 2.81 67.73 2.81 67.73 2.85 67.93 2.85 67.93 2.8 68.14 2.8 68.14 2.88 68.34 2.88 68.34 2.96 68.54 2.96 68.54 2.97 68.75 2.97 68.75 2.87 68.95 2.87 68.95 2.86 69.15 2.86 69.15 2.82 69.36 2.82 69.36 2.81 69.56 2.81 69.56 2.88 69.76 2.88 69.76 2.78 69.97 2.78 69.97 2.98 70.17 2.98 70.17 2.99 70.37 2.99 70.37 2.9 70.58 2.9 70.58 2.93 70.78 2.93 70.78 2.88 70.98 2.88 70.98 2.9 71.19 2.9 71.19 3 71.39 3 71.39 3.01 71.59 3.01 71.59 2.85 71.8 2.85 71.8 2.86 72 2.86 72 3 72.2 3 72.2 2.89 72.41 2.89 72.41 2.97 72.61 2.97 72.61 2.92 72.81 2.92 72.81 2.86 73.01 2.86 73.01 2.93 73.22 2.93 73.22 2.95 73.42 2.95 73.42 2.95 73.62 2.95 73.62 2.97 73.83 2.97 73.83 2.88 74.03 2.88 74.03 3.01 74.23 3.01 74.23 2.97 74.44 2.97 74.44 2.98 74.64 2.98 74.64 3.07 74.84 3.07 74.84 3.06 75.05 3.06 75.05 3 75.25 3 75.25 3 75.45 3 75.45 3.03 75.66 3.03 75.66 3.05 75.86 3.05 75.86 2.91 76.06 2.91 76.06 3 76.27 3 76.27 2.99 76.47 2.99 76.47 3.06 76.67 3.06 76.67 2.93 76.88 2.93 76.88 2.97 77.08 2.97 77.08 3.02 77.28 3.02 77.28 3.06 77.49 3.06 77.49 2.89 77.69 2.89 77.69 2.93 77.89 2.93 77.89 3.12 78.1 3.12 78.1 3.07 78.3 3.07 78.3 3.11 78.5 3.11 78.5 2.94 78.71 2.94 78.71 3.08 78.91 3.08 78.91 3.03 79.11 3.03 79.11 3.08 79.32 3.08 79.32 3.11 79.52 3.11 79.52 3 79.72 3 79.72 3.18 79.93 3.18 79.93 3.08 80.13 3.08 80.13 3.05 80.33 3.05 80.33 3.01 80.53 3.01 80.53 3.04 80.74 3.04 80.74 3.1 80.94 3.1 80.94 3.16 81.14 3.16 81.14 3.08 81.35 3.08 81.35 3.02 81.55 3.02 81.55 3.14 81.75 3.14 81.75 3.05 81.96 3.05 81.96 3.08 82.16 3.08 82.16 3.06 82.36 3.06 82.36 3.12 82.57 3.12 82.57 3.13 82.77 3.13 82.77 3.11 82.97 3.11 82.97 3.12 83.18 3.12 83.18 3.13 83.38 3.13 83.38 3.06 83.58 3.06 83.58 3.16 83.79 3.16 83.79 3.1 83.99 3.1 83.99 3.09 84.19 3.09 84.19 3.09 84.4 3.09 84.4 3.13 84.6 3.13 84.6 3.07 84.8 3.07 84.8 3.15 85.01 3.15 85.01 3.05 85.21 3.05 85.21 3.12 85.41 3.12 85.41 3.17 85.62 3.17 85.62 3.2 85.82 3.2 85.82 3.24 86.02 3.24 86.02 3.07 86.23 3.07 86.23 3.16 86.43 3.16 86.43 3.23 86.63 3.23 86.63 3.17 86.84 3.17 86.84 3.16 87.04 3.16 87.04 3.2 87.24 3.2 87.24 3.18 87.45 3.18 87.45 3.13 87.65 3.13 87.65 3.25 87.85 3.25 87.85 3.17 88.05 3.17 88.05 3.2 88.26 3.2 88.26 3.12 88.46 3.12 88.46 3.09 88.66 3.09 88.66 3.16 88.87 3.16 88.87 3.2 89.07 3.2 89.07 3.17 89.27 3.17 89.27 3.14 89.48 3.14 89.48 3.19 89.68 3.19 89.68 3.17 89.88 3.17 89.88 3.18 90.09 3.18 90.09 3.32 90.29 3.32 90.29 3.19 90.49 3.19 90.49 3.22 90.7 3.22 90.7 3.32 90.9 3.32 90.9 3.21 91.1 3.21 91.1 3.21 91.31 3.21 91.31 3.18 91.51 3.18 91.51 3.26 91.71 3.26 91.71 3.18 91.92 3.18 91.92 3.3 92.12 3.3 92.12 3.19 92.32 3.19 92.32 3.28 92.53 3.28 92.53 3.21 92.73 3.21 92.73 3.22 92.93 3.22 92.93 3.17 93.14 3.17 93.14 3.23 93.34 3.23 93.34 3.24 93.54 3.24 93.54 3.3 93.75 3.3 93.75 3.3 93.95 3.3 93.95 3.22 94.15 3.22 94.15 3.26 94.36 3.26 94.36 3.23 94.56 3.23 94.56 3.28 94.76 3.28 94.76 3.28 94.97 3.28 94.97 3.33 95.17 3.33 95.17 3.28 95.37 3.28 95.37 3.17 95.57 3.17 95.57 3.19 95.78 3.19 95.78 3.31 95.98 3.31 95.98 3.23 96.18 3.23 96.18 3.32 96.39 3.32 96.39 3.28 96.59 3.28 96.59 3.3 96.79 3.3 96.79 3.39 97 3.39 97 3.27 97.2 3.27 97.2 3.23 97.4 3.23 97.4 3.27 97.61 3.27 97.61 3.29 97.81 3.29 97.81 3.22 98.01 3.22 98.01 3.34 98.22 3.34 98.22 3.23 98.42 3.23 98.42 3.27 98.62 3.27 98.62 3.35 98.83 3.35 98.83 3.29 99.03 3.29 99.03 3.3 99.23 3.3 99.23 3.36 99.44 3.36 99.44 3.27 99.64 3.27 99.64 3.31 99.84 3.31 99.84 3.35 100.05 3.35 100.05 3.38 100.25 3.38 100.25 3.35 100.45 3.35 100.45 3.35 100.66 3.35 100.66 3.39 100.86 3.39 100.86 3.36 101.06 3.36 101.06 3.39 101.27 3.39 101.27 3.35 101.47 3.35 101.47 3.41 101.67 3.41 101.67 3.36 101.88 3.36 101.88 3.42 102.08 3.42 102.08 3.36 102.28 3.36 102.28 3.33 102.49 3.33 102.49 3.38 102.69 3.38 102.69 3.39 102.89 3.39 102.89 3.46 103.09 3.46 103.09 3.35 103.3 3.35 103.3 3.45 103.5 3.45 103.5 3.3 103.7 3.3 103.7 3.45 103.91 3.45 103.91 3.46 104.11 3.46 104.11 3.35 104.31 3.35 104.31 3.42 104.52 3.42 104.52 3.43 104.72 3.43 104.72 3.39 104.92 3.39 104.92 3.43 105.13 3.43 105.13 3.41 105.33 3.41 105.33 3.43 105.53 3.43 105.53 3.47 105.74 3.47 105.74 3.45 105.94 3.45 105.94 3.35 106.14 3.35 106.14 3.52 106.35 3.52 106.35 3.42 106.55 3.42 106.55 3.44 106.75 3.44 106.75 3.45 106.96 3.45 106.96 3.41 107.16 3.41 107.16 3.43 107.36 3.43 107.36 3.48 107.57 3.48 107.57 3.4 107.77 3.4 107.77 3.42 107.97 3.42 107.97 3.43 108.18 3.43 108.18 3.41 108.38 3.41 108.38 3.47 108.58 3.47 108.58 3.48 108.79 3.48 108.79 3.52 108.99 3.52 108.99 3.45 109.19 3.45 109.19 3.45 109.4 3.45 109.4 3.5 109.6 3.5 109.6 3.5 109.8 3.5 109.8 3.51 110.01 3.51 110.01 3.48 110.21 3.48 110.21 3.46 110.41 3.46 110.41 3.45 110.61 3.45 110.61 3.41 110.82 3.41 110.82 3.51 111.02 3.51 111.02 3.47 111.22 3.47 111.22 3.54 111.43 3.54 111.43 3.49 111.63 3.49 111.63 3.5 111.83 3.5 111.83 3.52 112.04 3.52 112.04 3.46 112.24 3.46 112.24 3.55 112.44 3.55 112.44 3.43 112.65 3.43 112.65 3.45 112.85 3.45 112.85 3.5 113.05 3.5 113.05 3.55 113.26 3.55 113.26 3.55 113.46 3.55 113.46 3.5 113.66 3.5 113.66 3.58 113.87 3.58 113.87 3.51 114.07 3.51 114.07 3.52 114.27 3.52 114.27 3.52 114.48 3.52 114.48 3.51 114.68 3.51 114.68 3.58 114.88 3.58 114.88 3.53" class="primitive"/>
            </g>
          </g>
        </g>
      </g>
    </g>
  </g>
  <g class="guide ylabels" font-size="2.82" font-family="'PT Sans Caption','Helvetica Neue','Helvetica',sans-serif" fill="#6C606B" id="img-40422b4a-238">
    <g transform="translate(18.43,59.87)" id="img-40422b4a-239">
      <g class="primitive">
        <text text-anchor="end" dy="0.35em">0</text>
      </g>
    </g>
    <g transform="translate(18.43,39.38)" id="img-40422b4a-240">
      <g class="primitive">
        <text text-anchor="end" dy="0.35em">110</text>
      </g>
    </g>
    <g transform="translate(18.43,18.89)" id="img-40422b4a-241">
      <g class="primitive">
        <text text-anchor="end" dy="0.35em">210</text>
      </g>
    </g>
  </g>
  <g font-size="3.18" font-family="'PT Sans','Helvetica Neue','Helvetica',sans-serif" fill="#202020" stroke="#000000" stroke-opacity="0.000" id="img-40422b4a-242">
    <g transform="translate(4.18,31.76)" id="img-40422b4a-243">
      <g class="primitive">
        <text text-anchor="middle" dy="0.35em" transform="rotate(-90,0, 2)">Counts</text>
      </g>
    </g>
  </g>
  <g font-size="3.18" font-family="'PT Sans','Helvetica Neue','Helvetica',sans-serif" fill="#202020" stroke="#000000" stroke-opacity="0.000" id="img-40422b4a-244">
    <g transform="translate(136.36,0.71)" id="img-40422b4a-245">
      <g class="primitive">
        <text text-anchor="middle" dy="0.6em">III-E K412[0][all]</text>
      </g>
    </g>
  </g>
</g>
<defs>
  <clipPath id="img-40422b4a-4">
    <path d="M19.43,5.66 L 253.29 5.66 253.29 61.87 19.43 61.87" />
  </clipPath>
</defs>
</svg>
