<?xml version="1.0" encoding="UTF-8"?>
<svg xmlns="http://www.w3.org/2000/svg"
     xmlns:xlink="http://www.w3.org/1999/xlink"
     xmlns:gadfly="http://www.gadflyjl.org/ns"
     version="1.2"
     width="254mm" height="76.2mm" viewBox="0 0 254 76.2"
     stroke="none"
     fill="#000000"
     stroke-width="0.3"
     font-size="3.88"
>
<defs>
  <marker id="arrow" markerWidth="15" markerHeight="7" refX="5" refY="3.5" orient="auto" markerUnits="strokeWidth">
    <path d="M0,0 L15,3.5 L0,7 z" stroke="context-stroke" fill="context-stroke"/>
  </marker>
</defs>
<g class="plotroot xscalable yscalable" id="img-2a6fe229-1">
  <g font-size="3.88" font-family="'PT Sans','Helvetica Neue','Helvetica',sans-serif" fill="#564A55" stroke="#000000" stroke-opacity="0.000" id="img-2a6fe229-2">
    <g transform="translate(124.4,64.59)">
      <g class="primitive">
        <text text-anchor="middle" dy="0.6em">Channel</text>
      </g>
    </g>
  </g>
  <g class="guide xlabels" font-size="2.82" font-family="'PT Sans Caption','Helvetica Neue','Helvetica',sans-serif" fill="#6C606B" id="img-2a6fe229-3">
    <g transform="translate(32.21,57.91)">
      <g class="primitive">
        <text text-anchor="middle" dy="0.6em">0</text>
      </g>
    </g>
    <g transform="translate(78.3,57.91)">
      <g class="primitive">
        <text text-anchor="middle" dy="0.6em">200</text>
      </g>
    </g>
    <g transform="translate(124.4,57.91)">
      <g class="primitive">
        <text text-anchor="middle" dy="0.6em">400</text>
      </g>
    </g>
    <g transform="translate(170.49,57.91)">
      <g class="primitive">
        <text text-anchor="middle" dy="0.6em">600</text>
      </g>
    </g>
    <g transform="translate(216.58,57.91)">
      <g class="primitive">
        <text text-anchor="middle" dy="0.6em">800</text>
      </g>
    </g>
  </g>
  <g class="guide colorkey" id="img-2a6fe229-4">
    <g fill="#4C404B" font-size="2.82" font-family="'PT Sans','Helvetica Neue','Helvetica',sans-serif" id="img-2a6fe229-5">
      <g transform="translate(223.21,20.82)" id="img-2a6fe229-6">
        <g class="primitive">
          <text dy="0.35em">Al K-L3 + 1 other</text>
        </g>
      </g>
      <g transform="translate(223.21,24.45)" id="img-2a6fe229-7">
        <g class="primitive">
          <text dy="0.35em">Mg K-L3 + 1 other</text>
        </g>
      </g>
      <g transform="translate(223.21,28.07)" id="img-2a6fe229-8">
        <g class="primitive">
          <text dy="0.35em">Fe L3-M5 + 11 others</text>
        </g>
      </g>
      <g transform="translate(223.21,31.7)" id="img-2a6fe229-9">
        <g class="primitive">
          <text dy="0.35em">Fe K-L3 + 1 other</text>
        </g>
      </g>
      <g transform="translate(223.21,35.33)" id="img-2a6fe229-10">
        <g class="primitive">
          <text dy="0.35em">Fe K-M3 + 3 others</text>
        </g>
      </g>
      <g transform="translate(223.21,38.95)" id="img-2a6fe229-11">
        <g class="primitive">
          <text dy="0.35em">Si K-L3 + 2 others</text>
        </g>
      </g>
      <g transform="translate(223.21,42.58)" id="img-2a6fe229-12">
        <g class="primitive">
          <text dy="0.35em">O K-L3 + 1 other</text>
        </g>
      </g>
      <g transform="translate(223.21,46.21)" id="img-2a6fe229-13">
        <g class="primitive">
          <text dy="0.35em">Ca K-L3 + 3 others</text>
        </g>
      </g>
    </g>
    <g stroke-width="0.3" id="img-2a6fe229-14">
      <g stroke="#FFFFFF" fill-opacity="1" fill="#9C9C9C" id="img-2a6fe229-15">
        <g transform="translate(220.39,46.21)" id="img-2a6fe229-16">
          <circle cx="0" cy="0" r="0.9" class="primitive"/>
        </g>
      </g>
      <g stroke="#FFFFFF" fill-opacity="1" fill="#5C0000" id="img-2a6fe229-17">
        <g transform="translate(220.39,42.58)" id="img-2a6fe229-18">
          <circle cx="0" cy="0" r="0.9" class="primitive"/>
        </g>
      </g>
      <g stroke="#FFFFFF" fill-opacity="1" fill="#00F6FF" id="img-2a6fe229-19">
        <g transform="translate(220.39,38.95)" id="img-2a6fe229-20">
          <circle cx="0" cy="0" r="0.9" class="primitive"/>
        </g>
      </g>
      <g stroke="#FFFFFF" fill-opacity="1" fill="#576969" id="img-2a6fe229-21">
        <g transform="translate(220.39,35.33)" id="img-2a6fe229-22">
          <circle cx="0" cy="0" r="0.9" class="primitive"/>
        </g>
      </g>
      <g stroke="#FFFFFF" fill-opacity="1" fill="#FFD000" id="img-2a6fe229-23">
        <g transform="translate(220.39,31.7)" id="img-2a6fe229-24">
          <circle cx="0" cy="0" r="0.9" class="primitive"/>
        </g>
      </g>
      <g stroke="#FFFFFF" fill-opacity="1" fill="#00008A" id="img-2a6fe229-25">
        <g transform="translate(220.39,28.07)" id="img-2a6fe229-26">
          <circle cx="0" cy="0" r="0.9" class="primitive"/>
        </g>
      </g>
      <g stroke="#FFFFFF" fill-opacity="1" fill="#0071FF" id="img-2a6fe229-27">
        <g transform="translate(220.39,24.45)" id="img-2a6fe229-28">
          <circle cx="0" cy="0" r="0.9" class="primitive"/>
        </g>
      </g>
      <g stroke="#FFFFFF" fill-opacity="1" fill="#00A82D" id="img-2a6fe229-29">
        <g transform="translate(220.39,20.82)" id="img-2a6fe229-30">
          <circle cx="0" cy="0" r="0.9" class="primitive"/>
        </g>
      </g>
    </g>
    <g fill="#362A35" font-size="3.88" font-family="'PT Sans','Helvetica Neue','Helvetica',sans-serif" stroke="#000000" stroke-opacity="0.000" id="img-2a6fe229-31">
      <g transform="translate(219.58,17.51)" id="img-2a6fe229-32">
        <g class="primitive">
          <text dy="-0em">Vector</text>
        </g>
      </g>
    </g>
  </g>
  <g clip-path="url(#img-2a6fe229-33)">
    <g id="img-2a6fe229-34">
      <g pointer-events="visible" stroke-width="0.3" fill="#000000" fill-opacity="0.000" stroke="#000000" stroke-opacity="0.000" class="guide background" id="img-2a6fe229-35">
        <g transform="translate(124.4,30.96)" id="img-2a6fe229-36">
          <path d="M-94.18,-25.96 L 94.18 -25.96 94.18 25.96 -94.18 25.96 z" class="primitive"/>
        </g>
      </g>
      <g class="guide ygridlines xfixed" stroke-dasharray="0.5,0.5" stroke-width="0.2" stroke="#D0D0E0" id="img-2a6fe229-37">
        <g transform="translate(124.4,54.91)" id="img-2a6fe229-38">
          <path fill="none" d="M-94.18,0 L 94.18 0" class="primitive"/>
        </g>
        <g transform="translate(124.4,38.94)" id="img-2a6fe229-39">
          <path fill="none" d="M-94.18,0 L 94.18 0" class="primitive"/>
        </g>
        <g transform="translate(124.4,22.97)" id="img-2a6fe229-40">
          <path fill="none" d="M-94.18,0 L 94.18 0" class="primitive"/>
        </g>
        <g transform="translate(124.4,7)" id="img-2a6fe229-41">
          <path fill="none" d="M-94.18,0 L 94.18 0" class="primitive"/>
        </g>
      </g>
      <g class="guide xgridlines yfixed" stroke-dasharray="0.5,0.5" stroke-width="0.2" stroke="#D0D0E0" id="img-2a6fe229-42">
        <g transform="translate(32.21,30.96)" id="img-2a6fe229-43">
          <path fill="none" d="M0,-25.96 L 0 25.96" class="primitive"/>
        </g>
        <g transform="translate(78.3,30.96)" id="img-2a6fe229-44">
          <path fill="none" d="M0,-25.96 L 0 25.96" class="primitive"/>
        </g>
        <g transform="translate(124.4,30.96)" id="img-2a6fe229-45">
          <path fill="none" d="M0,-25.96 L 0 25.96" class="primitive"/>
        </g>
        <g transform="translate(170.49,30.96)" id="img-2a6fe229-46">
          <path fill="none" d="M0,-25.96 L 0 25.96" class="primitive"/>
        </g>
        <g transform="translate(216.58,30.96)" id="img-2a6fe229-47">
          <path fill="none" d="M0,-25.96 L 0 25.96" class="primitive"/>
        </g>
      </g>
      <g class="plotpanel" id="img-2a6fe229-48">
        <metadata>
          <boundingbox value="30.211666666666673mm 5.0mm 188.36833333333334mm 51.91499999999999mm"/>
          <unitbox value="-8.678279892606286 1.0626108734216843e-6 817.3565597852125 -1.6252217468433687e-6"/>
        </metadata>
        <g stroke-width="0.3" fill="#000000" fill-opacity="0.000" class="geometry" id="img-2a6fe229-49">
          <g class="color_RGB{Float64}(0.611005493077889,0.611005535205774,0.611005495496397)" stroke-dasharray="none" stroke="#9C9C9C" id="img-2a6fe229-50">
            <g transform="translate(124.51,38.94)" id="img-2a6fe229-51">
              <path fill="none" d="M-92.07,0 L -91.84 0 -91.61 0 -91.38 0 -91.15 0 -90.92 0 -90.69 0 -90.46 0 -90.23 0 -89.99 0 -89.76 0 -89.53 0 -89.3 0 -89.07 0 -88.84 0 -88.61 0 -88.38 0 -88.15 0 -87.92 0 -87.69 0 -87.46 0 -87.23 0 -87 0 -86.77 0 -86.54 0 -86.31 0 -86.08 0 -85.85 0 -85.62 0 -85.39 0 -85.16 0 -84.92 0 -84.69 0 -84.46 0 -84.23 0 -84 0 -83.77 0 -83.54 0 -83.31 0 -83.08 0 -82.85 0 -82.62 0 -82.39 0 -82.16 0 -81.93 0 -81.7 0 -81.47 0 -81.24 0 -81.01 0 -80.78 0 -80.55 0 -80.32 0 -80.08 0 -79.85 0 -79.62 0 -79.39 0 -79.16 0 -78.93 0 -78.7 0 -78.47 0 -78.24 0 -78.01 0 -77.78 0 -77.55 0 -77.32 0 -77.09 0 -76.86 0 -76.63 0 -76.4 0 -76.17 0 -75.94 0 -75.71 0 -75.48 0 -75.25 0 -75.01 0 -74.78 0 -74.55 0 -74.32 0 -74.09 0 -73.86 0 -73.63 0 -73.4 0 -73.17 0 -72.94 0 -72.71 0 -72.48 0 -72.25 0 -72.02 0 -71.79 0 -71.56 0 -71.33 0 -71.1 0 -70.87 0 -70.64 0 -70.41 0 -70.18 0 -69.94 0 -69.71 0 -69.48 0 -69.25 0 -69.02 0 -68.79 0 -68.56 0 -68.33 0 -68.1 0 -67.87 0 -67.64 0 -67.41 0 -67.18 0 -66.95 0 -66.72 0 -66.49 0 -66.26 0 -66.03 0 -65.8 0 -65.57 0 -65.34 0 -65.11 0 -64.87 0 -64.64 0 -64.41 0 -64.18 0 -63.95 0 -63.72 0 -63.49 0 -63.26 0 -63.03 0 -62.8 0 -62.57 0 -62.34 0 -62.11 0 -61.88 0 -61.65 0 -61.42 0 -61.19 0 -60.96 0 -60.73 0 -60.5 0 -60.27 0 -60.03 0 -59.8 0 -59.57 0 -59.34 0 -59.11 0 -58.88 0 -58.65 0 -58.42 0 -58.19 0 -57.96 0 -57.73 0 -57.5 0 -57.27 0 -57.04 0 -56.81 0 -56.58 0 -56.35 0 -56.12 0 -55.89 0 -55.66 0 -55.43 0 -55.2 0 -54.96 0 -54.73 0 -54.5 0 -54.27 0 -54.04 0 -53.81 0 -53.58 0 -53.35 0 -53.12 0 -52.89 0 -52.66 0 -52.43 0 -52.2 0 -51.97 0 -51.74 0 -51.51 0 -51.28 0 -51.05 0 -50.82 0 -50.59 0 -50.36 0 -50.13 0 -49.89 0 -49.66 0 -49.43 0 -49.2 0 -48.97 0 -48.74 0 -48.51 0 -48.28 0 -48.05 0 -47.82 0 -47.59 0 -47.36 0 -47.13 0 -46.9 0 -46.67 0 -46.44 0 -46.21 0 -45.98 0 -45.75 0 -45.52 0 -45.29 0 -45.06 0 -44.82 0 -44.59 0 -44.36 0 -44.13 0 -43.9 0 -43.67 0 -43.44 0 -43.21 0 -42.98 0 -42.75 0 -42.52 0 -42.29 0 -42.06 0 -41.83 0 -41.6 0 -41.37 0 -41.14 0 -40.91 0 -40.68 0 -40.45 0 -40.22 0 -39.98 0 -39.75 0 -39.52 0 -39.29 0 -39.06 0 -38.83 0 -38.6 0 -38.37 0 -38.14 0 -37.91 0 -37.68 0 -37.45 0 -37.22 0 -36.99 0 -36.76 0 -36.53 0 -36.3 0 -36.07 0 -35.84 0 -35.61 0 -35.38 0 -35.15 0 -34.91 0 -34.68 0 -34.45 0 -34.22 0 -33.99 0 -33.76 0 -33.53 0 -33.3 0 -33.07 0 -32.84 0 -32.61 0 -32.38 0 -32.15 0 -31.92 0 -31.69 0 -31.46 0 -31.23 0 -31 0 -30.77 0 -30.54 0 -30.31 0 -30.08 0 -29.84 0 -29.61 0 -29.38 0 -29.15 0 -28.92 0 -28.69 0 -28.46 0 -28.23 0 -28 0 -27.77 0 -27.54 0 -27.31 0 -27.08 0 -26.85 0 -26.62 0 -26.39 0 -26.16 0 -25.93 0 -25.7 0 -25.47 0 -25.24 0 -25 0 -24.77 0 -24.54 0 -24.31 0 -24.08 0 -23.85 0 -23.62 0 -23.39 0 -23.16 0 -22.93 0 -22.7 0 -22.47 0 -22.24 0 -22.01 0 -21.78 0 -21.55 0 -21.32 0 -21.09 0 -20.86 0 -20.63 0 -20.4 0 -20.17 0 -19.93 0 -19.7 0 -19.47 0 -19.24 0 -19.01 -0 -18.78 -0 -18.55 -0 -18.32 -0 -18.09 -0 -17.86 -0 -17.63 -0 -17.4 -0 -17.17 -0 -16.94 -0 -16.71 -0 -16.48 -0 -16.25 -0.01 -16.02 -0.01 -15.79 -0.02 -15.56 -0.03 -15.33 -0.04 -15.1 -0.06 -14.86 -0.08 -14.63 -0.11 -14.4 -0.14 -14.17 -0.18 -13.94 -0.22 -13.71 -0.26 -13.48 -0.3 -13.25 -0.33 -13.02 -0.34 -12.79 -0.33 -12.56 -0.29 -12.33 -0.22 -12.1 -0.11 -11.87 0.04 -11.64 0.22 -11.41 0.43 -11.18 0.66 -10.95 0.89 -10.72 1.12 -10.49 1.31 -10.26 1.45 -10.03 1.53 -9.79 1.52 -9.56 1.42 -9.33 1.22 -9.1 0.94 -8.87 0.57 -8.64 0.13 -8.41 -0.34 -8.18 -0.83 -7.95 -1.29 -7.72 -1.7 -7.49 -2.04 -7.26 -2.27 -7.03 -2.38 -6.8 -2.37 -6.57 -2.23 -6.34 -1.98 -6.11 -1.63 -5.88 -1.21 -5.65 -0.75 -5.42 -0.27 -5.19 0.2 -4.95 0.63 -4.72 0.99 -4.49 1.28 -4.26 1.48 -4.03 1.59 -3.8 1.61 -3.57 1.56 -3.34 1.44 -3.11 1.27 -2.88 1.07 -2.65 0.85 -2.42 0.63 -2.19 0.41 -1.96 0.21 -1.73 0.02 -1.5 -0.13 -1.27 -0.26 -1.04 -0.36 -0.81 -0.43 -0.58 -0.48 -0.35 -0.51 -0.12 -0.52 0.12 -0.51 0.35 -0.48 0.58 -0.45 0.81 -0.4 1.04 -0.34 1.27 -0.28 1.5 -0.21 1.73 -0.14 1.96 -0.08 2.19 -0.02 2.42 0.04 2.65 0.09 2.88 0.13 3.11 0.16 3.34 0.17 3.57 0.18 3.8 0.18 4.03 0.17 4.26 0.15 4.49 0.13 4.72 0.1 4.95 0.08 5.19 0.05 5.42 0.03 5.65 0.01 5.88 -0.01 6.11 -0.02 6.34 -0.03 6.57 -0.04 6.8 -0.04 7.03 -0.04 7.26 -0.04 7.49 -0.04 7.72 -0.03 7.95 -0.03 8.18 -0.02 8.41 -0.02 8.64 -0.01 8.87 -0.01 9.1 -0.01 9.33 -0.01 9.56 -0 9.79 -0 10.03 -0 10.26 -0 10.49 -0 10.72 -0 10.95 -0 11.18 -0 11.41 -0 11.64 -0 11.87 -0 12.1 -0 12.33 -0 12.56 -0 12.79 -0 13.02 -0 13.25 0 13.48 0 13.71 0 13.94 0 14.17 0 14.4 0 14.63 0 14.86 0 15.1 0 15.33 0 15.56 0 15.79 0 16.02 0 16.25 0 16.48 0 16.71 0 16.94 0 17.17 0 17.4 0 17.63 0 17.86 0 18.09 0 18.32 0 18.55 0 18.78 0 19.01 0 19.24 0 19.47 0 19.7 0 19.93 0 20.17 0 20.4 0 20.63 0 20.86 0 21.09 0 21.32 0 21.55 0 21.78 0 22.01 0 22.24 0 22.47 0 22.7 0 22.93 0 23.16 0 23.39 0 23.62 0 23.85 0 24.08 0 24.31 0 24.54 0 24.77 0 25 0 25.24 0 25.47 0 25.7 0 25.93 0 26.16 0 26.39 0 26.62 0 26.85 0 27.08 0 27.31 0 27.54 0 27.77 0 28 0 28.23 0 28.46 0 28.69 0 28.92 0 29.15 0 29.38 0 29.61 0 29.84 0 30.08 0 30.31 0 30.54 0 30.77 0 31 0 31.23 0 31.46 0 31.69 0 31.92 0 32.15 0 32.38 0 32.61 0 32.84 0 33.07 0 33.3 0 33.53 0 33.76 0 33.99 0 34.22 0 34.45 0 34.68 0 34.91 0 35.15 0 35.38 0 35.61 0 35.84 0 36.07 0 36.3 0 36.53 0 36.76 0 36.99 0 37.22 0 37.45 0 37.68 0 37.91 0 38.14 0 38.37 0 38.6 0 38.83 0 39.06 0 39.29 0 39.52 0 39.75 0 39.98 0 40.22 0 40.45 0 40.68 0 40.91 0 41.14 0 41.37 0 41.6 0 41.83 0 42.06 0 42.29 0 42.52 0 42.75 0 42.98 0 43.21 0 43.44 0 43.67 0 43.9 0 44.13 0 44.36 0 44.59 0 44.82 0 45.06 0 45.29 0 45.52 0 45.75 0 45.98 0 46.21 0 46.44 0 46.67 0 46.9 0 47.13 0 47.36 0 47.59 0 47.82 0 48.05 0 48.28 0 48.51 0 48.74 0 48.97 0 49.2 0 49.43 0 49.66 0 49.89 0 50.13 0 50.36 0 50.59 0 50.82 0 51.05 0 51.28 0 51.51 0 51.74 0 51.97 0 52.2 0 52.43 0 52.66 0 52.89 0 53.12 0 53.35 0 53.58 0 53.81 0 54.04 0 54.27 0 54.5 0 54.73 0 54.96 0 55.2 0 55.43 0 55.66 0 55.89 0 56.12 0 56.35 0 56.58 0 56.81 0 57.04 0 57.27 0 57.5 0 57.73 0 57.96 0 58.19 0 58.42 0 58.65 0 58.88 0 59.11 0 59.34 0 59.57 0 59.8 0 60.03 0 60.27 0 60.5 0 60.73 0 60.96 0 61.19 0 61.42 0 61.65 0 61.88 0 62.11 0 62.34 0 62.57 0 62.8 0 63.03 0 63.26 0 63.49 0 63.72 0 63.95 0 64.18 0 64.41 0 64.64 0 64.87 0 65.11 0 65.34 0 65.57 0 65.8 0 66.03 0 66.26 0 66.49 0 66.72 0 66.95 0 67.18 0 67.41 0 67.64 0 67.87 0 68.1 0 68.33 0 68.56 0 68.79 0 69.02 0 69.25 0 69.48 0 69.71 0 69.94 0 70.18 0 70.41 0 70.64 0 70.87 0 71.1 0 71.33 0 71.56 0 71.79 0 72.02 0 72.25 0 72.48 0 72.71 0 72.94 0 73.17 0 73.4 0 73.63 0 73.86 0 74.09 0 74.32 0 74.55 0 74.78 0 75.01 0 75.25 0 75.48 0 75.71 0 75.94 0 76.17 0 76.4 0 76.63 0 76.86 0 77.09 0 77.32 0 77.55 0 77.78 0 78.01 0 78.24 0 78.47 0 78.7 0 78.93 0 79.16 0 79.39 0 79.62 0 79.85 0 80.08 0 80.32 0 80.55 0 80.78 0 81.01 0 81.24 0 81.47 0 81.7 0 81.93 0 82.16 0 82.39 0 82.62 0 82.85 0 83.08 0 83.31 0 83.54 0 83.77 0 84 0 84.23 0 84.46 0 84.69 0 84.92 0 85.16 0 85.39 0 85.62 0 85.85 0 86.08 0 86.31 0 86.54 0 86.77 0 87 0 87.23 0 87.46 0 87.69 0 87.92 0 88.15 0 88.38 0 88.61 0 88.84 0 89.07 0 89.3 0 89.53 0 89.76 0 89.99 0 90.23 0 90.46 0 90.69 0 90.92 0 91.15 0 91.38 0 91.61 0 91.84 0 92.07 0" class="primitive"/>
            </g>
          </g>
        </g>
        <g stroke-width="0.3" fill="#000000" fill-opacity="0.000" class="geometry" id="img-2a6fe229-52">
          <g class="color_RGB{Float64}(0.36072361084712,1.8219952808935574e-7,0.0)" stroke-dasharray="none" stroke="#5C0000" id="img-2a6fe229-53">
            <g transform="translate(124.51,38.94)" id="img-2a6fe229-54">
              <path fill="none" d="M-92.07,0 L -91.84 0 -91.61 0 -91.38 0 -91.15 0 -90.92 0 -90.69 0 -90.46 0 -90.23 0 -89.99 0 -89.76 0 -89.53 0 -89.3 0 -89.07 0 -88.84 0 -88.61 0 -88.38 0 -88.15 0 -87.92 0 -87.69 0 -87.46 0 -87.23 -0 -87 -0 -86.77 -0 -86.54 -0 -86.31 -0 -86.08 -0 -85.85 -0.01 -85.62 -0.02 -85.39 -0.05 -85.16 -0.1 -84.92 -0.2 -84.69 -0.35 -84.46 -0.56 -84.23 -0.81 -84 -1.03 -83.77 -1.15 -83.54 -1.06 -83.31 -0.66 -83.08 0.1 -82.85 1.2 -82.62 2.53 -82.39 3.84 -82.16 4.84 -81.93 5.23 -81.7 4.78 -81.47 3.41 -81.24 1.22 -81.01 -1.47 -80.78 -4.2 -80.55 -6.48 -80.32 -7.88 -80.08 -8.11 -79.85 -7.14 -79.62 -5.18 -79.39 -2.59 -79.16 0.15 -78.93 2.59 -78.7 4.38 -78.47 5.34 -78.24 5.44 -78.01 4.83 -77.78 3.74 -77.55 2.43 -77.32 1.12 -77.09 0 -76.86 -0.85 -76.63 -1.39 -76.4 -1.64 -76.17 -1.66 -75.94 -1.51 -75.71 -1.24 -75.48 -0.91 -75.25 -0.56 -75.01 -0.23 -74.78 0.06 -74.55 0.27 -74.32 0.41 -74.09 0.46 -73.86 0.45 -73.63 0.38 -73.4 0.28 -73.17 0.17 -72.94 0.06 -72.71 -0.02 -72.48 -0.07 -72.25 -0.1 -72.02 -0.11 -71.79 -0.1 -71.56 -0.08 -71.33 -0.07 -71.1 -0.05 -70.87 -0.03 -70.64 -0.02 -70.41 -0.01 -70.18 -0.01 -69.94 -0 -69.71 -0 -69.48 -0 -69.25 -0 -69.02 -0 -68.79 -0 -68.56 -0 -68.33 -0 -68.1 -0 -67.87 -0 -67.64 -0 -67.41 -0 -67.18 -0 -66.95 -0 -66.72 0 -66.49 0 -66.26 0 -66.03 0 -65.8 0 -65.57 0 -65.34 0 -65.11 0 -64.87 0 -64.64 0 -64.41 0 -64.18 -0 -63.95 -0 -63.72 -0 -63.49 -0 -63.26 -0 -63.03 -0 -62.8 -0 -62.57 -0 -62.34 -0 -62.11 -0 -61.88 0 -61.65 0 -61.42 0 -61.19 0 -60.96 0 -60.73 0 -60.5 0 -60.27 0 -60.03 0 -59.8 0 -59.57 -0 -59.34 -0 -59.11 -0 -58.88 -0 -58.65 -0 -58.42 -0 -58.19 -0 -57.96 0 -57.73 0 -57.5 0 -57.27 0 -57.04 0 -56.81 0 -56.58 -0 -56.35 -0 -56.12 -0 -55.89 -0 -55.66 -0 -55.43 -0 -55.2 -0 -54.96 -0 -54.73 -0 -54.5 -0 -54.27 -0 -54.04 0 -53.81 0 -53.58 0 -53.35 0 -53.12 0 -52.89 0 -52.66 0 -52.43 0 -52.2 -0 -51.97 -0 -51.74 -0 -51.51 -0 -51.28 -0 -51.05 -0 -50.82 0 -50.59 0 -50.36 0 -50.13 0 -49.89 0 -49.66 0 -49.43 0 -49.2 0 -48.97 0 -48.74 0 -48.51 0 -48.28 0 -48.05 0 -47.82 0 -47.59 0 -47.36 0 -47.13 0 -46.9 0 -46.67 0 -46.44 0 -46.21 0 -45.98 0 -45.75 0 -45.52 0 -45.29 0 -45.06 0 -44.82 0 -44.59 0 -44.36 0 -44.13 0 -43.9 0 -43.67 0 -43.44 0 -43.21 0 -42.98 0 -42.75 0 -42.52 0 -42.29 0 -42.06 0 -41.83 0 -41.6 0 -41.37 0 -41.14 0 -40.91 0 -40.68 0 -40.45 0 -40.22 0 -39.98 0 -39.75 0 -39.52 0 -39.29 0 -39.06 0 -38.83 0 -38.6 0 -38.37 0 -38.14 0 -37.91 0 -37.68 0 -37.45 0 -37.22 0 -36.99 0 -36.76 0 -36.53 0 -36.3 0 -36.07 0 -35.84 0 -35.61 0 -35.38 0 -35.15 0 -34.91 0 -34.68 0 -34.45 0 -34.22 0 -33.99 0 -33.76 0 -33.53 0 -33.3 0 -33.07 0 -32.84 0 -32.61 0 -32.38 0 -32.15 0 -31.92 0 -31.69 0 -31.46 0 -31.23 0 -31 0 -30.77 0 -30.54 0 -30.31 0 -30.08 0 -29.84 0 -29.61 0 -29.38 0 -29.15 0 -28.92 0 -28.69 0 -28.46 0 -28.23 0 -28 0 -27.77 0 -27.54 0 -27.31 0 -27.08 0 -26.85 0 -26.62 0 -26.39 0 -26.16 0 -25.93 0 -25.7 0 -25.47 0 -25.24 0 -25 0 -24.77 0 -24.54 0 -24.31 0 -24.08 0 -23.85 0 -23.62 0 -23.39 0 -23.16 0 -22.93 0 -22.7 0 -22.47 0 -22.24 0 -22.01 0 -21.78 0 -21.55 0 -21.32 0 -21.09 0 -20.86 0 -20.63 0 -20.4 0 -20.17 0 -19.93 0 -19.7 0 -19.47 0 -19.24 0 -19.01 0 -18.78 0 -18.55 0 -18.32 0 -18.09 0 -17.86 0 -17.63 0 -17.4 0 -17.17 0 -16.94 0 -16.71 0 -16.48 0 -16.25 0 -16.02 0 -15.79 0 -15.56 0 -15.33 0 -15.1 0 -14.86 0 -14.63 0 -14.4 0 -14.17 0 -13.94 0 -13.71 0 -13.48 0 -13.25 0 -13.02 0 -12.79 0 -12.56 0 -12.33 0 -12.1 0 -11.87 0 -11.64 0 -11.41 0 -11.18 0 -10.95 0 -10.72 0 -10.49 0 -10.26 0 -10.03 0 -9.79 0 -9.56 0 -9.33 0 -9.1 0 -8.87 0 -8.64 0 -8.41 0 -8.18 0 -7.95 0 -7.72 0 -7.49 0 -7.26 0 -7.03 0 -6.8 0 -6.57 0 -6.34 0 -6.11 0 -5.88 0 -5.65 0 -5.42 0 -5.19 0 -4.95 0 -4.72 0 -4.49 0 -4.26 0 -4.03 0 -3.8 0 -3.57 0 -3.34 0 -3.11 0 -2.88 0 -2.65 0 -2.42 0 -2.19 0 -1.96 0 -1.73 0 -1.5 0 -1.27 0 -1.04 0 -0.81 0 -0.58 0 -0.35 0 -0.12 0 0.12 0 0.35 0 0.58 0 0.81 0 1.04 0 1.27 0 1.5 0 1.73 0 1.96 0 2.19 0 2.42 0 2.65 0 2.88 0 3.11 0 3.34 0 3.57 0 3.8 0 4.03 0 4.26 0 4.49 0 4.72 0 4.95 0 5.19 0 5.42 0 5.65 0 5.88 0 6.11 0 6.34 0 6.57 0 6.8 0 7.03 0 7.26 0 7.49 0 7.72 0 7.95 0 8.18 0 8.41 0 8.64 0 8.87 0 9.1 0 9.33 0 9.56 0 9.79 0 10.03 0 10.26 0 10.49 0 10.72 0 10.95 0 11.18 0 11.41 0 11.64 0 11.87 0 12.1 0 12.33 0 12.56 0 12.79 0 13.02 0 13.25 0 13.48 0 13.71 0 13.94 0 14.17 0 14.4 0 14.63 0 14.86 0 15.1 0 15.33 0 15.56 0 15.79 0 16.02 0 16.25 0 16.48 0 16.71 0 16.94 0 17.17 0 17.4 0 17.63 0 17.86 0 18.09 0 18.32 0 18.55 0 18.78 0 19.01 0 19.24 0 19.47 0 19.7 0 19.93 0 20.17 0 20.4 0 20.63 0 20.86 0 21.09 0 21.32 0 21.55 0 21.78 0 22.01 0 22.24 0 22.47 0 22.7 0 22.93 0 23.16 0 23.39 0 23.62 0 23.85 0 24.08 0 24.31 0 24.54 0 24.77 0 25 0 25.24 0 25.47 0 25.7 0 25.93 0 26.16 0 26.39 0 26.62 0 26.85 0 27.08 0 27.31 0 27.54 0 27.77 0 28 0 28.23 0 28.46 0 28.69 0 28.92 0 29.15 0 29.38 0 29.61 0 29.84 0 30.08 0 30.31 0 30.54 0 30.77 0 31 0 31.23 0 31.46 0 31.69 0 31.92 0 32.15 0 32.38 0 32.61 0 32.84 0 33.07 0 33.3 0 33.53 0 33.76 0 33.99 0 34.22 0 34.45 0 34.68 0 34.91 0 35.15 0 35.38 0 35.61 0 35.84 0 36.07 0 36.3 0 36.53 0 36.76 0 36.99 0 37.22 0 37.45 0 37.68 0 37.91 0 38.14 0 38.37 0 38.6 0 38.83 0 39.06 0 39.29 0 39.52 0 39.75 0 39.98 0 40.22 0 40.45 0 40.68 0 40.91 0 41.14 0 41.37 0 41.6 0 41.83 0 42.06 0 42.29 0 42.52 0 42.75 0 42.98 0 43.21 0 43.44 0 43.67 0 43.9 0 44.13 0 44.36 0 44.59 0 44.82 0 45.06 0 45.29 0 45.52 0 45.75 0 45.98 0 46.21 0 46.44 0 46.67 0 46.9 0 47.13 0 47.36 0 47.59 0 47.82 0 48.05 0 48.28 0 48.51 0 48.74 0 48.97 0 49.2 0 49.43 0 49.66 0 49.89 0 50.13 0 50.36 0 50.59 0 50.82 0 51.05 0 51.28 0 51.51 0 51.74 0 51.97 0 52.2 0 52.43 0 52.66 0 52.89 0 53.12 0 53.35 0 53.58 0 53.81 0 54.04 0 54.27 0 54.5 0 54.73 0 54.96 0 55.2 0 55.43 0 55.66 0 55.89 0 56.12 0 56.35 0 56.58 0 56.81 0 57.04 0 57.27 0 57.5 0 57.73 0 57.96 0 58.19 0 58.42 0 58.65 0 58.88 0 59.11 0 59.34 0 59.57 0 59.8 0 60.03 0 60.27 0 60.5 0 60.73 0 60.96 0 61.19 0 61.42 0 61.65 0 61.88 0 62.11 0 62.34 0 62.57 0 62.8 0 63.03 0 63.26 0 63.49 0 63.72 0 63.95 0 64.18 0 64.41 0 64.64 0 64.87 0 65.11 0 65.34 0 65.57 0 65.8 0 66.03 0 66.26 0 66.49 0 66.72 0 66.95 0 67.18 0 67.41 0 67.64 0 67.87 0 68.1 0 68.33 0 68.56 0 68.79 0 69.02 0 69.25 0 69.48 0 69.71 0 69.94 0 70.18 0 70.41 0 70.64 0 70.87 0 71.1 0 71.33 0 71.56 0 71.79 0 72.02 0 72.25 0 72.48 0 72.71 0 72.94 0 73.17 0 73.4 0 73.63 0 73.86 0 74.09 0 74.32 0 74.55 0 74.78 0 75.01 0 75.25 0 75.48 0 75.71 0 75.94 0 76.17 0 76.4 0 76.63 0 76.86 0 77.09 0 77.32 0 77.55 0 77.78 0 78.01 0 78.24 0 78.47 0 78.7 0 78.93 0 79.16 0 79.39 0 79.62 0 79.85 0 80.08 0 80.32 0 80.55 0 80.78 0 81.01 0 81.24 0 81.47 0 81.7 0 81.93 0 82.16 0 82.39 0 82.62 0 82.85 0 83.08 0 83.31 0 83.54 0 83.77 0 84 0 84.23 0 84.46 0 84.69 0 84.92 0 85.16 0 85.39 0 85.62 0 85.85 0 86.08 0 86.31 0 86.54 0 86.77 0 87 0 87.23 0 87.46 0 87.69 0 87.92 0 88.15 0 88.38 0 88.61 0 88.84 0 89.07 0 89.3 0 89.53 0 89.76 0 89.99 0 90.23 0 90.46 0 90.69 0 90.92 0 91.15 0 91.38 0 91.61 0 91.84 0 92.07 0" class="primitive"/>
            </g>
          </g>
        </g>
        <g stroke-width="0.3" fill="#000000" fill-opacity="0.000" class="geometry" id="img-2a6fe229-55">
          <g class="color_RGB{Float64}(1.129788599842918e-6,0.9656744892062866,0.9999999983677886)" stroke-dasharray="none" stroke="#00F6FF" id="img-2a6fe229-56">
            <g transform="translate(124.51,38.94)" id="img-2a6fe229-57">
              <path fill="none" d="M-92.07,0 L -91.84 0 -91.61 0 -91.38 0 -91.15 0 -90.92 0 -90.69 0 -90.46 0 -90.23 0 -89.99 0 -89.76 0 -89.53 0 -89.3 0 -89.07 0 -88.84 0 -88.61 0 -88.38 0 -88.15 0 -87.92 0 -87.69 0 -87.46 0 -87.23 0 -87 0 -86.77 0 -86.54 0 -86.31 0 -86.08 0 -85.85 0 -85.62 0 -85.39 0 -85.16 0 -84.92 0 -84.69 0 -84.46 0 -84.23 0 -84 0 -83.77 0 -83.54 0 -83.31 0 -83.08 0 -82.85 0 -82.62 0 -82.39 0 -82.16 0 -81.93 0 -81.7 0 -81.47 0 -81.24 0 -81.01 0 -80.78 0 -80.55 0 -80.32 0 -80.08 0 -79.85 0 -79.62 0 -79.39 0 -79.16 0 -78.93 0 -78.7 0 -78.47 0 -78.24 0 -78.01 0 -77.78 0 -77.55 0 -77.32 0 -77.09 0 -76.86 -0 -76.63 -0 -76.4 -0 -76.17 -0 -75.94 -0 -75.71 -0 -75.48 -0 -75.25 -0 -75.01 -0 -74.78 0 -74.55 0 -74.32 0 -74.09 0 -73.86 0 -73.63 0 -73.4 0 -73.17 0 -72.94 0 -72.71 0 -72.48 -0 -72.25 -0 -72.02 -0 -71.79 -0 -71.56 -0 -71.33 -0 -71.1 -0 -70.87 -0 -70.64 -0 -70.41 -0 -70.18 -0 -69.94 -0 -69.71 -0 -69.48 -0 -69.25 -0 -69.02 -0 -68.79 -0 -68.56 -0 -68.33 -0 -68.1 -0 -67.87 -0 -67.64 -0 -67.41 -0 -67.18 -0 -66.95 -0 -66.72 -0 -66.49 0 -66.26 0.01 -66.03 0.01 -65.8 0.01 -65.57 0.01 -65.34 0.01 -65.11 0.01 -64.87 0.01 -64.64 0.01 -64.41 0 -64.18 -0 -63.95 -0.01 -63.72 -0.01 -63.49 -0.01 -63.26 -0.01 -63.03 -0 -62.8 0 -62.57 0.01 -62.34 0.02 -62.11 0.03 -61.88 0.03 -61.65 0.02 -61.42 0.01 -61.19 -0.01 -60.96 -0.04 -60.73 -0.07 -60.5 -0.09 -60.27 -0.11 -60.03 -0.12 -59.8 -0.12 -59.57 -0.1 -59.34 -0.07 -59.11 -0.03 -58.88 0.02 -58.65 0.06 -58.42 0.1 -58.19 0.12 -57.96 0.11 -57.73 0.08 -57.5 0.02 -57.27 -0.06 -57.04 -0.15 -56.81 -0.23 -56.58 -0.29 -56.35 -0.31 -56.12 -0.27 -55.89 -0.17 -55.66 0 -55.43 0.23 -55.2 0.49 -54.96 0.76 -54.73 1 -54.5 1.18 -54.27 1.26 -54.04 1.21 -53.81 1.03 -53.58 0.71 -53.35 0.29 -53.12 -0.2 -52.89 -0.72 -52.66 -1.19 -52.43 -1.58 -52.2 -1.83 -51.97 -1.92 -51.74 -1.84 -51.51 -1.6 -51.28 -1.23 -51.05 -0.78 -50.82 -0.29 -50.59 0.19 -50.36 0.6 -50.13 0.92 -49.89 1.12 -49.66 1.2 -49.43 1.17 -49.2 1.06 -48.97 0.88 -48.74 0.66 -48.51 0.44 -48.28 0.23 -48.05 0.06 -47.82 -0.08 -47.59 -0.17 -47.36 -0.22 -47.13 -0.24 -46.9 -0.23 -46.67 -0.21 -46.44 -0.18 -46.21 -0.15 -45.98 -0.11 -45.75 -0.09 -45.52 -0.06 -45.29 -0.05 -45.06 -0.03 -44.82 -0.02 -44.59 -0.02 -44.36 -0.01 -44.13 -0.01 -43.9 -0.01 -43.67 -0 -43.44 -0 -43.21 -0 -42.98 -0 -42.75 -0 -42.52 -0 -42.29 -0 -42.06 -0 -41.83 -0 -41.6 -0 -41.37 -0 -41.14 -0 -40.91 -0 -40.68 -0 -40.45 0 -40.22 0 -39.98 0 -39.75 0 -39.52 0 -39.29 0 -39.06 0 -38.83 0 -38.6 0 -38.37 0 -38.14 0 -37.91 0 -37.68 0 -37.45 0 -37.22 0 -36.99 0 -36.76 0 -36.53 0 -36.3 0 -36.07 0 -35.84 0 -35.61 0 -35.38 0 -35.15 0 -34.91 0 -34.68 0 -34.45 0 -34.22 0 -33.99 0 -33.76 0 -33.53 0 -33.3 0 -33.07 0 -32.84 0 -32.61 0 -32.38 0 -32.15 0 -31.92 0 -31.69 0 -31.46 0 -31.23 0 -31 0 -30.77 0 -30.54 0 -30.31 0 -30.08 0 -29.84 0 -29.61 0 -29.38 0 -29.15 0 -28.92 0 -28.69 0 -28.46 0 -28.23 0 -28 0 -27.77 0 -27.54 0 -27.31 0 -27.08 0 -26.85 0 -26.62 0 -26.39 0 -26.16 0 -25.93 0 -25.7 0 -25.47 0 -25.24 0 -25 0 -24.77 0 -24.54 0 -24.31 0 -24.08 0 -23.85 0 -23.62 0 -23.39 0 -23.16 0 -22.93 0 -22.7 0 -22.47 0 -22.24 0 -22.01 0 -21.78 0 -21.55 0 -21.32 0 -21.09 0 -20.86 0 -20.63 0 -20.4 0 -20.17 0 -19.93 0 -19.7 0 -19.47 0 -19.24 0 -19.01 0 -18.78 0 -18.55 0 -18.32 0 -18.09 0 -17.86 0 -17.63 0 -17.4 0 -17.17 0 -16.94 0 -16.71 0 -16.48 0 -16.25 0 -16.02 0 -15.79 0 -15.56 0 -15.33 0 -15.1 0 -14.86 0 -14.63 0 -14.4 0 -14.17 0 -13.94 0 -13.71 0 -13.48 0 -13.25 0 -13.02 0 -12.79 0 -12.56 0 -12.33 0 -12.1 0 -11.87 0 -11.64 0 -11.41 0 -11.18 0 -10.95 0 -10.72 0 -10.49 0 -10.26 0 -10.03 0 -9.79 0 -9.56 0 -9.33 0 -9.1 0 -8.87 0 -8.64 0 -8.41 0 -8.18 0 -7.95 0 -7.72 0 -7.49 0 -7.26 0 -7.03 0 -6.8 0 -6.57 0 -6.34 0 -6.11 0 -5.88 0 -5.65 0 -5.42 0 -5.19 0 -4.95 0 -4.72 0 -4.49 0 -4.26 0 -4.03 0 -3.8 0 -3.57 0 -3.34 0 -3.11 0 -2.88 0 -2.65 0 -2.42 0 -2.19 0 -1.96 0 -1.73 0 -1.5 0 -1.27 0 -1.04 0 -0.81 0 -0.58 0 -0.35 0 -0.12 0 0.12 0 0.35 0 0.58 0 0.81 0 1.04 0 1.27 0 1.5 0 1.73 0 1.96 0 2.19 0 2.42 0 2.65 0 2.88 0 3.11 0 3.34 0 3.57 0 3.8 0 4.03 0 4.26 0 4.49 0 4.72 0 4.95 0 5.19 0 5.42 0 5.65 0 5.88 0 6.11 0 6.34 0 6.57 0 6.8 0 7.03 0 7.26 0 7.49 0 7.72 0 7.95 0 8.18 0 8.41 0 8.64 0 8.87 0 9.1 0 9.33 0 9.56 0 9.79 0 10.03 0 10.26 0 10.49 0 10.72 0 10.95 0 11.18 0 11.41 0 11.64 0 11.87 0 12.1 0 12.33 0 12.56 0 12.79 0 13.02 0 13.25 0 13.48 0 13.71 0 13.94 0 14.17 0 14.4 0 14.63 0 14.86 0 15.1 0 15.33 0 15.56 0 15.79 0 16.02 0 16.25 0 16.48 0 16.71 0 16.94 0 17.17 0 17.4 0 17.63 0 17.86 0 18.09 0 18.32 0 18.55 0 18.78 0 19.01 0 19.24 0 19.47 0 19.7 0 19.93 0 20.17 0 20.4 0 20.63 0 20.86 0 21.09 0 21.32 0 21.55 0 21.78 0 22.01 0 22.24 0 22.47 0 22.7 0 22.93 0 23.16 0 23.39 0 23.62 0 23.85 0 24.08 0 24.31 0 24.54 0 24.77 0 25 0 25.24 0 25.47 0 25.7 0 25.93 0 26.16 0 26.39 0 26.62 0 26.85 0 27.08 0 27.31 0 27.54 0 27.77 0 28 0 28.23 0 28.46 0 28.69 0 28.92 0 29.15 0 29.38 0 29.61 0 29.84 0 30.08 0 30.31 0 30.54 0 30.77 0 31 0 31.23 0 31.46 0 31.69 0 31.92 0 32.15 0 32.38 0 32.61 0 32.84 0 33.07 0 33.3 0 33.53 0 33.76 0 33.99 0 34.22 0 34.45 0 34.68 0 34.91 0 35.15 0 35.38 0 35.61 0 35.84 0 36.07 0 36.3 0 36.53 0 36.76 0 36.99 0 37.22 0 37.45 0 37.68 0 37.91 0 38.14 0 38.37 0 38.6 0 38.83 0 39.06 0 39.29 0 39.52 0 39.75 0 39.98 0 40.22 0 40.45 0 40.68 0 40.91 0 41.14 0 41.37 0 41.6 0 41.83 0 42.06 0 42.29 0 42.52 0 42.75 0 42.98 0 43.21 0 43.44 0 43.67 0 43.9 0 44.13 0 44.36 0 44.59 0 44.82 0 45.06 0 45.29 0 45.52 0 45.75 0 45.98 0 46.21 0 46.44 0 46.67 0 46.9 0 47.13 0 47.36 0 47.59 0 47.82 0 48.05 0 48.28 0 48.51 0 48.74 0 48.97 0 49.2 0 49.43 0 49.66 0 49.89 0 50.13 0 50.36 0 50.59 0 50.82 0 51.05 0 51.28 0 51.51 0 51.74 0 51.97 0 52.2 0 52.43 0 52.66 0 52.89 0 53.12 0 53.35 0 53.58 0 53.81 0 54.04 0 54.27 0 54.5 0 54.73 0 54.96 0 55.2 0 55.43 0 55.66 0 55.89 0 56.12 0 56.35 0 56.58 0 56.81 0 57.04 0 57.27 0 57.5 0 57.73 0 57.96 0 58.19 0 58.42 0 58.65 0 58.88 0 59.11 0 59.34 0 59.57 0 59.8 0 60.03 0 60.27 0 60.5 0 60.73 0 60.96 0 61.19 0 61.42 0 61.65 0 61.88 0 62.11 0 62.34 0 62.57 0 62.8 0 63.03 0 63.26 0 63.49 0 63.72 0 63.95 0 64.18 0 64.41 0 64.64 0 64.87 0 65.11 0 65.34 0 65.57 0 65.8 0 66.03 0 66.26 0 66.49 0 66.72 0 66.95 0 67.18 0 67.41 0 67.64 0 67.87 0 68.1 0 68.33 0 68.56 0 68.79 0 69.02 0 69.25 0 69.48 0 69.71 0 69.94 0 70.18 0 70.41 0 70.64 0 70.87 0 71.1 0 71.33 0 71.56 0 71.79 0 72.02 0 72.25 0 72.48 0 72.71 0 72.94 0 73.17 0 73.4 0 73.63 0 73.86 0 74.09 0 74.32 0 74.55 0 74.78 0 75.01 0 75.25 0 75.48 0 75.71 0 75.94 0 76.17 0 76.4 0 76.63 0 76.86 0 77.09 0 77.32 0 77.55 0 77.78 0 78.01 0 78.24 0 78.47 0 78.7 0 78.93 0 79.16 0 79.39 0 79.62 0 79.85 0 80.08 0 80.32 0 80.55 0 80.78 0 81.01 0 81.24 0 81.47 0 81.7 0 81.93 0 82.16 0 82.39 0 82.62 0 82.85 0 83.08 0 83.31 0 83.54 0 83.77 0 84 0 84.23 0 84.46 0 84.69 0 84.92 0 85.16 0 85.39 0 85.62 0 85.85 0 86.08 0 86.31 0 86.54 0 86.77 0 87 0 87.23 0 87.46 0 87.69 0 87.92 0 88.15 0 88.38 0 88.61 0 88.84 0 89.07 0 89.3 0 89.53 0 89.76 0 89.99 0 90.23 0 90.46 0 90.69 0 90.92 0 91.15 0 91.38 0 91.61 0 91.84 0 92.07 0" class="primitive"/>
            </g>
          </g>
        </g>
        <g stroke-width="0.3" fill="#000000" fill-opacity="0.000" class="geometry" id="img-2a6fe229-58">
          <g class="color_RGB{Float64}(0.33966099277017664,0.4106138270481249,0.4101742974306824)" stroke-dasharray="none" stroke="#576969" id="img-2a6fe229-59">
            <g transform="translate(124.51,38.94)" id="img-2a6fe229-60">
              <path fill="none" d="M-92.07,0 L -91.84 0 -91.61 0 -91.38 0 -91.15 0 -90.92 0 -90.69 0 -90.46 0 -90.23 0 -89.99 0 -89.76 0 -89.53 0 -89.3 0 -89.07 0 -88.84 0 -88.61 0 -88.38 0 -88.15 0 -87.92 0 -87.69 0 -87.46 0 -87.23 0 -87 0 -86.77 0 -86.54 0 -86.31 0 -86.08 0 -85.85 0 -85.62 0 -85.39 0 -85.16 0 -84.92 0 -84.69 0 -84.46 0 -84.23 0 -84 0 -83.77 0 -83.54 0 -83.31 0 -83.08 0 -82.85 0 -82.62 0 -82.39 0 -82.16 0 -81.93 0 -81.7 0 -81.47 0 -81.24 0 -81.01 0 -80.78 0 -80.55 0 -80.32 0 -80.08 0 -79.85 0 -79.62 0 -79.39 0 -79.16 0 -78.93 0 -78.7 0 -78.47 0 -78.24 0 -78.01 0 -77.78 0 -77.55 0 -77.32 0 -77.09 0 -76.86 0 -76.63 0 -76.4 0 -76.17 0 -75.94 0 -75.71 0 -75.48 0 -75.25 0 -75.01 0 -74.78 0 -74.55 0 -74.32 0 -74.09 0 -73.86 0 -73.63 0 -73.4 0 -73.17 0 -72.94 0 -72.71 0 -72.48 0 -72.25 0 -72.02 0 -71.79 0 -71.56 0 -71.33 0 -71.1 0 -70.87 0 -70.64 0 -70.41 0 -70.18 0 -69.94 0 -69.71 0 -69.48 0 -69.25 0 -69.02 0 -68.79 0 -68.56 0 -68.33 0 -68.1 0 -67.87 0 -67.64 0 -67.41 0 -67.18 0 -66.95 0 -66.72 0 -66.49 0 -66.26 0 -66.03 0 -65.8 0 -65.57 0 -65.34 0 -65.11 0 -64.87 0 -64.64 0 -64.41 0 -64.18 0 -63.95 0 -63.72 0 -63.49 0 -63.26 0 -63.03 0 -62.8 0 -62.57 0 -62.34 0 -62.11 0 -61.88 0 -61.65 0 -61.42 0 -61.19 0 -60.96 0 -60.73 0 -60.5 0 -60.27 0 -60.03 0 -59.8 0 -59.57 0 -59.34 0 -59.11 0 -58.88 0 -58.65 0 -58.42 0 -58.19 0 -57.96 0 -57.73 0 -57.5 0 -57.27 0 -57.04 0 -56.81 0 -56.58 0 -56.35 0 -56.12 0 -55.89 0 -55.66 0 -55.43 0 -55.2 0 -54.96 0 -54.73 0 -54.5 0 -54.27 0 -54.04 0 -53.81 0 -53.58 0 -53.35 0 -53.12 0 -52.89 0 -52.66 0 -52.43 0 -52.2 0 -51.97 0 -51.74 0 -51.51 0 -51.28 0 -51.05 0 -50.82 0 -50.59 0 -50.36 0 -50.13 0 -49.89 0 -49.66 0 -49.43 0 -49.2 0 -48.97 0 -48.74 0 -48.51 0 -48.28 0 -48.05 0 -47.82 0 -47.59 0 -47.36 0 -47.13 0 -46.9 0 -46.67 0 -46.44 0 -46.21 0 -45.98 0 -45.75 0 -45.52 0 -45.29 0 -45.06 0 -44.82 0 -44.59 0 -44.36 0 -44.13 0 -43.9 0 -43.67 0 -43.44 0 -43.21 0 -42.98 0 -42.75 0 -42.52 0 -42.29 0 -42.06 0 -41.83 0 -41.6 0 -41.37 0 -41.14 0 -40.91 0 -40.68 0 -40.45 0 -40.22 0 -39.98 0 -39.75 0 -39.52 0 -39.29 0 -39.06 0 -38.83 0 -38.6 0 -38.37 0 -38.14 0 -37.91 0 -37.68 0 -37.45 0 -37.22 0 -36.99 0 -36.76 0 -36.53 0 -36.3 0 -36.07 0 -35.84 0 -35.61 0 -35.38 0 -35.15 0 -34.91 0 -34.68 0 -34.45 0 -34.22 0 -33.99 0 -33.76 0 -33.53 0 -33.3 0 -33.07 0 -32.84 0 -32.61 0 -32.38 0 -32.15 0 -31.92 0 -31.69 0 -31.46 0 -31.23 0 -31 0 -30.77 0 -30.54 0 -30.31 0 -30.08 0 -29.84 0 -29.61 0 -29.38 0 -29.15 0 -28.92 0 -28.69 0 -28.46 0 -28.23 0 -28 0 -27.77 0 -27.54 0 -27.31 0 -27.08 0 -26.85 0 -26.62 0 -26.39 0 -26.16 0 -25.93 0 -25.7 0 -25.47 0 -25.24 0 -25 0 -24.77 0 -24.54 0 -24.31 0 -24.08 0 -23.85 0 -23.62 0 -23.39 0 -23.16 0 -22.93 0 -22.7 0 -22.47 0 -22.24 0 -22.01 0 -21.78 0 -21.55 0 -21.32 0 -21.09 0 -20.86 0 -20.63 0 -20.4 0 -20.17 0 -19.93 0 -19.7 0 -19.47 0 -19.24 0 -19.01 0 -18.78 0 -18.55 0 -18.32 0 -18.09 0 -17.86 0 -17.63 0 -17.4 0 -17.17 0 -16.94 0 -16.71 0 -16.48 0 -16.25 0 -16.02 0 -15.79 0 -15.56 0 -15.33 0 -15.1 0 -14.86 0 -14.63 0 -14.4 0 -14.17 0 -13.94 0 -13.71 0 -13.48 0 -13.25 0 -13.02 0 -12.79 0 -12.56 0 -12.33 0 -12.1 0 -11.87 0 -11.64 0 -11.41 0 -11.18 0 -10.95 0 -10.72 0 -10.49 0 -10.26 0 -10.03 0 -9.79 0 -9.56 0 -9.33 0 -9.1 0 -8.87 0 -8.64 0 -8.41 0 -8.18 0 -7.95 0 -7.72 0 -7.49 0 -7.26 0 -7.03 0 -6.8 0 -6.57 0 -6.34 0 -6.11 0 -5.88 0 -5.65 0 -5.42 0 -5.19 0 -4.95 0 -4.72 0 -4.49 0 -4.26 0 -4.03 0 -3.8 0 -3.57 0 -3.34 0 -3.11 0 -2.88 0 -2.65 0 -2.42 0 -2.19 0 -1.96 0 -1.73 0 -1.5 0 -1.27 0 -1.04 0 -0.81 0 -0.58 0 -0.35 0 -0.12 0 0.12 0 0.35 0 0.58 0 0.81 0 1.04 0 1.27 0 1.5 0 1.73 0 1.96 0 2.19 0 2.42 0 2.65 0 2.88 0 3.11 0 3.34 0 3.57 0 3.8 0 4.03 0 4.26 0 4.49 0 4.72 0 4.95 0 5.19 0 5.42 0 5.65 0 5.88 0 6.11 0 6.34 0 6.57 0 6.8 0 7.03 0 7.26 0 7.49 0 7.72 0 7.95 0 8.18 0 8.41 0 8.64 0 8.87 0 9.1 0 9.33 0 9.56 0 9.79 0 10.03 0 10.26 0 10.49 0 10.72 0 10.95 0 11.18 0 11.41 0 11.64 0 11.87 0 12.1 0 12.33 0 12.56 0 12.79 0 13.02 0 13.25 0 13.48 0 13.71 0 13.94 0 14.17 0 14.4 0 14.63 0 14.86 0 15.1 0 15.33 0 15.56 0 15.79 0 16.02 0 16.25 0 16.48 0 16.71 0 16.94 0 17.17 0 17.4 0 17.63 0 17.86 0 18.09 0 18.32 0 18.55 0 18.78 0 19.01 0 19.24 0 19.47 0 19.7 0 19.93 0 20.17 0 20.4 0 20.63 0 20.86 0 21.09 0 21.32 0 21.55 0 21.78 0 22.01 0 22.24 0 22.47 0 22.7 0 22.93 0 23.16 0 23.39 0 23.62 0 23.85 0 24.08 0 24.31 0 24.54 0 24.77 0 25 0 25.24 0 25.47 0 25.7 0 25.93 0 26.16 0 26.39 0 26.62 0 26.85 0 27.08 0 27.31 0 27.54 0 27.77 0 28 0 28.23 0 28.46 0 28.69 0 28.92 0 29.15 0 29.38 0 29.61 0 29.84 0 30.08 0 30.31 0 30.54 0 30.77 0 31 0 31.23 0 31.46 0 31.69 0 31.92 0 32.15 0 32.38 0 32.61 0 32.84 0 33.07 0 33.3 0 33.53 0 33.76 0 33.99 0 34.22 0 34.45 0 34.68 0 34.91 0 35.15 0 35.38 0 35.61 0 35.84 0 36.07 0 36.3 0 36.53 0 36.76 0 36.99 0 37.22 0 37.45 0 37.68 0 37.91 0 38.14 0 38.37 0 38.6 0 38.83 0 39.06 0 39.29 0 39.52 0 39.75 0 39.98 0 40.22 0 40.45 0 40.68 0 40.91 0 41.14 0 41.37 0 41.6 0 41.83 0 42.06 0 42.29 0 42.52 0 42.75 0 42.98 0 43.21 0 43.44 0 43.67 0 43.9 0 44.13 0 44.36 0 44.59 0 44.82 0 45.06 0 45.29 0 45.52 0 45.75 0 45.98 0 46.21 0 46.44 0 46.67 0 46.9 0 47.13 0 47.36 0 47.59 0 47.82 0 48.05 0 48.28 0 48.51 0 48.74 0 48.97 0 49.2 -0 49.43 -0 49.66 -0 49.89 -0 50.13 -0 50.36 -0 50.59 -0 50.82 -0 51.05 -0 51.28 -0 51.51 -0 51.74 -0 51.97 -0 52.2 -0 52.43 -0 52.66 -0 52.89 -0 53.12 -0 53.35 -0 53.58 0 53.81 0 54.04 0 54.27 0 54.5 0.01 54.73 0.01 54.96 0.01 55.2 0.01 55.43 0.01 55.66 0.01 55.89 0.01 56.12 0.01 56.35 0 56.58 0 56.81 0 57.04 -0 57.27 -0.01 57.5 -0.01 57.73 -0.02 57.96 -0.03 58.19 -0.05 58.42 -0.07 58.65 -0.1 58.88 -0.14 59.11 -0.19 59.34 -0.26 59.57 -0.35 59.8 -0.46 60.03 -0.6 60.27 -0.76 60.5 -0.95 60.73 -1.17 60.96 -1.41 61.19 -1.66 61.42 -1.92 61.65 -2.18 61.88 -2.41 62.11 -2.6 62.34 -2.74 62.57 -2.79 62.8 -2.73 63.03 -2.54 63.26 -2.2 63.49 -1.68 63.72 -0.99 63.95 -0.12 64.18 0.93 64.41 2.15 64.64 3.5 64.87 4.94 65.11 6.44 65.34 7.93 65.57 9.35 65.8 10.62 66.03 11.68 66.26 12.45 66.49 12.88 66.72 12.9 66.95 12.47 67.18 11.58 67.41 10.21 67.64 8.39 67.87 6.14 68.1 3.54 68.33 0.66 68.56 -2.4 68.79 -5.53 69.02 -8.62 69.25 -11.55 69.48 -14.21 69.71 -16.48 69.94 -18.28 70.18 -19.52 70.41 -20.16 70.64 -20.17 70.87 -19.56 71.1 -18.34 71.33 -16.57 71.56 -14.32 71.79 -11.68 72.02 -8.77 72.25 -5.7 72.48 -2.57 72.71 0.49 72.94 3.39 73.17 6.01 73.4 8.3 73.63 10.18 73.86 11.62 74.09 12.59 74.32 13.1 74.55 13.17 74.78 12.84 75.01 12.15 75.25 11.17 75.48 9.96 75.71 8.59 75.94 7.12 76.17 5.63 76.4 4.16 76.63 2.76 76.86 1.49 77.09 0.35 77.32 -0.62 77.55 -1.41 77.78 -2.02 78.01 -2.47 78.24 -2.75 78.47 -2.9 78.7 -2.93 78.93 -2.86 79.16 -2.71 79.39 -2.5 79.62 -2.27 79.85 -2.01 80.08 -1.74 80.32 -1.49 80.55 -1.25 80.78 -1.02 81.01 -0.83 81.24 -0.66 81.47 -0.51 81.7 -0.39 81.93 -0.29 82.16 -0.22 82.39 -0.16 82.62 -0.11 82.85 -0.08 83.08 -0.05 83.31 -0.03 83.54 -0.02 83.77 -0.01 84 -0.01 84.23 -0 84.46 -0 84.69 -0 84.92 -0 85.16 -0 85.39 -0 85.62 0 85.85 0 86.08 0 86.31 0 86.54 0 86.77 0 87 0 87.23 0 87.46 0 87.69 0 87.92 0 88.15 0 88.38 0 88.61 0 88.84 0 89.07 0 89.3 0 89.53 0 89.76 0 89.99 0 90.23 0 90.46 0 90.69 0 90.92 0 91.15 0 91.38 0 91.61 0 91.84 0 92.07 0" class="primitive"/>
            </g>
          </g>
        </g>
        <g stroke-width="0.3" fill="#000000" fill-opacity="0.000" class="geometry" id="img-2a6fe229-61">
          <g class="color_RGB{Float64}(0.9999999299185004,0.8169524107513291,0.0)" stroke-dasharray="none" stroke="#FFD000" id="img-2a6fe229-62">
            <g transform="translate(124.51,38.94)" id="img-2a6fe229-63">
              <path fill="none" d="M-92.07,0 L -91.84 0 -91.61 0 -91.38 0 -91.15 0 -90.92 0 -90.69 0 -90.46 0 -90.23 0 -89.99 0 -89.76 0 -89.53 0 -89.3 0 -89.07 0 -88.84 0 -88.61 0 -88.38 0 -88.15 0 -87.92 0 -87.69 0 -87.46 0 -87.23 0 -87 0 -86.77 0 -86.54 0 -86.31 0 -86.08 0 -85.85 0 -85.62 0 -85.39 0 -85.16 0 -84.92 0 -84.69 0 -84.46 0 -84.23 0 -84 0 -83.77 0 -83.54 0 -83.31 0 -83.08 0 -82.85 0 -82.62 0 -82.39 0 -82.16 0 -81.93 0 -81.7 0 -81.47 0 -81.24 0 -81.01 0 -80.78 0 -80.55 0 -80.32 0 -80.08 0 -79.85 0 -79.62 0 -79.39 0 -79.16 0 -78.93 0 -78.7 0 -78.47 0 -78.24 0 -78.01 0 -77.78 0 -77.55 0 -77.32 0 -77.09 0 -76.86 0 -76.63 0 -76.4 0 -76.17 0 -75.94 0 -75.71 0 -75.48 0 -75.25 0 -75.01 0 -74.78 0 -74.55 0 -74.32 0 -74.09 0 -73.86 0 -73.63 0 -73.4 0 -73.17 0 -72.94 0 -72.71 0 -72.48 0 -72.25 0 -72.02 0 -71.79 0 -71.56 0 -71.33 0 -71.1 0 -70.87 0 -70.64 0 -70.41 0 -70.18 0 -69.94 0 -69.71 0 -69.48 0 -69.25 0 -69.02 0 -68.79 0 -68.56 0 -68.33 0 -68.1 0 -67.87 0 -67.64 0 -67.41 0 -67.18 0 -66.95 0 -66.72 0 -66.49 0 -66.26 0 -66.03 0 -65.8 0 -65.57 0 -65.34 0 -65.11 0 -64.87 0 -64.64 0 -64.41 0 -64.18 0 -63.95 0 -63.72 0 -63.49 0 -63.26 0 -63.03 0 -62.8 0 -62.57 0 -62.34 0 -62.11 0 -61.88 0 -61.65 0 -61.42 0 -61.19 0 -60.96 0 -60.73 0 -60.5 0 -60.27 0 -60.03 0 -59.8 0 -59.57 0 -59.34 0 -59.11 0 -58.88 0 -58.65 0 -58.42 0 -58.19 0 -57.96 0 -57.73 0 -57.5 0 -57.27 0 -57.04 0 -56.81 0 -56.58 0 -56.35 0 -56.12 0 -55.89 0 -55.66 0 -55.43 0 -55.2 0 -54.96 0 -54.73 0 -54.5 0 -54.27 0 -54.04 0 -53.81 0 -53.58 0 -53.35 0 -53.12 0 -52.89 0 -52.66 0 -52.43 0 -52.2 0 -51.97 0 -51.74 0 -51.51 0 -51.28 0 -51.05 0 -50.82 0 -50.59 0 -50.36 0 -50.13 0 -49.89 0 -49.66 0 -49.43 0 -49.2 0 -48.97 0 -48.74 0 -48.51 0 -48.28 0 -48.05 0 -47.82 0 -47.59 0 -47.36 0 -47.13 0 -46.9 0 -46.67 0 -46.44 0 -46.21 0 -45.98 0 -45.75 0 -45.52 0 -45.29 0 -45.06 0 -44.82 0 -44.59 0 -44.36 0 -44.13 0 -43.9 0 -43.67 0 -43.44 0 -43.21 0 -42.98 0 -42.75 0 -42.52 0 -42.29 0 -42.06 0 -41.83 0 -41.6 0 -41.37 0 -41.14 0 -40.91 0 -40.68 0 -40.45 0 -40.22 0 -39.98 0 -39.75 0 -39.52 0 -39.29 0 -39.06 0 -38.83 0 -38.6 0 -38.37 0 -38.14 0 -37.91 0 -37.68 0 -37.45 0 -37.22 0 -36.99 0 -36.76 0 -36.53 0 -36.3 0 -36.07 0 -35.84 0 -35.61 0 -35.38 0 -35.15 0 -34.91 0 -34.68 0 -34.45 0 -34.22 0 -33.99 0 -33.76 0 -33.53 0 -33.3 0 -33.07 0 -32.84 0 -32.61 0 -32.38 0 -32.15 0 -31.92 0 -31.69 0 -31.46 0 -31.23 0 -31 0 -30.77 0 -30.54 0 -30.31 0 -30.08 0 -29.84 0 -29.61 0 -29.38 0 -29.15 0 -28.92 0 -28.69 0 -28.46 0 -28.23 0 -28 0 -27.77 0 -27.54 0 -27.31 0 -27.08 0 -26.85 0 -26.62 0 -26.39 0 -26.16 0 -25.93 0 -25.7 0 -25.47 0 -25.24 0 -25 0 -24.77 0 -24.54 0 -24.31 0 -24.08 0 -23.85 0 -23.62 0 -23.39 0 -23.16 0 -22.93 0 -22.7 0 -22.47 0 -22.24 0 -22.01 0 -21.78 0 -21.55 0 -21.32 0 -21.09 0 -20.86 0 -20.63 0 -20.4 0 -20.17 0 -19.93 0 -19.7 0 -19.47 0 -19.24 0 -19.01 0 -18.78 0 -18.55 0 -18.32 0 -18.09 0 -17.86 0 -17.63 0 -17.4 0 -17.17 0 -16.94 0 -16.71 0 -16.48 0 -16.25 0 -16.02 0 -15.79 0 -15.56 0 -15.33 0 -15.1 0 -14.86 0 -14.63 0 -14.4 0 -14.17 0 -13.94 0 -13.71 0 -13.48 0 -13.25 0 -13.02 0 -12.79 0 -12.56 0 -12.33 0 -12.1 0 -11.87 0 -11.64 0 -11.41 0 -11.18 0 -10.95 0 -10.72 0 -10.49 0 -10.26 0 -10.03 0 -9.79 0 -9.56 0 -9.33 0 -9.1 0 -8.87 0 -8.64 0 -8.41 0 -8.18 0 -7.95 0 -7.72 0 -7.49 0 -7.26 0 -7.03 0 -6.8 0 -6.57 0 -6.34 0 -6.11 0 -5.88 0 -5.65 0 -5.42 0 -5.19 0 -4.95 0 -4.72 0 -4.49 0 -4.26 0 -4.03 0 -3.8 0 -3.57 0 -3.34 0 -3.11 0 -2.88 0 -2.65 0 -2.42 0 -2.19 0 -1.96 0 -1.73 0 -1.5 0 -1.27 0 -1.04 0 -0.81 0 -0.58 0 -0.35 0 -0.12 0 0.12 0 0.35 0 0.58 0 0.81 0 1.04 0 1.27 0 1.5 0 1.73 0 1.96 0 2.19 0 2.42 0 2.65 0 2.88 0 3.11 0 3.34 0 3.57 0 3.8 0 4.03 0 4.26 0 4.49 0 4.72 0 4.95 0 5.19 0 5.42 0 5.65 0 5.88 0 6.11 0 6.34 0 6.57 0 6.8 0 7.03 0 7.26 0 7.49 0 7.72 0 7.95 0 8.18 0 8.41 0 8.64 0 8.87 0 9.1 0 9.33 0 9.56 0 9.79 0 10.03 0 10.26 0 10.49 0 10.72 0 10.95 0 11.18 0 11.41 0 11.64 0 11.87 0 12.1 0 12.33 0 12.56 0 12.79 0 13.02 0 13.25 0 13.48 0 13.71 0 13.94 0 14.17 0 14.4 0 14.63 0 14.86 0 15.1 0 15.33 0 15.56 0 15.79 0 16.02 0 16.25 0 16.48 0 16.71 0 16.94 0 17.17 0 17.4 0 17.63 0 17.86 0 18.09 0 18.32 0 18.55 0 18.78 0 19.01 0 19.24 0 19.47 0 19.7 0 19.93 0 20.17 0 20.4 0 20.63 0 20.86 0 21.09 0 21.32 0 21.55 0 21.78 0 22.01 0 22.24 0 22.47 0 22.7 0 22.93 0 23.16 0 23.39 0 23.62 0 23.85 0 24.08 0 24.31 0 24.54 0 24.77 0 25 0 25.24 0 25.47 0 25.7 0 25.93 0 26.16 0 26.39 0 26.62 0 26.85 0 27.08 0 27.31 0 27.54 0 27.77 0 28 0 28.23 0 28.46 0 28.69 0 28.92 0 29.15 0 29.38 0 29.61 0 29.84 0 30.08 0 30.31 0 30.54 0 30.77 0 31 0 31.23 0 31.46 0 31.69 0 31.92 0 32.15 0 32.38 0 32.61 0 32.84 0 33.07 0 33.3 0 33.53 0 33.76 0 33.99 0 34.22 0 34.45 0 34.68 0 34.91 0 35.15 0 35.38 0 35.61 0 35.84 0 36.07 0 36.3 0 36.53 0 36.76 0 36.99 0 37.22 0 37.45 0 37.68 0 37.91 0 38.14 0 38.37 0 38.6 0 38.83 0 39.06 0 39.29 0 39.52 0 39.75 -0 39.98 -0 40.22 -0 40.45 -0 40.68 -0 40.91 -0 41.14 -0 41.37 -0 41.6 -0 41.83 -0 42.06 -0 42.29 -0 42.52 -0 42.75 -0 42.98 -0 43.21 -0 43.44 -0 43.67 -0.01 43.9 -0.01 44.13 -0.01 44.36 -0.02 44.59 -0.03 44.82 -0.04 45.06 -0.05 45.29 -0.07 45.52 -0.09 45.75 -0.12 45.98 -0.15 46.21 -0.18 46.44 -0.22 46.67 -0.25 46.9 -0.29 47.13 -0.33 47.36 -0.36 47.59 -0.38 47.82 -0.39 48.05 -0.38 48.28 -0.35 48.51 -0.3 48.74 -0.23 48.97 -0.13 49.2 0 49.43 0.16 49.66 0.34 49.89 0.54 50.13 0.75 50.36 0.96 50.59 1.17 50.82 1.36 51.05 1.52 51.28 1.65 51.51 1.73 51.74 1.75 51.97 1.7 52.2 1.59 52.43 1.4 52.66 1.15 52.89 0.84 53.12 0.47 53.35 0.07 53.58 -0.36 53.81 -0.8 54.04 -1.23 54.27 -1.63 54.5 -1.99 54.73 -2.28 54.96 -2.5 55.2 -2.64 55.43 -2.69 55.66 -2.64 55.89 -2.51 56.12 -2.29 56.35 -2 56.58 -1.64 56.81 -1.25 57.04 -0.82 57.27 -0.39 57.5 0.03 57.73 0.43 57.96 0.8 58.19 1.11 58.42 1.36 58.65 1.55 58.88 1.67 59.11 1.73 59.34 1.72 59.57 1.66 59.8 1.55 60.03 1.4 60.27 1.22 60.5 1.02 60.73 0.82 60.96 0.61 61.19 0.42 61.42 0.24 61.65 0.08 61.88 -0.06 62.11 -0.17 62.34 -0.26 62.57 -0.32 62.8 -0.36 63.03 -0.38 63.26 -0.38 63.49 -0.37 63.72 -0.35 63.95 -0.32 64.18 -0.28 64.41 -0.25 64.64 -0.21 64.87 -0.18 65.11 -0.15 65.34 -0.12 65.57 -0.09 65.8 -0.07 66.03 -0.06 66.26 -0.04 66.49 -0.03 66.72 -0.02 66.95 -0.02 67.18 -0.01 67.41 -0.01 67.64 -0 67.87 -0 68.1 -0 68.33 -0 68.56 -0 68.79 -0 69.02 0 69.25 0 69.48 0 69.71 0 69.94 0 70.18 0 70.41 0 70.64 0 70.87 0 71.1 0 71.33 0 71.56 0 71.79 0 72.02 0 72.25 0 72.48 0 72.71 -0 72.94 -0 73.17 -0 73.4 -0 73.63 -0 73.86 -0 74.09 -0 74.32 -0 74.55 -0 74.78 -0 75.01 -0 75.25 -0 75.48 -0 75.71 -0 75.94 -0 76.17 -0 76.4 -0 76.63 -0 76.86 -0 77.09 -0 77.32 0 77.55 0 77.78 0 78.01 0 78.24 0 78.47 0 78.7 0 78.93 0 79.16 0 79.39 0 79.62 0 79.85 0 80.08 0 80.32 0 80.55 0 80.78 0 81.01 0 81.24 0 81.47 0 81.7 0 81.93 0 82.16 0 82.39 0 82.62 0 82.85 0 83.08 0 83.31 0 83.54 0 83.77 0 84 0 84.23 0 84.46 0 84.69 0 84.92 0 85.16 0 85.39 0 85.62 -0 85.85 -0 86.08 -0 86.31 -0 86.54 -0 86.77 0 87 0 87.23 0 87.46 0 87.69 0 87.92 0 88.15 0 88.38 0 88.61 0 88.84 0 89.07 0 89.3 0 89.53 0 89.76 0 89.99 0 90.23 0 90.46 0 90.69 0 90.92 0 91.15 0 91.38 0 91.61 0 91.84 0 92.07 0" class="primitive"/>
            </g>
          </g>
        </g>
        <g stroke-width="0.3" fill="#000000" fill-opacity="0.000" class="geometry" id="img-2a6fe229-64">
          <g class="color_RGB{Float64}(1.641689488274256e-7,0.0,0.5407779017411706)" stroke-dasharray="none" stroke="#00008A" id="img-2a6fe229-65">
            <g transform="translate(124.51,38.94)" id="img-2a6fe229-66">
              <path fill="none" d="M-92.07,0 L -91.84 0 -91.61 0 -91.38 0 -91.15 0 -90.92 0 -90.69 0 -90.46 0 -90.23 0 -89.99 0 -89.76 0 -89.53 0 -89.3 0 -89.07 0 -88.84 0 -88.61 0 -88.38 0 -88.15 0 -87.92 0 -87.69 0 -87.46 0 -87.23 -0 -87 -0 -86.77 -0 -86.54 -0 -86.31 -0 -86.08 -0 -85.85 -0 -85.62 -0 -85.39 -0.01 -85.16 -0.01 -84.92 -0.02 -84.69 -0.04 -84.46 -0.06 -84.23 -0.09 -84 -0.12 -83.77 -0.14 -83.54 -0.13 -83.31 -0.1 -83.08 -0.04 -82.85 0.04 -82.62 0.11 -82.39 0.15 -82.16 0.14 -81.93 0.05 -81.7 -0.1 -81.47 -0.28 -81.24 -0.45 -81.01 -0.55 -80.78 -0.54 -80.55 -0.43 -80.32 -0.24 -80.08 -0.01 -79.85 0.19 -79.62 0.36 -79.39 0.51 -79.16 0.73 -78.93 1.12 -78.7 1.74 -78.47 2.59 -78.24 3.53 -78.01 4.34 -77.78 4.73 -77.55 4.38 -77.32 3.1 -77.09 0.9 -76.86 -2 -76.63 -5.17 -76.4 -8.07 -76.17 -10.11 -75.94 -10.86 -75.71 -10.13 -75.48 -7.99 -75.25 -4.81 -75.01 -1.12 -74.78 2.49 -74.55 5.46 -74.32 7.41 -74.09 8.18 -73.86 7.83 -73.63 6.6 -73.4 4.85 -73.17 2.91 -72.94 1.13 -72.71 -0.3 -72.48 -1.27 -72.25 -1.79 -72.02 -1.92 -71.79 -1.78 -71.56 -1.48 -71.33 -1.14 -71.1 -0.82 -70.87 -0.55 -70.64 -0.35 -70.41 -0.21 -70.18 -0.13 -69.94 -0.08 -69.71 -0.05 -69.48 -0.03 -69.25 -0.02 -69.02 -0.01 -68.79 -0.01 -68.56 -0.01 -68.33 -0 -68.1 -0 -67.87 -0 -67.64 -0 -67.41 -0 -67.18 -0 -66.95 -0 -66.72 0 -66.49 0 -66.26 0 -66.03 0 -65.8 0 -65.57 0 -65.34 0 -65.11 0 -64.87 0 -64.64 0 -64.41 0 -64.18 -0 -63.95 -0 -63.72 -0 -63.49 -0 -63.26 -0 -63.03 -0 -62.8 -0 -62.57 -0 -62.34 -0 -62.11 -0 -61.88 0 -61.65 0 -61.42 0 -61.19 0 -60.96 0 -60.73 0 -60.5 0 -60.27 0 -60.03 0 -59.8 0 -59.57 -0 -59.34 -0 -59.11 -0 -58.88 -0 -58.65 -0 -58.42 -0 -58.19 -0 -57.96 0 -57.73 0 -57.5 0 -57.27 0 -57.04 0 -56.81 0 -56.58 -0 -56.35 -0 -56.12 -0 -55.89 -0 -55.66 -0 -55.43 -0 -55.2 -0 -54.96 -0 -54.73 -0 -54.5 -0 -54.27 -0 -54.04 0 -53.81 0 -53.58 0 -53.35 0 -53.12 0 -52.89 0 -52.66 0 -52.43 0 -52.2 -0 -51.97 -0 -51.74 -0 -51.51 -0 -51.28 -0 -51.05 -0 -50.82 -0 -50.59 0 -50.36 0 -50.13 0 -49.89 0 -49.66 0 -49.43 0 -49.2 0 -48.97 0 -48.74 0 -48.51 0 -48.28 0 -48.05 0 -47.82 -0 -47.59 -0 -47.36 -0 -47.13 -0 -46.9 -0 -46.67 -0 -46.44 -0 -46.21 -0 -45.98 -0 -45.75 -0 -45.52 -0 -45.29 -0 -45.06 -0 -44.82 0 -44.59 0 -44.36 0 -44.13 0 -43.9 0 -43.67 0 -43.44 0 -43.21 0 -42.98 0 -42.75 0 -42.52 0 -42.29 0 -42.06 0 -41.83 0 -41.6 0 -41.37 0 -41.14 0 -40.91 0 -40.68 0 -40.45 0 -40.22 0 -39.98 0 -39.75 0 -39.52 0 -39.29 0 -39.06 0 -38.83 0 -38.6 0 -38.37 0 -38.14 0 -37.91 0 -37.68 0 -37.45 0 -37.22 0 -36.99 0 -36.76 0 -36.53 0 -36.3 0 -36.07 0 -35.84 0 -35.61 0 -35.38 0 -35.15 0 -34.91 0 -34.68 0 -34.45 0 -34.22 0 -33.99 0 -33.76 0 -33.53 0 -33.3 0 -33.07 0 -32.84 0 -32.61 0 -32.38 0 -32.15 0 -31.92 0 -31.69 0 -31.46 0 -31.23 0 -31 0 -30.77 0 -30.54 0 -30.31 0 -30.08 0 -29.84 0 -29.61 0 -29.38 0 -29.15 0 -28.92 0 -28.69 0 -28.46 0 -28.23 0 -28 0 -27.77 0 -27.54 0 -27.31 0 -27.08 0 -26.85 0 -26.62 0 -26.39 0 -26.16 0 -25.93 0 -25.7 0 -25.47 0 -25.24 0 -25 0 -24.77 0 -24.54 0 -24.31 0 -24.08 0 -23.85 0 -23.62 0 -23.39 0 -23.16 0 -22.93 0 -22.7 0 -22.47 0 -22.24 0 -22.01 0 -21.78 0 -21.55 0 -21.32 0 -21.09 0 -20.86 0 -20.63 0 -20.4 0 -20.17 0 -19.93 0 -19.7 0 -19.47 0 -19.24 0 -19.01 0 -18.78 0 -18.55 0 -18.32 0 -18.09 0 -17.86 0 -17.63 0 -17.4 0 -17.17 0 -16.94 0 -16.71 0 -16.48 0 -16.25 0 -16.02 0 -15.79 0 -15.56 0 -15.33 0 -15.1 0 -14.86 0 -14.63 0 -14.4 0 -14.17 0 -13.94 0 -13.71 0 -13.48 0 -13.25 0 -13.02 0 -12.79 0 -12.56 0 -12.33 0 -12.1 0 -11.87 0 -11.64 0 -11.41 0 -11.18 0 -10.95 0 -10.72 0 -10.49 0 -10.26 0 -10.03 0 -9.79 0 -9.56 0 -9.33 0 -9.1 0 -8.87 0 -8.64 0 -8.41 0 -8.18 0 -7.95 0 -7.72 0 -7.49 0 -7.26 0 -7.03 0 -6.8 0 -6.57 0 -6.34 0 -6.11 0 -5.88 0 -5.65 0 -5.42 0 -5.19 0 -4.95 0 -4.72 0 -4.49 0 -4.26 0 -4.03 0 -3.8 0 -3.57 0 -3.34 0 -3.11 0 -2.88 0 -2.65 0 -2.42 0 -2.19 0 -1.96 0 -1.73 0 -1.5 0 -1.27 0 -1.04 0 -0.81 0 -0.58 0 -0.35 0 -0.12 0 0.12 0 0.35 0 0.58 0 0.81 0 1.04 0 1.27 0 1.5 0 1.73 0 1.96 0 2.19 0 2.42 0 2.65 0 2.88 0 3.11 0 3.34 0 3.57 0 3.8 0 4.03 0 4.26 0 4.49 0 4.72 0 4.95 0 5.19 0 5.42 0 5.65 0 5.88 0 6.11 0 6.34 0 6.57 0 6.8 0 7.03 0 7.26 0 7.49 0 7.72 0 7.95 0 8.18 0 8.41 0 8.64 0 8.87 0 9.1 0 9.33 0 9.56 0 9.79 0 10.03 0 10.26 0 10.49 0 10.72 0 10.95 0 11.18 0 11.41 0 11.64 0 11.87 0 12.1 0 12.33 0 12.56 0 12.79 0 13.02 0 13.25 0 13.48 0 13.71 0 13.94 0 14.17 0 14.4 0 14.63 0 14.86 0 15.1 0 15.33 0 15.56 0 15.79 0 16.02 0 16.25 0 16.48 0 16.71 0 16.94 0 17.17 0 17.4 0 17.63 0 17.86 0 18.09 0 18.32 0 18.55 0 18.78 0 19.01 0 19.24 0 19.47 0 19.7 0 19.93 0 20.17 0 20.4 0 20.63 0 20.86 0 21.09 0 21.32 0 21.55 0 21.78 0 22.01 0 22.24 0 22.47 0 22.7 0 22.93 0 23.16 0 23.39 0 23.62 0 23.85 0 24.08 0 24.31 0 24.54 0 24.77 0 25 0 25.24 0 25.47 0 25.7 0 25.93 0 26.16 0 26.39 0 26.62 0 26.85 0 27.08 0 27.31 0 27.54 0 27.77 0 28 0 28.23 0 28.46 0 28.69 0 28.92 0 29.15 0 29.38 0 29.61 0 29.84 0 30.08 0 30.31 0 30.54 0 30.77 0 31 0 31.23 0 31.46 0 31.69 0 31.92 0 32.15 0 32.38 0 32.61 0 32.84 0 33.07 0 33.3 0 33.53 0 33.76 0 33.99 0 34.22 0 34.45 0 34.68 0 34.91 0 35.15 0 35.38 0 35.61 0 35.84 0 36.07 0 36.3 0 36.53 0 36.76 0 36.99 0 37.22 0 37.45 0 37.68 0 37.91 0 38.14 0 38.37 0 38.6 0 38.83 0 39.06 0 39.29 0 39.52 0 39.75 0 39.98 0 40.22 0 40.45 0 40.68 0 40.91 0 41.14 0 41.37 0 41.6 0 41.83 0 42.06 0 42.29 0 42.52 0 42.75 0 42.98 0 43.21 0 43.44 0 43.67 0 43.9 0 44.13 0 44.36 0 44.59 0 44.82 0 45.06 0 45.29 0 45.52 0 45.75 0 45.98 0 46.21 0 46.44 0 46.67 0 46.9 0 47.13 0 47.36 0 47.59 0 47.82 0 48.05 0 48.28 0 48.51 0 48.74 0 48.97 0 49.2 0 49.43 0 49.66 0 49.89 0 50.13 0 50.36 0 50.59 0 50.82 0 51.05 0 51.28 0 51.51 0 51.74 0 51.97 0 52.2 0 52.43 0 52.66 0 52.89 0 53.12 0 53.35 0 53.58 0 53.81 0 54.04 0 54.27 0 54.5 0 54.73 0 54.96 0 55.2 0 55.43 0 55.66 0 55.89 0 56.12 0 56.35 0 56.58 0 56.81 0 57.04 0 57.27 0 57.5 0 57.73 0 57.96 0 58.19 0 58.42 0 58.65 0 58.88 0 59.11 0 59.34 0 59.57 0 59.8 0 60.03 0 60.27 0 60.5 0 60.73 0 60.96 0 61.19 0 61.42 0 61.65 0 61.88 0 62.11 0 62.34 0 62.57 0 62.8 0 63.03 0 63.26 0 63.49 0 63.72 0 63.95 0 64.18 0 64.41 0 64.64 0 64.87 0 65.11 0 65.34 0 65.57 0 65.8 0 66.03 0 66.26 0 66.49 0 66.72 0 66.95 0 67.18 0 67.41 0 67.64 0 67.87 0 68.1 0 68.33 0 68.56 0 68.79 0 69.02 0 69.25 0 69.48 0 69.71 0 69.94 0 70.18 0 70.41 0 70.64 0 70.87 0 71.1 0 71.33 0 71.56 0 71.79 0 72.02 0 72.25 0 72.48 0 72.71 0 72.94 0 73.17 0 73.4 0 73.63 0 73.86 0 74.09 0 74.32 0 74.55 0 74.78 0 75.01 0 75.25 0 75.48 0 75.71 0 75.94 0 76.17 0 76.4 0 76.63 0 76.86 0 77.09 0 77.32 0 77.55 0 77.78 0 78.01 0 78.24 0 78.47 0 78.7 0 78.93 0 79.16 0 79.39 0 79.62 0 79.85 0 80.08 0 80.32 0 80.55 0 80.78 0 81.01 0 81.24 0 81.47 0 81.7 0 81.93 0 82.16 0 82.39 0 82.62 0 82.85 0 83.08 0 83.31 0 83.54 0 83.77 0 84 0 84.23 0 84.46 0 84.69 0 84.92 0 85.16 0 85.39 0 85.62 0 85.85 0 86.08 0 86.31 0 86.54 0 86.77 0 87 0 87.23 0 87.46 0 87.69 0 87.92 0 88.15 0 88.38 0 88.61 0 88.84 0 89.07 0 89.3 0 89.53 0 89.76 0 89.99 0 90.23 0 90.46 0 90.69 0 90.92 0 91.15 0 91.38 0 91.61 0 91.84 0 92.07 0" class="primitive"/>
            </g>
          </g>
        </g>
        <g stroke-width="0.3" fill="#000000" fill-opacity="0.000" class="geometry" id="img-2a6fe229-67">
          <g class="color_RGB{Float64}(7.336715728811782e-7,0.44403268331118134,1.0)" stroke-dasharray="none" stroke="#0071FF" id="img-2a6fe229-68">
            <g transform="translate(124.51,38.94)" id="img-2a6fe229-69">
              <path fill="none" d="M-92.07,0 L -91.84 0 -91.61 0 -91.38 0 -91.15 0 -90.92 0 -90.69 0 -90.46 0 -90.23 0 -89.99 0 -89.76 0 -89.53 0 -89.3 0 -89.07 0 -88.84 0 -88.61 0 -88.38 0 -88.15 0 -87.92 0 -87.69 0 -87.46 0 -87.23 0 -87 0 -86.77 0 -86.54 0 -86.31 0 -86.08 0 -85.85 0 -85.62 0 -85.39 0 -85.16 -0 -84.92 -0 -84.69 -0 -84.46 -0 -84.23 -0 -84 -0 -83.77 -0 -83.54 -0 -83.31 -0 -83.08 -0 -82.85 0 -82.62 0 -82.39 0 -82.16 0 -81.93 0 -81.7 -0 -81.47 -0 -81.24 -0 -81.01 -0 -80.78 -0 -80.55 -0 -80.32 -0 -80.08 -0 -79.85 0 -79.62 0 -79.39 0 -79.16 0 -78.93 0 -78.7 0 -78.47 0 -78.24 0 -78.01 0 -77.78 0 -77.55 0 -77.32 0 -77.09 0 -76.86 -0 -76.63 -0 -76.4 -0 -76.17 -0 -75.94 -0 -75.71 -0 -75.48 -0 -75.25 -0 -75.01 -0 -74.78 0 -74.55 0 -74.32 0 -74.09 0 -73.86 0 -73.63 0 -73.4 0 -73.17 0 -72.94 0 -72.71 -0 -72.48 -0 -72.25 -0 -72.02 -0 -71.79 -0 -71.56 -0 -71.33 -0 -71.1 -0 -70.87 -0 -70.64 -0 -70.41 -0 -70.18 -0 -69.94 -0 -69.71 -0 -69.48 -0.01 -69.25 -0.02 -69.02 -0.03 -68.79 -0.05 -68.56 -0.08 -68.33 -0.12 -68.1 -0.16 -67.87 -0.2 -67.64 -0.23 -67.41 -0.24 -67.18 -0.22 -66.95 -0.14 -66.72 -0.01 -66.49 0.17 -66.26 0.38 -66.03 0.62 -65.8 0.84 -65.57 1 -65.34 1.08 -65.11 1.03 -64.87 0.85 -64.64 0.55 -64.41 0.14 -64.18 -0.33 -63.95 -0.8 -63.72 -1.21 -63.49 -1.5 -63.26 -1.63 -63.03 -1.6 -62.8 -1.39 -62.57 -1.05 -62.34 -0.61 -62.11 -0.15 -61.88 0.29 -61.65 0.65 -61.42 0.89 -61.19 1.01 -60.96 1 -60.73 0.89 -60.5 0.7 -60.27 0.48 -60.03 0.26 -59.8 0.06 -59.57 -0.09 -59.34 -0.18 -59.11 -0.21 -58.88 -0.2 -58.65 -0.15 -58.42 -0.08 -58.19 -0.02 -57.96 0.04 -57.73 0.08 -57.5 0.1 -57.27 0.09 -57.04 0.07 -56.81 0.03 -56.58 -0.01 -56.35 -0.05 -56.12 -0.08 -55.89 -0.11 -55.66 -0.12 -55.43 -0.11 -55.2 -0.1 -54.96 -0.08 -54.73 -0.06 -54.5 -0.03 -54.27 -0.01 -54.04 0.01 -53.81 0.02 -53.58 0.03 -53.35 0.03 -53.12 0.02 -52.89 0.02 -52.66 0.01 -52.43 0 -52.2 -0 -51.97 -0.01 -51.74 -0.01 -51.51 -0.01 -51.28 -0.01 -51.05 -0.01 -50.82 -0 -50.59 0 -50.36 0.01 -50.13 0.01 -49.89 0.01 -49.66 0.01 -49.43 0.01 -49.2 0.01 -48.97 0.01 -48.74 0.01 -48.51 0 -48.28 0 -48.05 0 -47.82 -0 -47.59 -0 -47.36 -0 -47.13 -0 -46.9 -0 -46.67 -0 -46.44 -0 -46.21 -0 -45.98 -0 -45.75 -0 -45.52 -0 -45.29 -0 -45.06 -0 -44.82 -0 -44.59 -0 -44.36 -0 -44.13 -0 -43.9 -0 -43.67 -0 -43.44 -0 -43.21 -0 -42.98 -0 -42.75 -0 -42.52 -0 -42.29 -0 -42.06 -0 -41.83 -0 -41.6 -0 -41.37 -0 -41.14 -0 -40.91 -0 -40.68 -0 -40.45 0 -40.22 0 -39.98 0 -39.75 0 -39.52 0 -39.29 0 -39.06 0 -38.83 0 -38.6 0 -38.37 0 -38.14 0 -37.91 0 -37.68 0 -37.45 0 -37.22 0 -36.99 0 -36.76 0 -36.53 0 -36.3 0 -36.07 0 -35.84 0 -35.61 0 -35.38 0 -35.15 0 -34.91 0 -34.68 0 -34.45 0 -34.22 0 -33.99 0 -33.76 0 -33.53 0 -33.3 0 -33.07 0 -32.84 0 -32.61 0 -32.38 0 -32.15 0 -31.92 0 -31.69 0 -31.46 0 -31.23 0 -31 0 -30.77 0 -30.54 0 -30.31 0 -30.08 0 -29.84 0 -29.61 0 -29.38 0 -29.15 0 -28.92 0 -28.69 0 -28.46 0 -28.23 0 -28 0 -27.77 0 -27.54 0 -27.31 0 -27.08 0 -26.85 0 -26.62 0 -26.39 0 -26.16 0 -25.93 0 -25.7 0 -25.47 0 -25.24 0 -25 0 -24.77 0 -24.54 0 -24.31 0 -24.08 0 -23.85 0 -23.62 0 -23.39 0 -23.16 0 -22.93 0 -22.7 0 -22.47 0 -22.24 0 -22.01 0 -21.78 0 -21.55 0 -21.32 0 -21.09 0 -20.86 0 -20.63 0 -20.4 0 -20.17 0 -19.93 0 -19.7 0 -19.47 0 -19.24 0 -19.01 0 -18.78 0 -18.55 0 -18.32 0 -18.09 0 -17.86 0 -17.63 0 -17.4 0 -17.17 0 -16.94 0 -16.71 0 -16.48 0 -16.25 0 -16.02 0 -15.79 0 -15.56 0 -15.33 0 -15.1 0 -14.86 0 -14.63 0 -14.4 0 -14.17 0 -13.94 0 -13.71 0 -13.48 0 -13.25 0 -13.02 0 -12.79 0 -12.56 0 -12.33 0 -12.1 0 -11.87 0 -11.64 0 -11.41 0 -11.18 0 -10.95 0 -10.72 0 -10.49 0 -10.26 0 -10.03 0 -9.79 0 -9.56 0 -9.33 0 -9.1 0 -8.87 0 -8.64 0 -8.41 0 -8.18 0 -7.95 0 -7.72 0 -7.49 0 -7.26 0 -7.03 0 -6.8 0 -6.57 0 -6.34 0 -6.11 0 -5.88 0 -5.65 0 -5.42 0 -5.19 0 -4.95 0 -4.72 0 -4.49 0 -4.26 0 -4.03 0 -3.8 0 -3.57 0 -3.34 0 -3.11 0 -2.88 0 -2.65 0 -2.42 0 -2.19 0 -1.96 0 -1.73 0 -1.5 0 -1.27 0 -1.04 0 -0.81 0 -0.58 0 -0.35 0 -0.12 0 0.12 0 0.35 0 0.58 0 0.81 0 1.04 0 1.27 0 1.5 0 1.73 0 1.96 0 2.19 0 2.42 0 2.65 0 2.88 0 3.11 0 3.34 0 3.57 0 3.8 0 4.03 0 4.26 0 4.49 0 4.72 0 4.95 0 5.19 0 5.42 0 5.65 0 5.88 0 6.11 0 6.34 0 6.57 0 6.8 0 7.03 0 7.26 0 7.49 0 7.72 0 7.95 0 8.18 0 8.41 0 8.64 0 8.87 0 9.1 0 9.33 0 9.56 0 9.79 0 10.03 0 10.26 0 10.49 0 10.72 0 10.95 0 11.18 0 11.41 0 11.64 0 11.87 0 12.1 0 12.33 0 12.56 0 12.79 0 13.02 0 13.25 0 13.48 0 13.71 0 13.94 0 14.17 0 14.4 0 14.63 0 14.86 0 15.1 0 15.33 0 15.56 0 15.79 0 16.02 0 16.25 0 16.48 0 16.71 0 16.94 0 17.17 0 17.4 0 17.63 0 17.86 0 18.09 0 18.32 0 18.55 0 18.78 0 19.01 0 19.24 0 19.47 0 19.7 0 19.93 0 20.17 0 20.4 0 20.63 0 20.86 0 21.09 0 21.32 0 21.55 0 21.78 0 22.01 0 22.24 0 22.47 0 22.7 0 22.93 0 23.16 0 23.39 0 23.62 0 23.85 0 24.08 0 24.31 0 24.54 0 24.77 0 25 0 25.24 0 25.47 0 25.7 0 25.93 0 26.16 0 26.39 0 26.62 0 26.85 0 27.08 0 27.31 0 27.54 0 27.77 0 28 0 28.23 0 28.46 0 28.69 0 28.92 0 29.15 0 29.38 0 29.61 0 29.84 0 30.08 0 30.31 0 30.54 0 30.77 0 31 0 31.23 0 31.46 0 31.69 0 31.92 0 32.15 0 32.38 0 32.61 0 32.84 0 33.07 0 33.3 0 33.53 0 33.76 0 33.99 0 34.22 0 34.45 0 34.68 0 34.91 0 35.15 0 35.38 0 35.61 0 35.84 0 36.07 0 36.3 0 36.53 0 36.76 0 36.99 0 37.22 0 37.45 0 37.68 0 37.91 0 38.14 0 38.37 0 38.6 0 38.83 0 39.06 0 39.29 0 39.52 0 39.75 0 39.98 0 40.22 0 40.45 0 40.68 0 40.91 0 41.14 0 41.37 0 41.6 0 41.83 0 42.06 0 42.29 0 42.52 0 42.75 0 42.98 0 43.21 0 43.44 0 43.67 0 43.9 0 44.13 0 44.36 0 44.59 0 44.82 0 45.06 0 45.29 0 45.52 0 45.75 0 45.98 0 46.21 0 46.44 0 46.67 0 46.9 0 47.13 0 47.36 0 47.59 0 47.82 0 48.05 0 48.28 0 48.51 0 48.74 0 48.97 0 49.2 0 49.43 0 49.66 0 49.89 0 50.13 0 50.36 0 50.59 0 50.82 0 51.05 0 51.28 0 51.51 0 51.74 0 51.97 0 52.2 0 52.43 0 52.66 0 52.89 0 53.12 0 53.35 0 53.58 0 53.81 0 54.04 0 54.27 0 54.5 0 54.73 0 54.96 0 55.2 0 55.43 0 55.66 0 55.89 0 56.12 0 56.35 0 56.58 0 56.81 0 57.04 0 57.27 0 57.5 0 57.73 0 57.96 0 58.19 0 58.42 0 58.65 0 58.88 0 59.11 0 59.34 0 59.57 0 59.8 0 60.03 0 60.27 0 60.5 0 60.73 0 60.96 0 61.19 0 61.42 0 61.65 0 61.88 0 62.11 0 62.34 0 62.57 0 62.8 0 63.03 0 63.26 0 63.49 0 63.72 0 63.95 0 64.18 0 64.41 0 64.64 0 64.87 0 65.11 0 65.34 0 65.57 0 65.8 0 66.03 0 66.26 0 66.49 0 66.72 0 66.95 0 67.18 0 67.41 0 67.64 0 67.87 0 68.1 0 68.33 0 68.56 0 68.79 0 69.02 0 69.25 0 69.48 0 69.71 0 69.94 0 70.18 0 70.41 0 70.64 0 70.87 0 71.1 0 71.33 0 71.56 0 71.79 0 72.02 0 72.25 0 72.48 0 72.71 0 72.94 0 73.17 0 73.4 0 73.63 0 73.86 0 74.09 0 74.32 0 74.55 0 74.78 0 75.01 0 75.25 0 75.48 0 75.71 0 75.94 0 76.17 0 76.4 0 76.63 0 76.86 0 77.09 0 77.32 0 77.55 0 77.78 0 78.01 0 78.24 0 78.47 0 78.7 0 78.93 0 79.16 0 79.39 0 79.62 0 79.85 0 80.08 0 80.32 0 80.55 0 80.78 0 81.01 0 81.24 0 81.47 0 81.7 0 81.93 0 82.16 0 82.39 0 82.62 0 82.85 0 83.08 0 83.31 0 83.54 0 83.77 0 84 0 84.23 0 84.46 0 84.69 0 84.92 0 85.16 0 85.39 0 85.62 0 85.85 0 86.08 0 86.31 0 86.54 0 86.77 0 87 0 87.23 0 87.46 0 87.69 0 87.92 0 88.15 0 88.38 0 88.61 0 88.84 0 89.07 0 89.3 0 89.53 0 89.76 0 89.99 0 90.23 0 90.46 0 90.69 0 90.92 0 91.15 0 91.38 0 91.61 0 91.84 0 92.07 0" class="primitive"/>
            </g>
          </g>
        </g>
        <g stroke-width="0.3" fill="#000000" fill-opacity="0.000" class="geometry" id="img-2a6fe229-70">
          <g class="color_RGB{Float64}(0.0,0.6588235294117647,0.17647058823529413)" stroke-dasharray="none" stroke="#00A82D" id="img-2a6fe229-71">
            <g transform="translate(124.51,38.94)" id="img-2a6fe229-72">
              <path fill="none" d="M-92.07,0 L -91.84 0 -91.61 0 -91.38 0 -91.15 0 -90.92 0 -90.69 0 -90.46 0 -90.23 0 -89.99 0 -89.76 0 -89.53 0 -89.3 0 -89.07 0 -88.84 0 -88.61 0 -88.38 0 -88.15 0 -87.92 0 -87.69 0 -87.46 0 -87.23 0 -87 0 -86.77 0 -86.54 0 -86.31 0 -86.08 0 -85.85 0 -85.62 0 -85.39 0 -85.16 0 -84.92 0 -84.69 0 -84.46 0 -84.23 0 -84 0 -83.77 0 -83.54 0 -83.31 0 -83.08 0 -82.85 0 -82.62 -0 -82.39 -0 -82.16 -0 -81.93 0 -81.7 0 -81.47 0 -81.24 0 -81.01 0 -80.78 0 -80.55 0 -80.32 0 -80.08 0 -79.85 -0 -79.62 -0 -79.39 -0 -79.16 -0 -78.93 -0 -78.7 -0 -78.47 -0 -78.24 -0 -78.01 -0 -77.78 -0 -77.55 -0 -77.32 -0 -77.09 -0 -76.86 0 -76.63 0 -76.4 0 -76.17 0 -75.94 0 -75.71 0 -75.48 0 -75.25 0 -75.01 0 -74.78 -0 -74.55 -0 -74.32 -0 -74.09 -0 -73.86 -0 -73.63 -0 -73.4 -0 -73.17 -0 -72.94 -0 -72.71 0 -72.48 0 -72.25 0 -72.02 0 -71.79 0 -71.56 0 -71.33 0 -71.1 0 -70.87 0 -70.64 0 -70.41 0 -70.18 0 -69.94 0 -69.71 0 -69.48 0 -69.25 0 -69.02 0 -68.79 0.01 -68.56 0.01 -68.33 0.01 -68.1 0.02 -67.87 0.02 -67.64 0.03 -67.41 0.03 -67.18 0.03 -66.95 0.02 -66.72 0 -66.49 -0.02 -66.26 -0.05 -66.03 -0.08 -65.8 -0.1 -65.57 -0.12 -65.34 -0.13 -65.11 -0.13 -64.87 -0.11 -64.64 -0.07 -64.41 -0.02 -64.18 0.02 -63.95 0.07 -63.72 0.1 -63.49 0.11 -63.26 0.09 -63.03 0.04 -62.8 -0.03 -62.57 -0.1 -62.34 -0.18 -62.11 -0.23 -61.88 -0.23 -61.65 -0.18 -61.42 -0.06 -61.19 0.12 -60.96 0.34 -60.73 0.59 -60.5 0.82 -60.27 1 -60.03 1.09 -59.8 1.06 -59.57 0.9 -59.34 0.61 -59.11 0.22 -58.88 -0.24 -58.65 -0.71 -58.42 -1.14 -58.19 -1.48 -57.96 -1.67 -57.73 -1.7 -57.5 -1.57 -57.27 -1.28 -57.04 -0.89 -56.81 -0.43 -56.58 0.03 -56.35 0.44 -56.12 0.77 -55.89 0.99 -55.66 1.08 -55.43 1.06 -55.2 0.94 -54.96 0.75 -54.73 0.52 -54.5 0.29 -54.27 0.09 -54.04 -0.08 -53.81 -0.19 -53.58 -0.24 -53.35 -0.25 -53.12 -0.22 -52.89 -0.16 -52.66 -0.09 -52.43 -0.02 -52.2 0.04 -51.97 0.08 -51.74 0.1 -51.51 0.1 -51.28 0.08 -51.05 0.05 -50.82 0.02 -50.59 -0.02 -50.36 -0.05 -50.13 -0.08 -49.89 -0.1 -49.66 -0.1 -49.43 -0.1 -49.2 -0.09 -48.97 -0.08 -48.74 -0.06 -48.51 -0.04 -48.28 -0.02 -48.05 -0.01 -47.82 0.01 -47.59 0.01 -47.36 0.02 -47.13 0.02 -46.9 0.02 -46.67 0.02 -46.44 0.02 -46.21 0.01 -45.98 0.01 -45.75 0.01 -45.52 0.01 -45.29 0 -45.06 0 -44.82 0 -44.59 0 -44.36 0 -44.13 0 -43.9 0 -43.67 0 -43.44 0 -43.21 0 -42.98 0 -42.75 0 -42.52 0 -42.29 0 -42.06 0 -41.83 0 -41.6 0 -41.37 0 -41.14 0 -40.91 0 -40.68 0 -40.45 0 -40.22 0 -39.98 0 -39.75 0 -39.52 0 -39.29 0 -39.06 0 -38.83 0 -38.6 0 -38.37 0 -38.14 0 -37.91 0 -37.68 0 -37.45 0 -37.22 0 -36.99 0 -36.76 0 -36.53 0 -36.3 0 -36.07 0 -35.84 0 -35.61 0 -35.38 0 -35.15 0 -34.91 0 -34.68 0 -34.45 0 -34.22 0 -33.99 0 -33.76 0 -33.53 0 -33.3 0 -33.07 0 -32.84 0 -32.61 0 -32.38 0 -32.15 0 -31.92 0 -31.69 0 -31.46 0 -31.23 0 -31 0 -30.77 0 -30.54 0 -30.31 0 -30.08 0 -29.84 0 -29.61 0 -29.38 0 -29.15 0 -28.92 0 -28.69 0 -28.46 0 -28.23 0 -28 0 -27.77 0 -27.54 0 -27.31 0 -27.08 0 -26.85 0 -26.62 0 -26.39 0 -26.16 0 -25.93 0 -25.7 0 -25.47 0 -25.24 0 -25 0 -24.77 0 -24.54 0 -24.31 0 -24.08 0 -23.85 0 -23.62 0 -23.39 0 -23.16 0 -22.93 0 -22.7 0 -22.47 0 -22.24 0 -22.01 0 -21.78 0 -21.55 0 -21.32 0 -21.09 0 -20.86 0 -20.63 0 -20.4 0 -20.17 0 -19.93 0 -19.7 0 -19.47 0 -19.24 0 -19.01 0 -18.78 0 -18.55 0 -18.32 0 -18.09 0 -17.86 0 -17.63 0 -17.4 0 -17.17 0 -16.94 0 -16.71 0 -16.48 0 -16.25 0 -16.02 0 -15.79 0 -15.56 0 -15.33 0 -15.1 0 -14.86 0 -14.63 0 -14.4 0 -14.17 0 -13.94 0 -13.71 0 -13.48 0 -13.25 0 -13.02 0 -12.79 0 -12.56 0 -12.33 0 -12.1 0 -11.87 0 -11.64 0 -11.41 0 -11.18 0 -10.95 0 -10.72 0 -10.49 0 -10.26 0 -10.03 0 -9.79 0 -9.56 0 -9.33 0 -9.1 0 -8.87 0 -8.64 0 -8.41 0 -8.18 0 -7.95 0 -7.72 0 -7.49 0 -7.26 0 -7.03 0 -6.8 0 -6.57 0 -6.34 0 -6.11 0 -5.88 0 -5.65 0 -5.42 0 -5.19 0 -4.95 0 -4.72 0 -4.49 0 -4.26 0 -4.03 0 -3.8 0 -3.57 0 -3.34 0 -3.11 0 -2.88 0 -2.65 0 -2.42 0 -2.19 0 -1.96 0 -1.73 0 -1.5 0 -1.27 0 -1.04 0 -0.81 0 -0.58 0 -0.35 0 -0.12 0 0.12 0 0.35 0 0.58 0 0.81 0 1.04 0 1.27 0 1.5 0 1.73 0 1.96 0 2.19 0 2.42 0 2.65 0 2.88 0 3.11 0 3.34 0 3.57 0 3.8 0 4.03 0 4.26 0 4.49 0 4.72 0 4.95 0 5.19 0 5.42 0 5.65 0 5.88 0 6.11 0 6.34 0 6.57 0 6.8 0 7.03 0 7.26 0 7.49 0 7.72 0 7.95 0 8.18 0 8.41 0 8.64 0 8.87 0 9.1 0 9.33 0 9.56 0 9.79 0 10.03 0 10.26 0 10.49 0 10.72 0 10.95 0 11.18 0 11.41 0 11.64 0 11.87 0 12.1 0 12.33 0 12.56 0 12.79 0 13.02 0 13.25 0 13.48 0 13.71 0 13.94 0 14.17 0 14.4 0 14.63 0 14.86 0 15.1 0 15.33 0 15.56 0 15.79 0 16.02 0 16.25 0 16.48 0 16.71 0 16.94 0 17.17 0 17.4 0 17.63 0 17.86 0 18.09 0 18.32 0 18.55 0 18.78 0 19.01 0 19.24 0 19.47 0 19.7 0 19.93 0 20.17 0 20.4 0 20.63 0 20.86 0 21.09 0 21.32 0 21.55 0 21.78 0 22.01 0 22.24 0 22.47 0 22.7 0 22.93 0 23.16 0 23.39 0 23.62 0 23.85 0 24.08 0 24.31 0 24.54 0 24.77 0 25 0 25.24 0 25.47 0 25.7 0 25.93 0 26.16 0 26.39 0 26.62 0 26.85 0 27.08 0 27.31 0 27.54 0 27.77 0 28 0 28.23 0 28.46 0 28.69 0 28.92 0 29.15 0 29.38 0 29.61 0 29.84 0 30.08 0 30.31 0 30.54 0 30.77 0 31 0 31.23 0 31.46 0 31.69 0 31.92 0 32.15 0 32.38 0 32.61 0 32.84 0 33.07 0 33.3 0 33.53 0 33.76 0 33.99 0 34.22 0 34.45 0 34.68 0 34.91 0 35.15 0 35.38 0 35.61 0 35.84 0 36.07 0 36.3 0 36.53 0 36.76 0 36.99 0 37.22 0 37.45 0 37.68 0 37.91 0 38.14 0 38.37 0 38.6 0 38.83 0 39.06 0 39.29 0 39.52 0 39.75 0 39.98 0 40.22 0 40.45 0 40.68 0 40.91 0 41.14 0 41.37 0 41.6 0 41.83 0 42.06 0 42.29 0 42.52 0 42.75 0 42.98 0 43.21 0 43.44 0 43.67 0 43.9 0 44.13 0 44.36 0 44.59 0 44.82 0 45.06 0 45.29 0 45.52 0 45.75 0 45.98 0 46.21 0 46.44 0 46.67 0 46.9 0 47.13 0 47.36 0 47.59 0 47.82 0 48.05 0 48.28 0 48.51 0 48.74 0 48.97 0 49.2 0 49.43 0 49.66 0 49.89 0 50.13 0 50.36 0 50.59 0 50.82 0 51.05 0 51.28 0 51.51 0 51.74 0 51.97 0 52.2 0 52.43 0 52.66 0 52.89 0 53.12 0 53.35 0 53.58 0 53.81 0 54.04 0 54.27 0 54.5 0 54.73 0 54.96 0 55.2 0 55.43 0 55.66 0 55.89 0 56.12 0 56.35 0 56.58 0 56.81 0 57.04 0 57.27 0 57.5 0 57.73 0 57.96 0 58.19 0 58.42 0 58.65 0 58.88 0 59.11 0 59.34 0 59.57 0 59.8 0 60.03 0 60.27 0 60.5 0 60.73 0 60.96 0 61.19 0 61.42 0 61.65 0 61.88 0 62.11 0 62.34 0 62.57 0 62.8 0 63.03 0 63.26 0 63.49 0 63.72 0 63.95 0 64.18 0 64.41 0 64.64 0 64.87 0 65.11 0 65.34 0 65.57 0 65.8 0 66.03 0 66.26 0 66.49 0 66.72 0 66.95 0 67.18 0 67.41 0 67.64 0 67.87 0 68.1 0 68.33 0 68.56 0 68.79 0 69.02 0 69.25 0 69.48 0 69.71 0 69.94 0 70.18 0 70.41 0 70.64 0 70.87 0 71.1 0 71.33 0 71.56 0 71.79 0 72.02 0 72.25 0 72.48 0 72.71 0 72.94 0 73.17 0 73.4 0 73.63 0 73.86 0 74.09 0 74.32 0 74.55 0 74.78 0 75.01 0 75.25 0 75.48 0 75.71 0 75.94 0 76.17 0 76.4 0 76.63 0 76.86 0 77.09 0 77.32 0 77.55 0 77.78 0 78.01 0 78.24 0 78.47 0 78.7 0 78.93 0 79.16 0 79.39 0 79.62 0 79.85 0 80.08 0 80.32 0 80.55 0 80.78 0 81.01 0 81.24 0 81.47 0 81.7 0 81.93 0 82.16 0 82.39 0 82.62 0 82.85 0 83.08 0 83.31 0 83.54 0 83.77 0 84 0 84.23 0 84.46 0 84.69 0 84.92 0 85.16 0 85.39 0 85.62 0 85.85 0 86.08 0 86.31 0 86.54 0 86.77 0 87 0 87.23 0 87.46 0 87.69 0 87.92 0 88.15 0 88.38 0 88.61 0 88.84 0 89.07 0 89.3 0 89.53 0 89.76 0 89.99 0 90.23 0 90.46 0 90.69 0 90.92 0 91.15 0 91.38 0 91.61 0 91.84 0 92.07 0" class="primitive"/>
            </g>
          </g>
        </g>
      </g>
    </g>
  </g>
  <g class="guide ylabels" font-size="2.82" font-family="'PT Sans Caption','Helvetica Neue','Helvetica',sans-serif" fill="#6C606B" id="img-2a6fe229-73">
    <g transform="translate(29.21,54.91)" id="img-2a6fe229-74">
      <g class="primitive">
        <text text-anchor="end" dy="0.35em">-5.010</text>
      </g>
    </g>
    <g transform="translate(29.21,38.94)" id="img-2a6fe229-75">
      <g class="primitive">
        <text text-anchor="end" dy="0.35em">0</text>
      </g>
    </g>
    <g transform="translate(29.21,22.97)" id="img-2a6fe229-76">
      <g class="primitive">
        <text text-anchor="end" dy="0.35em">5.010</text>
      </g>
    </g>
    <g transform="translate(29.21,7)" id="img-2a6fe229-77">
      <g class="primitive">
        <text text-anchor="end" dy="0.35em">1.010</text>
      </g>
    </g>
  </g>
  <g font-size="3.88" font-family="'PT Sans','Helvetica Neue','Helvetica',sans-serif" fill="#564A55" stroke="#000000" stroke-opacity="0.000" id="img-2a6fe229-78">
    <g transform="translate(8.81,28.96)" id="img-2a6fe229-79">
      <g class="primitive">
        <text text-anchor="middle" dy="0.35em" transform="rotate(-90,0, 2)">Filtered</text>
      </g>
    </g>
  </g>
</g>
<defs>
  <clipPath id="img-2a6fe229-33">
    <path d="M30.21,5 L 218.58 5 218.58 56.91 30.21 56.91" />
  </clipPath>
</defs>
</svg>
