<?xml version="1.0" encoding="UTF-8"?>
<svg xmlns="http://www.w3.org/2000/svg"
     xmlns:xlink="http://www.w3.org/1999/xlink"
     xmlns:gadfly="http://www.gadflyjl.org/ns"
     version="1.2"
     width="254mm" height="76.2mm" viewBox="0 0 254 76.2"
     stroke="none"
     fill="#000000"
     stroke-width="0.3"
     font-size="3.88"
>
<defs>
  <marker id="arrow" markerWidth="15" markerHeight="7" refX="5" refY="3.5" orient="auto" markerUnits="strokeWidth">
    <path d="M0,0 L15,3.5 L0,7 z" stroke="context-stroke" fill="context-stroke"/>
  </marker>
</defs>
<g class="plotroot xscalable yscalable" id="img-4bae43fb-1">
  <g font-size="3.18" font-family="'PT Sans','Helvetica Neue','Helvetica',sans-serif" fill="#202020" stroke="#000000" stroke-opacity="0.000" id="img-4bae43fb-2">
    <g transform="translate(136.36,69.54)">
      <g class="primitive">
        <text text-anchor="middle" dy="0.6em">Channels</text>
      </g>
    </g>
  </g>
  <g class="guide xlabels" font-size="2.82" font-family="'PT Sans Caption','Helvetica Neue','Helvetica',sans-serif" fill="#6C606B" id="img-4bae43fb-3">
    <g transform="translate(121.02,62.87)">
      <g class="primitive">
        <text text-anchor="middle" dy="0.6em">500</text>
      </g>
    </g>
    <g transform="translate(222.64,62.87)">
      <g class="primitive">
        <text text-anchor="middle" dy="0.6em">1000</text>
      </g>
    </g>
  </g>
  <g clip-path="url(#img-4bae43fb-4)">
    <g id="img-4bae43fb-5">
      <g pointer-events="visible" stroke-width="0.3" fill="#FDFDF1" stroke="#202020" class="guide background" id="img-4bae43fb-6">
        <g transform="translate(136.36,33.76)" id="img-4bae43fb-7">
          <path d="M-116.93,-28.1 L 116.93 -28.1 116.93 28.1 -116.93 28.1 z" class="primitive"/>
        </g>
      </g>
      <g class="guide ygridlines xfixed" stroke-dasharray="none" stroke-width="0.2" stroke="#FFDFDF" id="img-4bae43fb-8">
        <g transform="translate(136.36,59.87)" id="img-4bae43fb-9">
          <path fill="none" d="M-116.93,0 L 116.93 0" class="primitive"/>
        </g>
        <g transform="translate(136.36,39.26)" id="img-4bae43fb-10">
          <path fill="none" d="M-116.93,0 L 116.93 0" class="primitive"/>
        </g>
        <g transform="translate(136.36,18.66)" id="img-4bae43fb-11">
          <path fill="none" d="M-116.93,0 L 116.93 0" class="primitive"/>
        </g>
      </g>
      <g class="guide xgridlines yfixed" stroke-dasharray="none" stroke-width="0.2" stroke="#FFDFDF" id="img-4bae43fb-12">
        <g transform="translate(121.02,33.76)" id="img-4bae43fb-13">
          <path fill="none" d="M0,-28.1 L 0 28.1" class="primitive"/>
        </g>
        <g transform="translate(222.64,33.76)" id="img-4bae43fb-14">
          <path fill="none" d="M0,-28.1 L 0 28.1" class="primitive"/>
        </g>
      </g>
      <g class="plotpanel" id="img-4bae43fb-15">
        <metadata>
          <boundingbox value="19.427222222222248mm 5.660555555555554mm 233.86722222222224mm 56.20555555555556mm"/>
          <unitbox value="0.15953654404354367 26307.16773786874 1150.6809269119128 -27277.81244276089"/>
        </metadata>
        <g class="geometry" stroke="#000000" stroke-opacity="0.000" fill="#4C404B" font-size="2.82" font-family="'PT Sans Caption','Helvetica Neue','Helvetica',sans-serif" id="img-4bae43fb-16">
          <g class="marker" id="img-4bae43fb-17">
            <g transform="translate(162.88,33.76)" id="img-4bae43fb-18">
              <g class="primitive">
                <text text-anchor="middle" dy="-0em" transform="translate(0,-1.9)">0.0668</text>
              </g>
            </g>
          </g>
        </g>
        <g class="geometry" stroke="#000000" stroke-opacity="0.000" fill="#4C404B" font-size="2.82" font-family="'PT Sans Caption','Helvetica Neue','Helvetica',sans-serif" id="img-4bae43fb-19">
          <g class="marker" id="img-4bae43fb-20">
            <g transform="translate(157.6,33.76)" id="img-4bae43fb-21">
              <g class="primitive">
                <text dy="0.35em" transform="translate(1.9,0)"></text>
              </g>
            </g>
            <g transform="translate(168.17,33.76)" id="img-4bae43fb-22">
              <g class="primitive">
                <text dy="0.35em" transform="translate(1.9,0)">Fe K-M3 + 3 others</text>
              </g>
            </g>
          </g>
        </g>
        <g class="geometry" id="img-4bae43fb-23">
          <g stroke-width="0.3" id="img-4bae43fb-24">
            <g class="color_RGBA{Float32}(0.5019608f0,0.5019608f0,0.5019608f0,1.0f0)" fill-opacity="1" stroke="#FFFFFF" fill="#808080" id="img-4bae43fb-25">
              <g class="marker" id="img-4bae43fb-26">
                <g transform="translate(168.17,33.76)" id="img-4bae43fb-27">
                  <circle cx="0" cy="0" r="0.9" class="primitive"/>
                </g>
              </g>
            </g>
            <g class="color_RGBA{Float32}(0.5019608f0,0.5019608f0,0.5019608f0,1.0f0)" fill-opacity="1" stroke="#FFFFFF" fill="#808080" id="img-4bae43fb-28">
              <g class="marker" id="img-4bae43fb-29">
                <g transform="translate(157.6,33.76)" id="img-4bae43fb-30">
                  <circle cx="0" cy="0" r="0.9" class="primitive"/>
                </g>
              </g>
            </g>
          </g>
        </g>
        <g stroke-width="0.3" fill="#000000" fill-opacity="0.000" class="geometry" id="img-4bae43fb-31">
          <g class="color_RGB{N0f8}(0.502,0.502,0.502)" stroke-dasharray="none" stroke="#808080" id="img-4bae43fb-32">
            <g transform="translate(162.88,33.76)" id="img-4bae43fb-33">
              <path fill="none" d="M-5.28,0 L 5.28 0" class="primitive"/>
            </g>
          </g>
        </g>
        <g class="geometry" stroke="#000000" stroke-opacity="0.000" fill="#4C404B" font-size="2.82" font-family="'PT Sans Caption','Helvetica Neue','Helvetica',sans-serif" id="img-4bae43fb-34">
          <g class="marker" id="img-4bae43fb-35">
            <g transform="translate(149.67,38.98)" id="img-4bae43fb-36">
              <g class="primitive">
                <text text-anchor="middle" dy="-0em" transform="translate(0,-1.9)">0.0668</text>
              </g>
            </g>
          </g>
        </g>
        <g class="geometry" stroke="#000000" stroke-opacity="0.000" fill="#4C404B" font-size="2.82" font-family="'PT Sans Caption','Helvetica Neue','Helvetica',sans-serif" id="img-4bae43fb-37">
          <g class="marker" id="img-4bae43fb-38">
            <g transform="translate(143.98,38.98)" id="img-4bae43fb-39">
              <g class="primitive">
                <text dy="0.35em" transform="translate(1.9,0)"></text>
              </g>
            </g>
            <g transform="translate(155.36,38.98)" id="img-4bae43fb-40">
              <g class="primitive">
                <text dy="0.35em" transform="translate(1.9,0)">Fe K-L3 + 1 other</text>
              </g>
            </g>
          </g>
        </g>
        <g class="geometry" id="img-4bae43fb-41">
          <g stroke-width="0.3" id="img-4bae43fb-42">
            <g class="color_RGBA{Float32}(0.5019608f0,0.5019608f0,0.5019608f0,1.0f0)" fill-opacity="1" stroke="#FFFFFF" fill="#808080" id="img-4bae43fb-43">
              <g class="marker" id="img-4bae43fb-44">
                <g transform="translate(155.36,38.98)" id="img-4bae43fb-45">
                  <circle cx="0" cy="0" r="0.9" class="primitive"/>
                </g>
              </g>
            </g>
            <g class="color_RGBA{Float32}(0.5019608f0,0.5019608f0,0.5019608f0,1.0f0)" fill-opacity="1" stroke="#FFFFFF" fill="#808080" id="img-4bae43fb-46">
              <g class="marker" id="img-4bae43fb-47">
                <g transform="translate(143.98,38.98)" id="img-4bae43fb-48">
                  <circle cx="0" cy="0" r="0.9" class="primitive"/>
                </g>
              </g>
            </g>
          </g>
        </g>
        <g stroke-width="0.3" fill="#000000" fill-opacity="0.000" class="geometry" id="img-4bae43fb-49">
          <g class="color_RGB{N0f8}(0.502,0.502,0.502)" stroke-dasharray="none" stroke="#808080" id="img-4bae43fb-50">
            <g transform="translate(149.67,38.98)" id="img-4bae43fb-51">
              <path fill="none" d="M-5.69,0 L 5.69 0" class="primitive"/>
            </g>
          </g>
        </g>
        <g class="geometry" stroke="#000000" stroke-opacity="0.000" fill="#4C404B" font-size="2.82" font-family="'PT Sans Caption','Helvetica Neue','Helvetica',sans-serif" id="img-4bae43fb-52">
          <g class="marker" id="img-4bae43fb-53">
            <g transform="translate(97.54,38.98)" id="img-4bae43fb-54">
              <g class="primitive">
                <text text-anchor="middle" dy="-0em" transform="translate(0,-1.9)">0.1922</text>
              </g>
            </g>
          </g>
        </g>
        <g class="geometry" stroke="#000000" stroke-opacity="0.000" fill="#4C404B" font-size="2.82" font-family="'PT Sans Caption','Helvetica Neue','Helvetica',sans-serif" id="img-4bae43fb-55">
          <g class="marker" id="img-4bae43fb-56">
            <g transform="translate(89.92,38.98)" id="img-4bae43fb-57">
              <g class="primitive">
                <text dy="0.35em" transform="translate(1.9,0)"></text>
              </g>
            </g>
            <g transform="translate(105.16,38.98)" id="img-4bae43fb-58">
              <g class="primitive">
                <text dy="0.35em" transform="translate(1.9,0)">Ca K-L3 + 3 others</text>
              </g>
            </g>
          </g>
        </g>
        <g class="geometry" id="img-4bae43fb-59">
          <g stroke-width="0.3" id="img-4bae43fb-60">
            <g class="color_RGBA{Float32}(0.5019608f0,0.5019608f0,0.5019608f0,1.0f0)" fill-opacity="1" stroke="#FFFFFF" fill="#808080" id="img-4bae43fb-61">
              <g class="marker" id="img-4bae43fb-62">
                <g transform="translate(105.16,38.98)" id="img-4bae43fb-63">
                  <circle cx="0" cy="0" r="0.9" class="primitive"/>
                </g>
              </g>
            </g>
            <g class="color_RGBA{Float32}(0.5019608f0,0.5019608f0,0.5019608f0,1.0f0)" fill-opacity="1" stroke="#FFFFFF" fill="#808080" id="img-4bae43fb-64">
              <g class="marker" id="img-4bae43fb-65">
                <g transform="translate(89.92,38.98)" id="img-4bae43fb-66">
                  <circle cx="0" cy="0" r="0.9" class="primitive"/>
                </g>
              </g>
            </g>
          </g>
        </g>
        <g stroke-width="0.3" fill="#000000" fill-opacity="0.000" class="geometry" id="img-4bae43fb-67">
          <g class="color_RGB{N0f8}(0.502,0.502,0.502)" stroke-dasharray="none" stroke="#808080" id="img-4bae43fb-68">
            <g transform="translate(97.54,38.98)" id="img-4bae43fb-69">
              <path fill="none" d="M-7.62,0 L 7.62 0" class="primitive"/>
            </g>
          </g>
        </g>
        <g class="geometry" stroke="#000000" stroke-opacity="0.000" fill="#4C404B" font-size="2.82" font-family="'PT Sans Caption','Helvetica Neue','Helvetica',sans-serif" id="img-4bae43fb-70">
          <g class="marker" id="img-4bae43fb-71">
            <g transform="translate(55.37,18.1)" id="img-4bae43fb-72">
              <g class="primitive">
                <text text-anchor="middle" dy="-0em" transform="translate(0,-1.9)">0.3510</text>
              </g>
            </g>
          </g>
        </g>
        <g class="geometry" stroke="#000000" stroke-opacity="0.000" fill="#4C404B" font-size="2.82" font-family="'PT Sans Caption','Helvetica Neue','Helvetica',sans-serif" id="img-4bae43fb-73">
          <g class="marker" id="img-4bae43fb-74">
            <g transform="translate(51.3,18.1)" id="img-4bae43fb-75">
              <g class="primitive">
                <text dy="0.35em" transform="translate(1.9,0)"></text>
              </g>
            </g>
            <g transform="translate(59.43,18.1)" id="img-4bae43fb-76">
              <g class="primitive">
                <text dy="0.35em" transform="translate(1.9,0)">Si K-L3 + 2 others</text>
              </g>
            </g>
          </g>
        </g>
        <g class="geometry" id="img-4bae43fb-77">
          <g stroke-width="0.3" id="img-4bae43fb-78">
            <g class="color_RGBA{Float32}(0.5019608f0,0.5019608f0,0.5019608f0,1.0f0)" fill-opacity="1" stroke="#FFFFFF" fill="#808080" id="img-4bae43fb-79">
              <g class="marker" id="img-4bae43fb-80">
                <g transform="translate(59.43,18.1)" id="img-4bae43fb-81">
                  <circle cx="0" cy="0" r="0.9" class="primitive"/>
                </g>
              </g>
            </g>
            <g class="color_RGBA{Float32}(0.5019608f0,0.5019608f0,0.5019608f0,1.0f0)" fill-opacity="1" stroke="#FFFFFF" fill="#808080" id="img-4bae43fb-82">
              <g class="marker" id="img-4bae43fb-83">
                <g transform="translate(51.3,18.1)" id="img-4bae43fb-84">
                  <circle cx="0" cy="0" r="0.9" class="primitive"/>
                </g>
              </g>
            </g>
          </g>
        </g>
        <g stroke-width="0.3" fill="#000000" fill-opacity="0.000" class="geometry" id="img-4bae43fb-85">
          <g class="color_RGB{N0f8}(0.502,0.502,0.502)" stroke-dasharray="none" stroke="#808080" id="img-4bae43fb-86">
            <g transform="translate(55.37,18.1)" id="img-4bae43fb-87">
              <path fill="none" d="M-4.06,0 L 4.06 0" class="primitive"/>
            </g>
          </g>
        </g>
        <g class="geometry" stroke="#000000" stroke-opacity="0.000" fill="#4C404B" font-size="2.82" font-family="'PT Sans Caption','Helvetica Neue','Helvetica',sans-serif" id="img-4bae43fb-88">
          <g class="marker" id="img-4bae43fb-89">
            <g transform="translate(49.68,23.32)" id="img-4bae43fb-90">
              <g class="primitive">
                <text text-anchor="middle" dy="-0em" transform="translate(0,-1.9)">0.0670</text>
              </g>
            </g>
          </g>
        </g>
        <g class="geometry" stroke="#000000" stroke-opacity="0.000" fill="#4C404B" font-size="2.82" font-family="'PT Sans Caption','Helvetica Neue','Helvetica',sans-serif" id="img-4bae43fb-91">
          <g class="marker" id="img-4bae43fb-92">
            <g transform="translate(46.22,23.32)" id="img-4bae43fb-93">
              <g class="primitive">
                <text dy="0.35em" transform="translate(1.9,0)"></text>
              </g>
            </g>
            <g transform="translate(53.13,23.32)" id="img-4bae43fb-94">
              <g class="primitive">
                <text dy="0.35em" transform="translate(1.9,0)">Al K-L3 + 1 other</text>
              </g>
            </g>
          </g>
        </g>
        <g class="geometry" id="img-4bae43fb-95">
          <g stroke-width="0.3" id="img-4bae43fb-96">
            <g class="color_RGBA{Float32}(0.5019608f0,0.5019608f0,0.5019608f0,1.0f0)" fill-opacity="1" stroke="#FFFFFF" fill="#808080" id="img-4bae43fb-97">
              <g class="marker" id="img-4bae43fb-98">
                <g transform="translate(53.13,23.32)" id="img-4bae43fb-99">
                  <circle cx="0" cy="0" r="0.9" class="primitive"/>
                </g>
              </g>
            </g>
            <g class="color_RGBA{Float32}(0.5019608f0,0.5019608f0,0.5019608f0,1.0f0)" fill-opacity="1" stroke="#FFFFFF" fill="#808080" id="img-4bae43fb-100">
              <g class="marker" id="img-4bae43fb-101">
                <g transform="translate(46.22,23.32)" id="img-4bae43fb-102">
                  <circle cx="0" cy="0" r="0.9" class="primitive"/>
                </g>
              </g>
            </g>
          </g>
        </g>
        <g stroke-width="0.3" fill="#000000" fill-opacity="0.000" class="geometry" id="img-4bae43fb-103">
          <g class="color_RGB{N0f8}(0.502,0.502,0.502)" stroke-dasharray="none" stroke="#808080" id="img-4bae43fb-104">
            <g transform="translate(49.68,23.32)" id="img-4bae43fb-105">
              <path fill="none" d="M-3.46,0 L 3.46 0" class="primitive"/>
            </g>
          </g>
        </g>
        <g class="geometry" stroke="#000000" stroke-opacity="0.000" fill="#4C404B" font-size="2.82" font-family="'PT Sans Caption','Helvetica Neue','Helvetica',sans-serif" id="img-4bae43fb-106">
          <g class="marker" id="img-4bae43fb-107">
            <g transform="translate(45,28.54)" id="img-4bae43fb-108">
              <g class="primitive">
                <text text-anchor="middle" dy="-0em" transform="translate(0,-1.9)">0.1476</text>
              </g>
            </g>
          </g>
        </g>
        <g class="geometry" stroke="#000000" stroke-opacity="0.000" fill="#4C404B" font-size="2.82" font-family="'PT Sans Caption','Helvetica Neue','Helvetica',sans-serif" id="img-4bae43fb-109">
          <g class="marker" id="img-4bae43fb-110">
            <g transform="translate(41.75,28.54)" id="img-4bae43fb-111">
              <g class="primitive">
                <text dy="0.35em" transform="translate(1.9,0)"></text>
              </g>
            </g>
            <g transform="translate(48.26,28.54)" id="img-4bae43fb-112">
              <g class="primitive">
                <text dy="0.35em" transform="translate(1.9,0)">Mg K-L3 + 1 other</text>
              </g>
            </g>
          </g>
        </g>
        <g class="geometry" id="img-4bae43fb-113">
          <g stroke-width="0.3" id="img-4bae43fb-114">
            <g class="color_RGBA{Float32}(0.5019608f0,0.5019608f0,0.5019608f0,1.0f0)" fill-opacity="1" stroke="#FFFFFF" fill="#808080" id="img-4bae43fb-115">
              <g class="marker" id="img-4bae43fb-116">
                <g transform="translate(48.26,28.54)" id="img-4bae43fb-117">
                  <circle cx="0" cy="0" r="0.9" class="primitive"/>
                </g>
              </g>
            </g>
            <g class="color_RGBA{Float32}(0.5019608f0,0.5019608f0,0.5019608f0,1.0f0)" fill-opacity="1" stroke="#FFFFFF" fill="#808080" id="img-4bae43fb-118">
              <g class="marker" id="img-4bae43fb-119">
                <g transform="translate(41.75,28.54)" id="img-4bae43fb-120">
                  <circle cx="0" cy="0" r="0.9" class="primitive"/>
                </g>
              </g>
            </g>
          </g>
        </g>
        <g stroke-width="0.3" fill="#000000" fill-opacity="0.000" class="geometry" id="img-4bae43fb-121">
          <g class="color_RGB{N0f8}(0.502,0.502,0.502)" stroke-dasharray="none" stroke="#808080" id="img-4bae43fb-122">
            <g transform="translate(45,28.54)" id="img-4bae43fb-123">
              <path fill="none" d="M-3.25,0 L 3.25 0" class="primitive"/>
            </g>
          </g>
        </g>
        <g class="geometry" stroke="#000000" stroke-opacity="0.000" fill="#4C404B" font-size="2.82" font-family="'PT Sans Caption','Helvetica Neue','Helvetica',sans-serif" id="img-4bae43fb-124">
          <g class="marker" id="img-4bae43fb-125">
            <g transform="translate(33.83,33.76)" id="img-4bae43fb-126">
              <g class="primitive">
                <text text-anchor="middle" dy="-0em" transform="translate(0,-1.9)">0.0419</text>
              </g>
            </g>
          </g>
        </g>
        <g class="geometry" stroke="#000000" stroke-opacity="0.000" fill="#4C404B" font-size="2.82" font-family="'PT Sans Caption','Helvetica Neue','Helvetica',sans-serif" id="img-4bae43fb-127">
          <g class="marker" id="img-4bae43fb-128">
            <g transform="translate(29.35,33.76)" id="img-4bae43fb-129">
              <g class="primitive">
                <text dy="0.35em" transform="translate(1.9,0)"></text>
              </g>
            </g>
            <g transform="translate(38.3,33.76)" id="img-4bae43fb-130">
              <g class="primitive">
                <text dy="0.35em" transform="translate(1.9,0)">Fe L3-M5 + 11 others</text>
              </g>
            </g>
          </g>
        </g>
        <g class="geometry" id="img-4bae43fb-131">
          <g stroke-width="0.3" id="img-4bae43fb-132">
            <g class="color_RGBA{Float32}(0.5019608f0,0.5019608f0,0.5019608f0,1.0f0)" fill-opacity="1" stroke="#FFFFFF" fill="#808080" id="img-4bae43fb-133">
              <g class="marker" id="img-4bae43fb-134">
                <g transform="translate(38.3,33.76)" id="img-4bae43fb-135">
                  <circle cx="0" cy="0" r="0.9" class="primitive"/>
                </g>
              </g>
            </g>
            <g class="color_RGBA{Float32}(0.5019608f0,0.5019608f0,0.5019608f0,1.0f0)" fill-opacity="1" stroke="#FFFFFF" fill="#808080" id="img-4bae43fb-136">
              <g class="marker" id="img-4bae43fb-137">
                <g transform="translate(29.35,33.76)" id="img-4bae43fb-138">
                  <circle cx="0" cy="0" r="0.9" class="primitive"/>
                </g>
              </g>
            </g>
          </g>
        </g>
        <g stroke-width="0.3" fill="#000000" fill-opacity="0.000" class="geometry" id="img-4bae43fb-139">
          <g class="color_RGB{N0f8}(0.502,0.502,0.502)" stroke-dasharray="none" stroke="#808080" id="img-4bae43fb-140">
            <g transform="translate(33.83,33.76)" id="img-4bae43fb-141">
              <path fill="none" d="M-4.47,0 L 4.47 0" class="primitive"/>
            </g>
          </g>
        </g>
        <g class="geometry" stroke="#000000" stroke-opacity="0.000" fill="#4C404B" font-size="2.82" font-family="'PT Sans Caption','Helvetica Neue','Helvetica',sans-serif" id="img-4bae43fb-142">
          <g class="marker" id="img-4bae43fb-143">
            <g transform="translate(30.17,38.98)" id="img-4bae43fb-144">
              <g class="primitive">
                <text text-anchor="middle" dy="-0em" transform="translate(0,-1.9)">0.6556</text>
              </g>
            </g>
          </g>
        </g>
        <g class="geometry" stroke="#000000" stroke-opacity="0.000" fill="#4C404B" font-size="2.82" font-family="'PT Sans Caption','Helvetica Neue','Helvetica',sans-serif" id="img-4bae43fb-145">
          <g class="marker" id="img-4bae43fb-146">
            <g transform="translate(27.52,38.98)" id="img-4bae43fb-147">
              <g class="primitive">
                <text dy="0.35em" transform="translate(1.9,0)"></text>
              </g>
            </g>
            <g transform="translate(32.81,38.98)" id="img-4bae43fb-148">
              <g class="primitive">
                <text dy="0.35em" transform="translate(1.9,0)">O K-L3 + 1 other</text>
              </g>
            </g>
          </g>
        </g>
        <g class="geometry" id="img-4bae43fb-149">
          <g stroke-width="0.3" id="img-4bae43fb-150">
            <g class="color_RGBA{Float32}(0.5019608f0,0.5019608f0,0.5019608f0,1.0f0)" fill-opacity="1" stroke="#FFFFFF" fill="#808080" id="img-4bae43fb-151">
              <g class="marker" id="img-4bae43fb-152">
                <g transform="translate(32.81,38.98)" id="img-4bae43fb-153">
                  <circle cx="0" cy="0" r="0.9" class="primitive"/>
                </g>
              </g>
            </g>
            <g class="color_RGBA{Float32}(0.5019608f0,0.5019608f0,0.5019608f0,1.0f0)" fill-opacity="1" stroke="#FFFFFF" fill="#808080" id="img-4bae43fb-154">
              <g class="marker" id="img-4bae43fb-155">
                <g transform="translate(27.52,38.98)" id="img-4bae43fb-156">
                  <circle cx="0" cy="0" r="0.9" class="primitive"/>
                </g>
              </g>
            </g>
          </g>
        </g>
        <g stroke-width="0.3" fill="#000000" fill-opacity="0.000" class="geometry" id="img-4bae43fb-157">
          <g class="color_RGB{N0f8}(0.502,0.502,0.502)" stroke-dasharray="none" stroke="#808080" id="img-4bae43fb-158">
            <g transform="translate(30.17,38.98)" id="img-4bae43fb-159">
              <path fill="none" d="M-2.64,0 L 2.64 0" class="primitive"/>
            </g>
          </g>
        </g>
        <g stroke-width="0.3" fill="#000000" fill-opacity="0.000" class="geometry" id="img-4bae43fb-160">
          <g class="color_RGB{Float64}(0.06274509803921569,0.3058823529411765,0.5450980392156862)" stroke-dasharray="none" stroke="#104E8B" id="img-4bae43fb-161">
            <g transform="translate(136.41,45.35)" id="img-4bae43fb-162">
              <path fill="none" d="M-114.98,14.52 L -114.78 14.52 -114.78 14.52 -114.58 14.52 -114.58 14.51 -114.37 14.51 -114.37 14.51 -114.17 14.51 -114.17 14.51 -113.97 14.51 -113.97 14.5 -113.76 14.5 -113.76 14.49 -113.56 14.49 -113.56 14.46 -113.36 14.46 -113.36 14.41 -113.16 14.41 -113.16 14.34 -112.95 14.34 -112.95 14.17 -112.75 14.17 -112.75 13.9 -112.55 13.9 -112.55 13.34 -112.34 13.34 -112.34 12.27 -112.14 12.27 -112.14 10.43 -111.94 10.43 -111.94 7.58 -111.73 7.58 -111.73 4.69 -111.53 4.69 -111.53 2.11 -111.33 2.11 -111.33 1.01 -111.12 1.01 -111.12 1.99 -110.92 1.99 -110.92 4.33 -110.72 4.33 -110.72 7.11 -110.51 7.11 -110.51 8.93 -110.31 8.93 -110.31 10.39 -110.11 10.39 -110.11 10.99 -109.9 10.99 -109.9 11.09 -109.7 11.09 -109.7 11.13 -109.5 11.13 -109.5 11.02 -109.29 11.02 -109.29 11.1 -109.09 11.1 -109.09 10.64 -108.89 10.64 -108.89 10.52 -108.68 10.52 -108.68 10.02 -108.48 10.02 -108.48 9.43 -108.28 9.43 -108.28 8.21 -108.07 8.21 -108.07 6.16 -107.87 6.16 -107.87 1.46 -107.67 1.46 -107.67 -7.36 -107.46 -7.36 -107.46 -23.13 -107.26 -23.13 -107.26 -50.28 -107.06 -50.28 -107.06 -92.04 -106.85 -92.04 -106.85 -144.06 -106.65 -144.06 -106.65 -198.62 -106.45 -198.62 -106.45 -238.08 -106.24 -238.08 -106.24 -245.85 -106.04 -245.85 -106.04 -221.13 -105.84 -221.13 -105.84 -172.27 -105.64 -172.27 -105.64 -114.55 -105.43 -114.55 -105.43 -64.4 -105.23 -64.4 -105.23 -28.28 -105.03 -28.28 -105.03 -8.29 -104.82 -8.29 -104.82 1.83 -104.62 1.83 -104.62 6.48 -104.42 6.48 -104.42 7.94 -104.21 7.94 -104.21 8.53 -104.01 8.53 -104.01 8.77 -103.81 8.77 -103.81 8.14 -103.6 8.14 -103.6 7.32 -103.4 7.32 -103.4 5.85 -103.2 5.85 -103.2 3.53 -102.99 3.53 -102.99 0.9 -102.79 0.9 -102.79 -1.82 -102.59 -1.82 -102.59 -3.3 -102.38 -3.3 -102.38 -3.4 -102.18 -3.4 -102.18 -2.29 -101.98 -2.29 -101.98 0.41 -101.77 0.41 -101.77 3.05 -101.57 3.05 -101.57 5.15 -101.37 5.15 -101.37 6.86 -101.16 6.86 -101.16 8.06 -100.96 8.06 -100.96 8.37 -100.76 8.37 -100.76 8.46 -100.55 8.46 -100.55 8.67 -100.35 8.67 -100.35 8.74 -100.15 8.74 -100.15 8.73 -99.94 8.73 -99.94 8.41 -99.74 8.41 -99.74 8.46 -99.54 8.46 -99.54 8.22 -99.33 8.22 -99.33 7.95 -99.13 7.95 -99.13 8.13 -98.93 8.13 -98.93 7.97 -98.73 7.97 -98.73 7.64 -98.52 7.64 -98.52 7.66 -98.32 7.66 -98.32 7.73 -98.12 7.73 -98.12 7.43 -97.91 7.43 -97.91 7.26 -97.71 7.26 -97.71 6.96 -97.51 6.96 -97.51 6.93 -97.3 6.93 -97.3 6.37 -97.1 6.37 -97.1 6.58 -96.9 6.58 -96.9 6.25 -96.69 6.25 -96.69 5.84 -96.49 5.84 -96.49 5.64 -96.29 5.64 -96.29 5.1 -96.08 5.1 -96.08 4.65 -95.88 4.65 -95.88 4.58 -95.68 4.58 -95.68 4.55 -95.47 4.55 -95.47 4.46 -95.27 4.46 -95.27 3.92 -95.07 3.92 -95.07 3.92 -94.86 3.92 -94.86 3.66 -94.66 3.66 -94.66 3.94 -94.46 3.94 -94.46 3.46 -94.25 3.46 -94.25 3.2 -94.05 3.2 -94.05 3.12 -93.85 3.12 -93.85 2.76 -93.64 2.76 -93.64 1.79 -93.44 1.79 -93.44 0.76 -93.24 0.76 -93.24 -1.64 -93.03 -1.64 -93.03 -6.62 -92.83 -6.62 -92.83 -16.17 -92.63 -16.17 -92.63 -31.99 -92.42 -31.99 -92.42 -58.69 -92.22 -58.69 -92.22 -95.48 -92.02 -95.48 -92.02 -141.65 -91.81 -141.65 -91.81 -187.77 -91.61 -187.77 -91.61 -224.82 -91.41 -224.82 -91.41 -243.8 -91.21 -243.8 -91.21 -238.86 -91 -238.86 -91 -212.94 -90.8 -212.94 -90.8 -171.47 -90.6 -171.47 -90.6 -125.5 -90.39 -125.5 -90.39 -83.57 -90.19 -83.57 -90.19 -51.23 -89.99 -51.23 -89.99 -27.51 -89.78 -27.51 -89.78 -13.52 -89.58 -13.52 -89.58 -4.82 -89.38 -4.82 -89.38 -0.82 -89.17 -0.82 -89.17 1.36 -88.97 1.36 -88.97 1.82 -88.77 1.82 -88.77 2.21 -88.56 2.21 -88.56 1.32 -88.36 1.32 -88.36 -0.46 -88.16 -0.46 -88.16 -3.78 -87.95 -3.78 -87.95 -10.51 -87.75 -10.51 -87.75 -20.86 -87.55 -20.86 -87.55 -35.65 -87.34 -35.65 -87.34 -53.4 -87.14 -53.4 -87.14 -72.72 -86.94 -72.72 -86.94 -88.87 -86.73 -88.87 -86.73 -98.83 -86.53 -98.83 -86.53 -100.45 -86.33 -100.45 -86.33 -93.57 -86.12 -93.57 -86.12 -78.08 -85.92 -78.08 -85.92 -60.69 -85.72 -60.69 -85.72 -42.73 -85.51 -42.73 -85.51 -28.08 -85.31 -28.08 -85.31 -16.43 -85.11 -16.43 -85.11 -9.75 -84.9 -9.75 -84.9 -4.64 -84.7 -4.64 -84.7 -1.55 -84.5 -1.55 -84.5 -0.31 -84.29 -0.31 -84.29 0.87 -84.09 0.87 -84.09 1.55 -83.89 1.55 -83.89 0.45 -83.69 0.45 -83.69 -1.12 -83.48 -1.12 -83.48 -5.42 -83.28 -5.42 -83.28 -14.04 -83.08 -14.04 -83.08 -30.02 -82.87 -30.02 -82.87 -59.56 -82.67 -59.56 -82.67 -102.27 -82.47 -102.27 -82.47 -163.19 -82.26 -163.19 -82.26 -238.88 -82.06 -238.88 -82.06 -319.63 -81.86 -319.63 -81.86 -390.96 -81.65 -390.96 -81.65 -448.02 -81.45 -448.02 -81.45 -464.88 -81.25 -464.88 -81.25 -444.09 -81.04 -444.09 -81.04 -390.71 -80.84 -390.71 -80.84 -317.97 -80.64 -317.97 -80.64 -241.62 -80.43 -241.62 -80.43 -171.49 -80.23 -171.49 -80.23 -115.44 -80.03 -115.44 -80.03 -74.27 -79.82 -74.27 -79.82 -47.4 -79.62 -47.4 -79.62 -31.14 -79.42 -31.14 -79.42 -21.29 -79.21 -21.29 -79.21 -14.49 -79.01 -14.49 -79.01 -9.21 -78.81 -9.21 -78.81 -4.71 -78.6 -4.71 -78.6 -1.43 -78.4 -1.43 -78.4 1.22 -78.2 1.22 -78.2 2.83 -77.99 2.83 -77.99 3.51 -77.79 3.51 -77.79 4.01 -77.59 4.01 -77.59 4.75 -77.38 4.75 -77.38 5.07 -77.18 5.07 -77.18 4.92 -76.98 4.92 -76.98 5.13 -76.77 5.13 -76.77 5.38 -76.57 5.38 -76.57 5.59 -76.37 5.59 -76.37 5.6 -76.17 5.6 -76.17 5.91 -75.96 5.91 -75.96 6.25 -75.76 6.25 -75.76 6.14 -75.56 6.14 -75.56 6.61 -75.35 6.61 -75.35 6.66 -75.15 6.66 -75.15 6.64 -74.95 6.64 -74.95 6.56 -74.74 6.56 -74.74 6.69 -74.54 6.69 -74.54 6.81 -74.34 6.81 -74.34 6.55 -74.13 6.55 -74.13 6.56 -73.93 6.56 -73.93 6.65 -73.73 6.65 -73.73 6.63 -73.52 6.63 -73.52 6.94 -73.32 6.94 -73.32 6.38 -73.12 6.38 -73.12 6.61 -72.91 6.61 -72.91 6.43 -72.71 6.43 -72.71 6.65 -72.51 6.65 -72.51 6.66 -72.3 6.66 -72.3 6.31 -72.1 6.31 -72.1 6.22 -71.9 6.22 -71.9 6.04 -71.69 6.04 -71.69 5.98 -71.49 5.98 -71.49 5.89 -71.29 5.89 -71.29 5.78 -71.08 5.78 -71.08 5.72 -70.88 5.72 -70.88 5.8 -70.68 5.8 -70.68 5.66 -70.47 5.66 -70.47 5.57 -70.27 5.57 -70.27 5.97 -70.07 5.97 -70.07 6.11 -69.86 6.11 -69.86 6.2 -69.66 6.2 -69.66 6.12 -69.46 6.12 -69.46 6.21 -69.25 6.21 -69.25 6.29 -69.05 6.29 -69.05 6.22 -68.85 6.22 -68.85 6.5 -68.65 6.5 -68.65 6.48 -68.44 6.48 -68.44 6.5 -68.24 6.5 -68.24 6.49 -68.04 6.49 -68.04 6.51 -67.83 6.51 -67.83 6.54 -67.63 6.54 -67.63 6.62 -67.43 6.62 -67.43 6.29 -67.22 6.29 -67.22 6.56 -67.02 6.56 -67.02 6.54 -66.82 6.54 -66.82 6.28 -66.61 6.28 -66.61 6.46 -66.41 6.46 -66.41 6.46 -66.21 6.46 -66.21 6.38 -66 6.38 -66 6.59 -65.8 6.59 -65.8 6.4 -65.6 6.4 -65.6 6.5 -65.39 6.5 -65.39 6.19 -65.19 6.19 -65.19 6.61 -64.99 6.61 -64.99 6.38 -64.78 6.38 -64.78 6.27 -64.58 6.27 -64.58 6.94 -64.38 6.94 -64.38 6.42 -64.17 6.42 -64.17 6.65 -63.97 6.65 -63.97 6.51 -63.77 6.51 -63.77 6.61 -63.56 6.61 -63.56 6.6 -63.36 6.6 -63.36 6.44 -63.16 6.44 -63.16 6.71 -62.95 6.71 -62.95 6.59 -62.75 6.59 -62.75 6.62 -62.55 6.62 -62.55 6.63 -62.34 6.63 -62.34 6.75 -62.14 6.75 -62.14 6.63 -61.94 6.63 -61.94 6.74 -61.73 6.74 -61.73 6.77 -61.53 6.77 -61.53 6.45 -61.33 6.45 -61.33 6.73 -61.13 6.73 -61.13 6.72 -60.92 6.72 -60.92 6.76 -60.72 6.76 -60.72 6.89 -60.52 6.89 -60.52 6.71 -60.31 6.71 -60.31 6.63 -60.11 6.63 -60.11 7.01 -59.91 7.01 -59.91 6.92 -59.7 6.92 -59.7 6.91 -59.5 6.91 -59.5 6.83 -59.3 6.83 -59.3 6.73 -59.09 6.73 -59.09 6.8 -58.89 6.8 -58.89 7.04 -58.69 7.04 -58.69 6.93 -58.48 6.93 -58.48 6.69 -58.28 6.69 -58.28 6.97 -58.08 6.97 -58.08 6.78 -57.87 6.78 -57.87 6.71 -57.67 6.71 -57.67 6.67 -57.47 6.67 -57.47 6.75 -57.26 6.75 -57.26 6.96 -57.06 6.96 -57.06 6.71 -56.86 6.71 -56.86 6.62 -56.65 6.62 -56.65 6.44 -56.45 6.44 -56.45 6.47 -56.25 6.47 -56.25 6.5 -56.04 6.5 -56.04 6.53 -55.84 6.53 -55.84 6.7 -55.64 6.7 -55.64 6.65 -55.43 6.65 -55.43 6.85 -55.23 6.85 -55.23 6.84 -55.03 6.84 -55.03 6.87 -54.82 6.87 -54.82 7.12 -54.62 7.12 -54.62 6.93 -54.42 6.93 -54.42 7.07 -54.21 7.07 -54.21 7.14 -54.01 7.14 -54.01 7.16 -53.81 7.16 -53.81 7.13 -53.61 7.13 -53.61 7.32 -53.4 7.32 -53.4 7.35 -53.2 7.35 -53.2 7.08 -53 7.08 -53 7.27 -52.79 7.27 -52.79 7.12 -52.59 7.12 -52.59 6.98 -52.39 6.98 -52.39 7.11 -52.18 7.11 -52.18 7.12 -51.98 7.12 -51.98 7.14 -51.78 7.14 -51.78 7.28 -51.57 7.28 -51.57 7.11 -51.37 7.11 -51.37 7.01 -51.17 7.01 -51.17 7.32 -50.96 7.32 -50.96 7.17 -50.76 7.17 -50.76 6.91 -50.56 6.91 -50.56 7.51 -50.35 7.51 -50.35 7.17 -50.15 7.17 -50.15 7.46 -49.95 7.46 -49.95 7.29 -49.74 7.29 -49.74 7.26 -49.54 7.26 -49.54 7.3 -49.34 7.3 -49.34 7.52 -49.13 7.52 -49.13 7.76 -48.93 7.76 -48.93 7.7 -48.73 7.7 -48.73 7.58 -48.52 7.58 -48.52 7.47 -48.32 7.47 -48.32 7.5 -48.12 7.5 -48.12 7.63 -47.91 7.63 -47.91 7.76 -47.71 7.76 -47.71 7.47 -47.51 7.47 -47.51 7.7 -47.3 7.7 -47.3 7.77 -47.1 7.77 -47.1 7.64 -46.9 7.64 -46.9 7.44 -46.69 7.44 -46.69 7.32 -46.49 7.32 -46.49 7.47 -46.29 7.47 -46.29 7.4 -46.09 7.4 -46.09 7.28 -45.88 7.28 -45.88 7.08 -45.68 7.08 -45.68 7.21 -45.48 7.21 -45.48 6.8 -45.27 6.8 -45.27 6.7 -45.07 6.7 -45.07 6.56 -44.87 6.56 -44.87 6.26 -44.66 6.26 -44.66 5.53 -44.46 5.53 -44.46 4.49 -44.26 4.49 -44.26 3.01 -44.05 3.01 -44.05 -0.27 -43.85 -0.27 -43.85 -4.55 -43.65 -4.55 -43.65 -10.97 -43.44 -10.97 -43.44 -20.57 -43.24 -20.57 -43.24 -32.96 -43.04 -32.96 -43.04 -49.12 -42.83 -49.12 -42.83 -67.77 -42.63 -67.77 -42.63 -87.77 -42.43 -87.77 -42.43 -106.24 -42.22 -106.24 -42.22 -124.34 -42.02 -124.34 -42.02 -136.54 -41.82 -136.54 -41.82 -141.54 -41.61 -141.54 -41.61 -141.56 -41.41 -141.56 -41.41 -132.86 -41.21 -132.86 -41.21 -118.64 -41 -118.64 -41 -102.21 -40.8 -102.21 -40.8 -81.44 -40.6 -81.44 -40.6 -62.49 -40.39 -62.49 -40.39 -43.39 -40.19 -43.39 -40.19 -28.8 -39.99 -28.8 -39.99 -17.03 -39.78 -17.03 -39.78 -8.31 -39.58 -8.31 -39.58 -2.4 -39.38 -2.4 -39.38 1.95 -39.17 1.95 -39.17 4.65 -38.97 4.65 -38.97 5.83 -38.77 5.83 -38.77 7.24 -38.57 7.24 -38.57 7.43 -38.36 7.43 -38.36 7.85 -38.16 7.85 -38.16 7.81 -37.96 7.81 -37.96 7.81 -37.75 7.81 -37.75 7.38 -37.55 7.38 -37.55 7.38 -37.35 7.38 -37.35 6.53 -37.14 6.53 -37.14 5.85 -36.94 5.85 -36.94 4.74 -36.74 4.74 -36.74 2.96 -36.53 2.96 -36.53 1.4 -36.33 1.4 -36.33 -0.72 -36.13 -0.72 -36.13 -3.11 -35.92 -3.11 -35.92 -5.08 -35.72 -5.08 -35.72 -7.06 -35.52 -7.06 -35.52 -7.97 -35.31 -7.97 -35.31 -9.31 -35.11 -9.31 -35.11 -9.17 -34.91 -9.17 -34.91 -8.43 -34.7 -8.43 -34.7 -7.14 -34.5 -7.14 -34.5 -5.35 -34.3 -5.35 -34.3 -3.14 -34.09 -3.14 -34.09 -0.65 -33.89 -0.65 -33.89 1.63 -33.69 1.63 -33.69 3.5 -33.48 3.5 -33.48 5.28 -33.28 5.28 -33.28 6.48 -33.08 6.48 -33.08 7.45 -32.87 7.45 -32.87 7.94 -32.67 7.94 -32.67 8.57 -32.47 8.57 -32.47 9.14 -32.26 9.14 -32.26 8.94 -32.06 8.94 -32.06 9.08 -31.86 9.08 -31.86 9.01 -31.65 9.01 -31.65 9.28 -31.45 9.28 -31.45 9.31 -31.25 9.31 -31.25 9.23 -31.05 9.23 -31.05 9.31 -30.84 9.31 -30.84 9.21 -30.64 9.21 -30.64 9.37 -30.44 9.37 -30.44 9.32 -30.23 9.32 -30.23 9.5 -30.03 9.5 -30.03 9.28 -29.83 9.28 -29.83 9.68 -29.62 9.68 -29.62 9.62 -29.42 9.62 -29.42 9.58 -29.22 9.58 -29.22 9.56 -29.01 9.56 -29.01 9.58 -28.81 9.58 -28.81 9.5 -28.61 9.5 -28.61 9.83 -28.4 9.83 -28.4 9.54 -28.2 9.54 -28.2 9.69 -28 9.69 -28 9.73 -27.79 9.73 -27.79 9.56 -27.59 9.56 -27.59 9.7 -27.39 9.7 -27.39 9.9 -27.18 9.9 -27.18 9.68 -26.98 9.68 -26.98 9.63 -26.78 9.63 -26.78 9.87 -26.57 9.87 -26.57 9.67 -26.37 9.67 -26.37 9.71 -26.17 9.71 -26.17 9.96 -25.96 9.96 -25.96 9.8 -25.76 9.8 -25.76 9.8 -25.56 9.8 -25.56 9.83 -25.35 9.83 -25.35 9.72 -25.15 9.72 -25.15 9.85 -24.95 9.85 -24.95 9.66 -24.74 9.66 -24.74 9.93 -24.54 9.93 -24.54 9.9 -24.34 9.9 -24.34 9.95 -24.14 9.95 -24.14 9.85 -23.93 9.85 -23.93 10.03 -23.73 10.03 -23.73 9.82 -23.53 9.82 -23.53 9.86 -23.32 9.86 -23.32 9.94 -23.12 9.94 -23.12 9.77 -22.92 9.77 -22.92 9.64 -22.71 9.64 -22.71 9.89 -22.51 9.89 -22.51 9.92 -22.31 9.92 -22.31 9.76 -22.1 9.76 -22.1 10 -21.9 10 -21.9 10.11 -21.7 10.11 -21.7 10.01 -21.49 10.01 -21.49 9.94 -21.29 9.94 -21.29 9.97 -21.09 9.97 -21.09 9.83 -20.88 9.83 -20.88 10.01 -20.68 10.01 -20.68 10 -20.48 10 -20.48 10.21 -20.27 10.21 -20.27 10.19 -20.07 10.19 -20.07 10.16 -19.87 10.16 -19.87 10.2 -19.66 10.2 -19.66 10.17 -19.46 10.17 -19.46 10.07 -19.26 10.07 -19.26 10.26 -19.05 10.26 -19.05 10.28 -18.85 10.28 -18.85 10.28 -18.65 10.28 -18.65 10.47 -18.44 10.47 -18.44 10.19 -18.24 10.19 -18.24 10.15 -18.04 10.15 -18.04 10.21 -17.83 10.21 -17.83 10.35 -17.63 10.35 -17.63 10.26 -17.43 10.26 -17.43 10.13 -17.22 10.13 -17.22 10.26 -17.02 10.26 -17.02 10.14 -16.82 10.14 -16.82 10.2 -16.62 10.2 -16.62 10.23 -16.41 10.23 -16.41 10.25 -16.21 10.25 -16.21 10.14 -16.01 10.14 -16.01 10.36 -15.8 10.36 -15.8 10.25 -15.6 10.25 -15.6 10.2 -15.4 10.2 -15.4 10.19 -15.19 10.19 -15.19 10.24 -14.99 10.24 -14.99 10.23 -14.79 10.23 -14.79 10.5 -14.58 10.5 -14.58 10.48 -14.38 10.48 -14.38 10.4 -14.18 10.4 -14.18 10.5 -13.97 10.5 -13.97 10.43 -13.77 10.43 -13.77 10.64 -13.57 10.64 -13.57 10.42 -13.36 10.42 -13.36 10.45 -13.16 10.45 -13.16 10.35 -12.96 10.35 -12.96 10.46 -12.75 10.46 -12.75 10.48 -12.55 10.48 -12.55 10.47 -12.35 10.47 -12.35 10.51 -12.14 10.51 -12.14 10.62 -11.94 10.62 -11.94 10.57 -11.74 10.57 -11.74 10.41 -11.53 10.41 -11.53 10.48 -11.33 10.48 -11.33 10.39 -11.13 10.39 -11.13 10.5 -10.92 10.5 -10.92 10.55 -10.72 10.55 -10.72 10.53 -10.52 10.53 -10.52 10.57 -10.31 10.57 -10.31 10.46 -10.11 10.46 -10.11 10.62 -9.91 10.62 -9.91 10.55 -9.7 10.55 -9.7 10.59 -9.5 10.59 -9.5 10.54 -9.3 10.54 -9.3 10.72 -9.1 10.72 -9.1 10.65 -8.89 10.65 -8.89 10.48 -8.69 10.48 -8.69 10.64 -8.49 10.64 -8.49 10.75 -8.28 10.75 -8.28 10.72 -8.08 10.72 -8.08 10.58 -7.88 10.58 -7.88 10.6 -7.67 10.6 -7.67 10.53 -7.47 10.53 -7.47 10.48 -7.27 10.48 -7.27 10.32 -7.06 10.32 -7.06 10.41 -6.86 10.41 -6.86 10.39 -6.66 10.39 -6.66 10.53 -6.45 10.53 -6.45 10.51 -6.25 10.51 -6.25 10.52 -6.05 10.52 -6.05 10.48 -5.84 10.48 -5.84 10.51 -5.64 10.51 -5.64 10.52 -5.44 10.52 -5.44 10.49 -5.23 10.49 -5.23 10.78 -5.03 10.78 -5.03 10.78 -4.83 10.78 -4.83 10.71 -4.62 10.71 -4.62 10.74 -4.42 10.74 -4.42 10.86 -4.22 10.86 -4.22 10.8 -4.01 10.8 -4.01 10.92 -3.81 10.92 -3.81 10.85 -3.61 10.85 -3.61 10.77 -3.4 10.77 -3.4 10.86 -3.2 10.86 -3.2 10.96 -3 10.96 -3 10.89 -2.79 10.89 -2.79 10.93 -2.59 10.93 -2.59 10.9 -2.39 10.9 -2.39 10.89 -2.18 10.89 -2.18 11.16 -1.98 11.16 -1.98 11.01 -1.78 11.01 -1.78 11.11 -1.58 11.11 -1.58 11.11 -1.37 11.11 -1.37 11 -1.17 11 -1.17 11.08 -0.97 11.08 -0.97 10.96 -0.76 10.96 -0.76 11 -0.56 11 -0.56 11.14 -0.36 11.14 -0.36 10.94 -0.15 10.94 -0.15 11.15 0.05 11.15 0.05 10.93 0.25 10.93 0.25 11.17 0.46 11.17 0.46 11.14 0.66 11.14 0.66 11.12 0.86 11.12 0.86 11.03 1.07 11.03 1.07 11.09 1.27 11.09 1.27 10.92 1.47 10.92 1.47 11 1.68 11 1.68 10.96 1.88 10.96 1.88 10.81 2.08 10.81 2.08 10.92 2.29 10.92 2.29 10.94 2.49 10.94 2.49 10.69 2.69 10.69 2.69 10.79 2.9 10.79 2.9 10.87 3.1 10.87 3.1 10.74 3.3 10.74 3.3 10.91 3.51 10.91 3.51 10.91 3.71 10.91 3.71 10.93 3.91 10.93 3.91 11.02 4.12 11.02 4.12 11.11 4.32 11.11 4.32 11.1 4.52 11.1 4.52 11.04 4.73 11.04 4.73 11.09 4.93 11.09 4.93 11.36 5.13 11.36 5.13 11.14 5.34 11.14 5.34 11.28 5.54 11.28 5.54 11.29 5.74 11.29 5.74 11.27 5.94 11.27 5.94 11.19 6.15 11.19 6.15 11.26 6.35 11.26 6.35 11.28 6.55 11.28 6.55 11.45 6.76 11.45 6.76 11.33 6.96 11.33 6.96 11.39 7.16 11.39 7.16 11.41 7.37 11.41 7.37 11.35 7.57 11.35 7.57 11.38 7.77 11.38 7.77 11.23 7.98 11.23 7.98 11.57 8.18 11.57 8.18 11.4 8.38 11.4 8.38 11.4 8.59 11.4 8.59 11.2 8.79 11.2 8.79 11.18 8.99 11.18 8.99 11.22 9.2 11.22 9.2 11.35 9.4 11.35 9.4 11.34 9.6 11.34 9.6 10.94 9.81 10.94 9.81 10.87 10.01 10.87 10.01 10.5 10.21 10.5 10.21 10.01 10.42 10.01 10.42 9.33 10.62 9.33 10.62 8.62 10.82 8.62 10.82 7.1 11.03 7.1 11.03 5.09 11.23 5.09 11.23 3.03 11.43 3.03 11.43 0.29 11.64 0.29 11.64 -3.04 11.84 -3.04 11.84 -6.8 12.04 -6.8 12.04 -10.44 12.25 -10.44 12.25 -14.71 12.45 -14.71 12.45 -18.98 12.65 -18.98 12.65 -22.25 12.86 -22.25 12.86 -24.69 13.06 -24.69 13.06 -26.9 13.26 -26.9 13.26 -27.34 13.46 -27.34 13.46 -26.2 13.67 -26.2 13.67 -25.03 13.87 -25.03 13.87 -21.72 14.07 -21.72 14.07 -17.71 14.28 -17.71 14.28 -14.91 14.48 -14.91 14.48 -10.66 14.68 -10.66 14.68 -6.9 14.89 -6.9 14.89 -2.59 15.09 -2.59 15.09 0.37 15.29 0.37 15.29 3.1 15.5 3.1 15.5 5.43 15.7 5.43 15.7 7.33 15.9 7.33 15.9 8.72 16.11 8.72 16.11 9.65 16.31 9.65 16.31 10.4 16.51 10.4 16.51 10.93 16.72 10.93 16.72 11.15 16.92 11.15 16.92 11.32 17.12 11.32 17.12 11.44 17.33 11.44 17.33 11.66 17.53 11.66 17.53 11.55 17.73 11.55 17.73 11.76 17.94 11.76 17.94 11.84 18.14 11.84 18.14 11.76 18.34 11.76 18.34 11.69 18.55 11.69 18.55 11.7 18.75 11.7 18.75 11.61 18.95 11.61 18.95 11.79 19.16 11.79 19.16 11.83 19.36 11.83 19.36 11.85 19.56 11.85 19.56 11.72 19.77 11.72 19.77 11.87 19.97 11.87 19.97 11.71 20.17 11.71 20.17 11.78 20.38 11.78 20.38 11.67 20.58 11.67 20.58 11.91 20.78 11.91 20.78 11.87 20.98 11.87 20.98 11.89 21.19 11.89 21.19 11.95 21.39 11.95 21.39 11.86 21.59 11.86 21.59 11.86 21.8 11.86 21.8 11.9 22 11.9 22 11.83 22.2 11.83 22.2 11.9 22.41 11.9 22.41 11.77 22.61 11.77 22.61 11.86 22.81 11.86 22.81 11.66 23.02 11.66 23.02 11.69 23.22 11.69 23.22 11.63 23.42 11.63 23.42 11.59 23.63 11.59 23.63 11.54 23.83 11.54 23.83 11.27 24.03 11.27 24.03 11.15 24.24 11.15 24.24 11.14 24.44 11.14 24.44 10.66 24.64 10.66 24.64 10.51 24.85 10.51 24.85 9.98 25.05 9.98 25.05 9.79 25.25 9.79 25.25 9.12 25.46 9.12 25.46 8.85 25.66 8.85 25.66 8.26 25.86 8.26 25.86 7.93 26.07 7.93 26.07 7.49 26.27 7.49 26.27 7.21 26.47 7.21 26.47 7.21 26.68 7.21 26.68 7 26.88 7 26.88 7.31 27.08 7.31 27.08 7.62 27.29 7.62 27.29 7.94 27.49 7.94 27.49 8.32 27.69 8.32 27.69 8.81 27.9 8.81 27.9 9.45 28.1 9.45 28.1 9.83 28.3 9.83 28.3 10.36 28.5 10.36 28.5 10.74 28.71 10.74 28.71 11.04 28.91 11.04 28.91 11.3 29.11 11.3 29.11 11.53 29.32 11.53 29.32 11.74 29.52 11.74 29.52 11.96 29.72 11.96 29.72 12.02 29.93 12.02 29.93 11.95 30.13 11.95 30.13 12.16 30.33 12.16 30.33 12.24 30.54 12.24 30.54 12.2 30.74 12.2 30.74 12.23 30.94 12.23 30.94 12.1 31.15 12.1 31.15 12.31 31.35 12.31 31.35 12.18 31.55 12.18 31.55 12.26 31.76 12.26 31.76 12.22 31.96 12.22 31.96 12.23 32.16 12.23 32.16 12.29 32.37 12.29 32.37 12.11 32.57 12.11 32.57 12.24 32.77 12.24 32.77 12.35 32.98 12.35 32.98 12.25 33.18 12.25 33.18 12.18 33.38 12.18 33.38 12.11 33.59 12.11 33.59 12.23 33.79 12.23 33.79 12.31 33.99 12.31 33.99 12.18 34.2 12.18 34.2 12.26 34.4 12.26 34.4 12.16 34.6 12.16 34.6 12.35 34.81 12.35 34.81 12.3 35.01 12.3 35.01 12.29 35.21 12.29 35.21 12.17 35.42 12.17 35.42 12.28 35.62 12.28 35.62 12.24 35.82 12.24 35.82 12.24 36.02 12.24 36.02 12.26 36.23 12.26 36.23 12.34 36.43 12.34 36.43 12.34 36.63 12.34 36.63 12.3 36.84 12.3 36.84 12.29 37.04 12.29 37.04 12.41 37.24 12.41 37.24 12.32 37.45 12.32 37.45 12.39 37.65 12.39 37.65 12.36 37.85 12.36 37.85 12.47 38.06 12.47 38.06 12.34 38.26 12.34 38.26 12.29 38.46 12.29 38.46 12.42 38.67 12.42 38.67 12.39 38.87 12.39 38.87 12.46 39.07 12.46 39.07 12.34 39.28 12.34 39.28 12.45 39.48 12.45 39.48 12.37 39.68 12.37 39.68 12.33 39.89 12.33 39.89 12.36 40.09 12.36 40.09 12.51 40.29 12.51 40.29 12.4 40.5 12.4 40.5 12.43 40.7 12.43 40.7 12.47 40.9 12.47 40.9 12.52 41.11 12.52 41.11 12.5 41.31 12.5 41.31 12.5 41.51 12.5 41.51 12.36 41.72 12.36 41.72 12.42 41.92 12.42 41.92 12.46 42.12 12.46 42.12 12.55 42.33 12.55 42.33 12.5 42.53 12.5 42.53 12.48 42.73 12.48 42.73 12.46 42.93 12.46 42.93 12.57 43.14 12.57 43.14 12.45 43.34 12.45 43.34 12.6 43.54 12.6 43.54 12.51 43.75 12.51 43.75 12.51 43.95 12.51 43.95 12.51 44.15 12.51 44.15 12.55 44.36 12.55 44.36 12.52 44.56 12.52 44.56 12.62 44.76 12.62 44.76 12.52 44.97 12.52 44.97 12.54 45.17 12.54 45.17 12.69 45.37 12.69 45.37 12.55 45.58 12.55 45.58 12.55 45.78 12.55 45.78 12.52 45.98 12.52 45.98 12.54 46.19 12.54 46.19 12.57 46.39 12.57 46.39 12.57 46.59 12.57 46.59 12.46 46.8 12.46 46.8 12.62 47 12.62 47 12.47 47.2 12.47 47.2 12.53 47.41 12.53 47.41 12.62 47.61 12.62 47.61 12.56 47.81 12.56 47.81 12.53 48.02 12.53 48.02 12.54 48.22 12.54 48.22 12.68 48.42 12.68 48.42 12.58 48.63 12.58 48.63 12.59 48.83 12.59 48.83 12.63 49.03 12.63 49.03 12.62 49.24 12.62 49.24 12.68 49.44 12.68 49.44 12.66 49.64 12.66 49.64 12.8 49.85 12.8 49.85 12.38 50.05 12.38 50.05 12.68 50.25 12.68 50.25 12.57 50.45 12.57 50.45 12.58 50.66 12.58 50.66 12.66 50.86 12.66 50.86 12.6 51.06 12.6 51.06 12.71 51.27 12.71 51.27 12.73 51.47 12.73 51.47 12.75 51.67 12.75 51.67 12.68 51.88 12.68 51.88 12.73 52.08 12.73 52.08 12.7 52.28 12.7 52.28 12.66 52.49 12.66 52.49 12.82 52.69 12.82 52.69 12.74 52.89 12.74 52.89 12.68 53.1 12.68 53.1 12.74 53.3 12.74 53.3 12.74 53.5 12.74 53.5 12.79 53.71 12.79 53.71 12.74 53.91 12.74 53.91 12.8 54.11 12.8 54.11 12.66 54.32 12.66 54.32 12.81 54.52 12.81 54.52 12.71 54.72 12.71 54.72 12.89 54.93 12.89 54.93 12.91 55.13 12.91 55.13 12.77 55.33 12.77 55.33 12.78 55.54 12.78 55.54 12.9 55.74 12.9 55.74 12.82 55.94 12.82 55.94 12.81 56.15 12.81 56.15 12.78 56.35 12.78 56.35 12.96 56.55 12.96 56.55 12.86 56.76 12.86 56.76 12.87 56.96 12.87 56.96 12.75 57.16 12.75 57.16 12.91 57.37 12.91 57.37 13 57.57 13 57.57 12.8 57.77 12.8 57.77 12.84 57.97 12.84 57.97 12.82 58.18 12.82 58.18 12.79 58.38 12.79 58.38 12.93 58.58 12.93 58.58 12.82 58.79 12.82 58.79 12.88 58.99 12.88 58.99 12.78 59.19 12.78 59.19 12.86 59.4 12.86 59.4 12.92 59.6 12.92 59.6 12.83 59.8 12.83 59.8 12.86 60.01 12.86 60.01 12.94 60.21 12.94 60.21 12.82 60.41 12.82 60.41 12.81 60.62 12.81 60.62 12.92 60.82 12.92 60.82 12.95 61.02 12.95 61.02 12.87 61.23 12.87 61.23 12.99 61.43 12.99 61.43 12.85 61.63 12.85 61.63 12.94 61.84 12.94 61.84 12.96 62.04 12.96 62.04 12.97 62.24 12.97 62.24 12.82 62.45 12.82 62.45 12.86 62.65 12.86 62.65 13 62.85 13 62.85 12.88 63.06 12.88 63.06 12.91 63.26 12.91 63.26 12.97 63.46 12.97 63.46 12.96 63.67 12.96 63.67 12.94 63.87 12.94 63.87 12.96 64.07 12.96 64.07 12.9 64.28 12.9 64.28 13.01 64.48 13.01 64.48 12.92 64.68 12.92 64.68 12.96 64.89 12.96 64.89 12.97 65.09 12.97 65.09 12.95 65.29 12.95 65.29 12.89 65.49 12.89 65.49 12.96 65.7 12.96 65.7 13.09 65.9 13.09 65.9 12.95 66.1 12.95 66.1 12.9 66.31 12.9 66.31 12.95 66.51 12.95 66.51 12.97 66.71 12.97 66.71 12.97 66.92 12.97 66.92 12.98 67.12 12.98 67.12 13.01 67.32 13.01 67.32 13 67.53 13 67.53 12.98 67.73 12.98 67.73 13.01 67.93 13.01 67.93 12.97 68.14 12.97 68.14 13.05 68.34 13.05 68.34 13.13 68.54 13.13 68.54 13.14 68.75 13.14 68.75 13.03 68.95 13.03 68.95 13.02 69.15 13.02 69.15 12.99 69.36 12.99 69.36 12.98 69.56 12.98 69.56 13.04 69.76 13.04 69.76 12.95 69.97 12.95 69.97 13.15 70.17 13.15 70.17 13.16 70.37 13.16 70.37 13.07 70.58 13.07 70.58 13.1 70.78 13.1 70.78 13.04 70.98 13.04 70.98 13.07 71.19 13.07 71.19 13.17 71.39 13.17 71.39 13.18 71.59 13.18 71.59 13.01 71.8 13.01 71.8 13.03 72 13.03 72 13.16 72.2 13.16 72.2 13.06 72.41 13.06 72.41 13.14 72.61 13.14 72.61 13.08 72.81 13.08 72.81 13.03 73.01 13.03 73.01 13.1 73.22 13.1 73.22 13.12 73.42 13.12 73.42 13.12 73.62 13.12 73.62 13.14 73.83 13.14 73.83 13.05 74.03 13.05 74.03 13.18 74.23 13.18 74.23 13.13 74.44 13.13 74.44 13.15 74.64 13.15 74.64 13.24 74.84 13.24 74.84 13.23 75.05 13.23 75.05 13.17 75.25 13.17 75.25 13.17 75.45 13.17 75.45 13.2 75.66 13.2 75.66 13.22 75.86 13.22 75.86 13.08 76.06 13.08 76.06 13.17 76.27 13.17 76.27 13.15 76.47 13.15 76.47 13.23 76.67 13.23 76.67 13.1 76.88 13.1 76.88 13.14 77.08 13.14 77.08 13.19 77.28 13.19 77.28 13.23 77.49 13.23 77.49 13.06 77.69 13.06 77.69 13.1 77.89 13.1 77.89 13.29 78.1 13.29 78.1 13.24 78.3 13.24 78.3 13.27 78.5 13.27 78.5 13.11 78.71 13.11 78.71 13.25 78.91 13.25 78.91 13.2 79.11 13.2 79.11 13.25 79.32 13.25 79.32 13.28 79.52 13.28 79.52 13.17 79.72 13.17 79.72 13.35 79.93 13.35 79.93 13.25 80.13 13.25 80.13 13.22 80.33 13.22 80.33 13.18 80.53 13.18 80.53 13.21 80.74 13.21 80.74 13.27 80.94 13.27 80.94 13.32 81.14 13.32 81.14 13.25 81.35 13.25 81.35 13.18 81.55 13.18 81.55 13.31 81.75 13.31 81.75 13.22 81.96 13.22 81.96 13.25 82.16 13.25 82.16 13.23 82.36 13.23 82.36 13.29 82.57 13.29 82.57 13.3 82.77 13.3 82.77 13.28 82.97 13.28 82.97 13.29 83.18 13.29 83.18 13.3 83.38 13.3 83.38 13.23 83.58 13.23 83.58 13.33 83.79 13.33 83.79 13.27 83.99 13.27 83.99 13.26 84.19 13.26 84.19 13.26 84.4 13.26 84.4 13.3 84.6 13.3 84.6 13.24 84.8 13.24 84.8 13.32 85.01 13.32 85.01 13.22 85.21 13.22 85.21 13.29 85.41 13.29 85.41 13.34 85.62 13.34 85.62 13.37 85.82 13.37 85.82 13.41 86.02 13.41 86.02 13.24 86.23 13.24 86.23 13.33 86.43 13.33 86.43 13.4 86.63 13.4 86.63 13.33 86.84 13.33 86.84 13.33 87.04 13.33 87.04 13.37 87.24 13.37 87.24 13.35 87.45 13.35 87.45 13.3 87.65 13.3 87.65 13.41 87.85 13.41 87.85 13.34 88.05 13.34 88.05 13.37 88.26 13.37 88.26 13.29 88.46 13.29 88.46 13.26 88.66 13.26 88.66 13.33 88.87 13.33 88.87 13.37 89.07 13.37 89.07 13.34 89.27 13.34 89.27 13.31 89.48 13.31 89.48 13.36 89.68 13.36 89.68 13.34 89.88 13.34 89.88 13.35 90.09 13.35 90.09 13.49 90.29 13.49 90.29 13.36 90.49 13.36 90.49 13.39 90.7 13.39 90.7 13.49 90.9 13.49 90.9 13.38 91.1 13.38 91.1 13.38 91.31 13.38 91.31 13.34 91.51 13.34 91.51 13.43 91.71 13.43 91.71 13.35 91.92 13.35 91.92 13.47 92.12 13.47 92.12 13.35 92.32 13.35 92.32 13.45 92.53 13.45 92.53 13.38 92.73 13.38 92.73 13.39 92.93 13.39 92.93 13.34 93.14 13.34 93.14 13.4 93.34 13.4 93.34 13.41 93.54 13.41 93.54 13.47 93.75 13.47 93.75 13.47 93.95 13.47 93.95 13.39 94.15 13.39 94.15 13.43 94.36 13.43 94.36 13.4 94.56 13.4 94.56 13.45 94.76 13.45 94.76 13.45 94.97 13.45 94.97 13.5 95.17 13.5 95.17 13.45 95.37 13.45 95.37 13.34 95.57 13.34 95.57 13.36 95.78 13.36 95.78 13.48 95.98 13.48 95.98 13.4 96.18 13.4 96.18 13.49 96.39 13.49 96.39 13.45 96.59 13.45 96.59 13.47 96.79 13.47 96.79 13.56 97 13.56 97 13.44 97.2 13.44 97.2 13.4 97.4 13.4 97.4 13.44 97.61 13.44 97.61 13.46 97.81 13.46 97.81 13.39 98.01 13.39 98.01 13.51 98.22 13.51 98.22 13.4 98.42 13.4 98.42 13.44 98.62 13.44 98.62 13.52 98.83 13.52 98.83 13.46 99.03 13.46 99.03 13.47 99.23 13.47 99.23 13.53 99.44 13.53 99.44 13.44 99.64 13.44 99.64 13.48 99.84 13.48 99.84 13.52 100.05 13.52 100.05 13.55 100.25 13.55 100.25 13.52 100.45 13.52 100.45 13.52 100.66 13.52 100.66 13.56 100.86 13.56 100.86 13.53 101.06 13.53 101.06 13.57 101.27 13.57 101.27 13.52 101.47 13.52 101.47 13.58 101.67 13.58 101.67 13.53 101.88 13.53 101.88 13.59 102.08 13.59 102.08 13.53 102.28 13.53 102.28 13.5 102.49 13.5 102.49 13.55 102.69 13.55 102.69 13.56 102.89 13.56 102.89 13.63 103.09 13.63 103.09 13.52 103.3 13.52 103.3 13.62 103.5 13.62 103.5 13.47 103.7 13.47 103.7 13.62 103.91 13.62 103.91 13.64 104.11 13.64 104.11 13.52 104.31 13.52 104.31 13.59 104.52 13.59 104.52 13.6 104.72 13.6 104.72 13.56 104.92 13.56 104.92 13.6 105.13 13.6 105.13 13.58 105.33 13.58 105.33 13.6 105.53 13.6 105.53 13.64 105.74 13.64 105.74 13.62 105.94 13.62 105.94 13.52 106.14 13.52 106.14 13.69 106.35 13.69 106.35 13.59 106.55 13.59 106.55 13.61 106.75 13.61 106.75 13.62 106.96 13.62 106.96 13.58 107.16 13.58 107.16 13.6 107.36 13.6 107.36 13.65 107.57 13.65 107.57 13.57 107.77 13.57 107.77 13.59 107.97 13.59 107.97 13.6 108.18 13.6 108.18 13.58 108.38 13.58 108.38 13.65 108.58 13.65 108.58 13.65 108.79 13.65 108.79 13.69 108.99 13.69 108.99 13.62 109.19 13.62 109.19 13.62 109.4 13.62 109.4 13.67 109.6 13.67 109.6 13.67 109.8 13.67 109.8 13.68 110.01 13.68 110.01 13.65 110.21 13.65 110.21 13.63 110.41 13.63 110.41 13.62 110.61 13.62 110.61 13.58 110.82 13.58 110.82 13.68 111.02 13.68 111.02 13.64 111.22 13.64 111.22 13.71 111.43 13.71 111.43 13.66 111.63 13.66 111.63 13.67 111.83 13.67 111.83 13.69 112.04 13.69 112.04 13.63 112.24 13.63 112.24 13.72 112.44 13.72 112.44 13.6 112.65 13.6 112.65 13.62 112.85 13.62 112.85 13.67 113.05 13.67 113.05 13.73 113.26 13.73 113.26 13.72 113.46 13.72 113.46 13.67 113.66 13.67 113.66 13.75 113.87 13.75 113.87 13.68 114.07 13.68 114.07 13.69 114.27 13.69 114.27 13.69 114.48 13.69 114.48 13.68 114.68 13.68 114.68 13.75 114.88 13.75 114.88 13.71" class="primitive"/>
            </g>
          </g>
        </g>
        <g stroke-width="0.3" fill="#000000" fill-opacity="0.000" class="geometry" id="img-4bae43fb-163">
          <g class="color_RGB{Float64}(0.7186016914382806,8.086625054816313e-7,0.0097916074077615)" stroke-dasharray="none" stroke="#B70002" id="img-4bae43fb-164">
            <g transform="translate(136.41,55.49)" id="img-4bae43fb-165">
              <path fill="none" d="M-114.98,4.37 L -114.78 4.37 -114.78 4.37 -114.58 4.37 -114.58 4.37 -114.37 4.37 -114.37 4.37 -114.17 4.37 -114.17 4.36 -113.97 4.36 -113.97 4.36 -113.76 4.36 -113.76 4.35 -113.56 4.35 -113.56 4.32 -113.36 4.32 -113.36 4.27 -113.16 4.27 -113.16 4.2 -112.95 4.2 -112.95 4.03 -112.75 4.03 -112.75 3.75 -112.55 3.75 -112.55 3.19 -112.34 3.19 -112.34 2.13 -112.14 2.13 -112.14 0.29 -111.94 0.29 -111.94 -2.57 -111.73 -2.57 -111.73 -5.46 -111.53 -5.46 -111.53 -8.03 -111.33 -8.03 -111.33 -9.14 -111.12 -9.14 -111.12 -8.15 -110.92 -8.15 -110.92 -5.82 -110.72 -5.82 -110.72 -3.04 -110.51 -3.04 -110.51 -1.21 -110.31 -1.21 -110.31 0.25 -110.11 0.25 -110.11 0.85 -109.9 0.85 -109.9 0.95 -109.7 0.95 -109.7 0.99 -109.5 0.99 -109.5 0.88 -109.29 0.88 -109.29 0.95 -109.09 0.95 -109.09 0.5 -108.89 0.5 -108.89 0.68 -108.68 0.68 -108.68 -0.16 -108.48 -0.16 -108.48 -0.84 -108.28 -0.84 -108.28 -1.59 -108.07 -1.59 -108.07 -2.17 -107.87 -2.17 -107.87 -3.14 -107.67 -3.14 -107.67 -3.83 -107.46 -3.83 -107.46 -3.97 -107.26 -3.97 -107.26 -4.02 -107.06 -4.02 -107.06 -4.3 -106.85 -4.3 -106.85 -2.98 -106.65 -2.98 -106.65 -3.17 -106.45 -3.17 -106.45 -3.45 -106.24 -3.45 -106.24 -2.92 -106.04 -2.92 -106.04 -0.43 -105.84 -0.43 -105.84 2.74 -105.64 2.74 -105.64 1.25 -105.43 1.25 -105.43 0.33 -105.23 0.33 -105.23 1.19 -105.03 1.19 -105.03 1.03 -104.82 1.03 -104.82 1.69 -104.62 1.69 -104.62 2.56 -104.42 2.56 -104.42 2.73 -104.21 2.73 -104.21 2.72 -104.01 2.72 -104.01 2.61 -103.81 2.61 -103.81 2.04 -103.6 2.04 -103.6 1.88 -103.4 1.88 -103.4 1.55 -103.2 1.55 -103.2 1.32 -102.99 1.32 -102.99 1.01 -102.79 1.01 -102.79 0.09 -102.59 0.09 -102.59 0.09 -102.38 0.09 -102.38 -0.13 -102.18 -0.13 -102.18 -1.32 -101.98 -1.32 -101.98 -1.56 -101.77 -1.56 -101.77 -1.67 -101.57 -1.67 -101.57 -1.73 -101.37 -1.73 -101.37 -1.45 -101.16 -1.45 -101.16 -1.1 -100.96 -1.1 -100.96 -1.23 -100.76 -1.23 -100.76 -1.37 -100.55 -1.37 -100.55 -1.27 -100.35 -1.27 -100.35 -1.27 -100.15 -1.27 -100.15 -1.32 -99.94 -1.32 -99.94 -1.68 -99.74 -1.68 -99.74 -1.64 -99.54 -1.64 -99.54 -1.9 -99.33 -1.9 -99.33 -2.18 -99.13 -2.18 -99.13 -2.01 -98.93 -2.01 -98.93 -2.17 -98.73 -2.17 -98.73 -2.5 -98.52 -2.5 -98.52 -2.48 -98.32 -2.48 -98.32 -2.41 -98.12 -2.41 -98.12 -2.71 -97.91 -2.71 -97.91 -2.88 -97.71 -2.88 -97.71 -3.18 -97.51 -3.18 -97.51 -3.21 -97.3 -3.21 -97.3 -3.77 -97.1 -3.77 -97.1 -3.56 -96.9 -3.56 -96.9 -3.89 -96.69 -3.89 -96.69 -4.3 -96.49 -4.3 -96.49 -4.5 -96.29 -4.5 -96.29 -5.04 -96.08 -5.04 -96.08 -5.49 -95.88 -5.49 -95.88 -5.56 -95.68 -5.56 -95.68 -5.59 -95.47 -5.59 -95.47 -5.68 -95.27 -5.68 -95.27 -6.23 -95.07 -6.23 -95.07 -6.22 -94.86 -6.22 -94.86 -6.48 -94.66 -6.48 -94.66 -6.17 -94.46 -6.17 -94.46 -6.69 -94.25 -6.69 -94.25 -6.92 -94.05 -6.92 -94.05 -6.96 -93.85 -6.96 -93.85 -7.16 -93.64 -7.16 -93.64 -7.69 -93.44 -7.69 -93.44 -7.8 -93.24 -7.8 -93.24 -8.14 -93.03 -8.14 -93.03 -8.52 -92.83 -8.52 -92.83 -8.96 -92.63 -8.96 -92.63 -8.49 -92.42 -8.49 -92.42 -8.96 -92.22 -8.96 -92.22 -8.66 -92.02 -8.66 -92.02 -9.81 -91.81 -9.81 -91.81 -9.61 -91.61 -9.61 -91.61 -9.36 -91.41 -9.36 -91.41 -9.88 -91.21 -9.88 -91.21 -10.11 -91 -10.11 -91 -11.88 -90.8 -11.88 -90.8 -12.24 -90.6 -12.24 -90.6 -13.03 -90.39 -13.03 -90.39 -10.91 -90.19 -10.91 -90.19 -9.17 -89.99 -9.17 -89.99 -8.15 -89.78 -8.15 -89.78 -8.25 -89.58 -8.25 -89.58 -7.49 -89.38 -7.49 -89.38 -7.6 -89.17 -7.6 -89.17 -7.39 -88.97 -7.39 -88.97 -7.65 -88.77 -7.65 -88.77 -7.24 -88.56 -7.24 -88.56 -7.38 -88.36 -7.38 -88.36 -7.23 -88.16 -7.23 -88.16 -6.76 -87.95 -6.76 -87.95 -7.06 -87.75 -7.06 -87.75 -7.06 -87.55 -7.06 -87.55 -7.39 -87.34 -7.39 -87.34 -7.18 -87.14 -7.18 -87.14 -7.73 -86.94 -7.73 -86.94 -7.56 -86.73 -7.56 -86.73 -7.61 -86.53 -7.61 -86.53 -7.85 -86.33 -7.85 -86.33 -8.98 -86.12 -8.98 -86.12 -8.21 -85.92 -8.21 -85.92 -8.83 -85.72 -8.83 -85.72 -8.68 -85.51 -8.68 -85.51 -9.19 -85.31 -9.19 -85.31 -8.52 -85.11 -8.52 -85.11 -8.96 -84.9 -8.96 -84.9 -8.61 -84.7 -8.61 -84.7 -8.38 -84.5 -8.38 -84.5 -8.71 -84.29 -8.71 -84.29 -8.29 -84.09 -8.29 -84.09 -7.9 -83.89 -7.9 -83.89 -8.46 -83.69 -8.46 -83.69 -8.23 -83.48 -8.23 -83.48 -8.29 -83.28 -8.29 -83.28 -8.16 -83.08 -8.16 -83.08 -7.65 -82.87 -7.65 -82.87 -9.08 -82.67 -9.08 -82.67 -8.14 -82.47 -8.14 -82.47 -8.84 -82.26 -8.84 -82.26 -8.94 -82.06 -8.94 -82.06 -8.63 -81.86 -8.63 -81.86 -6.13 -81.65 -6.13 -81.65 -11.22 -81.45 -11.22 -81.45 -10.71 -81.25 -10.71 -81.25 -9.5 -81.04 -9.5 -81.04 -8.09 -80.84 -8.09 -80.84 -7.56 -80.64 -7.56 -80.64 -9.56 -80.43 -9.56 -80.43 -10.54 -80.23 -10.54 -80.23 -10.89 -80.03 -10.89 -80.03 -10.31 -79.82 -10.31 -79.82 -10.06 -79.62 -10.06 -79.62 -8.52 -79.42 -8.52 -79.42 -7.03 -79.21 -7.03 -79.21 -6.89 -79.01 -6.89 -79.01 -6.51 -78.81 -6.51 -78.81 -5.86 -78.6 -5.86 -78.6 -5.59 -78.4 -5.59 -78.4 -5.17 -78.2 -5.17 -78.2 -5.19 -77.99 -5.19 -77.99 -5.56 -77.79 -5.56 -77.79 -5.68 -77.59 -5.68 -77.59 -5.26 -77.38 -5.26 -77.38 -5.12 -77.18 -5.12 -77.18 -5.27 -76.98 -5.27 -76.98 -4.97 -76.77 -4.97 -76.77 -4.76 -76.57 -4.76 -76.57 -4.55 -76.37 -4.55 -76.37 -4.54 -76.17 -4.54 -76.17 -4.23 -75.96 -4.23 -75.96 -3.9 -75.76 -3.9 -75.76 -4 -75.56 -4 -75.56 -3.53 -75.35 -3.53 -75.35 -3.48 -75.15 -3.48 -75.15 -3.51 -74.95 -3.51 -74.95 -3.58 -74.74 -3.58 -74.74 -3.46 -74.54 -3.46 -74.54 -3.34 -74.34 -3.34 -74.34 -3.6 -74.13 -3.6 -74.13 -3.59 -73.93 -3.59 -73.93 -3.49 -73.73 -3.49 -73.73 -3.52 -73.52 -3.52 -73.52 -3.2 -73.32 -3.2 -73.32 -3.77 -73.12 -3.77 -73.12 -3.54 -72.91 -3.54 -72.91 -3.71 -72.71 -3.71 -72.71 -3.49 -72.51 -3.49 -72.51 -3.48 -72.3 -3.48 -72.3 -3.83 -72.1 -3.83 -72.1 -3.93 -71.9 -3.93 -71.9 -4.1 -71.69 -4.1 -71.69 -4.16 -71.49 -4.16 -71.49 -4.26 -71.29 -4.26 -71.29 -4.36 -71.08 -4.36 -71.08 -4.42 -70.88 -4.42 -70.88 -4.34 -70.68 -4.34 -70.68 -4.49 -70.47 -4.49 -70.47 -4.57 -70.27 -4.57 -70.27 -4.17 -70.07 -4.17 -70.07 -4.04 -69.86 -4.04 -69.86 -3.94 -69.66 -3.94 -69.66 -4.02 -69.46 -4.02 -69.46 -3.93 -69.25 -3.93 -69.25 -3.85 -69.05 -3.85 -69.05 -3.92 -68.85 -3.92 -68.85 -3.64 -68.65 -3.64 -68.65 -3.67 -68.44 -3.67 -68.44 -3.65 -68.24 -3.65 -68.24 -3.65 -68.04 -3.65 -68.04 -3.63 -67.83 -3.63 -67.83 -3.61 -67.63 -3.61 -67.63 -3.52 -67.43 -3.52 -67.43 -3.85 -67.22 -3.85 -67.22 -3.58 -67.02 -3.58 -67.02 -3.61 -66.82 -3.61 -66.82 -3.87 -66.61 -3.87 -66.61 -3.68 -66.41 -3.68 -66.41 -3.68 -66.21 -3.68 -66.21 -3.76 -66 -3.76 -66 -3.56 -65.8 -3.56 -65.8 -3.74 -65.6 -3.74 -65.6 -3.64 -65.39 -3.64 -65.39 -3.96 -65.19 -3.96 -65.19 -3.54 -64.99 -3.54 -64.99 -3.77 -64.78 -3.77 -64.78 -3.88 -64.58 -3.88 -64.58 -3.2 -64.38 -3.2 -64.38 -3.73 -64.17 -3.73 -64.17 -3.49 -63.97 -3.49 -63.97 -3.63 -63.77 -3.63 -63.77 -3.53 -63.56 -3.53 -63.56 -3.54 -63.36 -3.54 -63.36 -3.71 -63.16 -3.71 -63.16 -3.44 -62.95 -3.44 -62.95 -3.55 -62.75 -3.55 -62.75 -3.53 -62.55 -3.53 -62.55 -3.52 -62.34 -3.52 -62.34 -3.39 -62.14 -3.39 -62.14 -3.51 -61.94 -3.51 -61.94 -3.4 -61.73 -3.4 -61.73 -3.38 -61.53 -3.38 -61.53 -3.69 -61.33 -3.69 -61.33 -3.41 -61.13 -3.41 -61.13 -3.42 -60.92 -3.42 -60.92 -3.39 -60.72 -3.39 -60.72 -3.26 -60.52 -3.26 -60.52 -3.44 -60.31 -3.44 -60.31 -3.52 -60.11 -3.52 -60.11 -3.13 -59.91 -3.13 -59.91 -3.23 -59.7 -3.23 -59.7 -3.23 -59.5 -3.23 -59.5 -3.32 -59.3 -3.32 -59.3 -3.41 -59.09 -3.41 -59.09 -3.34 -58.89 -3.34 -58.89 -3.11 -58.69 -3.11 -58.69 -3.22 -58.48 -3.22 -58.48 -3.46 -58.28 -3.46 -58.28 -3.17 -58.08 -3.17 -58.08 -3.37 -57.87 -3.37 -57.87 -3.44 -57.67 -3.44 -57.67 -3.47 -57.47 -3.47 -57.47 -3.39 -57.26 -3.39 -57.26 -3.19 -57.06 -3.19 -57.06 -3.43 -56.86 -3.43 -56.86 -3.52 -56.65 -3.52 -56.65 -3.71 -56.45 -3.71 -56.45 -3.68 -56.25 -3.68 -56.25 -3.65 -56.04 -3.65 -56.04 -3.62 -55.84 -3.62 -55.84 -3.45 -55.64 -3.45 -55.64 -3.5 -55.43 -3.5 -55.43 -3.29 -55.23 -3.29 -55.23 -3.3 -55.03 -3.3 -55.03 -3.28 -54.82 -3.28 -54.82 -3.03 -54.62 -3.03 -54.62 -3.21 -54.42 -3.21 -54.42 -3.07 -54.21 -3.07 -54.21 -3 -54.01 -3 -54.01 -2.99 -53.81 -2.99 -53.81 -3.01 -53.61 -3.01 -53.61 -2.82 -53.4 -2.82 -53.4 -2.79 -53.2 -2.79 -53.2 -3.06 -53 -3.06 -53 -2.88 -52.79 -2.88 -52.79 -3.02 -52.59 -3.02 -52.59 -3.16 -52.39 -3.16 -52.39 -3.03 -52.18 -3.03 -52.18 -3.03 -51.98 -3.03 -51.98 -3 -51.78 -3 -51.78 -2.86 -51.57 -2.86 -51.57 -3.03 -51.37 -3.03 -51.37 -3.14 -51.17 -3.14 -51.17 -2.83 -50.96 -2.83 -50.96 -2.97 -50.76 -2.97 -50.76 -3.24 -50.56 -3.24 -50.56 -2.64 -50.35 -2.64 -50.35 -2.98 -50.15 -2.98 -50.15 -2.69 -49.95 -2.69 -49.95 -2.85 -49.74 -2.85 -49.74 -2.89 -49.54 -2.89 -49.54 -2.84 -49.34 -2.84 -49.34 -2.63 -49.13 -2.63 -49.13 -2.38 -48.93 -2.38 -48.93 -2.45 -48.73 -2.45 -48.73 -2.56 -48.52 -2.56 -48.52 -2.68 -48.32 -2.68 -48.32 -2.64 -48.12 -2.64 -48.12 -2.52 -47.91 -2.52 -47.91 -2.38 -47.71 -2.38 -47.71 -2.67 -47.51 -2.67 -47.51 -2.45 -47.3 -2.45 -47.3 -2.37 -47.1 -2.37 -47.1 -2.51 -46.9 -2.51 -46.9 -2.7 -46.69 -2.7 -46.69 -2.82 -46.49 -2.82 -46.49 -2.67 -46.29 -2.67 -46.29 -2.68 -46.09 -2.68 -46.09 -2.73 -45.88 -2.73 -45.88 -2.81 -45.68 -2.81 -45.68 -2.56 -45.48 -2.56 -45.48 -2.81 -45.27 -2.81 -45.27 -2.73 -45.07 -2.73 -45.07 -2.57 -44.87 -2.57 -44.87 -2.41 -44.66 -2.41 -44.66 -2.45 -44.46 -2.45 -44.46 -2.38 -44.26 -2.38 -44.26 -2 -44.05 -2 -44.05 -2.39 -43.85 -2.39 -43.85 -2.15 -43.65 -2.15 -43.65 -1.82 -43.44 -1.82 -43.44 -2.04 -43.24 -2.04 -43.24 -1.84 -43.04 -1.84 -43.04 -2.2 -42.83 -2.2 -42.83 -2.58 -42.63 -2.58 -42.63 -2.71 -42.43 -2.71 -42.43 -1.61 -42.22 -1.61 -42.22 -2.59 -42.02 -2.59 -42.02 -2.25 -41.82 -2.25 -41.82 -1.01 -41.61 -1.01 -41.61 -2.2 -41.41 -2.2 -41.41 -1.28 -41.21 -1.28 -41.21 -0.81 -41 -0.81 -41 -2.39 -40.8 -2.39 -40.8 -1.31 -40.6 -1.31 -40.6 -1.95 -40.39 -1.95 -40.39 -0.67 -40.19 -0.67 -40.19 -1.13 -39.99 -1.13 -39.99 -1.32 -39.78 -1.32 -39.78 -1.43 -39.58 -1.43 -39.58 -1.69 -39.38 -1.69 -39.38 -1.5 -39.17 -1.5 -39.17 -1.42 -38.97 -1.42 -38.97 -1.77 -38.77 -1.77 -38.77 -1.26 -38.57 -1.26 -38.57 -1.54 -38.36 -1.54 -38.36 -1.27 -38.16 -1.27 -38.16 -1.38 -37.96 -1.38 -37.96 -1.25 -37.75 -1.25 -37.75 -1.43 -37.55 -1.43 -37.55 -1.06 -37.35 -1.06 -37.35 -1.32 -37.14 -1.32 -37.14 -1.23 -36.94 -1.23 -36.94 -1.19 -36.74 -1.19 -36.74 -1.48 -36.53 -1.48 -36.53 -1.32 -36.33 -1.32 -36.33 -1.32 -36.13 -1.32 -36.13 -1.57 -35.92 -1.57 -35.92 -1.38 -35.72 -1.38 -35.72 -1.46 -35.52 -1.46 -35.52 -0.74 -35.31 -0.74 -35.31 -1.31 -35.11 -1.31 -35.11 -1.07 -34.91 -1.07 -34.91 -1.04 -34.7 -1.04 -34.7 -1.05 -34.5 -1.05 -34.5 -1.19 -34.3 -1.19 -34.3 -1.18 -34.09 -1.18 -34.09 -1.05 -33.89 -1.05 -33.89 -0.94 -33.69 -0.94 -33.69 -1 -33.48 -1 -33.48 -0.82 -33.28 -0.82 -33.28 -0.92 -33.08 -0.92 -33.08 -0.9 -32.87 -0.9 -32.87 -1.07 -32.67 -1.07 -32.67 -0.89 -32.47 -0.89 -32.47 -0.61 -32.26 -0.61 -32.26 -1 -32.06 -1 -32.06 -0.99 -31.86 -0.99 -31.86 -1.09 -31.65 -1.09 -31.65 -0.86 -31.45 -0.86 -31.45 -0.84 -31.25 -0.84 -31.25 -0.92 -31.05 -0.92 -31.05 -0.83 -30.84 -0.83 -30.84 -0.94 -30.64 -0.94 -30.64 -0.78 -30.44 -0.78 -30.44 -0.82 -30.23 -0.82 -30.23 -0.64 -30.03 -0.64 -30.03 -0.86 -29.83 -0.86 -29.83 -0.47 -29.62 -0.47 -29.62 -0.53 -29.42 -0.53 -29.42 -0.56 -29.22 -0.56 -29.22 -0.59 -29.01 -0.59 -29.01 -0.57 -28.81 -0.57 -28.81 -0.65 -28.61 -0.65 -28.61 -0.32 -28.4 -0.32 -28.4 -0.6 -28.2 -0.6 -28.2 -0.46 -28 -0.46 -28 -0.41 -27.79 -0.41 -27.79 -0.58 -27.59 -0.58 -27.59 -0.45 -27.39 -0.45 -27.39 -0.24 -27.18 -0.24 -27.18 -0.46 -26.98 -0.46 -26.98 -0.51 -26.78 -0.51 -26.78 -0.28 -26.57 -0.28 -26.57 -0.47 -26.37 -0.47 -26.37 -0.43 -26.17 -0.43 -26.17 -0.18 -25.96 -0.18 -25.96 -0.34 -25.76 -0.34 -25.76 -0.35 -25.56 -0.35 -25.56 -0.31 -25.35 -0.31 -25.35 -0.43 -25.15 -0.43 -25.15 -0.29 -24.95 -0.29 -24.95 -0.49 -24.74 -0.49 -24.74 -0.22 -24.54 -0.22 -24.54 -0.24 -24.34 -0.24 -24.34 -0.19 -24.14 -0.19 -24.14 -0.29 -23.93 -0.29 -23.93 -0.12 -23.73 -0.12 -23.73 -0.33 -23.53 -0.33 -23.53 -0.28 -23.32 -0.28 -23.32 -0.21 -23.12 -0.21 -23.12 -0.37 -22.92 -0.37 -22.92 -0.51 -22.71 -0.51 -22.71 -0.25 -22.51 -0.25 -22.51 -0.23 -22.31 -0.23 -22.31 -0.39 -22.1 -0.39 -22.1 -0.15 -21.9 -0.15 -21.9 -0.03 -21.7 -0.03 -21.7 -0.13 -21.49 -0.13 -21.49 -0.2 -21.29 -0.2 -21.29 -0.17 -21.09 -0.17 -21.09 -0.32 -20.88 -0.32 -20.88 -0.13 -20.68 -0.13 -20.68 -0.14 -20.48 -0.14 -20.48 0.06 -20.27 0.06 -20.27 0.05 -20.07 0.05 -20.07 0.01 -19.87 0.01 -19.87 0.05 -19.66 0.05 -19.66 0.02 -19.46 0.02 -19.46 -0.08 -19.26 -0.08 -19.26 0.11 -19.05 0.11 -19.05 0.14 -18.85 0.14 -18.85 0.14 -18.65 0.14 -18.65 0.33 -18.44 0.33 -18.44 0.05 -18.24 0.05 -18.24 0 -18.04 0 -18.04 0.07 -17.83 0.07 -17.83 0.21 -17.63 0.21 -17.63 0.11 -17.43 0.11 -17.43 -0.01 -17.22 -0.01 -17.22 0.12 -17.02 0.12 -17.02 -0 -16.82 -0 -16.82 0.05 -16.62 0.05 -16.62 0.08 -16.41 0.08 -16.41 0.11 -16.21 0.11 -16.21 -0 -16.01 -0 -16.01 0.21 -15.8 0.21 -15.8 0.1 -15.6 0.1 -15.6 0.05 -15.4 0.05 -15.4 0.04 -15.19 0.04 -15.19 0.1 -14.99 0.1 -14.99 0.09 -14.79 0.09 -14.79 0.35 -14.58 0.35 -14.58 0.34 -14.38 0.34 -14.38 0.25 -14.18 0.25 -14.18 0.35 -13.97 0.35 -13.97 0.28 -13.77 0.28 -13.77 0.49 -13.57 0.49 -13.57 0.28 -13.36 0.28 -13.36 0.31 -13.16 0.31 -13.16 0.21 -12.96 0.21 -12.96 0.32 -12.75 0.32 -12.75 0.34 -12.55 0.34 -12.55 0.33 -12.35 0.33 -12.35 0.37 -12.14 0.37 -12.14 0.47 -11.94 0.47 -11.94 0.43 -11.74 0.43 -11.74 0.27 -11.53 0.27 -11.53 0.34 -11.33 0.34 -11.33 0.24 -11.13 0.24 -11.13 0.35 -10.92 0.35 -10.92 0.41 -10.72 0.41 -10.72 0.39 -10.52 0.39 -10.52 0.42 -10.31 0.42 -10.31 0.32 -10.11 0.32 -10.11 0.48 -9.91 0.48 -9.91 0.4 -9.7 0.4 -9.7 0.45 -9.5 0.45 -9.5 0.39 -9.3 0.39 -9.3 0.57 -9.1 0.57 -9.1 0.51 -8.89 0.51 -8.89 0.33 -8.69 0.33 -8.69 0.5 -8.49 0.5 -8.49 0.61 -8.28 0.61 -8.28 0.57 -8.08 0.57 -8.08 0.44 -7.88 0.44 -7.88 0.46 -7.67 0.46 -7.67 0.39 -7.47 0.39 -7.47 0.34 -7.27 0.34 -7.27 0.18 -7.06 0.18 -7.06 0.27 -6.86 0.27 -6.86 0.24 -6.66 0.24 -6.66 0.38 -6.45 0.38 -6.45 0.36 -6.25 0.36 -6.25 0.37 -6.05 0.37 -6.05 0.34 -5.84 0.34 -5.84 0.37 -5.64 0.37 -5.64 0.38 -5.44 0.38 -5.44 0.34 -5.23 0.34 -5.23 0.64 -5.03 0.64 -5.03 0.64 -4.83 0.64 -4.83 0.56 -4.62 0.56 -4.62 0.6 -4.42 0.6 -4.42 0.72 -4.22 0.72 -4.22 0.66 -4.01 0.66 -4.01 0.77 -3.81 0.77 -3.81 0.71 -3.61 0.71 -3.61 0.63 -3.4 0.63 -3.4 0.71 -3.2 0.71 -3.2 0.82 -3 0.82 -3 0.74 -2.79 0.74 -2.79 0.78 -2.59 0.78 -2.59 0.76 -2.39 0.76 -2.39 0.75 -2.18 0.75 -2.18 1.01 -1.98 1.01 -1.98 0.87 -1.78 0.87 -1.78 0.96 -1.58 0.96 -1.58 0.96 -1.37 0.96 -1.37 0.86 -1.17 0.86 -1.17 0.94 -0.97 0.94 -0.97 0.82 -0.76 0.82 -0.76 0.85 -0.56 0.85 -0.56 0.99 -0.36 0.99 -0.36 0.79 -0.15 0.79 -0.15 1 0.05 1 0.05 0.78 0.25 0.78 0.25 1.02 0.46 1.02 0.46 0.99 0.66 0.99 0.66 0.98 0.86 0.98 0.86 0.88 1.07 0.88 1.07 0.94 1.27 0.94 1.27 0.77 1.47 0.77 1.47 0.85 1.68 0.85 1.68 0.82 1.88 0.82 1.88 0.67 2.08 0.67 2.08 0.78 2.29 0.78 2.29 0.8 2.49 0.8 2.49 0.54 2.69 0.54 2.69 0.65 2.9 0.65 2.9 0.73 3.1 0.73 3.1 0.6 3.3 0.6 3.3 0.76 3.51 0.76 3.51 0.77 3.71 0.77 3.71 0.79 3.91 0.79 3.91 0.88 4.12 0.88 4.12 0.97 4.32 0.97 4.32 0.96 4.52 0.96 4.52 0.9 4.73 0.9 4.73 0.95 4.93 0.95 4.93 1.22 5.13 1.22 5.13 1 5.34 1 5.34 1.14 5.54 1.14 5.54 1.14 5.74 1.14 5.74 1.12 5.94 1.12 5.94 1.05 6.15 1.05 6.15 1.12 6.35 1.12 6.35 1.14 6.55 1.14 6.55 1.3 6.76 1.3 6.76 1.19 6.96 1.19 6.96 1.24 7.16 1.24 7.16 1.27 7.37 1.27 7.37 1.2 7.57 1.2 7.57 1.24 7.77 1.24 7.77 1.1 7.98 1.1 7.98 1.44 8.18 1.44 8.18 1.29 8.38 1.29 8.38 1.31 8.59 1.31 8.59 1.13 8.79 1.13 8.79 1.13 8.99 1.13 8.99 1.21 9.2 1.21 9.2 1.39 9.4 1.39 9.4 1.46 9.6 1.46 9.6 1.2 9.81 1.2 9.81 1.35 10.01 1.35 10.01 1.29 10.21 1.29 10.21 1.3 10.42 1.3 10.42 1.3 10.62 1.3 10.62 1.58 10.82 1.58 10.82 1.4 11.03 1.4 11.03 1.23 11.23 1.23 11.23 1.45 11.43 1.45 11.43 1.5 11.64 1.5 11.64 1.49 11.84 1.49 11.84 1.43 12.04 1.43 12.04 1.78 12.25 1.78 12.25 1.56 12.45 1.56 12.45 1.14 12.65 1.14 12.65 1.31 12.86 1.31 12.86 1.53 13.06 1.53 13.06 1 13.26 1 13.26 1.15 13.46 1.15 13.46 1.7 13.67 1.7 13.67 1.21 13.87 1.21 13.87 1.85 14.07 1.85 14.07 2.5 14.28 2.5 14.28 1.51 14.48 1.51 14.48 1.69 14.68 1.69 14.68 1.49 14.89 1.49 14.89 2.07 15.09 2.07 15.09 1.73 15.29 1.73 15.29 1.62 15.5 1.62 15.5 1.67 15.7 1.67 15.7 1.74 15.9 1.74 15.9 1.72 16.11 1.72 16.11 1.64 16.31 1.64 16.31 1.67 16.51 1.67 16.51 1.7 16.72 1.7 16.72 1.59 16.92 1.59 16.92 1.54 17.12 1.54 17.12 1.52 17.33 1.52 17.33 1.65 17.53 1.65 17.53 1.48 17.73 1.48 17.73 1.66 17.94 1.66 17.94 1.72 18.14 1.72 18.14 1.64 18.34 1.64 18.34 1.55 18.55 1.55 18.55 1.55 18.75 1.55 18.75 1.47 18.95 1.47 18.95 1.65 19.16 1.65 19.16 1.69 19.36 1.69 19.36 1.71 19.56 1.71 19.56 1.57 19.77 1.57 19.77 1.72 19.97 1.72 19.97 1.57 20.17 1.57 20.17 1.64 20.38 1.64 20.38 1.53 20.58 1.53 20.58 1.76 20.78 1.76 20.78 1.72 20.98 1.72 20.98 1.74 21.19 1.74 21.19 1.8 21.39 1.8 21.39 1.73 21.59 1.73 21.59 1.73 21.8 1.73 21.8 1.79 22 1.79 22 1.72 22.2 1.72 22.2 1.82 22.41 1.82 22.41 1.7 22.61 1.7 22.61 1.81 22.81 1.81 22.81 1.64 23.02 1.64 23.02 1.71 23.22 1.71 23.22 1.71 23.42 1.71 23.42 1.74 23.63 1.74 23.63 1.79 23.83 1.79 23.83 1.65 24.03 1.65 24.03 1.7 24.24 1.7 24.24 1.91 24.44 1.91 24.44 1.7 24.64 1.7 24.64 1.9 24.85 1.9 24.85 1.76 25.05 1.76 25.05 1.99 25.25 1.99 25.25 1.8 25.46 1.8 25.46 2.02 25.66 2.02 25.66 1.87 25.86 1.87 25.86 1.95 26.07 1.95 26.07 1.89 26.27 1.89 26.27 1.85 26.47 1.85 26.47 1.98 26.68 1.98 26.68 1.75 26.88 1.75 26.88 1.98 27.08 1.98 27.08 2.02 27.29 2.02 27.29 1.99 27.49 1.99 27.49 1.94 27.69 1.94 27.69 1.97 27.9 1.97 27.9 2.14 28.1 2.14 28.1 2.03 28.3 2.03 28.3 2.12 28.5 2.12 28.5 2.11 28.71 2.11 28.71 2.06 28.91 2.06 28.91 2.04 29.11 2.04 29.11 2.02 29.32 2.02 29.32 2.05 29.52 2.05 29.52 2.13 29.72 2.13 29.72 2.08 29.93 2.08 29.93 1.93 30.13 1.93 30.13 2.1 30.33 2.1 30.33 2.14 30.54 2.14 30.54 2.07 30.74 2.07 30.74 2.1 30.94 2.1 30.94 1.96 31.15 1.96 31.15 2.16 31.35 2.16 31.35 2.03 31.55 2.03 31.55 2.12 31.76 2.12 31.76 2.07 31.96 2.07 31.96 2.08 32.16 2.08 32.16 2.15 32.37 2.15 32.37 1.96 32.57 1.96 32.57 2.1 32.77 2.1 32.77 2.21 32.98 2.21 32.98 2.1 33.18 2.1 33.18 2.03 33.38 2.03 33.38 1.96 33.59 1.96 33.59 2.09 33.79 2.09 33.79 2.17 33.99 2.17 33.99 2.03 34.2 2.03 34.2 2.11 34.4 2.11 34.4 2.01 34.6 2.01 34.6 2.2 34.81 2.2 34.81 2.16 35.01 2.16 35.01 2.14 35.21 2.14 35.21 2.03 35.42 2.03 35.42 2.14 35.62 2.14 35.62 2.1 35.82 2.1 35.82 2.1 36.02 2.1 36.02 2.12 36.23 2.12 36.23 2.2 36.43 2.2 36.43 2.2 36.63 2.2 36.63 2.16 36.84 2.16 36.84 2.14 37.04 2.14 37.04 2.26 37.24 2.26 37.24 2.18 37.45 2.18 37.45 2.24 37.65 2.24 37.65 2.21 37.85 2.21 37.85 2.33 38.06 2.33 38.06 2.2 38.26 2.2 38.26 2.14 38.46 2.14 38.46 2.28 38.67 2.28 38.67 2.25 38.87 2.25 38.87 2.31 39.07 2.31 39.07 2.19 39.28 2.19 39.28 2.31 39.48 2.31 39.48 2.22 39.68 2.22 39.68 2.18 39.89 2.18 39.89 2.22 40.09 2.22 40.09 2.36 40.29 2.36 40.29 2.26 40.5 2.26 40.5 2.29 40.7 2.29 40.7 2.33 40.9 2.33 40.9 2.38 41.11 2.38 41.11 2.36 41.31 2.36 41.31 2.36 41.51 2.36 41.51 2.22 41.72 2.22 41.72 2.28 41.92 2.28 41.92 2.31 42.12 2.31 42.12 2.4 42.33 2.4 42.33 2.36 42.53 2.36 42.53 2.34 42.73 2.34 42.73 2.31 42.93 2.31 42.93 2.42 43.14 2.42 43.14 2.3 43.34 2.3 43.34 2.45 43.54 2.45 43.54 2.36 43.75 2.36 43.75 2.36 43.95 2.36 43.95 2.36 44.15 2.36 44.15 2.4 44.36 2.4 44.36 2.37 44.56 2.37 44.56 2.47 44.76 2.47 44.76 2.38 44.97 2.38 44.97 2.39 45.17 2.39 45.17 2.54 45.37 2.54 45.37 2.41 45.58 2.41 45.58 2.41 45.78 2.41 45.78 2.38 45.98 2.38 45.98 2.4 46.19 2.4 46.19 2.43 46.39 2.43 46.39 2.43 46.59 2.43 46.59 2.32 46.8 2.32 46.8 2.47 47 2.47 47 2.32 47.2 2.32 47.2 2.39 47.41 2.39 47.41 2.47 47.61 2.47 47.61 2.42 47.81 2.42 47.81 2.39 48.02 2.39 48.02 2.4 48.22 2.4 48.22 2.54 48.42 2.54 48.42 2.43 48.63 2.43 48.63 2.44 48.83 2.44 48.83 2.49 49.03 2.49 49.03 2.48 49.24 2.48 49.24 2.53 49.44 2.53 49.44 2.52 49.64 2.52 49.64 2.66 49.85 2.66 49.85 2.24 50.05 2.24 50.05 2.53 50.25 2.53 50.25 2.42 50.45 2.42 50.45 2.43 50.66 2.43 50.66 2.52 50.86 2.52 50.86 2.46 51.06 2.46 51.06 2.56 51.27 2.56 51.27 2.59 51.47 2.59 51.47 2.61 51.67 2.61 51.67 2.54 51.88 2.54 51.88 2.59 52.08 2.59 52.08 2.55 52.28 2.55 52.28 2.51 52.49 2.51 52.49 2.67 52.69 2.67 52.69 2.6 52.89 2.6 52.89 2.53 53.1 2.53 53.1 2.59 53.3 2.59 53.3 2.59 53.5 2.59 53.5 2.65 53.71 2.65 53.71 2.6 53.91 2.6 53.91 2.65 54.11 2.65 54.11 2.51 54.32 2.51 54.32 2.67 54.52 2.67 54.52 2.56 54.72 2.56 54.72 2.75 54.93 2.75 54.93 2.77 55.13 2.77 55.13 2.62 55.33 2.62 55.33 2.64 55.54 2.64 55.54 2.76 55.74 2.76 55.74 2.67 55.94 2.67 55.94 2.67 56.15 2.67 56.15 2.64 56.35 2.64 56.35 2.81 56.55 2.81 56.55 2.72 56.76 2.72 56.76 2.72 56.96 2.72 56.96 2.61 57.16 2.61 57.16 2.77 57.37 2.77 57.37 2.85 57.57 2.85 57.57 2.66 57.77 2.66 57.77 2.7 57.97 2.7 57.97 2.68 58.18 2.68 58.18 2.65 58.38 2.65 58.38 2.79 58.58 2.79 58.58 2.68 58.79 2.68 58.79 2.73 58.99 2.73 58.99 2.64 59.19 2.64 59.19 2.72 59.4 2.72 59.4 2.77 59.6 2.77 59.6 2.69 59.8 2.69 59.8 2.71 60.01 2.71 60.01 2.8 60.21 2.8 60.21 2.67 60.41 2.67 60.41 2.67 60.62 2.67 60.62 2.78 60.82 2.78 60.82 2.81 61.02 2.81 61.02 2.72 61.23 2.72 61.23 2.85 61.43 2.85 61.43 2.71 61.63 2.71 61.63 2.79 61.84 2.79 61.84 2.81 62.04 2.81 62.04 2.83 62.24 2.83 62.24 2.68 62.45 2.68 62.45 2.71 62.65 2.71 62.65 2.86 62.85 2.86 62.85 2.74 63.06 2.74 63.06 2.76 63.26 2.76 63.26 2.83 63.46 2.83 63.46 2.82 63.67 2.82 63.67 2.79 63.87 2.79 63.87 2.81 64.07 2.81 64.07 2.76 64.28 2.76 64.28 2.87 64.48 2.87 64.48 2.77 64.68 2.77 64.68 2.81 64.89 2.81 64.89 2.83 65.09 2.83 65.09 2.81 65.29 2.81 65.29 2.75 65.49 2.75 65.49 2.81 65.7 2.81 65.7 2.95 65.9 2.95 65.9 2.8 66.1 2.8 66.1 2.76 66.31 2.76 66.31 2.81 66.51 2.81 66.51 2.82 66.71 2.82 66.71 2.83 66.92 2.83 66.92 2.84 67.12 2.84 67.12 2.87 67.32 2.87 67.32 2.86 67.53 2.86 67.53 2.84 67.73 2.84 67.73 2.87 67.93 2.87 67.93 2.82 68.14 2.82 68.14 2.91 68.34 2.91 68.34 2.98 68.54 2.98 68.54 2.99 68.75 2.99 68.75 2.89 68.95 2.89 68.95 2.88 69.15 2.88 69.15 2.85 69.36 2.85 69.36 2.84 69.56 2.84 69.56 2.9 69.76 2.9 69.76 2.8 69.97 2.8 69.97 3 70.17 3 70.17 3.02 70.37 3.02 70.37 2.92 70.58 2.92 70.58 2.96 70.78 2.96 70.78 2.9 70.98 2.9 70.98 2.92 71.19 2.92 71.19 3.03 71.39 3.03 71.39 3.04 71.59 3.04 71.59 2.87 71.8 2.87 71.8 2.88 72 2.88 72 3.02 72.2 3.02 72.2 2.92 72.41 2.92 72.41 2.99 72.61 2.99 72.61 2.94 72.81 2.94 72.81 2.88 73.01 2.88 73.01 2.95 73.22 2.95 73.22 2.98 73.42 2.98 73.42 2.98 73.62 2.98 73.62 2.99 73.83 2.99 73.83 2.91 74.03 2.91 74.03 3.04 74.23 3.04 74.23 2.99 74.44 2.99 74.44 3 74.64 3 74.64 3.1 74.84 3.1 74.84 3.08 75.05 3.08 75.05 3.02 75.25 3.02 75.25 3.03 75.45 3.03 75.45 3.05 75.66 3.05 75.66 3.07 75.86 3.07 75.86 2.94 76.06 2.94 76.06 3.02 76.27 3.02 76.27 3.01 76.47 3.01 76.47 3.08 76.67 3.08 76.67 2.95 76.88 2.95 76.88 2.99 77.08 2.99 77.08 3.04 77.28 3.04 77.28 3.08 77.49 3.08 77.49 2.92 77.69 2.92 77.69 2.95 77.89 2.95 77.89 3.15 78.1 3.15 78.1 3.09 78.3 3.09 78.3 3.13 78.5 3.13 78.5 2.97 78.71 2.97 78.71 3.11 78.91 3.11 78.91 3.05 79.11 3.05 79.11 3.1 79.32 3.1 79.32 3.13 79.52 3.13 79.52 3.02 79.72 3.02 79.72 3.2 79.93 3.2 79.93 3.1 80.13 3.1 80.13 3.08 80.33 3.08 80.33 3.03 80.53 3.03 80.53 3.07 80.74 3.07 80.74 3.12 80.94 3.12 80.94 3.18 81.14 3.18 81.14 3.1 81.35 3.1 81.35 3.04 81.55 3.04 81.55 3.17 81.75 3.17 81.75 3.08 81.96 3.08 81.96 3.1 82.16 3.1 82.16 3.09 82.36 3.09 82.36 3.14 82.57 3.14 82.57 3.16 82.77 3.16 82.77 3.14 82.97 3.14 82.97 3.14 83.18 3.14 83.18 3.15 83.38 3.15 83.38 3.09 83.58 3.09 83.58 3.19 83.79 3.19 83.79 3.13 83.99 3.13 83.99 3.12 84.19 3.12 84.19 3.11 84.4 3.11 84.4 3.16 84.6 3.16 84.6 3.1 84.8 3.1 84.8 3.17 85.01 3.17 85.01 3.08 85.21 3.08 85.21 3.15 85.41 3.15 85.41 3.2 85.62 3.2 85.62 3.23 85.82 3.23 85.82 3.26 86.02 3.26 86.02 3.1 86.23 3.1 86.23 3.18 86.43 3.18 86.43 3.26 86.63 3.26 86.63 3.19 86.84 3.19 86.84 3.18 87.04 3.18 87.04 3.22 87.24 3.22 87.24 3.2 87.45 3.2 87.45 3.16 87.65 3.16 87.65 3.27 87.85 3.27 87.85 3.2 88.05 3.2 88.05 3.23 88.26 3.23 88.26 3.15 88.46 3.15 88.46 3.12 88.66 3.12 88.66 3.19 88.87 3.19 88.87 3.23 89.07 3.23 89.07 3.2 89.27 3.2 89.27 3.17 89.48 3.17 89.48 3.22 89.68 3.22 89.68 3.19 89.88 3.19 89.88 3.21 90.09 3.21 90.09 3.35 90.29 3.35 90.29 3.22 90.49 3.22 90.49 3.24 90.7 3.24 90.7 3.34 90.9 3.34 90.9 3.24 91.1 3.24 91.1 3.24 91.31 3.24 91.31 3.2 91.51 3.2 91.51 3.28 91.71 3.28 91.71 3.21 91.92 3.21 91.92 3.32 92.12 3.32 92.12 3.21 92.32 3.21 92.32 3.3 92.53 3.3 92.53 3.24 92.73 3.24 92.73 3.24 92.93 3.24 92.93 3.19 93.14 3.19 93.14 3.25 93.34 3.25 93.34 3.26 93.54 3.26 93.54 3.33 93.75 3.33 93.75 3.33 93.95 3.33 93.95 3.25 94.15 3.25 94.15 3.28 94.36 3.28 94.36 3.25 94.56 3.25 94.56 3.3 94.76 3.3 94.76 3.31 94.97 3.31 94.97 3.35 95.17 3.35 95.17 3.3 95.37 3.3 95.37 3.19 95.57 3.19 95.57 3.22 95.78 3.22 95.78 3.33 95.98 3.33 95.98 3.26 96.18 3.26 96.18 3.35 96.39 3.35 96.39 3.3 96.59 3.3 96.59 3.33 96.79 3.33 96.79 3.41 97 3.41 97 3.29 97.2 3.29 97.2 3.25 97.4 3.25 97.4 3.29 97.61 3.29 97.61 3.32 97.81 3.32 97.81 3.25 98.01 3.25 98.01 3.37 98.22 3.37 98.22 3.25 98.42 3.25 98.42 3.29 98.62 3.29 98.62 3.38 98.83 3.38 98.83 3.32 99.03 3.32 99.03 3.32 99.23 3.32 99.23 3.38 99.44 3.38 99.44 3.29 99.64 3.29 99.64 3.34 99.84 3.34 99.84 3.38 100.05 3.38 100.05 3.41 100.25 3.41 100.25 3.37 100.45 3.37 100.45 3.38 100.66 3.38 100.66 3.42 100.86 3.42 100.86 3.39 101.06 3.39 101.06 3.42 101.27 3.42 101.27 3.38 101.47 3.38 101.47 3.44 101.67 3.44 101.67 3.39 101.88 3.39 101.88 3.44 102.08 3.44 102.08 3.38 102.28 3.38 102.28 3.35 102.49 3.35 102.49 3.41 102.69 3.41 102.69 3.41 102.89 3.41 102.89 3.48 103.09 3.48 103.09 3.37 103.3 3.37 103.3 3.48 103.5 3.48 103.5 3.33 103.7 3.33 103.7 3.48 103.91 3.48 103.91 3.49 104.11 3.49 104.11 3.38 104.31 3.38 104.31 3.45 104.52 3.45 104.52 3.45 104.72 3.45 104.72 3.41 104.92 3.41 104.92 3.45 105.13 3.45 105.13 3.44 105.33 3.44 105.33 3.46 105.53 3.46 105.53 3.49 105.74 3.49 105.74 3.47 105.94 3.47 105.94 3.38 106.14 3.38 106.14 3.54 106.35 3.54 106.35 3.44 106.55 3.44 106.55 3.47 106.75 3.47 106.75 3.48 106.96 3.48 106.96 3.44 107.16 3.44 107.16 3.45 107.36 3.45 107.36 3.5 107.57 3.5 107.57 3.43 107.77 3.43 107.77 3.44 107.97 3.44 107.97 3.46 108.18 3.46 108.18 3.43 108.38 3.43 108.38 3.5 108.58 3.5 108.58 3.51 108.79 3.51 108.79 3.55 108.99 3.55 108.99 3.48 109.19 3.48 109.19 3.48 109.4 3.48 109.4 3.53 109.6 3.53 109.6 3.52 109.8 3.52 109.8 3.54 110.01 3.54 110.01 3.51 110.21 3.51 110.21 3.48 110.41 3.48 110.41 3.48 110.61 3.48 110.61 3.43 110.82 3.43 110.82 3.53 111.02 3.53 111.02 3.5 111.22 3.5 111.22 3.57 111.43 3.57 111.43 3.51 111.63 3.51 111.63 3.52 111.83 3.52 111.83 3.55 112.04 3.55 112.04 3.49 112.24 3.49 112.24 3.58 112.44 3.58 112.44 3.46 112.65 3.46 112.65 3.48 112.85 3.48 112.85 3.53 113.05 3.53 113.05 3.58 113.26 3.58 113.26 3.58 113.46 3.58 113.46 3.52 113.66 3.52 113.66 3.6 113.87 3.6 113.87 3.53 114.07 3.53 114.07 3.54 114.27 3.54 114.27 3.55 114.48 3.55 114.48 3.54 114.68 3.54 114.68 3.6 114.88 3.6 114.88 3.56" class="primitive"/>
            </g>
          </g>
        </g>
      </g>
    </g>
  </g>
  <g class="guide ylabels" font-size="2.82" font-family="'PT Sans Caption','Helvetica Neue','Helvetica',sans-serif" fill="#6C606B" id="img-4bae43fb-166">
    <g transform="translate(18.43,59.87)" id="img-4bae43fb-167">
      <g class="primitive">
        <text text-anchor="end" dy="0.35em">0</text>
      </g>
    </g>
    <g transform="translate(18.43,39.26)" id="img-4bae43fb-168">
      <g class="primitive">
        <text text-anchor="end" dy="0.35em">110</text>
      </g>
    </g>
    <g transform="translate(18.43,18.66)" id="img-4bae43fb-169">
      <g class="primitive">
        <text text-anchor="end" dy="0.35em">210</text>
      </g>
    </g>
  </g>
  <g font-size="3.18" font-family="'PT Sans','Helvetica Neue','Helvetica',sans-serif" fill="#202020" stroke="#000000" stroke-opacity="0.000" id="img-4bae43fb-170">
    <g transform="translate(4.18,31.76)" id="img-4bae43fb-171">
      <g class="primitive">
        <text text-anchor="middle" dy="0.35em" transform="rotate(-90,0, 2)">Counts</text>
      </g>
    </g>
  </g>
  <g font-size="3.18" font-family="'PT Sans','Helvetica Neue','Helvetica',sans-serif" fill="#202020" stroke="#000000" stroke-opacity="0.000" id="img-4bae43fb-172">
    <g transform="translate(136.36,0.71)" id="img-4bae43fb-173">
      <g class="primitive">
        <text text-anchor="middle" dy="0.6em">III-E K412[0][all]</text>
      </g>
    </g>
  </g>
</g>
<defs>
  <clipPath id="img-4bae43fb-4">
    <path d="M19.43,5.66 L 253.29 5.66 253.29 61.87 19.43 61.87" />
  </clipPath>
</defs>
</svg>
