<?xml version="1.0" encoding="UTF-8"?>
<svg xmlns="http://www.w3.org/2000/svg"
     xmlns:xlink="http://www.w3.org/1999/xlink"
     xmlns:gadfly="http://www.gadflyjl.org/ns"
     version="1.2"
     width="254mm" height="76.2mm" viewBox="0 0 254 76.2"
     stroke="none"
     fill="#000000"
     stroke-width="0.3"
     font-size="3.88"
>
<defs>
  <marker id="arrow" markerWidth="15" markerHeight="7" refX="5" refY="3.5" orient="auto" markerUnits="strokeWidth">
    <path d="M0,0 L15,3.5 L0,7 z" stroke="context-stroke" fill="context-stroke"/>
  </marker>
</defs>
<g class="plotroot xscalable yscalable" id="img-b86ce97f-1">
  <g font-size="3.18" font-family="'PT Sans','Helvetica Neue','Helvetica',sans-serif" fill="#202020" stroke="#000000" stroke-opacity="0.000" id="img-b86ce97f-2">
    <g transform="translate(137.53,69.54)">
      <g class="primitive">
        <text text-anchor="middle" dy="0.6em">Channels</text>
      </g>
    </g>
  </g>
  <g class="guide xlabels" font-size="2.82" font-family="'PT Sans Caption','Helvetica Neue','Helvetica',sans-serif" fill="#6C606B" id="img-b86ce97f-3">
    <g transform="translate(123.36,62.87)">
      <g class="primitive">
        <text text-anchor="middle" dy="0.6em">500</text>
      </g>
    </g>
    <g transform="translate(223.15,62.87)">
      <g class="primitive">
        <text text-anchor="middle" dy="0.6em">1000</text>
      </g>
    </g>
  </g>
  <g clip-path="url(#img-b86ce97f-4)">
    <g id="img-b86ce97f-5">
      <g pointer-events="visible" stroke-width="0.3" fill="#FDFDF1" stroke="#202020" class="guide background" id="img-b86ce97f-6">
        <g transform="translate(137.53,33.76)" id="img-b86ce97f-7">
          <path d="M-115.76,-28.1 L115.76,-28.1 115.76,28.1 -115.76,28.1  z" class="primitive"/>
        </g>
      </g>
      <g class="guide ygridlines xfixed" stroke-dasharray="none" stroke-width="0.2" stroke="#FFDFDF" id="img-b86ce97f-8">
        <g transform="translate(137.53,59.87)" id="img-b86ce97f-9">
          <path fill="none" d="M-115.76,0 L115.76,0 " class="primitive"/>
        </g>
        <g transform="translate(137.53,39.51)" id="img-b86ce97f-10">
          <path fill="none" d="M-115.76,0 L115.76,0 " class="primitive"/>
        </g>
        <g transform="translate(137.53,19.15)" id="img-b86ce97f-11">
          <path fill="none" d="M-115.76,0 L115.76,0 " class="primitive"/>
        </g>
      </g>
      <g class="guide xgridlines yfixed" stroke-dasharray="none" stroke-width="0.2" stroke="#FFDFDF" id="img-b86ce97f-12">
        <g transform="translate(123.36,33.76)" id="img-b86ce97f-13">
          <path fill="none" d="M0,-28.1 L0,28.1 " class="primitive"/>
        </g>
        <g transform="translate(223.15,33.76)" id="img-b86ce97f-14">
          <path fill="none" d="M0,-28.1 L0,28.1 " class="primitive"/>
        </g>
      </g>
      <g class="plotpanel" id="img-b86ce97f-15">
        <metadata>
          <boundingbox value="21.773888888888912mm 5.660555555555554mm 231.52055555555557mm 56.20555555555556mm"/>
          <unitbox value="-9.021072577080947 26624.268971832193 1160.0421451541617 -27606.613630011918"/>
        </metadata>
        <g class="geometry" stroke="#000000" stroke-opacity="0.000" fill="#4C404B" font-size="2.82" font-family="'PT Sans Caption','Helvetica Neue','Helvetica',sans-serif" id="img-b86ce97f-16">
          <g class="marker" id="img-b86ce97f-17">
            <g transform="translate(164.48,33.76)" id="img-b86ce97f-18">
              <g class="primitive">
                <text text-anchor="middle" dy="-0em" transform="translate(0,-1.9)">0.0667</text>
              </g>
            </g>
          </g>
        </g>
        <g class="geometry" stroke="#000000" stroke-opacity="0.000" fill="#4C404B" font-size="2.82" font-family="'PT Sans Caption','Helvetica Neue','Helvetica',sans-serif" id="img-b86ce97f-19">
          <g class="marker" id="img-b86ce97f-20">
            <g transform="translate(159.29,33.76)" id="img-b86ce97f-21">
              <g class="primitive">
                <text dy="0.35em" transform="translate(1.9,0)"></text>
              </g>
            </g>
            <g transform="translate(169.67,33.76)" id="img-b86ce97f-22">
              <g class="primitive">
                <text dy="0.35em" transform="translate(1.9,0)">Fe K-M3 + 3 others</text>
              </g>
            </g>
          </g>
        </g>
        <g class="geometry" id="img-b86ce97f-23">
          <g stroke-width="0.3" id="img-b86ce97f-24">
            <g class="color_RGBA{Float32}(0.5019608f0,0.5019608f0,0.5019608f0,1.0f0)" fill-opacity="1" stroke="#FFFFFF" fill="#808080" id="img-b86ce97f-25">
              <g class="marker" id="img-b86ce97f-26">
                <g transform="translate(169.67,33.76)" id="img-b86ce97f-27">
                  <circle cx="0" cy="0" r="0.9" class="primitive"/>
                </g>
              </g>
            </g>
            <g class="color_RGBA{Float32}(0.5019608f0,0.5019608f0,0.5019608f0,1.0f0)" fill-opacity="1" stroke="#FFFFFF" fill="#808080" id="img-b86ce97f-28">
              <g class="marker" id="img-b86ce97f-29">
                <g transform="translate(159.29,33.76)" id="img-b86ce97f-30">
                  <circle cx="0" cy="0" r="0.9" class="primitive"/>
                </g>
              </g>
            </g>
          </g>
        </g>
        <g stroke-width="0.3" fill="#000000" fill-opacity="0.000" class="geometry" id="img-b86ce97f-31">
          <g class="color_RGB{N0f8}(0.502,0.502,0.502)" stroke-dasharray="none" stroke="#808080" id="img-b86ce97f-32">
            <g transform="translate(164.48,33.76)" id="img-b86ce97f-33">
              <path fill="none" d="M-5.19,0 L5.19,0 " class="primitive"/>
            </g>
          </g>
        </g>
        <g class="geometry" stroke="#000000" stroke-opacity="0.000" fill="#4C404B" font-size="2.82" font-family="'PT Sans Caption','Helvetica Neue','Helvetica',sans-serif" id="img-b86ce97f-34">
          <g class="marker" id="img-b86ce97f-35">
            <g transform="translate(151.5,38.98)" id="img-b86ce97f-36">
              <g class="primitive">
                <text text-anchor="middle" dy="-0em" transform="translate(0,-1.9)">0.0668</text>
              </g>
            </g>
          </g>
        </g>
        <g class="geometry" stroke="#000000" stroke-opacity="0.000" fill="#4C404B" font-size="2.82" font-family="'PT Sans Caption','Helvetica Neue','Helvetica',sans-serif" id="img-b86ce97f-37">
          <g class="marker" id="img-b86ce97f-38">
            <g transform="translate(145.92,38.98)" id="img-b86ce97f-39">
              <g class="primitive">
                <text dy="0.35em" transform="translate(1.9,0)"></text>
              </g>
            </g>
            <g transform="translate(157.09,38.98)" id="img-b86ce97f-40">
              <g class="primitive">
                <text dy="0.35em" transform="translate(1.9,0)">Fe K-L3 + 1 other</text>
              </g>
            </g>
          </g>
        </g>
        <g class="geometry" id="img-b86ce97f-41">
          <g stroke-width="0.3" id="img-b86ce97f-42">
            <g class="color_RGBA{Float32}(0.5019608f0,0.5019608f0,0.5019608f0,1.0f0)" fill-opacity="1" stroke="#FFFFFF" fill="#808080" id="img-b86ce97f-43">
              <g class="marker" id="img-b86ce97f-44">
                <g transform="translate(157.09,38.98)" id="img-b86ce97f-45">
                  <circle cx="0" cy="0" r="0.9" class="primitive"/>
                </g>
              </g>
            </g>
            <g class="color_RGBA{Float32}(0.5019608f0,0.5019608f0,0.5019608f0,1.0f0)" fill-opacity="1" stroke="#FFFFFF" fill="#808080" id="img-b86ce97f-46">
              <g class="marker" id="img-b86ce97f-47">
                <g transform="translate(145.92,38.98)" id="img-b86ce97f-48">
                  <circle cx="0" cy="0" r="0.9" class="primitive"/>
                </g>
              </g>
            </g>
          </g>
        </g>
        <g stroke-width="0.3" fill="#000000" fill-opacity="0.000" class="geometry" id="img-b86ce97f-49">
          <g class="color_RGB{N0f8}(0.502,0.502,0.502)" stroke-dasharray="none" stroke="#808080" id="img-b86ce97f-50">
            <g transform="translate(151.5,38.98)" id="img-b86ce97f-51">
              <path fill="none" d="M-5.59,0 L5.59,0 " class="primitive"/>
            </g>
          </g>
        </g>
        <g class="geometry" stroke="#000000" stroke-opacity="0.000" fill="#4C404B" font-size="2.82" font-family="'PT Sans Caption','Helvetica Neue','Helvetica',sans-serif" id="img-b86ce97f-52">
          <g class="marker" id="img-b86ce97f-53">
            <g transform="translate(100.31,38.98)" id="img-b86ce97f-54">
              <g class="primitive">
                <text text-anchor="middle" dy="-0em" transform="translate(0,-1.9)">0.1922</text>
              </g>
            </g>
          </g>
        </g>
        <g class="geometry" stroke="#000000" stroke-opacity="0.000" fill="#4C404B" font-size="2.82" font-family="'PT Sans Caption','Helvetica Neue','Helvetica',sans-serif" id="img-b86ce97f-55">
          <g class="marker" id="img-b86ce97f-56">
            <g transform="translate(92.83,38.98)" id="img-b86ce97f-57">
              <g class="primitive">
                <text dy="0.35em" transform="translate(1.9,0)"></text>
              </g>
            </g>
            <g transform="translate(107.8,38.98)" id="img-b86ce97f-58">
              <g class="primitive">
                <text dy="0.35em" transform="translate(1.9,0)">Ca K-L3 + 3 others</text>
              </g>
            </g>
          </g>
        </g>
        <g class="geometry" id="img-b86ce97f-59">
          <g stroke-width="0.3" id="img-b86ce97f-60">
            <g class="color_RGBA{Float32}(0.5019608f0,0.5019608f0,0.5019608f0,1.0f0)" fill-opacity="1" stroke="#FFFFFF" fill="#808080" id="img-b86ce97f-61">
              <g class="marker" id="img-b86ce97f-62">
                <g transform="translate(107.8,38.98)" id="img-b86ce97f-63">
                  <circle cx="0" cy="0" r="0.9" class="primitive"/>
                </g>
              </g>
            </g>
            <g class="color_RGBA{Float32}(0.5019608f0,0.5019608f0,0.5019608f0,1.0f0)" fill-opacity="1" stroke="#FFFFFF" fill="#808080" id="img-b86ce97f-64">
              <g class="marker" id="img-b86ce97f-65">
                <g transform="translate(92.83,38.98)" id="img-b86ce97f-66">
                  <circle cx="0" cy="0" r="0.9" class="primitive"/>
                </g>
              </g>
            </g>
          </g>
        </g>
        <g stroke-width="0.3" fill="#000000" fill-opacity="0.000" class="geometry" id="img-b86ce97f-67">
          <g class="color_RGB{N0f8}(0.502,0.502,0.502)" stroke-dasharray="none" stroke="#808080" id="img-b86ce97f-68">
            <g transform="translate(100.31,38.98)" id="img-b86ce97f-69">
              <path fill="none" d="M-7.48,0 L7.48,0 " class="primitive"/>
            </g>
          </g>
        </g>
        <g class="geometry" stroke="#000000" stroke-opacity="0.000" fill="#4C404B" font-size="2.82" font-family="'PT Sans Caption','Helvetica Neue','Helvetica',sans-serif" id="img-b86ce97f-70">
          <g class="marker" id="img-b86ce97f-71">
            <g transform="translate(58.9,18.1)" id="img-b86ce97f-72">
              <g class="primitive">
                <text text-anchor="middle" dy="-0em" transform="translate(0,-1.9)">0.3508</text>
              </g>
            </g>
          </g>
        </g>
        <g class="geometry" stroke="#000000" stroke-opacity="0.000" fill="#4C404B" font-size="2.82" font-family="'PT Sans Caption','Helvetica Neue','Helvetica',sans-serif" id="img-b86ce97f-73">
          <g class="marker" id="img-b86ce97f-74">
            <g transform="translate(54.91,18.1)" id="img-b86ce97f-75">
              <g class="primitive">
                <text dy="0.35em" transform="translate(1.9,0)"></text>
              </g>
            </g>
            <g transform="translate(62.89,18.1)" id="img-b86ce97f-76">
              <g class="primitive">
                <text dy="0.35em" transform="translate(1.9,0)">Si K-L3 + 2 others</text>
              </g>
            </g>
          </g>
        </g>
        <g class="geometry" id="img-b86ce97f-77">
          <g stroke-width="0.3" id="img-b86ce97f-78">
            <g class="color_RGBA{Float32}(0.5019608f0,0.5019608f0,0.5019608f0,1.0f0)" fill-opacity="1" stroke="#FFFFFF" fill="#808080" id="img-b86ce97f-79">
              <g class="marker" id="img-b86ce97f-80">
                <g transform="translate(62.89,18.1)" id="img-b86ce97f-81">
                  <circle cx="0" cy="0" r="0.9" class="primitive"/>
                </g>
              </g>
            </g>
            <g class="color_RGBA{Float32}(0.5019608f0,0.5019608f0,0.5019608f0,1.0f0)" fill-opacity="1" stroke="#FFFFFF" fill="#808080" id="img-b86ce97f-82">
              <g class="marker" id="img-b86ce97f-83">
                <g transform="translate(54.91,18.1)" id="img-b86ce97f-84">
                  <circle cx="0" cy="0" r="0.9" class="primitive"/>
                </g>
              </g>
            </g>
          </g>
        </g>
        <g stroke-width="0.3" fill="#000000" fill-opacity="0.000" class="geometry" id="img-b86ce97f-85">
          <g class="color_RGB{N0f8}(0.502,0.502,0.502)" stroke-dasharray="none" stroke="#808080" id="img-b86ce97f-86">
            <g transform="translate(58.9,18.1)" id="img-b86ce97f-87">
              <path fill="none" d="M-3.99,0 L3.99,0 " class="primitive"/>
            </g>
          </g>
        </g>
        <g class="geometry" stroke="#000000" stroke-opacity="0.000" fill="#4C404B" font-size="2.82" font-family="'PT Sans Caption','Helvetica Neue','Helvetica',sans-serif" id="img-b86ce97f-88">
          <g class="marker" id="img-b86ce97f-89">
            <g transform="translate(53.51,23.32)" id="img-b86ce97f-90">
              <g class="primitive">
                <text text-anchor="middle" dy="-0em" transform="translate(0,-1.9)">0.0669</text>
              </g>
            </g>
          </g>
        </g>
        <g class="geometry" stroke="#000000" stroke-opacity="0.000" fill="#4C404B" font-size="2.82" font-family="'PT Sans Caption','Helvetica Neue','Helvetica',sans-serif" id="img-b86ce97f-91">
          <g class="marker" id="img-b86ce97f-92">
            <g transform="translate(49.92,23.32)" id="img-b86ce97f-93">
              <g class="primitive">
                <text dy="0.35em" transform="translate(1.9,0)"></text>
              </g>
            </g>
            <g transform="translate(57.1,23.32)" id="img-b86ce97f-94">
              <g class="primitive">
                <text dy="0.35em" transform="translate(1.9,0)">Al K-L3 + 2 others</text>
              </g>
            </g>
          </g>
        </g>
        <g class="geometry" id="img-b86ce97f-95">
          <g stroke-width="0.3" id="img-b86ce97f-96">
            <g class="color_RGBA{Float32}(0.5019608f0,0.5019608f0,0.5019608f0,1.0f0)" fill-opacity="1" stroke="#FFFFFF" fill="#808080" id="img-b86ce97f-97">
              <g class="marker" id="img-b86ce97f-98">
                <g transform="translate(57.1,23.32)" id="img-b86ce97f-99">
                  <circle cx="0" cy="0" r="0.9" class="primitive"/>
                </g>
              </g>
            </g>
            <g class="color_RGBA{Float32}(0.5019608f0,0.5019608f0,0.5019608f0,1.0f0)" fill-opacity="1" stroke="#FFFFFF" fill="#808080" id="img-b86ce97f-100">
              <g class="marker" id="img-b86ce97f-101">
                <g transform="translate(49.92,23.32)" id="img-b86ce97f-102">
                  <circle cx="0" cy="0" r="0.9" class="primitive"/>
                </g>
              </g>
            </g>
          </g>
        </g>
        <g stroke-width="0.3" fill="#000000" fill-opacity="0.000" class="geometry" id="img-b86ce97f-103">
          <g class="color_RGB{N0f8}(0.502,0.502,0.502)" stroke-dasharray="none" stroke="#808080" id="img-b86ce97f-104">
            <g transform="translate(53.51,23.32)" id="img-b86ce97f-105">
              <path fill="none" d="M-3.59,0 L3.59,0 " class="primitive"/>
            </g>
          </g>
        </g>
        <g class="geometry" stroke="#000000" stroke-opacity="0.000" fill="#4C404B" font-size="2.82" font-family="'PT Sans Caption','Helvetica Neue','Helvetica',sans-serif" id="img-b86ce97f-106">
          <g class="marker" id="img-b86ce97f-107">
            <g transform="translate(48.72,28.54)" id="img-b86ce97f-108">
              <g class="primitive">
                <text text-anchor="middle" dy="-0em" transform="translate(0,-1.9)">0.1473</text>
              </g>
            </g>
          </g>
        </g>
        <g class="geometry" stroke="#000000" stroke-opacity="0.000" fill="#4C404B" font-size="2.82" font-family="'PT Sans Caption','Helvetica Neue','Helvetica',sans-serif" id="img-b86ce97f-109">
          <g class="marker" id="img-b86ce97f-110">
            <g transform="translate(45.53,28.54)" id="img-b86ce97f-111">
              <g class="primitive">
                <text dy="0.35em" transform="translate(1.9,0)"></text>
              </g>
            </g>
            <g transform="translate(51.91,28.54)" id="img-b86ce97f-112">
              <g class="primitive">
                <text dy="0.35em" transform="translate(1.9,0)">Mg K-L3 + 1 other</text>
              </g>
            </g>
          </g>
        </g>
        <g class="geometry" id="img-b86ce97f-113">
          <g stroke-width="0.3" id="img-b86ce97f-114">
            <g class="color_RGBA{Float32}(0.5019608f0,0.5019608f0,0.5019608f0,1.0f0)" fill-opacity="1" stroke="#FFFFFF" fill="#808080" id="img-b86ce97f-115">
              <g class="marker" id="img-b86ce97f-116">
                <g transform="translate(51.91,28.54)" id="img-b86ce97f-117">
                  <circle cx="0" cy="0" r="0.9" class="primitive"/>
                </g>
              </g>
            </g>
            <g class="color_RGBA{Float32}(0.5019608f0,0.5019608f0,0.5019608f0,1.0f0)" fill-opacity="1" stroke="#FFFFFF" fill="#808080" id="img-b86ce97f-118">
              <g class="marker" id="img-b86ce97f-119">
                <g transform="translate(45.53,28.54)" id="img-b86ce97f-120">
                  <circle cx="0" cy="0" r="0.9" class="primitive"/>
                </g>
              </g>
            </g>
          </g>
        </g>
        <g stroke-width="0.3" fill="#000000" fill-opacity="0.000" class="geometry" id="img-b86ce97f-121">
          <g class="color_RGB{N0f8}(0.502,0.502,0.502)" stroke-dasharray="none" stroke="#808080" id="img-b86ce97f-122">
            <g transform="translate(48.72,28.54)" id="img-b86ce97f-123">
              <path fill="none" d="M-3.19,0 L3.19,0 " class="primitive"/>
            </g>
          </g>
        </g>
        <g class="geometry" stroke="#000000" stroke-opacity="0.000" fill="#4C404B" font-size="2.82" font-family="'PT Sans Caption','Helvetica Neue','Helvetica',sans-serif" id="img-b86ce97f-124">
          <g class="marker" id="img-b86ce97f-125">
            <g transform="translate(37.74,33.76)" id="img-b86ce97f-126">
              <g class="primitive">
                <text text-anchor="middle" dy="-0em" transform="translate(0,-1.9)">0.0426</text>
              </g>
            </g>
          </g>
        </g>
        <g class="geometry" stroke="#000000" stroke-opacity="0.000" fill="#4C404B" font-size="2.82" font-family="'PT Sans Caption','Helvetica Neue','Helvetica',sans-serif" id="img-b86ce97f-127">
          <g class="marker" id="img-b86ce97f-128">
            <g transform="translate(33.35,33.76)" id="img-b86ce97f-129">
              <g class="primitive">
                <text dy="0.35em" transform="translate(1.9,0)"></text>
              </g>
            </g>
            <g transform="translate(42.14,33.76)" id="img-b86ce97f-130">
              <g class="primitive">
                <text dy="0.35em" transform="translate(1.9,0)">Fe L3-M5 + 13 others</text>
              </g>
            </g>
          </g>
        </g>
        <g class="geometry" id="img-b86ce97f-131">
          <g stroke-width="0.3" id="img-b86ce97f-132">
            <g class="color_RGBA{Float32}(0.5019608f0,0.5019608f0,0.5019608f0,1.0f0)" fill-opacity="1" stroke="#FFFFFF" fill="#808080" id="img-b86ce97f-133">
              <g class="marker" id="img-b86ce97f-134">
                <g transform="translate(42.14,33.76)" id="img-b86ce97f-135">
                  <circle cx="0" cy="0" r="0.9" class="primitive"/>
                </g>
              </g>
            </g>
            <g class="color_RGBA{Float32}(0.5019608f0,0.5019608f0,0.5019608f0,1.0f0)" fill-opacity="1" stroke="#FFFFFF" fill="#808080" id="img-b86ce97f-136">
              <g class="marker" id="img-b86ce97f-137">
                <g transform="translate(33.35,33.76)" id="img-b86ce97f-138">
                  <circle cx="0" cy="0" r="0.9" class="primitive"/>
                </g>
              </g>
            </g>
          </g>
        </g>
        <g stroke-width="0.3" fill="#000000" fill-opacity="0.000" class="geometry" id="img-b86ce97f-139">
          <g class="color_RGB{N0f8}(0.502,0.502,0.502)" stroke-dasharray="none" stroke="#808080" id="img-b86ce97f-140">
            <g transform="translate(37.74,33.76)" id="img-b86ce97f-141">
              <path fill="none" d="M-4.39,0 L4.39,0 " class="primitive"/>
            </g>
          </g>
        </g>
        <g class="geometry" stroke="#000000" stroke-opacity="0.000" fill="#4C404B" font-size="2.82" font-family="'PT Sans Caption','Helvetica Neue','Helvetica',sans-serif" id="img-b86ce97f-142">
          <g class="marker" id="img-b86ce97f-143">
            <g transform="translate(34.15,38.98)" id="img-b86ce97f-144">
              <g class="primitive">
                <text text-anchor="middle" dy="-0em" transform="translate(0,-1.9)">0.6467</text>
              </g>
            </g>
          </g>
        </g>
        <g class="geometry" stroke="#000000" stroke-opacity="0.000" fill="#4C404B" font-size="2.82" font-family="'PT Sans Caption','Helvetica Neue','Helvetica',sans-serif" id="img-b86ce97f-145">
          <g class="marker" id="img-b86ce97f-146">
            <g transform="translate(31.56,38.98)" id="img-b86ce97f-147">
              <g class="primitive">
                <text dy="0.35em" transform="translate(1.9,0)"></text>
              </g>
            </g>
            <g transform="translate(36.75,38.98)" id="img-b86ce97f-148">
              <g class="primitive">
                <text dy="0.35em" transform="translate(1.9,0)">O K-L3 + 1 other</text>
              </g>
            </g>
          </g>
        </g>
        <g class="geometry" id="img-b86ce97f-149">
          <g stroke-width="0.3" id="img-b86ce97f-150">
            <g class="color_RGBA{Float32}(0.5019608f0,0.5019608f0,0.5019608f0,1.0f0)" fill-opacity="1" stroke="#FFFFFF" fill="#808080" id="img-b86ce97f-151">
              <g class="marker" id="img-b86ce97f-152">
                <g transform="translate(36.75,38.98)" id="img-b86ce97f-153">
                  <circle cx="0" cy="0" r="0.9" class="primitive"/>
                </g>
              </g>
            </g>
            <g class="color_RGBA{Float32}(0.5019608f0,0.5019608f0,0.5019608f0,1.0f0)" fill-opacity="1" stroke="#FFFFFF" fill="#808080" id="img-b86ce97f-154">
              <g class="marker" id="img-b86ce97f-155">
                <g transform="translate(31.56,38.98)" id="img-b86ce97f-156">
                  <circle cx="0" cy="0" r="0.9" class="primitive"/>
                </g>
              </g>
            </g>
          </g>
        </g>
        <g stroke-width="0.3" fill="#000000" fill-opacity="0.000" class="geometry" id="img-b86ce97f-157">
          <g class="color_RGB{N0f8}(0.502,0.502,0.502)" stroke-dasharray="none" stroke="#808080" id="img-b86ce97f-158">
            <g transform="translate(34.15,38.98)" id="img-b86ce97f-159">
              <path fill="none" d="M-2.59,0 L2.59,0 " class="primitive"/>
            </g>
          </g>
        </g>
        <g stroke-width="0.3" fill="#000000" fill-opacity="0.000" class="geometry" id="img-b86ce97f-160">
          <g class="color_RGB{N0f8}(0.063,0.306,0.545)" stroke-dasharray="none" stroke="#104E8B" id="img-b86ce97f-161">
            <g transform="translate(137.58,45.63)" id="img-b86ce97f-162">
              <path fill="none" d="M-113.81,14.22 L-113.61,14.22 -113.61,14.22 -113.41,14.22 -113.41,14.22 -113.21,14.22 -113.21,14.23 -113.01,14.23 -113.01,14.23 -112.81,14.23 -112.81,14.23 -112.61,14.23 -112.61,14.23 -112.41,14.23 -112.41,14.23 -112.21,14.23 -112.21,14.23 -112.01,14.23 -112.01,14.23 -111.81,14.23 -111.81,14.23 -111.61,14.23 -111.61,14.22 -111.42,14.22 -111.42,14.22 -111.22,14.22 -111.22,14.22 -111.02,14.22 -111.02,14.22 -110.82,14.22 -110.82,14.2 -110.62,14.2 -110.62,14.18 -110.42,14.18 -110.42,14.13 -110.22,14.13 -110.22,14.06 -110.02,14.06 -110.02,13.89 -109.82,13.89 -109.82,13.62 -109.62,13.62 -109.62,13.07 -109.42,13.07 -109.42,12.01 -109.22,12.01 -109.22,10.19 -109.02,10.19 -109.02,7.37 -108.82,7.37 -108.82,4.52 -108.62,4.52 -108.62,1.97 -108.42,1.97 -108.42,0.88 -108.22,0.88 -108.22,1.85 -108.02,1.85 -108.02,4.16 -107.82,4.16 -107.82,6.91 -107.62,6.91 -107.62,8.71 -107.42,8.71 -107.42,10.16 -107.22,10.16 -107.22,10.75 -107.02,10.75 -107.02,10.85 -106.82,10.85 -106.82,10.89 -106.63,10.89 -106.63,10.78 -106.43,10.78 -106.43,10.85 -106.23,10.85 -106.23,10.4 -106.03,10.4 -106.03,10.28 -105.83,10.28 -105.83,9.79 -105.63,9.79 -105.63,9.2 -105.43,9.2 -105.43,8 -105.23,8 -105.23,5.97 -105.03,5.97 -105.03,1.33 -104.83,1.33 -104.83,-7.39 -104.63,-7.39 -104.63,-22.97 -104.43,-22.97 -104.43,-49.8 -104.23,-49.8 -104.23,-91.06 -104.03,-91.06 -104.03,-142.46 -103.83,-142.46 -103.83,-196.37 -103.63,-196.37 -103.63,-235.36 -103.43,-235.36 -103.43,-243.04 -103.23,-243.04 -103.23,-218.61 -103.03,-218.61 -103.03,-170.33 -102.83,-170.33 -102.83,-113.3 -102.63,-113.3 -102.63,-63.75 -102.43,-63.75 -102.43,-28.06 -102.23,-28.06 -102.23,-8.3 -102.03,-8.3 -102.03,1.7 -101.84,1.7 -101.84,6.29 -101.64,6.29 -101.64,7.73 -101.44,7.73 -101.44,8.31 -101.24,8.31 -101.24,8.55 -101.04,8.55 -101.04,7.93 -100.84,7.93 -100.84,7.12 -100.64,7.12 -100.64,5.67 -100.44,5.67 -100.44,3.37 -100.24,3.37 -100.24,0.77 -100.04,0.77 -100.04,-1.91 -99.84,-1.91 -99.84,-3.37 -99.64,-3.37 -99.64,-3.47 -99.44,-3.47 -99.44,-2.38 -99.24,-2.38 -99.24,0.29 -99.04,0.29 -99.04,2.9 -98.84,2.9 -98.84,4.98 -98.64,4.98 -98.64,6.67 -98.44,6.67 -98.44,7.85 -98.24,7.85 -98.24,8.16 -98.04,8.16 -98.04,8.24 -97.84,8.24 -97.84,8.45 -97.64,8.45 -97.64,8.52 -97.44,8.52 -97.44,8.52 -97.25,8.52 -97.25,8.19 -97.05,8.19 -97.05,8.25 -96.85,8.25 -96.85,8.01 -96.65,8.01 -96.65,7.74 -96.45,7.74 -96.45,7.92 -96.25,7.92 -96.25,7.76 -96.05,7.76 -96.05,7.44 -95.85,7.44 -95.85,7.46 -95.65,7.46 -95.65,7.53 -95.45,7.53 -95.45,7.23 -95.25,7.23 -95.25,7.06 -95.05,7.06 -95.05,6.77 -94.85,6.77 -94.85,6.74 -94.65,6.74 -94.65,6.18 -94.45,6.18 -94.45,6.39 -94.25,6.39 -94.25,6.06 -94.05,6.06 -94.05,5.66 -93.85,5.66 -93.85,5.46 -93.65,5.46 -93.65,4.93 -93.45,4.93 -93.45,4.48 -93.25,4.48 -93.25,4.42 -93.05,4.42 -93.05,4.39 -92.85,4.39 -92.85,4.29 -92.65,4.29 -92.65,3.76 -92.46,3.76 -92.46,3.76 -92.26,3.76 -92.26,3.51 -92.06,3.51 -92.06,3.78 -91.86,3.78 -91.86,3.31 -91.66,3.31 -91.66,3.05 -91.46,3.05 -91.46,2.97 -91.26,2.97 -91.26,2.61 -91.06,2.61 -91.06,1.65 -90.86,1.65 -90.86,0.64 -90.66,0.64 -90.66,-1.73 -90.46,-1.73 -90.46,-6.65 -90.26,-6.65 -90.26,-16.09 -90.06,-16.09 -90.06,-31.72 -89.86,-31.72 -89.86,-58.1 -89.66,-58.1 -89.66,-94.46 -89.46,-94.46 -89.46,-140.08 -89.26,-140.08 -89.26,-185.64 -89.06,-185.64 -89.06,-222.25 -88.86,-222.25 -88.86,-241.01 -88.66,-241.01 -88.66,-236.13 -88.46,-236.13 -88.46,-210.52 -88.26,-210.52 -88.26,-169.54 -88.06,-169.54 -88.06,-124.12 -87.86,-124.12 -87.86,-82.69 -87.67,-82.69 -87.67,-50.74 -87.47,-50.74 -87.47,-27.29 -87.27,-27.29 -87.27,-13.47 -87.07,-13.47 -87.07,-4.88 -86.87,-4.88 -86.87,-0.92 -86.67,-0.92 -86.67,1.23 -86.47,1.23 -86.47,1.69 -86.27,1.69 -86.27,2.07 -86.07,2.07 -86.07,1.19 -85.87,1.19 -85.87,-0.57 -85.67,-0.57 -85.67,-3.85 -85.47,-3.85 -85.47,-10.5 -85.27,-10.5 -85.27,-20.73 -85.07,-20.73 -85.07,-35.33 -84.87,-35.33 -84.87,-52.88 -84.67,-52.88 -84.67,-71.97 -84.47,-71.97 -84.47,-87.92 -84.27,-87.92 -84.27,-97.77 -84.07,-97.77 -84.07,-99.36 -83.87,-99.36 -83.87,-92.57 -83.67,-92.57 -83.67,-77.27 -83.47,-77.27 -83.47,-60.08 -83.27,-60.08 -83.27,-42.33 -83.07,-42.33 -83.07,-27.86 -82.88,-27.86 -82.88,-16.34 -82.68,-16.34 -82.68,-9.75 -82.48,-9.75 -82.48,-4.7 -82.28,-4.7 -82.28,-1.65 -82.08,-1.65 -82.08,-0.42 -81.88,-0.42 -81.88,0.75 -81.68,0.75 -81.68,1.42 -81.48,1.42 -81.48,0.33 -81.28,0.33 -81.28,-1.22 -81.08,-1.22 -81.08,-5.47 -80.88,-5.47 -80.88,-13.99 -80.68,-13.99 -80.68,-29.77 -80.48,-29.77 -80.48,-58.96 -80.28,-58.96 -80.28,-101.16 -80.08,-101.16 -80.08,-161.36 -79.88,-161.36 -79.88,-236.15 -79.68,-236.15 -79.68,-315.93 -79.48,-315.93 -79.48,-386.42 -79.28,-386.42 -79.28,-442.8 -79.08,-442.8 -79.08,-459.46 -78.88,-459.46 -78.88,-438.92 -78.68,-438.92 -78.68,-386.17 -78.48,-386.17 -78.48,-314.29 -78.29,-314.29 -78.29,-238.85 -78.09,-238.85 -78.09,-169.56 -77.89,-169.56 -77.89,-114.18 -77.69,-114.18 -77.69,-73.5 -77.49,-73.5 -77.49,-46.95 -77.29,-46.95 -77.29,-30.88 -77.09,-30.88 -77.09,-21.15 -76.89,-21.15 -76.89,-14.43 -76.69,-14.43 -76.69,-9.21 -76.49,-9.21 -76.49,-4.77 -76.29,-4.77 -76.29,-1.53 -76.09,-1.53 -76.09,1.09 -75.89,1.09 -75.89,2.68 -75.69,2.68 -75.69,3.36 -75.49,3.36 -75.49,3.85 -75.29,3.85 -75.29,4.58 -75.09,4.58 -75.09,4.9 -74.89,4.9 -74.89,4.75 -74.69,4.75 -74.69,4.96 -74.49,4.96 -74.49,5.21 -74.29,5.21 -74.29,5.41 -74.09,5.41 -74.09,5.42 -73.89,5.42 -73.89,5.73 -73.69,5.73 -73.69,6.06 -73.5,6.06 -73.5,5.95 -73.3,5.95 -73.3,6.42 -73.1,6.42 -73.1,6.47 -72.9,6.47 -72.9,6.45 -72.7,6.45 -72.7,6.37 -72.5,6.37 -72.5,6.5 -72.3,6.5 -72.3,6.61 -72.1,6.61 -72.1,6.36 -71.9,6.36 -71.9,6.36 -71.7,6.36 -71.7,6.46 -71.5,6.46 -71.5,6.44 -71.3,6.44 -71.3,6.74 -71.1,6.74 -71.1,6.19 -70.9,6.19 -70.9,6.42 -70.7,6.42 -70.7,6.24 -70.5,6.24 -70.5,6.46 -70.3,6.46 -70.3,6.47 -70.1,6.47 -70.1,6.12 -69.9,6.12 -69.9,6.03 -69.7,6.03 -69.7,5.86 -69.5,5.86 -69.5,5.8 -69.3,5.8 -69.3,5.7 -69.1,5.7 -69.1,5.6 -68.9,5.6 -68.9,5.54 -68.71,5.54 -68.71,5.62 -68.51,5.62 -68.51,5.48 -68.31,5.48 -68.31,5.39 -68.11,5.39 -68.11,5.79 -67.91,5.79 -67.91,5.92 -67.71,5.92 -67.71,6.02 -67.51,6.02 -67.51,5.94 -67.31,5.94 -67.31,6.03 -67.11,6.03 -67.11,6.11 -66.91,6.11 -66.91,6.03 -66.71,6.03 -66.71,6.31 -66.51,6.31 -66.51,6.28 -66.31,6.28 -66.31,6.31 -66.11,6.31 -66.11,6.3 -65.91,6.3 -65.91,6.32 -65.71,6.32 -65.71,6.35 -65.51,6.35 -65.51,6.43 -65.31,6.43 -65.31,6.11 -65.11,6.11 -65.11,6.37 -64.91,6.37 -64.91,6.35 -64.71,6.35 -64.71,6.09 -64.51,6.09 -64.51,6.27 -64.31,6.27 -64.31,6.27 -64.11,6.27 -64.11,6.2 -63.92,6.2 -63.92,6.4 -63.72,6.4 -63.72,6.21 -63.52,6.21 -63.52,6.31 -63.32,6.31 -63.32,6 -63.12,6 -63.12,6.42 -62.92,6.42 -62.92,6.19 -62.72,6.19 -62.72,6.08 -62.52,6.08 -62.52,6.75 -62.32,6.75 -62.32,6.23 -62.12,6.23 -62.12,6.46 -61.92,6.46 -61.92,6.32 -61.72,6.32 -61.72,6.42 -61.52,6.42 -61.52,6.41 -61.32,6.41 -61.32,6.25 -61.12,6.25 -61.12,6.51 -60.92,6.51 -60.92,6.4 -60.72,6.4 -60.72,6.42 -60.52,6.42 -60.52,6.43 -60.32,6.43 -60.32,6.56 -60.12,6.56 -60.12,6.44 -59.92,6.44 -59.92,6.55 -59.72,6.55 -59.72,6.57 -59.52,6.57 -59.52,6.26 -59.32,6.26 -59.32,6.54 -59.13,6.54 -59.13,6.53 -58.93,6.53 -58.93,6.56 -58.73,6.56 -58.73,6.69 -58.53,6.69 -58.53,6.51 -58.33,6.51 -58.33,6.44 -58.13,6.44 -58.13,6.81 -57.93,6.81 -57.93,6.72 -57.73,6.72 -57.73,6.72 -57.53,6.72 -57.53,6.63 -57.33,6.63 -57.33,6.54 -57.13,6.54 -57.13,6.61 -56.93,6.61 -56.93,6.84 -56.73,6.84 -56.73,6.73 -56.53,6.73 -56.53,6.5 -56.33,6.5 -56.33,6.77 -56.13,6.77 -56.13,6.58 -55.93,6.58 -55.93,6.51 -55.73,6.51 -55.73,6.48 -55.53,6.48 -55.53,6.56 -55.33,6.56 -55.33,6.76 -55.13,6.76 -55.13,6.52 -54.93,6.52 -54.93,6.43 -54.73,6.43 -54.73,6.25 -54.54,6.25 -54.54,6.28 -54.34,6.28 -54.34,6.31 -54.14,6.31 -54.14,6.34 -53.94,6.34 -53.94,6.5 -53.74,6.5 -53.74,6.46 -53.54,6.46 -53.54,6.66 -53.34,6.66 -53.34,6.65 -53.14,6.65 -53.14,6.67 -52.94,6.67 -52.94,6.92 -52.74,6.92 -52.74,6.73 -52.54,6.73 -52.54,6.88 -52.34,6.88 -52.34,6.94 -52.14,6.94 -52.14,6.96 -51.94,6.96 -51.94,6.93 -51.74,6.93 -51.74,7.12 -51.54,7.12 -51.54,7.15 -51.34,7.15 -51.34,6.89 -51.14,6.89 -51.14,7.07 -50.94,7.07 -50.94,6.93 -50.74,6.93 -50.74,6.78 -50.54,6.78 -50.54,6.91 -50.34,6.91 -50.34,6.92 -50.14,6.92 -50.14,6.94 -49.94,6.94 -49.94,7.08 -49.75,7.08 -49.75,6.92 -49.55,6.92 -49.55,6.81 -49.35,6.81 -49.35,7.12 -49.15,7.12 -49.15,6.97 -48.95,6.97 -48.95,6.71 -48.75,6.71 -48.75,7.3 -48.55,7.3 -48.55,6.97 -48.35,6.97 -48.35,7.25 -48.15,7.25 -48.15,7.09 -47.95,7.09 -47.95,7.06 -47.75,7.06 -47.75,7.1 -47.55,7.1 -47.55,7.31 -47.35,7.31 -47.35,7.56 -47.15,7.56 -47.15,7.49 -46.95,7.49 -46.95,7.38 -46.75,7.38 -46.75,7.26 -46.55,7.26 -46.55,7.3 -46.35,7.3 -46.35,7.42 -46.15,7.42 -46.15,7.56 -45.95,7.56 -45.95,7.27 -45.75,7.27 -45.75,7.49 -45.55,7.49 -45.55,7.57 -45.35,7.57 -45.35,7.44 -45.15,7.44 -45.15,7.24 -44.96,7.24 -44.96,7.12 -44.76,7.12 -44.76,7.27 -44.56,7.27 -44.56,7.2 -44.36,7.2 -44.36,7.08 -44.16,7.08 -44.16,6.88 -43.96,6.88 -43.96,7.01 -43.76,7.01 -43.76,6.6 -43.56,6.6 -43.56,6.5 -43.36,6.5 -43.36,6.37 -43.16,6.37 -43.16,6.07 -42.96,6.07 -42.96,5.35 -42.76,5.35 -42.76,4.32 -42.56,4.32 -42.56,2.86 -42.36,2.86 -42.36,-0.38 -42.16,-0.38 -42.16,-4.61 -41.96,-4.61 -41.96,-10.95 -41.76,-10.95 -41.76,-20.44 -41.56,-20.44 -41.56,-32.68 -41.36,-32.68 -41.36,-48.65 -41.16,-48.65 -41.16,-67.08 -40.96,-67.08 -40.96,-86.84 -40.76,-86.84 -40.76,-105.08 -40.56,-105.08 -40.56,-122.98 -40.36,-122.98 -40.36,-135.02 -40.17,-135.02 -40.17,-139.97 -39.97,-139.97 -39.97,-139.99 -39.77,-139.99 -39.77,-131.39 -39.57,-131.39 -39.57,-117.34 -39.37,-117.34 -39.37,-101.1 -39.17,-101.1 -39.17,-80.58 -38.97,-80.58 -38.97,-61.85 -38.77,-61.85 -38.77,-42.98 -38.57,-42.98 -38.57,-28.57 -38.37,-28.57 -38.37,-16.94 -38.17,-16.94 -38.17,-8.33 -37.97,-8.33 -37.97,-2.49 -37.77,-2.49 -37.77,1.82 -37.57,1.82 -37.57,4.48 -37.37,4.48 -37.37,5.65 -37.17,5.65 -37.17,7.04 -36.97,7.04 -36.97,7.23 -36.77,7.23 -36.77,7.64 -36.57,7.64 -36.57,7.6 -36.37,7.6 -36.37,7.6 -36.17,7.6 -36.17,7.18 -35.97,7.18 -35.97,7.18 -35.77,7.18 -35.77,6.34 -35.58,6.34 -35.58,5.67 -35.38,5.67 -35.38,4.57 -35.18,4.57 -35.18,2.81 -34.98,2.81 -34.98,1.27 -34.78,1.27 -34.78,-0.83 -34.58,-0.83 -34.58,-3.19 -34.38,-3.19 -34.38,-5.14 -34.18,-5.14 -34.18,-7.09 -33.98,-7.09 -33.98,-7.99 -33.78,-7.99 -33.78,-9.31 -33.58,-9.31 -33.58,-9.17 -33.38,-9.17 -33.38,-8.44 -33.18,-8.44 -33.18,-7.17 -32.98,-7.17 -32.98,-5.4 -32.78,-5.4 -32.78,-3.22 -32.58,-3.22 -32.58,-0.75 -32.38,-0.75 -32.38,1.5 -32.18,1.5 -32.18,3.34 -31.98,3.34 -31.98,5.11 -31.78,5.11 -31.78,6.29 -31.58,6.29 -31.58,7.25 -31.38,7.25 -31.38,7.74 -31.18,7.74 -31.18,8.35 -30.98,8.35 -30.98,8.92 -30.79,8.92 -30.79,8.72 -30.59,8.72 -30.59,8.86 -30.39,8.86 -30.39,8.79 -30.19,8.79 -30.19,9.06 -29.99,9.06 -29.99,9.09 -29.79,9.09 -29.79,9.01 -29.59,9.01 -29.59,9.09 -29.39,9.09 -29.39,8.98 -29.19,8.98 -29.19,9.14 -28.99,9.14 -28.99,9.1 -28.79,9.1 -28.79,9.28 -28.59,9.28 -28.59,9.06 -28.39,9.06 -28.39,9.45 -28.19,9.45 -28.19,9.39 -27.99,9.39 -27.99,9.36 -27.79,9.36 -27.79,9.33 -27.59,9.33 -27.59,9.35 -27.39,9.35 -27.39,9.27 -27.19,9.27 -27.19,9.6 -26.99,9.6 -26.99,9.32 -26.79,9.32 -26.79,9.46 -26.59,9.46 -26.59,9.5 -26.39,9.5 -26.39,9.33 -26.19,9.33 -26.19,9.47 -26,9.47 -26,9.67 -25.8,9.67 -25.8,9.45 -25.6,9.45 -25.6,9.4 -25.4,9.4 -25.4,9.64 -25.2,9.64 -25.2,9.45 -25,9.45 -25,9.48 -24.8,9.48 -24.8,9.73 -24.6,9.73 -24.6,9.57 -24.4,9.57 -24.4,9.57 -24.2,9.57 -24.2,9.6 -24,9.6 -24,9.49 -23.8,9.49 -23.8,9.62 -23.6,9.62 -23.6,9.43 -23.4,9.43 -23.4,9.69 -23.2,9.69 -23.2,9.67 -23,9.67 -23,9.72 -22.8,9.72 -22.8,9.62 -22.6,9.62 -22.6,9.79 -22.4,9.79 -22.4,9.59 -22.2,9.59 -22.2,9.63 -22,9.63 -22,9.71 -21.8,9.71 -21.8,9.54 -21.6,9.54 -21.6,9.41 -21.4,9.41 -21.4,9.66 -21.21,9.66 -21.21,9.69 -21.01,9.69 -21.01,9.53 -20.81,9.53 -20.81,9.77 -20.61,9.77 -20.61,9.88 -20.41,9.88 -20.41,9.78 -20.21,9.78 -20.21,9.71 -20.01,9.71 -20.01,9.74 -19.81,9.74 -19.81,9.6 -19.61,9.6 -19.61,9.78 -19.41,9.78 -19.41,9.77 -19.21,9.77 -19.21,9.97 -19.01,9.97 -19.01,9.96 -18.81,9.96 -18.81,9.92 -18.61,9.92 -18.61,9.96 -18.41,9.96 -18.41,9.94 -18.21,9.94 -18.21,9.83 -18.01,9.83 -18.01,10.02 -17.81,10.02 -17.81,10.05 -17.61,10.05 -17.61,10.05 -17.41,10.05 -17.41,10.23 -17.21,10.23 -17.21,9.96 -17.01,9.96 -17.01,9.91 -16.81,9.91 -16.81,9.98 -16.61,9.98 -16.61,10.12 -16.42,10.12 -16.42,10.02 -16.22,10.02 -16.22,9.9 -16.02,9.9 -16.02,10.03 -15.82,10.03 -15.82,9.91 -15.62,9.91 -15.62,9.96 -15.42,9.96 -15.42,9.99 -15.22,9.99 -15.22,10.01 -15.02,10.01 -15.02,9.91 -14.82,9.91 -14.82,10.12 -14.62,10.12 -14.62,10.01 -14.42,10.01 -14.42,9.96 -14.22,9.96 -14.22,9.95 -14.02,9.95 -14.02,10 -13.82,10 -13.82,10 -13.62,10 -13.62,10.26 -13.42,10.26 -13.42,10.24 -13.22,10.24 -13.22,10.16 -13.02,10.16 -13.02,10.26 -12.82,10.26 -12.82,10.19 -12.62,10.19 -12.62,10.4 -12.42,10.4 -12.42,10.19 -12.22,10.19 -12.22,10.21 -12.02,10.21 -12.02,10.12 -11.83,10.12 -11.83,10.22 -11.63,10.22 -11.63,10.25 -11.43,10.25 -11.43,10.24 -11.23,10.24 -11.23,10.27 -11.03,10.27 -11.03,10.38 -10.83,10.38 -10.83,10.33 -10.63,10.33 -10.63,10.17 -10.43,10.17 -10.43,10.25 -10.23,10.25 -10.23,10.15 -10.03,10.15 -10.03,10.26 -9.83,10.26 -9.83,10.32 -9.63,10.32 -9.63,10.3 -9.43,10.3 -9.43,10.33 -9.23,10.33 -9.23,10.22 -9.03,10.22 -9.03,10.39 -8.83,10.39 -8.83,10.31 -8.63,10.31 -8.63,10.35 -8.43,10.35 -8.43,10.3 -8.23,10.3 -8.23,10.47 -8.03,10.47 -8.03,10.41 -7.83,10.41 -7.83,10.24 -7.63,10.24 -7.63,10.4 -7.43,10.4 -7.43,10.51 -7.23,10.51 -7.23,10.48 -7.04,10.48 -7.04,10.34 -6.84,10.34 -6.84,10.36 -6.64,10.36 -6.64,10.3 -6.44,10.3 -6.44,10.25 -6.24,10.25 -6.24,10.08 -6.04,10.08 -6.04,10.18 -5.84,10.18 -5.84,10.15 -5.64,10.15 -5.64,10.29 -5.44,10.29 -5.44,10.27 -5.24,10.27 -5.24,10.28 -5.04,10.28 -5.04,10.24 -4.84,10.24 -4.84,10.28 -4.64,10.28 -4.64,10.28 -4.44,10.28 -4.44,10.25 -4.24,10.25 -4.24,10.54 -4.04,10.54 -4.04,10.54 -3.84,10.54 -3.84,10.46 -3.64,10.46 -3.64,10.5 -3.44,10.5 -3.44,10.62 -3.24,10.62 -3.24,10.56 -3.04,10.56 -3.04,10.67 -2.84,10.67 -2.84,10.61 -2.64,10.61 -2.64,10.53 -2.44,10.53 -2.44,10.61 -2.25,10.61 -2.25,10.72 -2.05,10.72 -2.05,10.65 -1.85,10.65 -1.85,10.68 -1.65,10.68 -1.65,10.66 -1.45,10.66 -1.45,10.65 -1.25,10.65 -1.25,10.91 -1.05,10.91 -1.05,10.77 -0.85,10.77 -0.85,10.86 -0.65,10.86 -0.65,10.86 -0.45,10.86 -0.45,10.76 -0.25,10.76 -0.25,10.84 -0.05,10.84 -0.05,10.72 0.15,10.72 0.15,10.75 0.35,10.75 0.35,10.89 0.55,10.89 0.55,10.69 0.75,10.69 0.75,10.9 0.95,10.9 0.95,10.68 1.15,10.68 1.15,10.92 1.35,10.92 1.35,10.89 1.55,10.89 1.55,10.88 1.75,10.88 1.75,10.78 1.95,10.78 1.95,10.84 2.15,10.84 2.15,10.67 2.35,10.67 2.35,10.75 2.54,10.75 2.54,10.72 2.74,10.72 2.74,10.57 2.94,10.57 2.94,10.68 3.14,10.68 3.14,10.7 3.34,10.7 3.34,10.45 3.54,10.45 3.54,10.55 3.74,10.55 3.74,10.63 3.94,10.63 3.94,10.5 4.14,10.5 4.14,10.67 4.34,10.67 4.34,10.67 4.54,10.67 4.54,10.69 4.74,10.69 4.74,10.78 4.94,10.78 4.94,10.87 5.14,10.87 5.14,10.86 5.34,10.86 5.34,10.8 5.54,10.8 5.54,10.85 5.74,10.85 5.74,11.11 5.94,11.11 5.94,10.9 6.14,10.9 6.14,11.03 6.34,11.03 6.34,11.04 6.54,11.04 6.54,11.02 6.74,11.02 6.74,10.95 6.94,10.95 6.94,11.02 7.13,11.02 7.13,11.03 7.33,11.03 7.33,11.2 7.53,11.2 7.53,11.08 7.73,11.08 7.73,11.14 7.93,11.14 7.93,11.16 8.13,11.16 8.13,11.1 8.33,11.1 8.33,11.13 8.53,11.13 8.53,10.99 8.73,10.99 8.73,11.32 8.93,11.32 8.93,11.15 9.13,11.15 9.13,11.15 9.33,11.15 9.33,10.96 9.53,10.96 9.53,10.93 9.73,10.93 9.73,10.98 9.93,10.98 9.93,11.1 10.13,11.1 10.13,11.09 10.33,11.09 10.33,10.7 10.53,10.7 10.53,10.63 10.73,10.63 10.73,10.26 10.93,10.26 10.93,9.78 11.13,9.78 11.13,9.1 11.33,9.1 11.33,8.4 11.53,8.4 11.53,6.9 11.73,6.9 11.73,4.91 11.92,4.91 11.92,2.88 12.12,2.88 12.12,0.18 12.32,0.18 12.32,-3.12 12.52,-3.12 12.52,-6.83 12.72,-6.83 12.72,-10.43 12.92,-10.43 12.92,-14.65 13.12,-14.65 13.12,-18.87 13.32,-18.87 13.32,-22.1 13.52,-22.1 13.52,-24.51 13.72,-24.51 13.72,-26.7 13.92,-26.7 13.92,-27.13 14.12,-27.13 14.12,-26 14.32,-26 14.32,-24.84 14.52,-24.84 14.52,-21.58 14.72,-21.58 14.72,-17.61 14.92,-17.61 14.92,-14.84 15.12,-14.84 15.12,-10.65 15.32,-10.65 15.32,-6.93 15.52,-6.93 15.52,-2.67 15.72,-2.67 15.72,0.25 15.92,0.25 15.92,2.95 16.12,2.95 16.12,5.25 16.32,5.25 16.32,7.13 16.52,7.13 16.52,8.5 16.71,8.5 16.71,9.42 16.91,9.42 16.91,10.16 17.11,10.16 17.11,10.69 17.31,10.69 17.31,10.9 17.51,10.9 17.51,11.08 17.71,11.08 17.71,11.2 17.91,11.2 17.91,11.41 18.11,11.41 18.11,11.3 18.31,11.3 18.31,11.5 18.51,11.5 18.51,11.59 18.71,11.59 18.71,11.51 18.91,11.51 18.91,11.44 19.11,11.44 19.11,11.45 19.31,11.45 19.31,11.36 19.51,11.36 19.51,11.54 19.71,11.54 19.71,11.58 19.91,11.58 19.91,11.6 20.11,11.6 20.11,11.46 20.31,11.46 20.31,11.61 20.51,11.61 20.51,11.46 20.71,11.46 20.71,11.53 20.91,11.53 20.91,11.42 21.11,11.42 21.11,11.65 21.31,11.65 21.31,11.61 21.5,11.61 21.5,11.63 21.7,11.63 21.7,11.69 21.9,11.69 21.9,11.61 22.1,11.61 22.1,11.6 22.3,11.6 22.3,11.64 22.5,11.64 22.5,11.58 22.7,11.58 22.7,11.65 22.9,11.65 22.9,11.52 23.1,11.52 23.1,11.61 23.3,11.61 23.3,11.41 23.5,11.41 23.5,11.44 23.7,11.44 23.7,11.38 23.9,11.38 23.9,11.34 24.1,11.34 24.1,11.29 24.3,11.29 24.3,11.02 24.5,11.02 24.5,10.91 24.7,10.91 24.7,10.9 24.9,10.9 24.9,10.42 25.1,10.42 25.1,10.27 25.3,10.27 25.3,9.75 25.5,9.75 25.5,9.56 25.7,9.56 25.7,8.9 25.9,8.9 25.9,8.64 26.1,8.64 26.1,8.04 26.29,8.04 26.29,7.72 26.49,7.72 26.49,7.29 26.69,7.29 26.69,7.01 26.89,7.01 26.89,7.01 27.09,7.01 27.09,6.81 27.29,6.81 27.29,7.11 27.49,7.11 27.49,7.42 27.69,7.42 27.69,7.73 27.89,7.73 27.89,8.1 28.09,8.1 28.09,8.59 28.29,8.59 28.29,9.22 28.49,9.22 28.49,9.6 28.69,9.6 28.69,10.12 28.89,10.12 28.89,10.5 29.09,10.5 29.09,10.8 29.29,10.8 29.29,11.06 29.49,11.06 29.49,11.27 29.69,11.27 29.69,11.49 29.89,11.49 29.89,11.7 30.09,11.7 30.09,11.76 30.29,11.76 30.29,11.69 30.49,11.69 30.49,11.9 30.69,11.9 30.69,11.98 30.88,11.98 30.88,11.94 31.08,11.94 31.08,11.98 31.28,11.98 31.28,11.84 31.48,11.84 31.48,12.05 31.68,12.05 31.68,11.92 31.88,11.92 31.88,12.01 32.08,12.01 32.08,11.96 32.28,11.96 32.28,11.97 32.48,11.97 32.48,12.03 32.68,12.03 32.68,11.85 32.88,11.85 32.88,11.98 33.08,11.98 33.08,12.09 33.28,12.09 33.28,11.99 33.48,11.99 33.48,11.92 33.68,11.92 33.68,11.85 33.88,11.85 33.88,11.98 34.08,11.98 34.08,12.05 34.28,12.05 34.28,11.92 34.48,11.92 34.48,12 34.68,12 34.68,11.9 34.88,11.9 34.88,12.09 35.08,12.09 35.08,12.04 35.28,12.04 35.28,12.03 35.48,12.03 35.48,11.91 35.67,11.91 35.67,12.02 35.87,12.02 35.87,11.98 36.07,11.98 36.07,11.98 36.27,11.98 36.27,12 36.47,12 36.47,12.08 36.67,12.08 36.67,12.08 36.87,12.08 36.87,12.04 37.07,12.04 37.07,12.03 37.27,12.03 37.27,12.14 37.47,12.14 37.47,12.06 37.67,12.06 37.67,12.13 37.87,12.13 37.87,12.1 38.07,12.1 38.07,12.21 38.27,12.21 38.27,12.08 38.47,12.08 38.47,12.03 38.67,12.03 38.67,12.16 38.87,12.16 38.87,12.13 39.07,12.13 39.07,12.2 39.27,12.2 39.27,12.08 39.47,12.08 39.47,12.19 39.67,12.19 39.67,12.11 39.87,12.11 39.87,12.07 40.07,12.07 40.07,12.1 40.27,12.1 40.27,12.24 40.46,12.24 40.46,12.14 40.66,12.14 40.66,12.17 40.86,12.17 40.86,12.21 41.06,12.21 41.06,12.26 41.26,12.26 41.26,12.24 41.46,12.24 41.46,12.24 41.66,12.24 41.66,12.1 41.86,12.1 41.86,12.16 42.06,12.16 42.06,12.2 42.26,12.2 42.26,12.29 42.46,12.29 42.46,12.24 42.66,12.24 42.66,12.22 42.86,12.22 42.86,12.2 43.06,12.2 43.06,12.3 43.26,12.3 43.26,12.18 43.46,12.18 43.46,12.33 43.66,12.33 43.66,12.25 43.86,12.25 43.86,12.24 44.06,12.24 44.06,12.24 44.26,12.24 44.26,12.28 44.46,12.28 44.46,12.26 44.66,12.26 44.66,12.35 44.86,12.35 44.86,12.26 45.06,12.26 45.06,12.28 45.25,12.28 45.25,12.43 45.45,12.43 45.45,12.29 45.65,12.29 45.65,12.29 45.85,12.29 45.85,12.26 46.05,12.26 46.05,12.28 46.25,12.28 46.25,12.31 46.45,12.31 46.45,12.31 46.65,12.31 46.65,12.2 46.85,12.2 46.85,12.36 47.05,12.36 47.05,12.21 47.25,12.21 47.25,12.27 47.45,12.27 47.45,12.35 47.65,12.35 47.65,12.3 47.85,12.3 47.85,12.27 48.05,12.27 48.05,12.28 48.25,12.28 48.25,12.42 48.45,12.42 48.45,12.32 48.65,12.32 48.65,12.32 48.85,12.32 48.85,12.37 49.05,12.37 49.05,12.36 49.25,12.36 49.25,12.41 49.45,12.41 49.45,12.4 49.65,12.4 49.65,12.54 49.84,12.54 49.84,12.12 50.04,12.12 50.04,12.41 50.24,12.41 50.24,12.3 50.44,12.3 50.44,12.31 50.64,12.31 50.64,12.4 50.84,12.4 50.84,12.34 51.04,12.34 51.04,12.44 51.24,12.44 51.24,12.47 51.44,12.47 51.44,12.49 51.64,12.49 51.64,12.42 51.84,12.42 51.84,12.47 52.04,12.47 52.04,12.43 52.24,12.43 52.24,12.39 52.44,12.39 52.44,12.55 52.64,12.55 52.64,12.48 52.84,12.48 52.84,12.41 53.04,12.41 53.04,12.47 53.24,12.47 53.24,12.47 53.44,12.47 53.44,12.53 53.64,12.53 53.64,12.48 53.84,12.48 53.84,12.53 54.04,12.53 54.04,12.39 54.24,12.39 54.24,12.55 54.44,12.55 54.44,12.44 54.63,12.44 54.63,12.62 54.83,12.62 54.83,12.65 55.03,12.65 55.03,12.5 55.23,12.5 55.23,12.52 55.43,12.52 55.43,12.63 55.63,12.63 55.63,12.55 55.83,12.55 55.83,12.55 56.03,12.55 56.03,12.51 56.23,12.51 56.23,12.69 56.43,12.69 56.43,12.6 56.63,12.6 56.63,12.6 56.83,12.6 56.83,12.49 57.03,12.49 57.03,12.64 57.23,12.64 57.23,12.73 57.43,12.73 57.43,12.54 57.63,12.54 57.63,12.58 57.83,12.58 57.83,12.56 58.03,12.56 58.03,12.52 58.23,12.52 58.23,12.66 58.43,12.66 58.43,12.56 58.63,12.56 58.63,12.61 58.83,12.61 58.83,12.52 59.03,12.52 59.03,12.6 59.23,12.6 59.23,12.65 59.42,12.65 59.42,12.57 59.62,12.57 59.62,12.59 59.82,12.59 59.82,12.67 60.02,12.67 60.02,12.55 60.22,12.55 60.22,12.55 60.42,12.55 60.42,12.65 60.62,12.65 60.62,12.69 60.82,12.69 60.82,12.6 61.02,12.6 61.02,12.72 61.22,12.72 61.22,12.59 61.42,12.59 61.42,12.67 61.62,12.67 61.62,12.69 61.82,12.69 61.82,12.71 62.02,12.71 62.02,12.56 62.22,12.56 62.22,12.59 62.42,12.59 62.42,12.74 62.62,12.74 62.62,12.62 62.82,12.62 62.82,12.64 63.02,12.64 63.02,12.7 63.22,12.7 63.22,12.69 63.42,12.69 63.42,12.67 63.62,12.67 63.62,12.69 63.82,12.69 63.82,12.64 64.02,12.64 64.02,12.74 64.21,12.74 64.21,12.65 64.41,12.65 64.41,12.69 64.61,12.69 64.61,12.71 64.81,12.71 64.81,12.68 65.01,12.68 65.01,12.63 65.21,12.63 65.21,12.69 65.41,12.69 65.41,12.82 65.61,12.82 65.61,12.68 65.81,12.68 65.81,12.64 66.01,12.64 66.01,12.68 66.21,12.68 66.21,12.7 66.41,12.7 66.41,12.7 66.61,12.7 66.61,12.72 66.81,12.72 66.81,12.74 67.01,12.74 67.01,12.73 67.21,12.73 67.21,12.71 67.41,12.71 67.41,12.75 67.61,12.75 67.61,12.7 67.81,12.7 67.81,12.78 68.01,12.78 68.01,12.86 68.21,12.86 68.21,12.87 68.41,12.87 68.41,12.77 68.61,12.77 68.61,12.75 68.81,12.75 68.81,12.72 69,12.72 69,12.71 69.2,12.71 69.2,12.78 69.4,12.78 69.4,12.68 69.6,12.68 69.6,12.88 69.8,12.88 69.8,12.89 70,12.89 70,12.8 70.2,12.8 70.2,12.83 70.4,12.83 70.4,12.78 70.6,12.78 70.6,12.8 70.8,12.8 70.8,12.9 71,12.9 71,12.91 71.2,12.91 71.2,12.74 71.4,12.74 71.4,12.76 71.6,12.76 71.6,12.89 71.8,12.89 71.8,12.79 72,12.79 72,12.87 72.2,12.87 72.2,12.81 72.4,12.81 72.4,12.76 72.6,12.76 72.6,12.83 72.8,12.83 72.8,12.85 73,12.85 73,12.85 73.2,12.85 73.2,12.87 73.4,12.87 73.4,12.78 73.59,12.78 73.59,12.91 73.79,12.91 73.79,12.86 73.99,12.86 73.99,12.88 74.19,12.88 74.19,12.97 74.39,12.97 74.39,12.95 74.59,12.95 74.59,12.9 74.79,12.9 74.79,12.9 74.99,12.9 74.99,12.93 75.19,12.93 75.19,12.95 75.39,12.95 75.39,12.81 75.59,12.81 75.59,12.9 75.79,12.9 75.79,12.88 75.99,12.88 75.99,12.95 76.19,12.95 76.19,12.83 76.39,12.83 76.39,12.87 76.59,12.87 76.59,12.92 76.79,12.92 76.79,12.95 76.99,12.95 76.99,12.79 77.19,12.79 77.19,12.83 77.39,12.83 77.39,13.02 77.59,13.02 77.59,12.97 77.79,12.97 77.79,13 77.99,13 77.99,12.84 78.19,12.84 78.19,12.98 78.38,12.98 78.38,12.93 78.58,12.93 78.58,12.97 78.78,12.97 78.78,13.01 78.98,13.01 78.98,12.9 79.18,12.9 79.18,13.07 79.38,13.07 79.38,12.98 79.58,12.98 79.58,12.95 79.78,12.95 79.78,12.91 79.98,12.91 79.98,12.94 80.18,12.94 80.18,13 80.38,13 80.38,13.05 80.58,13.05 80.58,12.98 80.78,12.98 80.78,12.91 80.98,12.91 80.98,13.04 81.18,13.04 81.18,12.95 81.38,12.95 81.38,12.97 81.58,12.97 81.58,12.96 81.78,12.96 81.78,13.02 81.98,13.02 81.98,13.03 82.18,13.03 82.18,13.01 82.38,13.01 82.38,13.02 82.58,13.02 82.58,13.03 82.78,13.03 82.78,12.96 82.98,12.96 82.98,13.06 83.17,13.06 83.17,13 83.37,13 83.37,12.99 83.57,12.99 83.57,12.99 83.77,12.99 83.77,13.03 83.97,13.03 83.97,12.97 84.17,12.97 84.17,13.04 84.37,13.04 84.37,12.95 84.57,12.95 84.57,13.02 84.77,13.02 84.77,13.07 84.97,13.07 84.97,13.1 85.17,13.1 85.17,13.14 85.37,13.14 85.37,12.97 85.57,12.97 85.57,13.06 85.77,13.06 85.77,13.13 85.97,13.13 85.97,13.06 86.17,13.06 86.17,13.06 86.37,13.06 86.37,13.09 86.57,13.09 86.57,13.07 86.77,13.07 86.77,13.03 86.97,13.03 86.97,13.14 87.17,13.14 87.17,13.07 87.37,13.07 87.37,13.1 87.57,13.1 87.57,13.02 87.77,13.02 87.77,12.99 87.96,12.99 87.96,13.06 88.16,13.06 88.16,13.1 88.36,13.1 88.36,13.07 88.56,13.07 88.56,13.04 88.76,13.04 88.76,13.09 88.96,13.09 88.96,13.06 89.16,13.06 89.16,13.08 89.36,13.08 89.36,13.22 89.56,13.22 89.56,13.09 89.76,13.09 89.76,13.11 89.96,13.11 89.96,13.21 90.16,13.21 90.16,13.11 90.36,13.11 90.36,13.11 90.56,13.11 90.56,13.07 90.76,13.07 90.76,13.16 90.96,13.16 90.96,13.08 91.16,13.08 91.16,13.19 91.36,13.19 91.36,13.08 91.56,13.08 91.56,13.17 91.76,13.17 91.76,13.11 91.96,13.11 91.96,13.11 92.16,13.11 92.16,13.06 92.36,13.06 92.36,13.13 92.55,13.13 92.55,13.14 92.75,13.14 92.75,13.2 92.95,13.2 92.95,13.2 93.15,13.2 93.15,13.12 93.35,13.12 93.35,13.15 93.55,13.15 93.55,13.13 93.75,13.13 93.75,13.17 93.95,13.17 93.95,13.18 94.15,13.18 94.15,13.22 94.35,13.22 94.35,13.17 94.55,13.17 94.55,13.07 94.75,13.07 94.75,13.09 94.95,13.09 94.95,13.2 95.15,13.2 95.15,13.13 95.35,13.13 95.35,13.22 95.55,13.22 95.55,13.17 95.75,13.17 95.75,13.2 95.95,13.2 95.95,13.28 96.15,13.28 96.15,13.16 96.35,13.16 96.35,13.13 96.55,13.13 96.55,13.16 96.75,13.16 96.75,13.19 96.95,13.19 96.95,13.12 97.15,13.12 97.15,13.24 97.34,13.24 97.34,13.13 97.54,13.13 97.54,13.16 97.74,13.16 97.74,13.25 97.94,13.25 97.94,13.19 98.14,13.19 98.14,13.19 98.34,13.19 98.34,13.25 98.54,13.25 98.54,13.16 98.74,13.16 98.74,13.21 98.94,13.21 98.94,13.25 99.14,13.25 99.14,13.28 99.34,13.28 99.34,13.24 99.54,13.24 99.54,13.25 99.74,13.25 99.74,13.29 99.94,13.29 99.94,13.26 100.14,13.26 100.14,13.29 100.34,13.29 100.34,13.25 100.54,13.25 100.54,13.31 100.74,13.31 100.74,13.26 100.94,13.26 100.94,13.31 101.14,13.31 101.14,13.25 101.34,13.25 101.34,13.23 101.54,13.23 101.54,13.28 101.74,13.28 101.74,13.28 101.94,13.28 101.94,13.35 102.13,13.35 102.13,13.24 102.33,13.24 102.33,13.35 102.53,13.35 102.53,13.2 102.73,13.2 102.73,13.35 102.93,13.35 102.93,13.36 103.13,13.36 103.13,13.25 103.33,13.25 103.33,13.32 103.53,13.32 103.53,13.32 103.73,13.32 103.73,13.28 103.93,13.28 103.93,13.32 104.13,13.32 104.13,13.3 104.33,13.3 104.33,13.33 104.53,13.33 104.53,13.36 104.73,13.36 104.73,13.34 104.93,13.34 104.93,13.25 105.13,13.25 105.13,13.41 105.33,13.41 105.33,13.31 105.53,13.31 105.53,13.34 105.73,13.34 105.73,13.35 105.93,13.35 105.93,13.31 106.13,13.31 106.13,13.32 106.33,13.32 106.33,13.37 106.53,13.37 106.53,13.3 106.73,13.3 106.73,13.31 106.92,13.31 106.92,13.33 107.12,13.33 107.12,13.3 107.32,13.3 107.32,13.37 107.52,13.37 107.52,13.38 107.72,13.38 107.72,13.42 107.92,13.42 107.92,13.35 108.12,13.35 108.12,13.35 108.32,13.35 108.32,13.4 108.52,13.4 108.52,13.39 108.72,13.39 108.72,13.4 108.92,13.4 108.92,13.38 109.12,13.38 109.12,13.35 109.32,13.35 109.32,13.35 109.52,13.35 109.52,13.3 109.72,13.3 109.72,13.4 109.92,13.4 109.92,13.37 110.12,13.37 110.12,13.44 110.32,13.44 110.32,13.38 110.52,13.38 110.52,13.39 110.72,13.39 110.72,13.42 110.92,13.42 110.92,13.36 111.12,13.36 111.12,13.44 111.32,13.44 111.32,13.33 111.52,13.33 111.52,13.35 111.71,13.35 111.71,13.4 111.91,13.4 111.91,13.45 112.11,13.45 112.11,13.45 112.31,13.45 112.31,13.39 112.51,13.39 112.51,13.47 112.71,13.47 112.71,13.4 112.91,13.4 112.91,13.41 113.11,13.41 113.11,13.41 113.31,13.41 113.31,13.4 113.51,13.4 113.51,13.47 113.71,13.47 113.71,13.43 " class="primitive"/>
            </g>
          </g>
        </g>
        <g stroke-width="0.3" fill="#000000" fill-opacity="0.000" class="geometry" id="img-b86ce97f-163">
          <g class="color_RGB{N0f8}(0.718,0.0,0.008)" stroke-dasharray="none" stroke="#B70002" id="img-b86ce97f-164">
            <g transform="translate(137.58,55.57)" id="img-b86ce97f-165">
              <path fill="none" d="M-113.81,4.29 L-113.61,4.29 -113.61,4.29 -113.41,4.29 -113.41,4.29 -113.21,4.29 -113.21,4.29 -113.01,4.29 -113.01,4.3 -112.81,4.3 -112.81,4.29 -112.61,4.29 -112.61,4.3 -112.41,4.3 -112.41,4.3 -112.21,4.3 -112.21,4.3 -112.01,4.3 -112.01,4.29 -111.81,4.29 -111.81,4.3 -111.61,4.3 -111.61,4.29 -111.42,4.29 -111.42,4.29 -111.22,4.29 -111.22,4.29 -111.02,4.29 -111.02,4.28 -110.82,4.28 -110.82,4.27 -110.62,4.27 -110.62,4.24 -110.42,4.24 -110.42,4.19 -110.22,4.19 -110.22,4.13 -110.02,4.13 -110.02,3.96 -109.82,3.96 -109.82,3.69 -109.62,3.69 -109.62,3.13 -109.42,3.13 -109.42,2.08 -109.22,2.08 -109.22,0.26 -109.02,0.26 -109.02,-2.56 -108.82,-2.56 -108.82,-5.42 -108.62,-5.42 -108.62,-7.96 -108.42,-7.96 -108.42,-9.05 -108.22,-9.05 -108.22,-8.08 -108.02,-8.08 -108.02,-5.77 -107.82,-5.77 -107.82,-3.03 -107.62,-3.03 -107.62,-1.22 -107.42,-1.22 -107.42,0.22 -107.22,0.22 -107.22,0.81 -107.02,0.81 -107.02,0.91 -106.82,0.91 -106.82,0.95 -106.63,0.95 -106.63,0.84 -106.43,0.84 -106.43,0.92 -106.23,0.92 -106.23,0.47 -106.03,0.47 -106.03,0.64 -105.83,0.64 -105.83,-0.18 -105.63,-0.18 -105.63,-0.85 -105.43,-0.85 -105.43,-1.6 -105.23,-1.6 -105.23,-2.19 -105.03,-2.19 -105.03,-3.2 -104.83,-3.2 -104.83,-3.99 -104.63,-3.99 -104.63,-4.34 -104.43,-4.34 -104.43,-4.75 -104.23,-4.75 -104.23,-5.59 -104.03,-5.59 -104.03,-4.93 -103.83,-4.93 -103.83,-5.77 -103.63,-5.77 -103.63,-6.5 -103.43,-6.5 -103.43,-6.01 -103.23,-6.01 -103.23,-3.57 -103.03,-3.57 -103.03,0.64 -102.83,0.64 -102.83,0.04 -102.63,0.04 -102.63,-0.1 -102.43,-0.1 -102.43,1.32 -102.23,1.32 -102.23,1.53 -102.03,1.53 -102.03,2.41 -101.84,2.41 -101.84,3.42 -101.64,3.42 -101.64,3.68 -101.44,3.68 -101.44,3.76 -101.24,3.76 -101.24,3.72 -101.04,3.72 -101.04,3.23 -100.84,3.23 -100.84,3.15 -100.64,3.15 -100.64,2.92 -100.44,2.92 -100.44,2.79 -100.24,2.79 -100.24,2.6 -100.04,2.6 -100.04,1.8 -99.84,1.8 -99.84,0.94 -99.64,0.94 -99.64,-0.22 -99.44,-0.22 -99.44,-1.42 -99.24,-1.42 -99.24,-1.68 -99.04,-1.68 -99.04,-1.82 -98.84,-1.82 -98.84,-1.91 -98.64,-1.91 -98.64,-1.64 -98.44,-1.64 -98.44,-1.29 -98.24,-1.29 -98.24,-1.42 -98.04,-1.42 -98.04,-1.55 -97.84,-1.55 -97.84,-1.44 -97.64,-1.44 -97.64,-1.42 -97.44,-1.42 -97.44,-1.46 -97.25,-1.46 -97.25,-1.8 -97.05,-1.8 -97.05,-1.75 -96.85,-1.75 -96.85,-2 -96.65,-2 -96.65,-2.26 -96.45,-2.26 -96.45,-2.08 -96.25,-2.08 -96.25,-2.23 -96.05,-2.23 -96.05,-2.55 -95.85,-2.55 -95.85,-2.51 -95.65,-2.51 -95.65,-2.43 -95.45,-2.43 -95.45,-2.71 -95.25,-2.71 -95.25,-2.87 -95.05,-2.87 -95.05,-3.17 -94.85,-3.17 -94.85,-3.2 -94.65,-3.2 -94.65,-3.75 -94.45,-3.75 -94.45,-3.54 -94.25,-3.54 -94.25,-3.87 -94.05,-3.87 -94.05,-4.28 -93.85,-4.28 -93.85,-4.47 -93.65,-4.47 -93.65,-5.01 -93.45,-5.01 -93.45,-5.45 -93.25,-5.45 -93.25,-5.52 -93.05,-5.52 -93.05,-5.55 -92.85,-5.55 -92.85,-5.64 -92.65,-5.64 -92.65,-6.18 -92.46,-6.18 -92.46,-6.17 -92.26,-6.17 -92.26,-6.43 -92.06,-6.43 -92.06,-6.12 -91.86,-6.12 -91.86,-6.64 -91.66,-6.64 -91.66,-6.86 -91.46,-6.86 -91.46,-6.9 -91.26,-6.9 -91.26,-7.1 -91.06,-7.1 -91.06,-7.63 -90.86,-7.63 -90.86,-7.74 -90.66,-7.74 -90.66,-8.07 -90.46,-8.07 -90.46,-8.46 -90.26,-8.46 -90.26,-8.91 -90.06,-8.91 -90.06,-8.47 -89.86,-8.47 -89.86,-8.97 -89.66,-8.97 -89.66,-8.75 -89.46,-8.75 -89.46,-9.96 -89.26,-9.96 -89.26,-9.83 -89.06,-9.83 -89.06,-9.65 -88.86,-9.65 -88.86,-10.2 -88.66,-10.2 -88.66,-10.42 -88.46,-10.42 -88.46,-12.12 -88.26,-12.12 -88.26,-12.4 -88.06,-12.4 -88.06,-13.1 -87.86,-13.1 -87.86,-11.05 -87.67,-11.05 -87.67,-9.18 -87.47,-9.18 -87.47,-8.13 -87.27,-8.13 -87.27,-8.2 -87.07,-8.2 -87.07,-7.44 -86.87,-7.44 -86.87,-7.54 -86.67,-7.54 -86.67,-7.33 -86.47,-7.33 -86.47,-7.58 -86.27,-7.58 -86.27,-7.18 -86.07,-7.18 -86.07,-7.32 -85.87,-7.32 -85.87,-7.18 -85.67,-7.18 -85.67,-6.71 -85.47,-6.71 -85.47,-7.02 -85.27,-7.02 -85.27,-7.04 -85.07,-7.04 -85.07,-7.39 -84.87,-7.39 -84.87,-7.22 -84.67,-7.22 -84.67,-7.8 -84.47,-7.8 -84.47,-7.65 -84.27,-7.65 -84.27,-7.72 -84.07,-7.72 -84.07,-7.96 -83.87,-7.96 -83.87,-9.07 -83.67,-9.07 -83.67,-8.28 -83.47,-8.28 -83.47,-8.86 -83.27,-8.86 -83.27,-8.68 -83.07,-8.68 -83.07,-9.15 -82.88,-9.15 -82.88,-8.11 -82.68,-8.11 -82.68,-8.2 -82.48,-8.2 -82.48,-7.92 -82.28,-7.92 -82.28,-7.78 -82.08,-7.78 -82.08,-8.18 -81.88,-8.18 -81.88,-7.85 -81.68,-7.85 -81.68,-7.54 -81.48,-7.54 -81.48,-8.17 -81.28,-8.17 -81.28,-8.03 -81.08,-8.03 -81.08,-8.17 -80.88,-8.17 -80.88,-8.12 -80.68,-8.12 -80.68,-7.6 -80.48,-7.6 -80.48,-9.02 -80.28,-9.02 -80.28,-8.12 -80.08,-8.12 -80.08,-8.85 -79.88,-8.85 -79.88,-8.99 -79.68,-8.99 -79.68,-8.72 -79.48,-8.72 -79.48,-6.29 -79.28,-6.29 -79.28,-11.34 -79.08,-11.34 -79.08,-10.85 -78.88,-10.85 -78.88,-9.64 -78.68,-9.64 -78.68,-8.23 -78.48,-8.23 -78.48,-7.66 -78.29,-7.66 -78.29,-9.59 -78.09,-9.59 -78.09,-10.52 -77.89,-10.52 -77.89,-10.84 -77.69,-10.84 -77.69,-10.25 -77.49,-10.25 -77.49,-9.99 -77.29,-9.99 -77.29,-8.48 -77.09,-8.48 -77.09,-6.99 -76.89,-6.99 -76.89,-6.84 -76.69,-6.84 -76.69,-6.46 -76.49,-6.46 -76.49,-5.82 -76.29,-5.82 -76.29,-5.55 -76.09,-5.55 -76.09,-5.13 -75.89,-5.13 -75.89,-5.15 -75.69,-5.15 -75.69,-5.52 -75.49,-5.52 -75.49,-5.64 -75.29,-5.64 -75.29,-5.22 -75.09,-5.22 -75.09,-5.08 -74.89,-5.08 -74.89,-5.23 -74.69,-5.23 -74.69,-4.93 -74.49,-4.93 -74.49,-4.73 -74.29,-4.73 -74.29,-4.52 -74.09,-4.52 -74.09,-4.51 -73.89,-4.51 -73.89,-4.21 -73.69,-4.21 -73.69,-3.87 -73.5,-3.87 -73.5,-3.98 -73.3,-3.98 -73.3,-3.52 -73.1,-3.52 -73.1,-3.47 -72.9,-3.47 -72.9,-3.49 -72.7,-3.49 -72.7,-3.56 -72.5,-3.56 -72.5,-3.44 -72.3,-3.44 -72.3,-3.32 -72.1,-3.32 -72.1,-3.58 -71.9,-3.58 -71.9,-3.57 -71.7,-3.57 -71.7,-3.48 -71.5,-3.48 -71.5,-3.5 -71.3,-3.5 -71.3,-3.19 -71.1,-3.19 -71.1,-3.75 -70.9,-3.75 -70.9,-3.52 -70.7,-3.52 -70.7,-3.7 -70.5,-3.7 -70.5,-3.48 -70.3,-3.48 -70.3,-3.46 -70.1,-3.46 -70.1,-3.81 -69.9,-3.81 -69.9,-3.9 -69.7,-3.9 -69.7,-4.08 -69.5,-4.08 -69.5,-4.13 -69.3,-4.13 -69.3,-4.23 -69.1,-4.23 -69.1,-4.34 -68.9,-4.34 -68.9,-4.4 -68.71,-4.4 -68.71,-4.31 -68.51,-4.31 -68.51,-4.46 -68.31,-4.46 -68.31,-4.54 -68.11,-4.54 -68.11,-4.15 -67.91,-4.15 -67.91,-4.01 -67.71,-4.01 -67.71,-3.92 -67.51,-3.92 -67.51,-4 -67.31,-4 -67.31,-3.91 -67.11,-3.91 -67.11,-3.83 -66.91,-3.83 -66.91,-3.9 -66.71,-3.9 -66.71,-3.62 -66.51,-3.62 -66.51,-3.65 -66.31,-3.65 -66.31,-3.63 -66.11,-3.63 -66.11,-3.63 -65.91,-3.63 -65.91,-3.61 -65.71,-3.61 -65.71,-3.59 -65.51,-3.59 -65.51,-3.51 -65.31,-3.51 -65.31,-3.83 -65.11,-3.83 -65.11,-3.56 -64.91,-3.56 -64.91,-3.59 -64.71,-3.59 -64.71,-3.85 -64.51,-3.85 -64.51,-3.66 -64.31,-3.66 -64.31,-3.66 -64.11,-3.66 -64.11,-3.74 -63.92,-3.74 -63.92,-3.54 -63.72,-3.54 -63.72,-3.72 -63.52,-3.72 -63.52,-3.63 -63.32,-3.63 -63.32,-3.93 -63.12,-3.93 -63.12,-3.52 -62.92,-3.52 -62.92,-3.75 -62.72,-3.75 -62.72,-3.85 -62.52,-3.85 -62.52,-3.19 -62.32,-3.19 -62.32,-3.71 -62.12,-3.71 -62.12,-3.47 -61.92,-3.47 -61.92,-3.62 -61.72,-3.62 -61.72,-3.51 -61.52,-3.51 -61.52,-3.52 -61.32,-3.52 -61.32,-3.69 -61.12,-3.69 -61.12,-3.42 -60.92,-3.42 -60.92,-3.53 -60.72,-3.53 -60.72,-3.51 -60.52,-3.51 -60.52,-3.5 -60.32,-3.5 -60.32,-3.38 -60.12,-3.38 -60.12,-3.5 -59.92,-3.5 -59.92,-3.39 -59.72,-3.39 -59.72,-3.36 -59.52,-3.36 -59.52,-3.67 -59.32,-3.67 -59.32,-3.4 -59.13,-3.4 -59.13,-3.4 -58.93,-3.4 -58.93,-3.37 -58.73,-3.37 -58.73,-3.24 -58.53,-3.24 -58.53,-3.42 -58.33,-3.42 -58.33,-3.5 -58.13,-3.5 -58.13,-3.12 -57.93,-3.12 -57.93,-3.21 -57.73,-3.21 -57.73,-3.22 -57.53,-3.22 -57.53,-3.3 -57.33,-3.3 -57.33,-3.4 -57.13,-3.4 -57.13,-3.32 -56.93,-3.32 -56.93,-3.1 -56.73,-3.1 -56.73,-3.2 -56.53,-3.2 -56.53,-3.44 -56.33,-3.44 -56.33,-3.16 -56.13,-3.16 -56.13,-3.35 -55.93,-3.35 -55.93,-3.42 -55.73,-3.42 -55.73,-3.45 -55.53,-3.45 -55.53,-3.38 -55.33,-3.38 -55.33,-3.17 -55.13,-3.17 -55.13,-3.42 -54.93,-3.42 -54.93,-3.5 -54.73,-3.5 -54.73,-3.69 -54.54,-3.69 -54.54,-3.66 -54.34,-3.66 -54.34,-3.63 -54.14,-3.63 -54.14,-3.6 -53.94,-3.6 -53.94,-3.43 -53.74,-3.43 -53.74,-3.48 -53.54,-3.48 -53.54,-3.28 -53.34,-3.28 -53.34,-3.29 -53.14,-3.29 -53.14,-3.26 -52.94,-3.26 -52.94,-3.02 -52.74,-3.02 -52.74,-3.2 -52.54,-3.2 -52.54,-3.06 -52.34,-3.06 -52.34,-2.99 -52.14,-2.99 -52.14,-2.97 -51.94,-2.97 -51.94,-3 -51.74,-3 -51.74,-2.81 -51.54,-2.81 -51.54,-2.78 -51.34,-2.78 -51.34,-3.05 -51.14,-3.05 -51.14,-2.87 -50.94,-2.87 -50.94,-3.01 -50.74,-3.01 -50.74,-3.15 -50.54,-3.15 -50.54,-3.02 -50.34,-3.02 -50.34,-3.02 -50.14,-3.02 -50.14,-2.99 -49.94,-2.99 -49.94,-2.85 -49.75,-2.85 -49.75,-3.02 -49.55,-3.02 -49.55,-3.12 -49.35,-3.12 -49.35,-2.82 -49.15,-2.82 -49.15,-2.96 -48.95,-2.96 -48.95,-3.22 -48.75,-3.22 -48.75,-2.63 -48.55,-2.63 -48.55,-2.97 -48.35,-2.97 -48.35,-2.68 -48.15,-2.68 -48.15,-2.84 -47.95,-2.84 -47.95,-2.88 -47.75,-2.88 -47.75,-2.83 -47.55,-2.83 -47.55,-2.62 -47.35,-2.62 -47.35,-2.38 -47.15,-2.38 -47.15,-2.44 -46.95,-2.44 -46.95,-2.55 -46.75,-2.55 -46.75,-2.67 -46.55,-2.67 -46.55,-2.64 -46.35,-2.64 -46.35,-2.51 -46.15,-2.51 -46.15,-2.38 -45.95,-2.38 -45.95,-2.66 -45.75,-2.66 -45.75,-2.44 -45.55,-2.44 -45.55,-2.37 -45.35,-2.37 -45.35,-2.5 -45.15,-2.5 -45.15,-2.69 -44.96,-2.69 -44.96,-2.81 -44.76,-2.81 -44.76,-2.66 -44.56,-2.66 -44.56,-2.67 -44.36,-2.67 -44.36,-2.72 -44.16,-2.72 -44.16,-2.8 -43.96,-2.8 -43.96,-2.55 -43.76,-2.55 -43.76,-2.81 -43.56,-2.81 -43.56,-2.72 -43.36,-2.72 -43.36,-2.56 -43.16,-2.56 -43.16,-2.41 -42.96,-2.41 -42.96,-2.45 -42.76,-2.45 -42.76,-2.37 -42.56,-2.37 -42.56,-2 -42.36,-2 -42.36,-2.39 -42.16,-2.39 -42.16,-2.15 -41.96,-2.15 -41.96,-1.83 -41.76,-1.83 -41.76,-2.04 -41.56,-2.04 -41.56,-1.85 -41.36,-1.85 -41.36,-2.2 -41.16,-2.2 -41.16,-2.58 -40.96,-2.58 -40.96,-2.71 -40.76,-2.71 -40.76,-1.62 -40.56,-1.62 -40.56,-2.59 -40.36,-2.59 -40.36,-2.27 -40.17,-2.27 -40.17,-1.03 -39.97,-1.03 -39.97,-2.22 -39.77,-2.22 -39.77,-1.3 -39.57,-1.3 -39.57,-0.84 -39.37,-0.84 -39.37,-2.4 -39.17,-2.4 -39.17,-1.33 -38.97,-1.33 -38.97,-1.96 -38.77,-1.96 -38.77,-0.7 -38.57,-0.7 -38.57,-1.15 -38.37,-1.15 -38.37,-1.33 -38.17,-1.33 -38.17,-1.44 -37.97,-1.44 -37.97,-1.69 -37.77,-1.69 -37.77,-1.51 -37.57,-1.51 -37.57,-1.43 -37.37,-1.43 -37.37,-1.77 -37.17,-1.77 -37.17,-1.27 -36.97,-1.27 -36.97,-1.55 -36.77,-1.55 -36.77,-1.28 -36.57,-1.28 -36.57,-1.39 -36.37,-1.39 -36.37,-1.26 -36.17,-1.26 -36.17,-1.44 -35.97,-1.44 -35.97,-1.07 -35.77,-1.07 -35.77,-1.33 -35.58,-1.33 -35.58,-1.24 -35.38,-1.24 -35.38,-1.2 -35.18,-1.2 -35.18,-1.49 -34.98,-1.49 -34.98,-1.33 -34.78,-1.33 -34.78,-1.32 -34.58,-1.32 -34.58,-1.58 -34.38,-1.58 -34.38,-1.39 -34.18,-1.39 -34.18,-1.46 -33.98,-1.46 -33.98,-0.76 -33.78,-0.76 -33.78,-1.32 -33.58,-1.32 -33.58,-1.08 -33.38,-1.08 -33.38,-1.05 -33.18,-1.05 -33.18,-1.06 -32.98,-1.06 -32.98,-1.2 -32.78,-1.2 -32.78,-1.19 -32.58,-1.19 -32.58,-1.06 -32.38,-1.06 -32.38,-0.95 -32.18,-0.95 -32.18,-1.01 -31.98,-1.01 -31.98,-0.83 -31.78,-0.83 -31.78,-0.94 -31.58,-0.94 -31.58,-0.91 -31.38,-0.91 -31.38,-1.08 -31.18,-1.08 -31.18,-0.91 -30.98,-0.91 -30.98,-0.63 -30.79,-0.63 -30.79,-1.01 -30.59,-1.01 -30.59,-1 -30.39,-1 -30.39,-1.11 -30.19,-1.11 -30.19,-0.87 -29.99,-0.87 -29.99,-0.85 -29.79,-0.85 -29.79,-0.94 -29.59,-0.94 -29.59,-0.85 -29.39,-0.85 -29.39,-0.95 -29.19,-0.95 -29.19,-0.79 -28.99,-0.79 -28.99,-0.84 -28.79,-0.84 -28.79,-0.66 -28.59,-0.66 -28.59,-0.88 -28.39,-0.88 -28.39,-0.49 -28.19,-0.49 -28.19,-0.55 -27.99,-0.55 -27.99,-0.58 -27.79,-0.58 -27.79,-0.61 -27.59,-0.61 -27.59,-0.58 -27.39,-0.58 -27.39,-0.66 -27.19,-0.66 -27.19,-0.34 -26.99,-0.34 -26.99,-0.62 -26.79,-0.62 -26.79,-0.48 -26.59,-0.48 -26.59,-0.43 -26.39,-0.43 -26.39,-0.6 -26.19,-0.6 -26.19,-0.47 -26,-0.47 -26,-0.27 -25.8,-0.27 -25.8,-0.48 -25.6,-0.48 -25.6,-0.53 -25.4,-0.53 -25.4,-0.3 -25.2,-0.3 -25.2,-0.49 -25,-0.49 -25,-0.45 -24.8,-0.45 -24.8,-0.2 -24.6,-0.2 -24.6,-0.36 -24.4,-0.36 -24.4,-0.37 -24.2,-0.37 -24.2,-0.33 -24,-0.33 -24,-0.45 -23.8,-0.45 -23.8,-0.32 -23.6,-0.32 -23.6,-0.51 -23.4,-0.51 -23.4,-0.24 -23.2,-0.24 -23.2,-0.27 -23,-0.27 -23,-0.22 -22.8,-0.22 -22.8,-0.31 -22.6,-0.31 -22.6,-0.14 -22.4,-0.14 -22.4,-0.35 -22.2,-0.35 -22.2,-0.31 -22,-0.31 -22,-0.23 -21.8,-0.23 -21.8,-0.39 -21.6,-0.39 -21.6,-0.53 -21.4,-0.53 -21.4,-0.27 -21.21,-0.27 -21.21,-0.25 -21.01,-0.25 -21.01,-0.41 -20.81,-0.41 -20.81,-0.17 -20.61,-0.17 -20.61,-0.06 -20.41,-0.06 -20.41,-0.15 -20.21,-0.15 -20.21,-0.22 -20.01,-0.22 -20.01,-0.19 -19.81,-0.19 -19.81,-0.34 -19.61,-0.34 -19.61,-0.16 -19.41,-0.16 -19.41,-0.17 -19.21,-0.17 -19.21,0.04 -19.01,0.04 -19.01,0.02 -18.81,0.02 -18.81,-0.01 -18.61,-0.01 -18.61,0.03 -18.41,0.03 -18.41,0 -18.21,0 -18.21,-0.1 -18.01,-0.1 -18.01,0.09 -17.81,0.09 -17.81,0.11 -17.61,0.11 -17.61,0.11 -17.41,0.11 -17.41,0.3 -17.21,0.3 -17.21,0.02 -17.01,0.02 -17.01,-0.02 -16.81,-0.02 -16.81,0.04 -16.61,0.04 -16.61,0.18 -16.42,0.18 -16.42,0.09 -16.22,0.09 -16.22,-0.04 -16.02,-0.04 -16.02,0.09 -15.82,0.09 -15.82,-0.03 -15.62,-0.03 -15.62,0.03 -15.42,0.03 -15.42,0.06 -15.22,0.06 -15.22,0.08 -15.02,0.08 -15.02,-0.03 -14.82,-0.03 -14.82,0.19 -14.62,0.19 -14.62,0.08 -14.42,0.08 -14.42,0.03 -14.22,0.03 -14.22,0.02 -14.02,0.02 -14.02,0.07 -13.82,0.07 -13.82,0.06 -13.62,0.06 -13.62,0.32 -13.42,0.32 -13.42,0.31 -13.22,0.31 -13.22,0.22 -13.02,0.22 -13.02,0.32 -12.82,0.32 -12.82,0.25 -12.62,0.25 -12.62,0.46 -12.42,0.46 -12.42,0.25 -12.22,0.25 -12.22,0.28 -12.02,0.28 -12.02,0.18 -11.83,0.18 -11.83,0.29 -11.63,0.29 -11.63,0.31 -11.43,0.31 -11.43,0.3 -11.23,0.3 -11.23,0.34 -11.03,0.34 -11.03,0.44 -10.83,0.44 -10.83,0.4 -10.63,0.4 -10.63,0.24 -10.43,0.24 -10.43,0.31 -10.23,0.31 -10.23,0.22 -10.03,0.22 -10.03,0.32 -9.83,0.32 -9.83,0.38 -9.63,0.38 -9.63,0.36 -9.43,0.36 -9.43,0.39 -9.23,0.39 -9.23,0.29 -9.03,0.29 -9.03,0.45 -8.83,0.45 -8.83,0.37 -8.63,0.37 -8.63,0.42 -8.43,0.42 -8.43,0.36 -8.23,0.36 -8.23,0.54 -8.03,0.54 -8.03,0.47 -7.83,0.47 -7.83,0.31 -7.63,0.31 -7.63,0.47 -7.43,0.47 -7.43,0.58 -7.23,0.58 -7.23,0.54 -7.04,0.54 -7.04,0.41 -6.84,0.41 -6.84,0.43 -6.64,0.43 -6.64,0.36 -6.44,0.36 -6.44,0.31 -6.24,0.31 -6.24,0.15 -6.04,0.15 -6.04,0.24 -5.84,0.24 -5.84,0.22 -5.64,0.22 -5.64,0.35 -5.44,0.35 -5.44,0.33 -5.24,0.33 -5.24,0.34 -5.04,0.34 -5.04,0.31 -4.84,0.31 -4.84,0.34 -4.64,0.34 -4.64,0.35 -4.44,0.35 -4.44,0.32 -4.24,0.32 -4.24,0.61 -4.04,0.61 -4.04,0.61 -3.84,0.61 -3.84,0.53 -3.64,0.53 -3.64,0.57 -3.44,0.57 -3.44,0.69 -3.24,0.69 -3.24,0.63 -3.04,0.63 -3.04,0.74 -2.84,0.74 -2.84,0.68 -2.64,0.68 -2.64,0.59 -2.44,0.59 -2.44,0.68 -2.25,0.68 -2.25,0.78 -2.05,0.78 -2.05,0.71 -1.85,0.71 -1.85,0.75 -1.65,0.75 -1.65,0.72 -1.45,0.72 -1.45,0.71 -1.25,0.71 -1.25,0.98 -1.05,0.98 -1.05,0.83 -0.85,0.83 -0.85,0.93 -0.65,0.93 -0.65,0.93 -0.45,0.93 -0.45,0.82 -0.25,0.82 -0.25,0.9 -0.05,0.9 -0.05,0.78 0.15,0.78 0.15,0.82 0.35,0.82 0.35,0.96 0.55,0.96 0.55,0.76 0.75,0.76 0.75,0.97 0.95,0.97 0.95,0.75 1.15,0.75 1.15,0.99 1.35,0.99 1.35,0.96 1.55,0.96 1.55,0.94 1.75,0.94 1.75,0.85 1.95,0.85 1.95,0.91 2.15,0.91 2.15,0.74 2.35,0.74 2.35,0.82 2.54,0.82 2.54,0.78 2.74,0.78 2.74,0.63 2.94,0.63 2.94,0.74 3.14,0.74 3.14,0.76 3.34,0.76 3.34,0.51 3.54,0.51 3.54,0.61 3.74,0.61 3.74,0.69 3.94,0.69 3.94,0.57 4.14,0.57 4.14,0.73 4.34,0.73 4.34,0.74 4.54,0.74 4.54,0.75 4.74,0.75 4.74,0.84 4.94,0.84 4.94,0.93 5.14,0.93 5.14,0.92 5.34,0.92 5.34,0.86 5.54,0.86 5.54,0.91 5.74,0.91 5.74,1.18 5.94,1.18 5.94,0.96 6.14,0.96 6.14,1.1 6.34,1.1 6.34,1.11 6.54,1.11 6.54,1.09 6.74,1.09 6.74,1.01 6.94,1.01 6.94,1.08 7.13,1.08 7.13,1.1 7.33,1.1 7.33,1.26 7.53,1.26 7.53,1.15 7.73,1.15 7.73,1.21 7.93,1.21 7.93,1.23 8.13,1.23 8.13,1.16 8.33,1.16 8.33,1.2 8.53,1.2 8.53,1.06 8.73,1.06 8.73,1.4 8.93,1.4 8.93,1.25 9.13,1.25 9.13,1.27 9.33,1.27 9.33,1.09 9.53,1.09 9.53,1.09 9.73,1.09 9.73,1.17 9.93,1.17 9.93,1.35 10.13,1.35 10.13,1.42 10.33,1.42 10.33,1.16 10.53,1.16 10.53,1.31 10.73,1.31 10.73,1.25 10.93,1.25 10.93,1.26 11.13,1.26 11.13,1.26 11.33,1.26 11.33,1.54 11.53,1.54 11.53,1.36 11.73,1.36 11.73,1.19 11.92,1.19 11.92,1.4 12.12,1.4 12.12,1.46 12.32,1.46 12.32,1.45 12.52,1.45 12.52,1.39 12.72,1.39 12.72,1.74 12.92,1.74 12.92,1.52 13.12,1.52 13.12,1.1 13.32,1.1 13.32,1.28 13.52,1.28 13.52,1.49 13.72,1.49 13.72,0.97 13.92,0.97 13.92,1.11 14.12,1.11 14.12,1.66 14.32,1.66 14.32,1.18 14.52,1.18 14.52,1.81 14.72,1.81 14.72,2.45 14.92,2.45 14.92,1.47 15.12,1.47 15.12,1.65 15.32,1.65 15.32,1.45 15.52,1.45 15.52,2.02 15.72,2.02 15.72,1.68 15.92,1.68 15.92,1.57 16.12,1.57 16.12,1.63 16.32,1.63 16.32,1.69 16.52,1.69 16.52,1.68 16.71,1.68 16.71,1.6 16.91,1.6 16.91,1.62 17.11,1.62 17.11,1.65 17.31,1.65 17.31,1.55 17.51,1.55 17.51,1.49 17.71,1.49 17.71,1.48 17.91,1.48 17.91,1.6 18.11,1.6 18.11,1.44 18.31,1.44 18.31,1.62 18.51,1.62 18.51,1.68 18.71,1.68 18.71,1.59 18.91,1.59 18.91,1.51 19.11,1.51 19.11,1.51 19.31,1.51 19.31,1.42 19.51,1.42 19.51,1.6 19.71,1.6 19.71,1.64 19.91,1.64 19.91,1.66 20.11,1.66 20.11,1.53 20.31,1.53 20.31,1.68 20.51,1.68 20.51,1.53 20.71,1.53 20.71,1.59 20.91,1.59 20.91,1.49 21.11,1.49 21.11,1.72 21.31,1.72 21.31,1.68 21.5,1.68 21.5,1.7 21.7,1.7 21.7,1.76 21.9,1.76 21.9,1.68 22.1,1.68 22.1,1.68 22.3,1.68 22.3,1.74 22.5,1.74 22.5,1.68 22.7,1.68 22.7,1.77 22.9,1.77 22.9,1.65 23.1,1.65 23.1,1.77 23.3,1.77 23.3,1.6 23.5,1.6 23.5,1.67 23.7,1.67 23.7,1.66 23.9,1.66 23.9,1.7 24.1,1.7 24.1,1.74 24.3,1.74 24.3,1.6 24.5,1.6 24.5,1.66 24.7,1.66 24.7,1.86 24.9,1.86 24.9,1.66 25.1,1.66 25.1,1.85 25.3,1.85 25.3,1.71 25.5,1.71 25.5,1.93 25.7,1.93 25.7,1.75 25.9,1.75 25.9,1.96 26.1,1.96 26.1,1.82 26.29,1.82 26.29,1.89 26.49,1.89 26.49,1.83 26.69,1.83 26.69,1.79 26.89,1.79 26.89,1.92 27.09,1.92 27.09,1.7 27.29,1.7 27.29,1.92 27.49,1.92 27.49,1.96 27.69,1.96 27.69,1.93 27.89,1.93 27.89,1.89 28.09,1.89 28.09,1.92 28.29,1.92 28.29,2.08 28.49,2.08 28.49,1.98 28.69,1.98 28.69,2.07 28.89,2.07 28.89,2.06 29.09,2.06 29.09,2 29.29,2 29.29,1.99 29.49,1.99 29.49,1.97 29.69,1.97 29.69,2 29.89,2 29.89,2.08 30.09,2.08 30.09,2.03 30.29,2.03 30.29,1.89 30.49,1.89 30.49,2.05 30.69,2.05 30.69,2.09 30.88,2.09 30.88,2.02 31.08,2.02 31.08,2.05 31.28,2.05 31.28,1.91 31.48,1.91 31.48,2.11 31.68,2.11 31.68,1.98 31.88,1.98 31.88,2.07 32.08,2.07 32.08,2.02 32.28,2.02 32.28,2.03 32.48,2.03 32.48,2.1 32.68,2.1 32.68,1.91 32.88,1.91 32.88,2.05 33.08,2.05 33.08,2.16 33.28,2.16 33.28,2.05 33.48,2.05 33.48,1.99 33.68,1.99 33.68,1.92 33.88,1.92 33.88,2.04 34.08,2.04 34.08,2.12 34.28,2.12 34.28,1.99 34.48,1.99 34.48,2.06 34.68,2.06 34.68,1.96 34.88,1.96 34.88,2.15 35.08,2.15 35.08,2.11 35.28,2.11 35.28,2.09 35.48,2.09 35.48,1.98 35.67,1.98 35.67,2.09 35.87,2.09 35.87,2.05 36.07,2.05 36.07,2.05 36.27,2.05 36.27,2.07 36.47,2.07 36.47,2.15 36.67,2.15 36.67,2.15 36.87,2.15 36.87,2.11 37.07,2.11 37.07,2.09 37.27,2.09 37.27,2.21 37.47,2.21 37.47,2.13 37.67,2.13 37.67,2.19 37.87,2.19 37.87,2.16 38.07,2.16 38.07,2.28 38.27,2.28 38.27,2.15 38.47,2.15 38.47,2.09 38.67,2.09 38.67,2.23 38.87,2.23 38.87,2.2 39.07,2.2 39.07,2.26 39.27,2.26 39.27,2.14 39.47,2.14 39.47,2.26 39.67,2.26 39.67,2.17 39.87,2.17 39.87,2.13 40.07,2.13 40.07,2.17 40.27,2.17 40.27,2.31 40.46,2.31 40.46,2.21 40.66,2.21 40.66,2.24 40.86,2.24 40.86,2.27 41.06,2.27 41.06,2.33 41.26,2.33 41.26,2.3 41.46,2.3 41.46,2.31 41.66,2.31 41.66,2.17 41.86,2.17 41.86,2.23 42.06,2.23 42.06,2.26 42.26,2.26 42.26,2.35 42.46,2.35 42.46,2.3 42.66,2.3 42.66,2.29 42.86,2.29 42.86,2.26 43.06,2.26 43.06,2.37 43.26,2.37 43.26,2.25 43.46,2.25 43.46,2.4 43.66,2.4 43.66,2.31 43.86,2.31 43.86,2.31 44.06,2.31 44.06,2.31 44.26,2.31 44.26,2.35 44.46,2.35 44.46,2.32 44.66,2.32 44.66,2.42 44.86,2.42 44.86,2.33 45.06,2.33 45.06,2.34 45.25,2.34 45.25,2.49 45.45,2.49 45.45,2.36 45.65,2.36 45.65,2.35 45.85,2.35 45.85,2.32 46.05,2.32 46.05,2.35 46.25,2.35 46.25,2.37 46.45,2.37 46.45,2.37 46.65,2.37 46.65,2.27 46.85,2.27 46.85,2.42 47.05,2.42 47.05,2.27 47.25,2.27 47.25,2.33 47.45,2.33 47.45,2.42 47.65,2.42 47.65,2.36 47.85,2.36 47.85,2.33 48.05,2.33 48.05,2.35 48.25,2.35 48.25,2.48 48.45,2.48 48.45,2.38 48.65,2.38 48.65,2.39 48.85,2.39 48.85,2.43 49.05,2.43 49.05,2.43 49.25,2.43 49.25,2.48 49.45,2.48 49.45,2.47 49.65,2.47 49.65,2.6 49.84,2.6 49.84,2.18 50.04,2.18 50.04,2.48 50.24,2.48 50.24,2.37 50.44,2.37 50.44,2.38 50.64,2.38 50.64,2.47 50.84,2.47 50.84,2.4 51.04,2.4 51.04,2.51 51.24,2.51 51.24,2.53 51.44,2.53 51.44,2.55 51.64,2.55 51.64,2.48 51.84,2.48 51.84,2.53 52.04,2.53 52.04,2.5 52.24,2.5 52.24,2.46 52.44,2.46 52.44,2.62 52.64,2.62 52.64,2.54 52.84,2.54 52.84,2.48 53.04,2.48 53.04,2.54 53.24,2.54 53.24,2.54 53.44,2.54 53.44,2.59 53.64,2.59 53.64,2.54 53.84,2.54 53.84,2.6 54.04,2.6 54.04,2.46 54.24,2.46 54.24,2.61 54.44,2.61 54.44,2.51 54.63,2.51 54.63,2.69 54.83,2.69 54.83,2.71 55.03,2.71 55.03,2.57 55.23,2.57 55.23,2.58 55.43,2.58 55.43,2.7 55.63,2.7 55.63,2.61 55.83,2.61 55.83,2.61 56.03,2.61 56.03,2.58 56.23,2.58 56.23,2.75 56.43,2.75 56.43,2.66 56.63,2.66 56.63,2.67 56.83,2.67 56.83,2.55 57.03,2.55 57.03,2.71 57.23,2.71 57.23,2.79 57.43,2.79 57.43,2.6 57.63,2.6 57.63,2.64 57.83,2.64 57.83,2.62 58.03,2.62 58.03,2.59 58.23,2.59 58.23,2.73 58.43,2.73 58.43,2.62 58.63,2.62 58.63,2.68 58.83,2.68 58.83,2.58 59.03,2.58 59.03,2.66 59.23,2.66 59.23,2.71 59.42,2.71 59.42,2.63 59.62,2.63 59.62,2.66 59.82,2.66 59.82,2.74 60.02,2.74 60.02,2.61 60.22,2.61 60.22,2.61 60.42,2.61 60.42,2.72 60.62,2.72 60.62,2.75 60.82,2.75 60.82,2.67 61.02,2.67 61.02,2.79 61.22,2.79 61.22,2.65 61.42,2.65 61.42,2.73 61.62,2.73 61.62,2.75 61.82,2.75 61.82,2.77 62.02,2.77 62.02,2.62 62.22,2.62 62.22,2.66 62.42,2.66 62.42,2.8 62.62,2.8 62.62,2.68 62.82,2.68 62.82,2.71 63.02,2.71 63.02,2.77 63.22,2.77 63.22,2.76 63.42,2.76 63.42,2.73 63.62,2.73 63.62,2.75 63.82,2.75 63.82,2.7 64.02,2.7 64.02,2.81 64.21,2.81 64.21,2.71 64.41,2.71 64.41,2.76 64.61,2.76 64.61,2.77 64.81,2.77 64.81,2.75 65.01,2.75 65.01,2.69 65.21,2.69 65.21,2.75 65.41,2.75 65.41,2.89 65.61,2.89 65.61,2.74 65.81,2.74 65.81,2.7 66.01,2.7 66.01,2.75 66.21,2.75 66.21,2.76 66.41,2.76 66.41,2.77 66.61,2.77 66.61,2.78 66.81,2.78 66.81,2.81 67.01,2.81 67.01,2.8 67.21,2.8 67.21,2.78 67.41,2.78 67.41,2.81 67.61,2.81 67.61,2.77 67.81,2.77 67.81,2.85 68.01,2.85 68.01,2.92 68.21,2.92 68.21,2.93 68.41,2.93 68.41,2.83 68.61,2.83 68.61,2.82 68.81,2.82 68.81,2.79 69,2.79 69,2.78 69.2,2.78 69.2,2.84 69.4,2.84 69.4,2.74 69.6,2.74 69.6,2.94 69.8,2.94 69.8,2.96 70,2.96 70,2.86 70.2,2.86 70.2,2.9 70.4,2.9 70.4,2.84 70.6,2.84 70.6,2.86 70.8,2.86 70.8,2.96 71,2.96 71,2.98 71.2,2.98 71.2,2.81 71.4,2.81 71.4,2.82 71.6,2.82 71.6,2.96 71.8,2.96 71.8,2.86 72,2.86 72,2.93 72.2,2.93 72.2,2.88 72.4,2.88 72.4,2.82 72.6,2.82 72.6,2.89 72.8,2.89 72.8,2.92 73,2.92 73,2.92 73.2,2.92 73.2,2.93 73.4,2.93 73.4,2.85 73.59,2.85 73.59,2.97 73.79,2.97 73.79,2.93 73.99,2.93 73.99,2.94 74.19,2.94 74.19,3.04 74.39,3.04 74.39,3.02 74.59,3.02 74.59,2.96 74.79,2.96 74.79,2.96 74.99,2.96 74.99,2.99 75.19,2.99 75.19,3.01 75.39,3.01 75.39,2.88 75.59,2.88 75.59,2.96 75.79,2.96 75.79,2.95 75.99,2.95 75.99,3.02 76.19,3.02 76.19,2.89 76.39,2.89 76.39,2.93 76.59,2.93 76.59,2.98 76.79,2.98 76.79,3.02 76.99,3.02 76.99,2.86 77.19,2.86 77.19,2.89 77.39,2.89 77.39,3.08 77.59,3.08 77.59,3.03 77.79,3.03 77.79,3.07 77.99,3.07 77.99,2.91 78.19,2.91 78.19,3.04 78.38,3.04 78.38,2.99 78.58,2.99 78.58,3.04 78.78,3.04 78.78,3.07 78.98,3.07 78.98,2.96 79.18,2.96 79.18,3.14 79.38,3.14 79.38,3.04 79.58,3.04 79.58,3.02 79.78,3.02 79.78,2.97 79.98,2.97 79.98,3.01 80.18,3.01 80.18,3.06 80.38,3.06 80.38,3.12 80.58,3.12 80.58,3.04 80.78,3.04 80.78,2.98 80.98,2.98 80.98,3.1 81.18,3.1 81.18,3.02 81.38,3.02 81.38,3.04 81.58,3.04 81.58,3.03 81.78,3.03 81.78,3.08 81.98,3.08 81.98,3.1 82.18,3.1 82.18,3.07 82.38,3.07 82.38,3.08 82.58,3.08 82.58,3.09 82.78,3.09 82.78,3.03 82.98,3.03 82.98,3.12 83.17,3.12 83.17,3.06 83.37,3.06 83.37,3.06 83.57,3.06 83.57,3.05 83.77,3.05 83.77,3.1 83.97,3.1 83.97,3.04 84.17,3.04 84.17,3.11 84.37,3.11 84.37,3.02 84.57,3.02 84.57,3.09 84.77,3.09 84.77,3.14 84.97,3.14 84.97,3.16 85.17,3.16 85.17,3.2 85.37,3.2 85.37,3.03 85.57,3.03 85.57,3.12 85.77,3.12 85.77,3.2 85.97,3.2 85.97,3.13 86.17,3.13 86.17,3.12 86.37,3.12 86.37,3.16 86.57,3.16 86.57,3.14 86.77,3.14 86.77,3.09 86.97,3.09 86.97,3.21 87.17,3.21 87.17,3.13 87.37,3.13 87.37,3.17 87.57,3.17 87.57,3.09 87.77,3.09 87.77,3.06 87.96,3.06 87.96,3.12 88.16,3.12 88.16,3.17 88.36,3.17 88.36,3.13 88.56,3.13 88.56,3.11 88.76,3.11 88.76,3.15 88.96,3.15 88.96,3.13 89.16,3.13 89.16,3.14 89.36,3.14 89.36,3.28 89.56,3.28 89.56,3.16 89.76,3.16 89.76,3.18 89.96,3.18 89.96,3.28 90.16,3.28 90.16,3.18 90.36,3.18 90.36,3.17 90.56,3.17 90.56,3.14 90.76,3.14 90.76,3.22 90.96,3.22 90.96,3.15 91.16,3.15 91.16,3.26 91.36,3.26 91.36,3.15 91.56,3.15 91.56,3.24 91.76,3.24 91.76,3.17 91.96,3.17 91.96,3.18 92.16,3.18 92.16,3.13 92.36,3.13 92.36,3.19 92.55,3.19 92.55,3.2 92.75,3.2 92.75,3.26 92.95,3.26 92.95,3.27 93.15,3.27 93.15,3.18 93.35,3.18 93.35,3.22 93.55,3.22 93.55,3.19 93.75,3.19 93.75,3.24 93.95,3.24 93.95,3.24 94.15,3.24 94.15,3.29 94.35,3.29 94.35,3.24 94.55,3.24 94.55,3.13 94.75,3.13 94.75,3.16 94.95,3.16 94.95,3.27 95.15,3.27 95.15,3.2 95.35,3.2 95.35,3.28 95.55,3.28 95.55,3.24 95.75,3.24 95.75,3.26 95.95,3.26 95.95,3.35 96.15,3.35 96.15,3.23 96.35,3.23 96.35,3.19 96.55,3.19 96.55,3.23 96.75,3.23 96.75,3.26 96.95,3.26 96.95,3.18 97.15,3.18 97.15,3.3 97.34,3.3 97.34,3.19 97.54,3.19 97.54,3.23 97.74,3.23 97.74,3.31 97.94,3.31 97.94,3.26 98.14,3.26 98.14,3.26 98.34,3.26 98.34,3.32 98.54,3.32 98.54,3.23 98.74,3.23 98.74,3.27 98.94,3.27 98.94,3.31 99.14,3.31 99.14,3.34 99.34,3.34 99.34,3.31 99.54,3.31 99.54,3.31 99.74,3.31 99.74,3.35 99.94,3.35 99.94,3.32 100.14,3.32 100.14,3.36 100.34,3.36 100.34,3.31 100.54,3.31 100.54,3.37 100.74,3.37 100.74,3.32 100.94,3.32 100.94,3.38 101.14,3.38 101.14,3.32 101.34,3.32 101.34,3.29 101.54,3.29 101.54,3.35 101.74,3.35 101.74,3.35 101.94,3.35 101.94,3.42 102.13,3.42 102.13,3.31 102.33,3.31 102.33,3.41 102.53,3.41 102.53,3.26 102.73,3.26 102.73,3.41 102.93,3.41 102.93,3.42 103.13,3.42 103.13,3.31 103.33,3.31 103.33,3.38 103.53,3.38 103.53,3.39 103.73,3.39 103.73,3.35 103.93,3.35 103.93,3.39 104.13,3.39 104.13,3.37 104.33,3.37 104.33,3.39 104.53,3.39 104.53,3.43 104.73,3.43 104.73,3.41 104.93,3.41 104.93,3.31 105.13,3.31 105.13,3.48 105.33,3.48 105.33,3.38 105.53,3.38 105.53,3.4 105.73,3.4 105.73,3.41 105.93,3.41 105.93,3.37 106.13,3.37 106.13,3.39 106.33,3.39 106.33,3.44 106.53,3.44 106.53,3.36 106.73,3.36 106.73,3.38 106.92,3.38 106.92,3.39 107.12,3.39 107.12,3.37 107.32,3.37 107.32,3.43 107.52,3.43 107.52,3.44 107.72,3.44 107.72,3.48 107.92,3.48 107.92,3.41 108.12,3.41 108.12,3.41 108.32,3.41 108.32,3.46 108.52,3.46 108.52,3.46 108.72,3.46 108.72,3.47 108.92,3.47 108.92,3.44 109.12,3.44 109.12,3.42 109.32,3.42 109.32,3.41 109.52,3.41 109.52,3.37 109.72,3.37 109.72,3.47 109.92,3.47 109.92,3.43 110.12,3.43 110.12,3.5 110.32,3.5 110.32,3.45 110.52,3.45 110.52,3.46 110.72,3.46 110.72,3.48 110.92,3.48 110.92,3.42 111.12,3.42 111.12,3.51 111.32,3.51 111.32,3.39 111.52,3.39 111.52,3.41 111.71,3.41 111.71,3.46 111.91,3.46 111.91,3.51 112.11,3.51 112.11,3.51 112.31,3.51 112.31,3.46 112.51,3.46 112.51,3.53 112.71,3.53 112.71,3.47 112.91,3.47 112.91,3.48 113.11,3.48 113.11,3.48 113.31,3.48 113.31,3.47 113.51,3.47 113.51,3.53 113.71,3.53 113.71,3.49 " class="primitive"/>
            </g>
          </g>
        </g>
      </g>
    </g>
  </g>
  <g class="guide ylabels" font-size="2.82" font-family="'PT Sans Caption','Helvetica Neue','Helvetica',sans-serif" fill="#6C606B" id="img-b86ce97f-166">
    <g transform="translate(20.77,59.87)" id="img-b86ce97f-167">
      <g class="primitive">
        <text text-anchor="end" dy="0.35em">0</text>
      </g>
    </g>
    <g transform="translate(20.77,39.51)" id="img-b86ce97f-168">
      <g class="primitive">
        <text text-anchor="end" dy="0.35em">1.010</text>
      </g>
    </g>
    <g transform="translate(20.77,19.15)" id="img-b86ce97f-169">
      <g class="primitive">
        <text text-anchor="end" dy="0.35em">2.010</text>
      </g>
    </g>
  </g>
  <g font-size="3.18" font-family="'PT Sans','Helvetica Neue','Helvetica',sans-serif" fill="#202020" stroke="#000000" stroke-opacity="0.000" id="img-b86ce97f-170">
    <g transform="translate(4.18,31.76)" id="img-b86ce97f-171">
      <g class="primitive">
        <text text-anchor="middle" dy="0.35em" transform="rotate(-90,0, 2)">Counts</text>
      </g>
    </g>
  </g>
  <g font-size="3.18" font-family="'PT Sans','Helvetica Neue','Helvetica',sans-serif" fill="#202020" stroke="#000000" stroke-opacity="0.000" id="img-b86ce97f-172">
    <g transform="translate(137.53,0.71)" id="img-b86ce97f-173">
      <g class="primitive">
        <text text-anchor="middle" dy="0.6em">III-E K412[0][all]</text>
      </g>
    </g>
  </g>
</g>
<defs>
  <clipPath id="img-b86ce97f-4">
    <path d="M21.77,5.66 L253.29,5.66 253.29,61.87 21.77,61.87 " />
  </clipPath>
</defs>
</svg>
