<?xml version="1.0" encoding="UTF-8"?>
<svg xmlns="http://www.w3.org/2000/svg"
     xmlns:xlink="http://www.w3.org/1999/xlink"
     xmlns:gadfly="http://www.gadflyjl.org/ns"
     version="1.2"
     width="254mm" height="76.2mm" viewBox="0 0 254 76.2"
     stroke="none"
     fill="#000000"
     stroke-width="0.3"
     font-size="3.88"
>
<defs>
  <marker id="arrow" markerWidth="15" markerHeight="7" refX="5" refY="3.5" orient="auto" markerUnits="strokeWidth">
    <path d="M0,0 L15,3.5 L0,7 z" stroke="context-stroke" fill="context-stroke"/>
  </marker>
</defs>
<g class="plotroot xscalable yscalable" id="img-5c2d844e-1">
  <g font-size="3.88" font-family="'PT Sans','Helvetica Neue','Helvetica',sans-serif" fill="#564A55" stroke="#000000" stroke-opacity="0.000" id="img-5c2d844e-2">
    <g transform="translate(121.3,64.59)">
      <g class="primitive">
        <text text-anchor="middle" dy="0.6em">Channel</text>
      </g>
    </g>
  </g>
  <g class="guide xlabels" font-size="2.82" font-family="'PT Sans Caption','Helvetica Neue','Helvetica',sans-serif" fill="#6C606B" id="img-5c2d844e-3">
    <g transform="translate(33.89,57.91)">
      <g class="primitive">
        <text text-anchor="middle" dy="0.6em">0</text>
      </g>
    </g>
    <g transform="translate(77.59,57.91)">
      <g class="primitive">
        <text text-anchor="middle" dy="0.6em">200</text>
      </g>
    </g>
    <g transform="translate(121.3,57.91)">
      <g class="primitive">
        <text text-anchor="middle" dy="0.6em">400</text>
      </g>
    </g>
    <g transform="translate(165.01,57.91)">
      <g class="primitive">
        <text text-anchor="middle" dy="0.6em">600</text>
      </g>
    </g>
    <g transform="translate(208.72,57.91)">
      <g class="primitive">
        <text text-anchor="middle" dy="0.6em">800</text>
      </g>
    </g>
  </g>
  <g class="guide colorkey" id="img-5c2d844e-4">
    <g fill="#4C404B" font-size="2.82" font-family="'PT Sans','Helvetica Neue','Helvetica',sans-serif" id="img-5c2d844e-5">
      <g transform="translate(215.35,20.82)" id="img-5c2d844e-6">
        <g class="primitive">
          <text dy="0.35em">k[Al K-L3 + 2 others, Al2O3]</text>
        </g>
      </g>
      <g transform="translate(215.35,24.45)" id="img-5c2d844e-7">
        <g class="primitive">
          <text dy="0.35em">k[Mg K-L3 + 1 other, MgO]</text>
        </g>
      </g>
      <g transform="translate(215.35,28.07)" id="img-5c2d844e-8">
        <g class="primitive">
          <text dy="0.35em">k[Fe L3-M5 + 13 others, Fe]</text>
        </g>
      </g>
      <g transform="translate(215.35,31.7)" id="img-5c2d844e-9">
        <g class="primitive">
          <text dy="0.35em">k[Fe K-L3 + 1 other, Fe]</text>
        </g>
      </g>
      <g transform="translate(215.35,35.33)" id="img-5c2d844e-10">
        <g class="primitive">
          <text dy="0.35em">k[Fe K-M3 + 3 others, Fe]</text>
        </g>
      </g>
      <g transform="translate(215.35,38.95)" id="img-5c2d844e-11">
        <g class="primitive">
          <text dy="0.35em">k[Si K-L3 + 2 others, SiO2]</text>
        </g>
      </g>
      <g transform="translate(215.35,42.58)" id="img-5c2d844e-12">
        <g class="primitive">
          <text dy="0.35em">k[O K-L3 + 1 other, SiO2]</text>
        </g>
      </g>
      <g transform="translate(215.35,46.21)" id="img-5c2d844e-13">
        <g class="primitive">
          <text dy="0.35em">k[Ca K-L3 + 3 others, CaF2]</text>
        </g>
      </g>
    </g>
    <g stroke-width="0.3" id="img-5c2d844e-14">
      <g stroke="#FFFFFF" fill-opacity="1" fill="#9C9C9C" id="img-5c2d844e-15">
        <g transform="translate(212.53,46.21)" id="img-5c2d844e-16">
          <circle cx="0" cy="0" r="0.9" class="primitive"/>
        </g>
      </g>
      <g stroke="#FFFFFF" fill-opacity="1" fill="#5C0000" id="img-5c2d844e-17">
        <g transform="translate(212.53,42.58)" id="img-5c2d844e-18">
          <circle cx="0" cy="0" r="0.9" class="primitive"/>
        </g>
      </g>
      <g stroke="#FFFFFF" fill-opacity="1" fill="#00F6FF" id="img-5c2d844e-19">
        <g transform="translate(212.53,38.95)" id="img-5c2d844e-20">
          <circle cx="0" cy="0" r="0.9" class="primitive"/>
        </g>
      </g>
      <g stroke="#FFFFFF" fill-opacity="1" fill="#576969" id="img-5c2d844e-21">
        <g transform="translate(212.53,35.33)" id="img-5c2d844e-22">
          <circle cx="0" cy="0" r="0.9" class="primitive"/>
        </g>
      </g>
      <g stroke="#FFFFFF" fill-opacity="1" fill="#FFD000" id="img-5c2d844e-23">
        <g transform="translate(212.53,31.7)" id="img-5c2d844e-24">
          <circle cx="0" cy="0" r="0.9" class="primitive"/>
        </g>
      </g>
      <g stroke="#FFFFFF" fill-opacity="1" fill="#00008A" id="img-5c2d844e-25">
        <g transform="translate(212.53,28.07)" id="img-5c2d844e-26">
          <circle cx="0" cy="0" r="0.9" class="primitive"/>
        </g>
      </g>
      <g stroke="#FFFFFF" fill-opacity="1" fill="#0071FF" id="img-5c2d844e-27">
        <g transform="translate(212.53,24.45)" id="img-5c2d844e-28">
          <circle cx="0" cy="0" r="0.9" class="primitive"/>
        </g>
      </g>
      <g stroke="#FFFFFF" fill-opacity="1" fill="#00A82D" id="img-5c2d844e-29">
        <g transform="translate(212.53,20.82)" id="img-5c2d844e-30">
          <circle cx="0" cy="0" r="0.9" class="primitive"/>
        </g>
      </g>
    </g>
    <g fill="#362A35" font-size="3.88" font-family="'PT Sans','Helvetica Neue','Helvetica',sans-serif" stroke="#000000" stroke-opacity="0.000" id="img-5c2d844e-31">
      <g transform="translate(211.72,17.51)" id="img-5c2d844e-32">
        <g class="primitive">
          <text dy="-0em">Vector</text>
        </g>
      </g>
    </g>
  </g>
  <g clip-path="url(#img-5c2d844e-33)">
    <g id="img-5c2d844e-34">
      <g pointer-events="visible" stroke-width="0.3" fill="#000000" fill-opacity="0.000" stroke="#000000" stroke-opacity="0.000" class="guide background" id="img-5c2d844e-35">
        <g transform="translate(121.3,30.96)" id="img-5c2d844e-36">
          <path d="M-89.42,-25.96 L89.42,-25.96 89.42,25.96 -89.42,25.96  z" class="primitive"/>
        </g>
      </g>
      <g class="guide ygridlines xfixed" stroke-dasharray="0.5,0.5" stroke-width="0.2" stroke="#D0D0E0" id="img-5c2d844e-37">
        <g transform="translate(121.3,54.91)" id="img-5c2d844e-38">
          <path fill="none" d="M-89.42,0 L89.42,0 " class="primitive"/>
        </g>
        <g transform="translate(121.3,38.94)" id="img-5c2d844e-39">
          <path fill="none" d="M-89.42,0 L89.42,0 " class="primitive"/>
        </g>
        <g transform="translate(121.3,22.97)" id="img-5c2d844e-40">
          <path fill="none" d="M-89.42,0 L89.42,0 " class="primitive"/>
        </g>
        <g transform="translate(121.3,7)" id="img-5c2d844e-41">
          <path fill="none" d="M-89.42,0 L89.42,0 " class="primitive"/>
        </g>
      </g>
      <g class="guide xgridlines yfixed" stroke-dasharray="0.5,0.5" stroke-width="0.2" stroke="#D0D0E0" id="img-5c2d844e-42">
        <g transform="translate(33.89,30.96)" id="img-5c2d844e-43">
          <path fill="none" d="M0,-25.96 L0,25.96 " class="primitive"/>
        </g>
        <g transform="translate(77.59,30.96)" id="img-5c2d844e-44">
          <path fill="none" d="M0,-25.96 L0,25.96 " class="primitive"/>
        </g>
        <g transform="translate(121.3,30.96)" id="img-5c2d844e-45">
          <path fill="none" d="M0,-25.96 L0,25.96 " class="primitive"/>
        </g>
        <g transform="translate(165.01,30.96)" id="img-5c2d844e-46">
          <path fill="none" d="M0,-25.96 L0,25.96 " class="primitive"/>
        </g>
        <g transform="translate(208.72,30.96)" id="img-5c2d844e-47">
          <path fill="none" d="M0,-25.96 L0,25.96 " class="primitive"/>
        </g>
      </g>
      <g class="plotpanel" id="img-5c2d844e-48">
        <metadata>
          <boundingbox value="31.88500000000002mm 5.0mm 178.83499999999998mm 51.91499999999999mm"/>
          <unitbox value="-9.151485686504419 1.0626108734216843e-6 818.3029713730087 -1.6252217468433687e-6"/>
        </metadata>
        <g stroke-width="0.3" fill="#000000" fill-opacity="0.000" class="geometry" id="img-5c2d844e-49">
          <g class="color_RGB{Float64}(0.611005493077889,0.611005535205774,0.611005495496397)" stroke-dasharray="none" stroke="#9C9C9C" id="img-5c2d844e-50">
            <g transform="translate(121.41,38.94)" id="img-5c2d844e-51">
              <path fill="none" d="M-87.31,0 L-87.09,0 -86.87,0 -86.65,0 -86.43,0 -86.22,0 -86,0 -85.78,0 -85.56,0 -85.34,0 -85.12,0 -84.9,0 -84.69,0 -84.47,0 -84.25,0 -84.03,0 -83.81,0 -83.59,0 -83.37,0 -83.16,0 -82.94,0 -82.72,0 -82.5,0 -82.28,0 -82.06,0 -81.84,0 -81.63,0 -81.41,0 -81.19,0 -80.97,0 -80.75,0 -80.53,0 -80.31,0 -80.1,0 -79.88,0 -79.66,0 -79.44,0 -79.22,0 -79,0 -78.79,0 -78.57,0 -78.35,0 -78.13,0 -77.91,0 -77.69,0 -77.47,0 -77.26,0 -77.04,0 -76.82,0 -76.6,0 -76.38,0 -76.16,0 -75.94,0 -75.73,0 -75.51,0 -75.29,0 -75.07,0 -74.85,0 -74.63,0 -74.41,0 -74.2,0 -73.98,0 -73.76,0 -73.54,0 -73.32,0 -73.1,0 -72.88,0 -72.67,0 -72.45,0 -72.23,0 -72.01,0 -71.79,0 -71.57,0 -71.35,0 -71.14,0 -70.92,0 -70.7,0 -70.48,0 -70.26,0 -70.04,0 -69.82,0 -69.61,0 -69.39,0 -69.17,0 -68.95,0 -68.73,0 -68.51,0 -68.29,0 -68.08,0 -67.86,0 -67.64,0 -67.42,0 -67.2,0 -66.98,0 -66.77,0 -66.55,0 -66.33,0 -66.11,0 -65.89,0 -65.67,0 -65.45,0 -65.24,0 -65.02,0 -64.8,0 -64.58,0 -64.36,0 -64.14,0 -63.92,0 -63.71,0 -63.49,0 -63.27,0 -63.05,0 -62.83,0 -62.61,0 -62.39,0 -62.18,0 -61.96,0 -61.74,0 -61.52,0 -61.3,0 -61.08,0 -60.86,0 -60.65,0 -60.43,0 -60.21,0 -59.99,0 -59.77,0 -59.55,0 -59.33,0 -59.12,0 -58.9,0 -58.68,0 -58.46,0 -58.24,0 -58.02,0 -57.8,0 -57.59,0 -57.37,0 -57.15,0 -56.93,0 -56.71,0 -56.49,0 -56.28,0 -56.06,0 -55.84,0 -55.62,0 -55.4,0 -55.18,0 -54.96,0 -54.75,0 -54.53,0 -54.31,0 -54.09,0 -53.87,0 -53.65,0 -53.43,0 -53.22,0 -53,0 -52.78,0 -52.56,0 -52.34,0 -52.12,0 -51.9,0 -51.69,0 -51.47,0 -51.25,0 -51.03,0 -50.81,0 -50.59,0 -50.37,0 -50.16,0 -49.94,0 -49.72,0 -49.5,0 -49.28,0 -49.06,0 -48.84,0 -48.63,0 -48.41,0 -48.19,0 -47.97,0 -47.75,0 -47.53,0 -47.31,0 -47.1,0 -46.88,0 -46.66,0 -46.44,0 -46.22,0 -46,0 -45.78,0 -45.57,0 -45.35,0 -45.13,0 -44.91,0 -44.69,0 -44.47,0 -44.26,0 -44.04,0 -43.82,0 -43.6,0 -43.38,0 -43.16,0 -42.94,0 -42.73,0 -42.51,0 -42.29,0 -42.07,0 -41.85,0 -41.63,0 -41.41,0 -41.2,0 -40.98,0 -40.76,0 -40.54,0 -40.32,0 -40.1,0 -39.88,0 -39.67,0 -39.45,0 -39.23,0 -39.01,0 -38.79,0 -38.57,0 -38.35,0 -38.14,0 -37.92,0 -37.7,0 -37.48,0 -37.26,0 -37.04,0 -36.82,0 -36.61,0 -36.39,0 -36.17,0 -35.95,0 -35.73,0 -35.51,0 -35.29,0 -35.08,0 -34.86,0 -34.64,0 -34.42,0 -34.2,0 -33.98,0 -33.77,0 -33.55,0 -33.33,0 -33.11,0 -32.89,0 -32.67,0 -32.45,0 -32.24,0 -32.02,0 -31.8,0 -31.58,0 -31.36,0 -31.14,0 -30.92,0 -30.71,0 -30.49,0 -30.27,0 -30.05,0 -29.83,0 -29.61,0 -29.39,0 -29.18,0 -28.96,0 -28.74,0 -28.52,0 -28.3,0 -28.08,0 -27.86,0 -27.65,0 -27.43,0 -27.21,0 -26.99,0 -26.77,0 -26.55,0 -26.33,0 -26.12,0 -25.9,0 -25.68,0 -25.46,0 -25.24,0 -25.02,0 -24.8,0 -24.59,0 -24.37,0 -24.15,0 -23.93,0 -23.71,0 -23.49,0 -23.27,0 -23.06,0 -22.84,0 -22.62,0 -22.4,0 -22.18,0 -21.96,0 -21.75,0 -21.53,0 -21.31,0 -21.09,0 -20.87,0 -20.65,0 -20.43,0 -20.22,0 -20,0 -19.78,0 -19.56,0 -19.34,0 -19.12,0 -18.9,0 -18.69,0 -18.47,0 -18.25,0 -18.03,-0 -17.81,-0 -17.59,-0 -17.37,-0 -17.16,-0 -16.94,-0 -16.72,-0 -16.5,-0 -16.28,-0 -16.06,-0 -15.84,-0 -15.63,-0 -15.41,-0.01 -15.19,-0.01 -14.97,-0.02 -14.75,-0.03 -14.53,-0.04 -14.31,-0.06 -14.1,-0.08 -13.88,-0.11 -13.66,-0.14 -13.44,-0.18 -13.22,-0.22 -13,-0.26 -12.78,-0.3 -12.57,-0.33 -12.35,-0.34 -12.13,-0.33 -11.91,-0.29 -11.69,-0.22 -11.47,-0.11 -11.26,0.04 -11.04,0.22 -10.82,0.43 -10.6,0.66 -10.38,0.89 -10.16,1.12 -9.94,1.31 -9.73,1.45 -9.51,1.53 -9.29,1.52 -9.07,1.42 -8.85,1.22 -8.63,0.94 -8.41,0.57 -8.2,0.13 -7.98,-0.34 -7.76,-0.83 -7.54,-1.29 -7.32,-1.7 -7.1,-2.04 -6.88,-2.27 -6.67,-2.38 -6.45,-2.37 -6.23,-2.23 -6.01,-1.98 -5.79,-1.63 -5.57,-1.21 -5.35,-0.75 -5.14,-0.27 -4.92,0.2 -4.7,0.63 -4.48,0.99 -4.26,1.28 -4.04,1.48 -3.82,1.59 -3.61,1.61 -3.39,1.56 -3.17,1.44 -2.95,1.27 -2.73,1.07 -2.51,0.85 -2.29,0.63 -2.08,0.41 -1.86,0.21 -1.64,0.02 -1.42,-0.13 -1.2,-0.26 -0.98,-0.36 -0.76,-0.43 -0.55,-0.48 -0.33,-0.51 -0.11,-0.52 0.11,-0.51 0.33,-0.48 0.55,-0.45 0.76,-0.4 0.98,-0.34 1.2,-0.28 1.42,-0.21 1.64,-0.14 1.86,-0.08 2.08,-0.02 2.29,0.04 2.51,0.09 2.73,0.13 2.95,0.16 3.17,0.17 3.39,0.18 3.61,0.18 3.82,0.17 4.04,0.15 4.26,0.13 4.48,0.1 4.7,0.08 4.92,0.05 5.14,0.03 5.35,0.01 5.57,-0.01 5.79,-0.02 6.01,-0.03 6.23,-0.04 6.45,-0.04 6.67,-0.04 6.88,-0.04 7.1,-0.04 7.32,-0.03 7.54,-0.03 7.76,-0.02 7.98,-0.02 8.2,-0.01 8.41,-0.01 8.63,-0.01 8.85,-0.01 9.07,-0 9.29,-0 9.51,-0 9.73,-0 9.94,-0 10.16,-0 10.38,-0 10.6,-0 10.82,-0 11.04,-0 11.26,-0 11.47,-0 11.69,-0 11.91,-0 12.13,-0 12.35,-0 12.57,0 12.78,0 13,0 13.22,0 13.44,0 13.66,0 13.88,0 14.1,0 14.31,0 14.53,0 14.75,0 14.97,0 15.19,0 15.41,0 15.63,0 15.84,0 16.06,0 16.28,0 16.5,0 16.72,0 16.94,0 17.16,0 17.37,0 17.59,0 17.81,0 18.03,0 18.25,0 18.47,0 18.69,0 18.9,0 19.12,0 19.34,0 19.56,0 19.78,0 20,0 20.22,0 20.43,0 20.65,0 20.87,0 21.09,0 21.31,0 21.53,0 21.75,0 21.96,0 22.18,0 22.4,0 22.62,0 22.84,0 23.06,0 23.27,0 23.49,0 23.71,0 23.93,0 24.15,0 24.37,0 24.59,0 24.8,0 25.02,0 25.24,0 25.46,0 25.68,0 25.9,0 26.12,0 26.33,0 26.55,0 26.77,0 26.99,0 27.21,0 27.43,0 27.65,0 27.86,0 28.08,0 28.3,0 28.52,0 28.74,0 28.96,0 29.18,0 29.39,0 29.61,0 29.83,0 30.05,0 30.27,0 30.49,0 30.71,0 30.92,0 31.14,0 31.36,0 31.58,0 31.8,0 32.02,0 32.24,0 32.45,0 32.67,0 32.89,0 33.11,0 33.33,0 33.55,0 33.77,0 33.98,0 34.2,0 34.42,0 34.64,0 34.86,0 35.08,0 35.29,0 35.51,0 35.73,0 35.95,0 36.17,0 36.39,0 36.61,0 36.82,0 37.04,0 37.26,0 37.48,0 37.7,0 37.92,0 38.14,0 38.35,0 38.57,0 38.79,0 39.01,0 39.23,0 39.45,0 39.67,0 39.88,0 40.1,0 40.32,0 40.54,0 40.76,0 40.98,0 41.2,0 41.41,0 41.63,0 41.85,0 42.07,0 42.29,0 42.51,0 42.73,0 42.94,0 43.16,0 43.38,0 43.6,0 43.82,0 44.04,0 44.26,0 44.47,0 44.69,0 44.91,0 45.13,0 45.35,0 45.57,0 45.78,0 46,0 46.22,0 46.44,0 46.66,0 46.88,0 47.1,0 47.31,0 47.53,0 47.75,0 47.97,0 48.19,0 48.41,0 48.63,0 48.84,0 49.06,0 49.28,0 49.5,0 49.72,0 49.94,0 50.16,0 50.37,0 50.59,0 50.81,0 51.03,0 51.25,0 51.47,0 51.69,0 51.9,0 52.12,0 52.34,0 52.56,0 52.78,0 53,0 53.22,0 53.43,0 53.65,0 53.87,0 54.09,0 54.31,0 54.53,0 54.75,0 54.96,0 55.18,0 55.4,0 55.62,0 55.84,0 56.06,0 56.28,0 56.49,0 56.71,0 56.93,0 57.15,0 57.37,0 57.59,0 57.8,0 58.02,0 58.24,0 58.46,0 58.68,0 58.9,0 59.12,0 59.33,0 59.55,0 59.77,0 59.99,0 60.21,0 60.43,0 60.65,0 60.86,0 61.08,0 61.3,0 61.52,0 61.74,0 61.96,0 62.18,0 62.39,0 62.61,0 62.83,0 63.05,0 63.27,0 63.49,0 63.71,0 63.92,0 64.14,0 64.36,0 64.58,0 64.8,0 65.02,0 65.24,0 65.45,0 65.67,0 65.89,0 66.11,0 66.33,0 66.55,0 66.77,0 66.98,0 67.2,0 67.42,0 67.64,0 67.86,0 68.08,0 68.29,0 68.51,0 68.73,0 68.95,0 69.17,0 69.39,0 69.61,0 69.82,0 70.04,0 70.26,0 70.48,0 70.7,0 70.92,0 71.14,0 71.35,0 71.57,0 71.79,0 72.01,0 72.23,0 72.45,0 72.67,0 72.88,0 73.1,0 73.32,0 73.54,0 73.76,0 73.98,0 74.2,0 74.41,0 74.63,0 74.85,0 75.07,0 75.29,0 75.51,0 75.73,0 75.94,0 76.16,0 76.38,0 76.6,0 76.82,0 77.04,0 77.26,0 77.47,0 77.69,0 77.91,0 78.13,0 78.35,0 78.57,0 78.79,0 79,0 79.22,0 79.44,0 79.66,0 79.88,0 80.1,0 80.31,0 80.53,0 80.75,0 80.97,0 81.19,0 81.41,0 81.63,0 81.84,0 82.06,0 82.28,0 82.5,0 82.72,0 82.94,0 83.16,0 83.37,0 83.59,0 83.81,0 84.03,0 84.25,0 84.47,0 84.69,0 84.9,0 85.12,0 85.34,0 85.56,0 85.78,0 86,0 86.22,0 86.43,0 86.65,0 86.87,0 87.09,0 87.31,0 " class="primitive"/>
            </g>
          </g>
        </g>
        <g stroke-width="0.3" fill="#000000" fill-opacity="0.000" class="geometry" id="img-5c2d844e-52">
          <g class="color_RGB{Float64}(0.36072361084712,1.8219952808935574e-7,0.0)" stroke-dasharray="none" stroke="#5C0000" id="img-5c2d844e-53">
            <g transform="translate(121.41,38.94)" id="img-5c2d844e-54">
              <path fill="none" d="M-87.31,0 L-87.09,0 -86.87,0 -86.65,0 -86.43,0 -86.22,0 -86,0 -85.78,0 -85.56,0 -85.34,0 -85.12,0 -84.9,0 -84.69,0 -84.47,0 -84.25,0 -84.03,0 -83.81,0 -83.59,0 -83.37,0 -83.16,0 -82.94,0 -82.72,-0 -82.5,-0 -82.28,-0 -82.06,-0 -81.84,-0 -81.63,-0 -81.41,-0.01 -81.19,-0.02 -80.97,-0.05 -80.75,-0.1 -80.53,-0.2 -80.31,-0.35 -80.1,-0.56 -79.88,-0.81 -79.66,-1.03 -79.44,-1.15 -79.22,-1.06 -79,-0.66 -78.79,0.1 -78.57,1.2 -78.35,2.53 -78.13,3.84 -77.91,4.84 -77.69,5.23 -77.47,4.78 -77.26,3.41 -77.04,1.22 -76.82,-1.47 -76.6,-4.2 -76.38,-6.48 -76.16,-7.88 -75.94,-8.11 -75.73,-7.14 -75.51,-5.18 -75.29,-2.59 -75.07,0.15 -74.85,2.59 -74.63,4.38 -74.41,5.34 -74.2,5.44 -73.98,4.83 -73.76,3.74 -73.54,2.43 -73.32,1.12 -73.1,0 -72.88,-0.85 -72.67,-1.39 -72.45,-1.64 -72.23,-1.66 -72.01,-1.51 -71.79,-1.24 -71.57,-0.91 -71.35,-0.56 -71.14,-0.23 -70.92,0.06 -70.7,0.27 -70.48,0.41 -70.26,0.46 -70.04,0.45 -69.82,0.38 -69.61,0.28 -69.39,0.17 -69.17,0.06 -68.95,-0.02 -68.73,-0.07 -68.51,-0.1 -68.29,-0.11 -68.08,-0.1 -67.86,-0.08 -67.64,-0.07 -67.42,-0.05 -67.2,-0.03 -66.98,-0.02 -66.77,-0.01 -66.55,-0.01 -66.33,-0 -66.11,-0 -65.89,-0 -65.67,-0 -65.45,-0 -65.24,-0 -65.02,-0 -64.8,-0 -64.58,-0 -64.36,-0 -64.14,-0 -63.92,-0 -63.71,-0 -63.49,-0 -63.27,0 -63.05,0 -62.83,0 -62.61,0 -62.39,0 -62.18,0 -61.96,0 -61.74,0 -61.52,0 -61.3,0 -61.08,0 -60.86,-0 -60.65,-0 -60.43,-0 -60.21,-0 -59.99,-0 -59.77,-0 -59.55,-0 -59.33,-0 -59.12,-0 -58.9,-0 -58.68,0 -58.46,0 -58.24,0 -58.02,0 -57.8,0 -57.59,0 -57.37,0 -57.15,0 -56.93,0 -56.71,0 -56.49,-0 -56.28,-0 -56.06,-0 -55.84,-0 -55.62,-0 -55.4,-0 -55.18,-0 -54.96,0 -54.75,0 -54.53,0 -54.31,0 -54.09,0 -53.87,0 -53.65,-0 -53.43,-0 -53.22,-0 -53,-0 -52.78,-0 -52.56,-0 -52.34,-0 -52.12,-0 -51.9,-0 -51.69,-0 -51.47,-0 -51.25,0 -51.03,0 -50.81,0 -50.59,0 -50.37,0 -50.16,0 -49.94,0 -49.72,0 -49.5,-0 -49.28,-0 -49.06,-0 -48.84,-0 -48.63,-0 -48.41,-0 -48.19,0 -47.97,0 -47.75,0 -47.53,0 -47.31,0 -47.1,0 -46.88,0 -46.66,0 -46.44,0 -46.22,0 -46,0 -45.78,0 -45.57,0 -45.35,0 -45.13,0 -44.91,0 -44.69,0 -44.47,0 -44.26,0 -44.04,0 -43.82,0 -43.6,0 -43.38,0 -43.16,0 -42.94,0 -42.73,0 -42.51,0 -42.29,0 -42.07,0 -41.85,0 -41.63,0 -41.41,0 -41.2,0 -40.98,0 -40.76,0 -40.54,0 -40.32,0 -40.1,0 -39.88,0 -39.67,0 -39.45,0 -39.23,0 -39.01,0 -38.79,0 -38.57,0 -38.35,0 -38.14,0 -37.92,0 -37.7,0 -37.48,0 -37.26,0 -37.04,0 -36.82,0 -36.61,0 -36.39,0 -36.17,0 -35.95,0 -35.73,0 -35.51,0 -35.29,0 -35.08,0 -34.86,0 -34.64,0 -34.42,0 -34.2,0 -33.98,0 -33.77,0 -33.55,0 -33.33,0 -33.11,0 -32.89,0 -32.67,0 -32.45,0 -32.24,0 -32.02,0 -31.8,0 -31.58,0 -31.36,0 -31.14,0 -30.92,0 -30.71,0 -30.49,0 -30.27,0 -30.05,0 -29.83,0 -29.61,0 -29.39,0 -29.18,0 -28.96,0 -28.74,0 -28.52,0 -28.3,0 -28.08,0 -27.86,0 -27.65,0 -27.43,0 -27.21,0 -26.99,0 -26.77,0 -26.55,0 -26.33,0 -26.12,0 -25.9,0 -25.68,0 -25.46,0 -25.24,0 -25.02,0 -24.8,0 -24.59,0 -24.37,0 -24.15,0 -23.93,0 -23.71,0 -23.49,0 -23.27,0 -23.06,0 -22.84,0 -22.62,0 -22.4,0 -22.18,0 -21.96,0 -21.75,0 -21.53,0 -21.31,0 -21.09,0 -20.87,0 -20.65,0 -20.43,0 -20.22,0 -20,0 -19.78,0 -19.56,0 -19.34,0 -19.12,0 -18.9,0 -18.69,0 -18.47,0 -18.25,0 -18.03,0 -17.81,0 -17.59,0 -17.37,0 -17.16,0 -16.94,0 -16.72,0 -16.5,0 -16.28,0 -16.06,0 -15.84,0 -15.63,0 -15.41,0 -15.19,0 -14.97,0 -14.75,0 -14.53,0 -14.31,0 -14.1,0 -13.88,0 -13.66,0 -13.44,0 -13.22,0 -13,0 -12.78,0 -12.57,0 -12.35,0 -12.13,0 -11.91,0 -11.69,0 -11.47,0 -11.26,0 -11.04,0 -10.82,0 -10.6,0 -10.38,0 -10.16,0 -9.94,0 -9.73,0 -9.51,0 -9.29,0 -9.07,0 -8.85,0 -8.63,0 -8.41,0 -8.2,0 -7.98,0 -7.76,0 -7.54,0 -7.32,0 -7.1,0 -6.88,0 -6.67,0 -6.45,0 -6.23,0 -6.01,0 -5.79,0 -5.57,0 -5.35,0 -5.14,0 -4.92,0 -4.7,0 -4.48,0 -4.26,0 -4.04,0 -3.82,0 -3.61,0 -3.39,0 -3.17,0 -2.95,0 -2.73,0 -2.51,0 -2.29,0 -2.08,0 -1.86,0 -1.64,0 -1.42,0 -1.2,0 -0.98,0 -0.76,0 -0.55,0 -0.33,0 -0.11,0 0.11,0 0.33,0 0.55,0 0.76,0 0.98,0 1.2,0 1.42,0 1.64,0 1.86,0 2.08,0 2.29,0 2.51,0 2.73,0 2.95,0 3.17,0 3.39,0 3.61,0 3.82,0 4.04,0 4.26,0 4.48,0 4.7,0 4.92,0 5.14,0 5.35,0 5.57,0 5.79,0 6.01,0 6.23,0 6.45,0 6.67,0 6.88,0 7.1,0 7.32,0 7.54,0 7.76,0 7.98,0 8.2,0 8.41,0 8.63,0 8.85,0 9.07,0 9.29,0 9.51,0 9.73,0 9.94,0 10.16,0 10.38,0 10.6,0 10.82,0 11.04,0 11.26,0 11.47,0 11.69,0 11.91,0 12.13,0 12.35,0 12.57,0 12.78,0 13,0 13.22,0 13.44,0 13.66,0 13.88,0 14.1,0 14.31,0 14.53,0 14.75,0 14.97,0 15.19,0 15.41,0 15.63,0 15.84,0 16.06,0 16.28,0 16.5,0 16.72,0 16.94,0 17.16,0 17.37,0 17.59,0 17.81,0 18.03,0 18.25,0 18.47,0 18.69,0 18.9,0 19.12,0 19.34,0 19.56,0 19.78,0 20,0 20.22,0 20.43,0 20.65,0 20.87,0 21.09,0 21.31,0 21.53,0 21.75,0 21.96,0 22.18,0 22.4,0 22.62,0 22.84,0 23.06,0 23.27,0 23.49,0 23.71,0 23.93,0 24.15,0 24.37,0 24.59,0 24.8,0 25.02,0 25.24,0 25.46,0 25.68,0 25.9,0 26.12,0 26.33,0 26.55,0 26.77,0 26.99,0 27.21,0 27.43,0 27.65,0 27.86,0 28.08,0 28.3,0 28.52,0 28.74,0 28.96,0 29.18,0 29.39,0 29.61,0 29.83,0 30.05,0 30.27,0 30.49,0 30.71,0 30.92,0 31.14,0 31.36,0 31.58,0 31.8,0 32.02,0 32.24,0 32.45,0 32.67,0 32.89,0 33.11,0 33.33,0 33.55,0 33.77,0 33.98,0 34.2,0 34.42,0 34.64,0 34.86,0 35.08,0 35.29,0 35.51,0 35.73,0 35.95,0 36.17,0 36.39,0 36.61,0 36.82,0 37.04,0 37.26,0 37.48,0 37.7,0 37.92,0 38.14,0 38.35,0 38.57,0 38.79,0 39.01,0 39.23,0 39.45,0 39.67,0 39.88,0 40.1,0 40.32,0 40.54,0 40.76,0 40.98,0 41.2,0 41.41,0 41.63,0 41.85,0 42.07,0 42.29,0 42.51,0 42.73,0 42.94,0 43.16,0 43.38,0 43.6,0 43.82,0 44.04,0 44.26,0 44.47,0 44.69,0 44.91,0 45.13,0 45.35,0 45.57,0 45.78,0 46,0 46.22,0 46.44,0 46.66,0 46.88,0 47.1,0 47.31,0 47.53,0 47.75,0 47.97,0 48.19,0 48.41,0 48.63,0 48.84,0 49.06,0 49.28,0 49.5,0 49.72,0 49.94,0 50.16,0 50.37,0 50.59,0 50.81,0 51.03,0 51.25,0 51.47,0 51.69,0 51.9,0 52.12,0 52.34,0 52.56,0 52.78,0 53,0 53.22,0 53.43,0 53.65,0 53.87,0 54.09,0 54.31,0 54.53,0 54.75,0 54.96,0 55.18,0 55.4,0 55.62,0 55.84,0 56.06,0 56.28,0 56.49,0 56.71,0 56.93,0 57.15,0 57.37,0 57.59,0 57.8,0 58.02,0 58.24,0 58.46,0 58.68,0 58.9,0 59.12,0 59.33,0 59.55,0 59.77,0 59.99,0 60.21,0 60.43,0 60.65,0 60.86,0 61.08,0 61.3,0 61.52,0 61.74,0 61.96,0 62.18,0 62.39,0 62.61,0 62.83,0 63.05,0 63.27,0 63.49,0 63.71,0 63.92,0 64.14,0 64.36,0 64.58,0 64.8,0 65.02,0 65.24,0 65.45,0 65.67,0 65.89,0 66.11,0 66.33,0 66.55,0 66.77,0 66.98,0 67.2,0 67.42,0 67.64,0 67.86,0 68.08,0 68.29,0 68.51,0 68.73,0 68.95,0 69.17,0 69.39,0 69.61,0 69.82,0 70.04,0 70.26,0 70.48,0 70.7,0 70.92,0 71.14,0 71.35,0 71.57,0 71.79,0 72.01,0 72.23,0 72.45,0 72.67,0 72.88,0 73.1,0 73.32,0 73.54,0 73.76,0 73.98,0 74.2,0 74.41,0 74.63,0 74.85,0 75.07,0 75.29,0 75.51,0 75.73,0 75.94,0 76.16,0 76.38,0 76.6,0 76.82,0 77.04,0 77.26,0 77.47,0 77.69,0 77.91,0 78.13,0 78.35,0 78.57,0 78.79,0 79,0 79.22,0 79.44,0 79.66,0 79.88,0 80.1,0 80.31,0 80.53,0 80.75,0 80.97,0 81.19,0 81.41,0 81.63,0 81.84,0 82.06,0 82.28,0 82.5,0 82.72,0 82.94,0 83.16,0 83.37,0 83.59,0 83.81,0 84.03,0 84.25,0 84.47,0 84.69,0 84.9,0 85.12,0 85.34,0 85.56,0 85.78,0 86,0 86.22,0 86.43,0 86.65,0 86.87,0 87.09,0 87.31,0 " class="primitive"/>
            </g>
          </g>
        </g>
        <g stroke-width="0.3" fill="#000000" fill-opacity="0.000" class="geometry" id="img-5c2d844e-55">
          <g class="color_RGB{Float64}(1.129788599842918e-6,0.9656744892062866,0.9999999983677886)" stroke-dasharray="none" stroke="#00F6FF" id="img-5c2d844e-56">
            <g transform="translate(121.41,38.94)" id="img-5c2d844e-57">
              <path fill="none" d="M-87.31,0 L-87.09,0 -86.87,0 -86.65,0 -86.43,0 -86.22,0 -86,0 -85.78,0 -85.56,0 -85.34,0 -85.12,0 -84.9,0 -84.69,0 -84.47,0 -84.25,0 -84.03,0 -83.81,0 -83.59,0 -83.37,0 -83.16,0 -82.94,0 -82.72,0 -82.5,0 -82.28,0 -82.06,0 -81.84,0 -81.63,0 -81.41,0 -81.19,0 -80.97,0 -80.75,0 -80.53,0 -80.31,0 -80.1,0 -79.88,0 -79.66,0 -79.44,0 -79.22,0 -79,0 -78.79,0 -78.57,0 -78.35,0 -78.13,0 -77.91,0 -77.69,0 -77.47,0 -77.26,0 -77.04,0 -76.82,0 -76.6,0 -76.38,0 -76.16,0 -75.94,0 -75.73,0 -75.51,0 -75.29,0 -75.07,0 -74.85,0 -74.63,0 -74.41,0 -74.2,0 -73.98,0 -73.76,0 -73.54,0 -73.32,0 -73.1,0 -72.88,-0 -72.67,-0 -72.45,-0 -72.23,-0 -72.01,-0 -71.79,-0 -71.57,-0 -71.35,-0 -71.14,-0 -70.92,0 -70.7,0 -70.48,0 -70.26,0 -70.04,0 -69.82,0 -69.61,0 -69.39,0 -69.17,0 -68.95,0 -68.73,-0 -68.51,-0 -68.29,-0 -68.08,-0 -67.86,-0 -67.64,-0 -67.42,-0 -67.2,-0 -66.98,-0 -66.77,-0 -66.55,-0 -66.33,-0 -66.11,-0 -65.89,-0 -65.67,-0 -65.45,-0 -65.24,-0 -65.02,-0 -64.8,-0 -64.58,-0 -64.36,-0 -64.14,-0 -63.92,-0 -63.71,-0 -63.49,-0 -63.27,-0 -63.05,0 -62.83,0.01 -62.61,0.01 -62.39,0.01 -62.18,0.01 -61.96,0.02 -61.74,0.01 -61.52,0.01 -61.3,0.01 -61.08,0 -60.86,-0 -60.65,-0.01 -60.43,-0.01 -60.21,-0.01 -59.99,-0.01 -59.77,-0 -59.55,0 -59.33,0.01 -59.12,0.02 -58.9,0.03 -58.68,0.03 -58.46,0.02 -58.24,0.01 -58.02,-0.01 -57.8,-0.04 -57.59,-0.07 -57.37,-0.09 -57.15,-0.11 -56.93,-0.12 -56.71,-0.12 -56.49,-0.1 -56.28,-0.07 -56.06,-0.03 -55.84,0.02 -55.62,0.06 -55.4,0.1 -55.18,0.12 -54.96,0.11 -54.75,0.08 -54.53,0.02 -54.31,-0.06 -54.09,-0.15 -53.87,-0.23 -53.65,-0.29 -53.43,-0.31 -53.22,-0.27 -53,-0.17 -52.78,-0 -52.56,0.22 -52.34,0.49 -52.12,0.76 -51.9,1 -51.69,1.18 -51.47,1.26 -51.25,1.21 -51.03,1.03 -50.81,0.71 -50.59,0.29 -50.37,-0.2 -50.16,-0.72 -49.94,-1.19 -49.72,-1.58 -49.5,-1.83 -49.28,-1.92 -49.06,-1.84 -48.84,-1.6 -48.63,-1.23 -48.41,-0.78 -48.19,-0.29 -47.97,0.19 -47.75,0.6 -47.53,0.92 -47.31,1.12 -47.1,1.2 -46.88,1.17 -46.66,1.06 -46.44,0.88 -46.22,0.66 -46,0.44 -45.78,0.23 -45.57,0.06 -45.35,-0.08 -45.13,-0.17 -44.91,-0.22 -44.69,-0.24 -44.47,-0.23 -44.26,-0.21 -44.04,-0.18 -43.82,-0.15 -43.6,-0.11 -43.38,-0.09 -43.16,-0.06 -42.94,-0.05 -42.73,-0.03 -42.51,-0.02 -42.29,-0.02 -42.07,-0.01 -41.85,-0.01 -41.63,-0.01 -41.41,-0 -41.2,-0 -40.98,-0 -40.76,-0 -40.54,-0 -40.32,-0 -40.1,-0 -39.88,-0 -39.67,-0 -39.45,-0 -39.23,-0 -39.01,-0 -38.79,-0 -38.57,-0 -38.35,0 -38.14,0 -37.92,0 -37.7,0 -37.48,0 -37.26,0 -37.04,0 -36.82,0 -36.61,0 -36.39,0 -36.17,0 -35.95,0 -35.73,0 -35.51,0 -35.29,0 -35.08,0 -34.86,0 -34.64,0 -34.42,0 -34.2,0 -33.98,0 -33.77,0 -33.55,0 -33.33,0 -33.11,0 -32.89,0 -32.67,0 -32.45,0 -32.24,0 -32.02,0 -31.8,0 -31.58,0 -31.36,0 -31.14,0 -30.92,0 -30.71,0 -30.49,0 -30.27,0 -30.05,0 -29.83,0 -29.61,0 -29.39,0 -29.18,0 -28.96,0 -28.74,0 -28.52,0 -28.3,0 -28.08,0 -27.86,0 -27.65,0 -27.43,0 -27.21,0 -26.99,0 -26.77,0 -26.55,0 -26.33,0 -26.12,0 -25.9,0 -25.68,0 -25.46,0 -25.24,0 -25.02,0 -24.8,0 -24.59,0 -24.37,0 -24.15,0 -23.93,0 -23.71,0 -23.49,0 -23.27,0 -23.06,0 -22.84,0 -22.62,0 -22.4,0 -22.18,0 -21.96,0 -21.75,0 -21.53,0 -21.31,0 -21.09,0 -20.87,0 -20.65,0 -20.43,0 -20.22,0 -20,0 -19.78,0 -19.56,0 -19.34,0 -19.12,0 -18.9,0 -18.69,0 -18.47,0 -18.25,0 -18.03,0 -17.81,0 -17.59,0 -17.37,0 -17.16,0 -16.94,0 -16.72,0 -16.5,0 -16.28,0 -16.06,0 -15.84,0 -15.63,0 -15.41,0 -15.19,0 -14.97,0 -14.75,0 -14.53,0 -14.31,0 -14.1,0 -13.88,0 -13.66,0 -13.44,0 -13.22,0 -13,0 -12.78,0 -12.57,0 -12.35,0 -12.13,0 -11.91,0 -11.69,0 -11.47,0 -11.26,0 -11.04,0 -10.82,0 -10.6,0 -10.38,0 -10.16,0 -9.94,0 -9.73,0 -9.51,0 -9.29,0 -9.07,0 -8.85,0 -8.63,0 -8.41,0 -8.2,0 -7.98,0 -7.76,0 -7.54,0 -7.32,0 -7.1,0 -6.88,0 -6.67,0 -6.45,0 -6.23,0 -6.01,0 -5.79,0 -5.57,0 -5.35,0 -5.14,0 -4.92,0 -4.7,0 -4.48,0 -4.26,0 -4.04,0 -3.82,0 -3.61,0 -3.39,0 -3.17,0 -2.95,0 -2.73,0 -2.51,0 -2.29,0 -2.08,0 -1.86,0 -1.64,0 -1.42,0 -1.2,0 -0.98,0 -0.76,0 -0.55,0 -0.33,0 -0.11,0 0.11,0 0.33,0 0.55,0 0.76,0 0.98,0 1.2,0 1.42,0 1.64,0 1.86,0 2.08,0 2.29,0 2.51,0 2.73,0 2.95,0 3.17,0 3.39,0 3.61,0 3.82,0 4.04,0 4.26,0 4.48,0 4.7,0 4.92,0 5.14,0 5.35,0 5.57,0 5.79,0 6.01,0 6.23,0 6.45,0 6.67,0 6.88,0 7.1,0 7.32,0 7.54,0 7.76,0 7.98,0 8.2,0 8.41,0 8.63,0 8.85,0 9.07,0 9.29,0 9.51,0 9.73,0 9.94,0 10.16,0 10.38,0 10.6,0 10.82,0 11.04,0 11.26,0 11.47,0 11.69,0 11.91,0 12.13,0 12.35,0 12.57,0 12.78,0 13,0 13.22,0 13.44,0 13.66,0 13.88,0 14.1,0 14.31,0 14.53,0 14.75,0 14.97,0 15.19,0 15.41,0 15.63,0 15.84,0 16.06,0 16.28,0 16.5,0 16.72,0 16.94,0 17.16,0 17.37,0 17.59,0 17.81,0 18.03,0 18.25,0 18.47,0 18.69,0 18.9,0 19.12,0 19.34,0 19.56,0 19.78,0 20,0 20.22,0 20.43,0 20.65,0 20.87,0 21.09,0 21.31,0 21.53,0 21.75,0 21.96,0 22.18,0 22.4,0 22.62,0 22.84,0 23.06,0 23.27,0 23.49,0 23.71,0 23.93,0 24.15,0 24.37,0 24.59,0 24.8,0 25.02,0 25.24,0 25.46,0 25.68,0 25.9,0 26.12,0 26.33,0 26.55,0 26.77,0 26.99,0 27.21,0 27.43,0 27.65,0 27.86,0 28.08,0 28.3,0 28.52,0 28.74,0 28.96,0 29.18,0 29.39,0 29.61,0 29.83,0 30.05,0 30.27,0 30.49,0 30.71,0 30.92,0 31.14,0 31.36,0 31.58,0 31.8,0 32.02,0 32.24,0 32.45,0 32.67,0 32.89,0 33.11,0 33.33,0 33.55,0 33.77,0 33.98,0 34.2,0 34.42,0 34.64,0 34.86,0 35.08,0 35.29,0 35.51,0 35.73,0 35.95,0 36.17,0 36.39,0 36.61,0 36.82,0 37.04,0 37.26,0 37.48,0 37.7,0 37.92,0 38.14,0 38.35,0 38.57,0 38.79,0 39.01,0 39.23,0 39.45,0 39.67,0 39.88,0 40.1,0 40.32,0 40.54,0 40.76,0 40.98,0 41.2,0 41.41,0 41.63,0 41.85,0 42.07,0 42.29,0 42.51,0 42.73,0 42.94,0 43.16,0 43.38,0 43.6,0 43.82,0 44.04,0 44.26,0 44.47,0 44.69,0 44.91,0 45.13,0 45.35,0 45.57,0 45.78,0 46,0 46.22,0 46.44,0 46.66,0 46.88,0 47.1,0 47.31,0 47.53,0 47.75,0 47.97,0 48.19,0 48.41,0 48.63,0 48.84,0 49.06,0 49.28,0 49.5,0 49.72,0 49.94,0 50.16,0 50.37,0 50.59,0 50.81,0 51.03,0 51.25,0 51.47,0 51.69,0 51.9,0 52.12,0 52.34,0 52.56,0 52.78,0 53,0 53.22,0 53.43,0 53.65,0 53.87,0 54.09,0 54.31,0 54.53,0 54.75,0 54.96,0 55.18,0 55.4,0 55.62,0 55.84,0 56.06,0 56.28,0 56.49,0 56.71,0 56.93,0 57.15,0 57.37,0 57.59,0 57.8,0 58.02,0 58.24,0 58.46,0 58.68,0 58.9,0 59.12,0 59.33,0 59.55,0 59.77,0 59.99,0 60.21,0 60.43,0 60.65,0 60.86,0 61.08,0 61.3,0 61.52,0 61.74,0 61.96,0 62.18,0 62.39,0 62.61,0 62.83,0 63.05,0 63.27,0 63.49,0 63.71,0 63.92,0 64.14,0 64.36,0 64.58,0 64.8,0 65.02,0 65.24,0 65.45,0 65.67,0 65.89,0 66.11,0 66.33,0 66.55,0 66.77,0 66.98,0 67.2,0 67.42,0 67.64,0 67.86,0 68.08,0 68.29,0 68.51,0 68.73,0 68.95,0 69.17,0 69.39,0 69.61,0 69.82,0 70.04,0 70.26,0 70.48,0 70.7,0 70.92,0 71.14,0 71.35,0 71.57,0 71.79,0 72.01,0 72.23,0 72.45,0 72.67,0 72.88,0 73.1,0 73.32,0 73.54,0 73.76,0 73.98,0 74.2,0 74.41,0 74.63,0 74.85,0 75.07,0 75.29,0 75.51,0 75.73,0 75.94,0 76.16,0 76.38,0 76.6,0 76.82,0 77.04,0 77.26,0 77.47,0 77.69,0 77.91,0 78.13,0 78.35,0 78.57,0 78.79,0 79,0 79.22,0 79.44,0 79.66,0 79.88,0 80.1,0 80.31,0 80.53,0 80.75,0 80.97,0 81.19,0 81.41,0 81.63,0 81.84,0 82.06,0 82.28,0 82.5,0 82.72,0 82.94,0 83.16,0 83.37,0 83.59,0 83.81,0 84.03,0 84.25,0 84.47,0 84.69,0 84.9,0 85.12,0 85.34,0 85.56,0 85.78,0 86,0 86.22,0 86.43,0 86.65,0 86.87,0 87.09,0 87.31,0 " class="primitive"/>
            </g>
          </g>
        </g>
        <g stroke-width="0.3" fill="#000000" fill-opacity="0.000" class="geometry" id="img-5c2d844e-58">
          <g class="color_RGB{Float64}(0.33966099277017664,0.410613827048125,0.4101742974306824)" stroke-dasharray="none" stroke="#576969" id="img-5c2d844e-59">
            <g transform="translate(121.41,38.94)" id="img-5c2d844e-60">
              <path fill="none" d="M-87.31,0 L-87.09,0 -86.87,0 -86.65,0 -86.43,0 -86.22,0 -86,0 -85.78,0 -85.56,0 -85.34,0 -85.12,0 -84.9,0 -84.69,0 -84.47,0 -84.25,0 -84.03,0 -83.81,0 -83.59,0 -83.37,0 -83.16,0 -82.94,0 -82.72,0 -82.5,0 -82.28,0 -82.06,0 -81.84,0 -81.63,0 -81.41,0 -81.19,0 -80.97,0 -80.75,0 -80.53,0 -80.31,0 -80.1,0 -79.88,0 -79.66,0 -79.44,0 -79.22,0 -79,0 -78.79,0 -78.57,0 -78.35,0 -78.13,0 -77.91,0 -77.69,0 -77.47,0 -77.26,0 -77.04,0 -76.82,0 -76.6,0 -76.38,0 -76.16,0 -75.94,0 -75.73,0 -75.51,0 -75.29,0 -75.07,0 -74.85,0 -74.63,0 -74.41,0 -74.2,0 -73.98,0 -73.76,0 -73.54,0 -73.32,0 -73.1,0 -72.88,0 -72.67,0 -72.45,0 -72.23,0 -72.01,0 -71.79,0 -71.57,0 -71.35,0 -71.14,0 -70.92,0 -70.7,0 -70.48,0 -70.26,0 -70.04,0 -69.82,0 -69.61,0 -69.39,0 -69.17,0 -68.95,0 -68.73,0 -68.51,0 -68.29,0 -68.08,0 -67.86,0 -67.64,0 -67.42,0 -67.2,0 -66.98,0 -66.77,0 -66.55,0 -66.33,0 -66.11,0 -65.89,0 -65.67,0 -65.45,0 -65.24,0 -65.02,0 -64.8,0 -64.58,0 -64.36,0 -64.14,0 -63.92,0 -63.71,0 -63.49,0 -63.27,0 -63.05,0 -62.83,0 -62.61,0 -62.39,0 -62.18,0 -61.96,0 -61.74,0 -61.52,0 -61.3,0 -61.08,0 -60.86,0 -60.65,0 -60.43,0 -60.21,0 -59.99,0 -59.77,0 -59.55,0 -59.33,0 -59.12,0 -58.9,0 -58.68,0 -58.46,0 -58.24,0 -58.02,0 -57.8,0 -57.59,0 -57.37,0 -57.15,0 -56.93,0 -56.71,0 -56.49,0 -56.28,0 -56.06,0 -55.84,0 -55.62,0 -55.4,0 -55.18,0 -54.96,0 -54.75,0 -54.53,0 -54.31,0 -54.09,0 -53.87,0 -53.65,0 -53.43,0 -53.22,0 -53,0 -52.78,0 -52.56,0 -52.34,0 -52.12,0 -51.9,0 -51.69,0 -51.47,0 -51.25,0 -51.03,0 -50.81,0 -50.59,0 -50.37,0 -50.16,0 -49.94,0 -49.72,0 -49.5,0 -49.28,0 -49.06,0 -48.84,0 -48.63,0 -48.41,0 -48.19,0 -47.97,0 -47.75,0 -47.53,0 -47.31,0 -47.1,0 -46.88,0 -46.66,0 -46.44,0 -46.22,0 -46,0 -45.78,0 -45.57,0 -45.35,0 -45.13,0 -44.91,0 -44.69,0 -44.47,0 -44.26,0 -44.04,0 -43.82,0 -43.6,0 -43.38,0 -43.16,0 -42.94,0 -42.73,0 -42.51,0 -42.29,0 -42.07,0 -41.85,0 -41.63,0 -41.41,0 -41.2,0 -40.98,0 -40.76,0 -40.54,0 -40.32,0 -40.1,0 -39.88,0 -39.67,0 -39.45,0 -39.23,0 -39.01,0 -38.79,0 -38.57,0 -38.35,0 -38.14,0 -37.92,0 -37.7,0 -37.48,0 -37.26,0 -37.04,0 -36.82,0 -36.61,0 -36.39,0 -36.17,0 -35.95,0 -35.73,0 -35.51,0 -35.29,0 -35.08,0 -34.86,0 -34.64,0 -34.42,0 -34.2,0 -33.98,0 -33.77,0 -33.55,0 -33.33,0 -33.11,0 -32.89,0 -32.67,0 -32.45,0 -32.24,0 -32.02,0 -31.8,0 -31.58,0 -31.36,0 -31.14,0 -30.92,0 -30.71,0 -30.49,0 -30.27,0 -30.05,0 -29.83,0 -29.61,0 -29.39,0 -29.18,0 -28.96,0 -28.74,0 -28.52,0 -28.3,0 -28.08,0 -27.86,0 -27.65,0 -27.43,0 -27.21,0 -26.99,0 -26.77,0 -26.55,0 -26.33,0 -26.12,0 -25.9,0 -25.68,0 -25.46,0 -25.24,0 -25.02,0 -24.8,0 -24.59,0 -24.37,0 -24.15,0 -23.93,0 -23.71,0 -23.49,0 -23.27,0 -23.06,0 -22.84,0 -22.62,0 -22.4,0 -22.18,0 -21.96,0 -21.75,0 -21.53,0 -21.31,0 -21.09,0 -20.87,0 -20.65,0 -20.43,0 -20.22,0 -20,0 -19.78,0 -19.56,0 -19.34,0 -19.12,0 -18.9,0 -18.69,0 -18.47,0 -18.25,0 -18.03,0 -17.81,0 -17.59,0 -17.37,0 -17.16,0 -16.94,0 -16.72,0 -16.5,0 -16.28,0 -16.06,0 -15.84,0 -15.63,0 -15.41,0 -15.19,0 -14.97,0 -14.75,0 -14.53,0 -14.31,0 -14.1,0 -13.88,0 -13.66,0 -13.44,0 -13.22,0 -13,0 -12.78,0 -12.57,0 -12.35,0 -12.13,0 -11.91,0 -11.69,0 -11.47,0 -11.26,0 -11.04,0 -10.82,0 -10.6,0 -10.38,0 -10.16,0 -9.94,0 -9.73,0 -9.51,0 -9.29,0 -9.07,0 -8.85,0 -8.63,0 -8.41,0 -8.2,0 -7.98,0 -7.76,0 -7.54,0 -7.32,0 -7.1,0 -6.88,0 -6.67,0 -6.45,0 -6.23,0 -6.01,0 -5.79,0 -5.57,0 -5.35,0 -5.14,0 -4.92,0 -4.7,0 -4.48,0 -4.26,0 -4.04,0 -3.82,0 -3.61,0 -3.39,0 -3.17,0 -2.95,0 -2.73,0 -2.51,0 -2.29,0 -2.08,0 -1.86,0 -1.64,0 -1.42,0 -1.2,0 -0.98,0 -0.76,0 -0.55,0 -0.33,0 -0.11,0 0.11,0 0.33,0 0.55,0 0.76,0 0.98,0 1.2,0 1.42,0 1.64,0 1.86,0 2.08,0 2.29,0 2.51,0 2.73,0 2.95,0 3.17,0 3.39,0 3.61,0 3.82,0 4.04,0 4.26,0 4.48,0 4.7,0 4.92,0 5.14,0 5.35,0 5.57,0 5.79,0 6.01,0 6.23,0 6.45,0 6.67,0 6.88,0 7.1,0 7.32,0 7.54,0 7.76,0 7.98,0 8.2,0 8.41,0 8.63,0 8.85,0 9.07,0 9.29,0 9.51,0 9.73,0 9.94,0 10.16,0 10.38,0 10.6,0 10.82,0 11.04,0 11.26,0 11.47,0 11.69,0 11.91,0 12.13,0 12.35,0 12.57,0 12.78,0 13,0 13.22,0 13.44,0 13.66,0 13.88,0 14.1,0 14.31,0 14.53,0 14.75,0 14.97,0 15.19,0 15.41,0 15.63,0 15.84,0 16.06,0 16.28,0 16.5,0 16.72,0 16.94,0 17.16,0 17.37,0 17.59,0 17.81,0 18.03,0 18.25,0 18.47,0 18.69,0 18.9,0 19.12,0 19.34,0 19.56,0 19.78,0 20,0 20.22,0 20.43,0 20.65,0 20.87,0 21.09,0 21.31,0 21.53,0 21.75,0 21.96,0 22.18,0 22.4,0 22.62,0 22.84,0 23.06,0 23.27,0 23.49,0 23.71,0 23.93,0 24.15,0 24.37,0 24.59,0 24.8,0 25.02,0 25.24,0 25.46,0 25.68,0 25.9,0 26.12,0 26.33,0 26.55,0 26.77,0 26.99,0 27.21,0 27.43,0 27.65,0 27.86,0 28.08,0 28.3,0 28.52,0 28.74,0 28.96,0 29.18,0 29.39,0 29.61,0 29.83,0 30.05,0 30.27,0 30.49,0 30.71,0 30.92,0 31.14,0 31.36,0 31.58,0 31.8,0 32.02,0 32.24,0 32.45,0 32.67,0 32.89,0 33.11,0 33.33,0 33.55,0 33.77,0 33.98,0 34.2,0 34.42,0 34.64,0 34.86,0 35.08,0 35.29,0 35.51,0 35.73,0 35.95,0 36.17,0 36.39,0 36.61,0 36.82,0 37.04,0 37.26,0 37.48,0 37.7,0 37.92,0 38.14,0 38.35,0 38.57,0 38.79,0 39.01,0 39.23,0 39.45,0 39.67,0 39.88,0 40.1,0 40.32,0 40.54,0 40.76,0 40.98,0 41.2,0 41.41,0 41.63,0 41.85,0 42.07,0 42.29,0 42.51,0 42.73,0 42.94,0 43.16,0 43.38,0 43.6,0 43.82,0 44.04,0 44.26,0 44.47,0 44.69,0 44.91,0 45.13,0 45.35,0 45.57,0 45.78,0 46,0 46.22,0 46.44,0 46.66,-0 46.88,-0 47.1,-0 47.31,-0 47.53,-0 47.75,-0 47.97,-0 48.19,-0 48.41,-0 48.63,-0 48.84,-0 49.06,-0 49.28,-0 49.5,-0 49.72,-0 49.94,-0 50.16,-0 50.37,-0 50.59,-0 50.81,0 51.03,0 51.25,0 51.47,0 51.69,0.01 51.9,0.01 52.12,0.01 52.34,0.01 52.56,0.01 52.78,0.01 53,0.01 53.22,0.01 53.43,0 53.65,0 53.87,0 54.09,-0 54.31,-0.01 54.53,-0.01 54.75,-0.02 54.96,-0.03 55.18,-0.05 55.4,-0.07 55.62,-0.1 55.84,-0.14 56.06,-0.19 56.28,-0.26 56.49,-0.35 56.71,-0.46 56.93,-0.6 57.15,-0.76 57.37,-0.95 57.59,-1.17 57.8,-1.41 58.02,-1.66 58.24,-1.92 58.46,-2.18 58.68,-2.41 58.9,-2.6 59.12,-2.74 59.33,-2.79 59.55,-2.73 59.77,-2.54 59.99,-2.2 60.21,-1.68 60.43,-0.99 60.65,-0.12 60.86,0.93 61.08,2.15 61.3,3.5 61.52,4.94 61.74,6.44 61.96,7.93 62.18,9.35 62.39,10.62 62.61,11.68 62.83,12.45 63.05,12.88 63.27,12.9 63.49,12.47 63.71,11.58 63.92,10.21 64.14,8.39 64.36,6.14 64.58,3.54 64.8,0.66 65.02,-2.4 65.24,-5.53 65.45,-8.62 65.67,-11.55 65.89,-14.21 66.11,-16.48 66.33,-18.28 66.55,-19.52 66.77,-20.16 66.98,-20.17 67.2,-19.56 67.42,-18.34 67.64,-16.57 67.86,-14.32 68.08,-11.68 68.29,-8.77 68.51,-5.7 68.73,-2.57 68.95,0.49 69.17,3.39 69.39,6.01 69.61,8.3 69.82,10.18 70.04,11.62 70.26,12.59 70.48,13.1 70.7,13.17 70.92,12.84 71.14,12.15 71.35,11.17 71.57,9.96 71.79,8.59 72.01,7.12 72.23,5.63 72.45,4.16 72.67,2.76 72.88,1.49 73.1,0.35 73.32,-0.62 73.54,-1.41 73.76,-2.02 73.98,-2.47 74.2,-2.75 74.41,-2.9 74.63,-2.93 74.85,-2.86 75.07,-2.71 75.29,-2.5 75.51,-2.27 75.73,-2.01 75.94,-1.74 76.16,-1.49 76.38,-1.25 76.6,-1.02 76.82,-0.83 77.04,-0.66 77.26,-0.51 77.47,-0.39 77.69,-0.29 77.91,-0.22 78.13,-0.16 78.35,-0.11 78.57,-0.08 78.79,-0.05 79,-0.03 79.22,-0.02 79.44,-0.01 79.66,-0.01 79.88,-0 80.1,-0 80.31,-0 80.53,-0 80.75,-0 80.97,-0 81.19,0 81.41,0 81.63,0 81.84,0 82.06,0 82.28,0 82.5,0 82.72,0 82.94,0 83.16,0 83.37,0 83.59,0 83.81,0 84.03,0 84.25,0 84.47,0 84.69,0 84.9,0 85.12,0 85.34,0 85.56,0 85.78,0 86,0 86.22,0 86.43,0 86.65,0 86.87,0 87.09,0 87.31,0 " class="primitive"/>
            </g>
          </g>
        </g>
        <g stroke-width="0.3" fill="#000000" fill-opacity="0.000" class="geometry" id="img-5c2d844e-61">
          <g class="color_RGB{Float64}(0.9999999299185004,0.8169524107513291,0.0)" stroke-dasharray="none" stroke="#FFD000" id="img-5c2d844e-62">
            <g transform="translate(121.41,38.94)" id="img-5c2d844e-63">
              <path fill="none" d="M-87.31,0 L-87.09,0 -86.87,0 -86.65,0 -86.43,0 -86.22,0 -86,0 -85.78,0 -85.56,0 -85.34,0 -85.12,0 -84.9,0 -84.69,0 -84.47,0 -84.25,0 -84.03,0 -83.81,0 -83.59,0 -83.37,0 -83.16,0 -82.94,0 -82.72,0 -82.5,0 -82.28,0 -82.06,0 -81.84,0 -81.63,0 -81.41,0 -81.19,0 -80.97,0 -80.75,0 -80.53,0 -80.31,0 -80.1,0 -79.88,0 -79.66,0 -79.44,0 -79.22,0 -79,0 -78.79,0 -78.57,0 -78.35,0 -78.13,0 -77.91,0 -77.69,0 -77.47,0 -77.26,0 -77.04,0 -76.82,0 -76.6,0 -76.38,0 -76.16,0 -75.94,0 -75.73,0 -75.51,0 -75.29,0 -75.07,0 -74.85,0 -74.63,0 -74.41,0 -74.2,0 -73.98,0 -73.76,0 -73.54,0 -73.32,0 -73.1,0 -72.88,0 -72.67,0 -72.45,0 -72.23,0 -72.01,0 -71.79,0 -71.57,0 -71.35,0 -71.14,0 -70.92,0 -70.7,0 -70.48,0 -70.26,0 -70.04,0 -69.82,0 -69.61,0 -69.39,0 -69.17,0 -68.95,0 -68.73,0 -68.51,0 -68.29,0 -68.08,0 -67.86,0 -67.64,0 -67.42,0 -67.2,0 -66.98,0 -66.77,0 -66.55,0 -66.33,0 -66.11,0 -65.89,0 -65.67,0 -65.45,0 -65.24,0 -65.02,0 -64.8,0 -64.58,0 -64.36,0 -64.14,0 -63.92,0 -63.71,0 -63.49,0 -63.27,0 -63.05,0 -62.83,0 -62.61,0 -62.39,0 -62.18,0 -61.96,0 -61.74,0 -61.52,0 -61.3,0 -61.08,0 -60.86,0 -60.65,0 -60.43,0 -60.21,0 -59.99,0 -59.77,0 -59.55,0 -59.33,0 -59.12,0 -58.9,0 -58.68,0 -58.46,0 -58.24,0 -58.02,0 -57.8,0 -57.59,0 -57.37,0 -57.15,0 -56.93,0 -56.71,0 -56.49,0 -56.28,0 -56.06,0 -55.84,0 -55.62,0 -55.4,0 -55.18,0 -54.96,0 -54.75,0 -54.53,0 -54.31,0 -54.09,0 -53.87,0 -53.65,0 -53.43,0 -53.22,0 -53,0 -52.78,0 -52.56,0 -52.34,0 -52.12,0 -51.9,0 -51.69,0 -51.47,0 -51.25,0 -51.03,0 -50.81,0 -50.59,0 -50.37,0 -50.16,0 -49.94,0 -49.72,0 -49.5,0 -49.28,0 -49.06,0 -48.84,0 -48.63,0 -48.41,0 -48.19,0 -47.97,0 -47.75,0 -47.53,0 -47.31,0 -47.1,0 -46.88,0 -46.66,0 -46.44,0 -46.22,0 -46,0 -45.78,0 -45.57,0 -45.35,0 -45.13,0 -44.91,0 -44.69,0 -44.47,0 -44.26,0 -44.04,0 -43.82,0 -43.6,0 -43.38,0 -43.16,0 -42.94,0 -42.73,0 -42.51,0 -42.29,0 -42.07,0 -41.85,0 -41.63,0 -41.41,0 -41.2,0 -40.98,0 -40.76,0 -40.54,0 -40.32,0 -40.1,0 -39.88,0 -39.67,0 -39.45,0 -39.23,0 -39.01,0 -38.79,0 -38.57,0 -38.35,0 -38.14,0 -37.92,0 -37.7,0 -37.48,0 -37.26,0 -37.04,0 -36.82,0 -36.61,0 -36.39,0 -36.17,0 -35.95,0 -35.73,0 -35.51,0 -35.29,0 -35.08,0 -34.86,0 -34.64,0 -34.42,0 -34.2,0 -33.98,0 -33.77,0 -33.55,0 -33.33,0 -33.11,0 -32.89,0 -32.67,0 -32.45,0 -32.24,0 -32.02,0 -31.8,0 -31.58,0 -31.36,0 -31.14,0 -30.92,0 -30.71,0 -30.49,0 -30.27,0 -30.05,0 -29.83,0 -29.61,0 -29.39,0 -29.18,0 -28.96,0 -28.74,0 -28.52,0 -28.3,0 -28.08,0 -27.86,0 -27.65,0 -27.43,0 -27.21,0 -26.99,0 -26.77,0 -26.55,0 -26.33,0 -26.12,0 -25.9,0 -25.68,0 -25.46,0 -25.24,0 -25.02,0 -24.8,0 -24.59,0 -24.37,0 -24.15,0 -23.93,0 -23.71,0 -23.49,0 -23.27,0 -23.06,0 -22.84,0 -22.62,0 -22.4,0 -22.18,0 -21.96,0 -21.75,0 -21.53,0 -21.31,0 -21.09,0 -20.87,0 -20.65,0 -20.43,0 -20.22,0 -20,0 -19.78,0 -19.56,0 -19.34,0 -19.12,0 -18.9,0 -18.69,0 -18.47,0 -18.25,0 -18.03,0 -17.81,0 -17.59,0 -17.37,0 -17.16,0 -16.94,0 -16.72,0 -16.5,0 -16.28,0 -16.06,0 -15.84,0 -15.63,0 -15.41,0 -15.19,0 -14.97,0 -14.75,0 -14.53,0 -14.31,0 -14.1,0 -13.88,0 -13.66,0 -13.44,0 -13.22,0 -13,0 -12.78,0 -12.57,0 -12.35,0 -12.13,0 -11.91,0 -11.69,0 -11.47,0 -11.26,0 -11.04,0 -10.82,0 -10.6,0 -10.38,0 -10.16,0 -9.94,0 -9.73,0 -9.51,0 -9.29,0 -9.07,0 -8.85,0 -8.63,0 -8.41,0 -8.2,0 -7.98,0 -7.76,0 -7.54,0 -7.32,0 -7.1,0 -6.88,0 -6.67,0 -6.45,0 -6.23,0 -6.01,0 -5.79,0 -5.57,0 -5.35,0 -5.14,0 -4.92,0 -4.7,0 -4.48,0 -4.26,0 -4.04,0 -3.82,0 -3.61,0 -3.39,0 -3.17,0 -2.95,0 -2.73,0 -2.51,0 -2.29,0 -2.08,0 -1.86,0 -1.64,0 -1.42,0 -1.2,0 -0.98,0 -0.76,0 -0.55,0 -0.33,0 -0.11,0 0.11,0 0.33,0 0.55,0 0.76,0 0.98,0 1.2,0 1.42,0 1.64,0 1.86,0 2.08,0 2.29,0 2.51,0 2.73,0 2.95,0 3.17,0 3.39,0 3.61,0 3.82,0 4.04,0 4.26,0 4.48,0 4.7,0 4.92,0 5.14,0 5.35,0 5.57,0 5.79,0 6.01,0 6.23,0 6.45,0 6.67,0 6.88,0 7.1,0 7.32,0 7.54,0 7.76,0 7.98,0 8.2,0 8.41,0 8.63,0 8.85,0 9.07,0 9.29,0 9.51,0 9.73,0 9.94,0 10.16,0 10.38,0 10.6,0 10.82,0 11.04,0 11.26,0 11.47,0 11.69,0 11.91,0 12.13,0 12.35,0 12.57,0 12.78,0 13,0 13.22,0 13.44,0 13.66,0 13.88,0 14.1,0 14.31,0 14.53,0 14.75,0 14.97,0 15.19,0 15.41,0 15.63,0 15.84,0 16.06,0 16.28,0 16.5,0 16.72,0 16.94,0 17.16,0 17.37,0 17.59,0 17.81,0 18.03,0 18.25,0 18.47,0 18.69,0 18.9,0 19.12,0 19.34,0 19.56,0 19.78,0 20,0 20.22,0 20.43,0 20.65,0 20.87,0 21.09,0 21.31,0 21.53,0 21.75,0 21.96,0 22.18,0 22.4,0 22.62,0 22.84,0 23.06,0 23.27,0 23.49,0 23.71,0 23.93,0 24.15,0 24.37,0 24.59,0 24.8,0 25.02,0 25.24,0 25.46,0 25.68,0 25.9,0 26.12,0 26.33,0 26.55,0 26.77,0 26.99,0 27.21,0 27.43,0 27.65,0 27.86,0 28.08,0 28.3,0 28.52,0 28.74,0 28.96,0 29.18,0 29.39,0 29.61,0 29.83,0 30.05,0 30.27,0 30.49,0 30.71,0 30.92,0 31.14,0 31.36,0 31.58,0 31.8,0 32.02,0 32.24,0 32.45,0 32.67,0 32.89,0 33.11,0 33.33,0 33.55,0 33.77,0 33.98,0 34.2,0 34.42,0 34.64,0 34.86,0 35.08,0 35.29,0 35.51,0 35.73,0 35.95,0 36.17,0 36.39,0 36.61,0 36.82,0 37.04,0 37.26,0 37.48,0 37.7,-0 37.92,-0 38.14,-0 38.35,-0 38.57,-0 38.79,-0 39.01,-0 39.23,-0 39.45,-0 39.67,-0 39.88,-0 40.1,-0 40.32,-0 40.54,-0 40.76,-0 40.98,-0 41.2,-0 41.41,-0.01 41.63,-0.01 41.85,-0.01 42.07,-0.02 42.29,-0.03 42.51,-0.04 42.73,-0.05 42.94,-0.07 43.16,-0.09 43.38,-0.12 43.6,-0.15 43.82,-0.18 44.04,-0.22 44.26,-0.25 44.47,-0.29 44.69,-0.33 44.91,-0.36 45.13,-0.38 45.35,-0.39 45.57,-0.38 45.78,-0.35 46,-0.3 46.22,-0.23 46.44,-0.13 46.66,0 46.88,0.16 47.1,0.34 47.31,0.54 47.53,0.75 47.75,0.96 47.97,1.17 48.19,1.36 48.41,1.52 48.63,1.65 48.84,1.73 49.06,1.75 49.28,1.7 49.5,1.59 49.72,1.4 49.94,1.15 50.16,0.84 50.37,0.47 50.59,0.07 50.81,-0.36 51.03,-0.8 51.25,-1.23 51.47,-1.63 51.69,-1.99 51.9,-2.28 52.12,-2.5 52.34,-2.64 52.56,-2.69 52.78,-2.64 53,-2.51 53.22,-2.29 53.43,-2 53.65,-1.64 53.87,-1.25 54.09,-0.82 54.31,-0.39 54.53,0.03 54.75,0.43 54.96,0.8 55.18,1.11 55.4,1.36 55.62,1.55 55.84,1.67 56.06,1.73 56.28,1.72 56.49,1.66 56.71,1.55 56.93,1.4 57.15,1.22 57.37,1.02 57.59,0.82 57.8,0.61 58.02,0.42 58.24,0.24 58.46,0.08 58.68,-0.06 58.9,-0.17 59.12,-0.26 59.33,-0.32 59.55,-0.36 59.77,-0.38 59.99,-0.38 60.21,-0.37 60.43,-0.35 60.65,-0.32 60.86,-0.28 61.08,-0.25 61.3,-0.21 61.52,-0.18 61.74,-0.15 61.96,-0.12 62.18,-0.09 62.39,-0.07 62.61,-0.06 62.83,-0.04 63.05,-0.03 63.27,-0.02 63.49,-0.02 63.71,-0.01 63.92,-0.01 64.14,-0 64.36,-0 64.58,-0 64.8,-0 65.02,-0 65.24,-0 65.45,0 65.67,0 65.89,0 66.11,0 66.33,0 66.55,0 66.77,0 66.98,0 67.2,0 67.42,0 67.64,0 67.86,0 68.08,0 68.29,0 68.51,0 68.73,0 68.95,-0 69.17,-0 69.39,-0 69.61,-0 69.82,-0 70.04,-0 70.26,-0 70.48,-0 70.7,-0 70.92,-0 71.14,-0 71.35,-0 71.57,-0 71.79,-0 72.01,-0 72.23,-0 72.45,-0 72.67,-0 72.88,-0 73.1,-0 73.32,0 73.54,0 73.76,0 73.98,0 74.2,0 74.41,0 74.63,0 74.85,0 75.07,0 75.29,0 75.51,0 75.73,0 75.94,0 76.16,0 76.38,0 76.6,0 76.82,0 77.04,0 77.26,0 77.47,0 77.69,0 77.91,0 78.13,0 78.35,0 78.57,0 78.79,0 79,0 79.22,0 79.44,0 79.66,0 79.88,0 80.1,0 80.31,0 80.53,0 80.75,0 80.97,0 81.19,-0 81.41,-0 81.63,-0 81.84,-0 82.06,-0 82.28,0 82.5,0 82.72,0 82.94,0 83.16,0 83.37,0 83.59,0 83.81,0 84.03,0 84.25,0 84.47,0 84.69,0 84.9,0 85.12,0 85.34,0 85.56,0 85.78,0 86,0 86.22,0 86.43,0 86.65,0 86.87,0 87.09,0 87.31,0 " class="primitive"/>
            </g>
          </g>
        </g>
        <g stroke-width="0.3" fill="#000000" fill-opacity="0.000" class="geometry" id="img-5c2d844e-64">
          <g class="color_RGB{Float64}(1.641689488274256e-7,0.0,0.5407779017411706)" stroke-dasharray="none" stroke="#00008A" id="img-5c2d844e-65">
            <g transform="translate(121.41,38.94)" id="img-5c2d844e-66">
              <path fill="none" d="M-87.31,0 L-87.09,0 -86.87,0 -86.65,0 -86.43,0 -86.22,0 -86,0 -85.78,0 -85.56,0 -85.34,0 -85.12,0 -84.9,0 -84.69,0 -84.47,0 -84.25,0 -84.03,0 -83.81,0 -83.59,0 -83.37,0 -83.16,0 -82.94,0 -82.72,-0 -82.5,-0 -82.28,-0 -82.06,-0 -81.84,-0 -81.63,-0 -81.41,-0 -81.19,-0 -80.97,-0.01 -80.75,-0.01 -80.53,-0.02 -80.31,-0.04 -80.1,-0.06 -79.88,-0.09 -79.66,-0.12 -79.44,-0.14 -79.22,-0.13 -79,-0.1 -78.79,-0.04 -78.57,0.04 -78.35,0.11 -78.13,0.15 -77.91,0.14 -77.69,0.05 -77.47,-0.1 -77.26,-0.28 -77.04,-0.45 -76.82,-0.55 -76.6,-0.54 -76.38,-0.43 -76.16,-0.24 -75.94,-0.01 -75.73,0.19 -75.51,0.36 -75.29,0.51 -75.07,0.73 -74.85,1.12 -74.63,1.74 -74.41,2.59 -74.2,3.53 -73.98,4.34 -73.76,4.73 -73.54,4.38 -73.32,3.1 -73.1,0.9 -72.88,-2 -72.67,-5.17 -72.45,-8.07 -72.23,-10.11 -72.01,-10.86 -71.79,-10.13 -71.57,-7.99 -71.35,-4.81 -71.14,-1.12 -70.92,2.49 -70.7,5.46 -70.48,7.41 -70.26,8.18 -70.04,7.83 -69.82,6.6 -69.61,4.85 -69.39,2.91 -69.17,1.13 -68.95,-0.3 -68.73,-1.27 -68.51,-1.79 -68.29,-1.92 -68.08,-1.78 -67.86,-1.48 -67.64,-1.14 -67.42,-0.82 -67.2,-0.55 -66.98,-0.35 -66.77,-0.21 -66.55,-0.13 -66.33,-0.08 -66.11,-0.05 -65.89,-0.03 -65.67,-0.02 -65.45,-0.01 -65.24,-0.01 -65.02,-0.01 -64.8,-0 -64.58,-0 -64.36,-0 -64.14,-0 -63.92,-0 -63.71,-0 -63.49,-0 -63.27,0 -63.05,0 -62.83,0 -62.61,0 -62.39,0 -62.18,0 -61.96,0 -61.74,0 -61.52,0 -61.3,0 -61.08,0 -60.86,-0 -60.65,-0 -60.43,-0 -60.21,-0 -59.99,-0 -59.77,-0 -59.55,-0 -59.33,-0 -59.12,-0 -58.9,-0 -58.68,0 -58.46,0 -58.24,0 -58.02,0 -57.8,0 -57.59,0 -57.37,0 -57.15,0 -56.93,0 -56.71,0 -56.49,-0 -56.28,-0 -56.06,-0 -55.84,-0 -55.62,-0 -55.4,-0 -55.18,-0 -54.96,0 -54.75,0 -54.53,0 -54.31,0 -54.09,0 -53.87,0 -53.65,-0 -53.43,-0 -53.22,-0 -53,-0 -52.78,-0 -52.56,-0 -52.34,-0 -52.12,-0 -51.9,-0 -51.69,-0 -51.47,-0 -51.25,0 -51.03,0 -50.81,0 -50.59,0 -50.37,0 -50.16,0 -49.94,0 -49.72,0 -49.5,-0 -49.28,-0 -49.06,-0 -48.84,-0 -48.63,-0 -48.41,-0 -48.19,-0 -47.97,0 -47.75,0 -47.53,0 -47.31,0 -47.1,0 -46.88,0 -46.66,0 -46.44,0 -46.22,0 -46,0 -45.78,0 -45.57,0 -45.35,-0 -45.13,-0 -44.91,-0 -44.69,-0 -44.47,-0 -44.26,-0 -44.04,-0 -43.82,-0 -43.6,-0 -43.38,-0 -43.16,-0 -42.94,-0 -42.73,-0 -42.51,0 -42.29,0 -42.07,0 -41.85,0 -41.63,0 -41.41,0 -41.2,0 -40.98,0 -40.76,0 -40.54,0 -40.32,0 -40.1,0 -39.88,0 -39.67,0 -39.45,0 -39.23,0 -39.01,0 -38.79,0 -38.57,0 -38.35,0 -38.14,0 -37.92,0 -37.7,0 -37.48,0 -37.26,0 -37.04,0 -36.82,0 -36.61,0 -36.39,0 -36.17,0 -35.95,0 -35.73,0 -35.51,0 -35.29,0 -35.08,0 -34.86,0 -34.64,0 -34.42,0 -34.2,0 -33.98,0 -33.77,0 -33.55,0 -33.33,0 -33.11,0 -32.89,0 -32.67,0 -32.45,0 -32.24,0 -32.02,0 -31.8,0 -31.58,0 -31.36,0 -31.14,0 -30.92,0 -30.71,0 -30.49,0 -30.27,0 -30.05,0 -29.83,0 -29.61,0 -29.39,0 -29.18,0 -28.96,0 -28.74,0 -28.52,0 -28.3,0 -28.08,0 -27.86,0 -27.65,0 -27.43,0 -27.21,0 -26.99,0 -26.77,0 -26.55,0 -26.33,0 -26.12,0 -25.9,0 -25.68,0 -25.46,0 -25.24,0 -25.02,0 -24.8,0 -24.59,0 -24.37,0 -24.15,0 -23.93,0 -23.71,0 -23.49,0 -23.27,0 -23.06,0 -22.84,0 -22.62,0 -22.4,0 -22.18,0 -21.96,0 -21.75,0 -21.53,0 -21.31,0 -21.09,0 -20.87,0 -20.65,0 -20.43,0 -20.22,0 -20,0 -19.78,0 -19.56,0 -19.34,0 -19.12,0 -18.9,0 -18.69,0 -18.47,0 -18.25,0 -18.03,0 -17.81,0 -17.59,0 -17.37,0 -17.16,0 -16.94,0 -16.72,0 -16.5,0 -16.28,0 -16.06,0 -15.84,0 -15.63,0 -15.41,0 -15.19,0 -14.97,0 -14.75,0 -14.53,0 -14.31,0 -14.1,0 -13.88,0 -13.66,0 -13.44,0 -13.22,0 -13,0 -12.78,0 -12.57,0 -12.35,0 -12.13,0 -11.91,0 -11.69,0 -11.47,0 -11.26,0 -11.04,0 -10.82,0 -10.6,0 -10.38,0 -10.16,0 -9.94,0 -9.73,0 -9.51,0 -9.29,0 -9.07,0 -8.85,0 -8.63,0 -8.41,0 -8.2,0 -7.98,0 -7.76,0 -7.54,0 -7.32,0 -7.1,0 -6.88,0 -6.67,0 -6.45,0 -6.23,0 -6.01,0 -5.79,0 -5.57,0 -5.35,0 -5.14,0 -4.92,0 -4.7,0 -4.48,0 -4.26,0 -4.04,0 -3.82,0 -3.61,0 -3.39,0 -3.17,0 -2.95,0 -2.73,0 -2.51,0 -2.29,0 -2.08,0 -1.86,0 -1.64,0 -1.42,0 -1.2,0 -0.98,0 -0.76,0 -0.55,0 -0.33,0 -0.11,0 0.11,0 0.33,0 0.55,0 0.76,0 0.98,0 1.2,0 1.42,0 1.64,0 1.86,0 2.08,0 2.29,0 2.51,0 2.73,0 2.95,0 3.17,0 3.39,0 3.61,0 3.82,0 4.04,0 4.26,0 4.48,0 4.7,0 4.92,0 5.14,0 5.35,0 5.57,0 5.79,0 6.01,0 6.23,0 6.45,0 6.67,0 6.88,0 7.1,0 7.32,0 7.54,0 7.76,0 7.98,0 8.2,0 8.41,0 8.63,0 8.85,0 9.07,0 9.29,0 9.51,0 9.73,0 9.94,0 10.16,0 10.38,0 10.6,0 10.82,0 11.04,0 11.26,0 11.47,0 11.69,0 11.91,0 12.13,0 12.35,0 12.57,0 12.78,0 13,0 13.22,0 13.44,0 13.66,0 13.88,0 14.1,0 14.31,0 14.53,0 14.75,0 14.97,0 15.19,0 15.41,0 15.63,0 15.84,0 16.06,0 16.28,0 16.5,0 16.72,0 16.94,0 17.16,0 17.37,0 17.59,0 17.81,0 18.03,0 18.25,0 18.47,0 18.69,0 18.9,0 19.12,0 19.34,0 19.56,0 19.78,0 20,0 20.22,0 20.43,0 20.65,0 20.87,0 21.09,0 21.31,0 21.53,0 21.75,0 21.96,0 22.18,0 22.4,0 22.62,0 22.84,0 23.06,0 23.27,0 23.49,0 23.71,0 23.93,0 24.15,0 24.37,0 24.59,0 24.8,0 25.02,0 25.24,0 25.46,0 25.68,0 25.9,0 26.12,0 26.33,0 26.55,0 26.77,0 26.99,0 27.21,0 27.43,0 27.65,0 27.86,0 28.08,0 28.3,0 28.52,0 28.74,0 28.96,0 29.18,0 29.39,0 29.61,0 29.83,0 30.05,0 30.27,0 30.49,0 30.71,0 30.92,0 31.14,0 31.36,0 31.58,0 31.8,0 32.02,0 32.24,0 32.45,0 32.67,0 32.89,0 33.11,0 33.33,0 33.55,0 33.77,0 33.98,0 34.2,0 34.42,0 34.64,0 34.86,0 35.08,0 35.29,0 35.51,0 35.73,0 35.95,0 36.17,0 36.39,0 36.61,0 36.82,0 37.04,0 37.26,0 37.48,0 37.7,0 37.92,0 38.14,0 38.35,0 38.57,0 38.79,0 39.01,0 39.23,0 39.45,0 39.67,0 39.88,0 40.1,0 40.32,0 40.54,0 40.76,0 40.98,0 41.2,0 41.41,0 41.63,0 41.85,0 42.07,0 42.29,0 42.51,0 42.73,0 42.94,0 43.16,0 43.38,0 43.6,0 43.82,0 44.04,0 44.26,0 44.47,0 44.69,0 44.91,0 45.13,0 45.35,0 45.57,0 45.78,0 46,0 46.22,0 46.44,0 46.66,0 46.88,0 47.1,0 47.31,0 47.53,0 47.75,0 47.97,0 48.19,0 48.41,0 48.63,0 48.84,0 49.06,0 49.28,0 49.5,0 49.72,0 49.94,0 50.16,0 50.37,0 50.59,0 50.81,0 51.03,0 51.25,0 51.47,0 51.69,0 51.9,0 52.12,0 52.34,0 52.56,0 52.78,0 53,0 53.22,0 53.43,0 53.65,0 53.87,0 54.09,0 54.31,0 54.53,0 54.75,0 54.96,0 55.18,0 55.4,0 55.62,0 55.84,0 56.06,0 56.28,0 56.49,0 56.71,0 56.93,0 57.15,0 57.37,0 57.59,0 57.8,0 58.02,0 58.24,0 58.46,0 58.68,0 58.9,0 59.12,0 59.33,0 59.55,0 59.77,0 59.99,0 60.21,0 60.43,0 60.65,0 60.86,0 61.08,0 61.3,0 61.52,0 61.74,0 61.96,0 62.18,0 62.39,0 62.61,0 62.83,0 63.05,0 63.27,0 63.49,0 63.71,0 63.92,0 64.14,0 64.36,0 64.58,0 64.8,0 65.02,0 65.24,0 65.45,0 65.67,0 65.89,0 66.11,0 66.33,0 66.55,0 66.77,0 66.98,0 67.2,0 67.42,0 67.64,0 67.86,0 68.08,0 68.29,0 68.51,0 68.73,0 68.95,0 69.17,0 69.39,0 69.61,0 69.82,0 70.04,0 70.26,0 70.48,0 70.7,0 70.92,0 71.14,0 71.35,0 71.57,0 71.79,0 72.01,0 72.23,0 72.45,0 72.67,0 72.88,0 73.1,0 73.32,0 73.54,0 73.76,0 73.98,0 74.2,0 74.41,0 74.63,0 74.85,0 75.07,0 75.29,0 75.51,0 75.73,0 75.94,0 76.16,0 76.38,0 76.6,0 76.82,0 77.04,0 77.26,0 77.47,0 77.69,0 77.91,0 78.13,0 78.35,0 78.57,0 78.79,0 79,0 79.22,0 79.44,0 79.66,0 79.88,0 80.1,0 80.31,0 80.53,0 80.75,0 80.97,0 81.19,0 81.41,0 81.63,0 81.84,0 82.06,0 82.28,0 82.5,0 82.72,0 82.94,0 83.16,0 83.37,0 83.59,0 83.81,0 84.03,0 84.25,0 84.47,0 84.69,0 84.9,0 85.12,0 85.34,0 85.56,0 85.78,0 86,0 86.22,0 86.43,0 86.65,0 86.87,0 87.09,0 87.31,0 " class="primitive"/>
            </g>
          </g>
        </g>
        <g stroke-width="0.3" fill="#000000" fill-opacity="0.000" class="geometry" id="img-5c2d844e-67">
          <g class="color_RGB{Float64}(7.336715728811782e-7,0.44403268331118134,1.0)" stroke-dasharray="none" stroke="#0071FF" id="img-5c2d844e-68">
            <g transform="translate(121.41,38.94)" id="img-5c2d844e-69">
              <path fill="none" d="M-87.31,0 L-87.09,0 -86.87,0 -86.65,0 -86.43,0 -86.22,0 -86,0 -85.78,0 -85.56,0 -85.34,0 -85.12,0 -84.9,0 -84.69,0 -84.47,0 -84.25,0 -84.03,0 -83.81,0 -83.59,0 -83.37,0 -83.16,0 -82.94,0 -82.72,0 -82.5,0 -82.28,0 -82.06,0 -81.84,0 -81.63,0 -81.41,0 -81.19,0 -80.97,0 -80.75,-0 -80.53,-0 -80.31,-0 -80.1,-0 -79.88,-0 -79.66,-0 -79.44,-0 -79.22,-0 -79,-0 -78.79,-0 -78.57,0 -78.35,0 -78.13,0 -77.91,0 -77.69,0 -77.47,-0 -77.26,-0 -77.04,-0 -76.82,-0 -76.6,-0 -76.38,-0 -76.16,-0 -75.94,-0 -75.73,0 -75.51,0 -75.29,0 -75.07,0 -74.85,0 -74.63,0 -74.41,0 -74.2,0 -73.98,0 -73.76,0 -73.54,0 -73.32,0 -73.1,0 -72.88,-0 -72.67,-0 -72.45,-0 -72.23,-0 -72.01,-0 -71.79,-0 -71.57,-0 -71.35,-0 -71.14,-0 -70.92,0 -70.7,0 -70.48,0 -70.26,0 -70.04,0 -69.82,0 -69.61,0 -69.39,0 -69.17,0 -68.95,-0 -68.73,-0 -68.51,-0 -68.29,-0 -68.08,-0 -67.86,-0 -67.64,-0 -67.42,-0 -67.2,-0 -66.98,-0 -66.77,-0 -66.55,-0 -66.33,-0 -66.11,-0 -65.89,-0.01 -65.67,-0.02 -65.45,-0.03 -65.24,-0.05 -65.02,-0.08 -64.8,-0.12 -64.58,-0.16 -64.36,-0.2 -64.14,-0.23 -63.92,-0.24 -63.71,-0.22 -63.49,-0.14 -63.27,-0.01 -63.05,0.17 -62.83,0.38 -62.61,0.62 -62.39,0.84 -62.18,1 -61.96,1.08 -61.74,1.03 -61.52,0.85 -61.3,0.55 -61.08,0.14 -60.86,-0.33 -60.65,-0.8 -60.43,-1.2 -60.21,-1.5 -59.99,-1.63 -59.77,-1.6 -59.55,-1.39 -59.33,-1.05 -59.12,-0.61 -58.9,-0.15 -58.68,0.29 -58.46,0.65 -58.24,0.89 -58.02,1.01 -57.8,1 -57.59,0.89 -57.37,0.7 -57.15,0.48 -56.93,0.26 -56.71,0.06 -56.49,-0.09 -56.28,-0.18 -56.06,-0.21 -55.84,-0.2 -55.62,-0.15 -55.4,-0.08 -55.18,-0.02 -54.96,0.04 -54.75,0.08 -54.53,0.1 -54.31,0.09 -54.09,0.07 -53.87,0.03 -53.65,-0.01 -53.43,-0.05 -53.22,-0.08 -53,-0.11 -52.78,-0.12 -52.56,-0.11 -52.34,-0.1 -52.12,-0.08 -51.9,-0.06 -51.69,-0.03 -51.47,-0.01 -51.25,0.01 -51.03,0.02 -50.81,0.03 -50.59,0.03 -50.37,0.02 -50.16,0.02 -49.94,0.01 -49.72,0 -49.5,-0 -49.28,-0.01 -49.06,-0.01 -48.84,-0.01 -48.63,-0.01 -48.41,-0.01 -48.19,-0 -47.97,0 -47.75,0.01 -47.53,0.01 -47.31,0.01 -47.1,0.01 -46.88,0.01 -46.66,0.01 -46.44,0.01 -46.22,0.01 -46,0 -45.78,0 -45.57,0 -45.35,-0 -45.13,-0 -44.91,-0 -44.69,-0 -44.47,-0 -44.26,-0 -44.04,-0 -43.82,-0 -43.6,-0 -43.38,-0 -43.16,-0 -42.94,-0 -42.73,-0 -42.51,-0 -42.29,-0 -42.07,-0 -41.85,-0 -41.63,-0 -41.41,-0 -41.2,-0 -40.98,-0 -40.76,-0 -40.54,-0 -40.32,-0 -40.1,-0 -39.88,-0 -39.67,-0 -39.45,-0 -39.23,-0 -39.01,-0 -38.79,-0 -38.57,-0 -38.35,0 -38.14,0 -37.92,0 -37.7,0 -37.48,0 -37.26,0 -37.04,0 -36.82,0 -36.61,0 -36.39,0 -36.17,0 -35.95,0 -35.73,0 -35.51,0 -35.29,0 -35.08,0 -34.86,0 -34.64,0 -34.42,0 -34.2,0 -33.98,0 -33.77,0 -33.55,0 -33.33,0 -33.11,0 -32.89,0 -32.67,0 -32.45,0 -32.24,0 -32.02,0 -31.8,0 -31.58,0 -31.36,0 -31.14,0 -30.92,0 -30.71,0 -30.49,0 -30.27,0 -30.05,0 -29.83,0 -29.61,0 -29.39,0 -29.18,0 -28.96,0 -28.74,0 -28.52,0 -28.3,0 -28.08,0 -27.86,0 -27.65,0 -27.43,0 -27.21,0 -26.99,0 -26.77,0 -26.55,0 -26.33,0 -26.12,0 -25.9,0 -25.68,0 -25.46,0 -25.24,0 -25.02,0 -24.8,0 -24.59,0 -24.37,0 -24.15,0 -23.93,0 -23.71,0 -23.49,0 -23.27,0 -23.06,0 -22.84,0 -22.62,0 -22.4,0 -22.18,0 -21.96,0 -21.75,0 -21.53,0 -21.31,0 -21.09,0 -20.87,0 -20.65,0 -20.43,0 -20.22,0 -20,0 -19.78,0 -19.56,0 -19.34,0 -19.12,0 -18.9,0 -18.69,0 -18.47,0 -18.25,0 -18.03,0 -17.81,0 -17.59,0 -17.37,0 -17.16,0 -16.94,0 -16.72,0 -16.5,0 -16.28,0 -16.06,0 -15.84,0 -15.63,0 -15.41,0 -15.19,0 -14.97,0 -14.75,0 -14.53,0 -14.31,0 -14.1,0 -13.88,0 -13.66,0 -13.44,0 -13.22,0 -13,0 -12.78,0 -12.57,0 -12.35,0 -12.13,0 -11.91,0 -11.69,0 -11.47,0 -11.26,0 -11.04,0 -10.82,0 -10.6,0 -10.38,0 -10.16,0 -9.94,0 -9.73,0 -9.51,0 -9.29,0 -9.07,0 -8.85,0 -8.63,0 -8.41,0 -8.2,0 -7.98,0 -7.76,0 -7.54,0 -7.32,0 -7.1,0 -6.88,0 -6.67,0 -6.45,0 -6.23,0 -6.01,0 -5.79,0 -5.57,0 -5.35,0 -5.14,0 -4.92,0 -4.7,0 -4.48,0 -4.26,0 -4.04,0 -3.82,0 -3.61,0 -3.39,0 -3.17,0 -2.95,0 -2.73,0 -2.51,0 -2.29,0 -2.08,0 -1.86,0 -1.64,0 -1.42,0 -1.2,0 -0.98,0 -0.76,0 -0.55,0 -0.33,0 -0.11,0 0.11,0 0.33,0 0.55,0 0.76,0 0.98,0 1.2,0 1.42,0 1.64,0 1.86,0 2.08,0 2.29,0 2.51,0 2.73,0 2.95,0 3.17,0 3.39,0 3.61,0 3.82,0 4.04,0 4.26,0 4.48,0 4.7,0 4.92,0 5.14,0 5.35,0 5.57,0 5.79,0 6.01,0 6.23,0 6.45,0 6.67,0 6.88,0 7.1,0 7.32,0 7.54,0 7.76,0 7.98,0 8.2,0 8.41,0 8.63,0 8.85,0 9.07,0 9.29,0 9.51,0 9.73,0 9.94,0 10.16,0 10.38,0 10.6,0 10.82,0 11.04,0 11.26,0 11.47,0 11.69,0 11.91,0 12.13,0 12.35,0 12.57,0 12.78,0 13,0 13.22,0 13.44,0 13.66,0 13.88,0 14.1,0 14.31,0 14.53,0 14.75,0 14.97,0 15.19,0 15.41,0 15.63,0 15.84,0 16.06,0 16.28,0 16.5,0 16.72,0 16.94,0 17.16,0 17.37,0 17.59,0 17.81,0 18.03,0 18.25,0 18.47,0 18.69,0 18.9,0 19.12,0 19.34,0 19.56,0 19.78,0 20,0 20.22,0 20.43,0 20.65,0 20.87,0 21.09,0 21.31,0 21.53,0 21.75,0 21.96,0 22.18,0 22.4,0 22.62,0 22.84,0 23.06,0 23.27,0 23.49,0 23.71,0 23.93,0 24.15,0 24.37,0 24.59,0 24.8,0 25.02,0 25.24,0 25.46,0 25.68,0 25.9,0 26.12,0 26.33,0 26.55,0 26.77,0 26.99,0 27.21,0 27.43,0 27.65,0 27.86,0 28.08,0 28.3,0 28.52,0 28.74,0 28.96,0 29.18,0 29.39,0 29.61,0 29.83,0 30.05,0 30.27,0 30.49,0 30.71,0 30.92,0 31.14,0 31.36,0 31.58,0 31.8,0 32.02,0 32.24,0 32.45,0 32.67,0 32.89,0 33.11,0 33.33,0 33.55,0 33.77,0 33.98,0 34.2,0 34.42,0 34.64,0 34.86,0 35.08,0 35.29,0 35.51,0 35.73,0 35.95,0 36.17,0 36.39,0 36.61,0 36.82,0 37.04,0 37.26,0 37.48,0 37.7,0 37.92,0 38.14,0 38.35,0 38.57,0 38.79,0 39.01,0 39.23,0 39.45,0 39.67,0 39.88,0 40.1,0 40.32,0 40.54,0 40.76,0 40.98,0 41.2,0 41.41,0 41.63,0 41.85,0 42.07,0 42.29,0 42.51,0 42.73,0 42.94,0 43.16,0 43.38,0 43.6,0 43.82,0 44.04,0 44.26,0 44.47,0 44.69,0 44.91,0 45.13,0 45.35,0 45.57,0 45.78,0 46,0 46.22,0 46.44,0 46.66,0 46.88,0 47.1,0 47.31,0 47.53,0 47.75,0 47.97,0 48.19,0 48.41,0 48.63,0 48.84,0 49.06,0 49.28,0 49.5,0 49.72,0 49.94,0 50.16,0 50.37,0 50.59,0 50.81,0 51.03,0 51.25,0 51.47,0 51.69,0 51.9,0 52.12,0 52.34,0 52.56,0 52.78,0 53,0 53.22,0 53.43,0 53.65,0 53.87,0 54.09,0 54.31,0 54.53,0 54.75,0 54.96,0 55.18,0 55.4,0 55.62,0 55.84,0 56.06,0 56.28,0 56.49,0 56.71,0 56.93,0 57.15,0 57.37,0 57.59,0 57.8,0 58.02,0 58.24,0 58.46,0 58.68,0 58.9,0 59.12,0 59.33,0 59.55,0 59.77,0 59.99,0 60.21,0 60.43,0 60.65,0 60.86,0 61.08,0 61.3,0 61.52,0 61.74,0 61.96,0 62.18,0 62.39,0 62.61,0 62.83,0 63.05,0 63.27,0 63.49,0 63.71,0 63.92,0 64.14,0 64.36,0 64.58,0 64.8,0 65.02,0 65.24,0 65.45,0 65.67,0 65.89,0 66.11,0 66.33,0 66.55,0 66.77,0 66.98,0 67.2,0 67.42,0 67.64,0 67.86,0 68.08,0 68.29,0 68.51,0 68.73,0 68.95,0 69.17,0 69.39,0 69.61,0 69.82,0 70.04,0 70.26,0 70.48,0 70.7,0 70.92,0 71.14,0 71.35,0 71.57,0 71.79,0 72.01,0 72.23,0 72.45,0 72.67,0 72.88,0 73.1,0 73.32,0 73.54,0 73.76,0 73.98,0 74.2,0 74.41,0 74.63,0 74.85,0 75.07,0 75.29,0 75.51,0 75.73,0 75.94,0 76.16,0 76.38,0 76.6,0 76.82,0 77.04,0 77.26,0 77.47,0 77.69,0 77.91,0 78.13,0 78.35,0 78.57,0 78.79,0 79,0 79.22,0 79.44,0 79.66,0 79.88,0 80.1,0 80.31,0 80.53,0 80.75,0 80.97,0 81.19,0 81.41,0 81.63,0 81.84,0 82.06,0 82.28,0 82.5,0 82.72,0 82.94,0 83.16,0 83.37,0 83.59,0 83.81,0 84.03,0 84.25,0 84.47,0 84.69,0 84.9,0 85.12,0 85.34,0 85.56,0 85.78,0 86,0 86.22,0 86.43,0 86.65,0 86.87,0 87.09,0 87.31,0 " class="primitive"/>
            </g>
          </g>
        </g>
        <g stroke-width="0.3" fill="#000000" fill-opacity="0.000" class="geometry" id="img-5c2d844e-70">
          <g class="color_RGB{Float64}(0.0,0.6588235294117647,0.17647058823529413)" stroke-dasharray="none" stroke="#00A82D" id="img-5c2d844e-71">
            <g transform="translate(121.41,38.94)" id="img-5c2d844e-72">
              <path fill="none" d="M-87.31,0 L-87.09,0 -86.87,0 -86.65,0 -86.43,0 -86.22,0 -86,0 -85.78,0 -85.56,0 -85.34,0 -85.12,0 -84.9,0 -84.69,0 -84.47,0 -84.25,0 -84.03,0 -83.81,0 -83.59,0 -83.37,0 -83.16,0 -82.94,0 -82.72,0 -82.5,0 -82.28,0 -82.06,0 -81.84,0 -81.63,0 -81.41,0 -81.19,0 -80.97,0 -80.75,0 -80.53,0 -80.31,0 -80.1,0 -79.88,0 -79.66,0 -79.44,0 -79.22,0 -79,0 -78.79,0 -78.57,0 -78.35,-0 -78.13,-0 -77.91,-0 -77.69,0 -77.47,0 -77.26,0 -77.04,0 -76.82,0 -76.6,0 -76.38,0 -76.16,0 -75.94,0 -75.73,-0 -75.51,-0 -75.29,-0 -75.07,-0 -74.85,-0 -74.63,-0 -74.41,-0 -74.2,-0 -73.98,-0 -73.76,-0 -73.54,-0 -73.32,-0 -73.1,-0 -72.88,0 -72.67,0 -72.45,0 -72.23,0 -72.01,0 -71.79,0 -71.57,0 -71.35,0 -71.14,0 -70.92,-0 -70.7,-0 -70.48,-0 -70.26,-0 -70.04,-0 -69.82,-0 -69.61,-0 -69.39,-0 -69.17,-0 -68.95,0 -68.73,0 -68.51,0 -68.29,0 -68.08,0 -67.86,0 -67.64,0 -67.42,0 -67.2,0 -66.98,0 -66.77,0 -66.55,0 -66.33,0 -66.11,0 -65.89,0 -65.67,0 -65.45,0 -65.24,0.01 -65.02,0.01 -64.8,0.01 -64.58,0.02 -64.36,0.02 -64.14,0.03 -63.92,0.03 -63.71,0.03 -63.49,0.02 -63.27,0 -63.05,-0.02 -62.83,-0.05 -62.61,-0.08 -62.39,-0.1 -62.18,-0.12 -61.96,-0.13 -61.74,-0.13 -61.52,-0.11 -61.3,-0.07 -61.08,-0.02 -60.86,0.02 -60.65,0.07 -60.43,0.1 -60.21,0.11 -59.99,0.09 -59.77,0.04 -59.55,-0.03 -59.33,-0.1 -59.12,-0.18 -58.9,-0.22 -58.68,-0.23 -58.46,-0.18 -58.24,-0.06 -58.02,0.12 -57.8,0.34 -57.59,0.59 -57.37,0.82 -57.15,1 -56.93,1.09 -56.71,1.06 -56.49,0.9 -56.28,0.61 -56.06,0.22 -55.84,-0.24 -55.62,-0.71 -55.4,-1.14 -55.18,-1.48 -54.96,-1.67 -54.75,-1.7 -54.53,-1.56 -54.31,-1.28 -54.09,-0.89 -53.87,-0.44 -53.65,0.02 -53.43,0.44 -53.22,0.77 -53,0.99 -52.78,1.08 -52.56,1.06 -52.34,0.94 -52.12,0.75 -51.9,0.52 -51.69,0.29 -51.47,0.09 -51.25,-0.07 -51.03,-0.19 -50.81,-0.24 -50.59,-0.25 -50.37,-0.22 -50.16,-0.16 -49.94,-0.09 -49.72,-0.02 -49.5,0.04 -49.28,0.08 -49.06,0.1 -48.84,0.1 -48.63,0.08 -48.41,0.05 -48.19,0.01 -47.97,-0.02 -47.75,-0.06 -47.53,-0.08 -47.31,-0.1 -47.1,-0.11 -46.88,-0.1 -46.66,-0.09 -46.44,-0.08 -46.22,-0.06 -46,-0.04 -45.78,-0.02 -45.57,-0.01 -45.35,0.01 -45.13,0.01 -44.91,0.02 -44.69,0.02 -44.47,0.02 -44.26,0.02 -44.04,0.02 -43.82,0.01 -43.6,0.01 -43.38,0.01 -43.16,0.01 -42.94,0 -42.73,0 -42.51,0 -42.29,0 -42.07,0 -41.85,0 -41.63,0 -41.41,0 -41.2,0 -40.98,0 -40.76,0 -40.54,0 -40.32,0 -40.1,0 -39.88,0 -39.67,0 -39.45,0 -39.23,0 -39.01,0 -38.79,0 -38.57,0 -38.35,0 -38.14,0 -37.92,0 -37.7,0 -37.48,0 -37.26,0 -37.04,0 -36.82,0 -36.61,0 -36.39,0 -36.17,0 -35.95,0 -35.73,0 -35.51,0 -35.29,0 -35.08,0 -34.86,0 -34.64,0 -34.42,0 -34.2,0 -33.98,0 -33.77,0 -33.55,0 -33.33,0 -33.11,0 -32.89,0 -32.67,0 -32.45,0 -32.24,0 -32.02,0 -31.8,0 -31.58,0 -31.36,0 -31.14,0 -30.92,0 -30.71,0 -30.49,0 -30.27,0 -30.05,0 -29.83,0 -29.61,0 -29.39,0 -29.18,0 -28.96,0 -28.74,0 -28.52,0 -28.3,0 -28.08,0 -27.86,0 -27.65,0 -27.43,0 -27.21,0 -26.99,0 -26.77,0 -26.55,0 -26.33,0 -26.12,0 -25.9,0 -25.68,0 -25.46,0 -25.24,0 -25.02,0 -24.8,0 -24.59,0 -24.37,0 -24.15,0 -23.93,0 -23.71,0 -23.49,0 -23.27,0 -23.06,0 -22.84,0 -22.62,0 -22.4,0 -22.18,0 -21.96,0 -21.75,0 -21.53,0 -21.31,0 -21.09,0 -20.87,0 -20.65,0 -20.43,0 -20.22,0 -20,0 -19.78,0 -19.56,0 -19.34,0 -19.12,0 -18.9,0 -18.69,0 -18.47,0 -18.25,0 -18.03,0 -17.81,0 -17.59,0 -17.37,0 -17.16,0 -16.94,0 -16.72,0 -16.5,0 -16.28,0 -16.06,0 -15.84,0 -15.63,0 -15.41,0 -15.19,0 -14.97,0 -14.75,0 -14.53,0 -14.31,0 -14.1,0 -13.88,0 -13.66,0 -13.44,0 -13.22,0 -13,0 -12.78,0 -12.57,0 -12.35,0 -12.13,0 -11.91,0 -11.69,0 -11.47,0 -11.26,0 -11.04,0 -10.82,0 -10.6,0 -10.38,0 -10.16,0 -9.94,0 -9.73,0 -9.51,0 -9.29,0 -9.07,0 -8.85,0 -8.63,0 -8.41,0 -8.2,0 -7.98,0 -7.76,0 -7.54,0 -7.32,0 -7.1,0 -6.88,0 -6.67,0 -6.45,0 -6.23,0 -6.01,0 -5.79,0 -5.57,0 -5.35,0 -5.14,0 -4.92,0 -4.7,0 -4.48,0 -4.26,0 -4.04,0 -3.82,0 -3.61,0 -3.39,0 -3.17,0 -2.95,0 -2.73,0 -2.51,0 -2.29,0 -2.08,0 -1.86,0 -1.64,0 -1.42,0 -1.2,0 -0.98,0 -0.76,0 -0.55,0 -0.33,0 -0.11,0 0.11,0 0.33,0 0.55,0 0.76,0 0.98,0 1.2,0 1.42,0 1.64,0 1.86,0 2.08,0 2.29,0 2.51,0 2.73,0 2.95,0 3.17,0 3.39,0 3.61,0 3.82,0 4.04,0 4.26,0 4.48,0 4.7,0 4.92,0 5.14,0 5.35,0 5.57,0 5.79,0 6.01,0 6.23,0 6.45,0 6.67,0 6.88,0 7.1,0 7.32,0 7.54,0 7.76,0 7.98,0 8.2,0 8.41,0 8.63,0 8.85,0 9.07,0 9.29,0 9.51,0 9.73,0 9.94,0 10.16,0 10.38,0 10.6,0 10.82,0 11.04,0 11.26,0 11.47,0 11.69,0 11.91,0 12.13,0 12.35,0 12.57,0 12.78,0 13,0 13.22,0 13.44,0 13.66,0 13.88,0 14.1,0 14.31,0 14.53,0 14.75,0 14.97,0 15.19,0 15.41,0 15.63,0 15.84,0 16.06,0 16.28,0 16.5,0 16.72,0 16.94,0 17.16,0 17.37,0 17.59,0 17.81,0 18.03,0 18.25,0 18.47,0 18.69,0 18.9,0 19.12,0 19.34,0 19.56,0 19.78,0 20,0 20.22,0 20.43,0 20.65,0 20.87,0 21.09,0 21.31,0 21.53,0 21.75,0 21.96,0 22.18,0 22.4,0 22.62,0 22.84,0 23.06,0 23.27,0 23.49,0 23.71,0 23.93,0 24.15,0 24.37,0 24.59,0 24.8,0 25.02,0 25.24,0 25.46,0 25.68,0 25.9,0 26.12,0 26.33,0 26.55,0 26.77,0 26.99,0 27.21,0 27.43,0 27.65,0 27.86,0 28.08,0 28.3,0 28.52,0 28.74,0 28.96,0 29.18,0 29.39,0 29.61,0 29.83,0 30.05,0 30.27,0 30.49,0 30.71,0 30.92,0 31.14,0 31.36,0 31.58,0 31.8,0 32.02,0 32.24,0 32.45,0 32.67,0 32.89,0 33.11,0 33.33,0 33.55,0 33.77,0 33.98,0 34.2,0 34.42,0 34.64,0 34.86,0 35.08,0 35.29,0 35.51,0 35.73,0 35.95,0 36.17,0 36.39,0 36.61,0 36.82,0 37.04,0 37.26,0 37.48,0 37.7,0 37.92,0 38.14,0 38.35,0 38.57,0 38.79,0 39.01,0 39.23,0 39.45,0 39.67,0 39.88,0 40.1,0 40.32,0 40.54,0 40.76,0 40.98,0 41.2,0 41.41,0 41.63,0 41.85,0 42.07,0 42.29,0 42.51,0 42.73,0 42.94,0 43.16,0 43.38,0 43.6,0 43.82,0 44.04,0 44.26,0 44.47,0 44.69,0 44.91,0 45.13,0 45.35,0 45.57,0 45.78,0 46,0 46.22,0 46.44,0 46.66,0 46.88,0 47.1,0 47.31,0 47.53,0 47.75,0 47.97,0 48.19,0 48.41,0 48.63,0 48.84,0 49.06,0 49.28,0 49.5,0 49.72,0 49.94,0 50.16,0 50.37,0 50.59,0 50.81,0 51.03,0 51.25,0 51.47,0 51.69,0 51.9,0 52.12,0 52.34,0 52.56,0 52.78,0 53,0 53.22,0 53.43,0 53.65,0 53.87,0 54.09,0 54.31,0 54.53,0 54.75,0 54.96,0 55.18,0 55.4,0 55.62,0 55.84,0 56.06,0 56.28,0 56.49,0 56.71,0 56.93,0 57.15,0 57.37,0 57.59,0 57.8,0 58.02,0 58.24,0 58.46,0 58.68,0 58.9,0 59.12,0 59.33,0 59.55,0 59.77,0 59.99,0 60.21,0 60.43,0 60.65,0 60.86,0 61.08,0 61.3,0 61.52,0 61.74,0 61.96,0 62.18,0 62.39,0 62.61,0 62.83,0 63.05,0 63.27,0 63.49,0 63.71,0 63.92,0 64.14,0 64.36,0 64.58,0 64.8,0 65.02,0 65.24,0 65.45,0 65.67,0 65.89,0 66.11,0 66.33,0 66.55,0 66.77,0 66.98,0 67.2,0 67.42,0 67.64,0 67.86,0 68.08,0 68.29,0 68.51,0 68.73,0 68.95,0 69.17,0 69.39,0 69.61,0 69.82,0 70.04,0 70.26,0 70.48,0 70.7,0 70.92,0 71.14,0 71.35,0 71.57,0 71.79,0 72.01,0 72.23,0 72.45,0 72.67,0 72.88,0 73.1,0 73.32,0 73.54,0 73.76,0 73.98,0 74.2,0 74.41,0 74.63,0 74.85,0 75.07,0 75.29,0 75.51,0 75.73,0 75.94,0 76.16,0 76.38,0 76.6,0 76.82,0 77.04,0 77.26,0 77.47,0 77.69,0 77.91,0 78.13,0 78.35,0 78.57,0 78.79,0 79,0 79.22,0 79.44,0 79.66,0 79.88,0 80.1,0 80.31,0 80.53,0 80.75,0 80.97,0 81.19,0 81.41,0 81.63,0 81.84,0 82.06,0 82.28,0 82.5,0 82.72,0 82.94,0 83.16,0 83.37,0 83.59,0 83.81,0 84.03,0 84.25,0 84.47,0 84.69,0 84.9,0 85.12,0 85.34,0 85.56,0 85.78,0 86,0 86.22,0 86.43,0 86.65,0 86.87,0 87.09,0 87.31,0 " class="primitive"/>
            </g>
          </g>
        </g>
      </g>
    </g>
  </g>
  <g class="guide ylabels" font-size="2.82" font-family="'PT Sans Caption','Helvetica Neue','Helvetica',sans-serif" fill="#6C606B" id="img-5c2d844e-73">
    <g transform="translate(30.88,54.91)" id="img-5c2d844e-74">
      <g class="primitive">
        <text text-anchor="end" dy="0.35em">-5.0010</text>
      </g>
    </g>
    <g transform="translate(30.88,38.94)" id="img-5c2d844e-75">
      <g class="primitive">
        <text text-anchor="end" dy="0.35em">0</text>
      </g>
    </g>
    <g transform="translate(30.88,22.97)" id="img-5c2d844e-76">
      <g class="primitive">
        <text text-anchor="end" dy="0.35em">5.0010</text>
      </g>
    </g>
    <g transform="translate(30.88,7)" id="img-5c2d844e-77">
      <g class="primitive">
        <text text-anchor="end" dy="0.35em">1.0010</text>
      </g>
    </g>
  </g>
  <g font-size="3.88" font-family="'PT Sans','Helvetica Neue','Helvetica',sans-serif" fill="#564A55" stroke="#000000" stroke-opacity="0.000" id="img-5c2d844e-78">
    <g transform="translate(8.81,28.96)" id="img-5c2d844e-79">
      <g class="primitive">
        <text text-anchor="middle" dy="0.35em" transform="rotate(-90,0, 2)">Filtered</text>
      </g>
    </g>
  </g>
</g>
<defs>
  <clipPath id="img-5c2d844e-33">
    <path d="M31.89,5 L210.72,5 210.72,56.91 31.89,56.91 " />
  </clipPath>
</defs>
</svg>
